<?xml version="1.0" encoding="UTF-8" standalone="no"?>
<!DOCTYPE svg PUBLIC "-//W3C//DTD SVG 1.1//EN"
 "http://www.w3.org/Graphics/SVG/1.1/DTD/svg11.dtd">
<!-- Generated by graphviz version 2.43.0 (0)
 -->
<!-- Title: src/cgi/CgiExecutor.cpp Pages: 1 -->
<svg width="1330pt" height="252pt"
 viewBox="0.00 0.00 1329.71 252.00" xmlns="http://www.w3.org/2000/svg" xmlns:xlink="http://www.w3.org/1999/xlink">
<g id="graph0" class="graph" transform="scale(1 1) rotate(0) translate(4 248)">
<title>src/cgi/CgiExecutor.cpp</title>
<polygon fill="white" stroke="transparent" points="-4,4 -4,-248 1325.71,-248 1325.71,4 -4,4"/>
<!-- Node1 -->
<g id="node1" class="node">
<title>Node1</title>
<g id="a_node1"><a xlink:title=" ">
<polygon fill="#bfbfbf" stroke="black" points="817.56,-224.5 817.56,-243.5 938.56,-243.5 938.56,-224.5 817.56,-224.5"/>
<text text-anchor="middle" x="878.06" y="-231.5" font-family="Helvetica,sans-Serif" font-size="10.00">src/cgi/CgiExecutor.cpp</text>
</a>
</g>
</g>
<!-- Node2 -->
<g id="node2" class="node">
<title>Node2</title>
<g id="a_node2"><a xlink:href="CgiExecutor_8hpp.html" target="_top" xlink:title=" ">
<polygon fill="white" stroke="black" points="351.56,-168.5 351.56,-187.5 440.56,-187.5 440.56,-168.5 351.56,-168.5"/>
<text text-anchor="middle" x="396.06" y="-175.5" font-family="Helvetica,sans-Serif" font-size="10.00">CgiExecutor.hpp</text>
</a>
</g>
</g>
<!-- Node1&#45;&gt;Node2 -->
<g id="edge1" class="edge">
<title>Node1&#45;&gt;Node2</title>
<path fill="none" stroke="midnightblue" d="M817.33,-227.78C736.27,-220.55 588.01,-206.43 451.08,-188.06"/>
<polygon fill="midnightblue" stroke="midnightblue" points="451.2,-184.54 440.82,-186.67 450.26,-191.48 451.2,-184.54"/>
</g>
<!-- Node6 -->
<g id="node6" class="node">
<title>Node6</title>
<g id="a_node6"><a xlink:title=" ">
<polygon fill="white" stroke="#bfbfbf" points="571.06,-0.5 571.06,-19.5 625.06,-19.5 625.06,-0.5 571.06,-0.5"/>
<text text-anchor="middle" x="598.06" y="-7.5" font-family="Helvetica,sans-Serif" font-size="10.00">iostream</text>
</a>
</g>
</g>
<!-- Node1&#45;&gt;Node6 -->
<g id="edge36" class="edge">
<title>Node1&#45;&gt;Node6</title>
<path fill="none" stroke="midnightblue" d="M817.41,-231.46C676.57,-227.46 330.85,-215.12 218.06,-188 113.69,-162.9 54.46,-170.79 4.06,-76 -0.11,-68.15 -1.98,-62.52 4.06,-56 13.58,-45.74 431.51,-20.67 560.53,-13.16"/>
<polygon fill="midnightblue" stroke="midnightblue" points="560.93,-16.64 570.71,-12.57 560.53,-9.65 560.93,-16.64"/>
</g>
<!-- Node7 -->
<g id="node7" class="node">
<title>Node7</title>
<g id="a_node7"><a xlink:title=" ">
<polygon fill="white" stroke="#bfbfbf" points="851.06,-0.5 851.06,-19.5 895.06,-19.5 895.06,-0.5 851.06,-0.5"/>
<text text-anchor="middle" x="873.06" y="-7.5" font-family="Helvetica,sans-Serif" font-size="10.00">vector</text>
</a>
</g>
</g>
<!-- Node1&#45;&gt;Node7 -->
<g id="edge38" class="edge">
<title>Node1&#45;&gt;Node7</title>
<path fill="none" stroke="midnightblue" d="M938.7,-230.93C1049.69,-226.53 1276.36,-214.37 1300.06,-188 1417.26,-57.65 1023.59,-20.88 905.53,-12.9"/>
<polygon fill="midnightblue" stroke="midnightblue" points="905.5,-9.39 895.3,-12.23 905.05,-16.37 905.5,-9.39"/>
</g>
<!-- Node13 -->
<g id="node13" class="node">
<title>Node13</title>
<g id="a_node13"><a xlink:title=" ">
<polygon fill="white" stroke="#bfbfbf" points="13.56,-56.5 13.56,-75.5 64.56,-75.5 64.56,-56.5 13.56,-56.5"/>
<text text-anchor="middle" x="39.06" y="-63.5" font-family="Helvetica,sans-Serif" font-size="10.00">unistd.h</text>
</a>
</g>
</g>
<!-- Node1&#45;&gt;Node13 -->
<g id="edge29" class="edge">
<title>Node1&#45;&gt;Node13</title>
<path fill="none" stroke="midnightblue" d="M817.48,-231.19C717.88,-227.47 513.56,-216.76 343.06,-188 244,-171.29 214.46,-175.84 124.06,-132 97.59,-119.16 71.34,-97.33 55.17,-82.54"/>
<polygon fill="midnightblue" stroke="midnightblue" points="57.38,-79.82 47.68,-75.54 52.59,-84.93 57.38,-79.82"/>
</g>
<!-- Node15 -->
<g id="node15" class="node">
<title>Node15</title>
<g id="a_node15"><a xlink:title=" ">
<polygon fill="white" stroke="#bfbfbf" points="640.06,-168.5 640.06,-187.5 684.06,-187.5 684.06,-168.5 640.06,-168.5"/>
<text text-anchor="middle" x="662.06" y="-175.5" font-family="Helvetica,sans-Serif" font-size="10.00">fcntl.h</text>
</a>
</g>
</g>
<!-- Node1&#45;&gt;Node15 -->
<g id="edge26" class="edge">
<title>Node1&#45;&gt;Node15</title>
<path fill="none" stroke="midnightblue" d="M840.74,-224.43C805.33,-216.19 750.43,-203.11 694.16,-188.21"/>
<polygon fill="midnightblue" stroke="midnightblue" points="694.95,-184.8 684.38,-185.61 693.15,-191.56 694.95,-184.8"/>
</g>
<!-- Node16 -->
<g id="node16" class="node">
<title>Node16</title>
<g id="a_node16"><a xlink:title=" ">
<polygon fill="white" stroke="#bfbfbf" points="702.06,-168.5 702.06,-187.5 752.06,-187.5 752.06,-168.5 702.06,-168.5"/>
<text text-anchor="middle" x="727.06" y="-175.5" font-family="Helvetica,sans-Serif" font-size="10.00">signal.h</text>
</a>
</g>
</g>
<!-- Node1&#45;&gt;Node16 -->
<g id="edge27" class="edge">
<title>Node1&#45;&gt;Node16</title>
<path fill="none" stroke="midnightblue" d="M854.14,-224.44C828.85,-215.4 788.76,-201.06 760.39,-190.92"/>
<polygon fill="midnightblue" stroke="midnightblue" points="761.47,-187.59 750.88,-187.52 759.12,-194.18 761.47,-187.59"/>
</g>
<!-- Node17 -->
<g id="node17" class="node">
<title>Node17</title>
<g id="a_node17"><a xlink:title=" ">
<polygon fill="white" stroke="#bfbfbf" points="770.06,-168.5 770.06,-187.5 832.06,-187.5 832.06,-168.5 770.06,-168.5"/>
<text text-anchor="middle" x="801.06" y="-175.5" font-family="Helvetica,sans-Serif" font-size="10.00">sys/wait.h</text>
</a>
</g>
</g>
<!-- Node1&#45;&gt;Node17 -->
<g id="edge28" class="edge">
<title>Node1&#45;&gt;Node17</title>
<path fill="none" stroke="midnightblue" d="M865.69,-224.32C853.91,-216.06 835.93,-203.45 821.93,-193.63"/>
<polygon fill="midnightblue" stroke="midnightblue" points="823.6,-190.53 813.41,-187.65 819.58,-196.26 823.6,-190.53"/>
</g>
<!-- Node18 -->
<g id="node18" class="node">
<title>Node18</title>
<g id="a_node18"><a xlink:title=" ">
<polygon fill="white" stroke="#bfbfbf" points="850.06,-168.5 850.06,-187.5 906.06,-187.5 906.06,-168.5 850.06,-168.5"/>
<text text-anchor="middle" x="878.06" y="-175.5" font-family="Helvetica,sans-Serif" font-size="10.00">algorithm</text>
</a>
</g>
</g>
<!-- Node1&#45;&gt;Node18 -->
<g id="edge30" class="edge">
<title>Node1&#45;&gt;Node18</title>
<path fill="none" stroke="midnightblue" d="M878.06,-224.08C878.06,-217.01 878.06,-206.86 878.06,-197.99"/>
<polygon fill="midnightblue" stroke="midnightblue" points="881.56,-197.75 878.06,-187.75 874.56,-197.75 881.56,-197.75"/>
</g>
<!-- Node19 -->
<g id="node19" class="node">
<title>Node19</title>
<g id="a_node19"><a xlink:title=" ">
<polygon fill="white" stroke="#bfbfbf" points="924.06,-168.5 924.06,-187.5 970.06,-187.5 970.06,-168.5 924.06,-168.5"/>
<text text-anchor="middle" x="947.06" y="-175.5" font-family="Helvetica,sans-Serif" font-size="10.00">cctype</text>
</a>
</g>
</g>
<!-- Node1&#45;&gt;Node19 -->
<g id="edge31" class="edge">
<title>Node1&#45;&gt;Node19</title>
<path fill="none" stroke="midnightblue" d="M889.15,-224.32C899.55,-216.18 915.33,-203.84 927.79,-194.09"/>
<polygon fill="midnightblue" stroke="midnightblue" points="930.06,-196.75 935.78,-187.83 925.74,-191.24 930.06,-196.75"/>
</g>
<!-- Node20 -->
<g id="node20" class="node">
<title>Node20</title>
<g id="a_node20"><a xlink:title=" ">
<polygon fill="white" stroke="#bfbfbf" points="988.06,-168.5 988.06,-187.5 1032.06,-187.5 1032.06,-168.5 988.06,-168.5"/>
<text text-anchor="middle" x="1010.06" y="-175.5" font-family="Helvetica,sans-Serif" font-size="10.00">cerrno</text>
</a>
</g>
</g>
<!-- Node1&#45;&gt;Node20 -->
<g id="edge32" class="edge">
<title>Node1&#45;&gt;Node20</title>
<path fill="none" stroke="midnightblue" d="M898.98,-224.44C920.8,-215.52 955.21,-201.44 979.96,-191.32"/>
<polygon fill="midnightblue" stroke="midnightblue" points="981.32,-194.54 989.25,-187.52 978.67,-188.06 981.32,-194.54"/>
</g>
<!-- Node21 -->
<g id="node21" class="node">
<title>Node21</title>
<g id="a_node21"><a xlink:title=" ">
<polygon fill="white" stroke="#bfbfbf" points="1050.56,-168.5 1050.56,-187.5 1093.56,-187.5 1093.56,-168.5 1050.56,-168.5"/>
<text text-anchor="middle" x="1072.06" y="-175.5" font-family="Helvetica,sans-Serif" font-size="10.00">cstdio</text>
</a>
</g>
</g>
<!-- Node1&#45;&gt;Node21 -->
<g id="edge33" class="edge">
<title>Node1&#45;&gt;Node21</title>
<path fill="none" stroke="midnightblue" d="M909.35,-224.5C940.26,-216.06 989.15,-202.65 1040.74,-188.07"/>
<polygon fill="midnightblue" stroke="midnightblue" points="1041.73,-191.42 1050.4,-185.33 1039.82,-184.69 1041.73,-191.42"/>
</g>
<!-- Node22 -->
<g id="node22" class="node">
<title>Node22</title>
<g id="a_node22"><a xlink:title=" ">
<polygon fill="white" stroke="#bfbfbf" points="1111.56,-168.5 1111.56,-187.5 1156.56,-187.5 1156.56,-168.5 1111.56,-168.5"/>
<text text-anchor="middle" x="1134.06" y="-175.5" font-family="Helvetica,sans-Serif" font-size="10.00">cstdlib</text>
</a>
</g>
</g>
<!-- Node1&#45;&gt;Node22 -->
<g id="edge34" class="edge">
<title>Node1&#45;&gt;Node22</title>
<path fill="none" stroke="midnightblue" d="M927.05,-224.45C970.57,-216.57 1036.11,-204.02 1101.39,-188.26"/>
<polygon fill="midnightblue" stroke="midnightblue" points="1102.55,-191.58 1111.44,-185.81 1100.89,-184.78 1102.55,-191.58"/>
</g>
<!-- Node23 -->
<g id="node23" class="node">
<title>Node23</title>
<g id="a_node23"><a xlink:title=" ">
<polygon fill="white" stroke="#bfbfbf" points="1175.06,-168.5 1175.06,-187.5 1221.06,-187.5 1221.06,-168.5 1175.06,-168.5"/>
<text text-anchor="middle" x="1198.06" y="-175.5" font-family="Helvetica,sans-Serif" font-size="10.00">cstring</text>
</a>
</g>
</g>
<!-- Node1&#45;&gt;Node23 -->
<g id="edge35" class="edge">
<title>Node1&#45;&gt;Node23</title>
<path fill="none" stroke="midnightblue" d="M938.58,-225.68C994.89,-218.38 1081.3,-205.96 1164.82,-188.06"/>
<polygon fill="midnightblue" stroke="midnightblue" points="1165.7,-191.45 1174.73,-185.91 1164.21,-184.61 1165.7,-191.45"/>
</g>
<!-- Node24 -->
<g id="node24" class="node">
<title>Node24</title>
<g id="a_node24"><a xlink:title=" ">
<polygon fill="white" stroke="#bfbfbf" points="1239.06,-168.5 1239.06,-187.5 1291.06,-187.5 1291.06,-168.5 1239.06,-168.5"/>
<text text-anchor="middle" x="1265.06" y="-175.5" font-family="Helvetica,sans-Serif" font-size="10.00">sstream</text>
</a>
</g>
</g>
<!-- Node1&#45;&gt;Node24 -->
<g id="edge37" class="edge">
<title>Node1&#45;&gt;Node24</title>
<path fill="none" stroke="midnightblue" d="M938.85,-227.55C1007.17,-220.91 1121.53,-208.23 1228.75,-188.05"/>
<polygon fill="midnightblue" stroke="midnightblue" points="1229.6,-191.45 1238.77,-186.14 1228.29,-184.57 1229.6,-191.45"/>
</g>
<!-- Node25 -->
<g id="node25" class="node">
<title>Node25</title>
<g id="a_node25"><a xlink:href="RequestProcessorUtils_8hpp.html" target="_top" xlink:title=" ">
<polygon fill="white" stroke="black" points="458.56,-168.5 458.56,-187.5 621.56,-187.5 621.56,-168.5 458.56,-168.5"/>
<text text-anchor="middle" x="540.06" y="-175.5" font-family="Helvetica,sans-Serif" font-size="10.00">client/RequestProcessorUtils.hpp</text>
</a>
</g>
</g>
<!-- Node1&#45;&gt;Node25 -->
<g id="edge39" class="edge">
<title>Node1&#45;&gt;Node25</title>
<path fill="none" stroke="midnightblue" d="M824.51,-224.44C764.43,-214.85 667.08,-199.29 603.31,-189.1"/>
<polygon fill="midnightblue" stroke="midnightblue" points="603.8,-185.64 593.37,-187.52 602.69,-192.55 603.8,-185.64"/>
</g>
<!-- Node3 -->
<g id="node3" class="node">
<title>Node3</title>
<g id="a_node3"><a xlink:title=" ">
<polygon fill="white" stroke="#bfbfbf" points="703.56,-0.5 703.56,-19.5 738.56,-19.5 738.56,-0.5 703.56,-0.5"/>
<text text-anchor="middle" x="721.06" y="-7.5" font-family="Helvetica,sans-Serif" font-size="10.00">map</text>
</a>
</g>
</g>
<!-- Node2&#45;&gt;Node3 -->
<g id="edge2" class="edge">
<title>Node2&#45;&gt;Node3</title>
<path fill="none" stroke="midnightblue" d="M440.65,-169.58C509.6,-158.06 636.36,-136.71 657.06,-132 745.82,-111.79 799.2,-148.63 854.06,-76 883.53,-37 795.81,-20.07 748.76,-13.95"/>
<polygon fill="midnightblue" stroke="midnightblue" points="748.93,-10.44 738.58,-12.71 748.08,-17.39 748.93,-10.44"/>
</g>
<!-- Node4 -->
<g id="node4" class="node">
<title>Node4</title>
<g id="a_node4"><a xlink:title=" ">
<polygon fill="white" stroke="#bfbfbf" points="387.56,-0.5 387.56,-19.5 428.56,-19.5 428.56,-0.5 387.56,-0.5"/>
<text text-anchor="middle" x="408.06" y="-7.5" font-family="Helvetica,sans-Serif" font-size="10.00">string</text>
</a>
</g>
</g>
<!-- Node2&#45;&gt;Node4 -->
<g id="edge3" class="edge">
<title>Node2&#45;&gt;Node4</title>
<path fill="none" stroke="midnightblue" d="M354.59,-168.5C334.48,-162.06 312.11,-150.95 300.06,-132 281.94,-103.49 281.33,-84.1 300.06,-56 317.2,-30.3 352.08,-19.26 377.58,-14.52"/>
<polygon fill="midnightblue" stroke="midnightblue" points="378.21,-17.97 387.52,-12.9 377.08,-11.06 378.21,-17.97"/>
</g>
<!-- Node5 -->
<g id="node5" class="node">
<title>Node5</title>
<g id="a_node5"><a xlink:href="ServerConfig_8hpp.html" target="_top" xlink:title=" ">
<polygon fill="white" stroke="black" points="474.56,-112.5 474.56,-131.5 605.56,-131.5 605.56,-112.5 474.56,-112.5"/>
<text text-anchor="middle" x="540.06" y="-119.5" font-family="Helvetica,sans-Serif" font-size="10.00">../config/ServerConfig.hpp</text>
</a>
</g>
</g>
<!-- Node2&#45;&gt;Node5 -->
<g id="edge4" class="edge">
<title>Node2&#45;&gt;Node5</title>
<path fill="none" stroke="midnightblue" d="M418.88,-168.44C442.9,-159.44 480.89,-145.19 507.93,-135.05"/>
<polygon fill="midnightblue" stroke="midnightblue" points="509.22,-138.3 517.35,-131.52 506.76,-131.75 509.22,-138.3"/>
</g>
<!-- Node10 -->
<g id="node10" class="node">
<title>Node10</title>
<g id="a_node10"><a xlink:href="HttpRequest_8hpp.html" target="_top" xlink:title=" ">
<polygon fill="white" stroke="black" points="725.56,-56.5 725.56,-75.5 844.56,-75.5 844.56,-56.5 725.56,-56.5"/>
<text text-anchor="middle" x="785.06" y="-63.5" font-family="Helvetica,sans-Serif" font-size="10.00">../http/HttpRequest.hpp</text>
</a>
</g>
</g>
<!-- Node2&#45;&gt;Node10 -->
<g id="edge16" class="edge">
<title>Node2&#45;&gt;Node10</title>
<path fill="none" stroke="midnightblue" d="M440.98,-168.66C495.18,-158.45 583.02,-141.35 615.06,-132 665.78,-117.2 722.77,-94 756.2,-79.69"/>
<polygon fill="midnightblue" stroke="midnightblue" points="757.99,-82.73 765.79,-75.56 755.22,-76.31 757.99,-82.73"/>
</g>
<!-- Node11 -->
<g id="node11" class="node">
<title>Node11</title>
<g id="a_node11"><a xlink:href="CgiProcess_8hpp.html" target="_top" xlink:title=" ">
<polygon fill="white" stroke="black" points="133.06,-112.5 133.06,-131.5 219.06,-131.5 219.06,-112.5 133.06,-112.5"/>
<text text-anchor="middle" x="176.06" y="-119.5" font-family="Helvetica,sans-Serif" font-size="10.00">CgiProcess.hpp</text>
</a>
</g>
</g>
<!-- Node2&#45;&gt;Node11 -->
<g id="edge21" class="edge">
<title>Node2&#45;&gt;Node11</title>
<path fill="none" stroke="midnightblue" d="M361.21,-168.44C323.15,-159.1 262.11,-144.12 220.6,-133.93"/>
<polygon fill="midnightblue" stroke="midnightblue" points="221.31,-130.5 210.76,-131.52 219.64,-137.3 221.31,-130.5"/>
</g>
<!-- Node5&#45;&gt;Node3 -->
<g id="edge6" class="edge">
<title>Node5&#45;&gt;Node3</title>
<path fill="none" stroke="midnightblue" d="M545.78,-112.18C555.15,-98.37 575.04,-71.63 598.06,-56 627.66,-35.9 667.33,-23.51 693.52,-16.95"/>
<polygon fill="midnightblue" stroke="midnightblue" points="694.6,-20.29 703.51,-14.56 692.98,-13.48 694.6,-20.29"/>
</g>
<!-- Node5&#45;&gt;Node4 -->
<g id="edge7" class="edge">
<title>Node5&#45;&gt;Node4</title>
<path fill="none" stroke="midnightblue" d="M533.79,-112.23C524,-98.97 504.03,-73.51 483.06,-56 468.34,-43.71 449.88,-32.59 434.97,-24.48"/>
<polygon fill="midnightblue" stroke="midnightblue" points="436.22,-21.18 425.75,-19.6 432.95,-27.37 436.22,-21.18"/>
</g>
<!-- Node5&#45;&gt;Node6 -->
<g id="edge5" class="edge">
<title>Node5&#45;&gt;Node6</title>
<path fill="none" stroke="midnightblue" d="M542.41,-112.24C546.03,-99.42 553.68,-75 564.06,-56 569.57,-45.93 577.17,-35.64 583.78,-27.45"/>
<polygon fill="midnightblue" stroke="midnightblue" points="586.47,-29.69 590.2,-19.77 581.1,-25.2 586.47,-29.69"/>
</g>
<!-- Node5&#45;&gt;Node7 -->
<g id="edge8" class="edge">
<title>Node5&#45;&gt;Node7</title>
<path fill="none" stroke="midnightblue" d="M605.63,-119.74C686.57,-116.84 817.97,-107.3 854.06,-76 867.23,-64.58 871.52,-44.6 872.8,-29.79"/>
<polygon fill="midnightblue" stroke="midnightblue" points="876.3,-29.87 873.29,-19.71 869.31,-29.53 876.3,-29.87"/>
</g>
<!-- Node8 -->
<g id="node8" class="node">
<title>Node8</title>
<g id="a_node8"><a xlink:href="LocationConfig_8hpp.html" target="_top" xlink:title=" ">
<polygon fill="white" stroke="black" points="606.56,-56.5 606.56,-75.5 707.56,-75.5 707.56,-56.5 606.56,-56.5"/>
<text text-anchor="middle" x="657.06" y="-63.5" font-family="Helvetica,sans-Serif" font-size="10.00">LocationConfig.hpp</text>
</a>
</g>
</g>
<!-- Node5&#45;&gt;Node8 -->
<g id="edge9" class="edge">
<title>Node5&#45;&gt;Node8</title>
<path fill="none" stroke="midnightblue" d="M558.6,-112.44C577.69,-103.64 607.64,-89.81 629.5,-79.72"/>
<polygon fill="midnightblue" stroke="midnightblue" points="631,-82.88 638.61,-75.52 628.07,-76.53 631,-82.88"/>
</g>
<!-- Node9 -->
<g id="node9" class="node">
<title>Node9</title>
<g id="a_node9"><a xlink:href="namespaces_8hpp.html" target="_top" xlink:title=" ">
<polygon fill="white" stroke="black" points="342.56,-56.5 342.56,-75.5 473.56,-75.5 473.56,-56.5 342.56,-56.5"/>
<text text-anchor="middle" x="408.06" y="-63.5" font-family="Helvetica,sans-Serif" font-size="10.00">common/namespaces.hpp</text>
</a>
</g>
</g>
<!-- Node5&#45;&gt;Node9 -->
<g id="edge14" class="edge">
<title>Node5&#45;&gt;Node9</title>
<path fill="none" stroke="midnightblue" d="M519.15,-112.44C497.33,-103.52 462.92,-89.44 438.17,-79.32"/>
<polygon fill="midnightblue" stroke="midnightblue" points="439.46,-76.06 428.88,-75.52 436.81,-82.54 439.46,-76.06"/>
</g>
<!-- Node8&#45;&gt;Node3 -->
<g id="edge11" class="edge">
<title>Node8&#45;&gt;Node3</title>
<path fill="none" stroke="midnightblue" d="M667.35,-56.32C676.9,-48.26 691.34,-36.08 702.85,-26.37"/>
<polygon fill="midnightblue" stroke="midnightblue" points="705.21,-28.96 710.6,-19.83 700.7,-23.61 705.21,-28.96"/>
</g>
<!-- Node8&#45;&gt;Node4 -->
<g id="edge12" class="edge">
<title>Node8&#45;&gt;Node4</title>
<path fill="none" stroke="midnightblue" d="M617.61,-56.44C567.97,-45.68 483.78,-27.42 438.71,-17.65"/>
<polygon fill="midnightblue" stroke="midnightblue" points="439.17,-14.17 428.66,-15.47 437.69,-21.01 439.17,-14.17"/>
</g>
<!-- Node8&#45;&gt;Node6 -->
<g id="edge10" class="edge">
<title>Node8&#45;&gt;Node6</title>
<path fill="none" stroke="midnightblue" d="M647.59,-56.32C638.86,-48.34 625.72,-36.31 615.17,-26.65"/>
<polygon fill="midnightblue" stroke="midnightblue" points="617.46,-24 607.72,-19.83 612.73,-29.17 617.46,-24"/>
</g>
<!-- Node8&#45;&gt;Node7 -->
<g id="edge13" class="edge">
<title>Node8&#45;&gt;Node7</title>
<path fill="none" stroke="midnightblue" d="M691.29,-56.44C732.44,-46.16 800.95,-29.03 841.07,-19"/>
<polygon fill="midnightblue" stroke="midnightblue" points="842.02,-22.37 850.87,-16.55 840.32,-15.58 842.02,-22.37"/>
</g>
<!-- Node9&#45;&gt;Node4 -->
<g id="edge15" class="edge">
<title>Node9&#45;&gt;Node4</title>
<path fill="none" stroke="midnightblue" d="M408.06,-56.08C408.06,-49.01 408.06,-38.86 408.06,-29.99"/>
<polygon fill="midnightblue" stroke="midnightblue" points="411.56,-29.75 408.06,-19.75 404.56,-29.75 411.56,-29.75"/>
</g>
<!-- Node10&#45;&gt;Node3 -->
<g id="edge18" class="edge">
<title>Node10&#45;&gt;Node3</title>
<path fill="none" stroke="midnightblue" d="M774.78,-56.32C765.23,-48.26 750.79,-36.08 739.28,-26.37"/>
<polygon fill="midnightblue" stroke="midnightblue" points="741.43,-23.61 731.53,-19.83 736.92,-28.96 741.43,-23.61"/>
</g>
<!-- Node10&#45;&gt;Node4 -->
<g id="edge19" class="edge">
<title>Node10&#45;&gt;Node4</title>
<path fill="none" stroke="midnightblue" d="M725.33,-56.44C643.88,-44.78 500.98,-24.31 438.62,-15.38"/>
<polygon fill="midnightblue" stroke="midnightblue" points="439.03,-11.9 428.63,-13.95 438.04,-18.83 439.03,-11.9"/>
</g>
<!-- Node10&#45;&gt;Node6 -->
<g id="edge17" class="edge">
<title>Node10&#45;&gt;Node6</title>
<path fill="none" stroke="midnightblue" d="M755.43,-56.44C722.81,-47.02 670.33,-31.87 635.04,-21.68"/>
<polygon fill="midnightblue" stroke="midnightblue" points="635.71,-18.23 625.13,-18.82 633.76,-24.95 635.71,-18.23"/>
</g>
<!-- Node10&#45;&gt;Node7 -->
<g id="edge20" class="edge">
<title>Node10&#45;&gt;Node7</title>
<path fill="none" stroke="midnightblue" d="M799.2,-56.32C812.93,-47.9 834,-34.97 850.13,-25.07"/>
<polygon fill="midnightblue" stroke="midnightblue" points="852.27,-27.87 858.96,-19.65 848.61,-21.9 852.27,-27.87"/>
</g>
<!-- Node11&#45;&gt;Node4 -->
<g id="edge25" class="edge">
<title>Node11&#45;&gt;Node4</title>
<path fill="none" stroke="midnightblue" d="M185.37,-112.19C200.39,-98.41 231.41,-71.69 262.06,-56 299.66,-36.76 346.97,-24.04 377.36,-17.18"/>
<polygon fill="midnightblue" stroke="midnightblue" points="378.34,-20.55 387.37,-15 376.85,-13.71 378.34,-20.55"/>
</g>
<!-- Node12 -->
<g id="node12" class="node">
<title>Node12</title>
<g id="a_node12"><a xlink:title=" ">
<polygon fill="white" stroke="#bfbfbf" points="142.06,-56.5 142.06,-75.5 210.06,-75.5 210.06,-56.5 142.06,-56.5"/>
<text text-anchor="middle" x="176.06" y="-63.5" font-family="Helvetica,sans-Serif" font-size="10.00">sys/types.h</text>
</a>
</g>
</g>
<!-- Node11&#45;&gt;Node12 -->
<g id="edge22" class="edge">
<title>Node11&#45;&gt;Node12</title>
<path fill="none" stroke="midnightblue" d="M176.06,-112.08C176.06,-105.01 176.06,-94.86 176.06,-85.99"/>
<polygon fill="midnightblue" stroke="midnightblue" points="179.56,-85.75 176.06,-75.75 172.56,-85.75 179.56,-85.75"/>
</g>
<!-- Node11&#45;&gt;Node13 -->
<g id="edge23" class="edge">
<title>Node11&#45;&gt;Node13</title>
<path fill="none" stroke="midnightblue" d="M154.36,-112.44C131.71,-103.52 95.99,-89.44 70.31,-79.32"/>
<polygon fill="midnightblue" stroke="midnightblue" points="71.26,-75.93 60.67,-75.52 68.69,-82.44 71.26,-75.93"/>
</g>
<!-- Node14 -->
<g id="node14" class="node">
<title>Node14</title>
<g id="a_node14"><a xlink:title=" ">
<polygon fill="white" stroke="#bfbfbf" points="82.56,-56.5 82.56,-75.5 123.56,-75.5 123.56,-56.5 82.56,-56.5"/>
<text text-anchor="middle" x="103.06" y="-63.5" font-family="Helvetica,sans-Serif" font-size="10.00">ctime</text>
</a>
</g>
</g>
<!-- Node11&#45;&gt;Node14 -->
<g id="edge24" class="edge">
<title>Node11&#45;&gt;Node14</title>
<path fill="none" stroke="midnightblue" d="M164.34,-112.32C153.23,-104.11 136.32,-91.6 123.08,-81.81"/>
<polygon fill="midnightblue" stroke="midnightblue" points="125.13,-78.97 115.01,-75.83 120.96,-84.59 125.13,-78.97"/>
</g>
<!-- Node25&#45;&gt;Node4 -->
<g id="edge40" class="edge">
<title>Node25&#45;&gt;Node4</title>
<path fill="none" stroke="midnightblue" d="M491.4,-168.4C442.08,-156.82 368.31,-130.93 334.06,-76 319.72,-53 351.52,-33.56 377.82,-22.09"/>
<polygon fill="midnightblue" stroke="midnightblue" points="379.25,-25.28 387.16,-18.23 376.58,-18.81 379.25,-25.28"/>
</g>
<!-- Node25&#45;&gt;Node5 -->
<g id="edge43" class="edge">
<title>Node25&#45;&gt;Node5</title>
<path fill="none" stroke="midnightblue" d="M540.06,-168.08C540.06,-161.01 540.06,-150.86 540.06,-141.99"/>
<polygon fill="midnightblue" stroke="midnightblue" points="543.56,-141.75 540.06,-131.75 536.56,-141.75 543.56,-141.75"/>
</g>
<!-- Node25&#45;&gt;Node7 -->
<g id="edge41" class="edge">
<title>Node25&#45;&gt;Node7</title>
<path fill="none" stroke="midnightblue" d="M592.25,-168.47C676.32,-153.57 835.81,-120.14 870.06,-76 880.12,-63.04 879.73,-43.88 877.52,-29.71"/>
<polygon fill="midnightblue" stroke="midnightblue" points="880.9,-28.76 875.51,-19.64 874.03,-30.13 880.9,-28.76"/>
</g>
<!-- Node25&#45;&gt;Node8 -->
<g id="edge42" class="edge">
<title>Node25&#45;&gt;Node8</title>
<path fill="none" stroke="midnightblue" d="M559.57,-168.39C575.76,-160.56 598.69,-147.84 615.06,-132 629.21,-118.32 640.91,-99.02 648.34,-85.01"/>
<polygon fill="midnightblue" stroke="midnightblue" points="651.56,-86.39 652.97,-75.89 645.32,-83.22 651.56,-86.39"/>
</g>
<!-- Node25&#45;&gt;Node10 -->
<g id="edge44" class="edge">
<title>Node25&#45;&gt;Node10</title>
<path fill="none" stroke="midnightblue" d="M559.29,-168.37C602.23,-149.09 706.1,-102.45 756.58,-79.79"/>
<polygon fill="midnightblue" stroke="midnightblue" points="758.24,-82.88 765.93,-75.59 755.37,-76.49 758.24,-82.88"/>
</g>
</g>
</svg>
