<?xml version="1.0" encoding="UTF-8" standalone="no"?>
<!DOCTYPE svg PUBLIC "-//W3C//DTD SVG 1.1//EN"
 "http://www.w3.org/Graphics/SVG/1.1/DTD/svg11.dtd">
<!-- Generated by graphviz version 2.43.0 (0)
 -->
<!-- Title: src/cgi/CgiExecutor.hpp Pages: 1 -->
<!--zoomable 196 -->
<svg id="main" version="1.1" xmlns="http://www.w3.org/2000/svg" xmlns:xlink="http://www.w3.org/1999/xlink" xml:space="preserve" onload="init(evt)">
<style type="text/css"><![CDATA[
.edge:hover path { stroke: red; }
.edge:hover polygon { stroke: red; fill: red; }
]]></style>
<script type="text/javascript"><![CDATA[
var edges = document.getElementsByTagName('g');
if (edges && edges.length) {
  for (var i=0;i<edges.length;i++) {
    if (edges[i].id.substr(0,4)=='edge') {
      edges[i].setAttribute('class','edge');
    }
  }
}
]]></script>
        <defs>
                <circle id="rim" cx="0" cy="0" r="7"/>
                <circle id="rim2" cx="0" cy="0" r="3.5"/>
                <g id="zoomPlus">
                        <use xlink:href="#rim" fill="#404040">
                                <set attributeName="fill" to="#808080" begin="zoomplus.mouseover" end="zoomplus.mouseout"/>
                        </use>
                        <path d="M-4,0h8M0,-4v8" fill="none" stroke="white" stroke-width="1.5" pointer-events="none"/>
                </g>
                <g id="zoomMin">
                        <use xlink:href="#rim" fill="#404040">
                                <set attributeName="fill" to="#808080" begin="zoomminus.mouseover" end="zoomminus.mouseout"/>
                        </use>
                        <path d="M-4,0h8" fill="none" stroke="white" stroke-width="1.5" pointer-events="none"/>
                </g>
                <g id="dirArrow">
                        <path fill="none" stroke="white" stroke-width="1.5" d="M0,-3.0v7 M-2.5,-0.5L0,-3.0L2.5,-0.5"/>
                </g>
               <g id="resetDef">
                       <use xlink:href="#rim2" fill="#404040">
                               <set attributeName="fill" to="#808080" begin="reset.mouseover" end="reset.mouseout"/>
                       </use>
               </g>
        </defs>

<script type="text/javascript">
var viewWidth = 825;
var viewHeight = 196;
var sectionId = 'dynsection-0';
</script>
<script xlink:href="svgpan.js"/>
<svg id="graph" class="graph">
<g id="viewport">
<title>src/cgi/CgiExecutor.hpp</title>
<polygon fill="white" stroke="transparent" points="-4,4 -4,-192 820.61,-192 820.61,4 -4,4"/>
<!-- Node1 -->
<g id="node1" class="node">
<title>Node1</title>
<g id="a_node1"><a xlink:title=" ">
<polygon fill="#bfbfbf" stroke="black" points="227.61,-168.5 227.61,-187.5 348.61,-187.5 348.61,-168.5 227.61,-168.5"/>
<text text-anchor="middle" x="288.11" y="-175.5" font-family="Helvetica,sans-Serif" font-size="10.00">src/cgi/CgiExecutor.hpp</text>
</a>
</g>
</g>
<!-- Node2 -->
<g id="node2" class="node">
<title>Node2</title>
<g id="a_node2"><a xlink:title=" ">
<polygon fill="white" stroke="#bfbfbf" points="20.61,-0.5 20.61,-19.5 55.61,-19.5 55.61,-0.5 20.61,-0.5"/>
<text text-anchor="middle" x="38.11" y="-7.5" font-family="Helvetica,sans-Serif" font-size="10.00">map</text>
</a>
</g>
</g>
<!-- Node1&#45;&gt;Node2 -->
<g id="edge1" class="edge">
<title>Node1&#45;&gt;Node2</title>
<path fill="none" stroke="midnightblue" d="M227.57,-174.78C160.32,-168.69 54.57,-147.51 4.11,-76 -6.94,-60.34 6.75,-40.64 19.91,-27.05"/>
<polygon fill="midnightblue" stroke="midnightblue" points="22.63,-29.29 27.4,-19.83 17.77,-24.25 22.63,-29.29"/>
</g>
<!-- Node3 -->
<g id="node3" class="node">
<title>Node3</title>
<g id="a_node3"><a xlink:title=" ">
<polygon fill="white" stroke="#bfbfbf" points="392.61,-0.5 392.61,-19.5 433.61,-19.5 433.61,-0.5 392.61,-0.5"/>
<text text-anchor="middle" x="413.11" y="-7.5" font-family="Helvetica,sans-Serif" font-size="10.00">string</text>
</a>
</g>
</g>
<!-- Node1&#45;&gt;Node3 -->
<g id="edge2" class="edge">
<title>Node1&#45;&gt;Node3</title>
<path fill="none" stroke="midnightblue" d="M348.87,-170.88C407.43,-161.39 493.04,-137.26 534.11,-76 558.21,-40.04 487.29,-22.4 443.99,-15.17"/>
<polygon fill="midnightblue" stroke="midnightblue" points="444.33,-11.68 433.91,-13.59 443.25,-18.6 444.33,-11.68"/>
</g>
<!-- Node4 -->
<g id="node4" class="node">
<title>Node4</title>
<g id="a_node4"><a xlink:href="ServerConfig_8hpp.html" target="_top" xlink:title=" ">
<polygon fill="white" stroke="black" points="222.61,-112.5 222.61,-131.5 353.61,-131.5 353.61,-112.5 222.61,-112.5"/>
<text text-anchor="middle" x="288.11" y="-119.5" font-family="Helvetica,sans-Serif" font-size="10.00">../config/ServerConfig.hpp</text>
</a>
</g>
</g>
<!-- Node1&#45;&gt;Node4 -->
<g id="edge3" class="edge">
<title>Node1&#45;&gt;Node4</title>
<path fill="none" stroke="midnightblue" d="M288.11,-168.08C288.11,-161.01 288.11,-150.86 288.11,-141.99"/>
<polygon fill="midnightblue" stroke="midnightblue" points="291.61,-141.75 288.11,-131.75 284.61,-141.75 291.61,-141.75"/>
</g>
<!-- Node9 -->
<g id="node9" class="node">
<title>Node9</title>
<g id="a_node9"><a xlink:href="HttpRequest_8hpp.html" target="_top" xlink:title=" ">
<polygon fill="white" stroke="black" points="22.61,-56.5 22.61,-75.5 141.61,-75.5 141.61,-56.5 22.61,-56.5"/>
<text text-anchor="middle" x="82.11" y="-63.5" font-family="Helvetica,sans-Serif" font-size="10.00">../http/HttpRequest.hpp</text>
</a>
</g>
</g>
<!-- Node1&#45;&gt;Node9 -->
<g id="edge15" class="edge">
<title>Node1&#45;&gt;Node9</title>
<path fill="none" stroke="midnightblue" d="M271.94,-168.37C236.14,-149.25 149.96,-103.23 107.13,-80.36"/>
<polygon fill="midnightblue" stroke="midnightblue" points="108.67,-77.21 98.2,-75.59 105.37,-83.39 108.67,-77.21"/>
</g>
<!-- Node10 -->
<g id="node10" class="node">
<title>Node10</title>
<g id="a_node10"><a xlink:href="CgiProcess_8hpp.html" target="_top" xlink:title=" ">
<polygon fill="white" stroke="black" points="611.11,-112.5 611.11,-131.5 697.11,-131.5 697.11,-112.5 611.11,-112.5"/>
<text text-anchor="middle" x="654.11" y="-119.5" font-family="Helvetica,sans-Serif" font-size="10.00">CgiProcess.hpp</text>
</a>
</g>
</g>
<!-- Node1&#45;&gt;Node10 -->
<g id="edge20" class="edge">
<title>Node1&#45;&gt;Node10</title>
<path fill="none" stroke="midnightblue" d="M346.1,-168.44C416.18,-158.1 533.1,-140.85 600.94,-130.85"/>
<polygon fill="midnightblue" stroke="midnightblue" points="601.6,-134.28 610.98,-129.36 600.58,-127.36 601.6,-134.28"/>
</g>
<!-- Node4&#45;&gt;Node2 -->
<g id="edge5" class="edge">
<title>Node4&#45;&gt;Node2</title>
<path fill="none" stroke="midnightblue" d="M222.29,-119.68C149.63,-116.67 39.42,-106.97 13.11,-76 1.18,-61.96 12.31,-41.61 23.27,-27.43"/>
<polygon fill="midnightblue" stroke="midnightblue" points="26.16,-29.43 29.87,-19.51 20.78,-24.95 26.16,-29.43"/>
</g>
<!-- Node4&#45;&gt;Node3 -->
<g id="edge6" class="edge">
<title>Node4&#45;&gt;Node3</title>
<path fill="none" stroke="midnightblue" d="M297.92,-112.37C319,-93.81 368.89,-49.91 395.57,-26.44"/>
<polygon fill="midnightblue" stroke="midnightblue" points="398.15,-28.83 403.35,-19.59 393.53,-23.57 398.15,-28.83"/>
</g>
<!-- Node5 -->
<g id="node5" class="node">
<title>Node5</title>
<g id="a_node5"><a xlink:title=" ">
<polygon fill="white" stroke="#bfbfbf" points="143.11,-0.5 143.11,-19.5 197.11,-19.5 197.11,-0.5 143.11,-0.5"/>
<text text-anchor="middle" x="170.11" y="-7.5" font-family="Helvetica,sans-Serif" font-size="10.00">iostream</text>
</a>
</g>
</g>
<!-- Node4&#45;&gt;Node5 -->
<g id="edge4" class="edge">
<title>Node4&#45;&gt;Node5</title>
<path fill="none" stroke="midnightblue" d="M250.97,-112.35C230.08,-105.68 205.06,-94.4 189.11,-76 177.93,-63.1 173.32,-43.93 171.42,-29.74"/>
<polygon fill="midnightblue" stroke="midnightblue" points="174.89,-29.25 170.41,-19.65 167.93,-29.95 174.89,-29.25"/>
</g>
<!-- Node6 -->
<g id="node6" class="node">
<title>Node6</title>
<g id="a_node6"><a xlink:title=" ">
<polygon fill="white" stroke="#bfbfbf" points="227.11,-0.5 227.11,-19.5 271.11,-19.5 271.11,-0.5 227.11,-0.5"/>
<text text-anchor="middle" x="249.11" y="-7.5" font-family="Helvetica,sans-Serif" font-size="10.00">vector</text>
</a>
</g>
</g>
<!-- Node4&#45;&gt;Node6 -->
<g id="edge7" class="edge">
<title>Node4&#45;&gt;Node6</title>
<path fill="none" stroke="midnightblue" d="M294.84,-112.25C303.82,-99.44 317.54,-75.05 308.11,-56 301.51,-42.66 288.84,-32.19 276.94,-24.73"/>
<polygon fill="midnightblue" stroke="midnightblue" points="278.5,-21.59 268.09,-19.6 274.99,-27.64 278.5,-21.59"/>
</g>
<!-- Node7 -->
<g id="node7" class="node">
<title>Node7</title>
<g id="a_node7"><a xlink:href="LocationConfig_8hpp.html" target="_top" xlink:title=" ">
<polygon fill="white" stroke="black" points="198.61,-56.5 198.61,-75.5 299.61,-75.5 299.61,-56.5 198.61,-56.5"/>
<text text-anchor="middle" x="249.11" y="-63.5" font-family="Helvetica,sans-Serif" font-size="10.00">LocationConfig.hpp</text>
</a>
</g>
</g>
<!-- Node4&#45;&gt;Node7 -->
<g id="edge8" class="edge">
<title>Node4&#45;&gt;Node7</title>
<path fill="none" stroke="midnightblue" d="M281.67,-112.08C276.16,-104.46 268.08,-93.26 261.34,-83.94"/>
<polygon fill="midnightblue" stroke="midnightblue" points="264.12,-81.81 255.43,-75.75 258.45,-85.91 264.12,-81.81"/>
</g>
<!-- Node8 -->
<g id="node8" class="node">
<title>Node8</title>
<g id="a_node8"><a xlink:href="namespaces_8hpp.html" target="_top" xlink:title=" ">
<polygon fill="white" stroke="black" points="394.61,-56.5 394.61,-75.5 525.61,-75.5 525.61,-56.5 394.61,-56.5"/>
<text text-anchor="middle" x="460.11" y="-63.5" font-family="Helvetica,sans-Serif" font-size="10.00">common/namespaces.hpp</text>
</a>
</g>
</g>
<!-- Node4&#45;&gt;Node8 -->
<g id="edge13" class="edge">
<title>Node4&#45;&gt;Node8</title>
<path fill="none" stroke="midnightblue" d="M315.36,-112.44C344.55,-103.28 391.03,-88.69 423.42,-78.52"/>
<polygon fill="midnightblue" stroke="midnightblue" points="424.49,-81.85 432.98,-75.52 422.39,-75.17 424.49,-81.85"/>
</g>
<!-- Node7&#45;&gt;Node2 -->
<g id="edge10" class="edge">
<title>Node7&#45;&gt;Node2</title>
<path fill="none" stroke="midnightblue" d="M215.68,-56.44C174.25,-45.84 104.43,-27.97 65.84,-18.1"/>
<polygon fill="midnightblue" stroke="midnightblue" points="66.39,-14.62 55.83,-15.54 64.65,-21.41 66.39,-14.62"/>
</g>
<!-- Node7&#45;&gt;Node3 -->
<g id="edge11" class="edge">
<title>Node7&#45;&gt;Node3</title>
<path fill="none" stroke="midnightblue" d="M275.1,-56.44C304.31,-46.82 351.69,-31.22 382.63,-21.04"/>
<polygon fill="midnightblue" stroke="midnightblue" points="384.03,-24.26 392.44,-17.81 381.84,-17.61 384.03,-24.26"/>
</g>
<!-- Node7&#45;&gt;Node5 -->
<g id="edge9" class="edge">
<title>Node7&#45;&gt;Node5</title>
<path fill="none" stroke="midnightblue" d="M236.42,-56.32C224.21,-47.98 205.53,-35.21 191.11,-25.35"/>
<polygon fill="midnightblue" stroke="midnightblue" points="193,-22.41 182.77,-19.65 189.05,-28.19 193,-22.41"/>
</g>
<!-- Node7&#45;&gt;Node6 -->
<g id="edge12" class="edge">
<title>Node7&#45;&gt;Node6</title>
<path fill="none" stroke="midnightblue" d="M249.11,-56.08C249.11,-49.01 249.11,-38.86 249.11,-29.99"/>
<polygon fill="midnightblue" stroke="midnightblue" points="252.61,-29.75 249.11,-19.75 245.61,-29.75 252.61,-29.75"/>
</g>
<!-- Node8&#45;&gt;Node3 -->
<g id="edge14" class="edge">
<title>Node8&#45;&gt;Node3</title>
<path fill="none" stroke="midnightblue" d="M452.35,-56.08C445.57,-48.3 435.57,-36.8 427.35,-27.37"/>
<polygon fill="midnightblue" stroke="midnightblue" points="429.93,-25 420.73,-19.75 424.65,-29.59 429.93,-25"/>
</g>
<!-- Node9&#45;&gt;Node2 -->
<g id="edge17" class="edge">
<title>Node9&#45;&gt;Node2</title>
<path fill="none" stroke="midnightblue" d="M74.84,-56.08C68.56,-48.38 59.32,-37.03 51.68,-27.65"/>
<polygon fill="midnightblue" stroke="midnightblue" points="54.27,-25.29 45.24,-19.75 48.84,-29.71 54.27,-25.29"/>
</g>
<!-- Node9&#45;&gt;Node3 -->
<g id="edge18" class="edge">
<title>Node9&#45;&gt;Node3</title>
<path fill="none" stroke="midnightblue" d="M134.56,-56.44C204.43,-45.04 325.8,-25.24 382.4,-16.01"/>
<polygon fill="midnightblue" stroke="midnightblue" points="383.2,-19.43 392.5,-14.36 382.07,-12.52 383.2,-19.43"/>
</g>
<!-- Node9&#45;&gt;Node5 -->
<g id="edge16" class="edge">
<title>Node9&#45;&gt;Node5</title>
<path fill="none" stroke="midnightblue" d="M96.25,-56.32C109.98,-47.9 131.05,-34.97 147.17,-25.07"/>
<polygon fill="midnightblue" stroke="midnightblue" points="149.31,-27.87 156.01,-19.65 145.65,-21.9 149.31,-27.87"/>
</g>
<!-- Node9&#45;&gt;Node6 -->
<g id="edge19" class="edge">
<title>Node9&#45;&gt;Node6</title>
<path fill="none" stroke="midnightblue" d="M108.57,-56.44C138.11,-46.89 185.91,-31.44 217.42,-21.25"/>
<polygon fill="midnightblue" stroke="midnightblue" points="218.6,-24.54 227.04,-18.14 216.45,-17.88 218.6,-24.54"/>
</g>
<!-- Node10&#45;&gt;Node3 -->
<g id="edge24" class="edge">
<title>Node10&#45;&gt;Node3</title>
<path fill="none" stroke="midnightblue" d="M644.83,-112.13C629.85,-98.26 598.89,-71.44 568.11,-56 527.49,-35.63 476.13,-23.01 443.94,-16.49"/>
<polygon fill="midnightblue" stroke="midnightblue" points="444.29,-13 433.8,-14.52 442.95,-19.87 444.29,-13"/>
</g>
<!-- Node11 -->
<g id="node11" class="node">
<title>Node11</title>
<g id="a_node11"><a xlink:title=" ">
<polygon fill="white" stroke="#bfbfbf" points="620.11,-56.5 620.11,-75.5 688.11,-75.5 688.11,-56.5 620.11,-56.5"/>
<text text-anchor="middle" x="654.11" y="-63.5" font-family="Helvetica,sans-Serif" font-size="10.00">sys/types.h</text>
</a>
</g>
</g>
<!-- Node10&#45;&gt;Node11 -->
<g id="edge21" class="edge">
<title>Node10&#45;&gt;Node11</title>
<path fill="none" stroke="midnightblue" d="M654.11,-112.08C654.11,-105.01 654.11,-94.86 654.11,-85.99"/>
<polygon fill="midnightblue" stroke="midnightblue" points="657.61,-85.75 654.11,-75.75 650.61,-85.75 657.61,-85.75"/>
</g>
<!-- Node12 -->
<g id="node12" class="node">
<title>Node12</title>
<g id="a_node12"><a xlink:title=" ">
<polygon fill="white" stroke="#bfbfbf" points="706.61,-56.5 706.61,-75.5 757.61,-75.5 757.61,-56.5 706.61,-56.5"/>
<text text-anchor="middle" x="732.11" y="-63.5" font-family="Helvetica,sans-Serif" font-size="10.00">unistd.h</text>
</a>
</g>
</g>
<!-- Node10&#45;&gt;Node12 -->
<g id="edge22" class="edge">
<title>Node10&#45;&gt;Node12</title>
<path fill="none" stroke="midnightblue" d="M666.64,-112.32C678.69,-103.98 697.14,-91.21 711.38,-81.35"/>
<polygon fill="midnightblue" stroke="midnightblue" points="713.38,-84.22 719.61,-75.65 709.39,-78.47 713.38,-84.22"/>
</g>
<!-- Node13 -->
<g id="node13" class="node">
<title>Node13</title>
<g id="a_node13"><a xlink:title=" ">
<polygon fill="white" stroke="#bfbfbf" points="775.61,-56.5 775.61,-75.5 816.61,-75.5 816.61,-56.5 775.61,-56.5"/>
<text text-anchor="middle" x="796.11" y="-63.5" font-family="Helvetica,sans-Serif" font-size="10.00">ctime</text>
</a>
</g>
</g>
<!-- Node10&#45;&gt;Node13 -->
<g id="edge23" class="edge">
<title>Node10&#45;&gt;Node13</title>
<path fill="none" stroke="midnightblue" d="M676.61,-112.44C700.74,-103.27 739.19,-88.64 765.94,-78.47"/>
<polygon fill="midnightblue" stroke="midnightblue" points="767.46,-81.64 775.56,-74.82 764.97,-75.1 767.46,-81.64"/>
</g>
</g>
</svg>
        <g id="navigator" transform="translate(0 0)" fill="#404254">
                <rect fill="#f2f5e9" fill-opacity="0.5" stroke="#606060" stroke-width=".5" x="0" y="0" width="60" height="60"/>
                <use id="zoomplus" xlink:href="#zoomPlus" x="17" y="9" onmousedown="handleZoom(evt,'in')"/>
                <use id="zoomminus" xlink:href="#zoomMin" x="42" y="9" onmousedown="handleZoom(evt,'out')"/>
                <use id="reset" xlink:href="#resetDef" x="30" y="36" onmousedown="handleReset()"/>
                <g id="arrowUp" xlink:href="#dirArrow" transform="translate(30 24)" onmousedown="handlePan(0,-1)">
                  <use xlink:href="#rim" fill="#404040">
                        <set attributeName="fill" to="#808080" begin="arrowUp.mouseover" end="arrowUp.mouseout"/>
                  </use>
                  <path fill="none" stroke="white" stroke-width="1.5" d="M0,-3.0v7 M-2.5,-0.5L0,-3.0L2.5,-0.5"/>
                </g>
                <g id="arrowRight" xlink:href="#dirArrow" transform="rotate(90) translate(36 -43)" onmousedown="handlePan(1,0)">
                  <use xlink:href="#rim" fill="#404040">
                        <set attributeName="fill" to="#808080" begin="arrowRight.mouseover" end="arrowRight.mouseout"/>
                  </use>
                  <path fill="none" stroke="white" stroke-width="1.5" d="M0,-3.0v7 M-2.5,-0.5L0,-3.0L2.5,-0.5"/>
                </g>
                <g id="arrowDown" xlink:href="#dirArrow" transform="rotate(180) translate(-30 -48)" onmousedown="handlePan(0,1)">
                  <use xlink:href="#rim" fill="#404040">
                        <set attributeName="fill" to="#808080" begin="arrowDown.mouseover" end="arrowDown.mouseout"/>
                  </use>
                  <path fill="none" stroke="white" stroke-width="1.5" d="M0,-3.0v7 M-2.5,-0.5L0,-3.0L2.5,-0.5"/>
                </g>
                <g id="arrowLeft" xlink:href="#dirArrow" transform="rotate(270) translate(-36 17)" onmousedown="handlePan(-1,0)">
                  <use xlink:href="#rim" fill="#404040">
                        <set attributeName="fill" to="#808080" begin="arrowLeft.mouseover" end="arrowLeft.mouseout"/>
                  </use>
                  <path fill="none" stroke="white" stroke-width="1.5" d="M0,-3.0v7 M-2.5,-0.5L0,-3.0L2.5,-0.5"/>
                </g>
        </g>
        <svg viewBox="0 0 15 15" width="100%" height="30px" preserveAspectRatio="xMaxYMin meet">
         <g id="arrow_out" transform="scale(0.3 0.3)">
          <a xlink:href="CgiExecutor_8hpp__incl_org.svg" target="_base">
           <rect id="button" ry="5" rx="5" y="6" x="6" height="38" width="38"
                fill="#f2f5e9" fill-opacity="0.5" stroke="#606060" stroke-width="1.0"/>
           <path id="arrow"
             d="M 11.500037,31.436501 C 11.940474,20.09759 22.043105,11.32322 32.158766,21.979434 L 37.068811,17.246167 C 37.068811,17.246167 37.088388,32 37.088388,32 L 22.160133,31.978069 C 22.160133,31.978069 26.997745,27.140456 26.997745,27.140456 C 18.528582,18.264221 13.291696,25.230495 11.500037,31.436501 z"
             style="fill:#404040;"/>
          </a>
         </g>
        </svg>
</svg>
