<?xml version="1.0" encoding="UTF-8" standalone="no"?>
<!DOCTYPE svg PUBLIC "-//W3C//DTD SVG 1.1//EN"
 "http://www.w3.org/Graphics/SVG/1.1/DTD/svg11.dtd">
<!-- Generated by graphviz version 2.43.0 (0)
 -->
<!-- Title: src/cgi/CgiProcess.cpp Pages: 1 -->
<svg width="887pt" height="140pt"
 viewBox="0.00 0.00 887.00 140.00" xmlns="http://www.w3.org/2000/svg" xmlns:xlink="http://www.w3.org/1999/xlink">
<g id="graph0" class="graph" transform="scale(1 1) rotate(0) translate(4 136)">
<title>src/cgi/CgiProcess.cpp</title>
<polygon fill="white" stroke="transparent" points="-4,4 -4,-136 883,-136 883,4 -4,4"/>
<!-- Node1 -->
<g id="node1" class="node">
<title>Node1</title>
<g id="a_node1"><a xlink:title=" ">
<polygon fill="#bfbfbf" stroke="black" points="467.5,-112.5 467.5,-131.5 586.5,-131.5 586.5,-112.5 467.5,-112.5"/>
<text text-anchor="middle" x="527" y="-119.5" font-family="Helvetica,sans-Serif" font-size="10.00">src/cgi/CgiProcess.cpp</text>
</a>
</g>
</g>
<!-- Node2 -->
<g id="node2" class="node">
<title>Node2</title>
<g id="a_node2"><a xlink:href="CgiProcess_8hpp.html" target="_top" xlink:title=" ">
<polygon fill="white" stroke="black" points="121,-56.5 121,-75.5 207,-75.5 207,-56.5 121,-56.5"/>
<text text-anchor="middle" x="164" y="-63.5" font-family="Helvetica,sans-Serif" font-size="10.00">CgiProcess.hpp</text>
</a>
</g>
</g>
<!-- Node1&#45;&gt;Node2 -->
<g id="edge1" class="edge">
<title>Node1&#45;&gt;Node2</title>
<path fill="none" stroke="midnightblue" d="M467.74,-112.47C406.07,-103.56 306.73,-89.07 221,-76 219.75,-75.81 218.48,-75.61 217.2,-75.42"/>
<polygon fill="midnightblue" stroke="midnightblue" points="217.67,-71.95 207.25,-73.88 216.6,-78.87 217.67,-71.95"/>
</g>
<!-- Node5 -->
<g id="node5" class="node">
<title>Node5</title>
<g id="a_node5"><a xlink:title=" ">
<polygon fill="white" stroke="#bfbfbf" points="214.5,-0.5 214.5,-19.5 255.5,-19.5 255.5,-0.5 214.5,-0.5"/>
<text text-anchor="middle" x="235" y="-7.5" font-family="Helvetica,sans-Serif" font-size="10.00">ctime</text>
</a>
</g>
</g>
<!-- Node1&#45;&gt;Node5 -->
<g id="edge14" class="edge">
<title>Node1&#45;&gt;Node5</title>
<path fill="none" stroke="midnightblue" d="M467.48,-118.46C396.88,-114.23 284.83,-103.31 254,-76 240.96,-64.45 236.65,-44.48 235.33,-29.72"/>
<polygon fill="midnightblue" stroke="midnightblue" points="238.82,-29.48 234.81,-19.67 231.83,-29.84 238.82,-29.48"/>
</g>
<!-- Node7 -->
<g id="node7" class="node">
<title>Node7</title>
<g id="a_node7"><a xlink:title=" ">
<polygon fill="white" stroke="#bfbfbf" points="263,-56.5 263,-75.5 313,-75.5 313,-56.5 263,-56.5"/>
<text text-anchor="middle" x="288" y="-63.5" font-family="Helvetica,sans-Serif" font-size="10.00">signal.h</text>
</a>
</g>
</g>
<!-- Node1&#45;&gt;Node7 -->
<g id="edge6" class="edge">
<title>Node1&#45;&gt;Node7</title>
<path fill="none" stroke="midnightblue" d="M486.26,-112.45C445.02,-103.69 379.44,-89.48 323,-76 322.9,-75.98 322.8,-75.95 322.7,-75.93"/>
<polygon fill="midnightblue" stroke="midnightblue" points="323.76,-72.58 313.21,-73.59 322.08,-79.38 323.76,-72.58"/>
</g>
<!-- Node8 -->
<g id="node8" class="node">
<title>Node8</title>
<g id="a_node8"><a xlink:title=" ">
<polygon fill="white" stroke="#bfbfbf" points="331.5,-56.5 331.5,-75.5 400.5,-75.5 400.5,-56.5 331.5,-56.5"/>
<text text-anchor="middle" x="366" y="-63.5" font-family="Helvetica,sans-Serif" font-size="10.00">sys/signal.h</text>
</a>
</g>
</g>
<!-- Node1&#45;&gt;Node8 -->
<g id="edge7" class="edge">
<title>Node1&#45;&gt;Node8</title>
<path fill="none" stroke="midnightblue" d="M501.49,-112.44C474.4,-103.36 431.41,-88.94 401.13,-78.78"/>
<polygon fill="midnightblue" stroke="midnightblue" points="401.99,-75.38 391.39,-75.52 399.76,-82.01 401.99,-75.38"/>
</g>
<!-- Node9 -->
<g id="node9" class="node">
<title>Node9</title>
<g id="a_node9"><a xlink:title=" ">
<polygon fill="white" stroke="#bfbfbf" points="419,-56.5 419,-75.5 481,-75.5 481,-56.5 419,-56.5"/>
<text text-anchor="middle" x="450" y="-63.5" font-family="Helvetica,sans-Serif" font-size="10.00">sys/wait.h</text>
</a>
</g>
</g>
<!-- Node1&#45;&gt;Node9 -->
<g id="edge8" class="edge">
<title>Node1&#45;&gt;Node9</title>
<path fill="none" stroke="midnightblue" d="M514.63,-112.32C502.84,-104.06 484.87,-91.45 470.86,-81.63"/>
<polygon fill="midnightblue" stroke="midnightblue" points="472.54,-78.53 462.34,-75.65 468.52,-84.26 472.54,-78.53"/>
</g>
<!-- Node10 -->
<g id="node10" class="node">
<title>Node10</title>
<g id="a_node10"><a xlink:title=" ">
<polygon fill="white" stroke="#bfbfbf" points="499,-56.5 499,-75.5 555,-75.5 555,-56.5 499,-56.5"/>
<text text-anchor="middle" x="527" y="-63.5" font-family="Helvetica,sans-Serif" font-size="10.00">algorithm</text>
</a>
</g>
</g>
<!-- Node1&#45;&gt;Node10 -->
<g id="edge9" class="edge">
<title>Node1&#45;&gt;Node10</title>
<path fill="none" stroke="midnightblue" d="M527,-112.08C527,-105.01 527,-94.86 527,-85.99"/>
<polygon fill="midnightblue" stroke="midnightblue" points="530.5,-85.75 527,-75.75 523.5,-85.75 530.5,-85.75"/>
</g>
<!-- Node11 -->
<g id="node11" class="node">
<title>Node11</title>
<g id="a_node11"><a xlink:title=" ">
<polygon fill="white" stroke="#bfbfbf" points="573,-56.5 573,-75.5 619,-75.5 619,-56.5 573,-56.5"/>
<text text-anchor="middle" x="596" y="-63.5" font-family="Helvetica,sans-Serif" font-size="10.00">cctype</text>
</a>
</g>
</g>
<!-- Node1&#45;&gt;Node11 -->
<g id="edge10" class="edge">
<title>Node1&#45;&gt;Node11</title>
<path fill="none" stroke="midnightblue" d="M538.09,-112.32C548.49,-104.18 564.26,-91.84 576.72,-82.09"/>
<polygon fill="midnightblue" stroke="midnightblue" points="578.99,-84.75 584.71,-75.83 574.68,-79.24 578.99,-84.75"/>
</g>
<!-- Node12 -->
<g id="node12" class="node">
<title>Node12</title>
<g id="a_node12"><a xlink:title=" ">
<polygon fill="white" stroke="#bfbfbf" points="637,-56.5 637,-75.5 681,-75.5 681,-56.5 637,-56.5"/>
<text text-anchor="middle" x="659" y="-63.5" font-family="Helvetica,sans-Serif" font-size="10.00">cerrno</text>
</a>
</g>
</g>
<!-- Node1&#45;&gt;Node12 -->
<g id="edge11" class="edge">
<title>Node1&#45;&gt;Node12</title>
<path fill="none" stroke="midnightblue" d="M547.92,-112.44C569.74,-103.52 604.15,-89.44 628.89,-79.32"/>
<polygon fill="midnightblue" stroke="midnightblue" points="630.25,-82.54 638.18,-75.52 627.6,-76.06 630.25,-82.54"/>
</g>
<!-- Node13 -->
<g id="node13" class="node">
<title>Node13</title>
<g id="a_node13"><a xlink:title=" ">
<polygon fill="white" stroke="#bfbfbf" points="699.5,-56.5 699.5,-75.5 744.5,-75.5 744.5,-56.5 699.5,-56.5"/>
<text text-anchor="middle" x="722" y="-63.5" font-family="Helvetica,sans-Serif" font-size="10.00">cstdlib</text>
</a>
</g>
</g>
<!-- Node1&#45;&gt;Node13 -->
<g id="edge12" class="edge">
<title>Node1&#45;&gt;Node13</title>
<path fill="none" stroke="midnightblue" d="M558.26,-112.42C589.16,-103.92 638.03,-90.46 689.62,-76.1"/>
<polygon fill="midnightblue" stroke="midnightblue" points="690.58,-79.46 699.28,-73.41 688.71,-72.72 690.58,-79.46"/>
</g>
<!-- Node14 -->
<g id="node14" class="node">
<title>Node14</title>
<g id="a_node14"><a xlink:title=" ">
<polygon fill="white" stroke="#bfbfbf" points="763,-56.5 763,-75.5 809,-75.5 809,-56.5 763,-56.5"/>
<text text-anchor="middle" x="786" y="-63.5" font-family="Helvetica,sans-Serif" font-size="10.00">cstring</text>
</a>
</g>
</g>
<!-- Node1&#45;&gt;Node14 -->
<g id="edge13" class="edge">
<title>Node1&#45;&gt;Node14</title>
<path fill="none" stroke="midnightblue" d="M575.95,-112.44C619.92,-104.5 686.45,-91.85 753.15,-76.06"/>
<polygon fill="midnightblue" stroke="midnightblue" points="754.07,-79.44 762.98,-73.71 752.44,-72.63 754.07,-79.44"/>
</g>
<!-- Node15 -->
<g id="node15" class="node">
<title>Node15</title>
<g id="a_node15"><a xlink:title=" ">
<polygon fill="white" stroke="#bfbfbf" points="827,-56.5 827,-75.5 879,-75.5 879,-56.5 827,-56.5"/>
<text text-anchor="middle" x="853" y="-63.5" font-family="Helvetica,sans-Serif" font-size="10.00">sstream</text>
</a>
</g>
</g>
<!-- Node1&#45;&gt;Node15 -->
<g id="edge15" class="edge">
<title>Node1&#45;&gt;Node15</title>
<path fill="none" stroke="midnightblue" d="M586.66,-113.52C643.51,-106 731.66,-93.31 816.86,-76.07"/>
<polygon fill="midnightblue" stroke="midnightblue" points="817.6,-79.5 826.69,-74.06 816.19,-72.64 817.6,-79.5"/>
</g>
<!-- Node3 -->
<g id="node3" class="node">
<title>Node3</title>
<g id="a_node3"><a xlink:title=" ">
<polygon fill="white" stroke="#bfbfbf" points="0,-0.5 0,-19.5 68,-19.5 68,-0.5 0,-0.5"/>
<text text-anchor="middle" x="34" y="-7.5" font-family="Helvetica,sans-Serif" font-size="10.00">sys/types.h</text>
</a>
</g>
</g>
<!-- Node2&#45;&gt;Node3 -->
<g id="edge2" class="edge">
<title>Node2&#45;&gt;Node3</title>
<path fill="none" stroke="midnightblue" d="M143.4,-56.44C122.01,-47.56 88.32,-33.56 63.98,-23.45"/>
<polygon fill="midnightblue" stroke="midnightblue" points="65.08,-20.12 54.5,-19.52 62.39,-26.58 65.08,-20.12"/>
</g>
<!-- Node4 -->
<g id="node4" class="node">
<title>Node4</title>
<g id="a_node4"><a xlink:title=" ">
<polygon fill="white" stroke="#bfbfbf" points="86.5,-0.5 86.5,-19.5 137.5,-19.5 137.5,-0.5 86.5,-0.5"/>
<text text-anchor="middle" x="112" y="-7.5" font-family="Helvetica,sans-Serif" font-size="10.00">unistd.h</text>
</a>
</g>
</g>
<!-- Node2&#45;&gt;Node4 -->
<g id="edge3" class="edge">
<title>Node2&#45;&gt;Node4</title>
<path fill="none" stroke="midnightblue" d="M155.41,-56.08C147.84,-48.22 136.62,-36.57 127.49,-27.08"/>
<polygon fill="midnightblue" stroke="midnightblue" points="129.88,-24.53 120.43,-19.75 124.84,-29.38 129.88,-24.53"/>
</g>
<!-- Node2&#45;&gt;Node5 -->
<g id="edge4" class="edge">
<title>Node2&#45;&gt;Node5</title>
<path fill="none" stroke="midnightblue" d="M175.41,-56.32C186.11,-48.18 202.34,-35.84 215.16,-26.09"/>
<polygon fill="midnightblue" stroke="midnightblue" points="217.54,-28.67 223.39,-19.83 213.31,-23.1 217.54,-28.67"/>
</g>
<!-- Node6 -->
<g id="node6" class="node">
<title>Node6</title>
<g id="a_node6"><a xlink:title=" ">
<polygon fill="white" stroke="#bfbfbf" points="155.5,-0.5 155.5,-19.5 196.5,-19.5 196.5,-0.5 155.5,-0.5"/>
<text text-anchor="middle" x="176" y="-7.5" font-family="Helvetica,sans-Serif" font-size="10.00">string</text>
</a>
</g>
</g>
<!-- Node2&#45;&gt;Node6 -->
<g id="edge5" class="edge">
<title>Node2&#45;&gt;Node6</title>
<path fill="none" stroke="midnightblue" d="M165.98,-56.08C167.57,-48.93 169.86,-38.64 171.85,-29.69"/>
<polygon fill="midnightblue" stroke="midnightblue" points="175.3,-30.27 174.06,-19.75 168.47,-28.75 175.3,-30.27"/>
</g>
</g>
</svg>
