<?xml version="1.0" encoding="UTF-8" standalone="no"?>
<!DOCTYPE svg PUBLIC "-//W3C//DTD SVG 1.1//EN"
 "http://www.w3.org/Graphics/SVG/1.1/DTD/svg11.dtd">
<!-- Generated by graphviz version 2.43.0 (0)
 -->
<!-- Title: src/cgi/CgiProcess.hpp Pages: 1 -->
<svg width="477pt" height="140pt"
 viewBox="0.00 0.00 476.50 140.00" xmlns="http://www.w3.org/2000/svg" xmlns:xlink="http://www.w3.org/1999/xlink">
<g id="graph0" class="graph" transform="scale(1 1) rotate(0) translate(4 136)">
<title>src/cgi/CgiProcess.hpp</title>
<polygon fill="white" stroke="transparent" points="-4,4 -4,-136 472.5,-136 472.5,4 -4,4"/>
<!-- Node1 -->
<g id="node1" class="node">
<title>Node1</title>
<g id="a_node1"><a xlink:title=" ">
<polygon fill="#bfbfbf" stroke="black" points="183,-112.5 183,-131.5 302,-131.5 302,-112.5 183,-112.5"/>
<text text-anchor="middle" x="242.5" y="-119.5" font-family="Helvetica,sans-Serif" font-size="10.00">src/cgi/CgiProcess.hpp</text>
</a>
</g>
</g>
<!-- Node2 -->
<g id="node2" class="node">
<title>Node2</title>
<g id="a_node2"><a xlink:href="CgiExecutor_8hpp.html" target="_top" xlink:title=" ">
<polygon fill="white" stroke="black" points="49,-56.5 49,-75.5 170,-75.5 170,-56.5 49,-56.5"/>
<text text-anchor="middle" x="109.5" y="-63.5" font-family="Helvetica,sans-Serif" font-size="10.00">src/cgi/CgiExecutor.hpp</text>
</a>
</g>
</g>
<!-- Node1&#45;&gt;Node2 -->
<g id="edge1" class="edge">
<title>Node1&#45;&gt;Node2</title>
<path fill="none" stroke="midnightblue" d="M212.05,-108.64C187.09,-98.5 152.42,-84.43 130.48,-75.52"/>
<polygon fill="midnightblue" stroke="midnightblue" points="210.84,-111.92 221.43,-112.44 213.48,-105.44 210.84,-111.92"/>
</g>
<!-- Node4 -->
<g id="node4" class="node">
<title>Node4</title>
<g id="a_node4"><a xlink:href="ClientCgi_8cpp.html" target="_top" xlink:title=" ">
<polygon fill="white" stroke="black" points="139,-0.5 139,-19.5 258,-19.5 258,-0.5 139,-0.5"/>
<text text-anchor="middle" x="198.5" y="-7.5" font-family="Helvetica,sans-Serif" font-size="10.00">src/client/ClientCgi.cpp</text>
</a>
</g>
</g>
<!-- Node1&#45;&gt;Node4 -->
<g id="edge6" class="edge">
<title>Node1&#45;&gt;Node4</title>
<path fill="none" stroke="midnightblue" d="M232.09,-103.37C227.54,-95.22 222.37,-85.3 218.5,-76 210.34,-56.38 203.77,-32.21 200.58,-19.6"/>
<polygon fill="midnightblue" stroke="midnightblue" points="229.19,-105.35 237.2,-112.28 235.26,-101.86 229.19,-105.35"/>
</g>
<!-- Node5 -->
<g id="node5" class="node">
<title>Node5</title>
<g id="a_node5"><a xlink:href="CgiProcess_8cpp.html" target="_top" xlink:title=" ">
<polygon fill="white" stroke="black" points="227,-56.5 227,-75.5 346,-75.5 346,-56.5 227,-56.5"/>
<text text-anchor="middle" x="286.5" y="-63.5" font-family="Helvetica,sans-Serif" font-size="10.00">src/cgi/CgiProcess.cpp</text>
</a>
</g>
</g>
<!-- Node1&#45;&gt;Node5 -->
<g id="edge4" class="edge">
<title>Node1&#45;&gt;Node5</title>
<path fill="none" stroke="midnightblue" d="M256.23,-104.14C263.9,-94.74 273.13,-83.4 279.37,-75.75"/>
<polygon fill="midnightblue" stroke="midnightblue" points="253.37,-102.12 249.77,-112.08 258.8,-106.54 253.37,-102.12"/>
</g>
<!-- Node6 -->
<g id="node6" class="node">
<title>Node6</title>
<g id="a_node6"><a xlink:href="Client_8cpp.html" target="_top" xlink:title=" ">
<polygon fill="white" stroke="black" points="364.5,-56.5 364.5,-75.5 468.5,-75.5 468.5,-56.5 364.5,-56.5"/>
<text text-anchor="middle" x="416.5" y="-63.5" font-family="Helvetica,sans-Serif" font-size="10.00">src/client/Client.cpp</text>
</a>
</g>
</g>
<!-- Node1&#45;&gt;Node6 -->
<g id="edge5" class="edge">
<title>Node1&#45;&gt;Node6</title>
<path fill="none" stroke="midnightblue" d="M279.76,-109.44C312.57,-99.26 359.58,-84.66 389.06,-75.52"/>
<polygon fill="midnightblue" stroke="midnightblue" points="278.58,-106.14 270.07,-112.44 280.66,-112.82 278.58,-106.14"/>
</g>
<!-- Node3 -->
<g id="node3" class="node">
<title>Node3</title>
<g id="a_node3"><a xlink:href="CgiExecutor_8cpp.html" target="_top" xlink:title=" ">
<polygon fill="white" stroke="black" points="0,-0.5 0,-19.5 121,-19.5 121,-0.5 0,-0.5"/>
<text text-anchor="middle" x="60.5" y="-7.5" font-family="Helvetica,sans-Serif" font-size="10.00">src/cgi/CgiExecutor.cpp</text>
</a>
</g>
</g>
<!-- Node2&#45;&gt;Node3 -->
<g id="edge2" class="edge">
<title>Node2&#45;&gt;Node3</title>
<path fill="none" stroke="midnightblue" d="M94.47,-48.43C85.88,-38.97 75.46,-27.48 68.44,-19.75"/>
<polygon fill="midnightblue" stroke="midnightblue" points="92.1,-51.03 101.41,-56.08 97.28,-46.33 92.1,-51.03"/>
</g>
<!-- Node2&#45;&gt;Node4 -->
<g id="edge3" class="edge">
<title>Node2&#45;&gt;Node4</title>
<path fill="none" stroke="midnightblue" d="M132.74,-50.9C149.06,-41 170.37,-28.07 184.24,-19.65"/>
<polygon fill="midnightblue" stroke="midnightblue" points="130.53,-48.14 123.8,-56.32 134.16,-54.13 130.53,-48.14"/>
</g>
</g>
</svg>
