<?xml version="1.0" encoding="UTF-8" standalone="no"?>
<!DOCTYPE svg PUBLIC "-//W3C//DTD SVG 1.1//EN"
 "http://www.w3.org/Graphics/SVG/1.1/DTD/svg11.dtd">
<!-- Generated by graphviz version 2.43.0 (0)
 -->
<!-- Title: src/cgi/CgiProcess.hpp Pages: 1 -->
<svg width="264pt" height="84pt"
 viewBox="0.00 0.00 263.50 84.00" xmlns="http://www.w3.org/2000/svg" xmlns:xlink="http://www.w3.org/1999/xlink">
<g id="graph0" class="graph" transform="scale(1 1) rotate(0) translate(4 80)">
<title>src/cgi/CgiProcess.hpp</title>
<polygon fill="white" stroke="transparent" points="-4,4 -4,-80 259.5,-80 259.5,4 -4,4"/>
<!-- Node1 -->
<g id="node1" class="node">
<title>Node1</title>
<g id="a_node1"><a xlink:title=" ">
<polygon fill="#bfbfbf" stroke="black" points="84.5,-56.5 84.5,-75.5 203.5,-75.5 203.5,-56.5 84.5,-56.5"/>
<text text-anchor="middle" x="144" y="-63.5" font-family="Helvetica,sans-Serif" font-size="10.00">src/cgi/CgiProcess.hpp</text>
</a>
</g>
</g>
<!-- Node2 -->
<g id="node2" class="node">
<title>Node2</title>
<g id="a_node2"><a xlink:title=" ">
<polygon fill="white" stroke="#bfbfbf" points="0,-0.5 0,-19.5 68,-19.5 68,-0.5 0,-0.5"/>
<text text-anchor="middle" x="34" y="-7.5" font-family="Helvetica,sans-Serif" font-size="10.00">sys/types.h</text>
</a>
</g>
</g>
<!-- Node1&#45;&gt;Node2 -->
<g id="edge1" class="edge">
<title>Node1&#45;&gt;Node2</title>
<path fill="none" stroke="midnightblue" d="M126.33,-56.32C108.61,-47.62 81.1,-34.12 60.71,-24.11"/>
<polygon fill="midnightblue" stroke="midnightblue" points="62.15,-20.92 51.63,-19.65 59.06,-27.2 62.15,-20.92"/>
</g>
<!-- Node3 -->
<g id="node3" class="node">
<title>Node3</title>
<g id="a_node3"><a xlink:title=" ">
<polygon fill="white" stroke="#bfbfbf" points="86.5,-0.5 86.5,-19.5 137.5,-19.5 137.5,-0.5 86.5,-0.5"/>
<text text-anchor="middle" x="112" y="-7.5" font-family="Helvetica,sans-Serif" font-size="10.00">unistd.h</text>
</a>
</g>
</g>
<!-- Node1&#45;&gt;Node3 -->
<g id="edge2" class="edge">
<title>Node1&#45;&gt;Node3</title>
<path fill="none" stroke="midnightblue" d="M138.72,-56.08C134.29,-48.61 127.84,-37.72 122.38,-28.52"/>
<polygon fill="midnightblue" stroke="midnightblue" points="125.29,-26.57 117.19,-19.75 119.27,-30.14 125.29,-26.57"/>
</g>
<!-- Node4 -->
<g id="node4" class="node">
<title>Node4</title>
<g id="a_node4"><a xlink:title=" ">
<polygon fill="white" stroke="#bfbfbf" points="155.5,-0.5 155.5,-19.5 196.5,-19.5 196.5,-0.5 155.5,-0.5"/>
<text text-anchor="middle" x="176" y="-7.5" font-family="Helvetica,sans-Serif" font-size="10.00">ctime</text>
</a>
</g>
</g>
<!-- Node1&#45;&gt;Node4 -->
<g id="edge3" class="edge">
<title>Node1&#45;&gt;Node4</title>
<path fill="none" stroke="midnightblue" d="M149.28,-56.08C153.71,-48.61 160.16,-37.72 165.62,-28.52"/>
<polygon fill="midnightblue" stroke="midnightblue" points="168.73,-30.14 170.81,-19.75 162.71,-26.57 168.73,-30.14"/>
</g>
<!-- Node5 -->
<g id="node5" class="node">
<title>Node5</title>
<g id="a_node5"><a xlink:title=" ">
<polygon fill="white" stroke="#bfbfbf" points="214.5,-0.5 214.5,-19.5 255.5,-19.5 255.5,-0.5 214.5,-0.5"/>
<text text-anchor="middle" x="235" y="-7.5" font-family="Helvetica,sans-Serif" font-size="10.00">string</text>
</a>
</g>
</g>
<!-- Node1&#45;&gt;Node5 -->
<g id="edge4" class="edge">
<title>Node1&#45;&gt;Node5</title>
<path fill="none" stroke="midnightblue" d="M158.62,-56.32C172.95,-47.82 195.01,-34.73 211.75,-24.8"/>
<polygon fill="midnightblue" stroke="midnightblue" points="213.6,-27.77 220.42,-19.65 210.03,-21.75 213.6,-27.77"/>
</g>
</g>
</svg>
