<?xml version="1.0" encoding="UTF-8" standalone="no"?>
<!DOCTYPE svg PUBLIC "-//W3C//DTD SVG 1.1//EN"
 "http://www.w3.org/Graphics/SVG/1.1/DTD/svg11.dtd">
<!-- Generated by graphviz version 2.43.0 (0)
 -->
<!-- Title: HttpParser::extractLine Pages: 1 -->
<!--zoomable 165 -->
<svg id="main" version="1.1" xmlns="http://www.w3.org/2000/svg" xmlns:xlink="http://www.w3.org/1999/xlink" xml:space="preserve" onload="init(evt)">
<style type="text/css"><![CDATA[
.edge:hover path { stroke: red; }
.edge:hover polygon { stroke: red; fill: red; }
]]></style>
<script type="text/javascript"><![CDATA[
var edges = document.getElementsByTagName('g');
if (edges && edges.length) {
  for (var i=0;i<edges.length;i++) {
    if (edges[i].id.substr(0,4)=='edge') {
      edges[i].setAttribute('class','edge');
    }
  }
}
]]></script>
        <defs>
                <circle id="rim" cx="0" cy="0" r="7"/>
                <circle id="rim2" cx="0" cy="0" r="3.5"/>
                <g id="zoomPlus">
                        <use xlink:href="#rim" fill="#404040">
                                <set attributeName="fill" to="#808080" begin="zoomplus.mouseover" end="zoomplus.mouseout"/>
                        </use>
                        <path d="M-4,0h8M0,-4v8" fill="none" stroke="white" stroke-width="1.5" pointer-events="none"/>
                </g>
                <g id="zoomMin">
                        <use xlink:href="#rim" fill="#404040">
                                <set attributeName="fill" to="#808080" begin="zoomminus.mouseover" end="zoomminus.mouseout"/>
                        </use>
                        <path d="M-4,0h8" fill="none" stroke="white" stroke-width="1.5" pointer-events="none"/>
                </g>
                <g id="dirArrow">
                        <path fill="none" stroke="white" stroke-width="1.5" d="M0,-3.0v7 M-2.5,-0.5L0,-3.0L2.5,-0.5"/>
                </g>
               <g id="resetDef">
                       <use xlink:href="#rim2" fill="#404040">
                               <set attributeName="fill" to="#808080" begin="reset.mouseover" end="reset.mouseout"/>
                       </use>
               </g>
        </defs>

<script type="text/javascript">
var viewWidth = 1662;
var viewHeight = 165;
var sectionId = 'dynsection-4';
</script>
<script xlink:href="svgpan.js"/>
<svg id="graph" class="graph">
<g id="viewport">
<title>HttpParser::extractLine</title>
<polygon fill="white" stroke="transparent" points="-4,4 -4,-160.5 1658,-160.5 1658,4 -4,4"/>
<!-- Node1 -->
<g id="node1" class="node">
<title>Node1</title>
<g id="a_node1"><a xlink:title=" ">
<polygon fill="#bfbfbf" stroke="black" points="1536,-57.5 1536,-76.5 1654,-76.5 1654,-57.5 1536,-57.5"/>
<text text-anchor="middle" x="1595" y="-64.5" font-family="Helvetica,sans-Serif" font-size="10.00">HttpParser::extractLine</text>
</a>
</g>
</g>
<!-- Node2 -->
<g id="node2" class="node">
<title>Node2</title>
<g id="a_node2"><a xlink:href="classHttpParser.html#adeb6831e441d64132e5be749cd140706" target="_top" xlink:title=" ">
<polygon fill="white" stroke="black" points="1159,-126 1159,-156 1303,-156 1303,-126 1159,-126"/>
<text text-anchor="start" x="1167" y="-144" font-family="Helvetica,sans-Serif" font-size="10.00">HttpParser::handleChunkEnd</text>
<text text-anchor="middle" x="1231" y="-133" font-family="Helvetica,sans-Serif" font-size="10.00">State</text>
</a>
</g>
</g>
<!-- Node1&#45;&gt;Node2 -->
<g id="edge1" class="edge">
<title>Node1&#45;&gt;Node2</title>
<path fill="none" stroke="midnightblue" d="M1567.24,-81.15C1548.83,-90.26 1523.55,-101.56 1500,-108 1434.66,-125.87 1357.69,-134.08 1303.05,-137.84"/>
<polygon fill="midnightblue" stroke="midnightblue" points="1568.85,-84.26 1576.2,-76.62 1565.69,-78.01 1568.85,-84.26"/>
</g>
<!-- Node11 -->
<g id="node11" class="node">
<title>Node11</title>
<g id="a_node11"><a xlink:href="classHttpParser.html#acdcae8756a7f32ec6e431b1b2d3417b8" target="_top" xlink:title=" ">
<polygon fill="white" stroke="black" points="1340,-79.5 1340,-98.5 1500,-98.5 1500,-79.5 1340,-79.5"/>
<text text-anchor="middle" x="1420" y="-86.5" font-family="Helvetica,sans-Serif" font-size="10.00">HttpParser::parseChunkSizeLine</text>
</a>
</g>
</g>
<!-- Node1&#45;&gt;Node11 -->
<g id="edge11" class="edge">
<title>Node1&#45;&gt;Node11</title>
<path fill="none" stroke="midnightblue" d="M1525.8,-75.67C1515.96,-76.92 1505.79,-78.22 1495.83,-79.48"/>
<polygon fill="midnightblue" stroke="midnightblue" points="1526.43,-79.12 1535.91,-74.39 1525.55,-72.18 1526.43,-79.12"/>
</g>
<!-- Node13 -->
<g id="node13" class="node">
<title>Node13</title>
<g id="a_node13"><a xlink:href="classHttpParser.html#a7c2c3b29f245b3421b9af34300d7806b" target="_top" xlink:title=" ">
<polygon fill="white" stroke="black" points="979,-38.5 979,-57.5 1110,-57.5 1110,-38.5 979,-38.5"/>
<text text-anchor="middle" x="1044.5" y="-45.5" font-family="Helvetica,sans-Serif" font-size="10.00">HttpParser::parseHeaders</text>
</a>
</g>
</g>
<!-- Node1&#45;&gt;Node13 -->
<g id="edge14" class="edge">
<title>Node1&#45;&gt;Node13</title>
<path fill="none" stroke="midnightblue" d="M1525.82,-64.64C1419.26,-60.95 1214.67,-53.86 1110.25,-50.24"/>
<polygon fill="midnightblue" stroke="midnightblue" points="1525.7,-68.14 1535.82,-64.98 1525.95,-61.14 1525.7,-68.14"/>
</g>
<!-- Node14 -->
<g id="node14" class="node">
<title>Node14</title>
<g id="a_node14"><a xlink:href="classHttpParser.html#a6f9875f1100d6d08d2b2b3c36f06e56e" target="_top" xlink:title=" ">
<polygon fill="white" stroke="black" points="798,-0.5 798,-19.5 931,-19.5 931,-0.5 798,-0.5"/>
<text text-anchor="middle" x="864.5" y="-7.5" font-family="Helvetica,sans-Serif" font-size="10.00">HttpParser::parseStartLine</text>
</a>
</g>
</g>
<!-- Node1&#45;&gt;Node14 -->
<g id="edge16" class="edge">
<title>Node1&#45;&gt;Node14</title>
<path fill="none" stroke="midnightblue" d="M1525.78,-57.83C1517.11,-56.8 1508.35,-55.83 1500,-55 1292.85,-34.45 1046.75,-19.76 931.37,-13.45"/>
<polygon fill="midnightblue" stroke="midnightblue" points="1525.54,-61.33 1535.89,-59.06 1526.39,-54.38 1525.54,-61.33"/>
</g>
<!-- Node3 -->
<g id="node3" class="node">
<title>Node3</title>
<g id="a_node3"><a xlink:href="classHttpParser.html#a317def360bd0e77edbcb6673e0575d04" target="_top" xlink:title=" ">
<polygon fill="white" stroke="black" points="967,-82.5 967,-101.5 1122,-101.5 1122,-82.5 967,-82.5"/>
<text text-anchor="middle" x="1044.5" y="-89.5" font-family="Helvetica,sans-Serif" font-size="10.00">HttpParser::parseBodyChunked</text>
</a>
</g>
</g>
<!-- Node2&#45;&gt;Node3 -->
<g id="edge2" class="edge">
<title>Node2&#45;&gt;Node3</title>
<path fill="none" stroke="midnightblue" d="M1163.36,-123.3C1135.67,-115.95 1104.64,-107.71 1081.38,-101.53"/>
<polygon fill="midnightblue" stroke="midnightblue" points="1162.83,-126.78 1173.39,-125.97 1164.62,-120.02 1162.83,-126.78"/>
</g>
<!-- Node4 -->
<g id="node4" class="node">
<title>Node4</title>
<g id="a_node4"><a xlink:href="classHttpParser.html#a72e22a873ca7e20a8dbbd63a43b045f9" target="_top" xlink:title=" ">
<polygon fill="white" stroke="black" points="806.5,-79.5 806.5,-98.5 922.5,-98.5 922.5,-79.5 806.5,-79.5"/>
<text text-anchor="middle" x="864.5" y="-86.5" font-family="Helvetica,sans-Serif" font-size="10.00">HttpParser::parseBody</text>
</a>
</g>
</g>
<!-- Node3&#45;&gt;Node4 -->
<g id="edge3" class="edge">
<title>Node3&#45;&gt;Node4</title>
<path fill="none" stroke="midnightblue" d="M956.81,-90.54C945.19,-90.34 933.53,-90.15 922.6,-89.96"/>
<polygon fill="midnightblue" stroke="midnightblue" points="956.92,-94.04 966.98,-90.71 957.04,-87.04 956.92,-94.04"/>
</g>
<!-- Node5 -->
<g id="node5" class="node">
<title>Node5</title>
<g id="a_node5"><a xlink:href="classHttpParser.html#ada29088006c606896d2d46e48034f420" target="_top" xlink:title=" ">
<polygon fill="white" stroke="black" points="652,-38.5 652,-57.5 762,-57.5 762,-38.5 652,-38.5"/>
<text text-anchor="middle" x="707" y="-45.5" font-family="Helvetica,sans-Serif" font-size="10.00">HttpParser::consume</text>
</a>
</g>
</g>
<!-- Node4&#45;&gt;Node5 -->
<g id="edge4" class="edge">
<title>Node4&#45;&gt;Node5</title>
<path fill="none" stroke="midnightblue" d="M817.7,-76.92C794.23,-70.73 766.06,-63.31 744.14,-57.53"/>
<polygon fill="midnightblue" stroke="midnightblue" points="816.87,-80.33 827.43,-79.49 818.66,-73.56 816.87,-80.33"/>
</g>
<!-- Node6 -->
<g id="node6" class="node">
<title>Node6</title>
<g id="a_node6"><a xlink:href="classClient.html#ac95fe5b24fe5275bd2271bd1ac37596d" target="_top" xlink:title=" ">
<polygon fill="white" stroke="black" points="336,-57.5 336,-76.5 436,-76.5 436,-57.5 336,-57.5"/>
<text text-anchor="middle" x="386" y="-64.5" font-family="Helvetica,sans-Serif" font-size="10.00">Client::handleRead</text>
</a>
</g>
</g>
<!-- Node5&#45;&gt;Node6 -->
<g id="edge5" class="edge">
<title>Node5&#45;&gt;Node6</title>
<path fill="none" stroke="midnightblue" d="M641.65,-51.83C580.96,-55.45 491.28,-60.79 436.13,-64.07"/>
<polygon fill="midnightblue" stroke="midnightblue" points="642.11,-55.31 651.89,-51.22 641.7,-48.32 642.11,-55.31"/>
</g>
<!-- Node9 -->
<g id="node9" class="node">
<title>Node9</title>
<g id="a_node9"><a xlink:href="classClient.html#a950fd2ab8ac20c9be4c5e722344d6fe2" target="_top" xlink:title=" ">
<polygon fill="white" stroke="black" points="491,-19.5 491,-38.5 616,-38.5 616,-19.5 491,-19.5"/>
<text text-anchor="middle" x="553.5" y="-26.5" font-family="Helvetica,sans-Serif" font-size="10.00">Client::processRequests</text>
</a>
</g>
</g>
<!-- Node5&#45;&gt;Node9 -->
<g id="edge8" class="edge">
<title>Node5&#45;&gt;Node9</title>
<path fill="none" stroke="midnightblue" d="M641.57,-39.92C633.13,-38.86 624.5,-37.78 616.11,-36.73"/>
<polygon fill="midnightblue" stroke="midnightblue" points="641.38,-43.42 651.73,-41.19 642.25,-36.48 641.38,-43.42"/>
</g>
<!-- Node7 -->
<g id="node7" class="node">
<title>Node7</title>
<g id="a_node7"><a xlink:href="classServerManager.html#a9f3ca46da9df004286f90902b8daf29d" target="_top" xlink:title=" ">
<polygon fill="white" stroke="black" points="138,-52 138,-82 281,-82 281,-52 138,-52"/>
<text text-anchor="start" x="146" y="-70" font-family="Helvetica,sans-Serif" font-size="10.00">ServerManager::handleClient</text>
<text text-anchor="middle" x="209.5" y="-59" font-family="Helvetica,sans-Serif" font-size="10.00">Event</text>
</a>
</g>
</g>
<!-- Node6&#45;&gt;Node7 -->
<g id="edge6" class="edge">
<title>Node6&#45;&gt;Node7</title>
<path fill="none" stroke="midnightblue" d="M325.69,-67C311.33,-67 295.84,-67 281.02,-67"/>
<polygon fill="midnightblue" stroke="midnightblue" points="325.93,-70.5 335.93,-67 325.93,-63.5 325.93,-70.5"/>
</g>
<!-- Node8 -->
<g id="node8" class="node">
<title>Node8</title>
<g id="a_node8"><a xlink:href="classServerManager.html#aecc313c9b6afcab92c22269b3333c721" target="_top" xlink:title=" ">
<polygon fill="white" stroke="black" points="0,-57.5 0,-76.5 102,-76.5 102,-57.5 0,-57.5"/>
<text text-anchor="middle" x="51" y="-64.5" font-family="Helvetica,sans-Serif" font-size="10.00">ServerManager::run</text>
</a>
</g>
</g>
<!-- Node7&#45;&gt;Node8 -->
<g id="edge7" class="edge">
<title>Node7&#45;&gt;Node8</title>
<path fill="none" stroke="midnightblue" d="M127.45,-67C118.82,-67 110.23,-67 102.11,-67"/>
<polygon fill="midnightblue" stroke="midnightblue" points="127.58,-70.5 137.58,-67 127.58,-63.5 127.58,-70.5"/>
</g>
<!-- Node9&#45;&gt;Node6 -->
<g id="edge10" class="edge">
<title>Node9&#45;&gt;Node6</title>
<path fill="none" stroke="midnightblue" d="M500.69,-40.9C477.43,-46.24 450.35,-52.45 428.46,-57.48"/>
<polygon fill="midnightblue" stroke="midnightblue" points="501.77,-44.24 510.74,-38.59 500.21,-37.42 501.77,-44.24"/>
</g>
<!-- Node10 -->
<g id="node10" class="node">
<title>Node10</title>
<g id="a_node10"><a xlink:href="classClient.html#a09d6029b60ae8c9773362968e72f2e54" target="_top" xlink:title=" ">
<polygon fill="white" stroke="black" points="317,-19.5 317,-38.5 455,-38.5 455,-19.5 317,-19.5"/>
<text text-anchor="middle" x="386" y="-26.5" font-family="Helvetica,sans-Serif" font-size="10.00">Client::finalizeCgiResponse</text>
</a>
</g>
</g>
<!-- Node9&#45;&gt;Node10 -->
<g id="edge9" class="edge">
<title>Node9&#45;&gt;Node10</title>
<path fill="none" stroke="midnightblue" d="M480.63,-29C472.14,-29 463.5,-29 455.07,-29"/>
<polygon fill="midnightblue" stroke="midnightblue" points="480.87,-32.5 490.87,-29 480.87,-25.5 480.87,-32.5"/>
</g>
<!-- Node12 -->
<g id="node12" class="node">
<title>Node12</title>
<g id="a_node12"><a xlink:href="classHttpParser.html#ab31b647126e0e69451c80b70a83c850f" target="_top" xlink:title=" ">
<polygon fill="white" stroke="black" points="1158,-77 1158,-107 1304,-107 1304,-77 1158,-77"/>
<text text-anchor="start" x="1166" y="-95" font-family="Helvetica,sans-Serif" font-size="10.00">HttpParser::handleChunkSize</text>
<text text-anchor="middle" x="1231" y="-84" font-family="Helvetica,sans-Serif" font-size="10.00">State</text>
</a>
</g>
</g>
<!-- Node11&#45;&gt;Node12 -->
<g id="edge12" class="edge">
<title>Node11&#45;&gt;Node12</title>
<path fill="none" stroke="midnightblue" d="M1329.9,-90.43C1321.29,-90.57 1312.63,-90.71 1304.21,-90.84"/>
<polygon fill="midnightblue" stroke="midnightblue" points="1330.02,-93.93 1339.97,-90.27 1329.91,-86.93 1330.02,-93.93"/>
</g>
<!-- Node12&#45;&gt;Node3 -->
<g id="edge13" class="edge">
<title>Node12&#45;&gt;Node3</title>
<path fill="none" stroke="midnightblue" d="M1147.61,-92C1139.14,-92 1130.55,-92 1122.14,-92"/>
<polygon fill="midnightblue" stroke="midnightblue" points="1147.87,-95.5 1157.87,-92 1147.87,-88.5 1147.87,-95.5"/>
</g>
<!-- Node13&#45;&gt;Node5 -->
<g id="edge15" class="edge">
<title>Node13&#45;&gt;Node5</title>
<path fill="none" stroke="midnightblue" d="M968.6,-48C906.01,-48 818.24,-48 762.24,-48"/>
<polygon fill="midnightblue" stroke="midnightblue" points="968.81,-51.5 978.81,-48 968.81,-44.5 968.81,-51.5"/>
</g>
<!-- Node14&#45;&gt;Node5 -->
<g id="edge17" class="edge">
<title>Node14&#45;&gt;Node5</title>
<path fill="none" stroke="midnightblue" d="M814.53,-21.97C792.73,-27.29 767.43,-33.48 746.96,-38.48"/>
<polygon fill="midnightblue" stroke="midnightblue" points="815.38,-25.36 824.26,-19.59 813.72,-18.56 815.38,-25.36"/>
</g>
</g>
</svg>
        <g id="navigator" transform="translate(0 0)" fill="#404254">
                <rect fill="#f2f5e9" fill-opacity="0.5" stroke="#606060" stroke-width=".5" x="0" y="0" width="60" height="60"/>
                <use id="zoomplus" xlink:href="#zoomPlus" x="17" y="9" onmousedown="handleZoom(evt,'in')"/>
                <use id="zoomminus" xlink:href="#zoomMin" x="42" y="9" onmousedown="handleZoom(evt,'out')"/>
                <use id="reset" xlink:href="#resetDef" x="30" y="36" onmousedown="handleReset()"/>
                <g id="arrowUp" xlink:href="#dirArrow" transform="translate(30 24)" onmousedown="handlePan(0,-1)">
                  <use xlink:href="#rim" fill="#404040">
                        <set attributeName="fill" to="#808080" begin="arrowUp.mouseover" end="arrowUp.mouseout"/>
                  </use>
                  <path fill="none" stroke="white" stroke-width="1.5" d="M0,-3.0v7 M-2.5,-0.5L0,-3.0L2.5,-0.5"/>
                </g>
                <g id="arrowRight" xlink:href="#dirArrow" transform="rotate(90) translate(36 -43)" onmousedown="handlePan(1,0)">
                  <use xlink:href="#rim" fill="#404040">
                        <set attributeName="fill" to="#808080" begin="arrowRight.mouseover" end="arrowRight.mouseout"/>
                  </use>
                  <path fill="none" stroke="white" stroke-width="1.5" d="M0,-3.0v7 M-2.5,-0.5L0,-3.0L2.5,-0.5"/>
                </g>
                <g id="arrowDown" xlink:href="#dirArrow" transform="rotate(180) translate(-30 -48)" onmousedown="handlePan(0,1)">
                  <use xlink:href="#rim" fill="#404040">
                        <set attributeName="fill" to="#808080" begin="arrowDown.mouseover" end="arrowDown.mouseout"/>
                  </use>
                  <path fill="none" stroke="white" stroke-width="1.5" d="M0,-3.0v7 M-2.5,-0.5L0,-3.0L2.5,-0.5"/>
                </g>
                <g id="arrowLeft" xlink:href="#dirArrow" transform="rotate(270) translate(-36 17)" onmousedown="handlePan(-1,0)">
                  <use xlink:href="#rim" fill="#404040">
                        <set attributeName="fill" to="#808080" begin="arrowLeft.mouseover" end="arrowLeft.mouseout"/>
                  </use>
                  <path fill="none" stroke="white" stroke-width="1.5" d="M0,-3.0v7 M-2.5,-0.5L0,-3.0L2.5,-0.5"/>
                </g>
        </g>
        <svg viewBox="0 0 15 15" width="100%" height="30px" preserveAspectRatio="xMaxYMin meet">
         <g id="arrow_out" transform="scale(0.3 0.3)">
          <a xlink:href="classHttpParser_aaee9364e5a2d7de7213cfc7ffb74fcac_icgraph_org.svg" target="_base">
           <rect id="button" ry="5" rx="5" y="6" x="6" height="38" width="38"
                fill="#f2f5e9" fill-opacity="0.5" stroke="#606060" stroke-width="1.0"/>
           <path id="arrow"
             d="M 11.500037,31.436501 C 11.940474,20.09759 22.043105,11.32322 32.158766,21.979434 L 37.068811,17.246167 C 37.068811,17.246167 37.088388,32 37.088388,32 L 22.160133,31.978069 C 22.160133,31.978069 26.997745,27.140456 26.997745,27.140456 C 18.528582,18.264221 13.291696,25.230495 11.500037,31.436501 z"
             style="fill:#404040;"/>
          </a>
         </g>
        </svg>
</svg>
