<?xml version="1.0" encoding="UTF-8" standalone="no"?>
<!DOCTYPE svg PUBLIC "-//W3C//DTD SVG 1.1//EN"
 "http://www.w3.org/Graphics/SVG/1.1/DTD/svg11.dtd">
<!-- Generated by graphviz version 2.43.0 (0)
 -->
<!-- Title: EpollWrapper::removeFd Pages: 1 -->
<svg width="807pt" height="159pt"
 viewBox="0.00 0.00 807.00 159.00" xmlns="http://www.w3.org/2000/svg" xmlns:xlink="http://www.w3.org/1999/xlink">
<g id="graph0" class="graph" transform="scale(1 1) rotate(0) translate(4 155)">
<title>EpollWrapper::removeFd</title>
<polygon fill="white" stroke="transparent" points="-4,4 -4,-155 803,-155 803,4 -4,4"/>
<!-- Node1 -->
<g id="node1" class="node">
<title>Node1</title>
<g id="a_node1"><a xlink:title=" ">
<polygon fill="#bfbfbf" stroke="black" points="675,-79.5 675,-98.5 799,-98.5 799,-79.5 675,-79.5"/>
<text text-anchor="middle" x="737" y="-86.5" font-family="Helvetica,sans-Serif" font-size="10.00">EpollWrapper::removeFd</text>
</a>
</g>
</g>
<!-- Node2 -->
<g id="node2" class="node">
<title>Node2</title>
<g id="a_node2"><a xlink:href="classServerManager.html#afb4bca18fdb86e6e628cdbb8949c6d94" target="_top" xlink:title=" ">
<polygon fill="white" stroke="black" points="329,-115 329,-145 472,-145 472,-115 329,-115"/>
<text text-anchor="start" x="337" y="-133" font-family="Helvetica,sans-Serif" font-size="10.00">ServerManager::handleClient</text>
<text text-anchor="middle" x="400.5" y="-122" font-family="Helvetica,sans-Serif" font-size="10.00">Disconnect</text>
</a>
</g>
</g>
<!-- Node1&#45;&gt;Node2 -->
<g id="edge1" class="edge">
<title>Node1&#45;&gt;Node2</title>
<path fill="none" stroke="midnightblue" d="M664.66,-97.74C607.82,-104.71 528.65,-114.42 472.02,-121.36"/>
<polygon fill="midnightblue" stroke="midnightblue" points="665.15,-101.21 674.65,-96.52 664.3,-94.26 665.15,-101.21"/>
</g>
<!-- Node6 -->
<g id="node6" class="node">
<title>Node6</title>
<g id="a_node6"><a xlink:href="classServerManager.html#aa0099c81bdb4ab1dcca775720d31c920" target="_top" xlink:title=" ">
<polygon fill="white" stroke="black" points="508,-52 508,-82 639,-82 639,-52 508,-52"/>
<text text-anchor="start" x="516" y="-70" font-family="Helvetica,sans-Serif" font-size="10.00">ServerManager::unregister</text>
<text text-anchor="middle" x="573.5" y="-59" font-family="Helvetica,sans-Serif" font-size="10.00">CgiPipe</text>
</a>
</g>
</g>
<!-- Node1&#45;&gt;Node6 -->
<g id="edge6" class="edge">
<title>Node1&#45;&gt;Node6</title>
<path fill="none" stroke="midnightblue" d="M664.95,-79.32C656.37,-78.15 647.63,-76.96 639.14,-75.81"/>
<polygon fill="midnightblue" stroke="midnightblue" points="664.56,-82.8 674.94,-80.68 665.51,-75.86 664.56,-82.8"/>
</g>
<!-- Node3 -->
<g id="node3" class="node">
<title>Node3</title>
<g id="a_node3"><a xlink:href="classServerManager.html#afc55d5553173781d24690df769dc8c62" target="_top" xlink:title=" ">
<polygon fill="white" stroke="black" points="138,-131.5 138,-150.5 293,-150.5 293,-131.5 138,-131.5"/>
<text text-anchor="middle" x="215.5" y="-138.5" font-family="Helvetica,sans-Serif" font-size="10.00">ServerManager::checkTimeouts</text>
</a>
</g>
</g>
<!-- Node2&#45;&gt;Node3 -->
<g id="edge2" class="edge">
<title>Node2&#45;&gt;Node3</title>
<path fill="none" stroke="midnightblue" d="M318.53,-134.87C310.09,-135.37 301.53,-135.89 293.14,-136.39"/>
<polygon fill="midnightblue" stroke="midnightblue" points="318.98,-138.35 328.75,-134.25 318.56,-131.36 318.98,-138.35"/>
</g>
<!-- Node5 -->
<g id="node5" class="node">
<title>Node5</title>
<g id="a_node5"><a xlink:href="classServerManager.html#a9f3ca46da9df004286f90902b8daf29d" target="_top" xlink:title=" ">
<polygon fill="white" stroke="black" points="144,-82 144,-112 287,-112 287,-82 144,-82"/>
<text text-anchor="start" x="152" y="-100" font-family="Helvetica,sans-Serif" font-size="10.00">ServerManager::handleClient</text>
<text text-anchor="middle" x="215.5" y="-89" font-family="Helvetica,sans-Serif" font-size="10.00">Event</text>
</a>
</g>
</g>
<!-- Node2&#45;&gt;Node5 -->
<g id="edge4" class="edge">
<title>Node2&#45;&gt;Node5</title>
<path fill="none" stroke="midnightblue" d="M318.71,-115.43C308.17,-113.53 297.43,-111.59 287.06,-109.72"/>
<polygon fill="midnightblue" stroke="midnightblue" points="318.28,-118.91 328.75,-117.24 319.53,-112.02 318.28,-118.91"/>
</g>
<!-- Node4 -->
<g id="node4" class="node">
<title>Node4</title>
<g id="a_node4"><a xlink:href="classServerManager.html#aecc313c9b6afcab92c22269b3333c721" target="_top" xlink:title=" ">
<polygon fill="white" stroke="black" points="0,-87.5 0,-106.5 102,-106.5 102,-87.5 0,-87.5"/>
<text text-anchor="middle" x="51" y="-94.5" font-family="Helvetica,sans-Serif" font-size="10.00">ServerManager::run</text>
</a>
</g>
</g>
<!-- Node3&#45;&gt;Node4 -->
<g id="edge3" class="edge">
<title>Node3&#45;&gt;Node4</title>
<path fill="none" stroke="midnightblue" d="M164.79,-128.96C155.86,-126.71 146.64,-124.33 138,-122 119.98,-117.15 99.96,-111.35 83.77,-106.56"/>
<polygon fill="midnightblue" stroke="midnightblue" points="164.17,-132.41 174.72,-131.44 165.86,-125.62 164.17,-132.41"/>
</g>
<!-- Node5&#45;&gt;Node4 -->
<g id="edge5" class="edge">
<title>Node5&#45;&gt;Node4</title>
<path fill="none" stroke="midnightblue" d="M133.46,-97C122.75,-97 112.03,-97 102.06,-97"/>
<polygon fill="midnightblue" stroke="midnightblue" points="133.7,-100.5 143.7,-97 133.7,-93.5 133.7,-100.5"/>
</g>
<!-- Node7 -->
<g id="node7" class="node">
<title>Node7</title>
<g id="a_node7"><a xlink:href="classClient.html#a3b000abab7a3fe339f0f39ad5daca68f" target="_top" xlink:title=" ">
<polygon fill="white" stroke="black" points="338,-76.5 338,-95.5 463,-95.5 463,-76.5 338,-76.5"/>
<text text-anchor="middle" x="400.5" y="-83.5" font-family="Helvetica,sans-Serif" font-size="10.00">Client::checkCgiTimeout</text>
</a>
</g>
</g>
<!-- Node6&#45;&gt;Node7 -->
<g id="edge7" class="edge">
<title>Node6&#45;&gt;Node7</title>
<path fill="none" stroke="midnightblue" d="M497.78,-75.3C486.21,-76.59 474.37,-77.9 463.13,-79.15"/>
<polygon fill="midnightblue" stroke="midnightblue" points="498.3,-78.77 507.85,-74.18 497.53,-71.81 498.3,-78.77"/>
</g>
<!-- Node8 -->
<g id="node8" class="node">
<title>Node8</title>
<g id="a_node8"><a xlink:href="classClient.html#a4104efd3f5f7e1c0f3e3302b46861624" target="_top" xlink:title=" ">
<polygon fill="white" stroke="black" points="345,-38.5 345,-57.5 456,-57.5 456,-38.5 345,-38.5"/>
<text text-anchor="middle" x="400.5" y="-45.5" font-family="Helvetica,sans-Serif" font-size="10.00">Client::handleCgiPipe</text>
</a>
</g>
</g>
<!-- Node6&#45;&gt;Node8 -->
<g id="edge8" class="edge">
<title>Node6&#45;&gt;Node8</title>
<path fill="none" stroke="midnightblue" d="M497.76,-58.7C483.79,-57.14 469.42,-55.55 456.19,-54.08"/>
<polygon fill="midnightblue" stroke="midnightblue" points="497.53,-62.19 507.85,-59.82 498.3,-55.23 497.53,-62.19"/>
</g>
<!-- Node10 -->
<g id="node10" class="node">
<title>Node10</title>
<g id="a_node10"><a xlink:href="classClient.html#a840e519ca781888cbd54181572ebe3a7" target="_top" xlink:title=" ">
<polygon fill="white" stroke="black" points="360.5,-0.5 360.5,-19.5 440.5,-19.5 440.5,-0.5 360.5,-0.5"/>
<text text-anchor="middle" x="400.5" y="-7.5" font-family="Helvetica,sans-Serif" font-size="10.00">Client::~Client</text>
</a>
</g>
</g>
<!-- Node6&#45;&gt;Node10 -->
<g id="edge11" class="edge">
<title>Node6&#45;&gt;Node10</title>
<path fill="none" stroke="midnightblue" d="M525.53,-48.15C508.77,-41.71 489.66,-34.7 472,-29 461.63,-25.65 450.27,-22.41 439.75,-19.58"/>
<polygon fill="midnightblue" stroke="midnightblue" points="524.52,-51.51 535.11,-51.86 527.05,-44.98 524.52,-51.51"/>
</g>
<!-- Node9 -->
<g id="node9" class="node">
<title>Node9</title>
<g id="a_node9"><a xlink:href="classServerManager.html#a9c75ea0bd268425c187ef25770eccbe8" target="_top" xlink:title=" ">
<polygon fill="white" stroke="black" points="149.5,-33 149.5,-63 281.5,-63 281.5,-33 149.5,-33"/>
<text text-anchor="start" x="157.5" y="-51" font-family="Helvetica,sans-Serif" font-size="10.00">ServerManager::handleCgi</text>
<text text-anchor="middle" x="215.5" y="-40" font-family="Helvetica,sans-Serif" font-size="10.00">PipeEvent</text>
</a>
</g>
</g>
<!-- Node8&#45;&gt;Node9 -->
<g id="edge9" class="edge">
<title>Node8&#45;&gt;Node9</title>
<path fill="none" stroke="midnightblue" d="M334.17,-48C317.11,-48 298.74,-48 281.69,-48"/>
<polygon fill="midnightblue" stroke="midnightblue" points="334.59,-51.5 344.59,-48 334.59,-44.5 334.59,-51.5"/>
</g>
<!-- Node9&#45;&gt;Node4 -->
<g id="edge10" class="edge">
<title>Node9&#45;&gt;Node4</title>
<path fill="none" stroke="midnightblue" d="M154.66,-66.04C130.63,-73.29 103.91,-81.35 83.76,-87.42"/>
<polygon fill="midnightblue" stroke="midnightblue" points="155.85,-69.34 164.42,-63.1 153.83,-62.64 155.85,-69.34"/>
</g>
</g>
</svg>
