<?xml version="1.0" encoding="UTF-8" standalone="no"?>
<!DOCTYPE svg PUBLIC "-//W3C//DTD SVG 1.1//EN"
 "http://www.w3.org/Graphics/SVG/1.1/DTD/svg11.dtd">
<!-- Generated by graphviz version 2.43.0 (0)
 -->
<!-- Title: ConfigParser::parseReturn Pages: 1 -->
<svg width="338pt" height="192pt"
 viewBox="0.00 0.00 338.00 192.00" xmlns="http://www.w3.org/2000/svg" xmlns:xlink="http://www.w3.org/1999/xlink">
<g id="graph0" class="graph" transform="scale(1 1) rotate(0) translate(4 188)">
<title>ConfigParser::parseReturn</title>
<polygon fill="white" stroke="transparent" points="-4,4 -4,-188 334,-188 334,4 -4,4"/>
<!-- Node1 -->
<g id="node1" class="node">
<title>Node1</title>
<g id="a_node1"><a xlink:title=" ">
<polygon fill="#bfbfbf" stroke="black" points="0,-82.5 0,-101.5 133,-101.5 133,-82.5 0,-82.5"/>
<text text-anchor="middle" x="66.5" y="-89.5" font-family="Helvetica,sans-Serif" font-size="10.00">ConfigParser::parseReturn</text>
</a>
</g>
</g>
<!-- Node2 -->
<g id="node2" class="node">
<title>Node2</title>
<g id="a_node2"><a xlink:href="namespaceconfig_1_1utils.html#a4c504c996325f8d62e08d878b037e975" target="_top" xlink:title="Removes the trailing semicolon from a string if present.">
<polygon fill="white" stroke="black" points="174,-164.5 174,-183.5 325,-183.5 325,-164.5 174,-164.5"/>
<text text-anchor="middle" x="249.5" y="-171.5" font-family="Helvetica,sans-Serif" font-size="10.00">config::utils::removeSemicolon</text>
</a>
</g>
</g>
<!-- Node1&#45;&gt;Node2 -->
<g id="edge1" class="edge">
<title>Node1&#45;&gt;Node2</title>
<path fill="none" stroke="midnightblue" d="M79.92,-101.56C98.36,-115.32 134.54,-140.63 169,-155 174.93,-157.47 181.25,-159.67 187.64,-161.6"/>
<polygon fill="midnightblue" stroke="midnightblue" points="187.11,-165.09 197.68,-164.43 189,-158.35 187.11,-165.09"/>
</g>
<!-- Node3 -->
<g id="node3" class="node">
<title>Node3</title>
<g id="a_node3"><a xlink:href="classLocationConfig.html#a171605c1975557c5d5ca44fe0f33af7c" target="_top" xlink:title=" ">
<polygon fill="white" stroke="black" points="169,-126.5 169,-145.5 330,-145.5 330,-126.5 169,-126.5"/>
<text text-anchor="middle" x="249.5" y="-133.5" font-family="Helvetica,sans-Serif" font-size="10.00">LocationConfig::setRedirectCode</text>
</a>
</g>
</g>
<!-- Node1&#45;&gt;Node3 -->
<g id="edge2" class="edge">
<title>Node1&#45;&gt;Node3</title>
<path fill="none" stroke="midnightblue" d="M106.04,-101.56C125,-106.24 148.19,-111.95 169,-117 178.52,-119.31 188.68,-121.76 198.45,-124.1"/>
<polygon fill="midnightblue" stroke="midnightblue" points="197.91,-127.56 208.45,-126.49 199.54,-120.76 197.91,-127.56"/>
</g>
<!-- Node4 -->
<g id="node4" class="node">
<title>Node4</title>
<g id="a_node4"><a xlink:href="classLocationConfig.html#a901f488de53c50e7b1f39f4b199cd9db" target="_top" xlink:title=" ">
<polygon fill="white" stroke="black" points="180.5,-77 180.5,-107 318.5,-107 318.5,-77 180.5,-77"/>
<text text-anchor="start" x="188.5" y="-95" font-family="Helvetica,sans-Serif" font-size="10.00">LocationConfig::setRedirect</text>
<text text-anchor="middle" x="249.5" y="-84" font-family="Helvetica,sans-Serif" font-size="10.00">ParamCount</text>
</a>
</g>
</g>
<!-- Node1&#45;&gt;Node4 -->
<g id="edge3" class="edge">
<title>Node1&#45;&gt;Node4</title>
<path fill="none" stroke="midnightblue" d="M133.1,-92C145.12,-92 157.76,-92 170.11,-92"/>
<polygon fill="midnightblue" stroke="midnightblue" points="170.38,-95.5 180.38,-92 170.38,-88.5 170.38,-95.5"/>
</g>
<!-- Node5 -->
<g id="node5" class="node">
<title>Node5</title>
<g id="a_node5"><a xlink:href="classLocationConfig.html#a17e8f5821073dcecf2e5bd9226cf9633" target="_top" xlink:title=" ">
<polygon fill="white" stroke="black" points="174,-38.5 174,-57.5 325,-57.5 325,-38.5 174,-38.5"/>
<text text-anchor="middle" x="249.5" y="-45.5" font-family="Helvetica,sans-Serif" font-size="10.00">LocationConfig::setRedirectUrl</text>
</a>
</g>
</g>
<!-- Node1&#45;&gt;Node5 -->
<g id="edge4" class="edge">
<title>Node1&#45;&gt;Node5</title>
<path fill="none" stroke="midnightblue" d="M106.77,-82.45C133.93,-75.85 170.27,-67.02 199.35,-59.95"/>
<polygon fill="midnightblue" stroke="midnightblue" points="200.41,-63.29 209.3,-57.53 198.76,-56.49 200.41,-63.29"/>
</g>
<!-- Node6 -->
<g id="node6" class="node">
<title>Node6</title>
<g id="a_node6"><a xlink:href="namespaceconfig_1_1utils.html#a0ff3e01dad8856ae9244e96ef9e95b99" target="_top" xlink:title="Converts a string to an integer.">
<polygon fill="white" stroke="black" points="190,-0.5 190,-19.5 309,-19.5 309,-0.5 190,-0.5"/>
<text text-anchor="middle" x="249.5" y="-7.5" font-family="Helvetica,sans-Serif" font-size="10.00">config::utils::stringToInt</text>
</a>
</g>
</g>
<!-- Node1&#45;&gt;Node6 -->
<g id="edge5" class="edge">
<title>Node1&#45;&gt;Node6</title>
<path fill="none" stroke="midnightblue" d="M79.92,-82.44C98.36,-68.68 134.54,-43.37 169,-29 174.93,-26.53 181.25,-24.33 187.64,-22.4"/>
<polygon fill="midnightblue" stroke="midnightblue" points="189,-25.65 197.68,-19.57 187.11,-18.91 189,-25.65"/>
</g>
</g>
</svg>
