<?xml version="1.0" encoding="UTF-8" standalone="no"?>
<!DOCTYPE svg PUBLIC "-//W3C//DTD SVG 1.1//EN"
 "http://www.w3.org/Graphics/SVG/1.1/DTD/svg11.dtd">
<!-- Generated by graphviz version 2.43.0 (0)
 -->
<!-- Title: HttpResponse::setStatusCode Pages: 1 -->
<svg width="1962pt" height="524pt"
 viewBox="0.00 0.00 1962.00 524.00" xmlns="http://www.w3.org/2000/svg" xmlns:xlink="http://www.w3.org/1999/xlink">
<g id="graph0" class="graph" transform="scale(1 1) rotate(0) translate(4 520)">
<title>HttpResponse::setStatusCode</title>
<polygon fill="white" stroke="transparent" points="-4,4 -4,-520 1958,-520 1958,4 -4,4"/>
<!-- Node1 -->
<g id="node1" class="node">
<title>Node1</title>
<g id="a_node1"><a xlink:title=" ">
<polygon fill="#bfbfbf" stroke="black" points="1803,-228.5 1803,-247.5 1954,-247.5 1954,-228.5 1803,-228.5"/>
<text text-anchor="middle" x="1878.5" y="-235.5" font-family="Helvetica,sans-Serif" font-size="10.00">HttpResponse::setStatusCode</text>
</a>
</g>
</g>
<!-- Node2 -->
<g id="node2" class="node">
<title>Node2</title>
<g id="a_node2"><a xlink:href="ResponseUtils_8cpp.html#ab7c2cb6fbf297c09ec402182b04584c6" target="_top" xlink:title=" ">
<polygon fill="white" stroke="black" points="1674,-228.5 1674,-247.5 1767,-247.5 1767,-228.5 1674,-228.5"/>
<text text-anchor="middle" x="1720.5" y="-235.5" font-family="Helvetica,sans-Serif" font-size="10.00">fillBaseResponse</text>
</a>
</g>
</g>
<!-- Node1&#45;&gt;Node2 -->
<g id="edge1" class="edge">
<title>Node1&#45;&gt;Node2</title>
<path fill="none" stroke="midnightblue" d="M1792.54,-238C1783.91,-238 1775.39,-238 1767.42,-238"/>
<polygon fill="midnightblue" stroke="midnightblue" points="1792.7,-241.5 1802.7,-238 1792.7,-234.5 1792.7,-241.5"/>
</g>
<!-- Node12 -->
<g id="node12" class="node">
<title>Node12</title>
<g id="a_node12"><a xlink:href="classClient.html#a09d6029b60ae8c9773362968e72f2e54" target="_top" xlink:title=" ">
<polygon fill="white" stroke="black" points="317,-145.5 317,-164.5 455,-164.5 455,-145.5 317,-145.5"/>
<text text-anchor="middle" x="386" y="-152.5" font-family="Helvetica,sans-Serif" font-size="10.00">Client::finalizeCgiResponse</text>
</a>
</g>
</g>
<!-- Node1&#45;&gt;Node12 -->
<g id="edge37" class="edge">
<title>Node1&#45;&gt;Node12</title>
<path fill="none" stroke="midnightblue" d="M1867.13,-219.53C1834.21,-163.61 1726.1,0 1588,0 1588,0 1588,0 728.5,0 587.21,0 440.08,-111.37 398.53,-145.3"/>
<polygon fill="midnightblue" stroke="midnightblue" points="1864.2,-221.46 1872.23,-228.38 1870.27,-217.96 1864.2,-221.46"/>
</g>
<!-- Node22 -->
<g id="node22" class="node">
<title>Node22</title>
<g id="a_node22"><a xlink:href="StaticPathHandler_8cpp.html#a638cb25cad6c24877a0e75984110ea7a" target="_top" xlink:title=" ">
<polygon fill="white" stroke="black" points="1396,-496.5 1396,-515.5 1472,-515.5 1472,-496.5 1396,-496.5"/>
<text text-anchor="middle" x="1434" y="-503.5" font-family="Helvetica,sans-Serif" font-size="10.00">handleUpload</text>
</a>
</g>
</g>
<!-- Node1&#45;&gt;Node22 -->
<g id="edge38" class="edge">
<title>Node1&#45;&gt;Node22</title>
<path fill="none" stroke="midnightblue" d="M1856.09,-253.34C1799.65,-293.4 1641.41,-403.21 1500,-478 1487.07,-484.84 1472.12,-491.37 1459.82,-496.4"/>
<polygon fill="midnightblue" stroke="midnightblue" points="1858.14,-256.18 1864.26,-247.53 1854.08,-250.48 1858.14,-256.18"/>
</g>
<!-- Node3 -->
<g id="node3" class="node">
<title>Node3</title>
<g id="a_node3"><a xlink:href="ErrorUtils_8cpp.html#a470416220aa911b8f1274140a8322e7a" target="_top" xlink:title=" ">
<polygon fill="white" stroke="black" points="1536,-268.5 1536,-287.5 1638,-287.5 1638,-268.5 1536,-268.5"/>
<text text-anchor="middle" x="1587" y="-275.5" font-family="Helvetica,sans-Serif" font-size="10.00">buildErrorResponse</text>
</a>
</g>
</g>
<!-- Node2&#45;&gt;Node3 -->
<g id="edge2" class="edge">
<title>Node2&#45;&gt;Node3</title>
<path fill="none" stroke="midnightblue" d="M1678.35,-250.52C1659.26,-256.33 1636.92,-263.12 1619.24,-268.5"/>
<polygon fill="midnightblue" stroke="midnightblue" points="1679.45,-253.84 1688,-247.58 1677.42,-247.14 1679.45,-253.84"/>
</g>
<!-- Node14 -->
<g id="node14" class="node">
<title>Node14</title>
<g id="a_node14"><a xlink:href="classRequestProcessor.html#a3fa9c97a7d142a7b607002138de87140" target="_top" xlink:title=" ">
<polygon fill="white" stroke="black" points="1011,-227.5 1011,-246.5 1149,-246.5 1149,-227.5 1011,-227.5"/>
<text text-anchor="middle" x="1080" y="-234.5" font-family="Helvetica,sans-Serif" font-size="10.00">RequestProcessor::process</text>
</a>
</g>
</g>
<!-- Node2&#45;&gt;Node14 -->
<g id="edge36" class="edge">
<title>Node2&#45;&gt;Node14</title>
<path fill="none" stroke="midnightblue" d="M1704.57,-220.75C1689.16,-203.72 1663.81,-177.72 1638,-160 1582.12,-121.62 1566.16,-109.8 1500,-95 1362.49,-64.24 1309.03,-64.11 1185,-131 1139.84,-155.35 1102.05,-205.9 1087.46,-227.2"/>
<polygon fill="midnightblue" stroke="midnightblue" points="1702.03,-223.17 1711.29,-228.32 1707.26,-218.52 1702.03,-223.17"/>
</g>
<!-- Node17 -->
<g id="node17" class="node">
<title>Node17</title>
<g id="a_node17"><a xlink:href="StaticPathHandler_8cpp.html#a28a771d93d3051098585ebc34ed29855" target="_top" xlink:title=" ">
<polygon fill="white" stroke="black" points="1391.5,-420.5 1391.5,-439.5 1476.5,-439.5 1476.5,-420.5 1391.5,-420.5"/>
<text text-anchor="middle" x="1434" y="-427.5" font-family="Helvetica,sans-Serif" font-size="10.00">handleDirectory</text>
</a>
</g>
</g>
<!-- Node2&#45;&gt;Node17 -->
<g id="edge34" class="edge">
<title>Node2&#45;&gt;Node17</title>
<path fill="none" stroke="midnightblue" d="M1700.21,-254.36C1663.1,-285.33 1578.5,-353.57 1500,-400 1486.84,-407.78 1471.32,-415.01 1458.75,-420.42"/>
<polygon fill="midnightblue" stroke="midnightblue" points="1702.78,-256.77 1708.19,-247.66 1698.28,-251.41 1702.78,-256.77"/>
</g>
<!-- Node19 -->
<g id="node19" class="node">
<title>Node19</title>
<g id="a_node19"><a xlink:href="classRequestProcessor.html#a606f9c02a3166ca58e6930f8d292d81c" target="_top" xlink:title=" ">
<polygon fill="white" stroke="black" points="1368,-105 1368,-135 1500,-135 1500,-105 1368,-105"/>
<text text-anchor="start" x="1376" y="-123" font-family="Helvetica,sans-Serif" font-size="10.00">RequestProcessor::handle</text>
<text text-anchor="middle" x="1434" y="-112" font-family="Helvetica,sans-Serif" font-size="10.00">LocationValidation</text>
</a>
</g>
</g>
<!-- Node2&#45;&gt;Node19 -->
<g id="edge35" class="edge">
<title>Node2&#45;&gt;Node19</title>
<path fill="none" stroke="midnightblue" d="M1686.86,-224.46C1633.32,-202.25 1527.23,-158.25 1471.36,-135.08"/>
<polygon fill="midnightblue" stroke="midnightblue" points="1685.64,-227.75 1696.22,-228.34 1688.32,-221.28 1685.64,-227.75"/>
</g>
<!-- Node4 -->
<g id="node4" class="node">
<title>Node4</title>
<g id="a_node4"><a xlink:href="classClient.html#a3b000abab7a3fe339f0f39ad5daca68f" target="_top" xlink:title=" ">
<polygon fill="white" stroke="black" points="1371.5,-306.5 1371.5,-325.5 1496.5,-325.5 1496.5,-306.5 1371.5,-306.5"/>
<text text-anchor="middle" x="1434" y="-313.5" font-family="Helvetica,sans-Serif" font-size="10.00">Client::checkCgiTimeout</text>
</a>
</g>
</g>
<!-- Node3&#45;&gt;Node4 -->
<g id="edge3" class="edge">
<title>Node3&#45;&gt;Node4</title>
<path fill="none" stroke="midnightblue" d="M1538.16,-290.04C1517.06,-295.35 1492.62,-301.5 1472.83,-306.48"/>
<polygon fill="midnightblue" stroke="midnightblue" points="1539.05,-293.42 1547.9,-287.59 1537.34,-286.64 1539.05,-293.42"/>
</g>
<!-- Node5 -->
<g id="node5" class="node">
<title>Node5</title>
<g id="a_node5"><a xlink:href="classClient.html#ae523ed90bd32b88e539ebdf30746382b" target="_top" xlink:title=" ">
<polygon fill="white" stroke="black" points="1023.5,-366.5 1023.5,-385.5 1136.5,-385.5 1136.5,-366.5 1023.5,-366.5"/>
<text text-anchor="middle" x="1080" y="-373.5" font-family="Helvetica,sans-Serif" font-size="10.00">Client::dispatchAction</text>
</a>
</g>
</g>
<!-- Node3&#45;&gt;Node5 -->
<g id="edge4" class="edge">
<title>Node3&#45;&gt;Node5</title>
<path fill="none" stroke="midnightblue" d="M1582.86,-297.84C1575.76,-335.22 1554.6,-415.34 1500,-449 1362.66,-533.66 1154.53,-420.62 1096.5,-385.69"/>
<polygon fill="midnightblue" stroke="midnightblue" points="1586.36,-298.16 1584.64,-287.71 1579.46,-296.96 1586.36,-298.16"/>
</g>
<!-- Node3&#45;&gt;Node12 -->
<g id="edge13" class="edge">
<title>Node3&#45;&gt;Node12</title>
<path fill="none" stroke="midnightblue" d="M1568.75,-261.03C1552.39,-245.91 1526.44,-224.31 1500,-212 1329.62,-132.69 1268.94,-155 1081,-155 1081,-155 1081,-155 728.5,-155 633.64,-155 523.96,-155 455.03,-155"/>
<polygon fill="midnightblue" stroke="midnightblue" points="1566.72,-263.93 1576.38,-268.27 1571.53,-258.85 1566.72,-263.93"/>
</g>
<!-- Node13 -->
<g id="node13" class="node">
<title>Node13</title>
<g id="a_node13"><a xlink:href="classRequestProcessor.html#a79915b1a2fda205b7d5a6c92e5e3fce8" target="_top" xlink:title=" ">
<polygon fill="white" stroke="black" points="1185,-233.5 1185,-252.5 1332,-252.5 1332,-233.5 1185,-233.5"/>
<text text-anchor="middle" x="1258.5" y="-240.5" font-family="Helvetica,sans-Serif" font-size="10.00">RequestProcessor::handleCgi</text>
</a>
</g>
</g>
<!-- Node3&#45;&gt;Node13 -->
<g id="edge14" class="edge">
<title>Node3&#45;&gt;Node13</title>
<path fill="none" stroke="midnightblue" d="M1525.63,-267.59C1517.04,-266.28 1508.31,-265.04 1500,-264 1443.75,-256.98 1379.81,-251.51 1332,-247.92"/>
<polygon fill="midnightblue" stroke="midnightblue" points="1525.19,-271.07 1535.61,-269.15 1526.27,-264.15 1525.19,-271.07"/>
</g>
<!-- Node3&#45;&gt;Node14 -->
<g id="edge33" class="edge">
<title>Node3&#45;&gt;Node14</title>
<path fill="none" stroke="midnightblue" d="M1525.48,-279.26C1446.69,-280.06 1304.87,-278.64 1185,-262 1160.72,-258.63 1133.83,-252.09 1113.47,-246.54"/>
<polygon fill="midnightblue" stroke="midnightblue" points="1525.75,-282.76 1535.71,-279.14 1525.67,-275.76 1525.75,-282.76"/>
</g>
<!-- Node15 -->
<g id="node15" class="node">
<title>Node15</title>
<g id="a_node15"><a xlink:href="classClient.html#a4104efd3f5f7e1c0f3e3302b46861624" target="_top" xlink:title=" ">
<polygon fill="white" stroke="black" points="1378.5,-28.5 1378.5,-47.5 1489.5,-47.5 1489.5,-28.5 1378.5,-28.5"/>
<text text-anchor="middle" x="1434" y="-35.5" font-family="Helvetica,sans-Serif" font-size="10.00">Client::handleCgiPipe</text>
</a>
</g>
</g>
<!-- Node3&#45;&gt;Node15 -->
<g id="edge18" class="edge">
<title>Node3&#45;&gt;Node15</title>
<path fill="none" stroke="midnightblue" d="M1579.85,-258.58C1568.14,-223.53 1540.17,-148.38 1500,-95 1485.38,-75.57 1463.23,-57.91 1448.94,-47.55"/>
<polygon fill="midnightblue" stroke="midnightblue" points="1576.53,-259.68 1582.96,-268.1 1583.19,-257.51 1576.53,-259.68"/>
</g>
<!-- Node3&#45;&gt;Node17 -->
<g id="edge21" class="edge">
<title>Node3&#45;&gt;Node17</title>
<path fill="none" stroke="midnightblue" d="M1574.47,-296.49C1553.44,-330 1510.1,-398.05 1500,-406 1492.15,-412.17 1482.56,-416.87 1473.18,-420.39"/>
<polygon fill="midnightblue" stroke="midnightblue" points="1577.65,-298 1579.99,-287.67 1571.72,-294.29 1577.65,-298"/>
</g>
<!-- Node18 -->
<g id="node18" class="node">
<title>Node18</title>
<g id="a_node18"><a xlink:href="StaticPathHandler_8cpp.html#a4e092999675b45373270f5408cbe64c7" target="_top" xlink:title=" ">
<polygon fill="white" stroke="black" points="1213,-382.5 1213,-401.5 1304,-401.5 1304,-382.5 1213,-382.5"/>
<text text-anchor="middle" x="1258.5" y="-389.5" font-family="Helvetica,sans-Serif" font-size="10.00">handleStaticPath</text>
</a>
</g>
</g>
<!-- Node3&#45;&gt;Node18 -->
<g id="edge30" class="edge">
<title>Node3&#45;&gt;Node18</title>
<path fill="none" stroke="midnightblue" d="M1575.48,-296.37C1561.47,-318.87 1534.41,-356.08 1500,-373 1437.42,-403.77 1354.51,-402.55 1304.19,-397.94"/>
<polygon fill="midnightblue" stroke="midnightblue" points="1578.52,-298.11 1580.67,-287.73 1572.52,-294.5 1578.52,-298.11"/>
</g>
<!-- Node3&#45;&gt;Node19 -->
<g id="edge24" class="edge">
<title>Node3&#45;&gt;Node19</title>
<path fill="none" stroke="midnightblue" d="M1577.46,-259.12C1564.3,-231.84 1536.68,-181.26 1500,-150 1493.09,-144.11 1484.84,-139.15 1476.57,-135.05"/>
<polygon fill="midnightblue" stroke="midnightblue" points="1574.37,-260.78 1581.79,-268.35 1580.71,-257.81 1574.37,-260.78"/>
</g>
<!-- Node20 -->
<g id="node20" class="node">
<title>Node20</title>
<g id="a_node20"><a xlink:href="classRequestProcessor.html#a10779d8453416feeda2174859c00d082" target="_top" xlink:title=" ">
<polygon fill="white" stroke="black" points="1192.5,-184 1192.5,-214 1324.5,-214 1324.5,-184 1192.5,-184"/>
<text text-anchor="start" x="1200.5" y="-202" font-family="Helvetica,sans-Serif" font-size="10.00">RequestProcessor::handle</text>
<text text-anchor="middle" x="1258.5" y="-191" font-family="Helvetica,sans-Serif" font-size="10.00">ParseOrMethodErrors</text>
</a>
</g>
</g>
<!-- Node3&#45;&gt;Node20 -->
<g id="edge26" class="edge">
<title>Node3&#45;&gt;Node20</title>
<path fill="none" stroke="midnightblue" d="M1553.92,-264.64C1537.92,-258.35 1518.16,-251.12 1500,-246 1441.54,-229.53 1373.5,-216.82 1324.74,-208.79"/>
<polygon fill="midnightblue" stroke="midnightblue" points="1552.76,-267.95 1563.34,-268.41 1555.36,-261.45 1552.76,-267.95"/>
</g>
<!-- Node21 -->
<g id="node21" class="node">
<title>Node21</title>
<g id="a_node21"><a xlink:href="StaticPathHandler_8cpp.html#a5af8659f0f83e8296b29264dd671af0d" target="_top" xlink:title=" ">
<polygon fill="white" stroke="black" points="1386.5,-344.5 1386.5,-363.5 1481.5,-363.5 1481.5,-344.5 1386.5,-344.5"/>
<text text-anchor="middle" x="1434" y="-351.5" font-family="Helvetica,sans-Serif" font-size="10.00">handleRegularFile</text>
</a>
</g>
</g>
<!-- Node3&#45;&gt;Node21 -->
<g id="edge28" class="edge">
<title>Node3&#45;&gt;Node21</title>
<path fill="none" stroke="midnightblue" d="M1566.18,-293.65C1549.38,-306.29 1524.21,-323.75 1500,-335 1492.11,-338.67 1483.35,-341.8 1474.88,-344.4"/>
<polygon fill="midnightblue" stroke="midnightblue" points="1568.35,-296.4 1574.16,-287.54 1564.09,-290.84 1568.35,-296.4"/>
</g>
<!-- Node3&#45;&gt;Node22 -->
<g id="edge31" class="edge">
<title>Node3&#45;&gt;Node22</title>
<path fill="none" stroke="midnightblue" d="M1583.03,-297.72C1575.96,-337.92 1554.49,-429.92 1500,-482 1492.26,-489.4 1482.05,-494.55 1472.01,-498.13"/>
<polygon fill="midnightblue" stroke="midnightblue" points="1586.52,-298.06 1584.69,-287.63 1579.61,-296.93 1586.52,-298.06"/>
</g>
<!-- Node6 -->
<g id="node6" class="node">
<title>Node6</title>
<g id="a_node6"><a xlink:href="classClient.html#a419f8f3253d3f71287044e3999a5d600" target="_top" xlink:title=" ">
<polygon fill="white" stroke="black" points="852.5,-259.5 852.5,-278.5 965.5,-278.5 965.5,-259.5 852.5,-259.5"/>
<text text-anchor="middle" x="909" y="-266.5" font-family="Helvetica,sans-Serif" font-size="10.00">Client::buildResponse</text>
</a>
</g>
</g>
<!-- Node5&#45;&gt;Node6 -->
<g id="edge5" class="edge">
<title>Node5&#45;&gt;Node6</title>
<path fill="none" stroke="midnightblue" d="M1054.98,-360.79C1019.62,-338.4 954.55,-297.21 925.14,-278.59"/>
<polygon fill="midnightblue" stroke="midnightblue" points="1053.38,-363.92 1063.7,-366.32 1057.13,-358.01 1053.38,-363.92"/>
</g>
<!-- Node7 -->
<g id="node7" class="node">
<title>Node7</title>
<g id="a_node7"><a xlink:href="classClient.html#abcf615f2514ae7e0266315693e73a31a" target="_top" xlink:title=" ">
<polygon fill="white" stroke="black" points="652,-221.5 652,-240.5 807,-240.5 807,-221.5 652,-221.5"/>
<text text-anchor="middle" x="729.5" y="-228.5" font-family="Helvetica,sans-Serif" font-size="10.00">Client::handleCompleteRequest</text>
</a>
</g>
</g>
<!-- Node6&#45;&gt;Node7 -->
<g id="edge6" class="edge">
<title>Node6&#45;&gt;Node7</title>
<path fill="none" stroke="midnightblue" d="M853.1,-257.25C828,-251.87 798.66,-245.59 774.97,-240.52"/>
<polygon fill="midnightblue" stroke="midnightblue" points="852.7,-260.74 863.21,-259.41 854.16,-253.9 852.7,-260.74"/>
</g>
<!-- Node8 -->
<g id="node8" class="node">
<title>Node8</title>
<g id="a_node8"><a xlink:href="classClient.html#ac95fe5b24fe5275bd2271bd1ac37596d" target="_top" xlink:title=" ">
<polygon fill="white" stroke="black" points="336,-183.5 336,-202.5 436,-202.5 436,-183.5 336,-183.5"/>
<text text-anchor="middle" x="386" y="-190.5" font-family="Helvetica,sans-Serif" font-size="10.00">Client::handleRead</text>
</a>
</g>
</g>
<!-- Node7&#45;&gt;Node8 -->
<g id="edge7" class="edge">
<title>Node7&#45;&gt;Node8</title>
<path fill="none" stroke="midnightblue" d="M641.78,-226.17C596.7,-223.13 540.76,-218.52 491,-212 472.07,-209.52 451.36,-205.92 433.44,-202.52"/>
<polygon fill="midnightblue" stroke="midnightblue" points="641.61,-229.67 651.82,-226.83 642.07,-222.68 641.61,-229.67"/>
</g>
<!-- Node11 -->
<g id="node11" class="node">
<title>Node11</title>
<g id="a_node11"><a xlink:href="classClient.html#a950fd2ab8ac20c9be4c5e722344d6fe2" target="_top" xlink:title=" ">
<polygon fill="white" stroke="black" points="491,-183.5 491,-202.5 616,-202.5 616,-183.5 491,-183.5"/>
<text text-anchor="middle" x="553.5" y="-190.5" font-family="Helvetica,sans-Serif" font-size="10.00">Client::processRequests</text>
</a>
</g>
</g>
<!-- Node7&#45;&gt;Node11 -->
<g id="edge10" class="edge">
<title>Node7&#45;&gt;Node11</title>
<path fill="none" stroke="midnightblue" d="M674.69,-219.25C650.08,-213.87 621.31,-207.59 598.09,-202.52"/>
<polygon fill="midnightblue" stroke="midnightblue" points="674.08,-222.7 684.59,-221.41 675.57,-215.86 674.08,-222.7"/>
</g>
<!-- Node9 -->
<g id="node9" class="node">
<title>Node9</title>
<g id="a_node9"><a xlink:href="classServerManager.html#a9f3ca46da9df004286f90902b8daf29d" target="_top" xlink:title=" ">
<polygon fill="white" stroke="black" points="138,-160 138,-190 281,-190 281,-160 138,-160"/>
<text text-anchor="start" x="146" y="-178" font-family="Helvetica,sans-Serif" font-size="10.00">ServerManager::handleClient</text>
<text text-anchor="middle" x="209.5" y="-167" font-family="Helvetica,sans-Serif" font-size="10.00">Event</text>
</a>
</g>
</g>
<!-- Node8&#45;&gt;Node9 -->
<g id="edge8" class="edge">
<title>Node8&#45;&gt;Node9</title>
<path fill="none" stroke="midnightblue" d="M325.69,-186.88C311.33,-185.4 295.84,-183.8 281.02,-182.27"/>
<polygon fill="midnightblue" stroke="midnightblue" points="325.62,-190.39 335.93,-187.94 326.34,-183.43 325.62,-190.39"/>
</g>
<!-- Node10 -->
<g id="node10" class="node">
<title>Node10</title>
<g id="a_node10"><a xlink:href="classServerManager.html#aecc313c9b6afcab92c22269b3333c721" target="_top" xlink:title=" ">
<polygon fill="white" stroke="black" points="0,-108.5 0,-127.5 102,-127.5 102,-108.5 0,-108.5"/>
<text text-anchor="middle" x="51" y="-115.5" font-family="Helvetica,sans-Serif" font-size="10.00">ServerManager::run</text>
</a>
</g>
</g>
<!-- Node9&#45;&gt;Node10 -->
<g id="edge9" class="edge">
<title>Node9&#45;&gt;Node10</title>
<path fill="none" stroke="midnightblue" d="M157.49,-156.42C131.12,-146.82 100.02,-135.49 78.46,-127.64"/>
<polygon fill="midnightblue" stroke="midnightblue" points="156.38,-159.74 166.97,-159.87 158.77,-153.16 156.38,-159.74"/>
</g>
<!-- Node11&#45;&gt;Node8 -->
<g id="edge12" class="edge">
<title>Node11&#45;&gt;Node8</title>
<path fill="none" stroke="midnightblue" d="M480.56,-193C465.52,-193 449.99,-193 436.02,-193"/>
<polygon fill="midnightblue" stroke="midnightblue" points="480.87,-196.5 490.87,-193 480.87,-189.5 480.87,-196.5"/>
</g>
<!-- Node11&#45;&gt;Node12 -->
<g id="edge11" class="edge">
<title>Node11&#45;&gt;Node12</title>
<path fill="none" stroke="midnightblue" d="M500.69,-181.1C477.43,-175.76 450.35,-169.55 428.46,-164.52"/>
<polygon fill="midnightblue" stroke="midnightblue" points="500.21,-184.58 510.74,-183.41 501.77,-177.76 500.21,-184.58"/>
</g>
<!-- Node13&#45;&gt;Node14 -->
<g id="edge15" class="edge">
<title>Node13&#45;&gt;Node14</title>
<path fill="none" stroke="midnightblue" d="M1174.85,-240.19C1166.2,-239.9 1157.47,-239.6 1149.01,-239.31"/>
<polygon fill="midnightblue" stroke="midnightblue" points="1174.83,-243.69 1184.95,-240.53 1175.07,-236.7 1174.83,-243.69"/>
</g>
<!-- Node14&#45;&gt;Node6 -->
<g id="edge16" class="edge">
<title>Node14&#45;&gt;Node6</title>
<path fill="none" stroke="midnightblue" d="M1018.92,-248.38C999.75,-252.01 978.75,-255.98 960.35,-259.47"/>
<polygon fill="midnightblue" stroke="midnightblue" points="1019.58,-251.81 1028.75,-246.51 1018.28,-244.94 1019.58,-251.81"/>
</g>
<!-- Node14&#45;&gt;Node7 -->
<g id="edge17" class="edge">
<title>Node14&#45;&gt;Node7</title>
<path fill="none" stroke="midnightblue" d="M1000.79,-235.65C942.96,-234.66 864.6,-233.31 807.14,-232.32"/>
<polygon fill="midnightblue" stroke="midnightblue" points="1000.92,-239.16 1010.98,-235.83 1001.04,-232.16 1000.92,-239.16"/>
</g>
<!-- Node16 -->
<g id="node16" class="node">
<title>Node16</title>
<g id="a_node16"><a xlink:href="classServerManager.html#a9c75ea0bd268425c187ef25770eccbe8" target="_top" xlink:title=" ">
<polygon fill="white" stroke="black" points="843,-64 843,-94 975,-94 975,-64 843,-64"/>
<text text-anchor="start" x="851" y="-82" font-family="Helvetica,sans-Serif" font-size="10.00">ServerManager::handleCgi</text>
<text text-anchor="middle" x="909" y="-71" font-family="Helvetica,sans-Serif" font-size="10.00">PipeEvent</text>
</a>
</g>
</g>
<!-- Node15&#45;&gt;Node16 -->
<g id="edge19" class="edge">
<title>Node15&#45;&gt;Node16</title>
<path fill="none" stroke="midnightblue" d="M1368,-43.1C1267.57,-50.97 1075.78,-66 975.22,-73.89"/>
<polygon fill="midnightblue" stroke="midnightblue" points="1368.32,-46.58 1378.02,-42.31 1367.78,-39.6 1368.32,-46.58"/>
</g>
<!-- Node16&#45;&gt;Node10 -->
<g id="edge20" class="edge">
<title>Node16&#45;&gt;Node10</title>
<path fill="none" stroke="midnightblue" d="M832.63,-84.73C761.09,-89.66 650.54,-96 554.5,-96 554.5,-96 554.5,-96 385,-96 284.48,-96 167.25,-106.11 102.14,-112.62"/>
<polygon fill="midnightblue" stroke="midnightblue" points="833.16,-88.2 842.89,-84.01 832.67,-81.21 833.16,-88.2"/>
</g>
<!-- Node17&#45;&gt;Node18 -->
<g id="edge22" class="edge">
<title>Node17&#45;&gt;Node18</title>
<path fill="none" stroke="midnightblue" d="M1381.43,-418.71C1356.51,-413.25 1326.93,-406.77 1303.14,-401.56"/>
<polygon fill="midnightblue" stroke="midnightblue" points="1380.93,-422.18 1391.44,-420.9 1382.42,-415.34 1380.93,-422.18"/>
</g>
<!-- Node18&#45;&gt;Node14 -->
<g id="edge23" class="edge">
<title>Node18&#45;&gt;Node14</title>
<path fill="none" stroke="midnightblue" d="M1238.93,-375.7C1202.25,-343.48 1121.5,-272.57 1092.04,-246.69"/>
<polygon fill="midnightblue" stroke="midnightblue" points="1236.64,-378.34 1246.46,-382.3 1241.25,-373.08 1236.64,-378.34"/>
</g>
<!-- Node19&#45;&gt;Node14 -->
<g id="edge25" class="edge">
<title>Node19&#45;&gt;Node14</title>
<path fill="none" stroke="midnightblue" d="M1357.75,-130.27C1307.6,-138.66 1240.89,-152.81 1185,-175 1150.03,-188.88 1113.12,-213.66 1094.07,-227.32"/>
<polygon fill="midnightblue" stroke="midnightblue" points="1358.56,-133.68 1367.87,-128.62 1357.44,-126.78 1358.56,-133.68"/>
</g>
<!-- Node20&#45;&gt;Node14 -->
<g id="edge27" class="edge">
<title>Node20&#45;&gt;Node14</title>
<path fill="none" stroke="midnightblue" d="M1182.5,-215.15C1163.02,-219.34 1142.66,-223.72 1125.33,-227.46"/>
<polygon fill="midnightblue" stroke="midnightblue" points="1183.24,-218.57 1192.28,-213.04 1181.77,-211.73 1183.24,-218.57"/>
</g>
<!-- Node21&#45;&gt;Node18 -->
<g id="edge29" class="edge">
<title>Node21&#45;&gt;Node18</title>
<path fill="none" stroke="midnightblue" d="M1379.34,-365.75C1354.81,-371.13 1326.12,-377.41 1302.97,-382.48"/>
<polygon fill="midnightblue" stroke="midnightblue" points="1380.2,-369.15 1389.22,-363.59 1378.7,-362.31 1380.2,-369.15"/>
</g>
<!-- Node22&#45;&gt;Node18 -->
<g id="edge32" class="edge">
<title>Node22&#45;&gt;Node18</title>
<path fill="none" stroke="midnightblue" d="M1410.07,-490.93C1373.91,-467.17 1304.63,-421.66 1274.32,-401.74"/>
<polygon fill="midnightblue" stroke="midnightblue" points="1408.23,-493.91 1418.51,-496.48 1412.07,-488.06 1408.23,-493.91"/>
</g>
</g>
</svg>
