<?xml version="1.0" encoding="UTF-8" standalone="no"?>
<!DOCTYPE svg PUBLIC "-//W3C//DTD SVG 1.1//EN"
 "http://www.w3.org/Graphics/SVG/1.1/DTD/svg11.dtd">
<!-- Generated by graphviz version 2.43.0 (0)
 -->
<!-- Title: Client::~Client Pages: 1 -->
<svg width="434pt" height="230pt"
 viewBox="0.00 0.00 434.00 229.50" xmlns="http://www.w3.org/2000/svg" xmlns:xlink="http://www.w3.org/1999/xlink">
<g id="graph0" class="graph" transform="scale(1 1) rotate(0) translate(4 225.5)">
<title>Client::~Client</title>
<polygon fill="white" stroke="transparent" points="-4,4 -4,-225.5 430,-225.5 430,4 -4,4"/>
<!-- Node1 -->
<g id="node1" class="node">
<title>Node1</title>
<g id="a_node1"><a xlink:title=" ">
<polygon fill="#bfbfbf" stroke="black" points="0,-107 0,-126 80,-126 80,-107 0,-107"/>
<text text-anchor="middle" x="40" y="-114" font-family="Helvetica,sans-Serif" font-size="10.00">Client::~Client</text>
</a>
</g>
</g>
<!-- Node2 -->
<g id="node2" class="node">
<title>Node2</title>
<g id="a_node2"><a xlink:href="classCgiProcess.html#add9aed231ffcbe29556d82f6e5c0b097" target="_top" xlink:title=" ">
<polygon fill="white" stroke="black" points="128.5,-202 128.5,-221 253.5,-221 253.5,-202 128.5,-202"/>
<text text-anchor="middle" x="191" y="-209" font-family="Helvetica,sans-Serif" font-size="10.00">CgiProcess::closePipeIn</text>
</a>
</g>
</g>
<!-- Node1&#45;&gt;Node2 -->
<g id="edge1" class="edge">
<title>Node1&#45;&gt;Node2</title>
<path fill="none" stroke="midnightblue" d="M47.67,-126.06C59.5,-142.29 85.79,-175.13 116,-192.5 119.92,-194.75 124.11,-196.75 128.43,-198.5"/>
<polygon fill="midnightblue" stroke="midnightblue" points="127.44,-201.87 138.03,-201.99 129.83,-195.29 127.44,-201.87"/>
</g>
<!-- Node3 -->
<g id="node3" class="node">
<title>Node3</title>
<g id="a_node3"><a xlink:href="classCgiProcess.html#a496d052cdbc077e1b3e5877272180204" target="_top" xlink:title=" ">
<polygon fill="white" stroke="black" points="125,-164 125,-183 257,-183 257,-164 125,-164"/>
<text text-anchor="middle" x="191" y="-171" font-family="Helvetica,sans-Serif" font-size="10.00">CgiProcess::closePipeOut</text>
</a>
</g>
</g>
<!-- Node1&#45;&gt;Node3 -->
<g id="edge2" class="edge">
<title>Node1&#45;&gt;Node3</title>
<path fill="none" stroke="midnightblue" d="M57.21,-126.02C72.1,-134.44 94.96,-146.58 116,-154.5 122.42,-156.92 129.27,-159.14 136.11,-161.13"/>
<polygon fill="midnightblue" stroke="midnightblue" points="135.5,-164.6 146.08,-163.9 137.38,-157.85 135.5,-164.6"/>
</g>
<!-- Node4 -->
<g id="node4" class="node">
<title>Node4</title>
<g id="a_node4"><a xlink:href="classCgiProcess.html#a9716e52b70fda0486a075305bfae19a6" target="_top" xlink:title=" ">
<polygon fill="white" stroke="black" points="133.5,-126 133.5,-145 248.5,-145 248.5,-126 133.5,-126"/>
<text text-anchor="middle" x="191" y="-133" font-family="Helvetica,sans-Serif" font-size="10.00">CgiProcess::getPipeIn</text>
</a>
</g>
</g>
<!-- Node1&#45;&gt;Node4 -->
<g id="edge3" class="edge">
<title>Node1&#45;&gt;Node4</title>
<path fill="none" stroke="midnightblue" d="M80.15,-121.49C93.39,-123.18 108.57,-125.12 123.33,-127"/>
<polygon fill="midnightblue" stroke="midnightblue" points="123.1,-130.5 133.46,-128.29 123.98,-123.55 123.1,-130.5"/>
</g>
<!-- Node5 -->
<g id="node5" class="node">
<title>Node5</title>
<g id="a_node5"><a xlink:href="classCgiProcess.html#ad9430b4680f7ad7316f6df7710e06b3f" target="_top" xlink:title=" ">
<polygon fill="white" stroke="black" points="130,-88 130,-107 252,-107 252,-88 130,-88"/>
<text text-anchor="middle" x="191" y="-95" font-family="Helvetica,sans-Serif" font-size="10.00">CgiProcess::getPipeOut</text>
</a>
</g>
</g>
<!-- Node1&#45;&gt;Node5 -->
<g id="edge4" class="edge">
<title>Node1&#45;&gt;Node5</title>
<path fill="none" stroke="midnightblue" d="M80.15,-111.51C92.24,-109.97 105.95,-108.22 119.49,-106.49"/>
<polygon fill="midnightblue" stroke="midnightblue" points="120.29,-109.92 129.77,-105.18 119.41,-102.97 120.29,-109.92"/>
</g>
<!-- Node6 -->
<g id="node6" class="node">
<title>Node6</title>
<g id="a_node6"><a xlink:href="classCgiProcess.html#a8d41414d3d54ae98dff14aaa78a3a2fc" target="_top" xlink:title=" ">
<polygon fill="white" stroke="black" points="116,-50 116,-69 266,-69 266,-50 116,-50"/>
<text text-anchor="middle" x="191" y="-57" font-family="Helvetica,sans-Serif" font-size="10.00">CgiProcess::terminateProcess</text>
</a>
</g>
</g>
<!-- Node1&#45;&gt;Node6 -->
<g id="edge5" class="edge">
<title>Node1&#45;&gt;Node6</title>
<path fill="none" stroke="midnightblue" d="M57.21,-106.98C72.1,-98.56 94.96,-86.42 116,-78.5 122.42,-76.08 129.27,-73.86 136.11,-71.87"/>
<polygon fill="midnightblue" stroke="midnightblue" points="137.38,-75.15 146.08,-69.1 135.5,-68.4 137.38,-75.15"/>
</g>
<!-- Node7 -->
<g id="node7" class="node">
<title>Node7</title>
<g id="a_node7"><a xlink:href="classServerManager.html#aa0099c81bdb4ab1dcca775720d31c920" target="_top" xlink:title=" ">
<polygon fill="white" stroke="black" points="125.5,-0.5 125.5,-30.5 256.5,-30.5 256.5,-0.5 125.5,-0.5"/>
<text text-anchor="start" x="133.5" y="-18.5" font-family="Helvetica,sans-Serif" font-size="10.00">ServerManager::unregister</text>
<text text-anchor="middle" x="191" y="-7.5" font-family="Helvetica,sans-Serif" font-size="10.00">CgiPipe</text>
</a>
</g>
</g>
<!-- Node1&#45;&gt;Node7 -->
<g id="edge6" class="edge">
<title>Node1&#45;&gt;Node7</title>
<path fill="none" stroke="midnightblue" d="M48,-106.92C60.14,-90.96 86.61,-58.88 116,-40.5 119.33,-38.42 122.86,-36.48 126.49,-34.69"/>
<polygon fill="midnightblue" stroke="midnightblue" points="128.02,-37.84 135.7,-30.54 125.14,-31.46 128.02,-37.84"/>
</g>
<!-- Node8 -->
<g id="node8" class="node">
<title>Node8</title>
<g id="a_node8"><a xlink:href="classEpollWrapper.html#a9f0b3f139a516df121fa05a910ae0c06" target="_top" xlink:title=" ">
<polygon fill="white" stroke="black" points="302,-6 302,-25 426,-25 426,-6 302,-6"/>
<text text-anchor="middle" x="364" y="-13" font-family="Helvetica,sans-Serif" font-size="10.00">EpollWrapper::removeFd</text>
</a>
</g>
</g>
<!-- Node7&#45;&gt;Node8 -->
<g id="edge7" class="edge">
<title>Node7&#45;&gt;Node8</title>
<path fill="none" stroke="midnightblue" d="M256.65,-15.5C268.13,-15.5 280.15,-15.5 291.81,-15.5"/>
<polygon fill="midnightblue" stroke="midnightblue" points="291.93,-19 301.93,-15.5 291.93,-12 291.93,-19"/>
</g>
</g>
</svg>
