<?xml version="1.0" encoding="UTF-8" standalone="no"?>
<!DOCTYPE svg PUBLIC "-//W3C//DTD SVG 1.1//EN"
 "http://www.w3.org/Graphics/SVG/1.1/DTD/svg11.dtd">
<!-- Generated by graphviz version 2.43.0 (0)
 -->
<!-- Title: ConfigParser Pages: 1 -->
<!--zoomable 579 -->
<svg id="main" version="1.1" xmlns="http://www.w3.org/2000/svg" xmlns:xlink="http://www.w3.org/1999/xlink" xml:space="preserve" onload="init(evt)">
<style type="text/css"><![CDATA[
.edge:hover path { stroke: red; }
.edge:hover polygon { stroke: red; fill: red; }
]]></style>
<script type="text/javascript"><![CDATA[
var edges = document.getElementsByTagName('g');
if (edges && edges.length) {
  for (var i=0;i<edges.length;i++) {
    if (edges[i].id.substr(0,4)=='edge') {
      edges[i].setAttribute('class','edge');
    }
  }
}
]]></script>
        <defs>
                <circle id="rim" cx="0" cy="0" r="7"/>
                <circle id="rim2" cx="0" cy="0" r="3.5"/>
                <g id="zoomPlus">
                        <use xlink:href="#rim" fill="#404040">
                                <set attributeName="fill" to="#808080" begin="zoomplus.mouseover" end="zoomplus.mouseout"/>
                        </use>
                        <path d="M-4,0h8M0,-4v8" fill="none" stroke="white" stroke-width="1.5" pointer-events="none"/>
                </g>
                <g id="zoomMin">
                        <use xlink:href="#rim" fill="#404040">
                                <set attributeName="fill" to="#808080" begin="zoomminus.mouseover" end="zoomminus.mouseout"/>
                        </use>
                        <path d="M-4,0h8" fill="none" stroke="white" stroke-width="1.5" pointer-events="none"/>
                </g>
                <g id="dirArrow">
                        <path fill="none" stroke="white" stroke-width="1.5" d="M0,-3.0v7 M-2.5,-0.5L0,-3.0L2.5,-0.5"/>
                </g>
               <g id="resetDef">
                       <use xlink:href="#rim2" fill="#404040">
                               <set attributeName="fill" to="#808080" begin="reset.mouseover" end="reset.mouseout"/>
                       </use>
               </g>
        </defs>

<script type="text/javascript">
var viewWidth = 657;
var viewHeight = 579;
var sectionId = 'dynsection-0';
</script>
<script xlink:href="svgpan.js"/>
<svg id="graph" class="graph">
<g id="viewport">
<title>ConfigParser</title>
<polygon fill="white" stroke="transparent" points="-4,4 -4,-575 653,-575 653,4 -4,4"/>
<!-- Node1 -->
<g id="node1" class="node">
<title>Node1</title>
<g id="a_node1"><a xlink:title="Parses a nginx&#45;like configuration file and builds ServerConfig objects.">
<polygon fill="#bfbfbf" stroke="black" points="337,-0.5 337,-19.5 411,-19.5 411,-0.5 337,-0.5"/>
<text text-anchor="middle" x="374" y="-7.5" font-family="Helvetica,sans-Serif" font-size="10.00">ConfigParser</text>
</a>
</g>
</g>
<!-- Node2 -->
<g id="node2" class="node">
<title>Node2</title>
<g id="a_node2"><a xlink:title=" ">
<polygon fill="white" stroke="#bfbfbf" points="208,-67.5 208,-86.5 346,-86.5 346,-67.5 208,-67.5"/>
<text text-anchor="middle" x="277" y="-74.5" font-family="Helvetica,sans-Serif" font-size="10.00">std::vector&lt; ServerConfig &gt;</text>
</a>
</g>
</g>
<!-- Node2&#45;&gt;Node1 -->
<g id="edge1" class="edge">
<title>Node2&#45;&gt;Node1</title>
<path fill="none" stroke="#9a32cd" stroke-dasharray="5,2" d="M292.47,-60.09C300.05,-52.81 309.56,-44.4 319,-38 329.65,-30.78 342.52,-24.35 353.13,-19.58"/>
<polygon fill="#9a32cd" stroke="#9a32cd" points="289.74,-57.86 285.1,-67.39 294.67,-62.84 289.74,-57.86"/>
<text text-anchor="middle" x="339.5" y="-41" font-family="Helvetica,sans-Serif" font-size="10.00"> servers_</text>
</g>
<!-- Node3 -->
<g id="node3" class="node">
<title>Node3</title>
<g id="a_node3"><a xlink:href="classServerConfig.html" target="_top" xlink:title="Configuration of one server { } block Represents a virtual server (nginx&#45;like style).">
<polygon fill="white" stroke="black" points="240,-134.5 240,-153.5 314,-153.5 314,-134.5 240,-134.5"/>
<text text-anchor="middle" x="277" y="-141.5" font-family="Helvetica,sans-Serif" font-size="10.00">ServerConfig</text>
</a>
</g>
</g>
<!-- Node3&#45;&gt;Node2 -->
<g id="edge2" class="edge">
<title>Node3&#45;&gt;Node2</title>
<path fill="none" stroke="#9a32cd" stroke-dasharray="5,2" d="M277,-124.04C277,-111.67 277,-96.12 277,-86.63"/>
<polygon fill="#9a32cd" stroke="#9a32cd" points="273.5,-124.23 277,-134.23 280.5,-124.23 273.5,-124.23"/>
<text text-anchor="middle" x="298.5" y="-108" font-family="Helvetica,sans-Serif" font-size="10.00"> elements</text>
</g>
<!-- Node4 -->
<g id="node4" class="node">
<title>Node4</title>
<g id="a_node4"><a xlink:title=" ">
<polygon fill="white" stroke="#bfbfbf" points="142,-202.5 142,-221.5 288,-221.5 288,-202.5 142,-202.5"/>
<text text-anchor="middle" x="215" y="-209.5" font-family="Helvetica,sans-Serif" font-size="10.00">std::vector&lt; LocationConfig &gt;</text>
</a>
</g>
</g>
<!-- Node4&#45;&gt;Node3 -->
<g id="edge3" class="edge">
<title>Node4&#45;&gt;Node3</title>
<path fill="none" stroke="#9a32cd" stroke-dasharray="5,2" d="M229.99,-195.05C242.14,-182.11 258.82,-164.36 268.69,-153.84"/>
<polygon fill="#9a32cd" stroke="#9a32cd" points="227.4,-192.69 223.11,-202.37 232.5,-197.48 227.4,-192.69"/>
<text text-anchor="middle" x="276" y="-175" font-family="Helvetica,sans-Serif" font-size="10.00"> locations_</text>
</g>
<!-- Node5 -->
<g id="node5" class="node">
<title>Node5</title>
<g id="a_node5"><a xlink:href="classLocationConfig.html" target="_top" xlink:title="Represents the configuration for a specific location within a server block.">
<polygon fill="white" stroke="black" points="174,-282.5 174,-301.5 256,-301.5 256,-282.5 174,-282.5"/>
<text text-anchor="middle" x="215" y="-289.5" font-family="Helvetica,sans-Serif" font-size="10.00">LocationConfig</text>
</a>
</g>
</g>
<!-- Node5&#45;&gt;Node4 -->
<g id="edge4" class="edge">
<title>Node5&#45;&gt;Node4</title>
<path fill="none" stroke="#9a32cd" stroke-dasharray="5,2" d="M215,-272.07C215,-256.14 215,-234.08 215,-221.92"/>
<polygon fill="#9a32cd" stroke="#9a32cd" points="211.5,-272.35 215,-282.35 218.5,-272.35 211.5,-272.35"/>
<text text-anchor="middle" x="236.5" y="-244" font-family="Helvetica,sans-Serif" font-size="10.00"> elements</text>
</g>
<!-- Node6 -->
<g id="node6" class="node">
<title>Node6</title>
<g id="a_node6"><a xlink:title=" ">
<polygon fill="white" stroke="#bfbfbf" points="69,-388 69,-418 179,-418 179,-388 69,-388"/>
<text text-anchor="start" x="77" y="-406" font-family="Helvetica,sans-Serif" font-size="10.00">std::map&lt; std::string,</text>
<text text-anchor="middle" x="124" y="-395" font-family="Helvetica,sans-Serif" font-size="10.00"> std::string &gt;</text>
</a>
</g>
</g>
<!-- Node6&#45;&gt;Node5 -->
<g id="edge5" class="edge">
<title>Node6&#45;&gt;Node5</title>
<path fill="none" stroke="#9a32cd" stroke-dasharray="5,2" d="M123.3,-377.64C124.06,-363.1 127.22,-344.98 137,-332 148.2,-317.12 166.65,-307.54 182.79,-301.6"/>
<polygon fill="#9a32cd" stroke="#9a32cd" points="119.79,-377.87 123.11,-387.93 126.79,-377.99 119.79,-377.87"/>
<text text-anchor="middle" x="169" y="-345" font-family="Helvetica,sans-Serif" font-size="10.00"> cgi_handlers_</text>
</g>
<!-- Node7 -->
<g id="node7" class="node">
<title>Node7</title>
<g id="a_node7"><a xlink:title=" ">
<polygon fill="white" stroke="#bfbfbf" points="256,-483.5 256,-502.5 316,-502.5 316,-483.5 256,-483.5"/>
<text text-anchor="middle" x="286" y="-490.5" font-family="Helvetica,sans-Serif" font-size="10.00">std::string</text>
</a>
</g>
</g>
<!-- Node7&#45;&gt;Node1 -->
<g id="edge15" class="edge">
<title>Node7&#45;&gt;Node1</title>
<path fill="none" stroke="#9a32cd" stroke-dasharray="5,2" d="M326.24,-488.23C405.68,-479.67 575,-455.39 575,-404 575,-404 575,-404 575,-76 575,-41.98 469.46,-23.14 411.34,-15.33"/>
<polygon fill="#9a32cd" stroke="#9a32cd" points="325.69,-484.77 316.11,-489.29 326.42,-491.73 325.69,-484.77"/>
<text text-anchor="middle" x="612" y="-215" font-family="Helvetica,sans-Serif" font-size="10.00"> clean_file_str_</text>
<text text-anchor="middle" x="612" y="-204" font-family="Helvetica,sans-Serif" font-size="10.00">config_file_path_</text>
</g>
<!-- Node7&#45;&gt;Node3 -->
<g id="edge11" class="edge">
<title>Node7&#45;&gt;Node3</title>
<path fill="none" stroke="#9a32cd" stroke-dasharray="5,2" d="M326.43,-490.99C383.29,-487.17 480,-470.85 480,-404 480,-404 480,-404 480,-211 480,-192.58 480.27,-183.64 466,-172 443.39,-153.57 362.54,-147.72 314.21,-145.86"/>
<polygon fill="#9a32cd" stroke="#9a32cd" points="326.1,-487.5 316.31,-491.56 326.5,-494.49 326.1,-487.5"/>
<text text-anchor="middle" x="513.5" y="-306" font-family="Helvetica,sans-Serif" font-size="10.00"> host_address_</text>
<text text-anchor="middle" x="513.5" y="-295" font-family="Helvetica,sans-Serif" font-size="10.00">redirect_url_</text>
<text text-anchor="middle" x="513.5" y="-284" font-family="Helvetica,sans-Serif" font-size="10.00">root_</text>
<text text-anchor="middle" x="513.5" y="-273" font-family="Helvetica,sans-Serif" font-size="10.00">server_name_</text>
</g>
<!-- Node7&#45;&gt;Node5 -->
<g id="edge8" class="edge">
<title>Node7&#45;&gt;Node5</title>
<path fill="none" stroke="#9a32cd" stroke-dasharray="5,2" d="M266.16,-476.94C251.69,-464.69 233.08,-446.04 224,-425 205.43,-381.98 210.74,-323.7 213.67,-301.8"/>
<polygon fill="#9a32cd" stroke="#9a32cd" points="264.13,-479.8 274.1,-483.38 268.54,-474.36 264.13,-479.8"/>
<text text-anchor="middle" x="254.5" y="-417" font-family="Helvetica,sans-Serif" font-size="10.00"> path_</text>
<text text-anchor="middle" x="254.5" y="-406" font-family="Helvetica,sans-Serif" font-size="10.00">redirect_url_</text>
<text text-anchor="middle" x="254.5" y="-395" font-family="Helvetica,sans-Serif" font-size="10.00">root_</text>
<text text-anchor="middle" x="254.5" y="-384" font-family="Helvetica,sans-Serif" font-size="10.00">upload_store_</text>
</g>
<!-- Node7&#45;&gt;Node6 -->
<g id="edge6" class="edge">
<title>Node7&#45;&gt;Node6</title>
<path fill="none" stroke="#9a32cd" stroke-dasharray="5,2" d="M245.66,-491.94C218.54,-490 183.26,-483.62 158,-465 142.29,-453.42 132.89,-432.28 128.08,-418.18"/>
<polygon fill="#9a32cd" stroke="#9a32cd" points="245.82,-495.45 255.99,-492.49 246.19,-488.46 245.82,-495.45"/>
<text text-anchor="middle" x="179.5" y="-457" font-family="Helvetica,sans-Serif" font-size="10.00"> elements</text>
<text text-anchor="middle" x="179.5" y="-446" font-family="Helvetica,sans-Serif" font-size="10.00">keys</text>
</g>
<!-- Node9 -->
<g id="node9" class="node">
<title>Node9</title>
<g id="a_node9"><a xlink:title=" ">
<polygon fill="white" stroke="#bfbfbf" points="294.5,-393.5 294.5,-412.5 419.5,-412.5 419.5,-393.5 294.5,-393.5"/>
<text text-anchor="middle" x="357" y="-400.5" font-family="Helvetica,sans-Serif" font-size="10.00">std::vector&lt; std::string &gt;</text>
</a>
</g>
</g>
<!-- Node7&#45;&gt;Node9 -->
<g id="edge10" class="edge">
<title>Node7&#45;&gt;Node9</title>
<path fill="none" stroke="#9a32cd" stroke-dasharray="5,2" d="M299.47,-475.31C314.5,-456.68 338.23,-427.26 349.96,-412.72"/>
<polygon fill="#9a32cd" stroke="#9a32cd" points="296.62,-473.26 293.07,-483.24 302.07,-477.66 296.62,-473.26"/>
<text text-anchor="middle" x="345.5" y="-451.5" font-family="Helvetica,sans-Serif" font-size="10.00"> elements</text>
</g>
<!-- Node10 -->
<g id="node10" class="node">
<title>Node10</title>
<g id="a_node10"><a xlink:title=" ">
<polygon fill="white" stroke="#bfbfbf" points="0,-332.5 0,-362.5 94,-362.5 94,-332.5 0,-332.5"/>
<text text-anchor="start" x="8" y="-350.5" font-family="Helvetica,sans-Serif" font-size="10.00">std::map&lt; int, std</text>
<text text-anchor="middle" x="47" y="-339.5" font-family="Helvetica,sans-Serif" font-size="10.00">::string &gt;</text>
</a>
</g>
</g>
<!-- Node7&#45;&gt;Node10 -->
<g id="edge13" class="edge">
<title>Node7&#45;&gt;Node10</title>
<path fill="none" stroke="#9a32cd" stroke-dasharray="5,2" d="M245.4,-489.77C196.69,-486.5 118.38,-479.19 93,-465 72.89,-453.75 69.59,-445.96 60,-425 50.7,-404.66 47.99,-378.54 47.24,-362.68"/>
<polygon fill="#9a32cd" stroke="#9a32cd" points="245.41,-493.28 255.62,-490.42 245.86,-486.29 245.41,-493.28"/>
<text text-anchor="middle" x="114.5" y="-451.5" font-family="Helvetica,sans-Serif" font-size="10.00"> elements</text>
</g>
<!-- Node8 -->
<g id="node8" class="node">
<title>Node8</title>
<g id="a_node8"><a xlink:title=" ">
<polygon fill="white" stroke="#bfbfbf" points="238.5,-540.5 238.5,-570.5 333.5,-570.5 333.5,-540.5 238.5,-540.5"/>
<text text-anchor="start" x="246.5" y="-558.5" font-family="Helvetica,sans-Serif" font-size="10.00">std::basic_string&lt;</text>
<text text-anchor="middle" x="286" y="-547.5" font-family="Helvetica,sans-Serif" font-size="10.00"> Char &gt;</text>
</a>
</g>
</g>
<!-- Node8&#45;&gt;Node7 -->
<g id="edge7" class="edge">
<title>Node8&#45;&gt;Node7</title>
<path fill="none" stroke="midnightblue" d="M286,-530.35C286,-520.51 286,-509.78 286,-502.54"/>
<polygon fill="midnightblue" stroke="midnightblue" points="282.5,-530.47 286,-540.47 289.5,-530.47 282.5,-530.47"/>
</g>
<!-- Node9&#45;&gt;Node1 -->
<g id="edge16" class="edge">
<title>Node9&#45;&gt;Node1</title>
<path fill="none" stroke="#9a32cd" stroke-dasharray="5,2" d="M361.67,-383.53C366.7,-361.96 374,-325.13 374,-293 374,-293 374,-293 374,-76 374,-55.91 374,-32.33 374,-19.83"/>
<polygon fill="#9a32cd" stroke="#9a32cd" points="358.25,-382.77 359.29,-393.31 365.05,-384.42 358.25,-382.77"/>
<text text-anchor="middle" x="419.5" y="-175" font-family="Helvetica,sans-Serif" font-size="10.00"> raw_server_blocks_</text>
</g>
<!-- Node9&#45;&gt;Node3 -->
<g id="edge14" class="edge">
<title>Node9&#45;&gt;Node3</title>
<path fill="none" stroke="#9a32cd" stroke-dasharray="5,2" d="M351.61,-383.57C343.46,-355.39 327.84,-299.8 317,-252 309,-216.72 318.26,-204.32 302,-172 298.5,-165.04 292.66,-158.58 287.5,-153.73"/>
<polygon fill="#9a32cd" stroke="#9a32cd" points="348.27,-384.64 354.42,-393.27 354.99,-382.69 348.27,-384.64"/>
<text text-anchor="middle" x="338.5" y="-244" font-family="Helvetica,sans-Serif" font-size="10.00"> indexes_</text>
</g>
<!-- Node9&#45;&gt;Node5 -->
<g id="edge9" class="edge">
<title>Node9&#45;&gt;Node5</title>
<path fill="none" stroke="#9a32cd" stroke-dasharray="5,2" d="M315.77,-390.62C289.76,-382.8 259.22,-372.19 249,-363 230.12,-346.01 220.63,-316.22 216.93,-301.6"/>
<polygon fill="#9a32cd" stroke="#9a32cd" points="314.88,-394.01 325.46,-393.48 316.86,-387.3 314.88,-394.01"/>
<text text-anchor="middle" x="291.5" y="-350.5" font-family="Helvetica,sans-Serif" font-size="10.00"> allowed_methods_</text>
<text text-anchor="middle" x="291.5" y="-339.5" font-family="Helvetica,sans-Serif" font-size="10.00">indexes_</text>
</g>
<!-- Node10&#45;&gt;Node3 -->
<g id="edge12" class="edge">
<title>Node10&#45;&gt;Node3</title>
<path fill="none" stroke="#9a32cd" stroke-dasharray="5,2" d="M55.23,-323.01C67.49,-291.21 93.44,-234.59 133,-201 163.88,-174.78 208.43,-160.01 239.78,-152.3"/>
<polygon fill="#9a32cd" stroke="#9a32cd" points="51.95,-321.81 51.73,-332.4 58.5,-324.25 51.95,-321.81"/>
<text text-anchor="middle" x="128" y="-244" font-family="Helvetica,sans-Serif" font-size="10.00"> error_pages_</text>
</g>
</g>
</svg>
        <g id="navigator" transform="translate(0 0)" fill="#404254">
                <rect fill="#f2f5e9" fill-opacity="0.5" stroke="#606060" stroke-width=".5" x="0" y="0" width="60" height="60"/>
                <use id="zoomplus" xlink:href="#zoomPlus" x="17" y="9" onmousedown="handleZoom(evt,'in')"/>
                <use id="zoomminus" xlink:href="#zoomMin" x="42" y="9" onmousedown="handleZoom(evt,'out')"/>
                <use id="reset" xlink:href="#resetDef" x="30" y="36" onmousedown="handleReset()"/>
                <g id="arrowUp" xlink:href="#dirArrow" transform="translate(30 24)" onmousedown="handlePan(0,-1)">
                  <use xlink:href="#rim" fill="#404040">
                        <set attributeName="fill" to="#808080" begin="arrowUp.mouseover" end="arrowUp.mouseout"/>
                  </use>
                  <path fill="none" stroke="white" stroke-width="1.5" d="M0,-3.0v7 M-2.5,-0.5L0,-3.0L2.5,-0.5"/>
                </g>
                <g id="arrowRight" xlink:href="#dirArrow" transform="rotate(90) translate(36 -43)" onmousedown="handlePan(1,0)">
                  <use xlink:href="#rim" fill="#404040">
                        <set attributeName="fill" to="#808080" begin="arrowRight.mouseover" end="arrowRight.mouseout"/>
                  </use>
                  <path fill="none" stroke="white" stroke-width="1.5" d="M0,-3.0v7 M-2.5,-0.5L0,-3.0L2.5,-0.5"/>
                </g>
                <g id="arrowDown" xlink:href="#dirArrow" transform="rotate(180) translate(-30 -48)" onmousedown="handlePan(0,1)">
                  <use xlink:href="#rim" fill="#404040">
                        <set attributeName="fill" to="#808080" begin="arrowDown.mouseover" end="arrowDown.mouseout"/>
                  </use>
                  <path fill="none" stroke="white" stroke-width="1.5" d="M0,-3.0v7 M-2.5,-0.5L0,-3.0L2.5,-0.5"/>
                </g>
                <g id="arrowLeft" xlink:href="#dirArrow" transform="rotate(270) translate(-36 17)" onmousedown="handlePan(-1,0)">
                  <use xlink:href="#rim" fill="#404040">
                        <set attributeName="fill" to="#808080" begin="arrowLeft.mouseover" end="arrowLeft.mouseout"/>
                  </use>
                  <path fill="none" stroke="white" stroke-width="1.5" d="M0,-3.0v7 M-2.5,-0.5L0,-3.0L2.5,-0.5"/>
                </g>
        </g>
        <svg viewBox="0 0 15 15" width="100%" height="30px" preserveAspectRatio="xMaxYMin meet">
         <g id="arrow_out" transform="scale(0.3 0.3)">
          <a xlink:href="classConfigParser__coll__graph_org.svg" target="_base">
           <rect id="button" ry="5" rx="5" y="6" x="6" height="38" width="38"
                fill="#f2f5e9" fill-opacity="0.5" stroke="#606060" stroke-width="1.0"/>
           <path id="arrow"
             d="M 11.500037,31.436501 C 11.940474,20.09759 22.043105,11.32322 32.158766,21.979434 L 37.068811,17.246167 C 37.068811,17.246167 37.088388,32 37.088388,32 L 22.160133,31.978069 C 22.160133,31.978069 26.997745,27.140456 26.997745,27.140456 C 18.528582,18.264221 13.291696,25.230495 11.500037,31.436501 z"
             style="fill:#404040;"/>
          </a>
         </g>
        </svg>
</svg>
