<?xml version="1.0" encoding="UTF-8" standalone="no"?>
<!DOCTYPE svg PUBLIC "-//W3C//DTD SVG 1.1//EN"
 "http://www.w3.org/Graphics/SVG/1.1/DTD/svg11.dtd">
<!-- Generated by graphviz version 2.43.0 (0)
 -->
<!-- Title: HttpRequest::getHeader Pages: 1 -->
<svg width="2192pt" height="676pt"
 viewBox="0.00 0.00 2192.00 676.00" xmlns="http://www.w3.org/2000/svg" xmlns:xlink="http://www.w3.org/1999/xlink">
<g id="graph0" class="graph" transform="scale(1 1) rotate(0) translate(4 672)">
<title>HttpRequest::getHeader</title>
<polygon fill="white" stroke="transparent" points="-4,4 -4,-672 2188,-672 2188,4 -4,4"/>
<!-- Node1 -->
<g id="node1" class="node">
<title>Node1</title>
<g id="a_node1"><a xlink:title="Obtiene un header específico de la petición.">
<polygon fill="#bfbfbf" stroke="black" points="2061,-477.5 2061,-496.5 2184,-496.5 2184,-477.5 2061,-477.5"/>
<text text-anchor="middle" x="2122.5" y="-484.5" font-family="Helvetica,sans-Serif" font-size="10.00">HttpRequest::getHeader</text>
</a>
</g>
</g>
<!-- Node2 -->
<g id="node2" class="node">
<title>Node2</title>
<g id="a_node2"><a xlink:href="SessionUtils_8cpp.html#aabfd66406b8a4aec4237b26ff8e76a65" target="_top" xlink:title=" ">
<polygon fill="white" stroke="black" points="1874,-477.5 1874,-496.5 2012,-496.5 2012,-477.5 1874,-477.5"/>
<text text-anchor="middle" x="1943" y="-484.5" font-family="Helvetica,sans-Serif" font-size="10.00">addSessionCookieIfNeeded</text>
</a>
</g>
</g>
<!-- Node1&#45;&gt;Node2 -->
<g id="edge1" class="edge">
<title>Node1&#45;&gt;Node2</title>
<path fill="none" stroke="midnightblue" d="M2050.84,-487C2038.13,-487 2024.89,-487 2012.24,-487"/>
<polygon fill="midnightblue" stroke="midnightblue" points="2050.91,-490.5 2060.91,-487 2050.91,-483.5 2050.91,-490.5"/>
</g>
<!-- Node24 -->
<g id="node24" class="node">
<title>Node24</title>
<g id="a_node24"><a xlink:href="classHttpRequest.html#a993c580bdbf75d3ede4d56594a90ee4a" target="_top" xlink:title=" ">
<polygon fill="white" stroke="black" points="1873,-587 1873,-617 2013,-617 2013,-587 1873,-587"/>
<text text-anchor="start" x="1881" y="-605" font-family="Helvetica,sans-Serif" font-size="10.00">HttpRequest::hasExpect100</text>
<text text-anchor="middle" x="1943" y="-594" font-family="Helvetica,sans-Serif" font-size="10.00">Continue</text>
</a>
</g>
</g>
<!-- Node1&#45;&gt;Node24 -->
<g id="edge38" class="edge">
<title>Node1&#45;&gt;Node24</title>
<path fill="none" stroke="midnightblue" d="M2102.57,-503.22C2083.64,-519 2053.36,-543.16 2025,-561 2009.79,-570.57 1992.06,-579.74 1977.08,-586.98"/>
<polygon fill="midnightblue" stroke="midnightblue" points="2105.02,-505.72 2110.41,-496.6 2100.51,-500.37 2105.02,-505.72"/>
</g>
<!-- Node26 -->
<g id="node26" class="node">
<title>Node26</title>
<g id="a_node26"><a xlink:href="classCgiExecutor.html#ad97592b573c577e6bae11662ec683910" target="_top" xlink:title=" ">
<polygon fill="white" stroke="black" points="1861,-291.5 1861,-310.5 2025,-310.5 2025,-291.5 1861,-291.5"/>
<text text-anchor="middle" x="1943" y="-298.5" font-family="Helvetica,sans-Serif" font-size="10.00">CgiExecutor::prepareEnvironment</text>
</a>
</g>
</g>
<!-- Node1&#45;&gt;Node26 -->
<g id="edge41" class="edge">
<title>Node1&#45;&gt;Node26</title>
<path fill="none" stroke="midnightblue" d="M2115.26,-467.59C2103.32,-433.54 2073.98,-363.07 2025,-325 2016.89,-318.7 2007.17,-314.05 1997.31,-310.62"/>
<polygon fill="midnightblue" stroke="midnightblue" points="2112.02,-468.92 2118.53,-477.27 2118.65,-466.68 2112.02,-468.92"/>
</g>
<!-- Node30 -->
<g id="node30" class="node">
<title>Node30</title>
<g id="a_node30"><a xlink:href="classHttpRequest.html#ab5fb89c5ad17f9433e6798477fd4d8e8" target="_top" xlink:title="Verifica si se debe cerrar la conexión con el cliente después de enviar la respuesta.">
<polygon fill="white" stroke="black" points="1517,-71 1517,-101 1649,-101 1649,-71 1517,-71"/>
<text text-anchor="start" x="1525" y="-89" font-family="Helvetica,sans-Serif" font-size="10.00">HttpRequest::shouldClose</text>
<text text-anchor="middle" x="1583" y="-78" font-family="Helvetica,sans-Serif" font-size="10.00">Connection</text>
</a>
</g>
</g>
<!-- Node1&#45;&gt;Node30 -->
<g id="edge46" class="edge">
<title>Node1&#45;&gt;Node30</title>
<path fill="none" stroke="midnightblue" d="M2096.15,-472.27C2048.72,-444.38 1943.87,-381.16 1861,-320 1757.16,-243.37 1642,-139.41 1600.24,-101.04"/>
<polygon fill="midnightblue" stroke="midnightblue" points="2094.45,-475.33 2104.85,-477.36 2097.99,-469.29 2094.45,-475.33"/>
</g>
<!-- Node31 -->
<g id="node31" class="node">
<title>Node31</title>
<g id="a_node31"><a xlink:href="classHttpParser.html#af1b9bb0ac2ed3f90cbccba85c9e5130d" target="_top" xlink:title="Valida headers obligatorios y conflictos.">
<polygon fill="white" stroke="black" points="1685,-577.5 1685,-596.5 1825,-596.5 1825,-577.5 1685,-577.5"/>
<text text-anchor="middle" x="1755" y="-584.5" font-family="Helvetica,sans-Serif" font-size="10.00">HttpParser::validateHeaders</text>
</a>
</g>
</g>
<!-- Node1&#45;&gt;Node31 -->
<g id="edge51" class="edge">
<title>Node1&#45;&gt;Node31</title>
<path fill="none" stroke="midnightblue" d="M2076.53,-499.3C2002.76,-519.49 1857.58,-559.21 1790.94,-577.44"/>
<polygon fill="midnightblue" stroke="midnightblue" points="2077.73,-502.6 2086.45,-496.59 2075.89,-495.85 2077.73,-502.6"/>
</g>
<!-- Node3 -->
<g id="node3" class="node">
<title>Node3</title>
<g id="a_node3"><a xlink:href="ResponseUtils_8cpp.html#ab7c2cb6fbf297c09ec402182b04584c6" target="_top" xlink:title=" ">
<polygon fill="white" stroke="black" points="1708.5,-477.5 1708.5,-496.5 1801.5,-496.5 1801.5,-477.5 1708.5,-477.5"/>
<text text-anchor="middle" x="1755" y="-484.5" font-family="Helvetica,sans-Serif" font-size="10.00">fillBaseResponse</text>
</a>
</g>
</g>
<!-- Node2&#45;&gt;Node3 -->
<g id="edge2" class="edge">
<title>Node2&#45;&gt;Node3</title>
<path fill="none" stroke="midnightblue" d="M1863.53,-487C1842.4,-487 1820.25,-487 1801.58,-487"/>
<polygon fill="midnightblue" stroke="midnightblue" points="1863.8,-490.5 1873.8,-487 1863.8,-483.5 1863.8,-490.5"/>
</g>
<!-- Node4 -->
<g id="node4" class="node">
<title>Node4</title>
<g id="a_node4"><a xlink:href="ErrorUtils_8cpp.html#a470416220aa911b8f1274140a8322e7a" target="_top" xlink:title=" ">
<polygon fill="white" stroke="black" points="1532,-342.5 1532,-361.5 1634,-361.5 1634,-342.5 1532,-342.5"/>
<text text-anchor="middle" x="1583" y="-349.5" font-family="Helvetica,sans-Serif" font-size="10.00">buildErrorResponse</text>
</a>
</g>
</g>
<!-- Node3&#45;&gt;Node4 -->
<g id="edge3" class="edge">
<title>Node3&#45;&gt;Node4</title>
<path fill="none" stroke="midnightblue" d="M1733.53,-470.74C1697.75,-442.33 1624.92,-384.49 1596.12,-361.62"/>
<polygon fill="midnightblue" stroke="midnightblue" points="1731.77,-473.81 1741.77,-477.29 1736.12,-468.33 1731.77,-473.81"/>
</g>
<!-- Node15 -->
<g id="node15" class="node">
<title>Node15</title>
<g id="a_node15"><a xlink:href="classRequestProcessor.html#a3fa9c97a7d142a7b607002138de87140" target="_top" xlink:title=" ">
<polygon fill="white" stroke="black" points="992,-380.5 992,-399.5 1130,-399.5 1130,-380.5 992,-380.5"/>
<text text-anchor="middle" x="1061" y="-387.5" font-family="Helvetica,sans-Serif" font-size="10.00">RequestProcessor::process</text>
</a>
</g>
</g>
<!-- Node3&#45;&gt;Node15 -->
<g id="edge37" class="edge">
<title>Node3&#45;&gt;Node15</title>
<path fill="none" stroke="midnightblue" d="M1718.27,-499.82C1622.99,-531.77 1357.12,-606.07 1166,-516 1113.14,-491.09 1078.01,-424.68 1066.3,-399.69"/>
<polygon fill="midnightblue" stroke="midnightblue" points="1719.65,-503.05 1727.99,-496.51 1717.39,-496.42 1719.65,-503.05"/>
</g>
<!-- Node18 -->
<g id="node18" class="node">
<title>Node18</title>
<g id="a_node18"><a xlink:href="StaticPathHandler_8cpp.html#a28a771d93d3051098585ebc34ed29855" target="_top" xlink:title=" ">
<polygon fill="white" stroke="black" points="1372.5,-114.5 1372.5,-133.5 1457.5,-133.5 1457.5,-114.5 1372.5,-114.5"/>
<text text-anchor="middle" x="1415" y="-121.5" font-family="Helvetica,sans-Serif" font-size="10.00">handleDirectory</text>
</a>
</g>
</g>
<!-- Node3&#45;&gt;Node18 -->
<g id="edge35" class="edge">
<title>Node3&#45;&gt;Node18</title>
<path fill="none" stroke="midnightblue" d="M1744.97,-468.29C1715.8,-409.92 1617.93,-229.92 1481,-143 1473.95,-138.53 1465.81,-135.07 1457.73,-132.42"/>
<polygon fill="midnightblue" stroke="midnightblue" points="1741.92,-470.01 1749.48,-477.44 1748.2,-466.92 1741.92,-470.01"/>
</g>
<!-- Node20 -->
<g id="node20" class="node">
<title>Node20</title>
<g id="a_node20"><a xlink:href="classRequestProcessor.html#a606f9c02a3166ca58e6930f8d292d81c" target="_top" xlink:title=" ">
<polygon fill="white" stroke="black" points="1349,-571 1349,-601 1481,-601 1481,-571 1349,-571"/>
<text text-anchor="start" x="1357" y="-589" font-family="Helvetica,sans-Serif" font-size="10.00">RequestProcessor::handle</text>
<text text-anchor="middle" x="1415" y="-578" font-family="Helvetica,sans-Serif" font-size="10.00">LocationValidation</text>
</a>
</g>
</g>
<!-- Node3&#45;&gt;Node20 -->
<g id="edge36" class="edge">
<title>Node3&#45;&gt;Node20</title>
<path fill="none" stroke="midnightblue" d="M1735.28,-503.15C1715.33,-519.39 1682.11,-543.74 1649,-556 1594.69,-576.12 1528.94,-583.15 1481.15,-585.42"/>
<polygon fill="midnightblue" stroke="midnightblue" points="1737.53,-505.83 1742.98,-496.74 1733.06,-500.45 1737.53,-505.83"/>
</g>
<!-- Node5 -->
<g id="node5" class="node">
<title>Node5</title>
<g id="a_node5"><a xlink:href="classClient.html#a3b000abab7a3fe339f0f39ad5daca68f" target="_top" xlink:title=" ">
<polygon fill="white" stroke="black" points="1352.5,-418.5 1352.5,-437.5 1477.5,-437.5 1477.5,-418.5 1352.5,-418.5"/>
<text text-anchor="middle" x="1415" y="-425.5" font-family="Helvetica,sans-Serif" font-size="10.00">Client::checkCgiTimeout</text>
</a>
</g>
</g>
<!-- Node4&#45;&gt;Node5 -->
<g id="edge4" class="edge">
<title>Node4&#45;&gt;Node5</title>
<path fill="none" stroke="midnightblue" d="M1555.92,-366.54C1535.77,-377.5 1507.02,-392.55 1481,-404 1469.11,-409.23 1455.68,-414.32 1444.13,-418.46"/>
<polygon fill="midnightblue" stroke="midnightblue" points="1557.71,-369.55 1564.8,-361.67 1554.35,-363.41 1557.71,-369.55"/>
</g>
<!-- Node6 -->
<g id="node6" class="node">
<title>Node6</title>
<g id="a_node6"><a xlink:href="classClient.html#ae523ed90bd32b88e539ebdf30746382b" target="_top" xlink:title=" ">
<polygon fill="white" stroke="black" points="1004.5,-266.5 1004.5,-285.5 1117.5,-285.5 1117.5,-266.5 1004.5,-266.5"/>
<text text-anchor="middle" x="1061" y="-273.5" font-family="Helvetica,sans-Serif" font-size="10.00">Client::dispatchAction</text>
</a>
</g>
</g>
<!-- Node4&#45;&gt;Node6 -->
<g id="edge5" class="edge">
<title>Node4&#45;&gt;Node6</title>
<path fill="none" stroke="midnightblue" d="M1564.72,-335.42C1545.87,-318.57 1513.96,-293.49 1481,-283 1356.03,-243.24 1199.32,-256 1117.52,-267.03"/>
<polygon fill="midnightblue" stroke="midnightblue" points="1562.46,-338.1 1572.19,-342.29 1567.2,-332.94 1562.46,-338.1"/>
</g>
<!-- Node13 -->
<g id="node13" class="node">
<title>Node13</title>
<g id="a_node13"><a xlink:href="classClient.html#a09d6029b60ae8c9773362968e72f2e54" target="_top" xlink:title=" ">
<polygon fill="white" stroke="black" points="317,-228.5 317,-247.5 455,-247.5 455,-228.5 317,-228.5"/>
<text text-anchor="middle" x="386" y="-235.5" font-family="Helvetica,sans-Serif" font-size="10.00">Client::finalizeCgiResponse</text>
</a>
</g>
</g>
<!-- Node4&#45;&gt;Node13 -->
<g id="edge14" class="edge">
<title>Node4&#45;&gt;Node13</title>
<path fill="none" stroke="midnightblue" d="M1568.43,-334.25C1550.73,-312.41 1517.68,-275.77 1481,-256 1384.39,-203.92 1350.25,-200 1240.5,-200 1240.5,-200 1240.5,-200 728.5,-200 625.75,-200 506.66,-217.2 439.74,-228.46"/>
<polygon fill="midnightblue" stroke="midnightblue" points="1565.89,-336.69 1574.83,-342.36 1571.38,-332.34 1565.89,-336.69"/>
</g>
<!-- Node14 -->
<g id="node14" class="node">
<title>Node14</title>
<g id="a_node14"><a xlink:href="classRequestProcessor.html#a79915b1a2fda205b7d5a6c92e5e3fce8" target="_top" xlink:title=" ">
<polygon fill="white" stroke="black" points="1166,-431.5 1166,-450.5 1313,-450.5 1313,-431.5 1166,-431.5"/>
<text text-anchor="middle" x="1239.5" y="-438.5" font-family="Helvetica,sans-Serif" font-size="10.00">RequestProcessor::handleCgi</text>
</a>
</g>
</g>
<!-- Node4&#45;&gt;Node14 -->
<g id="edge15" class="edge">
<title>Node4&#45;&gt;Node14</title>
<path fill="none" stroke="midnightblue" d="M1569.77,-369.93C1552.9,-392.87 1520.12,-431.49 1481,-447 1413.05,-473.93 1325.62,-461.24 1277.09,-450.51"/>
<polygon fill="midnightblue" stroke="midnightblue" points="1572.67,-371.89 1575.62,-361.71 1566.97,-367.83 1572.67,-371.89"/>
</g>
<!-- Node4&#45;&gt;Node15 -->
<g id="edge34" class="edge">
<title>Node4&#45;&gt;Node15</title>
<path fill="none" stroke="midnightblue" d="M1528.63,-363.49C1513.32,-366.39 1496.56,-369.19 1481,-371 1357.86,-385.3 1213.19,-388.99 1130.09,-389.85"/>
<polygon fill="midnightblue" stroke="midnightblue" points="1529.31,-366.92 1538.46,-361.58 1527.97,-360.05 1529.31,-366.92"/>
</g>
<!-- Node16 -->
<g id="node16" class="node">
<title>Node16</title>
<g id="a_node16"><a xlink:href="classClient.html#a4104efd3f5f7e1c0f3e3302b46861624" target="_top" xlink:title=" ">
<polygon fill="white" stroke="black" points="1359.5,-152.5 1359.5,-171.5 1470.5,-171.5 1470.5,-152.5 1359.5,-152.5"/>
<text text-anchor="middle" x="1415" y="-159.5" font-family="Helvetica,sans-Serif" font-size="10.00">Client::handleCgiPipe</text>
</a>
</g>
</g>
<!-- Node4&#45;&gt;Node16 -->
<g id="edge19" class="edge">
<title>Node4&#45;&gt;Node16</title>
<path fill="none" stroke="midnightblue" d="M1571.65,-333.47C1548.6,-292.46 1494.05,-196.75 1481,-186 1473.48,-179.81 1464.21,-175.13 1455.05,-171.63"/>
<polygon fill="midnightblue" stroke="midnightblue" points="1568.72,-335.41 1576.67,-342.43 1574.83,-331.99 1568.72,-335.41"/>
</g>
<!-- Node4&#45;&gt;Node18 -->
<g id="edge22" class="edge">
<title>Node4&#45;&gt;Node18</title>
<path fill="none" stroke="midnightblue" d="M1570.55,-333.49C1556.86,-310.95 1533.7,-271.48 1517,-236 1498.12,-195.9 1513.64,-172.98 1481,-143 1474.51,-137.04 1466.24,-132.93 1457.79,-130.12"/>
<polygon fill="midnightblue" stroke="midnightblue" points="1567.75,-335.62 1575.95,-342.32 1573.72,-331.96 1567.75,-335.62"/>
</g>
<!-- Node19 -->
<g id="node19" class="node">
<title>Node19</title>
<g id="a_node19"><a xlink:href="StaticPathHandler_8cpp.html#a4e092999675b45373270f5408cbe64c7" target="_top" xlink:title=" ">
<polygon fill="white" stroke="black" points="1194,-304.5 1194,-323.5 1285,-323.5 1285,-304.5 1194,-304.5"/>
<text text-anchor="middle" x="1239.5" y="-311.5" font-family="Helvetica,sans-Serif" font-size="10.00">handleStaticPath</text>
</a>
</g>
</g>
<!-- Node4&#45;&gt;Node19 -->
<g id="edge31" class="edge">
<title>Node4&#45;&gt;Node19</title>
<path fill="none" stroke="midnightblue" d="M1561.75,-336.38C1542.28,-322.42 1511.4,-302.99 1481,-295 1409.1,-276.11 1321.28,-292.55 1274.19,-304.41"/>
<polygon fill="midnightblue" stroke="midnightblue" points="1559.72,-339.24 1569.85,-342.35 1563.87,-333.6 1559.72,-339.24"/>
</g>
<!-- Node4&#45;&gt;Node20 -->
<g id="edge25" class="edge">
<title>Node4&#45;&gt;Node20</title>
<path fill="none" stroke="midnightblue" d="M1572.26,-370.88C1555.52,-402.6 1519.37,-468.02 1481,-518 1465.98,-537.56 1446.07,-557.7 1432.26,-570.94"/>
<polygon fill="midnightblue" stroke="midnightblue" points="1575.46,-372.31 1576.99,-361.83 1569.26,-369.07 1575.46,-372.31"/>
</g>
<!-- Node21 -->
<g id="node21" class="node">
<title>Node21</title>
<g id="a_node21"><a xlink:href="classRequestProcessor.html#a10779d8453416feeda2174859c00d082" target="_top" xlink:title=" ">
<polygon fill="white" stroke="black" points="1173.5,-476 1173.5,-506 1305.5,-506 1305.5,-476 1173.5,-476"/>
<text text-anchor="start" x="1181.5" y="-494" font-family="Helvetica,sans-Serif" font-size="10.00">RequestProcessor::handle</text>
<text text-anchor="middle" x="1239.5" y="-483" font-family="Helvetica,sans-Serif" font-size="10.00">ParseOrMethodErrors</text>
</a>
</g>
</g>
<!-- Node4&#45;&gt;Node21 -->
<g id="edge27" class="edge">
<title>Node4&#45;&gt;Node21</title>
<path fill="none" stroke="midnightblue" d="M1572.14,-370.61C1556.72,-397.61 1524.15,-446.81 1481,-469 1426.65,-496.94 1356.23,-500.2 1305.66,-497.82"/>
<polygon fill="midnightblue" stroke="midnightblue" points="1575.26,-372.21 1577.03,-361.77 1569.13,-368.82 1575.26,-372.21"/>
</g>
<!-- Node22 -->
<g id="node22" class="node">
<title>Node22</title>
<g id="a_node22"><a xlink:href="StaticPathHandler_8cpp.html#a5af8659f0f83e8296b29264dd671af0d" target="_top" xlink:title=" ">
<polygon fill="white" stroke="black" points="1367.5,-342.5 1367.5,-361.5 1462.5,-361.5 1462.5,-342.5 1367.5,-342.5"/>
<text text-anchor="middle" x="1415" y="-349.5" font-family="Helvetica,sans-Serif" font-size="10.00">handleRegularFile</text>
</a>
</g>
</g>
<!-- Node4&#45;&gt;Node22 -->
<g id="edge29" class="edge">
<title>Node4&#45;&gt;Node22</title>
<path fill="none" stroke="midnightblue" d="M1521.49,-352C1502.09,-352 1480.93,-352 1462.68,-352"/>
<polygon fill="midnightblue" stroke="midnightblue" points="1521.74,-355.5 1531.74,-352 1521.74,-348.5 1521.74,-355.5"/>
</g>
<!-- Node23 -->
<g id="node23" class="node">
<title>Node23</title>
<g id="a_node23"><a xlink:href="StaticPathHandler_8cpp.html#a638cb25cad6c24877a0e75984110ea7a" target="_top" xlink:title=" ">
<polygon fill="white" stroke="black" points="1377,-304.5 1377,-323.5 1453,-323.5 1453,-304.5 1377,-304.5"/>
<text text-anchor="middle" x="1415" y="-311.5" font-family="Helvetica,sans-Serif" font-size="10.00">handleUpload</text>
</a>
</g>
</g>
<!-- Node4&#45;&gt;Node23 -->
<g id="edge32" class="edge">
<title>Node4&#45;&gt;Node23</title>
<path fill="none" stroke="midnightblue" d="M1530.07,-340.11C1505.1,-334.4 1475.74,-327.68 1453.07,-322.49"/>
<polygon fill="midnightblue" stroke="midnightblue" points="1529.58,-343.59 1540.11,-342.41 1531.14,-336.77 1529.58,-343.59"/>
</g>
<!-- Node7 -->
<g id="node7" class="node">
<title>Node7</title>
<g id="a_node7"><a xlink:href="classClient.html#a419f8f3253d3f71287044e3999a5d600" target="_top" xlink:title=" ">
<polygon fill="white" stroke="black" points="843,-275.5 843,-294.5 956,-294.5 956,-275.5 843,-275.5"/>
<text text-anchor="middle" x="899.5" y="-282.5" font-family="Helvetica,sans-Serif" font-size="10.00">Client::buildResponse</text>
</a>
</g>
</g>
<!-- Node6&#45;&gt;Node7 -->
<g id="edge6" class="edge">
<title>Node6&#45;&gt;Node7</title>
<path fill="none" stroke="midnightblue" d="M994.23,-279.71C981.61,-280.42 968.52,-281.16 956.25,-281.85"/>
<polygon fill="midnightblue" stroke="midnightblue" points="994.43,-283.21 1004.21,-279.15 994.03,-276.22 994.43,-283.21"/>
</g>
<!-- Node8 -->
<g id="node8" class="node">
<title>Node8</title>
<g id="a_node8"><a xlink:href="classClient.html#abcf615f2514ae7e0266315693e73a31a" target="_top" xlink:title=" ">
<polygon fill="white" stroke="black" points="652,-275.5 652,-294.5 807,-294.5 807,-275.5 652,-275.5"/>
<text text-anchor="middle" x="729.5" y="-282.5" font-family="Helvetica,sans-Serif" font-size="10.00">Client::handleCompleteRequest</text>
</a>
</g>
</g>
<!-- Node7&#45;&gt;Node8 -->
<g id="edge7" class="edge">
<title>Node7&#45;&gt;Node8</title>
<path fill="none" stroke="midnightblue" d="M832.54,-285C824.2,-285 815.62,-285 807.14,-285"/>
<polygon fill="midnightblue" stroke="midnightblue" points="832.56,-288.5 842.56,-285 832.56,-281.5 832.56,-288.5"/>
</g>
<!-- Node9 -->
<g id="node9" class="node">
<title>Node9</title>
<g id="a_node9"><a xlink:href="classClient.html#ac95fe5b24fe5275bd2271bd1ac37596d" target="_top" xlink:title=" ">
<polygon fill="white" stroke="black" points="336,-285.5 336,-304.5 436,-304.5 436,-285.5 336,-285.5"/>
<text text-anchor="middle" x="386" y="-292.5" font-family="Helvetica,sans-Serif" font-size="10.00">Client::handleRead</text>
</a>
</g>
</g>
<!-- Node8&#45;&gt;Node9 -->
<g id="edge8" class="edge">
<title>Node8&#45;&gt;Node9</title>
<path fill="none" stroke="midnightblue" d="M641.61,-287.54C576.51,-289.45 489.78,-291.99 436.2,-293.56"/>
<polygon fill="midnightblue" stroke="midnightblue" points="641.97,-291.04 651.86,-287.24 641.76,-284.04 641.97,-291.04"/>
</g>
<!-- Node12 -->
<g id="node12" class="node">
<title>Node12</title>
<g id="a_node12"><a xlink:href="classClient.html#a950fd2ab8ac20c9be4c5e722344d6fe2" target="_top" xlink:title=" ">
<polygon fill="white" stroke="black" points="491,-247.5 491,-266.5 616,-266.5 616,-247.5 491,-247.5"/>
<text text-anchor="middle" x="553.5" y="-254.5" font-family="Helvetica,sans-Serif" font-size="10.00">Client::processRequests</text>
</a>
</g>
</g>
<!-- Node8&#45;&gt;Node12 -->
<g id="edge11" class="edge">
<title>Node8&#45;&gt;Node12</title>
<path fill="none" stroke="midnightblue" d="M658.87,-273.79C643.88,-271.38 628.17,-268.86 613.63,-266.51"/>
<polygon fill="midnightblue" stroke="midnightblue" points="658.68,-277.31 669.11,-275.44 659.79,-270.4 658.68,-277.31"/>
</g>
<!-- Node10 -->
<g id="node10" class="node">
<title>Node10</title>
<g id="a_node10"><a xlink:href="classServerManager.html#a9f3ca46da9df004286f90902b8daf29d" target="_top" xlink:title=" ">
<polygon fill="white" stroke="black" points="138,-244 138,-274 281,-274 281,-244 138,-244"/>
<text text-anchor="start" x="146" y="-262" font-family="Helvetica,sans-Serif" font-size="10.00">ServerManager::handleClient</text>
<text text-anchor="middle" x="209.5" y="-251" font-family="Helvetica,sans-Serif" font-size="10.00">Event</text>
</a>
</g>
</g>
<!-- Node9&#45;&gt;Node10 -->
<g id="edge9" class="edge">
<title>Node9&#45;&gt;Node10</title>
<path fill="none" stroke="midnightblue" d="M328.48,-283.34C313.35,-280.22 296.82,-276.81 281.04,-273.55"/>
<polygon fill="midnightblue" stroke="midnightblue" points="328.19,-286.85 338.7,-285.45 329.61,-280 328.19,-286.85"/>
</g>
<!-- Node11 -->
<g id="node11" class="node">
<title>Node11</title>
<g id="a_node11"><a xlink:href="classServerManager.html#aecc313c9b6afcab92c22269b3333c721" target="_top" xlink:title=" ">
<polygon fill="white" stroke="black" points="0,-208.5 0,-227.5 102,-227.5 102,-208.5 0,-208.5"/>
<text text-anchor="middle" x="51" y="-215.5" font-family="Helvetica,sans-Serif" font-size="10.00">ServerManager::run</text>
</a>
</g>
</g>
<!-- Node10&#45;&gt;Node11 -->
<g id="edge10" class="edge">
<title>Node10&#45;&gt;Node11</title>
<path fill="none" stroke="midnightblue" d="M141.42,-241.43C123.25,-236.67 104.25,-231.69 88.47,-227.55"/>
<polygon fill="midnightblue" stroke="midnightblue" points="140.55,-244.82 151.11,-243.97 142.33,-238.05 140.55,-244.82"/>
</g>
<!-- Node12&#45;&gt;Node9 -->
<g id="edge13" class="edge">
<title>Node12&#45;&gt;Node9</title>
<path fill="none" stroke="midnightblue" d="M500.69,-268.9C477.43,-274.24 450.35,-280.45 428.46,-285.48"/>
<polygon fill="midnightblue" stroke="midnightblue" points="501.77,-272.24 510.74,-266.59 500.21,-265.42 501.77,-272.24"/>
</g>
<!-- Node12&#45;&gt;Node13 -->
<g id="edge12" class="edge">
<title>Node12&#45;&gt;Node13</title>
<path fill="none" stroke="midnightblue" d="M480.91,-248.78C472.33,-247.8 463.6,-246.79 455.07,-245.81"/>
<polygon fill="midnightblue" stroke="midnightblue" points="480.54,-252.26 490.87,-249.93 481.34,-245.31 480.54,-252.26"/>
</g>
<!-- Node14&#45;&gt;Node15 -->
<g id="edge16" class="edge">
<title>Node14&#45;&gt;Node15</title>
<path fill="none" stroke="midnightblue" d="M1195.64,-428.62C1164.68,-419.67 1123.48,-407.76 1095.05,-399.55"/>
<polygon fill="midnightblue" stroke="midnightblue" points="1194.72,-431.99 1205.3,-431.41 1196.67,-425.27 1194.72,-431.99"/>
</g>
<!-- Node15&#45;&gt;Node7 -->
<g id="edge17" class="edge">
<title>Node15&#45;&gt;Node7</title>
<path fill="none" stroke="midnightblue" d="M1036.95,-374.83C1003.67,-352.92 943.11,-313.05 915.25,-294.71"/>
<polygon fill="midnightblue" stroke="midnightblue" points="1035.29,-377.92 1045.56,-380.5 1039.14,-372.07 1035.29,-377.92"/>
</g>
<!-- Node15&#45;&gt;Node8 -->
<g id="edge18" class="edge">
<title>Node15&#45;&gt;Node8</title>
<path fill="none" stroke="midnightblue" d="M1020.45,-377.4C953.7,-356.13 820.15,-313.57 760.49,-294.56"/>
<polygon fill="midnightblue" stroke="midnightblue" points="1019.59,-380.8 1030.18,-380.5 1021.71,-374.13 1019.59,-380.8"/>
</g>
<!-- Node17 -->
<g id="node17" class="node">
<title>Node17</title>
<g id="a_node17"><a xlink:href="classServerManager.html#a9c75ea0bd268425c187ef25770eccbe8" target="_top" xlink:title=" ">
<polygon fill="white" stroke="black" points="143.5,-179 143.5,-209 275.5,-209 275.5,-179 143.5,-179"/>
<text text-anchor="start" x="151.5" y="-197" font-family="Helvetica,sans-Serif" font-size="10.00">ServerManager::handleCgi</text>
<text text-anchor="middle" x="209.5" y="-186" font-family="Helvetica,sans-Serif" font-size="10.00">PipeEvent</text>
</a>
</g>
</g>
<!-- Node16&#45;&gt;Node17 -->
<g id="edge20" class="edge">
<title>Node16&#45;&gt;Node17</title>
<path fill="none" stroke="midnightblue" d="M1349.35,-162C1278.74,-162 1162.33,-162 1062,-162 1062,-162 1062,-162 552.5,-162 455.74,-162 344.26,-174.85 275.58,-184.27"/>
<polygon fill="midnightblue" stroke="midnightblue" points="1349.43,-165.5 1359.43,-162 1349.43,-158.5 1349.43,-165.5"/>
</g>
<!-- Node17&#45;&gt;Node11 -->
<g id="edge21" class="edge">
<title>Node17&#45;&gt;Node11</title>
<path fill="none" stroke="midnightblue" d="M133.41,-205.52C122.84,-207.14 112.2,-208.77 102.25,-210.29"/>
<polygon fill="midnightblue" stroke="midnightblue" points="134.14,-208.95 143.49,-203.97 133.07,-202.03 134.14,-208.95"/>
</g>
<!-- Node18&#45;&gt;Node19 -->
<g id="edge23" class="edge">
<title>Node18&#45;&gt;Node19</title>
<path fill="none" stroke="midnightblue" d="M1362.76,-133.15C1357.65,-135.69 1352.91,-138.91 1349,-143 1302.5,-191.6 1358.63,-240.58 1313,-290 1305.62,-297.99 1295.53,-303.32 1285.23,-306.88"/>
<polygon fill="midnightblue" stroke="midnightblue" points="1364.34,-136.29 1372.28,-129.28 1361.7,-129.81 1364.34,-136.29"/>
</g>
<!-- Node19&#45;&gt;Node15 -->
<g id="edge24" class="edge">
<title>Node19&#45;&gt;Node15</title>
<path fill="none" stroke="midnightblue" d="M1206.76,-327.67C1171.39,-342.9 1115.11,-367.13 1084.17,-380.45"/>
<polygon fill="midnightblue" stroke="midnightblue" points="1208.35,-330.8 1216.15,-323.63 1205.58,-324.37 1208.35,-330.8"/>
</g>
<!-- Node20&#45;&gt;Node15 -->
<g id="edge26" class="edge">
<title>Node20&#45;&gt;Node15</title>
<path fill="none" stroke="midnightblue" d="M1338.61,-593.16C1286.31,-594.44 1217.14,-588.47 1166,-556 1105.14,-517.35 1073.76,-428.87 1064.77,-399.6"/>
<polygon fill="midnightblue" stroke="midnightblue" points="1338.96,-596.65 1348.83,-592.81 1338.72,-589.65 1338.96,-596.65"/>
</g>
<!-- Node21&#45;&gt;Node15 -->
<g id="edge28" class="edge">
<title>Node21&#45;&gt;Node15</title>
<path fill="none" stroke="midnightblue" d="M1190.29,-471.9C1182.06,-468.21 1173.69,-464.18 1166,-460 1131.4,-441.17 1093.74,-413.98 1074.64,-399.66"/>
<polygon fill="midnightblue" stroke="midnightblue" points="1188.92,-475.12 1199.48,-475.91 1191.72,-468.7 1188.92,-475.12"/>
</g>
<!-- Node22&#45;&gt;Node19 -->
<g id="edge30" class="edge">
<title>Node22&#45;&gt;Node19</title>
<path fill="none" stroke="midnightblue" d="M1360.34,-340.25C1335.81,-334.87 1307.12,-328.59 1283.97,-323.52"/>
<polygon fill="midnightblue" stroke="midnightblue" points="1359.7,-343.69 1370.22,-342.41 1361.2,-336.85 1359.7,-343.69"/>
</g>
<!-- Node23&#45;&gt;Node19 -->
<g id="edge33" class="edge">
<title>Node23&#45;&gt;Node19</title>
<path fill="none" stroke="midnightblue" d="M1366.62,-314C1341.19,-314 1310.03,-314 1285.04,-314"/>
<polygon fill="midnightblue" stroke="midnightblue" points="1366.78,-317.5 1376.78,-314 1366.78,-310.5 1366.78,-317.5"/>
</g>
<!-- Node25 -->
<g id="node25" class="node">
<title>Node25</title>
<g id="a_node25"><a xlink:href="classClient.html#ab83f46c4fe6d12026fd5667e7ce270fb" target="_top" xlink:title="Handle Expect: 100&#45;continue.">
<polygon fill="white" stroke="black" points="492,-510.5 492,-529.5 615,-529.5 615,-510.5 492,-510.5"/>
<text text-anchor="middle" x="553.5" y="-517.5" font-family="Helvetica,sans-Serif" font-size="10.00">Client::handleExpect100</text>
</a>
</g>
</g>
<!-- Node24&#45;&gt;Node25 -->
<g id="edge39" class="edge">
<title>Node24&#45;&gt;Node25</title>
<path fill="none" stroke="midnightblue" d="M1882.4,-619.87C1811.84,-639.42 1690.47,-668 1584,-668 1584,-668 1584,-668 898.5,-668 758.07,-668 609.72,-562.64 566.79,-529.71"/>
<polygon fill="midnightblue" stroke="midnightblue" points="1883.75,-623.13 1892.43,-617.06 1881.86,-616.39 1883.75,-623.13"/>
</g>
<!-- Node25&#45;&gt;Node9 -->
<g id="edge40" class="edge">
<title>Node25&#45;&gt;Node9</title>
<path fill="none" stroke="midnightblue" d="M539.3,-502.06C506.01,-456.8 419.45,-339.12 394.08,-304.63"/>
<polygon fill="midnightblue" stroke="midnightblue" points="536.64,-504.35 545.39,-510.33 542.28,-500.2 536.64,-504.35"/>
</g>
<!-- Node27 -->
<g id="node27" class="node">
<title>Node27</title>
<g id="a_node27"><a xlink:href="classCgiExecutor.html#a449e349a961449c342e4612d131bda8e" target="_top" xlink:title=" ">
<polygon fill="white" stroke="black" points="1685.5,-71.5 1685.5,-90.5 1824.5,-90.5 1824.5,-71.5 1685.5,-71.5"/>
<text text-anchor="middle" x="1755" y="-78.5" font-family="Helvetica,sans-Serif" font-size="10.00">CgiExecutor::executeAsync</text>
</a>
</g>
</g>
<!-- Node26&#45;&gt;Node27 -->
<g id="edge42" class="edge">
<title>Node26&#45;&gt;Node27</title>
<path fill="none" stroke="midnightblue" d="M1927.12,-283.41C1889.75,-239.2 1792.86,-124.59 1764.14,-90.62"/>
<polygon fill="midnightblue" stroke="midnightblue" points="1924.64,-285.89 1933.77,-291.26 1929.98,-281.37 1924.64,-285.89"/>
</g>
<!-- Node28 -->
<g id="node28" class="node">
<title>Node28</title>
<g id="a_node28"><a xlink:href="classClient.html#a2e0da898af07e89fcfd83fe5a3077256" target="_top" xlink:title=" ">
<polygon fill="white" stroke="black" points="1366,-0.5 1366,-19.5 1464,-19.5 1464,-0.5 1366,-0.5"/>
<text text-anchor="middle" x="1415" y="-7.5" font-family="Helvetica,sans-Serif" font-size="10.00">Client::executeCgi</text>
</a>
</g>
</g>
<!-- Node27&#45;&gt;Node28 -->
<g id="edge43" class="edge">
<title>Node27&#45;&gt;Node28</title>
<path fill="none" stroke="midnightblue" d="M1698.92,-69.43C1632.68,-55.52 1522.75,-32.42 1461.24,-19.5"/>
<polygon fill="midnightblue" stroke="midnightblue" points="1698.26,-72.87 1708.77,-71.5 1699.7,-66.02 1698.26,-72.87"/>
</g>
<!-- Node29 -->
<g id="node29" class="node">
<title>Node29</title>
<g id="a_node29"><a xlink:href="classClient.html#a7ce261bf1858a7904f7bb9668188284b" target="_top" xlink:title=" ">
<polygon fill="white" stroke="black" points="1198,-105.5 1198,-124.5 1281,-124.5 1281,-105.5 1198,-105.5"/>
<text text-anchor="middle" x="1239.5" y="-112.5" font-family="Helvetica,sans-Serif" font-size="10.00">Client::startCgi</text>
</a>
</g>
</g>
<!-- Node28&#45;&gt;Node29 -->
<g id="edge44" class="edge">
<title>Node28&#45;&gt;Node29</title>
<path fill="none" stroke="midnightblue" d="M1389.37,-24.91C1353.16,-46.82 1286.61,-87.09 1256.29,-105.44"/>
<polygon fill="midnightblue" stroke="midnightblue" points="1391.55,-27.68 1398.3,-19.5 1387.93,-21.69 1391.55,-27.68"/>
</g>
<!-- Node29&#45;&gt;Node6 -->
<g id="edge45" class="edge">
<title>Node29&#45;&gt;Node6</title>
<path fill="none" stroke="midnightblue" d="M1228.41,-133.63C1211.68,-162.87 1175.48,-219.53 1130,-252 1121.34,-258.18 1110.93,-262.91 1100.9,-266.46"/>
<polygon fill="midnightblue" stroke="midnightblue" points="1231.5,-135.28 1233.32,-124.84 1225.39,-131.86 1231.5,-135.28"/>
</g>
<!-- Node30&#45;&gt;Node8 -->
<g id="edge48" class="edge">
<title>Node30&#45;&gt;Node8</title>
<path fill="none" stroke="midnightblue" d="M1506.74,-77.72C1498.07,-77.02 1489.35,-76.41 1481,-76 1422.4,-73.11 1407.58,-72.81 1349,-76 1267.3,-80.45 1245.09,-75.03 1166,-96 995.11,-141.31 804.85,-243.38 747.65,-275.28"/>
<polygon fill="midnightblue" stroke="midnightblue" points="1506.61,-81.23 1516.87,-78.6 1507.21,-74.25 1506.61,-81.23"/>
</g>
<!-- Node30&#45;&gt;Node15 -->
<g id="edge50" class="edge">
<title>Node30&#45;&gt;Node15</title>
<path fill="none" stroke="midnightblue" d="M1506.76,-79.32C1459.42,-78.14 1398.2,-82.34 1349,-105 1330.9,-113.34 1119.24,-330.98 1071.52,-380.18"/>
<polygon fill="midnightblue" stroke="midnightblue" points="1506.84,-82.82 1516.95,-79.66 1507.07,-75.82 1506.84,-82.82"/>
</g>
<!-- Node30&#45;&gt;Node18 -->
<g id="edge49" class="edge">
<title>Node30&#45;&gt;Node18</title>
<path fill="none" stroke="midnightblue" d="M1506.94,-103.18C1489.95,-107.07 1472.51,-111.06 1457.5,-114.5"/>
<polygon fill="midnightblue" stroke="midnightblue" points="1507.9,-106.55 1516.87,-100.91 1506.34,-99.73 1507.9,-106.55"/>
</g>
<!-- Node30&#45;&gt;Node28 -->
<g id="edge47" class="edge">
<title>Node30&#45;&gt;Node28</title>
<path fill="none" stroke="midnightblue" d="M1546.07,-66.15C1527.01,-55.96 1503.03,-43.69 1481,-34 1469.11,-28.77 1455.68,-23.68 1444.13,-19.54"/>
<polygon fill="midnightblue" stroke="midnightblue" points="1544.54,-69.3 1555,-70.96 1547.86,-63.14 1544.54,-69.3"/>
</g>
<!-- Node32 -->
<g id="node32" class="node">
<title>Node32</title>
<g id="a_node32"><a xlink:href="classHttpParser.html#a7c2c3b29f245b3421b9af34300d7806b" target="_top" xlink:title=" ">
<polygon fill="white" stroke="black" points="1517.5,-616.5 1517.5,-635.5 1648.5,-635.5 1648.5,-616.5 1517.5,-616.5"/>
<text text-anchor="middle" x="1583" y="-623.5" font-family="Helvetica,sans-Serif" font-size="10.00">HttpParser::parseHeaders</text>
</a>
</g>
</g>
<!-- Node31&#45;&gt;Node32 -->
<g id="edge52" class="edge">
<title>Node31&#45;&gt;Node32</title>
<path fill="none" stroke="midnightblue" d="M1702.5,-598.82C1677.82,-604.48 1648.67,-611.16 1625.45,-616.49"/>
<polygon fill="midnightblue" stroke="midnightblue" points="1703.45,-602.19 1712.41,-596.54 1701.88,-595.37 1703.45,-602.19"/>
</g>
<!-- Node33 -->
<g id="node33" class="node">
<title>Node33</title>
<g id="a_node33"><a xlink:href="classHttpParser.html#ada29088006c606896d2d46e48034f420" target="_top" xlink:title=" ">
<polygon fill="white" stroke="black" points="674.5,-323.5 674.5,-342.5 784.5,-342.5 784.5,-323.5 674.5,-323.5"/>
<text text-anchor="middle" x="729.5" y="-330.5" font-family="Helvetica,sans-Serif" font-size="10.00">HttpParser::consume</text>
</a>
</g>
</g>
<!-- Node32&#45;&gt;Node33 -->
<g id="edge53" class="edge">
<title>Node32&#45;&gt;Node33</title>
<path fill="none" stroke="midnightblue" d="M1507.13,-627.38C1437.94,-628.54 1332.29,-630 1240.5,-630 1240.5,-630 1240.5,-630 1060,-630 884.02,-630 759.68,-393.38 735,-342.55"/>
<polygon fill="midnightblue" stroke="midnightblue" points="1507.55,-630.87 1517.49,-627.21 1507.43,-623.88 1507.55,-630.87"/>
</g>
<!-- Node33&#45;&gt;Node9 -->
<g id="edge54" class="edge">
<title>Node33&#45;&gt;Node9</title>
<path fill="none" stroke="midnightblue" d="M664.08,-325.83C597.85,-318.46 496.17,-307.15 436.15,-300.47"/>
<polygon fill="midnightblue" stroke="midnightblue" points="664.06,-329.35 674.39,-326.98 664.84,-322.39 664.06,-329.35"/>
</g>
<!-- Node33&#45;&gt;Node12 -->
<g id="edge55" class="edge">
<title>Node33&#45;&gt;Node12</title>
<path fill="none" stroke="midnightblue" d="M692.29,-320.01C679.46,-315.21 665,-309.58 652,-304 624.2,-292.06 592.81,-276.55 573.33,-266.68"/>
<polygon fill="midnightblue" stroke="midnightblue" points="691.13,-323.31 701.72,-323.5 693.55,-316.74 691.13,-323.31"/>
</g>
</g>
</svg>
