<?xml version="1.0" encoding="UTF-8" standalone="no"?>
<!DOCTYPE svg PUBLIC "-//W3C//DTD SVG 1.1//EN"
 "http://www.w3.org/Graphics/SVG/1.1/DTD/svg11.dtd">
<!-- Generated by graphviz version 2.43.0 (0)
 -->
<!-- Title: HttpParser::handleHeader Pages: 1 -->
<svg width="305pt" height="78pt"
 viewBox="0.00 0.00 305.00 77.50" xmlns="http://www.w3.org/2000/svg" xmlns:xlink="http://www.w3.org/1999/xlink">
<g id="graph0" class="graph" transform="scale(1 1) rotate(0) translate(4 73.5)">
<title>HttpParser::handleHeader</title>
<polygon fill="white" stroke="transparent" points="-4,4 -4,-73.5 301,-73.5 301,4 -4,4"/>
<!-- Node1 -->
<g id="node1" class="node">
<title>Node1</title>
<g id="a_node1"><a xlink:title=" ">
<polygon fill="#bfbfbf" stroke="black" points="0,-28 0,-47 130,-47 130,-28 0,-28"/>
<text text-anchor="middle" x="65" y="-35" font-family="Helvetica,sans-Serif" font-size="10.00">HttpParser::handleHeader</text>
</a>
</g>
</g>
<!-- Node2 -->
<g id="node2" class="node">
<title>Node2</title>
<g id="a_node2"><a xlink:href="classHttpRequest.html#a321d2ac0235127e7470d98795eb4a355" target="_top" xlink:title="Agrega un header al mapa. La clave debe venir ya normalizada en minúsculas.">
<polygon fill="white" stroke="black" points="166,-50 166,-69 297,-69 297,-50 166,-50"/>
<text text-anchor="middle" x="231.5" y="-57" font-family="Helvetica,sans-Serif" font-size="10.00">HttpRequest::addHeaders</text>
</a>
</g>
</g>
<!-- Node1&#45;&gt;Node2 -->
<g id="edge1" class="edge">
<title>Node1&#45;&gt;Node2</title>
<path fill="none" stroke="midnightblue" d="M130.07,-46.07C138.5,-47.2 147.2,-48.36 155.78,-49.51"/>
<polygon fill="midnightblue" stroke="midnightblue" points="155.42,-52.99 165.79,-50.85 156.34,-46.05 155.42,-52.99"/>
</g>
<!-- Node3 -->
<g id="node3" class="node">
<title>Node3</title>
<g id="a_node3"><a xlink:href="namespacehttp__header__utils.html#aa9b0e84aeed4203326a12eecbcd3f9e5" target="_top" xlink:title=" ">
<polygon fill="white" stroke="black" points="183,-0.5 183,-30.5 280,-30.5 280,-0.5 183,-0.5"/>
<text text-anchor="start" x="191" y="-18.5" font-family="Helvetica,sans-Serif" font-size="10.00">http_header_utils::</text>
<text text-anchor="middle" x="231.5" y="-7.5" font-family="Helvetica,sans-Serif" font-size="10.00">toLowerCopy</text>
</a>
</g>
</g>
<!-- Node1&#45;&gt;Node3 -->
<g id="edge2" class="edge">
<title>Node1&#45;&gt;Node3</title>
<path fill="none" stroke="midnightblue" d="M130.07,-28.93C144.09,-27.06 158.85,-25.08 172.61,-23.24"/>
<polygon fill="midnightblue" stroke="midnightblue" points="173.46,-26.66 182.91,-21.86 172.53,-19.72 173.46,-26.66"/>
</g>
</g>
</svg>
