<?xml version="1.0" encoding="UTF-8" standalone="no"?>
<!DOCTYPE svg PUBLIC "-//W3C//DTD SVG 1.1//EN"
 "http://www.w3.org/Graphics/SVG/1.1/DTD/svg11.dtd">
<!-- Generated by graphviz version 2.43.0 (0)
 -->
<!-- Title: ConfigParser::getConfFileDir Pages: 1 -->
<!--zoomable 134 -->
<svg id="main" version="1.1" xmlns="http://www.w3.org/2000/svg" xmlns:xlink="http://www.w3.org/1999/xlink" xml:space="preserve" onload="init(evt)">
<style type="text/css"><![CDATA[
.edge:hover path { stroke: red; }
.edge:hover polygon { stroke: red; fill: red; }
]]></style>
<script type="text/javascript"><![CDATA[
var edges = document.getElementsByTagName('g');
if (edges && edges.length) {
  for (var i=0;i<edges.length;i++) {
    if (edges[i].id.substr(0,4)=='edge') {
      edges[i].setAttribute('class','edge');
    }
  }
}
]]></script>
        <defs>
                <circle id="rim" cx="0" cy="0" r="7"/>
                <circle id="rim2" cx="0" cy="0" r="3.5"/>
                <g id="zoomPlus">
                        <use xlink:href="#rim" fill="#404040">
                                <set attributeName="fill" to="#808080" begin="zoomplus.mouseover" end="zoomplus.mouseout"/>
                        </use>
                        <path d="M-4,0h8M0,-4v8" fill="none" stroke="white" stroke-width="1.5" pointer-events="none"/>
                </g>
                <g id="zoomMin">
                        <use xlink:href="#rim" fill="#404040">
                                <set attributeName="fill" to="#808080" begin="zoomminus.mouseover" end="zoomminus.mouseout"/>
                        </use>
                        <path d="M-4,0h8" fill="none" stroke="white" stroke-width="1.5" pointer-events="none"/>
                </g>
                <g id="dirArrow">
                        <path fill="none" stroke="white" stroke-width="1.5" d="M0,-3.0v7 M-2.5,-0.5L0,-3.0L2.5,-0.5"/>
                </g>
               <g id="resetDef">
                       <use xlink:href="#rim2" fill="#404040">
                               <set attributeName="fill" to="#808080" begin="reset.mouseover" end="reset.mouseout"/>
                       </use>
               </g>
        </defs>

<script type="text/javascript">
var viewWidth = 1057;
var viewHeight = 134;
var sectionId = 'dynsection-2';
</script>
<script xlink:href="svgpan.js"/>
<svg id="graph" class="graph">
<g id="viewport">
<title>ConfigParser::getConfFileDir</title>
<polygon fill="white" stroke="transparent" points="-4,4 -4,-130.28 1053,-130.28 1053,4 -4,4"/>
<!-- Node1 -->
<g id="node1" class="node">
<title>Node1</title>
<g id="a_node1"><a xlink:title="Returns the directory part of the config file path.">
<polygon fill="#bfbfbf" stroke="black" points="906,-46.78 906,-65.78 1049,-65.78 1049,-46.78 906,-46.78"/>
<text text-anchor="middle" x="977.5" y="-53.78" font-family="Helvetica,sans-Serif" font-size="10.00">ConfigParser::getConfFileDir</text>
</a>
</g>
</g>
<!-- Node2 -->
<g id="node2" class="node">
<title>Node2</title>
<g id="a_node2"><a xlink:href="classConfigParser.html#a7ab80fb3ce52414448d41df88f94400a" target="_top" xlink:title=" ">
<polygon fill="white" stroke="black" points="743.5,-106.78 743.5,-125.78 862.5,-125.78 862.5,-106.78 743.5,-106.78"/>
<text text-anchor="middle" x="803" y="-113.78" font-family="Helvetica,sans-Serif" font-size="10.00">ConfigParser::parseCgi</text>
</a>
</g>
</g>
<!-- Node1&#45;&gt;Node2 -->
<g id="edge1" class="edge">
<title>Node1&#45;&gt;Node2</title>
<path fill="none" stroke="midnightblue" d="M939.59,-69.12C907.17,-80.4 860.74,-96.55 831.49,-106.72"/>
<polygon fill="midnightblue" stroke="midnightblue" points="940.87,-72.38 949.17,-65.79 938.57,-65.77 940.87,-72.38"/>
</g>
<!-- Node3 -->
<g id="node3" class="node">
<title>Node3</title>
<g id="a_node3"><a xlink:href="classConfigParser.html#a497afc5807db6d7f6092609c62cdd7ad" target="_top" xlink:title=" ">
<polygon fill="white" stroke="black" points="560,-52.28 560,-82.28 700,-82.28 700,-52.28 560,-52.28"/>
<text text-anchor="start" x="568" y="-70.28" font-family="Helvetica,sans-Serif" font-size="10.00">ConfigParser::parseLocation</text>
<text text-anchor="middle" x="630" y="-59.28" font-family="Helvetica,sans-Serif" font-size="10.00">Block</text>
</a>
</g>
</g>
<!-- Node1&#45;&gt;Node3 -->
<g id="edge7" class="edge">
<title>Node1&#45;&gt;Node3</title>
<path fill="none" stroke="midnightblue" d="M895.66,-58.86C836.33,-60.75 756.58,-63.29 700.18,-65.08"/>
<polygon fill="midnightblue" stroke="midnightblue" points="895.87,-62.35 905.75,-58.54 895.64,-55.36 895.87,-62.35"/>
</g>
<!-- Node8 -->
<g id="node8" class="node">
<title>Node8</title>
<g id="a_node8"><a xlink:href="classConfigParser.html#a8b154ff32d31129037f006c0776bd05f" target="_top" xlink:title=" ">
<polygon fill="white" stroke="black" points="567.5,-2.78 567.5,-21.78 692.5,-21.78 692.5,-2.78 567.5,-2.78"/>
<text text-anchor="middle" x="630" y="-9.78" font-family="Helvetica,sans-Serif" font-size="10.00">ConfigParser::parseRoot</text>
</a>
</g>
</g>
<!-- Node1&#45;&gt;Node8 -->
<g id="edge8" class="edge">
<title>Node1&#45;&gt;Node8</title>
<path fill="none" stroke="midnightblue" d="M951.75,-41.81C930.77,-30.43 899.5,-15.5 870,-9.28 810.72,3.21 741.32,0.48 692.62,-4.18"/>
<polygon fill="midnightblue" stroke="midnightblue" points="950.17,-44.94 960.61,-46.74 953.58,-38.82 950.17,-44.94"/>
</g>
<!-- Node9 -->
<g id="node9" class="node">
<title>Node9</title>
<g id="a_node9"><a xlink:href="classConfigParser.html#a5e88206a9aca177924981f1567eeaf37" target="_top" xlink:title=" ">
<polygon fill="white" stroke="black" points="736,-19.28 736,-49.28 870,-49.28 870,-19.28 736,-19.28"/>
<text text-anchor="start" x="744" y="-37.28" font-family="Helvetica,sans-Serif" font-size="10.00">ConfigParser::parseUpload</text>
<text text-anchor="middle" x="803" y="-26.28" font-family="Helvetica,sans-Serif" font-size="10.00">Bonus</text>
</a>
</g>
</g>
<!-- Node1&#45;&gt;Node9 -->
<g id="edge10" class="edge">
<title>Node1&#45;&gt;Node9</title>
<path fill="none" stroke="midnightblue" d="M895.79,-45.99C887.19,-44.89 878.51,-43.79 870.11,-42.72"/>
<polygon fill="midnightblue" stroke="midnightblue" points="895.48,-49.48 905.84,-47.27 896.36,-42.54 895.48,-49.48"/>
</g>
<!-- Node2&#45;&gt;Node3 -->
<g id="edge2" class="edge">
<title>Node2&#45;&gt;Node3</title>
<path fill="none" stroke="midnightblue" d="M758.85,-103.92C735.95,-97.36 707.63,-89.24 683.48,-82.32"/>
<polygon fill="midnightblue" stroke="midnightblue" points="758.05,-107.33 768.62,-106.72 759.97,-100.6 758.05,-107.33"/>
</g>
<!-- Node4 -->
<g id="node4" class="node">
<title>Node4</title>
<g id="a_node4"><a xlink:href="classConfigParser.html#a787a614f759e68dcd7ae0595df9b73e1" target="_top" xlink:title=" ">
<polygon fill="white" stroke="black" points="393,-19.28 393,-49.28 524,-49.28 524,-19.28 393,-19.28"/>
<text text-anchor="start" x="401" y="-37.28" font-family="Helvetica,sans-Serif" font-size="10.00">ConfigParser::parseSingle</text>
<text text-anchor="middle" x="458.5" y="-26.28" font-family="Helvetica,sans-Serif" font-size="10.00">ServerBlock</text>
</a>
</g>
</g>
<!-- Node3&#45;&gt;Node4 -->
<g id="edge3" class="edge">
<title>Node3&#45;&gt;Node4</title>
<path fill="none" stroke="midnightblue" d="M549.62,-51.83C541.1,-50.17 532.51,-48.5 524.19,-46.88"/>
<polygon fill="midnightblue" stroke="midnightblue" points="549.08,-55.29 559.57,-53.77 550.42,-48.42 549.08,-55.29"/>
</g>
<!-- Node5 -->
<g id="node5" class="node">
<title>Node5</title>
<g id="a_node5"><a xlink:href="classConfigParser.html#a49c9f8ad4f9ba802d27db330cf172e43" target="_top" xlink:title=" ">
<polygon fill="white" stroke="black" points="214,-19.28 214,-49.28 357,-49.28 357,-19.28 214,-19.28"/>
<text text-anchor="start" x="222" y="-37.28" font-family="Helvetica,sans-Serif" font-size="10.00">ConfigParser::parseAllServer</text>
<text text-anchor="middle" x="285.5" y="-26.28" font-family="Helvetica,sans-Serif" font-size="10.00">Blocks</text>
</a>
</g>
</g>
<!-- Node4&#45;&gt;Node5 -->
<g id="edge4" class="edge">
<title>Node4&#45;&gt;Node5</title>
<path fill="none" stroke="midnightblue" d="M382.65,-34.28C374.21,-34.28 365.63,-34.28 357.24,-34.28"/>
<polygon fill="midnightblue" stroke="midnightblue" points="382.85,-37.79 392.85,-34.28 382.85,-30.79 382.85,-37.79"/>
</g>
<!-- Node6 -->
<g id="node6" class="node">
<title>Node6</title>
<g id="a_node6"><a xlink:href="classConfigParser.html#a07493adaa4feb9beb085dcfe01af3e3c" target="_top" xlink:title="Parse the configuration file.">
<polygon fill="white" stroke="black" points="74,-24.78 74,-43.78 178,-43.78 178,-24.78 74,-24.78"/>
<text text-anchor="middle" x="126" y="-31.78" font-family="Helvetica,sans-Serif" font-size="10.00">ConfigParser::parse</text>
</a>
</g>
</g>
<!-- Node5&#45;&gt;Node6 -->
<g id="edge5" class="edge">
<title>Node5&#45;&gt;Node6</title>
<path fill="none" stroke="midnightblue" d="M203.49,-34.28C194.89,-34.28 186.32,-34.28 178.2,-34.28"/>
<polygon fill="midnightblue" stroke="midnightblue" points="203.58,-37.79 213.58,-34.28 203.58,-30.79 203.58,-37.79"/>
</g>
<!-- Node7 -->
<g id="node7" class="node">
<title>Node7</title>
<g id="a_node7"><a xlink:href="main_8cpp.html#a0ddf1224851353fc92bfbff6f499fa97" target="_top" xlink:title=" ">
<polygon fill="white" stroke="black" points="0,-24.78 0,-43.78 38,-43.78 38,-24.78 0,-24.78"/>
<text text-anchor="middle" x="19" y="-31.78" font-family="Helvetica,sans-Serif" font-size="10.00">main</text>
</a>
</g>
</g>
<!-- Node6&#45;&gt;Node7 -->
<g id="edge6" class="edge">
<title>Node6&#45;&gt;Node7</title>
<path fill="none" stroke="midnightblue" d="M63.64,-34.28C54.43,-34.28 45.6,-34.28 38.31,-34.28"/>
<polygon fill="midnightblue" stroke="midnightblue" points="63.73,-37.79 73.73,-34.28 63.73,-30.79 63.73,-37.79"/>
</g>
<!-- Node8&#45;&gt;Node4 -->
<g id="edge9" class="edge">
<title>Node8&#45;&gt;Node4</title>
<path fill="none" stroke="midnightblue" d="M557.35,-21.58C546.37,-23.01 535.09,-24.47 524.26,-25.88"/>
<polygon fill="midnightblue" stroke="midnightblue" points="557.86,-25.05 567.33,-20.29 556.96,-18.11 557.86,-25.05"/>
</g>
<!-- Node9&#45;&gt;Node3 -->
<g id="edge11" class="edge">
<title>Node9&#45;&gt;Node3</title>
<path fill="none" stroke="midnightblue" d="M725.87,-48.98C717.28,-50.64 708.55,-52.32 700.05,-53.96"/>
<polygon fill="midnightblue" stroke="midnightblue" points="726.73,-52.38 735.89,-47.04 725.4,-45.5 726.73,-52.38"/>
</g>
</g>
</svg>
        <g id="navigator" transform="translate(0 0)" fill="#404254">
                <rect fill="#f2f5e9" fill-opacity="0.5" stroke="#606060" stroke-width=".5" x="0" y="0" width="60" height="60"/>
                <use id="zoomplus" xlink:href="#zoomPlus" x="17" y="9" onmousedown="handleZoom(evt,'in')"/>
                <use id="zoomminus" xlink:href="#zoomMin" x="42" y="9" onmousedown="handleZoom(evt,'out')"/>
                <use id="reset" xlink:href="#resetDef" x="30" y="36" onmousedown="handleReset()"/>
                <g id="arrowUp" xlink:href="#dirArrow" transform="translate(30 24)" onmousedown="handlePan(0,-1)">
                  <use xlink:href="#rim" fill="#404040">
                        <set attributeName="fill" to="#808080" begin="arrowUp.mouseover" end="arrowUp.mouseout"/>
                  </use>
                  <path fill="none" stroke="white" stroke-width="1.5" d="M0,-3.0v7 M-2.5,-0.5L0,-3.0L2.5,-0.5"/>
                </g>
                <g id="arrowRight" xlink:href="#dirArrow" transform="rotate(90) translate(36 -43)" onmousedown="handlePan(1,0)">
                  <use xlink:href="#rim" fill="#404040">
                        <set attributeName="fill" to="#808080" begin="arrowRight.mouseover" end="arrowRight.mouseout"/>
                  </use>
                  <path fill="none" stroke="white" stroke-width="1.5" d="M0,-3.0v7 M-2.5,-0.5L0,-3.0L2.5,-0.5"/>
                </g>
                <g id="arrowDown" xlink:href="#dirArrow" transform="rotate(180) translate(-30 -48)" onmousedown="handlePan(0,1)">
                  <use xlink:href="#rim" fill="#404040">
                        <set attributeName="fill" to="#808080" begin="arrowDown.mouseover" end="arrowDown.mouseout"/>
                  </use>
                  <path fill="none" stroke="white" stroke-width="1.5" d="M0,-3.0v7 M-2.5,-0.5L0,-3.0L2.5,-0.5"/>
                </g>
                <g id="arrowLeft" xlink:href="#dirArrow" transform="rotate(270) translate(-36 17)" onmousedown="handlePan(-1,0)">
                  <use xlink:href="#rim" fill="#404040">
                        <set attributeName="fill" to="#808080" begin="arrowLeft.mouseover" end="arrowLeft.mouseout"/>
                  </use>
                  <path fill="none" stroke="white" stroke-width="1.5" d="M0,-3.0v7 M-2.5,-0.5L0,-3.0L2.5,-0.5"/>
                </g>
        </g>
        <svg viewBox="0 0 15 15" width="100%" height="30px" preserveAspectRatio="xMaxYMin meet">
         <g id="arrow_out" transform="scale(0.3 0.3)">
          <a xlink:href="classConfigParser_a84e1b9e32f9be2aee1bff8a78c8c0f67_icgraph_org.svg" target="_base">
           <rect id="button" ry="5" rx="5" y="6" x="6" height="38" width="38"
                fill="#f2f5e9" fill-opacity="0.5" stroke="#606060" stroke-width="1.0"/>
           <path id="arrow"
             d="M 11.500037,31.436501 C 11.940474,20.09759 22.043105,11.32322 32.158766,21.979434 L 37.068811,17.246167 C 37.068811,17.246167 37.088388,32 37.088388,32 L 22.160133,31.978069 C 22.160133,31.978069 26.997745,27.140456 26.997745,27.140456 C 18.528582,18.264221 13.291696,25.230495 11.500037,31.436501 z"
             style="fill:#404040;"/>
          </a>
         </g>
        </svg>
</svg>
