<?xml version="1.0" encoding="UTF-8" standalone="no"?>
<!DOCTYPE svg PUBLIC "-//W3C//DTD SVG 1.1//EN"
 "http://www.w3.org/Graphics/SVG/1.1/DTD/svg11.dtd">
<!-- Generated by graphviz version 2.43.0 (0)
 -->
<!-- Title: ConfigParser::parseMaxSizeBody Pages: 1 -->
<svg width="370pt" height="104pt"
 viewBox="0.00 0.00 370.00 104.00" xmlns="http://www.w3.org/2000/svg" xmlns:xlink="http://www.w3.org/1999/xlink">
<g id="graph0" class="graph" transform="scale(1 1) rotate(0) translate(4 100)">
<title>ConfigParser::parseMaxSizeBody</title>
<polygon fill="white" stroke="transparent" points="-4,4 -4,-100 366,-100 366,4 -4,4"/>
<!-- Node1 -->
<g id="node1" class="node">
<title>Node1</title>
<g id="a_node1"><a xlink:title=" ">
<polygon fill="#bfbfbf" stroke="black" points="0,-38.5 0,-57.5 164,-57.5 164,-38.5 0,-38.5"/>
<text text-anchor="middle" x="82" y="-45.5" font-family="Helvetica,sans-Serif" font-size="10.00">ConfigParser::parseMaxSizeBody</text>
</a>
</g>
</g>
<!-- Node2 -->
<g id="node2" class="node">
<title>Node2</title>
<g id="a_node2"><a xlink:href="namespaceconfig_1_1utils.html#a96caccf198f01c5290f601944e037e1b" target="_top" xlink:title="Parses a size string (e.g., &quot;1k&quot;, &quot;1m&quot;) into bytes.">
<polygon fill="white" stroke="black" points="223,-76.5 223,-95.5 339,-95.5 339,-76.5 223,-76.5"/>
<text text-anchor="middle" x="281" y="-83.5" font-family="Helvetica,sans-Serif" font-size="10.00">config::utils::parseSize</text>
</a>
</g>
</g>
<!-- Node1&#45;&gt;Node2 -->
<g id="edge1" class="edge">
<title>Node1&#45;&gt;Node2</title>
<path fill="none" stroke="midnightblue" d="M132.46,-57.54C159.15,-62.69 192.3,-69.08 220.42,-74.51"/>
<polygon fill="midnightblue" stroke="midnightblue" points="220.04,-78 230.52,-76.46 221.37,-71.13 220.04,-78"/>
</g>
<!-- Node3 -->
<g id="node3" class="node">
<title>Node3</title>
<g id="a_node3"><a xlink:href="namespaceconfig_1_1utils.html#a4c504c996325f8d62e08d878b037e975" target="_top" xlink:title="Removes the trailing semicolon from a string if present.">
<polygon fill="white" stroke="black" points="205.5,-38.5 205.5,-57.5 356.5,-57.5 356.5,-38.5 205.5,-38.5"/>
<text text-anchor="middle" x="281" y="-45.5" font-family="Helvetica,sans-Serif" font-size="10.00">config::utils::removeSemicolon</text>
</a>
</g>
</g>
<!-- Node1&#45;&gt;Node3 -->
<g id="edge2" class="edge">
<title>Node1&#45;&gt;Node3</title>
<path fill="none" stroke="midnightblue" d="M164.26,-48C174.44,-48 184.87,-48 195.1,-48"/>
<polygon fill="midnightblue" stroke="midnightblue" points="195.24,-51.5 205.24,-48 195.24,-44.5 195.24,-51.5"/>
</g>
<!-- Node4 -->
<g id="node4" class="node">
<title>Node4</title>
<g id="a_node4"><a xlink:href="classLocationConfig.html#a580d594c0b08f00f67cfddd1a7fa842c" target="_top" xlink:title=" ">
<polygon fill="white" stroke="black" points="200,-0.5 200,-19.5 362,-19.5 362,-0.5 200,-0.5"/>
<text text-anchor="middle" x="281" y="-7.5" font-family="Helvetica,sans-Serif" font-size="10.00">LocationConfig::setMaxBodySize</text>
</a>
</g>
</g>
<!-- Node1&#45;&gt;Node4 -->
<g id="edge3" class="edge">
<title>Node1&#45;&gt;Node4</title>
<path fill="none" stroke="midnightblue" d="M132.46,-38.46C159.15,-33.31 192.3,-26.92 220.42,-21.49"/>
<polygon fill="midnightblue" stroke="midnightblue" points="221.37,-24.87 230.52,-19.54 220.04,-18 221.37,-24.87"/>
</g>
</g>
</svg>
