<?xml version="1.0" encoding="UTF-8" standalone="no"?>
<!DOCTYPE svg PUBLIC "-//W3C//DTD SVG 1.1//EN"
 "http://www.w3.org/Graphics/SVG/1.1/DTD/svg11.dtd">
<!-- Generated by graphviz version 2.43.0 (0)
 -->
<!-- Title: SessionManager::getOrCreateSession Pages: 1 -->
<svg width="532pt" height="72pt"
 viewBox="0.00 0.00 532.00 71.50" xmlns="http://www.w3.org/2000/svg" xmlns:xlink="http://www.w3.org/1999/xlink">
<g id="graph0" class="graph" transform="scale(1 1) rotate(0) translate(4 67.5)">
<title>SessionManager::getOrCreateSession</title>
<polygon fill="white" stroke="transparent" points="-4,4 -4,-67.5 528,-67.5 528,4 -4,4"/>
<!-- Node1 -->
<g id="node1" class="node">
<title>Node1</title>
<g id="a_node1"><a xlink:title=" ">
<polygon fill="#bfbfbf" stroke="black" points="0,-19.5 0,-49.5 149,-49.5 149,-19.5 0,-19.5"/>
<text text-anchor="start" x="8" y="-37.5" font-family="Helvetica,sans-Serif" font-size="10.00">SessionManager::getOrCreate</text>
<text text-anchor="middle" x="74.5" y="-26.5" font-family="Helvetica,sans-Serif" font-size="10.00">Session</text>
</a>
</g>
</g>
<!-- Node2 -->
<g id="node2" class="node">
<title>Node2</title>
<g id="a_node2"><a xlink:href="classSessionManager.html#ad3285046f03747a5e1bf55419157f4c3" target="_top" xlink:title=" ">
<polygon fill="white" stroke="black" points="185,-44 185,-63 355,-63 355,-44 185,-44"/>
<text text-anchor="middle" x="270" y="-51" font-family="Helvetica,sans-Serif" font-size="10.00">SessionManager::cleanupSessions</text>
</a>
</g>
</g>
<!-- Node1&#45;&gt;Node2 -->
<g id="edge1" class="edge">
<title>Node1&#45;&gt;Node2</title>
<path fill="none" stroke="midnightblue" d="M149.21,-41.74C157.57,-42.56 166.18,-43.4 174.77,-44.25"/>
<polygon fill="midnightblue" stroke="midnightblue" points="174.53,-47.74 184.82,-45.23 175.21,-40.77 174.53,-47.74"/>
</g>
<!-- Node3 -->
<g id="node3" class="node">
<title>Node3</title>
<g id="a_node3"><a xlink:href="classSessionManager.html#a31a15513b01aec26f8fdc063d3c1a980" target="_top" xlink:title=" ">
<polygon fill="white" stroke="black" points="191,-6 191,-25 349,-25 349,-6 191,-6"/>
<text text-anchor="middle" x="270" y="-13" font-family="Helvetica,sans-Serif" font-size="10.00">SessionManager::createSession</text>
</a>
</g>
</g>
<!-- Node1&#45;&gt;Node3 -->
<g id="edge2" class="edge">
<title>Node1&#45;&gt;Node3</title>
<path fill="none" stroke="midnightblue" d="M149.21,-27.26C159.57,-26.25 170.3,-25.19 180.89,-24.15"/>
<polygon fill="midnightblue" stroke="midnightblue" points="181.38,-27.62 190.99,-23.16 180.7,-20.65 181.38,-27.62"/>
</g>
<!-- Node4 -->
<g id="node4" class="node">
<title>Node4</title>
<g id="a_node4"><a xlink:href="classSessionManager.html#a3bc1f0230d9e7503ff891c4809bbf87a" target="_top" xlink:title=" ">
<polygon fill="white" stroke="black" points="391,-0.5 391,-30.5 524,-30.5 524,-0.5 391,-0.5"/>
<text text-anchor="start" x="399" y="-18.5" font-family="Helvetica,sans-Serif" font-size="10.00">SessionManager::generate</text>
<text text-anchor="middle" x="457.5" y="-7.5" font-family="Helvetica,sans-Serif" font-size="10.00">SessionId</text>
</a>
</g>
</g>
<!-- Node3&#45;&gt;Node4 -->
<g id="edge3" class="edge">
<title>Node3&#45;&gt;Node4</title>
<path fill="none" stroke="midnightblue" d="M349.13,-15.5C359.53,-15.5 370.18,-15.5 380.53,-15.5"/>
<polygon fill="midnightblue" stroke="midnightblue" points="380.78,-19 390.78,-15.5 380.78,-12 380.78,-19"/>
</g>
</g>
</svg>
