<?xml version="1.0" encoding="UTF-8" standalone="no"?>
<!DOCTYPE svg PUBLIC "-//W3C//DTD SVG 1.1//EN"
 "http://www.w3.org/Graphics/SVG/1.1/DTD/svg11.dtd">
<!-- Generated by graphviz version 2.43.0 (0)
 -->
<!-- Title: HttpResponse::setContentType Pages: 1 -->
<!--zoomable 494 -->
<svg id="main" version="1.1" xmlns="http://www.w3.org/2000/svg" xmlns:xlink="http://www.w3.org/1999/xlink" xml:space="preserve" onload="init(evt)">
<style type="text/css"><![CDATA[
.edge:hover path { stroke: red; }
.edge:hover polygon { stroke: red; fill: red; }
]]></style>
<script type="text/javascript"><![CDATA[
var edges = document.getElementsByTagName('g');
if (edges && edges.length) {
  for (var i=0;i<edges.length;i++) {
    if (edges[i].id.substr(0,4)=='edge') {
      edges[i].setAttribute('class','edge');
    }
  }
}
]]></script>
        <defs>
                <circle id="rim" cx="0" cy="0" r="7"/>
                <circle id="rim2" cx="0" cy="0" r="3.5"/>
                <g id="zoomPlus">
                        <use xlink:href="#rim" fill="#404040">
                                <set attributeName="fill" to="#808080" begin="zoomplus.mouseover" end="zoomplus.mouseout"/>
                        </use>
                        <path d="M-4,0h8M0,-4v8" fill="none" stroke="white" stroke-width="1.5" pointer-events="none"/>
                </g>
                <g id="zoomMin">
                        <use xlink:href="#rim" fill="#404040">
                                <set attributeName="fill" to="#808080" begin="zoomminus.mouseover" end="zoomminus.mouseout"/>
                        </use>
                        <path d="M-4,0h8" fill="none" stroke="white" stroke-width="1.5" pointer-events="none"/>
                </g>
                <g id="dirArrow">
                        <path fill="none" stroke="white" stroke-width="1.5" d="M0,-3.0v7 M-2.5,-0.5L0,-3.0L2.5,-0.5"/>
                </g>
               <g id="resetDef">
                       <use xlink:href="#rim2" fill="#404040">
                               <set attributeName="fill" to="#808080" begin="reset.mouseover" end="reset.mouseout"/>
                       </use>
               </g>
        </defs>

<script type="text/javascript">
var viewWidth = 1966;
var viewHeight = 494;
var sectionId = 'dynsection-9';
</script>
<script xlink:href="svgpan.js"/>
<svg id="graph" class="graph">
<g id="viewport">
<title>HttpResponse::setContentType</title>
<polygon fill="white" stroke="transparent" points="-4,4 -4,-489.79 1962,-489.79 1962,4 -4,4"/>
<!-- Node1 -->
<g id="node1" class="node">
<title>Node1</title>
<g id="a_node1"><a xlink:title=" ">
<polygon fill="#bfbfbf" stroke="black" points="1803,-333.29 1803,-352.29 1958,-352.29 1958,-333.29 1803,-333.29"/>
<text text-anchor="middle" x="1880.5" y="-340.29" font-family="Helvetica,sans-Serif" font-size="10.00">HttpResponse::setContentType</text>
</a>
</g>
</g>
<!-- Node2 -->
<g id="node2" class="node">
<title>Node2</title>
<g id="a_node2"><a xlink:href="ErrorUtils_8cpp.html#a470416220aa911b8f1274140a8322e7a" target="_top" xlink:title=" ">
<polygon fill="white" stroke="black" points="1536,-276.29 1536,-295.29 1638,-295.29 1638,-276.29 1536,-276.29"/>
<text text-anchor="middle" x="1587" y="-283.29" font-family="Helvetica,sans-Serif" font-size="10.00">buildErrorResponse</text>
</a>
</g>
</g>
<!-- Node1&#45;&gt;Node2 -->
<g id="edge1" class="edge">
<title>Node1&#45;&gt;Node2</title>
<path fill="none" stroke="midnightblue" d="M1814.87,-331.43C1774.34,-324.16 1721.04,-314.33 1674,-304.79 1659.61,-301.87 1643.92,-298.47 1629.93,-295.36"/>
<polygon fill="midnightblue" stroke="midnightblue" points="1814.42,-334.91 1824.88,-333.22 1815.66,-328.02 1814.42,-334.91"/>
</g>
<!-- Node16 -->
<g id="node16" class="node">
<title>Node16</title>
<g id="a_node16"><a xlink:href="StaticPathHandler_8cpp.html#a28a771d93d3051098585ebc34ed29855" target="_top" xlink:title=" ">
<polygon fill="white" stroke="black" points="1391.5,-428.29 1391.5,-447.29 1476.5,-447.29 1476.5,-428.29 1391.5,-428.29"/>
<text text-anchor="middle" x="1434" y="-435.29" font-family="Helvetica,sans-Serif" font-size="10.00">handleDirectory</text>
</a>
</g>
</g>
<!-- Node1&#45;&gt;Node16 -->
<g id="edge38" class="edge">
<title>Node1&#45;&gt;Node16</title>
<path fill="none" stroke="midnightblue" d="M1824.84,-354.47C1734.83,-373.71 1557.38,-411.63 1476.7,-428.88"/>
<polygon fill="midnightblue" stroke="midnightblue" points="1825.8,-357.85 1834.84,-352.33 1824.33,-351 1825.8,-357.85"/>
</g>
<!-- Node20 -->
<g id="node20" class="node">
<title>Node20</title>
<g id="a_node20"><a xlink:href="StaticPathHandler_8cpp.html#a5af8659f0f83e8296b29264dd671af0d" target="_top" xlink:title=" ">
<polygon fill="white" stroke="black" points="1386.5,-466.29 1386.5,-485.29 1481.5,-485.29 1481.5,-466.29 1386.5,-466.29"/>
<text text-anchor="middle" x="1434" y="-473.29" font-family="Helvetica,sans-Serif" font-size="10.00">handleRegularFile</text>
</a>
</g>
</g>
<!-- Node1&#45;&gt;Node20 -->
<g id="edge39" class="edge">
<title>Node1&#45;&gt;Node20</title>
<path fill="none" stroke="midnightblue" d="M1850.24,-356.73C1827.81,-367.06 1795.9,-380.99 1767,-390.79 1666.99,-424.71 1546.06,-452.45 1481.29,-466.28"/>
<polygon fill="midnightblue" stroke="midnightblue" points="1851.95,-359.8 1859.54,-352.41 1849,-353.45 1851.95,-359.8"/>
</g>
<!-- Node22 -->
<g id="node22" class="node">
<title>Node22</title>
<g id="a_node22"><a xlink:href="ResponseUtils_8cpp.html#ab7c2cb6fbf297c09ec402182b04584c6" target="_top" xlink:title=" ">
<polygon fill="white" stroke="black" points="1674,-276.29 1674,-295.29 1767,-295.29 1767,-276.29 1674,-276.29"/>
<text text-anchor="middle" x="1720.5" y="-283.29" font-family="Helvetica,sans-Serif" font-size="10.00">fillBaseResponse</text>
</a>
</g>
</g>
<!-- Node1&#45;&gt;Node22 -->
<g id="edge33" class="edge">
<title>Node1&#45;&gt;Node22</title>
<path fill="none" stroke="midnightblue" d="M1843.28,-329.72C1814.24,-319.25 1774.15,-304.78 1748.03,-295.36"/>
<polygon fill="midnightblue" stroke="midnightblue" points="1842.46,-333.15 1853.05,-333.25 1844.84,-326.56 1842.46,-333.15"/>
</g>
<!-- Node3 -->
<g id="node3" class="node">
<title>Node3</title>
<g id="a_node3"><a xlink:href="classClient.html#a3b000abab7a3fe339f0f39ad5daca68f" target="_top" xlink:title=" ">
<polygon fill="white" stroke="black" points="1371.5,-124.29 1371.5,-143.29 1496.5,-143.29 1496.5,-124.29 1371.5,-124.29"/>
<text text-anchor="middle" x="1434" y="-131.29" font-family="Helvetica,sans-Serif" font-size="10.00">Client::checkCgiTimeout</text>
</a>
</g>
</g>
<!-- Node2&#45;&gt;Node3 -->
<g id="edge2" class="edge">
<title>Node2&#45;&gt;Node3</title>
<path fill="none" stroke="midnightblue" d="M1577.97,-266.93C1565.28,-239.27 1538.07,-187.73 1500,-157.79 1492.15,-151.62 1482.56,-146.92 1473.18,-143.4"/>
<polygon fill="midnightblue" stroke="midnightblue" points="1574.85,-268.55 1582.11,-276.27 1581.25,-265.71 1574.85,-268.55"/>
</g>
<!-- Node4 -->
<g id="node4" class="node">
<title>Node4</title>
<g id="a_node4"><a xlink:href="classClient.html#ae523ed90bd32b88e539ebdf30746382b" target="_top" xlink:title=" ">
<polygon fill="white" stroke="black" points="1023.5,-238.29 1023.5,-257.29 1136.5,-257.29 1136.5,-238.29 1023.5,-238.29"/>
<text text-anchor="middle" x="1080" y="-245.29" font-family="Helvetica,sans-Serif" font-size="10.00">Client::dispatchAction</text>
</a>
</g>
</g>
<!-- Node2&#45;&gt;Node4 -->
<g id="edge3" class="edge">
<title>Node2&#45;&gt;Node4</title>
<path fill="none" stroke="midnightblue" d="M1525.62,-281.25C1426.92,-273.82 1232.44,-259.19 1136.8,-251.99"/>
<polygon fill="midnightblue" stroke="midnightblue" points="1525.5,-284.75 1535.73,-282.01 1526.02,-277.77 1525.5,-284.75"/>
</g>
<!-- Node11 -->
<g id="node11" class="node">
<title>Node11</title>
<g id="a_node11"><a xlink:href="classClient.html#a09d6029b60ae8c9773362968e72f2e54" target="_top" xlink:title=" ">
<polygon fill="white" stroke="black" points="317,-347.29 317,-366.29 455,-366.29 455,-347.29 317,-347.29"/>
<text text-anchor="middle" x="386" y="-354.29" font-family="Helvetica,sans-Serif" font-size="10.00">Client::finalizeCgiResponse</text>
</a>
</g>
</g>
<!-- Node2&#45;&gt;Node11 -->
<g id="edge12" class="edge">
<title>Node2&#45;&gt;Node11</title>
<path fill="none" stroke="midnightblue" d="M1556.8,-300.29C1549.82,-304.1 1542.52,-308.38 1536,-312.79 1518.75,-324.46 1519.29,-334.93 1500,-342.79 1400.7,-383.24 1366.72,-361.79 1259.5,-361.79 1259.5,-361.79 1259.5,-361.79 728.5,-361.79 633.63,-361.79 523.95,-359.84 455.03,-358.37"/>
<polygon fill="midnightblue" stroke="midnightblue" points="1558.79,-303.2 1566,-295.43 1555.52,-297.01 1558.79,-303.2"/>
</g>
<!-- Node12 -->
<g id="node12" class="node">
<title>Node12</title>
<g id="a_node12"><a xlink:href="classRequestProcessor.html#a79915b1a2fda205b7d5a6c92e5e3fce8" target="_top" xlink:title=" ">
<polygon fill="white" stroke="black" points="1185,-104.29 1185,-123.29 1332,-123.29 1332,-104.29 1185,-104.29"/>
<text text-anchor="middle" x="1258.5" y="-111.29" font-family="Helvetica,sans-Serif" font-size="10.00">RequestProcessor::handleCgi</text>
</a>
</g>
</g>
<!-- Node2&#45;&gt;Node12 -->
<g id="edge13" class="edge">
<title>Node2&#45;&gt;Node12</title>
<path fill="none" stroke="midnightblue" d="M1579.22,-266.54C1564.38,-225.59 1528.07,-132.17 1500,-114.79 1434.86,-74.45 1339.54,-91.43 1290.77,-104.28"/>
<polygon fill="midnightblue" stroke="midnightblue" points="1575.93,-267.72 1582.59,-275.95 1582.52,-265.36 1575.93,-267.72"/>
</g>
<!-- Node13 -->
<g id="node13" class="node">
<title>Node13</title>
<g id="a_node13"><a xlink:href="classRequestProcessor.html#a3fa9c97a7d142a7b607002138de87140" target="_top" xlink:title=" ">
<polygon fill="white" stroke="black" points="1011,-167.29 1011,-186.29 1149,-186.29 1149,-167.29 1011,-167.29"/>
<text text-anchor="middle" x="1080" y="-174.29" font-family="Helvetica,sans-Serif" font-size="10.00">RequestProcessor::process</text>
</a>
</g>
</g>
<!-- Node2&#45;&gt;Node13 -->
<g id="edge32" class="edge">
<title>Node2&#45;&gt;Node13</title>
<path fill="none" stroke="midnightblue" d="M1535.72,-273.93C1524,-271.21 1511.57,-268.36 1500,-265.79 1364.8,-235.71 1204.54,-202.29 1127.25,-186.31"/>
<polygon fill="midnightblue" stroke="midnightblue" points="1535.25,-277.41 1545.78,-276.27 1536.84,-270.59 1535.25,-277.41"/>
</g>
<!-- Node14 -->
<g id="node14" class="node">
<title>Node14</title>
<g id="a_node14"><a xlink:href="classClient.html#a4104efd3f5f7e1c0f3e3302b46861624" target="_top" xlink:title=" ">
<polygon fill="white" stroke="black" points="1378.5,-390.29 1378.5,-409.29 1489.5,-409.29 1489.5,-390.29 1378.5,-390.29"/>
<text text-anchor="middle" x="1434" y="-397.29" font-family="Helvetica,sans-Serif" font-size="10.00">Client::handleCgiPipe</text>
</a>
</g>
</g>
<!-- Node2&#45;&gt;Node14 -->
<g id="edge17" class="edge">
<title>Node2&#45;&gt;Node14</title>
<path fill="none" stroke="midnightblue" d="M1565.4,-301.88C1556.02,-309.6 1545.03,-319.23 1536,-328.79 1517.93,-347.91 1521.18,-360.17 1500,-375.79 1491.67,-381.93 1481.61,-386.65 1471.91,-390.22"/>
<polygon fill="midnightblue" stroke="midnightblue" points="1567.86,-304.38 1573.45,-295.38 1563.47,-298.93 1567.86,-304.38"/>
</g>
<!-- Node2&#45;&gt;Node16 -->
<g id="edge20" class="edge">
<title>Node2&#45;&gt;Node16</title>
<path fill="none" stroke="midnightblue" d="M1562.97,-301.75C1553.63,-309.12 1543.34,-318.52 1536,-328.79 1510.95,-363.84 1531.89,-389.83 1500,-418.79 1493.47,-424.72 1485.19,-428.8 1476.74,-431.62"/>
<polygon fill="midnightblue" stroke="midnightblue" points="1565.28,-304.39 1571.17,-295.58 1561.07,-298.79 1565.28,-304.39"/>
</g>
<!-- Node17 -->
<g id="node17" class="node">
<title>Node17</title>
<g id="a_node17"><a xlink:href="StaticPathHandler_8cpp.html#a4e092999675b45373270f5408cbe64c7" target="_top" xlink:title=" ">
<polygon fill="white" stroke="black" points="1213,-314.29 1213,-333.29 1304,-333.29 1304,-314.29 1213,-314.29"/>
<text text-anchor="middle" x="1258.5" y="-321.29" font-family="Helvetica,sans-Serif" font-size="10.00">handleStaticPath</text>
</a>
</g>
</g>
<!-- Node2&#45;&gt;Node17 -->
<g id="edge29" class="edge">
<title>Node2&#45;&gt;Node17</title>
<path fill="none" stroke="midnightblue" d="M1525.44,-289.66C1481.61,-292.8 1421.01,-297.85 1368,-304.79 1346.95,-307.54 1323.76,-311.48 1304.24,-315.06"/>
<polygon fill="midnightblue" stroke="midnightblue" points="1525.92,-293.13 1535.65,-288.94 1525.42,-286.15 1525.92,-293.13"/>
</g>
<!-- Node18 -->
<g id="node18" class="node">
<title>Node18</title>
<g id="a_node18"><a xlink:href="classRequestProcessor.html#a606f9c02a3166ca58e6930f8d292d81c" target="_top" xlink:title=" ">
<polygon fill="white" stroke="black" points="1368,-36.79 1368,-66.79 1500,-66.79 1500,-36.79 1368,-36.79"/>
<text text-anchor="start" x="1376" y="-54.79" font-family="Helvetica,sans-Serif" font-size="10.00">RequestProcessor::handle</text>
<text text-anchor="middle" x="1434" y="-43.79" font-family="Helvetica,sans-Serif" font-size="10.00">LocationValidation</text>
</a>
</g>
</g>
<!-- Node2&#45;&gt;Node18 -->
<g id="edge23" class="edge">
<title>Node2&#45;&gt;Node18</title>
<path fill="none" stroke="midnightblue" d="M1578.21,-266.81C1557.69,-216.87 1503.46,-85.37 1500,-81.79 1494.21,-75.8 1487,-70.9 1479.51,-66.91"/>
<polygon fill="midnightblue" stroke="midnightblue" points="1575.01,-268.23 1582.05,-276.15 1581.49,-265.57 1575.01,-268.23"/>
</g>
<!-- Node19 -->
<g id="node19" class="node">
<title>Node19</title>
<g id="a_node19"><a xlink:href="classRequestProcessor.html#a10779d8453416feeda2174859c00d082" target="_top" xlink:title=" ">
<polygon fill="white" stroke="black" points="1192.5,-150.79 1192.5,-180.79 1324.5,-180.79 1324.5,-150.79 1192.5,-150.79"/>
<text text-anchor="start" x="1200.5" y="-168.79" font-family="Helvetica,sans-Serif" font-size="10.00">RequestProcessor::handle</text>
<text text-anchor="middle" x="1258.5" y="-157.79" font-family="Helvetica,sans-Serif" font-size="10.00">ParseOrMethodErrors</text>
</a>
</g>
</g>
<!-- Node2&#45;&gt;Node19 -->
<g id="edge25" class="edge">
<title>Node2&#45;&gt;Node19</title>
<path fill="none" stroke="midnightblue" d="M1574.48,-267.68C1559.93,-246.52 1532.79,-212.29 1500,-195.79 1445.31,-168.28 1375.1,-162.35 1324.67,-162.35"/>
<polygon fill="midnightblue" stroke="midnightblue" points="1571.64,-269.73 1580.09,-276.12 1577.47,-265.86 1571.64,-269.73"/>
</g>
<!-- Node2&#45;&gt;Node20 -->
<g id="edge27" class="edge">
<title>Node2&#45;&gt;Node20</title>
<path fill="none" stroke="midnightblue" d="M1581.53,-305.75C1572.48,-341.45 1548.61,-416.29 1500,-456.79 1494.67,-461.23 1488.35,-464.63 1481.77,-467.24"/>
<polygon fill="midnightblue" stroke="midnightblue" points="1585.03,-306.16 1583.96,-295.62 1578.22,-304.53 1585.03,-306.16"/>
</g>
<!-- Node21 -->
<g id="node21" class="node">
<title>Node21</title>
<g id="a_node21"><a xlink:href="StaticPathHandler_8cpp.html#a638cb25cad6c24877a0e75984110ea7a" target="_top" xlink:title=" ">
<polygon fill="white" stroke="black" points="1396,-314.29 1396,-333.29 1472,-333.29 1472,-314.29 1396,-314.29"/>
<text text-anchor="middle" x="1434" y="-321.29" font-family="Helvetica,sans-Serif" font-size="10.00">handleUpload</text>
</a>
</g>
</g>
<!-- Node2&#45;&gt;Node21 -->
<g id="edge30" class="edge">
<title>Node2&#45;&gt;Node21</title>
<path fill="none" stroke="midnightblue" d="M1538.04,-297.86C1516.69,-303.23 1491.94,-309.46 1472.05,-314.47"/>
<polygon fill="midnightblue" stroke="midnightblue" points="1539.05,-301.21 1547.9,-295.38 1537.34,-294.43 1539.05,-301.21"/>
</g>
<!-- Node5 -->
<g id="node5" class="node">
<title>Node5</title>
<g id="a_node5"><a xlink:href="classClient.html#a419f8f3253d3f71287044e3999a5d600" target="_top" xlink:title=" ">
<polygon fill="white" stroke="black" points="852.5,-238.29 852.5,-257.29 965.5,-257.29 965.5,-238.29 852.5,-238.29"/>
<text text-anchor="middle" x="909" y="-245.29" font-family="Helvetica,sans-Serif" font-size="10.00">Client::buildResponse</text>
</a>
</g>
</g>
<!-- Node4&#45;&gt;Node5 -->
<g id="edge4" class="edge">
<title>Node4&#45;&gt;Node5</title>
<path fill="none" stroke="midnightblue" d="M1013.07,-247.79C997.42,-247.79 980.89,-247.79 965.75,-247.79"/>
<polygon fill="midnightblue" stroke="midnightblue" points="1013.19,-251.29 1023.19,-247.79 1013.19,-244.29 1013.19,-251.29"/>
</g>
<!-- Node6 -->
<g id="node6" class="node">
<title>Node6</title>
<g id="a_node6"><a xlink:href="classClient.html#abcf615f2514ae7e0266315693e73a31a" target="_top" xlink:title=" ">
<polygon fill="white" stroke="black" points="652,-243.29 652,-262.29 807,-262.29 807,-243.29 652,-243.29"/>
<text text-anchor="middle" x="729.5" y="-250.29" font-family="Helvetica,sans-Serif" font-size="10.00">Client::handleCompleteRequest</text>
</a>
</g>
</g>
<!-- Node5&#45;&gt;Node6 -->
<g id="edge5" class="edge">
<title>Node5&#45;&gt;Node6</title>
<path fill="none" stroke="midnightblue" d="M842.05,-249.65C830.67,-249.97 818.75,-250.3 807.12,-250.63"/>
<polygon fill="midnightblue" stroke="midnightblue" points="842.43,-253.14 852.32,-249.36 842.23,-246.14 842.43,-253.14"/>
</g>
<!-- Node7 -->
<g id="node7" class="node">
<title>Node7</title>
<g id="a_node7"><a xlink:href="classClient.html#ac95fe5b24fe5275bd2271bd1ac37596d" target="_top" xlink:title=" ">
<polygon fill="white" stroke="black" points="336,-309.29 336,-328.29 436,-328.29 436,-309.29 336,-309.29"/>
<text text-anchor="middle" x="386" y="-316.29" font-family="Helvetica,sans-Serif" font-size="10.00">Client::handleRead</text>
</a>
</g>
</g>
<!-- Node6&#45;&gt;Node7 -->
<g id="edge6" class="edge">
<title>Node6&#45;&gt;Node7</title>
<path fill="none" stroke="midnightblue" d="M669.36,-264.22C603.31,-276.98 497.62,-297.41 436,-309.32"/>
<polygon fill="midnightblue" stroke="midnightblue" points="670.05,-267.65 679.21,-262.32 668.73,-260.78 670.05,-267.65"/>
</g>
<!-- Node10 -->
<g id="node10" class="node">
<title>Node10</title>
<g id="a_node10"><a xlink:href="classClient.html#a950fd2ab8ac20c9be4c5e722344d6fe2" target="_top" xlink:title=" ">
<polygon fill="white" stroke="black" points="491,-309.29 491,-328.29 616,-328.29 616,-309.29 491,-309.29"/>
<text text-anchor="middle" x="553.5" y="-316.29" font-family="Helvetica,sans-Serif" font-size="10.00">Client::processRequests</text>
</a>
</g>
</g>
<!-- Node6&#45;&gt;Node10 -->
<g id="edge9" class="edge">
<title>Node6&#45;&gt;Node10</title>
<path fill="none" stroke="midnightblue" d="M693.72,-265.98C659.96,-278.79 609.55,-297.91 579.55,-309.29"/>
<polygon fill="midnightblue" stroke="midnightblue" points="695.09,-269.21 703.2,-262.39 692.61,-262.66 695.09,-269.21"/>
</g>
<!-- Node8 -->
<g id="node8" class="node">
<title>Node8</title>
<g id="a_node8"><a xlink:href="classServerManager.html#a9f3ca46da9df004286f90902b8daf29d" target="_top" xlink:title=" ">
<polygon fill="white" stroke="black" points="138,-327.79 138,-357.79 281,-357.79 281,-327.79 138,-327.79"/>
<text text-anchor="start" x="146" y="-345.79" font-family="Helvetica,sans-Serif" font-size="10.00">ServerManager::handleClient</text>
<text text-anchor="middle" x="209.5" y="-334.79" font-family="Helvetica,sans-Serif" font-size="10.00">Event</text>
</a>
</g>
</g>
<!-- Node7&#45;&gt;Node8 -->
<g id="edge7" class="edge">
<title>Node7&#45;&gt;Node8</title>
<path fill="none" stroke="midnightblue" d="M325.69,-326.95C311.33,-328.92 295.84,-331.05 281.02,-333.09"/>
<polygon fill="midnightblue" stroke="midnightblue" points="326.5,-330.37 335.93,-325.54 325.54,-323.43 326.5,-330.37"/>
</g>
<!-- Node9 -->
<g id="node9" class="node">
<title>Node9</title>
<g id="a_node9"><a xlink:href="classServerManager.html#aecc313c9b6afcab92c22269b3333c721" target="_top" xlink:title=" ">
<polygon fill="white" stroke="black" points="0,-355.29 0,-374.29 102,-374.29 102,-355.29 0,-355.29"/>
<text text-anchor="middle" x="51" y="-362.29" font-family="Helvetica,sans-Serif" font-size="10.00">ServerManager::run</text>
</a>
</g>
</g>
<!-- Node8&#45;&gt;Node9 -->
<g id="edge8" class="edge">
<title>Node8&#45;&gt;Node9</title>
<path fill="none" stroke="midnightblue" d="M127.45,-354.18C118.82,-355.4 110.23,-356.6 102.11,-357.75"/>
<polygon fill="midnightblue" stroke="midnightblue" points="128.16,-357.62 137.58,-352.76 127.19,-350.69 128.16,-357.62"/>
</g>
<!-- Node10&#45;&gt;Node7 -->
<g id="edge11" class="edge">
<title>Node10&#45;&gt;Node7</title>
<path fill="none" stroke="midnightblue" d="M480.56,-318.79C465.52,-318.79 449.99,-318.79 436.02,-318.79"/>
<polygon fill="midnightblue" stroke="midnightblue" points="480.87,-322.29 490.87,-318.79 480.87,-315.29 480.87,-322.29"/>
</g>
<!-- Node10&#45;&gt;Node11 -->
<g id="edge10" class="edge">
<title>Node10&#45;&gt;Node11</title>
<path fill="none" stroke="midnightblue" d="M500.69,-330.69C477.43,-336.03 450.35,-342.24 428.46,-347.27"/>
<polygon fill="midnightblue" stroke="midnightblue" points="501.77,-334.03 510.74,-328.38 500.21,-327.21 501.77,-334.03"/>
</g>
<!-- Node12&#45;&gt;Node13 -->
<g id="edge14" class="edge">
<title>Node12&#45;&gt;Node13</title>
<path fill="none" stroke="midnightblue" d="M1221.2,-126.75C1187.48,-138.78 1138.03,-156.43 1107.77,-167.23"/>
<polygon fill="midnightblue" stroke="midnightblue" points="1222.45,-130.02 1230.69,-123.36 1220.1,-123.42 1222.45,-130.02"/>
</g>
<!-- Node13&#45;&gt;Node5 -->
<g id="edge15" class="edge">
<title>Node13&#45;&gt;Node5</title>
<path fill="none" stroke="midnightblue" d="M1046.89,-190.28C1013.5,-204.31 962.09,-225.9 932.7,-238.25"/>
<polygon fill="midnightblue" stroke="midnightblue" points="1048.34,-193.47 1056.21,-186.37 1045.63,-187.01 1048.34,-193.47"/>
</g>
<!-- Node13&#45;&gt;Node6 -->
<g id="edge16" class="edge">
<title>Node13&#45;&gt;Node6</title>
<path fill="none" stroke="midnightblue" d="M1025.41,-188.48C956.42,-203.52 837.86,-229.38 774.11,-243.28"/>
<polygon fill="midnightblue" stroke="midnightblue" points="1026.19,-191.89 1035.22,-186.34 1024.7,-185.05 1026.19,-191.89"/>
</g>
<!-- Node15 -->
<g id="node15" class="node">
<title>Node15</title>
<g id="a_node15"><a xlink:href="classServerManager.html#a9c75ea0bd268425c187ef25770eccbe8" target="_top" xlink:title=" ">
<polygon fill="white" stroke="black" points="843,-390.79 843,-420.79 975,-420.79 975,-390.79 843,-390.79"/>
<text text-anchor="start" x="851" y="-408.79" font-family="Helvetica,sans-Serif" font-size="10.00">ServerManager::handleCgi</text>
<text text-anchor="middle" x="909" y="-397.79" font-family="Helvetica,sans-Serif" font-size="10.00">PipeEvent</text>
</a>
</g>
</g>
<!-- Node14&#45;&gt;Node15 -->
<g id="edge18" class="edge">
<title>Node14&#45;&gt;Node15</title>
<path fill="none" stroke="midnightblue" d="M1368,-400.54C1267.57,-401.69 1075.78,-403.89 975.22,-405.04"/>
<polygon fill="midnightblue" stroke="midnightblue" points="1368.06,-404.04 1378.02,-400.42 1367.98,-397.04 1368.06,-404.04"/>
</g>
<!-- Node15&#45;&gt;Node9 -->
<g id="edge19" class="edge">
<title>Node15&#45;&gt;Node9</title>
<path fill="none" stroke="midnightblue" d="M832.58,-404.78C761.01,-403.91 650.43,-402.79 554.5,-402.79 554.5,-402.79 554.5,-402.79 385,-402.79 284.04,-402.79 166.98,-385.34 102.01,-374.09"/>
<polygon fill="midnightblue" stroke="midnightblue" points="832.81,-408.28 842.85,-404.91 832.89,-401.28 832.81,-408.28"/>
</g>
<!-- Node16&#45;&gt;Node17 -->
<g id="edge21" class="edge">
<title>Node16&#45;&gt;Node17</title>
<path fill="none" stroke="midnightblue" d="M1381.6,-425.08C1376.89,-423.23 1372.28,-421.14 1368,-418.79 1325.2,-395.31 1284.65,-352.48 1267.75,-333.4"/>
<polygon fill="midnightblue" stroke="midnightblue" points="1380.75,-428.49 1391.35,-428.54 1383.1,-421.89 1380.75,-428.49"/>
</g>
<!-- Node17&#45;&gt;Node13 -->
<g id="edge22" class="edge">
<title>Node17&#45;&gt;Node13</title>
<path fill="none" stroke="midnightblue" d="M1239.29,-307.18C1217.99,-287.92 1181.5,-255.39 1149,-228.79 1130.26,-213.44 1107.81,-196.56 1093.98,-186.32"/>
<polygon fill="midnightblue" stroke="midnightblue" points="1237.17,-309.98 1246.92,-314.11 1241.87,-304.8 1237.17,-309.98"/>
</g>
<!-- Node18&#45;&gt;Node13 -->
<g id="edge24" class="edge">
<title>Node18&#45;&gt;Node13</title>
<path fill="none" stroke="midnightblue" d="M1357.56,-55.21C1306.91,-59.79 1239.69,-70.39 1185,-94.79 1144.89,-112.68 1106.74,-149.52 1089.95,-167.08"/>
<polygon fill="midnightblue" stroke="midnightblue" points="1358.11,-58.67 1367.78,-54.34 1357.52,-51.7 1358.11,-58.67"/>
</g>
<!-- Node19&#45;&gt;Node13 -->
<g id="edge26" class="edge">
<title>Node19&#45;&gt;Node13</title>
<path fill="none" stroke="midnightblue" d="M1182.29,-170.48C1171.3,-171.16 1160.04,-171.86 1149.2,-172.54"/>
<polygon fill="midnightblue" stroke="midnightblue" points="1182.52,-173.97 1192.28,-169.85 1182.08,-166.98 1182.52,-173.97"/>
</g>
<!-- Node20&#45;&gt;Node17 -->
<g id="edge28" class="edge">
<title>Node20&#45;&gt;Node17</title>
<path fill="none" stroke="midnightblue" d="M1377.95,-462.36C1374.48,-460.71 1371.12,-458.86 1368,-456.79 1317.09,-423.03 1278.14,-358.05 1264.64,-333.5"/>
<polygon fill="midnightblue" stroke="midnightblue" points="1376.8,-465.67 1387.38,-466.29 1379.49,-459.21 1376.8,-465.67"/>
</g>
<!-- Node21&#45;&gt;Node17 -->
<g id="edge31" class="edge">
<title>Node21&#45;&gt;Node17</title>
<path fill="none" stroke="midnightblue" d="M1385.62,-323.79C1360.19,-323.79 1329.03,-323.79 1304.04,-323.79"/>
<polygon fill="midnightblue" stroke="midnightblue" points="1385.78,-327.29 1395.78,-323.79 1385.78,-320.29 1385.78,-327.29"/>
</g>
<!-- Node22&#45;&gt;Node2 -->
<g id="edge34" class="edge">
<title>Node22&#45;&gt;Node2</title>
<path fill="none" stroke="midnightblue" d="M1663.65,-285.79C1655.14,-285.79 1646.41,-285.79 1638.03,-285.79"/>
<polygon fill="midnightblue" stroke="midnightblue" points="1663.88,-289.29 1673.88,-285.79 1663.88,-282.29 1663.88,-289.29"/>
</g>
<!-- Node22&#45;&gt;Node13 -->
<g id="edge37" class="edge">
<title>Node22&#45;&gt;Node13</title>
<path fill="none" stroke="midnightblue" d="M1714.68,-266.31C1705.17,-231.23 1681.1,-156.65 1638,-108.79 1590.26,-55.77 1568.8,-45.69 1500,-26.79 1364.51,10.43 1307.79,14.52 1185,-53.79 1135.15,-81.52 1098.71,-143.16 1085.96,-167.06"/>
<polygon fill="midnightblue" stroke="midnightblue" points="1711.35,-267.43 1717.26,-276.22 1718.13,-265.66 1711.35,-267.43"/>
</g>
<!-- Node22&#45;&gt;Node16 -->
<g id="edge35" class="edge">
<title>Node22&#45;&gt;Node16</title>
<path fill="none" stroke="midnightblue" d="M1681.93,-298.87C1642.89,-313.62 1581.31,-340.27 1536,-375.79 1516.38,-391.17 1520.86,-405.15 1500,-418.79 1493.01,-423.36 1484.9,-426.85 1476.83,-429.52"/>
<polygon fill="midnightblue" stroke="midnightblue" points="1683.18,-302.14 1691.34,-295.38 1680.75,-295.57 1683.18,-302.14"/>
</g>
<!-- Node22&#45;&gt;Node18 -->
<g id="edge36" class="edge">
<title>Node22&#45;&gt;Node18</title>
<path fill="none" stroke="midnightblue" d="M1703.77,-268.49C1669.44,-231.44 1584.12,-143.04 1500,-84.79 1490.43,-78.16 1479.34,-72.04 1469.06,-66.91"/>
<polygon fill="midnightblue" stroke="midnightblue" points="1701.31,-271 1710.66,-275.99 1706.47,-266.26 1701.31,-271"/>
</g>
</g>
</svg>
        <g id="navigator" transform="translate(0 0)" fill="#404254">
                <rect fill="#f2f5e9" fill-opacity="0.5" stroke="#606060" stroke-width=".5" x="0" y="0" width="60" height="60"/>
                <use id="zoomplus" xlink:href="#zoomPlus" x="17" y="9" onmousedown="handleZoom(evt,'in')"/>
                <use id="zoomminus" xlink:href="#zoomMin" x="42" y="9" onmousedown="handleZoom(evt,'out')"/>
                <use id="reset" xlink:href="#resetDef" x="30" y="36" onmousedown="handleReset()"/>
                <g id="arrowUp" xlink:href="#dirArrow" transform="translate(30 24)" onmousedown="handlePan(0,-1)">
                  <use xlink:href="#rim" fill="#404040">
                        <set attributeName="fill" to="#808080" begin="arrowUp.mouseover" end="arrowUp.mouseout"/>
                  </use>
                  <path fill="none" stroke="white" stroke-width="1.5" d="M0,-3.0v7 M-2.5,-0.5L0,-3.0L2.5,-0.5"/>
                </g>
                <g id="arrowRight" xlink:href="#dirArrow" transform="rotate(90) translate(36 -43)" onmousedown="handlePan(1,0)">
                  <use xlink:href="#rim" fill="#404040">
                        <set attributeName="fill" to="#808080" begin="arrowRight.mouseover" end="arrowRight.mouseout"/>
                  </use>
                  <path fill="none" stroke="white" stroke-width="1.5" d="M0,-3.0v7 M-2.5,-0.5L0,-3.0L2.5,-0.5"/>
                </g>
                <g id="arrowDown" xlink:href="#dirArrow" transform="rotate(180) translate(-30 -48)" onmousedown="handlePan(0,1)">
                  <use xlink:href="#rim" fill="#404040">
                        <set attributeName="fill" to="#808080" begin="arrowDown.mouseover" end="arrowDown.mouseout"/>
                  </use>
                  <path fill="none" stroke="white" stroke-width="1.5" d="M0,-3.0v7 M-2.5,-0.5L0,-3.0L2.5,-0.5"/>
                </g>
                <g id="arrowLeft" xlink:href="#dirArrow" transform="rotate(270) translate(-36 17)" onmousedown="handlePan(-1,0)">
                  <use xlink:href="#rim" fill="#404040">
                        <set attributeName="fill" to="#808080" begin="arrowLeft.mouseover" end="arrowLeft.mouseout"/>
                  </use>
                  <path fill="none" stroke="white" stroke-width="1.5" d="M0,-3.0v7 M-2.5,-0.5L0,-3.0L2.5,-0.5"/>
                </g>
        </g>
        <svg viewBox="0 0 15 15" width="100%" height="30px" preserveAspectRatio="xMaxYMin meet">
         <g id="arrow_out" transform="scale(0.3 0.3)">
          <a xlink:href="classHttpResponse_a11a67ba43096f5eb1870e65f1814d364_icgraph_org.svg" target="_base">
           <rect id="button" ry="5" rx="5" y="6" x="6" height="38" width="38"
                fill="#f2f5e9" fill-opacity="0.5" stroke="#606060" stroke-width="1.0"/>
           <path id="arrow"
             d="M 11.500037,31.436501 C 11.940474,20.09759 22.043105,11.32322 32.158766,21.979434 L 37.068811,17.246167 C 37.068811,17.246167 37.088388,32 37.088388,32 L 22.160133,31.978069 C 22.160133,31.978069 26.997745,27.140456 26.997745,27.140456 C 18.528582,18.264221 13.291696,25.230495 11.500037,31.436501 z"
             style="fill:#404040;"/>
          </a>
         </g>
        </svg>
</svg>
