<?xml version="1.0" encoding="UTF-8" standalone="no"?>
<!DOCTYPE svg PUBLIC "-//W3C//DTD SVG 1.1//EN"
 "http://www.w3.org/Graphics/SVG/1.1/DTD/svg11.dtd">
<!-- Generated by graphviz version 2.43.0 (0)
 -->
<!-- Title: HttpResponse::setVersion Pages: 1 -->
<svg width="1943pt" height="527pt"
 viewBox="0.00 0.00 1943.00 526.58" xmlns="http://www.w3.org/2000/svg" xmlns:xlink="http://www.w3.org/1999/xlink">
<g id="graph0" class="graph" transform="scale(1 1) rotate(0) translate(4 522.58)">
<title>HttpResponse::setVersion</title>
<polygon fill="white" stroke="transparent" points="-4,4 -4,-522.58 1939,-522.58 1939,4 -4,4"/>
<!-- Node1 -->
<g id="node1" class="node">
<title>Node1</title>
<g id="a_node1"><a xlink:title=" ">
<polygon fill="#bfbfbf" stroke="black" points="1803,-449.08 1803,-468.08 1935,-468.08 1935,-449.08 1803,-449.08"/>
<text text-anchor="middle" x="1869" y="-456.08" font-family="Helvetica,sans-Serif" font-size="10.00">HttpResponse::setVersion</text>
</a>
</g>
</g>
<!-- Node2 -->
<g id="node2" class="node">
<title>Node2</title>
<g id="a_node2"><a xlink:href="ResponseUtils_8cpp.html#ab7c2cb6fbf297c09ec402182b04584c6" target="_top" xlink:title=" ">
<polygon fill="white" stroke="black" points="1674,-389.08 1674,-408.08 1767,-408.08 1767,-389.08 1674,-389.08"/>
<text text-anchor="middle" x="1720.5" y="-396.08" font-family="Helvetica,sans-Serif" font-size="10.00">fillBaseResponse</text>
</a>
</g>
</g>
<!-- Node1&#45;&gt;Node2 -->
<g id="edge1" class="edge">
<title>Node1&#45;&gt;Node2</title>
<path fill="none" stroke="midnightblue" d="M1835.25,-445.17C1807.88,-433.96 1769.52,-418.25 1745.09,-408.24"/>
<polygon fill="midnightblue" stroke="midnightblue" points="1834.21,-448.52 1844.79,-449.08 1836.86,-442.05 1834.21,-448.52"/>
</g>
<!-- Node12 -->
<g id="node12" class="node">
<title>Node12</title>
<g id="a_node12"><a xlink:href="classClient.html#a09d6029b60ae8c9773362968e72f2e54" target="_top" xlink:title=" ">
<polygon fill="white" stroke="black" points="317,-345.08 317,-364.08 455,-364.08 455,-345.08 317,-345.08"/>
<text text-anchor="middle" x="386" y="-352.08" font-family="Helvetica,sans-Serif" font-size="10.00">Client::finalizeCgiResponse</text>
</a>
</g>
</g>
<!-- Node1&#45;&gt;Node12 -->
<g id="edge37" class="edge">
<title>Node1&#45;&gt;Node12</title>
<path fill="none" stroke="midnightblue" d="M1832.2,-471.33C1779.45,-488.95 1677.44,-518.58 1588,-518.58 1588,-518.58 1588,-518.58 908,-518.58 700.8,-518.58 467.76,-399.11 403.93,-364.11"/>
<polygon fill="midnightblue" stroke="midnightblue" points="1833.42,-474.62 1841.76,-468.09 1831.17,-467.99 1833.42,-474.62"/>
</g>
<!-- Node3 -->
<g id="node3" class="node">
<title>Node3</title>
<g id="a_node3"><a xlink:href="ErrorUtils_8cpp.html#a470416220aa911b8f1274140a8322e7a" target="_top" xlink:title=" ">
<polygon fill="white" stroke="black" points="1536,-231.08 1536,-250.08 1638,-250.08 1638,-231.08 1536,-231.08"/>
<text text-anchor="middle" x="1587" y="-238.08" font-family="Helvetica,sans-Serif" font-size="10.00">buildErrorResponse</text>
</a>
</g>
</g>
<!-- Node2&#45;&gt;Node3 -->
<g id="edge2" class="edge">
<title>Node2&#45;&gt;Node3</title>
<path fill="none" stroke="midnightblue" d="M1704.62,-380.7C1676.83,-347.31 1617.9,-276.51 1596.22,-250.46"/>
<polygon fill="midnightblue" stroke="midnightblue" points="1702.19,-383.25 1711.27,-388.7 1707.57,-378.77 1702.19,-383.25"/>
</g>
<!-- Node14 -->
<g id="node14" class="node">
<title>Node14</title>
<g id="a_node14"><a xlink:href="classRequestProcessor.html#a3fa9c97a7d142a7b607002138de87140" target="_top" xlink:title=" ">
<polygon fill="white" stroke="black" points="1011,-263.08 1011,-282.08 1149,-282.08 1149,-263.08 1011,-263.08"/>
<text text-anchor="middle" x="1080" y="-270.08" font-family="Helvetica,sans-Serif" font-size="10.00">RequestProcessor::process</text>
</a>
</g>
</g>
<!-- Node2&#45;&gt;Node14 -->
<g id="edge36" class="edge">
<title>Node2&#45;&gt;Node14</title>
<path fill="none" stroke="midnightblue" d="M1689.32,-412.22C1628.26,-438.01 1485.83,-488.99 1368,-461.58 1279.72,-441.05 1259.35,-423.43 1185,-371.58 1145.33,-343.92 1106.06,-301.33 1089.37,-282.32"/>
<polygon fill="midnightblue" stroke="midnightblue" points="1690.95,-415.33 1698.75,-408.16 1688.18,-408.9 1690.95,-415.33"/>
</g>
<!-- Node17 -->
<g id="node17" class="node">
<title>Node17</title>
<g id="a_node17"><a xlink:href="StaticPathHandler_8cpp.html#a28a771d93d3051098585ebc34ed29855" target="_top" xlink:title=" ">
<polygon fill="white" stroke="black" points="1391.5,-41.08 1391.5,-60.08 1476.5,-60.08 1476.5,-41.08 1391.5,-41.08"/>
<text text-anchor="middle" x="1434" y="-48.08" font-family="Helvetica,sans-Serif" font-size="10.00">handleDirectory</text>
</a>
</g>
</g>
<!-- Node2&#45;&gt;Node17 -->
<g id="edge34" class="edge">
<title>Node2&#45;&gt;Node17</title>
<path fill="none" stroke="midnightblue" d="M1712.94,-379.24C1701,-345.51 1673.64,-274.5 1638,-221.58 1587.94,-147.25 1574.69,-124.09 1500,-74.58 1490.88,-68.53 1480.02,-63.75 1469.83,-60.1"/>
<polygon fill="midnightblue" stroke="midnightblue" points="1709.67,-380.51 1716.26,-388.81 1716.29,-378.21 1709.67,-380.51"/>
</g>
<!-- Node19 -->
<g id="node19" class="node">
<title>Node19</title>
<g id="a_node19"><a xlink:href="classRequestProcessor.html#a606f9c02a3166ca58e6930f8d292d81c" target="_top" xlink:title=" ">
<polygon fill="white" stroke="black" points="1368,-383.58 1368,-413.58 1500,-413.58 1500,-383.58 1368,-383.58"/>
<text text-anchor="start" x="1376" y="-401.58" font-family="Helvetica,sans-Serif" font-size="10.00">RequestProcessor::handle</text>
<text text-anchor="middle" x="1434" y="-390.58" font-family="Helvetica,sans-Serif" font-size="10.00">LocationValidation</text>
</a>
</g>
</g>
<!-- Node2&#45;&gt;Node19 -->
<g id="edge35" class="edge">
<title>Node2&#45;&gt;Node19</title>
<path fill="none" stroke="midnightblue" d="M1663.51,-398.58C1616.58,-398.58 1549.55,-398.58 1500.21,-398.58"/>
<polygon fill="midnightblue" stroke="midnightblue" points="1663.79,-402.08 1673.79,-398.58 1663.79,-395.08 1663.79,-402.08"/>
</g>
<!-- Node4 -->
<g id="node4" class="node">
<title>Node4</title>
<g id="a_node4"><a xlink:href="classClient.html#a3b000abab7a3fe339f0f39ad5daca68f" target="_top" xlink:title=" ">
<polygon fill="white" stroke="black" points="1371.5,-117.08 1371.5,-136.08 1496.5,-136.08 1496.5,-117.08 1371.5,-117.08"/>
<text text-anchor="middle" x="1434" y="-124.08" font-family="Helvetica,sans-Serif" font-size="10.00">Client::checkCgiTimeout</text>
</a>
</g>
</g>
<!-- Node3&#45;&gt;Node4 -->
<g id="edge3" class="edge">
<title>Node3&#45;&gt;Node4</title>
<path fill="none" stroke="midnightblue" d="M1574.22,-222.37C1559.41,-200.91 1532.02,-165.65 1500,-145.58 1493.82,-141.71 1486.83,-138.6 1479.77,-136.11"/>
<polygon fill="midnightblue" stroke="midnightblue" points="1571.46,-224.54 1579.94,-230.89 1577.27,-220.64 1571.46,-224.54"/>
</g>
<!-- Node5 -->
<g id="node5" class="node">
<title>Node5</title>
<g id="a_node5"><a xlink:href="classClient.html#ae523ed90bd32b88e539ebdf30746382b" target="_top" xlink:title=" ">
<polygon fill="white" stroke="black" points="1023.5,-111.08 1023.5,-130.08 1136.5,-130.08 1136.5,-111.08 1023.5,-111.08"/>
<text text-anchor="middle" x="1080" y="-118.08" font-family="Helvetica,sans-Serif" font-size="10.00">Client::dispatchAction</text>
</a>
</g>
</g>
<!-- Node3&#45;&gt;Node5 -->
<g id="edge4" class="edge">
<title>Node3&#45;&gt;Node5</title>
<path fill="none" stroke="midnightblue" d="M1584.77,-220.71C1580.89,-177.43 1564.94,-75.08 1500,-31.58 1363.46,59.88 1150.4,-72.9 1094.7,-110.92"/>
<polygon fill="midnightblue" stroke="midnightblue" points="1581.29,-221.11 1585.55,-230.81 1588.27,-220.57 1581.29,-221.11"/>
</g>
<!-- Node3&#45;&gt;Node12 -->
<g id="edge13" class="edge">
<title>Node3&#45;&gt;Node12</title>
<path fill="none" stroke="midnightblue" d="M1568.36,-257.04C1551.9,-271.48 1526.04,-291.93 1500,-303.58 1400.26,-348.2 1368.77,-354.58 1259.5,-354.58 1259.5,-354.58 1259.5,-354.58 728.5,-354.58 633.64,-354.58 523.96,-354.58 455.03,-354.58"/>
<polygon fill="midnightblue" stroke="midnightblue" points="1570.96,-259.4 1576.05,-250.11 1566.28,-254.2 1570.96,-259.4"/>
</g>
<!-- Node13 -->
<g id="node13" class="node">
<title>Node13</title>
<g id="a_node13"><a xlink:href="classRequestProcessor.html#a79915b1a2fda205b7d5a6c92e5e3fce8" target="_top" xlink:title=" ">
<polygon fill="white" stroke="black" points="1185,-257.08 1185,-276.08 1332,-276.08 1332,-257.08 1185,-257.08"/>
<text text-anchor="middle" x="1258.5" y="-264.08" font-family="Helvetica,sans-Serif" font-size="10.00">RequestProcessor::handleCgi</text>
</a>
</g>
</g>
<!-- Node3&#45;&gt;Node13 -->
<g id="edge14" class="edge">
<title>Node3&#45;&gt;Node13</title>
<path fill="none" stroke="midnightblue" d="M1539.86,-252.45C1527.04,-255.29 1513.05,-257.97 1500,-259.58 1443.93,-266.53 1379.98,-268.09 1332.12,-268.02"/>
<polygon fill="midnightblue" stroke="midnightblue" points="1540.89,-255.81 1549.86,-250.16 1539.33,-248.98 1540.89,-255.81"/>
</g>
<!-- Node3&#45;&gt;Node14 -->
<g id="edge33" class="edge">
<title>Node3&#45;&gt;Node14</title>
<path fill="none" stroke="midnightblue" d="M1571.03,-223.23C1560.59,-210.7 1546.67,-193.15 1536,-176.58 1517.27,-147.5 1529.58,-125.51 1500,-107.58 1449.83,-77.17 1425.53,-96.11 1368,-107.58 1281.63,-124.8 1260.05,-137.5 1185,-183.58 1146.32,-207.34 1107.47,-245.19 1090.23,-262.88"/>
<polygon fill="midnightblue" stroke="midnightblue" points="1568.49,-225.64 1577.62,-231.02 1573.84,-221.12 1568.49,-225.64"/>
</g>
<!-- Node15 -->
<g id="node15" class="node">
<title>Node15</title>
<g id="a_node15"><a xlink:href="classClient.html#a4104efd3f5f7e1c0f3e3302b46861624" target="_top" xlink:title=" ">
<polygon fill="white" stroke="black" points="1378.5,-433.08 1378.5,-452.08 1489.5,-452.08 1489.5,-433.08 1378.5,-433.08"/>
<text text-anchor="middle" x="1434" y="-440.08" font-family="Helvetica,sans-Serif" font-size="10.00">Client::handleCgiPipe</text>
</a>
</g>
</g>
<!-- Node3&#45;&gt;Node15 -->
<g id="edge18" class="edge">
<title>Node3&#45;&gt;Node15</title>
<path fill="none" stroke="midnightblue" d="M1582.29,-260.35C1574.22,-297.86 1551.48,-379.52 1500,-423.58 1495.44,-427.48 1490.12,-430.58 1484.53,-433.05"/>
<polygon fill="midnightblue" stroke="midnightblue" points="1585.79,-260.72 1584.34,-250.22 1578.93,-259.33 1585.79,-260.72"/>
</g>
<!-- Node3&#45;&gt;Node17 -->
<g id="edge21" class="edge">
<title>Node3&#45;&gt;Node17</title>
<path fill="none" stroke="midnightblue" d="M1576.77,-221.88C1555.84,-179.63 1506.13,-79.99 1500,-74.58 1492.88,-68.29 1483.96,-63.6 1475.03,-60.12"/>
<polygon fill="midnightblue" stroke="midnightblue" points="1573.75,-223.67 1581.32,-231.08 1580.02,-220.57 1573.75,-223.67"/>
</g>
<!-- Node18 -->
<g id="node18" class="node">
<title>Node18</title>
<g id="a_node18"><a xlink:href="StaticPathHandler_8cpp.html#a4e092999675b45373270f5408cbe64c7" target="_top" xlink:title=" ">
<polygon fill="white" stroke="black" points="1213,-193.08 1213,-212.08 1304,-212.08 1304,-193.08 1213,-193.08"/>
<text text-anchor="middle" x="1258.5" y="-200.08" font-family="Helvetica,sans-Serif" font-size="10.00">handleStaticPath</text>
</a>
</g>
</g>
<!-- Node3&#45;&gt;Node18 -->
<g id="edge30" class="edge">
<title>Node3&#45;&gt;Node18</title>
<path fill="none" stroke="midnightblue" d="M1538.02,-228.75C1525.69,-226.05 1512.41,-223.43 1500,-221.58 1432.06,-211.44 1352.47,-206.5 1304.03,-204.25"/>
<polygon fill="midnightblue" stroke="midnightblue" points="1537.58,-232.24 1548.11,-231.02 1539.12,-225.41 1537.58,-232.24"/>
</g>
<!-- Node3&#45;&gt;Node19 -->
<g id="edge24" class="edge">
<title>Node3&#45;&gt;Node19</title>
<path fill="none" stroke="midnightblue" d="M1577.46,-259.46C1564.3,-286.74 1536.68,-337.32 1500,-368.58 1493.09,-374.47 1484.84,-379.44 1476.57,-383.53"/>
<polygon fill="midnightblue" stroke="midnightblue" points="1580.71,-260.78 1581.79,-250.24 1574.37,-257.8 1580.71,-260.78"/>
</g>
<!-- Node20 -->
<g id="node20" class="node">
<title>Node20</title>
<g id="a_node20"><a xlink:href="classRequestProcessor.html#a10779d8453416feeda2174859c00d082" target="_top" xlink:title=" ">
<polygon fill="white" stroke="black" points="1192.5,-295.58 1192.5,-325.58 1324.5,-325.58 1324.5,-295.58 1192.5,-295.58"/>
<text text-anchor="start" x="1200.5" y="-313.58" font-family="Helvetica,sans-Serif" font-size="10.00">RequestProcessor::handle</text>
<text text-anchor="middle" x="1258.5" y="-302.58" font-family="Helvetica,sans-Serif" font-size="10.00">ParseOrMethodErrors</text>
</a>
</g>
</g>
<!-- Node3&#45;&gt;Node20 -->
<g id="edge26" class="edge">
<title>Node3&#45;&gt;Node20</title>
<path fill="none" stroke="midnightblue" d="M1558.64,-254.61C1542.07,-262.53 1520.29,-271.94 1500,-277.58 1441.84,-293.76 1373.46,-302.17 1324.51,-306.43"/>
<polygon fill="midnightblue" stroke="midnightblue" points="1560.29,-257.7 1567.74,-250.16 1557.22,-251.41 1560.29,-257.7"/>
</g>
<!-- Node21 -->
<g id="node21" class="node">
<title>Node21</title>
<g id="a_node21"><a xlink:href="StaticPathHandler_8cpp.html#a5af8659f0f83e8296b29264dd671af0d" target="_top" xlink:title=" ">
<polygon fill="white" stroke="black" points="1386.5,-155.08 1386.5,-174.08 1481.5,-174.08 1481.5,-155.08 1386.5,-155.08"/>
<text text-anchor="middle" x="1434" y="-162.08" font-family="Helvetica,sans-Serif" font-size="10.00">handleRegularFile</text>
</a>
</g>
</g>
<!-- Node3&#45;&gt;Node21 -->
<g id="edge28" class="edge">
<title>Node3&#45;&gt;Node21</title>
<path fill="none" stroke="midnightblue" d="M1563.52,-225.36C1546.54,-214.28 1522.42,-199.38 1500,-188.58 1488.73,-183.15 1475.89,-178.18 1464.61,-174.18"/>
<polygon fill="midnightblue" stroke="midnightblue" points="1561.89,-228.48 1572.16,-231.08 1565.75,-222.64 1561.89,-228.48"/>
</g>
<!-- Node22 -->
<g id="node22" class="node">
<title>Node22</title>
<g id="a_node22"><a xlink:href="StaticPathHandler_8cpp.html#a638cb25cad6c24877a0e75984110ea7a" target="_top" xlink:title=" ">
<polygon fill="white" stroke="black" points="1396,-231.08 1396,-250.08 1472,-250.08 1472,-231.08 1396,-231.08"/>
<text text-anchor="middle" x="1434" y="-238.08" font-family="Helvetica,sans-Serif" font-size="10.00">handleUpload</text>
</a>
</g>
</g>
<!-- Node3&#45;&gt;Node22 -->
<g id="edge31" class="edge">
<title>Node3&#45;&gt;Node22</title>
<path fill="none" stroke="midnightblue" d="M1525.55,-240.58C1507.5,-240.58 1488.25,-240.58 1472.17,-240.58"/>
<polygon fill="midnightblue" stroke="midnightblue" points="1525.72,-244.08 1535.72,-240.58 1525.72,-237.08 1525.72,-244.08"/>
</g>
<!-- Node6 -->
<g id="node6" class="node">
<title>Node6</title>
<g id="a_node6"><a xlink:href="classClient.html#a419f8f3253d3f71287044e3999a5d600" target="_top" xlink:title=" ">
<polygon fill="white" stroke="black" points="852.5,-231.08 852.5,-250.08 965.5,-250.08 965.5,-231.08 852.5,-231.08"/>
<text text-anchor="middle" x="909" y="-238.08" font-family="Helvetica,sans-Serif" font-size="10.00">Client::buildResponse</text>
</a>
</g>
</g>
<!-- Node5&#45;&gt;Node6 -->
<g id="edge5" class="edge">
<title>Node5&#45;&gt;Node6</title>
<path fill="none" stroke="midnightblue" d="M1057.23,-136.04C1021.83,-161.17 952.84,-210.16 923.61,-230.92"/>
<polygon fill="midnightblue" stroke="midnightblue" points="1059.33,-138.84 1065.46,-130.2 1055.28,-133.14 1059.33,-138.84"/>
</g>
<!-- Node7 -->
<g id="node7" class="node">
<title>Node7</title>
<g id="a_node7"><a xlink:href="classClient.html#abcf615f2514ae7e0266315693e73a31a" target="_top" xlink:title=" ">
<polygon fill="white" stroke="black" points="652,-269.08 652,-288.08 807,-288.08 807,-269.08 652,-269.08"/>
<text text-anchor="middle" x="729.5" y="-276.08" font-family="Helvetica,sans-Serif" font-size="10.00">Client::handleCompleteRequest</text>
</a>
</g>
</g>
<!-- Node6&#45;&gt;Node7 -->
<g id="edge6" class="edge">
<title>Node6&#45;&gt;Node7</title>
<path fill="none" stroke="midnightblue" d="M853.1,-252.34C828,-257.71 798.66,-263.99 774.97,-269.06"/>
<polygon fill="midnightblue" stroke="midnightblue" points="854.16,-255.69 863.21,-250.17 852.7,-248.84 854.16,-255.69"/>
</g>
<!-- Node8 -->
<g id="node8" class="node">
<title>Node8</title>
<g id="a_node8"><a xlink:href="classClient.html#ac95fe5b24fe5275bd2271bd1ac37596d" target="_top" xlink:title=" ">
<polygon fill="white" stroke="black" points="336,-307.08 336,-326.08 436,-326.08 436,-307.08 336,-307.08"/>
<text text-anchor="middle" x="386" y="-314.08" font-family="Helvetica,sans-Serif" font-size="10.00">Client::handleRead</text>
</a>
</g>
</g>
<!-- Node7&#45;&gt;Node8 -->
<g id="edge7" class="edge">
<title>Node7&#45;&gt;Node8</title>
<path fill="none" stroke="midnightblue" d="M641.78,-283.41C596.7,-286.46 540.76,-291.06 491,-297.58 472.07,-300.06 451.36,-303.66 433.44,-307.06"/>
<polygon fill="midnightblue" stroke="midnightblue" points="642.07,-286.9 651.82,-282.75 641.61,-279.92 642.07,-286.9"/>
</g>
<!-- Node11 -->
<g id="node11" class="node">
<title>Node11</title>
<g id="a_node11"><a xlink:href="classClient.html#a950fd2ab8ac20c9be4c5e722344d6fe2" target="_top" xlink:title=" ">
<polygon fill="white" stroke="black" points="491,-307.08 491,-326.08 616,-326.08 616,-307.08 491,-307.08"/>
<text text-anchor="middle" x="553.5" y="-314.08" font-family="Helvetica,sans-Serif" font-size="10.00">Client::processRequests</text>
</a>
</g>
</g>
<!-- Node7&#45;&gt;Node11 -->
<g id="edge10" class="edge">
<title>Node7&#45;&gt;Node11</title>
<path fill="none" stroke="midnightblue" d="M674.69,-290.34C650.08,-295.71 621.31,-301.99 598.09,-307.06"/>
<polygon fill="midnightblue" stroke="midnightblue" points="675.57,-293.72 684.59,-288.17 674.08,-286.89 675.57,-293.72"/>
</g>
<!-- Node9 -->
<g id="node9" class="node">
<title>Node9</title>
<g id="a_node9"><a xlink:href="classServerManager.html#a9f3ca46da9df004286f90902b8daf29d" target="_top" xlink:title=" ">
<polygon fill="white" stroke="black" points="138,-361.58 138,-391.58 281,-391.58 281,-361.58 138,-361.58"/>
<text text-anchor="start" x="146" y="-379.58" font-family="Helvetica,sans-Serif" font-size="10.00">ServerManager::handleClient</text>
<text text-anchor="middle" x="209.5" y="-368.58" font-family="Helvetica,sans-Serif" font-size="10.00">Event</text>
</a>
</g>
</g>
<!-- Node8&#45;&gt;Node9 -->
<g id="edge8" class="edge">
<title>Node8&#45;&gt;Node9</title>
<path fill="none" stroke="midnightblue" d="M338.66,-328.89C331.38,-331.01 323.96,-333.28 317,-335.58 293.49,-343.37 267.55,-353.33 247.15,-361.48"/>
<polygon fill="midnightblue" stroke="midnightblue" points="339.8,-332.21 348.46,-326.11 337.88,-325.48 339.8,-332.21"/>
</g>
<!-- Node10 -->
<g id="node10" class="node">
<title>Node10</title>
<g id="a_node10"><a xlink:href="classServerManager.html#aecc313c9b6afcab92c22269b3333c721" target="_top" xlink:title=" ">
<polygon fill="white" stroke="black" points="0,-389.08 0,-408.08 102,-408.08 102,-389.08 0,-389.08"/>
<text text-anchor="middle" x="51" y="-396.08" font-family="Helvetica,sans-Serif" font-size="10.00">ServerManager::run</text>
</a>
</g>
</g>
<!-- Node9&#45;&gt;Node10 -->
<g id="edge9" class="edge">
<title>Node9&#45;&gt;Node10</title>
<path fill="none" stroke="midnightblue" d="M127.45,-387.98C118.82,-389.19 110.23,-390.4 102.11,-391.54"/>
<polygon fill="midnightblue" stroke="midnightblue" points="128.16,-391.41 137.58,-386.55 127.19,-384.48 128.16,-391.41"/>
</g>
<!-- Node11&#45;&gt;Node8 -->
<g id="edge12" class="edge">
<title>Node11&#45;&gt;Node8</title>
<path fill="none" stroke="midnightblue" d="M480.56,-316.58C465.52,-316.58 449.99,-316.58 436.02,-316.58"/>
<polygon fill="midnightblue" stroke="midnightblue" points="480.87,-320.08 490.87,-316.58 480.87,-313.08 480.87,-320.08"/>
</g>
<!-- Node11&#45;&gt;Node12 -->
<g id="edge11" class="edge">
<title>Node11&#45;&gt;Node12</title>
<path fill="none" stroke="midnightblue" d="M500.69,-328.48C477.43,-333.82 450.35,-340.04 428.46,-345.06"/>
<polygon fill="midnightblue" stroke="midnightblue" points="501.77,-331.82 510.74,-326.17 500.21,-325 501.77,-331.82"/>
</g>
<!-- Node13&#45;&gt;Node14 -->
<g id="edge15" class="edge">
<title>Node13&#45;&gt;Node14</title>
<path fill="none" stroke="midnightblue" d="M1174.85,-269.39C1166.2,-269.69 1157.47,-269.98 1149.01,-270.27"/>
<polygon fill="midnightblue" stroke="midnightblue" points="1175.07,-272.89 1184.95,-269.05 1174.83,-265.89 1175.07,-272.89"/>
</g>
<!-- Node14&#45;&gt;Node6 -->
<g id="edge16" class="edge">
<title>Node14&#45;&gt;Node6</title>
<path fill="none" stroke="midnightblue" d="M1018.92,-261.21C999.75,-257.58 978.75,-253.6 960.35,-250.12"/>
<polygon fill="midnightblue" stroke="midnightblue" points="1018.28,-264.65 1028.75,-263.07 1019.58,-257.77 1018.28,-264.65"/>
</g>
<!-- Node14&#45;&gt;Node7 -->
<g id="edge17" class="edge">
<title>Node14&#45;&gt;Node7</title>
<path fill="none" stroke="midnightblue" d="M1000.79,-273.93C942.96,-274.92 864.6,-276.27 807.14,-277.26"/>
<polygon fill="midnightblue" stroke="midnightblue" points="1001.04,-277.43 1010.98,-273.75 1000.92,-270.43 1001.04,-277.43"/>
</g>
<!-- Node16 -->
<g id="node16" class="node">
<title>Node16</title>
<g id="a_node16"><a xlink:href="classServerManager.html#a9c75ea0bd268425c187ef25770eccbe8" target="_top" xlink:title=" ">
<polygon fill="white" stroke="black" points="843,-443.58 843,-473.58 975,-473.58 975,-443.58 843,-443.58"/>
<text text-anchor="start" x="851" y="-461.58" font-family="Helvetica,sans-Serif" font-size="10.00">ServerManager::handleCgi</text>
<text text-anchor="middle" x="909" y="-450.58" font-family="Helvetica,sans-Serif" font-size="10.00">PipeEvent</text>
</a>
</g>
</g>
<!-- Node15&#45;&gt;Node16 -->
<g id="edge19" class="edge">
<title>Node15&#45;&gt;Node16</title>
<path fill="none" stroke="midnightblue" d="M1368,-444.57C1267.57,-447.64 1075.78,-453.51 975.22,-456.59"/>
<polygon fill="midnightblue" stroke="midnightblue" points="1368.13,-448.07 1378.02,-444.26 1367.92,-441.07 1368.13,-448.07"/>
</g>
<!-- Node16&#45;&gt;Node10 -->
<g id="edge20" class="edge">
<title>Node16&#45;&gt;Node10</title>
<path fill="none" stroke="midnightblue" d="M832.66,-465.99C761.15,-472.38 650.62,-480.58 554.5,-480.58 554.5,-480.58 554.5,-480.58 385,-480.58 265.03,-480.58 127.61,-429.78 74.54,-408.15"/>
<polygon fill="midnightblue" stroke="midnightblue" points="833.28,-469.45 842.92,-465.06 832.65,-462.48 833.28,-469.45"/>
</g>
<!-- Node17&#45;&gt;Node18 -->
<g id="edge22" class="edge">
<title>Node17&#45;&gt;Node18</title>
<path fill="none" stroke="midnightblue" d="M1414.29,-66.97C1378.03,-98.74 1299.19,-167.81 1270.35,-193.08"/>
<polygon fill="midnightblue" stroke="midnightblue" points="1416.93,-69.31 1422.15,-60.09 1412.32,-64.05 1416.93,-69.31"/>
</g>
<!-- Node18&#45;&gt;Node14 -->
<g id="edge23" class="edge">
<title>Node18&#45;&gt;Node14</title>
<path fill="none" stroke="midnightblue" d="M1223.63,-216.02C1188.92,-229.78 1135.83,-250.84 1105.16,-263"/>
<polygon fill="midnightblue" stroke="midnightblue" points="1225.32,-219.11 1233.33,-212.17 1222.74,-212.6 1225.32,-219.11"/>
</g>
<!-- Node19&#45;&gt;Node14 -->
<g id="edge25" class="edge">
<title>Node19&#45;&gt;Node14</title>
<path fill="none" stroke="midnightblue" d="M1357.73,-385.5C1307.58,-375.33 1240.87,-358.99 1185,-335.58 1150.15,-320.98 1113.19,-296 1094.11,-282.29"/>
<polygon fill="midnightblue" stroke="midnightblue" points="1357.36,-388.99 1367.86,-387.51 1358.73,-382.13 1357.36,-388.99"/>
</g>
<!-- Node20&#45;&gt;Node14 -->
<g id="edge27" class="edge">
<title>Node20&#45;&gt;Node14</title>
<path fill="none" stroke="midnightblue" d="M1182.5,-294.44C1163.02,-290.24 1142.66,-285.86 1125.33,-282.13"/>
<polygon fill="midnightblue" stroke="midnightblue" points="1181.77,-297.86 1192.28,-296.54 1183.24,-291.01 1181.77,-297.86"/>
</g>
<!-- Node21&#45;&gt;Node18 -->
<g id="edge29" class="edge">
<title>Node21&#45;&gt;Node18</title>
<path fill="none" stroke="midnightblue" d="M1379.34,-176.34C1354.81,-181.71 1326.12,-187.99 1302.97,-193.06"/>
<polygon fill="midnightblue" stroke="midnightblue" points="1380.2,-179.73 1389.22,-174.17 1378.7,-172.89 1380.2,-179.73"/>
</g>
<!-- Node22&#45;&gt;Node18 -->
<g id="edge32" class="edge">
<title>Node22&#45;&gt;Node18</title>
<path fill="none" stroke="midnightblue" d="M1385.85,-230.26C1360.05,-224.61 1328.31,-217.65 1303.09,-212.13"/>
<polygon fill="midnightblue" stroke="midnightblue" points="1385.26,-233.71 1395.78,-232.43 1386.76,-226.87 1385.26,-233.71"/>
</g>
</g>
</svg>
