<?xml version="1.0" encoding="UTF-8" standalone="no"?>
<!DOCTYPE svg PUBLIC "-//W3C//DTD SVG 1.1//EN"
 "http://www.w3.org/Graphics/SVG/1.1/DTD/svg11.dtd">
<!-- Generated by graphviz version 2.43.0 (0)
 -->
<!-- Title: ConfigParser::parseUploadBonus Pages: 1 -->
<svg width="329pt" height="192pt"
 viewBox="0.00 0.00 329.00 192.00" xmlns="http://www.w3.org/2000/svg" xmlns:xlink="http://www.w3.org/1999/xlink">
<g id="graph0" class="graph" transform="scale(1 1) rotate(0) translate(4 188)">
<title>ConfigParser::parseUploadBonus</title>
<polygon fill="white" stroke="transparent" points="-4,4 -4,-188 325,-188 325,4 -4,4"/>
<!-- Node1 -->
<g id="node1" class="node">
<title>Node1</title>
<g id="a_node1"><a xlink:title=" ">
<polygon fill="#bfbfbf" stroke="black" points="0,-83 0,-113 134,-113 134,-83 0,-83"/>
<text text-anchor="start" x="8" y="-101" font-family="Helvetica,sans-Serif" font-size="10.00">ConfigParser::parseUpload</text>
<text text-anchor="middle" x="67" y="-90" font-family="Helvetica,sans-Serif" font-size="10.00">Bonus</text>
</a>
</g>
</g>
<!-- Node2 -->
<g id="node2" class="node">
<title>Node2</title>
<g id="a_node2"><a xlink:href="classConfigParser.html#a84e1b9e32f9be2aee1bff8a78c8c0f67" target="_top" xlink:title="Returns the directory part of the config file path.">
<polygon fill="white" stroke="black" points="174,-164.5 174,-183.5 317,-183.5 317,-164.5 174,-164.5"/>
<text text-anchor="middle" x="245.5" y="-171.5" font-family="Helvetica,sans-Serif" font-size="10.00">ConfigParser::getConfFileDir</text>
</a>
</g>
</g>
<!-- Node1&#45;&gt;Node2 -->
<g id="edge1" class="edge">
<title>Node1&#45;&gt;Node2</title>
<path fill="none" stroke="midnightblue" d="M91.04,-113.17C111.17,-125.86 141.55,-143.65 170,-155 176.16,-157.46 182.74,-159.68 189.35,-161.66"/>
<polygon fill="midnightblue" stroke="midnightblue" points="188.41,-165.04 198.99,-164.4 190.32,-158.3 188.41,-165.04"/>
</g>
<!-- Node3 -->
<g id="node3" class="node">
<title>Node3</title>
<g id="a_node3"><a xlink:href="namespaceconfig_1_1utils.html#a48502107edda1e081240899a7e240da1" target="_top" xlink:title="Validates if a path string is well&#45;formed.">
<polygon fill="white" stroke="black" points="184.5,-126.5 184.5,-145.5 306.5,-145.5 306.5,-126.5 184.5,-126.5"/>
<text text-anchor="middle" x="245.5" y="-133.5" font-family="Helvetica,sans-Serif" font-size="10.00">config::utils::isValidPath</text>
</a>
</g>
</g>
<!-- Node1&#45;&gt;Node3 -->
<g id="edge2" class="edge">
<title>Node1&#45;&gt;Node3</title>
<path fill="none" stroke="midnightblue" d="M134.22,-112.26C152.62,-116.22 172.38,-120.47 190.03,-124.27"/>
<polygon fill="midnightblue" stroke="midnightblue" points="189.63,-127.77 200.14,-126.45 191.1,-120.92 189.63,-127.77"/>
</g>
<!-- Node4 -->
<g id="node4" class="node">
<title>Node4</title>
<g id="a_node4"><a xlink:href="namespaceconfig_1_1utils.html#a4c504c996325f8d62e08d878b037e975" target="_top" xlink:title="Removes the trailing semicolon from a string if present.">
<polygon fill="white" stroke="black" points="170,-88.5 170,-107.5 321,-107.5 321,-88.5 170,-88.5"/>
<text text-anchor="middle" x="245.5" y="-95.5" font-family="Helvetica,sans-Serif" font-size="10.00">config::utils::removeSemicolon</text>
</a>
</g>
</g>
<!-- Node1&#45;&gt;Node4 -->
<g id="edge3" class="edge">
<title>Node1&#45;&gt;Node4</title>
<path fill="none" stroke="midnightblue" d="M134.22,-98C142.59,-98 151.24,-98 159.84,-98"/>
<polygon fill="midnightblue" stroke="midnightblue" points="159.9,-101.5 169.9,-98 159.9,-94.5 159.9,-101.5"/>
</g>
<!-- Node5 -->
<g id="node5" class="node">
<title>Node5</title>
<g id="a_node5"><a xlink:href="classLocationConfig.html#af3b070091ab82c368fe2206be70a2938" target="_top" xlink:title=" ">
<polygon fill="white" stroke="black" points="179.5,-39 179.5,-69 311.5,-69 311.5,-39 179.5,-39"/>
<text text-anchor="start" x="187.5" y="-57" font-family="Helvetica,sans-Serif" font-size="10.00">LocationConfig::setUpload</text>
<text text-anchor="middle" x="245.5" y="-46" font-family="Helvetica,sans-Serif" font-size="10.00">Store</text>
</a>
</g>
</g>
<!-- Node1&#45;&gt;Node5 -->
<g id="edge4" class="edge">
<title>Node1&#45;&gt;Node5</title>
<path fill="none" stroke="midnightblue" d="M128.25,-82.98C143.08,-79.28 159.08,-75.29 174.33,-71.49"/>
<polygon fill="midnightblue" stroke="midnightblue" points="175.37,-74.84 184.22,-69.03 173.67,-68.05 175.37,-74.84"/>
</g>
<!-- Node6 -->
<g id="node6" class="node">
<title>Node6</title>
<g id="a_node6"><a xlink:href="namespaceconfig_1_1utils.html#ab47e6d08957f3aa61a7e2a31c5e8d77f" target="_top" xlink:title="Converts a possibly relative path to absolute.">
<polygon fill="white" stroke="black" points="175.5,-0.5 175.5,-19.5 315.5,-19.5 315.5,-0.5 175.5,-0.5"/>
<text text-anchor="middle" x="245.5" y="-7.5" font-family="Helvetica,sans-Serif" font-size="10.00">config::utils::toAbsolutePath</text>
</a>
</g>
</g>
<!-- Node1&#45;&gt;Node6 -->
<g id="edge5" class="edge">
<title>Node1&#45;&gt;Node6</title>
<path fill="none" stroke="midnightblue" d="M86.45,-82.98C106.09,-67.67 138.59,-44.22 170,-30 176.23,-27.18 182.94,-24.69 189.69,-22.51"/>
<polygon fill="midnightblue" stroke="midnightblue" points="190.99,-25.77 199.55,-19.53 188.97,-19.07 190.99,-25.77"/>
</g>
</g>
</svg>
