<?xml version="1.0" encoding="UTF-8" standalone="no"?>
<!DOCTYPE svg PUBLIC "-//W3C//DTD SVG 1.1//EN"
 "http://www.w3.org/Graphics/SVG/1.1/DTD/svg11.dtd">
<!-- Generated by graphviz version 2.43.0 (0)
 -->
<!-- Title: Client Pages: 1 -->
<svg width="1921pt" height="667pt"
 viewBox="0.00 0.00 1921.00 667.36" xmlns="http://www.w3.org/2000/svg" xmlns:xlink="http://www.w3.org/1999/xlink">
<g id="graph0" class="graph" transform="scale(1 1) rotate(0) translate(4 663.36)">
<title>Client</title>
<polygon fill="white" stroke="transparent" points="-4,4 -4,-663.36 1917,-663.36 1917,4 -4,4"/>
<!-- Node1 -->
<g id="node1" class="node">
<title>Node1</title>
<g id="a_node1"><a xlink:title=" ">
<polygon fill="#bfbfbf" stroke="black" points="1466,-292.86 1466,-311.86 1508,-311.86 1508,-292.86 1466,-292.86"/>
<text text-anchor="middle" x="1487" y="-299.86" font-family="Helvetica,sans-Serif" font-size="10.00">Client</text>
</a>
</g>
</g>
<!-- Node17 -->
<g id="node17" class="node">
<title>Node17</title>
<g id="a_node17"><a xlink:title=" ">
<polygon fill="white" stroke="#bfbfbf" points="1587,-220.86 1587,-239.86 1709,-239.86 1709,-220.86 1587,-220.86"/>
<text text-anchor="middle" x="1648" y="-227.86" font-family="Helvetica,sans-Serif" font-size="10.00">std::map&lt; int, Client * &gt;</text>
</a>
</g>
</g>
<!-- Node1&#45;&gt;Node17 -->
<g id="edge31" class="edge">
<title>Node1&#45;&gt;Node17</title>
<path fill="none" stroke="#9a32cd" stroke-dasharray="5,2" d="M1498.2,-283.83C1504.8,-273.57 1514.33,-261.49 1526,-254.36 1544.09,-243.31 1566.29,-237.21 1586.71,-233.9"/>
<polygon fill="#9a32cd" stroke="#9a32cd" points="1495.11,-282.17 1492.98,-292.54 1501.12,-285.76 1495.11,-282.17"/>
<text text-anchor="middle" x="1547.5" y="-257.36" font-family="Helvetica,sans-Serif" font-size="10.00"> elements</text>
</g>
<!-- Node2 -->
<g id="node2" class="node">
<title>Node2</title>
<g id="a_node2"><a xlink:title=" ">
<polygon fill="white" stroke="#bfbfbf" points="1204,-175.86 1204,-194.86 1342,-194.86 1342,-175.86 1204,-175.86"/>
<text text-anchor="middle" x="1273" y="-182.86" font-family="Helvetica,sans-Serif" font-size="10.00">std::vector&lt; ServerConfig &gt;</text>
</a>
</g>
</g>
<!-- Node2&#45;&gt;Node1 -->
<g id="edge1" class="edge">
<title>Node2&#45;&gt;Node1</title>
<path fill="none" stroke="#9a32cd" stroke-dasharray="5,2" d="M1352.33,-193.63C1391.15,-199.09 1432.91,-207.47 1448,-219.36 1471.78,-238.09 1481.23,-275.07 1484.49,-292.65"/>
<polygon fill="#9a32cd" stroke="#9a32cd" points="1352.4,-190.1 1342.02,-192.23 1351.46,-197.04 1352.4,-190.1"/>
<text text-anchor="middle" x="1409.5" y="-222.36" font-family="Helvetica,sans-Serif" font-size="10.00"> _configs</text>
</g>
<!-- Node16 -->
<g id="node16" class="node">
<title>Node16</title>
<g id="a_node16"><a xlink:href="classServerManager.html" target="_top" xlink:title=" ">
<polygon fill="white" stroke="black" points="1830,-137.86 1830,-156.86 1913,-156.86 1913,-137.86 1830,-137.86"/>
<text text-anchor="middle" x="1871.5" y="-144.86" font-family="Helvetica,sans-Serif" font-size="10.00">ServerManager</text>
</a>
</g>
</g>
<!-- Node2&#45;&gt;Node16 -->
<g id="edge29" class="edge">
<title>Node2&#45;&gt;Node16</title>
<path fill="none" stroke="#9a32cd" stroke-dasharray="5,2" d="M1352.54,-186.52C1457.7,-187 1649.82,-184.17 1812,-161.36 1819.65,-160.28 1827.77,-158.66 1835.44,-156.9"/>
<polygon fill="#9a32cd" stroke="#9a32cd" points="1352.34,-183.01 1342.32,-186.46 1352.3,-190.01 1352.34,-183.01"/>
<text text-anchor="middle" x="1547.5" y="-187.36" font-family="Helvetica,sans-Serif" font-size="10.00"> configs_</text>
</g>
<!-- Node3 -->
<g id="node3" class="node">
<title>Node3</title>
<g id="a_node3"><a xlink:href="classServerConfig.html" target="_top" xlink:title="Configuration of one server { } block Represents a virtual server (nginx&#45;like style).">
<polygon fill="white" stroke="black" points="1040,-175.86 1040,-194.86 1114,-194.86 1114,-175.86 1040,-175.86"/>
<text text-anchor="middle" x="1077" y="-182.86" font-family="Helvetica,sans-Serif" font-size="10.00">ServerConfig</text>
</a>
</g>
</g>
<!-- Node3&#45;&gt;Node1 -->
<g id="edge21" class="edge">
<title>Node3&#45;&gt;Node1</title>
<path fill="none" stroke="#9a32cd" stroke-dasharray="5,2" d="M1121.56,-197.6C1125.09,-198.55 1128.6,-199.48 1132,-200.36 1229.79,-225.66 1255.8,-225.89 1353,-253.36 1395.74,-265.44 1406.74,-267.93 1448,-284.36 1454.24,-286.84 1460.9,-289.87 1466.88,-292.72"/>
<polygon fill="#9a32cd" stroke="#9a32cd" points="1122.22,-194.16 1111.65,-194.91 1120.38,-200.91 1122.22,-194.16"/>
<text text-anchor="middle" x="1273" y="-256.36" font-family="Helvetica,sans-Serif" font-size="10.00"> _cgiServerConfig</text>
</g>
<!-- Node3&#45;&gt;Node2 -->
<g id="edge2" class="edge">
<title>Node3&#45;&gt;Node2</title>
<path fill="none" stroke="#9a32cd" stroke-dasharray="5,2" d="M1124.21,-185.36C1148.05,-185.36 1177.58,-185.36 1203.96,-185.36"/>
<polygon fill="#9a32cd" stroke="#9a32cd" points="1124.04,-181.86 1114.04,-185.36 1124.04,-188.86 1124.04,-181.86"/>
<text text-anchor="middle" x="1153.5" y="-188.36" font-family="Helvetica,sans-Serif" font-size="10.00"> elements</text>
</g>
<!-- Node4 -->
<g id="node4" class="node">
<title>Node4</title>
<g id="a_node4"><a xlink:title=" ">
<polygon fill="white" stroke="#bfbfbf" points="712,-154.86 712,-173.86 858,-173.86 858,-154.86 712,-154.86"/>
<text text-anchor="middle" x="785" y="-161.86" font-family="Helvetica,sans-Serif" font-size="10.00">std::vector&lt; LocationConfig &gt;</text>
</a>
</g>
</g>
<!-- Node4&#45;&gt;Node3 -->
<g id="edge3" class="edge">
<title>Node4&#45;&gt;Node3</title>
<path fill="none" stroke="#9a32cd" stroke-dasharray="5,2" d="M868.12,-170.24C913.5,-173.49 970.87,-177.62 1022,-181.36 1027.81,-181.79 1033.98,-182.24 1039.98,-182.68"/>
<polygon fill="#9a32cd" stroke="#9a32cd" points="868.27,-166.74 858.04,-169.51 867.77,-173.72 868.27,-166.74"/>
<text text-anchor="middle" x="949" y="-184.36" font-family="Helvetica,sans-Serif" font-size="10.00"> locations_</text>
</g>
<!-- Node5 -->
<g id="node5" class="node">
<title>Node5</title>
<g id="a_node5"><a xlink:href="classLocationConfig.html" target="_top" xlink:title="Represents the configuration for a specific location within a server block.">
<polygon fill="white" stroke="black" points="526,-150.86 526,-169.86 608,-169.86 608,-150.86 526,-150.86"/>
<text text-anchor="middle" x="567" y="-157.86" font-family="Helvetica,sans-Serif" font-size="10.00">LocationConfig</text>
</a>
</g>
</g>
<!-- Node5&#45;&gt;Node4 -->
<g id="edge4" class="edge">
<title>Node5&#45;&gt;Node4</title>
<path fill="none" stroke="#9a32cd" stroke-dasharray="5,2" d="M618.39,-161.29C646.16,-161.81 681.12,-162.46 711.75,-163.02"/>
<polygon fill="#9a32cd" stroke="#9a32cd" points="618.18,-157.79 608.12,-161.1 618.06,-164.79 618.18,-157.79"/>
<text text-anchor="middle" x="660" y="-166.36" font-family="Helvetica,sans-Serif" font-size="10.00"> elements</text>
</g>
<!-- Node6 -->
<g id="node6" class="node">
<title>Node6</title>
<g id="a_node6"><a xlink:title=" ">
<polygon fill="white" stroke="#bfbfbf" points="278.5,-283.36 278.5,-313.36 388.5,-313.36 388.5,-283.36 278.5,-283.36"/>
<text text-anchor="start" x="286.5" y="-301.36" font-family="Helvetica,sans-Serif" font-size="10.00">std::map&lt; std::string,</text>
<text text-anchor="middle" x="333.5" y="-290.36" font-family="Helvetica,sans-Serif" font-size="10.00"> std::string &gt;</text>
</a>
</g>
</g>
<!-- Node6&#45;&gt;Node5 -->
<g id="edge5" class="edge">
<title>Node6&#45;&gt;Node5</title>
<path fill="none" stroke="#9a32cd" stroke-dasharray="5,2" d="M375.19,-278.58C382.2,-274.97 389.36,-271.14 396,-267.36 455.57,-233.44 467.72,-220.44 526,-184.36 533.71,-179.59 542.33,-174.4 549.59,-170.07"/>
<polygon fill="#9a32cd" stroke="#9a32cd" points="373.13,-275.7 365.79,-283.35 376.3,-281.95 373.13,-275.7"/>
<text text-anchor="middle" x="461" y="-258.36" font-family="Helvetica,sans-Serif" font-size="10.00"> cgi_handlers_</text>
</g>
<!-- Node12 -->
<g id="node12" class="node">
<title>Node12</title>
<g id="a_node12"><a xlink:href="classHttpRequest.html" target="_top" xlink:title=" ">
<polygon fill="white" stroke="black" points="531,-378.86 531,-397.86 603,-397.86 603,-378.86 531,-378.86"/>
<text text-anchor="middle" x="567" y="-385.86" font-family="Helvetica,sans-Serif" font-size="10.00">HttpRequest</text>
</a>
</g>
</g>
<!-- Node6&#45;&gt;Node12 -->
<g id="edge19" class="edge">
<title>Node6&#45;&gt;Node12</title>
<path fill="none" stroke="#9a32cd" stroke-dasharray="5,2" d="M365.01,-318.95C379.36,-327.86 397.02,-337.73 414,-344.36 453.88,-359.93 467.09,-352.76 508,-365.36 520.22,-369.12 533.49,-374.3 544.26,-378.79"/>
<polygon fill="#9a32cd" stroke="#9a32cd" points="366.85,-315.98 356.54,-313.57 363.1,-321.89 366.85,-315.98"/>
<text text-anchor="middle" x="461" y="-368.36" font-family="Helvetica,sans-Serif" font-size="10.00"> _headers</text>
</g>
<!-- Node14 -->
<g id="node14" class="node">
<title>Node14</title>
<g id="a_node14"><a xlink:href="classHttpResponse.html" target="_top" xlink:title=" ">
<polygon fill="white" stroke="black" points="527,-299.86 527,-318.86 607,-318.86 607,-299.86 527,-299.86"/>
<text text-anchor="middle" x="567" y="-306.86" font-family="Helvetica,sans-Serif" font-size="10.00">HttpResponse</text>
</a>
</g>
</g>
<!-- Node6&#45;&gt;Node14 -->
<g id="edge25" class="edge">
<title>Node6&#45;&gt;Node14</title>
<path fill="none" stroke="#9a32cd" stroke-dasharray="5,2" d="M398.88,-296.21C431.61,-295.76 471.99,-296.17 508,-299.36 514.11,-299.9 520.54,-300.74 526.8,-301.7"/>
<polygon fill="#9a32cd" stroke="#9a32cd" points="398.47,-292.72 388.53,-296.39 398.59,-299.72 398.47,-292.72"/>
<text text-anchor="middle" x="461" y="-302.36" font-family="Helvetica,sans-Serif" font-size="10.00"> _headers</text>
</g>
<!-- Node7 -->
<g id="node7" class="node">
<title>Node7</title>
<g id="a_node7"><a xlink:title=" ">
<polygon fill="white" stroke="#bfbfbf" points="132,-242.86 132,-261.86 192,-261.86 192,-242.86 132,-242.86"/>
<text text-anchor="middle" x="162" y="-249.86" font-family="Helvetica,sans-Serif" font-size="10.00">std::string</text>
</a>
</g>
</g>
<!-- Node7&#45;&gt;Node1 -->
<g id="edge27" class="edge">
<title>Node7&#45;&gt;Node1</title>
<path fill="none" stroke="#9a32cd" stroke-dasharray="5,2" d="M173.74,-270.78C190.7,-298.09 226.39,-348.83 271,-374.36 386.55,-440.49 432.87,-426.36 566,-426.36 566,-426.36 566,-426.36 1078,-426.36 1248.46,-426.36 1291.35,-392.59 1448,-325.36 1456.36,-321.77 1465.09,-316.6 1472.07,-312.08"/>
<polygon fill="#9a32cd" stroke="#9a32cd" points="176.53,-268.62 168.36,-261.87 170.53,-272.24 176.53,-268.62"/>
<text text-anchor="middle" x="785" y="-440.36" font-family="Helvetica,sans-Serif" font-size="10.00"> _clientIp</text>
<text text-anchor="middle" x="785" y="-429.36" font-family="Helvetica,sans-Serif" font-size="10.00">_outBuffer</text>
</g>
<!-- Node7&#45;&gt;Node3 -->
<g id="edge11" class="edge">
<title>Node7&#45;&gt;Node3</title>
<path fill="none" stroke="#9a32cd" stroke-dasharray="5,2" d="M193.54,-238.82C226.97,-225.25 282.48,-206.36 332.5,-206.36 332.5,-206.36 332.5,-206.36 786,-206.36 891.07,-206.36 917.39,-202.23 1022,-192.36 1027.74,-191.82 1033.81,-191.14 1039.73,-190.41"/>
<polygon fill="#9a32cd" stroke="#9a32cd" points="191.79,-235.75 183.91,-242.83 194.49,-242.21 191.79,-235.75"/>
<text text-anchor="middle" x="567" y="-242.36" font-family="Helvetica,sans-Serif" font-size="10.00"> host_address_</text>
<text text-anchor="middle" x="567" y="-231.36" font-family="Helvetica,sans-Serif" font-size="10.00">redirect_url_</text>
<text text-anchor="middle" x="567" y="-220.36" font-family="Helvetica,sans-Serif" font-size="10.00">root_</text>
<text text-anchor="middle" x="567" y="-209.36" font-family="Helvetica,sans-Serif" font-size="10.00">server_name_</text>
</g>
<!-- Node7&#45;&gt;Node5 -->
<g id="edge8" class="edge">
<title>Node7&#45;&gt;Node5</title>
<path fill="none" stroke="#9a32cd" stroke-dasharray="5,2" d="M169.44,-233.2C182.28,-198.75 214.77,-127.83 271,-105.36 371.15,-65.35 502.22,-126 548.72,-150.69"/>
<polygon fill="#9a32cd" stroke="#9a32cd" points="166.14,-232.03 166.09,-242.63 172.74,-234.38 166.14,-232.03"/>
<text text-anchor="middle" x="333.5" y="-141.36" font-family="Helvetica,sans-Serif" font-size="10.00"> path_</text>
<text text-anchor="middle" x="333.5" y="-130.36" font-family="Helvetica,sans-Serif" font-size="10.00">redirect_url_</text>
<text text-anchor="middle" x="333.5" y="-119.36" font-family="Helvetica,sans-Serif" font-size="10.00">root_</text>
<text text-anchor="middle" x="333.5" y="-108.36" font-family="Helvetica,sans-Serif" font-size="10.00">upload_store_</text>
</g>
<!-- Node7&#45;&gt;Node6 -->
<g id="edge6" class="edge">
<title>Node7&#45;&gt;Node6</title>
<path fill="none" stroke="#9a32cd" stroke-dasharray="5,2" d="M201.91,-264.06C204.64,-264.85 207.36,-265.62 210,-266.36 232.33,-272.6 257.06,-279.13 278.42,-284.66"/>
<polygon fill="#9a32cd" stroke="#9a32cd" points="202.62,-260.62 192.04,-261.18 200.66,-267.34 202.62,-260.62"/>
<text text-anchor="middle" x="231.5" y="-290.36" font-family="Helvetica,sans-Serif" font-size="10.00"> elements</text>
<text text-anchor="middle" x="231.5" y="-279.36" font-family="Helvetica,sans-Serif" font-size="10.00">keys</text>
</g>
<!-- Node9 -->
<g id="node9" class="node">
<title>Node9</title>
<g id="a_node9"><a xlink:title=" ">
<polygon fill="white" stroke="#bfbfbf" points="271,-158.86 271,-177.86 396,-177.86 396,-158.86 271,-158.86"/>
<text text-anchor="middle" x="333.5" y="-165.86" font-family="Helvetica,sans-Serif" font-size="10.00">std::vector&lt; std::string &gt;</text>
</a>
</g>
</g>
<!-- Node7&#45;&gt;Node9 -->
<g id="edge10" class="edge">
<title>Node7&#45;&gt;Node9</title>
<path fill="none" stroke="#9a32cd" stroke-dasharray="5,2" d="M170.05,-233.44C177.34,-216.73 190.43,-193.25 210,-181.36 228,-170.42 250.29,-165.98 270.9,-164.65"/>
<polygon fill="#9a32cd" stroke="#9a32cd" points="166.77,-232.21 166.25,-242.79 173.26,-234.84 166.77,-232.21"/>
<text text-anchor="middle" x="231.5" y="-184.36" font-family="Helvetica,sans-Serif" font-size="10.00"> elements</text>
</g>
<!-- Node10 -->
<g id="node10" class="node">
<title>Node10</title>
<g id="a_node10"><a xlink:title=" ">
<polygon fill="white" stroke="#bfbfbf" points="414,-45.36 414,-75.36 508,-75.36 508,-45.36 414,-45.36"/>
<text text-anchor="start" x="422" y="-63.36" font-family="Helvetica,sans-Serif" font-size="10.00">std::map&lt; int, std</text>
<text text-anchor="middle" x="461" y="-52.36" font-family="Helvetica,sans-Serif" font-size="10.00">::string &gt;</text>
</a>
</g>
</g>
<!-- Node7&#45;&gt;Node10 -->
<g id="edge13" class="edge">
<title>Node7&#45;&gt;Node10</title>
<path fill="none" stroke="#9a32cd" stroke-dasharray="5,2" d="M165.2,-232.59C170.39,-189.98 184.86,-91.7 210,-71.36 267.41,-24.9 358.82,-35.29 413.75,-47.52"/>
<polygon fill="#9a32cd" stroke="#9a32cd" points="161.72,-232.24 164.03,-242.58 168.67,-233.06 161.72,-232.24"/>
<text text-anchor="middle" x="231.5" y="-74.36" font-family="Helvetica,sans-Serif" font-size="10.00"> elements</text>
</g>
<!-- Node11 -->
<g id="node11" class="node">
<title>Node11</title>
<g id="a_node11"><a xlink:href="classHttpParser.html" target="_top" xlink:title=" ">
<polygon fill="white" stroke="black" points="753,-491.86 753,-510.86 817,-510.86 817,-491.86 753,-491.86"/>
<text text-anchor="middle" x="785" y="-498.86" font-family="Helvetica,sans-Serif" font-size="10.00">HttpParser</text>
</a>
</g>
</g>
<!-- Node7&#45;&gt;Node11 -->
<g id="edge20" class="edge">
<title>Node7&#45;&gt;Node11</title>
<path fill="none" stroke="#9a32cd" stroke-dasharray="5,2" d="M162.98,-272.37C163.91,-309.81 170.69,-391.43 210,-444.36 228.77,-469.63 240.81,-471.45 271,-480.36 446.9,-532.28 671.43,-514.31 752.79,-505.25"/>
<polygon fill="#9a32cd" stroke="#9a32cd" points="166.47,-272.2 162.84,-262.25 159.47,-272.3 166.47,-272.2"/>
<text text-anchor="middle" x="461" y="-528.36" font-family="Helvetica,sans-Serif" font-size="10.00"> _buffer</text>
<text text-anchor="middle" x="461" y="-517.36" font-family="Helvetica,sans-Serif" font-size="10.00">_chunkBuffer</text>
</g>
<!-- Node7&#45;&gt;Node12 -->
<g id="edge18" class="edge">
<title>Node7&#45;&gt;Node12</title>
<path fill="none" stroke="#9a32cd" stroke-dasharray="5,2" d="M165.57,-272.02C171.26,-312.2 186.35,-401.45 210,-419.36 314.6,-498.58 489.36,-425.74 546.95,-398.03"/>
<polygon fill="#9a32cd" stroke="#9a32cd" points="169.01,-271.31 164.18,-261.88 162.07,-272.26 169.01,-271.31"/>
<text text-anchor="middle" x="333.5" y="-468.36" font-family="Helvetica,sans-Serif" font-size="10.00"> _path</text>
<text text-anchor="middle" x="333.5" y="-457.36" font-family="Helvetica,sans-Serif" font-size="10.00">_query</text>
</g>
<!-- Node7&#45;&gt;Node14 -->
<g id="edge24" class="edge">
<title>Node7&#45;&gt;Node14</title>
<path fill="none" stroke="#9a32cd" stroke-dasharray="5,2" d="M202.18,-247.46C280.69,-238.3 454.34,-221.57 508,-245.36 533.22,-256.54 552.15,-284.71 560.8,-299.67"/>
<polygon fill="#9a32cd" stroke="#9a32cd" points="201.72,-243.99 192.2,-248.64 202.55,-250.94 201.72,-243.99"/>
<text text-anchor="middle" x="333.5" y="-243.36" font-family="Helvetica,sans-Serif" font-size="10.00"> _reasonPhrase</text>
</g>
<!-- Node21 -->
<g id="node21" class="node">
<title>Node21</title>
<g id="a_node21"><a xlink:href="classTcpListener.html" target="_top" xlink:title=" ">
<polygon fill="white" stroke="black" points="300.5,-2.86 300.5,-21.86 366.5,-21.86 366.5,-2.86 300.5,-2.86"/>
<text text-anchor="middle" x="333.5" y="-9.86" font-family="Helvetica,sans-Serif" font-size="10.00">TcpListener</text>
</a>
</g>
</g>
<!-- Node7&#45;&gt;Node21 -->
<g id="edge36" class="edge">
<title>Node7&#45;&gt;Node21</title>
<path fill="none" stroke="#9a32cd" stroke-dasharray="5,2" d="M163.93,-232.45C166.8,-180.92 177.36,-45.25 210,-17.36 234.6,3.66 273.17,1.48 300.45,-3.76"/>
<polygon fill="#9a32cd" stroke="#9a32cd" points="160.43,-232.45 163.41,-242.61 167.42,-232.81 160.43,-232.45"/>
<text text-anchor="middle" x="231.5" y="-20.36" font-family="Helvetica,sans-Serif" font-size="10.00"> host_</text>
</g>
<!-- Node23 -->
<g id="node23" class="node">
<title>Node23</title>
<g id="a_node23"><a xlink:href="classCgiProcess.html" target="_top" xlink:title=" ">
<polygon fill="white" stroke="black" points="626,-537.86 626,-556.86 694,-556.86 694,-537.86 626,-537.86"/>
<text text-anchor="middle" x="660" y="-544.86" font-family="Helvetica,sans-Serif" font-size="10.00">CgiProcess</text>
</a>
</g>
</g>
<!-- Node7&#45;&gt;Node23 -->
<g id="edge39" class="edge">
<title>Node7&#45;&gt;Node23</title>
<path fill="none" stroke="#9a32cd" stroke-dasharray="5,2" d="M163.52,-272.32C165.43,-327.98 173.94,-482.93 210,-515.36 328.96,-622.37 544.85,-578.68 626.52,-556.89"/>
<polygon fill="#9a32cd" stroke="#9a32cd" points="167.01,-271.92 163.21,-262.03 160.02,-272.14 167.01,-271.92"/>
<text text-anchor="middle" x="333.5" y="-651.36" font-family="Helvetica,sans-Serif" font-size="10.00"> complete_response_</text>
<text text-anchor="middle" x="333.5" y="-640.36" font-family="Helvetica,sans-Serif" font-size="10.00">interpreter_</text>
<text text-anchor="middle" x="333.5" y="-629.36" font-family="Helvetica,sans-Serif" font-size="10.00">request_body_</text>
<text text-anchor="middle" x="333.5" y="-618.36" font-family="Helvetica,sans-Serif" font-size="10.00">response_body_</text>
<text text-anchor="start" x="286.5" y="-607.36" font-family="Helvetica,sans-Serif" font-size="10.00">response_headers</text>
<text text-anchor="middle" x="333.5" y="-596.36" font-family="Helvetica,sans-Serif" font-size="10.00">_</text>
<text text-anchor="middle" x="333.5" y="-585.36" font-family="Helvetica,sans-Serif" font-size="10.00">script_path_</text>
</g>
<!-- Node8 -->
<g id="node8" class="node">
<title>Node8</title>
<g id="a_node8"><a xlink:title=" ">
<polygon fill="white" stroke="#bfbfbf" points="0,-237.36 0,-267.36 95,-267.36 95,-237.36 0,-237.36"/>
<text text-anchor="start" x="8" y="-255.36" font-family="Helvetica,sans-Serif" font-size="10.00">std::basic_string&lt;</text>
<text text-anchor="middle" x="47.5" y="-244.36" font-family="Helvetica,sans-Serif" font-size="10.00"> Char &gt;</text>
</a>
</g>
</g>
<!-- Node8&#45;&gt;Node7 -->
<g id="edge7" class="edge">
<title>Node8&#45;&gt;Node7</title>
<path fill="none" stroke="midnightblue" d="M105.53,-252.36C114.68,-252.36 123.8,-252.36 131.93,-252.36"/>
<polygon fill="midnightblue" stroke="midnightblue" points="105.23,-248.86 95.23,-252.36 105.23,-255.86 105.23,-248.86"/>
</g>
<!-- Node9&#45;&gt;Node3 -->
<g id="edge14" class="edge">
<title>Node9&#45;&gt;Node3</title>
<path fill="none" stroke="#9a32cd" stroke-dasharray="5,2" d="M397.73,-157.18C434.94,-151.16 482.99,-144.38 526,-141.36 590.58,-136.83 752.46,-137.46 858,-145.36 931.34,-150.85 950.35,-150.77 1022,-167.36 1031.53,-169.57 1041.77,-172.76 1050.74,-175.84"/>
<polygon fill="#9a32cd" stroke="#9a32cd" points="396.83,-153.78 387.53,-158.85 397.97,-160.68 396.83,-153.78"/>
<text text-anchor="middle" x="660" y="-142.36" font-family="Helvetica,sans-Serif" font-size="10.00"> indexes_</text>
</g>
<!-- Node9&#45;&gt;Node5 -->
<g id="edge9" class="edge">
<title>Node9&#45;&gt;Node5</title>
<path fill="none" stroke="#9a32cd" stroke-dasharray="5,2" d="M406.32,-165.88C445.71,-164.52 493.06,-162.88 525.92,-161.75"/>
<polygon fill="#9a32cd" stroke="#9a32cd" points="406.11,-162.38 396.23,-166.23 406.35,-169.38 406.11,-162.38"/>
<text text-anchor="middle" x="461" y="-180.36" font-family="Helvetica,sans-Serif" font-size="10.00"> allowed_methods_</text>
<text text-anchor="middle" x="461" y="-169.36" font-family="Helvetica,sans-Serif" font-size="10.00">indexes_</text>
</g>
<!-- Node10&#45;&gt;Node3 -->
<g id="edge12" class="edge">
<title>Node10&#45;&gt;Node3</title>
<path fill="none" stroke="#9a32cd" stroke-dasharray="5,2" d="M518.48,-57.65C644.77,-52.77 944.95,-48.01 1022,-108.36 1041.58,-123.7 1024.84,-141.63 1040,-161.36 1044.39,-167.08 1050.55,-171.88 1056.54,-175.66"/>
<polygon fill="#9a32cd" stroke="#9a32cd" points="518.1,-54.17 508.25,-58.06 518.38,-61.16 518.1,-54.17"/>
<text text-anchor="middle" x="660" y="-58.36" font-family="Helvetica,sans-Serif" font-size="10.00"> error_pages_</text>
</g>
<!-- Node11&#45;&gt;Node1 -->
<g id="edge15" class="edge">
<title>Node11&#45;&gt;Node1</title>
<path fill="none" stroke="#9a32cd" stroke-dasharray="5,2" d="M827.11,-503.14C964.3,-508.69 1400.47,-523.03 1448,-483.36 1474.75,-461.04 1483.45,-346.51 1485.49,-312.13"/>
<polygon fill="#9a32cd" stroke="#9a32cd" points="827.14,-499.64 817,-502.73 826.85,-506.63 827.14,-499.64"/>
<text text-anchor="middle" x="1153.5" y="-512.36" font-family="Helvetica,sans-Serif" font-size="10.00"> _parser</text>
</g>
<!-- Node12&#45;&gt;Node11 -->
<g id="edge16" class="edge">
<title>Node12&#45;&gt;Node11</title>
<path fill="none" stroke="#9a32cd" stroke-dasharray="5,2" d="M595.55,-402.77C640.31,-426.19 727.65,-471.88 765.63,-491.75"/>
<polygon fill="#9a32cd" stroke="#9a32cd" points="596.9,-399.53 586.42,-397.99 593.65,-405.73 596.9,-399.53"/>
<text text-anchor="middle" x="660" y="-454.36" font-family="Helvetica,sans-Serif" font-size="10.00"> _request</text>
</g>
<!-- Node13 -->
<g id="node13" class="node">
<title>Node13</title>
<g id="a_node13"><a xlink:title=" ">
<polygon fill="white" stroke="#bfbfbf" points="283.5,-345.86 283.5,-364.86 383.5,-364.86 383.5,-345.86 283.5,-345.86"/>
<text text-anchor="middle" x="333.5" y="-352.86" font-family="Helvetica,sans-Serif" font-size="10.00">std::vector&lt; char &gt;</text>
</a>
</g>
</g>
<!-- Node13&#45;&gt;Node12 -->
<g id="edge17" class="edge">
<title>Node13&#45;&gt;Node12</title>
<path fill="none" stroke="#9a32cd" stroke-dasharray="5,2" d="M371.79,-367.95C384.98,-371.92 400.02,-375.91 414,-378.36 453.59,-385.31 499.76,-387.53 530.73,-388.19"/>
<polygon fill="#9a32cd" stroke="#9a32cd" points="372.7,-364.57 362.12,-364.94 370.63,-371.25 372.7,-364.57"/>
<text text-anchor="middle" x="461" y="-390.36" font-family="Helvetica,sans-Serif" font-size="10.00"> _body</text>
</g>
<!-- Node13&#45;&gt;Node14 -->
<g id="edge23" class="edge">
<title>Node13&#45;&gt;Node14</title>
<path fill="none" stroke="#9a32cd" stroke-dasharray="5,2" d="M375.93,-342.94C388.12,-339.54 401.53,-336.06 414,-333.36 451.99,-325.13 495.9,-318.5 526.72,-314.32"/>
<polygon fill="#9a32cd" stroke="#9a32cd" points="374.68,-339.66 366.02,-345.75 376.59,-346.39 374.68,-339.66"/>
<text text-anchor="middle" x="461" y="-336.36" font-family="Helvetica,sans-Serif" font-size="10.00"> _body</text>
</g>
<!-- Node14&#45;&gt;Node1 -->
<g id="edge22" class="edge">
<title>Node14&#45;&gt;Node1</title>
<path fill="none" stroke="#9a32cd" stroke-dasharray="5,2" d="M617.46,-313.67C661.22,-317.11 726.8,-321.36 784,-321.36 784,-321.36 784,-321.36 1274,-321.36 1344.77,-321.36 1428.29,-310.73 1465.88,-305.37"/>
<polygon fill="#9a32cd" stroke="#9a32cd" points="617.63,-310.17 607.38,-312.86 617.07,-317.15 617.63,-310.17"/>
<text text-anchor="middle" x="1077" y="-324.36" font-family="Helvetica,sans-Serif" font-size="10.00"> _response</text>
</g>
<!-- Node15 -->
<g id="node15" class="node">
<title>Node15</title>
<g id="a_node15"><a xlink:title=" ">
<polygon fill="white" stroke="#bfbfbf" points="1193,-453.86 1193,-472.86 1353,-472.86 1353,-453.86 1193,-453.86"/>
<text text-anchor="middle" x="1273" y="-460.86" font-family="Helvetica,sans-Serif" font-size="10.00">std::queue&lt; PendingResponse &gt;</text>
</a>
</g>
</g>
<!-- Node15&#45;&gt;Node1 -->
<g id="edge26" class="edge">
<title>Node15&#45;&gt;Node1</title>
<path fill="none" stroke="#9a32cd" stroke-dasharray="5,2" d="M1363.36,-469.86C1393.36,-467.52 1425.01,-459.47 1448,-439.36 1486.27,-405.88 1487.56,-337.57 1486.6,-312.17"/>
<polygon fill="#9a32cd" stroke="#9a32cd" points="1363.05,-466.38 1353.27,-470.45 1363.45,-473.36 1363.05,-466.38"/>
<text text-anchor="middle" x="1409.5" y="-471.36" font-family="Helvetica,sans-Serif" font-size="10.00"> _responseQueue</text>
</g>
<!-- Node16&#45;&gt;Node1 -->
<g id="edge28" class="edge">
<title>Node16&#45;&gt;Node1</title>
<path fill="none" stroke="#9a32cd" stroke-dasharray="5,2" d="M1865.2,-166.6C1857.59,-190.37 1841.16,-230.13 1812,-250.36 1714.88,-317.76 1562.34,-310.06 1508.02,-304.73"/>
<polygon fill="#9a32cd" stroke="#9a32cd" points="1868.58,-167.52 1868.09,-156.94 1861.87,-165.51 1868.58,-167.52"/>
<text text-anchor="middle" x="1648" y="-310.36" font-family="Helvetica,sans-Serif" font-size="10.00"> _serverManager</text>
</g>
<!-- Node17&#45;&gt;Node16 -->
<g id="edge30" class="edge">
<title>Node17&#45;&gt;Node16</title>
<path fill="none" stroke="#9a32cd" stroke-dasharray="5,2" d="M1719.06,-225.37C1748.88,-221.17 1783.32,-213.47 1812,-199.36 1832.97,-189.04 1852.17,-169.11 1862.51,-157.15"/>
<polygon fill="#9a32cd" stroke="#9a32cd" points="1718.61,-221.9 1709.14,-226.67 1719.51,-228.84 1718.61,-221.9"/>
<text text-anchor="middle" x="1769.5" y="-238.36" font-family="Helvetica,sans-Serif" font-size="10.00"> cgi_pipes_</text>
<text text-anchor="middle" x="1769.5" y="-227.36" font-family="Helvetica,sans-Serif" font-size="10.00">clients_</text>
</g>
<!-- Node18 -->
<g id="node18" class="node">
<title>Node18</title>
<g id="a_node18"><a xlink:title=" ">
<polygon fill="white" stroke="#bfbfbf" points="1598,-99.86 1598,-118.86 1698,-118.86 1698,-99.86 1598,-99.86"/>
<text text-anchor="middle" x="1648" y="-106.86" font-family="Helvetica,sans-Serif" font-size="10.00">std::map&lt; int, int &gt;</text>
</a>
</g>
</g>
<!-- Node18&#45;&gt;Node16 -->
<g id="edge32" class="edge">
<title>Node18&#45;&gt;Node16</title>
<path fill="none" stroke="#9a32cd" stroke-dasharray="5,2" d="M1708.44,-109.5C1739.66,-110.72 1778.32,-114.06 1812,-122.36 1826.05,-125.82 1841.04,-132.29 1852.33,-137.78"/>
<polygon fill="#9a32cd" stroke="#9a32cd" points="1708.27,-105.99 1698.16,-109.16 1708.04,-112.99 1708.27,-105.99"/>
<text text-anchor="middle" x="1769.5" y="-125.36" font-family="Helvetica,sans-Serif" font-size="10.00"> listener_ports_</text>
</g>
<!-- Node19 -->
<g id="node19" class="node">
<title>Node19</title>
<g id="a_node19"><a xlink:title=" ">
<polygon fill="white" stroke="#bfbfbf" points="1593,-61.86 1593,-80.86 1703,-80.86 1703,-61.86 1593,-61.86"/>
<text text-anchor="middle" x="1648" y="-68.86" font-family="Helvetica,sans-Serif" font-size="10.00">std::map&lt; pid_t, int &gt;</text>
</a>
</g>
</g>
<!-- Node19&#45;&gt;Node16 -->
<g id="edge33" class="edge">
<title>Node19&#45;&gt;Node16</title>
<path fill="none" stroke="#9a32cd" stroke-dasharray="5,2" d="M1713.56,-72.94C1744.52,-75.75 1781.44,-82.17 1812,-96.36 1833.02,-106.12 1852.2,-125.79 1862.53,-137.64"/>
<polygon fill="#9a32cd" stroke="#9a32cd" points="1713.55,-69.43 1703.3,-72.13 1712.99,-76.41 1713.55,-69.43"/>
<text text-anchor="middle" x="1769.5" y="-99.36" font-family="Helvetica,sans-Serif" font-size="10.00"> cgi_exit_statuses_</text>
</g>
<!-- Node20 -->
<g id="node20" class="node">
<title>Node20</title>
<g id="a_node20"><a xlink:title=" ">
<polygon fill="white" stroke="#bfbfbf" points="876,-34.86 876,-53.86 1022,-53.86 1022,-34.86 876,-34.86"/>
<text text-anchor="middle" x="949" y="-41.86" font-family="Helvetica,sans-Serif" font-size="10.00">std::map&lt; int, TcpListener * &gt;</text>
</a>
</g>
</g>
<!-- Node20&#45;&gt;Node16 -->
<g id="edge34" class="edge">
<title>Node20&#45;&gt;Node16</title>
<path fill="none" stroke="#9a32cd" stroke-dasharray="5,2" d="M1007.33,-56.83C1012.37,-58.48 1017.32,-60.32 1022,-62.36 1085.45,-90.02 1083.28,-147.36 1152.5,-147.36 1152.5,-147.36 1152.5,-147.36 1649,-147.36 1712.07,-147.36 1785.23,-147.36 1829.68,-147.36"/>
<polygon fill="#9a32cd" stroke="#9a32cd" points="1008.2,-53.43 997.61,-53.88 1006.16,-60.13 1008.2,-53.43"/>
<text text-anchor="middle" x="1409.5" y="-150.36" font-family="Helvetica,sans-Serif" font-size="10.00"> listeners_</text>
</g>
<!-- Node21&#45;&gt;Node20 -->
<g id="edge35" class="edge">
<title>Node21&#45;&gt;Node20</title>
<path fill="none" stroke="#9a32cd" stroke-dasharray="5,2" d="M376.68,-14.56C480.03,-19.95 746.87,-33.87 875.95,-40.6"/>
<polygon fill="#9a32cd" stroke="#9a32cd" points="376.79,-11.06 366.62,-14.04 376.42,-18.05 376.79,-11.06"/>
<text text-anchor="middle" x="567" y="-30.36" font-family="Helvetica,sans-Serif" font-size="10.00"> elements</text>
</g>
<!-- Node22 -->
<g id="node22" class="node">
<title>Node22</title>
<g id="a_node22"><a xlink:href="classEpollWrapper.html" target="_top" xlink:title=" ">
<polygon fill="white" stroke="black" points="1611,-23.86 1611,-42.86 1685,-42.86 1685,-23.86 1611,-23.86"/>
<text text-anchor="middle" x="1648" y="-30.86" font-family="Helvetica,sans-Serif" font-size="10.00">EpollWrapper</text>
</a>
</g>
</g>
<!-- Node22&#45;&gt;Node16 -->
<g id="edge37" class="edge">
<title>Node22&#45;&gt;Node16</title>
<path fill="none" stroke="#9a32cd" stroke-dasharray="5,2" d="M1695.61,-31.52C1730.26,-32.3 1777.35,-38.07 1812,-60.36 1841.55,-79.36 1859.79,-119.16 1866.98,-137.6"/>
<polygon fill="#9a32cd" stroke="#9a32cd" points="1695.31,-28.02 1685.28,-31.43 1695.25,-35.02 1695.31,-28.02"/>
<text text-anchor="middle" x="1769.5" y="-63.36" font-family="Helvetica,sans-Serif" font-size="10.00"> epoll_</text>
</g>
<!-- Node23&#45;&gt;Node1 -->
<g id="edge38" class="edge">
<title>Node23&#45;&gt;Node1</title>
<path fill="none" stroke="#9a32cd" stroke-dasharray="5,2" d="M704.44,-547.36C760.65,-547.36 861.64,-547.36 948,-547.36 948,-547.36 948,-547.36 1274,-547.36 1353.45,-547.36 1393.16,-563.85 1448,-506.36 1475.29,-477.75 1483.72,-348.23 1485.57,-311.87"/>
<polygon fill="#9a32cd" stroke="#9a32cd" points="704.14,-543.86 694.14,-547.36 704.14,-550.86 704.14,-543.86"/>
<text text-anchor="middle" x="1077" y="-550.36" font-family="Helvetica,sans-Serif" font-size="10.00"> _cgiProcess</text>
</g>
<!-- Node24 -->
<g id="node24" class="node">
<title>Node24</title>
<g id="a_node24"><a xlink:href="classRequestProcessor.html" target="_top" xlink:title=" ">
<polygon fill="white" stroke="black" points="1224,-273.86 1224,-292.86 1322,-292.86 1322,-273.86 1224,-273.86"/>
<text text-anchor="middle" x="1273" y="-280.86" font-family="Helvetica,sans-Serif" font-size="10.00">RequestProcessor</text>
</a>
</g>
</g>
<!-- Node24&#45;&gt;Node1 -->
<g id="edge40" class="edge">
<title>Node24&#45;&gt;Node1</title>
<path fill="none" stroke="#9a32cd" stroke-dasharray="5,2" d="M1332.29,-286.52C1366.13,-288.65 1409.55,-291.9 1448,-296.36 1453.84,-297.04 1460.15,-297.96 1465.93,-298.88"/>
<polygon fill="#9a32cd" stroke="#9a32cd" points="1332.3,-283.01 1322.11,-285.89 1331.87,-290 1332.3,-283.01"/>
<text text-anchor="middle" x="1409.5" y="-299.36" font-family="Helvetica,sans-Serif" font-size="10.00"> _processor</text>
</g>
</g>
</svg>
