<?xml version="1.0" encoding="UTF-8" standalone="no"?>
<!DOCTYPE svg PUBLIC "-//W3C//DTD SVG 1.1//EN"
 "http://www.w3.org/Graphics/SVG/1.1/DTD/svg11.dtd">
<!-- Generated by graphviz version 2.43.0 (0)
 -->
<!-- Title: ConfigParser::parseCgi Pages: 1 -->
<svg width="315pt" height="142pt"
 viewBox="0.00 0.00 315.00 142.00" xmlns="http://www.w3.org/2000/svg" xmlns:xlink="http://www.w3.org/1999/xlink">
<g id="graph0" class="graph" transform="scale(1 1) rotate(0) translate(4 138)">
<title>ConfigParser::parseCgi</title>
<polygon fill="white" stroke="transparent" points="-4,4 -4,-138 311,-138 311,4 -4,4"/>
<!-- Node1 -->
<g id="node1" class="node">
<title>Node1</title>
<g id="a_node1"><a xlink:title=" ">
<polygon fill="#bfbfbf" stroke="black" points="0,-57.5 0,-76.5 119,-76.5 119,-57.5 0,-57.5"/>
<text text-anchor="middle" x="59.5" y="-64.5" font-family="Helvetica,sans-Serif" font-size="10.00">ConfigParser::parseCgi</text>
</a>
</g>
</g>
<!-- Node2 -->
<g id="node2" class="node">
<title>Node2</title>
<g id="a_node2"><a xlink:href="classLocationConfig.html#ab939a2ea336da8f7c9b58e45fb9e926a" target="_top" xlink:title=" ">
<polygon fill="white" stroke="black" points="155,-114.5 155,-133.5 307,-133.5 307,-114.5 155,-114.5"/>
<text text-anchor="middle" x="231" y="-121.5" font-family="Helvetica,sans-Serif" font-size="10.00">LocationConfig::addCgiHandler</text>
</a>
</g>
</g>
<!-- Node1&#45;&gt;Node2 -->
<g id="edge1" class="edge">
<title>Node1&#45;&gt;Node2</title>
<path fill="none" stroke="midnightblue" d="M81.96,-76.59C100.92,-84.83 129.45,-96.67 155,-105 162.45,-107.43 170.41,-109.74 178.24,-111.86"/>
<polygon fill="midnightblue" stroke="midnightblue" points="177.5,-115.28 188.06,-114.43 179.28,-108.51 177.5,-115.28"/>
</g>
<!-- Node3 -->
<g id="node3" class="node">
<title>Node3</title>
<g id="a_node3"><a xlink:href="classConfigParser.html#a84e1b9e32f9be2aee1bff8a78c8c0f67" target="_top" xlink:title="Returns the directory part of the config file path.">
<polygon fill="white" stroke="black" points="159.5,-76.5 159.5,-95.5 302.5,-95.5 302.5,-76.5 159.5,-76.5"/>
<text text-anchor="middle" x="231" y="-83.5" font-family="Helvetica,sans-Serif" font-size="10.00">ConfigParser::getConfFileDir</text>
</a>
</g>
</g>
<!-- Node1&#45;&gt;Node3 -->
<g id="edge2" class="edge">
<title>Node1&#45;&gt;Node3</title>
<path fill="none" stroke="midnightblue" d="M119.31,-73.59C128.99,-74.68 139.17,-75.82 149.27,-76.95"/>
<polygon fill="midnightblue" stroke="midnightblue" points="149,-80.44 159.33,-78.08 149.78,-73.49 149,-80.44"/>
</g>
<!-- Node4 -->
<g id="node4" class="node">
<title>Node4</title>
<g id="a_node4"><a xlink:href="namespaceconfig_1_1utils.html#a4c504c996325f8d62e08d878b037e975" target="_top" xlink:title="Removes the trailing semicolon from a string if present.">
<polygon fill="white" stroke="black" points="155.5,-38.5 155.5,-57.5 306.5,-57.5 306.5,-38.5 155.5,-38.5"/>
<text text-anchor="middle" x="231" y="-45.5" font-family="Helvetica,sans-Serif" font-size="10.00">config::utils::removeSemicolon</text>
</a>
</g>
</g>
<!-- Node1&#45;&gt;Node4 -->
<g id="edge3" class="edge">
<title>Node1&#45;&gt;Node4</title>
<path fill="none" stroke="midnightblue" d="M119.31,-60.41C127.78,-59.46 136.64,-58.46 145.5,-57.47"/>
<polygon fill="midnightblue" stroke="midnightblue" points="145.92,-60.95 155.47,-56.35 145.14,-53.99 145.92,-60.95"/>
</g>
<!-- Node5 -->
<g id="node5" class="node">
<title>Node5</title>
<g id="a_node5"><a xlink:href="namespaceconfig_1_1utils.html#ab47e6d08957f3aa61a7e2a31c5e8d77f" target="_top" xlink:title="Converts a possibly relative path to absolute.">
<polygon fill="white" stroke="black" points="161,-0.5 161,-19.5 301,-19.5 301,-0.5 161,-0.5"/>
<text text-anchor="middle" x="231" y="-7.5" font-family="Helvetica,sans-Serif" font-size="10.00">config::utils::toAbsolutePath</text>
</a>
</g>
</g>
<!-- Node1&#45;&gt;Node5 -->
<g id="edge4" class="edge">
<title>Node1&#45;&gt;Node5</title>
<path fill="none" stroke="midnightblue" d="M81.96,-57.41C100.92,-49.17 129.45,-37.33 155,-29 162.45,-26.57 170.41,-24.26 178.24,-22.14"/>
<polygon fill="midnightblue" stroke="midnightblue" points="179.28,-25.49 188.06,-19.57 177.5,-18.72 179.28,-25.49"/>
</g>
</g>
</svg>
