<?xml version="1.0" encoding="UTF-8" standalone="no"?>
<!DOCTYPE svg PUBLIC "-//W3C//DTD SVG 1.1//EN"
 "http://www.w3.org/Graphics/SVG/1.1/DTD/svg11.dtd">
<!-- Generated by graphviz version 2.43.0 (0)
 -->
<!-- Title: HttpParser::processHeaderLine Pages: 1 -->
<svg width="635pt" height="127pt"
 viewBox="0.00 0.00 635.00 126.50" xmlns="http://www.w3.org/2000/svg" xmlns:xlink="http://www.w3.org/1999/xlink">
<g id="graph0" class="graph" transform="scale(1 1) rotate(0) translate(4 122.5)">
<title>HttpParser::processHeaderLine</title>
<polygon fill="white" stroke="transparent" points="-4,4 -4,-122.5 631,-122.5 631,4 -4,4"/>
<!-- Node1 -->
<g id="node1" class="node">
<title>Node1</title>
<g id="a_node1"><a xlink:title=" ">
<polygon fill="#bfbfbf" stroke="black" points="0,-31 0,-50 154,-50 154,-31 0,-31"/>
<text text-anchor="middle" x="77" y="-38" font-family="Helvetica,sans-Serif" font-size="10.00">HttpParser::processHeaderLine</text>
</a>
</g>
</g>
<!-- Node2 -->
<g id="node2" class="node">
<title>Node2</title>
<g id="a_node2"><a xlink:href="classHttpParser.html#ae451799e46fef4713ec48321d8b21806" target="_top" xlink:title=" ">
<polygon fill="white" stroke="black" points="193.5,-55 193.5,-74 323.5,-74 323.5,-55 193.5,-55"/>
<text text-anchor="middle" x="258.5" y="-62" font-family="Helvetica,sans-Serif" font-size="10.00">HttpParser::handleHeader</text>
</a>
</g>
</g>
<!-- Node1&#45;&gt;Node2 -->
<g id="edge1" class="edge">
<title>Node1&#45;&gt;Node2</title>
<path fill="none" stroke="midnightblue" d="M149.2,-50.02C160.37,-51.51 171.93,-53.06 183.17,-54.56"/>
<polygon fill="midnightblue" stroke="midnightblue" points="183,-58.07 193.37,-55.93 183.92,-51.13 183,-58.07"/>
</g>
<!-- Node5 -->
<g id="node5" class="node">
<title>Node5</title>
<g id="a_node5"><a xlink:href="classHttpParser.html#aa4b991659eac9e1657d9c71caada3ea1" target="_top" xlink:title="Divide una linea de header en key y value.">
<polygon fill="white" stroke="black" points="190,-12 190,-31 327,-31 327,-12 190,-12"/>
<text text-anchor="middle" x="258.5" y="-19" font-family="Helvetica,sans-Serif" font-size="10.00">HttpParser::splitHeaderLine</text>
</a>
</g>
</g>
<!-- Node1&#45;&gt;Node5 -->
<g id="edge4" class="edge">
<title>Node1&#45;&gt;Node5</title>
<path fill="none" stroke="midnightblue" d="M154.12,-32.44C162.55,-31.55 171.14,-30.64 179.58,-29.75"/>
<polygon fill="midnightblue" stroke="midnightblue" points="180.21,-33.2 189.79,-28.67 179.48,-26.24 180.21,-33.2"/>
</g>
<!-- Node3 -->
<g id="node3" class="node">
<title>Node3</title>
<g id="a_node3"><a xlink:href="classHttpRequest.html#a321d2ac0235127e7470d98795eb4a355" target="_top" xlink:title="Agrega un header al mapa. La clave debe venir ya normalizada en minúsculas.">
<polygon fill="white" stroke="black" points="363,-99 363,-118 494,-118 494,-99 363,-99"/>
<text text-anchor="middle" x="428.5" y="-106" font-family="Helvetica,sans-Serif" font-size="10.00">HttpRequest::addHeaders</text>
</a>
</g>
</g>
<!-- Node2&#45;&gt;Node3 -->
<g id="edge2" class="edge">
<title>Node2&#45;&gt;Node3</title>
<path fill="none" stroke="midnightblue" d="M295.95,-74.05C320.94,-80.59 354.3,-89.33 381.17,-96.37"/>
<polygon fill="midnightblue" stroke="midnightblue" points="380.56,-99.82 391.12,-98.97 382.33,-93.05 380.56,-99.82"/>
</g>
<!-- Node4 -->
<g id="node4" class="node">
<title>Node4</title>
<g id="a_node4"><a xlink:href="namespacehttp__header__utils.html#aa9b0e84aeed4203326a12eecbcd3f9e5" target="_top" xlink:title=" ">
<polygon fill="white" stroke="black" points="380,-49.5 380,-79.5 477,-79.5 477,-49.5 380,-49.5"/>
<text text-anchor="start" x="388" y="-67.5" font-family="Helvetica,sans-Serif" font-size="10.00">http_header_utils::</text>
<text text-anchor="middle" x="428.5" y="-56.5" font-family="Helvetica,sans-Serif" font-size="10.00">toLowerCopy</text>
</a>
</g>
</g>
<!-- Node2&#45;&gt;Node4 -->
<g id="edge3" class="edge">
<title>Node2&#45;&gt;Node4</title>
<path fill="none" stroke="midnightblue" d="M323.97,-64.5C339.08,-64.5 355.09,-64.5 369.88,-64.5"/>
<polygon fill="midnightblue" stroke="midnightblue" points="369.9,-68 379.9,-64.5 369.9,-61 369.9,-68"/>
</g>
<!-- Node6 -->
<g id="node6" class="node">
<title>Node6</title>
<g id="a_node6"><a xlink:href="namespacehttp__header__utils.html#a8e76e9e7c6a2030b51da66551de2a136" target="_top" xlink:title=" ">
<polygon fill="white" stroke="black" points="380,-0.5 380,-30.5 477,-30.5 477,-0.5 380,-0.5"/>
<text text-anchor="start" x="388" y="-18.5" font-family="Helvetica,sans-Serif" font-size="10.00">http_header_utils::</text>
<text text-anchor="middle" x="428.5" y="-7.5" font-family="Helvetica,sans-Serif" font-size="10.00">splitHeaderLine</text>
</a>
</g>
</g>
<!-- Node5&#45;&gt;Node6 -->
<g id="edge5" class="edge">
<title>Node5&#45;&gt;Node6</title>
<path fill="none" stroke="midnightblue" d="M327.35,-19.08C341.35,-18.58 355.98,-18.05 369.6,-17.57"/>
<polygon fill="midnightblue" stroke="midnightblue" points="369.91,-21.06 379.78,-17.2 369.66,-14.06 369.91,-21.06"/>
</g>
<!-- Node7 -->
<g id="node7" class="node">
<title>Node7</title>
<g id="a_node7"><a xlink:href="namespacehttp__header__utils.html#ad43de990f48606a45f250b95d34daf91" target="_top" xlink:title=" ">
<polygon fill="white" stroke="black" points="530,-0.5 530,-30.5 627,-30.5 627,-0.5 530,-0.5"/>
<text text-anchor="start" x="538" y="-18.5" font-family="Helvetica,sans-Serif" font-size="10.00">http_header_utils::</text>
<text text-anchor="middle" x="578.5" y="-7.5" font-family="Helvetica,sans-Serif" font-size="10.00">trimSpaces</text>
</a>
</g>
</g>
<!-- Node6&#45;&gt;Node7 -->
<g id="edge6" class="edge">
<title>Node6&#45;&gt;Node7</title>
<path fill="none" stroke="midnightblue" d="M477.14,-15.5C490.74,-15.5 505.71,-15.5 519.84,-15.5"/>
<polygon fill="midnightblue" stroke="midnightblue" points="519.95,-19 529.95,-15.5 519.95,-12 519.95,-19"/>
</g>
</g>
</svg>
