<?xml version="1.0" encoding="UTF-8" standalone="no"?>
<!DOCTYPE svg PUBLIC "-//W3C//DTD SVG 1.1//EN"
 "http://www.w3.org/Graphics/SVG/1.1/DTD/svg11.dtd">
<!-- Generated by graphviz version 2.43.0 (0)
 -->
<!-- Title: ServerManager::checkTimeouts Pages: 1 -->
<svg width="502pt" height="115pt"
 viewBox="0.00 0.00 502.00 114.50" xmlns="http://www.w3.org/2000/svg" xmlns:xlink="http://www.w3.org/1999/xlink">
<g id="graph0" class="graph" transform="scale(1 1) rotate(0) translate(4 110.5)">
<title>ServerManager::checkTimeouts</title>
<polygon fill="white" stroke="transparent" points="-4,4 -4,-110.5 498,-110.5 498,4 -4,4"/>
<!-- Node1 -->
<g id="node1" class="node">
<title>Node1</title>
<g id="a_node1"><a xlink:title=" ">
<polygon fill="#bfbfbf" stroke="black" points="0,-56.5 0,-75.5 155,-75.5 155,-56.5 0,-56.5"/>
<text text-anchor="middle" x="77.5" y="-63.5" font-family="Helvetica,sans-Serif" font-size="10.00">ServerManager::checkTimeouts</text>
</a>
</g>
</g>
<!-- Node2 -->
<g id="node2" class="node">
<title>Node2</title>
<g id="a_node2"><a xlink:href="classServerManager.html#afb4bca18fdb86e6e628cdbb8949c6d94" target="_top" xlink:title=" ">
<polygon fill="white" stroke="black" points="191,-76 191,-106 334,-106 334,-76 191,-76"/>
<text text-anchor="start" x="199" y="-94" font-family="Helvetica,sans-Serif" font-size="10.00">ServerManager::handleClient</text>
<text text-anchor="middle" x="262.5" y="-83" font-family="Helvetica,sans-Serif" font-size="10.00">Disconnect</text>
</a>
</g>
</g>
<!-- Node1&#45;&gt;Node2 -->
<g id="edge1" class="edge">
<title>Node1&#45;&gt;Node2</title>
<path fill="none" stroke="midnightblue" d="M148.21,-75.52C158.88,-76.98 169.97,-78.5 180.85,-79.98"/>
<polygon fill="midnightblue" stroke="midnightblue" points="180.39,-83.45 190.77,-81.34 181.34,-76.52 180.39,-83.45"/>
</g>
<!-- Node4 -->
<g id="node4" class="node">
<title>Node4</title>
<g id="a_node4"><a xlink:href="classServerManager.html#a8f841c3a98b9b1b2fd9e43320b2d924d" target="_top" xlink:title=" ">
<polygon fill="white" stroke="black" points="191,-27 191,-57 334,-57 334,-27 191,-27"/>
<text text-anchor="start" x="199" y="-45" font-family="Helvetica,sans-Serif" font-size="10.00">ServerManager::updateClient</text>
<text text-anchor="middle" x="262.5" y="-34" font-family="Helvetica,sans-Serif" font-size="10.00">Events</text>
</a>
</g>
</g>
<!-- Node1&#45;&gt;Node4 -->
<g id="edge3" class="edge">
<title>Node1&#45;&gt;Node4</title>
<path fill="none" stroke="midnightblue" d="M151.09,-56.48C160.79,-55.21 170.79,-53.9 180.62,-52.61"/>
<polygon fill="midnightblue" stroke="midnightblue" points="181.33,-56.04 190.79,-51.27 180.42,-49.1 181.33,-56.04"/>
</g>
<!-- Node3 -->
<g id="node3" class="node">
<title>Node3</title>
<g id="a_node3"><a xlink:href="classEpollWrapper.html#a9f0b3f139a516df121fa05a910ae0c06" target="_top" xlink:title=" ">
<polygon fill="white" stroke="black" points="370,-81.5 370,-100.5 494,-100.5 494,-81.5 370,-81.5"/>
<text text-anchor="middle" x="432" y="-88.5" font-family="Helvetica,sans-Serif" font-size="10.00">EpollWrapper::removeFd</text>
</a>
</g>
</g>
<!-- Node2&#45;&gt;Node3 -->
<g id="edge2" class="edge">
<title>Node2&#45;&gt;Node3</title>
<path fill="none" stroke="midnightblue" d="M334.05,-91C342.5,-91 351.14,-91 359.61,-91"/>
<polygon fill="midnightblue" stroke="midnightblue" points="359.82,-94.5 369.82,-91 359.82,-87.5 359.82,-94.5"/>
</g>
<!-- Node5 -->
<g id="node5" class="node">
<title>Node5</title>
<g id="a_node5"><a xlink:href="classEpollWrapper.html#a65587fd636ef10c5f41f1f15a292d8d6" target="_top" xlink:title=" ">
<polygon fill="white" stroke="black" points="377,-38.5 377,-57.5 487,-57.5 487,-38.5 377,-38.5"/>
<text text-anchor="middle" x="432" y="-45.5" font-family="Helvetica,sans-Serif" font-size="10.00">EpollWrapper::modFd</text>
</a>
</g>
</g>
<!-- Node4&#45;&gt;Node5 -->
<g id="edge4" class="edge">
<title>Node4&#45;&gt;Node5</title>
<path fill="none" stroke="midnightblue" d="M334.05,-44.53C344.89,-44.92 356.03,-45.31 366.73,-45.7"/>
<polygon fill="midnightblue" stroke="midnightblue" points="366.7,-49.2 376.82,-46.06 366.95,-42.2 366.7,-49.2"/>
</g>
<!-- Node6 -->
<g id="node6" class="node">
<title>Node6</title>
<g id="a_node6"><a xlink:href="classClient.html#a0896e7f6670bf45187b0754d8fa73e92" target="_top" xlink:title=" ">
<polygon fill="white" stroke="black" points="383.5,-0.5 383.5,-19.5 480.5,-19.5 480.5,-0.5 383.5,-0.5"/>
<text text-anchor="middle" x="432" y="-7.5" font-family="Helvetica,sans-Serif" font-size="10.00">Client::needsWrite</text>
</a>
</g>
</g>
<!-- Node4&#45;&gt;Node6 -->
<g id="edge5" class="edge">
<title>Node4&#45;&gt;Node6</title>
<path fill="none" stroke="midnightblue" d="M334.05,-28.52C347.17,-26.01 360.74,-23.42 373.41,-21"/>
<polygon fill="midnightblue" stroke="midnightblue" points="374.2,-24.42 383.36,-19.1 372.88,-17.54 374.2,-24.42"/>
</g>
</g>
</svg>
