<?xml version="1.0" encoding="UTF-8" standalone="no"?>
<!DOCTYPE svg PUBLIC "-//W3C//DTD SVG 1.1//EN"
 "http://www.w3.org/Graphics/SVG/1.1/DTD/svg11.dtd">
<!-- Generated by graphviz version 2.43.0 (0)
 -->
<!-- Title: Client::handleCgiPipe Pages: 1 -->
<svg width="1001pt" height="825pt"
 viewBox="0.00 0.00 1001.00 825.03" xmlns="http://www.w3.org/2000/svg" xmlns:xlink="http://www.w3.org/1999/xlink">
<g id="graph0" class="graph" transform="scale(1 1) rotate(0) translate(4 821.03)">
<title>Client::handleCgiPipe</title>
<polygon fill="white" stroke="transparent" points="-4,4 -4,-821.03 997,-821.03 997,4 -4,4"/>
<!-- Node1 -->
<g id="node1" class="node">
<title>Node1</title>
<g id="a_node1"><a xlink:title=" ">
<polygon fill="#bfbfbf" stroke="black" points="0,-328 0,-347 111,-347 111,-328 0,-328"/>
<text text-anchor="middle" x="55.5" y="-335" font-family="Helvetica,sans-Serif" font-size="10.00">Client::handleCgiPipe</text>
</a>
</g>
</g>
<!-- Node2 -->
<g id="node2" class="node">
<title>Node2</title>
<g id="a_node2"><a xlink:href="classCgiProcess.html#ad8787ed1a27face64263e4472da6c22f" target="_top" xlink:title=" ">
<polygon fill="white" stroke="black" points="153,-632.5 153,-662.5 311,-662.5 311,-632.5 153,-632.5"/>
<text text-anchor="start" x="161" y="-650.5" font-family="Helvetica,sans-Serif" font-size="10.00">CgiProcess::advanceBodyBytes</text>
<text text-anchor="middle" x="232" y="-639.5" font-family="Helvetica,sans-Serif" font-size="10.00">Written</text>
</a>
</g>
</g>
<!-- Node1&#45;&gt;Node2 -->
<g id="edge1" class="edge">
<title>Node1&#45;&gt;Node2</title>
<path fill="none" stroke="midnightblue" d="M56.52,-347.24C57.13,-387.43 64.95,-541.93 147,-622.5 148.47,-623.94 150.01,-625.3 151.62,-626.58"/>
<polygon fill="midnightblue" stroke="midnightblue" points="149.93,-629.66 160.18,-632.35 153.84,-623.85 149.93,-629.66"/>
</g>
<!-- Node3 -->
<g id="node3" class="node">
<title>Node3</title>
<g id="a_node3"><a xlink:href="classCgiProcess.html#a4bbe5516678af6ae632bdd1ae4c61300" target="_top" xlink:title=" ">
<polygon fill="white" stroke="black" points="147,-594 147,-613 317,-613 317,-594 147,-594"/>
<text text-anchor="middle" x="232" y="-601" font-family="Helvetica,sans-Serif" font-size="10.00">CgiProcess::appendResponseData</text>
</a>
</g>
</g>
<!-- Node1&#45;&gt;Node3 -->
<g id="edge2" class="edge">
<title>Node1&#45;&gt;Node3</title>
<path fill="none" stroke="midnightblue" d="M57.1,-347.03C59.91,-383.13 74.83,-512.86 147,-579.5 151.35,-583.52 156.34,-586.87 161.65,-589.67"/>
<polygon fill="midnightblue" stroke="midnightblue" points="160.32,-592.9 170.87,-593.86 163.22,-586.53 160.32,-592.9"/>
</g>
<!-- Node5 -->
<g id="node5" class="node">
<title>Node5</title>
<g id="a_node5"><a xlink:href="ErrorUtils_8cpp.html#a470416220aa911b8f1274140a8322e7a" target="_top" xlink:title=" ">
<polygon fill="white" stroke="black" points="181,-518 181,-537 283,-537 283,-518 181,-518"/>
<text text-anchor="middle" x="232" y="-525" font-family="Helvetica,sans-Serif" font-size="10.00">buildErrorResponse</text>
</a>
</g>
</g>
<!-- Node1&#45;&gt;Node5 -->
<g id="edge4" class="edge">
<title>Node1&#45;&gt;Node5</title>
<path fill="none" stroke="midnightblue" d="M58.59,-347.08C65.5,-376.35 90.45,-465.22 147,-508.5 154.07,-513.91 162.4,-517.84 171.02,-520.67"/>
<polygon fill="midnightblue" stroke="midnightblue" points="170.25,-524.09 180.83,-523.43 172.15,-517.35 170.25,-524.09"/>
</g>
<!-- Node27 -->
<g id="node27" class="node">
<title>Node27</title>
<g id="a_node27"><a xlink:href="classHttpResponse.html#aec25ec31bb3c0a22af07fe82b0a35a79" target="_top" xlink:title=" ">
<polygon fill="white" stroke="black" points="373,-651 373,-670 480,-670 480,-651 373,-651"/>
<text text-anchor="middle" x="426.5" y="-658" font-family="Helvetica,sans-Serif" font-size="10.00">HttpResponse::clear</text>
</a>
</g>
</g>
<!-- Node1&#45;&gt;Node27 -->
<g id="edge32" class="edge">
<title>Node1&#45;&gt;Node27</title>
<path fill="none" stroke="midnightblue" d="M57.62,-347.23C62.01,-380.7 81.19,-492.07 147,-546.5 206.66,-595.84 253.71,-539.91 317,-584.5 341.5,-601.76 328.82,-623.8 353,-641.5 356.22,-643.85 359.7,-645.92 363.34,-647.72"/>
<polygon fill="midnightblue" stroke="midnightblue" points="362.09,-650.99 372.66,-651.71 364.84,-644.56 362.09,-650.99"/>
</g>
<!-- Node28 -->
<g id="node28" class="node">
<title>Node28</title>
<g id="a_node28"><a xlink:href="classCgiProcess.html#add9aed231ffcbe29556d82f6e5c0b097" target="_top" xlink:title=" ">
<polygon fill="white" stroke="black" points="169.5,-442 169.5,-461 294.5,-461 294.5,-442 169.5,-442"/>
<text text-anchor="middle" x="232" y="-449" font-family="Helvetica,sans-Serif" font-size="10.00">CgiProcess::closePipeIn</text>
</a>
</g>
</g>
<!-- Node1&#45;&gt;Node28 -->
<g id="edge34" class="edge">
<title>Node1&#45;&gt;Node28</title>
<path fill="none" stroke="midnightblue" d="M62.68,-347.08C75.75,-366.49 108.17,-410.47 147,-432.5 150.98,-434.76 155.22,-436.75 159.59,-438.51"/>
<polygon fill="midnightblue" stroke="midnightblue" points="158.72,-441.91 169.31,-441.98 161.07,-435.32 158.72,-441.91"/>
</g>
<!-- Node29 -->
<g id="node29" class="node">
<title>Node29</title>
<g id="a_node29"><a xlink:href="classCgiProcess.html#a496d052cdbc077e1b3e5877272180204" target="_top" xlink:title=" ">
<polygon fill="white" stroke="black" points="166,-404 166,-423 298,-423 298,-404 166,-404"/>
<text text-anchor="middle" x="232" y="-411" font-family="Helvetica,sans-Serif" font-size="10.00">CgiProcess::closePipeOut</text>
</a>
</g>
</g>
<!-- Node1&#45;&gt;Node29 -->
<g id="edge35" class="edge">
<title>Node1&#45;&gt;Node29</title>
<path fill="none" stroke="midnightblue" d="M68.64,-347.06C85.35,-359.75 116.8,-382.01 147,-394.5 153.22,-397.07 159.85,-399.33 166.55,-401.3"/>
<polygon fill="midnightblue" stroke="midnightblue" points="165.82,-404.73 176.39,-403.99 167.66,-397.97 165.82,-404.73"/>
</g>
<!-- Node30 -->
<g id="node30" class="node">
<title>Node30</title>
<g id="a_node30"><a xlink:href="classClient.html#a464a0e4f76c7943eadf2f7f4ae28b1c6" target="_top" xlink:title=" ">
<polygon fill="white" stroke="black" points="167.5,-366 167.5,-385 296.5,-385 296.5,-366 167.5,-366"/>
<text text-anchor="middle" x="232" y="-373" font-family="Helvetica,sans-Serif" font-size="10.00">Client::enqueueResponse</text>
</a>
</g>
</g>
<!-- Node1&#45;&gt;Node30 -->
<g id="edge36" class="edge">
<title>Node1&#45;&gt;Node30</title>
<path fill="none" stroke="midnightblue" d="M100.53,-347.09C123.87,-352.17 152.73,-358.46 177.37,-363.82"/>
<polygon fill="midnightblue" stroke="midnightblue" points="176.77,-367.27 187.28,-365.98 178.26,-360.43 176.77,-367.27"/>
</g>
<!-- Node31 -->
<g id="node31" class="node">
<title>Node31</title>
<g id="a_node31"><a xlink:href="classClient.html#af2df05b97f1360f75889756b338a2bba" target="_top" xlink:title=" ">
<polygon fill="white" stroke="black" points="163,-328 163,-347 301,-347 301,-328 163,-328"/>
<text text-anchor="middle" x="232" y="-335" font-family="Helvetica,sans-Serif" font-size="10.00">Client::finalizeCgiResponse</text>
</a>
</g>
</g>
<!-- Node1&#45;&gt;Node31 -->
<g id="edge37" class="edge">
<title>Node1&#45;&gt;Node31</title>
<path fill="none" stroke="midnightblue" d="M111.23,-337.5C124.42,-337.5 138.77,-337.5 152.8,-337.5"/>
<polygon fill="midnightblue" stroke="midnightblue" points="152.94,-341 162.94,-337.5 152.94,-334 152.94,-341"/>
</g>
<!-- Node32 -->
<g id="node32" class="node">
<title>Node32</title>
<g id="a_node32"><a xlink:href="classCgiProcess.html#ace8c6a9a364ab916ddd6e0606d4b7473" target="_top" xlink:title=" ">
<polygon fill="white" stroke="black" points="164.5,-278.5 164.5,-308.5 299.5,-308.5 299.5,-278.5 164.5,-278.5"/>
<text text-anchor="start" x="172.5" y="-296.5" font-family="Helvetica,sans-Serif" font-size="10.00">CgiProcess::getBodyBytes</text>
<text text-anchor="middle" x="232" y="-285.5" font-family="Helvetica,sans-Serif" font-size="10.00">Written</text>
</a>
</g>
</g>
<!-- Node1&#45;&gt;Node32 -->
<g id="edge38" class="edge">
<title>Node1&#45;&gt;Node32</title>
<path fill="none" stroke="midnightblue" d="M94.36,-327.95C114.01,-323 138.64,-316.79 161.56,-311.01"/>
<polygon fill="midnightblue" stroke="midnightblue" points="162.41,-314.4 171.25,-308.57 160.7,-307.62 162.41,-314.4"/>
</g>
<!-- Node33 -->
<g id="node33" class="node">
<title>Node33</title>
<g id="a_node33"><a xlink:href="classCgiProcess.html#a9716e52b70fda0486a075305bfae19a6" target="_top" xlink:title=" ">
<polygon fill="white" stroke="black" points="174.5,-240 174.5,-259 289.5,-259 289.5,-240 174.5,-240"/>
<text text-anchor="middle" x="232" y="-247" font-family="Helvetica,sans-Serif" font-size="10.00">CgiProcess::getPipeIn</text>
</a>
</g>
</g>
<!-- Node1&#45;&gt;Node33 -->
<g id="edge39" class="edge">
<title>Node1&#45;&gt;Node33</title>
<path fill="none" stroke="midnightblue" d="M66.13,-327.85C81.72,-312.8 114.06,-283.88 147,-268.5 152.6,-265.88 158.58,-263.62 164.68,-261.66"/>
<polygon fill="midnightblue" stroke="midnightblue" points="165.71,-265 174.31,-258.82 163.73,-258.29 165.71,-265"/>
</g>
<!-- Node34 -->
<g id="node34" class="node">
<title>Node34</title>
<g id="a_node34"><a xlink:href="classCgiProcess.html#ad9430b4680f7ad7316f6df7710e06b3f" target="_top" xlink:title=" ">
<polygon fill="white" stroke="black" points="171,-202 171,-221 293,-221 293,-202 171,-202"/>
<text text-anchor="middle" x="232" y="-209" font-family="Helvetica,sans-Serif" font-size="10.00">CgiProcess::getPipeOut</text>
</a>
</g>
</g>
<!-- Node1&#45;&gt;Node34 -->
<g id="edge40" class="edge">
<title>Node1&#45;&gt;Node34</title>
<path fill="none" stroke="midnightblue" d="M61.81,-327.69C73.88,-306.34 105.61,-255.62 147,-230.5 151.44,-227.8 156.22,-225.49 161.17,-223.51"/>
<polygon fill="midnightblue" stroke="midnightblue" points="162.59,-226.72 170.85,-220.08 160.25,-220.12 162.59,-226.72"/>
</g>
<!-- Node35 -->
<g id="node35" class="node">
<title>Node35</title>
<g id="a_node35"><a xlink:href="classHttpParser.html#ac152c0d7912d2e757516c3d8f1b9891b" target="_top" xlink:title=" ">
<polygon fill="white" stroke="black" points="172,-164 172,-183 292,-183 292,-164 172,-164"/>
<text text-anchor="middle" x="232" y="-171" font-family="Helvetica,sans-Serif" font-size="10.00">HttpParser::getRequest</text>
</a>
</g>
</g>
<!-- Node1&#45;&gt;Node35 -->
<g id="edge41" class="edge">
<title>Node1&#45;&gt;Node35</title>
<path fill="none" stroke="midnightblue" d="M59.54,-327.89C68.39,-301.63 96.68,-228.24 147,-192.5 151.76,-189.12 157.03,-186.32 162.53,-184.02"/>
<polygon fill="midnightblue" stroke="midnightblue" points="163.78,-187.29 171.98,-180.58 161.38,-180.71 163.78,-187.29"/>
</g>
<!-- Node36 -->
<g id="node36" class="node">
<title>Node36</title>
<g id="a_node36"><a xlink:href="classCgiProcess.html#a12b2ec677191b5ccb20dc90a903b2b11" target="_top" xlink:title=" ">
<polygon fill="white" stroke="black" points="159,-126 159,-145 305,-145 305,-126 159,-126"/>
<text text-anchor="middle" x="232" y="-133" font-family="Helvetica,sans-Serif" font-size="10.00">CgiProcess::getRequestBody</text>
</a>
</g>
</g>
<!-- Node1&#45;&gt;Node36 -->
<g id="edge42" class="edge">
<title>Node1&#45;&gt;Node36</title>
<path fill="none" stroke="midnightblue" d="M58.28,-327.7C64.42,-296.88 87.68,-201.2 147,-154.5 149.11,-152.84 151.33,-151.32 153.65,-149.93"/>
<polygon fill="midnightblue" stroke="midnightblue" points="155.65,-152.83 162.97,-145.17 152.47,-146.6 155.65,-152.83"/>
</g>
<!-- Node37 -->
<g id="node37" class="node">
<title>Node37</title>
<g id="a_node37"><a xlink:href="classCgiProcess.html#a8d87400f66506ca7262e6c8a8ae6d8b0" target="_top" xlink:title=" ">
<polygon fill="white" stroke="black" points="151.5,-88 151.5,-107 312.5,-107 312.5,-88 151.5,-88"/>
<text text-anchor="middle" x="232" y="-95" font-family="Helvetica,sans-Serif" font-size="10.00">CgiProcess::isRequestBodySent</text>
</a>
</g>
</g>
<!-- Node1&#45;&gt;Node37 -->
<g id="edge43" class="edge">
<title>Node1&#45;&gt;Node37</title>
<path fill="none" stroke="midnightblue" d="M57.38,-327.72C61.05,-293 78.32,-174.62 147,-116.5 149,-114.81 151.11,-113.26 153.32,-111.84"/>
<polygon fill="midnightblue" stroke="midnightblue" points="155.14,-114.84 162.26,-107 151.8,-108.69 155.14,-114.84"/>
</g>
<!-- Node38 -->
<g id="node38" class="node">
<title>Node38</title>
<g id="a_node38"><a xlink:href="classHttpResponse.html#a70c126b617eb978c76afaf29ea4f0cd4" target="_top" xlink:title=" ">
<polygon fill="white" stroke="black" points="171,-480 171,-499 293,-499 293,-480 171,-480"/>
<text text-anchor="middle" x="232" y="-487" font-family="Helvetica,sans-Serif" font-size="10.00">HttpResponse::serialize</text>
</a>
</g>
</g>
<!-- Node1&#45;&gt;Node38 -->
<g id="edge44" class="edge">
<title>Node1&#45;&gt;Node38</title>
<path fill="none" stroke="midnightblue" d="M60.07,-347.03C69.82,-371.73 99.45,-438.11 147,-470.5 151.37,-473.47 156.13,-475.99 161.1,-478.12"/>
<polygon fill="midnightblue" stroke="midnightblue" points="160.25,-481.54 170.84,-481.74 162.69,-474.98 160.25,-481.54"/>
</g>
<!-- Node40 -->
<g id="node40" class="node">
<title>Node40</title>
<g id="a_node40"><a xlink:href="classCgiProcess.html#a8d41414d3d54ae98dff14aaa78a3a2fc" target="_top" xlink:title=" ">
<polygon fill="white" stroke="black" points="157,-50 157,-69 307,-69 307,-50 157,-50"/>
<text text-anchor="middle" x="232" y="-57" font-family="Helvetica,sans-Serif" font-size="10.00">CgiProcess::terminateProcess</text>
</a>
</g>
</g>
<!-- Node1&#45;&gt;Node40 -->
<g id="edge47" class="edge">
<title>Node1&#45;&gt;Node40</title>
<path fill="none" stroke="midnightblue" d="M56.72,-327.97C58.13,-290.04 68.63,-148.43 147,-78.5 148.72,-76.96 150.54,-75.54 152.44,-74.23"/>
<polygon fill="midnightblue" stroke="midnightblue" points="154.33,-77.18 161.23,-69.14 150.82,-71.13 154.33,-77.18"/>
</g>
<!-- Node41 -->
<g id="node41" class="node">
<title>Node41</title>
<g id="a_node41"><a xlink:href="classServerManager.html#aa0099c81bdb4ab1dcca775720d31c920" target="_top" xlink:title=" ">
<polygon fill="white" stroke="black" points="166.5,-0.5 166.5,-30.5 297.5,-30.5 297.5,-0.5 166.5,-0.5"/>
<text text-anchor="start" x="174.5" y="-18.5" font-family="Helvetica,sans-Serif" font-size="10.00">ServerManager::unregister</text>
<text text-anchor="middle" x="232" y="-7.5" font-family="Helvetica,sans-Serif" font-size="10.00">CgiPipe</text>
</a>
</g>
</g>
<!-- Node1&#45;&gt;Node41 -->
<g id="edge48" class="edge">
<title>Node1&#45;&gt;Node41</title>
<path fill="none" stroke="midnightblue" d="M56.37,-327.92C56.37,-286.98 61.92,-125.03 147,-40.5 150.1,-37.42 153.55,-34.72 157.25,-32.35"/>
<polygon fill="midnightblue" stroke="midnightblue" points="159.19,-35.28 166.26,-27.4 155.81,-29.15 159.19,-35.28"/>
</g>
<!-- Node4 -->
<g id="node4" class="node">
<title>Node4</title>
<g id="a_node4"><a xlink:href="classCgiProcess.html#a1d2b52da635cb0c01e0825ed6d97fe3a" target="_top" xlink:title=" ">
<polygon fill="white" stroke="black" points="353,-689 353,-708 500,-708 500,-689 353,-689"/>
<text text-anchor="middle" x="426.5" y="-696" font-family="Helvetica,sans-Serif" font-size="10.00">CgiProcess::tryParseHeaders</text>
</a>
</g>
</g>
<!-- Node3&#45;&gt;Node4 -->
<g id="edge3" class="edge">
<title>Node3&#45;&gt;Node4</title>
<path fill="none" stroke="midnightblue" d="M296.76,-613.09C303.95,-615.76 310.88,-619.17 317,-623.5 341.14,-640.61 329.06,-662.12 353,-679.5 355.69,-681.45 358.55,-683.2 361.55,-684.77"/>
<polygon fill="midnightblue" stroke="midnightblue" points="360.26,-688.03 370.82,-688.96 363.15,-681.65 360.26,-688.03"/>
</g>
<!-- Node6 -->
<g id="node6" class="node">
<title>Node6</title>
<g id="a_node6"><a xlink:href="ResponseUtils_8cpp.html#ab7c2cb6fbf297c09ec402182b04584c6" target="_top" xlink:title=" ">
<polygon fill="white" stroke="black" points="380,-499 380,-518 473,-518 473,-499 380,-499"/>
<text text-anchor="middle" x="426.5" y="-506" font-family="Helvetica,sans-Serif" font-size="10.00">fillBaseResponse</text>
</a>
</g>
</g>
<!-- Node5&#45;&gt;Node6 -->
<g id="edge5" class="edge">
<title>Node5&#45;&gt;Node6</title>
<path fill="none" stroke="midnightblue" d="M283.07,-522.56C309.65,-519.93 342.37,-516.7 369.75,-514"/>
<polygon fill="midnightblue" stroke="midnightblue" points="370.35,-517.46 379.96,-513 369.66,-510.49 370.35,-517.46"/>
</g>
<!-- Node11 -->
<g id="node11" class="node">
<title>Node11</title>
<g id="a_node11"><a xlink:href="classHttpResponse.html#a7efa3ab17ead358609d80b55db164867" target="_top" xlink:title=" ">
<polygon fill="white" stroke="black" points="728,-347 728,-366 859,-366 859,-347 728,-347"/>
<text text-anchor="middle" x="793.5" y="-354" font-family="Helvetica,sans-Serif" font-size="10.00">HttpResponse::setHeader</text>
</a>
</g>
</g>
<!-- Node5&#45;&gt;Node11 -->
<g id="edge30" class="edge">
<title>Node5&#45;&gt;Node11</title>
<path fill="none" stroke="midnightblue" d="M283.17,-519.08C294.52,-516.38 306.36,-512.9 317,-508.5 370.15,-486.5 481.19,-387.96 536,-370.5 595.06,-351.69 665.59,-349.17 717.74,-350.81"/>
<polygon fill="midnightblue" stroke="midnightblue" points="717.79,-354.31 727.91,-351.19 718.05,-347.32 717.79,-354.31"/>
</g>
<!-- Node18 -->
<g id="node18" class="node">
<title>Node18</title>
<g id="a_node18"><a xlink:href="classHttpResponse.html#a11a67ba43096f5eb1870e65f1814d364" target="_top" xlink:title=" ">
<polygon fill="white" stroke="black" points="536,-309 536,-328 691,-328 691,-309 536,-309"/>
<text text-anchor="middle" x="613.5" y="-316" font-family="Helvetica,sans-Serif" font-size="10.00">HttpResponse::setContentType</text>
</a>
</g>
</g>
<!-- Node5&#45;&gt;Node18 -->
<g id="edge29" class="edge">
<title>Node5&#45;&gt;Node18</title>
<path fill="none" stroke="midnightblue" d="M283.23,-525.31C295.63,-522.49 307.93,-517.41 317,-508.5 364.98,-461.36 303.67,-407.22 353,-361.5 377.72,-338.59 460.2,-327.8 525.62,-322.78"/>
<polygon fill="midnightblue" stroke="midnightblue" points="526.24,-326.24 535.96,-322.02 525.73,-319.26 526.24,-326.24"/>
</g>
<!-- Node24 -->
<g id="node24" class="node">
<title>Node24</title>
<g id="a_node24"><a xlink:href="ErrorUtils_8cpp.html#aa759f2b84e51d20fdf7801c0514c3635" target="_top" xlink:title=" ">
<polygon fill="white" stroke="black" points="384.5,-613 384.5,-632 468.5,-632 468.5,-613 384.5,-613"/>
<text text-anchor="middle" x="426.5" y="-620" font-family="Helvetica,sans-Serif" font-size="10.00">readFileToBody</text>
</a>
</g>
</g>
<!-- Node5&#45;&gt;Node24 -->
<g id="edge27" class="edge">
<title>Node5&#45;&gt;Node24</title>
<path fill="none" stroke="midnightblue" d="M283.09,-535.78C294.94,-539.31 307.01,-544.34 317,-551.5 339.85,-567.87 329.97,-587.38 353,-603.5 359.45,-608.01 366.89,-611.45 374.5,-614.08"/>
<polygon fill="midnightblue" stroke="midnightblue" points="373.59,-617.46 384.18,-616.98 375.61,-610.75 373.59,-617.46"/>
</g>
<!-- Node25 -->
<g id="node25" class="node">
<title>Node25</title>
<g id="a_node25"><a xlink:href="RequestProcessorUtils_8cpp.html#aa9c12d87cb0781b781a580ff9bfd0c06" target="_top" xlink:title=" ">
<polygon fill="white" stroke="black" points="392.5,-575 392.5,-594 460.5,-594 460.5,-575 392.5,-575"/>
<text text-anchor="middle" x="426.5" y="-582" font-family="Helvetica,sans-Serif" font-size="10.00">resolvePath</text>
</a>
</g>
</g>
<!-- Node5&#45;&gt;Node25 -->
<g id="edge28" class="edge">
<title>Node5&#45;&gt;Node25</title>
<path fill="none" stroke="midnightblue" d="M269.2,-537.05C284.1,-541.19 301.48,-546.28 317,-551.5 333.27,-556.98 336.67,-560.2 353,-565.5 362.46,-568.57 372.74,-571.5 382.5,-574.1"/>
<polygon fill="midnightblue" stroke="midnightblue" points="381.87,-577.55 392.43,-576.68 383.63,-570.78 381.87,-577.55"/>
</g>
<!-- Node26 -->
<g id="node26" class="node">
<title>Node26</title>
<g id="a_node26"><a xlink:href="ResponseUtils_8cpp.html#a1c98cd4773c38cae6781a257fa318ca7" target="_top" xlink:title=" ">
<polygon fill="white" stroke="black" points="403,-537 403,-556 450,-556 450,-537 403,-537"/>
<text text-anchor="middle" x="426.5" y="-544" font-family="Helvetica,sans-Serif" font-size="10.00">toBody</text>
</a>
</g>
</g>
<!-- Node5&#45;&gt;Node26 -->
<g id="edge31" class="edge">
<title>Node5&#45;&gt;Node26</title>
<path fill="none" stroke="midnightblue" d="M283.07,-532.44C317.75,-535.87 362.91,-540.32 392.99,-543.29"/>
<polygon fill="midnightblue" stroke="midnightblue" points="392.66,-546.78 402.96,-544.27 393.35,-539.81 392.66,-546.78"/>
</g>
<!-- Node7 -->
<g id="node7" class="node">
<title>Node7</title>
<g id="a_node7"><a xlink:href="SessionUtils_8cpp.html#aabfd66406b8a4aec4237b26ff8e76a65" target="_top" xlink:title=" ">
<polygon fill="white" stroke="black" points="544.5,-461 544.5,-480 682.5,-480 682.5,-461 544.5,-461"/>
<text text-anchor="middle" x="613.5" y="-468" font-family="Helvetica,sans-Serif" font-size="10.00">addSessionCookieIfNeeded</text>
</a>
</g>
</g>
<!-- Node6&#45;&gt;Node7 -->
<g id="edge6" class="edge">
<title>Node6&#45;&gt;Node7</title>
<path fill="none" stroke="midnightblue" d="M473.23,-499.11C498.28,-493.96 529.54,-487.54 556.09,-482.09"/>
<polygon fill="midnightblue" stroke="midnightblue" points="556.92,-485.49 566.01,-480.05 555.51,-478.63 556.92,-485.49"/>
</g>
<!-- Node6&#45;&gt;Node11 -->
<g id="edge21" class="edge">
<title>Node6&#45;&gt;Node11</title>
<path fill="none" stroke="midnightblue" d="M435.37,-498.95C451.88,-479.58 492.22,-435.68 536,-413.5 568.35,-397.11 659.46,-379.09 723.86,-367.79"/>
<polygon fill="midnightblue" stroke="midnightblue" points="724.7,-371.2 733.95,-366.04 723.5,-364.3 724.7,-371.2"/>
</g>
<!-- Node13 -->
<g id="node13" class="node">
<title>Node13</title>
<g id="a_node13"><a xlink:href="classHttpRequest.html#adf523a5345b525702a858f8792bab8ea" target="_top" xlink:title=" ">
<polygon fill="white" stroke="black" points="551.5,-727 551.5,-746 675.5,-746 675.5,-727 551.5,-727"/>
<text text-anchor="middle" x="613.5" y="-734" font-family="Helvetica,sans-Serif" font-size="10.00">HttpRequest::getMethod</text>
</a>
</g>
</g>
<!-- Node6&#45;&gt;Node13 -->
<g id="edge12" class="edge">
<title>Node6&#45;&gt;Node13</title>
<path fill="none" stroke="midnightblue" d="M473.11,-512.3C483.15,-515.18 492.9,-519.89 500,-527.5 558.64,-590.34 476.96,-655.04 536,-717.5 538.03,-719.64 540.26,-721.56 542.64,-723.28"/>
<polygon fill="midnightblue" stroke="midnightblue" points="540.86,-726.29 551.25,-728.35 544.41,-720.26 540.86,-726.29"/>
</g>
<!-- Node14 -->
<g id="node14" class="node">
<title>Node14</title>
<g id="a_node14"><a xlink:href="classHttpRequest.html#acde519e492e10352bc39d6a3bcd857b2" target="_top" xlink:title=" ">
<polygon fill="white" stroke="black" points="557.5,-613 557.5,-632 669.5,-632 669.5,-613 557.5,-613"/>
<text text-anchor="middle" x="613.5" y="-620" font-family="Helvetica,sans-Serif" font-size="10.00">HttpRequest::getPath</text>
</a>
</g>
</g>
<!-- Node6&#45;&gt;Node14 -->
<g id="edge13" class="edge">
<title>Node6&#45;&gt;Node14</title>
<path fill="none" stroke="midnightblue" d="M473.33,-514.11C482.91,-516.95 492.39,-521.19 500,-527.5 528.77,-551.36 507.08,-579.83 536,-603.5 539.71,-606.54 543.84,-609.1 548.2,-611.26"/>
<polygon fill="midnightblue" stroke="midnightblue" points="546.84,-614.48 557.42,-615.15 549.56,-608.03 546.84,-614.48"/>
</g>
<!-- Node15 -->
<g id="node15" class="node">
<title>Node15</title>
<g id="a_node15"><a xlink:href="classHttpRequest.html#ac2a5d18d42289a03b57215c98d8df41e" target="_top" xlink:title=" ">
<polygon fill="white" stroke="black" points="551,-575 551,-594 676,-594 676,-575 551,-575"/>
<text text-anchor="middle" x="613.5" y="-582" font-family="Helvetica,sans-Serif" font-size="10.00">HttpRequest::getVersion</text>
</a>
</g>
</g>
<!-- Node6&#45;&gt;Node15 -->
<g id="edge14" class="edge">
<title>Node6&#45;&gt;Node15</title>
<path fill="none" stroke="midnightblue" d="M473.14,-516.33C482.42,-519.04 491.83,-522.66 500,-527.5 520.02,-539.35 515.9,-553.78 536,-565.5 539.72,-567.67 543.69,-569.6 547.78,-571.3"/>
<polygon fill="midnightblue" stroke="midnightblue" points="546.91,-574.71 557.5,-574.9 549.34,-568.15 546.91,-574.71"/>
</g>
<!-- Node16 -->
<g id="node16" class="node">
<title>Node16</title>
<g id="a_node16"><a xlink:href="classHttpResponse.html#acba4d7264c5b05e63a199c87f8526473" target="_top" xlink:title=" ">
<polygon fill="white" stroke="black" points="727,-622 727,-641 860,-641 860,-622 727,-622"/>
<text text-anchor="middle" x="793.5" y="-629" font-family="Helvetica,sans-Serif" font-size="10.00">HttpResponse::hasHeader</text>
</a>
</g>
</g>
<!-- Node6&#45;&gt;Node16 -->
<g id="edge15" class="edge">
<title>Node6&#45;&gt;Node16</title>
<path fill="none" stroke="midnightblue" d="M473.25,-513.14C483.05,-516.01 492.65,-520.5 500,-527.5 538.49,-564.13 493.14,-610.09 536,-641.5 602.52,-690.25 706.92,-663.29 759.66,-644.61"/>
<polygon fill="midnightblue" stroke="midnightblue" points="761,-647.84 769.19,-641.12 758.6,-641.27 761,-647.84"/>
</g>
<!-- Node17 -->
<g id="node17" class="node">
<title>Node17</title>
<g id="a_node17"><a xlink:href="classHttpResponse.html#a884d07c418ba6145385d63e43bb1b29a" target="_top" xlink:title=" ">
<polygon fill="white" stroke="black" points="552.5,-537 552.5,-556 674.5,-556 674.5,-537 552.5,-537"/>
<text text-anchor="middle" x="613.5" y="-544" font-family="Helvetica,sans-Serif" font-size="10.00">HttpResponse::setBody</text>
</a>
</g>
</g>
<!-- Node6&#45;&gt;Node17 -->
<g id="edge17" class="edge">
<title>Node6&#45;&gt;Node17</title>
<path fill="none" stroke="midnightblue" d="M473.23,-517.89C498.28,-523.04 529.54,-529.46 556.09,-534.91"/>
<polygon fill="midnightblue" stroke="midnightblue" points="555.51,-538.37 566.01,-536.95 556.92,-531.51 555.51,-538.37"/>
</g>
<!-- Node6&#45;&gt;Node18 -->
<g id="edge18" class="edge">
<title>Node6&#45;&gt;Node18</title>
<path fill="none" stroke="midnightblue" d="M434.58,-498.98C451.13,-477 494.14,-421.45 536,-380.5 553.43,-363.45 575.17,-346.16 591.02,-334.19"/>
<polygon fill="midnightblue" stroke="midnightblue" points="593.24,-336.9 599.16,-328.11 589.05,-331.29 593.24,-336.9"/>
</g>
<!-- Node19 -->
<g id="node19" class="node">
<title>Node19</title>
<g id="a_node19"><a xlink:href="classHttpResponse.html#ac982631ddcf451521e207ac0c2bd0108" target="_top" xlink:title=" ">
<polygon fill="white" stroke="black" points="542,-499 542,-518 685,-518 685,-499 542,-499"/>
<text text-anchor="middle" x="613.5" y="-506" font-family="Helvetica,sans-Serif" font-size="10.00">HttpResponse::setHeadOnly</text>
</a>
</g>
</g>
<!-- Node6&#45;&gt;Node19 -->
<g id="edge22" class="edge">
<title>Node6&#45;&gt;Node19</title>
<path fill="none" stroke="midnightblue" d="M473.23,-508.5C490.9,-508.5 511.65,-508.5 531.67,-508.5"/>
<polygon fill="midnightblue" stroke="midnightblue" points="531.73,-512 541.73,-508.5 531.73,-505 531.73,-512"/>
</g>
<!-- Node20 -->
<g id="node20" class="node">
<title>Node20</title>
<g id="a_node20"><a xlink:href="classHttpResponse.html#a610f8f887ca042f2b18ec395aaccc255" target="_top" xlink:title=" ">
<polygon fill="white" stroke="black" points="538,-689 538,-708 689,-708 689,-689 538,-689"/>
<text text-anchor="middle" x="613.5" y="-696" font-family="Helvetica,sans-Serif" font-size="10.00">HttpResponse::setStatusCode</text>
</a>
</g>
</g>
<!-- Node6&#45;&gt;Node20 -->
<g id="edge23" class="edge">
<title>Node6&#45;&gt;Node20</title>
<path fill="none" stroke="midnightblue" d="M473.21,-512.68C483.13,-515.56 492.79,-520.17 500,-527.5 547.18,-575.44 489.98,-625.44 536,-674.5 539.6,-678.34 543.8,-681.56 548.35,-684.27"/>
<polygon fill="midnightblue" stroke="midnightblue" points="546.96,-687.49 557.46,-688.88 550.12,-681.25 546.96,-687.49"/>
</g>
<!-- Node22 -->
<g id="node22" class="node">
<title>Node22</title>
<g id="a_node22"><a xlink:href="classHttpResponse.html#a407dc1ea3f01365d8105fadc0418bc79" target="_top" xlink:title=" ">
<polygon fill="white" stroke="black" points="547.5,-423 547.5,-442 679.5,-442 679.5,-423 547.5,-423"/>
<text text-anchor="middle" x="613.5" y="-430" font-family="Helvetica,sans-Serif" font-size="10.00">HttpResponse::setVersion</text>
</a>
</g>
</g>
<!-- Node6&#45;&gt;Node22 -->
<g id="edge25" class="edge">
<title>Node6&#45;&gt;Node22</title>
<path fill="none" stroke="midnightblue" d="M442.76,-498.97C463.27,-486.52 501.2,-464.74 536,-451.5 542.45,-449.05 549.32,-446.82 556.2,-444.84"/>
<polygon fill="midnightblue" stroke="midnightblue" points="557.51,-448.1 566.24,-442.09 555.67,-441.35 557.51,-448.1"/>
</g>
<!-- Node23 -->
<g id="node23" class="node">
<title>Node23</title>
<g id="a_node23"><a xlink:href="ResponseUtils_8cpp.html#af8cce302648449aa6215ac211230ef75" target="_top" xlink:title=" ">
<polygon fill="white" stroke="black" points="571.5,-765 571.5,-784 655.5,-784 655.5,-765 571.5,-765"/>
<text text-anchor="middle" x="613.5" y="-772" font-family="Helvetica,sans-Serif" font-size="10.00">versionToString</text>
</a>
</g>
</g>
<!-- Node6&#45;&gt;Node23 -->
<g id="edge26" class="edge">
<title>Node6&#45;&gt;Node23</title>
<path fill="none" stroke="midnightblue" d="M473.28,-512.15C483.32,-515.03 493.02,-519.78 500,-527.5 568.84,-603.57 466.68,-679.88 536,-755.5 542.8,-762.91 552,-767.64 561.66,-770.6"/>
<polygon fill="midnightblue" stroke="midnightblue" points="560.86,-774.01 571.41,-773.02 562.54,-767.22 560.86,-774.01"/>
</g>
<!-- Node8 -->
<g id="node8" class="node">
<title>Node8</title>
<g id="a_node8"><a xlink:href="SessionUtils_8cpp.html#af915f0cd7984e5d06370014bb43c74b6" target="_top" xlink:title=" ">
<polygon fill="white" stroke="black" points="750,-499 750,-518 837,-518 837,-499 750,-499"/>
<text text-anchor="middle" x="793.5" y="-506" font-family="Helvetica,sans-Serif" font-size="10.00">createSessionId</text>
</a>
</g>
</g>
<!-- Node7&#45;&gt;Node8 -->
<g id="edge7" class="edge">
<title>Node7&#45;&gt;Node8</title>
<path fill="none" stroke="midnightblue" d="M659.42,-480.09C683.87,-485.31 714.27,-491.8 739.84,-497.26"/>
<polygon fill="midnightblue" stroke="midnightblue" points="739.23,-500.71 749.74,-499.37 740.7,-493.86 739.23,-500.71"/>
</g>
<!-- Node9 -->
<g id="node9" class="node">
<title>Node9</title>
<g id="a_node9"><a xlink:href="SessionUtils_8cpp.html#a655520ad6c85707c8e1aae50c1eda6c8" target="_top" xlink:title=" ">
<polygon fill="white" stroke="black" points="739.5,-461 739.5,-480 847.5,-480 847.5,-461 739.5,-461"/>
<text text-anchor="middle" x="793.5" y="-468" font-family="Helvetica,sans-Serif" font-size="10.00">extractIdFromCookie</text>
</a>
</g>
</g>
<!-- Node7&#45;&gt;Node9 -->
<g id="edge8" class="edge">
<title>Node7&#45;&gt;Node9</title>
<path fill="none" stroke="midnightblue" d="M682.56,-470.5C697.87,-470.5 714.05,-470.5 729.16,-470.5"/>
<polygon fill="midnightblue" stroke="midnightblue" points="729.43,-474 739.43,-470.5 729.43,-467 729.43,-474"/>
</g>
<!-- Node10 -->
<g id="node10" class="node">
<title>Node10</title>
<g id="a_node10"><a xlink:href="classHttpRequest.html#ab537cb11b054734695ee4889d88aec6d" target="_top" xlink:title="Obtiene un header específico de la petición.">
<polygon fill="white" stroke="black" points="732,-423 732,-442 855,-442 855,-423 732,-423"/>
<text text-anchor="middle" x="793.5" y="-430" font-family="Helvetica,sans-Serif" font-size="10.00">HttpRequest::getHeader</text>
</a>
</g>
</g>
<!-- Node7&#45;&gt;Node10 -->
<g id="edge9" class="edge">
<title>Node7&#45;&gt;Node10</title>
<path fill="none" stroke="midnightblue" d="M659.42,-460.91C683.33,-455.81 712.92,-449.49 738.12,-444.11"/>
<polygon fill="midnightblue" stroke="midnightblue" points="738.86,-447.53 747.91,-442.02 737.4,-440.69 738.86,-447.53"/>
</g>
<!-- Node7&#45;&gt;Node11 -->
<g id="edge10" class="edge">
<title>Node7&#45;&gt;Node11</title>
<path fill="none" stroke="midnightblue" d="M669.5,-460.9C677,-458.44 684.38,-455.36 691,-451.5 711.1,-439.78 710.21,-429.6 727,-413.5 741.82,-399.29 759.4,-384.07 772.62,-372.94"/>
<polygon fill="midnightblue" stroke="midnightblue" points="775.18,-375.36 780.6,-366.26 770.69,-369.99 775.18,-375.36"/>
</g>
<!-- Node12 -->
<g id="node12" class="node">
<title>Node12</title>
<g id="a_node12"><a xlink:href="namespacehttp__header__utils.html#aa9b0e84aeed4203326a12eecbcd3f9e5" target="_top" xlink:title=" ">
<polygon fill="white" stroke="black" points="896,-322.5 896,-352.5 993,-352.5 993,-322.5 896,-322.5"/>
<text text-anchor="start" x="904" y="-340.5" font-family="Helvetica,sans-Serif" font-size="10.00">http_header_utils::</text>
<text text-anchor="middle" x="944.5" y="-329.5" font-family="Helvetica,sans-Serif" font-size="10.00">toLowerCopy</text>
</a>
</g>
</g>
<!-- Node11&#45;&gt;Node12 -->
<g id="edge11" class="edge">
<title>Node11&#45;&gt;Node12</title>
<path fill="none" stroke="midnightblue" d="M859.42,-348.22C868.21,-347.1 877.19,-345.96 885.84,-344.85"/>
<polygon fill="midnightblue" stroke="midnightblue" points="886.35,-348.32 895.82,-343.58 885.46,-341.37 886.35,-348.32"/>
</g>
<!-- Node16&#45;&gt;Node12 -->
<g id="edge16" class="edge">
<title>Node16&#45;&gt;Node12</title>
<path fill="none" stroke="midnightblue" d="M801.33,-621.75C813.83,-603.67 840.89,-563.5 860,-527.5 890.58,-469.9 919.65,-398.78 934.07,-362.05"/>
<polygon fill="midnightblue" stroke="midnightblue" points="937.37,-363.22 937.74,-352.64 930.84,-360.68 937.37,-363.22"/>
</g>
<!-- Node18&#45;&gt;Node11 -->
<g id="edge19" class="edge">
<title>Node18&#45;&gt;Node11</title>
<path fill="none" stroke="midnightblue" d="M659.42,-328.09C683.33,-333.19 712.92,-339.51 738.12,-344.89"/>
<polygon fill="midnightblue" stroke="midnightblue" points="737.4,-348.31 747.91,-346.98 738.86,-341.47 737.4,-348.31"/>
</g>
<!-- Node18&#45;&gt;Node12 -->
<g id="edge20" class="edge">
<title>Node18&#45;&gt;Node12</title>
<path fill="none" stroke="midnightblue" d="M691.22,-322.93C750.62,-326.36 831.62,-331.04 885.64,-334.16"/>
<polygon fill="midnightblue" stroke="midnightblue" points="885.55,-337.66 895.74,-334.74 885.96,-330.67 885.55,-337.66"/>
</g>
<!-- Node21 -->
<g id="node21" class="node">
<title>Node21</title>
<g id="a_node21"><a xlink:href="HttpResponse_8cpp.html#aadc8fd8bbc80a1b3551ea1357e04f07b" target="_top" xlink:title=" ">
<polygon fill="white" stroke="black" points="734,-717 734,-736 853,-736 853,-717 734,-717"/>
<text text-anchor="middle" x="793.5" y="-724" font-family="Helvetica,sans-Serif" font-size="10.00">reasonPhraseForStatus</text>
</a>
</g>
</g>
<!-- Node20&#45;&gt;Node21 -->
<g id="edge24" class="edge">
<title>Node20&#45;&gt;Node21</title>
<path fill="none" stroke="midnightblue" d="M675.26,-708.06C690.79,-710.5 707.6,-713.15 723.52,-715.65"/>
<polygon fill="midnightblue" stroke="midnightblue" points="723.4,-719.17 733.82,-717.27 724.48,-712.26 723.4,-719.17"/>
</g>
<!-- Node27&#45;&gt;Node21 -->
<g id="edge33" class="edge">
<title>Node27&#45;&gt;Node21</title>
<path fill="none" stroke="midnightblue" d="M480.34,-667.54C487.59,-670.35 494.44,-674.21 500,-679.5 538.49,-716.13 493.14,-762.09 536,-793.5 591.56,-834.22 625.02,-813.31 691,-793.5 723.94,-783.61 756.06,-759.18 775.06,-742.72"/>
<polygon fill="midnightblue" stroke="midnightblue" points="777.46,-745.27 782.6,-736 772.8,-740.04 777.46,-745.27"/>
</g>
<!-- Node38&#45;&gt;Node12 -->
<g id="edge45" class="edge">
<title>Node38&#45;&gt;Node12</title>
<path fill="none" stroke="midnightblue" d="M293.09,-484.94C302.05,-481.87 310.46,-477.28 317,-470.5 376.69,-408.67 286.81,-335.33 353,-280.5 517.99,-143.84 804.71,-266.89 906.42,-317.83"/>
<polygon fill="midnightblue" stroke="midnightblue" points="904.89,-320.98 915.39,-322.38 908.05,-314.74 904.89,-320.98"/>
</g>
<!-- Node39 -->
<g id="node39" class="node">
<title>Node39</title>
<g id="a_node39"><a xlink:href="HttpResponse_8cpp.html#af8cce302648449aa6215ac211230ef75" target="_top" xlink:title=" ">
<polygon fill="white" stroke="black" points="384.5,-290 384.5,-309 468.5,-309 468.5,-290 384.5,-290"/>
<text text-anchor="middle" x="426.5" y="-297" font-family="Helvetica,sans-Serif" font-size="10.00">versionToString</text>
</a>
</g>
</g>
<!-- Node38&#45;&gt;Node39 -->
<g id="edge46" class="edge">
<title>Node38&#45;&gt;Node39</title>
<path fill="none" stroke="midnightblue" d="M293.21,-484.5C302.05,-481.46 310.39,-477 317,-470.5 364.98,-423.36 307.37,-372.92 353,-323.5 358.88,-317.13 366.49,-312.45 374.56,-309.01"/>
<polygon fill="midnightblue" stroke="midnightblue" points="375.97,-312.22 384.17,-305.51 373.58,-305.64 375.97,-312.22"/>
</g>
<!-- Node42 -->
<g id="node42" class="node">
<title>Node42</title>
<g id="a_node42"><a xlink:href="classEpollWrapper.html#a9f0b3f139a516df121fa05a910ae0c06" target="_top" xlink:title=" ">
<polygon fill="white" stroke="black" points="364.5,-6 364.5,-25 488.5,-25 488.5,-6 364.5,-6"/>
<text text-anchor="middle" x="426.5" y="-13" font-family="Helvetica,sans-Serif" font-size="10.00">EpollWrapper::removeFd</text>
</a>
</g>
</g>
<!-- Node41&#45;&gt;Node42 -->
<g id="edge49" class="edge">
<title>Node41&#45;&gt;Node42</title>
<path fill="none" stroke="midnightblue" d="M297.64,-15.5C315.79,-15.5 335.63,-15.5 354.16,-15.5"/>
<polygon fill="midnightblue" stroke="midnightblue" points="354.29,-19 364.29,-15.5 354.29,-12 354.29,-19"/>
</g>
</g>
</svg>
