<?xml version="1.0" encoding="UTF-8" standalone="no"?>
<!DOCTYPE svg PUBLIC "-//W3C//DTD SVG 1.1//EN"
 "http://www.w3.org/Graphics/SVG/1.1/DTD/svg11.dtd">
<!-- Generated by graphviz version 2.43.0 (0)
 -->
<!-- Title: CgiProcess Pages: 1 -->
<svg width="150pt" height="229pt"
 viewBox="0.00 0.00 149.50 229.00" xmlns="http://www.w3.org/2000/svg" xmlns:xlink="http://www.w3.org/1999/xlink">
<g id="graph0" class="graph" transform="scale(1 1) rotate(0) translate(4 225)">
<title>CgiProcess</title>
<polygon fill="white" stroke="transparent" points="-4,4 -4,-225 145.5,-225 145.5,4 -4,4"/>
<!-- Node1 -->
<g id="node1" class="node">
<title>Node1</title>
<g id="a_node1"><a xlink:title=" ">
<polygon fill="#bfbfbf" stroke="black" points="13.5,-0.5 13.5,-19.5 81.5,-19.5 81.5,-0.5 13.5,-0.5"/>
<text text-anchor="middle" x="47.5" y="-7.5" font-family="Helvetica,sans-Serif" font-size="10.00">CgiProcess</text>
</a>
</g>
</g>
<!-- Node2 -->
<g id="node2" class="node">
<title>Node2</title>
<g id="a_node2"><a xlink:title=" ">
<polygon fill="white" stroke="#bfbfbf" points="17.5,-133.5 17.5,-152.5 77.5,-152.5 77.5,-133.5 17.5,-133.5"/>
<text text-anchor="middle" x="47.5" y="-140.5" font-family="Helvetica,sans-Serif" font-size="10.00">std::string</text>
</a>
</g>
</g>
<!-- Node2&#45;&gt;Node1 -->
<g id="edge1" class="edge">
<title>Node2&#45;&gt;Node1</title>
<path fill="none" stroke="#9a32cd" stroke-dasharray="5,2" d="M47.5,-123.09C47.5,-94.36 47.5,-40.82 47.5,-19.8"/>
<polygon fill="#9a32cd" stroke="#9a32cd" points="44,-123.4 47.5,-133.4 51,-123.4 44,-123.4"/>
<text text-anchor="middle" x="94.5" y="-107" font-family="Helvetica,sans-Serif" font-size="10.00"> complete_response_</text>
<text text-anchor="middle" x="94.5" y="-96" font-family="Helvetica,sans-Serif" font-size="10.00">interpreter_</text>
<text text-anchor="middle" x="94.5" y="-85" font-family="Helvetica,sans-Serif" font-size="10.00">request_body_</text>
<text text-anchor="middle" x="94.5" y="-74" font-family="Helvetica,sans-Serif" font-size="10.00">response_body_</text>
<text text-anchor="start" x="47.5" y="-63" font-family="Helvetica,sans-Serif" font-size="10.00">response_headers</text>
<text text-anchor="middle" x="94.5" y="-52" font-family="Helvetica,sans-Serif" font-size="10.00">_</text>
<text text-anchor="middle" x="94.5" y="-41" font-family="Helvetica,sans-Serif" font-size="10.00">script_path_</text>
</g>
<!-- Node3 -->
<g id="node3" class="node">
<title>Node3</title>
<g id="a_node3"><a xlink:title=" ">
<polygon fill="white" stroke="#bfbfbf" points="0,-190.5 0,-220.5 95,-220.5 95,-190.5 0,-190.5"/>
<text text-anchor="start" x="8" y="-208.5" font-family="Helvetica,sans-Serif" font-size="10.00">std::basic_string&lt;</text>
<text text-anchor="middle" x="47.5" y="-197.5" font-family="Helvetica,sans-Serif" font-size="10.00"> Char &gt;</text>
</a>
</g>
</g>
<!-- Node3&#45;&gt;Node2 -->
<g id="edge2" class="edge">
<title>Node3&#45;&gt;Node2</title>
<path fill="none" stroke="midnightblue" d="M47.5,-180.35C47.5,-170.51 47.5,-159.78 47.5,-152.54"/>
<polygon fill="midnightblue" stroke="midnightblue" points="44,-180.47 47.5,-190.47 51,-180.47 44,-180.47"/>
</g>
</g>
</svg>
