<?xml version="1.0" encoding="UTF-8" standalone="no"?>
<!DOCTYPE svg PUBLIC "-//W3C//DTD SVG 1.1//EN"
 "http://www.w3.org/Graphics/SVG/1.1/DTD/svg11.dtd">
<!-- Generated by graphviz version 2.43.0 (0)
 -->
<!-- Title: ConfigParser::parseMaxSizeBody Pages: 1 -->
<svg width="359pt" height="66pt"
 viewBox="0.00 0.00 359.00 66.00" xmlns="http://www.w3.org/2000/svg" xmlns:xlink="http://www.w3.org/1999/xlink">
<g id="graph0" class="graph" transform="scale(1 1) rotate(0) translate(4 62)">
<title>ConfigParser::parseMaxSizeBody</title>
<polygon fill="white" stroke="transparent" points="-4,4 -4,-62 355,-62 355,4 -4,4"/>
<!-- Node1 -->
<g id="node1" class="node">
<title>Node1</title>
<g id="a_node1"><a xlink:title=" ">
<polygon fill="#bfbfbf" stroke="black" points="0,-19.5 0,-38.5 164,-38.5 164,-19.5 0,-19.5"/>
<text text-anchor="middle" x="82" y="-26.5" font-family="Helvetica,sans-Serif" font-size="10.00">ConfigParser::parseMaxSizeBody</text>
</a>
</g>
</g>
<!-- Node2 -->
<g id="node2" class="node">
<title>Node2</title>
<g id="a_node2"><a xlink:href="namespaceconfig_1_1utils.html#a96caccf198f01c5290f601944e037e1b" target="_top" xlink:title="Parses a size string (e.g., &quot;1k&quot;, &quot;1m&quot;) into bytes.">
<polygon fill="white" stroke="black" points="217.5,-38.5 217.5,-57.5 333.5,-57.5 333.5,-38.5 217.5,-38.5"/>
<text text-anchor="middle" x="275.5" y="-45.5" font-family="Helvetica,sans-Serif" font-size="10.00">config::utils::parseSize</text>
</a>
</g>
</g>
<!-- Node1&#45;&gt;Node2 -->
<g id="edge1" class="edge">
<title>Node1&#45;&gt;Node2</title>
<path fill="none" stroke="midnightblue" d="M164.21,-37.06C178.57,-38.48 193.37,-39.95 207.29,-41.33"/>
<polygon fill="midnightblue" stroke="midnightblue" points="206.95,-44.81 217.24,-42.32 207.64,-37.85 206.95,-44.81"/>
</g>
<!-- Node3 -->
<g id="node3" class="node">
<title>Node3</title>
<g id="a_node3"><a xlink:href="namespaceconfig_1_1utils.html#a4c504c996325f8d62e08d878b037e975" target="_top" xlink:title="Removes the trailing semicolon from a string if present.">
<polygon fill="white" stroke="black" points="200,-0.5 200,-19.5 351,-19.5 351,-0.5 200,-0.5"/>
<text text-anchor="middle" x="275.5" y="-7.5" font-family="Helvetica,sans-Serif" font-size="10.00">config::utils::removeSemicolon</text>
</a>
</g>
</g>
<!-- Node1&#45;&gt;Node3 -->
<g id="edge2" class="edge">
<title>Node1&#45;&gt;Node3</title>
<path fill="none" stroke="midnightblue" d="M164.21,-20.94C172.62,-20.11 181.18,-19.26 189.63,-18.42"/>
<polygon fill="midnightblue" stroke="midnightblue" points="190.25,-21.88 199.85,-17.41 189.56,-14.91 190.25,-21.88"/>
</g>
</g>
</svg>
