<?xml version="1.0" encoding="UTF-8" standalone="no"?>
<!DOCTYPE svg PUBLIC "-//W3C//DTD SVG 1.1//EN"
 "http://www.w3.org/Graphics/SVG/1.1/DTD/svg11.dtd">
<!-- Generated by graphviz version 2.43.0 (0)
 -->
<!-- Title: ConfigParser::parseSingleServerBlock Pages: 1 -->
<!--zoomable 888 -->
<svg id="main" version="1.1" xmlns="http://www.w3.org/2000/svg" xmlns:xlink="http://www.w3.org/1999/xlink" xml:space="preserve" onload="init(evt)">
<style type="text/css"><![CDATA[
.edge:hover path { stroke: red; }
.edge:hover polygon { stroke: red; fill: red; }
]]></style>
<script type="text/javascript"><![CDATA[
var edges = document.getElementsByTagName('g');
if (edges && edges.length) {
  for (var i=0;i<edges.length;i++) {
    if (edges[i].id.substr(0,4)=='edge') {
      edges[i].setAttribute('class','edge');
    }
  }
}
]]></script>
        <defs>
                <circle id="rim" cx="0" cy="0" r="7"/>
                <circle id="rim2" cx="0" cy="0" r="3.5"/>
                <g id="zoomPlus">
                        <use xlink:href="#rim" fill="#404040">
                                <set attributeName="fill" to="#808080" begin="zoomplus.mouseover" end="zoomplus.mouseout"/>
                        </use>
                        <path d="M-4,0h8M0,-4v8" fill="none" stroke="white" stroke-width="1.5" pointer-events="none"/>
                </g>
                <g id="zoomMin">
                        <use xlink:href="#rim" fill="#404040">
                                <set attributeName="fill" to="#808080" begin="zoomminus.mouseover" end="zoomminus.mouseout"/>
                        </use>
                        <path d="M-4,0h8" fill="none" stroke="white" stroke-width="1.5" pointer-events="none"/>
                </g>
                <g id="dirArrow">
                        <path fill="none" stroke="white" stroke-width="1.5" d="M0,-3.0v7 M-2.5,-0.5L0,-3.0L2.5,-0.5"/>
                </g>
               <g id="resetDef">
                       <use xlink:href="#rim2" fill="#404040">
                               <set attributeName="fill" to="#808080" begin="reset.mouseover" end="reset.mouseout"/>
                       </use>
               </g>
        </defs>

<script type="text/javascript">
var viewWidth = 1045;
var viewHeight = 888;
var sectionId = 'dynsection-32';
</script>
<script xlink:href="svgpan.js"/>
<svg id="graph" class="graph">
<g id="viewport">
<title>ConfigParser::parseSingleServerBlock</title>
<polygon fill="white" stroke="transparent" points="-4,4 -4,-884 1041,-884 1041,4 -4,4"/>
<!-- Node1 -->
<g id="node1" class="node">
<title>Node1</title>
<g id="a_node1"><a xlink:title=" ">
<polygon fill="#bfbfbf" stroke="black" points="0,-627 0,-657 131,-657 131,-627 0,-627"/>
<text text-anchor="start" x="8" y="-645" font-family="Helvetica,sans-Serif" font-size="10.00">ConfigParser::parseSingle</text>
<text text-anchor="middle" x="65.5" y="-634" font-family="Helvetica,sans-Serif" font-size="10.00">ServerBlock</text>
</a>
</g>
</g>
<!-- Node2 -->
<g id="node2" class="node">
<title>Node2</title>
<g id="a_node2"><a xlink:href="classConfigParser.html#a586b651c9d22c24a5b3b4602819a7031" target="_top" xlink:title=" ">
<polygon fill="white" stroke="black" points="372.5,-784.5 372.5,-803.5 519.5,-803.5 519.5,-784.5 372.5,-784.5"/>
<text text-anchor="middle" x="446" y="-791.5" font-family="Helvetica,sans-Serif" font-size="10.00">ConfigParser::parseErrorPage</text>
</a>
</g>
</g>
<!-- Node1&#45;&gt;Node2 -->
<g id="edge1" class="edge">
<title>Node1&#45;&gt;Node2</title>
<path fill="none" stroke="midnightblue" d="M73.9,-657.35C87.87,-684.42 120.89,-740.12 167,-765 226.72,-797.23 304.16,-802.9 362.13,-801.41"/>
<polygon fill="midnightblue" stroke="midnightblue" points="362.48,-804.9 372.36,-801.07 362.25,-797.9 362.48,-804.9"/>
</g>
<!-- Node5 -->
<g id="node5" class="node">
<title>Node5</title>
<g id="a_node5"><a xlink:href="classConfigParser.html#a53634b014cd0c6419ecf857b20b9a0ba" target="_top" xlink:title=" ">
<polygon fill="white" stroke="black" points="383.5,-860.5 383.5,-879.5 508.5,-879.5 508.5,-860.5 383.5,-860.5"/>
<text text-anchor="middle" x="446" y="-867.5" font-family="Helvetica,sans-Serif" font-size="10.00">ConfigParser::parseHost</text>
</a>
</g>
</g>
<!-- Node1&#45;&gt;Node5 -->
<g id="edge4" class="edge">
<title>Node1&#45;&gt;Node5</title>
<path fill="none" stroke="midnightblue" d="M69.5,-657.03C77.72,-693.94 104.32,-789.25 167,-833 227.2,-875.02 312.92,-880.38 373.22,-877.68"/>
<polygon fill="midnightblue" stroke="midnightblue" points="373.62,-881.17 383.42,-877.14 373.25,-874.18 373.62,-881.17"/>
</g>
<!-- Node10 -->
<g id="node10" class="node">
<title>Node10</title>
<g id="a_node10"><a xlink:href="classConfigParser.html#a75b7302fd3f4fbbb22306335f8d3706b" target="_top" xlink:title=" ">
<polygon fill="white" stroke="black" points="182,-736.5 182,-755.5 310,-755.5 310,-736.5 182,-736.5"/>
<text text-anchor="middle" x="246" y="-743.5" font-family="Helvetica,sans-Serif" font-size="10.00">ConfigParser::parseIndex</text>
</a>
</g>
</g>
<!-- Node1&#45;&gt;Node10 -->
<g id="edge10" class="edge">
<title>Node1&#45;&gt;Node10</title>
<path fill="none" stroke="midnightblue" d="M83.19,-657.17C102.29,-673.89 135.06,-700.72 167,-718 177.87,-723.89 190.24,-728.97 201.86,-733.14"/>
<polygon fill="midnightblue" stroke="midnightblue" points="200.81,-736.48 211.41,-736.42 203.09,-729.86 200.81,-736.48"/>
</g>
<!-- Node11 -->
<g id="node11" class="node">
<title>Node11</title>
<g id="a_node11"><a xlink:href="classConfigParser.html#a5334f5b1843097862ae150b653001674" target="_top" xlink:title=" ">
<polygon fill="white" stroke="black" points="381,-822.5 381,-841.5 511,-841.5 511,-822.5 381,-822.5"/>
<text text-anchor="middle" x="446" y="-829.5" font-family="Helvetica,sans-Serif" font-size="10.00">ConfigParser::parseListen</text>
</a>
</g>
</g>
<!-- Node1&#45;&gt;Node11 -->
<g id="edge12" class="edge">
<title>Node1&#45;&gt;Node11</title>
<path fill="none" stroke="midnightblue" d="M71.32,-657.18C82.39,-689.32 112.96,-764.11 167,-798 227.94,-836.22 311.29,-841.62 370.79,-839.37"/>
<polygon fill="midnightblue" stroke="midnightblue" points="371.04,-842.86 380.87,-838.91 370.72,-835.87 371.04,-842.86"/>
</g>
<!-- Node12 -->
<g id="node12" class="node">
<title>Node12</title>
<g id="a_node12"><a xlink:href="classConfigParser.html#a497afc5807db6d7f6092609c62cdd7ad" target="_top" xlink:title=" ">
<polygon fill="white" stroke="black" points="176,-330 176,-360 316,-360 316,-330 176,-330"/>
<text text-anchor="start" x="184" y="-348" font-family="Helvetica,sans-Serif" font-size="10.00">ConfigParser::parseLocation</text>
<text text-anchor="middle" x="246" y="-337" font-family="Helvetica,sans-Serif" font-size="10.00">Block</text>
</a>
</g>
</g>
<!-- Node1&#45;&gt;Node12 -->
<g id="edge16" class="edge">
<title>Node1&#45;&gt;Node12</title>
<path fill="none" stroke="midnightblue" d="M75.6,-626.86C104.66,-578.5 195.44,-427.46 230.75,-368.71"/>
<polygon fill="midnightblue" stroke="midnightblue" points="233.77,-370.48 235.92,-360.11 227.77,-366.87 233.77,-370.48"/>
</g>
<!-- Node21 -->
<g id="node21" class="node">
<title>Node21</title>
<g id="a_node21"><a xlink:href="classConfigParser.html#a9b725718db54abd627b37d021acf726e" target="_top" xlink:title=" ">
<polygon fill="white" stroke="black" points="364,-632.5 364,-651.5 528,-651.5 528,-632.5 364,-632.5"/>
<text text-anchor="middle" x="446" y="-639.5" font-family="Helvetica,sans-Serif" font-size="10.00">ConfigParser::parseMaxSizeBody</text>
</a>
</g>
</g>
<!-- Node1&#45;&gt;Node21 -->
<g id="edge50" class="edge">
<title>Node1&#45;&gt;Node21</title>
<path fill="none" stroke="midnightblue" d="M131.14,-642C192.29,-642 284.69,-642 353.42,-642"/>
<polygon fill="midnightblue" stroke="midnightblue" points="353.81,-645.5 363.81,-642 353.81,-638.5 353.81,-645.5"/>
</g>
<!-- Node33 -->
<g id="node33" class="node">
<title>Node33</title>
<g id="a_node33"><a xlink:href="namespaceconfig_1_1utils.html#a6384148b35b446c955109acf939c872f" target="_top" xlink:title="Splits a line into tokens by whitespace.">
<polygon fill="white" stroke="black" points="391,-76.5 391,-95.5 501,-95.5 501,-76.5 391,-76.5"/>
<text text-anchor="middle" x="446" y="-83.5" font-family="Helvetica,sans-Serif" font-size="10.00">config::utils::tokenize</text>
</a>
</g>
</g>
<!-- Node1&#45;&gt;Node33 -->
<g id="edge57" class="edge">
<title>Node1&#45;&gt;Node33</title>
<path fill="none" stroke="midnightblue" d="M67.88,-626.74C72.98,-577.75 94.35,-421.76 167,-320 217.62,-249.1 272.76,-273.71 325,-204 353.08,-166.53 325.87,-135.95 361,-105 366.71,-99.97 373.46,-96.19 380.63,-93.36"/>
<polygon fill="midnightblue" stroke="midnightblue" points="382.19,-96.53 390.59,-90.06 379.99,-89.88 382.19,-96.53"/>
</g>
<!-- Node34 -->
<g id="node34" class="node">
<title>Node34</title>
<g id="a_node34"><a xlink:href="namespaceconfig_1_1utils.html#a03d47ec69fc7beb981a8635fae2f6f49" target="_top" xlink:title="Trims leading and trailing whitespace from a line.">
<polygon fill="white" stroke="black" points="392.5,-38.5 392.5,-57.5 499.5,-57.5 499.5,-38.5 392.5,-38.5"/>
<text text-anchor="middle" x="446" y="-45.5" font-family="Helvetica,sans-Serif" font-size="10.00">config::utils::trimLine</text>
</a>
</g>
</g>
<!-- Node1&#45;&gt;Node34 -->
<g id="edge58" class="edge">
<title>Node1&#45;&gt;Node34</title>
<path fill="none" stroke="midnightblue" d="M66.23,-626.91C65.89,-567.57 71.4,-346.55 167,-204 225.79,-116.33 264.56,-109.91 361,-67 367.84,-63.96 375.22,-61.38 382.66,-59.2"/>
<polygon fill="midnightblue" stroke="midnightblue" points="383.7,-62.54 392.44,-56.55 381.87,-55.78 383.7,-62.54"/>
</g>
<!-- Node35 -->
<g id="node35" class="node">
<title>Node35</title>
<g id="a_node35"><a xlink:href="classConfigParser.html#a26cc4c7c7e974575710bde0f7f9e1135" target="_top" xlink:title=" ">
<polygon fill="white" stroke="black" points="361,-0.5 361,-19.5 531,-19.5 531,-0.5 361,-0.5"/>
<text text-anchor="middle" x="446" y="-7.5" font-family="Helvetica,sans-Serif" font-size="10.00">ConfigParser::validateDirectiveLine</text>
</a>
</g>
</g>
<!-- Node1&#45;&gt;Node35 -->
<g id="edge59" class="edge">
<title>Node1&#45;&gt;Node35</title>
<path fill="none" stroke="midnightblue" d="M67.07,-626.82C70.43,-545.62 90.2,-163.22 167,-80 213.28,-29.85 289.74,-13.34 350.77,-8.82"/>
<polygon fill="midnightblue" stroke="midnightblue" points="351.06,-12.31 360.81,-8.18 350.61,-5.33 351.06,-12.31"/>
</g>
<!-- Node36 -->
<g id="node36" class="node">
<title>Node36</title>
<g id="a_node36"><a xlink:href="classConfigParser.html#a8b154ff32d31129037f006c0776bd05f" target="_top" xlink:title=" ">
<polygon fill="white" stroke="black" points="383.5,-518.5 383.5,-537.5 508.5,-537.5 508.5,-518.5 383.5,-518.5"/>
<text text-anchor="middle" x="446" y="-525.5" font-family="Helvetica,sans-Serif" font-size="10.00">ConfigParser::parseRoot</text>
</a>
</g>
</g>
<!-- Node1&#45;&gt;Node36 -->
<g id="edge51" class="edge">
<title>Node1&#45;&gt;Node36</title>
<path fill="none" stroke="midnightblue" d="M109.06,-626.94C166,-607.1 270.32,-571.83 361,-547 370.2,-544.48 380.04,-542.04 389.62,-539.79"/>
<polygon fill="midnightblue" stroke="midnightblue" points="390.52,-543.17 399.48,-537.52 388.95,-536.35 390.52,-543.17"/>
</g>
<!-- Node37 -->
<g id="node37" class="node">
<title>Node37</title>
<g id="a_node37"><a xlink:href="classConfigParser.html#a6df5ea64005edb4d851839a3b6e6b0df" target="_top" xlink:title=" ">
<polygon fill="white" stroke="black" points="167,-689.5 167,-708.5 325,-708.5 325,-689.5 167,-689.5"/>
<text text-anchor="middle" x="246" y="-696.5" font-family="Helvetica,sans-Serif" font-size="10.00">ConfigParser::parseServerName</text>
</a>
</g>
</g>
<!-- Node1&#45;&gt;Node37 -->
<g id="edge55" class="edge">
<title>Node1&#45;&gt;Node37</title>
<path fill="none" stroke="midnightblue" d="M113.87,-657.13C142.47,-666.26 178.51,-677.77 205.56,-686.41"/>
<polygon fill="midnightblue" stroke="midnightblue" points="204.5,-689.74 215.09,-689.45 206.63,-683.07 204.5,-689.74"/>
</g>
<!-- Node3 -->
<g id="node3" class="node">
<title>Node3</title>
<g id="a_node3"><a xlink:href="namespaceconfig_1_1utils.html#a4c504c996325f8d62e08d878b037e975" target="_top" xlink:title="Removes the trailing semicolon from a string if present.">
<polygon fill="white" stroke="black" points="572,-730.5 572,-749.5 723,-749.5 723,-730.5 572,-730.5"/>
<text text-anchor="middle" x="647.5" y="-737.5" font-family="Helvetica,sans-Serif" font-size="10.00">config::utils::removeSemicolon</text>
</a>
</g>
</g>
<!-- Node2&#45;&gt;Node3 -->
<g id="edge2" class="edge">
<title>Node2&#45;&gt;Node3</title>
<path fill="none" stroke="midnightblue" d="M482.21,-784.47C515.44,-775.48 565.42,-761.95 601.52,-752.18"/>
<polygon fill="midnightblue" stroke="midnightblue" points="602.57,-755.52 611.31,-749.53 600.74,-748.76 602.57,-755.52"/>
</g>
<!-- Node4 -->
<g id="node4" class="node">
<title>Node4</title>
<g id="a_node4"><a xlink:href="namespaceconfig_1_1utils.html#a0ff3e01dad8856ae9244e96ef9e95b99" target="_top" xlink:title="Converts a string to an integer.">
<polygon fill="white" stroke="black" points="588,-784.5 588,-803.5 707,-803.5 707,-784.5 588,-784.5"/>
<text text-anchor="middle" x="647.5" y="-791.5" font-family="Helvetica,sans-Serif" font-size="10.00">config::utils::stringToInt</text>
</a>
</g>
</g>
<!-- Node2&#45;&gt;Node4 -->
<g id="edge3" class="edge">
<title>Node2&#45;&gt;Node4</title>
<path fill="none" stroke="midnightblue" d="M519.59,-794C538.48,-794 558.78,-794 577.49,-794"/>
<polygon fill="midnightblue" stroke="midnightblue" points="577.7,-797.5 587.7,-794 577.7,-790.5 577.7,-797.5"/>
</g>
<!-- Node5&#45;&gt;Node3 -->
<g id="edge9" class="edge">
<title>Node5&#45;&gt;Node3</title>
<path fill="none" stroke="midnightblue" d="M508.73,-862.92C516.77,-860.09 524.47,-856.24 531,-851 560.17,-827.63 540.21,-801.06 567,-775 576.55,-765.71 588.98,-758.66 601.17,-753.41"/>
<polygon fill="midnightblue" stroke="midnightblue" points="602.82,-756.52 610.83,-749.59 600.24,-750.02 602.82,-756.52"/>
</g>
<!-- Node6 -->
<g id="node6" class="node">
<title>Node6</title>
<g id="a_node6"><a xlink:href="namespaceconfig_1_1utils.html#ab2e0db706cadd8f620668e8aa9ea1644" target="_top" xlink:title="Validates a host string (either IPv4 or hostname)">
<polygon fill="white" stroke="black" points="586.5,-841.5 586.5,-860.5 708.5,-860.5 708.5,-841.5 586.5,-841.5"/>
<text text-anchor="middle" x="647.5" y="-848.5" font-family="Helvetica,sans-Serif" font-size="10.00">config::utils::isValidHost</text>
</a>
</g>
</g>
<!-- Node5&#45;&gt;Node6 -->
<g id="edge5" class="edge">
<title>Node5&#45;&gt;Node6</title>
<path fill="none" stroke="midnightblue" d="M508.76,-864.12C530.19,-862.08 554.38,-859.77 576.44,-857.67"/>
<polygon fill="midnightblue" stroke="midnightblue" points="576.78,-861.16 586.4,-856.72 576.12,-854.19 576.78,-861.16"/>
</g>
<!-- Node7 -->
<g id="node7" class="node">
<title>Node7</title>
<g id="a_node7"><a xlink:href="namespaceconfig_1_1utils.html#abccb78e02eed9bea1836a7aa96acf8f7" target="_top" xlink:title="Validates hostname format following RFC 952 and RFC 1123.">
<polygon fill="white" stroke="black" points="764,-860.5 764,-879.5 910,-879.5 910,-860.5 764,-860.5"/>
<text text-anchor="middle" x="837" y="-867.5" font-family="Helvetica,sans-Serif" font-size="10.00">config::utils::isValidHostname</text>
</a>
</g>
</g>
<!-- Node6&#45;&gt;Node7 -->
<g id="edge6" class="edge">
<title>Node6&#45;&gt;Node7</title>
<path fill="none" stroke="midnightblue" d="M708.6,-857.09C722.87,-858.54 738.35,-860.1 753.43,-861.63"/>
<polygon fill="midnightblue" stroke="midnightblue" points="753.48,-865.16 763.79,-862.68 754.19,-858.19 753.48,-865.16"/>
</g>
<!-- Node8 -->
<g id="node8" class="node">
<title>Node8</title>
<g id="a_node8"><a xlink:href="namespaceconfig_1_1utils.html#a36374aff9046ea2a3e8af894f939c215" target="_top" xlink:title="Validates an IPv4 address string.">
<polygon fill="white" stroke="black" points="776,-822.5 776,-841.5 898,-841.5 898,-822.5 776,-822.5"/>
<text text-anchor="middle" x="837" y="-829.5" font-family="Helvetica,sans-Serif" font-size="10.00">config::utils::isValidIPv4</text>
</a>
</g>
</g>
<!-- Node6&#45;&gt;Node8 -->
<g id="edge7" class="edge">
<title>Node6&#45;&gt;Node8</title>
<path fill="none" stroke="midnightblue" d="M708.6,-844.91C726.85,-843.06 747.06,-841.01 765.91,-839.1"/>
<polygon fill="midnightblue" stroke="midnightblue" points="766.32,-842.58 775.92,-838.09 765.62,-835.61 766.32,-842.58"/>
</g>
<!-- Node9 -->
<g id="node9" class="node">
<title>Node9</title>
<g id="a_node9"><a xlink:href="namespaceconfig_1_1utils.html#a86bd730a60ae105179738c895a3a398b" target="_top" xlink:title="Splits a string by a delimiter into a vector.">
<polygon fill="white" stroke="black" points="946,-822.5 946,-841.5 1037,-841.5 1037,-822.5 946,-822.5"/>
<text text-anchor="middle" x="991.5" y="-829.5" font-family="Helvetica,sans-Serif" font-size="10.00">config::utils::split</text>
</a>
</g>
</g>
<!-- Node8&#45;&gt;Node9 -->
<g id="edge8" class="edge">
<title>Node8&#45;&gt;Node9</title>
<path fill="none" stroke="midnightblue" d="M898.27,-832C910.51,-832 923.32,-832 935.36,-832"/>
<polygon fill="midnightblue" stroke="midnightblue" points="935.72,-835.5 945.72,-832 935.72,-828.5 935.72,-835.5"/>
</g>
<!-- Node10&#45;&gt;Node3 -->
<g id="edge11" class="edge">
<title>Node10&#45;&gt;Node3</title>
<path fill="none" stroke="midnightblue" d="M310.3,-745.05C378.17,-744.03 486.31,-742.41 561.55,-741.28"/>
<polygon fill="midnightblue" stroke="midnightblue" points="561.99,-744.77 571.94,-741.12 561.89,-737.77 561.99,-744.77"/>
</g>
<!-- Node11&#45;&gt;Node3 -->
<g id="edge14" class="edge">
<title>Node11&#45;&gt;Node3</title>
<path fill="none" stroke="midnightblue" d="M509.14,-822.36C516.77,-819.91 524.24,-816.85 531,-813 551.22,-801.49 547.98,-788.4 567,-775 579.4,-766.27 594.33,-758.99 607.89,-753.38"/>
<polygon fill="midnightblue" stroke="midnightblue" points="609.45,-756.52 617.46,-749.59 606.87,-750.02 609.45,-756.52"/>
</g>
<!-- Node11&#45;&gt;Node4 -->
<g id="edge15" class="edge">
<title>Node11&#45;&gt;Node4</title>
<path fill="none" stroke="midnightblue" d="M497.08,-822.46C524.24,-817.29 557.99,-810.86 586.53,-805.42"/>
<polygon fill="midnightblue" stroke="midnightblue" points="587.23,-808.85 596.39,-803.54 585.92,-801.98 587.23,-808.85"/>
</g>
<!-- Node11&#45;&gt;Node6 -->
<g id="edge13" class="edge">
<title>Node11&#45;&gt;Node6</title>
<path fill="none" stroke="midnightblue" d="M511.22,-838.12C531.97,-840.09 555.09,-842.29 576.25,-844.31"/>
<polygon fill="midnightblue" stroke="midnightblue" points="576.18,-847.82 586.47,-845.28 576.84,-840.85 576.18,-847.82"/>
</g>
<!-- Node12&#45;&gt;Node3 -->
<g id="edge42" class="edge">
<title>Node12&#45;&gt;Node3</title>
<path fill="none" stroke="midnightblue" d="M247.76,-360.16C251.13,-410.82 269.01,-575.79 361,-661 418.51,-714.27 456.3,-684.23 531,-708 547.21,-713.16 550.7,-716.13 567,-721 575.21,-723.45 583.97,-725.81 592.56,-727.97"/>
<polygon fill="midnightblue" stroke="midnightblue" points="591.98,-731.43 602.53,-730.42 593.65,-724.64 591.98,-731.43"/>
</g>
<!-- Node13 -->
<g id="node13" class="node">
<title>Node13</title>
<g id="a_node13"><a xlink:href="classLocationConfig.html#ae3ad891e98d42da2cb0a9a3149d44bd3" target="_top" xlink:title=" ">
<polygon fill="white" stroke="black" points="382,-430.5 382,-449.5 510,-449.5 510,-430.5 382,-430.5"/>
<text text-anchor="middle" x="446" y="-437.5" font-family="Helvetica,sans-Serif" font-size="10.00">LocationConfig::addIndex</text>
</a>
</g>
</g>
<!-- Node12&#45;&gt;Node13 -->
<g id="edge17" class="edge">
<title>Node12&#45;&gt;Node13</title>
<path fill="none" stroke="midnightblue" d="M265.13,-360.18C286.66,-377.44 324.27,-405.25 361,-421 366.86,-423.51 373.1,-425.72 379.43,-427.65"/>
<polygon fill="midnightblue" stroke="midnightblue" points="378.84,-431.11 389.41,-430.45 380.73,-424.38 378.84,-431.11"/>
</g>
<!-- Node14 -->
<g id="node14" class="node">
<title>Node14</title>
<g id="a_node14"><a xlink:href="classLocationConfig.html#a893870402bc9e072c1a9e05c4a428902" target="_top" xlink:title=" ">
<polygon fill="white" stroke="black" points="378,-392.5 378,-411.5 514,-411.5 514,-392.5 378,-392.5"/>
<text text-anchor="middle" x="446" y="-399.5" font-family="Helvetica,sans-Serif" font-size="10.00">LocationConfig::addMethod</text>
</a>
</g>
</g>
<!-- Node12&#45;&gt;Node14 -->
<g id="edge18" class="edge">
<title>Node12&#45;&gt;Node14</title>
<path fill="none" stroke="midnightblue" d="M298.92,-360.07C318.38,-365.71 340.7,-372.16 361,-378 374.24,-381.81 388.66,-385.94 401.76,-389.68"/>
<polygon fill="midnightblue" stroke="midnightblue" points="400.9,-393.07 411.47,-392.45 402.82,-386.34 400.9,-393.07"/>
</g>
<!-- Node15 -->
<g id="node15" class="node">
<title>Node15</title>
<g id="a_node15"><a xlink:href="classConfigParser.html#a84e1b9e32f9be2aee1bff8a78c8c0f67" target="_top" xlink:title="Returns the directory part of the config file path.">
<polygon fill="white" stroke="black" points="576,-490.5 576,-509.5 719,-509.5 719,-490.5 576,-490.5"/>
<text text-anchor="middle" x="647.5" y="-497.5" font-family="Helvetica,sans-Serif" font-size="10.00">ConfigParser::getConfFileDir</text>
</a>
</g>
</g>
<!-- Node12&#45;&gt;Node15 -->
<g id="edge19" class="edge">
<title>Node12&#45;&gt;Node15</title>
<path fill="none" stroke="midnightblue" d="M316.01,-346.22C389.27,-348.89 498.84,-357.21 531,-383 567.2,-412.03 532.32,-450.17 567,-481 568.77,-482.57 570.64,-484.02 572.6,-485.35"/>
<polygon fill="midnightblue" stroke="midnightblue" points="571.24,-488.6 581.67,-490.49 574.69,-482.51 571.24,-488.6"/>
</g>
<!-- Node16 -->
<g id="node16" class="node">
<title>Node16</title>
<g id="a_node16"><a xlink:href="namespaceconfig_1_1utils.html#a1499ac2a3ac27374a055baf36e2eb5ba" target="_top" xlink:title="Validates an HTTP method string.">
<polygon fill="white" stroke="black" points="386,-267 386,-297 506,-297 506,-267 386,-267"/>
<text text-anchor="start" x="394" y="-285" font-family="Helvetica,sans-Serif" font-size="10.00">config::utils::isValidHttp</text>
<text text-anchor="middle" x="446" y="-274" font-family="Helvetica,sans-Serif" font-size="10.00">Method</text>
</a>
</g>
</g>
<!-- Node12&#45;&gt;Node16 -->
<g id="edge20" class="edge">
<title>Node12&#45;&gt;Node16</title>
<path fill="none" stroke="midnightblue" d="M294.17,-329.99C322.33,-321.03 358.28,-309.59 388.02,-300.13"/>
<polygon fill="midnightblue" stroke="midnightblue" points="389.38,-303.37 397.84,-297 387.25,-296.7 389.38,-303.37"/>
</g>
<!-- Node17 -->
<g id="node17" class="node">
<title>Node17</title>
<g id="a_node17"><a xlink:href="namespaceconfig_1_1utils.html#a335000e49ff4c427a4e56c9953f8f166" target="_top" xlink:title="Validates a location path string.">
<polygon fill="white" stroke="black" points="367,-228.5 367,-247.5 525,-247.5 525,-228.5 367,-228.5"/>
<text text-anchor="middle" x="446" y="-235.5" font-family="Helvetica,sans-Serif" font-size="10.00">config::utils::isValidLocationPath</text>
</a>
</g>
</g>
<!-- Node12&#45;&gt;Node17 -->
<g id="edge21" class="edge">
<title>Node12&#45;&gt;Node17</title>
<path fill="none" stroke="midnightblue" d="M270.88,-329.83C286.67,-319.46 307.6,-305.11 325,-291 342.1,-277.14 341.58,-267.35 361,-257 365.31,-254.7 369.89,-252.68 374.59,-250.91"/>
<polygon fill="midnightblue" stroke="midnightblue" points="376.04,-254.11 384.39,-247.59 373.79,-247.48 376.04,-254.11"/>
</g>
<!-- Node18 -->
<g id="node18" class="node">
<title>Node18</title>
<g id="a_node18"><a xlink:href="classConfigParser.html#a7ab80fb3ce52414448d41df88f94400a" target="_top" xlink:title=" ">
<polygon fill="white" stroke="black" points="386.5,-556.5 386.5,-575.5 505.5,-575.5 505.5,-556.5 386.5,-556.5"/>
<text text-anchor="middle" x="446" y="-563.5" font-family="Helvetica,sans-Serif" font-size="10.00">ConfigParser::parseCgi</text>
</a>
</g>
</g>
<!-- Node12&#45;&gt;Node18 -->
<g id="edge22" class="edge">
<title>Node12&#45;&gt;Node18</title>
<path fill="none" stroke="midnightblue" d="M250.96,-360.27C261.67,-398.32 294.93,-497.84 361,-547 365.76,-550.55 371.07,-553.45 376.64,-555.82"/>
<polygon fill="midnightblue" stroke="midnightblue" points="375.61,-559.17 386.21,-559.34 378.03,-552.6 375.61,-559.17"/>
</g>
<!-- Node20 -->
<g id="node20" class="node">
<title>Node20</title>
<g id="a_node20"><a xlink:href="namespaceconfig_1_1utils.html#ab47e6d08957f3aa61a7e2a31c5e8d77f" target="_top" xlink:title="Converts a possibly relative path to absolute.">
<polygon fill="white" stroke="black" points="577.5,-452.5 577.5,-471.5 717.5,-471.5 717.5,-452.5 577.5,-452.5"/>
<text text-anchor="middle" x="647.5" y="-459.5" font-family="Helvetica,sans-Serif" font-size="10.00">config::utils::toAbsolutePath</text>
</a>
</g>
</g>
<!-- Node12&#45;&gt;Node20 -->
<g id="edge46" class="edge">
<title>Node12&#45;&gt;Node20</title>
<path fill="none" stroke="midnightblue" d="M298.89,-329.94C360.18,-315.47 462.47,-302.15 531,-350 567.34,-375.37 533.62,-413.84 567,-443 568.78,-444.56 570.67,-445.99 572.63,-447.31"/>
<polygon fill="midnightblue" stroke="midnightblue" points="571.3,-450.57 581.74,-452.41 574.72,-444.47 571.3,-450.57"/>
</g>
<!-- Node12&#45;&gt;Node21 -->
<g id="edge27" class="edge">
<title>Node12&#45;&gt;Node21</title>
<path fill="none" stroke="midnightblue" d="M248.42,-360.15C253.69,-407.12 276.36,-551.42 361,-623 363,-624.69 365.12,-626.24 367.33,-627.65"/>
<polygon fill="midnightblue" stroke="midnightblue" points="365.8,-630.81 376.26,-632.5 369.14,-624.66 365.8,-630.81"/>
</g>
<!-- Node23 -->
<g id="node23" class="node">
<title>Node23</title>
<g id="a_node23"><a xlink:href="classConfigParser.html#a27bff35ad8d26d109518201906023389" target="_top" xlink:title=" ">
<polygon fill="white" stroke="black" points="379.5,-594.5 379.5,-613.5 512.5,-613.5 512.5,-594.5 379.5,-594.5"/>
<text text-anchor="middle" x="446" y="-601.5" font-family="Helvetica,sans-Serif" font-size="10.00">ConfigParser::parseReturn</text>
</a>
</g>
</g>
<!-- Node12&#45;&gt;Node23 -->
<g id="edge30" class="edge">
<title>Node12&#45;&gt;Node23</title>
<path fill="none" stroke="midnightblue" d="M249.51,-360.21C257.38,-402.92 285.73,-524.76 361,-585 363.91,-587.33 367.06,-589.39 370.36,-591.21"/>
<polygon fill="midnightblue" stroke="midnightblue" points="368.89,-594.38 379.43,-595.47 371.86,-588.04 368.89,-594.38"/>
</g>
<!-- Node27 -->
<g id="node27" class="node">
<title>Node27</title>
<g id="a_node27"><a xlink:href="classConfigParser.html#a5e88206a9aca177924981f1567eeaf37" target="_top" xlink:title=" ">
<polygon fill="white" stroke="black" points="379,-469 379,-499 513,-499 513,-469 379,-469"/>
<text text-anchor="start" x="387" y="-487" font-family="Helvetica,sans-Serif" font-size="10.00">ConfigParser::parseUpload</text>
<text text-anchor="middle" x="446" y="-476" font-family="Helvetica,sans-Serif" font-size="10.00">Bonus</text>
</a>
</g>
</g>
<!-- Node12&#45;&gt;Node27 -->
<g id="edge36" class="edge">
<title>Node12&#45;&gt;Node27</title>
<path fill="none" stroke="midnightblue" d="M258.18,-360.33C276.79,-384.76 316.52,-432.5 361,-459 364.6,-461.15 368.4,-463.12 372.32,-464.93"/>
<polygon fill="midnightblue" stroke="midnightblue" points="371.04,-468.2 381.62,-468.88 373.78,-461.75 371.04,-468.2"/>
</g>
<!-- Node30 -->
<g id="node30" class="node">
<title>Node30</title>
<g id="a_node30"><a xlink:href="classLocationConfig.html#aaeba1b59714be158d6c0b0fd64e3580e" target="_top" xlink:title=" ">
<polygon fill="white" stroke="black" points="373,-190.5 373,-209.5 519,-209.5 519,-190.5 373,-190.5"/>
<text text-anchor="middle" x="446" y="-197.5" font-family="Helvetica,sans-Serif" font-size="10.00">LocationConfig::setAutoIndex</text>
</a>
</g>
</g>
<!-- Node12&#45;&gt;Node30 -->
<g id="edge43" class="edge">
<title>Node12&#45;&gt;Node30</title>
<path fill="none" stroke="midnightblue" d="M275.64,-329.94C291.69,-320.43 311.19,-306.93 325,-291 348.44,-263.97 332.84,-241.07 361,-219 363.32,-217.18 365.77,-215.54 368.34,-214.04"/>
<polygon fill="midnightblue" stroke="midnightblue" points="370.02,-217.11 377.4,-209.51 366.89,-210.85 370.02,-217.11"/>
</g>
<!-- Node31 -->
<g id="node31" class="node">
<title>Node31</title>
<g id="a_node31"><a xlink:href="classLocationConfig.html#a36bea47c39135d4119cb3541ee44c78f" target="_top" xlink:title=" ">
<polygon fill="white" stroke="black" points="385,-152.5 385,-171.5 507,-171.5 507,-152.5 385,-152.5"/>
<text text-anchor="middle" x="446" y="-159.5" font-family="Helvetica,sans-Serif" font-size="10.00">LocationConfig::setPath</text>
</a>
</g>
</g>
<!-- Node12&#45;&gt;Node31 -->
<g id="edge44" class="edge">
<title>Node12&#45;&gt;Node31</title>
<path fill="none" stroke="midnightblue" d="M278.09,-329.79C294.11,-320.55 312.79,-307.37 325,-291 355.75,-249.76 322.96,-215.63 361,-181 365.22,-177.16 370.04,-174.05 375.19,-171.52"/>
<polygon fill="midnightblue" stroke="midnightblue" points="376.85,-174.63 384.78,-167.59 374.2,-168.15 376.85,-174.63"/>
</g>
<!-- Node32 -->
<g id="node32" class="node">
<title>Node32</title>
<g id="a_node32"><a xlink:href="classLocationConfig.html#aaf3cb645a6dbf533e76abbbabe25fd8f" target="_top" xlink:title=" ">
<polygon fill="white" stroke="black" points="385,-114.5 385,-133.5 507,-133.5 507,-114.5 385,-114.5"/>
<text text-anchor="middle" x="446" y="-121.5" font-family="Helvetica,sans-Serif" font-size="10.00">LocationConfig::setRoot</text>
</a>
</g>
</g>
<!-- Node12&#45;&gt;Node32 -->
<g id="edge45" class="edge">
<title>Node12&#45;&gt;Node32</title>
<path fill="none" stroke="midnightblue" d="M279,-329.94C295.07,-320.82 313.53,-307.7 325,-291 363.33,-235.2 312.75,-190.48 361,-143 365.23,-138.83 370.17,-135.5 375.5,-132.85"/>
<polygon fill="midnightblue" stroke="midnightblue" points="376.89,-136.07 384.78,-129 374.2,-129.6 376.89,-136.07"/>
</g>
<!-- Node12&#45;&gt;Node33 -->
<g id="edge47" class="edge">
<title>Node12&#45;&gt;Node33</title>
<path fill="none" stroke="midnightblue" d="M279.71,-329.93C295.79,-320.88 314.02,-307.83 325,-291 371.02,-220.49 302.4,-165.46 361,-105 366.7,-99.12 373.8,-94.89 381.44,-91.87"/>
<polygon fill="midnightblue" stroke="midnightblue" points="382.56,-95.18 390.98,-88.75 380.39,-88.53 382.56,-95.18"/>
</g>
<!-- Node12&#45;&gt;Node34 -->
<g id="edge48" class="edge">
<title>Node12&#45;&gt;Node34</title>
<path fill="none" stroke="midnightblue" d="M256.97,-329.97C273.24,-304.85 305.65,-252.3 325,-204 348.42,-145.56 315.72,-110.74 361,-67 367.11,-61.1 374.64,-56.88 382.66,-53.89"/>
<polygon fill="midnightblue" stroke="midnightblue" points="383.73,-57.23 392.24,-50.92 381.66,-50.54 383.73,-57.23"/>
</g>
<!-- Node12&#45;&gt;Node35 -->
<g id="edge49" class="edge">
<title>Node12&#45;&gt;Node35</title>
<path fill="none" stroke="midnightblue" d="M247.6,-329.67C250.49,-278.48 267.02,-112.01 361,-29 362.73,-27.47 364.56,-26.06 366.46,-24.75"/>
<polygon fill="midnightblue" stroke="midnightblue" points="368.35,-27.71 375.27,-19.69 364.85,-21.64 368.35,-27.71"/>
</g>
<!-- Node18&#45;&gt;Node3 -->
<g id="edge25" class="edge">
<title>Node18&#45;&gt;Node3</title>
<path fill="none" stroke="midnightblue" d="M505.82,-570.68C515.15,-573.71 524,-578.25 531,-585 576.01,-628.4 522.26,-677.32 567,-721 568.45,-722.41 569.98,-723.73 571.58,-724.95"/>
<polygon fill="midnightblue" stroke="midnightblue" points="569.8,-727.96 580.13,-730.33 573.53,-722.04 569.8,-727.96"/>
</g>
<!-- Node18&#45;&gt;Node15 -->
<g id="edge24" class="edge">
<title>Node18&#45;&gt;Node15</title>
<path fill="none" stroke="midnightblue" d="M505.06,-556.39C513.97,-553.92 522.89,-550.84 531,-547 549.32,-538.33 548.73,-527.78 567,-519 572.04,-516.58 577.4,-514.46 582.88,-512.59"/>
<polygon fill="midnightblue" stroke="midnightblue" points="584.3,-515.82 592.82,-509.51 582.23,-509.13 584.3,-515.82"/>
</g>
<!-- Node19 -->
<g id="node19" class="node">
<title>Node19</title>
<g id="a_node19"><a xlink:href="classLocationConfig.html#ab939a2ea336da8f7c9b58e45fb9e926a" target="_top" xlink:title=" ">
<polygon fill="white" stroke="black" points="571.5,-528.5 571.5,-547.5 723.5,-547.5 723.5,-528.5 571.5,-528.5"/>
<text text-anchor="middle" x="647.5" y="-535.5" font-family="Helvetica,sans-Serif" font-size="10.00">LocationConfig::addCgiHandler</text>
</a>
</g>
</g>
<!-- Node18&#45;&gt;Node19 -->
<g id="edge23" class="edge">
<title>Node18&#45;&gt;Node19</title>
<path fill="none" stroke="midnightblue" d="M505.51,-557.79C525.17,-555.03 547.43,-551.9 568.35,-548.97"/>
<polygon fill="midnightblue" stroke="midnightblue" points="569.08,-552.4 578.5,-547.54 568.11,-545.47 569.08,-552.4"/>
</g>
<!-- Node18&#45;&gt;Node20 -->
<g id="edge26" class="edge">
<title>Node18&#45;&gt;Node20</title>
<path fill="none" stroke="midnightblue" d="M505.86,-559.43C514.86,-556.58 523.6,-552.59 531,-547 557.66,-526.86 540.46,-501.3 567,-481 569.46,-479.12 572.07,-477.42 574.8,-475.89"/>
<polygon fill="midnightblue" stroke="midnightblue" points="576.35,-479.03 583.84,-471.54 573.31,-472.72 576.35,-479.03"/>
</g>
<!-- Node21&#45;&gt;Node3 -->
<g id="edge29" class="edge">
<title>Node21&#45;&gt;Node3</title>
<path fill="none" stroke="midnightblue" d="M502.05,-651.63C512.3,-655.06 522.45,-659.7 531,-666 554.52,-683.32 543.1,-704.19 567,-721 569.73,-722.92 572.62,-724.64 575.64,-726.2"/>
<polygon fill="midnightblue" stroke="midnightblue" points="574.41,-729.48 584.96,-730.36 577.26,-723.09 574.41,-729.48"/>
</g>
<!-- Node22 -->
<g id="node22" class="node">
<title>Node22</title>
<g id="a_node22"><a xlink:href="namespaceconfig_1_1utils.html#a96caccf198f01c5290f601944e037e1b" target="_top" xlink:title="Parses a size string (e.g., &quot;1k&quot;, &quot;1m&quot;) into bytes.">
<polygon fill="white" stroke="black" points="589.5,-692.5 589.5,-711.5 705.5,-711.5 705.5,-692.5 589.5,-692.5"/>
<text text-anchor="middle" x="647.5" y="-699.5" font-family="Helvetica,sans-Serif" font-size="10.00">config::utils::parseSize</text>
</a>
</g>
</g>
<!-- Node21&#45;&gt;Node22 -->
<g id="edge28" class="edge">
<title>Node21&#45;&gt;Node22</title>
<path fill="none" stroke="midnightblue" d="M485.48,-651.58C499.92,-655.54 516.38,-660.5 531,-666 547.56,-672.23 550.31,-677.13 567,-683 574.25,-685.55 581.99,-687.87 589.68,-689.94"/>
<polygon fill="midnightblue" stroke="midnightblue" points="588.81,-693.33 599.37,-692.44 590.56,-686.55 588.81,-693.33"/>
</g>
<!-- Node23&#45;&gt;Node3 -->
<g id="edge31" class="edge">
<title>Node23&#45;&gt;Node3</title>
<path fill="none" stroke="midnightblue" d="M512.57,-611.87C519.28,-614.64 525.61,-618.26 531,-623 565.87,-653.62 532.32,-690.17 567,-721 568.77,-722.57 570.64,-724.02 572.6,-725.35"/>
<polygon fill="midnightblue" stroke="midnightblue" points="571.24,-728.6 581.67,-730.49 574.69,-722.51 571.24,-728.6"/>
</g>
<!-- Node23&#45;&gt;Node4 -->
<g id="edge35" class="edge">
<title>Node23&#45;&gt;Node4</title>
<path fill="none" stroke="midnightblue" d="M512.6,-611.2C519.39,-614.08 525.73,-617.91 531,-623 576.01,-666.4 526.37,-711.48 567,-759 575.04,-768.4 586.09,-775.37 597.4,-780.5"/>
<polygon fill="midnightblue" stroke="midnightblue" points="596.31,-783.84 606.89,-784.4 598.97,-777.37 596.31,-783.84"/>
</g>
<!-- Node24 -->
<g id="node24" class="node">
<title>Node24</title>
<g id="a_node24"><a xlink:href="classLocationConfig.html#a171605c1975557c5d5ca44fe0f33af7c" target="_top" xlink:title=" ">
<polygon fill="white" stroke="black" points="567,-654.5 567,-673.5 728,-673.5 728,-654.5 567,-654.5"/>
<text text-anchor="middle" x="647.5" y="-661.5" font-family="Helvetica,sans-Serif" font-size="10.00">LocationConfig::setRedirectCode</text>
</a>
</g>
</g>
<!-- Node23&#45;&gt;Node24 -->
<g id="edge32" class="edge">
<title>Node23&#45;&gt;Node24</title>
<path fill="none" stroke="midnightblue" d="M500.62,-613.55C510.87,-616.1 521.4,-619.22 531,-623 548.23,-629.79 549.85,-637 567,-644 574.13,-646.91 581.81,-649.48 589.47,-651.73"/>
<polygon fill="midnightblue" stroke="midnightblue" points="588.56,-655.11 599.13,-654.41 590.43,-648.37 588.56,-655.11"/>
</g>
<!-- Node25 -->
<g id="node25" class="node">
<title>Node25</title>
<g id="a_node25"><a xlink:href="classLocationConfig.html#a901f488de53c50e7b1f39f4b199cd9db" target="_top" xlink:title=" ">
<polygon fill="white" stroke="black" points="578.5,-605 578.5,-635 716.5,-635 716.5,-605 578.5,-605"/>
<text text-anchor="start" x="586.5" y="-623" font-family="Helvetica,sans-Serif" font-size="10.00">LocationConfig::setRedirect</text>
<text text-anchor="middle" x="647.5" y="-612" font-family="Helvetica,sans-Serif" font-size="10.00">ParamCount</text>
</a>
</g>
</g>
<!-- Node23&#45;&gt;Node25 -->
<g id="edge33" class="edge">
<title>Node23&#45;&gt;Node25</title>
<path fill="none" stroke="midnightblue" d="M512.6,-609.26C530.42,-610.69 549.9,-612.25 568.34,-613.73"/>
<polygon fill="midnightblue" stroke="midnightblue" points="568.22,-617.23 578.47,-614.54 568.78,-610.26 568.22,-617.23"/>
</g>
<!-- Node26 -->
<g id="node26" class="node">
<title>Node26</title>
<g id="a_node26"><a xlink:href="classLocationConfig.html#a17e8f5821073dcecf2e5bd9226cf9633" target="_top" xlink:title=" ">
<polygon fill="white" stroke="black" points="572,-566.5 572,-585.5 723,-585.5 723,-566.5 572,-566.5"/>
<text text-anchor="middle" x="647.5" y="-573.5" font-family="Helvetica,sans-Serif" font-size="10.00">LocationConfig::setRedirectUrl</text>
</a>
</g>
</g>
<!-- Node23&#45;&gt;Node26 -->
<g id="edge34" class="edge">
<title>Node23&#45;&gt;Node26</title>
<path fill="none" stroke="midnightblue" d="M512.6,-594.79C530.6,-592.27 550.29,-589.5 568.9,-586.89"/>
<polygon fill="midnightblue" stroke="midnightblue" points="569.39,-590.36 578.81,-585.5 568.42,-583.42 569.39,-590.36"/>
</g>
<!-- Node27&#45;&gt;Node3 -->
<g id="edge39" class="edge">
<title>Node27&#45;&gt;Node3</title>
<path fill="none" stroke="midnightblue" d="M513.25,-495.66C519.93,-499.06 526.06,-503.42 531,-509 594.37,-580.54 501.7,-651.22 567,-721 568.23,-722.32 569.54,-723.55 570.91,-724.71"/>
<polygon fill="midnightblue" stroke="midnightblue" points="569.15,-727.74 579.38,-730.49 573.1,-721.96 569.15,-727.74"/>
</g>
<!-- Node27&#45;&gt;Node15 -->
<g id="edge37" class="edge">
<title>Node27&#45;&gt;Node15</title>
<path fill="none" stroke="midnightblue" d="M513.15,-489.31C529.94,-490.65 548.15,-492.11 565.58,-493.51"/>
<polygon fill="midnightblue" stroke="midnightblue" points="565.48,-497.01 575.73,-494.32 566.04,-490.04 565.48,-497.01"/>
</g>
<!-- Node27&#45;&gt;Node20 -->
<g id="edge41" class="edge">
<title>Node27&#45;&gt;Node20</title>
<path fill="none" stroke="midnightblue" d="M513.15,-476.7C530.49,-474.79 549.36,-472.71 567.3,-470.73"/>
<polygon fill="midnightblue" stroke="midnightblue" points="567.89,-474.19 577.45,-469.61 567.13,-467.23 567.89,-474.19"/>
</g>
<!-- Node28 -->
<g id="node28" class="node">
<title>Node28</title>
<g id="a_node28"><a xlink:href="namespaceconfig_1_1utils.html#a48502107edda1e081240899a7e240da1" target="_top" xlink:title="Validates if a path string is well&#45;formed.">
<polygon fill="white" stroke="black" points="586.5,-414.5 586.5,-433.5 708.5,-433.5 708.5,-414.5 586.5,-414.5"/>
<text text-anchor="middle" x="647.5" y="-421.5" font-family="Helvetica,sans-Serif" font-size="10.00">config::utils::isValidPath</text>
</a>
</g>
</g>
<!-- Node27&#45;&gt;Node28 -->
<g id="edge38" class="edge">
<title>Node27&#45;&gt;Node28</title>
<path fill="none" stroke="midnightblue" d="M501.56,-468.88C511.43,-465.83 521.58,-462.48 531,-459 547.42,-452.93 550.42,-448.61 567,-443 574.47,-440.47 582.44,-438.15 590.34,-436.06"/>
<polygon fill="midnightblue" stroke="midnightblue" points="591.44,-439.39 600.27,-433.53 589.71,-432.6 591.44,-439.39"/>
</g>
<!-- Node29 -->
<g id="node29" class="node">
<title>Node29</title>
<g id="a_node29"><a xlink:href="classLocationConfig.html#af3b070091ab82c368fe2206be70a2938" target="_top" xlink:title=" ">
<polygon fill="white" stroke="black" points="581.5,-365 581.5,-395 713.5,-395 713.5,-365 581.5,-365"/>
<text text-anchor="start" x="589.5" y="-383" font-family="Helvetica,sans-Serif" font-size="10.00">LocationConfig::setUpload</text>
<text text-anchor="middle" x="647.5" y="-372" font-family="Helvetica,sans-Serif" font-size="10.00">Store</text>
</a>
</g>
</g>
<!-- Node27&#45;&gt;Node29 -->
<g id="edge40" class="edge">
<title>Node27&#45;&gt;Node29</title>
<path fill="none" stroke="midnightblue" d="M513.33,-469.14C519.6,-466.33 525.61,-462.98 531,-459 554.2,-441.87 543.93,-422.31 567,-405 569.47,-403.15 572.07,-401.43 574.78,-399.84"/>
<polygon fill="midnightblue" stroke="midnightblue" points="576.47,-402.91 583.71,-395.18 573.23,-396.7 576.47,-402.91"/>
</g>
<!-- Node36&#45;&gt;Node3 -->
<g id="edge53" class="edge">
<title>Node36&#45;&gt;Node3</title>
<path fill="none" stroke="midnightblue" d="M508.69,-533.25C517.03,-536.3 524.82,-540.71 531,-547 586.32,-603.35 512.02,-664.31 567,-721 568.26,-722.3 569.58,-723.51 570.97,-724.65"/>
<polygon fill="midnightblue" stroke="midnightblue" points="569.27,-727.71 579.53,-730.35 573.15,-721.89 569.27,-727.71"/>
</g>
<!-- Node36&#45;&gt;Node15 -->
<g id="edge52" class="edge">
<title>Node36&#45;&gt;Node15</title>
<path fill="none" stroke="midnightblue" d="M508.76,-519.33C527.75,-516.67 548.9,-513.7 568.82,-510.9"/>
<polygon fill="midnightblue" stroke="midnightblue" points="569.37,-514.36 578.79,-509.5 568.4,-507.43 569.37,-514.36"/>
</g>
<!-- Node36&#45;&gt;Node20 -->
<g id="edge54" class="edge">
<title>Node36&#45;&gt;Node20</title>
<path fill="none" stroke="midnightblue" d="M501.44,-518.49C511.52,-515.77 521.77,-512.33 531,-508 549.11,-499.51 548.9,-489.5 567,-481 572.27,-478.53 577.89,-476.36 583.61,-474.46"/>
<polygon fill="midnightblue" stroke="midnightblue" points="584.74,-477.77 593.29,-471.52 582.71,-471.08 584.74,-477.77"/>
</g>
<!-- Node37&#45;&gt;Node3 -->
<g id="edge56" class="edge">
<title>Node37&#45;&gt;Node3</title>
<path fill="none" stroke="midnightblue" d="M325.45,-707.05C393.57,-714.04 491.97,-724.14 561.85,-731.31"/>
<polygon fill="midnightblue" stroke="midnightblue" points="561.64,-734.81 571.94,-732.35 562.35,-727.85 561.64,-734.81"/>
</g>
</g>
</svg>
        <g id="navigator" transform="translate(0 0)" fill="#404254">
                <rect fill="#f2f5e9" fill-opacity="0.5" stroke="#606060" stroke-width=".5" x="0" y="0" width="60" height="60"/>
                <use id="zoomplus" xlink:href="#zoomPlus" x="17" y="9" onmousedown="handleZoom(evt,'in')"/>
                <use id="zoomminus" xlink:href="#zoomMin" x="42" y="9" onmousedown="handleZoom(evt,'out')"/>
                <use id="reset" xlink:href="#resetDef" x="30" y="36" onmousedown="handleReset()"/>
                <g id="arrowUp" xlink:href="#dirArrow" transform="translate(30 24)" onmousedown="handlePan(0,-1)">
                  <use xlink:href="#rim" fill="#404040">
                        <set attributeName="fill" to="#808080" begin="arrowUp.mouseover" end="arrowUp.mouseout"/>
                  </use>
                  <path fill="none" stroke="white" stroke-width="1.5" d="M0,-3.0v7 M-2.5,-0.5L0,-3.0L2.5,-0.5"/>
                </g>
                <g id="arrowRight" xlink:href="#dirArrow" transform="rotate(90) translate(36 -43)" onmousedown="handlePan(1,0)">
                  <use xlink:href="#rim" fill="#404040">
                        <set attributeName="fill" to="#808080" begin="arrowRight.mouseover" end="arrowRight.mouseout"/>
                  </use>
                  <path fill="none" stroke="white" stroke-width="1.5" d="M0,-3.0v7 M-2.5,-0.5L0,-3.0L2.5,-0.5"/>
                </g>
                <g id="arrowDown" xlink:href="#dirArrow" transform="rotate(180) translate(-30 -48)" onmousedown="handlePan(0,1)">
                  <use xlink:href="#rim" fill="#404040">
                        <set attributeName="fill" to="#808080" begin="arrowDown.mouseover" end="arrowDown.mouseout"/>
                  </use>
                  <path fill="none" stroke="white" stroke-width="1.5" d="M0,-3.0v7 M-2.5,-0.5L0,-3.0L2.5,-0.5"/>
                </g>
                <g id="arrowLeft" xlink:href="#dirArrow" transform="rotate(270) translate(-36 17)" onmousedown="handlePan(-1,0)">
                  <use xlink:href="#rim" fill="#404040">
                        <set attributeName="fill" to="#808080" begin="arrowLeft.mouseover" end="arrowLeft.mouseout"/>
                  </use>
                  <path fill="none" stroke="white" stroke-width="1.5" d="M0,-3.0v7 M-2.5,-0.5L0,-3.0L2.5,-0.5"/>
                </g>
        </g>
        <svg viewBox="0 0 15 15" width="100%" height="30px" preserveAspectRatio="xMaxYMin meet">
         <g id="arrow_out" transform="scale(0.3 0.3)">
          <a xlink:href="classConfigParser_a787a614f759e68dcd7ae0595df9b73e1_cgraph_org.svg" target="_base">
           <rect id="button" ry="5" rx="5" y="6" x="6" height="38" width="38"
                fill="#f2f5e9" fill-opacity="0.5" stroke="#606060" stroke-width="1.0"/>
           <path id="arrow"
             d="M 11.500037,31.436501 C 11.940474,20.09759 22.043105,11.32322 32.158766,21.979434 L 37.068811,17.246167 C 37.068811,17.246167 37.088388,32 37.088388,32 L 22.160133,31.978069 C 22.160133,31.978069 26.997745,27.140456 26.997745,27.140456 C 18.528582,18.264221 13.291696,25.230495 11.500037,31.436501 z"
             style="fill:#404040;"/>
          </a>
         </g>
        </svg>
</svg>
