<?xml version="1.0" encoding="UTF-8" standalone="no"?>
<!DOCTYPE svg PUBLIC "-//W3C//DTD SVG 1.1//EN"
 "http://www.w3.org/Graphics/SVG/1.1/DTD/svg11.dtd">
<!-- Generated by graphviz version 2.43.0 (0)
 -->
<!-- Title: ConfigParser::parseRoot Pages: 1 -->
<svg width="320pt" height="104pt"
 viewBox="0.00 0.00 320.00 104.00" xmlns="http://www.w3.org/2000/svg" xmlns:xlink="http://www.w3.org/1999/xlink">
<g id="graph0" class="graph" transform="scale(1 1) rotate(0) translate(4 100)">
<title>ConfigParser::parseRoot</title>
<polygon fill="white" stroke="transparent" points="-4,4 -4,-100 316,-100 316,4 -4,4"/>
<!-- Node1 -->
<g id="node1" class="node">
<title>Node1</title>
<g id="a_node1"><a xlink:title=" ">
<polygon fill="#bfbfbf" stroke="black" points="0,-38.5 0,-57.5 125,-57.5 125,-38.5 0,-38.5"/>
<text text-anchor="middle" x="62.5" y="-45.5" font-family="Helvetica,sans-Serif" font-size="10.00">ConfigParser::parseRoot</text>
</a>
</g>
</g>
<!-- Node2 -->
<g id="node2" class="node">
<title>Node2</title>
<g id="a_node2"><a xlink:href="classConfigParser.html#a84e1b9e32f9be2aee1bff8a78c8c0f67" target="_top" xlink:title="Returns the directory part of the config file path.">
<polygon fill="white" stroke="black" points="165,-76.5 165,-95.5 308,-95.5 308,-76.5 165,-76.5"/>
<text text-anchor="middle" x="236.5" y="-83.5" font-family="Helvetica,sans-Serif" font-size="10.00">ConfigParser::getConfFileDir</text>
</a>
</g>
</g>
<!-- Node1&#45;&gt;Node2 -->
<g id="edge1" class="edge">
<title>Node1&#45;&gt;Node2</title>
<path fill="none" stroke="midnightblue" d="M106.9,-57.59C129.91,-62.67 158.35,-68.96 182.63,-74.32"/>
<polygon fill="midnightblue" stroke="midnightblue" points="181.89,-77.74 192.41,-76.48 183.4,-70.91 181.89,-77.74"/>
</g>
<!-- Node3 -->
<g id="node3" class="node">
<title>Node3</title>
<g id="a_node3"><a xlink:href="namespaceconfig_1_1utils.html#a4c504c996325f8d62e08d878b037e975" target="_top" xlink:title="Removes the trailing semicolon from a string if present.">
<polygon fill="white" stroke="black" points="161,-38.5 161,-57.5 312,-57.5 312,-38.5 161,-38.5"/>
<text text-anchor="middle" x="236.5" y="-45.5" font-family="Helvetica,sans-Serif" font-size="10.00">config::utils::removeSemicolon</text>
</a>
</g>
</g>
<!-- Node1&#45;&gt;Node3 -->
<g id="edge2" class="edge">
<title>Node1&#45;&gt;Node3</title>
<path fill="none" stroke="midnightblue" d="M125.11,-48C133.42,-48 142.07,-48 150.7,-48"/>
<polygon fill="midnightblue" stroke="midnightblue" points="150.8,-51.5 160.8,-48 150.8,-44.5 150.8,-51.5"/>
</g>
<!-- Node4 -->
<g id="node4" class="node">
<title>Node4</title>
<g id="a_node4"><a xlink:href="namespaceconfig_1_1utils.html#ab47e6d08957f3aa61a7e2a31c5e8d77f" target="_top" xlink:title="Converts a possibly relative path to absolute.">
<polygon fill="white" stroke="black" points="166.5,-0.5 166.5,-19.5 306.5,-19.5 306.5,-0.5 166.5,-0.5"/>
<text text-anchor="middle" x="236.5" y="-7.5" font-family="Helvetica,sans-Serif" font-size="10.00">config::utils::toAbsolutePath</text>
</a>
</g>
</g>
<!-- Node1&#45;&gt;Node4 -->
<g id="edge3" class="edge">
<title>Node1&#45;&gt;Node4</title>
<path fill="none" stroke="midnightblue" d="M106.9,-38.41C129.91,-33.33 158.35,-27.04 182.63,-21.68"/>
<polygon fill="midnightblue" stroke="midnightblue" points="183.4,-25.09 192.41,-19.52 181.89,-18.26 183.4,-25.09"/>
</g>
</g>
</svg>
