<?xml version="1.0" encoding="UTF-8" standalone="no"?>
<!DOCTYPE svg PUBLIC "-//W3C//DTD SVG 1.1//EN"
 "http://www.w3.org/Graphics/SVG/1.1/DTD/svg11.dtd">
<!-- Generated by graphviz version 2.43.0 (0)
 -->
<!-- Title: HttpRequest::addBody Pages: 1 -->
<!--zoomable 83 -->
<svg id="main" version="1.1" xmlns="http://www.w3.org/2000/svg" xmlns:xlink="http://www.w3.org/1999/xlink" xml:space="preserve" onload="init(evt)">
<style type="text/css"><![CDATA[
.edge:hover path { stroke: red; }
.edge:hover polygon { stroke: red; fill: red; }
]]></style>
<script type="text/javascript"><![CDATA[
var edges = document.getElementsByTagName('g');
if (edges && edges.length) {
  for (var i=0;i<edges.length;i++) {
    if (edges[i].id.substr(0,4)=='edge') {
      edges[i].setAttribute('class','edge');
    }
  }
}
]]></script>
        <defs>
                <circle id="rim" cx="0" cy="0" r="7"/>
                <circle id="rim2" cx="0" cy="0" r="3.5"/>
                <g id="zoomPlus">
                        <use xlink:href="#rim" fill="#404040">
                                <set attributeName="fill" to="#808080" begin="zoomplus.mouseover" end="zoomplus.mouseout"/>
                        </use>
                        <path d="M-4,0h8M0,-4v8" fill="none" stroke="white" stroke-width="1.5" pointer-events="none"/>
                </g>
                <g id="zoomMin">
                        <use xlink:href="#rim" fill="#404040">
                                <set attributeName="fill" to="#808080" begin="zoomminus.mouseover" end="zoomminus.mouseout"/>
                        </use>
                        <path d="M-4,0h8" fill="none" stroke="white" stroke-width="1.5" pointer-events="none"/>
                </g>
                <g id="dirArrow">
                        <path fill="none" stroke="white" stroke-width="1.5" d="M0,-3.0v7 M-2.5,-0.5L0,-3.0L2.5,-0.5"/>
                </g>
               <g id="resetDef">
                       <use xlink:href="#rim2" fill="#404040">
                               <set attributeName="fill" to="#808080" begin="reset.mouseover" end="reset.mouseout"/>
                       </use>
               </g>
        </defs>

<script type="text/javascript">
var viewWidth = 1449;
var viewHeight = 83;
var sectionId = 'dynsection-2';
</script>
<script xlink:href="svgpan.js"/>
<svg id="graph" class="graph">
<g id="viewport">
<title>HttpRequest::addBody</title>
<polygon fill="white" stroke="transparent" points="-4,4 -4,-79 1445,-79 1445,4 -4,4"/>
<!-- Node1 -->
<g id="node1" class="node">
<title>Node1</title>
<g id="a_node1"><a xlink:title=" ">
<polygon fill="#bfbfbf" stroke="black" points="1325,-28 1325,-47 1441,-47 1441,-28 1325,-28"/>
<text text-anchor="middle" x="1383" y="-35" font-family="Helvetica,sans-Serif" font-size="10.00">HttpRequest::addBody</text>
</a>
</g>
</g>
<!-- Node2 -->
<g id="node2" class="node">
<title>Node2</title>
<g id="a_node2"><a xlink:href="classHttpParser.html#af765dc1e57edfa64d33b1e851504a393" target="_top" xlink:title=" ">
<polygon fill="white" stroke="black" points="1141,-44.5 1141,-74.5 1289,-74.5 1289,-44.5 1141,-44.5"/>
<text text-anchor="start" x="1149" y="-62.5" font-family="Helvetica,sans-Serif" font-size="10.00">HttpParser::handleChunkData</text>
<text text-anchor="middle" x="1215" y="-51.5" font-family="Helvetica,sans-Serif" font-size="10.00">State</text>
</a>
</g>
</g>
<!-- Node1&#45;&gt;Node2 -->
<g id="edge1" class="edge">
<title>Node1&#45;&gt;Node2</title>
<path fill="none" stroke="midnightblue" d="M1314.71,-46.42C1306.26,-47.54 1297.59,-48.69 1289.06,-49.82"/>
<polygon fill="midnightblue" stroke="midnightblue" points="1315.42,-49.85 1324.87,-45.07 1314.5,-42.92 1315.42,-49.85"/>
</g>
<!-- Node11 -->
<g id="node11" class="node">
<title>Node11</title>
<g id="a_node11"><a xlink:href="classHttpParser.html#a6ef6b2216ab8d46870530e801719d92d" target="_top" xlink:title=" ">
<polygon fill="white" stroke="black" points="957.5,-0.5 957.5,-30.5 1097.5,-30.5 1097.5,-0.5 957.5,-0.5"/>
<text text-anchor="start" x="965.5" y="-18.5" font-family="Helvetica,sans-Serif" font-size="10.00">HttpParser::parseBodyFixed</text>
<text text-anchor="middle" x="1027.5" y="-7.5" font-family="Helvetica,sans-Serif" font-size="10.00">Length</text>
</a>
</g>
</g>
<!-- Node1&#45;&gt;Node11 -->
<g id="edge11" class="edge">
<title>Node1&#45;&gt;Node11</title>
<path fill="none" stroke="midnightblue" d="M1314.71,-33.31C1252.53,-29.44 1160.55,-23.72 1097.75,-19.81"/>
<polygon fill="midnightblue" stroke="midnightblue" points="1314.61,-36.81 1324.81,-33.94 1315.05,-29.83 1314.61,-36.81"/>
</g>
<!-- Node3 -->
<g id="node3" class="node">
<title>Node3</title>
<g id="a_node3"><a xlink:href="classHttpParser.html#a317def360bd0e77edbcb6673e0575d04" target="_top" xlink:title=" ">
<polygon fill="white" stroke="black" points="950,-50 950,-69 1105,-69 1105,-50 950,-50"/>
<text text-anchor="middle" x="1027.5" y="-57" font-family="Helvetica,sans-Serif" font-size="10.00">HttpParser::parseBodyChunked</text>
</a>
</g>
</g>
<!-- Node2&#45;&gt;Node3 -->
<g id="edge2" class="edge">
<title>Node2&#45;&gt;Node3</title>
<path fill="none" stroke="midnightblue" d="M1130.94,-59.5C1122.35,-59.5 1113.66,-59.5 1105.14,-59.5"/>
<polygon fill="midnightblue" stroke="midnightblue" points="1130.95,-63 1140.95,-59.5 1130.95,-56 1130.95,-63"/>
</g>
<!-- Node4 -->
<g id="node4" class="node">
<title>Node4</title>
<g id="a_node4"><a xlink:href="classHttpParser.html#a72e22a873ca7e20a8dbbd63a43b045f9" target="_top" xlink:title=" ">
<polygon fill="white" stroke="black" points="798,-28 798,-47 914,-47 914,-28 798,-28"/>
<text text-anchor="middle" x="856" y="-35" font-family="Helvetica,sans-Serif" font-size="10.00">HttpParser::parseBody</text>
</a>
</g>
</g>
<!-- Node3&#45;&gt;Node4 -->
<g id="edge3" class="edge">
<title>Node3&#45;&gt;Node4</title>
<path fill="none" stroke="midnightblue" d="M942.99,-48.66C933.21,-47.39 923.42,-46.12 914.12,-44.91"/>
<polygon fill="midnightblue" stroke="midnightblue" points="942.77,-52.16 953.14,-49.98 943.67,-45.22 942.77,-52.16"/>
</g>
<!-- Node5 -->
<g id="node5" class="node">
<title>Node5</title>
<g id="a_node5"><a xlink:href="classHttpParser.html#ada29088006c606896d2d46e48034f420" target="_top" xlink:title=" ">
<polygon fill="white" stroke="black" points="652,-28 652,-47 762,-47 762,-28 652,-28"/>
<text text-anchor="middle" x="707" y="-35" font-family="Helvetica,sans-Serif" font-size="10.00">HttpParser::consume</text>
</a>
</g>
</g>
<!-- Node4&#45;&gt;Node5 -->
<g id="edge4" class="edge">
<title>Node4&#45;&gt;Node5</title>
<path fill="none" stroke="midnightblue" d="M787.57,-37.5C779.15,-37.5 770.63,-37.5 762.45,-37.5"/>
<polygon fill="midnightblue" stroke="midnightblue" points="787.75,-41 797.75,-37.5 787.75,-34 787.75,-41"/>
</g>
<!-- Node6 -->
<g id="node6" class="node">
<title>Node6</title>
<g id="a_node6"><a xlink:href="classClient.html#ac95fe5b24fe5275bd2271bd1ac37596d" target="_top" xlink:title=" ">
<polygon fill="white" stroke="black" points="336,-47 336,-66 436,-66 436,-47 336,-47"/>
<text text-anchor="middle" x="386" y="-54" font-family="Helvetica,sans-Serif" font-size="10.00">Client::handleRead</text>
</a>
</g>
</g>
<!-- Node5&#45;&gt;Node6 -->
<g id="edge5" class="edge">
<title>Node5&#45;&gt;Node6</title>
<path fill="none" stroke="midnightblue" d="M641.65,-41.33C580.96,-44.95 491.28,-50.29 436.13,-53.57"/>
<polygon fill="midnightblue" stroke="midnightblue" points="642.11,-44.81 651.89,-40.72 641.7,-37.82 642.11,-44.81"/>
</g>
<!-- Node9 -->
<g id="node9" class="node">
<title>Node9</title>
<g id="a_node9"><a xlink:href="classClient.html#a950fd2ab8ac20c9be4c5e722344d6fe2" target="_top" xlink:title=" ">
<polygon fill="white" stroke="black" points="491,-9 491,-28 616,-28 616,-9 491,-9"/>
<text text-anchor="middle" x="553.5" y="-16" font-family="Helvetica,sans-Serif" font-size="10.00">Client::processRequests</text>
</a>
</g>
</g>
<!-- Node5&#45;&gt;Node9 -->
<g id="edge8" class="edge">
<title>Node5&#45;&gt;Node9</title>
<path fill="none" stroke="midnightblue" d="M641.57,-29.42C633.13,-28.36 624.5,-27.28 616.11,-26.23"/>
<polygon fill="midnightblue" stroke="midnightblue" points="641.38,-32.92 651.73,-30.69 642.25,-25.98 641.38,-32.92"/>
</g>
<!-- Node7 -->
<g id="node7" class="node">
<title>Node7</title>
<g id="a_node7"><a xlink:href="classServerManager.html#a9f3ca46da9df004286f90902b8daf29d" target="_top" xlink:title=" ">
<polygon fill="white" stroke="black" points="138,-41.5 138,-71.5 281,-71.5 281,-41.5 138,-41.5"/>
<text text-anchor="start" x="146" y="-59.5" font-family="Helvetica,sans-Serif" font-size="10.00">ServerManager::handleClient</text>
<text text-anchor="middle" x="209.5" y="-48.5" font-family="Helvetica,sans-Serif" font-size="10.00">Event</text>
</a>
</g>
</g>
<!-- Node6&#45;&gt;Node7 -->
<g id="edge6" class="edge">
<title>Node6&#45;&gt;Node7</title>
<path fill="none" stroke="midnightblue" d="M325.69,-56.5C311.33,-56.5 295.84,-56.5 281.02,-56.5"/>
<polygon fill="midnightblue" stroke="midnightblue" points="325.93,-60 335.93,-56.5 325.93,-53 325.93,-60"/>
</g>
<!-- Node8 -->
<g id="node8" class="node">
<title>Node8</title>
<g id="a_node8"><a xlink:href="classServerManager.html#aecc313c9b6afcab92c22269b3333c721" target="_top" xlink:title=" ">
<polygon fill="white" stroke="black" points="0,-47 0,-66 102,-66 102,-47 0,-47"/>
<text text-anchor="middle" x="51" y="-54" font-family="Helvetica,sans-Serif" font-size="10.00">ServerManager::run</text>
</a>
</g>
</g>
<!-- Node7&#45;&gt;Node8 -->
<g id="edge7" class="edge">
<title>Node7&#45;&gt;Node8</title>
<path fill="none" stroke="midnightblue" d="M127.45,-56.5C118.82,-56.5 110.23,-56.5 102.11,-56.5"/>
<polygon fill="midnightblue" stroke="midnightblue" points="127.58,-60 137.58,-56.5 127.58,-53 127.58,-60"/>
</g>
<!-- Node9&#45;&gt;Node6 -->
<g id="edge10" class="edge">
<title>Node9&#45;&gt;Node6</title>
<path fill="none" stroke="midnightblue" d="M500.69,-30.4C477.43,-35.74 450.35,-41.95 428.46,-46.98"/>
<polygon fill="midnightblue" stroke="midnightblue" points="501.77,-33.74 510.74,-28.09 500.21,-26.92 501.77,-33.74"/>
</g>
<!-- Node10 -->
<g id="node10" class="node">
<title>Node10</title>
<g id="a_node10"><a xlink:href="classClient.html#a09d6029b60ae8c9773362968e72f2e54" target="_top" xlink:title=" ">
<polygon fill="white" stroke="black" points="317,-9 317,-28 455,-28 455,-9 317,-9"/>
<text text-anchor="middle" x="386" y="-16" font-family="Helvetica,sans-Serif" font-size="10.00">Client::finalizeCgiResponse</text>
</a>
</g>
</g>
<!-- Node9&#45;&gt;Node10 -->
<g id="edge9" class="edge">
<title>Node9&#45;&gt;Node10</title>
<path fill="none" stroke="midnightblue" d="M480.63,-18.5C472.14,-18.5 463.5,-18.5 455.07,-18.5"/>
<polygon fill="midnightblue" stroke="midnightblue" points="480.87,-22 490.87,-18.5 480.87,-15 480.87,-22"/>
</g>
<!-- Node11&#45;&gt;Node4 -->
<g id="edge12" class="edge">
<title>Node11&#45;&gt;Node4</title>
<path fill="none" stroke="midnightblue" d="M946.96,-25.82C935.9,-27.26 924.72,-28.71 914.17,-30.08"/>
<polygon fill="midnightblue" stroke="midnightblue" points="947.6,-29.27 957.07,-24.51 946.7,-22.33 947.6,-29.27"/>
</g>
</g>
</svg>
        <g id="navigator" transform="translate(0 0)" fill="#404254">
                <rect fill="#f2f5e9" fill-opacity="0.5" stroke="#606060" stroke-width=".5" x="0" y="0" width="60" height="60"/>
                <use id="zoomplus" xlink:href="#zoomPlus" x="17" y="9" onmousedown="handleZoom(evt,'in')"/>
                <use id="zoomminus" xlink:href="#zoomMin" x="42" y="9" onmousedown="handleZoom(evt,'out')"/>
                <use id="reset" xlink:href="#resetDef" x="30" y="36" onmousedown="handleReset()"/>
                <g id="arrowUp" xlink:href="#dirArrow" transform="translate(30 24)" onmousedown="handlePan(0,-1)">
                  <use xlink:href="#rim" fill="#404040">
                        <set attributeName="fill" to="#808080" begin="arrowUp.mouseover" end="arrowUp.mouseout"/>
                  </use>
                  <path fill="none" stroke="white" stroke-width="1.5" d="M0,-3.0v7 M-2.5,-0.5L0,-3.0L2.5,-0.5"/>
                </g>
                <g id="arrowRight" xlink:href="#dirArrow" transform="rotate(90) translate(36 -43)" onmousedown="handlePan(1,0)">
                  <use xlink:href="#rim" fill="#404040">
                        <set attributeName="fill" to="#808080" begin="arrowRight.mouseover" end="arrowRight.mouseout"/>
                  </use>
                  <path fill="none" stroke="white" stroke-width="1.5" d="M0,-3.0v7 M-2.5,-0.5L0,-3.0L2.5,-0.5"/>
                </g>
                <g id="arrowDown" xlink:href="#dirArrow" transform="rotate(180) translate(-30 -48)" onmousedown="handlePan(0,1)">
                  <use xlink:href="#rim" fill="#404040">
                        <set attributeName="fill" to="#808080" begin="arrowDown.mouseover" end="arrowDown.mouseout"/>
                  </use>
                  <path fill="none" stroke="white" stroke-width="1.5" d="M0,-3.0v7 M-2.5,-0.5L0,-3.0L2.5,-0.5"/>
                </g>
                <g id="arrowLeft" xlink:href="#dirArrow" transform="rotate(270) translate(-36 17)" onmousedown="handlePan(-1,0)">
                  <use xlink:href="#rim" fill="#404040">
                        <set attributeName="fill" to="#808080" begin="arrowLeft.mouseover" end="arrowLeft.mouseout"/>
                  </use>
                  <path fill="none" stroke="white" stroke-width="1.5" d="M0,-3.0v7 M-2.5,-0.5L0,-3.0L2.5,-0.5"/>
                </g>
        </g>
        <svg viewBox="0 0 15 15" width="100%" height="30px" preserveAspectRatio="xMaxYMin meet">
         <g id="arrow_out" transform="scale(0.3 0.3)">
          <a xlink:href="classHttpRequest_ae5ee7fd2b11f54656722b0a6e32a5ad0_icgraph_org.svg" target="_base">
           <rect id="button" ry="5" rx="5" y="6" x="6" height="38" width="38"
                fill="#f2f5e9" fill-opacity="0.5" stroke="#606060" stroke-width="1.0"/>
           <path id="arrow"
             d="M 11.500037,31.436501 C 11.940474,20.09759 22.043105,11.32322 32.158766,21.979434 L 37.068811,17.246167 C 37.068811,17.246167 37.088388,32 37.088388,32 L 22.160133,31.978069 C 22.160133,31.978069 26.997745,27.140456 26.997745,27.140456 C 18.528582,18.264221 13.291696,25.230495 11.500037,31.436501 z"
             style="fill:#404040;"/>
          </a>
         </g>
        </svg>
</svg>
