<?xml version="1.0" encoding="UTF-8" standalone="no"?>
<!DOCTYPE svg PUBLIC "-//W3C//DTD SVG 1.1//EN"
 "http://www.w3.org/Graphics/SVG/1.1/DTD/svg11.dtd">
<!-- Generated by graphviz version 2.43.0 (0)
 -->
<!-- Title: HttpRequest::getVersion Pages: 1 -->
<!--zoomable 546 -->
<svg id="main" version="1.1" xmlns="http://www.w3.org/2000/svg" xmlns:xlink="http://www.w3.org/1999/xlink" xml:space="preserve" onload="init(evt)">
<style type="text/css"><![CDATA[
.edge:hover path { stroke: red; }
.edge:hover polygon { stroke: red; fill: red; }
]]></style>
<script type="text/javascript"><![CDATA[
var edges = document.getElementsByTagName('g');
if (edges && edges.length) {
  for (var i=0;i<edges.length;i++) {
    if (edges[i].id.substr(0,4)=='edge') {
      edges[i].setAttribute('class','edge');
    }
  }
}
]]></script>
        <defs>
                <circle id="rim" cx="0" cy="0" r="7"/>
                <circle id="rim2" cx="0" cy="0" r="3.5"/>
                <g id="zoomPlus">
                        <use xlink:href="#rim" fill="#404040">
                                <set attributeName="fill" to="#808080" begin="zoomplus.mouseover" end="zoomplus.mouseout"/>
                        </use>
                        <path d="M-4,0h8M0,-4v8" fill="none" stroke="white" stroke-width="1.5" pointer-events="none"/>
                </g>
                <g id="zoomMin">
                        <use xlink:href="#rim" fill="#404040">
                                <set attributeName="fill" to="#808080" begin="zoomminus.mouseover" end="zoomminus.mouseout"/>
                        </use>
                        <path d="M-4,0h8" fill="none" stroke="white" stroke-width="1.5" pointer-events="none"/>
                </g>
                <g id="dirArrow">
                        <path fill="none" stroke="white" stroke-width="1.5" d="M0,-3.0v7 M-2.5,-0.5L0,-3.0L2.5,-0.5"/>
                </g>
               <g id="resetDef">
                       <use xlink:href="#rim2" fill="#404040">
                               <set attributeName="fill" to="#808080" begin="reset.mouseover" end="reset.mouseout"/>
                       </use>
               </g>
        </defs>

<script type="text/javascript">
var viewWidth = 1971;
var viewHeight = 546;
var sectionId = 'dynsection-11';
</script>
<script xlink:href="svgpan.js"/>
<svg id="graph" class="graph">
<g id="viewport">
<title>HttpRequest::getVersion</title>
<polygon fill="white" stroke="transparent" points="-4,4 -4,-541.5 1967,-541.5 1967,4 -4,4"/>
<!-- Node1 -->
<g id="node1" class="node">
<title>Node1</title>
<g id="a_node1"><a xlink:title=" ">
<polygon fill="#bfbfbf" stroke="black" points="1838,-38.5 1838,-57.5 1963,-57.5 1963,-38.5 1838,-38.5"/>
<text text-anchor="middle" x="1900.5" y="-45.5" font-family="Helvetica,sans-Serif" font-size="10.00">HttpRequest::getVersion</text>
</a>
</g>
</g>
<!-- Node2 -->
<g id="node2" class="node">
<title>Node2</title>
<g id="a_node2"><a xlink:href="classClient.html#a2e0da898af07e89fcfd83fe5a3077256" target="_top" xlink:title=" ">
<polygon fill="white" stroke="black" points="1683,-38.5 1683,-57.5 1781,-57.5 1781,-38.5 1683,-38.5"/>
<text text-anchor="middle" x="1732" y="-45.5" font-family="Helvetica,sans-Serif" font-size="10.00">Client::executeCgi</text>
</a>
</g>
</g>
<!-- Node1&#45;&gt;Node2 -->
<g id="edge1" class="edge">
<title>Node1&#45;&gt;Node2</title>
<path fill="none" stroke="midnightblue" d="M1827.71,-48C1811.92,-48 1795.58,-48 1781.01,-48"/>
<polygon fill="midnightblue" stroke="midnightblue" points="1827.97,-51.5 1837.97,-48 1827.97,-44.5 1827.97,-51.5"/>
</g>
<!-- Node12 -->
<g id="node12" class="node">
<title>Node12</title>
<g id="a_node12"><a xlink:href="ResponseUtils_8cpp.html#ab7c2cb6fbf297c09ec402182b04584c6" target="_top" xlink:title=" ">
<polygon fill="white" stroke="black" points="1685.5,-120.5 1685.5,-139.5 1778.5,-139.5 1778.5,-120.5 1685.5,-120.5"/>
<text text-anchor="middle" x="1732" y="-127.5" font-family="Helvetica,sans-Serif" font-size="10.00">fillBaseResponse</text>
</a>
</g>
</g>
<!-- Node1&#45;&gt;Node12 -->
<g id="edge12" class="edge">
<title>Node1&#45;&gt;Node12</title>
<path fill="none" stroke="midnightblue" d="M1870.71,-62.18C1836.8,-78.88 1781.43,-106.15 1752.3,-120.49"/>
<polygon fill="midnightblue" stroke="midnightblue" points="1872.65,-65.13 1880.07,-57.57 1869.56,-58.85 1872.65,-65.13"/>
</g>
<!-- Node25 -->
<g id="node25" class="node">
<title>Node25</title>
<g id="a_node25"><a xlink:href="classHttpParser.html#af1b9bb0ac2ed3f90cbccba85c9e5130d" target="_top" xlink:title="Valida headers obligatorios y conflictos.">
<polygon fill="white" stroke="black" points="1662,-0.5 1662,-19.5 1802,-19.5 1802,-0.5 1662,-0.5"/>
<text text-anchor="middle" x="1732" y="-7.5" font-family="Helvetica,sans-Serif" font-size="10.00">HttpParser::validateHeaders</text>
</a>
</g>
</g>
<!-- Node1&#45;&gt;Node25 -->
<g id="edge40" class="edge">
<title>Node1&#45;&gt;Node25</title>
<path fill="none" stroke="midnightblue" d="M1847.69,-36.18C1824.22,-30.82 1796.83,-24.57 1774.71,-19.52"/>
<polygon fill="midnightblue" stroke="midnightblue" points="1846.96,-39.6 1857.49,-38.41 1848.51,-32.77 1846.96,-39.6"/>
</g>
<!-- Node3 -->
<g id="node3" class="node">
<title>Node3</title>
<g id="a_node3"><a xlink:href="classClient.html#a7ce261bf1858a7904f7bb9668188284b" target="_top" xlink:title=" ">
<polygon fill="white" stroke="black" points="1533.5,-38.5 1533.5,-57.5 1616.5,-57.5 1616.5,-38.5 1533.5,-38.5"/>
<text text-anchor="middle" x="1575" y="-45.5" font-family="Helvetica,sans-Serif" font-size="10.00">Client::startCgi</text>
</a>
</g>
</g>
<!-- Node2&#45;&gt;Node3 -->
<g id="edge2" class="edge">
<title>Node2&#45;&gt;Node3</title>
<path fill="none" stroke="midnightblue" d="M1672.63,-48C1653.96,-48 1633.71,-48 1616.6,-48"/>
<polygon fill="midnightblue" stroke="midnightblue" points="1672.81,-51.5 1682.81,-48 1672.81,-44.5 1672.81,-51.5"/>
</g>
<!-- Node4 -->
<g id="node4" class="node">
<title>Node4</title>
<g id="a_node4"><a xlink:href="classClient.html#ae523ed90bd32b88e539ebdf30746382b" target="_top" xlink:title=" ">
<polygon fill="white" stroke="black" points="1365.5,-38.5 1365.5,-57.5 1478.5,-57.5 1478.5,-38.5 1365.5,-38.5"/>
<text text-anchor="middle" x="1422" y="-45.5" font-family="Helvetica,sans-Serif" font-size="10.00">Client::dispatchAction</text>
</a>
</g>
</g>
<!-- Node3&#45;&gt;Node4 -->
<g id="edge3" class="edge">
<title>Node3&#45;&gt;Node4</title>
<path fill="none" stroke="midnightblue" d="M1523.01,-48C1508.74,-48 1493.16,-48 1478.64,-48"/>
<polygon fill="midnightblue" stroke="midnightblue" points="1523.14,-51.5 1533.14,-48 1523.14,-44.5 1523.14,-51.5"/>
</g>
<!-- Node5 -->
<g id="node5" class="node">
<title>Node5</title>
<g id="a_node5"><a xlink:href="classClient.html#a419f8f3253d3f71287044e3999a5d600" target="_top" xlink:title=" ">
<polygon fill="white" stroke="black" points="850,-174.5 850,-193.5 963,-193.5 963,-174.5 850,-174.5"/>
<text text-anchor="middle" x="906.5" y="-181.5" font-family="Helvetica,sans-Serif" font-size="10.00">Client::buildResponse</text>
</a>
</g>
</g>
<!-- Node4&#45;&gt;Node5 -->
<g id="edge4" class="edge">
<title>Node4&#45;&gt;Node5</title>
<path fill="none" stroke="midnightblue" d="M1354.88,-48.98C1304.38,-51.03 1233.42,-56.71 1173,-72 1075.03,-96.79 966.36,-152.19 924.88,-174.46"/>
<polygon fill="midnightblue" stroke="midnightblue" points="1355.15,-52.48 1365.02,-48.61 1354.9,-45.48 1355.15,-52.48"/>
</g>
<!-- Node6 -->
<g id="node6" class="node">
<title>Node6</title>
<g id="a_node6"><a xlink:href="classClient.html#abcf615f2514ae7e0266315693e73a31a" target="_top" xlink:title=" ">
<polygon fill="white" stroke="black" points="659,-212.5 659,-231.5 814,-231.5 814,-212.5 659,-212.5"/>
<text text-anchor="middle" x="736.5" y="-219.5" font-family="Helvetica,sans-Serif" font-size="10.00">Client::handleCompleteRequest</text>
</a>
</g>
</g>
<!-- Node5&#45;&gt;Node6 -->
<g id="edge5" class="edge">
<title>Node5&#45;&gt;Node6</title>
<path fill="none" stroke="midnightblue" d="M853.22,-195.82C829.54,-201.18 801.91,-207.43 779.59,-212.48"/>
<polygon fill="midnightblue" stroke="midnightblue" points="854.13,-199.21 863.11,-193.59 852.58,-192.38 854.13,-199.21"/>
</g>
<!-- Node7 -->
<g id="node7" class="node">
<title>Node7</title>
<g id="a_node7"><a xlink:href="classClient.html#ac95fe5b24fe5275bd2271bd1ac37596d" target="_top" xlink:title=" ">
<polygon fill="white" stroke="black" points="336,-231.5 336,-250.5 436,-250.5 436,-231.5 336,-231.5"/>
<text text-anchor="middle" x="386" y="-238.5" font-family="Helvetica,sans-Serif" font-size="10.00">Client::handleRead</text>
</a>
</g>
</g>
<!-- Node6&#45;&gt;Node7 -->
<g id="edge6" class="edge">
<title>Node6&#45;&gt;Node7</title>
<path fill="none" stroke="midnightblue" d="M679.69,-233.32C661.68,-236.47 641.57,-239.44 623,-241 558.69,-246.39 484.19,-245.15 436.37,-243.39"/>
<polygon fill="midnightblue" stroke="midnightblue" points="680.52,-236.73 689.74,-231.51 679.28,-229.84 680.52,-236.73"/>
</g>
<!-- Node10 -->
<g id="node10" class="node">
<title>Node10</title>
<g id="a_node10"><a xlink:href="classClient.html#a950fd2ab8ac20c9be4c5e722344d6fe2" target="_top" xlink:title=" ">
<polygon fill="white" stroke="black" points="494.5,-212.5 494.5,-231.5 619.5,-231.5 619.5,-212.5 494.5,-212.5"/>
<text text-anchor="middle" x="557" y="-219.5" font-family="Helvetica,sans-Serif" font-size="10.00">Client::processRequests</text>
</a>
</g>
</g>
<!-- Node6&#45;&gt;Node10 -->
<g id="edge9" class="edge">
<title>Node6&#45;&gt;Node10</title>
<path fill="none" stroke="midnightblue" d="M648.72,-222C638.89,-222 629.03,-222 619.62,-222"/>
<polygon fill="midnightblue" stroke="midnightblue" points="648.94,-225.5 658.94,-222 648.94,-218.5 648.94,-225.5"/>
</g>
<!-- Node8 -->
<g id="node8" class="node">
<title>Node8</title>
<g id="a_node8"><a xlink:href="classServerManager.html#a9f3ca46da9df004286f90902b8daf29d" target="_top" xlink:title=" ">
<polygon fill="white" stroke="black" points="138,-349 138,-379 281,-379 281,-349 138,-349"/>
<text text-anchor="start" x="146" y="-367" font-family="Helvetica,sans-Serif" font-size="10.00">ServerManager::handleClient</text>
<text text-anchor="middle" x="209.5" y="-356" font-family="Helvetica,sans-Serif" font-size="10.00">Event</text>
</a>
</g>
</g>
<!-- Node7&#45;&gt;Node8 -->
<g id="edge7" class="edge">
<title>Node7&#45;&gt;Node8</title>
<path fill="none" stroke="midnightblue" d="M363.04,-256.48C329.31,-280.26 265.17,-325.47 231.83,-348.97"/>
<polygon fill="midnightblue" stroke="midnightblue" points="365.15,-259.27 371.31,-250.65 361.12,-253.55 365.15,-259.27"/>
</g>
<!-- Node9 -->
<g id="node9" class="node">
<title>Node9</title>
<g id="a_node9"><a xlink:href="classServerManager.html#aecc313c9b6afcab92c22269b3333c721" target="_top" xlink:title=" ">
<polygon fill="white" stroke="black" points="0,-376.5 0,-395.5 102,-395.5 102,-376.5 0,-376.5"/>
<text text-anchor="middle" x="51" y="-383.5" font-family="Helvetica,sans-Serif" font-size="10.00">ServerManager::run</text>
</a>
</g>
</g>
<!-- Node8&#45;&gt;Node9 -->
<g id="edge8" class="edge">
<title>Node8&#45;&gt;Node9</title>
<path fill="none" stroke="midnightblue" d="M127.45,-375.39C118.82,-376.61 110.23,-377.81 102.11,-378.96"/>
<polygon fill="midnightblue" stroke="midnightblue" points="128.16,-378.83 137.58,-373.97 127.19,-371.9 128.16,-378.83"/>
</g>
<!-- Node10&#45;&gt;Node7 -->
<g id="edge11" class="edge">
<title>Node10&#45;&gt;Node7</title>
<path fill="none" stroke="midnightblue" d="M484.04,-230.09C467.84,-231.91 451.01,-233.8 436,-235.49"/>
<polygon fill="midnightblue" stroke="midnightblue" points="484.48,-233.56 494.03,-228.97 483.7,-226.61 484.48,-233.56"/>
</g>
<!-- Node11 -->
<g id="node11" class="node">
<title>Node11</title>
<g id="a_node11"><a xlink:href="classClient.html#a09d6029b60ae8c9773362968e72f2e54" target="_top" xlink:title=" ">
<polygon fill="white" stroke="black" points="317,-338.5 317,-357.5 455,-357.5 455,-338.5 317,-338.5"/>
<text text-anchor="middle" x="386" y="-345.5" font-family="Helvetica,sans-Serif" font-size="10.00">Client::finalizeCgiResponse</text>
</a>
</g>
</g>
<!-- Node10&#45;&gt;Node11 -->
<g id="edge10" class="edge">
<title>Node10&#45;&gt;Node11</title>
<path fill="none" stroke="midnightblue" d="M534.78,-237.82C499.23,-264.33 428.69,-316.92 399.79,-338.46"/>
<polygon fill="midnightblue" stroke="midnightblue" points="537.09,-240.46 543.02,-231.68 532.91,-234.85 537.09,-240.46"/>
</g>
<!-- Node13 -->
<g id="node13" class="node">
<title>Node13</title>
<g id="a_node13"><a xlink:href="ErrorUtils_8cpp.html#a470416220aa911b8f1274140a8322e7a" target="_top" xlink:title=" ">
<polygon fill="white" stroke="black" points="1524,-278.5 1524,-297.5 1626,-297.5 1626,-278.5 1524,-278.5"/>
<text text-anchor="middle" x="1575" y="-285.5" font-family="Helvetica,sans-Serif" font-size="10.00">buildErrorResponse</text>
</a>
</g>
</g>
<!-- Node12&#45;&gt;Node13 -->
<g id="edge13" class="edge">
<title>Node12&#45;&gt;Node13</title>
<path fill="none" stroke="midnightblue" d="M1714.29,-147.04C1681.89,-180.06 1611.46,-251.86 1585.69,-278.12"/>
<polygon fill="midnightblue" stroke="midnightblue" points="1716.8,-149.47 1721.3,-139.88 1711.8,-144.57 1716.8,-149.47"/>
</g>
<!-- Node16 -->
<g id="node16" class="node">
<title>Node16</title>
<g id="a_node16"><a xlink:href="classRequestProcessor.html#a3fa9c97a7d142a7b607002138de87140" target="_top" xlink:title=" ">
<polygon fill="white" stroke="black" points="999,-193.5 999,-212.5 1137,-212.5 1137,-193.5 999,-193.5"/>
<text text-anchor="middle" x="1068" y="-200.5" font-family="Helvetica,sans-Serif" font-size="10.00">RequestProcessor::process</text>
</a>
</g>
</g>
<!-- Node12&#45;&gt;Node16 -->
<g id="edge39" class="edge">
<title>Node12&#45;&gt;Node16</title>
<path fill="none" stroke="midnightblue" d="M1680.01,-118.44C1579.09,-98.04 1348.51,-63.91 1173,-132 1135.09,-146.71 1097.37,-177.52 1079.57,-193.28"/>
<polygon fill="midnightblue" stroke="midnightblue" points="1679.44,-121.89 1689.94,-120.48 1680.85,-115.04 1679.44,-121.89"/>
</g>
<!-- Node19 -->
<g id="node19" class="node">
<title>Node19</title>
<g id="a_node19"><a xlink:href="StaticPathHandler_8cpp.html#a28a771d93d3051098585ebc34ed29855" target="_top" xlink:title=" ">
<polygon fill="white" stroke="black" points="1379.5,-202.5 1379.5,-221.5 1464.5,-221.5 1464.5,-202.5 1379.5,-202.5"/>
<text text-anchor="middle" x="1422" y="-209.5" font-family="Helvetica,sans-Serif" font-size="10.00">handleDirectory</text>
</a>
</g>
</g>
<!-- Node12&#45;&gt;Node19 -->
<g id="edge37" class="edge">
<title>Node12&#45;&gt;Node19</title>
<path fill="none" stroke="midnightblue" d="M1685.21,-142.19C1623.45,-158.63 1514.78,-187.56 1458.71,-202.49"/>
<polygon fill="midnightblue" stroke="midnightblue" points="1686.3,-145.52 1695.07,-139.57 1684.5,-138.76 1686.3,-145.52"/>
</g>
<!-- Node21 -->
<g id="node21" class="node">
<title>Node21</title>
<g id="a_node21"><a xlink:href="classRequestProcessor.html#a606f9c02a3166ca58e6930f8d292d81c" target="_top" xlink:title=" ">
<polygon fill="white" stroke="black" points="1356,-115 1356,-145 1488,-145 1488,-115 1356,-115"/>
<text text-anchor="start" x="1364" y="-133" font-family="Helvetica,sans-Serif" font-size="10.00">RequestProcessor::handle</text>
<text text-anchor="middle" x="1422" y="-122" font-family="Helvetica,sans-Serif" font-size="10.00">LocationValidation</text>
</a>
</g>
</g>
<!-- Node12&#45;&gt;Node21 -->
<g id="edge38" class="edge">
<title>Node12&#45;&gt;Node21</title>
<path fill="none" stroke="midnightblue" d="M1675.06,-130C1622.41,-130 1543.58,-130 1488.13,-130"/>
<polygon fill="midnightblue" stroke="midnightblue" points="1675.22,-133.5 1685.22,-130 1675.22,-126.5 1675.22,-133.5"/>
</g>
<!-- Node13&#45;&gt;Node4 -->
<g id="edge15" class="edge">
<title>Node13&#45;&gt;Node4</title>
<path fill="none" stroke="midnightblue" d="M1567.63,-268.27C1555.72,-233.28 1527.65,-159.04 1488,-106 1473.24,-86.25 1450.93,-68.14 1436.66,-57.58"/>
<polygon fill="midnightblue" stroke="midnightblue" points="1564.45,-269.79 1570.92,-278.18 1571.09,-267.58 1564.45,-269.79"/>
</g>
<!-- Node13&#45;&gt;Node11 -->
<g id="edge16" class="edge">
<title>Node13&#45;&gt;Node11</title>
<path fill="none" stroke="midnightblue" d="M1569.2,-307.68C1559.84,-341.45 1535.78,-410.01 1488,-443 1399.12,-504.38 1355.51,-478 1247.5,-478 1247.5,-478 1247.5,-478 735.5,-478 597.63,-478 447.33,-387.58 401.23,-357.56"/>
<polygon fill="midnightblue" stroke="midnightblue" points="1572.67,-308.22 1571.82,-297.66 1565.9,-306.45 1572.67,-308.22"/>
</g>
<!-- Node14 -->
<g id="node14" class="node">
<title>Node14</title>
<g id="a_node14"><a xlink:href="classClient.html#a3b000abab7a3fe339f0f39ad5daca68f" target="_top" xlink:title=" ">
<polygon fill="white" stroke="black" points="1359.5,-316.5 1359.5,-335.5 1484.5,-335.5 1484.5,-316.5 1359.5,-316.5"/>
<text text-anchor="middle" x="1422" y="-323.5" font-family="Helvetica,sans-Serif" font-size="10.00">Client::checkCgiTimeout</text>
</a>
</g>
</g>
<!-- Node13&#45;&gt;Node14 -->
<g id="edge14" class="edge">
<title>Node13&#45;&gt;Node14</title>
<path fill="none" stroke="midnightblue" d="M1526.16,-300.04C1505.06,-305.35 1480.62,-311.5 1460.83,-316.48"/>
<polygon fill="midnightblue" stroke="midnightblue" points="1527.05,-303.42 1535.9,-297.59 1525.34,-296.64 1527.05,-303.42"/>
</g>
<!-- Node15 -->
<g id="node15" class="node">
<title>Node15</title>
<g id="a_node15"><a xlink:href="classRequestProcessor.html#a79915b1a2fda205b7d5a6c92e5e3fce8" target="_top" xlink:title=" ">
<polygon fill="white" stroke="black" points="1173,-373.5 1173,-392.5 1320,-392.5 1320,-373.5 1173,-373.5"/>
<text text-anchor="middle" x="1246.5" y="-380.5" font-family="Helvetica,sans-Serif" font-size="10.00">RequestProcessor::handleCgi</text>
</a>
</g>
</g>
<!-- Node13&#45;&gt;Node15 -->
<g id="edge17" class="edge">
<title>Node13&#45;&gt;Node15</title>
<path fill="none" stroke="midnightblue" d="M1568.16,-307.32C1557.74,-337.95 1532.72,-396.66 1488,-421 1412.81,-461.92 1306.09,-414.33 1264.77,-392.65"/>
<polygon fill="midnightblue" stroke="midnightblue" points="1571.51,-308.35 1571.25,-297.76 1564.85,-306.2 1571.51,-308.35"/>
</g>
<!-- Node13&#45;&gt;Node16 -->
<g id="edge36" class="edge">
<title>Node13&#45;&gt;Node16</title>
<path fill="none" stroke="midnightblue" d="M1563.9,-269.54C1550.17,-246.61 1523.23,-208.63 1488,-193 1354.64,-133.84 1173.16,-173.48 1100.74,-193.45"/>
<polygon fill="midnightblue" stroke="midnightblue" points="1560.94,-271.41 1568.96,-278.33 1567,-267.92 1560.94,-271.41"/>
</g>
<!-- Node17 -->
<g id="node17" class="node">
<title>Node17</title>
<g id="a_node17"><a xlink:href="classClient.html#a4104efd3f5f7e1c0f3e3302b46861624" target="_top" xlink:title=" ">
<polygon fill="white" stroke="black" points="1366.5,-507.5 1366.5,-526.5 1477.5,-526.5 1477.5,-507.5 1366.5,-507.5"/>
<text text-anchor="middle" x="1422" y="-514.5" font-family="Helvetica,sans-Serif" font-size="10.00">Client::handleCgiPipe</text>
</a>
</g>
</g>
<!-- Node13&#45;&gt;Node17 -->
<g id="edge21" class="edge">
<title>Node13&#45;&gt;Node17</title>
<path fill="none" stroke="midnightblue" d="M1570.97,-307.66C1563.8,-347.75 1542.14,-439.56 1488,-492 1480.97,-498.81 1471.88,-503.82 1462.73,-507.48"/>
<polygon fill="midnightblue" stroke="midnightblue" points="1574.46,-308.04 1572.66,-297.6 1567.55,-306.88 1574.46,-308.04"/>
</g>
<!-- Node13&#45;&gt;Node19 -->
<g id="edge24" class="edge">
<title>Node13&#45;&gt;Node19</title>
<path fill="none" stroke="midnightblue" d="M1551.52,-272.78C1534.54,-261.7 1510.42,-246.79 1488,-236 1476.73,-230.57 1463.89,-225.59 1452.61,-221.59"/>
<polygon fill="midnightblue" stroke="midnightblue" points="1549.89,-275.9 1560.16,-278.5 1553.75,-270.06 1549.89,-275.9"/>
</g>
<!-- Node20 -->
<g id="node20" class="node">
<title>Node20</title>
<g id="a_node20"><a xlink:href="StaticPathHandler_8cpp.html#a4e092999675b45373270f5408cbe64c7" target="_top" xlink:title=" ">
<polygon fill="white" stroke="black" points="1201,-278.5 1201,-297.5 1292,-297.5 1292,-278.5 1201,-278.5"/>
<text text-anchor="middle" x="1246.5" y="-285.5" font-family="Helvetica,sans-Serif" font-size="10.00">handleStaticPath</text>
</a>
</g>
</g>
<!-- Node13&#45;&gt;Node20 -->
<g id="edge33" class="edge">
<title>Node13&#45;&gt;Node20</title>
<path fill="none" stroke="midnightblue" d="M1513.32,-288C1449.14,-288 1349.39,-288 1292.08,-288"/>
<polygon fill="midnightblue" stroke="midnightblue" points="1513.7,-291.5 1523.7,-288 1513.7,-284.5 1513.7,-291.5"/>
</g>
<!-- Node13&#45;&gt;Node21 -->
<g id="edge27" class="edge">
<title>Node13&#45;&gt;Node21</title>
<path fill="none" stroke="midnightblue" d="M1565.46,-269.12C1552.3,-241.84 1524.68,-191.26 1488,-160 1481.09,-154.11 1472.84,-149.15 1464.57,-145.05"/>
<polygon fill="midnightblue" stroke="midnightblue" points="1562.37,-270.78 1569.79,-278.35 1568.71,-267.81 1562.37,-270.78"/>
</g>
<!-- Node22 -->
<g id="node22" class="node">
<title>Node22</title>
<g id="a_node22"><a xlink:href="classRequestProcessor.html#a10779d8453416feeda2174859c00d082" target="_top" xlink:title=" ">
<polygon fill="white" stroke="black" points="1180.5,-216 1180.5,-246 1312.5,-246 1312.5,-216 1180.5,-216"/>
<text text-anchor="start" x="1188.5" y="-234" font-family="Helvetica,sans-Serif" font-size="10.00">RequestProcessor::handle</text>
<text text-anchor="middle" x="1246.5" y="-223" font-family="Helvetica,sans-Serif" font-size="10.00">ParseOrMethodErrors</text>
</a>
</g>
</g>
<!-- Node13&#45;&gt;Node22 -->
<g id="edge29" class="edge">
<title>Node13&#45;&gt;Node22</title>
<path fill="none" stroke="midnightblue" d="M1513.75,-277.48C1456.74,-267.53 1371.4,-252.63 1312.79,-242.4"/>
<polygon fill="midnightblue" stroke="midnightblue" points="1513.25,-280.95 1523.7,-279.22 1514.45,-274.05 1513.25,-280.95"/>
</g>
<!-- Node23 -->
<g id="node23" class="node">
<title>Node23</title>
<g id="a_node23"><a xlink:href="StaticPathHandler_8cpp.html#a5af8659f0f83e8296b29264dd671af0d" target="_top" xlink:title=" ">
<polygon fill="white" stroke="black" points="1374.5,-392.5 1374.5,-411.5 1469.5,-411.5 1469.5,-392.5 1374.5,-392.5"/>
<text text-anchor="middle" x="1422" y="-399.5" font-family="Helvetica,sans-Serif" font-size="10.00">handleRegularFile</text>
</a>
</g>
</g>
<!-- Node13&#45;&gt;Node23 -->
<g id="edge31" class="edge">
<title>Node13&#45;&gt;Node23</title>
<path fill="none" stroke="midnightblue" d="M1562.22,-306.21C1547.41,-327.67 1520.02,-362.94 1488,-383 1481.82,-386.87 1474.83,-389.98 1467.77,-392.47"/>
<polygon fill="midnightblue" stroke="midnightblue" points="1565.27,-307.94 1567.94,-297.69 1559.46,-304.04 1565.27,-307.94"/>
</g>
<!-- Node24 -->
<g id="node24" class="node">
<title>Node24</title>
<g id="a_node24"><a xlink:href="StaticPathHandler_8cpp.html#a638cb25cad6c24877a0e75984110ea7a" target="_top" xlink:title=" ">
<polygon fill="white" stroke="black" points="1384,-354.5 1384,-373.5 1460,-373.5 1460,-354.5 1384,-354.5"/>
<text text-anchor="middle" x="1422" y="-361.5" font-family="Helvetica,sans-Serif" font-size="10.00">handleUpload</text>
</a>
</g>
</g>
<!-- Node13&#45;&gt;Node24 -->
<g id="edge34" class="edge">
<title>Node13&#45;&gt;Node24</title>
<path fill="none" stroke="midnightblue" d="M1554.18,-303.65C1537.38,-316.29 1512.21,-333.75 1488,-345 1479.26,-349.06 1469.45,-352.47 1460.15,-355.23"/>
<polygon fill="midnightblue" stroke="midnightblue" points="1556.35,-306.4 1562.16,-297.54 1552.09,-300.84 1556.35,-306.4"/>
</g>
<!-- Node15&#45;&gt;Node16 -->
<g id="edge18" class="edge">
<title>Node15&#45;&gt;Node16</title>
<path fill="none" stroke="midnightblue" d="M1228.62,-365.79C1192.17,-328.61 1107.09,-241.85 1078.54,-212.73"/>
<polygon fill="midnightblue" stroke="midnightblue" points="1226.51,-368.63 1236.01,-373.32 1231.51,-363.73 1226.51,-368.63"/>
</g>
<!-- Node16&#45;&gt;Node5 -->
<g id="edge19" class="edge">
<title>Node16&#45;&gt;Node5</title>
<path fill="none" stroke="midnightblue" d="M988.83,-193.69C980.23,-192.66 971.61,-191.64 963.36,-190.65"/>
<polygon fill="midnightblue" stroke="midnightblue" points="988.55,-197.18 998.89,-194.89 989.38,-190.23 988.55,-197.18"/>
</g>
<!-- Node16&#45;&gt;Node6 -->
<g id="edge20" class="edge">
<title>Node16&#45;&gt;Node6</title>
<path fill="none" stroke="midnightblue" d="M988.73,-207.51C935.9,-210.56 866.51,-214.56 814.04,-217.59"/>
<polygon fill="midnightblue" stroke="midnightblue" points="988.95,-211.01 998.73,-206.94 988.54,-204.02 988.95,-211.01"/>
</g>
<!-- Node18 -->
<g id="node18" class="node">
<title>Node18</title>
<g id="a_node18"><a xlink:href="classServerManager.html#a9c75ea0bd268425c187ef25770eccbe8" target="_top" xlink:title=" ">
<polygon fill="white" stroke="black" points="491,-507 491,-537 623,-537 623,-507 491,-507"/>
<text text-anchor="start" x="499" y="-525" font-family="Helvetica,sans-Serif" font-size="10.00">ServerManager::handleCgi</text>
<text text-anchor="middle" x="557" y="-514" font-family="Helvetica,sans-Serif" font-size="10.00">PipeEvent</text>
</a>
</g>
</g>
<!-- Node17&#45;&gt;Node18 -->
<g id="edge22" class="edge">
<title>Node17&#45;&gt;Node18</title>
<path fill="none" stroke="midnightblue" d="M1356.35,-517.59C1285.75,-518.18 1169.33,-519 1069,-519 1069,-519 1069,-519 905.5,-519 807.01,-519 692.82,-520.22 623.01,-521.1"/>
<polygon fill="midnightblue" stroke="midnightblue" points="1356.46,-521.09 1366.43,-517.5 1356.4,-514.09 1356.46,-521.09"/>
</g>
<!-- Node18&#45;&gt;Node9 -->
<g id="edge23" class="edge">
<title>Node18&#45;&gt;Node9</title>
<path fill="none" stroke="midnightblue" d="M490.34,-504.28C382.38,-475.15 171.02,-418.12 87.33,-395.53"/>
<polygon fill="midnightblue" stroke="midnightblue" points="489.57,-507.7 500.14,-506.93 491.39,-500.94 489.57,-507.7"/>
</g>
<!-- Node19&#45;&gt;Node20 -->
<g id="edge25" class="edge">
<title>Node19&#45;&gt;Node20</title>
<path fill="none" stroke="midnightblue" d="M1389.8,-225.67C1355.03,-240.9 1299.7,-265.13 1269.3,-278.45"/>
<polygon fill="midnightblue" stroke="midnightblue" points="1391.27,-228.84 1399.03,-221.63 1388.46,-222.43 1391.27,-228.84"/>
</g>
<!-- Node20&#45;&gt;Node16 -->
<g id="edge26" class="edge">
<title>Node20&#45;&gt;Node16</title>
<path fill="none" stroke="midnightblue" d="M1213.56,-274.36C1200.86,-268.82 1186.17,-262.26 1173,-256 1142.61,-241.57 1107.91,-223.57 1087.26,-212.69"/>
<polygon fill="midnightblue" stroke="midnightblue" points="1212.25,-277.61 1222.82,-278.37 1215.04,-271.19 1212.25,-277.61"/>
</g>
<!-- Node21&#45;&gt;Node16 -->
<g id="edge28" class="edge">
<title>Node21&#45;&gt;Node16</title>
<path fill="none" stroke="midnightblue" d="M1345.84,-133.77C1296.15,-137.56 1229.91,-145.09 1173,-160 1142,-168.12 1108.04,-183.48 1087.63,-193.48"/>
<polygon fill="midnightblue" stroke="midnightblue" points="1346.15,-137.26 1355.87,-133.04 1345.64,-130.28 1346.15,-137.26"/>
</g>
<!-- Node22&#45;&gt;Node16 -->
<g id="edge30" class="edge">
<title>Node22&#45;&gt;Node16</title>
<path fill="none" stroke="midnightblue" d="M1170.32,-219.07C1156.52,-216.88 1142.27,-214.62 1128.99,-212.52"/>
<polygon fill="midnightblue" stroke="midnightblue" points="1169.85,-222.54 1180.28,-220.65 1170.95,-215.63 1169.85,-222.54"/>
</g>
<!-- Node23&#45;&gt;Node20 -->
<g id="edge32" class="edge">
<title>Node23&#45;&gt;Node20</title>
<path fill="none" stroke="midnightblue" d="M1368.64,-388.91C1364.27,-387.15 1359.99,-385.19 1356,-383 1313.2,-359.52 1272.65,-316.69 1255.75,-297.61"/>
<polygon fill="midnightblue" stroke="midnightblue" points="1367.73,-392.3 1378.32,-392.42 1370.11,-385.72 1367.73,-392.3"/>
</g>
<!-- Node24&#45;&gt;Node20 -->
<g id="edge35" class="edge">
<title>Node24&#45;&gt;Node20</title>
<path fill="none" stroke="midnightblue" d="M1374.16,-351.53C1367.98,-349.53 1361.79,-347.34 1356,-345 1321.67,-331.13 1283.89,-309.78 1263.2,-297.53"/>
<polygon fill="midnightblue" stroke="midnightblue" points="1373.19,-354.89 1383.78,-354.5 1375.26,-348.21 1373.19,-354.89"/>
</g>
<!-- Node26 -->
<g id="node26" class="node">
<title>Node26</title>
<g id="a_node26"><a xlink:href="classHttpParser.html#a7c2c3b29f245b3421b9af34300d7806b" target="_top" xlink:title=" ">
<polygon fill="white" stroke="black" points="1002.5,-0.5 1002.5,-19.5 1133.5,-19.5 1133.5,-0.5 1002.5,-0.5"/>
<text text-anchor="middle" x="1068" y="-7.5" font-family="Helvetica,sans-Serif" font-size="10.00">HttpParser::parseHeaders</text>
</a>
</g>
</g>
<!-- Node25&#45;&gt;Node26 -->
<g id="edge41" class="edge">
<title>Node25&#45;&gt;Node26</title>
<path fill="none" stroke="midnightblue" d="M1651.64,-10C1519.25,-10 1255.84,-10 1133.82,-10"/>
<polygon fill="midnightblue" stroke="midnightblue" points="1651.72,-13.5 1661.72,-10 1651.72,-6.5 1651.72,-13.5"/>
</g>
<!-- Node27 -->
<g id="node27" class="node">
<title>Node27</title>
<g id="a_node27"><a xlink:href="classHttpParser.html#ada29088006c606896d2d46e48034f420" target="_top" xlink:title=" ">
<polygon fill="white" stroke="black" points="681.5,-174.5 681.5,-193.5 791.5,-193.5 791.5,-174.5 681.5,-174.5"/>
<text text-anchor="middle" x="736.5" y="-181.5" font-family="Helvetica,sans-Serif" font-size="10.00">HttpParser::consume</text>
</a>
</g>
</g>
<!-- Node26&#45;&gt;Node27 -->
<g id="edge42" class="edge">
<title>Node26&#45;&gt;Node27</title>
<path fill="none" stroke="midnightblue" d="M1026.38,-22.98C1017.25,-26.27 1007.69,-30.01 999,-34 900.76,-79.06 790.86,-149.03 752.03,-174.4"/>
<polygon fill="midnightblue" stroke="midnightblue" points="1027.78,-26.2 1036.07,-19.59 1025.47,-19.59 1027.78,-26.2"/>
</g>
<!-- Node27&#45;&gt;Node7 -->
<g id="edge43" class="edge">
<title>Node27&#45;&gt;Node7</title>
<path fill="none" stroke="midnightblue" d="M671.19,-184.23C621.47,-185.56 551.21,-189.92 491,-203 461.32,-209.45 428.66,-222.41 408.01,-231.39"/>
<polygon fill="midnightblue" stroke="midnightblue" points="671.55,-187.73 681.47,-184 671.39,-180.73 671.55,-187.73"/>
</g>
<!-- Node27&#45;&gt;Node10 -->
<g id="edge44" class="edge">
<title>Node27&#45;&gt;Node10</title>
<path fill="none" stroke="midnightblue" d="M680.6,-195.75C655.5,-201.13 626.16,-207.41 602.47,-212.48"/>
<polygon fill="midnightblue" stroke="midnightblue" points="681.66,-199.1 690.71,-193.59 680.2,-192.26 681.66,-199.1"/>
</g>
</g>
</svg>
        <g id="navigator" transform="translate(0 0)" fill="#404254">
                <rect fill="#f2f5e9" fill-opacity="0.5" stroke="#606060" stroke-width=".5" x="0" y="0" width="60" height="60"/>
                <use id="zoomplus" xlink:href="#zoomPlus" x="17" y="9" onmousedown="handleZoom(evt,'in')"/>
                <use id="zoomminus" xlink:href="#zoomMin" x="42" y="9" onmousedown="handleZoom(evt,'out')"/>
                <use id="reset" xlink:href="#resetDef" x="30" y="36" onmousedown="handleReset()"/>
                <g id="arrowUp" xlink:href="#dirArrow" transform="translate(30 24)" onmousedown="handlePan(0,-1)">
                  <use xlink:href="#rim" fill="#404040">
                        <set attributeName="fill" to="#808080" begin="arrowUp.mouseover" end="arrowUp.mouseout"/>
                  </use>
                  <path fill="none" stroke="white" stroke-width="1.5" d="M0,-3.0v7 M-2.5,-0.5L0,-3.0L2.5,-0.5"/>
                </g>
                <g id="arrowRight" xlink:href="#dirArrow" transform="rotate(90) translate(36 -43)" onmousedown="handlePan(1,0)">
                  <use xlink:href="#rim" fill="#404040">
                        <set attributeName="fill" to="#808080" begin="arrowRight.mouseover" end="arrowRight.mouseout"/>
                  </use>
                  <path fill="none" stroke="white" stroke-width="1.5" d="M0,-3.0v7 M-2.5,-0.5L0,-3.0L2.5,-0.5"/>
                </g>
                <g id="arrowDown" xlink:href="#dirArrow" transform="rotate(180) translate(-30 -48)" onmousedown="handlePan(0,1)">
                  <use xlink:href="#rim" fill="#404040">
                        <set attributeName="fill" to="#808080" begin="arrowDown.mouseover" end="arrowDown.mouseout"/>
                  </use>
                  <path fill="none" stroke="white" stroke-width="1.5" d="M0,-3.0v7 M-2.5,-0.5L0,-3.0L2.5,-0.5"/>
                </g>
                <g id="arrowLeft" xlink:href="#dirArrow" transform="rotate(270) translate(-36 17)" onmousedown="handlePan(-1,0)">
                  <use xlink:href="#rim" fill="#404040">
                        <set attributeName="fill" to="#808080" begin="arrowLeft.mouseover" end="arrowLeft.mouseout"/>
                  </use>
                  <path fill="none" stroke="white" stroke-width="1.5" d="M0,-3.0v7 M-2.5,-0.5L0,-3.0L2.5,-0.5"/>
                </g>
        </g>
        <svg viewBox="0 0 15 15" width="100%" height="30px" preserveAspectRatio="xMaxYMin meet">
         <g id="arrow_out" transform="scale(0.3 0.3)">
          <a xlink:href="classHttpRequest_ac2a5d18d42289a03b57215c98d8df41e_icgraph_org.svg" target="_base">
           <rect id="button" ry="5" rx="5" y="6" x="6" height="38" width="38"
                fill="#f2f5e9" fill-opacity="0.5" stroke="#606060" stroke-width="1.0"/>
           <path id="arrow"
             d="M 11.500037,31.436501 C 11.940474,20.09759 22.043105,11.32322 32.158766,21.979434 L 37.068811,17.246167 C 37.068811,17.246167 37.088388,32 37.088388,32 L 22.160133,31.978069 C 22.160133,31.978069 26.997745,27.140456 26.997745,27.140456 C 18.528582,18.264221 13.291696,25.230495 11.500037,31.436501 z"
             style="fill:#404040;"/>
          </a>
         </g>
        </svg>
</svg>
