<?xml version="1.0" encoding="UTF-8" standalone="no"?>
<!DOCTYPE svg PUBLIC "-//W3C//DTD SVG 1.1//EN"
 "http://www.w3.org/Graphics/SVG/1.1/DTD/svg11.dtd">
<!-- Generated by graphviz version 2.43.0 (0)
 -->
<!-- Title: ConfigParser::parseLocationBlock Pages: 1 -->
<!--zoomable 660 -->
<svg id="main" version="1.1" xmlns="http://www.w3.org/2000/svg" xmlns:xlink="http://www.w3.org/1999/xlink" xml:space="preserve" onload="init(evt)">
<style type="text/css"><![CDATA[
.edge:hover path { stroke: red; }
.edge:hover polygon { stroke: red; fill: red; }
]]></style>
<script type="text/javascript"><![CDATA[
var edges = document.getElementsByTagName('g');
if (edges && edges.length) {
  for (var i=0;i<edges.length;i++) {
    if (edges[i].id.substr(0,4)=='edge') {
      edges[i].setAttribute('class','edge');
    }
  }
}
]]></script>
        <defs>
                <circle id="rim" cx="0" cy="0" r="7"/>
                <circle id="rim2" cx="0" cy="0" r="3.5"/>
                <g id="zoomPlus">
                        <use xlink:href="#rim" fill="#404040">
                                <set attributeName="fill" to="#808080" begin="zoomplus.mouseover" end="zoomplus.mouseout"/>
                        </use>
                        <path d="M-4,0h8M0,-4v8" fill="none" stroke="white" stroke-width="1.5" pointer-events="none"/>
                </g>
                <g id="zoomMin">
                        <use xlink:href="#rim" fill="#404040">
                                <set attributeName="fill" to="#808080" begin="zoomminus.mouseover" end="zoomminus.mouseout"/>
                        </use>
                        <path d="M-4,0h8" fill="none" stroke="white" stroke-width="1.5" pointer-events="none"/>
                </g>
                <g id="dirArrow">
                        <path fill="none" stroke="white" stroke-width="1.5" d="M0,-3.0v7 M-2.5,-0.5L0,-3.0L2.5,-0.5"/>
                </g>
               <g id="resetDef">
                       <use xlink:href="#rim2" fill="#404040">
                               <set attributeName="fill" to="#808080" begin="reset.mouseover" end="reset.mouseout"/>
                       </use>
               </g>
        </defs>

<script type="text/javascript">
var viewWidth = 551;
var viewHeight = 660;
var sectionId = 'dynsection-21';
</script>
<script xlink:href="svgpan.js"/>
<svg id="graph" class="graph">
<g id="viewport">
<title>ConfigParser::parseLocationBlock</title>
<polygon fill="white" stroke="transparent" points="-4,4 -4,-656 547,-656 547,4 -4,4"/>
<!-- Node1 -->
<g id="node1" class="node">
<title>Node1</title>
<g id="a_node1"><a xlink:title=" ">
<polygon fill="#bfbfbf" stroke="black" points="0,-299 0,-329 140,-329 140,-299 0,-299"/>
<text text-anchor="start" x="8" y="-317" font-family="Helvetica,sans-Serif" font-size="10.00">ConfigParser::parseLocation</text>
<text text-anchor="middle" x="70" y="-306" font-family="Helvetica,sans-Serif" font-size="10.00">Block</text>
</a>
</g>
</g>
<!-- Node2 -->
<g id="node2" class="node">
<title>Node2</title>
<g id="a_node2"><a xlink:href="classLocationConfig.html#ae3ad891e98d42da2cb0a9a3149d44bd3" target="_top" xlink:title=" ">
<polygon fill="white" stroke="black" points="197,-632.5 197,-651.5 325,-651.5 325,-632.5 197,-632.5"/>
<text text-anchor="middle" x="261" y="-639.5" font-family="Helvetica,sans-Serif" font-size="10.00">LocationConfig::addIndex</text>
</a>
</g>
</g>
<!-- Node1&#45;&gt;Node2 -->
<g id="edge1" class="edge">
<title>Node1&#45;&gt;Node2</title>
<path fill="none" stroke="midnightblue" d="M71.26,-329.32C73,-379.7 85.67,-541.7 176,-623 179.47,-626.12 183.34,-628.77 187.47,-631"/>
<polygon fill="midnightblue" stroke="midnightblue" points="186.29,-634.31 196.85,-635.27 189.19,-627.94 186.29,-634.31"/>
</g>
<!-- Node3 -->
<g id="node3" class="node">
<title>Node3</title>
<g id="a_node3"><a xlink:href="classLocationConfig.html#a893870402bc9e072c1a9e05c4a428902" target="_top" xlink:title=" ">
<polygon fill="white" stroke="black" points="193,-594.5 193,-613.5 329,-613.5 329,-594.5 193,-594.5"/>
<text text-anchor="middle" x="261" y="-601.5" font-family="Helvetica,sans-Serif" font-size="10.00">LocationConfig::addMethod</text>
</a>
</g>
</g>
<!-- Node1&#45;&gt;Node3 -->
<g id="edge2" class="edge">
<title>Node1&#45;&gt;Node3</title>
<path fill="none" stroke="midnightblue" d="M72.4,-329.24C77.39,-374.56 98.4,-509.63 176,-580 180.46,-584.05 185.56,-587.42 190.99,-590.22"/>
<polygon fill="midnightblue" stroke="midnightblue" points="189.84,-593.54 200.4,-594.42 192.7,-587.15 189.84,-593.54"/>
</g>
<!-- Node4 -->
<g id="node4" class="node">
<title>Node4</title>
<g id="a_node4"><a xlink:href="classConfigParser.html#a84e1b9e32f9be2aee1bff8a78c8c0f67" target="_top" xlink:title="Returns the directory part of the config file path.">
<polygon fill="white" stroke="black" points="391,-468.5 391,-487.5 534,-487.5 534,-468.5 391,-468.5"/>
<text text-anchor="middle" x="462.5" y="-475.5" font-family="Helvetica,sans-Serif" font-size="10.00">ConfigParser::getConfFileDir</text>
</a>
</g>
</g>
<!-- Node1&#45;&gt;Node4 -->
<g id="edge3" class="edge">
<title>Node1&#45;&gt;Node4</title>
<path fill="none" stroke="midnightblue" d="M72.41,-329.28C77.32,-372.63 97.93,-496.55 176,-547 239.46,-588.01 278.75,-581.45 346,-547 370.37,-534.52 359.26,-512.25 382,-497 385.07,-494.94 388.33,-493.11 391.73,-491.47"/>
<polygon fill="midnightblue" stroke="midnightblue" points="393.1,-494.69 400.95,-487.58 390.38,-488.24 393.1,-494.69"/>
</g>
<!-- Node5 -->
<g id="node5" class="node">
<title>Node5</title>
<g id="a_node5"><a xlink:href="namespaceconfig_1_1utils.html#a1499ac2a3ac27374a055baf36e2eb5ba" target="_top" xlink:title="Validates an HTTP method string.">
<polygon fill="white" stroke="black" points="201,-507 201,-537 321,-537 321,-507 201,-507"/>
<text text-anchor="start" x="209" y="-525" font-family="Helvetica,sans-Serif" font-size="10.00">config::utils::isValidHttp</text>
<text text-anchor="middle" x="261" y="-514" font-family="Helvetica,sans-Serif" font-size="10.00">Method</text>
</a>
</g>
</g>
<!-- Node1&#45;&gt;Node5 -->
<g id="edge4" class="edge">
<title>Node1&#45;&gt;Node5</title>
<path fill="none" stroke="midnightblue" d="M75.38,-329.12C86.31,-364.12 118.13,-451.19 176,-497 180.66,-500.69 185.86,-503.84 191.32,-506.52"/>
<polygon fill="midnightblue" stroke="midnightblue" points="190.14,-509.82 200.7,-510.61 192.93,-503.41 190.14,-509.82"/>
</g>
<!-- Node6 -->
<g id="node6" class="node">
<title>Node6</title>
<g id="a_node6"><a xlink:href="namespaceconfig_1_1utils.html#a335000e49ff4c427a4e56c9953f8f166" target="_top" xlink:title="Validates a location path string.">
<polygon fill="white" stroke="black" points="182,-468.5 182,-487.5 340,-487.5 340,-468.5 182,-468.5"/>
<text text-anchor="middle" x="261" y="-475.5" font-family="Helvetica,sans-Serif" font-size="10.00">config::utils::isValidLocationPath</text>
</a>
</g>
</g>
<!-- Node1&#45;&gt;Node6 -->
<g id="edge5" class="edge">
<title>Node1&#45;&gt;Node6</title>
<path fill="none" stroke="midnightblue" d="M77.43,-329.09C90.97,-358.96 125.41,-425.62 176,-459 179.12,-461.06 182.42,-462.89 185.85,-464.53"/>
<polygon fill="midnightblue" stroke="midnightblue" points="184.61,-467.8 195.18,-468.42 187.3,-461.34 184.61,-467.8"/>
</g>
<!-- Node7 -->
<g id="node7" class="node">
<title>Node7</title>
<g id="a_node7"><a xlink:href="classConfigParser.html#a7ab80fb3ce52414448d41df88f94400a" target="_top" xlink:title=" ">
<polygon fill="white" stroke="black" points="201.5,-430.5 201.5,-449.5 320.5,-449.5 320.5,-430.5 201.5,-430.5"/>
<text text-anchor="middle" x="261" y="-437.5" font-family="Helvetica,sans-Serif" font-size="10.00">ConfigParser::parseCgi</text>
</a>
</g>
</g>
<!-- Node1&#45;&gt;Node7 -->
<g id="edge6" class="edge">
<title>Node1&#45;&gt;Node7</title>
<path fill="none" stroke="midnightblue" d="M82.5,-329.2C100.18,-351.51 136.19,-392.96 176,-416 183.91,-420.57 192.74,-424.33 201.63,-427.39"/>
<polygon fill="midnightblue" stroke="midnightblue" points="200.66,-430.75 211.25,-430.44 202.78,-424.08 200.66,-430.75"/>
</g>
<!-- Node9 -->
<g id="node9" class="node">
<title>Node9</title>
<g id="a_node9"><a xlink:href="namespaceconfig_1_1utils.html#a4c504c996325f8d62e08d878b037e975" target="_top" xlink:title="Removes the trailing semicolon from a string if present.">
<polygon fill="white" stroke="black" points="387,-304.5 387,-323.5 538,-323.5 538,-304.5 387,-304.5"/>
<text text-anchor="middle" x="462.5" y="-311.5" font-family="Helvetica,sans-Serif" font-size="10.00">config::utils::removeSemicolon</text>
</a>
</g>
</g>
<!-- Node1&#45;&gt;Node9 -->
<g id="edge26" class="edge">
<title>Node1&#45;&gt;Node9</title>
<path fill="none" stroke="midnightblue" d="M140.36,-314C206.37,-314 305.85,-314 376.58,-314"/>
<polygon fill="midnightblue" stroke="midnightblue" points="376.8,-317.5 386.8,-314 376.8,-310.5 376.8,-317.5"/>
</g>
<!-- Node10 -->
<g id="node10" class="node">
<title>Node10</title>
<g id="a_node10"><a xlink:href="namespaceconfig_1_1utils.html#ab47e6d08957f3aa61a7e2a31c5e8d77f" target="_top" xlink:title="Converts a possibly relative path to absolute.">
<polygon fill="white" stroke="black" points="392.5,-430.5 392.5,-449.5 532.5,-449.5 532.5,-430.5 392.5,-430.5"/>
<text text-anchor="middle" x="462.5" y="-437.5" font-family="Helvetica,sans-Serif" font-size="10.00">config::utils::toAbsolutePath</text>
</a>
</g>
</g>
<!-- Node1&#45;&gt;Node10 -->
<g id="edge30" class="edge">
<title>Node1&#45;&gt;Node10</title>
<path fill="none" stroke="midnightblue" d="M89.11,-329.07C109.12,-344.93 142.9,-369.43 176,-383 196.28,-391.32 320.16,-414.53 397.93,-428.64"/>
<polygon fill="midnightblue" stroke="midnightblue" points="397.65,-432.14 408.11,-430.48 398.89,-425.26 397.65,-432.14"/>
</g>
<!-- Node11 -->
<g id="node11" class="node">
<title>Node11</title>
<g id="a_node11"><a xlink:href="classConfigParser.html#a9b725718db54abd627b37d021acf726e" target="_top" xlink:title=" ">
<polygon fill="white" stroke="black" points="179,-266.5 179,-285.5 343,-285.5 343,-266.5 179,-266.5"/>
<text text-anchor="middle" x="261" y="-273.5" font-family="Helvetica,sans-Serif" font-size="10.00">ConfigParser::parseMaxSizeBody</text>
</a>
</g>
</g>
<!-- Node1&#45;&gt;Node11 -->
<g id="edge11" class="edge">
<title>Node1&#45;&gt;Node11</title>
<path fill="none" stroke="midnightblue" d="M140.04,-300.12C160.6,-295.99 182.9,-291.5 202.63,-287.53"/>
<polygon fill="midnightblue" stroke="midnightblue" points="203.58,-290.91 212.7,-285.51 202.2,-284.05 203.58,-290.91"/>
</g>
<!-- Node13 -->
<g id="node13" class="node">
<title>Node13</title>
<g id="a_node13"><a xlink:href="classConfigParser.html#a27bff35ad8d26d109518201906023389" target="_top" xlink:title=" ">
<polygon fill="white" stroke="black" points="194.5,-228.5 194.5,-247.5 327.5,-247.5 327.5,-228.5 194.5,-228.5"/>
<text text-anchor="middle" x="261" y="-235.5" font-family="Helvetica,sans-Serif" font-size="10.00">ConfigParser::parseReturn</text>
</a>
</g>
</g>
<!-- Node1&#45;&gt;Node13 -->
<g id="edge14" class="edge">
<title>Node1&#45;&gt;Node13</title>
<path fill="none" stroke="midnightblue" d="M94.3,-298.92C115.01,-286.12 146.49,-268.1 176,-257 182.83,-254.43 190.11,-252.15 197.42,-250.14"/>
<polygon fill="midnightblue" stroke="midnightblue" points="198.56,-253.46 207.37,-247.57 196.81,-246.68 198.56,-253.46"/>
</g>
<!-- Node18 -->
<g id="node18" class="node">
<title>Node18</title>
<g id="a_node18"><a xlink:href="classConfigParser.html#a5e88206a9aca177924981f1567eeaf37" target="_top" xlink:title=" ">
<polygon fill="white" stroke="black" points="194,-343 194,-373 328,-373 328,-343 194,-343"/>
<text text-anchor="start" x="202" y="-361" font-family="Helvetica,sans-Serif" font-size="10.00">ConfigParser::parseUpload</text>
<text text-anchor="middle" x="261" y="-350" font-family="Helvetica,sans-Serif" font-size="10.00">Bonus</text>
</a>
</g>
</g>
<!-- Node1&#45;&gt;Node18 -->
<g id="edge20" class="edge">
<title>Node1&#45;&gt;Node18</title>
<path fill="none" stroke="midnightblue" d="M135.51,-329.02C151.54,-332.75 168.86,-336.78 185.33,-340.62"/>
<polygon fill="midnightblue" stroke="midnightblue" points="184.92,-344.12 195.46,-342.97 186.51,-337.3 184.92,-344.12"/>
</g>
<!-- Node21 -->
<g id="node21" class="node">
<title>Node21</title>
<g id="a_node21"><a xlink:href="classLocationConfig.html#aaeba1b59714be158d6c0b0fd64e3580e" target="_top" xlink:title=" ">
<polygon fill="white" stroke="black" points="188,-190.5 188,-209.5 334,-209.5 334,-190.5 188,-190.5"/>
<text text-anchor="middle" x="261" y="-197.5" font-family="Helvetica,sans-Serif" font-size="10.00">LocationConfig::setAutoIndex</text>
</a>
</g>
</g>
<!-- Node1&#45;&gt;Node21 -->
<g id="edge27" class="edge">
<title>Node1&#45;&gt;Node21</title>
<path fill="none" stroke="midnightblue" d="M83.18,-298.89C101.17,-277.65 136.95,-239.28 176,-219 180.53,-216.65 185.34,-214.59 190.28,-212.78"/>
<polygon fill="midnightblue" stroke="midnightblue" points="191.51,-216.06 199.91,-209.6 189.31,-209.41 191.51,-216.06"/>
</g>
<!-- Node22 -->
<g id="node22" class="node">
<title>Node22</title>
<g id="a_node22"><a xlink:href="classLocationConfig.html#a36bea47c39135d4119cb3541ee44c78f" target="_top" xlink:title=" ">
<polygon fill="white" stroke="black" points="200,-152.5 200,-171.5 322,-171.5 322,-152.5 200,-152.5"/>
<text text-anchor="middle" x="261" y="-159.5" font-family="Helvetica,sans-Serif" font-size="10.00">LocationConfig::setPath</text>
</a>
</g>
</g>
<!-- Node1&#45;&gt;Node22 -->
<g id="edge28" class="edge">
<title>Node1&#45;&gt;Node22</title>
<path fill="none" stroke="midnightblue" d="M78.45,-298.87C93.05,-270.87 128.22,-211.12 176,-181 180.39,-178.23 185.14,-175.86 190.07,-173.84"/>
<polygon fill="midnightblue" stroke="midnightblue" points="191.49,-177.04 199.71,-170.35 189.11,-170.46 191.49,-177.04"/>
</g>
<!-- Node23 -->
<g id="node23" class="node">
<title>Node23</title>
<g id="a_node23"><a xlink:href="classLocationConfig.html#aaf3cb645a6dbf533e76abbbabe25fd8f" target="_top" xlink:title=" ">
<polygon fill="white" stroke="black" points="200,-114.5 200,-133.5 322,-133.5 322,-114.5 200,-114.5"/>
<text text-anchor="middle" x="261" y="-121.5" font-family="Helvetica,sans-Serif" font-size="10.00">LocationConfig::setRoot</text>
</a>
</g>
</g>
<!-- Node1&#45;&gt;Node23 -->
<g id="edge29" class="edge">
<title>Node1&#45;&gt;Node23</title>
<path fill="none" stroke="midnightblue" d="M75.74,-298.85C87.13,-265.11 119.35,-183.56 176,-143 180.3,-139.92 185.01,-137.34 189.94,-135.16"/>
<polygon fill="midnightblue" stroke="midnightblue" points="191.54,-138.29 199.64,-131.46 189.05,-131.75 191.54,-138.29"/>
</g>
<!-- Node24 -->
<g id="node24" class="node">
<title>Node24</title>
<g id="a_node24"><a xlink:href="namespaceconfig_1_1utils.html#a6384148b35b446c955109acf939c872f" target="_top" xlink:title="Splits a line into tokens by whitespace.">
<polygon fill="white" stroke="black" points="206,-76.5 206,-95.5 316,-95.5 316,-76.5 206,-76.5"/>
<text text-anchor="middle" x="261" y="-83.5" font-family="Helvetica,sans-Serif" font-size="10.00">config::utils::tokenize</text>
</a>
</g>
</g>
<!-- Node1&#45;&gt;Node24 -->
<g id="edge31" class="edge">
<title>Node1&#45;&gt;Node24</title>
<path fill="none" stroke="midnightblue" d="M73.97,-298.81C82.41,-259.96 110.28,-156.42 176,-105 181.91,-100.38 188.73,-96.84 195.88,-94.13"/>
<polygon fill="midnightblue" stroke="midnightblue" points="197.33,-97.34 205.77,-90.94 195.18,-90.68 197.33,-97.34"/>
</g>
<!-- Node25 -->
<g id="node25" class="node">
<title>Node25</title>
<g id="a_node25"><a xlink:href="namespaceconfig_1_1utils.html#a03d47ec69fc7beb981a8635fae2f6f49" target="_top" xlink:title="Trims leading and trailing whitespace from a line.">
<polygon fill="white" stroke="black" points="207.5,-38.5 207.5,-57.5 314.5,-57.5 314.5,-38.5 207.5,-38.5"/>
<text text-anchor="middle" x="261" y="-45.5" font-family="Helvetica,sans-Serif" font-size="10.00">config::utils::trimLine</text>
</a>
</g>
</g>
<!-- Node1&#45;&gt;Node25 -->
<g id="edge32" class="edge">
<title>Node1&#45;&gt;Node25</title>
<path fill="none" stroke="midnightblue" d="M72.72,-298.7C78.46,-255.15 101.06,-129.56 176,-67 182.28,-61.75 189.72,-57.88 197.53,-55.04"/>
<polygon fill="midnightblue" stroke="midnightblue" points="198.67,-58.35 207.19,-52.06 196.6,-51.66 198.67,-58.35"/>
</g>
<!-- Node26 -->
<g id="node26" class="node">
<title>Node26</title>
<g id="a_node26"><a xlink:href="classConfigParser.html#a26cc4c7c7e974575710bde0f7f9e1135" target="_top" xlink:title=" ">
<polygon fill="white" stroke="black" points="176,-0.5 176,-19.5 346,-19.5 346,-0.5 176,-0.5"/>
<text text-anchor="middle" x="261" y="-7.5" font-family="Helvetica,sans-Serif" font-size="10.00">ConfigParser::validateDirectiveLine</text>
</a>
</g>
</g>
<!-- Node1&#45;&gt;Node26 -->
<g id="edge33" class="edge">
<title>Node1&#45;&gt;Node26</title>
<path fill="none" stroke="midnightblue" d="M71.75,-298.85C74.95,-251.18 91.57,-103.07 176,-29 177.78,-27.44 179.66,-26 181.63,-24.67"/>
<polygon fill="midnightblue" stroke="midnightblue" points="183.73,-27.5 190.7,-19.52 180.28,-21.41 183.73,-27.5"/>
</g>
<!-- Node7&#45;&gt;Node4 -->
<g id="edge8" class="edge">
<title>Node7&#45;&gt;Node4</title>
<path fill="none" stroke="midnightblue" d="M312.08,-449.54C339.24,-454.71 372.99,-461.14 401.53,-466.58"/>
<polygon fill="midnightblue" stroke="midnightblue" points="400.92,-470.02 411.39,-468.46 402.23,-463.15 400.92,-470.02"/>
</g>
<!-- Node8 -->
<g id="node8" class="node">
<title>Node8</title>
<g id="a_node8"><a xlink:href="classLocationConfig.html#ab939a2ea336da8f7c9b58e45fb9e926a" target="_top" xlink:title=" ">
<polygon fill="white" stroke="black" points="386.5,-506.5 386.5,-525.5 538.5,-525.5 538.5,-506.5 386.5,-506.5"/>
<text text-anchor="middle" x="462.5" y="-513.5" font-family="Helvetica,sans-Serif" font-size="10.00">LocationConfig::addCgiHandler</text>
</a>
</g>
</g>
<!-- Node7&#45;&gt;Node8 -->
<g id="edge7" class="edge">
<title>Node7&#45;&gt;Node8</title>
<path fill="none" stroke="midnightblue" d="M320.61,-448.55C329.45,-451.16 338.2,-454.56 346,-459 366.22,-470.51 361.85,-485.37 382,-497 385.91,-499.26 390.07,-501.24 394.37,-503"/>
<polygon fill="midnightblue" stroke="midnightblue" points="393.34,-506.35 403.93,-506.47 395.73,-499.77 393.34,-506.35"/>
</g>
<!-- Node7&#45;&gt;Node9 -->
<g id="edge9" class="edge">
<title>Node7&#45;&gt;Node9</title>
<path fill="none" stroke="midnightblue" d="M279.68,-430.41C297.61,-420.15 325.56,-402.68 346,-383 365.46,-364.25 359.57,-349.08 382,-334 385.76,-331.48 389.8,-329.27 394.02,-327.34"/>
<polygon fill="midnightblue" stroke="midnightblue" points="395.47,-330.53 403.45,-323.55 392.86,-324.03 395.47,-330.53"/>
</g>
<!-- Node7&#45;&gt;Node10 -->
<g id="edge10" class="edge">
<title>Node7&#45;&gt;Node10</title>
<path fill="none" stroke="midnightblue" d="M320.51,-440C339.87,-440 361.76,-440 382.41,-440"/>
<polygon fill="midnightblue" stroke="midnightblue" points="382.43,-443.5 392.43,-440 382.43,-436.5 382.43,-443.5"/>
</g>
<!-- Node11&#45;&gt;Node9 -->
<g id="edge13" class="edge">
<title>Node11&#45;&gt;Node9</title>
<path fill="none" stroke="midnightblue" d="M312.08,-285.54C339.24,-290.71 372.99,-297.14 401.53,-302.58"/>
<polygon fill="midnightblue" stroke="midnightblue" points="400.92,-306.02 411.39,-304.46 402.23,-299.15 400.92,-306.02"/>
</g>
<!-- Node12 -->
<g id="node12" class="node">
<title>Node12</title>
<g id="a_node12"><a xlink:href="namespaceconfig_1_1utils.html#a96caccf198f01c5290f601944e037e1b" target="_top" xlink:title="Parses a size string (e.g., &quot;1k&quot;, &quot;1m&quot;) into bytes.">
<polygon fill="white" stroke="black" points="404.5,-266.5 404.5,-285.5 520.5,-285.5 520.5,-266.5 404.5,-266.5"/>
<text text-anchor="middle" x="462.5" y="-273.5" font-family="Helvetica,sans-Serif" font-size="10.00">config::utils::parseSize</text>
</a>
</g>
</g>
<!-- Node11&#45;&gt;Node12 -->
<g id="edge12" class="edge">
<title>Node11&#45;&gt;Node12</title>
<path fill="none" stroke="midnightblue" d="M343.14,-276C360.12,-276 377.84,-276 394.24,-276"/>
<polygon fill="midnightblue" stroke="midnightblue" points="394.26,-279.5 404.26,-276 394.26,-272.5 394.26,-279.5"/>
</g>
<!-- Node13&#45;&gt;Node9 -->
<g id="edge15" class="edge">
<title>Node13&#45;&gt;Node9</title>
<path fill="none" stroke="midnightblue" d="M324.14,-247.64C331.77,-250.09 339.24,-253.15 346,-257 366.22,-268.51 361.85,-283.37 382,-295 385.91,-297.26 390.07,-299.24 394.37,-301"/>
<polygon fill="midnightblue" stroke="midnightblue" points="393.34,-304.35 403.93,-304.47 395.73,-297.77 393.34,-304.35"/>
</g>
<!-- Node14 -->
<g id="node14" class="node">
<title>Node14</title>
<g id="a_node14"><a xlink:href="classLocationConfig.html#a171605c1975557c5d5ca44fe0f33af7c" target="_top" xlink:title=" ">
<polygon fill="white" stroke="black" points="382,-190.5 382,-209.5 543,-209.5 543,-190.5 382,-190.5"/>
<text text-anchor="middle" x="462.5" y="-197.5" font-family="Helvetica,sans-Serif" font-size="10.00">LocationConfig::setRedirectCode</text>
</a>
</g>
</g>
<!-- Node13&#45;&gt;Node14 -->
<g id="edge16" class="edge">
<title>Node13&#45;&gt;Node14</title>
<path fill="none" stroke="midnightblue" d="M312.08,-228.46C339.24,-223.29 372.99,-216.86 401.53,-211.42"/>
<polygon fill="midnightblue" stroke="midnightblue" points="402.23,-214.85 411.39,-209.54 400.92,-207.98 402.23,-214.85"/>
</g>
<!-- Node15 -->
<g id="node15" class="node">
<title>Node15</title>
<g id="a_node15"><a xlink:href="classLocationConfig.html#a901f488de53c50e7b1f39f4b199cd9db" target="_top" xlink:title=" ">
<polygon fill="white" stroke="black" points="393.5,-141 393.5,-171 531.5,-171 531.5,-141 393.5,-141"/>
<text text-anchor="start" x="401.5" y="-159" font-family="Helvetica,sans-Serif" font-size="10.00">LocationConfig::setRedirect</text>
<text text-anchor="middle" x="462.5" y="-148" font-family="Helvetica,sans-Serif" font-size="10.00">ParamCount</text>
</a>
</g>
</g>
<!-- Node13&#45;&gt;Node15 -->
<g id="edge17" class="edge">
<title>Node13&#45;&gt;Node15</title>
<path fill="none" stroke="midnightblue" d="M324.14,-228.36C331.77,-225.91 339.24,-222.85 346,-219 366.22,-207.49 362.27,-193.33 382,-181 385.35,-178.9 388.9,-176.97 392.56,-175.19"/>
<polygon fill="midnightblue" stroke="midnightblue" points="394.12,-178.32 401.83,-171.06 391.27,-171.93 394.12,-178.32"/>
</g>
<!-- Node16 -->
<g id="node16" class="node">
<title>Node16</title>
<g id="a_node16"><a xlink:href="classLocationConfig.html#a17e8f5821073dcecf2e5bd9226cf9633" target="_top" xlink:title=" ">
<polygon fill="white" stroke="black" points="387,-102.5 387,-121.5 538,-121.5 538,-102.5 387,-102.5"/>
<text text-anchor="middle" x="462.5" y="-109.5" font-family="Helvetica,sans-Serif" font-size="10.00">LocationConfig::setRedirectUrl</text>
</a>
</g>
</g>
<!-- Node13&#45;&gt;Node16 -->
<g id="edge18" class="edge">
<title>Node13&#45;&gt;Node16</title>
<path fill="none" stroke="midnightblue" d="M327.82,-229.76C334.41,-227.05 340.64,-223.54 346,-219 378.25,-191.7 349.91,-158.5 382,-131 383.98,-129.3 386.09,-127.75 388.29,-126.33"/>
<polygon fill="midnightblue" stroke="midnightblue" points="390.08,-129.34 397.2,-121.5 386.75,-123.19 390.08,-129.34"/>
</g>
<!-- Node17 -->
<g id="node17" class="node">
<title>Node17</title>
<g id="a_node17"><a xlink:href="namespaceconfig_1_1utils.html#a0ff3e01dad8856ae9244e96ef9e95b99" target="_top" xlink:title="Converts a string to an integer.">
<polygon fill="white" stroke="black" points="403,-228.5 403,-247.5 522,-247.5 522,-228.5 403,-228.5"/>
<text text-anchor="middle" x="462.5" y="-235.5" font-family="Helvetica,sans-Serif" font-size="10.00">config::utils::stringToInt</text>
</a>
</g>
</g>
<!-- Node13&#45;&gt;Node17 -->
<g id="edge19" class="edge">
<title>Node13&#45;&gt;Node17</title>
<path fill="none" stroke="midnightblue" d="M327.6,-238C348.49,-238 371.64,-238 392.75,-238"/>
<polygon fill="midnightblue" stroke="midnightblue" points="392.92,-241.5 402.92,-238 392.92,-234.5 392.92,-241.5"/>
</g>
<!-- Node18&#45;&gt;Node4 -->
<g id="edge21" class="edge">
<title>Node18&#45;&gt;Node4</title>
<path fill="none" stroke="midnightblue" d="M284.19,-373.09C301.6,-385.29 326.13,-403.29 346,-421 363.37,-436.48 361.85,-447.37 382,-459 385.91,-461.26 390.07,-463.24 394.37,-465"/>
<polygon fill="midnightblue" stroke="midnightblue" points="393.34,-468.35 403.93,-468.47 395.73,-461.77 393.34,-468.35"/>
</g>
<!-- Node18&#45;&gt;Node9 -->
<g id="edge23" class="edge">
<title>Node18&#45;&gt;Node9</title>
<path fill="none" stroke="midnightblue" d="M328.15,-343.41C354.27,-337.65 383.87,-331.12 408.53,-325.68"/>
<polygon fill="midnightblue" stroke="midnightblue" points="409.41,-329.07 418.43,-323.5 407.91,-322.24 409.41,-329.07"/>
</g>
<!-- Node18&#45;&gt;Node10 -->
<g id="edge25" class="edge">
<title>Node18&#45;&gt;Node10</title>
<path fill="none" stroke="midnightblue" d="M314.56,-373.13C325.33,-377.22 336.32,-382.16 346,-388 364.59,-399.21 362.83,-410.82 382,-421 386.32,-423.29 390.91,-425.31 395.63,-427.09"/>
<polygon fill="midnightblue" stroke="midnightblue" points="394.84,-430.52 405.44,-430.41 397.09,-423.89 394.84,-430.52"/>
</g>
<!-- Node19 -->
<g id="node19" class="node">
<title>Node19</title>
<g id="a_node19"><a xlink:href="namespaceconfig_1_1utils.html#a48502107edda1e081240899a7e240da1" target="_top" xlink:title="Validates if a path string is well&#45;formed.">
<polygon fill="white" stroke="black" points="401.5,-392.5 401.5,-411.5 523.5,-411.5 523.5,-392.5 401.5,-392.5"/>
<text text-anchor="middle" x="462.5" y="-399.5" font-family="Helvetica,sans-Serif" font-size="10.00">config::utils::isValidPath</text>
</a>
</g>
</g>
<!-- Node18&#45;&gt;Node19 -->
<g id="edge22" class="edge">
<title>Node18&#45;&gt;Node19</title>
<path fill="none" stroke="midnightblue" d="M328.15,-372.59C354.27,-378.35 383.87,-384.88 408.53,-390.32"/>
<polygon fill="midnightblue" stroke="midnightblue" points="407.91,-393.76 418.43,-392.5 409.41,-386.93 407.91,-393.76"/>
</g>
<!-- Node20 -->
<g id="node20" class="node">
<title>Node20</title>
<g id="a_node20"><a xlink:href="classLocationConfig.html#af3b070091ab82c368fe2206be70a2938" target="_top" xlink:title=" ">
<polygon fill="white" stroke="black" points="396.5,-343 396.5,-373 528.5,-373 528.5,-343 396.5,-343"/>
<text text-anchor="start" x="404.5" y="-361" font-family="Helvetica,sans-Serif" font-size="10.00">LocationConfig::setUpload</text>
<text text-anchor="middle" x="462.5" y="-350" font-family="Helvetica,sans-Serif" font-size="10.00">Store</text>
</a>
</g>
</g>
<!-- Node18&#45;&gt;Node20 -->
<g id="edge24" class="edge">
<title>Node18&#45;&gt;Node20</title>
<path fill="none" stroke="midnightblue" d="M328.15,-358C346.71,-358 367.02,-358 386.07,-358"/>
<polygon fill="midnightblue" stroke="midnightblue" points="386.2,-361.5 396.2,-358 386.2,-354.5 386.2,-361.5"/>
</g>
</g>
</svg>
        <g id="navigator" transform="translate(0 0)" fill="#404254">
                <rect fill="#f2f5e9" fill-opacity="0.5" stroke="#606060" stroke-width=".5" x="0" y="0" width="60" height="60"/>
                <use id="zoomplus" xlink:href="#zoomPlus" x="17" y="9" onmousedown="handleZoom(evt,'in')"/>
                <use id="zoomminus" xlink:href="#zoomMin" x="42" y="9" onmousedown="handleZoom(evt,'out')"/>
                <use id="reset" xlink:href="#resetDef" x="30" y="36" onmousedown="handleReset()"/>
                <g id="arrowUp" xlink:href="#dirArrow" transform="translate(30 24)" onmousedown="handlePan(0,-1)">
                  <use xlink:href="#rim" fill="#404040">
                        <set attributeName="fill" to="#808080" begin="arrowUp.mouseover" end="arrowUp.mouseout"/>
                  </use>
                  <path fill="none" stroke="white" stroke-width="1.5" d="M0,-3.0v7 M-2.5,-0.5L0,-3.0L2.5,-0.5"/>
                </g>
                <g id="arrowRight" xlink:href="#dirArrow" transform="rotate(90) translate(36 -43)" onmousedown="handlePan(1,0)">
                  <use xlink:href="#rim" fill="#404040">
                        <set attributeName="fill" to="#808080" begin="arrowRight.mouseover" end="arrowRight.mouseout"/>
                  </use>
                  <path fill="none" stroke="white" stroke-width="1.5" d="M0,-3.0v7 M-2.5,-0.5L0,-3.0L2.5,-0.5"/>
                </g>
                <g id="arrowDown" xlink:href="#dirArrow" transform="rotate(180) translate(-30 -48)" onmousedown="handlePan(0,1)">
                  <use xlink:href="#rim" fill="#404040">
                        <set attributeName="fill" to="#808080" begin="arrowDown.mouseover" end="arrowDown.mouseout"/>
                  </use>
                  <path fill="none" stroke="white" stroke-width="1.5" d="M0,-3.0v7 M-2.5,-0.5L0,-3.0L2.5,-0.5"/>
                </g>
                <g id="arrowLeft" xlink:href="#dirArrow" transform="rotate(270) translate(-36 17)" onmousedown="handlePan(-1,0)">
                  <use xlink:href="#rim" fill="#404040">
                        <set attributeName="fill" to="#808080" begin="arrowLeft.mouseover" end="arrowLeft.mouseout"/>
                  </use>
                  <path fill="none" stroke="white" stroke-width="1.5" d="M0,-3.0v7 M-2.5,-0.5L0,-3.0L2.5,-0.5"/>
                </g>
        </g>
        <svg viewBox="0 0 15 15" width="100%" height="30px" preserveAspectRatio="xMaxYMin meet">
         <g id="arrow_out" transform="scale(0.3 0.3)">
          <a xlink:href="classConfigParser_a497afc5807db6d7f6092609c62cdd7ad_cgraph_org.svg" target="_base">
           <rect id="button" ry="5" rx="5" y="6" x="6" height="38" width="38"
                fill="#f2f5e9" fill-opacity="0.5" stroke="#606060" stroke-width="1.0"/>
           <path id="arrow"
             d="M 11.500037,31.436501 C 11.940474,20.09759 22.043105,11.32322 32.158766,21.979434 L 37.068811,17.246167 C 37.068811,17.246167 37.088388,32 37.088388,32 L 22.160133,31.978069 C 22.160133,31.978069 26.997745,27.140456 26.997745,27.140456 C 18.528582,18.264221 13.291696,25.230495 11.500037,31.436501 z"
             style="fill:#404040;"/>
          </a>
         </g>
        </svg>
</svg>
