<?xml version="1.0" encoding="UTF-8" standalone="no"?>
<!DOCTYPE svg PUBLIC "-//W3C//DTD SVG 1.1//EN"
 "http://www.w3.org/Graphics/SVG/1.1/DTD/svg11.dtd">
<!-- Generated by graphviz version 2.43.0 (0)
 -->
<!-- Title: LocationConfig Pages: 1 -->
<svg width="339pt" height="276pt"
 viewBox="0.00 0.00 339.03 276.00" xmlns="http://www.w3.org/2000/svg" xmlns:xlink="http://www.w3.org/1999/xlink">
<g id="graph0" class="graph" transform="scale(1 1) rotate(0) translate(4 272)">
<title>LocationConfig</title>
<polygon fill="white" stroke="transparent" points="-4,4 -4,-272 335.03,-272 335.03,4 -4,4"/>
<!-- Node1 -->
<g id="node1" class="node">
<title>Node1</title>
<g id="a_node1"><a xlink:title="Represents the configuration for a specific location within a server block.">
<polygon fill="#bfbfbf" stroke="black" points="91.53,-0.5 91.53,-19.5 173.53,-19.5 173.53,-0.5 91.53,-0.5"/>
<text text-anchor="middle" x="132.53" y="-7.5" font-family="Helvetica,sans-Serif" font-size="10.00">LocationConfig</text>
</a>
</g>
</g>
<!-- Node2 -->
<g id="node2" class="node">
<title>Node2</title>
<g id="a_node2"><a xlink:title=" ">
<polygon fill="white" stroke="#bfbfbf" points="77.53,-85 77.53,-115 187.53,-115 187.53,-85 77.53,-85"/>
<text text-anchor="start" x="85.53" y="-103" font-family="Helvetica,sans-Serif" font-size="10.00">std::map&lt; std::string,</text>
<text text-anchor="middle" x="132.53" y="-92" font-family="Helvetica,sans-Serif" font-size="10.00"> std::string &gt;</text>
</a>
</g>
</g>
<!-- Node2&#45;&gt;Node1 -->
<g id="edge1" class="edge">
<title>Node2&#45;&gt;Node1</title>
<path fill="none" stroke="#9a32cd" stroke-dasharray="5,2" d="M132.53,-74.83C132.53,-56.43 132.53,-32.17 132.53,-19.52"/>
<polygon fill="#9a32cd" stroke="#9a32cd" points="129.03,-74.86 132.53,-84.86 136.03,-74.86 129.03,-74.86"/>
<text text-anchor="middle" x="164.53" y="-46.5" font-family="Helvetica,sans-Serif" font-size="10.00"> cgi_handlers_</text>
</g>
<!-- Node3 -->
<g id="node3" class="node">
<title>Node3</title>
<g id="a_node3"><a xlink:title=" ">
<polygon fill="white" stroke="#bfbfbf" points="102.53,-180.5 102.53,-199.5 162.53,-199.5 162.53,-180.5 102.53,-180.5"/>
<text text-anchor="middle" x="132.53" y="-187.5" font-family="Helvetica,sans-Serif" font-size="10.00">std::string</text>
</a>
</g>
</g>
<!-- Node3&#45;&gt;Node1 -->
<g id="edge4" class="edge">
<title>Node3&#45;&gt;Node1</title>
<path fill="none" stroke="#9a32cd" stroke-dasharray="5,2" d="M92.43,-179.31C63.26,-169.93 25.8,-152.52 7.53,-122 -2.51,-105.22 -2.51,-94.78 7.53,-78 26.57,-46.2 66.42,-28.64 96.04,-19.56"/>
<polygon fill="#9a32cd" stroke="#9a32cd" points="91.77,-182.77 102.36,-182.3 93.79,-176.06 91.77,-182.77"/>
<text text-anchor="middle" x="38.03" y="-114" font-family="Helvetica,sans-Serif" font-size="10.00"> path_</text>
<text text-anchor="middle" x="38.03" y="-103" font-family="Helvetica,sans-Serif" font-size="10.00">redirect_url_</text>
<text text-anchor="middle" x="38.03" y="-92" font-family="Helvetica,sans-Serif" font-size="10.00">root_</text>
<text text-anchor="middle" x="38.03" y="-81" font-family="Helvetica,sans-Serif" font-size="10.00">upload_store_</text>
</g>
<!-- Node3&#45;&gt;Node2 -->
<g id="edge2" class="edge">
<title>Node3&#45;&gt;Node2</title>
<path fill="none" stroke="#9a32cd" stroke-dasharray="5,2" d="M132.53,-170.16C132.53,-153.69 132.53,-130.14 132.53,-115.21"/>
<polygon fill="#9a32cd" stroke="#9a32cd" points="129.03,-170.24 132.53,-180.24 136.03,-170.24 129.03,-170.24"/>
<text text-anchor="middle" x="154.03" y="-154" font-family="Helvetica,sans-Serif" font-size="10.00"> elements</text>
<text text-anchor="middle" x="154.03" y="-143" font-family="Helvetica,sans-Serif" font-size="10.00">keys</text>
</g>
<!-- Node5 -->
<g id="node5" class="node">
<title>Node5</title>
<g id="a_node5"><a xlink:title=" ">
<polygon fill="white" stroke="#bfbfbf" points="206.03,-90.5 206.03,-109.5 331.03,-109.5 331.03,-90.5 206.03,-90.5"/>
<text text-anchor="middle" x="268.53" y="-97.5" font-family="Helvetica,sans-Serif" font-size="10.00">std::vector&lt; std::string &gt;</text>
</a>
</g>
</g>
<!-- Node3&#45;&gt;Node5 -->
<g id="edge6" class="edge">
<title>Node3&#45;&gt;Node5</title>
<path fill="none" stroke="#9a32cd" stroke-dasharray="5,2" d="M157.15,-175.35C164.42,-171.18 172.36,-166.51 179.53,-162 207.76,-144.26 239.76,-121.7 256.64,-109.6"/>
<polygon fill="#9a32cd" stroke="#9a32cd" points="155.36,-172.34 148.38,-180.31 158.81,-178.43 155.36,-172.34"/>
<text text-anchor="middle" x="234.03" y="-148.5" font-family="Helvetica,sans-Serif" font-size="10.00"> elements</text>
</g>
<!-- Node4 -->
<g id="node4" class="node">
<title>Node4</title>
<g id="a_node4"><a xlink:title=" ">
<polygon fill="white" stroke="#bfbfbf" points="85.03,-237.5 85.03,-267.5 180.03,-267.5 180.03,-237.5 85.03,-237.5"/>
<text text-anchor="start" x="93.03" y="-255.5" font-family="Helvetica,sans-Serif" font-size="10.00">std::basic_string&lt;</text>
<text text-anchor="middle" x="132.53" y="-244.5" font-family="Helvetica,sans-Serif" font-size="10.00"> Char &gt;</text>
</a>
</g>
</g>
<!-- Node4&#45;&gt;Node3 -->
<g id="edge3" class="edge">
<title>Node4&#45;&gt;Node3</title>
<path fill="none" stroke="midnightblue" d="M132.53,-227.35C132.53,-217.51 132.53,-206.78 132.53,-199.54"/>
<polygon fill="midnightblue" stroke="midnightblue" points="129.03,-227.47 132.53,-237.47 136.03,-227.47 129.03,-227.47"/>
</g>
<!-- Node5&#45;&gt;Node1 -->
<g id="edge5" class="edge">
<title>Node5&#45;&gt;Node1</title>
<path fill="none" stroke="#9a32cd" stroke-dasharray="5,2" d="M253.8,-82.92C240.82,-69.5 220.85,-50.59 200.53,-38 188.11,-30.31 173.13,-24.08 160.39,-19.55"/>
<polygon fill="#9a32cd" stroke="#9a32cd" points="251.51,-85.6 260.92,-90.47 256.6,-80.79 251.51,-85.6"/>
<text text-anchor="middle" x="272.03" y="-52" font-family="Helvetica,sans-Serif" font-size="10.00"> allowed_methods_</text>
<text text-anchor="middle" x="272.03" y="-41" font-family="Helvetica,sans-Serif" font-size="10.00">indexes_</text>
</g>
</g>
</svg>
