<?xml version="1.0" encoding="UTF-8" standalone="no"?>
<!DOCTYPE svg PUBLIC "-//W3C//DTD SVG 1.1//EN"
 "http://www.w3.org/Graphics/SVG/1.1/DTD/svg11.dtd">
<!-- Generated by graphviz version 2.43.0 (0)
 -->
<!-- Title: HttpRequest::getQuery Pages: 1 -->
<!--zoomable 72 -->
<svg id="main" version="1.1" xmlns="http://www.w3.org/2000/svg" xmlns:xlink="http://www.w3.org/1999/xlink" xml:space="preserve" onload="init(evt)">
<style type="text/css"><![CDATA[
.edge:hover path { stroke: red; }
.edge:hover polygon { stroke: red; fill: red; }
]]></style>
<script type="text/javascript"><![CDATA[
var edges = document.getElementsByTagName('g');
if (edges && edges.length) {
  for (var i=0;i<edges.length;i++) {
    if (edges[i].id.substr(0,4)=='edge') {
      edges[i].setAttribute('class','edge');
    }
  }
}
]]></script>
        <defs>
                <circle id="rim" cx="0" cy="0" r="7"/>
                <circle id="rim2" cx="0" cy="0" r="3.5"/>
                <g id="zoomPlus">
                        <use xlink:href="#rim" fill="#404040">
                                <set attributeName="fill" to="#808080" begin="zoomplus.mouseover" end="zoomplus.mouseout"/>
                        </use>
                        <path d="M-4,0h8M0,-4v8" fill="none" stroke="white" stroke-width="1.5" pointer-events="none"/>
                </g>
                <g id="zoomMin">
                        <use xlink:href="#rim" fill="#404040">
                                <set attributeName="fill" to="#808080" begin="zoomminus.mouseover" end="zoomminus.mouseout"/>
                        </use>
                        <path d="M-4,0h8" fill="none" stroke="white" stroke-width="1.5" pointer-events="none"/>
                </g>
                <g id="dirArrow">
                        <path fill="none" stroke="white" stroke-width="1.5" d="M0,-3.0v7 M-2.5,-0.5L0,-3.0L2.5,-0.5"/>
                </g>
               <g id="resetDef">
                       <use xlink:href="#rim2" fill="#404040">
                               <set attributeName="fill" to="#808080" begin="reset.mouseover" end="reset.mouseout"/>
                       </use>
               </g>
        </defs>

<script type="text/javascript">
var viewWidth = 1895;
var viewHeight = 72;
var sectionId = 'dynsection-10';
</script>
<script xlink:href="svgpan.js"/>
<svg id="graph" class="graph">
<g id="viewport">
<title>HttpRequest::getQuery</title>
<polygon fill="white" stroke="transparent" points="-4,4 -4,-67.5 1891,-67.5 1891,4 -4,4"/>
<!-- Node1 -->
<g id="node1" class="node">
<title>Node1</title>
<g id="a_node1"><a xlink:title=" ">
<polygon fill="#bfbfbf" stroke="black" points="1769,-19.5 1769,-38.5 1887,-38.5 1887,-19.5 1769,-19.5"/>
<text text-anchor="middle" x="1828" y="-26.5" font-family="Helvetica,sans-Serif" font-size="10.00">HttpRequest::getQuery</text>
</a>
</g>
</g>
<!-- Node2 -->
<g id="node2" class="node">
<title>Node2</title>
<g id="a_node2"><a xlink:href="classCgiExecutor.html#ad97592b573c577e6bae11662ec683910" target="_top" xlink:title=" ">
<polygon fill="white" stroke="black" points="1569,-19.5 1569,-38.5 1733,-38.5 1733,-19.5 1569,-19.5"/>
<text text-anchor="middle" x="1651" y="-26.5" font-family="Helvetica,sans-Serif" font-size="10.00">CgiExecutor::prepareEnvironment</text>
</a>
</g>
</g>
<!-- Node1&#45;&gt;Node2 -->
<g id="edge1" class="edge">
<title>Node1&#45;&gt;Node2</title>
<path fill="none" stroke="midnightblue" d="M1758.65,-29C1750.26,-29 1741.63,-29 1733.08,-29"/>
<polygon fill="midnightblue" stroke="midnightblue" points="1758.73,-32.5 1768.73,-29 1758.73,-25.5 1758.73,-32.5"/>
</g>
<!-- Node3 -->
<g id="node3" class="node">
<title>Node3</title>
<g id="a_node3"><a xlink:href="classCgiExecutor.html#a449e349a961449c342e4612d131bda8e" target="_top" xlink:title=" ">
<polygon fill="white" stroke="black" points="1394,-19.5 1394,-38.5 1533,-38.5 1533,-19.5 1394,-19.5"/>
<text text-anchor="middle" x="1463.5" y="-26.5" font-family="Helvetica,sans-Serif" font-size="10.00">CgiExecutor::executeAsync</text>
</a>
</g>
</g>
<!-- Node2&#45;&gt;Node3 -->
<g id="edge2" class="edge">
<title>Node2&#45;&gt;Node3</title>
<path fill="none" stroke="midnightblue" d="M1558.83,-29C1550.22,-29 1541.59,-29 1533.24,-29"/>
<polygon fill="midnightblue" stroke="midnightblue" points="1558.91,-32.5 1568.91,-29 1558.91,-25.5 1558.91,-32.5"/>
</g>
<!-- Node4 -->
<g id="node4" class="node">
<title>Node4</title>
<g id="a_node4"><a xlink:href="classClient.html#a2e0da898af07e89fcfd83fe5a3077256" target="_top" xlink:title=" ">
<polygon fill="white" stroke="black" points="1260,-19.5 1260,-38.5 1358,-38.5 1358,-19.5 1260,-19.5"/>
<text text-anchor="middle" x="1309" y="-26.5" font-family="Helvetica,sans-Serif" font-size="10.00">Client::executeCgi</text>
</a>
</g>
</g>
<!-- Node3&#45;&gt;Node4 -->
<g id="edge3" class="edge">
<title>Node3&#45;&gt;Node4</title>
<path fill="none" stroke="midnightblue" d="M1383.66,-29C1374.99,-29 1366.36,-29 1358.23,-29"/>
<polygon fill="midnightblue" stroke="midnightblue" points="1383.83,-32.5 1393.83,-29 1383.83,-25.5 1383.83,-32.5"/>
</g>
<!-- Node5 -->
<g id="node5" class="node">
<title>Node5</title>
<g id="a_node5"><a xlink:href="classClient.html#a7ce261bf1858a7904f7bb9668188284b" target="_top" xlink:title=" ">
<polygon fill="white" stroke="black" points="1141,-19.5 1141,-38.5 1224,-38.5 1224,-19.5 1141,-19.5"/>
<text text-anchor="middle" x="1182.5" y="-26.5" font-family="Helvetica,sans-Serif" font-size="10.00">Client::startCgi</text>
</a>
</g>
</g>
<!-- Node4&#45;&gt;Node5 -->
<g id="edge4" class="edge">
<title>Node4&#45;&gt;Node5</title>
<path fill="none" stroke="midnightblue" d="M1249.81,-29C1241.16,-29 1232.41,-29 1224.23,-29"/>
<polygon fill="midnightblue" stroke="midnightblue" points="1249.87,-32.5 1259.87,-29 1249.87,-25.5 1249.87,-32.5"/>
</g>
<!-- Node6 -->
<g id="node6" class="node">
<title>Node6</title>
<g id="a_node6"><a xlink:href="classClient.html#ae523ed90bd32b88e539ebdf30746382b" target="_top" xlink:title=" ">
<polygon fill="white" stroke="black" points="992,-19.5 992,-38.5 1105,-38.5 1105,-19.5 992,-19.5"/>
<text text-anchor="middle" x="1048.5" y="-26.5" font-family="Helvetica,sans-Serif" font-size="10.00">Client::dispatchAction</text>
</a>
</g>
</g>
<!-- Node5&#45;&gt;Node6 -->
<g id="edge5" class="edge">
<title>Node5&#45;&gt;Node6</title>
<path fill="none" stroke="midnightblue" d="M1130.57,-29C1122.31,-29 1113.71,-29 1105.34,-29"/>
<polygon fill="midnightblue" stroke="midnightblue" points="1130.82,-32.5 1140.82,-29 1130.82,-25.5 1130.82,-32.5"/>
</g>
<!-- Node7 -->
<g id="node7" class="node">
<title>Node7</title>
<g id="a_node7"><a xlink:href="classClient.html#a419f8f3253d3f71287044e3999a5d600" target="_top" xlink:title=" ">
<polygon fill="white" stroke="black" points="843,-19.5 843,-38.5 956,-38.5 956,-19.5 843,-19.5"/>
<text text-anchor="middle" x="899.5" y="-26.5" font-family="Helvetica,sans-Serif" font-size="10.00">Client::buildResponse</text>
</a>
</g>
</g>
<!-- Node6&#45;&gt;Node7 -->
<g id="edge6" class="edge">
<title>Node6&#45;&gt;Node7</title>
<path fill="none" stroke="midnightblue" d="M981.92,-29C973.32,-29 964.57,-29 956.15,-29"/>
<polygon fill="midnightblue" stroke="midnightblue" points="981.93,-32.5 991.93,-29 981.93,-25.5 981.93,-32.5"/>
</g>
<!-- Node8 -->
<g id="node8" class="node">
<title>Node8</title>
<g id="a_node8"><a xlink:href="classClient.html#abcf615f2514ae7e0266315693e73a31a" target="_top" xlink:title=" ">
<polygon fill="white" stroke="black" points="652,-19.5 652,-38.5 807,-38.5 807,-19.5 652,-19.5"/>
<text text-anchor="middle" x="729.5" y="-26.5" font-family="Helvetica,sans-Serif" font-size="10.00">Client::handleCompleteRequest</text>
</a>
</g>
</g>
<!-- Node7&#45;&gt;Node8 -->
<g id="edge7" class="edge">
<title>Node7&#45;&gt;Node8</title>
<path fill="none" stroke="midnightblue" d="M832.54,-29C824.2,-29 815.62,-29 807.14,-29"/>
<polygon fill="midnightblue" stroke="midnightblue" points="832.56,-32.5 842.56,-29 832.56,-25.5 832.56,-32.5"/>
</g>
<!-- Node9 -->
<g id="node9" class="node">
<title>Node9</title>
<g id="a_node9"><a xlink:href="classClient.html#ac95fe5b24fe5275bd2271bd1ac37596d" target="_top" xlink:title=" ">
<polygon fill="white" stroke="black" points="336,-38.5 336,-57.5 436,-57.5 436,-38.5 336,-38.5"/>
<text text-anchor="middle" x="386" y="-45.5" font-family="Helvetica,sans-Serif" font-size="10.00">Client::handleRead</text>
</a>
</g>
</g>
<!-- Node8&#45;&gt;Node9 -->
<g id="edge8" class="edge">
<title>Node8&#45;&gt;Node9</title>
<path fill="none" stroke="midnightblue" d="M641.61,-33.83C576.51,-37.46 489.78,-42.28 436.2,-45.26"/>
<polygon fill="midnightblue" stroke="midnightblue" points="642.07,-37.31 651.86,-33.26 641.68,-30.32 642.07,-37.31"/>
</g>
<!-- Node12 -->
<g id="node12" class="node">
<title>Node12</title>
<g id="a_node12"><a xlink:href="classClient.html#a950fd2ab8ac20c9be4c5e722344d6fe2" target="_top" xlink:title=" ">
<polygon fill="white" stroke="black" points="491,-0.5 491,-19.5 616,-19.5 616,-0.5 491,-0.5"/>
<text text-anchor="middle" x="553.5" y="-7.5" font-family="Helvetica,sans-Serif" font-size="10.00">Client::processRequests</text>
</a>
</g>
</g>
<!-- Node8&#45;&gt;Node12 -->
<g id="edge11" class="edge">
<title>Node8&#45;&gt;Node12</title>
<path fill="none" stroke="midnightblue" d="M641.81,-19.53C633.17,-18.59 624.52,-17.65 616.22,-16.74"/>
<polygon fill="midnightblue" stroke="midnightblue" points="641.61,-23.03 651.93,-20.64 642.37,-16.07 641.61,-23.03"/>
</g>
<!-- Node10 -->
<g id="node10" class="node">
<title>Node10</title>
<g id="a_node10"><a xlink:href="classServerManager.html#a9f3ca46da9df004286f90902b8daf29d" target="_top" xlink:title=" ">
<polygon fill="white" stroke="black" points="138,-33 138,-63 281,-63 281,-33 138,-33"/>
<text text-anchor="start" x="146" y="-51" font-family="Helvetica,sans-Serif" font-size="10.00">ServerManager::handleClient</text>
<text text-anchor="middle" x="209.5" y="-40" font-family="Helvetica,sans-Serif" font-size="10.00">Event</text>
</a>
</g>
</g>
<!-- Node9&#45;&gt;Node10 -->
<g id="edge9" class="edge">
<title>Node9&#45;&gt;Node10</title>
<path fill="none" stroke="midnightblue" d="M325.69,-48C311.33,-48 295.84,-48 281.02,-48"/>
<polygon fill="midnightblue" stroke="midnightblue" points="325.93,-51.5 335.93,-48 325.93,-44.5 325.93,-51.5"/>
</g>
<!-- Node11 -->
<g id="node11" class="node">
<title>Node11</title>
<g id="a_node11"><a xlink:href="classServerManager.html#aecc313c9b6afcab92c22269b3333c721" target="_top" xlink:title=" ">
<polygon fill="white" stroke="black" points="0,-38.5 0,-57.5 102,-57.5 102,-38.5 0,-38.5"/>
<text text-anchor="middle" x="51" y="-45.5" font-family="Helvetica,sans-Serif" font-size="10.00">ServerManager::run</text>
</a>
</g>
</g>
<!-- Node10&#45;&gt;Node11 -->
<g id="edge10" class="edge">
<title>Node10&#45;&gt;Node11</title>
<path fill="none" stroke="midnightblue" d="M127.45,-48C118.82,-48 110.23,-48 102.11,-48"/>
<polygon fill="midnightblue" stroke="midnightblue" points="127.58,-51.5 137.58,-48 127.58,-44.5 127.58,-51.5"/>
</g>
<!-- Node12&#45;&gt;Node9 -->
<g id="edge13" class="edge">
<title>Node12&#45;&gt;Node9</title>
<path fill="none" stroke="midnightblue" d="M500.69,-21.9C477.43,-27.24 450.35,-33.45 428.46,-38.48"/>
<polygon fill="midnightblue" stroke="midnightblue" points="501.77,-25.24 510.74,-19.59 500.21,-18.42 501.77,-25.24"/>
</g>
<!-- Node13 -->
<g id="node13" class="node">
<title>Node13</title>
<g id="a_node13"><a xlink:href="classClient.html#a09d6029b60ae8c9773362968e72f2e54" target="_top" xlink:title=" ">
<polygon fill="white" stroke="black" points="317,-0.5 317,-19.5 455,-19.5 455,-0.5 317,-0.5"/>
<text text-anchor="middle" x="386" y="-7.5" font-family="Helvetica,sans-Serif" font-size="10.00">Client::finalizeCgiResponse</text>
</a>
</g>
</g>
<!-- Node12&#45;&gt;Node13 -->
<g id="edge12" class="edge">
<title>Node12&#45;&gt;Node13</title>
<path fill="none" stroke="midnightblue" d="M480.63,-10C472.14,-10 463.5,-10 455.07,-10"/>
<polygon fill="midnightblue" stroke="midnightblue" points="480.87,-13.5 490.87,-10 480.87,-6.5 480.87,-13.5"/>
</g>
</g>
</svg>
        <g id="navigator" transform="translate(0 0)" fill="#404254">
                <rect fill="#f2f5e9" fill-opacity="0.5" stroke="#606060" stroke-width=".5" x="0" y="0" width="60" height="60"/>
                <use id="zoomplus" xlink:href="#zoomPlus" x="17" y="9" onmousedown="handleZoom(evt,'in')"/>
                <use id="zoomminus" xlink:href="#zoomMin" x="42" y="9" onmousedown="handleZoom(evt,'out')"/>
                <use id="reset" xlink:href="#resetDef" x="30" y="36" onmousedown="handleReset()"/>
                <g id="arrowUp" xlink:href="#dirArrow" transform="translate(30 24)" onmousedown="handlePan(0,-1)">
                  <use xlink:href="#rim" fill="#404040">
                        <set attributeName="fill" to="#808080" begin="arrowUp.mouseover" end="arrowUp.mouseout"/>
                  </use>
                  <path fill="none" stroke="white" stroke-width="1.5" d="M0,-3.0v7 M-2.5,-0.5L0,-3.0L2.5,-0.5"/>
                </g>
                <g id="arrowRight" xlink:href="#dirArrow" transform="rotate(90) translate(36 -43)" onmousedown="handlePan(1,0)">
                  <use xlink:href="#rim" fill="#404040">
                        <set attributeName="fill" to="#808080" begin="arrowRight.mouseover" end="arrowRight.mouseout"/>
                  </use>
                  <path fill="none" stroke="white" stroke-width="1.5" d="M0,-3.0v7 M-2.5,-0.5L0,-3.0L2.5,-0.5"/>
                </g>
                <g id="arrowDown" xlink:href="#dirArrow" transform="rotate(180) translate(-30 -48)" onmousedown="handlePan(0,1)">
                  <use xlink:href="#rim" fill="#404040">
                        <set attributeName="fill" to="#808080" begin="arrowDown.mouseover" end="arrowDown.mouseout"/>
                  </use>
                  <path fill="none" stroke="white" stroke-width="1.5" d="M0,-3.0v7 M-2.5,-0.5L0,-3.0L2.5,-0.5"/>
                </g>
                <g id="arrowLeft" xlink:href="#dirArrow" transform="rotate(270) translate(-36 17)" onmousedown="handlePan(-1,0)">
                  <use xlink:href="#rim" fill="#404040">
                        <set attributeName="fill" to="#808080" begin="arrowLeft.mouseover" end="arrowLeft.mouseout"/>
                  </use>
                  <path fill="none" stroke="white" stroke-width="1.5" d="M0,-3.0v7 M-2.5,-0.5L0,-3.0L2.5,-0.5"/>
                </g>
        </g>
        <svg viewBox="0 0 15 15" width="100%" height="30px" preserveAspectRatio="xMaxYMin meet">
         <g id="arrow_out" transform="scale(0.3 0.3)">
          <a xlink:href="classHttpRequest_a579bc045f297b854a798e6a2d21b9502_icgraph_org.svg" target="_base">
           <rect id="button" ry="5" rx="5" y="6" x="6" height="38" width="38"
                fill="#f2f5e9" fill-opacity="0.5" stroke="#606060" stroke-width="1.0"/>
           <path id="arrow"
             d="M 11.500037,31.436501 C 11.940474,20.09759 22.043105,11.32322 32.158766,21.979434 L 37.068811,17.246167 C 37.068811,17.246167 37.088388,32 37.088388,32 L 22.160133,31.978069 C 22.160133,31.978069 26.997745,27.140456 26.997745,27.140456 C 18.528582,18.264221 13.291696,25.230495 11.500037,31.436501 z"
             style="fill:#404040;"/>
          </a>
         </g>
        </svg>
</svg>
