<?xml version="1.0" encoding="UTF-8" standalone="no"?>
<!DOCTYPE svg PUBLIC "-//W3C//DTD SVG 1.1//EN"
 "http://www.w3.org/Graphics/SVG/1.1/DTD/svg11.dtd">
<!-- Generated by graphviz version 2.43.0 (0)
 -->
<!-- Title: ConfigParser::parseAllServerBlocks Pages: 1 -->
<!--zoomable 888 -->
<svg id="main" version="1.1" xmlns="http://www.w3.org/2000/svg" xmlns:xlink="http://www.w3.org/1999/xlink" xml:space="preserve" onload="init(evt)">
<style type="text/css"><![CDATA[
.edge:hover path { stroke: red; }
.edge:hover polygon { stroke: red; fill: red; }
]]></style>
<script type="text/javascript"><![CDATA[
var edges = document.getElementsByTagName('g');
if (edges && edges.length) {
  for (var i=0;i<edges.length;i++) {
    if (edges[i].id.substr(0,4)=='edge') {
      edges[i].setAttribute('class','edge');
    }
  }
}
]]></script>
        <defs>
                <circle id="rim" cx="0" cy="0" r="7"/>
                <circle id="rim2" cx="0" cy="0" r="3.5"/>
                <g id="zoomPlus">
                        <use xlink:href="#rim" fill="#404040">
                                <set attributeName="fill" to="#808080" begin="zoomplus.mouseover" end="zoomplus.mouseout"/>
                        </use>
                        <path d="M-4,0h8M0,-4v8" fill="none" stroke="white" stroke-width="1.5" pointer-events="none"/>
                </g>
                <g id="zoomMin">
                        <use xlink:href="#rim" fill="#404040">
                                <set attributeName="fill" to="#808080" begin="zoomminus.mouseover" end="zoomminus.mouseout"/>
                        </use>
                        <path d="M-4,0h8" fill="none" stroke="white" stroke-width="1.5" pointer-events="none"/>
                </g>
                <g id="dirArrow">
                        <path fill="none" stroke="white" stroke-width="1.5" d="M0,-3.0v7 M-2.5,-0.5L0,-3.0L2.5,-0.5"/>
                </g>
               <g id="resetDef">
                       <use xlink:href="#rim2" fill="#404040">
                               <set attributeName="fill" to="#808080" begin="reset.mouseover" end="reset.mouseout"/>
                       </use>
               </g>
        </defs>

<script type="text/javascript">
var viewWidth = 1224;
var viewHeight = 888;
var sectionId = 'dynsection-9';
</script>
<script xlink:href="svgpan.js"/>
<svg id="graph" class="graph">
<g id="viewport">
<title>ConfigParser::parseAllServerBlocks</title>
<polygon fill="white" stroke="transparent" points="-4,4 -4,-884 1220,-884 1220,4 -4,4"/>
<!-- Node1 -->
<g id="node1" class="node">
<title>Node1</title>
<g id="a_node1"><a xlink:title=" ">
<polygon fill="#bfbfbf" stroke="black" points="0,-627 0,-657 143,-657 143,-627 0,-627"/>
<text text-anchor="start" x="8" y="-645" font-family="Helvetica,sans-Serif" font-size="10.00">ConfigParser::parseAllServer</text>
<text text-anchor="middle" x="71.5" y="-634" font-family="Helvetica,sans-Serif" font-size="10.00">Blocks</text>
</a>
</g>
</g>
<!-- Node2 -->
<g id="node2" class="node">
<title>Node2</title>
<g id="a_node2"><a xlink:href="classConfigParser.html#a787a614f759e68dcd7ae0595df9b73e1" target="_top" xlink:title=" ">
<polygon fill="white" stroke="black" points="179,-627 179,-657 310,-657 310,-627 179,-627"/>
<text text-anchor="start" x="187" y="-645" font-family="Helvetica,sans-Serif" font-size="10.00">ConfigParser::parseSingle</text>
<text text-anchor="middle" x="244.5" y="-634" font-family="Helvetica,sans-Serif" font-size="10.00">ServerBlock</text>
</a>
</g>
</g>
<!-- Node1&#45;&gt;Node2 -->
<g id="edge1" class="edge">
<title>Node1&#45;&gt;Node2</title>
<path fill="none" stroke="midnightblue" d="M143.04,-642C151.48,-642 160.11,-642 168.61,-642"/>
<polygon fill="midnightblue" stroke="midnightblue" points="168.88,-645.5 178.88,-642 168.88,-638.5 168.88,-645.5"/>
</g>
<!-- Node3 -->
<g id="node3" class="node">
<title>Node3</title>
<g id="a_node3"><a xlink:href="classConfigParser.html#a586b651c9d22c24a5b3b4602819a7031" target="_top" xlink:title=" ">
<polygon fill="white" stroke="black" points="551.5,-784.5 551.5,-803.5 698.5,-803.5 698.5,-784.5 551.5,-784.5"/>
<text text-anchor="middle" x="625" y="-791.5" font-family="Helvetica,sans-Serif" font-size="10.00">ConfigParser::parseErrorPage</text>
</a>
</g>
</g>
<!-- Node2&#45;&gt;Node3 -->
<g id="edge2" class="edge">
<title>Node2&#45;&gt;Node3</title>
<path fill="none" stroke="midnightblue" d="M252.9,-657.35C266.87,-684.42 299.89,-740.12 346,-765 405.72,-797.23 483.16,-802.9 541.13,-801.41"/>
<polygon fill="midnightblue" stroke="midnightblue" points="541.48,-804.9 551.36,-801.07 541.25,-797.9 541.48,-804.9"/>
</g>
<!-- Node6 -->
<g id="node6" class="node">
<title>Node6</title>
<g id="a_node6"><a xlink:href="classConfigParser.html#a53634b014cd0c6419ecf857b20b9a0ba" target="_top" xlink:title=" ">
<polygon fill="white" stroke="black" points="562.5,-860.5 562.5,-879.5 687.5,-879.5 687.5,-860.5 562.5,-860.5"/>
<text text-anchor="middle" x="625" y="-867.5" font-family="Helvetica,sans-Serif" font-size="10.00">ConfigParser::parseHost</text>
</a>
</g>
</g>
<!-- Node2&#45;&gt;Node6 -->
<g id="edge5" class="edge">
<title>Node2&#45;&gt;Node6</title>
<path fill="none" stroke="midnightblue" d="M248.5,-657.03C256.72,-693.94 283.32,-789.25 346,-833 406.2,-875.02 491.92,-880.38 552.22,-877.68"/>
<polygon fill="midnightblue" stroke="midnightblue" points="552.62,-881.17 562.42,-877.14 552.25,-874.18 552.62,-881.17"/>
</g>
<!-- Node11 -->
<g id="node11" class="node">
<title>Node11</title>
<g id="a_node11"><a xlink:href="classConfigParser.html#a75b7302fd3f4fbbb22306335f8d3706b" target="_top" xlink:title=" ">
<polygon fill="white" stroke="black" points="361,-736.5 361,-755.5 489,-755.5 489,-736.5 361,-736.5"/>
<text text-anchor="middle" x="425" y="-743.5" font-family="Helvetica,sans-Serif" font-size="10.00">ConfigParser::parseIndex</text>
</a>
</g>
</g>
<!-- Node2&#45;&gt;Node11 -->
<g id="edge11" class="edge">
<title>Node2&#45;&gt;Node11</title>
<path fill="none" stroke="midnightblue" d="M262.19,-657.17C281.29,-673.89 314.06,-700.72 346,-718 356.87,-723.89 369.24,-728.97 380.86,-733.14"/>
<polygon fill="midnightblue" stroke="midnightblue" points="379.81,-736.48 390.41,-736.42 382.09,-729.86 379.81,-736.48"/>
</g>
<!-- Node12 -->
<g id="node12" class="node">
<title>Node12</title>
<g id="a_node12"><a xlink:href="classConfigParser.html#a5334f5b1843097862ae150b653001674" target="_top" xlink:title=" ">
<polygon fill="white" stroke="black" points="560,-822.5 560,-841.5 690,-841.5 690,-822.5 560,-822.5"/>
<text text-anchor="middle" x="625" y="-829.5" font-family="Helvetica,sans-Serif" font-size="10.00">ConfigParser::parseListen</text>
</a>
</g>
</g>
<!-- Node2&#45;&gt;Node12 -->
<g id="edge13" class="edge">
<title>Node2&#45;&gt;Node12</title>
<path fill="none" stroke="midnightblue" d="M250.32,-657.18C261.39,-689.32 291.96,-764.11 346,-798 406.94,-836.22 490.29,-841.62 549.79,-839.37"/>
<polygon fill="midnightblue" stroke="midnightblue" points="550.04,-842.86 559.87,-838.91 549.72,-835.87 550.04,-842.86"/>
</g>
<!-- Node13 -->
<g id="node13" class="node">
<title>Node13</title>
<g id="a_node13"><a xlink:href="classConfigParser.html#a497afc5807db6d7f6092609c62cdd7ad" target="_top" xlink:title=" ">
<polygon fill="white" stroke="black" points="355,-330 355,-360 495,-360 495,-330 355,-330"/>
<text text-anchor="start" x="363" y="-348" font-family="Helvetica,sans-Serif" font-size="10.00">ConfigParser::parseLocation</text>
<text text-anchor="middle" x="425" y="-337" font-family="Helvetica,sans-Serif" font-size="10.00">Block</text>
</a>
</g>
</g>
<!-- Node2&#45;&gt;Node13 -->
<g id="edge17" class="edge">
<title>Node2&#45;&gt;Node13</title>
<path fill="none" stroke="midnightblue" d="M254.6,-626.86C283.66,-578.5 374.44,-427.46 409.75,-368.71"/>
<polygon fill="midnightblue" stroke="midnightblue" points="412.77,-370.48 414.92,-360.11 406.77,-366.87 412.77,-370.48"/>
</g>
<!-- Node22 -->
<g id="node22" class="node">
<title>Node22</title>
<g id="a_node22"><a xlink:href="classConfigParser.html#a9b725718db54abd627b37d021acf726e" target="_top" xlink:title=" ">
<polygon fill="white" stroke="black" points="543,-632.5 543,-651.5 707,-651.5 707,-632.5 543,-632.5"/>
<text text-anchor="middle" x="625" y="-639.5" font-family="Helvetica,sans-Serif" font-size="10.00">ConfigParser::parseMaxSizeBody</text>
</a>
</g>
</g>
<!-- Node2&#45;&gt;Node22 -->
<g id="edge51" class="edge">
<title>Node2&#45;&gt;Node22</title>
<path fill="none" stroke="midnightblue" d="M310.14,-642C371.29,-642 463.69,-642 532.42,-642"/>
<polygon fill="midnightblue" stroke="midnightblue" points="532.81,-645.5 542.81,-642 532.81,-638.5 532.81,-645.5"/>
</g>
<!-- Node34 -->
<g id="node34" class="node">
<title>Node34</title>
<g id="a_node34"><a xlink:href="namespaceconfig_1_1utils.html#a6384148b35b446c955109acf939c872f" target="_top" xlink:title="Splits a line into tokens by whitespace.">
<polygon fill="white" stroke="black" points="570,-76.5 570,-95.5 680,-95.5 680,-76.5 570,-76.5"/>
<text text-anchor="middle" x="625" y="-83.5" font-family="Helvetica,sans-Serif" font-size="10.00">config::utils::tokenize</text>
</a>
</g>
</g>
<!-- Node2&#45;&gt;Node34 -->
<g id="edge58" class="edge">
<title>Node2&#45;&gt;Node34</title>
<path fill="none" stroke="midnightblue" d="M246.88,-626.74C251.98,-577.75 273.35,-421.76 346,-320 396.62,-249.1 451.76,-273.71 504,-204 532.08,-166.53 504.87,-135.95 540,-105 545.71,-99.97 552.46,-96.19 559.63,-93.36"/>
<polygon fill="midnightblue" stroke="midnightblue" points="561.19,-96.53 569.59,-90.06 558.99,-89.88 561.19,-96.53"/>
</g>
<!-- Node35 -->
<g id="node35" class="node">
<title>Node35</title>
<g id="a_node35"><a xlink:href="namespaceconfig_1_1utils.html#a03d47ec69fc7beb981a8635fae2f6f49" target="_top" xlink:title="Trims leading and trailing whitespace from a line.">
<polygon fill="white" stroke="black" points="571.5,-38.5 571.5,-57.5 678.5,-57.5 678.5,-38.5 571.5,-38.5"/>
<text text-anchor="middle" x="625" y="-45.5" font-family="Helvetica,sans-Serif" font-size="10.00">config::utils::trimLine</text>
</a>
</g>
</g>
<!-- Node2&#45;&gt;Node35 -->
<g id="edge59" class="edge">
<title>Node2&#45;&gt;Node35</title>
<path fill="none" stroke="midnightblue" d="M245.23,-626.91C244.89,-567.57 250.4,-346.55 346,-204 404.79,-116.33 443.56,-109.91 540,-67 546.84,-63.96 554.22,-61.38 561.66,-59.2"/>
<polygon fill="midnightblue" stroke="midnightblue" points="562.7,-62.54 571.44,-56.55 560.87,-55.78 562.7,-62.54"/>
</g>
<!-- Node36 -->
<g id="node36" class="node">
<title>Node36</title>
<g id="a_node36"><a xlink:href="classConfigParser.html#a26cc4c7c7e974575710bde0f7f9e1135" target="_top" xlink:title=" ">
<polygon fill="white" stroke="black" points="540,-0.5 540,-19.5 710,-19.5 710,-0.5 540,-0.5"/>
<text text-anchor="middle" x="625" y="-7.5" font-family="Helvetica,sans-Serif" font-size="10.00">ConfigParser::validateDirectiveLine</text>
</a>
</g>
</g>
<!-- Node2&#45;&gt;Node36 -->
<g id="edge60" class="edge">
<title>Node2&#45;&gt;Node36</title>
<path fill="none" stroke="midnightblue" d="M246.07,-626.82C249.43,-545.62 269.2,-163.22 346,-80 392.28,-29.85 468.74,-13.34 529.77,-8.82"/>
<polygon fill="midnightblue" stroke="midnightblue" points="530.06,-12.31 539.81,-8.18 529.61,-5.33 530.06,-12.31"/>
</g>
<!-- Node37 -->
<g id="node37" class="node">
<title>Node37</title>
<g id="a_node37"><a xlink:href="classConfigParser.html#a8b154ff32d31129037f006c0776bd05f" target="_top" xlink:title=" ">
<polygon fill="white" stroke="black" points="562.5,-518.5 562.5,-537.5 687.5,-537.5 687.5,-518.5 562.5,-518.5"/>
<text text-anchor="middle" x="625" y="-525.5" font-family="Helvetica,sans-Serif" font-size="10.00">ConfigParser::parseRoot</text>
</a>
</g>
</g>
<!-- Node2&#45;&gt;Node37 -->
<g id="edge52" class="edge">
<title>Node2&#45;&gt;Node37</title>
<path fill="none" stroke="midnightblue" d="M288.06,-626.94C345,-607.1 449.32,-571.83 540,-547 549.2,-544.48 559.04,-542.04 568.62,-539.79"/>
<polygon fill="midnightblue" stroke="midnightblue" points="569.52,-543.17 578.48,-537.52 567.95,-536.35 569.52,-543.17"/>
</g>
<!-- Node38 -->
<g id="node38" class="node">
<title>Node38</title>
<g id="a_node38"><a xlink:href="classConfigParser.html#a6df5ea64005edb4d851839a3b6e6b0df" target="_top" xlink:title=" ">
<polygon fill="white" stroke="black" points="346,-689.5 346,-708.5 504,-708.5 504,-689.5 346,-689.5"/>
<text text-anchor="middle" x="425" y="-696.5" font-family="Helvetica,sans-Serif" font-size="10.00">ConfigParser::parseServerName</text>
</a>
</g>
</g>
<!-- Node2&#45;&gt;Node38 -->
<g id="edge56" class="edge">
<title>Node2&#45;&gt;Node38</title>
<path fill="none" stroke="midnightblue" d="M292.87,-657.13C321.47,-666.26 357.51,-677.77 384.56,-686.41"/>
<polygon fill="midnightblue" stroke="midnightblue" points="383.5,-689.74 394.09,-689.45 385.63,-683.07 383.5,-689.74"/>
</g>
<!-- Node4 -->
<g id="node4" class="node">
<title>Node4</title>
<g id="a_node4"><a xlink:href="namespaceconfig_1_1utils.html#a4c504c996325f8d62e08d878b037e975" target="_top" xlink:title="Removes the trailing semicolon from a string if present.">
<polygon fill="white" stroke="black" points="751,-730.5 751,-749.5 902,-749.5 902,-730.5 751,-730.5"/>
<text text-anchor="middle" x="826.5" y="-737.5" font-family="Helvetica,sans-Serif" font-size="10.00">config::utils::removeSemicolon</text>
</a>
</g>
</g>
<!-- Node3&#45;&gt;Node4 -->
<g id="edge3" class="edge">
<title>Node3&#45;&gt;Node4</title>
<path fill="none" stroke="midnightblue" d="M661.21,-784.47C694.44,-775.48 744.42,-761.95 780.52,-752.18"/>
<polygon fill="midnightblue" stroke="midnightblue" points="781.57,-755.52 790.31,-749.53 779.74,-748.76 781.57,-755.52"/>
</g>
<!-- Node5 -->
<g id="node5" class="node">
<title>Node5</title>
<g id="a_node5"><a xlink:href="namespaceconfig_1_1utils.html#a0ff3e01dad8856ae9244e96ef9e95b99" target="_top" xlink:title="Converts a string to an integer.">
<polygon fill="white" stroke="black" points="767,-784.5 767,-803.5 886,-803.5 886,-784.5 767,-784.5"/>
<text text-anchor="middle" x="826.5" y="-791.5" font-family="Helvetica,sans-Serif" font-size="10.00">config::utils::stringToInt</text>
</a>
</g>
</g>
<!-- Node3&#45;&gt;Node5 -->
<g id="edge4" class="edge">
<title>Node3&#45;&gt;Node5</title>
<path fill="none" stroke="midnightblue" d="M698.59,-794C717.48,-794 737.78,-794 756.49,-794"/>
<polygon fill="midnightblue" stroke="midnightblue" points="756.7,-797.5 766.7,-794 756.7,-790.5 756.7,-797.5"/>
</g>
<!-- Node6&#45;&gt;Node4 -->
<g id="edge10" class="edge">
<title>Node6&#45;&gt;Node4</title>
<path fill="none" stroke="midnightblue" d="M687.73,-862.92C695.77,-860.09 703.47,-856.24 710,-851 739.17,-827.63 719.21,-801.06 746,-775 755.55,-765.71 767.98,-758.66 780.17,-753.41"/>
<polygon fill="midnightblue" stroke="midnightblue" points="781.82,-756.52 789.83,-749.59 779.24,-750.02 781.82,-756.52"/>
</g>
<!-- Node7 -->
<g id="node7" class="node">
<title>Node7</title>
<g id="a_node7"><a xlink:href="namespaceconfig_1_1utils.html#ab2e0db706cadd8f620668e8aa9ea1644" target="_top" xlink:title="Validates a host string (either IPv4 or hostname)">
<polygon fill="white" stroke="black" points="765.5,-841.5 765.5,-860.5 887.5,-860.5 887.5,-841.5 765.5,-841.5"/>
<text text-anchor="middle" x="826.5" y="-848.5" font-family="Helvetica,sans-Serif" font-size="10.00">config::utils::isValidHost</text>
</a>
</g>
</g>
<!-- Node6&#45;&gt;Node7 -->
<g id="edge6" class="edge">
<title>Node6&#45;&gt;Node7</title>
<path fill="none" stroke="midnightblue" d="M687.76,-864.12C709.19,-862.08 733.38,-859.77 755.44,-857.67"/>
<polygon fill="midnightblue" stroke="midnightblue" points="755.78,-861.16 765.4,-856.72 755.12,-854.19 755.78,-861.16"/>
</g>
<!-- Node8 -->
<g id="node8" class="node">
<title>Node8</title>
<g id="a_node8"><a xlink:href="namespaceconfig_1_1utils.html#abccb78e02eed9bea1836a7aa96acf8f7" target="_top" xlink:title="Validates hostname format following RFC 952 and RFC 1123.">
<polygon fill="white" stroke="black" points="943,-860.5 943,-879.5 1089,-879.5 1089,-860.5 943,-860.5"/>
<text text-anchor="middle" x="1016" y="-867.5" font-family="Helvetica,sans-Serif" font-size="10.00">config::utils::isValidHostname</text>
</a>
</g>
</g>
<!-- Node7&#45;&gt;Node8 -->
<g id="edge7" class="edge">
<title>Node7&#45;&gt;Node8</title>
<path fill="none" stroke="midnightblue" d="M887.6,-857.09C901.87,-858.54 917.35,-860.1 932.43,-861.63"/>
<polygon fill="midnightblue" stroke="midnightblue" points="932.48,-865.16 942.79,-862.68 933.19,-858.19 932.48,-865.16"/>
</g>
<!-- Node9 -->
<g id="node9" class="node">
<title>Node9</title>
<g id="a_node9"><a xlink:href="namespaceconfig_1_1utils.html#a36374aff9046ea2a3e8af894f939c215" target="_top" xlink:title="Validates an IPv4 address string.">
<polygon fill="white" stroke="black" points="955,-822.5 955,-841.5 1077,-841.5 1077,-822.5 955,-822.5"/>
<text text-anchor="middle" x="1016" y="-829.5" font-family="Helvetica,sans-Serif" font-size="10.00">config::utils::isValidIPv4</text>
</a>
</g>
</g>
<!-- Node7&#45;&gt;Node9 -->
<g id="edge8" class="edge">
<title>Node7&#45;&gt;Node9</title>
<path fill="none" stroke="midnightblue" d="M887.6,-844.91C905.85,-843.06 926.06,-841.01 944.91,-839.1"/>
<polygon fill="midnightblue" stroke="midnightblue" points="945.32,-842.58 954.92,-838.09 944.62,-835.61 945.32,-842.58"/>
</g>
<!-- Node10 -->
<g id="node10" class="node">
<title>Node10</title>
<g id="a_node10"><a xlink:href="namespaceconfig_1_1utils.html#a86bd730a60ae105179738c895a3a398b" target="_top" xlink:title="Splits a string by a delimiter into a vector.">
<polygon fill="white" stroke="black" points="1125,-822.5 1125,-841.5 1216,-841.5 1216,-822.5 1125,-822.5"/>
<text text-anchor="middle" x="1170.5" y="-829.5" font-family="Helvetica,sans-Serif" font-size="10.00">config::utils::split</text>
</a>
</g>
</g>
<!-- Node9&#45;&gt;Node10 -->
<g id="edge9" class="edge">
<title>Node9&#45;&gt;Node10</title>
<path fill="none" stroke="midnightblue" d="M1077.27,-832C1089.51,-832 1102.32,-832 1114.36,-832"/>
<polygon fill="midnightblue" stroke="midnightblue" points="1114.72,-835.5 1124.72,-832 1114.72,-828.5 1114.72,-835.5"/>
</g>
<!-- Node11&#45;&gt;Node4 -->
<g id="edge12" class="edge">
<title>Node11&#45;&gt;Node4</title>
<path fill="none" stroke="midnightblue" d="M489.3,-745.05C557.17,-744.03 665.31,-742.41 740.55,-741.28"/>
<polygon fill="midnightblue" stroke="midnightblue" points="740.99,-744.77 750.94,-741.12 740.89,-737.77 740.99,-744.77"/>
</g>
<!-- Node12&#45;&gt;Node4 -->
<g id="edge15" class="edge">
<title>Node12&#45;&gt;Node4</title>
<path fill="none" stroke="midnightblue" d="M688.14,-822.36C695.77,-819.91 703.24,-816.85 710,-813 730.22,-801.49 726.98,-788.4 746,-775 758.4,-766.27 773.33,-758.99 786.89,-753.38"/>
<polygon fill="midnightblue" stroke="midnightblue" points="788.45,-756.52 796.46,-749.59 785.87,-750.02 788.45,-756.52"/>
</g>
<!-- Node12&#45;&gt;Node5 -->
<g id="edge16" class="edge">
<title>Node12&#45;&gt;Node5</title>
<path fill="none" stroke="midnightblue" d="M676.08,-822.46C703.24,-817.29 736.99,-810.86 765.53,-805.42"/>
<polygon fill="midnightblue" stroke="midnightblue" points="766.23,-808.85 775.39,-803.54 764.92,-801.98 766.23,-808.85"/>
</g>
<!-- Node12&#45;&gt;Node7 -->
<g id="edge14" class="edge">
<title>Node12&#45;&gt;Node7</title>
<path fill="none" stroke="midnightblue" d="M690.22,-838.12C710.97,-840.09 734.09,-842.29 755.25,-844.31"/>
<polygon fill="midnightblue" stroke="midnightblue" points="755.18,-847.82 765.47,-845.28 755.84,-840.85 755.18,-847.82"/>
</g>
<!-- Node13&#45;&gt;Node4 -->
<g id="edge43" class="edge">
<title>Node13&#45;&gt;Node4</title>
<path fill="none" stroke="midnightblue" d="M426.76,-360.16C430.13,-410.82 448.01,-575.79 540,-661 597.51,-714.27 635.3,-684.23 710,-708 726.21,-713.16 729.7,-716.13 746,-721 754.21,-723.45 762.97,-725.81 771.56,-727.97"/>
<polygon fill="midnightblue" stroke="midnightblue" points="770.98,-731.43 781.53,-730.42 772.65,-724.64 770.98,-731.43"/>
</g>
<!-- Node14 -->
<g id="node14" class="node">
<title>Node14</title>
<g id="a_node14"><a xlink:href="classLocationConfig.html#ae3ad891e98d42da2cb0a9a3149d44bd3" target="_top" xlink:title=" ">
<polygon fill="white" stroke="black" points="561,-430.5 561,-449.5 689,-449.5 689,-430.5 561,-430.5"/>
<text text-anchor="middle" x="625" y="-437.5" font-family="Helvetica,sans-Serif" font-size="10.00">LocationConfig::addIndex</text>
</a>
</g>
</g>
<!-- Node13&#45;&gt;Node14 -->
<g id="edge18" class="edge">
<title>Node13&#45;&gt;Node14</title>
<path fill="none" stroke="midnightblue" d="M444.13,-360.18C465.66,-377.44 503.27,-405.25 540,-421 545.86,-423.51 552.1,-425.72 558.43,-427.65"/>
<polygon fill="midnightblue" stroke="midnightblue" points="557.84,-431.11 568.41,-430.45 559.73,-424.38 557.84,-431.11"/>
</g>
<!-- Node15 -->
<g id="node15" class="node">
<title>Node15</title>
<g id="a_node15"><a xlink:href="classLocationConfig.html#a893870402bc9e072c1a9e05c4a428902" target="_top" xlink:title=" ">
<polygon fill="white" stroke="black" points="557,-392.5 557,-411.5 693,-411.5 693,-392.5 557,-392.5"/>
<text text-anchor="middle" x="625" y="-399.5" font-family="Helvetica,sans-Serif" font-size="10.00">LocationConfig::addMethod</text>
</a>
</g>
</g>
<!-- Node13&#45;&gt;Node15 -->
<g id="edge19" class="edge">
<title>Node13&#45;&gt;Node15</title>
<path fill="none" stroke="midnightblue" d="M477.92,-360.07C497.38,-365.71 519.7,-372.16 540,-378 553.24,-381.81 567.66,-385.94 580.76,-389.68"/>
<polygon fill="midnightblue" stroke="midnightblue" points="579.9,-393.07 590.47,-392.45 581.82,-386.34 579.9,-393.07"/>
</g>
<!-- Node16 -->
<g id="node16" class="node">
<title>Node16</title>
<g id="a_node16"><a xlink:href="classConfigParser.html#a84e1b9e32f9be2aee1bff8a78c8c0f67" target="_top" xlink:title="Returns the directory part of the config file path.">
<polygon fill="white" stroke="black" points="755,-490.5 755,-509.5 898,-509.5 898,-490.5 755,-490.5"/>
<text text-anchor="middle" x="826.5" y="-497.5" font-family="Helvetica,sans-Serif" font-size="10.00">ConfigParser::getConfFileDir</text>
</a>
</g>
</g>
<!-- Node13&#45;&gt;Node16 -->
<g id="edge20" class="edge">
<title>Node13&#45;&gt;Node16</title>
<path fill="none" stroke="midnightblue" d="M495.01,-346.22C568.27,-348.89 677.84,-357.21 710,-383 746.2,-412.03 711.32,-450.17 746,-481 747.77,-482.57 749.64,-484.02 751.6,-485.35"/>
<polygon fill="midnightblue" stroke="midnightblue" points="750.24,-488.6 760.67,-490.49 753.69,-482.51 750.24,-488.6"/>
</g>
<!-- Node17 -->
<g id="node17" class="node">
<title>Node17</title>
<g id="a_node17"><a xlink:href="namespaceconfig_1_1utils.html#a1499ac2a3ac27374a055baf36e2eb5ba" target="_top" xlink:title="Validates an HTTP method string.">
<polygon fill="white" stroke="black" points="565,-267 565,-297 685,-297 685,-267 565,-267"/>
<text text-anchor="start" x="573" y="-285" font-family="Helvetica,sans-Serif" font-size="10.00">config::utils::isValidHttp</text>
<text text-anchor="middle" x="625" y="-274" font-family="Helvetica,sans-Serif" font-size="10.00">Method</text>
</a>
</g>
</g>
<!-- Node13&#45;&gt;Node17 -->
<g id="edge21" class="edge">
<title>Node13&#45;&gt;Node17</title>
<path fill="none" stroke="midnightblue" d="M473.17,-329.99C501.33,-321.03 537.28,-309.59 567.02,-300.13"/>
<polygon fill="midnightblue" stroke="midnightblue" points="568.38,-303.37 576.84,-297 566.25,-296.7 568.38,-303.37"/>
</g>
<!-- Node18 -->
<g id="node18" class="node">
<title>Node18</title>
<g id="a_node18"><a xlink:href="namespaceconfig_1_1utils.html#a335000e49ff4c427a4e56c9953f8f166" target="_top" xlink:title="Validates a location path string.">
<polygon fill="white" stroke="black" points="546,-228.5 546,-247.5 704,-247.5 704,-228.5 546,-228.5"/>
<text text-anchor="middle" x="625" y="-235.5" font-family="Helvetica,sans-Serif" font-size="10.00">config::utils::isValidLocationPath</text>
</a>
</g>
</g>
<!-- Node13&#45;&gt;Node18 -->
<g id="edge22" class="edge">
<title>Node13&#45;&gt;Node18</title>
<path fill="none" stroke="midnightblue" d="M449.88,-329.83C465.67,-319.46 486.6,-305.11 504,-291 521.1,-277.14 520.58,-267.35 540,-257 544.31,-254.7 548.89,-252.68 553.59,-250.91"/>
<polygon fill="midnightblue" stroke="midnightblue" points="555.04,-254.11 563.39,-247.59 552.79,-247.48 555.04,-254.11"/>
</g>
<!-- Node19 -->
<g id="node19" class="node">
<title>Node19</title>
<g id="a_node19"><a xlink:href="classConfigParser.html#a7ab80fb3ce52414448d41df88f94400a" target="_top" xlink:title=" ">
<polygon fill="white" stroke="black" points="565.5,-556.5 565.5,-575.5 684.5,-575.5 684.5,-556.5 565.5,-556.5"/>
<text text-anchor="middle" x="625" y="-563.5" font-family="Helvetica,sans-Serif" font-size="10.00">ConfigParser::parseCgi</text>
</a>
</g>
</g>
<!-- Node13&#45;&gt;Node19 -->
<g id="edge23" class="edge">
<title>Node13&#45;&gt;Node19</title>
<path fill="none" stroke="midnightblue" d="M429.96,-360.27C440.67,-398.32 473.93,-497.84 540,-547 544.76,-550.55 550.07,-553.45 555.64,-555.82"/>
<polygon fill="midnightblue" stroke="midnightblue" points="554.61,-559.17 565.21,-559.34 557.03,-552.6 554.61,-559.17"/>
</g>
<!-- Node21 -->
<g id="node21" class="node">
<title>Node21</title>
<g id="a_node21"><a xlink:href="namespaceconfig_1_1utils.html#ab47e6d08957f3aa61a7e2a31c5e8d77f" target="_top" xlink:title="Converts a possibly relative path to absolute.">
<polygon fill="white" stroke="black" points="756.5,-452.5 756.5,-471.5 896.5,-471.5 896.5,-452.5 756.5,-452.5"/>
<text text-anchor="middle" x="826.5" y="-459.5" font-family="Helvetica,sans-Serif" font-size="10.00">config::utils::toAbsolutePath</text>
</a>
</g>
</g>
<!-- Node13&#45;&gt;Node21 -->
<g id="edge47" class="edge">
<title>Node13&#45;&gt;Node21</title>
<path fill="none" stroke="midnightblue" d="M477.89,-329.94C539.18,-315.47 641.47,-302.15 710,-350 746.34,-375.37 712.62,-413.84 746,-443 747.78,-444.56 749.67,-445.99 751.63,-447.31"/>
<polygon fill="midnightblue" stroke="midnightblue" points="750.3,-450.57 760.74,-452.41 753.72,-444.47 750.3,-450.57"/>
</g>
<!-- Node13&#45;&gt;Node22 -->
<g id="edge28" class="edge">
<title>Node13&#45;&gt;Node22</title>
<path fill="none" stroke="midnightblue" d="M427.42,-360.15C432.69,-407.12 455.36,-551.42 540,-623 542,-624.69 544.12,-626.24 546.33,-627.65"/>
<polygon fill="midnightblue" stroke="midnightblue" points="544.8,-630.81 555.26,-632.5 548.14,-624.66 544.8,-630.81"/>
</g>
<!-- Node24 -->
<g id="node24" class="node">
<title>Node24</title>
<g id="a_node24"><a xlink:href="classConfigParser.html#a27bff35ad8d26d109518201906023389" target="_top" xlink:title=" ">
<polygon fill="white" stroke="black" points="558.5,-594.5 558.5,-613.5 691.5,-613.5 691.5,-594.5 558.5,-594.5"/>
<text text-anchor="middle" x="625" y="-601.5" font-family="Helvetica,sans-Serif" font-size="10.00">ConfigParser::parseReturn</text>
</a>
</g>
</g>
<!-- Node13&#45;&gt;Node24 -->
<g id="edge31" class="edge">
<title>Node13&#45;&gt;Node24</title>
<path fill="none" stroke="midnightblue" d="M428.51,-360.21C436.38,-402.92 464.73,-524.76 540,-585 542.91,-587.33 546.06,-589.39 549.36,-591.21"/>
<polygon fill="midnightblue" stroke="midnightblue" points="547.89,-594.38 558.43,-595.47 550.86,-588.04 547.89,-594.38"/>
</g>
<!-- Node28 -->
<g id="node28" class="node">
<title>Node28</title>
<g id="a_node28"><a xlink:href="classConfigParser.html#a5e88206a9aca177924981f1567eeaf37" target="_top" xlink:title=" ">
<polygon fill="white" stroke="black" points="558,-469 558,-499 692,-499 692,-469 558,-469"/>
<text text-anchor="start" x="566" y="-487" font-family="Helvetica,sans-Serif" font-size="10.00">ConfigParser::parseUpload</text>
<text text-anchor="middle" x="625" y="-476" font-family="Helvetica,sans-Serif" font-size="10.00">Bonus</text>
</a>
</g>
</g>
<!-- Node13&#45;&gt;Node28 -->
<g id="edge37" class="edge">
<title>Node13&#45;&gt;Node28</title>
<path fill="none" stroke="midnightblue" d="M437.18,-360.33C455.79,-384.76 495.52,-432.5 540,-459 543.6,-461.15 547.4,-463.12 551.32,-464.93"/>
<polygon fill="midnightblue" stroke="midnightblue" points="550.04,-468.2 560.62,-468.88 552.78,-461.75 550.04,-468.2"/>
</g>
<!-- Node31 -->
<g id="node31" class="node">
<title>Node31</title>
<g id="a_node31"><a xlink:href="classLocationConfig.html#aaeba1b59714be158d6c0b0fd64e3580e" target="_top" xlink:title=" ">
<polygon fill="white" stroke="black" points="552,-190.5 552,-209.5 698,-209.5 698,-190.5 552,-190.5"/>
<text text-anchor="middle" x="625" y="-197.5" font-family="Helvetica,sans-Serif" font-size="10.00">LocationConfig::setAutoIndex</text>
</a>
</g>
</g>
<!-- Node13&#45;&gt;Node31 -->
<g id="edge44" class="edge">
<title>Node13&#45;&gt;Node31</title>
<path fill="none" stroke="midnightblue" d="M454.64,-329.94C470.69,-320.43 490.19,-306.93 504,-291 527.44,-263.97 511.84,-241.07 540,-219 542.32,-217.18 544.77,-215.54 547.34,-214.04"/>
<polygon fill="midnightblue" stroke="midnightblue" points="549.02,-217.11 556.4,-209.51 545.89,-210.85 549.02,-217.11"/>
</g>
<!-- Node32 -->
<g id="node32" class="node">
<title>Node32</title>
<g id="a_node32"><a xlink:href="classLocationConfig.html#a36bea47c39135d4119cb3541ee44c78f" target="_top" xlink:title=" ">
<polygon fill="white" stroke="black" points="564,-152.5 564,-171.5 686,-171.5 686,-152.5 564,-152.5"/>
<text text-anchor="middle" x="625" y="-159.5" font-family="Helvetica,sans-Serif" font-size="10.00">LocationConfig::setPath</text>
</a>
</g>
</g>
<!-- Node13&#45;&gt;Node32 -->
<g id="edge45" class="edge">
<title>Node13&#45;&gt;Node32</title>
<path fill="none" stroke="midnightblue" d="M457.09,-329.79C473.11,-320.55 491.79,-307.37 504,-291 534.75,-249.76 501.96,-215.63 540,-181 544.22,-177.16 549.04,-174.05 554.19,-171.52"/>
<polygon fill="midnightblue" stroke="midnightblue" points="555.85,-174.63 563.78,-167.59 553.2,-168.15 555.85,-174.63"/>
</g>
<!-- Node33 -->
<g id="node33" class="node">
<title>Node33</title>
<g id="a_node33"><a xlink:href="classLocationConfig.html#aaf3cb645a6dbf533e76abbbabe25fd8f" target="_top" xlink:title=" ">
<polygon fill="white" stroke="black" points="564,-114.5 564,-133.5 686,-133.5 686,-114.5 564,-114.5"/>
<text text-anchor="middle" x="625" y="-121.5" font-family="Helvetica,sans-Serif" font-size="10.00">LocationConfig::setRoot</text>
</a>
</g>
</g>
<!-- Node13&#45;&gt;Node33 -->
<g id="edge46" class="edge">
<title>Node13&#45;&gt;Node33</title>
<path fill="none" stroke="midnightblue" d="M458,-329.94C474.07,-320.82 492.53,-307.7 504,-291 542.33,-235.2 491.75,-190.48 540,-143 544.23,-138.83 549.17,-135.5 554.5,-132.85"/>
<polygon fill="midnightblue" stroke="midnightblue" points="555.89,-136.07 563.78,-129 553.2,-129.6 555.89,-136.07"/>
</g>
<!-- Node13&#45;&gt;Node34 -->
<g id="edge48" class="edge">
<title>Node13&#45;&gt;Node34</title>
<path fill="none" stroke="midnightblue" d="M458.71,-329.93C474.79,-320.88 493.02,-307.83 504,-291 550.02,-220.49 481.4,-165.46 540,-105 545.7,-99.12 552.8,-94.89 560.44,-91.87"/>
<polygon fill="midnightblue" stroke="midnightblue" points="561.56,-95.18 569.98,-88.75 559.39,-88.53 561.56,-95.18"/>
</g>
<!-- Node13&#45;&gt;Node35 -->
<g id="edge49" class="edge">
<title>Node13&#45;&gt;Node35</title>
<path fill="none" stroke="midnightblue" d="M435.97,-329.97C452.24,-304.85 484.65,-252.3 504,-204 527.42,-145.56 494.72,-110.74 540,-67 546.11,-61.1 553.64,-56.88 561.66,-53.89"/>
<polygon fill="midnightblue" stroke="midnightblue" points="562.73,-57.23 571.24,-50.92 560.66,-50.54 562.73,-57.23"/>
</g>
<!-- Node13&#45;&gt;Node36 -->
<g id="edge50" class="edge">
<title>Node13&#45;&gt;Node36</title>
<path fill="none" stroke="midnightblue" d="M426.6,-329.67C429.49,-278.48 446.02,-112.01 540,-29 541.73,-27.47 543.56,-26.06 545.46,-24.75"/>
<polygon fill="midnightblue" stroke="midnightblue" points="547.35,-27.71 554.27,-19.69 543.85,-21.64 547.35,-27.71"/>
</g>
<!-- Node19&#45;&gt;Node4 -->
<g id="edge26" class="edge">
<title>Node19&#45;&gt;Node4</title>
<path fill="none" stroke="midnightblue" d="M684.82,-570.68C694.15,-573.71 703,-578.25 710,-585 755.01,-628.4 701.26,-677.32 746,-721 747.45,-722.41 748.98,-723.73 750.58,-724.95"/>
<polygon fill="midnightblue" stroke="midnightblue" points="748.8,-727.96 759.13,-730.33 752.53,-722.04 748.8,-727.96"/>
</g>
<!-- Node19&#45;&gt;Node16 -->
<g id="edge25" class="edge">
<title>Node19&#45;&gt;Node16</title>
<path fill="none" stroke="midnightblue" d="M684.06,-556.39C692.97,-553.92 701.89,-550.84 710,-547 728.32,-538.33 727.73,-527.78 746,-519 751.04,-516.58 756.4,-514.46 761.88,-512.59"/>
<polygon fill="midnightblue" stroke="midnightblue" points="763.3,-515.82 771.82,-509.51 761.23,-509.13 763.3,-515.82"/>
</g>
<!-- Node20 -->
<g id="node20" class="node">
<title>Node20</title>
<g id="a_node20"><a xlink:href="classLocationConfig.html#ab939a2ea336da8f7c9b58e45fb9e926a" target="_top" xlink:title=" ">
<polygon fill="white" stroke="black" points="750.5,-528.5 750.5,-547.5 902.5,-547.5 902.5,-528.5 750.5,-528.5"/>
<text text-anchor="middle" x="826.5" y="-535.5" font-family="Helvetica,sans-Serif" font-size="10.00">LocationConfig::addCgiHandler</text>
</a>
</g>
</g>
<!-- Node19&#45;&gt;Node20 -->
<g id="edge24" class="edge">
<title>Node19&#45;&gt;Node20</title>
<path fill="none" stroke="midnightblue" d="M684.51,-557.79C704.17,-555.03 726.43,-551.9 747.35,-548.97"/>
<polygon fill="midnightblue" stroke="midnightblue" points="748.08,-552.4 757.5,-547.54 747.11,-545.47 748.08,-552.4"/>
</g>
<!-- Node19&#45;&gt;Node21 -->
<g id="edge27" class="edge">
<title>Node19&#45;&gt;Node21</title>
<path fill="none" stroke="midnightblue" d="M684.86,-559.43C693.86,-556.58 702.6,-552.59 710,-547 736.66,-526.86 719.46,-501.3 746,-481 748.46,-479.12 751.07,-477.42 753.8,-475.89"/>
<polygon fill="midnightblue" stroke="midnightblue" points="755.35,-479.03 762.84,-471.54 752.31,-472.72 755.35,-479.03"/>
</g>
<!-- Node22&#45;&gt;Node4 -->
<g id="edge30" class="edge">
<title>Node22&#45;&gt;Node4</title>
<path fill="none" stroke="midnightblue" d="M681.05,-651.63C691.3,-655.06 701.45,-659.7 710,-666 733.52,-683.32 722.1,-704.19 746,-721 748.73,-722.92 751.62,-724.64 754.64,-726.2"/>
<polygon fill="midnightblue" stroke="midnightblue" points="753.41,-729.48 763.96,-730.36 756.26,-723.09 753.41,-729.48"/>
</g>
<!-- Node23 -->
<g id="node23" class="node">
<title>Node23</title>
<g id="a_node23"><a xlink:href="namespaceconfig_1_1utils.html#a96caccf198f01c5290f601944e037e1b" target="_top" xlink:title="Parses a size string (e.g., &quot;1k&quot;, &quot;1m&quot;) into bytes.">
<polygon fill="white" stroke="black" points="768.5,-692.5 768.5,-711.5 884.5,-711.5 884.5,-692.5 768.5,-692.5"/>
<text text-anchor="middle" x="826.5" y="-699.5" font-family="Helvetica,sans-Serif" font-size="10.00">config::utils::parseSize</text>
</a>
</g>
</g>
<!-- Node22&#45;&gt;Node23 -->
<g id="edge29" class="edge">
<title>Node22&#45;&gt;Node23</title>
<path fill="none" stroke="midnightblue" d="M664.48,-651.58C678.92,-655.54 695.38,-660.5 710,-666 726.56,-672.23 729.31,-677.13 746,-683 753.25,-685.55 760.99,-687.87 768.68,-689.94"/>
<polygon fill="midnightblue" stroke="midnightblue" points="767.81,-693.33 778.37,-692.44 769.56,-686.55 767.81,-693.33"/>
</g>
<!-- Node24&#45;&gt;Node4 -->
<g id="edge32" class="edge">
<title>Node24&#45;&gt;Node4</title>
<path fill="none" stroke="midnightblue" d="M691.57,-611.87C698.28,-614.64 704.61,-618.26 710,-623 744.87,-653.62 711.32,-690.17 746,-721 747.77,-722.57 749.64,-724.02 751.6,-725.35"/>
<polygon fill="midnightblue" stroke="midnightblue" points="750.24,-728.6 760.67,-730.49 753.69,-722.51 750.24,-728.6"/>
</g>
<!-- Node24&#45;&gt;Node5 -->
<g id="edge36" class="edge">
<title>Node24&#45;&gt;Node5</title>
<path fill="none" stroke="midnightblue" d="M691.6,-611.2C698.39,-614.08 704.73,-617.91 710,-623 755.01,-666.4 705.37,-711.48 746,-759 754.04,-768.4 765.09,-775.37 776.4,-780.5"/>
<polygon fill="midnightblue" stroke="midnightblue" points="775.31,-783.84 785.89,-784.4 777.97,-777.37 775.31,-783.84"/>
</g>
<!-- Node25 -->
<g id="node25" class="node">
<title>Node25</title>
<g id="a_node25"><a xlink:href="classLocationConfig.html#a171605c1975557c5d5ca44fe0f33af7c" target="_top" xlink:title=" ">
<polygon fill="white" stroke="black" points="746,-654.5 746,-673.5 907,-673.5 907,-654.5 746,-654.5"/>
<text text-anchor="middle" x="826.5" y="-661.5" font-family="Helvetica,sans-Serif" font-size="10.00">LocationConfig::setRedirectCode</text>
</a>
</g>
</g>
<!-- Node24&#45;&gt;Node25 -->
<g id="edge33" class="edge">
<title>Node24&#45;&gt;Node25</title>
<path fill="none" stroke="midnightblue" d="M679.62,-613.55C689.87,-616.1 700.4,-619.22 710,-623 727.23,-629.79 728.85,-637 746,-644 753.13,-646.91 760.81,-649.48 768.47,-651.73"/>
<polygon fill="midnightblue" stroke="midnightblue" points="767.56,-655.11 778.13,-654.41 769.43,-648.37 767.56,-655.11"/>
</g>
<!-- Node26 -->
<g id="node26" class="node">
<title>Node26</title>
<g id="a_node26"><a xlink:href="classLocationConfig.html#a901f488de53c50e7b1f39f4b199cd9db" target="_top" xlink:title=" ">
<polygon fill="white" stroke="black" points="757.5,-605 757.5,-635 895.5,-635 895.5,-605 757.5,-605"/>
<text text-anchor="start" x="765.5" y="-623" font-family="Helvetica,sans-Serif" font-size="10.00">LocationConfig::setRedirect</text>
<text text-anchor="middle" x="826.5" y="-612" font-family="Helvetica,sans-Serif" font-size="10.00">ParamCount</text>
</a>
</g>
</g>
<!-- Node24&#45;&gt;Node26 -->
<g id="edge34" class="edge">
<title>Node24&#45;&gt;Node26</title>
<path fill="none" stroke="midnightblue" d="M691.6,-609.26C709.42,-610.69 728.9,-612.25 747.34,-613.73"/>
<polygon fill="midnightblue" stroke="midnightblue" points="747.22,-617.23 757.47,-614.54 747.78,-610.26 747.22,-617.23"/>
</g>
<!-- Node27 -->
<g id="node27" class="node">
<title>Node27</title>
<g id="a_node27"><a xlink:href="classLocationConfig.html#a17e8f5821073dcecf2e5bd9226cf9633" target="_top" xlink:title=" ">
<polygon fill="white" stroke="black" points="751,-566.5 751,-585.5 902,-585.5 902,-566.5 751,-566.5"/>
<text text-anchor="middle" x="826.5" y="-573.5" font-family="Helvetica,sans-Serif" font-size="10.00">LocationConfig::setRedirectUrl</text>
</a>
</g>
</g>
<!-- Node24&#45;&gt;Node27 -->
<g id="edge35" class="edge">
<title>Node24&#45;&gt;Node27</title>
<path fill="none" stroke="midnightblue" d="M691.6,-594.79C709.6,-592.27 729.29,-589.5 747.9,-586.89"/>
<polygon fill="midnightblue" stroke="midnightblue" points="748.39,-590.36 757.81,-585.5 747.42,-583.42 748.39,-590.36"/>
</g>
<!-- Node28&#45;&gt;Node4 -->
<g id="edge40" class="edge">
<title>Node28&#45;&gt;Node4</title>
<path fill="none" stroke="midnightblue" d="M692.25,-495.66C698.93,-499.06 705.06,-503.42 710,-509 773.37,-580.54 680.7,-651.22 746,-721 747.23,-722.32 748.54,-723.55 749.91,-724.71"/>
<polygon fill="midnightblue" stroke="midnightblue" points="748.15,-727.74 758.38,-730.49 752.1,-721.96 748.15,-727.74"/>
</g>
<!-- Node28&#45;&gt;Node16 -->
<g id="edge38" class="edge">
<title>Node28&#45;&gt;Node16</title>
<path fill="none" stroke="midnightblue" d="M692.15,-489.31C708.94,-490.65 727.15,-492.11 744.58,-493.51"/>
<polygon fill="midnightblue" stroke="midnightblue" points="744.48,-497.01 754.73,-494.32 745.04,-490.04 744.48,-497.01"/>
</g>
<!-- Node28&#45;&gt;Node21 -->
<g id="edge42" class="edge">
<title>Node28&#45;&gt;Node21</title>
<path fill="none" stroke="midnightblue" d="M692.15,-476.7C709.49,-474.79 728.36,-472.71 746.3,-470.73"/>
<polygon fill="midnightblue" stroke="midnightblue" points="746.89,-474.19 756.45,-469.61 746.13,-467.23 746.89,-474.19"/>
</g>
<!-- Node29 -->
<g id="node29" class="node">
<title>Node29</title>
<g id="a_node29"><a xlink:href="namespaceconfig_1_1utils.html#a48502107edda1e081240899a7e240da1" target="_top" xlink:title="Validates if a path string is well&#45;formed.">
<polygon fill="white" stroke="black" points="765.5,-414.5 765.5,-433.5 887.5,-433.5 887.5,-414.5 765.5,-414.5"/>
<text text-anchor="middle" x="826.5" y="-421.5" font-family="Helvetica,sans-Serif" font-size="10.00">config::utils::isValidPath</text>
</a>
</g>
</g>
<!-- Node28&#45;&gt;Node29 -->
<g id="edge39" class="edge">
<title>Node28&#45;&gt;Node29</title>
<path fill="none" stroke="midnightblue" d="M680.56,-468.88C690.43,-465.83 700.58,-462.48 710,-459 726.42,-452.93 729.42,-448.61 746,-443 753.47,-440.47 761.44,-438.15 769.34,-436.06"/>
<polygon fill="midnightblue" stroke="midnightblue" points="770.44,-439.39 779.27,-433.53 768.71,-432.6 770.44,-439.39"/>
</g>
<!-- Node30 -->
<g id="node30" class="node">
<title>Node30</title>
<g id="a_node30"><a xlink:href="classLocationConfig.html#af3b070091ab82c368fe2206be70a2938" target="_top" xlink:title=" ">
<polygon fill="white" stroke="black" points="760.5,-365 760.5,-395 892.5,-395 892.5,-365 760.5,-365"/>
<text text-anchor="start" x="768.5" y="-383" font-family="Helvetica,sans-Serif" font-size="10.00">LocationConfig::setUpload</text>
<text text-anchor="middle" x="826.5" y="-372" font-family="Helvetica,sans-Serif" font-size="10.00">Store</text>
</a>
</g>
</g>
<!-- Node28&#45;&gt;Node30 -->
<g id="edge41" class="edge">
<title>Node28&#45;&gt;Node30</title>
<path fill="none" stroke="midnightblue" d="M692.33,-469.14C698.6,-466.33 704.61,-462.98 710,-459 733.2,-441.87 722.93,-422.31 746,-405 748.47,-403.15 751.07,-401.43 753.78,-399.84"/>
<polygon fill="midnightblue" stroke="midnightblue" points="755.47,-402.91 762.71,-395.18 752.23,-396.7 755.47,-402.91"/>
</g>
<!-- Node37&#45;&gt;Node4 -->
<g id="edge54" class="edge">
<title>Node37&#45;&gt;Node4</title>
<path fill="none" stroke="midnightblue" d="M687.69,-533.25C696.03,-536.3 703.82,-540.71 710,-547 765.32,-603.35 691.02,-664.31 746,-721 747.26,-722.3 748.58,-723.51 749.97,-724.65"/>
<polygon fill="midnightblue" stroke="midnightblue" points="748.27,-727.71 758.53,-730.35 752.15,-721.89 748.27,-727.71"/>
</g>
<!-- Node37&#45;&gt;Node16 -->
<g id="edge53" class="edge">
<title>Node37&#45;&gt;Node16</title>
<path fill="none" stroke="midnightblue" d="M687.76,-519.33C706.75,-516.67 727.9,-513.7 747.82,-510.9"/>
<polygon fill="midnightblue" stroke="midnightblue" points="748.37,-514.36 757.79,-509.5 747.4,-507.43 748.37,-514.36"/>
</g>
<!-- Node37&#45;&gt;Node21 -->
<g id="edge55" class="edge">
<title>Node37&#45;&gt;Node21</title>
<path fill="none" stroke="midnightblue" d="M680.44,-518.49C690.52,-515.77 700.77,-512.33 710,-508 728.11,-499.51 727.9,-489.5 746,-481 751.27,-478.53 756.89,-476.36 762.61,-474.46"/>
<polygon fill="midnightblue" stroke="midnightblue" points="763.74,-477.77 772.29,-471.52 761.71,-471.08 763.74,-477.77"/>
</g>
<!-- Node38&#45;&gt;Node4 -->
<g id="edge57" class="edge">
<title>Node38&#45;&gt;Node4</title>
<path fill="none" stroke="midnightblue" d="M504.45,-707.05C572.57,-714.04 670.97,-724.14 740.85,-731.31"/>
<polygon fill="midnightblue" stroke="midnightblue" points="740.64,-734.81 750.94,-732.35 741.35,-727.85 740.64,-734.81"/>
</g>
</g>
</svg>
        <g id="navigator" transform="translate(0 0)" fill="#404254">
                <rect fill="#f2f5e9" fill-opacity="0.5" stroke="#606060" stroke-width=".5" x="0" y="0" width="60" height="60"/>
                <use id="zoomplus" xlink:href="#zoomPlus" x="17" y="9" onmousedown="handleZoom(evt,'in')"/>
                <use id="zoomminus" xlink:href="#zoomMin" x="42" y="9" onmousedown="handleZoom(evt,'out')"/>
                <use id="reset" xlink:href="#resetDef" x="30" y="36" onmousedown="handleReset()"/>
                <g id="arrowUp" xlink:href="#dirArrow" transform="translate(30 24)" onmousedown="handlePan(0,-1)">
                  <use xlink:href="#rim" fill="#404040">
                        <set attributeName="fill" to="#808080" begin="arrowUp.mouseover" end="arrowUp.mouseout"/>
                  </use>
                  <path fill="none" stroke="white" stroke-width="1.5" d="M0,-3.0v7 M-2.5,-0.5L0,-3.0L2.5,-0.5"/>
                </g>
                <g id="arrowRight" xlink:href="#dirArrow" transform="rotate(90) translate(36 -43)" onmousedown="handlePan(1,0)">
                  <use xlink:href="#rim" fill="#404040">
                        <set attributeName="fill" to="#808080" begin="arrowRight.mouseover" end="arrowRight.mouseout"/>
                  </use>
                  <path fill="none" stroke="white" stroke-width="1.5" d="M0,-3.0v7 M-2.5,-0.5L0,-3.0L2.5,-0.5"/>
                </g>
                <g id="arrowDown" xlink:href="#dirArrow" transform="rotate(180) translate(-30 -48)" onmousedown="handlePan(0,1)">
                  <use xlink:href="#rim" fill="#404040">
                        <set attributeName="fill" to="#808080" begin="arrowDown.mouseover" end="arrowDown.mouseout"/>
                  </use>
                  <path fill="none" stroke="white" stroke-width="1.5" d="M0,-3.0v7 M-2.5,-0.5L0,-3.0L2.5,-0.5"/>
                </g>
                <g id="arrowLeft" xlink:href="#dirArrow" transform="rotate(270) translate(-36 17)" onmousedown="handlePan(-1,0)">
                  <use xlink:href="#rim" fill="#404040">
                        <set attributeName="fill" to="#808080" begin="arrowLeft.mouseover" end="arrowLeft.mouseout"/>
                  </use>
                  <path fill="none" stroke="white" stroke-width="1.5" d="M0,-3.0v7 M-2.5,-0.5L0,-3.0L2.5,-0.5"/>
                </g>
        </g>
        <svg viewBox="0 0 15 15" width="100%" height="30px" preserveAspectRatio="xMaxYMin meet">
         <g id="arrow_out" transform="scale(0.3 0.3)">
          <a xlink:href="classConfigParser_a49c9f8ad4f9ba802d27db330cf172e43_cgraph_org.svg" target="_base">
           <rect id="button" ry="5" rx="5" y="6" x="6" height="38" width="38"
                fill="#f2f5e9" fill-opacity="0.5" stroke="#606060" stroke-width="1.0"/>
           <path id="arrow"
             d="M 11.500037,31.436501 C 11.940474,20.09759 22.043105,11.32322 32.158766,21.979434 L 37.068811,17.246167 C 37.068811,17.246167 37.088388,32 37.088388,32 L 22.160133,31.978069 C 22.160133,31.978069 26.997745,27.140456 26.997745,27.140456 C 18.528582,18.264221 13.291696,25.230495 11.500037,31.436501 z"
             style="fill:#404040;"/>
          </a>
         </g>
        </svg>
</svg>
