<?xml version="1.0" encoding="UTF-8" standalone="no"?>
<!DOCTYPE svg PUBLIC "-//W3C//DTD SVG 1.1//EN"
 "http://www.w3.org/Graphics/SVG/1.1/DTD/svg11.dtd">
<!-- Generated by graphviz version 2.43.0 (0)
 -->
<!-- Title: HttpResponse::clear Pages: 1 -->
<svg width="767pt" height="142pt"
 viewBox="0.00 0.00 767.00 142.00" xmlns="http://www.w3.org/2000/svg" xmlns:xlink="http://www.w3.org/1999/xlink">
<g id="graph0" class="graph" transform="scale(1 1) rotate(0) translate(4 138)">
<title>HttpResponse::clear</title>
<polygon fill="white" stroke="transparent" points="-4,4 -4,-138 763,-138 763,4 -4,4"/>
<!-- Node1 -->
<g id="node1" class="node">
<title>Node1</title>
<g id="a_node1"><a xlink:title=" ">
<polygon fill="#bfbfbf" stroke="black" points="652,-57.5 652,-76.5 759,-76.5 759,-57.5 652,-57.5"/>
<text text-anchor="middle" x="705.5" y="-64.5" font-family="Helvetica,sans-Serif" font-size="10.00">HttpResponse::clear</text>
</a>
</g>
</g>
<!-- Node2 -->
<g id="node2" class="node">
<title>Node2</title>
<g id="a_node2"><a xlink:href="classClient.html#a3b000abab7a3fe339f0f39ad5daca68f" target="_top" xlink:title=" ">
<polygon fill="white" stroke="black" points="491,-114.5 491,-133.5 616,-133.5 616,-114.5 491,-114.5"/>
<text text-anchor="middle" x="553.5" y="-121.5" font-family="Helvetica,sans-Serif" font-size="10.00">Client::checkCgiTimeout</text>
</a>
</g>
</g>
<!-- Node1&#45;&gt;Node2 -->
<g id="edge1" class="edge">
<title>Node1&#45;&gt;Node2</title>
<path fill="none" stroke="midnightblue" d="M674.6,-80.78C657.6,-88.37 635.81,-97.71 616,-105 606.88,-108.36 596.85,-111.63 587.59,-114.48"/>
<polygon fill="midnightblue" stroke="midnightblue" points="676.33,-83.84 684.01,-76.53 673.45,-77.45 676.33,-83.84"/>
</g>
<!-- Node3 -->
<g id="node3" class="node">
<title>Node3</title>
<g id="a_node3"><a xlink:href="classClient.html#a09d6029b60ae8c9773362968e72f2e54" target="_top" xlink:title=" ">
<polygon fill="white" stroke="black" points="317,-38.5 317,-57.5 455,-57.5 455,-38.5 317,-38.5"/>
<text text-anchor="middle" x="386" y="-45.5" font-family="Helvetica,sans-Serif" font-size="10.00">Client::finalizeCgiResponse</text>
</a>
</g>
</g>
<!-- Node1&#45;&gt;Node3 -->
<g id="edge2" class="edge">
<title>Node1&#45;&gt;Node3</title>
<path fill="none" stroke="midnightblue" d="M641.61,-63.24C587.79,-60.02 510.45,-55.39 455.16,-52.08"/>
<polygon fill="midnightblue" stroke="midnightblue" points="641.52,-66.74 651.71,-63.84 641.94,-59.75 641.52,-66.74"/>
</g>
<!-- Node4 -->
<g id="node4" class="node">
<title>Node4</title>
<g id="a_node4"><a xlink:href="classClient.html#a4104efd3f5f7e1c0f3e3302b46861624" target="_top" xlink:title=" ">
<polygon fill="white" stroke="black" points="498,-76.5 498,-95.5 609,-95.5 609,-76.5 498,-76.5"/>
<text text-anchor="middle" x="553.5" y="-83.5" font-family="Helvetica,sans-Serif" font-size="10.00">Client::handleCgiPipe</text>
</a>
</g>
</g>
<!-- Node1&#45;&gt;Node4 -->
<g id="edge3" class="edge">
<title>Node1&#45;&gt;Node4</title>
<path fill="none" stroke="midnightblue" d="M641.46,-74.98C630.74,-76.34 619.68,-77.74 609.19,-79.07"/>
<polygon fill="midnightblue" stroke="midnightblue" points="642.13,-78.43 651.62,-73.7 641.26,-71.48 642.13,-78.43"/>
</g>
<!-- Node7 -->
<g id="node7" class="node">
<title>Node7</title>
<g id="a_node7"><a xlink:href="classClient.html#a950fd2ab8ac20c9be4c5e722344d6fe2" target="_top" xlink:title=" ">
<polygon fill="white" stroke="black" points="491,-0.5 491,-19.5 616,-19.5 616,-0.5 491,-0.5"/>
<text text-anchor="middle" x="553.5" y="-7.5" font-family="Helvetica,sans-Serif" font-size="10.00">Client::processRequests</text>
</a>
</g>
</g>
<!-- Node1&#45;&gt;Node7 -->
<g id="edge6" class="edge">
<title>Node1&#45;&gt;Node7</title>
<path fill="none" stroke="midnightblue" d="M669.76,-53.8C642.21,-43.33 604.38,-28.95 579.69,-19.57"/>
<polygon fill="midnightblue" stroke="midnightblue" points="668.8,-57.18 679.39,-57.46 671.29,-50.64 668.8,-57.18"/>
</g>
<!-- Node5 -->
<g id="node5" class="node">
<title>Node5</title>
<g id="a_node5"><a xlink:href="classServerManager.html#a9c75ea0bd268425c187ef25770eccbe8" target="_top" xlink:title=" ">
<polygon fill="white" stroke="black" points="143.5,-64 143.5,-94 275.5,-94 275.5,-64 143.5,-64"/>
<text text-anchor="start" x="151.5" y="-82" font-family="Helvetica,sans-Serif" font-size="10.00">ServerManager::handleCgi</text>
<text text-anchor="middle" x="209.5" y="-71" font-family="Helvetica,sans-Serif" font-size="10.00">PipeEvent</text>
</a>
</g>
</g>
<!-- Node4&#45;&gt;Node5 -->
<g id="edge4" class="edge">
<title>Node4&#45;&gt;Node5</title>
<path fill="none" stroke="midnightblue" d="M487.69,-84.67C426.93,-83.43 336.57,-81.58 275.68,-80.33"/>
<polygon fill="midnightblue" stroke="midnightblue" points="487.86,-88.18 497.93,-84.88 488,-81.18 487.86,-88.18"/>
</g>
<!-- Node6 -->
<g id="node6" class="node">
<title>Node6</title>
<g id="a_node6"><a xlink:href="classServerManager.html#aecc313c9b6afcab92c22269b3333c721" target="_top" xlink:title=" ">
<polygon fill="white" stroke="black" points="0,-37.5 0,-56.5 102,-56.5 102,-37.5 0,-37.5"/>
<text text-anchor="middle" x="51" y="-44.5" font-family="Helvetica,sans-Serif" font-size="10.00">ServerManager::run</text>
</a>
</g>
</g>
<!-- Node5&#45;&gt;Node6 -->
<g id="edge5" class="edge">
<title>Node5&#45;&gt;Node6</title>
<path fill="none" stroke="midnightblue" d="M133.61,-63.69C121.79,-61.27 109.86,-58.83 98.92,-56.59"/>
<polygon fill="midnightblue" stroke="midnightblue" points="132.99,-67.13 143.49,-65.71 134.39,-60.27 132.99,-67.13"/>
</g>
<!-- Node7&#45;&gt;Node3 -->
<g id="edge7" class="edge">
<title>Node7&#45;&gt;Node3</title>
<path fill="none" stroke="midnightblue" d="M500.69,-21.9C477.43,-27.24 450.35,-33.45 428.46,-38.48"/>
<polygon fill="midnightblue" stroke="midnightblue" points="501.77,-25.24 510.74,-19.59 500.21,-18.42 501.77,-25.24"/>
</g>
<!-- Node8 -->
<g id="node8" class="node">
<title>Node8</title>
<g id="a_node8"><a xlink:href="classClient.html#ac95fe5b24fe5275bd2271bd1ac37596d" target="_top" xlink:title=" ">
<polygon fill="white" stroke="black" points="336,-0.5 336,-19.5 436,-19.5 436,-0.5 336,-0.5"/>
<text text-anchor="middle" x="386" y="-7.5" font-family="Helvetica,sans-Serif" font-size="10.00">Client::handleRead</text>
</a>
</g>
</g>
<!-- Node7&#45;&gt;Node8 -->
<g id="edge8" class="edge">
<title>Node7&#45;&gt;Node8</title>
<path fill="none" stroke="midnightblue" d="M480.56,-10C465.52,-10 449.99,-10 436.02,-10"/>
<polygon fill="midnightblue" stroke="midnightblue" points="480.87,-13.5 490.87,-10 480.87,-6.5 480.87,-13.5"/>
</g>
<!-- Node9 -->
<g id="node9" class="node">
<title>Node9</title>
<g id="a_node9"><a xlink:href="classServerManager.html#a9f3ca46da9df004286f90902b8daf29d" target="_top" xlink:title=" ">
<polygon fill="white" stroke="black" points="138,-8 138,-38 281,-38 281,-8 138,-8"/>
<text text-anchor="start" x="146" y="-26" font-family="Helvetica,sans-Serif" font-size="10.00">ServerManager::handleClient</text>
<text text-anchor="middle" x="209.5" y="-15" font-family="Helvetica,sans-Serif" font-size="10.00">Event</text>
</a>
</g>
</g>
<!-- Node8&#45;&gt;Node9 -->
<g id="edge9" class="edge">
<title>Node8&#45;&gt;Node9</title>
<path fill="none" stroke="midnightblue" d="M325.69,-14.42C311.33,-15.49 295.84,-16.64 281.02,-17.75"/>
<polygon fill="midnightblue" stroke="midnightblue" points="326.22,-17.89 335.93,-13.66 325.7,-10.91 326.22,-17.89"/>
</g>
<!-- Node9&#45;&gt;Node6 -->
<g id="edge10" class="edge">
<title>Node9&#45;&gt;Node6</title>
<path fill="none" stroke="midnightblue" d="M127.45,-35.43C118.82,-36.75 110.23,-38.07 102.11,-39.32"/>
<polygon fill="midnightblue" stroke="midnightblue" points="128.22,-38.85 137.58,-33.88 127.16,-31.93 128.22,-38.85"/>
</g>
</g>
</svg>
