<?xml version="1.0" encoding="UTF-8" standalone="no"?>
<!DOCTYPE svg PUBLIC "-//W3C//DTD SVG 1.1//EN"
 "http://www.w3.org/Graphics/SVG/1.1/DTD/svg11.dtd">
<!-- Generated by graphviz version 2.43.0 (0)
 -->
<!-- Title: RequestProcessor::handleCgi Pages: 1 -->
<!--zoomable 472 -->
<svg id="main" version="1.1" xmlns="http://www.w3.org/2000/svg" xmlns:xlink="http://www.w3.org/1999/xlink" xml:space="preserve" onload="init(evt)">
<style type="text/css"><![CDATA[
.edge:hover path { stroke: red; }
.edge:hover polygon { stroke: red; fill: red; }
]]></style>
<script type="text/javascript"><![CDATA[
var edges = document.getElementsByTagName('g');
if (edges && edges.length) {
  for (var i=0;i<edges.length;i++) {
    if (edges[i].id.substr(0,4)=='edge') {
      edges[i].setAttribute('class','edge');
    }
  }
}
]]></script>
        <defs>
                <circle id="rim" cx="0" cy="0" r="7"/>
                <circle id="rim2" cx="0" cy="0" r="3.5"/>
                <g id="zoomPlus">
                        <use xlink:href="#rim" fill="#404040">
                                <set attributeName="fill" to="#808080" begin="zoomplus.mouseover" end="zoomplus.mouseout"/>
                        </use>
                        <path d="M-4,0h8M0,-4v8" fill="none" stroke="white" stroke-width="1.5" pointer-events="none"/>
                </g>
                <g id="zoomMin">
                        <use xlink:href="#rim" fill="#404040">
                                <set attributeName="fill" to="#808080" begin="zoomminus.mouseover" end="zoomminus.mouseout"/>
                        </use>
                        <path d="M-4,0h8" fill="none" stroke="white" stroke-width="1.5" pointer-events="none"/>
                </g>
                <g id="dirArrow">
                        <path fill="none" stroke="white" stroke-width="1.5" d="M0,-3.0v7 M-2.5,-0.5L0,-3.0L2.5,-0.5"/>
                </g>
               <g id="resetDef">
                       <use xlink:href="#rim2" fill="#404040">
                               <set attributeName="fill" to="#808080" begin="reset.mouseover" end="reset.mouseout"/>
                       </use>
               </g>
        </defs>

<script type="text/javascript">
var viewWidth = 915;
var viewHeight = 472;
var sectionId = 'dynsection-0';
</script>
<script xlink:href="svgpan.js"/>
<svg id="graph" class="graph">
<g id="viewport">
<title>RequestProcessor::handleCgi</title>
<polygon fill="white" stroke="transparent" points="-4,4 -4,-467.91 911,-467.91 911,4 -4,4"/>
<!-- Node1 -->
<g id="node1" class="node">
<title>Node1</title>
<g id="a_node1"><a xlink:title=" ">
<polygon fill="#bfbfbf" stroke="black" points="0,-209.5 0,-228.5 147,-228.5 147,-209.5 0,-209.5"/>
<text text-anchor="middle" x="73.5" y="-216.5" font-family="Helvetica,sans-Serif" font-size="10.00">RequestProcessor::handleCgi</text>
</a>
</g>
</g>
<!-- Node2 -->
<g id="node2" class="node">
<title>Node2</title>
<g id="a_node2"><a xlink:href="ErrorUtils_8cpp.html#a470416220aa911b8f1274140a8322e7a" target="_top" xlink:title=" ">
<polygon fill="white" stroke="black" points="183,-228.5 183,-247.5 285,-247.5 285,-228.5 183,-228.5"/>
<text text-anchor="middle" x="234" y="-235.5" font-family="Helvetica,sans-Serif" font-size="10.00">buildErrorResponse</text>
</a>
</g>
</g>
<!-- Node1&#45;&gt;Node2 -->
<g id="edge1" class="edge">
<title>Node1&#45;&gt;Node2</title>
<path fill="none" stroke="midnightblue" d="M147.26,-227.72C155.82,-228.75 164.48,-229.79 172.85,-230.79"/>
<polygon fill="midnightblue" stroke="midnightblue" points="172.52,-234.28 182.87,-231.99 173.36,-227.33 172.52,-234.28"/>
</g>
<!-- Node24 -->
<g id="node24" class="node">
<title>Node24</title>
<g id="a_node24"><a xlink:href="RequestProcessorUtils_8cpp.html#a8f33134a30552f25490513db7c499318" target="_top" xlink:title=" ">
<polygon fill="white" stroke="black" points="189.5,-190.5 189.5,-209.5 278.5,-209.5 278.5,-190.5 189.5,-190.5"/>
<text text-anchor="middle" x="234" y="-197.5" font-family="Helvetica,sans-Serif" font-size="10.00">getFileExtension</text>
</a>
</g>
</g>
<!-- Node1&#45;&gt;Node24 -->
<g id="edge29" class="edge">
<title>Node1&#45;&gt;Node24</title>
<path fill="none" stroke="midnightblue" d="M147.26,-210.28C158,-208.99 168.9,-207.68 179.17,-206.45"/>
<polygon fill="midnightblue" stroke="midnightblue" points="179.68,-209.92 189.19,-205.25 178.85,-202.97 179.68,-209.92"/>
</g>
<!-- Node3 -->
<g id="node3" class="node">
<title>Node3</title>
<g id="a_node3"><a xlink:href="ResponseUtils_8cpp.html#ab7c2cb6fbf297c09ec402182b04584c6" target="_top" xlink:title=" ">
<polygon fill="white" stroke="black" points="321,-247.5 321,-266.5 414,-266.5 414,-247.5 321,-247.5"/>
<text text-anchor="middle" x="367.5" y="-254.5" font-family="Helvetica,sans-Serif" font-size="10.00">fillBaseResponse</text>
</a>
</g>
</g>
<!-- Node2&#45;&gt;Node3 -->
<g id="edge2" class="edge">
<title>Node2&#45;&gt;Node3</title>
<path fill="none" stroke="midnightblue" d="M285.09,-245.24C293.54,-246.46 302.36,-247.73 310.94,-248.97"/>
<polygon fill="midnightblue" stroke="midnightblue" points="310.47,-252.44 320.87,-250.41 311.47,-245.51 310.47,-252.44"/>
</g>
<!-- Node8 -->
<g id="node8" class="node">
<title>Node8</title>
<g id="a_node8"><a xlink:href="classHttpResponse.html#a7efa3ab17ead358609d80b55db164867" target="_top" xlink:title=" ">
<polygon fill="white" stroke="black" points="642,-342.5 642,-361.5 773,-361.5 773,-342.5 642,-342.5"/>
<text text-anchor="middle" x="707.5" y="-349.5" font-family="Helvetica,sans-Serif" font-size="10.00">HttpResponse::setHeader</text>
</a>
</g>
</g>
<!-- Node2&#45;&gt;Node8 -->
<g id="edge27" class="edge">
<title>Node2&#45;&gt;Node8</title>
<path fill="none" stroke="midnightblue" d="M239.45,-247.5C250.56,-270.46 281.48,-329.84 321,-368 369.36,-414.7 385.29,-428.76 450,-447 516.31,-465.69 540.93,-472.31 605,-447 644.24,-431.5 677.21,-392.88 694.19,-369.93"/>
<polygon fill="midnightblue" stroke="midnightblue" points="697.09,-371.88 700.08,-361.72 691.4,-367.81 697.09,-371.88"/>
</g>
<!-- Node15 -->
<g id="node15" class="node">
<title>Node15</title>
<g id="a_node15"><a xlink:href="classHttpResponse.html#a11a67ba43096f5eb1870e65f1814d364" target="_top" xlink:title=" ">
<polygon fill="white" stroke="black" points="450,-418.5 450,-437.5 605,-437.5 605,-418.5 450,-418.5"/>
<text text-anchor="middle" x="527.5" y="-425.5" font-family="Helvetica,sans-Serif" font-size="10.00">HttpResponse::setContentType</text>
</a>
</g>
</g>
<!-- Node2&#45;&gt;Node15 -->
<g id="edge26" class="edge">
<title>Node2&#45;&gt;Node15</title>
<path fill="none" stroke="midnightblue" d="M244.23,-247.87C272.21,-277.2 359.72,-364.53 450,-409 454.91,-411.42 460.15,-413.55 465.51,-415.41"/>
<polygon fill="midnightblue" stroke="midnightblue" points="464.62,-418.8 475.21,-418.5 466.74,-412.13 464.62,-418.8"/>
</g>
<!-- Node21 -->
<g id="node21" class="node">
<title>Node21</title>
<g id="a_node21"><a xlink:href="ErrorUtils_8cpp.html#aa759f2b84e51d20fdf7801c0514c3635" target="_top" xlink:title=" ">
<polygon fill="white" stroke="black" points="325.5,-209.5 325.5,-228.5 409.5,-228.5 409.5,-209.5 325.5,-209.5"/>
<text text-anchor="middle" x="367.5" y="-216.5" font-family="Helvetica,sans-Serif" font-size="10.00">readFileToBody</text>
</a>
</g>
</g>
<!-- Node2&#45;&gt;Node21 -->
<g id="edge24" class="edge">
<title>Node2&#45;&gt;Node21</title>
<path fill="none" stroke="midnightblue" d="M285.09,-230.76C294.89,-229.35 305.19,-227.86 315.04,-226.44"/>
<polygon fill="midnightblue" stroke="midnightblue" points="315.7,-229.88 325.1,-224.98 314.7,-222.95 315.7,-229.88"/>
</g>
<!-- Node22 -->
<g id="node22" class="node">
<title>Node22</title>
<g id="a_node22"><a xlink:href="RequestProcessorUtils_8cpp.html#aa9c12d87cb0781b781a580ff9bfd0c06" target="_top" xlink:title=" ">
<polygon fill="white" stroke="black" points="333.5,-171.5 333.5,-190.5 401.5,-190.5 401.5,-171.5 333.5,-171.5"/>
<text text-anchor="middle" x="367.5" y="-178.5" font-family="Helvetica,sans-Serif" font-size="10.00">resolvePath</text>
</a>
</g>
</g>
<!-- Node2&#45;&gt;Node22 -->
<g id="edge25" class="edge">
<title>Node2&#45;&gt;Node22</title>
<path fill="none" stroke="midnightblue" d="M261.98,-228.44C269.5,-225.59 277.64,-222.33 285,-219 301.49,-211.55 304.64,-207.72 321,-200 324.83,-198.19 328.88,-196.37 332.93,-194.62"/>
<polygon fill="midnightblue" stroke="midnightblue" points="334.4,-197.79 342.24,-190.66 331.66,-191.35 334.4,-197.79"/>
</g>
<!-- Node23 -->
<g id="node23" class="node">
<title>Node23</title>
<g id="a_node23"><a xlink:href="ResponseUtils_8cpp.html#a1c98cd4773c38cae6781a257fa318ca7" target="_top" xlink:title=" ">
<polygon fill="white" stroke="black" points="344,-133.5 344,-152.5 391,-152.5 391,-133.5 344,-133.5"/>
<text text-anchor="middle" x="367.5" y="-140.5" font-family="Helvetica,sans-Serif" font-size="10.00">toBody</text>
</a>
</g>
</g>
<!-- Node2&#45;&gt;Node23 -->
<g id="edge28" class="edge">
<title>Node2&#45;&gt;Node23</title>
<path fill="none" stroke="midnightblue" d="M269.16,-228.43C274.8,-225.93 280.33,-222.82 285,-219 308.2,-200.04 298.11,-181.34 321,-162 324.98,-158.63 329.65,-155.79 334.45,-153.42"/>
<polygon fill="midnightblue" stroke="midnightblue" points="335.91,-156.6 343.69,-149.41 333.12,-150.18 335.91,-156.6"/>
</g>
<!-- Node4 -->
<g id="node4" class="node">
<title>Node4</title>
<g id="a_node4"><a xlink:href="SessionUtils_8cpp.html#aabfd66406b8a4aec4237b26ff8e76a65" target="_top" xlink:title=" ">
<polygon fill="white" stroke="black" points="458.5,-76.5 458.5,-95.5 596.5,-95.5 596.5,-76.5 458.5,-76.5"/>
<text text-anchor="middle" x="527.5" y="-83.5" font-family="Helvetica,sans-Serif" font-size="10.00">addSessionCookieIfNeeded</text>
</a>
</g>
</g>
<!-- Node3&#45;&gt;Node4 -->
<g id="edge3" class="edge">
<title>Node3&#45;&gt;Node4</title>
<path fill="none" stroke="midnightblue" d="M401.72,-247.43C406.32,-244.96 410.61,-241.86 414,-238 454.37,-191.95 406.25,-147.85 450,-105 451.47,-103.56 453.02,-102.23 454.66,-100.99"/>
<polygon fill="midnightblue" stroke="midnightblue" points="456.73,-103.83 463.37,-95.57 453.03,-97.88 456.73,-103.83"/>
</g>
<!-- Node3&#45;&gt;Node8 -->
<g id="edge18" class="edge">
<title>Node3&#45;&gt;Node8</title>
<path fill="none" stroke="midnightblue" d="M386.16,-266.61C402.37,-275.09 427.24,-287.27 450,-295 485.98,-307.22 583.75,-327.67 647.65,-340.47"/>
<polygon fill="midnightblue" stroke="midnightblue" points="647.11,-343.93 657.61,-342.46 648.48,-337.07 647.11,-343.93"/>
</g>
<!-- Node10 -->
<g id="node10" class="node">
<title>Node10</title>
<g id="a_node10"><a xlink:href="classHttpRequest.html#adf523a5345b525702a858f8792bab8ea" target="_top" xlink:title=" ">
<polygon fill="white" stroke="black" points="465.5,-38.5 465.5,-57.5 589.5,-57.5 589.5,-38.5 465.5,-38.5"/>
<text text-anchor="middle" x="527.5" y="-45.5" font-family="Helvetica,sans-Serif" font-size="10.00">HttpRequest::getMethod</text>
</a>
</g>
</g>
<!-- Node3&#45;&gt;Node10 -->
<g id="edge9" class="edge">
<title>Node3&#45;&gt;Node10</title>
<path fill="none" stroke="midnightblue" d="M402.37,-247.35C406.77,-244.89 410.83,-241.82 414,-238 463.52,-178.17 396.08,-122.9 450,-67 452.05,-64.88 454.29,-62.98 456.69,-61.28"/>
<polygon fill="midnightblue" stroke="midnightblue" points="458.47,-64.29 465.35,-56.23 454.94,-58.24 458.47,-64.29"/>
</g>
<!-- Node11 -->
<g id="node11" class="node">
<title>Node11</title>
<g id="a_node11"><a xlink:href="classHttpRequest.html#acde519e492e10352bc39d6a3bcd857b2" target="_top" xlink:title=" ">
<polygon fill="white" stroke="black" points="471.5,-0.5 471.5,-19.5 583.5,-19.5 583.5,-0.5 471.5,-0.5"/>
<text text-anchor="middle" x="527.5" y="-7.5" font-family="Helvetica,sans-Serif" font-size="10.00">HttpRequest::getPath</text>
</a>
</g>
</g>
<!-- Node3&#45;&gt;Node11 -->
<g id="edge10" class="edge">
<title>Node3&#45;&gt;Node11</title>
<path fill="none" stroke="midnightblue" d="M402.5,-247.45C406.88,-244.98 410.91,-241.88 414,-238 472.75,-164.29 385.82,-98.03 450,-29 453.43,-25.31 457.46,-22.29 461.83,-19.82"/>
<polygon fill="midnightblue" stroke="midnightblue" points="463.62,-22.85 471.24,-15.49 460.69,-16.49 463.62,-22.85"/>
</g>
<!-- Node12 -->
<g id="node12" class="node">
<title>Node12</title>
<g id="a_node12"><a xlink:href="classHttpRequest.html#ac2a5d18d42289a03b57215c98d8df41e" target="_top" xlink:title=" ">
<polygon fill="white" stroke="black" points="465,-380.5 465,-399.5 590,-399.5 590,-380.5 465,-380.5"/>
<text text-anchor="middle" x="527.5" y="-387.5" font-family="Helvetica,sans-Serif" font-size="10.00">HttpRequest::getVersion</text>
</a>
</g>
</g>
<!-- Node3&#45;&gt;Node12 -->
<g id="edge11" class="edge">
<title>Node3&#45;&gt;Node12</title>
<path fill="none" stroke="midnightblue" d="M372.57,-266.72C382.38,-288.91 409.55,-343.52 450,-371 452.92,-372.98 456.02,-374.76 459.25,-376.35"/>
<polygon fill="midnightblue" stroke="midnightblue" points="458.04,-379.64 468.61,-380.36 460.8,-373.2 458.04,-379.64"/>
</g>
<!-- Node13 -->
<g id="node13" class="node">
<title>Node13</title>
<g id="a_node13"><a xlink:href="classHttpResponse.html#acba4d7264c5b05e63a199c87f8526473" target="_top" xlink:title=" ">
<polygon fill="white" stroke="black" points="641,-285.5 641,-304.5 774,-304.5 774,-285.5 641,-285.5"/>
<text text-anchor="middle" x="707.5" y="-292.5" font-family="Helvetica,sans-Serif" font-size="10.00">HttpResponse::hasHeader</text>
</a>
</g>
</g>
<!-- Node3&#45;&gt;Node13 -->
<g id="edge12" class="edge">
<title>Node3&#45;&gt;Node13</title>
<path fill="none" stroke="midnightblue" d="M414.27,-252.21C462.23,-248.3 539.55,-245.15 605,-257 630.62,-261.64 658.19,-272.36 678.13,-281.24"/>
<polygon fill="midnightblue" stroke="midnightblue" points="676.71,-284.44 687.26,-285.41 679.62,-278.07 676.71,-284.44"/>
</g>
<!-- Node14 -->
<g id="node14" class="node">
<title>Node14</title>
<g id="a_node14"><a xlink:href="classHttpResponse.html#a884d07c418ba6145385d63e43bb1b29a" target="_top" xlink:title=" ">
<polygon fill="white" stroke="black" points="466.5,-342.5 466.5,-361.5 588.5,-361.5 588.5,-342.5 466.5,-342.5"/>
<text text-anchor="middle" x="527.5" y="-349.5" font-family="Helvetica,sans-Serif" font-size="10.00">HttpResponse::setBody</text>
</a>
</g>
</g>
<!-- Node3&#45;&gt;Node14 -->
<g id="edge14" class="edge">
<title>Node3&#45;&gt;Node14</title>
<path fill="none" stroke="midnightblue" d="M377.06,-266.69C390.95,-281.83 419.87,-311.13 450,-328 457.85,-332.4 466.62,-336.1 475.34,-339.19"/>
<polygon fill="midnightblue" stroke="midnightblue" points="474.52,-342.6 485.11,-342.41 476.71,-335.95 474.52,-342.6"/>
</g>
<!-- Node3&#45;&gt;Node15 -->
<g id="edge15" class="edge">
<title>Node3&#45;&gt;Node15</title>
<path fill="none" stroke="midnightblue" d="M373.38,-266.61C389.98,-299.24 443.62,-404.04 450,-409 452.33,-410.81 454.81,-412.45 457.4,-413.94"/>
<polygon fill="midnightblue" stroke="midnightblue" points="456.03,-417.17 466.55,-418.42 459.11,-410.88 456.03,-417.17"/>
</g>
<!-- Node16 -->
<g id="node16" class="node">
<title>Node16</title>
<g id="a_node16"><a xlink:href="classHttpResponse.html#ac982631ddcf451521e207ac0c2bd0108" target="_top" xlink:title=" ">
<polygon fill="white" stroke="black" points="456,-266.5 456,-285.5 599,-285.5 599,-266.5 456,-266.5"/>
<text text-anchor="middle" x="527.5" y="-273.5" font-family="Helvetica,sans-Serif" font-size="10.00">HttpResponse::setHeadOnly</text>
</a>
</g>
</g>
<!-- Node3&#45;&gt;Node16 -->
<g id="edge19" class="edge">
<title>Node3&#45;&gt;Node16</title>
<path fill="none" stroke="midnightblue" d="M414.2,-262.5C424.18,-263.7 435.02,-265 445.91,-266.31"/>
<polygon fill="midnightblue" stroke="midnightblue" points="445.55,-269.79 455.9,-267.51 446.39,-262.84 445.55,-269.79"/>
</g>
<!-- Node17 -->
<g id="node17" class="node">
<title>Node17</title>
<g id="a_node17"><a xlink:href="classHttpResponse.html#a610f8f887ca042f2b18ec395aaccc255" target="_top" xlink:title=" ">
<polygon fill="white" stroke="black" points="452,-190.5 452,-209.5 603,-209.5 603,-190.5 452,-190.5"/>
<text text-anchor="middle" x="527.5" y="-197.5" font-family="Helvetica,sans-Serif" font-size="10.00">HttpResponse::setStatusCode</text>
</a>
</g>
</g>
<!-- Node3&#45;&gt;Node17 -->
<g id="edge20" class="edge">
<title>Node3&#45;&gt;Node17</title>
<path fill="none" stroke="midnightblue" d="M391.74,-247.35C411.69,-239.1 438.94,-227.97 450,-224 461.05,-220.04 473.11,-216.08 484.33,-212.56"/>
<polygon fill="midnightblue" stroke="midnightblue" points="485.41,-215.89 493.92,-209.59 483.33,-209.2 485.41,-215.89"/>
</g>
<!-- Node19 -->
<g id="node19" class="node">
<title>Node19</title>
<g id="a_node19"><a xlink:href="classHttpResponse.html#a407dc1ea3f01365d8105fadc0418bc79" target="_top" xlink:title=" ">
<polygon fill="white" stroke="black" points="461.5,-152.5 461.5,-171.5 593.5,-171.5 593.5,-152.5 461.5,-152.5"/>
<text text-anchor="middle" x="527.5" y="-159.5" font-family="Helvetica,sans-Serif" font-size="10.00">HttpResponse::setVersion</text>
</a>
</g>
</g>
<!-- Node3&#45;&gt;Node19 -->
<g id="edge22" class="edge">
<title>Node3&#45;&gt;Node19</title>
<path fill="none" stroke="midnightblue" d="M398.88,-247.39C404.26,-244.86 409.55,-241.76 414,-238 436.89,-218.66 425.71,-198.54 450,-181 452.66,-179.08 455.5,-177.35 458.45,-175.79"/>
<polygon fill="midnightblue" stroke="midnightblue" points="459.95,-178.96 467.61,-171.63 457.05,-172.58 459.95,-178.96"/>
</g>
<!-- Node20 -->
<g id="node20" class="node">
<title>Node20</title>
<g id="a_node20"><a xlink:href="ResponseUtils_8cpp.html#af8cce302648449aa6215ac211230ef75" target="_top" xlink:title=" ">
<polygon fill="white" stroke="black" points="485.5,-114.5 485.5,-133.5 569.5,-133.5 569.5,-114.5 485.5,-114.5"/>
<text text-anchor="middle" x="527.5" y="-121.5" font-family="Helvetica,sans-Serif" font-size="10.00">versionToString</text>
</a>
</g>
</g>
<!-- Node3&#45;&gt;Node20 -->
<g id="edge23" class="edge">
<title>Node3&#45;&gt;Node20</title>
<path fill="none" stroke="midnightblue" d="M400.93,-247.38C405.74,-244.9 410.31,-241.81 414,-238 445.39,-205.54 416.23,-172.98 450,-143 457.22,-136.59 466.26,-132.28 475.58,-129.38"/>
<polygon fill="midnightblue" stroke="midnightblue" points="476.52,-132.75 485.32,-126.85 474.76,-125.98 476.52,-132.75"/>
</g>
<!-- Node5 -->
<g id="node5" class="node">
<title>Node5</title>
<g id="a_node5"><a xlink:href="SessionUtils_8cpp.html#af915f0cd7984e5d06370014bb43c74b6" target="_top" xlink:title=" ">
<polygon fill="white" stroke="black" points="664,-114.5 664,-133.5 751,-133.5 751,-114.5 664,-114.5"/>
<text text-anchor="middle" x="707.5" y="-121.5" font-family="Helvetica,sans-Serif" font-size="10.00">createSessionId</text>
</a>
</g>
</g>
<!-- Node4&#45;&gt;Node5 -->
<g id="edge4" class="edge">
<title>Node4&#45;&gt;Node5</title>
<path fill="none" stroke="midnightblue" d="M573.42,-95.59C597.87,-100.81 628.27,-107.3 653.84,-112.76"/>
<polygon fill="midnightblue" stroke="midnightblue" points="653.23,-116.21 663.74,-114.87 654.7,-109.36 653.23,-116.21"/>
</g>
<!-- Node6 -->
<g id="node6" class="node">
<title>Node6</title>
<g id="a_node6"><a xlink:href="SessionUtils_8cpp.html#a655520ad6c85707c8e1aae50c1eda6c8" target="_top" xlink:title=" ">
<polygon fill="white" stroke="black" points="653.5,-76.5 653.5,-95.5 761.5,-95.5 761.5,-76.5 653.5,-76.5"/>
<text text-anchor="middle" x="707.5" y="-83.5" font-family="Helvetica,sans-Serif" font-size="10.00">extractIdFromCookie</text>
</a>
</g>
</g>
<!-- Node4&#45;&gt;Node6 -->
<g id="edge5" class="edge">
<title>Node4&#45;&gt;Node6</title>
<path fill="none" stroke="midnightblue" d="M596.56,-86C611.87,-86 628.05,-86 643.16,-86"/>
<polygon fill="midnightblue" stroke="midnightblue" points="643.43,-89.5 653.43,-86 643.43,-82.5 643.43,-89.5"/>
</g>
<!-- Node7 -->
<g id="node7" class="node">
<title>Node7</title>
<g id="a_node7"><a xlink:href="classHttpRequest.html#ab537cb11b054734695ee4889d88aec6d" target="_top" xlink:title="Obtiene un header específico de la petición.">
<polygon fill="white" stroke="black" points="646,-38.5 646,-57.5 769,-57.5 769,-38.5 646,-38.5"/>
<text text-anchor="middle" x="707.5" y="-45.5" font-family="Helvetica,sans-Serif" font-size="10.00">HttpRequest::getHeader</text>
</a>
</g>
</g>
<!-- Node4&#45;&gt;Node7 -->
<g id="edge6" class="edge">
<title>Node4&#45;&gt;Node7</title>
<path fill="none" stroke="midnightblue" d="M573.42,-76.41C597.33,-71.31 626.92,-64.99 652.12,-59.61"/>
<polygon fill="midnightblue" stroke="midnightblue" points="652.86,-63.03 661.91,-57.52 651.4,-56.19 652.86,-63.03"/>
</g>
<!-- Node4&#45;&gt;Node8 -->
<g id="edge7" class="edge">
<title>Node4&#45;&gt;Node8</title>
<path fill="none" stroke="midnightblue" d="M592.74,-95.58C597.28,-98.09 601.46,-101.19 605,-105 669.18,-174.03 587.17,-236.63 641,-314 648.16,-324.29 659.06,-332.18 669.94,-338.04"/>
<polygon fill="midnightblue" stroke="midnightblue" points="668.46,-341.21 678.98,-342.49 671.55,-334.93 668.46,-341.21"/>
</g>
<!-- Node9 -->
<g id="node9" class="node">
<title>Node9</title>
<g id="a_node9"><a xlink:href="namespacehttp__header__utils.html#aa9b0e84aeed4203326a12eecbcd3f9e5" target="_top" xlink:title=" ">
<polygon fill="white" stroke="black" points="810,-337 810,-367 907,-367 907,-337 810,-337"/>
<text text-anchor="start" x="818" y="-355" font-family="Helvetica,sans-Serif" font-size="10.00">http_header_utils::</text>
<text text-anchor="middle" x="858.5" y="-344" font-family="Helvetica,sans-Serif" font-size="10.00">toLowerCopy</text>
</a>
</g>
</g>
<!-- Node8&#45;&gt;Node9 -->
<g id="edge8" class="edge">
<title>Node8&#45;&gt;Node9</title>
<path fill="none" stroke="midnightblue" d="M773.42,-352C782.12,-352 790.99,-352 799.56,-352"/>
<polygon fill="midnightblue" stroke="midnightblue" points="799.82,-355.5 809.82,-352 799.82,-348.5 799.82,-355.5"/>
</g>
<!-- Node13&#45;&gt;Node9 -->
<g id="edge13" class="edge">
<title>Node13&#45;&gt;Node9</title>
<path fill="none" stroke="midnightblue" d="M733.44,-304.54C753.93,-312.38 783.59,-323.73 808.77,-333.36"/>
<polygon fill="midnightblue" stroke="midnightblue" points="807.58,-336.65 818.17,-336.95 810.08,-330.11 807.58,-336.65"/>
</g>
<!-- Node15&#45;&gt;Node8 -->
<g id="edge16" class="edge">
<title>Node15&#45;&gt;Node8</title>
<path fill="none" stroke="midnightblue" d="M575.65,-418.4C585.5,-415.81 595.71,-412.68 605,-409 633.51,-397.69 663.89,-379.76 683.9,-367.03"/>
<polygon fill="midnightblue" stroke="midnightblue" points="685.82,-369.96 692.32,-361.59 682.02,-364.08 685.82,-369.96"/>
</g>
<!-- Node15&#45;&gt;Node9 -->
<g id="edge17" class="edge">
<title>Node15&#45;&gt;Node9</title>
<path fill="none" stroke="midnightblue" d="M569.83,-418.45C628.03,-405.01 734.34,-380.45 800.15,-365.25"/>
<polygon fill="midnightblue" stroke="midnightblue" points="801,-368.64 809.95,-362.98 799.42,-361.82 801,-368.64"/>
</g>
<!-- Node18 -->
<g id="node18" class="node">
<title>Node18</title>
<g id="a_node18"><a xlink:href="HttpResponse_8cpp.html#aadc8fd8bbc80a1b3551ea1357e04f07b" target="_top" xlink:title=" ">
<polygon fill="white" stroke="black" points="648,-190.5 648,-209.5 767,-209.5 767,-190.5 648,-190.5"/>
<text text-anchor="middle" x="707.5" y="-197.5" font-family="Helvetica,sans-Serif" font-size="10.00">reasonPhraseForStatus</text>
</a>
</g>
</g>
<!-- Node17&#45;&gt;Node18 -->
<g id="edge21" class="edge">
<title>Node17&#45;&gt;Node18</title>
<path fill="none" stroke="midnightblue" d="M603.21,-200C614.65,-200 626.41,-200 637.71,-200"/>
<polygon fill="midnightblue" stroke="midnightblue" points="637.94,-203.5 647.94,-200 637.94,-196.5 637.94,-203.5"/>
</g>
</g>
</svg>
        <g id="navigator" transform="translate(0 0)" fill="#404254">
                <rect fill="#f2f5e9" fill-opacity="0.5" stroke="#606060" stroke-width=".5" x="0" y="0" width="60" height="60"/>
                <use id="zoomplus" xlink:href="#zoomPlus" x="17" y="9" onmousedown="handleZoom(evt,'in')"/>
                <use id="zoomminus" xlink:href="#zoomMin" x="42" y="9" onmousedown="handleZoom(evt,'out')"/>
                <use id="reset" xlink:href="#resetDef" x="30" y="36" onmousedown="handleReset()"/>
                <g id="arrowUp" xlink:href="#dirArrow" transform="translate(30 24)" onmousedown="handlePan(0,-1)">
                  <use xlink:href="#rim" fill="#404040">
                        <set attributeName="fill" to="#808080" begin="arrowUp.mouseover" end="arrowUp.mouseout"/>
                  </use>
                  <path fill="none" stroke="white" stroke-width="1.5" d="M0,-3.0v7 M-2.5,-0.5L0,-3.0L2.5,-0.5"/>
                </g>
                <g id="arrowRight" xlink:href="#dirArrow" transform="rotate(90) translate(36 -43)" onmousedown="handlePan(1,0)">
                  <use xlink:href="#rim" fill="#404040">
                        <set attributeName="fill" to="#808080" begin="arrowRight.mouseover" end="arrowRight.mouseout"/>
                  </use>
                  <path fill="none" stroke="white" stroke-width="1.5" d="M0,-3.0v7 M-2.5,-0.5L0,-3.0L2.5,-0.5"/>
                </g>
                <g id="arrowDown" xlink:href="#dirArrow" transform="rotate(180) translate(-30 -48)" onmousedown="handlePan(0,1)">
                  <use xlink:href="#rim" fill="#404040">
                        <set attributeName="fill" to="#808080" begin="arrowDown.mouseover" end="arrowDown.mouseout"/>
                  </use>
                  <path fill="none" stroke="white" stroke-width="1.5" d="M0,-3.0v7 M-2.5,-0.5L0,-3.0L2.5,-0.5"/>
                </g>
                <g id="arrowLeft" xlink:href="#dirArrow" transform="rotate(270) translate(-36 17)" onmousedown="handlePan(-1,0)">
                  <use xlink:href="#rim" fill="#404040">
                        <set attributeName="fill" to="#808080" begin="arrowLeft.mouseover" end="arrowLeft.mouseout"/>
                  </use>
                  <path fill="none" stroke="white" stroke-width="1.5" d="M0,-3.0v7 M-2.5,-0.5L0,-3.0L2.5,-0.5"/>
                </g>
        </g>
        <svg viewBox="0 0 15 15" width="100%" height="30px" preserveAspectRatio="xMaxYMin meet">
         <g id="arrow_out" transform="scale(0.3 0.3)">
          <a xlink:href="classRequestProcessor_a79915b1a2fda205b7d5a6c92e5e3fce8_cgraph_org.svg" target="_base">
           <rect id="button" ry="5" rx="5" y="6" x="6" height="38" width="38"
                fill="#f2f5e9" fill-opacity="0.5" stroke="#606060" stroke-width="1.0"/>
           <path id="arrow"
             d="M 11.500037,31.436501 C 11.940474,20.09759 22.043105,11.32322 32.158766,21.979434 L 37.068811,17.246167 C 37.068811,17.246167 37.088388,32 37.088388,32 L 22.160133,31.978069 C 22.160133,31.978069 26.997745,27.140456 26.997745,27.140456 C 18.528582,18.264221 13.291696,25.230495 11.500037,31.436501 z"
             style="fill:#404040;"/>
          </a>
         </g>
        </svg>
</svg>
