<?xml version="1.0" encoding="UTF-8" standalone="no"?>
<!DOCTYPE svg PUBLIC "-//W3C//DTD SVG 1.1//EN"
 "http://www.w3.org/Graphics/SVG/1.1/DTD/svg11.dtd">
<!-- Generated by graphviz version 2.43.0 (0)
 -->
<!-- Title: HttpResponse::setHeader Pages: 1 -->
<svg width="2133pt" height="544pt"
 viewBox="0.00 0.00 2133.00 543.81" xmlns="http://www.w3.org/2000/svg" xmlns:xlink="http://www.w3.org/1999/xlink">
<g id="graph0" class="graph" transform="scale(1 1) rotate(0) translate(4 539.81)">
<title>HttpResponse::setHeader</title>
<polygon fill="white" stroke="transparent" points="-4,4 -4,-539.81 2129,-539.81 2129,4 -4,4"/>
<!-- Node1 -->
<g id="node1" class="node">
<title>Node1</title>
<g id="a_node1"><a xlink:title=" ">
<polygon fill="#bfbfbf" stroke="black" points="1994,-325.5 1994,-344.5 2125,-344.5 2125,-325.5 1994,-325.5"/>
<text text-anchor="middle" x="2059.5" y="-332.5" font-family="Helvetica,sans-Serif" font-size="10.00">HttpResponse::setHeader</text>
</a>
</g>
</g>
<!-- Node2 -->
<g id="node2" class="node">
<title>Node2</title>
<g id="a_node2"><a xlink:href="SessionUtils_8cpp.html#aabfd66406b8a4aec4237b26ff8e76a65" target="_top" xlink:title=" ">
<polygon fill="white" stroke="black" points="1811.5,-401.5 1811.5,-420.5 1949.5,-420.5 1949.5,-401.5 1811.5,-401.5"/>
<text text-anchor="middle" x="1880.5" y="-408.5" font-family="Helvetica,sans-Serif" font-size="10.00">addSessionCookieIfNeeded</text>
</a>
</g>
</g>
<!-- Node1&#45;&gt;Node2 -->
<g id="edge1" class="edge">
<title>Node1&#45;&gt;Node2</title>
<path fill="none" stroke="midnightblue" d="M2035.88,-350.22C2016.07,-362.94 1986.15,-380.77 1958,-392 1948.72,-395.7 1938.51,-398.84 1928.66,-401.43"/>
<polygon fill="midnightblue" stroke="midnightblue" points="2038.02,-353 2044.47,-344.6 2034.19,-347.14 2038.02,-353"/>
</g>
<!-- Node3 -->
<g id="node3" class="node">
<title>Node3</title>
<g id="a_node3"><a xlink:href="ResponseUtils_8cpp.html#ab7c2cb6fbf297c09ec402182b04584c6" target="_top" xlink:title=" ">
<polygon fill="white" stroke="black" points="1674,-439.5 1674,-458.5 1767,-458.5 1767,-439.5 1674,-439.5"/>
<text text-anchor="middle" x="1720.5" y="-446.5" font-family="Helvetica,sans-Serif" font-size="10.00">fillBaseResponse</text>
</a>
</g>
</g>
<!-- Node1&#45;&gt;Node3 -->
<g id="edge39" class="edge">
<title>Node1&#45;&gt;Node3</title>
<path fill="none" stroke="midnightblue" d="M2045.89,-352.8C2028.85,-375.27 1996.15,-413.02 1958,-430 1896.28,-457.47 1816.58,-457.54 1767.27,-454.04"/>
<polygon fill="midnightblue" stroke="midnightblue" points="2048.72,-354.87 2051.83,-344.75 2043.08,-350.72 2048.72,-354.87"/>
</g>
<!-- Node4 -->
<g id="node4" class="node">
<title>Node4</title>
<g id="a_node4"><a xlink:href="ErrorUtils_8cpp.html#a470416220aa911b8f1274140a8322e7a" target="_top" xlink:title=" ">
<polygon fill="white" stroke="black" points="1536,-306.5 1536,-325.5 1638,-325.5 1638,-306.5 1536,-306.5"/>
<text text-anchor="middle" x="1587" y="-313.5" font-family="Helvetica,sans-Serif" font-size="10.00">buildErrorResponse</text>
</a>
</g>
</g>
<!-- Node1&#45;&gt;Node4 -->
<g id="edge38" class="edge">
<title>Node1&#45;&gt;Node4</title>
<path fill="none" stroke="midnightblue" d="M1983.57,-331.97C1886.83,-328.07 1721.09,-321.37 1638.24,-318.03"/>
<polygon fill="midnightblue" stroke="midnightblue" points="1983.44,-335.47 1993.57,-332.38 1983.72,-328.48 1983.44,-335.47"/>
</g>
<!-- Node13 -->
<g id="node13" class="node">
<title>Node13</title>
<g id="a_node13"><a xlink:href="classClient.html#a09d6029b60ae8c9773362968e72f2e54" target="_top" xlink:title=" ">
<polygon fill="white" stroke="black" points="317,-72.5 317,-91.5 455,-91.5 455,-72.5 317,-72.5"/>
<text text-anchor="middle" x="386" y="-79.5" font-family="Helvetica,sans-Serif" font-size="10.00">Client::finalizeCgiResponse</text>
</a>
</g>
</g>
<!-- Node1&#45;&gt;Node13 -->
<g id="edge40" class="edge">
<title>Node1&#45;&gt;Node13</title>
<path fill="none" stroke="midnightblue" d="M2056.34,-315.15C2050.12,-267.66 2027.89,-146.53 1958,-80 1877.63,-3.49 1832.46,0 1721.5,0 1721.5,0 1721.5,0 728.5,0 621.38,0 594.14,-12.09 491,-41 461.29,-49.33 428.36,-63.13 407.68,-72.39"/>
<polygon fill="midnightblue" stroke="midnightblue" points="2052.89,-315.81 2057.57,-325.32 2059.84,-314.97 2052.89,-315.81"/>
</g>
<!-- Node18 -->
<g id="node18" class="node">
<title>Node18</title>
<g id="a_node18"><a xlink:href="StaticPathHandler_8cpp.html#a28a771d93d3051098585ebc34ed29855" target="_top" xlink:title=" ">
<polygon fill="white" stroke="black" points="1391.5,-496.5 1391.5,-515.5 1476.5,-515.5 1476.5,-496.5 1391.5,-496.5"/>
<text text-anchor="middle" x="1434" y="-503.5" font-family="Helvetica,sans-Serif" font-size="10.00">handleDirectory</text>
</a>
</g>
</g>
<!-- Node1&#45;&gt;Node18 -->
<g id="edge41" class="edge">
<title>Node1&#45;&gt;Node18</title>
<path fill="none" stroke="midnightblue" d="M2049.08,-353.76C2034.03,-381.49 2001.77,-432.64 1958,-456 1797.46,-541.68 1569.52,-524.18 1476.72,-512.29"/>
<polygon fill="midnightblue" stroke="midnightblue" points="2052.28,-355.18 2053.83,-344.7 2046.08,-351.93 2052.28,-355.18"/>
</g>
<!-- Node20 -->
<g id="node20" class="node">
<title>Node20</title>
<g id="a_node20"><a xlink:href="classRequestProcessor.html#a606f9c02a3166ca58e6930f8d292d81c" target="_top" xlink:title=" ">
<polygon fill="white" stroke="black" points="1368,-67 1368,-97 1500,-97 1500,-67 1368,-67"/>
<text text-anchor="start" x="1376" y="-85" font-family="Helvetica,sans-Serif" font-size="10.00">RequestProcessor::handle</text>
<text text-anchor="middle" x="1434" y="-74" font-family="Helvetica,sans-Serif" font-size="10.00">LocationValidation</text>
</a>
</g>
</g>
<!-- Node1&#45;&gt;Node20 -->
<g id="edge42" class="edge">
<title>Node1&#45;&gt;Node20</title>
<path fill="none" stroke="midnightblue" d="M2026.27,-321.57C1940.75,-286.01 1700.88,-186.63 1500,-107 1491.79,-103.75 1482.98,-100.32 1474.58,-97.07"/>
<polygon fill="midnightblue" stroke="midnightblue" points="2025.11,-324.88 2035.69,-325.49 2027.8,-318.42 2025.11,-324.88"/>
</g>
<!-- Node24 -->
<g id="node24" class="node">
<title>Node24</title>
<g id="a_node24"><a xlink:href="ClientCgi_8cpp.html#a8b77e6a9b66d57c486e83d946c0ae62a" target="_top" xlink:title=" ">
<polygon fill="white" stroke="black" points="1674.5,-49.5 1674.5,-68.5 1766.5,-68.5 1766.5,-49.5 1674.5,-49.5"/>
<text text-anchor="middle" x="1720.5" y="-56.5" font-family="Helvetica,sans-Serif" font-size="10.00">parseCgiHeaders</text>
</a>
</g>
</g>
<!-- Node1&#45;&gt;Node24 -->
<g id="edge43" class="edge">
<title>Node1&#45;&gt;Node24</title>
<path fill="none" stroke="midnightblue" d="M2051.66,-315.75C2038.51,-281.26 2006.66,-208.47 1958,-165 1899.61,-112.84 1811.34,-82.62 1760.78,-68.61"/>
<polygon fill="midnightblue" stroke="midnightblue" points="2048.38,-316.99 2055.13,-325.15 2054.95,-314.56 2048.38,-316.99"/>
</g>
<!-- Node25 -->
<g id="node25" class="node">
<title>Node25</title>
<g id="a_node25"><a xlink:href="classHttpResponse.html#a11a67ba43096f5eb1870e65f1814d364" target="_top" xlink:title=" ">
<polygon fill="white" stroke="black" points="1803,-363.5 1803,-382.5 1958,-382.5 1958,-363.5 1803,-363.5"/>
<text text-anchor="middle" x="1880.5" y="-370.5" font-family="Helvetica,sans-Serif" font-size="10.00">HttpResponse::setContentType</text>
</a>
</g>
</g>
<!-- Node1&#45;&gt;Node25 -->
<g id="edge45" class="edge">
<title>Node1&#45;&gt;Node25</title>
<path fill="none" stroke="midnightblue" d="M2003.76,-346.75C1978.73,-352.13 1949.47,-358.41 1925.84,-363.48"/>
<polygon fill="midnightblue" stroke="midnightblue" points="2004.79,-350.11 2013.84,-344.59 2003.32,-343.27 2004.79,-350.11"/>
</g>
<!-- Node2&#45;&gt;Node3 -->
<g id="edge2" class="edge">
<title>Node2&#45;&gt;Node3</title>
<path fill="none" stroke="midnightblue" d="M1829.74,-422.97C1807.6,-428.29 1781.89,-434.48 1761.08,-439.48"/>
<polygon fill="midnightblue" stroke="midnightblue" points="1830.73,-426.33 1839.63,-420.59 1829.09,-419.52 1830.73,-426.33"/>
</g>
<!-- Node3&#45;&gt;Node4 -->
<g id="edge3" class="edge">
<title>Node3&#45;&gt;Node4</title>
<path fill="none" stroke="midnightblue" d="M1702.99,-432.3C1675.23,-404.23 1620.06,-348.43 1597.73,-325.84"/>
<polygon fill="midnightblue" stroke="midnightblue" points="1700.52,-434.78 1710.04,-439.43 1705.5,-429.86 1700.52,-434.78"/>
</g>
<!-- Node15 -->
<g id="node15" class="node">
<title>Node15</title>
<g id="a_node15"><a xlink:href="classRequestProcessor.html#a3fa9c97a7d142a7b607002138de87140" target="_top" xlink:title=" ">
<polygon fill="white" stroke="black" points="1011,-278.5 1011,-297.5 1149,-297.5 1149,-278.5 1011,-278.5"/>
<text text-anchor="middle" x="1080" y="-285.5" font-family="Helvetica,sans-Serif" font-size="10.00">RequestProcessor::process</text>
</a>
</g>
</g>
<!-- Node3&#45;&gt;Node15 -->
<g id="edge37" class="edge">
<title>Node3&#45;&gt;Node15</title>
<path fill="none" stroke="midnightblue" d="M1693.37,-463.5C1677.67,-471.79 1657.09,-481.91 1638,-489 1524.52,-531.16 1486.72,-548.67 1368,-525 1281.63,-507.78 1252.62,-505.43 1185,-449 1131.6,-404.44 1096.08,-325.33 1084.83,-297.78"/>
<polygon fill="midnightblue" stroke="midnightblue" points="1695.3,-466.44 1702.46,-458.62 1691.99,-460.27 1695.3,-466.44"/>
</g>
<!-- Node3&#45;&gt;Node18 -->
<g id="edge35" class="edge">
<title>Node3&#45;&gt;Node18</title>
<path fill="none" stroke="midnightblue" d="M1663.88,-460.14C1609.03,-471.13 1526.42,-487.68 1476.89,-497.61"/>
<polygon fill="midnightblue" stroke="midnightblue" points="1664.67,-463.55 1673.79,-458.16 1663.3,-456.69 1664.67,-463.55"/>
</g>
<!-- Node3&#45;&gt;Node20 -->
<g id="edge36" class="edge">
<title>Node3&#45;&gt;Node20</title>
<path fill="none" stroke="midnightblue" d="M1711.4,-429.92C1698.27,-400.09 1670.52,-341.24 1638,-297 1599.65,-244.84 1571.81,-246.94 1536,-193 1513.08,-158.48 1529.73,-135.87 1500,-107 1496.01,-103.13 1491.36,-99.84 1486.4,-97.05"/>
<polygon fill="midnightblue" stroke="midnightblue" points="1708.23,-431.41 1715.41,-439.19 1714.65,-428.63 1708.23,-431.41"/>
</g>
<!-- Node5 -->
<g id="node5" class="node">
<title>Node5</title>
<g id="a_node5"><a xlink:href="classClient.html#a3b000abab7a3fe339f0f39ad5daca68f" target="_top" xlink:title=" ">
<polygon fill="white" stroke="black" points="1371.5,-116.5 1371.5,-135.5 1496.5,-135.5 1496.5,-116.5 1371.5,-116.5"/>
<text text-anchor="middle" x="1434" y="-123.5" font-family="Helvetica,sans-Serif" font-size="10.00">Client::checkCgiTimeout</text>
</a>
</g>
</g>
<!-- Node4&#45;&gt;Node5 -->
<g id="edge4" class="edge">
<title>Node4&#45;&gt;Node5</title>
<path fill="none" stroke="midnightblue" d="M1563.19,-300.45C1553.58,-292.86 1543.02,-283.01 1536,-272 1505.59,-224.34 1538.62,-191.29 1500,-150 1494.08,-143.67 1486.35,-139.01 1478.3,-135.57"/>
<polygon fill="midnightblue" stroke="midnightblue" points="1561.17,-303.3 1571.27,-306.49 1565.36,-297.7 1561.17,-303.3"/>
</g>
<!-- Node6 -->
<g id="node6" class="node">
<title>Node6</title>
<g id="a_node6"><a xlink:href="classClient.html#ae523ed90bd32b88e539ebdf30746382b" target="_top" xlink:title=" ">
<polygon fill="white" stroke="black" points="1023.5,-237.5 1023.5,-256.5 1136.5,-256.5 1136.5,-237.5 1023.5,-237.5"/>
<text text-anchor="middle" x="1080" y="-244.5" font-family="Helvetica,sans-Serif" font-size="10.00">Client::dispatchAction</text>
</a>
</g>
</g>
<!-- Node4&#45;&gt;Node6 -->
<g id="edge5" class="edge">
<title>Node4&#45;&gt;Node6</title>
<path fill="none" stroke="midnightblue" d="M1551.39,-302.92C1535.85,-297.41 1517.18,-291.3 1500,-287 1372.76,-255.16 1217.95,-248.31 1136.8,-247.05"/>
<polygon fill="midnightblue" stroke="midnightblue" points="1550.51,-306.32 1561.1,-306.42 1552.88,-299.74 1550.51,-306.32"/>
</g>
<!-- Node4&#45;&gt;Node13 -->
<g id="edge14" class="edge">
<title>Node4&#45;&gt;Node13</title>
<path fill="none" stroke="midnightblue" d="M1568.58,-298.73C1558.28,-287.93 1545.45,-273.38 1536,-259 1515.48,-227.76 1530.16,-205.07 1500,-183 1462.09,-155.25 1127.98,-126 1081,-126 1081,-126 1081,-126 728.5,-126 621.5,-126 497.17,-104.49 432.06,-91.55"/>
<polygon fill="midnightblue" stroke="midnightblue" points="1566.37,-301.49 1575.86,-306.2 1571.38,-296.6 1566.37,-301.49"/>
</g>
<!-- Node14 -->
<g id="node14" class="node">
<title>Node14</title>
<g id="a_node14"><a xlink:href="classRequestProcessor.html#a79915b1a2fda205b7d5a6c92e5e3fce8" target="_top" xlink:title=" ">
<polygon fill="white" stroke="black" points="1185,-356.5 1185,-375.5 1332,-375.5 1332,-356.5 1185,-356.5"/>
<text text-anchor="middle" x="1258.5" y="-363.5" font-family="Helvetica,sans-Serif" font-size="10.00">RequestProcessor::handleCgi</text>
</a>
</g>
</g>
<!-- Node4&#45;&gt;Node14 -->
<g id="edge15" class="edge">
<title>Node4&#45;&gt;Node14</title>
<path fill="none" stroke="midnightblue" d="M1525.9,-325.88C1517.21,-327.28 1508.38,-328.69 1500,-330 1440.66,-339.27 1373.01,-349.35 1324.61,-356.48"/>
<polygon fill="midnightblue" stroke="midnightblue" points="1526.68,-329.3 1535.99,-324.25 1525.56,-322.39 1526.68,-329.3"/>
</g>
<!-- Node4&#45;&gt;Node15 -->
<g id="edge34" class="edge">
<title>Node4&#45;&gt;Node15</title>
<path fill="none" stroke="midnightblue" d="M1525.61,-317.98C1446.96,-319.83 1305.29,-320.67 1185,-308 1163.97,-305.78 1140.85,-301.52 1121.76,-297.5"/>
<polygon fill="midnightblue" stroke="midnightblue" points="1525.91,-321.47 1535.82,-317.73 1525.73,-314.48 1525.91,-321.47"/>
</g>
<!-- Node16 -->
<g id="node16" class="node">
<title>Node16</title>
<g id="a_node16"><a xlink:href="classClient.html#a4104efd3f5f7e1c0f3e3302b46861624" target="_top" xlink:title=" ">
<polygon fill="white" stroke="black" points="1378.5,-192.5 1378.5,-211.5 1489.5,-211.5 1489.5,-192.5 1378.5,-192.5"/>
<text text-anchor="middle" x="1434" y="-199.5" font-family="Helvetica,sans-Serif" font-size="10.00">Client::handleCgiPipe</text>
</a>
</g>
</g>
<!-- Node4&#45;&gt;Node16 -->
<g id="edge19" class="edge">
<title>Node4&#45;&gt;Node16</title>
<path fill="none" stroke="midnightblue" d="M1566.14,-299.99C1556.64,-291.97 1545.33,-281.89 1536,-272 1518.18,-253.12 1520.97,-241.3 1500,-226 1491.54,-219.83 1481.33,-215.08 1471.53,-211.5"/>
<polygon fill="midnightblue" stroke="midnightblue" points="1563.99,-302.76 1573.92,-306.44 1568.46,-297.37 1563.99,-302.76"/>
</g>
<!-- Node4&#45;&gt;Node18 -->
<g id="edge22" class="edge">
<title>Node4&#45;&gt;Node18</title>
<path fill="none" stroke="midnightblue" d="M1573.58,-334.09C1562.84,-350.17 1547.31,-374.55 1536,-397 1516.61,-435.47 1531.89,-458.04 1500,-487 1493.47,-492.93 1485.19,-497.01 1476.74,-499.83"/>
<polygon fill="midnightblue" stroke="midnightblue" points="1576.57,-335.9 1579.27,-325.66 1570.78,-331.98 1576.57,-335.9"/>
</g>
<!-- Node19 -->
<g id="node19" class="node">
<title>Node19</title>
<g id="a_node19"><a xlink:href="StaticPathHandler_8cpp.html#a4e092999675b45373270f5408cbe64c7" target="_top" xlink:title=" ">
<polygon fill="white" stroke="black" points="1213,-420.5 1213,-439.5 1304,-439.5 1304,-420.5 1213,-420.5"/>
<text text-anchor="middle" x="1258.5" y="-427.5" font-family="Helvetica,sans-Serif" font-size="10.00">handleStaticPath</text>
</a>
</g>
</g>
<!-- Node4&#45;&gt;Node19 -->
<g id="edge31" class="edge">
<title>Node4&#45;&gt;Node19</title>
<path fill="none" stroke="midnightblue" d="M1564.81,-332.2C1555.47,-339.83 1544.68,-349.36 1536,-359 1517.19,-379.89 1524.37,-396.98 1500,-411 1439.19,-445.98 1355,-443.32 1304.05,-437.3"/>
<polygon fill="midnightblue" stroke="midnightblue" points="1567.23,-334.75 1572.87,-325.78 1562.86,-329.27 1567.23,-334.75"/>
</g>
<!-- Node4&#45;&gt;Node20 -->
<g id="edge25" class="edge">
<title>Node4&#45;&gt;Node20</title>
<path fill="none" stroke="midnightblue" d="M1562.41,-300.36C1552.84,-292.87 1542.53,-283.1 1536,-272 1497.93,-207.31 1548.88,-163.96 1500,-107 1496.69,-103.15 1492.72,-99.88 1488.39,-97.12"/>
<polygon fill="midnightblue" stroke="midnightblue" points="1560.39,-303.22 1570.51,-306.34 1564.55,-297.59 1560.39,-303.22"/>
</g>
<!-- Node21 -->
<g id="node21" class="node">
<title>Node21</title>
<g id="a_node21"><a xlink:href="classRequestProcessor.html#a10779d8453416feeda2174859c00d082" target="_top" xlink:title=" ">
<polygon fill="white" stroke="black" points="1192.5,-269 1192.5,-299 1324.5,-299 1324.5,-269 1192.5,-269"/>
<text text-anchor="start" x="1200.5" y="-287" font-family="Helvetica,sans-Serif" font-size="10.00">RequestProcessor::handle</text>
<text text-anchor="middle" x="1258.5" y="-276" font-family="Helvetica,sans-Serif" font-size="10.00">ParseOrMethodErrors</text>
</a>
</g>
</g>
<!-- Node4&#45;&gt;Node21 -->
<g id="edge27" class="edge">
<title>Node4&#45;&gt;Node21</title>
<path fill="none" stroke="midnightblue" d="M1525.64,-305.5C1517.05,-304.2 1508.31,-302.99 1500,-302 1440.85,-294.99 1373.18,-290.21 1324.72,-287.35"/>
<polygon fill="midnightblue" stroke="midnightblue" points="1525.21,-308.97 1535.63,-307.05 1526.28,-302.05 1525.21,-308.97"/>
</g>
<!-- Node22 -->
<g id="node22" class="node">
<title>Node22</title>
<g id="a_node22"><a xlink:href="StaticPathHandler_8cpp.html#a5af8659f0f83e8296b29264dd671af0d" target="_top" xlink:title=" ">
<polygon fill="white" stroke="black" points="1386.5,-458.5 1386.5,-477.5 1481.5,-477.5 1481.5,-458.5 1386.5,-458.5"/>
<text text-anchor="middle" x="1434" y="-465.5" font-family="Helvetica,sans-Serif" font-size="10.00">handleRegularFile</text>
</a>
</g>
</g>
<!-- Node4&#45;&gt;Node22 -->
<g id="edge29" class="edge">
<title>Node4&#45;&gt;Node22</title>
<path fill="none" stroke="midnightblue" d="M1563.46,-331.72C1554.03,-339.16 1543.55,-348.66 1536,-359 1511.81,-392.14 1529.68,-415.68 1500,-444 1493.39,-450.31 1484.97,-454.99 1476.4,-458.45"/>
<polygon fill="midnightblue" stroke="midnightblue" points="1565.82,-334.33 1571.7,-325.52 1561.6,-328.74 1565.82,-334.33"/>
</g>
<!-- Node23 -->
<g id="node23" class="node">
<title>Node23</title>
<g id="a_node23"><a xlink:href="StaticPathHandler_8cpp.html#a638cb25cad6c24877a0e75984110ea7a" target="_top" xlink:title=" ">
<polygon fill="white" stroke="black" points="1396,-382.5 1396,-401.5 1472,-401.5 1472,-382.5 1396,-382.5"/>
<text text-anchor="middle" x="1434" y="-389.5" font-family="Helvetica,sans-Serif" font-size="10.00">handleUpload</text>
</a>
</g>
</g>
<!-- Node4&#45;&gt;Node23 -->
<g id="edge32" class="edge">
<title>Node4&#45;&gt;Node23</title>
<path fill="none" stroke="midnightblue" d="M1563.52,-331.22C1546.54,-342.3 1522.42,-357.21 1500,-368 1488.73,-373.43 1475.89,-378.41 1464.61,-382.41"/>
<polygon fill="midnightblue" stroke="midnightblue" points="1565.75,-333.94 1572.16,-325.5 1561.89,-328.1 1565.75,-333.94"/>
</g>
<!-- Node7 -->
<g id="node7" class="node">
<title>Node7</title>
<g id="a_node7"><a xlink:href="classClient.html#a419f8f3253d3f71287044e3999a5d600" target="_top" xlink:title=" ">
<polygon fill="white" stroke="black" points="852.5,-239.5 852.5,-258.5 965.5,-258.5 965.5,-239.5 852.5,-239.5"/>
<text text-anchor="middle" x="909" y="-246.5" font-family="Helvetica,sans-Serif" font-size="10.00">Client::buildResponse</text>
</a>
</g>
</g>
<!-- Node6&#45;&gt;Node7 -->
<g id="edge6" class="edge">
<title>Node6&#45;&gt;Node7</title>
<path fill="none" stroke="midnightblue" d="M1013.07,-247.78C997.42,-247.97 980.89,-248.16 965.75,-248.34"/>
<polygon fill="midnightblue" stroke="midnightblue" points="1013.24,-251.28 1023.19,-247.66 1013.15,-244.28 1013.24,-251.28"/>
</g>
<!-- Node8 -->
<g id="node8" class="node">
<title>Node8</title>
<g id="a_node8"><a xlink:href="classClient.html#abcf615f2514ae7e0266315693e73a31a" target="_top" xlink:title=" ">
<polygon fill="white" stroke="black" points="652,-239.5 652,-258.5 807,-258.5 807,-239.5 652,-239.5"/>
<text text-anchor="middle" x="729.5" y="-246.5" font-family="Helvetica,sans-Serif" font-size="10.00">Client::handleCompleteRequest</text>
</a>
</g>
</g>
<!-- Node7&#45;&gt;Node8 -->
<g id="edge7" class="edge">
<title>Node7&#45;&gt;Node8</title>
<path fill="none" stroke="midnightblue" d="M842.05,-249C830.67,-249 818.75,-249 807.12,-249"/>
<polygon fill="midnightblue" stroke="midnightblue" points="842.32,-252.5 852.32,-249 842.32,-245.5 842.32,-252.5"/>
</g>
<!-- Node9 -->
<g id="node9" class="node">
<title>Node9</title>
<g id="a_node9"><a xlink:href="classClient.html#ac95fe5b24fe5275bd2271bd1ac37596d" target="_top" xlink:title=" ">
<polygon fill="white" stroke="black" points="336,-204.5 336,-223.5 436,-223.5 436,-204.5 336,-204.5"/>
<text text-anchor="middle" x="386" y="-211.5" font-family="Helvetica,sans-Serif" font-size="10.00">Client::handleRead</text>
</a>
</g>
</g>
<!-- Node8&#45;&gt;Node9 -->
<g id="edge8" class="edge">
<title>Node8&#45;&gt;Node9</title>
<path fill="none" stroke="midnightblue" d="M641.85,-243.59C596.79,-240.39 540.85,-235.82 491,-230 473.04,-227.9 453.41,-225.03 436.1,-222.31"/>
<polygon fill="midnightblue" stroke="midnightblue" points="641.67,-247.09 651.89,-244.29 642.15,-240.1 641.67,-247.09"/>
</g>
<!-- Node12 -->
<g id="node12" class="node">
<title>Node12</title>
<g id="a_node12"><a xlink:href="classClient.html#a950fd2ab8ac20c9be4c5e722344d6fe2" target="_top" xlink:title=" ">
<polygon fill="white" stroke="black" points="491,-201.5 491,-220.5 616,-220.5 616,-201.5 491,-201.5"/>
<text text-anchor="middle" x="553.5" y="-208.5" font-family="Helvetica,sans-Serif" font-size="10.00">Client::processRequests</text>
</a>
</g>
</g>
<!-- Node8&#45;&gt;Node12 -->
<g id="edge11" class="edge">
<title>Node8&#45;&gt;Node12</title>
<path fill="none" stroke="midnightblue" d="M674.69,-237.25C650.08,-231.87 621.31,-225.59 598.09,-220.52"/>
<polygon fill="midnightblue" stroke="midnightblue" points="674.08,-240.7 684.59,-239.41 675.57,-233.86 674.08,-240.7"/>
</g>
<!-- Node10 -->
<g id="node10" class="node">
<title>Node10</title>
<g id="a_node10"><a xlink:href="classServerManager.html#a9f3ca46da9df004286f90902b8daf29d" target="_top" xlink:title=" ">
<polygon fill="white" stroke="black" points="138,-199 138,-229 281,-229 281,-199 138,-199"/>
<text text-anchor="start" x="146" y="-217" font-family="Helvetica,sans-Serif" font-size="10.00">ServerManager::handleClient</text>
<text text-anchor="middle" x="209.5" y="-206" font-family="Helvetica,sans-Serif" font-size="10.00">Event</text>
</a>
</g>
</g>
<!-- Node9&#45;&gt;Node10 -->
<g id="edge9" class="edge">
<title>Node9&#45;&gt;Node10</title>
<path fill="none" stroke="midnightblue" d="M325.69,-214C311.33,-214 295.84,-214 281.02,-214"/>
<polygon fill="midnightblue" stroke="midnightblue" points="325.93,-217.5 335.93,-214 325.93,-210.5 325.93,-217.5"/>
</g>
<!-- Node11 -->
<g id="node11" class="node">
<title>Node11</title>
<g id="a_node11"><a xlink:href="classServerManager.html#aecc313c9b6afcab92c22269b3333c721" target="_top" xlink:title=" ">
<polygon fill="white" stroke="black" points="0,-182.5 0,-201.5 102,-201.5 102,-182.5 0,-182.5"/>
<text text-anchor="middle" x="51" y="-189.5" font-family="Helvetica,sans-Serif" font-size="10.00">ServerManager::run</text>
</a>
</g>
</g>
<!-- Node10&#45;&gt;Node11 -->
<g id="edge10" class="edge">
<title>Node10&#45;&gt;Node11</title>
<path fill="none" stroke="midnightblue" d="M127.45,-202.61C118.82,-201.39 110.23,-200.19 102.11,-199.04"/>
<polygon fill="midnightblue" stroke="midnightblue" points="127.19,-206.1 137.58,-204.03 128.16,-199.17 127.19,-206.1"/>
</g>
<!-- Node12&#45;&gt;Node9 -->
<g id="edge13" class="edge">
<title>Node12&#45;&gt;Node9</title>
<path fill="none" stroke="midnightblue" d="M480.56,-212.3C465.52,-212.58 449.99,-212.86 436.02,-213.11"/>
<polygon fill="midnightblue" stroke="midnightblue" points="480.94,-215.8 490.87,-212.12 480.81,-208.8 480.94,-215.8"/>
</g>
<!-- Node12&#45;&gt;Node13 -->
<g id="edge12" class="edge">
<title>Node12&#45;&gt;Node13</title>
<path fill="none" stroke="midnightblue" d="M532.03,-195.05C497.34,-168.01 428,-113.96 399.58,-91.81"/>
<polygon fill="midnightblue" stroke="midnightblue" points="530.02,-197.92 540.06,-201.3 534.33,-192.4 530.02,-197.92"/>
</g>
<!-- Node14&#45;&gt;Node15 -->
<g id="edge16" class="edge">
<title>Node14&#45;&gt;Node15</title>
<path fill="none" stroke="midnightblue" d="M1215.2,-353.25C1205.18,-349.89 1194.62,-346.06 1185,-342 1153.14,-328.55 1117.73,-309.15 1097.54,-297.64"/>
<polygon fill="midnightblue" stroke="midnightblue" points="1214.38,-356.67 1224.97,-356.45 1216.55,-350.02 1214.38,-356.67"/>
</g>
<!-- Node15&#45;&gt;Node7 -->
<g id="edge17" class="edge">
<title>Node15&#45;&gt;Node7</title>
<path fill="none" stroke="midnightblue" d="M1027.8,-276.18C1003.27,-270.52 974.29,-263.84 951.21,-258.51"/>
<polygon fill="midnightblue" stroke="midnightblue" points="1027.13,-279.62 1037.66,-278.46 1028.7,-272.8 1027.13,-279.62"/>
</g>
<!-- Node15&#45;&gt;Node8 -->
<g id="edge18" class="edge">
<title>Node15&#45;&gt;Node8</title>
<path fill="none" stroke="midnightblue" d="M1000.73,-283C954.7,-279.65 895.43,-274.64 843,-268 822.76,-265.44 800.59,-261.86 781.33,-258.5"/>
<polygon fill="midnightblue" stroke="midnightblue" points="1000.71,-286.51 1010.94,-283.73 1001.21,-279.52 1000.71,-286.51"/>
</g>
<!-- Node17 -->
<g id="node17" class="node">
<title>Node17</title>
<g id="a_node17"><a xlink:href="classServerManager.html#a9c75ea0bd268425c187ef25770eccbe8" target="_top" xlink:title=" ">
<polygon fill="white" stroke="black" points="843,-155 843,-185 975,-185 975,-155 843,-155"/>
<text text-anchor="start" x="851" y="-173" font-family="Helvetica,sans-Serif" font-size="10.00">ServerManager::handleCgi</text>
<text text-anchor="middle" x="909" y="-162" font-family="Helvetica,sans-Serif" font-size="10.00">PipeEvent</text>
</a>
</g>
</g>
<!-- Node16&#45;&gt;Node17 -->
<g id="edge20" class="edge">
<title>Node16&#45;&gt;Node17</title>
<path fill="none" stroke="midnightblue" d="M1368,-198.02C1267.57,-191.88 1075.78,-180.14 975.22,-173.99"/>
<polygon fill="midnightblue" stroke="midnightblue" points="1367.82,-201.52 1378.02,-198.64 1368.25,-194.53 1367.82,-201.52"/>
</g>
<!-- Node17&#45;&gt;Node11 -->
<g id="edge21" class="edge">
<title>Node17&#45;&gt;Node11</title>
<path fill="none" stroke="midnightblue" d="M832.58,-170C761.01,-170 650.43,-170 554.5,-170 554.5,-170 554.5,-170 385,-170 284.48,-170 167.25,-180.11 102.14,-186.62"/>
<polygon fill="midnightblue" stroke="midnightblue" points="832.85,-173.5 842.85,-170 832.85,-166.5 832.85,-173.5"/>
</g>
<!-- Node18&#45;&gt;Node19 -->
<g id="edge23" class="edge">
<title>Node18&#45;&gt;Node19</title>
<path fill="none" stroke="midnightblue" d="M1385.49,-493.31C1379.54,-491.37 1373.59,-489.26 1368,-487 1333.67,-473.13 1295.89,-451.78 1275.2,-439.53"/>
<polygon fill="midnightblue" stroke="midnightblue" points="1384.85,-496.78 1395.44,-496.4 1386.93,-490.09 1384.85,-496.78"/>
</g>
<!-- Node19&#45;&gt;Node15 -->
<g id="edge24" class="edge">
<title>Node19&#45;&gt;Node15</title>
<path fill="none" stroke="midnightblue" d="M1231.14,-415.32C1217.02,-407.04 1199.57,-396.15 1185,-385 1147.35,-356.2 1107.67,-316.04 1090.19,-297.76"/>
<polygon fill="midnightblue" stroke="midnightblue" points="1229.47,-418.4 1239.88,-420.36 1232.97,-412.33 1229.47,-418.4"/>
</g>
<!-- Node20&#45;&gt;Node15 -->
<g id="edge26" class="edge">
<title>Node20&#45;&gt;Node15</title>
<path fill="none" stroke="midnightblue" d="M1379.78,-101.14C1375.73,-103 1371.77,-104.95 1368,-107 1262.3,-164.41 1256.21,-211.48 1149,-266 1139.27,-270.95 1128.19,-275.1 1117.84,-278.41"/>
<polygon fill="midnightblue" stroke="midnightblue" points="1381.51,-104.2 1389.29,-97 1378.72,-97.78 1381.51,-104.2"/>
</g>
<!-- Node21&#45;&gt;Node15 -->
<g id="edge28" class="edge">
<title>Node21&#45;&gt;Node15</title>
<path fill="none" stroke="midnightblue" d="M1181.95,-285.71C1171.07,-285.96 1159.93,-286.21 1149.2,-286.45"/>
<polygon fill="midnightblue" stroke="midnightblue" points="1182.36,-289.2 1192.28,-285.48 1182.2,-282.21 1182.36,-289.2"/>
</g>
<!-- Node22&#45;&gt;Node19 -->
<g id="edge30" class="edge">
<title>Node22&#45;&gt;Node19</title>
<path fill="none" stroke="midnightblue" d="M1379.34,-456.25C1354.81,-450.87 1326.12,-444.59 1302.97,-439.52"/>
<polygon fill="midnightblue" stroke="midnightblue" points="1378.7,-459.69 1389.22,-458.41 1380.2,-452.85 1378.7,-459.69"/>
</g>
<!-- Node23&#45;&gt;Node19 -->
<g id="edge33" class="edge">
<title>Node23&#45;&gt;Node19</title>
<path fill="none" stroke="midnightblue" d="M1385.85,-402.33C1360.05,-407.98 1328.31,-414.93 1303.09,-420.45"/>
<polygon fill="midnightblue" stroke="midnightblue" points="1386.76,-405.71 1395.78,-400.15 1385.26,-398.87 1386.76,-405.71"/>
</g>
<!-- Node24&#45;&gt;Node13 -->
<g id="edge44" class="edge">
<title>Node24&#45;&gt;Node13</title>
<path fill="none" stroke="midnightblue" d="M1663.96,-52.47C1606.68,-46.3 1514.73,-38 1435,-38 1435,-38 1435,-38 728.5,-38 621.5,-38 497.17,-59.51 432.06,-72.45"/>
<polygon fill="midnightblue" stroke="midnightblue" points="1663.92,-55.98 1674.24,-53.59 1664.68,-49.03 1663.92,-55.98"/>
</g>
<!-- Node25&#45;&gt;Node3 -->
<g id="edge47" class="edge">
<title>Node25&#45;&gt;Node3</title>
<path fill="none" stroke="midnightblue" d="M1816.58,-385.87C1811.88,-387.66 1807.3,-389.69 1803,-392 1783.88,-402.27 1784.74,-412.5 1767,-425 1759.41,-430.35 1750.47,-435.31 1742.54,-439.32"/>
<polygon fill="midnightblue" stroke="midnightblue" points="1818.03,-389.08 1826.36,-382.53 1815.76,-382.45 1818.03,-389.08"/>
</g>
<!-- Node25&#45;&gt;Node4 -->
<g id="edge46" class="edge">
<title>Node25&#45;&gt;Node4</title>
<path fill="none" stroke="midnightblue" d="M1820.59,-361.48C1766.59,-350.92 1687.56,-335.47 1636.95,-325.57"/>
<polygon fill="midnightblue" stroke="midnightblue" points="1820.22,-364.98 1830.71,-363.46 1821.57,-358.11 1820.22,-364.98"/>
</g>
<!-- Node25&#45;&gt;Node18 -->
<g id="edge48" class="edge">
<title>Node25&#45;&gt;Node18</title>
<path fill="none" stroke="midnightblue" d="M1802.11,-384.25C1730.57,-396.62 1622.56,-420.33 1536,-461 1518.14,-469.39 1517.73,-478.33 1500,-487 1492.4,-490.72 1483.93,-493.85 1475.68,-496.43"/>
<polygon fill="midnightblue" stroke="midnightblue" points="1803.12,-387.63 1812.4,-382.51 1801.95,-380.73 1803.12,-387.63"/>
</g>
<!-- Node25&#45;&gt;Node22 -->
<g id="edge49" class="edge">
<title>Node25&#45;&gt;Node22</title>
<path fill="none" stroke="midnightblue" d="M1806.83,-362.46C1734.23,-355.39 1621.44,-354.03 1536,-397 1514.04,-408.05 1519.71,-424.3 1500,-439 1489.1,-447.13 1475.57,-453.62 1463.68,-458.39"/>
<polygon fill="midnightblue" stroke="midnightblue" points="1806.49,-365.94 1816.8,-363.49 1807.21,-358.98 1806.49,-365.94"/>
</g>
</g>
</svg>
