<?xml version="1.0" encoding="UTF-8" standalone="no"?>
<!DOCTYPE svg PUBLIC "-//W3C//DTD SVG 1.1//EN"
 "http://www.w3.org/Graphics/SVG/1.1/DTD/svg11.dtd">
<!-- Generated by graphviz version 2.43.0 (0)
 -->
<!-- Title: Client::executeCgi Pages: 1 -->
<!--zoomable 341 -->
<svg id="main" version="1.1" xmlns="http://www.w3.org/2000/svg" xmlns:xlink="http://www.w3.org/1999/xlink" xml:space="preserve" onload="init(evt)">
<style type="text/css"><![CDATA[
.edge:hover path { stroke: red; }
.edge:hover polygon { stroke: red; fill: red; }
]]></style>
<script type="text/javascript"><![CDATA[
var edges = document.getElementsByTagName('g');
if (edges && edges.length) {
  for (var i=0;i<edges.length;i++) {
    if (edges[i].id.substr(0,4)=='edge') {
      edges[i].setAttribute('class','edge');
    }
  }
}
]]></script>
        <defs>
                <circle id="rim" cx="0" cy="0" r="7"/>
                <circle id="rim2" cx="0" cy="0" r="3.5"/>
                <g id="zoomPlus">
                        <use xlink:href="#rim" fill="#404040">
                                <set attributeName="fill" to="#808080" begin="zoomplus.mouseover" end="zoomplus.mouseout"/>
                        </use>
                        <path d="M-4,0h8M0,-4v8" fill="none" stroke="white" stroke-width="1.5" pointer-events="none"/>
                </g>
                <g id="zoomMin">
                        <use xlink:href="#rim" fill="#404040">
                                <set attributeName="fill" to="#808080" begin="zoomminus.mouseover" end="zoomminus.mouseout"/>
                        </use>
                        <path d="M-4,0h8" fill="none" stroke="white" stroke-width="1.5" pointer-events="none"/>
                </g>
                <g id="dirArrow">
                        <path fill="none" stroke="white" stroke-width="1.5" d="M0,-3.0v7 M-2.5,-0.5L0,-3.0L2.5,-0.5"/>
                </g>
               <g id="resetDef">
                       <use xlink:href="#rim2" fill="#404040">
                               <set attributeName="fill" to="#808080" begin="reset.mouseover" end="reset.mouseout"/>
                       </use>
               </g>
        </defs>

<script type="text/javascript">
var viewWidth = 681;
var viewHeight = 341;
var sectionId = 'dynsection-9';
</script>
<script xlink:href="svgpan.js"/>
<svg id="graph" class="graph">
<g id="viewport">
<title>Client::executeCgi</title>
<polygon fill="white" stroke="transparent" points="-4,4 -4,-336.5 677,-336.5 677,4 -4,4"/>
<!-- Node1 -->
<g id="node1" class="node">
<title>Node1</title>
<g id="a_node1"><a xlink:title=" ">
<polygon fill="#bfbfbf" stroke="black" points="0,-123 0,-142 98,-142 98,-123 0,-123"/>
<text text-anchor="middle" x="49" y="-130" font-family="Helvetica,sans-Serif" font-size="10.00">Client::executeCgi</text>
</a>
</g>
</g>
<!-- Node2 -->
<g id="node2" class="node">
<title>Node2</title>
<g id="a_node2"><a xlink:href="classCgiExecutor.html#a449e349a961449c342e4612d131bda8e" target="_top" xlink:title=" ">
<polygon fill="white" stroke="black" points="142,-237 142,-256 281,-256 281,-237 142,-237"/>
<text text-anchor="middle" x="211.5" y="-244" font-family="Helvetica,sans-Serif" font-size="10.00">CgiExecutor::executeAsync</text>
</a>
</g>
</g>
<!-- Node1&#45;&gt;Node2 -->
<g id="edge1" class="edge">
<title>Node1&#45;&gt;Node2</title>
<path fill="none" stroke="midnightblue" d="M55.6,-142.02C67.47,-161.32 97.1,-205.13 134,-227.5 137.62,-229.7 141.48,-231.64 145.48,-233.36"/>
<polygon fill="midnightblue" stroke="midnightblue" points="144.39,-236.69 154.98,-236.97 146.88,-230.14 144.39,-236.69"/>
</g>
<!-- Node17 -->
<g id="node17" class="node">
<title>Node17</title>
<g id="a_node17"><a xlink:href="classCgiProcess.html#a9716e52b70fda0486a075305bfae19a6" target="_top" xlink:title=" ">
<polygon fill="white" stroke="black" points="154,-199 154,-218 269,-218 269,-199 154,-199"/>
<text text-anchor="middle" x="211.5" y="-206" font-family="Helvetica,sans-Serif" font-size="10.00">CgiProcess::getPipeIn</text>
</a>
</g>
</g>
<!-- Node1&#45;&gt;Node17 -->
<g id="edge17" class="edge">
<title>Node1&#45;&gt;Node17</title>
<path fill="none" stroke="midnightblue" d="M61.18,-142.02C76.59,-154.66 105.68,-176.86 134,-189.5 139.44,-191.93 145.25,-194.08 151.14,-195.98"/>
<polygon fill="midnightblue" stroke="midnightblue" points="150.49,-199.44 161.07,-198.95 152.49,-192.73 150.49,-199.44"/>
</g>
<!-- Node18 -->
<g id="node18" class="node">
<title>Node18</title>
<g id="a_node18"><a xlink:href="classCgiProcess.html#ad9430b4680f7ad7316f6df7710e06b3f" target="_top" xlink:title=" ">
<polygon fill="white" stroke="black" points="150.5,-161 150.5,-180 272.5,-180 272.5,-161 150.5,-161"/>
<text text-anchor="middle" x="211.5" y="-168" font-family="Helvetica,sans-Serif" font-size="10.00">CgiProcess::getPipeOut</text>
</a>
</g>
</g>
<!-- Node1&#45;&gt;Node18 -->
<g id="edge18" class="edge">
<title>Node1&#45;&gt;Node18</title>
<path fill="none" stroke="midnightblue" d="M90.5,-142.09C111.68,-147.1 137.8,-153.29 160.26,-158.61"/>
<polygon fill="midnightblue" stroke="midnightblue" points="159.75,-162.08 170.29,-160.98 161.37,-155.27 159.75,-162.08"/>
</g>
<!-- Node19 -->
<g id="node19" class="node">
<title>Node19</title>
<g id="a_node19"><a xlink:href="classHttpParser.html#ac152c0d7912d2e757516c3d8f1b9891b" target="_top" xlink:title=" ">
<polygon fill="white" stroke="black" points="151.5,-123 151.5,-142 271.5,-142 271.5,-123 151.5,-123"/>
<text text-anchor="middle" x="211.5" y="-130" font-family="Helvetica,sans-Serif" font-size="10.00">HttpParser::getRequest</text>
</a>
</g>
</g>
<!-- Node1&#45;&gt;Node19 -->
<g id="edge19" class="edge">
<title>Node1&#45;&gt;Node19</title>
<path fill="none" stroke="midnightblue" d="M98.16,-132.5C111.6,-132.5 126.49,-132.5 140.91,-132.5"/>
<polygon fill="midnightblue" stroke="midnightblue" points="141.3,-136 151.3,-132.5 141.3,-129 141.3,-136"/>
</g>
<!-- Node20 -->
<g id="node20" class="node">
<title>Node20</title>
<g id="a_node20"><a xlink:href="classHttpRequest.html#ac2a5d18d42289a03b57215c98d8df41e" target="_top" xlink:title=" ">
<polygon fill="white" stroke="black" points="149,-85 149,-104 274,-104 274,-85 149,-85"/>
<text text-anchor="middle" x="211.5" y="-92" font-family="Helvetica,sans-Serif" font-size="10.00">HttpRequest::getVersion</text>
</a>
</g>
</g>
<!-- Node1&#45;&gt;Node20 -->
<g id="edge20" class="edge">
<title>Node1&#45;&gt;Node20</title>
<path fill="none" stroke="midnightblue" d="M90.5,-122.91C111.68,-117.9 137.8,-111.71 160.26,-106.39"/>
<polygon fill="midnightblue" stroke="midnightblue" points="161.37,-109.73 170.29,-104.02 159.75,-102.92 161.37,-109.73"/>
</g>
<!-- Node21 -->
<g id="node21" class="node">
<title>Node21</title>
<g id="a_node21"><a xlink:href="classServerManager.html#a39ba2418a65f3fe96057e7dfbf050db0" target="_top" xlink:title=" ">
<polygon fill="white" stroke="black" points="134,-47 134,-66 289,-66 289,-47 134,-47"/>
<text text-anchor="middle" x="211.5" y="-54" font-family="Helvetica,sans-Serif" font-size="10.00">ServerManager::registerCgiPipe</text>
</a>
</g>
</g>
<!-- Node1&#45;&gt;Node21 -->
<g id="edge21" class="edge">
<title>Node1&#45;&gt;Node21</title>
<path fill="none" stroke="midnightblue" d="M61.18,-122.98C76.59,-110.34 105.68,-88.14 134,-75.5 139.44,-73.07 145.25,-70.92 151.14,-69.02"/>
<polygon fill="midnightblue" stroke="midnightblue" points="152.49,-72.27 161.07,-66.05 150.49,-65.56 152.49,-72.27"/>
</g>
<!-- Node23 -->
<g id="node23" class="node">
<title>Node23</title>
<g id="a_node23"><a xlink:href="classHttpRequest.html#ab5fb89c5ad17f9433e6798477fd4d8e8" target="_top" xlink:title="Verifica si se debe cerrar la conexión con el cliente después de enviar la respuesta.">
<polygon fill="white" stroke="black" points="341,-0.5 341,-30.5 473,-30.5 473,-0.5 341,-0.5"/>
<text text-anchor="start" x="349" y="-18.5" font-family="Helvetica,sans-Serif" font-size="10.00">HttpRequest::shouldClose</text>
<text text-anchor="middle" x="407" y="-7.5" font-family="Helvetica,sans-Serif" font-size="10.00">Connection</text>
</a>
</g>
</g>
<!-- Node1&#45;&gt;Node23 -->
<g id="edge23" class="edge">
<title>Node1&#45;&gt;Node23</title>
<path fill="none" stroke="midnightblue" d="M55.15,-122.78C66.38,-102.7 95.21,-56.9 134,-37.5 195.16,-6.91 273.82,-3.82 330.8,-6.95"/>
<polygon fill="midnightblue" stroke="midnightblue" points="330.62,-10.44 340.82,-7.57 331.06,-3.46 330.62,-10.44"/>
</g>
<!-- Node3 -->
<g id="node3" class="node">
<title>Node3</title>
<g id="a_node3"><a xlink:href="CgiExecutor_8cpp.html#abcb00127e3438f917615431df567802b" target="_top" xlink:title=" ">
<polygon fill="white" stroke="black" points="373.5,-313 373.5,-332 440.5,-332 440.5,-313 373.5,-313"/>
<text text-anchor="middle" x="407" y="-320" font-family="Helvetica,sans-Serif" font-size="10.00">closeIfValid</text>
</a>
</g>
</g>
<!-- Node2&#45;&gt;Node3 -->
<g id="edge2" class="edge">
<title>Node2&#45;&gt;Node3</title>
<path fill="none" stroke="midnightblue" d="M228.35,-256.07C249.65,-268.56 289,-290.37 325,-303.5 337.21,-307.95 350.84,-311.62 363.38,-314.51"/>
<polygon fill="midnightblue" stroke="midnightblue" points="362.64,-317.93 373.16,-316.65 364.14,-311.09 362.64,-317.93"/>
</g>
<!-- Node4 -->
<g id="node4" class="node">
<title>Node4</title>
<g id="a_node4"><a xlink:href="classCgiExecutor.html#a82f74408b92879b5909c44f81d2438f8" target="_top" xlink:title=" ">
<polygon fill="white" stroke="black" points="335,-275 335,-294 479,-294 479,-275 335,-275"/>
<text text-anchor="middle" x="407" y="-282" font-family="Helvetica,sans-Serif" font-size="10.00">CgiExecutor::createEnvArray</text>
</a>
</g>
</g>
<!-- Node2&#45;&gt;Node4 -->
<g id="edge3" class="edge">
<title>Node2&#45;&gt;Node4</title>
<path fill="none" stroke="midnightblue" d="M261.33,-256.09C287.55,-261.24 320.06,-267.62 347.62,-273.03"/>
<polygon fill="midnightblue" stroke="midnightblue" points="347.04,-276.49 357.52,-274.98 348.38,-269.62 347.04,-276.49"/>
</g>
<!-- Node5 -->
<g id="node5" class="node">
<title>Node5</title>
<g id="a_node5"><a xlink:href="classHttpRequest.html#aa727937b993d7df56a9d99b37d6be672" target="_top" xlink:title=" ">
<polygon fill="white" stroke="black" points="542,-310 542,-329 656,-329 656,-310 542,-310"/>
<text text-anchor="middle" x="599" y="-317" font-family="Helvetica,sans-Serif" font-size="10.00">HttpRequest::getBody</text>
</a>
</g>
</g>
<!-- Node2&#45;&gt;Node5 -->
<g id="edge4" class="edge">
<title>Node2&#45;&gt;Node5</title>
<path fill="none" stroke="midnightblue" d="M281.27,-238.46C339.22,-234.6 422.99,-236.02 489,-265.5 509.38,-274.6 505.56,-289.55 525,-300.5 528.96,-302.73 533.18,-304.7 537.53,-306.45"/>
<polygon fill="midnightblue" stroke="midnightblue" points="536.6,-309.83 547.19,-309.92 538.96,-303.25 536.6,-309.83"/>
</g>
<!-- Node6 -->
<g id="node6" class="node">
<title>Node6</title>
<g id="a_node6"><a xlink:href="classServerConfig.html#a6d5c3238d2d89e315d7255974a36d618" target="_top" xlink:title=" ">
<polygon fill="white" stroke="black" points="335.5,-199 335.5,-218 478.5,-218 478.5,-199 335.5,-199"/>
<text text-anchor="middle" x="407" y="-206" font-family="Helvetica,sans-Serif" font-size="10.00">ServerConfig::getCgiTimeout</text>
</a>
</g>
</g>
<!-- Node2&#45;&gt;Node6 -->
<g id="edge5" class="edge">
<title>Node2&#45;&gt;Node6</title>
<path fill="none" stroke="midnightblue" d="M261.33,-236.91C287.55,-231.76 320.06,-225.38 347.62,-219.97"/>
<polygon fill="midnightblue" stroke="midnightblue" points="348.38,-223.38 357.52,-218.02 347.04,-216.51 348.38,-223.38"/>
</g>
<!-- Node7 -->
<g id="node7" class="node">
<title>Node7</title>
<g id="a_node7"><a xlink:href="classCgiExecutor.html#ad97592b573c577e6bae11662ec683910" target="_top" xlink:title=" ">
<polygon fill="white" stroke="black" points="325,-161 325,-180 489,-180 489,-161 325,-161"/>
<text text-anchor="middle" x="407" y="-168" font-family="Helvetica,sans-Serif" font-size="10.00">CgiExecutor::prepareEnvironment</text>
</a>
</g>
</g>
<!-- Node2&#45;&gt;Node7 -->
<g id="edge6" class="edge">
<title>Node2&#45;&gt;Node7</title>
<path fill="none" stroke="midnightblue" d="M267.5,-236.9C275,-234.44 282.38,-231.36 289,-227.5 309.1,-215.78 304.83,-201.09 325,-189.5 328.91,-187.25 333.07,-185.27 337.36,-183.53"/>
<polygon fill="midnightblue" stroke="midnightblue" points="338.71,-186.76 346.92,-180.06 336.33,-180.18 338.71,-186.76"/>
</g>
<!-- Node16 -->
<g id="node16" class="node">
<title>Node16</title>
<g id="a_node16"><a xlink:href="classCgiExecutor.html#a4ccb7df600011595abda3893d14a1f3f" target="_top" xlink:title=" ">
<polygon fill="white" stroke="black" points="334,-123 334,-142 480,-142 480,-123 334,-123"/>
<text text-anchor="middle" x="407" y="-130" font-family="Helvetica,sans-Serif" font-size="10.00">CgiExecutor::setNonBlocking</text>
</a>
</g>
</g>
<!-- Node2&#45;&gt;Node16 -->
<g id="edge16" class="edge">
<title>Node2&#45;&gt;Node16</title>
<path fill="none" stroke="midnightblue" d="M273.41,-236.84C279.02,-234.38 284.34,-231.31 289,-227.5 317.92,-203.83 295.92,-174.98 325,-151.5 327.06,-149.83 329.25,-148.31 331.53,-146.91"/>
<polygon fill="midnightblue" stroke="midnightblue" points="333.45,-149.85 340.72,-142.14 330.23,-143.64 333.45,-149.85"/>
</g>
<!-- Node7&#45;&gt;Node5 -->
<g id="edge7" class="edge">
<title>Node7&#45;&gt;Node5</title>
<path fill="none" stroke="midnightblue" d="M475,-180.09C480.09,-182.59 484.85,-185.69 489,-189.5 527.17,-224.62 487.26,-264.92 525,-300.5 527.43,-302.79 530.1,-304.81 532.94,-306.6"/>
<polygon fill="midnightblue" stroke="midnightblue" points="531.4,-309.75 541.89,-311.28 534.64,-303.54 531.4,-309.75"/>
</g>
<!-- Node8 -->
<g id="node8" class="node">
<title>Node8</title>
<g id="a_node8"><a xlink:href="classHttpRequest.html#ab537cb11b054734695ee4889d88aec6d" target="_top" xlink:title="Obtiene un header específico de la petición.">
<polygon fill="white" stroke="black" points="537.5,-6 537.5,-25 660.5,-25 660.5,-6 537.5,-6"/>
<text text-anchor="middle" x="599" y="-13" font-family="Helvetica,sans-Serif" font-size="10.00">HttpRequest::getHeader</text>
</a>
</g>
</g>
<!-- Node7&#45;&gt;Node8 -->
<g id="edge8" class="edge">
<title>Node7&#45;&gt;Node8</title>
<path fill="none" stroke="midnightblue" d="M475.06,-160.98C480.14,-158.46 484.88,-155.35 489,-151.5 528.76,-114.36 485.69,-72.12 525,-34.5 526.49,-33.07 528.07,-31.75 529.73,-30.52"/>
<polygon fill="midnightblue" stroke="midnightblue" points="531.84,-33.34 538.58,-25.16 528.21,-27.35 531.84,-33.34"/>
</g>
<!-- Node9 -->
<g id="node9" class="node">
<title>Node9</title>
<g id="a_node9"><a xlink:href="classHttpRequest.html#a08c95fd7197579a81bbed722db6a8cc9" target="_top" xlink:title="Obtiene todos los headers de la petición.">
<polygon fill="white" stroke="black" points="535,-272 535,-291 663,-291 663,-272 535,-272"/>
<text text-anchor="middle" x="599" y="-279" font-family="Helvetica,sans-Serif" font-size="10.00">HttpRequest::getHeaders</text>
</a>
</g>
</g>
<!-- Node7&#45;&gt;Node9 -->
<g id="edge9" class="edge">
<title>Node7&#45;&gt;Node9</title>
<path fill="none" stroke="midnightblue" d="M472.81,-180.05C478.62,-182.53 484.14,-185.64 489,-189.5 517.32,-212.01 496.95,-239.65 525,-262.5 527.09,-264.2 529.31,-265.75 531.63,-267.16"/>
<polygon fill="midnightblue" stroke="midnightblue" points="530.52,-270.53 541.02,-271.96 533.71,-264.29 530.52,-270.53"/>
</g>
<!-- Node10 -->
<g id="node10" class="node">
<title>Node10</title>
<g id="a_node10"><a xlink:href="classHttpRequest.html#adf523a5345b525702a858f8792bab8ea" target="_top" xlink:title=" ">
<polygon fill="white" stroke="black" points="537,-234 537,-253 661,-253 661,-234 537,-234"/>
<text text-anchor="middle" x="599" y="-241" font-family="Helvetica,sans-Serif" font-size="10.00">HttpRequest::getMethod</text>
</a>
</g>
</g>
<!-- Node7&#45;&gt;Node10 -->
<g id="edge10" class="edge">
<title>Node7&#45;&gt;Node10</title>
<path fill="none" stroke="midnightblue" d="M466.08,-180.06C474.04,-182.52 481.9,-185.62 489,-189.5 508.57,-200.22 505.56,-213.55 525,-224.5 528.96,-226.73 533.18,-228.7 537.53,-230.45"/>
<polygon fill="midnightblue" stroke="midnightblue" points="536.6,-233.83 547.19,-233.92 538.96,-227.25 536.6,-233.83"/>
</g>
<!-- Node11 -->
<g id="node11" class="node">
<title>Node11</title>
<g id="a_node11"><a xlink:href="classHttpRequest.html#acde519e492e10352bc39d6a3bcd857b2" target="_top" xlink:title=" ">
<polygon fill="white" stroke="black" points="543,-196 543,-215 655,-215 655,-196 543,-196"/>
<text text-anchor="middle" x="599" y="-203" font-family="Helvetica,sans-Serif" font-size="10.00">HttpRequest::getPath</text>
</a>
</g>
</g>
<!-- Node7&#45;&gt;Node11 -->
<g id="edge11" class="edge">
<title>Node7&#45;&gt;Node11</title>
<path fill="none" stroke="midnightblue" d="M459.67,-180.02C483.33,-184.38 511.56,-189.58 536.32,-194.14"/>
<polygon fill="midnightblue" stroke="midnightblue" points="535.87,-197.61 546.34,-195.98 537.14,-190.73 535.87,-197.61"/>
</g>
<!-- Node12 -->
<g id="node12" class="node">
<title>Node12</title>
<g id="a_node12"><a xlink:href="classServerConfig.html#afab0e296905ba9053273c36b250a2420" target="_top" xlink:title=" ">
<polygon fill="white" stroke="black" points="543.5,-158 543.5,-177 654.5,-177 654.5,-158 543.5,-158"/>
<text text-anchor="middle" x="599" y="-165" font-family="Helvetica,sans-Serif" font-size="10.00">ServerConfig::getPort</text>
</a>
</g>
</g>
<!-- Node7&#45;&gt;Node12 -->
<g id="edge12" class="edge">
<title>Node7&#45;&gt;Node12</title>
<path fill="none" stroke="midnightblue" d="M489.13,-169.22C503.9,-168.99 519.13,-168.75 533.34,-168.52"/>
<polygon fill="midnightblue" stroke="midnightblue" points="533.55,-172.02 543.5,-168.36 533.44,-165.02 533.55,-172.02"/>
</g>
<!-- Node13 -->
<g id="node13" class="node">
<title>Node13</title>
<g id="a_node13"><a xlink:href="classHttpRequest.html#a579bc045f297b854a798e6a2d21b9502" target="_top" xlink:title=" ">
<polygon fill="white" stroke="black" points="540,-120 540,-139 658,-139 658,-120 540,-120"/>
<text text-anchor="middle" x="599" y="-127" font-family="Helvetica,sans-Serif" font-size="10.00">HttpRequest::getQuery</text>
</a>
</g>
</g>
<!-- Node7&#45;&gt;Node13 -->
<g id="edge13" class="edge">
<title>Node7&#45;&gt;Node13</title>
<path fill="none" stroke="midnightblue" d="M452.07,-160.99C479.43,-155.09 514.79,-147.46 543.85,-141.19"/>
<polygon fill="midnightblue" stroke="midnightblue" points="544.81,-144.56 553.84,-139.03 543.33,-137.72 544.81,-144.56"/>
</g>
<!-- Node14 -->
<g id="node14" class="node">
<title>Node14</title>
<g id="a_node14"><a xlink:href="classServerConfig.html#aa04c77f5ee06781c5830e2ad55f6463e" target="_top" xlink:title=" ">
<polygon fill="white" stroke="black" points="525,-82 525,-101 673,-101 673,-82 525,-82"/>
<text text-anchor="middle" x="599" y="-89" font-family="Helvetica,sans-Serif" font-size="10.00">ServerConfig::getServerName</text>
</a>
</g>
</g>
<!-- Node7&#45;&gt;Node14 -->
<g id="edge14" class="edge">
<title>Node7&#45;&gt;Node14</title>
<path fill="none" stroke="midnightblue" d="M468.06,-160.89C475.39,-158.44 482.56,-155.36 489,-151.5 509.8,-139.03 504.36,-123.23 525,-110.5 528.41,-108.4 532.06,-106.52 535.82,-104.86"/>
<polygon fill="midnightblue" stroke="midnightblue" points="537.34,-108.02 545.38,-101.12 534.79,-101.5 537.34,-108.02"/>
</g>
<!-- Node15 -->
<g id="node15" class="node">
<title>Node15</title>
<g id="a_node15"><a xlink:href="RequestProcessorUtils_8cpp.html#a390b94b66217f7a8dacf76cf769d07c7" target="_top" xlink:title=" ">
<polygon fill="white" stroke="black" points="556.5,-44 556.5,-63 641.5,-63 641.5,-44 556.5,-44"/>
<text text-anchor="middle" x="599" y="-51" font-family="Helvetica,sans-Serif" font-size="10.00">methodToString</text>
</a>
</g>
</g>
<!-- Node7&#45;&gt;Node15 -->
<g id="edge15" class="edge">
<title>Node7&#45;&gt;Node15</title>
<path fill="none" stroke="midnightblue" d="M473.34,-160.93C478.98,-158.44 484.31,-155.35 489,-151.5 518.84,-127.03 495.46,-97.33 525,-72.5 531.27,-67.23 538.84,-63.4 546.69,-60.62"/>
<polygon fill="midnightblue" stroke="midnightblue" points="547.77,-63.95 556.35,-57.73 545.76,-57.25 547.77,-63.95"/>
</g>
<!-- Node22 -->
<g id="node22" class="node">
<title>Node22</title>
<g id="a_node22"><a xlink:href="classEpollWrapper.html#a9d1a1f203f959547001099718dd957ea" target="_top" xlink:title=" ">
<polygon fill="white" stroke="black" points="353.5,-50 353.5,-69 460.5,-69 460.5,-50 353.5,-50"/>
<text text-anchor="middle" x="407" y="-57" font-family="Helvetica,sans-Serif" font-size="10.00">EpollWrapper::addFd</text>
</a>
</g>
</g>
<!-- Node21&#45;&gt;Node22 -->
<g id="edge22" class="edge">
<title>Node21&#45;&gt;Node22</title>
<path fill="none" stroke="midnightblue" d="M289.25,-57.69C307.08,-57.97 325.85,-58.26 343.01,-58.52"/>
<polygon fill="midnightblue" stroke="midnightblue" points="343.4,-62.03 353.45,-58.69 343.51,-55.03 343.4,-62.03"/>
</g>
<!-- Node23&#45;&gt;Node8 -->
<g id="edge24" class="edge">
<title>Node23&#45;&gt;Node8</title>
<path fill="none" stroke="midnightblue" d="M473.12,-15.5C490.54,-15.5 509.46,-15.5 527.17,-15.5"/>
<polygon fill="midnightblue" stroke="midnightblue" points="527.44,-19 537.44,-15.5 527.44,-12 527.44,-19"/>
</g>
</g>
</svg>
        <g id="navigator" transform="translate(0 0)" fill="#404254">
                <rect fill="#f2f5e9" fill-opacity="0.5" stroke="#606060" stroke-width=".5" x="0" y="0" width="60" height="60"/>
                <use id="zoomplus" xlink:href="#zoomPlus" x="17" y="9" onmousedown="handleZoom(evt,'in')"/>
                <use id="zoomminus" xlink:href="#zoomMin" x="42" y="9" onmousedown="handleZoom(evt,'out')"/>
                <use id="reset" xlink:href="#resetDef" x="30" y="36" onmousedown="handleReset()"/>
                <g id="arrowUp" xlink:href="#dirArrow" transform="translate(30 24)" onmousedown="handlePan(0,-1)">
                  <use xlink:href="#rim" fill="#404040">
                        <set attributeName="fill" to="#808080" begin="arrowUp.mouseover" end="arrowUp.mouseout"/>
                  </use>
                  <path fill="none" stroke="white" stroke-width="1.5" d="M0,-3.0v7 M-2.5,-0.5L0,-3.0L2.5,-0.5"/>
                </g>
                <g id="arrowRight" xlink:href="#dirArrow" transform="rotate(90) translate(36 -43)" onmousedown="handlePan(1,0)">
                  <use xlink:href="#rim" fill="#404040">
                        <set attributeName="fill" to="#808080" begin="arrowRight.mouseover" end="arrowRight.mouseout"/>
                  </use>
                  <path fill="none" stroke="white" stroke-width="1.5" d="M0,-3.0v7 M-2.5,-0.5L0,-3.0L2.5,-0.5"/>
                </g>
                <g id="arrowDown" xlink:href="#dirArrow" transform="rotate(180) translate(-30 -48)" onmousedown="handlePan(0,1)">
                  <use xlink:href="#rim" fill="#404040">
                        <set attributeName="fill" to="#808080" begin="arrowDown.mouseover" end="arrowDown.mouseout"/>
                  </use>
                  <path fill="none" stroke="white" stroke-width="1.5" d="M0,-3.0v7 M-2.5,-0.5L0,-3.0L2.5,-0.5"/>
                </g>
                <g id="arrowLeft" xlink:href="#dirArrow" transform="rotate(270) translate(-36 17)" onmousedown="handlePan(-1,0)">
                  <use xlink:href="#rim" fill="#404040">
                        <set attributeName="fill" to="#808080" begin="arrowLeft.mouseover" end="arrowLeft.mouseout"/>
                  </use>
                  <path fill="none" stroke="white" stroke-width="1.5" d="M0,-3.0v7 M-2.5,-0.5L0,-3.0L2.5,-0.5"/>
                </g>
        </g>
        <svg viewBox="0 0 15 15" width="100%" height="30px" preserveAspectRatio="xMaxYMin meet">
         <g id="arrow_out" transform="scale(0.3 0.3)">
          <a xlink:href="classClient_a2e0da898af07e89fcfd83fe5a3077256_cgraph_org.svg" target="_base">
           <rect id="button" ry="5" rx="5" y="6" x="6" height="38" width="38"
                fill="#f2f5e9" fill-opacity="0.5" stroke="#606060" stroke-width="1.0"/>
           <path id="arrow"
             d="M 11.500037,31.436501 C 11.940474,20.09759 22.043105,11.32322 32.158766,21.979434 L 37.068811,17.246167 C 37.068811,17.246167 37.088388,32 37.088388,32 L 22.160133,31.978069 C 22.160133,31.978069 26.997745,27.140456 26.997745,27.140456 C 18.528582,18.264221 13.291696,25.230495 11.500037,31.436501 z"
             style="fill:#404040;"/>
          </a>
         </g>
        </svg>
</svg>
