<?xml version="1.0" encoding="UTF-8" standalone="no"?>
<!DOCTYPE svg PUBLIC "-//W3C//DTD SVG 1.1//EN"
 "http://www.w3.org/Graphics/SVG/1.1/DTD/svg11.dtd">
<!-- Generated by graphviz version 2.43.0 (0)
 -->
<!-- Title: CgiProcess::getPipeIn Pages: 1 -->
<svg width="1563pt" height="142pt"
 viewBox="0.00 0.00 1563.00 142.00" xmlns="http://www.w3.org/2000/svg" xmlns:xlink="http://www.w3.org/1999/xlink">
<g id="graph0" class="graph" transform="scale(1 1) rotate(0) translate(4 138)">
<title>CgiProcess::getPipeIn</title>
<polygon fill="white" stroke="transparent" points="-4,4 -4,-138 1559,-138 1559,4 -4,4"/>
<!-- Node1 -->
<g id="node1" class="node">
<title>Node1</title>
<g id="a_node1"><a xlink:title=" ">
<polygon fill="#bfbfbf" stroke="black" points="1440,-57.5 1440,-76.5 1555,-76.5 1555,-57.5 1440,-57.5"/>
<text text-anchor="middle" x="1497.5" y="-64.5" font-family="Helvetica,sans-Serif" font-size="10.00">CgiProcess::getPipeIn</text>
</a>
</g>
</g>
<!-- Node2 -->
<g id="node2" class="node">
<title>Node2</title>
<g id="a_node2"><a xlink:href="classClient.html#a3b000abab7a3fe339f0f39ad5daca68f" target="_top" xlink:title=" ">
<polygon fill="white" stroke="black" points="1279,-114.5 1279,-133.5 1404,-133.5 1404,-114.5 1279,-114.5"/>
<text text-anchor="middle" x="1341.5" y="-121.5" font-family="Helvetica,sans-Serif" font-size="10.00">Client::checkCgiTimeout</text>
</a>
</g>
</g>
<!-- Node1&#45;&gt;Node2 -->
<g id="edge1" class="edge">
<title>Node1&#45;&gt;Node2</title>
<path fill="none" stroke="midnightblue" d="M1465.33,-80.63C1447.52,-88.2 1424.68,-97.57 1404,-105 1394.74,-108.32 1384.59,-111.61 1375.24,-114.49"/>
<polygon fill="midnightblue" stroke="midnightblue" points="1466.85,-83.78 1474.66,-76.62 1464.09,-77.35 1466.85,-83.78"/>
</g>
<!-- Node3 -->
<g id="node3" class="node">
<title>Node3</title>
<g id="a_node3"><a xlink:href="classClient.html#a2e0da898af07e89fcfd83fe5a3077256" target="_top" xlink:title=" ">
<polygon fill="white" stroke="black" points="1292.5,-76.5 1292.5,-95.5 1390.5,-95.5 1390.5,-76.5 1292.5,-76.5"/>
<text text-anchor="middle" x="1341.5" y="-83.5" font-family="Helvetica,sans-Serif" font-size="10.00">Client::executeCgi</text>
</a>
</g>
</g>
<!-- Node1&#45;&gt;Node3 -->
<g id="edge2" class="edge">
<title>Node1&#45;&gt;Node3</title>
<path fill="none" stroke="midnightblue" d="M1429.65,-75.25C1416.5,-76.87 1402.96,-78.54 1390.58,-80.07"/>
<polygon fill="midnightblue" stroke="midnightblue" points="1430.1,-78.72 1439.59,-74.02 1429.24,-71.77 1430.1,-78.72"/>
</g>
<!-- Node13 -->
<g id="node13" class="node">
<title>Node13</title>
<g id="a_node13"><a xlink:href="classClient.html#a4104efd3f5f7e1c0f3e3302b46861624" target="_top" xlink:title=" ">
<polygon fill="white" stroke="black" points="1286,-38.5 1286,-57.5 1397,-57.5 1397,-38.5 1286,-38.5"/>
<text text-anchor="middle" x="1341.5" y="-45.5" font-family="Helvetica,sans-Serif" font-size="10.00">Client::handleCgiPipe</text>
</a>
</g>
</g>
<!-- Node1&#45;&gt;Node13 -->
<g id="edge13" class="edge">
<title>Node1&#45;&gt;Node13</title>
<path fill="none" stroke="midnightblue" d="M1429.37,-58.72C1418.6,-57.39 1407.56,-56.03 1397.12,-54.74"/>
<polygon fill="midnightblue" stroke="midnightblue" points="1429.24,-62.23 1439.59,-59.98 1430.1,-55.28 1429.24,-62.23"/>
</g>
<!-- Node15 -->
<g id="node15" class="node">
<title>Node15</title>
<g id="a_node15"><a xlink:href="classClient.html#a840e519ca781888cbd54181572ebe3a7" target="_top" xlink:title=" ">
<polygon fill="white" stroke="black" points="1301.5,-0.5 1301.5,-19.5 1381.5,-19.5 1381.5,-0.5 1301.5,-0.5"/>
<text text-anchor="middle" x="1341.5" y="-7.5" font-family="Helvetica,sans-Serif" font-size="10.00">Client::~Client</text>
</a>
</g>
</g>
<!-- Node1&#45;&gt;Node15 -->
<g id="edge16" class="edge">
<title>Node1&#45;&gt;Node15</title>
<path fill="none" stroke="midnightblue" d="M1465.33,-53.37C1447.52,-45.8 1424.68,-36.43 1404,-29 1394.74,-25.68 1384.59,-22.39 1375.24,-19.51"/>
<polygon fill="midnightblue" stroke="midnightblue" points="1464.09,-56.65 1474.66,-57.38 1466.85,-50.22 1464.09,-56.65"/>
</g>
<!-- Node4 -->
<g id="node4" class="node">
<title>Node4</title>
<g id="a_node4"><a xlink:href="classClient.html#a7ce261bf1858a7904f7bb9668188284b" target="_top" xlink:title=" ">
<polygon fill="white" stroke="black" points="1160,-77.5 1160,-96.5 1243,-96.5 1243,-77.5 1160,-77.5"/>
<text text-anchor="middle" x="1201.5" y="-84.5" font-family="Helvetica,sans-Serif" font-size="10.00">Client::startCgi</text>
</a>
</g>
</g>
<!-- Node3&#45;&gt;Node4 -->
<g id="edge3" class="edge">
<title>Node3&#45;&gt;Node4</title>
<path fill="none" stroke="midnightblue" d="M1281.92,-86.42C1268.88,-86.52 1255.32,-86.62 1243.19,-86.71"/>
<polygon fill="midnightblue" stroke="midnightblue" points="1282.26,-89.92 1292.23,-86.35 1282.21,-82.92 1282.26,-89.92"/>
</g>
<!-- Node5 -->
<g id="node5" class="node">
<title>Node5</title>
<g id="a_node5"><a xlink:href="classClient.html#ae523ed90bd32b88e539ebdf30746382b" target="_top" xlink:title=" ">
<polygon fill="white" stroke="black" points="1001.5,-79.5 1001.5,-98.5 1114.5,-98.5 1114.5,-79.5 1001.5,-79.5"/>
<text text-anchor="middle" x="1058" y="-86.5" font-family="Helvetica,sans-Serif" font-size="10.00">Client::dispatchAction</text>
</a>
</g>
</g>
<!-- Node4&#45;&gt;Node5 -->
<g id="edge4" class="edge">
<title>Node4&#45;&gt;Node5</title>
<path fill="none" stroke="midnightblue" d="M1149.73,-87.72C1138.33,-87.88 1126.17,-88.05 1114.58,-88.21"/>
<polygon fill="midnightblue" stroke="midnightblue" points="1150,-91.21 1159.95,-87.57 1149.9,-84.21 1150,-91.21"/>
</g>
<!-- Node6 -->
<g id="node6" class="node">
<title>Node6</title>
<g id="a_node6"><a xlink:href="classClient.html#a419f8f3253d3f71287044e3999a5d600" target="_top" xlink:title=" ">
<polygon fill="white" stroke="black" points="843,-79.5 843,-98.5 956,-98.5 956,-79.5 843,-79.5"/>
<text text-anchor="middle" x="899.5" y="-86.5" font-family="Helvetica,sans-Serif" font-size="10.00">Client::buildResponse</text>
</a>
</g>
</g>
<!-- Node5&#45;&gt;Node6 -->
<g id="edge5" class="edge">
<title>Node5&#45;&gt;Node6</title>
<path fill="none" stroke="midnightblue" d="M991.26,-89C979.6,-89 967.55,-89 956.2,-89"/>
<polygon fill="midnightblue" stroke="midnightblue" points="991.38,-92.5 1001.38,-89 991.38,-85.5 991.38,-92.5"/>
</g>
<!-- Node7 -->
<g id="node7" class="node">
<title>Node7</title>
<g id="a_node7"><a xlink:href="classClient.html#abcf615f2514ae7e0266315693e73a31a" target="_top" xlink:title=" ">
<polygon fill="white" stroke="black" points="652,-79.5 652,-98.5 807,-98.5 807,-79.5 652,-79.5"/>
<text text-anchor="middle" x="729.5" y="-86.5" font-family="Helvetica,sans-Serif" font-size="10.00">Client::handleCompleteRequest</text>
</a>
</g>
</g>
<!-- Node6&#45;&gt;Node7 -->
<g id="edge6" class="edge">
<title>Node6&#45;&gt;Node7</title>
<path fill="none" stroke="midnightblue" d="M832.54,-89C824.2,-89 815.62,-89 807.14,-89"/>
<polygon fill="midnightblue" stroke="midnightblue" points="832.56,-92.5 842.56,-89 832.56,-85.5 832.56,-92.5"/>
</g>
<!-- Node8 -->
<g id="node8" class="node">
<title>Node8</title>
<g id="a_node8"><a xlink:href="classClient.html#ac95fe5b24fe5275bd2271bd1ac37596d" target="_top" xlink:title=" ">
<polygon fill="white" stroke="black" points="336,-111.5 336,-130.5 436,-130.5 436,-111.5 336,-111.5"/>
<text text-anchor="middle" x="386" y="-118.5" font-family="Helvetica,sans-Serif" font-size="10.00">Client::handleRead</text>
</a>
</g>
</g>
<!-- Node7&#45;&gt;Node8 -->
<g id="edge7" class="edge">
<title>Node7&#45;&gt;Node8</title>
<path fill="none" stroke="midnightblue" d="M641.78,-99.3C633.08,-100.25 624.37,-101.17 616,-102 554.07,-108.15 482.58,-113.86 436.18,-117.38"/>
<polygon fill="midnightblue" stroke="midnightblue" points="642.43,-102.75 651.98,-98.18 641.66,-95.8 642.43,-102.75"/>
</g>
<!-- Node11 -->
<g id="node11" class="node">
<title>Node11</title>
<g id="a_node11"><a xlink:href="classClient.html#a950fd2ab8ac20c9be4c5e722344d6fe2" target="_top" xlink:title=" ">
<polygon fill="white" stroke="black" points="491,-73.5 491,-92.5 616,-92.5 616,-73.5 491,-73.5"/>
<text text-anchor="middle" x="553.5" y="-80.5" font-family="Helvetica,sans-Serif" font-size="10.00">Client::processRequests</text>
</a>
</g>
</g>
<!-- Node7&#45;&gt;Node11 -->
<g id="edge10" class="edge">
<title>Node7&#45;&gt;Node11</title>
<path fill="none" stroke="midnightblue" d="M641.81,-86.01C633.17,-85.71 624.52,-85.41 616.22,-85.13"/>
<polygon fill="midnightblue" stroke="midnightblue" points="641.81,-89.51 651.93,-86.36 642.05,-82.52 641.81,-89.51"/>
</g>
<!-- Node9 -->
<g id="node9" class="node">
<title>Node9</title>
<g id="a_node9"><a xlink:href="classServerManager.html#a9f3ca46da9df004286f90902b8daf29d" target="_top" xlink:title=" ">
<polygon fill="white" stroke="black" points="138,-90 138,-120 281,-120 281,-90 138,-90"/>
<text text-anchor="start" x="146" y="-108" font-family="Helvetica,sans-Serif" font-size="10.00">ServerManager::handleClient</text>
<text text-anchor="middle" x="209.5" y="-97" font-family="Helvetica,sans-Serif" font-size="10.00">Event</text>
</a>
</g>
</g>
<!-- Node8&#45;&gt;Node9 -->
<g id="edge8" class="edge">
<title>Node8&#45;&gt;Node9</title>
<path fill="none" stroke="midnightblue" d="M325.69,-115.56C311.33,-114.25 295.84,-112.82 281.02,-111.47"/>
<polygon fill="midnightblue" stroke="midnightblue" points="325.65,-119.07 335.93,-116.5 326.29,-112.1 325.65,-119.07"/>
</g>
<!-- Node10 -->
<g id="node10" class="node">
<title>Node10</title>
<g id="a_node10"><a xlink:href="classServerManager.html#aecc313c9b6afcab92c22269b3333c721" target="_top" xlink:title=" ">
<polygon fill="white" stroke="black" points="0,-57.5 0,-76.5 102,-76.5 102,-57.5 0,-57.5"/>
<text text-anchor="middle" x="51" y="-64.5" font-family="Helvetica,sans-Serif" font-size="10.00">ServerManager::run</text>
</a>
</g>
</g>
<!-- Node9&#45;&gt;Node10 -->
<g id="edge9" class="edge">
<title>Node9&#45;&gt;Node10</title>
<path fill="none" stroke="midnightblue" d="M136.51,-87.52C120.96,-83.75 105.09,-79.89 91.36,-76.56"/>
<polygon fill="midnightblue" stroke="midnightblue" points="136.1,-91.02 146.65,-89.98 137.76,-84.22 136.1,-91.02"/>
</g>
<!-- Node11&#45;&gt;Node8 -->
<g id="edge12" class="edge">
<title>Node11&#45;&gt;Node8</title>
<path fill="none" stroke="midnightblue" d="M500.69,-94.9C477.43,-100.24 450.35,-106.45 428.46,-111.48"/>
<polygon fill="midnightblue" stroke="midnightblue" points="501.77,-98.24 510.74,-92.59 500.21,-91.42 501.77,-98.24"/>
</g>
<!-- Node12 -->
<g id="node12" class="node">
<title>Node12</title>
<g id="a_node12"><a xlink:href="classClient.html#a09d6029b60ae8c9773362968e72f2e54" target="_top" xlink:title=" ">
<polygon fill="white" stroke="black" points="317,-73.5 317,-92.5 455,-92.5 455,-73.5 317,-73.5"/>
<text text-anchor="middle" x="386" y="-80.5" font-family="Helvetica,sans-Serif" font-size="10.00">Client::finalizeCgiResponse</text>
</a>
</g>
</g>
<!-- Node11&#45;&gt;Node12 -->
<g id="edge11" class="edge">
<title>Node11&#45;&gt;Node12</title>
<path fill="none" stroke="midnightblue" d="M480.63,-83C472.14,-83 463.5,-83 455.07,-83"/>
<polygon fill="midnightblue" stroke="midnightblue" points="480.87,-86.5 490.87,-83 480.87,-79.5 480.87,-86.5"/>
</g>
<!-- Node14 -->
<g id="node14" class="node">
<title>Node14</title>
<g id="a_node14"><a xlink:href="classServerManager.html#a9c75ea0bd268425c187ef25770eccbe8" target="_top" xlink:title=" ">
<polygon fill="white" stroke="black" points="992,-30 992,-60 1124,-60 1124,-30 992,-30"/>
<text text-anchor="start" x="1000" y="-48" font-family="Helvetica,sans-Serif" font-size="10.00">ServerManager::handleCgi</text>
<text text-anchor="middle" x="1058" y="-37" font-family="Helvetica,sans-Serif" font-size="10.00">PipeEvent</text>
</a>
</g>
</g>
<!-- Node13&#45;&gt;Node14 -->
<g id="edge14" class="edge">
<title>Node13&#45;&gt;Node14</title>
<path fill="none" stroke="midnightblue" d="M1275.84,-47.31C1230.34,-46.83 1169.67,-46.18 1124.08,-45.69"/>
<polygon fill="midnightblue" stroke="midnightblue" points="1275.85,-50.81 1285.89,-47.42 1275.93,-43.81 1275.85,-50.81"/>
</g>
<!-- Node14&#45;&gt;Node10 -->
<g id="edge15" class="edge">
<title>Node14&#45;&gt;Node10</title>
<path fill="none" stroke="midnightblue" d="M981.62,-45C915.45,-45 816.59,-45 730.5,-45 730.5,-45 730.5,-45 385,-45 284.48,-45 167.25,-55.11 102.14,-61.62"/>
<polygon fill="midnightblue" stroke="midnightblue" points="981.96,-48.5 991.96,-45 981.96,-41.5 981.96,-48.5"/>
</g>
</g>
</svg>
