<?xml version="1.0" encoding="UTF-8" standalone="no"?>
<!DOCTYPE svg PUBLIC "-//W3C//DTD SVG 1.1//EN"
 "http://www.w3.org/Graphics/SVG/1.1/DTD/svg11.dtd">
<!-- Generated by graphviz version 2.43.0 (0)
 -->
<!-- Title: ConfigParser::parseListen Pages: 1 -->
<svg width="634pt" height="123pt"
 viewBox="0.00 0.00 634.00 123.00" xmlns="http://www.w3.org/2000/svg" xmlns:xlink="http://www.w3.org/1999/xlink">
<g id="graph0" class="graph" transform="scale(1 1) rotate(0) translate(4 119)">
<title>ConfigParser::parseListen</title>
<polygon fill="white" stroke="transparent" points="-4,4 -4,-119 630,-119 630,4 -4,4"/>
<!-- Node1 -->
<g id="node1" class="node">
<title>Node1</title>
<g id="a_node1"><a xlink:title=" ">
<polygon fill="#bfbfbf" stroke="black" points="0,-38.5 0,-57.5 130,-57.5 130,-38.5 0,-38.5"/>
<text text-anchor="middle" x="65" y="-45.5" font-family="Helvetica,sans-Serif" font-size="10.00">ConfigParser::parseListen</text>
</a>
</g>
</g>
<!-- Node2 -->
<g id="node2" class="node">
<title>Node2</title>
<g id="a_node2"><a xlink:href="namespaceconfig_1_1utils.html#ab2e0db706cadd8f620668e8aa9ea1644" target="_top" xlink:title="Validates a host string (either IPv4 or hostname)">
<polygon fill="white" stroke="black" points="180.5,-76.5 180.5,-95.5 302.5,-95.5 302.5,-76.5 180.5,-76.5"/>
<text text-anchor="middle" x="241.5" y="-83.5" font-family="Helvetica,sans-Serif" font-size="10.00">config::utils::isValidHost</text>
</a>
</g>
</g>
<!-- Node1&#45;&gt;Node2 -->
<g id="edge1" class="edge">
<title>Node1&#45;&gt;Node2</title>
<path fill="none" stroke="midnightblue" d="M110.03,-57.59C133.37,-62.67 162.23,-68.96 186.87,-74.32"/>
<polygon fill="midnightblue" stroke="midnightblue" points="186.27,-77.77 196.78,-76.48 187.76,-70.93 186.27,-77.77"/>
</g>
<!-- Node6 -->
<g id="node6" class="node">
<title>Node6</title>
<g id="a_node6"><a xlink:href="namespaceconfig_1_1utils.html#a4c504c996325f8d62e08d878b037e975" target="_top" xlink:title="Removes the trailing semicolon from a string if present.">
<polygon fill="white" stroke="black" points="166,-38.5 166,-57.5 317,-57.5 317,-38.5 166,-38.5"/>
<text text-anchor="middle" x="241.5" y="-45.5" font-family="Helvetica,sans-Serif" font-size="10.00">config::utils::removeSemicolon</text>
</a>
</g>
</g>
<!-- Node1&#45;&gt;Node6 -->
<g id="edge5" class="edge">
<title>Node1&#45;&gt;Node6</title>
<path fill="none" stroke="midnightblue" d="M130.48,-48C138.79,-48 147.39,-48 155.95,-48"/>
<polygon fill="midnightblue" stroke="midnightblue" points="155.97,-51.5 165.97,-48 155.97,-44.5 155.97,-51.5"/>
</g>
<!-- Node7 -->
<g id="node7" class="node">
<title>Node7</title>
<g id="a_node7"><a xlink:href="namespaceconfig_1_1utils.html#a0ff3e01dad8856ae9244e96ef9e95b99" target="_top" xlink:title="Converts a string to an integer.">
<polygon fill="white" stroke="black" points="182,-0.5 182,-19.5 301,-19.5 301,-0.5 182,-0.5"/>
<text text-anchor="middle" x="241.5" y="-7.5" font-family="Helvetica,sans-Serif" font-size="10.00">config::utils::stringToInt</text>
</a>
</g>
</g>
<!-- Node1&#45;&gt;Node7 -->
<g id="edge6" class="edge">
<title>Node1&#45;&gt;Node7</title>
<path fill="none" stroke="midnightblue" d="M110.03,-38.41C133.37,-33.33 162.23,-27.04 186.87,-21.68"/>
<polygon fill="midnightblue" stroke="midnightblue" points="187.76,-25.07 196.78,-19.52 186.27,-18.23 187.76,-25.07"/>
</g>
<!-- Node3 -->
<g id="node3" class="node">
<title>Node3</title>
<g id="a_node3"><a xlink:href="namespaceconfig_1_1utils.html#abccb78e02eed9bea1836a7aa96acf8f7" target="_top" xlink:title="Validates hostname format following RFC 952 and RFC 1123.">
<polygon fill="white" stroke="black" points="353,-95.5 353,-114.5 499,-114.5 499,-95.5 353,-95.5"/>
<text text-anchor="middle" x="426" y="-102.5" font-family="Helvetica,sans-Serif" font-size="10.00">config::utils::isValidHostname</text>
</a>
</g>
</g>
<!-- Node2&#45;&gt;Node3 -->
<g id="edge2" class="edge">
<title>Node2&#45;&gt;Node3</title>
<path fill="none" stroke="midnightblue" d="M302.51,-92.25C315.34,-93.58 329.11,-95.02 342.62,-96.42"/>
<polygon fill="midnightblue" stroke="midnightblue" points="342.57,-99.94 352.88,-97.49 343.29,-92.97 342.57,-99.94"/>
</g>
<!-- Node4 -->
<g id="node4" class="node">
<title>Node4</title>
<g id="a_node4"><a xlink:href="namespaceconfig_1_1utils.html#a36374aff9046ea2a3e8af894f939c215" target="_top" xlink:title="Validates an IPv4 address string.">
<polygon fill="white" stroke="black" points="365,-57.5 365,-76.5 487,-76.5 487,-57.5 365,-57.5"/>
<text text-anchor="middle" x="426" y="-64.5" font-family="Helvetica,sans-Serif" font-size="10.00">config::utils::isValidIPv4</text>
</a>
</g>
</g>
<!-- Node2&#45;&gt;Node4 -->
<g id="edge3" class="edge">
<title>Node2&#45;&gt;Node4</title>
<path fill="none" stroke="midnightblue" d="M302.51,-79.75C319.27,-78.01 337.63,-76.1 354.92,-74.3"/>
<polygon fill="midnightblue" stroke="midnightblue" points="355.37,-77.77 364.95,-73.25 354.65,-70.81 355.37,-77.77"/>
</g>
<!-- Node5 -->
<g id="node5" class="node">
<title>Node5</title>
<g id="a_node5"><a xlink:href="namespaceconfig_1_1utils.html#a86bd730a60ae105179738c895a3a398b" target="_top" xlink:title="Splits a string by a delimiter into a vector.">
<polygon fill="white" stroke="black" points="535,-57.5 535,-76.5 626,-76.5 626,-57.5 535,-57.5"/>
<text text-anchor="middle" x="580.5" y="-64.5" font-family="Helvetica,sans-Serif" font-size="10.00">config::utils::split</text>
</a>
</g>
</g>
<!-- Node4&#45;&gt;Node5 -->
<g id="edge4" class="edge">
<title>Node4&#45;&gt;Node5</title>
<path fill="none" stroke="midnightblue" d="M487.27,-67C499.51,-67 512.32,-67 524.36,-67"/>
<polygon fill="midnightblue" stroke="midnightblue" points="524.72,-70.5 534.72,-67 524.72,-63.5 524.72,-70.5"/>
</g>
</g>
</svg>
