<?xml version="1.0" encoding="UTF-8" standalone="no"?>
<!DOCTYPE svg PUBLIC "-//W3C//DTD SVG 1.1//EN"
 "http://www.w3.org/Graphics/SVG/1.1/DTD/svg11.dtd">
<!-- Generated by graphviz version 2.43.0 (0)
 -->
<!-- Title: RequestProcessor::handleLocationValidation Pages: 1 -->
<svg width="921pt" height="576pt"
 viewBox="0.00 0.00 921.00 576.15" xmlns="http://www.w3.org/2000/svg" xmlns:xlink="http://www.w3.org/1999/xlink">
<g id="graph0" class="graph" transform="scale(1 1) rotate(0) translate(4 572.15)">
<title>RequestProcessor::handleLocationValidation</title>
<polygon fill="white" stroke="transparent" points="-4,4 -4,-572.15 917,-572.15 917,4 -4,4"/>
<!-- Node1 -->
<g id="node1" class="node">
<title>Node1</title>
<g id="a_node1"><a xlink:title=" ">
<polygon fill="#bfbfbf" stroke="black" points="0,-163.15 0,-193.15 132,-193.15 132,-163.15 0,-163.15"/>
<text text-anchor="start" x="8" y="-181.15" font-family="Helvetica,sans-Serif" font-size="10.00">RequestProcessor::handle</text>
<text text-anchor="middle" x="66" y="-170.15" font-family="Helvetica,sans-Serif" font-size="10.00">LocationValidation</text>
</a>
</g>
</g>
<!-- Node2 -->
<g id="node2" class="node">
<title>Node2</title>
<g id="a_node2"><a xlink:href="ErrorUtils_8cpp.html#a470416220aa911b8f1274140a8322e7a" target="_top" xlink:title=" ">
<polygon fill="white" stroke="black" points="168,-206.65 168,-225.65 270,-225.65 270,-206.65 168,-206.65"/>
<text text-anchor="middle" x="219" y="-213.65" font-family="Helvetica,sans-Serif" font-size="10.00">buildErrorResponse</text>
</a>
</g>
</g>
<!-- Node1&#45;&gt;Node2 -->
<g id="edge1" class="edge">
<title>Node1&#45;&gt;Node2</title>
<path fill="none" stroke="midnightblue" d="M126.68,-193.17C141.14,-196.81 156.41,-200.65 170.24,-204.13"/>
<polygon fill="midnightblue" stroke="midnightblue" points="169.47,-207.55 180.02,-206.6 171.18,-200.76 169.47,-207.55"/>
</g>
<!-- Node3 -->
<g id="node3" class="node">
<title>Node3</title>
<g id="a_node3"><a xlink:href="ResponseUtils_8cpp.html#ab7c2cb6fbf297c09ec402182b04584c6" target="_top" xlink:title=" ">
<polygon fill="white" stroke="black" points="316.5,-320.65 316.5,-339.65 409.5,-339.65 409.5,-320.65 316.5,-320.65"/>
<text text-anchor="middle" x="363" y="-327.65" font-family="Helvetica,sans-Serif" font-size="10.00">fillBaseResponse</text>
</a>
</g>
</g>
<!-- Node1&#45;&gt;Node3 -->
<g id="edge29" class="edge">
<title>Node1&#45;&gt;Node3</title>
<path fill="none" stroke="midnightblue" d="M92.93,-193.34C113.19,-205.07 142.17,-221.55 168,-235.15 225.51,-265.43 294.07,-298.25 332.36,-316.3"/>
<polygon fill="midnightblue" stroke="midnightblue" points="330.87,-319.47 341.41,-320.56 333.85,-313.13 330.87,-319.47"/>
</g>
<!-- Node8 -->
<g id="node8" class="node">
<title>Node8</title>
<g id="a_node8"><a xlink:href="classHttpResponse.html#a7efa3ab17ead358609d80b55db164867" target="_top" xlink:title=" ">
<polygon fill="white" stroke="black" points="648,-168.65 648,-187.65 779,-187.65 779,-168.65 648,-168.65"/>
<text text-anchor="middle" x="713.5" y="-175.65" font-family="Helvetica,sans-Serif" font-size="10.00">HttpResponse::setHeader</text>
</a>
</g>
</g>
<!-- Node1&#45;&gt;Node8 -->
<g id="edge30" class="edge">
<title>Node1&#45;&gt;Node8</title>
<path fill="none" stroke="midnightblue" d="M80.1,-163.06C113.28,-126.27 205.2,-33.07 306,-7.15 463.63,33.38 639.78,-111.32 694.99,-161.57"/>
<polygon fill="midnightblue" stroke="midnightblue" points="692.8,-164.31 702.52,-168.52 697.55,-159.17 692.8,-164.31"/>
</g>
<!-- Node24 -->
<g id="node24" class="node">
<title>Node24</title>
<g id="a_node24"><a xlink:href="RequestProcessorUtils_8cpp.html#a78597f2a4e423d57364c43dda7bcf969" target="_top" xlink:title=" ">
<polygon fill="white" stroke="black" points="175.5,-92.65 175.5,-111.65 262.5,-111.65 262.5,-92.65 175.5,-92.65"/>
<text text-anchor="middle" x="219" y="-99.65" font-family="Helvetica,sans-Serif" font-size="10.00">validateLocation</text>
</a>
</g>
</g>
<!-- Node1&#45;&gt;Node24 -->
<g id="edge31" class="edge">
<title>Node1&#45;&gt;Node24</title>
<path fill="none" stroke="midnightblue" d="M96.83,-163.14C123.78,-149.57 163.15,-129.76 189.63,-116.43"/>
<polygon fill="midnightblue" stroke="midnightblue" points="191.4,-119.46 198.76,-111.84 188.25,-113.2 191.4,-119.46"/>
</g>
<!-- Node2&#45;&gt;Node3 -->
<g id="edge2" class="edge">
<title>Node2&#45;&gt;Node3</title>
<path fill="none" stroke="midnightblue" d="M227.04,-225.78C240.58,-243.7 271.91,-282.5 306,-306.15 311.66,-310.08 318.07,-313.57 324.48,-316.58"/>
<polygon fill="midnightblue" stroke="midnightblue" points="323.22,-319.84 333.78,-320.65 326.02,-313.43 323.22,-319.84"/>
</g>
<!-- Node2&#45;&gt;Node8 -->
<g id="edge27" class="edge">
<title>Node2&#45;&gt;Node8</title>
<path fill="none" stroke="midnightblue" d="M231.77,-206.45C247.67,-193.82 277.34,-171.84 306,-159.15 368.89,-131.32 387.76,-129.66 456,-121.15 524.36,-112.63 544.35,-103.72 611,-121.15 641.52,-129.14 672.56,-148.57 692.13,-162.53"/>
<polygon fill="midnightblue" stroke="midnightblue" points="690.14,-165.41 700.28,-168.5 694.28,-159.77 690.14,-165.41"/>
</g>
<!-- Node15 -->
<g id="node15" class="node">
<title>Node15</title>
<g id="a_node15"><a xlink:href="classHttpResponse.html#a11a67ba43096f5eb1870e65f1814d364" target="_top" xlink:title=" ">
<polygon fill="white" stroke="black" points="456,-168.65 456,-187.65 611,-187.65 611,-168.65 456,-168.65"/>
<text text-anchor="middle" x="533.5" y="-175.65" font-family="Helvetica,sans-Serif" font-size="10.00">HttpResponse::setContentType</text>
</a>
</g>
</g>
<!-- Node2&#45;&gt;Node15 -->
<g id="edge26" class="edge">
<title>Node2&#45;&gt;Node15</title>
<path fill="none" stroke="midnightblue" d="M230.08,-225.78C245.15,-239.45 275.13,-263.85 306,-273.15 354.51,-287.77 376.83,-299.67 420,-273.15 450.15,-254.64 429,-225.02 456,-202.15 460.88,-198.02 466.47,-194.6 472.36,-191.76"/>
<polygon fill="midnightblue" stroke="midnightblue" points="473.95,-194.89 481.81,-187.78 471.23,-188.44 473.95,-194.89"/>
</g>
<!-- Node21 -->
<g id="node21" class="node">
<title>Node21</title>
<g id="a_node21"><a xlink:href="ErrorUtils_8cpp.html#aa759f2b84e51d20fdf7801c0514c3635" target="_top" xlink:title=" ">
<polygon fill="white" stroke="black" points="321,-244.65 321,-263.65 405,-263.65 405,-244.65 321,-244.65"/>
<text text-anchor="middle" x="363" y="-251.65" font-family="Helvetica,sans-Serif" font-size="10.00">readFileToBody</text>
</a>
</g>
</g>
<!-- Node2&#45;&gt;Node21 -->
<g id="edge24" class="edge">
<title>Node2&#45;&gt;Node21</title>
<path fill="none" stroke="midnightblue" d="M255.83,-225.74C274.16,-230.65 296.68,-236.67 316.25,-241.91"/>
<polygon fill="midnightblue" stroke="midnightblue" points="315.61,-245.36 326.18,-244.57 317.42,-238.6 315.61,-245.36"/>
</g>
<!-- Node22 -->
<g id="node22" class="node">
<title>Node22</title>
<g id="a_node22"><a xlink:href="RequestProcessorUtils_8cpp.html#aa9c12d87cb0781b781a580ff9bfd0c06" target="_top" xlink:title=" ">
<polygon fill="white" stroke="black" points="329,-206.65 329,-225.65 397,-225.65 397,-206.65 329,-206.65"/>
<text text-anchor="middle" x="363" y="-213.65" font-family="Helvetica,sans-Serif" font-size="10.00">resolvePath</text>
</a>
</g>
</g>
<!-- Node2&#45;&gt;Node22 -->
<g id="edge25" class="edge">
<title>Node2&#45;&gt;Node22</title>
<path fill="none" stroke="midnightblue" d="M270.06,-216.15C285.89,-216.15 303.25,-216.15 318.57,-216.15"/>
<polygon fill="midnightblue" stroke="midnightblue" points="318.82,-219.65 328.82,-216.15 318.82,-212.65 318.82,-219.65"/>
</g>
<!-- Node23 -->
<g id="node23" class="node">
<title>Node23</title>
<g id="a_node23"><a xlink:href="ResponseUtils_8cpp.html#a1c98cd4773c38cae6781a257fa318ca7" target="_top" xlink:title=" ">
<polygon fill="white" stroke="black" points="339.5,-168.65 339.5,-187.65 386.5,-187.65 386.5,-168.65 339.5,-168.65"/>
<text text-anchor="middle" x="363" y="-175.65" font-family="Helvetica,sans-Serif" font-size="10.00">toBody</text>
</a>
</g>
</g>
<!-- Node2&#45;&gt;Node23 -->
<g id="edge28" class="edge">
<title>Node2&#45;&gt;Node23</title>
<path fill="none" stroke="midnightblue" d="M255.83,-206.56C278.53,-200.49 307.64,-192.7 329.64,-186.81"/>
<polygon fill="midnightblue" stroke="midnightblue" points="330.74,-190.14 339.5,-184.17 328.93,-183.38 330.74,-190.14"/>
</g>
<!-- Node4 -->
<g id="node4" class="node">
<title>Node4</title>
<g id="a_node4"><a xlink:href="SessionUtils_8cpp.html#aabfd66406b8a4aec4237b26ff8e76a65" target="_top" xlink:title=" ">
<polygon fill="white" stroke="black" points="464.5,-320.65 464.5,-339.65 602.5,-339.65 602.5,-320.65 464.5,-320.65"/>
<text text-anchor="middle" x="533.5" y="-327.65" font-family="Helvetica,sans-Serif" font-size="10.00">addSessionCookieIfNeeded</text>
</a>
</g>
</g>
<!-- Node3&#45;&gt;Node4 -->
<g id="edge3" class="edge">
<title>Node3&#45;&gt;Node4</title>
<path fill="none" stroke="midnightblue" d="M409.6,-330.15C423.43,-330.15 439.04,-330.15 454.37,-330.15"/>
<polygon fill="midnightblue" stroke="midnightblue" points="454.39,-333.65 464.39,-330.15 454.39,-326.65 454.39,-333.65"/>
</g>
<!-- Node3&#45;&gt;Node8 -->
<g id="edge18" class="edge">
<title>Node3&#45;&gt;Node8</title>
<path fill="none" stroke="midnightblue" d="M382.31,-320.6C393.85,-314.07 408.66,-304.7 420,-294.15 439.52,-275.99 433.89,-261.06 456,-246.15 487.59,-224.85 585.43,-202.69 650.73,-189.67"/>
<polygon fill="midnightblue" stroke="midnightblue" points="651.78,-193.03 660.92,-187.66 650.43,-186.16 651.78,-193.03"/>
</g>
<!-- Node10 -->
<g id="node10" class="node">
<title>Node10</title>
<g id="a_node10"><a xlink:href="classHttpRequest.html#adf523a5345b525702a858f8792bab8ea" target="_top" xlink:title=" ">
<polygon fill="white" stroke="black" points="471.5,-130.65 471.5,-149.65 595.5,-149.65 595.5,-130.65 471.5,-130.65"/>
<text text-anchor="middle" x="533.5" y="-137.65" font-family="Helvetica,sans-Serif" font-size="10.00">HttpRequest::getMethod</text>
</a>
</g>
</g>
<!-- Node3&#45;&gt;Node10 -->
<g id="edge9" class="edge">
<title>Node3&#45;&gt;Node10</title>
<path fill="none" stroke="midnightblue" d="M376.42,-320.53C389.07,-310.12 408.42,-292.41 420,-273.15 447.37,-227.61 417.27,-195.53 456,-159.15 457.96,-157.31 460.08,-155.63 462.31,-154.12"/>
<polygon fill="midnightblue" stroke="midnightblue" points="464.4,-156.95 471.41,-149 460.97,-150.85 464.4,-156.95"/>
</g>
<!-- Node11 -->
<g id="node11" class="node">
<title>Node11</title>
<g id="a_node11"><a xlink:href="classHttpRequest.html#acde519e492e10352bc39d6a3bcd857b2" target="_top" xlink:title=" ">
<polygon fill="white" stroke="black" points="477.5,-434.65 477.5,-453.65 589.5,-453.65 589.5,-434.65 477.5,-434.65"/>
<text text-anchor="middle" x="533.5" y="-441.65" font-family="Helvetica,sans-Serif" font-size="10.00">HttpRequest::getPath</text>
</a>
</g>
</g>
<!-- Node3&#45;&gt;Node11 -->
<g id="edge10" class="edge">
<title>Node3&#45;&gt;Node11</title>
<path fill="none" stroke="midnightblue" d="M370.37,-339.66C383.79,-358.94 417,-402.7 456,-425.15 459.91,-427.4 464.08,-429.39 468.38,-431.14"/>
<polygon fill="midnightblue" stroke="midnightblue" points="467.35,-434.49 477.94,-434.61 469.74,-427.91 467.35,-434.49"/>
</g>
<!-- Node12 -->
<g id="node12" class="node">
<title>Node12</title>
<g id="a_node12"><a xlink:href="classHttpRequest.html#ac2a5d18d42289a03b57215c98d8df41e" target="_top" xlink:title=" ">
<polygon fill="white" stroke="black" points="471,-396.65 471,-415.65 596,-415.65 596,-396.65 471,-396.65"/>
<text text-anchor="middle" x="533.5" y="-403.65" font-family="Helvetica,sans-Serif" font-size="10.00">HttpRequest::getVersion</text>
</a>
</g>
</g>
<!-- Node3&#45;&gt;Node12 -->
<g id="edge11" class="edge">
<title>Node3&#45;&gt;Node12</title>
<path fill="none" stroke="midnightblue" d="M376.7,-339.82C393.84,-352.43 425.7,-374.38 456,-387.15 461.88,-389.63 468.15,-391.83 474.47,-393.78"/>
<polygon fill="midnightblue" stroke="midnightblue" points="473.84,-397.24 484.42,-396.64 475.77,-390.52 473.84,-397.24"/>
</g>
<!-- Node13 -->
<g id="node13" class="node">
<title>Node13</title>
<g id="a_node13"><a xlink:href="classHttpResponse.html#acba4d7264c5b05e63a199c87f8526473" target="_top" xlink:title=" ">
<polygon fill="white" stroke="black" points="647,-244.65 647,-263.65 780,-263.65 780,-244.65 647,-244.65"/>
<text text-anchor="middle" x="713.5" y="-251.65" font-family="Helvetica,sans-Serif" font-size="10.00">HttpResponse::hasHeader</text>
</a>
</g>
</g>
<!-- Node3&#45;&gt;Node13 -->
<g id="edge12" class="edge">
<title>Node3&#45;&gt;Node13</title>
<path fill="none" stroke="midnightblue" d="M379.14,-320.51C404.15,-304.62 451.8,-274.52 456,-273.15 514.62,-254.09 584.61,-250.07 636.65,-250.4"/>
<polygon fill="midnightblue" stroke="midnightblue" points="636.77,-253.9 646.82,-250.52 636.86,-246.9 636.77,-253.9"/>
</g>
<!-- Node14 -->
<g id="node14" class="node">
<title>Node14</title>
<g id="a_node14"><a xlink:href="classHttpResponse.html#a884d07c418ba6145385d63e43bb1b29a" target="_top" xlink:title=" ">
<polygon fill="white" stroke="black" points="472.5,-358.65 472.5,-377.65 594.5,-377.65 594.5,-358.65 472.5,-358.65"/>
<text text-anchor="middle" x="533.5" y="-365.65" font-family="Helvetica,sans-Serif" font-size="10.00">HttpResponse::setBody</text>
</a>
</g>
</g>
<!-- Node3&#45;&gt;Node14 -->
<g id="edge14" class="edge">
<title>Node3&#45;&gt;Node14</title>
<path fill="none" stroke="midnightblue" d="M406.52,-339.74C428.96,-344.8 456.67,-351.05 480.39,-356.4"/>
<polygon fill="midnightblue" stroke="midnightblue" points="479.76,-359.85 490.29,-358.63 481.3,-353.02 479.76,-359.85"/>
</g>
<!-- Node3&#45;&gt;Node15 -->
<g id="edge15" class="edge">
<title>Node3&#45;&gt;Node15</title>
<path fill="none" stroke="midnightblue" d="M398.55,-320.63C406.41,-317.13 414.16,-312.42 420,-306.15 453.33,-270.35 420.91,-236.23 456,-202.15 460.06,-198.21 464.75,-194.92 469.78,-192.16"/>
<polygon fill="midnightblue" stroke="midnightblue" points="471.57,-195.19 479.13,-187.77 468.59,-188.86 471.57,-195.19"/>
</g>
<!-- Node16 -->
<g id="node16" class="node">
<title>Node16</title>
<g id="a_node16"><a xlink:href="classHttpResponse.html#ac982631ddcf451521e207ac0c2bd0108" target="_top" xlink:title=" ">
<polygon fill="white" stroke="black" points="462,-282.65 462,-301.65 605,-301.65 605,-282.65 462,-282.65"/>
<text text-anchor="middle" x="533.5" y="-289.65" font-family="Helvetica,sans-Serif" font-size="10.00">HttpResponse::setHeadOnly</text>
</a>
</g>
</g>
<!-- Node3&#45;&gt;Node16 -->
<g id="edge19" class="edge">
<title>Node3&#45;&gt;Node16</title>
<path fill="none" stroke="midnightblue" d="M406.52,-320.56C428.96,-315.5 456.67,-309.25 480.39,-303.9"/>
<polygon fill="midnightblue" stroke="midnightblue" points="481.3,-307.29 490.29,-301.67 479.76,-300.46 481.3,-307.29"/>
</g>
<!-- Node17 -->
<g id="node17" class="node">
<title>Node17</title>
<g id="a_node17"><a xlink:href="classHttpResponse.html#a610f8f887ca042f2b18ec395aaccc255" target="_top" xlink:title=" ">
<polygon fill="white" stroke="black" points="458,-472.65 458,-491.65 609,-491.65 609,-472.65 458,-472.65"/>
<text text-anchor="middle" x="533.5" y="-479.65" font-family="Helvetica,sans-Serif" font-size="10.00">HttpResponse::setStatusCode</text>
</a>
</g>
</g>
<!-- Node3&#45;&gt;Node17 -->
<g id="edge20" class="edge">
<title>Node3&#45;&gt;Node17</title>
<path fill="none" stroke="midnightblue" d="M367.86,-339.99C378.14,-364.83 408.64,-430.44 456,-463.15 458.9,-465.16 462,-466.95 465.21,-468.56"/>
<polygon fill="midnightblue" stroke="midnightblue" points="463.98,-471.84 474.55,-472.6 466.76,-465.41 463.98,-471.84"/>
</g>
<!-- Node19 -->
<g id="node19" class="node">
<title>Node19</title>
<g id="a_node19"><a xlink:href="classHttpResponse.html#a407dc1ea3f01365d8105fadc0418bc79" target="_top" xlink:title=" ">
<polygon fill="white" stroke="black" points="467.5,-548.65 467.5,-567.65 599.5,-567.65 599.5,-548.65 467.5,-548.65"/>
<text text-anchor="middle" x="533.5" y="-555.65" font-family="Helvetica,sans-Serif" font-size="10.00">HttpResponse::setVersion</text>
</a>
</g>
</g>
<!-- Node3&#45;&gt;Node19 -->
<g id="edge22" class="edge">
<title>Node3&#45;&gt;Node19</title>
<path fill="none" stroke="midnightblue" d="M365.24,-339.83C370.03,-373.13 390.49,-484 456,-539.15 458.02,-540.85 460.16,-542.4 462.4,-543.81"/>
<polygon fill="midnightblue" stroke="midnightblue" points="461,-547.03 471.48,-548.62 464.28,-540.85 461,-547.03"/>
</g>
<!-- Node20 -->
<g id="node20" class="node">
<title>Node20</title>
<g id="a_node20"><a xlink:href="ResponseUtils_8cpp.html#af8cce302648449aa6215ac211230ef75" target="_top" xlink:title=" ">
<polygon fill="white" stroke="black" points="491.5,-510.65 491.5,-529.65 575.5,-529.65 575.5,-510.65 491.5,-510.65"/>
<text text-anchor="middle" x="533.5" y="-517.65" font-family="Helvetica,sans-Serif" font-size="10.00">versionToString</text>
</a>
</g>
</g>
<!-- Node3&#45;&gt;Node20 -->
<g id="edge23" class="edge">
<title>Node3&#45;&gt;Node20</title>
<path fill="none" stroke="midnightblue" d="M366.22,-339.68C373.5,-368.81 399.55,-457.32 456,-501.15 463.38,-506.88 472.27,-510.91 481.33,-513.73"/>
<polygon fill="midnightblue" stroke="midnightblue" points="480.61,-517.16 491.18,-516.35 482.41,-510.4 480.61,-517.16"/>
</g>
<!-- Node5 -->
<g id="node5" class="node">
<title>Node5</title>
<g id="a_node5"><a xlink:href="SessionUtils_8cpp.html#af915f0cd7984e5d06370014bb43c74b6" target="_top" xlink:title=" ">
<polygon fill="white" stroke="black" points="670,-320.65 670,-339.65 757,-339.65 757,-320.65 670,-320.65"/>
<text text-anchor="middle" x="713.5" y="-327.65" font-family="Helvetica,sans-Serif" font-size="10.00">createSessionId</text>
</a>
</g>
</g>
<!-- Node4&#45;&gt;Node5 -->
<g id="edge4" class="edge">
<title>Node4&#45;&gt;Node5</title>
<path fill="none" stroke="midnightblue" d="M602.56,-330.15C621.6,-330.15 641.99,-330.15 659.98,-330.15"/>
<polygon fill="midnightblue" stroke="midnightblue" points="659.99,-333.65 669.99,-330.15 659.99,-326.65 659.99,-333.65"/>
</g>
<!-- Node6 -->
<g id="node6" class="node">
<title>Node6</title>
<g id="a_node6"><a xlink:href="SessionUtils_8cpp.html#a655520ad6c85707c8e1aae50c1eda6c8" target="_top" xlink:title=" ">
<polygon fill="white" stroke="black" points="659.5,-282.65 659.5,-301.65 767.5,-301.65 767.5,-282.65 659.5,-282.65"/>
<text text-anchor="middle" x="713.5" y="-289.65" font-family="Helvetica,sans-Serif" font-size="10.00">extractIdFromCookie</text>
</a>
</g>
</g>
<!-- Node4&#45;&gt;Node6 -->
<g id="edge5" class="edge">
<title>Node4&#45;&gt;Node6</title>
<path fill="none" stroke="midnightblue" d="M579.42,-320.56C603.33,-315.46 632.92,-309.14 658.12,-303.76"/>
<polygon fill="midnightblue" stroke="midnightblue" points="658.86,-307.18 667.91,-301.67 657.4,-300.34 658.86,-307.18"/>
</g>
<!-- Node7 -->
<g id="node7" class="node">
<title>Node7</title>
<g id="a_node7"><a xlink:href="classHttpRequest.html#ab537cb11b054734695ee4889d88aec6d" target="_top" xlink:title="Obtiene un header específico de la petición.">
<polygon fill="white" stroke="black" points="652,-358.65 652,-377.65 775,-377.65 775,-358.65 652,-358.65"/>
<text text-anchor="middle" x="713.5" y="-365.65" font-family="Helvetica,sans-Serif" font-size="10.00">HttpRequest::getHeader</text>
</a>
</g>
</g>
<!-- Node4&#45;&gt;Node7 -->
<g id="edge6" class="edge">
<title>Node4&#45;&gt;Node7</title>
<path fill="none" stroke="midnightblue" d="M579.42,-339.74C603.33,-344.85 632.92,-351.16 658.12,-356.54"/>
<polygon fill="midnightblue" stroke="midnightblue" points="657.4,-359.97 667.91,-358.63 658.86,-353.12 657.4,-359.97"/>
</g>
<!-- Node4&#45;&gt;Node8 -->
<g id="edge7" class="edge">
<title>Node4&#45;&gt;Node8</title>
<path fill="none" stroke="midnightblue" d="M595.41,-320.49C601.02,-318.03 606.34,-314.97 611,-311.15 639.92,-287.48 624.42,-264.94 647,-235.15 659.22,-219.03 676.62,-204.16 690.41,-193.64"/>
<polygon fill="midnightblue" stroke="midnightblue" points="692.5,-196.45 698.46,-187.69 688.34,-190.83 692.5,-196.45"/>
</g>
<!-- Node9 -->
<g id="node9" class="node">
<title>Node9</title>
<g id="a_node9"><a xlink:href="namespacehttp__header__utils.html#aa9b0e84aeed4203326a12eecbcd3f9e5" target="_top" xlink:title=" ">
<polygon fill="white" stroke="black" points="816,-201.15 816,-231.15 913,-231.15 913,-201.15 816,-201.15"/>
<text text-anchor="start" x="824" y="-219.15" font-family="Helvetica,sans-Serif" font-size="10.00">http_header_utils::</text>
<text text-anchor="middle" x="864.5" y="-208.15" font-family="Helvetica,sans-Serif" font-size="10.00">toLowerCopy</text>
</a>
</g>
</g>
<!-- Node8&#45;&gt;Node9 -->
<g id="edge8" class="edge">
<title>Node8&#45;&gt;Node9</title>
<path fill="none" stroke="midnightblue" d="M752.1,-187.74C768.39,-191.9 787.84,-196.86 805.89,-201.46"/>
<polygon fill="midnightblue" stroke="midnightblue" points="805.19,-204.89 815.74,-203.97 806.92,-198.11 805.19,-204.89"/>
</g>
<!-- Node13&#45;&gt;Node9 -->
<g id="edge13" class="edge">
<title>Node13&#45;&gt;Node9</title>
<path fill="none" stroke="midnightblue" d="M752.1,-244.56C768.39,-240.41 787.84,-235.45 805.89,-230.85"/>
<polygon fill="midnightblue" stroke="midnightblue" points="806.92,-234.19 815.74,-228.33 805.19,-227.41 806.92,-234.19"/>
</g>
<!-- Node15&#45;&gt;Node8 -->
<g id="edge16" class="edge">
<title>Node15&#45;&gt;Node8</title>
<path fill="none" stroke="midnightblue" d="M611.02,-178.15C619.83,-178.15 628.8,-178.15 637.58,-178.15"/>
<polygon fill="midnightblue" stroke="midnightblue" points="637.78,-181.65 647.78,-178.15 637.78,-174.65 637.78,-181.65"/>
</g>
<!-- Node15&#45;&gt;Node9 -->
<g id="edge17" class="edge">
<title>Node15&#45;&gt;Node9</title>
<path fill="none" stroke="midnightblue" d="M585.62,-187.67C604.81,-191.01 626.86,-194.57 647,-197.15 700.53,-204.01 761.83,-209.14 805.5,-212.32"/>
<polygon fill="midnightblue" stroke="midnightblue" points="805.43,-215.83 815.66,-213.05 805.93,-208.85 805.43,-215.83"/>
</g>
<!-- Node18 -->
<g id="node18" class="node">
<title>Node18</title>
<g id="a_node18"><a xlink:href="HttpResponse_8cpp.html#aadc8fd8bbc80a1b3551ea1357e04f07b" target="_top" xlink:title=" ">
<polygon fill="white" stroke="black" points="654,-472.65 654,-491.65 773,-491.65 773,-472.65 654,-472.65"/>
<text text-anchor="middle" x="713.5" y="-479.65" font-family="Helvetica,sans-Serif" font-size="10.00">reasonPhraseForStatus</text>
</a>
</g>
</g>
<!-- Node17&#45;&gt;Node18 -->
<g id="edge21" class="edge">
<title>Node17&#45;&gt;Node18</title>
<path fill="none" stroke="midnightblue" d="M609.21,-482.15C620.65,-482.15 632.41,-482.15 643.71,-482.15"/>
<polygon fill="midnightblue" stroke="midnightblue" points="643.94,-485.65 653.94,-482.15 643.94,-478.65 643.94,-485.65"/>
</g>
<!-- Node24&#45;&gt;Node10 -->
<g id="edge33" class="edge">
<title>Node24&#45;&gt;Node10</title>
<path fill="none" stroke="midnightblue" d="M262.8,-107.36C313.94,-113.58 400.27,-124.07 461.47,-131.52"/>
<polygon fill="midnightblue" stroke="midnightblue" points="461.1,-135 471.45,-132.73 461.95,-128.05 461.1,-135"/>
</g>
<!-- Node25 -->
<g id="node25" class="node">
<title>Node25</title>
<g id="a_node25"><a xlink:href="classHttpRequest.html#aa727937b993d7df56a9d99b37d6be672" target="_top" xlink:title=" ">
<polygon fill="white" stroke="black" points="306,-16.65 306,-35.65 420,-35.65 420,-16.65 306,-16.65"/>
<text text-anchor="middle" x="363" y="-23.65" font-family="Helvetica,sans-Serif" font-size="10.00">HttpRequest::getBody</text>
</a>
</g>
</g>
<!-- Node24&#45;&gt;Node25 -->
<g id="edge32" class="edge">
<title>Node24&#45;&gt;Node25</title>
<path fill="none" stroke="midnightblue" d="M232.21,-92.58C248.35,-80.28 278.02,-58.88 306,-45.15 310.32,-43.03 314.94,-41.05 319.6,-39.23"/>
<polygon fill="midnightblue" stroke="midnightblue" points="320.97,-42.45 329.15,-35.72 318.56,-35.88 320.97,-42.45"/>
</g>
<!-- Node26 -->
<g id="node26" class="node">
<title>Node26</title>
<g id="a_node26"><a xlink:href="RequestProcessorUtils_8cpp.html#a390b94b66217f7a8dacf76cf769d07c7" target="_top" xlink:title=" ">
<polygon fill="white" stroke="black" points="320.5,-54.65 320.5,-73.65 405.5,-73.65 405.5,-54.65 320.5,-54.65"/>
<text text-anchor="middle" x="363" y="-61.65" font-family="Helvetica,sans-Serif" font-size="10.00">methodToString</text>
</a>
</g>
</g>
<!-- Node24&#45;&gt;Node26 -->
<g id="edge34" class="edge">
<title>Node24&#45;&gt;Node26</title>
<path fill="none" stroke="midnightblue" d="M255.83,-92.56C274.16,-87.66 296.68,-81.63 316.25,-76.39"/>
<polygon fill="midnightblue" stroke="midnightblue" points="317.42,-79.7 326.18,-73.74 315.61,-72.94 317.42,-79.7"/>
</g>
</g>
</svg>
