<?xml version="1.0" encoding="UTF-8" standalone="no"?>
<!DOCTYPE svg PUBLIC "-//W3C//DTD SVG 1.1//EN"
 "http://www.w3.org/Graphics/SVG/1.1/DTD/svg11.dtd">
<!-- Generated by graphviz version 2.43.0 (0)
 -->
<!-- Title: HttpParser::getRequest Pages: 1 -->
<!--zoomable 246 -->
<svg id="main" version="1.1" xmlns="http://www.w3.org/2000/svg" xmlns:xlink="http://www.w3.org/1999/xlink" xml:space="preserve" onload="init(evt)">
<style type="text/css"><![CDATA[
.edge:hover path { stroke: red; }
.edge:hover polygon { stroke: red; fill: red; }
]]></style>
<script type="text/javascript"><![CDATA[
var edges = document.getElementsByTagName('g');
if (edges && edges.length) {
  for (var i=0;i<edges.length;i++) {
    if (edges[i].id.substr(0,4)=='edge') {
      edges[i].setAttribute('class','edge');
    }
  }
}
]]></script>
        <defs>
                <circle id="rim" cx="0" cy="0" r="7"/>
                <circle id="rim2" cx="0" cy="0" r="3.5"/>
                <g id="zoomPlus">
                        <use xlink:href="#rim" fill="#404040">
                                <set attributeName="fill" to="#808080" begin="zoomplus.mouseover" end="zoomplus.mouseout"/>
                        </use>
                        <path d="M-4,0h8M0,-4v8" fill="none" stroke="white" stroke-width="1.5" pointer-events="none"/>
                </g>
                <g id="zoomMin">
                        <use xlink:href="#rim" fill="#404040">
                                <set attributeName="fill" to="#808080" begin="zoomminus.mouseover" end="zoomminus.mouseout"/>
                        </use>
                        <path d="M-4,0h8" fill="none" stroke="white" stroke-width="1.5" pointer-events="none"/>
                </g>
                <g id="dirArrow">
                        <path fill="none" stroke="white" stroke-width="1.5" d="M0,-3.0v7 M-2.5,-0.5L0,-3.0L2.5,-0.5"/>
                </g>
               <g id="resetDef">
                       <use xlink:href="#rim2" fill="#404040">
                               <set attributeName="fill" to="#808080" begin="reset.mouseover" end="reset.mouseout"/>
                       </use>
               </g>
        </defs>

<script type="text/javascript">
var viewWidth = 1578;
var viewHeight = 246;
var sectionId = 'dynsection-6';
</script>
<script xlink:href="svgpan.js"/>
<svg id="graph" class="graph">
<g id="viewport">
<title>HttpParser::getRequest</title>
<polygon fill="white" stroke="transparent" points="-4,4 -4,-242 1574,-242 1574,4 -4,4"/>
<!-- Node1 -->
<g id="node1" class="node">
<title>Node1</title>
<g id="a_node1"><a xlink:title=" ">
<polygon fill="#bfbfbf" stroke="black" points="1450,-114.5 1450,-133.5 1570,-133.5 1570,-114.5 1450,-114.5"/>
<text text-anchor="middle" x="1510" y="-121.5" font-family="Helvetica,sans-Serif" font-size="10.00">HttpParser::getRequest</text>
</a>
</g>
</g>
<!-- Node2 -->
<g id="node2" class="node">
<title>Node2</title>
<g id="a_node2"><a xlink:href="classClient.html#a419f8f3253d3f71287044e3999a5d600" target="_top" xlink:title=" ">
<polygon fill="white" stroke="black" points="852.5,-144.5 852.5,-163.5 965.5,-163.5 965.5,-144.5 852.5,-144.5"/>
<text text-anchor="middle" x="909" y="-151.5" font-family="Helvetica,sans-Serif" font-size="10.00">Client::buildResponse</text>
</a>
</g>
</g>
<!-- Node1&#45;&gt;Node2 -->
<g id="edge1" class="edge">
<title>Node1&#45;&gt;Node2</title>
<path fill="none" stroke="midnightblue" d="M1459.64,-135.58C1445.03,-138.54 1428.94,-141.36 1414,-143 1251.97,-160.83 1058.93,-158.54 965.77,-155.97"/>
<polygon fill="midnightblue" stroke="midnightblue" points="1460.42,-138.99 1469.49,-133.52 1458.99,-132.14 1460.42,-138.99"/>
</g>
<!-- Node3 -->
<g id="node3" class="node">
<title>Node3</title>
<g id="a_node3"><a xlink:href="classClient.html#abcf615f2514ae7e0266315693e73a31a" target="_top" xlink:title=" ">
<polygon fill="white" stroke="black" points="652,-144.5 652,-163.5 807,-163.5 807,-144.5 652,-144.5"/>
<text text-anchor="middle" x="729.5" y="-151.5" font-family="Helvetica,sans-Serif" font-size="10.00">Client::handleCompleteRequest</text>
</a>
</g>
</g>
<!-- Node1&#45;&gt;Node3 -->
<g id="edge18" class="edge">
<title>Node1&#45;&gt;Node3</title>
<path fill="none" stroke="midnightblue" d="M1477.94,-137.47C1424.68,-159.3 1312.05,-200 1212.5,-200 1212.5,-200 1212.5,-200 1071.5,-200 963.37,-200 837.68,-177 773.31,-163.53"/>
<polygon fill="midnightblue" stroke="midnightblue" points="1479.29,-140.7 1487.18,-133.63 1476.6,-134.24 1479.29,-140.7"/>
</g>
<!-- Node8 -->
<g id="node8" class="node">
<title>Node8</title>
<g id="a_node8"><a xlink:href="classClient.html#a09d6029b60ae8c9773362968e72f2e54" target="_top" xlink:title=" ">
<polygon fill="white" stroke="black" points="317,-152.5 317,-171.5 455,-171.5 455,-152.5 317,-152.5"/>
<text text-anchor="middle" x="386" y="-159.5" font-family="Helvetica,sans-Serif" font-size="10.00">Client::finalizeCgiResponse</text>
</a>
</g>
</g>
<!-- Node1&#45;&gt;Node8 -->
<g id="edge14" class="edge">
<title>Node1&#45;&gt;Node8</title>
<path fill="none" stroke="midnightblue" d="M1490.43,-140.41C1472.19,-155.69 1442.96,-178.01 1414,-191 1330.1,-228.64 1304.46,-238 1212.5,-238 1212.5,-238 1212.5,-238 728.5,-238 607.63,-238 468.32,-192.08 412.27,-171.63"/>
<polygon fill="midnightblue" stroke="midnightblue" points="1493.13,-142.71 1498.45,-133.55 1488.58,-137.39 1493.13,-142.71"/>
</g>
<!-- Node9 -->
<g id="node9" class="node">
<title>Node9</title>
<g id="a_node9"><a xlink:href="classClient.html#a3b000abab7a3fe339f0f39ad5daca68f" target="_top" xlink:title=" ">
<polygon fill="white" stroke="black" points="1289,-114.5 1289,-133.5 1414,-133.5 1414,-114.5 1289,-114.5"/>
<text text-anchor="middle" x="1351.5" y="-121.5" font-family="Helvetica,sans-Serif" font-size="10.00">Client::checkCgiTimeout</text>
</a>
</g>
</g>
<!-- Node1&#45;&gt;Node9 -->
<g id="edge9" class="edge">
<title>Node1&#45;&gt;Node9</title>
<path fill="none" stroke="midnightblue" d="M1439.58,-124C1431.09,-124 1422.46,-124 1414.09,-124"/>
<polygon fill="midnightblue" stroke="midnightblue" points="1439.83,-127.5 1449.83,-124 1439.83,-120.5 1439.83,-127.5"/>
</g>
<!-- Node10 -->
<g id="node10" class="node">
<title>Node10</title>
<g id="a_node10"><a xlink:href="classClient.html#a2e0da898af07e89fcfd83fe5a3077256" target="_top" xlink:title=" ">
<polygon fill="white" stroke="black" points="1302.5,-76.5 1302.5,-95.5 1400.5,-95.5 1400.5,-76.5 1302.5,-76.5"/>
<text text-anchor="middle" x="1351.5" y="-83.5" font-family="Helvetica,sans-Serif" font-size="10.00">Client::executeCgi</text>
</a>
</g>
</g>
<!-- Node1&#45;&gt;Node10 -->
<g id="edge10" class="edge">
<title>Node1&#45;&gt;Node10</title>
<path fill="none" stroke="midnightblue" d="M1459.71,-112.03C1437.78,-106.71 1412.32,-100.52 1391.71,-95.52"/>
<polygon fill="midnightblue" stroke="midnightblue" points="1458.96,-115.45 1469.51,-114.41 1460.62,-108.65 1458.96,-115.45"/>
</g>
<!-- Node13 -->
<g id="node13" class="node">
<title>Node13</title>
<g id="a_node13"><a xlink:href="classClient.html#a4104efd3f5f7e1c0f3e3302b46861624" target="_top" xlink:title=" ">
<polygon fill="white" stroke="black" points="1296,-0.5 1296,-19.5 1407,-19.5 1407,-0.5 1296,-0.5"/>
<text text-anchor="middle" x="1351.5" y="-7.5" font-family="Helvetica,sans-Serif" font-size="10.00">Client::handleCgiPipe</text>
</a>
</g>
</g>
<!-- Node1&#45;&gt;Node13 -->
<g id="edge15" class="edge">
<title>Node1&#45;&gt;Node13</title>
<path fill="none" stroke="midnightblue" d="M1494.47,-106.65C1477.07,-86.81 1446.23,-54.44 1414,-34 1404.71,-28.11 1393.74,-23.26 1383.65,-19.5"/>
<polygon fill="midnightblue" stroke="midnightblue" points="1491.89,-109.02 1501.06,-114.32 1497.19,-104.46 1491.89,-109.02"/>
</g>
<!-- Node15 -->
<g id="node15" class="node">
<title>Node15</title>
<g id="a_node15"><a xlink:href="classClient.html#ab83f46c4fe6d12026fd5667e7ce270fb" target="_top" xlink:title="Handle Expect: 100&#45;continue.">
<polygon fill="white" stroke="black" points="1011,-48.5 1011,-67.5 1134,-67.5 1134,-48.5 1011,-48.5"/>
<text text-anchor="middle" x="1072.5" y="-55.5" font-family="Helvetica,sans-Serif" font-size="10.00">Client::handleExpect100</text>
</a>
</g>
</g>
<!-- Node1&#45;&gt;Node15 -->
<g id="edge19" class="edge">
<title>Node1&#45;&gt;Node15</title>
<path fill="none" stroke="midnightblue" d="M1489.56,-108.19C1471.3,-94.4 1442.57,-75.32 1414,-67 1319.33,-39.42 1203.52,-43.95 1134.28,-50.46"/>
<polygon fill="midnightblue" stroke="midnightblue" points="1487.6,-111.1 1497.64,-114.47 1491.89,-105.57 1487.6,-111.1"/>
</g>
<!-- Node2&#45;&gt;Node3 -->
<g id="edge2" class="edge">
<title>Node2&#45;&gt;Node3</title>
<path fill="none" stroke="midnightblue" d="M842.05,-154C830.67,-154 818.75,-154 807.12,-154"/>
<polygon fill="midnightblue" stroke="midnightblue" points="842.32,-157.5 852.32,-154 842.32,-150.5 842.32,-157.5"/>
</g>
<!-- Node4 -->
<g id="node4" class="node">
<title>Node4</title>
<g id="a_node4"><a xlink:href="classClient.html#ac95fe5b24fe5275bd2271bd1ac37596d" target="_top" xlink:title=" ">
<polygon fill="white" stroke="black" points="336,-98.5 336,-117.5 436,-117.5 436,-98.5 336,-98.5"/>
<text text-anchor="middle" x="386" y="-105.5" font-family="Helvetica,sans-Serif" font-size="10.00">Client::handleRead</text>
</a>
</g>
</g>
<!-- Node3&#45;&gt;Node4 -->
<g id="edge3" class="edge">
<title>Node3&#45;&gt;Node4</title>
<path fill="none" stroke="midnightblue" d="M665.05,-142.71C649.07,-140.03 631.92,-137.28 616,-135 554.18,-126.14 482.67,-118.05 436.23,-113.09"/>
<polygon fill="midnightblue" stroke="midnightblue" points="664.92,-146.24 675.36,-144.47 666.09,-139.34 664.92,-146.24"/>
</g>
<!-- Node7 -->
<g id="node7" class="node">
<title>Node7</title>
<g id="a_node7"><a xlink:href="classClient.html#a950fd2ab8ac20c9be4c5e722344d6fe2" target="_top" xlink:title=" ">
<polygon fill="white" stroke="black" points="491,-144.5 491,-163.5 616,-163.5 616,-144.5 491,-144.5"/>
<text text-anchor="middle" x="553.5" y="-151.5" font-family="Helvetica,sans-Serif" font-size="10.00">Client::processRequests</text>
</a>
</g>
</g>
<!-- Node3&#45;&gt;Node7 -->
<g id="edge6" class="edge">
<title>Node3&#45;&gt;Node7</title>
<path fill="none" stroke="midnightblue" d="M641.81,-154C633.17,-154 624.52,-154 616.22,-154"/>
<polygon fill="midnightblue" stroke="midnightblue" points="641.93,-157.5 651.93,-154 641.93,-150.5 641.93,-157.5"/>
</g>
<!-- Node5 -->
<g id="node5" class="node">
<title>Node5</title>
<g id="a_node5"><a xlink:href="classServerManager.html#a9f3ca46da9df004286f90902b8daf29d" target="_top" xlink:title=" ">
<polygon fill="white" stroke="black" points="138,-84 138,-114 281,-114 281,-84 138,-84"/>
<text text-anchor="start" x="146" y="-102" font-family="Helvetica,sans-Serif" font-size="10.00">ServerManager::handleClient</text>
<text text-anchor="middle" x="209.5" y="-91" font-family="Helvetica,sans-Serif" font-size="10.00">Event</text>
</a>
</g>
</g>
<!-- Node4&#45;&gt;Node5 -->
<g id="edge4" class="edge">
<title>Node4&#45;&gt;Node5</title>
<path fill="none" stroke="midnightblue" d="M325.69,-104.94C311.33,-104.2 295.84,-103.4 281.02,-102.64"/>
<polygon fill="midnightblue" stroke="midnightblue" points="325.76,-108.45 335.93,-105.47 326.12,-101.46 325.76,-108.45"/>
</g>
<!-- Node6 -->
<g id="node6" class="node">
<title>Node6</title>
<g id="a_node6"><a xlink:href="classServerManager.html#aecc313c9b6afcab92c22269b3333c721" target="_top" xlink:title=" ">
<polygon fill="white" stroke="black" points="0,-65.5 0,-84.5 102,-84.5 102,-65.5 0,-65.5"/>
<text text-anchor="middle" x="51" y="-72.5" font-family="Helvetica,sans-Serif" font-size="10.00">ServerManager::run</text>
</a>
</g>
</g>
<!-- Node5&#45;&gt;Node6 -->
<g id="edge5" class="edge">
<title>Node5&#45;&gt;Node6</title>
<path fill="none" stroke="midnightblue" d="M127.45,-86.57C118.82,-85.25 110.23,-83.93 102.11,-82.68"/>
<polygon fill="midnightblue" stroke="midnightblue" points="127.16,-90.07 137.58,-88.12 128.22,-83.15 127.16,-90.07"/>
</g>
<!-- Node7&#45;&gt;Node4 -->
<g id="edge8" class="edge">
<title>Node7&#45;&gt;Node4</title>
<path fill="none" stroke="midnightblue" d="M508.5,-141.77C481.16,-134.17 446.53,-124.55 421.25,-117.52"/>
<polygon fill="midnightblue" stroke="midnightblue" points="507.64,-145.16 518.21,-144.47 509.51,-138.42 507.64,-145.16"/>
</g>
<!-- Node7&#45;&gt;Node8 -->
<g id="edge7" class="edge">
<title>Node7&#45;&gt;Node8</title>
<path fill="none" stroke="midnightblue" d="M480.63,-157.47C472.14,-157.88 463.5,-158.3 455.07,-158.71"/>
<polygon fill="midnightblue" stroke="midnightblue" points="481.05,-160.96 490.87,-156.98 480.72,-153.97 481.05,-160.96"/>
</g>
<!-- Node11 -->
<g id="node11" class="node">
<title>Node11</title>
<g id="a_node11"><a xlink:href="classClient.html#a7ce261bf1858a7904f7bb9668188284b" target="_top" xlink:title=" ">
<polygon fill="white" stroke="black" points="1170,-91.5 1170,-110.5 1253,-110.5 1253,-91.5 1170,-91.5"/>
<text text-anchor="middle" x="1211.5" y="-98.5" font-family="Helvetica,sans-Serif" font-size="10.00">Client::startCgi</text>
</a>
</g>
</g>
<!-- Node10&#45;&gt;Node11 -->
<g id="edge11" class="edge">
<title>Node10&#45;&gt;Node11</title>
<path fill="none" stroke="midnightblue" d="M1291.92,-92.37C1278.88,-93.79 1265.32,-95.26 1253.19,-96.58"/>
<polygon fill="midnightblue" stroke="midnightblue" points="1292.67,-95.81 1302.23,-91.25 1291.91,-88.85 1292.67,-95.81"/>
</g>
<!-- Node12 -->
<g id="node12" class="node">
<title>Node12</title>
<g id="a_node12"><a xlink:href="classClient.html#ae523ed90bd32b88e539ebdf30746382b" target="_top" xlink:title=" ">
<polygon fill="white" stroke="black" points="1016,-105.5 1016,-124.5 1129,-124.5 1129,-105.5 1016,-105.5"/>
<text text-anchor="middle" x="1072.5" y="-112.5" font-family="Helvetica,sans-Serif" font-size="10.00">Client::dispatchAction</text>
</a>
</g>
</g>
<!-- Node11&#45;&gt;Node12 -->
<g id="edge12" class="edge">
<title>Node11&#45;&gt;Node12</title>
<path fill="none" stroke="midnightblue" d="M1159.61,-106.2C1149.65,-107.22 1139.15,-108.29 1129.04,-109.32"/>
<polygon fill="midnightblue" stroke="midnightblue" points="1160.17,-109.66 1169.77,-105.16 1159.46,-102.7 1160.17,-109.66"/>
</g>
<!-- Node12&#45;&gt;Node2 -->
<g id="edge13" class="edge">
<title>Node12&#45;&gt;Node2</title>
<path fill="none" stroke="midnightblue" d="M1022.26,-126.89C998.89,-132.53 971.34,-139.19 949.38,-144.49"/>
<polygon fill="midnightblue" stroke="midnightblue" points="1023.09,-130.29 1031.99,-124.54 1021.45,-123.49 1023.09,-130.29"/>
</g>
<!-- Node14 -->
<g id="node14" class="node">
<title>Node14</title>
<g id="a_node14"><a xlink:href="classServerManager.html#a9c75ea0bd268425c187ef25770eccbe8" target="_top" xlink:title=" ">
<polygon fill="white" stroke="black" points="843,-3 843,-33 975,-33 975,-3 843,-3"/>
<text text-anchor="start" x="851" y="-21" font-family="Helvetica,sans-Serif" font-size="10.00">ServerManager::handleCgi</text>
<text text-anchor="middle" x="909" y="-10" font-family="Helvetica,sans-Serif" font-size="10.00">PipeEvent</text>
</a>
</g>
</g>
<!-- Node13&#45;&gt;Node14 -->
<g id="edge16" class="edge">
<title>Node13&#45;&gt;Node14</title>
<path fill="none" stroke="midnightblue" d="M1285.5,-11.18C1202.23,-12.69 1058.69,-15.3 975.28,-16.81"/>
<polygon fill="midnightblue" stroke="midnightblue" points="1285.67,-14.68 1295.6,-11 1285.54,-7.68 1285.67,-14.68"/>
</g>
<!-- Node14&#45;&gt;Node6 -->
<g id="edge17" class="edge">
<title>Node14&#45;&gt;Node6</title>
<path fill="none" stroke="midnightblue" d="M832.64,-24.4C761.11,-29.92 650.57,-37 554.5,-37 554.5,-37 554.5,-37 385,-37 284.04,-37 166.98,-54.45 102.01,-65.7"/>
<polygon fill="midnightblue" stroke="midnightblue" points="833.21,-27.87 842.9,-23.6 832.66,-20.89 833.21,-27.87"/>
</g>
<!-- Node15&#45;&gt;Node4 -->
<g id="edge20" class="edge">
<title>Node15&#45;&gt;Node4</title>
<path fill="none" stroke="midnightblue" d="M1000.63,-63.18C861.52,-73.34 555.89,-95.66 436.33,-104.4"/>
<polygon fill="midnightblue" stroke="midnightblue" points="1001.04,-66.66 1010.76,-62.44 1000.53,-59.68 1001.04,-66.66"/>
</g>
</g>
</svg>
        <g id="navigator" transform="translate(0 0)" fill="#404254">
                <rect fill="#f2f5e9" fill-opacity="0.5" stroke="#606060" stroke-width=".5" x="0" y="0" width="60" height="60"/>
                <use id="zoomplus" xlink:href="#zoomPlus" x="17" y="9" onmousedown="handleZoom(evt,'in')"/>
                <use id="zoomminus" xlink:href="#zoomMin" x="42" y="9" onmousedown="handleZoom(evt,'out')"/>
                <use id="reset" xlink:href="#resetDef" x="30" y="36" onmousedown="handleReset()"/>
                <g id="arrowUp" xlink:href="#dirArrow" transform="translate(30 24)" onmousedown="handlePan(0,-1)">
                  <use xlink:href="#rim" fill="#404040">
                        <set attributeName="fill" to="#808080" begin="arrowUp.mouseover" end="arrowUp.mouseout"/>
                  </use>
                  <path fill="none" stroke="white" stroke-width="1.5" d="M0,-3.0v7 M-2.5,-0.5L0,-3.0L2.5,-0.5"/>
                </g>
                <g id="arrowRight" xlink:href="#dirArrow" transform="rotate(90) translate(36 -43)" onmousedown="handlePan(1,0)">
                  <use xlink:href="#rim" fill="#404040">
                        <set attributeName="fill" to="#808080" begin="arrowRight.mouseover" end="arrowRight.mouseout"/>
                  </use>
                  <path fill="none" stroke="white" stroke-width="1.5" d="M0,-3.0v7 M-2.5,-0.5L0,-3.0L2.5,-0.5"/>
                </g>
                <g id="arrowDown" xlink:href="#dirArrow" transform="rotate(180) translate(-30 -48)" onmousedown="handlePan(0,1)">
                  <use xlink:href="#rim" fill="#404040">
                        <set attributeName="fill" to="#808080" begin="arrowDown.mouseover" end="arrowDown.mouseout"/>
                  </use>
                  <path fill="none" stroke="white" stroke-width="1.5" d="M0,-3.0v7 M-2.5,-0.5L0,-3.0L2.5,-0.5"/>
                </g>
                <g id="arrowLeft" xlink:href="#dirArrow" transform="rotate(270) translate(-36 17)" onmousedown="handlePan(-1,0)">
                  <use xlink:href="#rim" fill="#404040">
                        <set attributeName="fill" to="#808080" begin="arrowLeft.mouseover" end="arrowLeft.mouseout"/>
                  </use>
                  <path fill="none" stroke="white" stroke-width="1.5" d="M0,-3.0v7 M-2.5,-0.5L0,-3.0L2.5,-0.5"/>
                </g>
        </g>
        <svg viewBox="0 0 15 15" width="100%" height="30px" preserveAspectRatio="xMaxYMin meet">
         <g id="arrow_out" transform="scale(0.3 0.3)">
          <a xlink:href="classHttpParser_ac152c0d7912d2e757516c3d8f1b9891b_icgraph_org.svg" target="_base">
           <rect id="button" ry="5" rx="5" y="6" x="6" height="38" width="38"
                fill="#f2f5e9" fill-opacity="0.5" stroke="#606060" stroke-width="1.0"/>
           <path id="arrow"
             d="M 11.500037,31.436501 C 11.940474,20.09759 22.043105,11.32322 32.158766,21.979434 L 37.068811,17.246167 C 37.068811,17.246167 37.088388,32 37.088388,32 L 22.160133,31.978069 C 22.160133,31.978069 26.997745,27.140456 26.997745,27.140456 C 18.528582,18.264221 13.291696,25.230495 11.500037,31.436501 z"
             style="fill:#404040;"/>
          </a>
         </g>
        </svg>
</svg>
