<?xml version="1.0" encoding="UTF-8" standalone="no"?>
<!DOCTYPE svg PUBLIC "-//W3C//DTD SVG 1.1//EN"
 "http://www.w3.org/Graphics/SVG/1.1/DTD/svg11.dtd">
<!-- Generated by graphviz version 2.43.0 (0)
 -->
<!-- Title: ServerManager::handleCgiPipeEvent Pages: 1 -->
<!--zoomable 747 -->
<svg id="main" version="1.1" xmlns="http://www.w3.org/2000/svg" xmlns:xlink="http://www.w3.org/1999/xlink" xml:space="preserve" onload="init(evt)">
<style type="text/css"><![CDATA[
.edge:hover path { stroke: red; }
.edge:hover polygon { stroke: red; fill: red; }
]]></style>
<script type="text/javascript"><![CDATA[
var edges = document.getElementsByTagName('g');
if (edges && edges.length) {
  for (var i=0;i<edges.length;i++) {
    if (edges[i].id.substr(0,4)=='edge') {
      edges[i].setAttribute('class','edge');
    }
  }
}
]]></script>
        <defs>
                <circle id="rim" cx="0" cy="0" r="7"/>
                <circle id="rim2" cx="0" cy="0" r="3.5"/>
                <g id="zoomPlus">
                        <use xlink:href="#rim" fill="#404040">
                                <set attributeName="fill" to="#808080" begin="zoomplus.mouseover" end="zoomplus.mouseout"/>
                        </use>
                        <path d="M-4,0h8M0,-4v8" fill="none" stroke="white" stroke-width="1.5" pointer-events="none"/>
                </g>
                <g id="zoomMin">
                        <use xlink:href="#rim" fill="#404040">
                                <set attributeName="fill" to="#808080" begin="zoomminus.mouseover" end="zoomminus.mouseout"/>
                        </use>
                        <path d="M-4,0h8" fill="none" stroke="white" stroke-width="1.5" pointer-events="none"/>
                </g>
                <g id="dirArrow">
                        <path fill="none" stroke="white" stroke-width="1.5" d="M0,-3.0v7 M-2.5,-0.5L0,-3.0L2.5,-0.5"/>
                </g>
               <g id="resetDef">
                       <use xlink:href="#rim2" fill="#404040">
                               <set attributeName="fill" to="#808080" begin="reset.mouseover" end="reset.mouseout"/>
                       </use>
               </g>
        </defs>

<script type="text/javascript">
var viewWidth = 1201;
var viewHeight = 747;
var sectionId = 'dynsection-5';
</script>
<script xlink:href="svgpan.js"/>
<svg id="graph" class="graph">
<g id="viewport">
<title>ServerManager::handleCgiPipeEvent</title>
<polygon fill="white" stroke="transparent" points="-4,4 -4,-743 1197,-743 1197,4 -4,4"/>
<!-- Node1 -->
<g id="node1" class="node">
<title>Node1</title>
<g id="a_node1"><a xlink:title=" ">
<polygon fill="#bfbfbf" stroke="black" points="0,-368 0,-398 132,-398 132,-368 0,-368"/>
<text text-anchor="start" x="8" y="-386" font-family="Helvetica,sans-Serif" font-size="10.00">ServerManager::handleCgi</text>
<text text-anchor="middle" x="66" y="-375" font-family="Helvetica,sans-Serif" font-size="10.00">PipeEvent</text>
</a>
</g>
</g>
<!-- Node2 -->
<g id="node2" class="node">
<title>Node2</title>
<g id="a_node2"><a xlink:href="classClient.html#af49b65f16ec709c6421a67107aadbd6e" target="_top" xlink:title=" ">
<polygon fill="white" stroke="black" points="203,-411.5 203,-430.5 276,-430.5 276,-411.5 203,-411.5"/>
<text text-anchor="middle" x="239.5" y="-418.5" font-family="Helvetica,sans-Serif" font-size="10.00">Client::getFd</text>
</a>
</g>
</g>
<!-- Node1&#45;&gt;Node2 -->
<g id="edge1" class="edge">
<title>Node1&#45;&gt;Node2</title>
<path fill="none" stroke="midnightblue" d="M132.33,-397.47C152.45,-401.93 174.17,-406.75 192.69,-410.85"/>
<polygon fill="midnightblue" stroke="midnightblue" points="192.1,-414.3 202.62,-413.05 193.62,-407.47 192.1,-414.3"/>
</g>
<!-- Node3 -->
<g id="node3" class="node">
<title>Node3</title>
<g id="a_node3"><a xlink:href="classClient.html#a4104efd3f5f7e1c0f3e3302b46861624" target="_top" xlink:title=" ">
<polygon fill="white" stroke="black" points="184,-373.5 184,-392.5 295,-392.5 295,-373.5 184,-373.5"/>
<text text-anchor="middle" x="239.5" y="-380.5" font-family="Helvetica,sans-Serif" font-size="10.00">Client::handleCgiPipe</text>
</a>
</g>
</g>
<!-- Node1&#45;&gt;Node3 -->
<g id="edge2" class="edge">
<title>Node1&#45;&gt;Node3</title>
<path fill="none" stroke="midnightblue" d="M132.33,-383C145.9,-383 160.21,-383 173.76,-383"/>
<polygon fill="midnightblue" stroke="midnightblue" points="173.96,-386.5 183.96,-383 173.96,-379.5 173.96,-386.5"/>
</g>
<!-- Node45 -->
<g id="node45" class="node">
<title>Node45</title>
<g id="a_node45"><a xlink:href="classServerManager.html#a8f841c3a98b9b1b2fd9e43320b2d924d" target="_top" xlink:title=" ">
<polygon fill="white" stroke="black" points="168,-33 168,-63 311,-63 311,-33 168,-33"/>
<text text-anchor="start" x="176" y="-51" font-family="Helvetica,sans-Serif" font-size="10.00">ServerManager::updateClient</text>
<text text-anchor="middle" x="239.5" y="-40" font-family="Helvetica,sans-Serif" font-size="10.00">Events</text>
</a>
</g>
</g>
<!-- Node1&#45;&gt;Node45 -->
<g id="edge52" class="edge">
<title>Node1&#45;&gt;Node45</title>
<path fill="none" stroke="midnightblue" d="M74.81,-367.74C101.99,-314.65 192.53,-137.79 225.96,-72.5"/>
<polygon fill="midnightblue" stroke="midnightblue" points="229.2,-73.85 230.64,-63.35 222.97,-70.66 229.2,-73.85"/>
</g>
<!-- Node4 -->
<g id="node4" class="node">
<title>Node4</title>
<g id="a_node4"><a xlink:href="classCgiProcess.html#ad8787ed1a27face64263e4472da6c22f" target="_top" xlink:title=" ">
<polygon fill="white" stroke="black" points="353,-469 353,-499 511,-499 511,-469 353,-469"/>
<text text-anchor="start" x="361" y="-487" font-family="Helvetica,sans-Serif" font-size="10.00">CgiProcess::advanceBodyBytes</text>
<text text-anchor="middle" x="432" y="-476" font-family="Helvetica,sans-Serif" font-size="10.00">Written</text>
</a>
</g>
</g>
<!-- Node3&#45;&gt;Node4 -->
<g id="edge3" class="edge">
<title>Node3&#45;&gt;Node4</title>
<path fill="none" stroke="midnightblue" d="M293.35,-392.51C299.64,-394.98 305.69,-398.09 311,-402 335.12,-419.78 323.12,-440.91 347,-459 349.47,-460.87 352.07,-462.6 354.78,-464.2"/>
<polygon fill="midnightblue" stroke="midnightblue" points="353.24,-467.34 363.72,-468.89 356.49,-461.14 353.24,-467.34"/>
</g>
<!-- Node5 -->
<g id="node5" class="node">
<title>Node5</title>
<g id="a_node5"><a xlink:href="classCgiProcess.html#a4bbe5516678af6ae632bdd1ae4c61300" target="_top" xlink:title=" ">
<polygon fill="white" stroke="black" points="347,-430.5 347,-449.5 517,-449.5 517,-430.5 347,-430.5"/>
<text text-anchor="middle" x="432" y="-437.5" font-family="Helvetica,sans-Serif" font-size="10.00">CgiProcess::appendResponseData</text>
</a>
</g>
</g>
<!-- Node3&#45;&gt;Node5 -->
<g id="edge4" class="edge">
<title>Node3&#45;&gt;Node5</title>
<path fill="none" stroke="midnightblue" d="M278.77,-392.51C289.29,-395.34 300.64,-398.6 311,-402 327.31,-407.35 330.73,-410.52 347,-416 359.25,-420.12 372.65,-424.16 385.08,-427.71"/>
<polygon fill="midnightblue" stroke="midnightblue" points="384.23,-431.11 394.8,-430.45 386.13,-424.37 384.23,-431.11"/>
</g>
<!-- Node7 -->
<g id="node7" class="node">
<title>Node7</title>
<g id="a_node7"><a xlink:href="ErrorUtils_8cpp.html#a470416220aa911b8f1274140a8322e7a" target="_top" xlink:title=" ">
<polygon fill="white" stroke="black" points="381,-354.5 381,-373.5 483,-373.5 483,-354.5 381,-354.5"/>
<text text-anchor="middle" x="432" y="-361.5" font-family="Helvetica,sans-Serif" font-size="10.00">buildErrorResponse</text>
</a>
</g>
</g>
<!-- Node3&#45;&gt;Node7 -->
<g id="edge6" class="edge">
<title>Node3&#45;&gt;Node7</title>
<path fill="none" stroke="midnightblue" d="M295.09,-377.56C318.76,-375.19 346.54,-372.42 370.81,-370"/>
<polygon fill="midnightblue" stroke="midnightblue" points="371.36,-373.47 380.97,-368.99 370.67,-366.5 371.36,-373.47"/>
</g>
<!-- Node29 -->
<g id="node29" class="node">
<title>Node29</title>
<g id="a_node29"><a xlink:href="classHttpResponse.html#aec25ec31bb3c0a22af07fe82b0a35a79" target="_top" xlink:title=" ">
<polygon fill="white" stroke="black" points="573,-468.5 573,-487.5 680,-487.5 680,-468.5 573,-468.5"/>
<text text-anchor="middle" x="626.5" y="-475.5" font-family="Helvetica,sans-Serif" font-size="10.00">HttpResponse::clear</text>
</a>
</g>
</g>
<!-- Node3&#45;&gt;Node29 -->
<g id="edge34" class="edge">
<title>Node3&#45;&gt;Node29</title>
<path fill="none" stroke="midnightblue" d="M295.29,-386.23C364.58,-391.05 479.39,-401.68 517,-421 537.69,-431.63 532.98,-447.15 553,-459 556.65,-461.16 560.55,-463.08 564.58,-464.79"/>
<polygon fill="midnightblue" stroke="midnightblue" points="563.54,-468.14 574.13,-468.38 566.01,-461.58 563.54,-468.14"/>
</g>
<!-- Node30 -->
<g id="node30" class="node">
<title>Node30</title>
<g id="a_node30"><a xlink:href="classCgiProcess.html#add9aed231ffcbe29556d82f6e5c0b097" target="_top" xlink:title=" ">
<polygon fill="white" stroke="black" points="369.5,-278.5 369.5,-297.5 494.5,-297.5 494.5,-278.5 369.5,-278.5"/>
<text text-anchor="middle" x="432" y="-285.5" font-family="Helvetica,sans-Serif" font-size="10.00">CgiProcess::closePipeIn</text>
</a>
</g>
</g>
<!-- Node3&#45;&gt;Node30 -->
<g id="edge36" class="edge">
<title>Node3&#45;&gt;Node30</title>
<path fill="none" stroke="midnightblue" d="M250.8,-373.46C268.86,-357.26 308.03,-324.46 347,-307 352.64,-304.47 358.65,-302.27 364.76,-300.34"/>
<polygon fill="midnightblue" stroke="midnightblue" points="365.78,-303.69 374.42,-297.55 363.84,-296.97 365.78,-303.69"/>
</g>
<!-- Node31 -->
<g id="node31" class="node">
<title>Node31</title>
<g id="a_node31"><a xlink:href="classCgiProcess.html#a496d052cdbc077e1b3e5877272180204" target="_top" xlink:title=" ">
<polygon fill="white" stroke="black" points="366,-240.5 366,-259.5 498,-259.5 498,-240.5 366,-240.5"/>
<text text-anchor="middle" x="432" y="-247.5" font-family="Helvetica,sans-Serif" font-size="10.00">CgiProcess::closePipeOut</text>
</a>
</g>
</g>
<!-- Node3&#45;&gt;Node31 -->
<g id="edge37" class="edge">
<title>Node3&#45;&gt;Node31</title>
<path fill="none" stroke="midnightblue" d="M246.6,-373.23C261.06,-350.92 299.78,-296.09 347,-269 350.9,-266.76 355.04,-264.79 359.31,-263.05"/>
<polygon fill="midnightblue" stroke="midnightblue" points="360.63,-266.29 368.84,-259.6 358.24,-259.71 360.63,-266.29"/>
</g>
<!-- Node32 -->
<g id="node32" class="node">
<title>Node32</title>
<g id="a_node32"><a xlink:href="classClient.html#a464a0e4f76c7943eadf2f7f4ae28b1c6" target="_top" xlink:title=" ">
<polygon fill="white" stroke="black" points="367.5,-202.5 367.5,-221.5 496.5,-221.5 496.5,-202.5 367.5,-202.5"/>
<text text-anchor="middle" x="432" y="-209.5" font-family="Helvetica,sans-Serif" font-size="10.00">Client::enqueueResponse</text>
</a>
</g>
</g>
<!-- Node3&#45;&gt;Node32 -->
<g id="edge38" class="edge">
<title>Node3&#45;&gt;Node32</title>
<path fill="none" stroke="midnightblue" d="M244.3,-373.31C255.48,-346.09 291.08,-268.53 347,-231 350.49,-228.66 354.23,-226.6 358.12,-224.79"/>
<polygon fill="midnightblue" stroke="midnightblue" points="359.47,-228.02 367.42,-221.02 356.84,-221.54 359.47,-228.02"/>
</g>
<!-- Node33 -->
<g id="node33" class="node">
<title>Node33</title>
<g id="a_node33"><a xlink:href="classClient.html#af2df05b97f1360f75889756b338a2bba" target="_top" xlink:title=" ">
<polygon fill="white" stroke="black" points="363,-164.5 363,-183.5 501,-183.5 501,-164.5 363,-164.5"/>
<text text-anchor="middle" x="432" y="-171.5" font-family="Helvetica,sans-Serif" font-size="10.00">Client::finalizeCgiResponse</text>
</a>
</g>
</g>
<!-- Node3&#45;&gt;Node33 -->
<g id="edge39" class="edge">
<title>Node3&#45;&gt;Node33</title>
<path fill="none" stroke="midnightblue" d="M242.92,-373.24C251.3,-341.65 282.15,-241.4 347,-193 349.5,-191.14 352.14,-189.45 354.9,-187.93"/>
<polygon fill="midnightblue" stroke="midnightblue" points="356.49,-191.04 364.01,-183.59 353.48,-184.72 356.49,-191.04"/>
</g>
<!-- Node34 -->
<g id="node34" class="node">
<title>Node34</title>
<g id="a_node34"><a xlink:href="classCgiProcess.html#ace8c6a9a364ab916ddd6e0606d4b7473" target="_top" xlink:title=" ">
<polygon fill="white" stroke="black" points="364.5,-115 364.5,-145 499.5,-145 499.5,-115 364.5,-115"/>
<text text-anchor="start" x="372.5" y="-133" font-family="Helvetica,sans-Serif" font-size="10.00">CgiProcess::getBodyBytes</text>
<text text-anchor="middle" x="432" y="-122" font-family="Helvetica,sans-Serif" font-size="10.00">Written</text>
</a>
</g>
</g>
<!-- Node3&#45;&gt;Node34 -->
<g id="edge40" class="edge">
<title>Node3&#45;&gt;Node34</title>
<path fill="none" stroke="midnightblue" d="M242.16,-373.05C248.6,-337.69 275.2,-216.91 347,-155 349.67,-152.69 352.55,-150.6 355.58,-148.7"/>
<polygon fill="midnightblue" stroke="midnightblue" points="357.36,-151.72 364.44,-143.84 353.99,-145.58 357.36,-151.72"/>
</g>
<!-- Node35 -->
<g id="node35" class="node">
<title>Node35</title>
<g id="a_node35"><a xlink:href="classCgiProcess.html#a9716e52b70fda0486a075305bfae19a6" target="_top" xlink:title=" ">
<polygon fill="white" stroke="black" points="374.5,-76.5 374.5,-95.5 489.5,-95.5 489.5,-76.5 374.5,-76.5"/>
<text text-anchor="middle" x="432" y="-83.5" font-family="Helvetica,sans-Serif" font-size="10.00">CgiProcess::getPipeIn</text>
</a>
</g>
</g>
<!-- Node3&#45;&gt;Node35 -->
<g id="edge41" class="edge">
<title>Node3&#45;&gt;Node35</title>
<path fill="none" stroke="midnightblue" d="M241.07,-373.3C243.95,-333.32 260.46,-179.94 347,-105 352.16,-100.53 358.16,-97.05 364.53,-94.35"/>
<polygon fill="midnightblue" stroke="midnightblue" points="365.84,-97.59 374.07,-90.92 363.47,-91.01 365.84,-97.59"/>
</g>
<!-- Node36 -->
<g id="node36" class="node">
<title>Node36</title>
<g id="a_node36"><a xlink:href="classCgiProcess.html#ad9430b4680f7ad7316f6df7710e06b3f" target="_top" xlink:title=" ">
<polygon fill="white" stroke="black" points="371,-719.5 371,-738.5 493,-738.5 493,-719.5 371,-719.5"/>
<text text-anchor="middle" x="432" y="-726.5" font-family="Helvetica,sans-Serif" font-size="10.00">CgiProcess::getPipeOut</text>
</a>
</g>
</g>
<!-- Node3&#45;&gt;Node36 -->
<g id="edge42" class="edge">
<title>Node3&#45;&gt;Node36</title>
<path fill="none" stroke="midnightblue" d="M295.25,-390.46C301.23,-393.26 306.69,-397.01 311,-402 401.04,-506.34 254.85,-607.52 347,-710 351.1,-714.56 356.04,-718.14 361.45,-720.95"/>
<polygon fill="midnightblue" stroke="midnightblue" points="360.35,-724.29 370.92,-724.98 363.09,-717.85 360.35,-724.29"/>
</g>
<!-- Node37 -->
<g id="node37" class="node">
<title>Node37</title>
<g id="a_node37"><a xlink:href="classHttpParser.html#ac152c0d7912d2e757516c3d8f1b9891b" target="_top" xlink:title=" ">
<polygon fill="white" stroke="black" points="372,-681.5 372,-700.5 492,-700.5 492,-681.5 372,-681.5"/>
<text text-anchor="middle" x="432" y="-688.5" font-family="Helvetica,sans-Serif" font-size="10.00">HttpParser::getRequest</text>
</a>
</g>
</g>
<!-- Node3&#45;&gt;Node37 -->
<g id="edge43" class="edge">
<title>Node3&#45;&gt;Node37</title>
<path fill="none" stroke="midnightblue" d="M295.17,-390.53C301.16,-393.32 306.65,-397.04 311,-402 390.83,-493.01 265.33,-582.64 347,-672 351.37,-676.78 356.66,-680.49 362.45,-683.35"/>
<polygon fill="midnightblue" stroke="midnightblue" points="361.29,-686.65 371.87,-687.17 363.92,-680.17 361.29,-686.65"/>
</g>
<!-- Node38 -->
<g id="node38" class="node">
<title>Node38</title>
<g id="a_node38"><a xlink:href="classCgiProcess.html#a12b2ec677191b5ccb20dc90a903b2b11" target="_top" xlink:title=" ">
<polygon fill="white" stroke="black" points="359,-643.5 359,-662.5 505,-662.5 505,-643.5 359,-643.5"/>
<text text-anchor="middle" x="432" y="-650.5" font-family="Helvetica,sans-Serif" font-size="10.00">CgiProcess::getRequestBody</text>
</a>
</g>
</g>
<!-- Node3&#45;&gt;Node38 -->
<g id="edge44" class="edge">
<title>Node3&#45;&gt;Node38</title>
<path fill="none" stroke="midnightblue" d="M295.07,-390.62C301.08,-393.39 306.6,-397.09 311,-402 380.64,-479.7 275.79,-557.73 347,-634 348.08,-635.16 349.22,-636.26 350.41,-637.3"/>
<polygon fill="midnightblue" stroke="midnightblue" points="348.7,-640.37 358.88,-643.3 352.74,-634.66 348.7,-640.37"/>
</g>
<!-- Node39 -->
<g id="node39" class="node">
<title>Node39</title>
<g id="a_node39"><a xlink:href="classCgiProcess.html#a8d87400f66506ca7262e6c8a8ae6d8b0" target="_top" xlink:title=" ">
<polygon fill="white" stroke="black" points="351.5,-605.5 351.5,-624.5 512.5,-624.5 512.5,-605.5 351.5,-605.5"/>
<text text-anchor="middle" x="432" y="-612.5" font-family="Helvetica,sans-Serif" font-size="10.00">CgiProcess::isRequestBodySent</text>
</a>
</g>
</g>
<!-- Node3&#45;&gt;Node39 -->
<g id="edge45" class="edge">
<title>Node3&#45;&gt;Node39</title>
<path fill="none" stroke="midnightblue" d="M295.28,-390.9C301.18,-393.64 306.61,-397.25 311,-402 370.49,-466.43 286.21,-532.79 347,-596 348.25,-597.3 349.56,-598.51 350.94,-599.65"/>
<polygon fill="midnightblue" stroke="midnightblue" points="349.15,-602.67 359.39,-605.4 353.09,-596.89 349.15,-602.67"/>
</g>
<!-- Node40 -->
<g id="node40" class="node">
<title>Node40</title>
<g id="a_node40"><a xlink:href="classHttpResponse.html#a70c126b617eb978c76afaf29ea4f0cd4" target="_top" xlink:title=" ">
<polygon fill="white" stroke="black" points="371,-316.5 371,-335.5 493,-335.5 493,-316.5 371,-316.5"/>
<text text-anchor="middle" x="432" y="-323.5" font-family="Helvetica,sans-Serif" font-size="10.00">HttpResponse::serialize</text>
</a>
</g>
</g>
<!-- Node3&#45;&gt;Node40 -->
<g id="edge46" class="edge">
<title>Node3&#45;&gt;Node40</title>
<path fill="none" stroke="midnightblue" d="M264.76,-373.4C286.17,-365.16 318.34,-353.32 347,-345 355.75,-342.46 365.1,-340.05 374.26,-337.86"/>
<polygon fill="midnightblue" stroke="midnightblue" points="375.15,-341.24 384.09,-335.56 373.56,-334.43 375.15,-341.24"/>
</g>
<!-- Node42 -->
<g id="node42" class="node">
<title>Node42</title>
<g id="a_node42"><a xlink:href="classCgiProcess.html#a8d41414d3d54ae98dff14aaa78a3a2fc" target="_top" xlink:title=" ">
<polygon fill="white" stroke="black" points="357,-567.5 357,-586.5 507,-586.5 507,-567.5 357,-567.5"/>
<text text-anchor="middle" x="432" y="-574.5" font-family="Helvetica,sans-Serif" font-size="10.00">CgiProcess::terminateProcess</text>
</a>
</g>
</g>
<!-- Node3&#45;&gt;Node42 -->
<g id="edge49" class="edge">
<title>Node3&#45;&gt;Node42</title>
<path fill="none" stroke="midnightblue" d="M295.08,-391.09C301.01,-393.8 306.51,-397.35 311,-402 360.12,-452.88 297.13,-506.85 347,-557 348.85,-558.86 350.84,-560.56 352.94,-562.11"/>
<polygon fill="midnightblue" stroke="midnightblue" points="351.19,-565.14 361.54,-567.39 354.85,-559.18 351.19,-565.14"/>
</g>
<!-- Node43 -->
<g id="node43" class="node">
<title>Node43</title>
<g id="a_node43"><a xlink:href="classServerManager.html#aa0099c81bdb4ab1dcca775720d31c920" target="_top" xlink:title=" ">
<polygon fill="white" stroke="black" points="366.5,-518 366.5,-548 497.5,-548 497.5,-518 366.5,-518"/>
<text text-anchor="start" x="374.5" y="-536" font-family="Helvetica,sans-Serif" font-size="10.00">ServerManager::unregister</text>
<text text-anchor="middle" x="432" y="-525" font-family="Helvetica,sans-Serif" font-size="10.00">CgiPipe</text>
</a>
</g>
</g>
<!-- Node3&#45;&gt;Node43 -->
<g id="edge50" class="edge">
<title>Node3&#45;&gt;Node43</title>
<path fill="none" stroke="midnightblue" d="M295,-391.69C300.87,-394.3 306.38,-397.66 311,-402 347.29,-436.03 311.15,-473.5 347,-508 350.14,-511.03 353.64,-513.69 357.37,-516.03"/>
<polygon fill="midnightblue" stroke="midnightblue" points="355.97,-519.25 366.43,-520.93 359.3,-513.1 355.97,-519.25"/>
</g>
<!-- Node6 -->
<g id="node6" class="node">
<title>Node6</title>
<g id="a_node6"><a xlink:href="classCgiProcess.html#a1d2b52da635cb0c01e0825ed6d97fe3a" target="_top" xlink:title=" ">
<polygon fill="white" stroke="black" points="553,-506.5 553,-525.5 700,-525.5 700,-506.5 553,-506.5"/>
<text text-anchor="middle" x="626.5" y="-513.5" font-family="Helvetica,sans-Serif" font-size="10.00">CgiProcess::tryParseHeaders</text>
</a>
</g>
</g>
<!-- Node5&#45;&gt;Node6 -->
<g id="edge5" class="edge">
<title>Node5&#45;&gt;Node6</title>
<path fill="none" stroke="midnightblue" d="M495.14,-449.64C502.77,-452.09 510.24,-455.15 517,-459 537.22,-470.51 532.98,-485.15 553,-497 556.65,-499.16 560.55,-501.08 564.58,-502.79"/>
<polygon fill="midnightblue" stroke="midnightblue" points="563.54,-506.14 574.13,-506.38 566.01,-499.58 563.54,-506.14"/>
</g>
<!-- Node8 -->
<g id="node8" class="node">
<title>Node8</title>
<g id="a_node8"><a xlink:href="ResponseUtils_8cpp.html#ab7c2cb6fbf297c09ec402182b04584c6" target="_top" xlink:title=" ">
<polygon fill="white" stroke="black" points="580,-392.5 580,-411.5 673,-411.5 673,-392.5 580,-392.5"/>
<text text-anchor="middle" x="626.5" y="-399.5" font-family="Helvetica,sans-Serif" font-size="10.00">fillBaseResponse</text>
</a>
</g>
</g>
<!-- Node7&#45;&gt;Node8 -->
<g id="edge7" class="edge">
<title>Node7&#45;&gt;Node8</title>
<path fill="none" stroke="midnightblue" d="M481.58,-373.59C508.46,-378.9 541.98,-385.51 569.91,-391.03"/>
<polygon fill="midnightblue" stroke="midnightblue" points="569.43,-394.5 579.92,-393 570.79,-387.63 569.43,-394.5"/>
</g>
<!-- Node13 -->
<g id="node13" class="node">
<title>Node13</title>
<g id="a_node13"><a xlink:href="classHttpResponse.html#a7efa3ab17ead358609d80b55db164867" target="_top" xlink:title=" ">
<polygon fill="white" stroke="black" points="928,-240.5 928,-259.5 1059,-259.5 1059,-240.5 928,-240.5"/>
<text text-anchor="middle" x="993.5" y="-247.5" font-family="Helvetica,sans-Serif" font-size="10.00">HttpResponse::setHeader</text>
</a>
</g>
</g>
<!-- Node7&#45;&gt;Node13 -->
<g id="edge32" class="edge">
<title>Node7&#45;&gt;Node13</title>
<path fill="none" stroke="midnightblue" d="M481.18,-373.51C538.65,-382.04 635.09,-387.16 700,-342 731.01,-320.43 704.73,-286.2 736,-265 796.99,-223.63 886.1,-229.41 941.62,-238.72"/>
<polygon fill="midnightblue" stroke="midnightblue" points="941.12,-242.18 951.58,-240.48 942.35,-235.29 941.12,-242.18"/>
</g>
<!-- Node20 -->
<g id="node20" class="node">
<title>Node20</title>
<g id="a_node20"><a xlink:href="classHttpResponse.html#a11a67ba43096f5eb1870e65f1814d364" target="_top" xlink:title=" ">
<polygon fill="white" stroke="black" points="736,-202.5 736,-221.5 891,-221.5 891,-202.5 736,-202.5"/>
<text text-anchor="middle" x="813.5" y="-209.5" font-family="Helvetica,sans-Serif" font-size="10.00">HttpResponse::setContentType</text>
</a>
</g>
</g>
<!-- Node7&#45;&gt;Node20 -->
<g id="edge31" class="edge">
<title>Node7&#45;&gt;Node20</title>
<path fill="none" stroke="midnightblue" d="M483.23,-358.48C550.87,-350.19 666.62,-332.69 700,-307 728.04,-285.42 709,-258.87 736,-236 740.88,-231.87 746.47,-228.44 752.36,-225.61"/>
<polygon fill="midnightblue" stroke="midnightblue" points="753.95,-228.74 761.81,-221.62 751.23,-222.29 753.95,-228.74"/>
</g>
<!-- Node26 -->
<g id="node26" class="node">
<title>Node26</title>
<g id="a_node26"><a xlink:href="ErrorUtils_8cpp.html#aa759f2b84e51d20fdf7801c0514c3635" target="_top" xlink:title=" ">
<polygon fill="white" stroke="black" points="584.5,-278.5 584.5,-297.5 668.5,-297.5 668.5,-278.5 584.5,-278.5"/>
<text text-anchor="middle" x="626.5" y="-285.5" font-family="Helvetica,sans-Serif" font-size="10.00">readFileToBody</text>
</a>
</g>
</g>
<!-- Node7&#45;&gt;Node26 -->
<g id="edge29" class="edge">
<title>Node7&#45;&gt;Node26</title>
<path fill="none" stroke="midnightblue" d="M483.37,-357.06C494.83,-354.28 506.67,-350.41 517,-345 536.23,-334.93 534.28,-322.99 553,-312 560.4,-307.66 568.68,-303.98 576.94,-300.9"/>
<polygon fill="midnightblue" stroke="midnightblue" points="578.26,-304.15 586.56,-297.57 575.97,-297.54 578.26,-304.15"/>
</g>
<!-- Node27 -->
<g id="node27" class="node">
<title>Node27</title>
<g id="a_node27"><a xlink:href="RequestProcessorUtils_8cpp.html#aa9c12d87cb0781b781a580ff9bfd0c06" target="_top" xlink:title=" ">
<polygon fill="white" stroke="black" points="592.5,-240.5 592.5,-259.5 660.5,-259.5 660.5,-240.5 592.5,-240.5"/>
<text text-anchor="middle" x="626.5" y="-247.5" font-family="Helvetica,sans-Serif" font-size="10.00">resolvePath</text>
</a>
</g>
</g>
<!-- Node7&#45;&gt;Node27 -->
<g id="edge30" class="edge">
<title>Node7&#45;&gt;Node27</title>
<path fill="none" stroke="midnightblue" d="M483.4,-360.22C495.37,-357.37 507.43,-352.67 517,-345 546.17,-321.63 524.23,-292.86 553,-269 561.35,-262.08 571.95,-257.65 582.45,-254.82"/>
<polygon fill="midnightblue" stroke="midnightblue" points="583.42,-258.19 592.4,-252.58 581.88,-251.36 583.42,-258.19"/>
</g>
<!-- Node28 -->
<g id="node28" class="node">
<title>Node28</title>
<g id="a_node28"><a xlink:href="ResponseUtils_8cpp.html#a1c98cd4773c38cae6781a257fa318ca7" target="_top" xlink:title=" ">
<polygon fill="white" stroke="black" points="603,-430.5 603,-449.5 650,-449.5 650,-430.5 603,-430.5"/>
<text text-anchor="middle" x="626.5" y="-437.5" font-family="Helvetica,sans-Serif" font-size="10.00">toBody</text>
</a>
</g>
</g>
<!-- Node7&#45;&gt;Node28 -->
<g id="edge33" class="edge">
<title>Node7&#45;&gt;Node28</title>
<path fill="none" stroke="midnightblue" d="M480.75,-373.52C493.02,-377.06 505.88,-381.78 517,-388 535.94,-398.6 533.94,-410.61 553,-421 565.26,-427.68 579.98,-432.1 592.95,-434.98"/>
<polygon fill="midnightblue" stroke="midnightblue" points="592.39,-438.44 602.89,-436.97 593.77,-431.58 592.39,-438.44"/>
</g>
<!-- Node9 -->
<g id="node9" class="node">
<title>Node9</title>
<g id="a_node9"><a xlink:href="SessionUtils_8cpp.html#aabfd66406b8a4aec4237b26ff8e76a65" target="_top" xlink:title=" ">
<polygon fill="white" stroke="black" points="744.5,-506.5 744.5,-525.5 882.5,-525.5 882.5,-506.5 744.5,-506.5"/>
<text text-anchor="middle" x="813.5" y="-513.5" font-family="Helvetica,sans-Serif" font-size="10.00">addSessionCookieIfNeeded</text>
</a>
</g>
</g>
<!-- Node8&#45;&gt;Node9 -->
<g id="edge8" class="edge">
<title>Node8&#45;&gt;Node9</title>
<path fill="none" stroke="midnightblue" d="M673.33,-407.61C682.91,-410.45 692.39,-414.69 700,-421 728.77,-444.86 707.08,-473.33 736,-497 738.04,-498.67 740.2,-500.19 742.46,-501.59"/>
<polygon fill="midnightblue" stroke="midnightblue" points="741.1,-504.82 751.59,-506.34 744.33,-498.62 741.1,-504.82"/>
</g>
<!-- Node8&#45;&gt;Node13 -->
<g id="edge23" class="edge">
<title>Node8&#45;&gt;Node13</title>
<path fill="none" stroke="midnightblue" d="M673.3,-392.84C682.87,-389.36 692.36,-384.57 700,-378 726.82,-354.92 708.05,-328.69 736,-307 751.15,-295.24 857.16,-274.32 928.06,-261.36"/>
<polygon fill="midnightblue" stroke="midnightblue" points="929.04,-264.74 938.25,-259.51 927.79,-257.85 929.04,-264.74"/>
</g>
<!-- Node15 -->
<g id="node15" class="node">
<title>Node15</title>
<g id="a_node15"><a xlink:href="classHttpRequest.html#adf523a5345b525702a858f8792bab8ea" target="_top" xlink:title=" ">
<polygon fill="white" stroke="black" points="751.5,-544.5 751.5,-563.5 875.5,-563.5 875.5,-544.5 751.5,-544.5"/>
<text text-anchor="middle" x="813.5" y="-551.5" font-family="Helvetica,sans-Serif" font-size="10.00">HttpRequest::getMethod</text>
</a>
</g>
</g>
<!-- Node8&#45;&gt;Node15 -->
<g id="edge14" class="edge">
<title>Node8&#45;&gt;Node15</title>
<path fill="none" stroke="midnightblue" d="M673.25,-406.64C683.05,-409.51 692.65,-414 700,-421 738.49,-457.63 697.27,-498.62 736,-535 737.96,-536.84 740.08,-538.52 742.31,-540.04"/>
<polygon fill="midnightblue" stroke="midnightblue" points="740.97,-543.3 751.41,-545.15 744.4,-537.2 740.97,-543.3"/>
</g>
<!-- Node16 -->
<g id="node16" class="node">
<title>Node16</title>
<g id="a_node16"><a xlink:href="classHttpRequest.html#acde519e492e10352bc39d6a3bcd857b2" target="_top" xlink:title=" ">
<polygon fill="white" stroke="black" points="757.5,-468.5 757.5,-487.5 869.5,-487.5 869.5,-468.5 757.5,-468.5"/>
<text text-anchor="middle" x="813.5" y="-475.5" font-family="Helvetica,sans-Serif" font-size="10.00">HttpRequest::getPath</text>
</a>
</g>
</g>
<!-- Node8&#45;&gt;Node16 -->
<g id="edge15" class="edge">
<title>Node8&#45;&gt;Node16</title>
<path fill="none" stroke="midnightblue" d="M673.14,-409.83C682.42,-412.54 691.83,-416.16 700,-421 720.02,-432.85 715.9,-447.28 736,-459 739.72,-461.17 743.69,-463.1 747.78,-464.8"/>
<polygon fill="midnightblue" stroke="midnightblue" points="746.91,-468.21 757.5,-468.4 749.34,-461.65 746.91,-468.21"/>
</g>
<!-- Node17 -->
<g id="node17" class="node">
<title>Node17</title>
<g id="a_node17"><a xlink:href="classHttpRequest.html#ac2a5d18d42289a03b57215c98d8df41e" target="_top" xlink:title=" ">
<polygon fill="white" stroke="black" points="751,-430.5 751,-449.5 876,-449.5 876,-430.5 751,-430.5"/>
<text text-anchor="middle" x="813.5" y="-437.5" font-family="Helvetica,sans-Serif" font-size="10.00">HttpRequest::getVersion</text>
</a>
</g>
</g>
<!-- Node8&#45;&gt;Node17 -->
<g id="edge16" class="edge">
<title>Node8&#45;&gt;Node17</title>
<path fill="none" stroke="midnightblue" d="M673.23,-411.39C698.28,-416.54 729.54,-422.96 756.09,-428.41"/>
<polygon fill="midnightblue" stroke="midnightblue" points="755.51,-431.87 766.01,-430.45 756.92,-425.01 755.51,-431.87"/>
</g>
<!-- Node18 -->
<g id="node18" class="node">
<title>Node18</title>
<g id="a_node18"><a xlink:href="classHttpResponse.html#acba4d7264c5b05e63a199c87f8526473" target="_top" xlink:title=" ">
<polygon fill="white" stroke="black" points="927,-620.5 927,-639.5 1060,-639.5 1060,-620.5 927,-620.5"/>
<text text-anchor="middle" x="993.5" y="-627.5" font-family="Helvetica,sans-Serif" font-size="10.00">HttpResponse::hasHeader</text>
</a>
</g>
</g>
<!-- Node8&#45;&gt;Node18 -->
<g id="edge17" class="edge">
<title>Node8&#45;&gt;Node18</title>
<path fill="none" stroke="midnightblue" d="M673.28,-405.65C683.32,-408.53 693.02,-413.28 700,-421 768.84,-497.07 658.01,-582.36 736,-649 800.9,-704.46 911.92,-666.49 963.98,-643.7"/>
<polygon fill="midnightblue" stroke="midnightblue" points="965.6,-646.81 973.28,-639.52 962.72,-640.43 965.6,-646.81"/>
</g>
<!-- Node19 -->
<g id="node19" class="node">
<title>Node19</title>
<g id="a_node19"><a xlink:href="classHttpResponse.html#a884d07c418ba6145385d63e43bb1b29a" target="_top" xlink:title=" ">
<polygon fill="white" stroke="black" points="752.5,-392.5 752.5,-411.5 874.5,-411.5 874.5,-392.5 752.5,-392.5"/>
<text text-anchor="middle" x="813.5" y="-399.5" font-family="Helvetica,sans-Serif" font-size="10.00">HttpResponse::setBody</text>
</a>
</g>
</g>
<!-- Node8&#45;&gt;Node19 -->
<g id="edge19" class="edge">
<title>Node8&#45;&gt;Node19</title>
<path fill="none" stroke="midnightblue" d="M673.23,-402C694.02,-402 719.08,-402 742.18,-402"/>
<polygon fill="midnightblue" stroke="midnightblue" points="742.28,-405.5 752.28,-402 742.28,-398.5 742.28,-405.5"/>
</g>
<!-- Node8&#45;&gt;Node20 -->
<g id="edge20" class="edge">
<title>Node8&#45;&gt;Node20</title>
<path fill="none" stroke="midnightblue" d="M641.66,-392.32C657.34,-381.08 682.68,-361.35 700,-340 721.04,-314.05 714.61,-299.67 736,-274 751.32,-255.6 772.78,-238.78 789.07,-227.31"/>
<polygon fill="midnightblue" stroke="midnightblue" points="791.25,-230.06 797.52,-221.52 787.29,-224.29 791.25,-230.06"/>
</g>
<!-- Node21 -->
<g id="node21" class="node">
<title>Node21</title>
<g id="a_node21"><a xlink:href="classHttpResponse.html#ac982631ddcf451521e207ac0c2bd0108" target="_top" xlink:title=" ">
<polygon fill="white" stroke="black" points="742,-354.5 742,-373.5 885,-373.5 885,-354.5 742,-354.5"/>
<text text-anchor="middle" x="813.5" y="-361.5" font-family="Helvetica,sans-Serif" font-size="10.00">HttpResponse::setHeadOnly</text>
</a>
</g>
</g>
<!-- Node8&#45;&gt;Node21 -->
<g id="edge24" class="edge">
<title>Node8&#45;&gt;Node21</title>
<path fill="none" stroke="midnightblue" d="M673.23,-392.61C698.28,-387.46 729.54,-381.04 756.09,-375.59"/>
<polygon fill="midnightblue" stroke="midnightblue" points="756.92,-378.99 766.01,-373.55 755.51,-372.13 756.92,-378.99"/>
</g>
<!-- Node22 -->
<g id="node22" class="node">
<title>Node22</title>
<g id="a_node22"><a xlink:href="classHttpResponse.html#a610f8f887ca042f2b18ec395aaccc255" target="_top" xlink:title=" ">
<polygon fill="white" stroke="black" points="738,-582.5 738,-601.5 889,-601.5 889,-582.5 738,-582.5"/>
<text text-anchor="middle" x="813.5" y="-589.5" font-family="Helvetica,sans-Serif" font-size="10.00">HttpResponse::setStatusCode</text>
</a>
</g>
</g>
<!-- Node8&#45;&gt;Node22 -->
<g id="edge25" class="edge">
<title>Node8&#45;&gt;Node22</title>
<path fill="none" stroke="midnightblue" d="M673.25,-406.14C683.16,-409.02 692.82,-413.65 700,-421 748.5,-470.67 687.18,-523.64 736,-573 737.29,-574.3 738.66,-575.52 740.08,-576.66"/>
<polygon fill="midnightblue" stroke="midnightblue" points="738.58,-579.86 748.88,-582.37 742.39,-573.99 738.58,-579.86"/>
</g>
<!-- Node24 -->
<g id="node24" class="node">
<title>Node24</title>
<g id="a_node24"><a xlink:href="classHttpResponse.html#a407dc1ea3f01365d8105fadc0418bc79" target="_top" xlink:title=" ">
<polygon fill="white" stroke="black" points="747.5,-316.5 747.5,-335.5 879.5,-335.5 879.5,-316.5 747.5,-316.5"/>
<text text-anchor="middle" x="813.5" y="-323.5" font-family="Helvetica,sans-Serif" font-size="10.00">HttpResponse::setVersion</text>
</a>
</g>
</g>
<!-- Node8&#45;&gt;Node24 -->
<g id="edge27" class="edge">
<title>Node8&#45;&gt;Node24</title>
<path fill="none" stroke="midnightblue" d="M666.44,-392.43C677.69,-388.8 689.71,-384.04 700,-378 718.72,-367.01 716.88,-355.27 736,-345 740.3,-342.69 744.88,-340.66 749.58,-338.87"/>
<polygon fill="midnightblue" stroke="midnightblue" points="751.03,-342.08 759.36,-335.53 748.76,-335.45 751.03,-342.08"/>
</g>
<!-- Node25 -->
<g id="node25" class="node">
<title>Node25</title>
<g id="a_node25"><a xlink:href="ResponseUtils_8cpp.html#af8cce302648449aa6215ac211230ef75" target="_top" xlink:title=" ">
<polygon fill="white" stroke="black" points="771.5,-620.5 771.5,-639.5 855.5,-639.5 855.5,-620.5 771.5,-620.5"/>
<text text-anchor="middle" x="813.5" y="-627.5" font-family="Helvetica,sans-Serif" font-size="10.00">versionToString</text>
</a>
</g>
</g>
<!-- Node8&#45;&gt;Node25 -->
<g id="edge28" class="edge">
<title>Node8&#45;&gt;Node25</title>
<path fill="none" stroke="midnightblue" d="M673.11,-405.8C683.15,-408.68 692.9,-413.39 700,-421 758.64,-483.84 676.96,-548.54 736,-611 742.77,-618.16 751.78,-622.79 761.24,-625.76"/>
<polygon fill="midnightblue" stroke="midnightblue" points="760.63,-629.21 771.18,-628.28 762.35,-622.43 760.63,-629.21"/>
</g>
<!-- Node10 -->
<g id="node10" class="node">
<title>Node10</title>
<g id="a_node10"><a xlink:href="SessionUtils_8cpp.html#af915f0cd7984e5d06370014bb43c74b6" target="_top" xlink:title=" ">
<polygon fill="white" stroke="black" points="950,-468.5 950,-487.5 1037,-487.5 1037,-468.5 950,-468.5"/>
<text text-anchor="middle" x="993.5" y="-475.5" font-family="Helvetica,sans-Serif" font-size="10.00">createSessionId</text>
</a>
</g>
</g>
<!-- Node9&#45;&gt;Node10 -->
<g id="edge9" class="edge">
<title>Node9&#45;&gt;Node10</title>
<path fill="none" stroke="midnightblue" d="M859.42,-506.41C883.87,-501.19 914.27,-494.7 939.84,-489.24"/>
<polygon fill="midnightblue" stroke="midnightblue" points="940.7,-492.64 949.74,-487.13 939.23,-485.79 940.7,-492.64"/>
</g>
<!-- Node11 -->
<g id="node11" class="node">
<title>Node11</title>
<g id="a_node11"><a xlink:href="SessionUtils_8cpp.html#a655520ad6c85707c8e1aae50c1eda6c8" target="_top" xlink:title=" ">
<polygon fill="white" stroke="black" points="939.5,-544.5 939.5,-563.5 1047.5,-563.5 1047.5,-544.5 939.5,-544.5"/>
<text text-anchor="middle" x="993.5" y="-551.5" font-family="Helvetica,sans-Serif" font-size="10.00">extractIdFromCookie</text>
</a>
</g>
</g>
<!-- Node9&#45;&gt;Node11 -->
<g id="edge10" class="edge">
<title>Node9&#45;&gt;Node11</title>
<path fill="none" stroke="midnightblue" d="M859.42,-525.59C883.33,-530.69 912.92,-537.01 938.12,-542.39"/>
<polygon fill="midnightblue" stroke="midnightblue" points="937.4,-545.81 947.91,-544.48 938.86,-538.97 937.4,-545.81"/>
</g>
<!-- Node12 -->
<g id="node12" class="node">
<title>Node12</title>
<g id="a_node12"><a xlink:href="classHttpRequest.html#ab537cb11b054734695ee4889d88aec6d" target="_top" xlink:title="Obtiene un header específico de la petición.">
<polygon fill="white" stroke="black" points="932,-506.5 932,-525.5 1055,-525.5 1055,-506.5 932,-506.5"/>
<text text-anchor="middle" x="993.5" y="-513.5" font-family="Helvetica,sans-Serif" font-size="10.00">HttpRequest::getHeader</text>
</a>
</g>
</g>
<!-- Node9&#45;&gt;Node12 -->
<g id="edge11" class="edge">
<title>Node9&#45;&gt;Node12</title>
<path fill="none" stroke="midnightblue" d="M882.56,-516C895.33,-516 908.72,-516 921.59,-516"/>
<polygon fill="midnightblue" stroke="midnightblue" points="921.77,-519.5 931.77,-516 921.77,-512.5 921.77,-519.5"/>
</g>
<!-- Node9&#45;&gt;Node13 -->
<g id="edge12" class="edge">
<title>Node9&#45;&gt;Node13</title>
<path fill="none" stroke="midnightblue" d="M876,-506.41C881.43,-503.93 886.55,-500.85 891,-497 962.16,-435.57 984.27,-316.48 990.39,-269.62"/>
<polygon fill="midnightblue" stroke="midnightblue" points="993.88,-269.92 991.6,-259.58 986.93,-269.09 993.88,-269.92"/>
</g>
<!-- Node14 -->
<g id="node14" class="node">
<title>Node14</title>
<g id="a_node14"><a xlink:href="namespacehttp__header__utils.html#aa9b0e84aeed4203326a12eecbcd3f9e5" target="_top" xlink:title=" ">
<polygon fill="white" stroke="black" points="1096,-216 1096,-246 1193,-246 1193,-216 1096,-216"/>
<text text-anchor="start" x="1104" y="-234" font-family="Helvetica,sans-Serif" font-size="10.00">http_header_utils::</text>
<text text-anchor="middle" x="1144.5" y="-223" font-family="Helvetica,sans-Serif" font-size="10.00">toLowerCopy</text>
</a>
</g>
</g>
<!-- Node13&#45;&gt;Node14 -->
<g id="edge13" class="edge">
<title>Node13&#45;&gt;Node14</title>
<path fill="none" stroke="midnightblue" d="M1059.42,-241.72C1068.21,-240.6 1077.19,-239.46 1085.84,-238.35"/>
<polygon fill="midnightblue" stroke="midnightblue" points="1086.35,-241.82 1095.82,-237.08 1085.46,-234.87 1086.35,-241.82"/>
</g>
<!-- Node18&#45;&gt;Node14 -->
<g id="edge18" class="edge">
<title>Node18&#45;&gt;Node14</title>
<path fill="none" stroke="midnightblue" d="M1010.22,-620.47C1025.28,-610.5 1047.53,-593.47 1060,-573 1124.2,-467.59 1139.07,-315.68 1142.49,-256.22"/>
<polygon fill="midnightblue" stroke="midnightblue" points="1145.99,-256.39 1143,-246.22 1139,-256.03 1145.99,-256.39"/>
</g>
<!-- Node20&#45;&gt;Node13 -->
<g id="edge21" class="edge">
<title>Node20&#45;&gt;Node13</title>
<path fill="none" stroke="midnightblue" d="M859.42,-221.59C883.33,-226.69 912.92,-233.01 938.12,-238.39"/>
<polygon fill="midnightblue" stroke="midnightblue" points="937.4,-241.81 947.91,-240.48 938.86,-234.97 937.4,-241.81"/>
</g>
<!-- Node20&#45;&gt;Node14 -->
<g id="edge22" class="edge">
<title>Node20&#45;&gt;Node14</title>
<path fill="none" stroke="midnightblue" d="M891.22,-216.43C950.62,-219.86 1031.62,-224.54 1085.64,-227.66"/>
<polygon fill="midnightblue" stroke="midnightblue" points="1085.55,-231.16 1095.74,-228.24 1085.96,-224.17 1085.55,-231.16"/>
</g>
<!-- Node23 -->
<g id="node23" class="node">
<title>Node23</title>
<g id="a_node23"><a xlink:href="HttpResponse_8cpp.html#aadc8fd8bbc80a1b3551ea1357e04f07b" target="_top" xlink:title=" ">
<polygon fill="white" stroke="black" points="934,-677.5 934,-696.5 1053,-696.5 1053,-677.5 934,-677.5"/>
<text text-anchor="middle" x="993.5" y="-684.5" font-family="Helvetica,sans-Serif" font-size="10.00">reasonPhraseForStatus</text>
</a>
</g>
</g>
<!-- Node22&#45;&gt;Node23 -->
<g id="edge26" class="edge">
<title>Node22&#45;&gt;Node23</title>
<path fill="none" stroke="midnightblue" d="M869.5,-601.6C877,-604.06 884.38,-607.14 891,-611 911.1,-622.72 908.75,-634.57 927,-649 938.23,-657.88 951.76,-666.08 963.59,-672.57"/>
<polygon fill="midnightblue" stroke="midnightblue" points="962.18,-675.78 972.65,-677.39 965.47,-669.61 962.18,-675.78"/>
</g>
<!-- Node29&#45;&gt;Node23 -->
<g id="edge35" class="edge">
<title>Node29&#45;&gt;Node23</title>
<path fill="none" stroke="midnightblue" d="M680.16,-484.2C687.61,-487.1 694.57,-491.21 700,-497 757.3,-558.1 671.88,-628.1 736,-682 797.62,-733.8 900.1,-714.95 955.01,-699.39"/>
<polygon fill="midnightblue" stroke="midnightblue" points="956.09,-702.72 964.7,-696.54 954.11,-696 956.09,-702.72"/>
</g>
<!-- Node40&#45;&gt;Node14 -->
<g id="edge47" class="edge">
<title>Node40&#45;&gt;Node14</title>
<path fill="none" stroke="midnightblue" d="M493.28,-320.47C502,-317.49 510.29,-313.17 517,-307 556.1,-271.03 510.14,-224.41 553,-193 722.34,-68.89 997.64,-167.16 1101.8,-211.84"/>
<polygon fill="midnightblue" stroke="midnightblue" points="1100.48,-215.08 1111.04,-215.86 1103.27,-208.67 1100.48,-215.08"/>
</g>
<!-- Node41 -->
<g id="node41" class="node">
<title>Node41</title>
<g id="a_node41"><a xlink:href="HttpResponse_8cpp.html#af8cce302648449aa6215ac211230ef75" target="_top" xlink:title=" ">
<polygon fill="white" stroke="black" points="584.5,-202.5 584.5,-221.5 668.5,-221.5 668.5,-202.5 584.5,-202.5"/>
<text text-anchor="middle" x="626.5" y="-209.5" font-family="Helvetica,sans-Serif" font-size="10.00">versionToString</text>
</a>
</g>
</g>
<!-- Node40&#45;&gt;Node41 -->
<g id="edge48" class="edge">
<title>Node40&#45;&gt;Node41</title>
<path fill="none" stroke="midnightblue" d="M493.01,-319.51C501.66,-316.63 510,-312.61 517,-307 546.17,-283.63 524.23,-254.86 553,-231 559.27,-225.8 566.8,-222.01 574.61,-219.25"/>
<polygon fill="midnightblue" stroke="midnightblue" points="575.63,-222.6 584.2,-216.36 573.61,-215.89 575.63,-222.6"/>
</g>
<!-- Node44 -->
<g id="node44" class="node">
<title>Node44</title>
<g id="a_node44"><a xlink:href="classEpollWrapper.html#a9f0b3f139a516df121fa05a910ae0c06" target="_top" xlink:title=" ">
<polygon fill="white" stroke="black" points="564.5,-544.5 564.5,-563.5 688.5,-563.5 688.5,-544.5 564.5,-544.5"/>
<text text-anchor="middle" x="626.5" y="-551.5" font-family="Helvetica,sans-Serif" font-size="10.00">EpollWrapper::removeFd</text>
</a>
</g>
</g>
<!-- Node43&#45;&gt;Node44 -->
<g id="edge51" class="edge">
<title>Node43&#45;&gt;Node44</title>
<path fill="none" stroke="midnightblue" d="M497.64,-540.05C515.79,-542.03 535.63,-544.2 554.16,-546.22"/>
<polygon fill="midnightblue" stroke="midnightblue" points="553.97,-549.72 564.29,-547.32 554.73,-542.76 553.97,-549.72"/>
</g>
<!-- Node46 -->
<g id="node46" class="node">
<title>Node46</title>
<g id="a_node46"><a xlink:href="classEpollWrapper.html#a65587fd636ef10c5f41f1f15a292d8d6" target="_top" xlink:title=" ">
<polygon fill="white" stroke="black" points="377,-0.5 377,-19.5 487,-19.5 487,-0.5 377,-0.5"/>
<text text-anchor="middle" x="432" y="-7.5" font-family="Helvetica,sans-Serif" font-size="10.00">EpollWrapper::modFd</text>
</a>
</g>
</g>
<!-- Node45&#45;&gt;Node46 -->
<g id="edge53" class="edge">
<title>Node45&#45;&gt;Node46</title>
<path fill="none" stroke="midnightblue" d="M311.16,-33.9C331.63,-29.82 353.73,-25.41 373.3,-21.51"/>
<polygon fill="midnightblue" stroke="midnightblue" points="374.17,-24.91 383.29,-19.52 372.8,-18.04 374.17,-24.91"/>
</g>
<!-- Node47 -->
<g id="node47" class="node">
<title>Node47</title>
<g id="a_node47"><a xlink:href="classClient.html#a0896e7f6670bf45187b0754d8fa73e92" target="_top" xlink:title=" ">
<polygon fill="white" stroke="black" points="383.5,-38.5 383.5,-57.5 480.5,-57.5 480.5,-38.5 383.5,-38.5"/>
<text text-anchor="middle" x="432" y="-45.5" font-family="Helvetica,sans-Serif" font-size="10.00">Client::needsWrite</text>
</a>
</g>
</g>
<!-- Node45&#45;&gt;Node47 -->
<g id="edge54" class="edge">
<title>Node45&#45;&gt;Node47</title>
<path fill="none" stroke="midnightblue" d="M311.16,-48C331.54,-48 353.52,-48 373.03,-48"/>
<polygon fill="midnightblue" stroke="midnightblue" points="373.29,-51.5 383.29,-48 373.29,-44.5 373.29,-51.5"/>
</g>
</g>
</svg>
        <g id="navigator" transform="translate(0 0)" fill="#404254">
                <rect fill="#f2f5e9" fill-opacity="0.5" stroke="#606060" stroke-width=".5" x="0" y="0" width="60" height="60"/>
                <use id="zoomplus" xlink:href="#zoomPlus" x="17" y="9" onmousedown="handleZoom(evt,'in')"/>
                <use id="zoomminus" xlink:href="#zoomMin" x="42" y="9" onmousedown="handleZoom(evt,'out')"/>
                <use id="reset" xlink:href="#resetDef" x="30" y="36" onmousedown="handleReset()"/>
                <g id="arrowUp" xlink:href="#dirArrow" transform="translate(30 24)" onmousedown="handlePan(0,-1)">
                  <use xlink:href="#rim" fill="#404040">
                        <set attributeName="fill" to="#808080" begin="arrowUp.mouseover" end="arrowUp.mouseout"/>
                  </use>
                  <path fill="none" stroke="white" stroke-width="1.5" d="M0,-3.0v7 M-2.5,-0.5L0,-3.0L2.5,-0.5"/>
                </g>
                <g id="arrowRight" xlink:href="#dirArrow" transform="rotate(90) translate(36 -43)" onmousedown="handlePan(1,0)">
                  <use xlink:href="#rim" fill="#404040">
                        <set attributeName="fill" to="#808080" begin="arrowRight.mouseover" end="arrowRight.mouseout"/>
                  </use>
                  <path fill="none" stroke="white" stroke-width="1.5" d="M0,-3.0v7 M-2.5,-0.5L0,-3.0L2.5,-0.5"/>
                </g>
                <g id="arrowDown" xlink:href="#dirArrow" transform="rotate(180) translate(-30 -48)" onmousedown="handlePan(0,1)">
                  <use xlink:href="#rim" fill="#404040">
                        <set attributeName="fill" to="#808080" begin="arrowDown.mouseover" end="arrowDown.mouseout"/>
                  </use>
                  <path fill="none" stroke="white" stroke-width="1.5" d="M0,-3.0v7 M-2.5,-0.5L0,-3.0L2.5,-0.5"/>
                </g>
                <g id="arrowLeft" xlink:href="#dirArrow" transform="rotate(270) translate(-36 17)" onmousedown="handlePan(-1,0)">
                  <use xlink:href="#rim" fill="#404040">
                        <set attributeName="fill" to="#808080" begin="arrowLeft.mouseover" end="arrowLeft.mouseout"/>
                  </use>
                  <path fill="none" stroke="white" stroke-width="1.5" d="M0,-3.0v7 M-2.5,-0.5L0,-3.0L2.5,-0.5"/>
                </g>
        </g>
        <svg viewBox="0 0 15 15" width="100%" height="30px" preserveAspectRatio="xMaxYMin meet">
         <g id="arrow_out" transform="scale(0.3 0.3)">
          <a xlink:href="classServerManager_a9c75ea0bd268425c187ef25770eccbe8_cgraph_org.svg" target="_base">
           <rect id="button" ry="5" rx="5" y="6" x="6" height="38" width="38"
                fill="#f2f5e9" fill-opacity="0.5" stroke="#606060" stroke-width="1.0"/>
           <path id="arrow"
             d="M 11.500037,31.436501 C 11.940474,20.09759 22.043105,11.32322 32.158766,21.979434 L 37.068811,17.246167 C 37.068811,17.246167 37.088388,32 37.088388,32 L 22.160133,31.978069 C 22.160133,31.978069 26.997745,27.140456 26.997745,27.140456 C 18.528582,18.264221 13.291696,25.230495 11.500037,31.436501 z"
             style="fill:#404040;"/>
          </a>
         </g>
        </svg>
</svg>
