<?xml version="1.0" encoding="UTF-8" standalone="no"?>
<!DOCTYPE svg PUBLIC "-//W3C//DTD SVG 1.1//EN"
 "http://www.w3.org/Graphics/SVG/1.1/DTD/svg11.dtd">
<!-- Generated by graphviz version 2.43.0 (0)
 -->
<!-- Title: HttpParser::splitHeaderLine Pages: 1 -->
<svg width="411pt" height="39pt"
 viewBox="0.00 0.00 411.00 39.00" xmlns="http://www.w3.org/2000/svg" xmlns:xlink="http://www.w3.org/1999/xlink">
<g id="graph0" class="graph" transform="scale(1 1) rotate(0) translate(4 35)">
<title>HttpParser::splitHeaderLine</title>
<polygon fill="white" stroke="transparent" points="-4,4 -4,-35 407,-35 407,4 -4,4"/>
<!-- Node1 -->
<g id="node1" class="node">
<title>Node1</title>
<g id="a_node1"><a xlink:title="Divide una linea de header en key y value.">
<polygon fill="#bfbfbf" stroke="black" points="0,-6 0,-25 137,-25 137,-6 0,-6"/>
<text text-anchor="middle" x="68.5" y="-13" font-family="Helvetica,sans-Serif" font-size="10.00">HttpParser::splitHeaderLine</text>
</a>
</g>
</g>
<!-- Node2 -->
<g id="node2" class="node">
<title>Node2</title>
<g id="a_node2"><a xlink:href="namespacehttp__header__utils.html#a8e76e9e7c6a2030b51da66551de2a136" target="_top" xlink:title=" ">
<polygon fill="white" stroke="black" points="173,-0.5 173,-30.5 270,-30.5 270,-0.5 173,-0.5"/>
<text text-anchor="start" x="181" y="-18.5" font-family="Helvetica,sans-Serif" font-size="10.00">http_header_utils::</text>
<text text-anchor="middle" x="221.5" y="-7.5" font-family="Helvetica,sans-Serif" font-size="10.00">splitHeaderLine</text>
</a>
</g>
</g>
<!-- Node1&#45;&gt;Node2 -->
<g id="edge1" class="edge">
<title>Node1&#45;&gt;Node2</title>
<path fill="none" stroke="midnightblue" d="M137.05,-15.5C145.65,-15.5 154.38,-15.5 162.81,-15.5"/>
<polygon fill="midnightblue" stroke="midnightblue" points="162.89,-19 172.89,-15.5 162.89,-12 162.89,-19"/>
</g>
<!-- Node3 -->
<g id="node3" class="node">
<title>Node3</title>
<g id="a_node3"><a xlink:href="namespacehttp__header__utils.html#ad43de990f48606a45f250b95d34daf91" target="_top" xlink:title=" ">
<polygon fill="white" stroke="black" points="306,-0.5 306,-30.5 403,-30.5 403,-0.5 306,-0.5"/>
<text text-anchor="start" x="314" y="-18.5" font-family="Helvetica,sans-Serif" font-size="10.00">http_header_utils::</text>
<text text-anchor="middle" x="354.5" y="-7.5" font-family="Helvetica,sans-Serif" font-size="10.00">trimSpaces</text>
</a>
</g>
</g>
<!-- Node2&#45;&gt;Node3 -->
<g id="edge2" class="edge">
<title>Node2&#45;&gt;Node3</title>
<path fill="none" stroke="midnightblue" d="M270.16,-15.5C278.38,-15.5 287.01,-15.5 295.46,-15.5"/>
<polygon fill="midnightblue" stroke="midnightblue" points="295.65,-19 305.65,-15.5 295.65,-12 295.65,-19"/>
</g>
</g>
</svg>
