<?xml version="1.0" encoding="UTF-8" standalone="no"?>
<!DOCTYPE svg PUBLIC "-//W3C//DTD SVG 1.1//EN"
 "http://www.w3.org/Graphics/SVG/1.1/DTD/svg11.dtd">
<!-- Generated by graphviz version 2.43.0 (0)
 -->
<!-- Title: HttpRequest::getBody Pages: 1 -->
<svg width="2016pt" height="230pt"
 viewBox="0.00 0.00 2016.00 229.50" xmlns="http://www.w3.org/2000/svg" xmlns:xlink="http://www.w3.org/1999/xlink">
<g id="graph0" class="graph" transform="scale(1 1) rotate(0) translate(4 225.5)">
<title>HttpRequest::getBody</title>
<polygon fill="white" stroke="transparent" points="-4,4 -4,-225.5 2012,-225.5 2012,4 -4,4"/>
<!-- Node1 -->
<g id="node1" class="node">
<title>Node1</title>
<g id="a_node1"><a xlink:title=" ">
<polygon fill="#bfbfbf" stroke="black" points="1894,-107 1894,-126 2008,-126 2008,-107 1894,-107"/>
<text text-anchor="middle" x="1951" y="-114" font-family="Helvetica,sans-Serif" font-size="10.00">HttpRequest::getBody</text>
</a>
</g>
</g>
<!-- Node2 -->
<g id="node2" class="node">
<title>Node2</title>
<g id="a_node2"><a xlink:href="classCgiExecutor.html#a449e349a961449c342e4612d131bda8e" target="_top" xlink:title=" ">
<polygon fill="white" stroke="black" points="1519,-176 1519,-195 1658,-195 1658,-176 1519,-176"/>
<text text-anchor="middle" x="1588.5" y="-183" font-family="Helvetica,sans-Serif" font-size="10.00">CgiExecutor::executeAsync</text>
</a>
</g>
</g>
<!-- Node1&#45;&gt;Node2 -->
<g id="edge1" class="edge">
<title>Node1&#45;&gt;Node2</title>
<path fill="none" stroke="midnightblue" d="M1921.89,-130.5C1904.02,-138.79 1880.16,-148.76 1858,-154.5 1791.34,-171.76 1712.87,-179.42 1658.04,-182.81"/>
<polygon fill="midnightblue" stroke="midnightblue" points="1923.62,-133.55 1931.15,-126.1 1920.61,-127.23 1923.62,-133.55"/>
</g>
<!-- Node7 -->
<g id="node7" class="node">
<title>Node7</title>
<g id="a_node7"><a xlink:href="classClient.html#abcf615f2514ae7e0266315693e73a31a" target="_top" xlink:title=" ">
<polygon fill="white" stroke="black" points="652,-88 652,-107 807,-107 807,-88 652,-88"/>
<text text-anchor="middle" x="729.5" y="-95" font-family="Helvetica,sans-Serif" font-size="10.00">Client::handleCompleteRequest</text>
</a>
</g>
</g>
<!-- Node1&#45;&gt;Node7 -->
<g id="edge19" class="edge">
<title>Node1&#45;&gt;Node7</title>
<path fill="none" stroke="midnightblue" d="M1922.65,-102.48C1904.75,-93.99 1880.57,-83.81 1858,-78.5 1741.55,-51.09 1709.13,-59.5 1589.5,-59.5 1589.5,-59.5 1589.5,-59.5 1049,-59.5 953.08,-59.5 842.04,-76.7 779.66,-87.96"/>
<polygon fill="midnightblue" stroke="midnightblue" points="1921.38,-105.75 1931.9,-106.98 1924.44,-99.46 1921.38,-105.75"/>
</g>
<!-- Node13 -->
<g id="node13" class="node">
<title>Node13</title>
<g id="a_node13"><a xlink:href="classHttpParser.html#af765dc1e57edfa64d33b1e851504a393" target="_top" xlink:title=" ">
<polygon fill="white" stroke="black" points="1335,-0.5 1335,-30.5 1483,-30.5 1483,-0.5 1335,-0.5"/>
<text text-anchor="start" x="1343" y="-18.5" font-family="Helvetica,sans-Serif" font-size="10.00">HttpParser::handleChunkData</text>
<text text-anchor="middle" x="1409" y="-7.5" font-family="Helvetica,sans-Serif" font-size="10.00">State</text>
</a>
</g>
</g>
<!-- Node1&#45;&gt;Node13 -->
<g id="edge13" class="edge">
<title>Node1&#45;&gt;Node13</title>
<path fill="none" stroke="midnightblue" d="M1934.12,-99.36C1917.13,-82.3 1888.48,-57.05 1858,-45.5 1732.98,1.85 1574.41,-0.78 1483.35,-7.67"/>
<polygon fill="midnightblue" stroke="midnightblue" points="1932.02,-102.22 1941.48,-106.98 1937.05,-97.35 1932.02,-102.22"/>
</g>
<!-- Node17 -->
<g id="node17" class="node">
<title>Node17</title>
<g id="a_node17"><a xlink:href="StaticPathHandler_8cpp.html#a638cb25cad6c24877a0e75984110ea7a" target="_top" xlink:title=" ">
<polygon fill="white" stroke="black" points="1738,-88 1738,-107 1814,-107 1814,-88 1738,-88"/>
<text text-anchor="middle" x="1776" y="-95" font-family="Helvetica,sans-Serif" font-size="10.00">handleUpload</text>
</a>
</g>
</g>
<!-- Node1&#45;&gt;Node17 -->
<g id="edge20" class="edge">
<title>Node1&#45;&gt;Node17</title>
<path fill="none" stroke="midnightblue" d="M1883.85,-109.24C1860.2,-106.64 1834.4,-103.8 1814.08,-101.57"/>
<polygon fill="midnightblue" stroke="midnightblue" points="1883.51,-112.72 1893.83,-110.33 1884.27,-105.76 1883.51,-112.72"/>
</g>
<!-- Node20 -->
<g id="node20" class="node">
<title>Node20</title>
<g id="a_node20"><a xlink:href="classCgiExecutor.html#ad97592b573c577e6bae11662ec683910" target="_top" xlink:title=" ">
<polygon fill="white" stroke="black" points="1694,-202 1694,-221 1858,-221 1858,-202 1694,-202"/>
<text text-anchor="middle" x="1776" y="-209" font-family="Helvetica,sans-Serif" font-size="10.00">CgiExecutor::prepareEnvironment</text>
</a>
</g>
</g>
<!-- Node1&#45;&gt;Node20 -->
<g id="edge25" class="edge">
<title>Node1&#45;&gt;Node20</title>
<path fill="none" stroke="midnightblue" d="M1932.4,-133.33C1914.82,-149.31 1886.4,-172.98 1858,-187.5 1846.25,-193.51 1832.75,-198.26 1820.18,-201.89"/>
<polygon fill="midnightblue" stroke="midnightblue" points="1935.15,-135.55 1940.11,-126.18 1930.39,-130.41 1935.15,-135.55"/>
</g>
<!-- Node21 -->
<g id="node21" class="node">
<title>Node21</title>
<g id="a_node21"><a xlink:href="RequestProcessorUtils_8cpp.html#a78597f2a4e423d57364c43dda7bcf969" target="_top" xlink:title=" ">
<polygon fill="white" stroke="black" points="1732.5,-126 1732.5,-145 1819.5,-145 1819.5,-126 1732.5,-126"/>
<text text-anchor="middle" x="1776" y="-133" font-family="Helvetica,sans-Serif" font-size="10.00">validateLocation</text>
</a>
</g>
</g>
<!-- Node1&#45;&gt;Node21 -->
<g id="edge27" class="edge">
<title>Node1&#45;&gt;Node21</title>
<path fill="none" stroke="midnightblue" d="M1883.78,-123.77C1862.29,-126.13 1839.04,-128.69 1819.73,-130.81"/>
<polygon fill="midnightblue" stroke="midnightblue" points="1884.27,-127.24 1893.83,-122.67 1883.51,-120.28 1884.27,-127.24"/>
</g>
<!-- Node3 -->
<g id="node3" class="node">
<title>Node3</title>
<g id="a_node3"><a xlink:href="classClient.html#a2e0da898af07e89fcfd83fe5a3077256" target="_top" xlink:title=" ">
<polygon fill="white" stroke="black" points="1360,-170 1360,-189 1458,-189 1458,-170 1360,-170"/>
<text text-anchor="middle" x="1409" y="-177" font-family="Helvetica,sans-Serif" font-size="10.00">Client::executeCgi</text>
</a>
</g>
</g>
<!-- Node2&#45;&gt;Node3 -->
<g id="edge2" class="edge">
<title>Node2&#45;&gt;Node3</title>
<path fill="none" stroke="midnightblue" d="M1508.79,-182.84C1491.52,-182.26 1473.74,-181.65 1458.11,-181.13"/>
<polygon fill="midnightblue" stroke="midnightblue" points="1508.76,-186.34 1518.87,-183.18 1509,-179.34 1508.76,-186.34"/>
</g>
<!-- Node4 -->
<g id="node4" class="node">
<title>Node4</title>
<g id="a_node4"><a xlink:href="classClient.html#a7ce261bf1858a7904f7bb9668188284b" target="_top" xlink:title=" ">
<polygon fill="white" stroke="black" points="1180,-164 1180,-183 1263,-183 1263,-164 1180,-164"/>
<text text-anchor="middle" x="1221.5" y="-171" font-family="Helvetica,sans-Serif" font-size="10.00">Client::startCgi</text>
</a>
</g>
</g>
<!-- Node3&#45;&gt;Node4 -->
<g id="edge3" class="edge">
<title>Node3&#45;&gt;Node4</title>
<path fill="none" stroke="midnightblue" d="M1349.65,-177.61C1321.58,-176.7 1288.62,-175.64 1263.29,-174.82"/>
<polygon fill="midnightblue" stroke="midnightblue" points="1349.64,-181.11 1359.75,-177.94 1349.86,-174.12 1349.64,-181.11"/>
</g>
<!-- Node5 -->
<g id="node5" class="node">
<title>Node5</title>
<g id="a_node5"><a xlink:href="classClient.html#ae523ed90bd32b88e539ebdf30746382b" target="_top" xlink:title=" ">
<polygon fill="white" stroke="black" points="993.5,-164 993.5,-183 1106.5,-183 1106.5,-164 993.5,-164"/>
<text text-anchor="middle" x="1050" y="-171" font-family="Helvetica,sans-Serif" font-size="10.00">Client::dispatchAction</text>
</a>
</g>
</g>
<!-- Node4&#45;&gt;Node5 -->
<g id="edge4" class="edge">
<title>Node4&#45;&gt;Node5</title>
<path fill="none" stroke="midnightblue" d="M1169.8,-173.5C1149.9,-173.5 1127,-173.5 1106.65,-173.5"/>
<polygon fill="midnightblue" stroke="midnightblue" points="1169.9,-177 1179.9,-173.5 1169.9,-170 1169.9,-177"/>
</g>
<!-- Node6 -->
<g id="node6" class="node">
<title>Node6</title>
<g id="a_node6"><a xlink:href="classClient.html#a419f8f3253d3f71287044e3999a5d600" target="_top" xlink:title=" ">
<polygon fill="white" stroke="black" points="843,-126 843,-145 956,-145 956,-126 843,-126"/>
<text text-anchor="middle" x="899.5" y="-133" font-family="Helvetica,sans-Serif" font-size="10.00">Client::buildResponse</text>
</a>
</g>
</g>
<!-- Node5&#45;&gt;Node6 -->
<g id="edge5" class="edge">
<title>Node5&#45;&gt;Node6</title>
<path fill="none" stroke="midnightblue" d="M1001.67,-161.39C980.99,-156.1 957.08,-149.98 937.7,-145.02"/>
<polygon fill="midnightblue" stroke="midnightblue" points="1000.97,-164.82 1011.53,-163.91 1002.71,-158.04 1000.97,-164.82"/>
</g>
<!-- Node6&#45;&gt;Node7 -->
<g id="edge6" class="edge">
<title>Node6&#45;&gt;Node7</title>
<path fill="none" stroke="midnightblue" d="M846.22,-123.68C822.54,-118.32 794.91,-112.07 772.59,-107.02"/>
<polygon fill="midnightblue" stroke="midnightblue" points="845.58,-127.12 856.11,-125.91 847.13,-120.29 845.58,-127.12"/>
</g>
<!-- Node8 -->
<g id="node8" class="node">
<title>Node8</title>
<g id="a_node8"><a xlink:href="classClient.html#ac95fe5b24fe5275bd2271bd1ac37596d" target="_top" xlink:title=" ">
<polygon fill="white" stroke="black" points="336,-31 336,-50 436,-50 436,-31 336,-31"/>
<text text-anchor="middle" x="386" y="-38" font-family="Helvetica,sans-Serif" font-size="10.00">Client::handleRead</text>
</a>
</g>
</g>
<!-- Node7&#45;&gt;Node8 -->
<g id="edge7" class="edge">
<title>Node7&#45;&gt;Node8</title>
<path fill="none" stroke="midnightblue" d="M641.78,-98.92C596.12,-97.59 539.65,-92.63 491,-78.5 473.63,-73.45 471.81,-66.19 455,-59.5 446,-55.92 436.08,-52.74 426.67,-50.05"/>
<polygon fill="midnightblue" stroke="midnightblue" points="641.87,-102.42 651.95,-99.16 642.04,-95.43 641.87,-102.42"/>
</g>
<!-- Node11 -->
<g id="node11" class="node">
<title>Node11</title>
<g id="a_node11"><a xlink:href="classClient.html#a950fd2ab8ac20c9be4c5e722344d6fe2" target="_top" xlink:title=" ">
<polygon fill="white" stroke="black" points="491,-50 491,-69 616,-69 616,-50 491,-50"/>
<text text-anchor="middle" x="553.5" y="-57" font-family="Helvetica,sans-Serif" font-size="10.00">Client::processRequests</text>
</a>
</g>
</g>
<!-- Node7&#45;&gt;Node11 -->
<g id="edge10" class="edge">
<title>Node7&#45;&gt;Node11</title>
<path fill="none" stroke="midnightblue" d="M674.69,-85.75C650.08,-80.37 621.31,-74.09 598.09,-69.02"/>
<polygon fill="midnightblue" stroke="midnightblue" points="674.08,-89.2 684.59,-87.91 675.57,-82.36 674.08,-89.2"/>
</g>
<!-- Node9 -->
<g id="node9" class="node">
<title>Node9</title>
<g id="a_node9"><a xlink:href="classServerManager.html#a9f3ca46da9df004286f90902b8daf29d" target="_top" xlink:title=" ">
<polygon fill="white" stroke="black" points="138,-25.5 138,-55.5 281,-55.5 281,-25.5 138,-25.5"/>
<text text-anchor="start" x="146" y="-43.5" font-family="Helvetica,sans-Serif" font-size="10.00">ServerManager::handleClient</text>
<text text-anchor="middle" x="209.5" y="-32.5" font-family="Helvetica,sans-Serif" font-size="10.00">Event</text>
</a>
</g>
</g>
<!-- Node8&#45;&gt;Node9 -->
<g id="edge8" class="edge">
<title>Node8&#45;&gt;Node9</title>
<path fill="none" stroke="midnightblue" d="M325.69,-40.5C311.33,-40.5 295.84,-40.5 281.02,-40.5"/>
<polygon fill="midnightblue" stroke="midnightblue" points="325.93,-44 335.93,-40.5 325.93,-37 325.93,-44"/>
</g>
<!-- Node10 -->
<g id="node10" class="node">
<title>Node10</title>
<g id="a_node10"><a xlink:href="classServerManager.html#aecc313c9b6afcab92c22269b3333c721" target="_top" xlink:title=" ">
<polygon fill="white" stroke="black" points="0,-31 0,-50 102,-50 102,-31 0,-31"/>
<text text-anchor="middle" x="51" y="-38" font-family="Helvetica,sans-Serif" font-size="10.00">ServerManager::run</text>
</a>
</g>
</g>
<!-- Node9&#45;&gt;Node10 -->
<g id="edge9" class="edge">
<title>Node9&#45;&gt;Node10</title>
<path fill="none" stroke="midnightblue" d="M127.45,-40.5C118.82,-40.5 110.23,-40.5 102.11,-40.5"/>
<polygon fill="midnightblue" stroke="midnightblue" points="127.58,-44 137.58,-40.5 127.58,-37 127.58,-44"/>
</g>
<!-- Node11&#45;&gt;Node8 -->
<g id="edge12" class="edge">
<title>Node11&#45;&gt;Node8</title>
<path fill="none" stroke="midnightblue" d="M480.56,-51.24C465.52,-49.51 449.99,-47.73 436.02,-46.13"/>
<polygon fill="midnightblue" stroke="midnightblue" points="480.54,-54.76 490.87,-52.43 481.34,-47.81 480.54,-54.76"/>
</g>
<!-- Node12 -->
<g id="node12" class="node">
<title>Node12</title>
<g id="a_node12"><a xlink:href="classClient.html#a09d6029b60ae8c9773362968e72f2e54" target="_top" xlink:title=" ">
<polygon fill="white" stroke="black" points="317,-69 317,-88 455,-88 455,-69 317,-69"/>
<text text-anchor="middle" x="386" y="-76" font-family="Helvetica,sans-Serif" font-size="10.00">Client::finalizeCgiResponse</text>
</a>
</g>
</g>
<!-- Node11&#45;&gt;Node12 -->
<g id="edge11" class="edge">
<title>Node11&#45;&gt;Node12</title>
<path fill="none" stroke="midnightblue" d="M480.91,-67.72C472.33,-68.7 463.6,-69.71 455.07,-70.69"/>
<polygon fill="midnightblue" stroke="midnightblue" points="481.34,-71.19 490.87,-66.57 480.54,-64.24 481.34,-71.19"/>
</g>
<!-- Node14 -->
<g id="node14" class="node">
<title>Node14</title>
<g id="a_node14"><a xlink:href="classHttpParser.html#a317def360bd0e77edbcb6673e0575d04" target="_top" xlink:title=" ">
<polygon fill="white" stroke="black" points="1144,-7 1144,-26 1299,-26 1299,-7 1144,-7"/>
<text text-anchor="middle" x="1221.5" y="-14" font-family="Helvetica,sans-Serif" font-size="10.00">HttpParser::parseBodyChunked</text>
</a>
</g>
</g>
<!-- Node13&#45;&gt;Node14 -->
<g id="edge14" class="edge">
<title>Node13&#45;&gt;Node14</title>
<path fill="none" stroke="midnightblue" d="M1324.94,-15.95C1316.35,-15.99 1307.66,-16.04 1299.14,-16.09"/>
<polygon fill="midnightblue" stroke="midnightblue" points="1324.97,-19.45 1334.95,-15.89 1324.93,-12.45 1324.97,-19.45"/>
</g>
<!-- Node15 -->
<g id="node15" class="node">
<title>Node15</title>
<g id="a_node15"><a xlink:href="classHttpParser.html#a72e22a873ca7e20a8dbbd63a43b045f9" target="_top" xlink:title=" ">
<polygon fill="white" stroke="black" points="992,-10 992,-29 1108,-29 1108,-10 992,-10"/>
<text text-anchor="middle" x="1050" y="-17" font-family="Helvetica,sans-Serif" font-size="10.00">HttpParser::parseBody</text>
</a>
</g>
</g>
<!-- Node14&#45;&gt;Node15 -->
<g id="edge15" class="edge">
<title>Node14&#45;&gt;Node15</title>
<path fill="none" stroke="midnightblue" d="M1133.53,-18.04C1124.87,-18.19 1116.25,-18.35 1108.02,-18.49"/>
<polygon fill="midnightblue" stroke="midnightblue" points="1133.75,-21.54 1143.68,-17.86 1133.62,-14.54 1133.75,-21.54"/>
</g>
<!-- Node16 -->
<g id="node16" class="node">
<title>Node16</title>
<g id="a_node16"><a xlink:href="classHttpParser.html#ada29088006c606896d2d46e48034f420" target="_top" xlink:title=" ">
<polygon fill="white" stroke="black" points="674.5,-12 674.5,-31 784.5,-31 784.5,-12 674.5,-12"/>
<text text-anchor="middle" x="729.5" y="-19" font-family="Helvetica,sans-Serif" font-size="10.00">HttpParser::consume</text>
</a>
</g>
</g>
<!-- Node15&#45;&gt;Node16 -->
<g id="edge16" class="edge">
<title>Node15&#45;&gt;Node16</title>
<path fill="none" stroke="midnightblue" d="M981.41,-19.92C922.78,-20.29 839.01,-20.82 784.69,-21.16"/>
<polygon fill="midnightblue" stroke="midnightblue" points="981.71,-23.42 991.69,-19.86 981.67,-16.42 981.71,-23.42"/>
</g>
<!-- Node16&#45;&gt;Node8 -->
<g id="edge17" class="edge">
<title>Node16&#45;&gt;Node8</title>
<path fill="none" stroke="midnightblue" d="M664.08,-25.08C597.85,-28.77 496.17,-34.43 436.15,-37.77"/>
<polygon fill="midnightblue" stroke="midnightblue" points="664.6,-28.56 674.39,-24.51 664.21,-21.57 664.6,-28.56"/>
</g>
<!-- Node16&#45;&gt;Node11 -->
<g id="edge18" class="edge">
<title>Node16&#45;&gt;Node11</title>
<path fill="none" stroke="midnightblue" d="M674.69,-33.25C650.08,-38.63 621.31,-44.91 598.09,-49.98"/>
<polygon fill="midnightblue" stroke="midnightblue" points="675.57,-36.64 684.59,-31.09 674.08,-29.8 675.57,-36.64"/>
</g>
<!-- Node18 -->
<g id="node18" class="node">
<title>Node18</title>
<g id="a_node18"><a xlink:href="StaticPathHandler_8cpp.html#a4e092999675b45373270f5408cbe64c7" target="_top" xlink:title=" ">
<polygon fill="white" stroke="black" points="1543,-88 1543,-107 1634,-107 1634,-88 1543,-88"/>
<text text-anchor="middle" x="1588.5" y="-95" font-family="Helvetica,sans-Serif" font-size="10.00">handleStaticPath</text>
</a>
</g>
</g>
<!-- Node17&#45;&gt;Node18 -->
<g id="edge21" class="edge">
<title>Node17&#45;&gt;Node18</title>
<path fill="none" stroke="midnightblue" d="M1727.68,-97.5C1698.88,-97.5 1662.33,-97.5 1634.05,-97.5"/>
<polygon fill="midnightblue" stroke="midnightblue" points="1727.91,-101 1737.91,-97.5 1727.91,-94 1727.91,-101"/>
</g>
<!-- Node19 -->
<g id="node19" class="node">
<title>Node19</title>
<g id="a_node19"><a xlink:href="classRequestProcessor.html#a3fa9c97a7d142a7b607002138de87140" target="_top" xlink:title=" ">
<polygon fill="white" stroke="black" points="1340,-113 1340,-132 1478,-132 1478,-113 1340,-113"/>
<text text-anchor="middle" x="1409" y="-120" font-family="Helvetica,sans-Serif" font-size="10.00">RequestProcessor::process</text>
</a>
</g>
</g>
<!-- Node18&#45;&gt;Node19 -->
<g id="edge22" class="edge">
<title>Node18&#45;&gt;Node19</title>
<path fill="none" stroke="midnightblue" d="M1532.72,-105.22C1515.3,-107.67 1495.82,-110.41 1477.61,-112.98"/>
<polygon fill="midnightblue" stroke="midnightblue" points="1533.3,-108.67 1542.71,-103.81 1532.32,-101.74 1533.3,-108.67"/>
</g>
<!-- Node19&#45;&gt;Node6 -->
<g id="edge23" class="edge">
<title>Node19&#45;&gt;Node6</title>
<path fill="none" stroke="midnightblue" d="M1329.75,-124.5C1226.39,-127.15 1046.88,-131.75 956.26,-134.07"/>
<polygon fill="midnightblue" stroke="midnightblue" points="1329.91,-128 1339.82,-124.25 1329.73,-121 1329.91,-128"/>
</g>
<!-- Node19&#45;&gt;Node7 -->
<g id="edge24" class="edge">
<title>Node19&#45;&gt;Node7</title>
<path fill="none" stroke="midnightblue" d="M1329.59,-119.61C1198.57,-114.77 936.77,-105.11 807.02,-100.32"/>
<polygon fill="midnightblue" stroke="midnightblue" points="1329.81,-123.12 1339.94,-119.99 1330.07,-116.12 1329.81,-123.12"/>
</g>
<!-- Node20&#45;&gt;Node2 -->
<g id="edge26" class="edge">
<title>Node20&#45;&gt;Node2</title>
<path fill="none" stroke="midnightblue" d="M1697.04,-200.57C1683.9,-198.73 1670.37,-196.83 1657.51,-195.03"/>
<polygon fill="midnightblue" stroke="midnightblue" points="1696.59,-204.04 1706.98,-201.97 1697.56,-197.11 1696.59,-204.04"/>
</g>
<!-- Node22 -->
<g id="node22" class="node">
<title>Node22</title>
<g id="a_node22"><a xlink:href="classRequestProcessor.html#a606f9c02a3166ca58e6930f8d292d81c" target="_top" xlink:title=" ">
<polygon fill="white" stroke="black" points="1522.5,-126.5 1522.5,-156.5 1654.5,-156.5 1654.5,-126.5 1522.5,-126.5"/>
<text text-anchor="start" x="1530.5" y="-144.5" font-family="Helvetica,sans-Serif" font-size="10.00">RequestProcessor::handle</text>
<text text-anchor="middle" x="1588.5" y="-133.5" font-family="Helvetica,sans-Serif" font-size="10.00">LocationValidation</text>
</a>
</g>
</g>
<!-- Node21&#45;&gt;Node22 -->
<g id="edge28" class="edge">
<title>Node21&#45;&gt;Node22</title>
<path fill="none" stroke="midnightblue" d="M1722.42,-137.2C1701.38,-137.88 1676.93,-138.67 1654.78,-139.39"/>
<polygon fill="midnightblue" stroke="midnightblue" points="1722.56,-140.7 1732.44,-136.88 1722.33,-133.7 1722.56,-140.7"/>
</g>
<!-- Node22&#45;&gt;Node19 -->
<g id="edge29" class="edge">
<title>Node22&#45;&gt;Node19</title>
<path fill="none" stroke="midnightblue" d="M1512.13,-133.43C1500.82,-132.22 1489.21,-130.98 1478.06,-129.79"/>
<polygon fill="midnightblue" stroke="midnightblue" points="1512.1,-136.95 1522.41,-134.53 1512.84,-129.99 1512.1,-136.95"/>
</g>
</g>
</svg>
