<?xml version="1.0" encoding="UTF-8" standalone="no"?>
<!DOCTYPE svg PUBLIC "-//W3C//DTD SVG 1.1//EN"
 "http://www.w3.org/Graphics/SVG/1.1/DTD/svg11.dtd">
<!-- Generated by graphviz version 2.43.0 (0)
 -->
<!-- Title: HttpResponse::setContentType Pages: 1 -->
<svg width="463pt" height="53pt"
 viewBox="0.00 0.00 463.00 52.50" xmlns="http://www.w3.org/2000/svg" xmlns:xlink="http://www.w3.org/1999/xlink">
<g id="graph0" class="graph" transform="scale(1 1) rotate(0) translate(4 48.5)">
<title>HttpResponse::setContentType</title>
<polygon fill="white" stroke="transparent" points="-4,4 -4,-48.5 459,-48.5 459,4 -4,4"/>
<!-- Node1 -->
<g id="node1" class="node">
<title>Node1</title>
<g id="a_node1"><a xlink:title=" ">
<polygon fill="#bfbfbf" stroke="black" points="0,-6 0,-25 155,-25 155,-6 0,-6"/>
<text text-anchor="middle" x="77.5" y="-13" font-family="Helvetica,sans-Serif" font-size="10.00">HttpResponse::setContentType</text>
</a>
</g>
</g>
<!-- Node2 -->
<g id="node2" class="node">
<title>Node2</title>
<g id="a_node2"><a xlink:href="classHttpResponse.html#a7efa3ab17ead358609d80b55db164867" target="_top" xlink:title=" ">
<polygon fill="white" stroke="black" points="191,-25 191,-44 322,-44 322,-25 191,-25"/>
<text text-anchor="middle" x="256.5" y="-32" font-family="Helvetica,sans-Serif" font-size="10.00">HttpResponse::setHeader</text>
</a>
</g>
</g>
<!-- Node1&#45;&gt;Node2 -->
<g id="edge1" class="edge">
<title>Node1&#45;&gt;Node2</title>
<path fill="none" stroke="midnightblue" d="M155.11,-23.72C163.7,-24.65 172.45,-25.58 181.02,-26.5"/>
<polygon fill="midnightblue" stroke="midnightblue" points="180.66,-29.99 190.97,-27.57 181.4,-23.03 180.66,-29.99"/>
</g>
<!-- Node3 -->
<g id="node3" class="node">
<title>Node3</title>
<g id="a_node3"><a xlink:href="namespacehttp__header__utils.html#aa9b0e84aeed4203326a12eecbcd3f9e5" target="_top" xlink:title=" ">
<polygon fill="white" stroke="black" points="358,-0.5 358,-30.5 455,-30.5 455,-0.5 358,-0.5"/>
<text text-anchor="start" x="366" y="-18.5" font-family="Helvetica,sans-Serif" font-size="10.00">http_header_utils::</text>
<text text-anchor="middle" x="406.5" y="-7.5" font-family="Helvetica,sans-Serif" font-size="10.00">toLowerCopy</text>
</a>
</g>
</g>
<!-- Node1&#45;&gt;Node3 -->
<g id="edge3" class="edge">
<title>Node1&#45;&gt;Node3</title>
<path fill="none" stroke="midnightblue" d="M155.17,-15.5C214.04,-15.5 294.09,-15.5 347.66,-15.5"/>
<polygon fill="midnightblue" stroke="midnightblue" points="347.67,-19 357.67,-15.5 347.67,-12 347.67,-19"/>
</g>
<!-- Node2&#45;&gt;Node3 -->
<g id="edge2" class="edge">
<title>Node2&#45;&gt;Node3</title>
<path fill="none" stroke="midnightblue" d="M322.41,-26.17C330.92,-25.07 339.58,-23.96 347.95,-22.89"/>
<polygon fill="midnightblue" stroke="midnightblue" points="348.51,-26.34 357.99,-21.6 347.62,-19.4 348.51,-26.34"/>
</g>
</g>
</svg>
