<?xml version="1.0" encoding="UTF-8" standalone="no"?>
<!DOCTYPE svg PUBLIC "-//W3C//DTD SVG 1.1//EN"
 "http://www.w3.org/Graphics/SVG/1.1/DTD/svg11.dtd">
<!-- Generated by graphviz version 2.43.0 (0)
 -->
<!-- Title: HttpParser Pages: 1 -->
<svg width="373pt" height="330pt"
 viewBox="0.00 0.00 373.00 330.00" xmlns="http://www.w3.org/2000/svg" xmlns:xlink="http://www.w3.org/1999/xlink">
<g id="graph0" class="graph" transform="scale(1 1) rotate(0) translate(4 326)">
<title>HttpParser</title>
<polygon fill="white" stroke="transparent" points="-4,4 -4,-326 369,-326 369,4 -4,4"/>
<!-- Node1 -->
<g id="node1" class="node">
<title>Node1</title>
<g id="a_node1"><a xlink:title=" ">
<polygon fill="#bfbfbf" stroke="black" points="0,-0.5 0,-19.5 64,-19.5 64,-0.5 0,-0.5"/>
<text text-anchor="middle" x="32" y="-7.5" font-family="Helvetica,sans-Serif" font-size="10.00">HttpParser</text>
</a>
</g>
</g>
<!-- Node2 -->
<g id="node2" class="node">
<title>Node2</title>
<g id="a_node2"><a xlink:href="classHttpRequest.html" target="_top" xlink:title=" ">
<polygon fill="white" stroke="black" points="104,-67.5 104,-86.5 176,-86.5 176,-67.5 104,-67.5"/>
<text text-anchor="middle" x="140" y="-74.5" font-family="Helvetica,sans-Serif" font-size="10.00">HttpRequest</text>
</a>
</g>
</g>
<!-- Node2&#45;&gt;Node1 -->
<g id="edge1" class="edge">
<title>Node2&#45;&gt;Node1</title>
<path fill="none" stroke="#9a32cd" stroke-dasharray="5,2" d="M116.64,-61.94C95.25,-49.07 64.28,-30.43 46.33,-19.63"/>
<polygon fill="#9a32cd" stroke="#9a32cd" points="115.06,-65.08 125.43,-67.23 118.67,-59.08 115.06,-65.08"/>
<text text-anchor="middle" x="112.5" y="-41" font-family="Helvetica,sans-Serif" font-size="10.00"> _request</text>
</g>
<!-- Node3 -->
<g id="node3" class="node">
<title>Node3</title>
<g id="a_node3"><a xlink:title=" ">
<polygon fill="white" stroke="#bfbfbf" points="265,-151 265,-170 365,-170 365,-151 265,-151"/>
<text text-anchor="middle" x="315" y="-158" font-family="Helvetica,sans-Serif" font-size="10.00">std::vector&lt; char &gt;</text>
</a>
</g>
</g>
<!-- Node3&#45;&gt;Node2 -->
<g id="edge2" class="edge">
<title>Node3&#45;&gt;Node2</title>
<path fill="none" stroke="#9a32cd" stroke-dasharray="5,2" d="M292.69,-145.66C273.19,-133.9 243.86,-117.07 217,-105 201.11,-97.86 182.71,-91.35 167.89,-86.51"/>
<polygon fill="#9a32cd" stroke="#9a32cd" points="291.07,-148.76 301.43,-150.97 294.71,-142.78 291.07,-148.76"/>
<text text-anchor="middle" x="273" y="-113.5" font-family="Helvetica,sans-Serif" font-size="10.00"> _body</text>
</g>
<!-- Node4 -->
<g id="node4" class="node">
<title>Node4</title>
<g id="a_node4"><a xlink:title=" ">
<polygon fill="white" stroke="#bfbfbf" points="59,-234.5 59,-253.5 119,-253.5 119,-234.5 59,-234.5"/>
<text text-anchor="middle" x="89" y="-241.5" font-family="Helvetica,sans-Serif" font-size="10.00">std::string</text>
</a>
</g>
</g>
<!-- Node4&#45;&gt;Node1 -->
<g id="edge7" class="edge">
<title>Node4&#45;&gt;Node1</title>
<path fill="none" stroke="#9a32cd" stroke-dasharray="5,2" d="M80.26,-224.98C69.81,-202.57 52.65,-162.89 44,-127 34.51,-87.64 32.52,-38.98 32.11,-19.57"/>
<polygon fill="#9a32cd" stroke="#9a32cd" points="77.21,-226.71 84.66,-234.24 83.53,-223.7 77.21,-226.71"/>
<text text-anchor="middle" x="73" y="-119" font-family="Helvetica,sans-Serif" font-size="10.00"> _buffer</text>
<text text-anchor="middle" x="73" y="-108" font-family="Helvetica,sans-Serif" font-size="10.00">_chunkBuffer</text>
</g>
<!-- Node4&#45;&gt;Node2 -->
<g id="edge3" class="edge">
<title>Node4&#45;&gt;Node2</title>
<path fill="none" stroke="#9a32cd" stroke-dasharray="5,2" d="M88.18,-224.33C87.86,-204.21 89.05,-171.51 98,-145 105.73,-122.11 122.68,-99.02 132.52,-86.83"/>
<polygon fill="#9a32cd" stroke="#9a32cd" points="84.68,-224.44 88.47,-234.34 91.67,-224.24 84.68,-224.44"/>
<text text-anchor="middle" x="113" y="-163.5" font-family="Helvetica,sans-Serif" font-size="10.00"> _path</text>
<text text-anchor="middle" x="113" y="-152.5" font-family="Helvetica,sans-Serif" font-size="10.00">_query</text>
</g>
<!-- Node6 -->
<g id="node6" class="node">
<title>Node6</title>
<g id="a_node6"><a xlink:title=" ">
<polygon fill="white" stroke="#bfbfbf" points="137,-145.5 137,-175.5 247,-175.5 247,-145.5 137,-145.5"/>
<text text-anchor="start" x="145" y="-163.5" font-family="Helvetica,sans-Serif" font-size="10.00">std::map&lt; std::string,</text>
<text text-anchor="middle" x="192" y="-152.5" font-family="Helvetica,sans-Serif" font-size="10.00"> std::string &gt;</text>
</a>
</g>
</g>
<!-- Node4&#45;&gt;Node6 -->
<g id="edge6" class="edge">
<title>Node4&#45;&gt;Node6</title>
<path fill="none" stroke="#9a32cd" stroke-dasharray="5,2" d="M107.94,-228.01C126.85,-213.05 155.68,-190.24 174.18,-175.6"/>
<polygon fill="#9a32cd" stroke="#9a32cd" points="105.69,-225.33 100.02,-234.28 110.04,-230.82 105.69,-225.33"/>
<text text-anchor="middle" x="170.5" y="-208" font-family="Helvetica,sans-Serif" font-size="10.00"> elements</text>
<text text-anchor="middle" x="170.5" y="-197" font-family="Helvetica,sans-Serif" font-size="10.00">keys</text>
</g>
<!-- Node5 -->
<g id="node5" class="node">
<title>Node5</title>
<g id="a_node5"><a xlink:title=" ">
<polygon fill="white" stroke="#bfbfbf" points="41.5,-291.5 41.5,-321.5 136.5,-321.5 136.5,-291.5 41.5,-291.5"/>
<text text-anchor="start" x="49.5" y="-309.5" font-family="Helvetica,sans-Serif" font-size="10.00">std::basic_string&lt;</text>
<text text-anchor="middle" x="89" y="-298.5" font-family="Helvetica,sans-Serif" font-size="10.00"> Char &gt;</text>
</a>
</g>
</g>
<!-- Node5&#45;&gt;Node4 -->
<g id="edge4" class="edge">
<title>Node5&#45;&gt;Node4</title>
<path fill="none" stroke="midnightblue" d="M89,-281.35C89,-271.51 89,-260.78 89,-253.54"/>
<polygon fill="midnightblue" stroke="midnightblue" points="85.5,-281.47 89,-291.47 92.5,-281.47 85.5,-281.47"/>
</g>
<!-- Node6&#45;&gt;Node2 -->
<g id="edge5" class="edge">
<title>Node6&#45;&gt;Node2</title>
<path fill="none" stroke="#9a32cd" stroke-dasharray="5,2" d="M177.42,-136.65C166.78,-119.98 152.96,-98.32 145.45,-86.54"/>
<polygon fill="#9a32cd" stroke="#9a32cd" points="174.61,-138.76 182.94,-145.3 180.51,-134.99 174.61,-138.76"/>
<text text-anchor="middle" x="191.5" y="-113.5" font-family="Helvetica,sans-Serif" font-size="10.00"> _headers</text>
</g>
</g>
</svg>
