<?xml version="1.0" encoding="UTF-8" standalone="no"?>
<!DOCTYPE svg PUBLIC "-//W3C//DTD SVG 1.1//EN"
 "http://www.w3.org/Graphics/SVG/1.1/DTD/svg11.dtd">
<!-- Generated by graphviz version 2.43.0 (0)
 -->
<!-- Title: ServerManager::ServerManager Pages: 1 -->
<svg width="306pt" height="104pt"
 viewBox="0.00 0.00 306.00 104.00" xmlns="http://www.w3.org/2000/svg" xmlns:xlink="http://www.w3.org/1999/xlink">
<g id="graph0" class="graph" transform="scale(1 1) rotate(0) translate(4 100)">
<title>ServerManager::ServerManager</title>
<polygon fill="white" stroke="transparent" points="-4,4 -4,-100 302,-100 302,4 -4,4"/>
<!-- Node1 -->
<g id="node1" class="node">
<title>Node1</title>
<g id="a_node1"><a xlink:title=" ">
<polygon fill="#bfbfbf" stroke="black" points="0,-38.5 0,-57.5 155,-57.5 155,-38.5 0,-38.5"/>
<text text-anchor="middle" x="77.5" y="-45.5" font-family="Helvetica,sans-Serif" font-size="10.00">ServerManager::ServerManager</text>
</a>
</g>
</g>
<!-- Node2 -->
<g id="node2" class="node">
<title>Node2</title>
<g id="a_node2"><a xlink:href="classEpollWrapper.html#a9d1a1f203f959547001099718dd957ea" target="_top" xlink:title=" ">
<polygon fill="white" stroke="black" points="191,-76.5 191,-95.5 298,-95.5 298,-76.5 191,-76.5"/>
<text text-anchor="middle" x="244.5" y="-83.5" font-family="Helvetica,sans-Serif" font-size="10.00">EpollWrapper::addFd</text>
</a>
</g>
</g>
<!-- Node1&#45;&gt;Node2 -->
<g id="edge1" class="edge">
<title>Node1&#45;&gt;Node2</title>
<path fill="none" stroke="midnightblue" d="M120.14,-57.59C142.01,-62.63 169.01,-68.84 192.16,-74.18"/>
<polygon fill="midnightblue" stroke="midnightblue" points="191.63,-77.65 202.16,-76.48 193.2,-70.82 191.63,-77.65"/>
</g>
<!-- Node3 -->
<g id="node3" class="node">
<title>Node3</title>
<g id="a_node3"><a xlink:href="classTcpListener.html#a2c13bb500eb3195e7cac7acb78faf1ee" target="_top" xlink:title=" ">
<polygon fill="white" stroke="black" points="196,-38.5 196,-57.5 293,-57.5 293,-38.5 196,-38.5"/>
<text text-anchor="middle" x="244.5" y="-45.5" font-family="Helvetica,sans-Serif" font-size="10.00">TcpListener::getFd</text>
</a>
</g>
</g>
<!-- Node1&#45;&gt;Node3 -->
<g id="edge2" class="edge">
<title>Node1&#45;&gt;Node3</title>
<path fill="none" stroke="midnightblue" d="M155.2,-48C165.45,-48 175.81,-48 185.66,-48"/>
<polygon fill="midnightblue" stroke="midnightblue" points="185.71,-51.5 195.71,-48 185.71,-44.5 185.71,-51.5"/>
</g>
<!-- Node4 -->
<g id="node4" class="node">
<title>Node4</title>
<g id="a_node4"><a xlink:href="classTcpListener.html#a8dd53220fc8eeed06e73f9f10989cb6b" target="_top" xlink:title=" ">
<polygon fill="white" stroke="black" points="197,-0.5 197,-19.5 292,-19.5 292,-0.5 197,-0.5"/>
<text text-anchor="middle" x="244.5" y="-7.5" font-family="Helvetica,sans-Serif" font-size="10.00">TcpListener::listen</text>
</a>
</g>
</g>
<!-- Node1&#45;&gt;Node4 -->
<g id="edge3" class="edge">
<title>Node1&#45;&gt;Node4</title>
<path fill="none" stroke="midnightblue" d="M120.14,-38.41C142.01,-33.37 169.01,-27.16 192.16,-21.82"/>
<polygon fill="midnightblue" stroke="midnightblue" points="193.2,-25.18 202.16,-19.52 191.63,-18.35 193.2,-25.18"/>
</g>
</g>
</svg>
