<?xml version="1.0" encoding="UTF-8" standalone="no"?>
<!DOCTYPE svg PUBLIC "-//W3C//DTD SVG 1.1//EN"
 "http://www.w3.org/Graphics/SVG/1.1/DTD/svg11.dtd">
<!-- Generated by graphviz version 2.43.0 (0)
 -->
<!-- Title: TcpListener::acceptConnection Pages: 1 -->
<svg width="470pt" height="39pt"
 viewBox="0.00 0.00 470.00 39.00" xmlns="http://www.w3.org/2000/svg" xmlns:xlink="http://www.w3.org/1999/xlink">
<g id="graph0" class="graph" transform="scale(1 1) rotate(0) translate(4 35)">
<title>TcpListener::acceptConnection</title>
<polygon fill="white" stroke="transparent" points="-4,4 -4,-35 466,-35 466,4 -4,4"/>
<!-- Node1 -->
<g id="node1" class="node">
<title>Node1</title>
<g id="a_node1"><a xlink:title=" ">
<polygon fill="#bfbfbf" stroke="black" points="311,-6 311,-25 462,-25 462,-6 311,-6"/>
<text text-anchor="middle" x="386.5" y="-13" font-family="Helvetica,sans-Serif" font-size="10.00">TcpListener::acceptConnection</text>
</a>
</g>
</g>
<!-- Node2 -->
<g id="node2" class="node">
<title>Node2</title>
<g id="a_node2"><a xlink:href="classServerManager.html#a1d57002b5b7a92044b9fd57396407975" target="_top" xlink:title=" ">
<polygon fill="white" stroke="black" points="138,-0.5 138,-30.5 275,-30.5 275,-0.5 138,-0.5"/>
<text text-anchor="start" x="146" y="-18.5" font-family="Helvetica,sans-Serif" font-size="10.00">ServerManager::handleNew</text>
<text text-anchor="middle" x="206.5" y="-7.5" font-family="Helvetica,sans-Serif" font-size="10.00">Connection</text>
</a>
</g>
</g>
<!-- Node1&#45;&gt;Node2 -->
<g id="edge1" class="edge">
<title>Node1&#45;&gt;Node2</title>
<path fill="none" stroke="midnightblue" d="M300.77,-15.5C292.2,-15.5 283.58,-15.5 275.22,-15.5"/>
<polygon fill="midnightblue" stroke="midnightblue" points="300.79,-19 310.79,-15.5 300.79,-12 300.79,-19"/>
</g>
<!-- Node3 -->
<g id="node3" class="node">
<title>Node3</title>
<g id="a_node3"><a xlink:href="classServerManager.html#aecc313c9b6afcab92c22269b3333c721" target="_top" xlink:title=" ">
<polygon fill="white" stroke="black" points="0,-6 0,-25 102,-25 102,-6 0,-6"/>
<text text-anchor="middle" x="51" y="-13" font-family="Helvetica,sans-Serif" font-size="10.00">ServerManager::run</text>
</a>
</g>
</g>
<!-- Node2&#45;&gt;Node3 -->
<g id="edge2" class="edge">
<title>Node2&#45;&gt;Node3</title>
<path fill="none" stroke="midnightblue" d="M127.65,-15.5C119.06,-15.5 110.48,-15.5 102.35,-15.5"/>
<polygon fill="midnightblue" stroke="midnightblue" points="127.73,-19 137.73,-15.5 127.73,-12 127.73,-19"/>
</g>
</g>
</svg>
