<?xml version="1.0" encoding="UTF-8" standalone="no"?>
<!DOCTYPE svg PUBLIC "-//W3C//DTD SVG 1.1//EN"
 "http://www.w3.org/Graphics/SVG/1.1/DTD/svg11.dtd">
<!-- Generated by graphviz version 2.43.0 (0)
 -->
<!-- Title: ServerConfig Pages: 1 -->
<svg width="1016pt" height="286pt"
 viewBox="0.00 0.00 1016.00 285.98" xmlns="http://www.w3.org/2000/svg" xmlns:xlink="http://www.w3.org/1999/xlink">
<g id="graph0" class="graph" transform="scale(1 1) rotate(0) translate(4 281.98)">
<title>ServerConfig</title>
<polygon fill="white" stroke="transparent" points="-4,4 -4,-281.98 1012,-281.98 1012,4 -4,4"/>
<!-- Node1 -->
<g id="node1" class="node">
<title>Node1</title>
<g id="a_node1"><a xlink:title="Configuration of one server { } block Represents a virtual server (nginx&#45;like style).">
<polygon fill="#bfbfbf" stroke="black" points="934,-87.48 934,-106.48 1008,-106.48 1008,-87.48 934,-87.48"/>
<text text-anchor="middle" x="971" y="-94.48" font-family="Helvetica,sans-Serif" font-size="10.00">ServerConfig</text>
</a>
</g>
</g>
<!-- Node2 -->
<g id="node2" class="node">
<title>Node2</title>
<g id="a_node2"><a xlink:title=" ">
<polygon fill="white" stroke="#bfbfbf" points="704,-109.48 704,-128.48 850,-128.48 850,-109.48 704,-109.48"/>
<text text-anchor="middle" x="777" y="-116.48" font-family="Helvetica,sans-Serif" font-size="10.00">std::vector&lt; LocationConfig &gt;</text>
</a>
</g>
</g>
<!-- Node2&#45;&gt;Node1 -->
<g id="edge1" class="edge">
<title>Node2&#45;&gt;Node1</title>
<path fill="none" stroke="#9a32cd" stroke-dasharray="5,2" d="M860.21,-109.56C885.97,-106.61 913.09,-103.5 933.93,-101.11"/>
<polygon fill="#9a32cd" stroke="#9a32cd" points="859.58,-106.11 850.04,-110.73 860.37,-113.06 859.58,-106.11"/>
<text text-anchor="middle" x="892" y="-111.98" font-family="Helvetica,sans-Serif" font-size="10.00"> locations_</text>
</g>
<!-- Node3 -->
<g id="node3" class="node">
<title>Node3</title>
<g id="a_node3"><a xlink:href="classLocationConfig.html" target="_top" xlink:title="Represents the configuration for a specific location within a server block.">
<polygon fill="white" stroke="black" points="526,-121.48 526,-140.48 608,-140.48 608,-121.48 526,-121.48"/>
<text text-anchor="middle" x="567" y="-128.48" font-family="Helvetica,sans-Serif" font-size="10.00">LocationConfig</text>
</a>
</g>
</g>
<!-- Node3&#45;&gt;Node2 -->
<g id="edge2" class="edge">
<title>Node3&#45;&gt;Node2</title>
<path fill="none" stroke="#9a32cd" stroke-dasharray="5,2" d="M618.31,-128.08C643.9,-126.6 675.45,-124.78 703.6,-123.16"/>
<polygon fill="#9a32cd" stroke="#9a32cd" points="617.89,-124.6 608.1,-128.67 618.29,-131.59 617.89,-124.6"/>
<text text-anchor="middle" x="656" y="-130.98" font-family="Helvetica,sans-Serif" font-size="10.00"> elements</text>
</g>
<!-- Node4 -->
<g id="node4" class="node">
<title>Node4</title>
<g id="a_node4"><a xlink:title=" ">
<polygon fill="white" stroke="#bfbfbf" points="278.5,-94.98 278.5,-124.98 388.5,-124.98 388.5,-94.98 278.5,-94.98"/>
<text text-anchor="start" x="286.5" y="-112.98" font-family="Helvetica,sans-Serif" font-size="10.00">std::map&lt; std::string,</text>
<text text-anchor="middle" x="333.5" y="-101.98" font-family="Helvetica,sans-Serif" font-size="10.00"> std::string &gt;</text>
</a>
</g>
</g>
<!-- Node4&#45;&gt;Node3 -->
<g id="edge3" class="edge">
<title>Node4&#45;&gt;Node3</title>
<path fill="none" stroke="#9a32cd" stroke-dasharray="5,2" d="M398.87,-115.82C439.55,-119.51 490.85,-124.16 525.81,-127.34"/>
<polygon fill="#9a32cd" stroke="#9a32cd" points="399.05,-112.32 388.78,-114.9 398.42,-119.29 399.05,-112.32"/>
<text text-anchor="middle" x="461" y="-128.98" font-family="Helvetica,sans-Serif" font-size="10.00"> cgi_handlers_</text>
</g>
<!-- Node5 -->
<g id="node5" class="node">
<title>Node5</title>
<g id="a_node5"><a xlink:title=" ">
<polygon fill="white" stroke="#bfbfbf" points="132,-100.48 132,-119.48 192,-119.48 192,-100.48 132,-100.48"/>
<text text-anchor="middle" x="162" y="-107.48" font-family="Helvetica,sans-Serif" font-size="10.00">std::string</text>
</a>
</g>
</g>
<!-- Node5&#45;&gt;Node1 -->
<g id="edge9" class="edge">
<title>Node5&#45;&gt;Node1</title>
<path fill="none" stroke="#9a32cd" stroke-dasharray="5,2" d="M175.33,-127.95C200.52,-162.32 261.54,-233.98 332.5,-233.98 332.5,-233.98 332.5,-233.98 778,-233.98 865.63,-233.98 940.92,-138.25 963.27,-106.83"/>
<polygon fill="#9a32cd" stroke="#9a32cd" points="178.1,-125.82 169.45,-119.71 172.4,-129.89 178.1,-125.82"/>
<text text-anchor="middle" x="567" y="-269.98" font-family="Helvetica,sans-Serif" font-size="10.00"> host_address_</text>
<text text-anchor="middle" x="567" y="-258.98" font-family="Helvetica,sans-Serif" font-size="10.00">redirect_url_</text>
<text text-anchor="middle" x="567" y="-247.98" font-family="Helvetica,sans-Serif" font-size="10.00">root_</text>
<text text-anchor="middle" x="567" y="-236.98" font-family="Helvetica,sans-Serif" font-size="10.00">server_name_</text>
</g>
<!-- Node5&#45;&gt;Node3 -->
<g id="edge6" class="edge">
<title>Node5&#45;&gt;Node3</title>
<path fill="none" stroke="#9a32cd" stroke-dasharray="5,2" d="M184.84,-124.91C192.47,-129.33 201.3,-133.62 210,-135.98 321.11,-166.12 458.98,-149.76 525.86,-138.6"/>
<polygon fill="#9a32cd" stroke="#9a32cd" points="186.57,-121.87 176.23,-119.57 182.89,-127.82 186.57,-121.87"/>
<text text-anchor="middle" x="333.5" y="-189.98" font-family="Helvetica,sans-Serif" font-size="10.00"> path_</text>
<text text-anchor="middle" x="333.5" y="-178.98" font-family="Helvetica,sans-Serif" font-size="10.00">redirect_url_</text>
<text text-anchor="middle" x="333.5" y="-167.98" font-family="Helvetica,sans-Serif" font-size="10.00">root_</text>
<text text-anchor="middle" x="333.5" y="-156.98" font-family="Helvetica,sans-Serif" font-size="10.00">upload_store_</text>
</g>
<!-- Node5&#45;&gt;Node4 -->
<g id="edge4" class="edge">
<title>Node5&#45;&gt;Node4</title>
<path fill="none" stroke="#9a32cd" stroke-dasharray="5,2" d="M202.38,-109.98C225,-109.98 253.73,-109.98 278.44,-109.98"/>
<polygon fill="#9a32cd" stroke="#9a32cd" points="202.14,-106.48 192.14,-109.98 202.14,-113.48 202.14,-106.48"/>
<text text-anchor="middle" x="231.5" y="-123.98" font-family="Helvetica,sans-Serif" font-size="10.00"> elements</text>
<text text-anchor="middle" x="231.5" y="-112.98" font-family="Helvetica,sans-Serif" font-size="10.00">keys</text>
</g>
<!-- Node7 -->
<g id="node7" class="node">
<title>Node7</title>
<g id="a_node7"><a xlink:title=" ">
<polygon fill="white" stroke="#bfbfbf" points="271,-56.48 271,-75.48 396,-75.48 396,-56.48 271,-56.48"/>
<text text-anchor="middle" x="333.5" y="-63.48" font-family="Helvetica,sans-Serif" font-size="10.00">std::vector&lt; std::string &gt;</text>
</a>
</g>
</g>
<!-- Node5&#45;&gt;Node7 -->
<g id="edge8" class="edge">
<title>Node5&#45;&gt;Node7</title>
<path fill="none" stroke="#9a32cd" stroke-dasharray="5,2" d="M201.47,-97.44C204.35,-96.58 207.21,-95.75 210,-94.98 235.9,-87.79 265.19,-80.82 288.64,-75.51"/>
<polygon fill="#9a32cd" stroke="#9a32cd" points="200.26,-94.15 191.73,-100.43 202.32,-100.84 200.26,-94.15"/>
<text text-anchor="middle" x="231.5" y="-97.98" font-family="Helvetica,sans-Serif" font-size="10.00"> elements</text>
</g>
<!-- Node8 -->
<g id="node8" class="node">
<title>Node8</title>
<g id="a_node8"><a xlink:title=" ">
<polygon fill="white" stroke="#bfbfbf" points="414,-8.98 414,-38.98 508,-38.98 508,-8.98 414,-8.98"/>
<text text-anchor="start" x="422" y="-26.98" font-family="Helvetica,sans-Serif" font-size="10.00">std::map&lt; int, std</text>
<text text-anchor="middle" x="461" y="-15.98" font-family="Helvetica,sans-Serif" font-size="10.00">::string &gt;</text>
</a>
</g>
</g>
<!-- Node5&#45;&gt;Node8 -->
<g id="edge11" class="edge">
<title>Node5&#45;&gt;Node8</title>
<path fill="none" stroke="#9a32cd" stroke-dasharray="5,2" d="M179.71,-93.28C188.23,-85.44 199.09,-76.42 210,-69.98 273.67,-32.43 361.05,-24.33 413.85,-23.21"/>
<polygon fill="#9a32cd" stroke="#9a32cd" points="177.14,-90.89 172.32,-100.33 181.97,-95.96 177.14,-90.89"/>
<text text-anchor="middle" x="231.5" y="-72.98" font-family="Helvetica,sans-Serif" font-size="10.00"> elements</text>
</g>
<!-- Node6 -->
<g id="node6" class="node">
<title>Node6</title>
<g id="a_node6"><a xlink:title=" ">
<polygon fill="white" stroke="#bfbfbf" points="0,-94.98 0,-124.98 95,-124.98 95,-94.98 0,-94.98"/>
<text text-anchor="start" x="8" y="-112.98" font-family="Helvetica,sans-Serif" font-size="10.00">std::basic_string&lt;</text>
<text text-anchor="middle" x="47.5" y="-101.98" font-family="Helvetica,sans-Serif" font-size="10.00"> Char &gt;</text>
</a>
</g>
</g>
<!-- Node6&#45;&gt;Node5 -->
<g id="edge5" class="edge">
<title>Node6&#45;&gt;Node5</title>
<path fill="none" stroke="midnightblue" d="M105.53,-109.98C114.68,-109.98 123.8,-109.98 131.93,-109.98"/>
<polygon fill="midnightblue" stroke="midnightblue" points="105.23,-106.48 95.23,-109.98 105.23,-113.48 105.23,-106.48"/>
</g>
<!-- Node7&#45;&gt;Node1 -->
<g id="edge12" class="edge">
<title>Node7&#45;&gt;Node1</title>
<path fill="none" stroke="#9a32cd" stroke-dasharray="5,2" d="M406.68,-68.16C437.85,-69.19 474.73,-70.51 508,-71.98 666.69,-79.02 855.89,-90.1 933.77,-94.78"/>
<polygon fill="#9a32cd" stroke="#9a32cd" points="406.45,-64.65 396.34,-67.83 406.22,-71.65 406.45,-64.65"/>
<text text-anchor="middle" x="656" y="-83.98" font-family="Helvetica,sans-Serif" font-size="10.00"> indexes_</text>
</g>
<!-- Node7&#45;&gt;Node3 -->
<g id="edge7" class="edge">
<title>Node7&#45;&gt;Node3</title>
<path fill="none" stroke="#9a32cd" stroke-dasharray="5,2" d="M406.19,-69.57C438.19,-72.97 475.85,-79.5 508,-91.98 525.87,-98.92 543.78,-112.15 554.87,-121.26"/>
<polygon fill="#9a32cd" stroke="#9a32cd" points="406.31,-66.07 396.01,-68.58 405.62,-73.03 406.31,-66.07"/>
<text text-anchor="middle" x="461" y="-105.98" font-family="Helvetica,sans-Serif" font-size="10.00"> allowed_methods_</text>
<text text-anchor="middle" x="461" y="-94.98" font-family="Helvetica,sans-Serif" font-size="10.00">indexes_</text>
</g>
<!-- Node8&#45;&gt;Node1 -->
<g id="edge10" class="edge">
<title>Node8&#45;&gt;Node1</title>
<path fill="none" stroke="#9a32cd" stroke-dasharray="5,2" d="M517.99,-13.53C606.92,0.31 783.89,16.49 916,-43.98 936.78,-53.49 954.26,-74.56 963.33,-87.08"/>
<polygon fill="#9a32cd" stroke="#9a32cd" points="517.43,-10.08 508.11,-15.12 518.54,-16.99 517.43,-10.08"/>
<text text-anchor="middle" x="656" y="-4.98" font-family="Helvetica,sans-Serif" font-size="10.00"> error_pages_</text>
</g>
</g>
</svg>
