<?xml version="1.0" encoding="UTF-8" standalone="no"?>
<!DOCTYPE svg PUBLIC "-//W3C//DTD SVG 1.1//EN"
 "http://www.w3.org/Graphics/SVG/1.1/DTD/svg11.dtd">
<!-- Generated by graphviz version 2.43.0 (0)
 -->
<!-- Title: Client::startCgi Pages: 1 -->
<svg width="800pt" height="341pt"
 viewBox="0.00 0.00 800.00 340.50" xmlns="http://www.w3.org/2000/svg" xmlns:xlink="http://www.w3.org/1999/xlink">
<g id="graph0" class="graph" transform="scale(1 1) rotate(0) translate(4 336.5)">
<title>Client::startCgi</title>
<polygon fill="white" stroke="transparent" points="-4,4 -4,-336.5 796,-336.5 796,4 -4,4"/>
<!-- Node1 -->
<g id="node1" class="node">
<title>Node1</title>
<g id="a_node1"><a xlink:title=" ">
<polygon fill="#bfbfbf" stroke="black" points="0,-123 0,-142 83,-142 83,-123 0,-123"/>
<text text-anchor="middle" x="41.5" y="-130" font-family="Helvetica,sans-Serif" font-size="10.00">Client::startCgi</text>
</a>
</g>
</g>
<!-- Node2 -->
<g id="node2" class="node">
<title>Node2</title>
<g id="a_node2"><a xlink:href="classClient.html#a2e0da898af07e89fcfd83fe5a3077256" target="_top" xlink:title=" ">
<polygon fill="white" stroke="black" points="119,-123 119,-142 217,-142 217,-123 119,-123"/>
<text text-anchor="middle" x="168" y="-130" font-family="Helvetica,sans-Serif" font-size="10.00">Client::executeCgi</text>
</a>
</g>
</g>
<!-- Node1&#45;&gt;Node2 -->
<g id="edge1" class="edge">
<title>Node1&#45;&gt;Node2</title>
<path fill="none" stroke="midnightblue" d="M83.27,-132.5C91.42,-132.5 100.14,-132.5 108.75,-132.5"/>
<polygon fill="midnightblue" stroke="midnightblue" points="108.78,-136 118.78,-132.5 108.78,-129 108.78,-136"/>
</g>
<!-- Node3 -->
<g id="node3" class="node">
<title>Node3</title>
<g id="a_node3"><a xlink:href="classCgiExecutor.html#a449e349a961449c342e4612d131bda8e" target="_top" xlink:title=" ">
<polygon fill="white" stroke="black" points="261,-237 261,-256 400,-256 400,-237 261,-237"/>
<text text-anchor="middle" x="330.5" y="-244" font-family="Helvetica,sans-Serif" font-size="10.00">CgiExecutor::executeAsync</text>
</a>
</g>
</g>
<!-- Node2&#45;&gt;Node3 -->
<g id="edge2" class="edge">
<title>Node2&#45;&gt;Node3</title>
<path fill="none" stroke="midnightblue" d="M174.6,-142.02C186.47,-161.32 216.1,-205.13 253,-227.5 256.62,-229.7 260.48,-231.64 264.48,-233.36"/>
<polygon fill="midnightblue" stroke="midnightblue" points="263.39,-236.69 273.98,-236.97 265.88,-230.14 263.39,-236.69"/>
</g>
<!-- Node18 -->
<g id="node18" class="node">
<title>Node18</title>
<g id="a_node18"><a xlink:href="classCgiProcess.html#a9716e52b70fda0486a075305bfae19a6" target="_top" xlink:title=" ">
<polygon fill="white" stroke="black" points="273,-199 273,-218 388,-218 388,-199 273,-199"/>
<text text-anchor="middle" x="330.5" y="-206" font-family="Helvetica,sans-Serif" font-size="10.00">CgiProcess::getPipeIn</text>
</a>
</g>
</g>
<!-- Node2&#45;&gt;Node18 -->
<g id="edge18" class="edge">
<title>Node2&#45;&gt;Node18</title>
<path fill="none" stroke="midnightblue" d="M180.18,-142.02C195.59,-154.66 224.68,-176.86 253,-189.5 258.44,-191.93 264.25,-194.08 270.14,-195.98"/>
<polygon fill="midnightblue" stroke="midnightblue" points="269.49,-199.44 280.07,-198.95 271.49,-192.73 269.49,-199.44"/>
</g>
<!-- Node19 -->
<g id="node19" class="node">
<title>Node19</title>
<g id="a_node19"><a xlink:href="classCgiProcess.html#ad9430b4680f7ad7316f6df7710e06b3f" target="_top" xlink:title=" ">
<polygon fill="white" stroke="black" points="269.5,-161 269.5,-180 391.5,-180 391.5,-161 269.5,-161"/>
<text text-anchor="middle" x="330.5" y="-168" font-family="Helvetica,sans-Serif" font-size="10.00">CgiProcess::getPipeOut</text>
</a>
</g>
</g>
<!-- Node2&#45;&gt;Node19 -->
<g id="edge19" class="edge">
<title>Node2&#45;&gt;Node19</title>
<path fill="none" stroke="midnightblue" d="M209.5,-142.09C230.68,-147.1 256.8,-153.29 279.26,-158.61"/>
<polygon fill="midnightblue" stroke="midnightblue" points="278.75,-162.08 289.29,-160.98 280.37,-155.27 278.75,-162.08"/>
</g>
<!-- Node20 -->
<g id="node20" class="node">
<title>Node20</title>
<g id="a_node20"><a xlink:href="classHttpParser.html#ac152c0d7912d2e757516c3d8f1b9891b" target="_top" xlink:title=" ">
<polygon fill="white" stroke="black" points="270.5,-123 270.5,-142 390.5,-142 390.5,-123 270.5,-123"/>
<text text-anchor="middle" x="330.5" y="-130" font-family="Helvetica,sans-Serif" font-size="10.00">HttpParser::getRequest</text>
</a>
</g>
</g>
<!-- Node2&#45;&gt;Node20 -->
<g id="edge20" class="edge">
<title>Node2&#45;&gt;Node20</title>
<path fill="none" stroke="midnightblue" d="M217.16,-132.5C230.6,-132.5 245.49,-132.5 259.91,-132.5"/>
<polygon fill="midnightblue" stroke="midnightblue" points="260.3,-136 270.3,-132.5 260.3,-129 260.3,-136"/>
</g>
<!-- Node21 -->
<g id="node21" class="node">
<title>Node21</title>
<g id="a_node21"><a xlink:href="classHttpRequest.html#ac2a5d18d42289a03b57215c98d8df41e" target="_top" xlink:title=" ">
<polygon fill="white" stroke="black" points="268,-85 268,-104 393,-104 393,-85 268,-85"/>
<text text-anchor="middle" x="330.5" y="-92" font-family="Helvetica,sans-Serif" font-size="10.00">HttpRequest::getVersion</text>
</a>
</g>
</g>
<!-- Node2&#45;&gt;Node21 -->
<g id="edge21" class="edge">
<title>Node2&#45;&gt;Node21</title>
<path fill="none" stroke="midnightblue" d="M209.5,-122.91C230.68,-117.9 256.8,-111.71 279.26,-106.39"/>
<polygon fill="midnightblue" stroke="midnightblue" points="280.37,-109.73 289.29,-104.02 278.75,-102.92 280.37,-109.73"/>
</g>
<!-- Node22 -->
<g id="node22" class="node">
<title>Node22</title>
<g id="a_node22"><a xlink:href="classServerManager.html#a39ba2418a65f3fe96057e7dfbf050db0" target="_top" xlink:title=" ">
<polygon fill="white" stroke="black" points="253,-47 253,-66 408,-66 408,-47 253,-47"/>
<text text-anchor="middle" x="330.5" y="-54" font-family="Helvetica,sans-Serif" font-size="10.00">ServerManager::registerCgiPipe</text>
</a>
</g>
</g>
<!-- Node2&#45;&gt;Node22 -->
<g id="edge22" class="edge">
<title>Node2&#45;&gt;Node22</title>
<path fill="none" stroke="midnightblue" d="M180.18,-122.98C195.59,-110.34 224.68,-88.14 253,-75.5 258.44,-73.07 264.25,-70.92 270.14,-69.02"/>
<polygon fill="midnightblue" stroke="midnightblue" points="271.49,-72.27 280.07,-66.05 269.49,-65.56 271.49,-72.27"/>
</g>
<!-- Node24 -->
<g id="node24" class="node">
<title>Node24</title>
<g id="a_node24"><a xlink:href="classHttpRequest.html#ab5fb89c5ad17f9433e6798477fd4d8e8" target="_top" xlink:title="Verifica si se debe cerrar la conexión con el cliente después de enviar la respuesta.">
<polygon fill="white" stroke="black" points="460,-0.5 460,-30.5 592,-30.5 592,-0.5 460,-0.5"/>
<text text-anchor="start" x="468" y="-18.5" font-family="Helvetica,sans-Serif" font-size="10.00">HttpRequest::shouldClose</text>
<text text-anchor="middle" x="526" y="-7.5" font-family="Helvetica,sans-Serif" font-size="10.00">Connection</text>
</a>
</g>
</g>
<!-- Node2&#45;&gt;Node24 -->
<g id="edge24" class="edge">
<title>Node2&#45;&gt;Node24</title>
<path fill="none" stroke="midnightblue" d="M174.15,-122.78C185.38,-102.7 214.21,-56.9 253,-37.5 314.16,-6.91 392.82,-3.82 449.8,-6.95"/>
<polygon fill="midnightblue" stroke="midnightblue" points="449.62,-10.44 459.82,-7.57 450.06,-3.46 449.62,-10.44"/>
</g>
<!-- Node4 -->
<g id="node4" class="node">
<title>Node4</title>
<g id="a_node4"><a xlink:href="CgiExecutor_8cpp.html#abcb00127e3438f917615431df567802b" target="_top" xlink:title=" ">
<polygon fill="white" stroke="black" points="492.5,-313 492.5,-332 559.5,-332 559.5,-313 492.5,-313"/>
<text text-anchor="middle" x="526" y="-320" font-family="Helvetica,sans-Serif" font-size="10.00">closeIfValid</text>
</a>
</g>
</g>
<!-- Node3&#45;&gt;Node4 -->
<g id="edge3" class="edge">
<title>Node3&#45;&gt;Node4</title>
<path fill="none" stroke="midnightblue" d="M347.35,-256.07C368.65,-268.56 408,-290.37 444,-303.5 456.21,-307.95 469.84,-311.62 482.38,-314.51"/>
<polygon fill="midnightblue" stroke="midnightblue" points="481.64,-317.93 492.16,-316.65 483.14,-311.09 481.64,-317.93"/>
</g>
<!-- Node5 -->
<g id="node5" class="node">
<title>Node5</title>
<g id="a_node5"><a xlink:href="classCgiExecutor.html#a82f74408b92879b5909c44f81d2438f8" target="_top" xlink:title=" ">
<polygon fill="white" stroke="black" points="454,-275 454,-294 598,-294 598,-275 454,-275"/>
<text text-anchor="middle" x="526" y="-282" font-family="Helvetica,sans-Serif" font-size="10.00">CgiExecutor::createEnvArray</text>
</a>
</g>
</g>
<!-- Node3&#45;&gt;Node5 -->
<g id="edge4" class="edge">
<title>Node3&#45;&gt;Node5</title>
<path fill="none" stroke="midnightblue" d="M380.33,-256.09C406.55,-261.24 439.06,-267.62 466.62,-273.03"/>
<polygon fill="midnightblue" stroke="midnightblue" points="466.04,-276.49 476.52,-274.98 467.38,-269.62 466.04,-276.49"/>
</g>
<!-- Node6 -->
<g id="node6" class="node">
<title>Node6</title>
<g id="a_node6"><a xlink:href="classHttpRequest.html#aa727937b993d7df56a9d99b37d6be672" target="_top" xlink:title=" ">
<polygon fill="white" stroke="black" points="661,-310 661,-329 775,-329 775,-310 661,-310"/>
<text text-anchor="middle" x="718" y="-317" font-family="Helvetica,sans-Serif" font-size="10.00">HttpRequest::getBody</text>
</a>
</g>
</g>
<!-- Node3&#45;&gt;Node6 -->
<g id="edge5" class="edge">
<title>Node3&#45;&gt;Node6</title>
<path fill="none" stroke="midnightblue" d="M400.27,-238.46C458.22,-234.6 541.99,-236.02 608,-265.5 628.38,-274.6 624.56,-289.55 644,-300.5 647.96,-302.73 652.18,-304.7 656.53,-306.45"/>
<polygon fill="midnightblue" stroke="midnightblue" points="655.6,-309.83 666.19,-309.92 657.96,-303.25 655.6,-309.83"/>
</g>
<!-- Node7 -->
<g id="node7" class="node">
<title>Node7</title>
<g id="a_node7"><a xlink:href="classServerConfig.html#a6d5c3238d2d89e315d7255974a36d618" target="_top" xlink:title=" ">
<polygon fill="white" stroke="black" points="454.5,-199 454.5,-218 597.5,-218 597.5,-199 454.5,-199"/>
<text text-anchor="middle" x="526" y="-206" font-family="Helvetica,sans-Serif" font-size="10.00">ServerConfig::getCgiTimeout</text>
</a>
</g>
</g>
<!-- Node3&#45;&gt;Node7 -->
<g id="edge6" class="edge">
<title>Node3&#45;&gt;Node7</title>
<path fill="none" stroke="midnightblue" d="M380.33,-236.91C406.55,-231.76 439.06,-225.38 466.62,-219.97"/>
<polygon fill="midnightblue" stroke="midnightblue" points="467.38,-223.38 476.52,-218.02 466.04,-216.51 467.38,-223.38"/>
</g>
<!-- Node8 -->
<g id="node8" class="node">
<title>Node8</title>
<g id="a_node8"><a xlink:href="classCgiExecutor.html#ad97592b573c577e6bae11662ec683910" target="_top" xlink:title=" ">
<polygon fill="white" stroke="black" points="444,-161 444,-180 608,-180 608,-161 444,-161"/>
<text text-anchor="middle" x="526" y="-168" font-family="Helvetica,sans-Serif" font-size="10.00">CgiExecutor::prepareEnvironment</text>
</a>
</g>
</g>
<!-- Node3&#45;&gt;Node8 -->
<g id="edge7" class="edge">
<title>Node3&#45;&gt;Node8</title>
<path fill="none" stroke="midnightblue" d="M386.5,-236.9C394,-234.44 401.38,-231.36 408,-227.5 428.1,-215.78 423.83,-201.09 444,-189.5 447.91,-187.25 452.07,-185.27 456.36,-183.53"/>
<polygon fill="midnightblue" stroke="midnightblue" points="457.71,-186.76 465.92,-180.06 455.33,-180.18 457.71,-186.76"/>
</g>
<!-- Node17 -->
<g id="node17" class="node">
<title>Node17</title>
<g id="a_node17"><a xlink:href="classCgiExecutor.html#a4ccb7df600011595abda3893d14a1f3f" target="_top" xlink:title=" ">
<polygon fill="white" stroke="black" points="453,-123 453,-142 599,-142 599,-123 453,-123"/>
<text text-anchor="middle" x="526" y="-130" font-family="Helvetica,sans-Serif" font-size="10.00">CgiExecutor::setNonBlocking</text>
</a>
</g>
</g>
<!-- Node3&#45;&gt;Node17 -->
<g id="edge17" class="edge">
<title>Node3&#45;&gt;Node17</title>
<path fill="none" stroke="midnightblue" d="M392.41,-236.84C398.02,-234.38 403.34,-231.31 408,-227.5 436.92,-203.83 414.92,-174.98 444,-151.5 446.06,-149.83 448.25,-148.31 450.53,-146.91"/>
<polygon fill="midnightblue" stroke="midnightblue" points="452.45,-149.85 459.72,-142.14 449.23,-143.64 452.45,-149.85"/>
</g>
<!-- Node8&#45;&gt;Node6 -->
<g id="edge8" class="edge">
<title>Node8&#45;&gt;Node6</title>
<path fill="none" stroke="midnightblue" d="M594,-180.09C599.09,-182.59 603.85,-185.69 608,-189.5 646.17,-224.62 606.26,-264.92 644,-300.5 646.43,-302.79 649.1,-304.81 651.94,-306.6"/>
<polygon fill="midnightblue" stroke="midnightblue" points="650.4,-309.75 660.89,-311.28 653.64,-303.54 650.4,-309.75"/>
</g>
<!-- Node9 -->
<g id="node9" class="node">
<title>Node9</title>
<g id="a_node9"><a xlink:href="classHttpRequest.html#ab537cb11b054734695ee4889d88aec6d" target="_top" xlink:title="Obtiene un header específico de la petición.">
<polygon fill="white" stroke="black" points="656.5,-6 656.5,-25 779.5,-25 779.5,-6 656.5,-6"/>
<text text-anchor="middle" x="718" y="-13" font-family="Helvetica,sans-Serif" font-size="10.00">HttpRequest::getHeader</text>
</a>
</g>
</g>
<!-- Node8&#45;&gt;Node9 -->
<g id="edge9" class="edge">
<title>Node8&#45;&gt;Node9</title>
<path fill="none" stroke="midnightblue" d="M594.06,-160.98C599.14,-158.46 603.88,-155.35 608,-151.5 647.76,-114.36 604.69,-72.12 644,-34.5 645.49,-33.07 647.07,-31.75 648.73,-30.52"/>
<polygon fill="midnightblue" stroke="midnightblue" points="650.84,-33.34 657.58,-25.16 647.21,-27.35 650.84,-33.34"/>
</g>
<!-- Node10 -->
<g id="node10" class="node">
<title>Node10</title>
<g id="a_node10"><a xlink:href="classHttpRequest.html#a08c95fd7197579a81bbed722db6a8cc9" target="_top" xlink:title="Obtiene todos los headers de la petición.">
<polygon fill="white" stroke="black" points="654,-272 654,-291 782,-291 782,-272 654,-272"/>
<text text-anchor="middle" x="718" y="-279" font-family="Helvetica,sans-Serif" font-size="10.00">HttpRequest::getHeaders</text>
</a>
</g>
</g>
<!-- Node8&#45;&gt;Node10 -->
<g id="edge10" class="edge">
<title>Node8&#45;&gt;Node10</title>
<path fill="none" stroke="midnightblue" d="M591.81,-180.05C597.62,-182.53 603.14,-185.64 608,-189.5 636.32,-212.01 615.95,-239.65 644,-262.5 646.09,-264.2 648.31,-265.75 650.63,-267.16"/>
<polygon fill="midnightblue" stroke="midnightblue" points="649.52,-270.53 660.02,-271.96 652.71,-264.29 649.52,-270.53"/>
</g>
<!-- Node11 -->
<g id="node11" class="node">
<title>Node11</title>
<g id="a_node11"><a xlink:href="classHttpRequest.html#adf523a5345b525702a858f8792bab8ea" target="_top" xlink:title=" ">
<polygon fill="white" stroke="black" points="656,-234 656,-253 780,-253 780,-234 656,-234"/>
<text text-anchor="middle" x="718" y="-241" font-family="Helvetica,sans-Serif" font-size="10.00">HttpRequest::getMethod</text>
</a>
</g>
</g>
<!-- Node8&#45;&gt;Node11 -->
<g id="edge11" class="edge">
<title>Node8&#45;&gt;Node11</title>
<path fill="none" stroke="midnightblue" d="M585.08,-180.06C593.04,-182.52 600.9,-185.62 608,-189.5 627.57,-200.22 624.56,-213.55 644,-224.5 647.96,-226.73 652.18,-228.7 656.53,-230.45"/>
<polygon fill="midnightblue" stroke="midnightblue" points="655.6,-233.83 666.19,-233.92 657.96,-227.25 655.6,-233.83"/>
</g>
<!-- Node12 -->
<g id="node12" class="node">
<title>Node12</title>
<g id="a_node12"><a xlink:href="classHttpRequest.html#acde519e492e10352bc39d6a3bcd857b2" target="_top" xlink:title=" ">
<polygon fill="white" stroke="black" points="662,-196 662,-215 774,-215 774,-196 662,-196"/>
<text text-anchor="middle" x="718" y="-203" font-family="Helvetica,sans-Serif" font-size="10.00">HttpRequest::getPath</text>
</a>
</g>
</g>
<!-- Node8&#45;&gt;Node12 -->
<g id="edge12" class="edge">
<title>Node8&#45;&gt;Node12</title>
<path fill="none" stroke="midnightblue" d="M578.67,-180.02C602.33,-184.38 630.56,-189.58 655.32,-194.14"/>
<polygon fill="midnightblue" stroke="midnightblue" points="654.87,-197.61 665.34,-195.98 656.14,-190.73 654.87,-197.61"/>
</g>
<!-- Node13 -->
<g id="node13" class="node">
<title>Node13</title>
<g id="a_node13"><a xlink:href="classServerConfig.html#afab0e296905ba9053273c36b250a2420" target="_top" xlink:title=" ">
<polygon fill="white" stroke="black" points="662.5,-158 662.5,-177 773.5,-177 773.5,-158 662.5,-158"/>
<text text-anchor="middle" x="718" y="-165" font-family="Helvetica,sans-Serif" font-size="10.00">ServerConfig::getPort</text>
</a>
</g>
</g>
<!-- Node8&#45;&gt;Node13 -->
<g id="edge13" class="edge">
<title>Node8&#45;&gt;Node13</title>
<path fill="none" stroke="midnightblue" d="M608.13,-169.22C622.9,-168.99 638.13,-168.75 652.34,-168.52"/>
<polygon fill="midnightblue" stroke="midnightblue" points="652.55,-172.02 662.5,-168.36 652.44,-165.02 652.55,-172.02"/>
</g>
<!-- Node14 -->
<g id="node14" class="node">
<title>Node14</title>
<g id="a_node14"><a xlink:href="classHttpRequest.html#a579bc045f297b854a798e6a2d21b9502" target="_top" xlink:title=" ">
<polygon fill="white" stroke="black" points="659,-120 659,-139 777,-139 777,-120 659,-120"/>
<text text-anchor="middle" x="718" y="-127" font-family="Helvetica,sans-Serif" font-size="10.00">HttpRequest::getQuery</text>
</a>
</g>
</g>
<!-- Node8&#45;&gt;Node14 -->
<g id="edge14" class="edge">
<title>Node8&#45;&gt;Node14</title>
<path fill="none" stroke="midnightblue" d="M571.07,-160.99C598.43,-155.09 633.79,-147.46 662.85,-141.19"/>
<polygon fill="midnightblue" stroke="midnightblue" points="663.81,-144.56 672.84,-139.03 662.33,-137.72 663.81,-144.56"/>
</g>
<!-- Node15 -->
<g id="node15" class="node">
<title>Node15</title>
<g id="a_node15"><a xlink:href="classServerConfig.html#aa04c77f5ee06781c5830e2ad55f6463e" target="_top" xlink:title=" ">
<polygon fill="white" stroke="black" points="644,-82 644,-101 792,-101 792,-82 644,-82"/>
<text text-anchor="middle" x="718" y="-89" font-family="Helvetica,sans-Serif" font-size="10.00">ServerConfig::getServerName</text>
</a>
</g>
</g>
<!-- Node8&#45;&gt;Node15 -->
<g id="edge15" class="edge">
<title>Node8&#45;&gt;Node15</title>
<path fill="none" stroke="midnightblue" d="M587.06,-160.89C594.39,-158.44 601.56,-155.36 608,-151.5 628.8,-139.03 623.36,-123.23 644,-110.5 647.41,-108.4 651.06,-106.52 654.82,-104.86"/>
<polygon fill="midnightblue" stroke="midnightblue" points="656.34,-108.02 664.38,-101.12 653.79,-101.5 656.34,-108.02"/>
</g>
<!-- Node16 -->
<g id="node16" class="node">
<title>Node16</title>
<g id="a_node16"><a xlink:href="RequestProcessorUtils_8cpp.html#a390b94b66217f7a8dacf76cf769d07c7" target="_top" xlink:title=" ">
<polygon fill="white" stroke="black" points="675.5,-44 675.5,-63 760.5,-63 760.5,-44 675.5,-44"/>
<text text-anchor="middle" x="718" y="-51" font-family="Helvetica,sans-Serif" font-size="10.00">methodToString</text>
</a>
</g>
</g>
<!-- Node8&#45;&gt;Node16 -->
<g id="edge16" class="edge">
<title>Node8&#45;&gt;Node16</title>
<path fill="none" stroke="midnightblue" d="M592.34,-160.93C597.98,-158.44 603.31,-155.35 608,-151.5 637.84,-127.03 614.46,-97.33 644,-72.5 650.27,-67.23 657.84,-63.4 665.69,-60.62"/>
<polygon fill="midnightblue" stroke="midnightblue" points="666.77,-63.95 675.35,-57.73 664.76,-57.25 666.77,-63.95"/>
</g>
<!-- Node23 -->
<g id="node23" class="node">
<title>Node23</title>
<g id="a_node23"><a xlink:href="classEpollWrapper.html#a9d1a1f203f959547001099718dd957ea" target="_top" xlink:title=" ">
<polygon fill="white" stroke="black" points="472.5,-50 472.5,-69 579.5,-69 579.5,-50 472.5,-50"/>
<text text-anchor="middle" x="526" y="-57" font-family="Helvetica,sans-Serif" font-size="10.00">EpollWrapper::addFd</text>
</a>
</g>
</g>
<!-- Node22&#45;&gt;Node23 -->
<g id="edge23" class="edge">
<title>Node22&#45;&gt;Node23</title>
<path fill="none" stroke="midnightblue" d="M408.25,-57.69C426.08,-57.97 444.85,-58.26 462.01,-58.52"/>
<polygon fill="midnightblue" stroke="midnightblue" points="462.4,-62.03 472.45,-58.69 462.51,-55.03 462.4,-62.03"/>
</g>
<!-- Node24&#45;&gt;Node9 -->
<g id="edge25" class="edge">
<title>Node24&#45;&gt;Node9</title>
<path fill="none" stroke="midnightblue" d="M592.12,-15.5C609.54,-15.5 628.46,-15.5 646.17,-15.5"/>
<polygon fill="midnightblue" stroke="midnightblue" points="646.44,-19 656.44,-15.5 646.44,-12 646.44,-19"/>
</g>
</g>
</svg>
