<?xml version="1.0" encoding="UTF-8" standalone="no"?>
<!DOCTYPE svg PUBLIC "-//W3C//DTD SVG 1.1//EN"
 "http://www.w3.org/Graphics/SVG/1.1/DTD/svg11.dtd">
<!-- Generated by graphviz version 2.43.0 (0)
 -->
<!-- Title: HttpRequest::clear Pages: 1 -->
<svg width="887pt" height="91pt"
 viewBox="0.00 0.00 887.00 90.50" xmlns="http://www.w3.org/2000/svg" xmlns:xlink="http://www.w3.org/1999/xlink">
<g id="graph0" class="graph" transform="scale(1 1) rotate(0) translate(4 86.5)">
<title>HttpRequest::clear</title>
<polygon fill="white" stroke="transparent" points="-4,4 -4,-86.5 883,-86.5 883,4 -4,4"/>
<!-- Node1 -->
<g id="node1" class="node">
<title>Node1</title>
<g id="a_node1"><a xlink:title="Limpia el request porque se puede reutilizar el objeto para otra petición y se debe limpiar el estado...">
<polygon fill="#bfbfbf" stroke="black" points="780,-44 780,-63 879,-63 879,-44 780,-44"/>
<text text-anchor="middle" x="829.5" y="-51" font-family="Helvetica,sans-Serif" font-size="10.00">HttpRequest::clear</text>
</a>
</g>
</g>
<!-- Node2 -->
<g id="node2" class="node">
<title>Node2</title>
<g id="a_node2"><a xlink:href="classHttpParser.html#aef14a43b25083b06fe9a8df3f5f4fbc1" target="_top" xlink:title=" ">
<polygon fill="white" stroke="black" points="652,-44 652,-63 744,-63 744,-44 652,-44"/>
<text text-anchor="middle" x="698" y="-51" font-family="Helvetica,sans-Serif" font-size="10.00">HttpParser::reset</text>
</a>
</g>
</g>
<!-- Node1&#45;&gt;Node2 -->
<g id="edge1" class="edge">
<title>Node1&#45;&gt;Node2</title>
<path fill="none" stroke="midnightblue" d="M769.84,-53.5C761.17,-53.5 752.35,-53.5 744.01,-53.5"/>
<polygon fill="midnightblue" stroke="midnightblue" points="769.91,-57 779.91,-53.5 769.91,-50 769.91,-57"/>
</g>
<!-- Node3 -->
<g id="node3" class="node">
<title>Node3</title>
<g id="a_node3"><a xlink:href="classHttpParser.html#af7002e51bff670c75f36f09cffcfad10" target="_top" xlink:title=" ">
<polygon fill="white" stroke="black" points="495,-63 495,-82 612,-82 612,-63 495,-63"/>
<text text-anchor="middle" x="553.5" y="-70" font-family="Helvetica,sans-Serif" font-size="10.00">HttpParser::HttpParser</text>
</a>
</g>
</g>
<!-- Node2&#45;&gt;Node3 -->
<g id="edge2" class="edge">
<title>Node2&#45;&gt;Node3</title>
<path fill="none" stroke="midnightblue" d="M641.92,-60.84C632.14,-62.15 621.94,-63.51 612.1,-64.82"/>
<polygon fill="midnightblue" stroke="midnightblue" points="642.46,-64.3 651.91,-59.51 641.54,-57.36 642.46,-64.3"/>
</g>
<!-- Node4 -->
<g id="node4" class="node">
<title>Node4</title>
<g id="a_node4"><a xlink:href="classClient.html#a950fd2ab8ac20c9be4c5e722344d6fe2" target="_top" xlink:title=" ">
<polygon fill="white" stroke="black" points="491,-25 491,-44 616,-44 616,-25 491,-25"/>
<text text-anchor="middle" x="553.5" y="-32" font-family="Helvetica,sans-Serif" font-size="10.00">Client::processRequests</text>
</a>
</g>
</g>
<!-- Node2&#45;&gt;Node4 -->
<g id="edge3" class="edge">
<title>Node2&#45;&gt;Node4</title>
<path fill="none" stroke="midnightblue" d="M641.86,-46.15C633.46,-45.03 624.75,-43.87 616.23,-42.73"/>
<polygon fill="midnightblue" stroke="midnightblue" points="641.54,-49.64 651.91,-47.49 642.46,-42.7 641.54,-49.64"/>
</g>
<!-- Node5 -->
<g id="node5" class="node">
<title>Node5</title>
<g id="a_node5"><a xlink:href="classClient.html#a09d6029b60ae8c9773362968e72f2e54" target="_top" xlink:title=" ">
<polygon fill="white" stroke="black" points="317,-44 317,-63 455,-63 455,-44 317,-44"/>
<text text-anchor="middle" x="386" y="-51" font-family="Helvetica,sans-Serif" font-size="10.00">Client::finalizeCgiResponse</text>
</a>
</g>
</g>
<!-- Node4&#45;&gt;Node5 -->
<g id="edge4" class="edge">
<title>Node4&#45;&gt;Node5</title>
<path fill="none" stroke="midnightblue" d="M480.91,-42.72C472.33,-43.7 463.6,-44.71 455.07,-45.69"/>
<polygon fill="midnightblue" stroke="midnightblue" points="481.34,-46.19 490.87,-41.57 480.54,-39.24 481.34,-46.19"/>
</g>
<!-- Node6 -->
<g id="node6" class="node">
<title>Node6</title>
<g id="a_node6"><a xlink:href="classClient.html#ac95fe5b24fe5275bd2271bd1ac37596d" target="_top" xlink:title=" ">
<polygon fill="white" stroke="black" points="336,-6 336,-25 436,-25 436,-6 336,-6"/>
<text text-anchor="middle" x="386" y="-13" font-family="Helvetica,sans-Serif" font-size="10.00">Client::handleRead</text>
</a>
</g>
</g>
<!-- Node4&#45;&gt;Node6 -->
<g id="edge5" class="edge">
<title>Node4&#45;&gt;Node6</title>
<path fill="none" stroke="midnightblue" d="M480.56,-26.24C465.52,-24.51 449.99,-22.73 436.02,-21.13"/>
<polygon fill="midnightblue" stroke="midnightblue" points="480.54,-29.76 490.87,-27.43 481.34,-22.81 480.54,-29.76"/>
</g>
<!-- Node7 -->
<g id="node7" class="node">
<title>Node7</title>
<g id="a_node7"><a xlink:href="classServerManager.html#a9f3ca46da9df004286f90902b8daf29d" target="_top" xlink:title=" ">
<polygon fill="white" stroke="black" points="138,-0.5 138,-30.5 281,-30.5 281,-0.5 138,-0.5"/>
<text text-anchor="start" x="146" y="-18.5" font-family="Helvetica,sans-Serif" font-size="10.00">ServerManager::handleClient</text>
<text text-anchor="middle" x="209.5" y="-7.5" font-family="Helvetica,sans-Serif" font-size="10.00">Event</text>
</a>
</g>
</g>
<!-- Node6&#45;&gt;Node7 -->
<g id="edge6" class="edge">
<title>Node6&#45;&gt;Node7</title>
<path fill="none" stroke="midnightblue" d="M325.69,-15.5C311.33,-15.5 295.84,-15.5 281.02,-15.5"/>
<polygon fill="midnightblue" stroke="midnightblue" points="325.93,-19 335.93,-15.5 325.93,-12 325.93,-19"/>
</g>
<!-- Node8 -->
<g id="node8" class="node">
<title>Node8</title>
<g id="a_node8"><a xlink:href="classServerManager.html#aecc313c9b6afcab92c22269b3333c721" target="_top" xlink:title=" ">
<polygon fill="white" stroke="black" points="0,-6 0,-25 102,-25 102,-6 0,-6"/>
<text text-anchor="middle" x="51" y="-13" font-family="Helvetica,sans-Serif" font-size="10.00">ServerManager::run</text>
</a>
</g>
</g>
<!-- Node7&#45;&gt;Node8 -->
<g id="edge7" class="edge">
<title>Node7&#45;&gt;Node8</title>
<path fill="none" stroke="midnightblue" d="M127.45,-15.5C118.82,-15.5 110.23,-15.5 102.11,-15.5"/>
<polygon fill="midnightblue" stroke="midnightblue" points="127.58,-19 137.58,-15.5 127.58,-12 127.58,-19"/>
</g>
</g>
</svg>
