<?xml version="1.0" encoding="UTF-8" standalone="no"?>
<!DOCTYPE svg PUBLIC "-//W3C//DTD SVG 1.1//EN"
 "http://www.w3.org/Graphics/SVG/1.1/DTD/svg11.dtd">
<!-- Generated by graphviz version 2.43.0 (0)
 -->
<!-- Title: ConfigParser::splitContentIntoServerBlocks Pages: 1 -->
<svg width="310pt" height="39pt"
 viewBox="0.00 0.00 310.00 39.00" xmlns="http://www.w3.org/2000/svg" xmlns:xlink="http://www.w3.org/1999/xlink">
<g id="graph0" class="graph" transform="scale(1 1) rotate(0) translate(4 35)">
<title>ConfigParser::splitContentIntoServerBlocks</title>
<polygon fill="white" stroke="transparent" points="-4,4 -4,-35 306,-35 306,4 -4,4"/>
<!-- Node1 -->
<g id="node1" class="node">
<title>Node1</title>
<g id="a_node1"><a xlink:title=" ">
<polygon fill="#bfbfbf" stroke="black" points="0,-0.5 0,-30.5 132,-30.5 132,-0.5 0,-0.5"/>
<text text-anchor="start" x="8" y="-18.5" font-family="Helvetica,sans-Serif" font-size="10.00">ConfigParser::splitContent</text>
<text text-anchor="middle" x="66" y="-7.5" font-family="Helvetica,sans-Serif" font-size="10.00">IntoServerBlocks</text>
</a>
</g>
</g>
<!-- Node2 -->
<g id="node2" class="node">
<title>Node2</title>
<g id="a_node2"><a xlink:href="namespaceconfig_1_1utils.html#ad3812f29210c85c57fb4d6e619d7c889" target="_top" xlink:title="Appends content to a log file.">
<polygon fill="white" stroke="black" points="168,-0.5 168,-30.5 302,-30.5 302,-0.5 168,-0.5"/>
<text text-anchor="start" x="176" y="-18.5" font-family="Helvetica,sans-Serif" font-size="10.00">config::utils::exportContent</text>
<text text-anchor="middle" x="235" y="-7.5" font-family="Helvetica,sans-Serif" font-size="10.00">ToLogFile</text>
</a>
</g>
</g>
<!-- Node1&#45;&gt;Node2 -->
<g id="edge1" class="edge">
<title>Node1&#45;&gt;Node2</title>
<path fill="none" stroke="midnightblue" d="M132.04,-15.5C140.47,-15.5 149.16,-15.5 157.75,-15.5"/>
<polygon fill="midnightblue" stroke="midnightblue" points="157.76,-19 167.76,-15.5 157.76,-12 157.76,-19"/>
</g>
</g>
</svg>
