<?xml version="1.0" encoding="UTF-8" standalone="no"?>
<!DOCTYPE svg PUBLIC "-//W3C//DTD SVG 1.1//EN"
 "http://www.w3.org/Graphics/SVG/1.1/DTD/svg11.dtd">
<!-- Generated by graphviz version 2.43.0 (0)
 -->
<!-- Title: Client::dispatchAction Pages: 1 -->
<svg width="1104pt" height="883pt"
 viewBox="0.00 0.00 1104.00 883.00" xmlns="http://www.w3.org/2000/svg" xmlns:xlink="http://www.w3.org/1999/xlink">
<g id="graph0" class="graph" transform="scale(1 1) rotate(0) translate(4 879)">
<title>Client::dispatchAction</title>
<polygon fill="white" stroke="transparent" points="-4,4 -4,-879 1100,-879 1100,4 -4,4"/>
<!-- Node1 -->
<g id="node1" class="node">
<title>Node1</title>
<g id="a_node1"><a xlink:title=" ">
<polygon fill="#bfbfbf" stroke="black" points="0,-218.5 0,-237.5 113,-237.5 113,-218.5 0,-218.5"/>
<text text-anchor="middle" x="56.5" y="-225.5" font-family="Helvetica,sans-Serif" font-size="10.00">Client::dispatchAction</text>
</a>
</g>
</g>
<!-- Node2 -->
<g id="node2" class="node">
<title>Node2</title>
<g id="a_node2"><a xlink:href="ErrorUtils_8cpp.html#a470416220aa911b8f1274140a8322e7a" target="_top" xlink:title=" ">
<polygon fill="white" stroke="black" points="286,-114.5 286,-133.5 388,-133.5 388,-114.5 286,-114.5"/>
<text text-anchor="middle" x="337" y="-121.5" font-family="Helvetica,sans-Serif" font-size="10.00">buildErrorResponse</text>
</a>
</g>
</g>
<!-- Node1&#45;&gt;Node2 -->
<g id="edge1" class="edge">
<title>Node1&#45;&gt;Node2</title>
<path fill="none" stroke="midnightblue" d="M113.19,-232.13C153.09,-232.84 207.14,-229.12 250,-209 281.8,-194.07 308.78,-162.33 323.65,-142.14"/>
<polygon fill="midnightblue" stroke="midnightblue" points="326.65,-143.96 329.6,-133.78 320.95,-139.9 326.65,-143.96"/>
</g>
<!-- Node24 -->
<g id="node24" class="node">
<title>Node24</title>
<g id="a_node24"><a xlink:href="RequestProcessorUtils_8cpp.html#a25656255e6360598eb45b02e8ff727c7" target="_top" xlink:title=" ">
<polygon fill="white" stroke="black" points="149,-180.5 149,-199.5 250,-199.5 250,-180.5 149,-180.5"/>
<text text-anchor="middle" x="199.5" y="-187.5" font-family="Helvetica,sans-Serif" font-size="10.00">selectServerByPort</text>
</a>
</g>
</g>
<!-- Node1&#45;&gt;Node24 -->
<g id="edge29" class="edge">
<title>Node1&#45;&gt;Node24</title>
<path fill="none" stroke="midnightblue" d="M93.08,-218.41C111.28,-213.51 133.64,-207.48 153.07,-202.24"/>
<polygon fill="midnightblue" stroke="midnightblue" points="154.19,-205.57 162.93,-199.59 152.36,-198.81 154.19,-205.57"/>
</g>
<!-- Node25 -->
<g id="node25" class="node">
<title>Node25</title>
<g id="a_node25"><a xlink:href="classClient.html#a7ce261bf1858a7904f7bb9668188284b" target="_top" xlink:title=" ">
<polygon fill="white" stroke="black" points="158,-465.5 158,-484.5 241,-484.5 241,-465.5 158,-465.5"/>
<text text-anchor="middle" x="199.5" y="-472.5" font-family="Helvetica,sans-Serif" font-size="10.00">Client::startCgi</text>
</a>
</g>
</g>
<!-- Node1&#45;&gt;Node25 -->
<g id="edge30" class="edge">
<title>Node1&#45;&gt;Node25</title>
<path fill="none" stroke="midnightblue" d="M63.03,-237.68C84.13,-274.65 159.84,-407.27 187.92,-456.46"/>
<polygon fill="midnightblue" stroke="midnightblue" points="185.01,-458.43 193.01,-465.38 191.09,-454.96 185.01,-458.43"/>
</g>
<!-- Node3 -->
<g id="node3" class="node">
<title>Node3</title>
<g id="a_node3"><a xlink:href="ResponseUtils_8cpp.html#ab7c2cb6fbf297c09ec402182b04584c6" target="_top" xlink:title=" ">
<polygon fill="white" stroke="black" points="455,-285.5 455,-304.5 548,-304.5 548,-285.5 455,-285.5"/>
<text text-anchor="middle" x="501.5" y="-292.5" font-family="Helvetica,sans-Serif" font-size="10.00">fillBaseResponse</text>
</a>
</g>
</g>
<!-- Node2&#45;&gt;Node3 -->
<g id="edge2" class="edge">
<title>Node2&#45;&gt;Node3</title>
<path fill="none" stroke="midnightblue" d="M347.2,-133.68C373.68,-161.55 450.32,-242.2 484.14,-277.78"/>
<polygon fill="midnightblue" stroke="midnightblue" points="481.97,-280.58 491.4,-285.42 487.05,-275.76 481.97,-280.58"/>
</g>
<!-- Node8 -->
<g id="node8" class="node">
<title>Node8</title>
<g id="a_node8"><a xlink:href="classHttpResponse.html#a7efa3ab17ead358609d80b55db164867" target="_top" xlink:title=" ">
<polygon fill="white" stroke="black" points="823.5,-133.5 823.5,-152.5 954.5,-152.5 954.5,-133.5 823.5,-133.5"/>
<text text-anchor="middle" x="889" y="-140.5" font-family="Helvetica,sans-Serif" font-size="10.00">HttpResponse::setHeader</text>
</a>
</g>
</g>
<!-- Node2&#45;&gt;Node8 -->
<g id="edge27" class="edge">
<title>Node2&#45;&gt;Node8</title>
<path fill="none" stroke="midnightblue" d="M388.27,-125.67C470.13,-128.39 637.37,-133.99 779,-139 790.12,-139.39 801.89,-139.82 813.41,-140.24"/>
<polygon fill="midnightblue" stroke="midnightblue" points="813.33,-143.74 823.45,-140.6 813.58,-136.74 813.33,-143.74"/>
</g>
<!-- Node15 -->
<g id="node15" class="node">
<title>Node15</title>
<g id="a_node15"><a xlink:href="classHttpResponse.html#a11a67ba43096f5eb1870e65f1814d364" target="_top" xlink:title=" ">
<polygon fill="white" stroke="black" points="619.5,-76.5 619.5,-95.5 774.5,-95.5 774.5,-76.5 619.5,-76.5"/>
<text text-anchor="middle" x="697" y="-83.5" font-family="Helvetica,sans-Serif" font-size="10.00">HttpResponse::setContentType</text>
</a>
</g>
</g>
<!-- Node2&#45;&gt;Node15 -->
<g id="edge26" class="edge">
<title>Node2&#45;&gt;Node15</title>
<path fill="none" stroke="midnightblue" d="M388.39,-115.16C400.06,-113.29 412.44,-111.45 424,-110 485.76,-102.26 555.71,-96.15 609.21,-92.03"/>
<polygon fill="midnightblue" stroke="midnightblue" points="609.63,-95.5 619.34,-91.26 609.1,-88.52 609.63,-95.5"/>
</g>
<!-- Node21 -->
<g id="node21" class="node">
<title>Node21</title>
<g id="a_node21"><a xlink:href="ErrorUtils_8cpp.html#aa759f2b84e51d20fdf7801c0514c3635" target="_top" xlink:title=" ">
<polygon fill="white" stroke="black" points="459.5,-38.5 459.5,-57.5 543.5,-57.5 543.5,-38.5 459.5,-38.5"/>
<text text-anchor="middle" x="501.5" y="-45.5" font-family="Helvetica,sans-Serif" font-size="10.00">readFileToBody</text>
</a>
</g>
</g>
<!-- Node2&#45;&gt;Node21 -->
<g id="edge24" class="edge">
<title>Node2&#45;&gt;Node21</title>
<path fill="none" stroke="midnightblue" d="M351.44,-114.47C367.91,-103.13 396.96,-84.2 424,-72 433.42,-67.75 443.81,-63.94 453.82,-60.69"/>
<polygon fill="midnightblue" stroke="midnightblue" points="455.15,-63.94 463.65,-57.61 453.06,-57.26 455.15,-63.94"/>
</g>
<!-- Node22 -->
<g id="node22" class="node">
<title>Node22</title>
<g id="a_node22"><a xlink:href="RequestProcessorUtils_8cpp.html#aa9c12d87cb0781b781a580ff9bfd0c06" target="_top" xlink:title=" ">
<polygon fill="white" stroke="black" points="467.5,-0.5 467.5,-19.5 535.5,-19.5 535.5,-0.5 467.5,-0.5"/>
<text text-anchor="middle" x="501.5" y="-7.5" font-family="Helvetica,sans-Serif" font-size="10.00">resolvePath</text>
</a>
</g>
</g>
<!-- Node2&#45;&gt;Node22 -->
<g id="edge25" class="edge">
<title>Node2&#45;&gt;Node22</title>
<path fill="none" stroke="midnightblue" d="M343.79,-114.48C356.05,-95.18 386.58,-51.39 424,-29 434.08,-22.97 446,-18.84 457.4,-16.03"/>
<polygon fill="midnightblue" stroke="midnightblue" points="458.2,-19.44 467.22,-13.87 456.7,-12.6 458.2,-19.44"/>
</g>
<!-- Node23 -->
<g id="node23" class="node">
<title>Node23</title>
<g id="a_node23"><a xlink:href="ResponseUtils_8cpp.html#a1c98cd4773c38cae6781a257fa318ca7" target="_top" xlink:title=" ">
<polygon fill="white" stroke="black" points="478,-323.5 478,-342.5 525,-342.5 525,-323.5 478,-323.5"/>
<text text-anchor="middle" x="501.5" y="-330.5" font-family="Helvetica,sans-Serif" font-size="10.00">toBody</text>
</a>
</g>
</g>
<!-- Node2&#45;&gt;Node23 -->
<g id="edge28" class="edge">
<title>Node2&#45;&gt;Node23</title>
<path fill="none" stroke="midnightblue" d="M339.38,-133.66C344.37,-164.96 364.47,-264.4 424,-314 436.1,-324.08 452.78,-328.94 467.47,-331.23"/>
<polygon fill="midnightblue" stroke="midnightblue" points="467.38,-334.74 477.73,-332.48 468.23,-327.8 467.38,-334.74"/>
</g>
<!-- Node4 -->
<g id="node4" class="node">
<title>Node4</title>
<g id="a_node4"><a xlink:href="SessionUtils_8cpp.html#aabfd66406b8a4aec4237b26ff8e76a65" target="_top" xlink:title=" ">
<polygon fill="white" stroke="black" points="628,-380.5 628,-399.5 766,-399.5 766,-380.5 628,-380.5"/>
<text text-anchor="middle" x="697" y="-387.5" font-family="Helvetica,sans-Serif" font-size="10.00">addSessionCookieIfNeeded</text>
</a>
</g>
</g>
<!-- Node3&#45;&gt;Node4 -->
<g id="edge3" class="edge">
<title>Node3&#45;&gt;Node4</title>
<path fill="none" stroke="midnightblue" d="M548.27,-300.4C559.06,-303.23 570.01,-307.51 579,-314 603.29,-331.54 590.6,-353.62 615,-371 617.71,-372.93 620.58,-374.66 623.57,-376.22"/>
<polygon fill="midnightblue" stroke="midnightblue" points="622.28,-379.48 632.83,-380.4 625.16,-373.1 622.28,-379.48"/>
</g>
<!-- Node3&#45;&gt;Node8 -->
<g id="edge18" class="edge">
<title>Node3&#45;&gt;Node8</title>
<path fill="none" stroke="midnightblue" d="M508.7,-285.29C523.78,-262.61 564.8,-206.2 615,-181 676.93,-149.92 756.15,-141.84 813.28,-140.69"/>
<polygon fill="midnightblue" stroke="midnightblue" points="813.37,-144.19 823.32,-140.55 813.28,-137.19 813.37,-144.19"/>
</g>
<!-- Node10 -->
<g id="node10" class="node">
<title>Node10</title>
<g id="a_node10"><a xlink:href="classHttpRequest.html#adf523a5345b525702a858f8792bab8ea" target="_top" xlink:title=" ">
<polygon fill="white" stroke="black" points="827,-627.5 827,-646.5 951,-646.5 951,-627.5 827,-627.5"/>
<text text-anchor="middle" x="889" y="-634.5" font-family="Helvetica,sans-Serif" font-size="10.00">HttpRequest::getMethod</text>
</a>
</g>
</g>
<!-- Node3&#45;&gt;Node10 -->
<g id="edge9" class="edge">
<title>Node3&#45;&gt;Node10</title>
<path fill="none" stroke="midnightblue" d="M548.07,-297.82C559.49,-300.63 570.81,-305.54 579,-314 632.12,-368.86 561.93,-427.1 615,-482 667.22,-536.02 722.85,-473.08 779,-523 812.74,-553 781.4,-587.84 815,-618 816.74,-619.56 818.6,-621 820.54,-622.32"/>
<polygon fill="midnightblue" stroke="midnightblue" points="819.12,-625.54 829.55,-627.41 822.56,-619.45 819.12,-625.54"/>
</g>
<!-- Node11 -->
<g id="node11" class="node">
<title>Node11</title>
<g id="a_node11"><a xlink:href="classHttpRequest.html#acde519e492e10352bc39d6a3bcd857b2" target="_top" xlink:title=" ">
<polygon fill="white" stroke="black" points="833,-589.5 833,-608.5 945,-608.5 945,-589.5 833,-589.5"/>
<text text-anchor="middle" x="889" y="-596.5" font-family="Helvetica,sans-Serif" font-size="10.00">HttpRequest::getPath</text>
</a>
</g>
</g>
<!-- Node3&#45;&gt;Node11 -->
<g id="edge10" class="edge">
<title>Node3&#45;&gt;Node11</title>
<path fill="none" stroke="midnightblue" d="M548.18,-298.21C559.46,-301.03 570.69,-305.86 579,-314 622.75,-356.85 571.53,-403.87 615,-447 668.49,-500.07 722.52,-440.12 779,-490 811.29,-518.52 782.68,-551.51 815,-580 817.68,-582.37 820.63,-584.44 823.74,-586.27"/>
<polygon fill="midnightblue" stroke="midnightblue" points="822.39,-589.5 832.91,-590.76 825.48,-583.22 822.39,-589.5"/>
</g>
<!-- Node12 -->
<g id="node12" class="node">
<title>Node12</title>
<g id="a_node12"><a xlink:href="classHttpRequest.html#ac2a5d18d42289a03b57215c98d8df41e" target="_top" xlink:title=" ">
<polygon fill="white" stroke="black" points="634.5,-532.5 634.5,-551.5 759.5,-551.5 759.5,-532.5 634.5,-532.5"/>
<text text-anchor="middle" x="697" y="-539.5" font-family="Helvetica,sans-Serif" font-size="10.00">HttpRequest::getVersion</text>
</a>
</g>
</g>
<!-- Node3&#45;&gt;Node12 -->
<g id="edge11" class="edge">
<title>Node3&#45;&gt;Node12</title>
<path fill="none" stroke="midnightblue" d="M548.28,-297.63C559.7,-300.43 570.97,-305.4 579,-314 641.83,-381.3 553.69,-449.31 615,-518 618.31,-521.7 622.15,-524.85 626.34,-527.51"/>
<polygon fill="midnightblue" stroke="midnightblue" points="624.88,-530.7 635.35,-532.35 628.19,-524.54 624.88,-530.7"/>
</g>
<!-- Node13 -->
<g id="node13" class="node">
<title>Node13</title>
<g id="a_node13"><a xlink:href="classHttpResponse.html#acba4d7264c5b05e63a199c87f8526473" target="_top" xlink:title=" ">
<polygon fill="white" stroke="black" points="822.5,-219.5 822.5,-238.5 955.5,-238.5 955.5,-219.5 822.5,-219.5"/>
<text text-anchor="middle" x="889" y="-226.5" font-family="Helvetica,sans-Serif" font-size="10.00">HttpResponse::hasHeader</text>
</a>
</g>
</g>
<!-- Node3&#45;&gt;Node13 -->
<g id="edge12" class="edge">
<title>Node3&#45;&gt;Node13</title>
<path fill="none" stroke="midnightblue" d="M548.27,-290.34C603.32,-284.36 698.41,-272.83 779,-257 800.98,-252.68 825.13,-246.62 845.1,-241.23"/>
<polygon fill="midnightblue" stroke="midnightblue" points="846.11,-244.59 854.83,-238.58 844.26,-237.83 846.11,-244.59"/>
</g>
<!-- Node14 -->
<g id="node14" class="node">
<title>Node14</title>
<g id="a_node14"><a xlink:href="classHttpResponse.html#a884d07c418ba6145385d63e43bb1b29a" target="_top" xlink:title=" ">
<polygon fill="white" stroke="black" points="636,-190.5 636,-209.5 758,-209.5 758,-190.5 636,-190.5"/>
<text text-anchor="middle" x="697" y="-197.5" font-family="Helvetica,sans-Serif" font-size="10.00">HttpResponse::setBody</text>
</a>
</g>
</g>
<!-- Node3&#45;&gt;Node14 -->
<g id="edge14" class="edge">
<title>Node3&#45;&gt;Node14</title>
<path fill="none" stroke="midnightblue" d="M513.81,-285.26C533.2,-269.07 574.62,-236.66 615,-219 620.73,-216.49 626.84,-214.29 633.04,-212.36"/>
<polygon fill="midnightblue" stroke="midnightblue" points="634.17,-215.68 642.81,-209.55 632.23,-208.95 634.17,-215.68"/>
</g>
<!-- Node3&#45;&gt;Node15 -->
<g id="edge15" class="edge">
<title>Node3&#45;&gt;Node15</title>
<path fill="none" stroke="midnightblue" d="M508.57,-285.37C524.3,-260.83 568.42,-194.59 615,-148 632.64,-130.35 655.4,-113.35 672.3,-101.63"/>
<polygon fill="midnightblue" stroke="midnightblue" points="674.73,-104.21 681.02,-95.69 670.78,-98.43 674.73,-104.21"/>
</g>
<!-- Node16 -->
<g id="node16" class="node">
<title>Node16</title>
<g id="a_node16"><a xlink:href="classHttpResponse.html#ac982631ddcf451521e207ac0c2bd0108" target="_top" xlink:title=" ">
<polygon fill="white" stroke="black" points="625.5,-418.5 625.5,-437.5 768.5,-437.5 768.5,-418.5 625.5,-418.5"/>
<text text-anchor="middle" x="697" y="-425.5" font-family="Helvetica,sans-Serif" font-size="10.00">HttpResponse::setHeadOnly</text>
</a>
</g>
</g>
<!-- Node3&#45;&gt;Node16 -->
<g id="edge19" class="edge">
<title>Node3&#45;&gt;Node16</title>
<path fill="none" stroke="midnightblue" d="M548.05,-298.87C559.21,-301.7 570.4,-306.37 579,-314 612.77,-343.98 581.04,-379.24 615,-409 616.77,-410.55 618.63,-411.97 620.58,-413.29"/>
<polygon fill="midnightblue" stroke="midnightblue" points="619.17,-416.51 629.6,-418.38 622.61,-410.41 619.17,-416.51"/>
</g>
<!-- Node17 -->
<g id="node17" class="node">
<title>Node17</title>
<g id="a_node17"><a xlink:href="classHttpResponse.html#a610f8f887ca042f2b18ec395aaccc255" target="_top" xlink:title=" ">
<polygon fill="white" stroke="black" points="621.5,-342.5 621.5,-361.5 772.5,-361.5 772.5,-342.5 621.5,-342.5"/>
<text text-anchor="middle" x="697" y="-349.5" font-family="Helvetica,sans-Serif" font-size="10.00">HttpResponse::setStatusCode</text>
</a>
</g>
</g>
<!-- Node3&#45;&gt;Node17 -->
<g id="edge20" class="edge">
<title>Node3&#45;&gt;Node17</title>
<path fill="none" stroke="midnightblue" d="M548.36,-304.47C558.59,-307.11 569.28,-310.29 579,-314 595.9,-320.45 598.06,-326.66 615,-333 621.79,-335.54 629.03,-337.81 636.28,-339.83"/>
<polygon fill="midnightblue" stroke="midnightblue" points="635.58,-343.26 646.14,-342.42 637.36,-336.49 635.58,-343.26"/>
</g>
<!-- Node19 -->
<g id="node19" class="node">
<title>Node19</title>
<g id="a_node19"><a xlink:href="classHttpResponse.html#a407dc1ea3f01365d8105fadc0418bc79" target="_top" xlink:title=" ">
<polygon fill="white" stroke="black" points="631,-304.5 631,-323.5 763,-323.5 763,-304.5 631,-304.5"/>
<text text-anchor="middle" x="697" y="-311.5" font-family="Helvetica,sans-Serif" font-size="10.00">HttpResponse::setVersion</text>
</a>
</g>
</g>
<!-- Node3&#45;&gt;Node19 -->
<g id="edge22" class="edge">
<title>Node3&#45;&gt;Node19</title>
<path fill="none" stroke="midnightblue" d="M548.36,-299.5C569.97,-301.62 596.31,-304.21 620.73,-306.61"/>
<polygon fill="midnightblue" stroke="midnightblue" points="620.41,-310.09 630.7,-307.59 621.09,-303.13 620.41,-310.09"/>
</g>
<!-- Node20 -->
<g id="node20" class="node">
<title>Node20</title>
<g id="a_node20"><a xlink:href="ResponseUtils_8cpp.html#af8cce302648449aa6215ac211230ef75" target="_top" xlink:title=" ">
<polygon fill="white" stroke="black" points="655,-228.5 655,-247.5 739,-247.5 739,-228.5 655,-228.5"/>
<text text-anchor="middle" x="697" y="-235.5" font-family="Helvetica,sans-Serif" font-size="10.00">versionToString</text>
</a>
</g>
</g>
<!-- Node3&#45;&gt;Node20 -->
<g id="edge23" class="edge">
<title>Node3&#45;&gt;Node20</title>
<path fill="none" stroke="midnightblue" d="M534.89,-285.46C567.54,-275.84 618.08,-260.95 653.84,-250.42"/>
<polygon fill="midnightblue" stroke="midnightblue" points="654.9,-253.75 663.51,-247.57 652.93,-247.04 654.9,-253.75"/>
</g>
<!-- Node5 -->
<g id="node5" class="node">
<title>Node5</title>
<g id="a_node5"><a xlink:href="SessionUtils_8cpp.html#af915f0cd7984e5d06370014bb43c74b6" target="_top" xlink:title=" ">
<polygon fill="white" stroke="black" points="845.5,-418.5 845.5,-437.5 932.5,-437.5 932.5,-418.5 845.5,-418.5"/>
<text text-anchor="middle" x="889" y="-425.5" font-family="Helvetica,sans-Serif" font-size="10.00">createSessionId</text>
</a>
</g>
</g>
<!-- Node4&#45;&gt;Node5 -->
<g id="edge4" class="edge">
<title>Node4&#45;&gt;Node5</title>
<path fill="none" stroke="midnightblue" d="M745.95,-399.59C773.16,-405.03 807.28,-411.86 835.25,-417.45"/>
<polygon fill="midnightblue" stroke="midnightblue" points="834.76,-420.92 845.26,-419.45 836.14,-414.06 834.76,-420.92"/>
</g>
<!-- Node6 -->
<g id="node6" class="node">
<title>Node6</title>
<g id="a_node6"><a xlink:href="SessionUtils_8cpp.html#a655520ad6c85707c8e1aae50c1eda6c8" target="_top" xlink:title=" ">
<polygon fill="white" stroke="black" points="835,-380.5 835,-399.5 943,-399.5 943,-380.5 835,-380.5"/>
<text text-anchor="middle" x="889" y="-387.5" font-family="Helvetica,sans-Serif" font-size="10.00">extractIdFromCookie</text>
</a>
</g>
</g>
<!-- Node4&#45;&gt;Node6 -->
<g id="edge5" class="edge">
<title>Node4&#45;&gt;Node6</title>
<path fill="none" stroke="midnightblue" d="M766.06,-390C785.1,-390 805.73,-390 824.5,-390"/>
<polygon fill="midnightblue" stroke="midnightblue" points="824.72,-393.5 834.72,-390 824.72,-386.5 824.72,-393.5"/>
</g>
<!-- Node7 -->
<g id="node7" class="node">
<title>Node7</title>
<g id="a_node7"><a xlink:href="classHttpRequest.html#ab537cb11b054734695ee4889d88aec6d" target="_top" xlink:title="Obtiene un header específico de la petición.">
<polygon fill="white" stroke="black" points="827.5,-551.5 827.5,-570.5 950.5,-570.5 950.5,-551.5 827.5,-551.5"/>
<text text-anchor="middle" x="889" y="-558.5" font-family="Helvetica,sans-Serif" font-size="10.00">HttpRequest::getHeader</text>
</a>
</g>
</g>
<!-- Node4&#45;&gt;Node7 -->
<g id="edge6" class="edge">
<title>Node4&#45;&gt;Node7</title>
<path fill="none" stroke="midnightblue" d="M760.11,-399.61C766.79,-402.07 773.24,-405.15 779,-409 805.39,-426.65 855.05,-506.01 877.04,-542.52"/>
<polygon fill="midnightblue" stroke="midnightblue" points="874.1,-544.42 882.24,-551.2 880.11,-540.82 874.1,-544.42"/>
</g>
<!-- Node4&#45;&gt;Node8 -->
<g id="edge7" class="edge">
<title>Node4&#45;&gt;Node8</title>
<path fill="none" stroke="midnightblue" d="M766.16,-380.42C770.88,-377.9 775.24,-374.8 779,-371 830.58,-318.88 778.31,-273.48 815,-210 827.13,-189.01 848.02,-170.83 864.36,-158.73"/>
<polygon fill="midnightblue" stroke="midnightblue" points="866.77,-161.3 872.88,-152.64 862.71,-155.6 866.77,-161.3"/>
</g>
<!-- Node9 -->
<g id="node9" class="node">
<title>Node9</title>
<g id="a_node9"><a xlink:href="namespacehttp__header__utils.html#aa9b0e84aeed4203326a12eecbcd3f9e5" target="_top" xlink:title=" ">
<polygon fill="white" stroke="black" points="999,-128 999,-158 1096,-158 1096,-128 999,-128"/>
<text text-anchor="start" x="1007" y="-146" font-family="Helvetica,sans-Serif" font-size="10.00">http_header_utils::</text>
<text text-anchor="middle" x="1047.5" y="-135" font-family="Helvetica,sans-Serif" font-size="10.00">toLowerCopy</text>
</a>
</g>
</g>
<!-- Node8&#45;&gt;Node9 -->
<g id="edge8" class="edge">
<title>Node8&#45;&gt;Node9</title>
<path fill="none" stroke="midnightblue" d="M954.56,-143C965.9,-143 977.65,-143 988.79,-143"/>
<polygon fill="midnightblue" stroke="midnightblue" points="988.83,-146.5 998.83,-143 988.83,-139.5 988.83,-146.5"/>
</g>
<!-- Node13&#45;&gt;Node9 -->
<g id="edge13" class="edge">
<title>Node13&#45;&gt;Node9</title>
<path fill="none" stroke="midnightblue" d="M907.35,-219.47C931.97,-205.93 977.66,-180.83 1009.96,-163.08"/>
<polygon fill="midnightblue" stroke="midnightblue" points="1012.02,-165.94 1019.1,-158.06 1008.65,-159.81 1012.02,-165.94"/>
</g>
<!-- Node15&#45;&gt;Node8 -->
<g id="edge16" class="edge">
<title>Node15&#45;&gt;Node8</title>
<path fill="none" stroke="midnightblue" d="M730.33,-95.53C745.17,-99.92 762.98,-105.2 779,-110 801.46,-116.73 826.51,-124.3 846.92,-130.5"/>
<polygon fill="midnightblue" stroke="midnightblue" points="845.95,-133.86 856.53,-133.42 847.98,-127.16 845.95,-133.86"/>
</g>
<!-- Node15&#45;&gt;Node9 -->
<g id="edge17" class="edge">
<title>Node15&#45;&gt;Node9</title>
<path fill="none" stroke="midnightblue" d="M774.52,-95.3C827.59,-102.16 899.82,-112.3 963,-124 971.41,-125.56 980.25,-127.37 988.91,-129.25"/>
<polygon fill="midnightblue" stroke="midnightblue" points="988.43,-132.73 998.95,-131.48 989.94,-125.9 988.43,-132.73"/>
</g>
<!-- Node18 -->
<g id="node18" class="node">
<title>Node18</title>
<g id="a_node18"><a xlink:href="HttpResponse_8cpp.html#aadc8fd8bbc80a1b3551ea1357e04f07b" target="_top" xlink:title=" ">
<polygon fill="white" stroke="black" points="829.5,-342.5 829.5,-361.5 948.5,-361.5 948.5,-342.5 829.5,-342.5"/>
<text text-anchor="middle" x="889" y="-349.5" font-family="Helvetica,sans-Serif" font-size="10.00">reasonPhraseForStatus</text>
</a>
</g>
</g>
<!-- Node17&#45;&gt;Node18 -->
<g id="edge21" class="edge">
<title>Node17&#45;&gt;Node18</title>
<path fill="none" stroke="midnightblue" d="M772.55,-352C787.84,-352 803.87,-352 818.95,-352"/>
<polygon fill="midnightblue" stroke="midnightblue" points="819.23,-355.5 829.23,-352 819.23,-348.5 819.23,-355.5"/>
</g>
<!-- Node26 -->
<g id="node26" class="node">
<title>Node26</title>
<g id="a_node26"><a xlink:href="classClient.html#a2e0da898af07e89fcfd83fe5a3077256" target="_top" xlink:title=" ">
<polygon fill="white" stroke="black" points="288,-608.5 288,-627.5 386,-627.5 386,-608.5 288,-608.5"/>
<text text-anchor="middle" x="337" y="-615.5" font-family="Helvetica,sans-Serif" font-size="10.00">Client::executeCgi</text>
</a>
</g>
</g>
<!-- Node25&#45;&gt;Node26 -->
<g id="edge31" class="edge">
<title>Node25&#45;&gt;Node26</title>
<path fill="none" stroke="midnightblue" d="M209.81,-484.83C232.55,-508.82 291.11,-570.63 319.75,-600.85"/>
<polygon fill="midnightblue" stroke="midnightblue" points="317.56,-603.63 326.98,-608.48 322.64,-598.81 317.56,-603.63"/>
</g>
<!-- Node26&#45;&gt;Node12 -->
<g id="edge51" class="edge">
<title>Node26&#45;&gt;Node12</title>
<path fill="none" stroke="midnightblue" d="M343.81,-608.25C355.89,-589.08 385.78,-546.96 424,-531 500.57,-499.02 600.05,-516.08 655,-529.96"/>
<polygon fill="midnightblue" stroke="midnightblue" points="654.17,-533.36 664.73,-532.5 655.94,-526.58 654.17,-533.36"/>
</g>
<!-- Node27 -->
<g id="node27" class="node">
<title>Node27</title>
<g id="a_node27"><a xlink:href="classCgiExecutor.html#a449e349a961449c342e4612d131bda8e" target="_top" xlink:title=" ">
<polygon fill="white" stroke="black" points="432,-741.5 432,-760.5 571,-760.5 571,-741.5 432,-741.5"/>
<text text-anchor="middle" x="501.5" y="-748.5" font-family="Helvetica,sans-Serif" font-size="10.00">CgiExecutor::executeAsync</text>
</a>
</g>
</g>
<!-- Node26&#45;&gt;Node27 -->
<g id="edge32" class="edge">
<title>Node26&#45;&gt;Node27</title>
<path fill="none" stroke="midnightblue" d="M342.45,-627.72C353.12,-649.92 382.43,-704.53 424,-732 427.09,-734.04 430.39,-735.87 433.81,-737.5"/>
<polygon fill="midnightblue" stroke="midnightblue" points="432.52,-740.75 443.1,-741.36 435.21,-734.29 432.52,-740.75"/>
</g>
<!-- Node39 -->
<g id="node39" class="node">
<title>Node39</title>
<g id="a_node39"><a xlink:href="classCgiProcess.html#a9716e52b70fda0486a075305bfae19a6" target="_top" xlink:title=" ">
<polygon fill="white" stroke="black" points="444,-665.5 444,-684.5 559,-684.5 559,-665.5 444,-665.5"/>
<text text-anchor="middle" x="501.5" y="-672.5" font-family="Helvetica,sans-Serif" font-size="10.00">CgiProcess::getPipeIn</text>
</a>
</g>
</g>
<!-- Node26&#45;&gt;Node39 -->
<g id="edge48" class="edge">
<title>Node26&#45;&gt;Node39</title>
<path fill="none" stroke="midnightblue" d="M357.09,-627.58C374.27,-635.92 400.37,-647.91 424,-656 431.2,-658.46 438.89,-660.76 446.5,-662.83"/>
<polygon fill="midnightblue" stroke="midnightblue" points="445.87,-666.28 456.43,-665.43 447.64,-659.51 445.87,-666.28"/>
</g>
<!-- Node40 -->
<g id="node40" class="node">
<title>Node40</title>
<g id="a_node40"><a xlink:href="classCgiProcess.html#ad9430b4680f7ad7316f6df7710e06b3f" target="_top" xlink:title=" ">
<polygon fill="white" stroke="black" points="440.5,-627.5 440.5,-646.5 562.5,-646.5 562.5,-627.5 440.5,-627.5"/>
<text text-anchor="middle" x="501.5" y="-634.5" font-family="Helvetica,sans-Serif" font-size="10.00">CgiProcess::getPipeOut</text>
</a>
</g>
</g>
<!-- Node26&#45;&gt;Node40 -->
<g id="edge49" class="edge">
<title>Node26&#45;&gt;Node40</title>
<path fill="none" stroke="midnightblue" d="M386.32,-623.65C400.07,-625.26 415.35,-627.04 430.13,-628.77"/>
<polygon fill="midnightblue" stroke="midnightblue" points="429.93,-632.27 440.27,-629.96 430.74,-625.32 429.93,-632.27"/>
</g>
<!-- Node41 -->
<g id="node41" class="node">
<title>Node41</title>
<g id="a_node41"><a xlink:href="classHttpParser.html#ac152c0d7912d2e757516c3d8f1b9891b" target="_top" xlink:title=" ">
<polygon fill="white" stroke="black" points="441.5,-589.5 441.5,-608.5 561.5,-608.5 561.5,-589.5 441.5,-589.5"/>
<text text-anchor="middle" x="501.5" y="-596.5" font-family="Helvetica,sans-Serif" font-size="10.00">HttpParser::getRequest</text>
</a>
</g>
</g>
<!-- Node26&#45;&gt;Node41 -->
<g id="edge50" class="edge">
<title>Node26&#45;&gt;Node41</title>
<path fill="none" stroke="midnightblue" d="M386.32,-612.35C400.38,-610.71 416.03,-608.88 431.11,-607.11"/>
<polygon fill="midnightblue" stroke="midnightblue" points="431.92,-610.54 441.45,-605.9 431.11,-603.59 431.92,-610.54"/>
</g>
<!-- Node42 -->
<g id="node42" class="node">
<title>Node42</title>
<g id="a_node42"><a xlink:href="classServerManager.html#a39ba2418a65f3fe96057e7dfbf050db0" target="_top" xlink:title=" ">
<polygon fill="white" stroke="black" points="424,-703.5 424,-722.5 579,-722.5 579,-703.5 424,-703.5"/>
<text text-anchor="middle" x="501.5" y="-710.5" font-family="Helvetica,sans-Serif" font-size="10.00">ServerManager::registerCgiPipe</text>
</a>
</g>
</g>
<!-- Node26&#45;&gt;Node42 -->
<g id="edge52" class="edge">
<title>Node26&#45;&gt;Node42</title>
<path fill="none" stroke="midnightblue" d="M345.96,-627.55C360,-643.76 390.84,-676.58 424,-694 428.5,-696.37 433.31,-698.44 438.24,-700.27"/>
<polygon fill="midnightblue" stroke="midnightblue" points="437.23,-703.62 447.82,-703.48 439.45,-696.98 437.23,-703.62"/>
</g>
<!-- Node44 -->
<g id="node44" class="node">
<title>Node44</title>
<g id="a_node44"><a xlink:href="classHttpRequest.html#ab5fb89c5ad17f9433e6798477fd4d8e8" target="_top" xlink:title="Verifica si se debe cerrar la conexión con el cliente después de enviar la respuesta.">
<polygon fill="white" stroke="black" points="435.5,-540 435.5,-570 567.5,-570 567.5,-540 435.5,-540"/>
<text text-anchor="start" x="443.5" y="-558" font-family="Helvetica,sans-Serif" font-size="10.00">HttpRequest::shouldClose</text>
<text text-anchor="middle" x="501.5" y="-547" font-family="Helvetica,sans-Serif" font-size="10.00">Connection</text>
</a>
</g>
</g>
<!-- Node26&#45;&gt;Node44 -->
<g id="edge54" class="edge">
<title>Node26&#45;&gt;Node44</title>
<path fill="none" stroke="midnightblue" d="M358.26,-608.36C375.54,-600.3 401.14,-588.76 424,-580 429.91,-577.74 436.12,-575.49 442.34,-573.33"/>
<polygon fill="midnightblue" stroke="midnightblue" points="443.75,-576.55 452.09,-570.01 441.49,-569.92 443.75,-576.55"/>
</g>
<!-- Node28 -->
<g id="node28" class="node">
<title>Node28</title>
<g id="a_node28"><a xlink:href="CgiExecutor_8cpp.html#abcb00127e3438f917615431df567802b" target="_top" xlink:title=" ">
<polygon fill="white" stroke="black" points="663.5,-646.5 663.5,-665.5 730.5,-665.5 730.5,-646.5 663.5,-646.5"/>
<text text-anchor="middle" x="697" y="-653.5" font-family="Helvetica,sans-Serif" font-size="10.00">closeIfValid</text>
</a>
</g>
</g>
<!-- Node27&#45;&gt;Node28 -->
<g id="edge33" class="edge">
<title>Node27&#45;&gt;Node28</title>
<path fill="none" stroke="midnightblue" d="M560.45,-741.44C567.02,-738.98 573.37,-735.89 579,-732 602.13,-716.03 592.23,-696.48 615,-680 626.27,-671.84 640.3,-666.44 653.5,-662.86"/>
<polygon fill="midnightblue" stroke="midnightblue" points="654.49,-666.23 663.38,-660.47 652.84,-659.42 654.49,-666.23"/>
</g>
<!-- Node29 -->
<g id="node29" class="node">
<title>Node29</title>
<g id="a_node29"><a xlink:href="classCgiExecutor.html#a82f74408b92879b5909c44f81d2438f8" target="_top" xlink:title=" ">
<polygon fill="white" stroke="black" points="625,-836.5 625,-855.5 769,-855.5 769,-836.5 625,-836.5"/>
<text text-anchor="middle" x="697" y="-843.5" font-family="Helvetica,sans-Serif" font-size="10.00">CgiExecutor::createEnvArray</text>
</a>
</g>
</g>
<!-- Node27&#45;&gt;Node29 -->
<g id="edge34" class="edge">
<title>Node27&#45;&gt;Node29</title>
<path fill="none" stroke="midnightblue" d="M513.81,-760.74C533.2,-776.93 574.62,-809.34 615,-827 620.73,-829.51 626.84,-831.71 633.04,-833.64"/>
<polygon fill="midnightblue" stroke="midnightblue" points="632.23,-837.05 642.81,-836.45 634.17,-830.32 632.23,-837.05"/>
</g>
<!-- Node30 -->
<g id="node30" class="node">
<title>Node30</title>
<g id="a_node30"><a xlink:href="classHttpRequest.html#aa727937b993d7df56a9d99b37d6be672" target="_top" xlink:title=" ">
<polygon fill="white" stroke="black" points="832,-665.5 832,-684.5 946,-684.5 946,-665.5 832,-665.5"/>
<text text-anchor="middle" x="889" y="-672.5" font-family="Helvetica,sans-Serif" font-size="10.00">HttpRequest::getBody</text>
</a>
</g>
</g>
<!-- Node27&#45;&gt;Node30 -->
<g id="edge35" class="edge">
<title>Node27&#45;&gt;Node30</title>
<path fill="none" stroke="midnightblue" d="M548.77,-741.42C558.87,-738.8 569.41,-735.66 579,-732 595.9,-725.55 597.78,-718.55 615,-713 683.38,-690.95 765.47,-681.69 821.66,-677.81"/>
<polygon fill="midnightblue" stroke="midnightblue" points="822.09,-681.29 831.84,-677.14 821.63,-674.3 822.09,-681.29"/>
</g>
<!-- Node31 -->
<g id="node31" class="node">
<title>Node31</title>
<g id="a_node31"><a xlink:href="classServerConfig.html#a6d5c3238d2d89e315d7255974a36d618" target="_top" xlink:title=" ">
<polygon fill="white" stroke="black" points="625.5,-798.5 625.5,-817.5 768.5,-817.5 768.5,-798.5 625.5,-798.5"/>
<text text-anchor="middle" x="697" y="-805.5" font-family="Helvetica,sans-Serif" font-size="10.00">ServerConfig::getCgiTimeout</text>
</a>
</g>
</g>
<!-- Node27&#45;&gt;Node31 -->
<g id="edge36" class="edge">
<title>Node27&#45;&gt;Node31</title>
<path fill="none" stroke="midnightblue" d="M528.65,-760.62C551.3,-768.77 585.07,-780.45 615,-789 623.58,-791.45 632.73,-793.82 641.68,-796.01"/>
<polygon fill="midnightblue" stroke="midnightblue" points="641.12,-799.48 651.66,-798.4 642.75,-792.67 641.12,-799.48"/>
</g>
<!-- Node32 -->
<g id="node32" class="node">
<title>Node32</title>
<g id="a_node32"><a xlink:href="classCgiExecutor.html#ad97592b573c577e6bae11662ec683910" target="_top" xlink:title=" ">
<polygon fill="white" stroke="black" points="615,-722.5 615,-741.5 779,-741.5 779,-722.5 615,-722.5"/>
<text text-anchor="middle" x="697" y="-729.5" font-family="Helvetica,sans-Serif" font-size="10.00">CgiExecutor::prepareEnvironment</text>
</a>
</g>
</g>
<!-- Node27&#45;&gt;Node32 -->
<g id="edge37" class="edge">
<title>Node27&#45;&gt;Node32</title>
<path fill="none" stroke="midnightblue" d="M571.27,-744.25C582.08,-743.19 593.4,-742.07 604.62,-740.97"/>
<polygon fill="midnightblue" stroke="midnightblue" points="605.28,-744.42 614.89,-739.96 604.59,-737.46 605.28,-744.42"/>
</g>
<!-- Node38 -->
<g id="node38" class="node">
<title>Node38</title>
<g id="a_node38"><a xlink:href="classCgiExecutor.html#a4ccb7df600011595abda3893d14a1f3f" target="_top" xlink:title=" ">
<polygon fill="white" stroke="black" points="624,-760.5 624,-779.5 770,-779.5 770,-760.5 624,-760.5"/>
<text text-anchor="middle" x="697" y="-767.5" font-family="Helvetica,sans-Serif" font-size="10.00">CgiExecutor::setNonBlocking</text>
</a>
</g>
</g>
<!-- Node27&#45;&gt;Node38 -->
<g id="edge47" class="edge">
<title>Node27&#45;&gt;Node38</title>
<path fill="none" stroke="midnightblue" d="M571.27,-757.75C584.99,-759.1 599.53,-760.53 613.66,-761.92"/>
<polygon fill="midnightblue" stroke="midnightblue" points="613.56,-765.42 623.86,-762.92 614.25,-758.46 613.56,-765.42"/>
</g>
<!-- Node32&#45;&gt;Node7 -->
<g id="edge39" class="edge">
<title>Node32&#45;&gt;Node7</title>
<path fill="none" stroke="midnightblue" d="M717.9,-722.4C736.07,-712.72 762.56,-696.19 779,-675 806.68,-639.33 781.4,-610.16 815,-580 816.74,-578.44 818.6,-577 820.54,-575.68"/>
<polygon fill="midnightblue" stroke="midnightblue" points="822.56,-578.55 829.55,-570.59 819.12,-572.46 822.56,-578.55"/>
</g>
<!-- Node32&#45;&gt;Node10 -->
<g id="edge41" class="edge">
<title>Node32&#45;&gt;Node10</title>
<path fill="none" stroke="midnightblue" d="M711.48,-722.45C737.4,-704.24 793.5,-665.48 815,-656 820.45,-653.6 826.27,-651.45 832.15,-649.54"/>
<polygon fill="midnightblue" stroke="midnightblue" points="833.5,-652.79 842.06,-646.55 831.47,-646.09 833.5,-652.79"/>
</g>
<!-- Node32&#45;&gt;Node11 -->
<g id="edge42" class="edge">
<title>Node32&#45;&gt;Node11</title>
<path fill="none" stroke="midnightblue" d="M715.63,-722.37C733.14,-712.22 760.04,-694.93 779,-675 799.65,-653.29 790.81,-635.68 815,-618 817.7,-616.03 820.58,-614.26 823.59,-612.68"/>
<polygon fill="midnightblue" stroke="midnightblue" points="825.25,-615.77 832.91,-608.46 822.36,-609.39 825.25,-615.77"/>
</g>
<!-- Node32&#45;&gt;Node30 -->
<g id="edge38" class="edge">
<title>Node32&#45;&gt;Node30</title>
<path fill="none" stroke="midnightblue" d="M732.49,-722.46C746.94,-718.29 763.87,-713.17 779,-708 795.24,-702.45 798.67,-699.28 815,-694 822.45,-691.59 830.4,-689.27 838.21,-687.13"/>
<polygon fill="midnightblue" stroke="midnightblue" points="839.22,-690.48 847.98,-684.52 837.41,-683.72 839.22,-690.48"/>
</g>
<!-- Node33 -->
<g id="node33" class="node">
<title>Node33</title>
<g id="a_node33"><a xlink:href="classHttpRequest.html#a08c95fd7197579a81bbed722db6a8cc9" target="_top" xlink:title="Obtiene todos los headers de la petición.">
<polygon fill="white" stroke="black" points="825,-855.5 825,-874.5 953,-874.5 953,-855.5 825,-855.5"/>
<text text-anchor="middle" x="889" y="-862.5" font-family="Helvetica,sans-Serif" font-size="10.00">HttpRequest::getHeaders</text>
</a>
</g>
</g>
<!-- Node32&#45;&gt;Node33 -->
<g id="edge40" class="edge">
<title>Node32&#45;&gt;Node33</title>
<path fill="none" stroke="midnightblue" d="M764.4,-741.62C769.69,-744.11 774.65,-747.19 779,-751 812.96,-780.76 781.4,-815.84 815,-846 816.74,-847.56 818.6,-849 820.54,-850.32"/>
<polygon fill="midnightblue" stroke="midnightblue" points="819.12,-853.54 829.55,-855.41 822.56,-847.45 819.12,-853.54"/>
</g>
<!-- Node34 -->
<g id="node34" class="node">
<title>Node34</title>
<g id="a_node34"><a xlink:href="classServerConfig.html#afab0e296905ba9053273c36b250a2420" target="_top" xlink:title=" ">
<polygon fill="white" stroke="black" points="833.5,-817.5 833.5,-836.5 944.5,-836.5 944.5,-817.5 833.5,-817.5"/>
<text text-anchor="middle" x="889" y="-824.5" font-family="Helvetica,sans-Serif" font-size="10.00">ServerConfig::getPort</text>
</a>
</g>
</g>
<!-- Node32&#45;&gt;Node34 -->
<g id="edge43" class="edge">
<title>Node32&#45;&gt;Node34</title>
<path fill="none" stroke="midnightblue" d="M761.17,-741.6C767.51,-744.06 773.59,-747.15 779,-751 803.4,-768.38 790.81,-790.32 815,-808 817.84,-810.07 820.88,-811.92 824.05,-813.56"/>
<polygon fill="midnightblue" stroke="midnightblue" points="822.73,-816.81 833.29,-817.69 825.58,-810.41 822.73,-816.81"/>
</g>
<!-- Node35 -->
<g id="node35" class="node">
<title>Node35</title>
<g id="a_node35"><a xlink:href="classHttpRequest.html#a579bc045f297b854a798e6a2d21b9502" target="_top" xlink:title=" ">
<polygon fill="white" stroke="black" points="830,-779.5 830,-798.5 948,-798.5 948,-779.5 830,-779.5"/>
<text text-anchor="middle" x="889" y="-786.5" font-family="Helvetica,sans-Serif" font-size="10.00">HttpRequest::getQuery</text>
</a>
</g>
</g>
<!-- Node32&#45;&gt;Node35 -->
<g id="edge44" class="edge">
<title>Node32&#45;&gt;Node35</title>
<path fill="none" stroke="midnightblue" d="M747.86,-741.58C758.29,-744.17 769.12,-747.31 779,-751 795.94,-757.34 798.13,-763.46 815,-770 821.32,-772.45 828.06,-774.69 834.8,-776.7"/>
<polygon fill="midnightblue" stroke="midnightblue" points="834.05,-780.12 844.63,-779.47 835.96,-773.38 834.05,-780.12"/>
</g>
<!-- Node36 -->
<g id="node36" class="node">
<title>Node36</title>
<g id="a_node36"><a xlink:href="classServerConfig.html#aa04c77f5ee06781c5830e2ad55f6463e" target="_top" xlink:title=" ">
<polygon fill="white" stroke="black" points="815,-741.5 815,-760.5 963,-760.5 963,-741.5 815,-741.5"/>
<text text-anchor="middle" x="889" y="-748.5" font-family="Helvetica,sans-Serif" font-size="10.00">ServerConfig::getServerName</text>
</a>
</g>
</g>
<!-- Node32&#45;&gt;Node36 -->
<g id="edge45" class="edge">
<title>Node32&#45;&gt;Node36</title>
<path fill="none" stroke="midnightblue" d="M779.13,-740.11C787.68,-740.97 796.39,-741.84 804.97,-742.7"/>
<polygon fill="midnightblue" stroke="midnightblue" points="804.66,-746.18 814.96,-743.7 805.35,-739.22 804.66,-746.18"/>
</g>
<!-- Node37 -->
<g id="node37" class="node">
<title>Node37</title>
<g id="a_node37"><a xlink:href="RequestProcessorUtils_8cpp.html#a390b94b66217f7a8dacf76cf769d07c7" target="_top" xlink:title=" ">
<polygon fill="white" stroke="black" points="846.5,-703.5 846.5,-722.5 931.5,-722.5 931.5,-703.5 846.5,-703.5"/>
<text text-anchor="middle" x="889" y="-710.5" font-family="Helvetica,sans-Serif" font-size="10.00">methodToString</text>
</a>
</g>
</g>
<!-- Node32&#45;&gt;Node37 -->
<g id="edge46" class="edge">
<title>Node32&#45;&gt;Node37</title>
<path fill="none" stroke="midnightblue" d="M779.13,-723.89C798.52,-721.95 818.7,-719.93 836.34,-718.17"/>
<polygon fill="midnightblue" stroke="midnightblue" points="836.81,-721.64 846.41,-717.16 836.11,-714.67 836.81,-721.64"/>
</g>
<!-- Node43 -->
<g id="node43" class="node">
<title>Node43</title>
<g id="a_node43"><a xlink:href="classEpollWrapper.html#a9d1a1f203f959547001099718dd957ea" target="_top" xlink:title=" ">
<polygon fill="white" stroke="black" points="643.5,-608.5 643.5,-627.5 750.5,-627.5 750.5,-608.5 643.5,-608.5"/>
<text text-anchor="middle" x="697" y="-615.5" font-family="Helvetica,sans-Serif" font-size="10.00">EpollWrapper::addFd</text>
</a>
</g>
</g>
<!-- Node42&#45;&gt;Node43 -->
<g id="edge53" class="edge">
<title>Node42&#45;&gt;Node43</title>
<path fill="none" stroke="midnightblue" d="M561.39,-703.37C567.66,-700.92 573.67,-697.85 579,-694 603.29,-676.46 590.6,-654.38 615,-637 620.61,-633 626.95,-629.83 633.54,-627.33"/>
<polygon fill="midnightblue" stroke="midnightblue" points="634.92,-630.56 643.32,-624.1 632.73,-623.91 634.92,-630.56"/>
</g>
<!-- Node44&#45;&gt;Node7 -->
<g id="edge55" class="edge">
<title>Node44&#45;&gt;Node7</title>
<path fill="none" stroke="midnightblue" d="M567.62,-559.06C583.14,-559.87 599.65,-560.59 615,-561 683.69,-562.83 762.13,-562.59 817.25,-562.03"/>
<polygon fill="midnightblue" stroke="midnightblue" points="817.31,-565.53 827.27,-561.93 817.23,-558.53 817.31,-565.53"/>
</g>
</g>
</svg>
