<?xml version="1.0" encoding="UTF-8" standalone="no"?>
<!DOCTYPE svg PUBLIC "-//W3C//DTD SVG 1.1//EN"
 "http://www.w3.org/Graphics/SVG/1.1/DTD/svg11.dtd">
<!-- Generated by graphviz version 2.43.0 (0)
 -->
<!-- Title: SessionManager Pages: 1 -->
<svg width="164pt" height="308pt"
 viewBox="0.00 0.00 163.50 308.00" xmlns="http://www.w3.org/2000/svg" xmlns:xlink="http://www.w3.org/1999/xlink">
<g id="graph0" class="graph" transform="scale(1 1) rotate(0) translate(4 304)">
<title>SessionManager</title>
<polygon fill="white" stroke="transparent" points="-4,4 -4,-304 159.5,-304 159.5,4 -4,4"/>
<!-- Node1 -->
<g id="node1" class="node">
<title>Node1</title>
<g id="a_node1"><a xlink:title=" ">
<polygon fill="#bfbfbf" stroke="black" points="10.5,-0.5 10.5,-19.5 99.5,-19.5 99.5,-0.5 10.5,-0.5"/>
<text text-anchor="middle" x="55" y="-7.5" font-family="Helvetica,sans-Serif" font-size="10.00">SessionManager</text>
</a>
</g>
</g>
<!-- Node2 -->
<g id="node2" class="node">
<title>Node2</title>
<g id="a_node2"><a xlink:title=" ">
<polygon fill="white" stroke="#bfbfbf" points="0,-67.5 0,-97.5 110,-97.5 110,-67.5 0,-67.5"/>
<text text-anchor="start" x="8" y="-85.5" font-family="Helvetica,sans-Serif" font-size="10.00">std::map&lt; std::string,</text>
<text text-anchor="middle" x="55" y="-74.5" font-family="Helvetica,sans-Serif" font-size="10.00"> SessionData &gt;</text>
</a>
</g>
</g>
<!-- Node2&#45;&gt;Node1 -->
<g id="edge1" class="edge">
<title>Node2&#45;&gt;Node1</title>
<path fill="none" stroke="#9a32cd" stroke-dasharray="5,2" d="M55,-57.09C55,-44.21 55,-29.2 55,-19.89"/>
<polygon fill="#9a32cd" stroke="#9a32cd" points="51.5,-57.23 55,-67.23 58.5,-57.23 51.5,-57.23"/>
<text text-anchor="middle" x="79" y="-41" font-family="Helvetica,sans-Serif" font-size="10.00"> _sessions</text>
</g>
<!-- Node3 -->
<g id="node3" class="node">
<title>Node3</title>
<g id="a_node3"><a xlink:href="SessionManager_8hpp.html#structSessionData" target="_top" xlink:title=" ">
<polygon fill="white" stroke="black" points="82.5,-145.5 82.5,-164.5 155.5,-164.5 155.5,-145.5 82.5,-145.5"/>
<text text-anchor="middle" x="119" y="-152.5" font-family="Helvetica,sans-Serif" font-size="10.00">SessionData</text>
</a>
</g>
</g>
<!-- Node3&#45;&gt;Node2 -->
<g id="edge2" class="edge">
<title>Node3&#45;&gt;Node2</title>
<path fill="none" stroke="#9a32cd" stroke-dasharray="5,2" d="M104.24,-137.74C93.22,-125.6 78.3,-109.16 67.78,-97.58"/>
<polygon fill="#9a32cd" stroke="#9a32cd" points="101.84,-140.3 111.15,-145.36 107.02,-135.6 101.84,-140.3"/>
<text text-anchor="middle" x="113.5" y="-119" font-family="Helvetica,sans-Serif" font-size="10.00"> elements</text>
</g>
<!-- Node4 -->
<g id="node4" class="node">
<title>Node4</title>
<g id="a_node4"><a xlink:title=" ">
<polygon fill="white" stroke="#bfbfbf" points="25,-212.5 25,-231.5 85,-231.5 85,-212.5 25,-212.5"/>
<text text-anchor="middle" x="55" y="-219.5" font-family="Helvetica,sans-Serif" font-size="10.00">std::string</text>
</a>
</g>
</g>
<!-- Node4&#45;&gt;Node2 -->
<g id="edge5" class="edge">
<title>Node4&#45;&gt;Node2</title>
<path fill="none" stroke="#9a32cd" stroke-dasharray="5,2" d="M52.07,-202.3C50.52,-191.44 48.78,-177.48 48,-165 46.53,-141.33 49.95,-113.86 52.52,-97.62"/>
<polygon fill="#9a32cd" stroke="#9a32cd" points="48.63,-202.93 53.57,-212.3 55.55,-201.89 48.63,-202.93"/>
<text text-anchor="middle" x="60.5" y="-152.5" font-family="Helvetica,sans-Serif" font-size="10.00"> keys</text>
</g>
<!-- Node4&#45;&gt;Node3 -->
<g id="edge3" class="edge">
<title>Node4&#45;&gt;Node3</title>
<path fill="none" stroke="#9a32cd" stroke-dasharray="5,2" d="M70.76,-205C83.31,-192.25 100.4,-174.89 110.51,-164.63"/>
<polygon fill="#9a32cd" stroke="#9a32cd" points="68.15,-202.65 63.63,-212.23 73.14,-207.56 68.15,-202.65"/>
<text text-anchor="middle" x="113" y="-186" font-family="Helvetica,sans-Serif" font-size="10.00"> sessionId</text>
</g>
<!-- Node5 -->
<g id="node5" class="node">
<title>Node5</title>
<g id="a_node5"><a xlink:title=" ">
<polygon fill="white" stroke="#bfbfbf" points="7.5,-269.5 7.5,-299.5 102.5,-299.5 102.5,-269.5 7.5,-269.5"/>
<text text-anchor="start" x="15.5" y="-287.5" font-family="Helvetica,sans-Serif" font-size="10.00">std::basic_string&lt;</text>
<text text-anchor="middle" x="55" y="-276.5" font-family="Helvetica,sans-Serif" font-size="10.00"> Char &gt;</text>
</a>
</g>
</g>
<!-- Node5&#45;&gt;Node4 -->
<g id="edge4" class="edge">
<title>Node5&#45;&gt;Node4</title>
<path fill="none" stroke="midnightblue" d="M55,-259.35C55,-249.51 55,-238.78 55,-231.54"/>
<polygon fill="midnightblue" stroke="midnightblue" points="51.5,-259.47 55,-269.47 58.5,-259.47 51.5,-259.47"/>
</g>
</g>
</svg>
