<?xml version="1.0" encoding="UTF-8" standalone="no"?>
<!DOCTYPE svg PUBLIC "-//W3C//DTD SVG 1.1//EN"
 "http://www.w3.org/Graphics/SVG/1.1/DTD/svg11.dtd">
<!-- Generated by graphviz version 2.43.0 (0)
 -->
<!-- Title: Client::checkCgiTimeout Pages: 1 -->
<!--zoomable 939 -->
<svg id="main" version="1.1" xmlns="http://www.w3.org/2000/svg" xmlns:xlink="http://www.w3.org/1999/xlink" xml:space="preserve" onload="init(evt)">
<style type="text/css"><![CDATA[
.edge:hover path { stroke: red; }
.edge:hover polygon { stroke: red; fill: red; }
]]></style>
<script type="text/javascript"><![CDATA[
var edges = document.getElementsByTagName('g');
if (edges && edges.length) {
  for (var i=0;i<edges.length;i++) {
    if (edges[i].id.substr(0,4)=='edge') {
      edges[i].setAttribute('class','edge');
    }
  }
}
]]></script>
        <defs>
                <circle id="rim" cx="0" cy="0" r="7"/>
                <circle id="rim2" cx="0" cy="0" r="3.5"/>
                <g id="zoomPlus">
                        <use xlink:href="#rim" fill="#404040">
                                <set attributeName="fill" to="#808080" begin="zoomplus.mouseover" end="zoomplus.mouseout"/>
                        </use>
                        <path d="M-4,0h8M0,-4v8" fill="none" stroke="white" stroke-width="1.5" pointer-events="none"/>
                </g>
                <g id="zoomMin">
                        <use xlink:href="#rim" fill="#404040">
                                <set attributeName="fill" to="#808080" begin="zoomminus.mouseover" end="zoomminus.mouseout"/>
                        </use>
                        <path d="M-4,0h8" fill="none" stroke="white" stroke-width="1.5" pointer-events="none"/>
                </g>
                <g id="dirArrow">
                        <path fill="none" stroke="white" stroke-width="1.5" d="M0,-3.0v7 M-2.5,-0.5L0,-3.0L2.5,-0.5"/>
                </g>
               <g id="resetDef">
                       <use xlink:href="#rim2" fill="#404040">
                               <set attributeName="fill" to="#808080" begin="reset.mouseover" end="reset.mouseout"/>
                       </use>
               </g>
        </defs>

<script type="text/javascript">
var viewWidth = 972;
var viewHeight = 939;
var sectionId = 'dynsection-5';
</script>
<script xlink:href="svgpan.js"/>
<svg id="graph" class="graph">
<g id="viewport">
<title>Client::checkCgiTimeout</title>
<polygon fill="white" stroke="transparent" points="-4,4 -4,-935.3 968,-935.3 968,4 -4,4"/>
<!-- Node1 -->
<g id="node1" class="node">
<title>Node1</title>
<g id="a_node1"><a xlink:title=" ">
<polygon fill="#bfbfbf" stroke="black" points="0,-221 0,-240 125,-240 125,-221 0,-221"/>
<text text-anchor="middle" x="62.5" y="-228" font-family="Helvetica,sans-Serif" font-size="10.00">Client::checkCgiTimeout</text>
</a>
</g>
</g>
<!-- Node2 -->
<g id="node2" class="node">
<title>Node2</title>
<g id="a_node2"><a xlink:href="ErrorUtils_8cpp.html#a470416220aa911b8f1274140a8322e7a" target="_top" xlink:title=" ">
<polygon fill="white" stroke="black" points="185,-430 185,-449 287,-449 287,-430 185,-430"/>
<text text-anchor="middle" x="236" y="-437" font-family="Helvetica,sans-Serif" font-size="10.00">buildErrorResponse</text>
</a>
</g>
</g>
<!-- Node1&#45;&gt;Node2 -->
<g id="edge1" class="edge">
<title>Node1&#45;&gt;Node2</title>
<path fill="none" stroke="midnightblue" d="M68.21,-240.18C80.81,-265.49 117.34,-334.91 161,-382.5 175.85,-398.68 195.69,-413.69 211.1,-424.25"/>
<polygon fill="midnightblue" stroke="midnightblue" points="209.32,-427.27 219.58,-429.92 213.21,-421.45 209.32,-427.27"/>
</g>
<!-- Node24 -->
<g id="node24" class="node">
<title>Node24</title>
<g id="a_node24"><a xlink:href="classHttpResponse.html#aec25ec31bb3c0a22af07fe82b0a35a79" target="_top" xlink:title=" ">
<polygon fill="white" stroke="black" points="355.5,-829 355.5,-848 462.5,-848 462.5,-829 355.5,-829"/>
<text text-anchor="middle" x="409" y="-836" font-family="Helvetica,sans-Serif" font-size="10.00">HttpResponse::clear</text>
</a>
</g>
</g>
<!-- Node1&#45;&gt;Node24 -->
<g id="edge29" class="edge">
<title>Node1&#45;&gt;Node24</title>
<path fill="none" stroke="midnightblue" d="M67.01,-240.33C78.63,-272.51 117.62,-377.22 161,-458.5 239.1,-604.83 356.06,-767.84 394.93,-820.83"/>
<polygon fill="midnightblue" stroke="midnightblue" points="392.12,-822.92 400.86,-828.9 397.75,-818.77 392.12,-822.92"/>
</g>
<!-- Node25 -->
<g id="node25" class="node">
<title>Node25</title>
<g id="a_node25"><a xlink:href="classCgiProcess.html#add9aed231ffcbe29556d82f6e5c0b097" target="_top" xlink:title=" ">
<polygon fill="white" stroke="black" points="173.5,-316 173.5,-335 298.5,-335 298.5,-316 173.5,-316"/>
<text text-anchor="middle" x="236" y="-323" font-family="Helvetica,sans-Serif" font-size="10.00">CgiProcess::closePipeIn</text>
</a>
</g>
</g>
<!-- Node1&#45;&gt;Node25 -->
<g id="edge31" class="edge">
<title>Node1&#45;&gt;Node25</title>
<path fill="none" stroke="midnightblue" d="M73.08,-240.23C89.56,-256.41 124.98,-288.8 161,-306.5 165.84,-308.88 171,-310.98 176.27,-312.83"/>
<polygon fill="midnightblue" stroke="midnightblue" points="175.22,-316.17 185.81,-315.9 177.37,-309.51 175.22,-316.17"/>
</g>
<!-- Node26 -->
<g id="node26" class="node">
<title>Node26</title>
<g id="a_node26"><a xlink:href="classCgiProcess.html#a496d052cdbc077e1b3e5877272180204" target="_top" xlink:title=" ">
<polygon fill="white" stroke="black" points="170,-278 170,-297 302,-297 302,-278 170,-278"/>
<text text-anchor="middle" x="236" y="-285" font-family="Helvetica,sans-Serif" font-size="10.00">CgiProcess::closePipeOut</text>
</a>
</g>
</g>
<!-- Node1&#45;&gt;Node26 -->
<g id="edge32" class="edge">
<title>Node1&#45;&gt;Node26</title>
<path fill="none" stroke="midnightblue" d="M85.69,-240.03C105.27,-248.23 134.71,-260.04 161,-268.5 168.46,-270.9 176.41,-273.21 184.24,-275.33"/>
<polygon fill="midnightblue" stroke="midnightblue" points="183.47,-278.75 194.04,-277.92 185.26,-271.98 183.47,-278.75"/>
</g>
<!-- Node27 -->
<g id="node27" class="node">
<title>Node27</title>
<g id="a_node27"><a xlink:href="classClient.html#a464a0e4f76c7943eadf2f7f4ae28b1c6" target="_top" xlink:title=" ">
<polygon fill="white" stroke="black" points="171.5,-240 171.5,-259 300.5,-259 300.5,-240 171.5,-240"/>
<text text-anchor="middle" x="236" y="-247" font-family="Helvetica,sans-Serif" font-size="10.00">Client::enqueueResponse</text>
</a>
</g>
</g>
<!-- Node1&#45;&gt;Node27 -->
<g id="edge33" class="edge">
<title>Node1&#45;&gt;Node27</title>
<path fill="none" stroke="midnightblue" d="M125.42,-237.36C137.11,-238.65 149.44,-240.02 161.45,-241.35"/>
<polygon fill="midnightblue" stroke="midnightblue" points="161.12,-244.84 171.44,-242.46 161.89,-237.88 161.12,-244.84"/>
</g>
<!-- Node28 -->
<g id="node28" class="node">
<title>Node28</title>
<g id="a_node28"><a xlink:href="classCgiProcess.html#a9716e52b70fda0486a075305bfae19a6" target="_top" xlink:title=" ">
<polygon fill="white" stroke="black" points="178.5,-202 178.5,-221 293.5,-221 293.5,-202 178.5,-202"/>
<text text-anchor="middle" x="236" y="-209" font-family="Helvetica,sans-Serif" font-size="10.00">CgiProcess::getPipeIn</text>
</a>
</g>
</g>
<!-- Node1&#45;&gt;Node28 -->
<g id="edge34" class="edge">
<title>Node1&#45;&gt;Node28</title>
<path fill="none" stroke="midnightblue" d="M125.42,-223.64C139.31,-222.1 154.12,-220.46 168.2,-218.9"/>
<polygon fill="midnightblue" stroke="midnightblue" points="168.76,-222.36 178.31,-217.78 167.99,-215.4 168.76,-222.36"/>
</g>
<!-- Node29 -->
<g id="node29" class="node">
<title>Node29</title>
<g id="a_node29"><a xlink:href="classCgiProcess.html#ad9430b4680f7ad7316f6df7710e06b3f" target="_top" xlink:title=" ">
<polygon fill="white" stroke="black" points="175,-164 175,-183 297,-183 297,-164 175,-164"/>
<text text-anchor="middle" x="236" y="-171" font-family="Helvetica,sans-Serif" font-size="10.00">CgiProcess::getPipeOut</text>
</a>
</g>
</g>
<!-- Node1&#45;&gt;Node29 -->
<g id="edge35" class="edge">
<title>Node1&#45;&gt;Node29</title>
<path fill="none" stroke="midnightblue" d="M85.69,-220.97C105.27,-212.77 134.71,-200.96 161,-192.5 168.46,-190.1 176.41,-187.79 184.24,-185.67"/>
<polygon fill="midnightblue" stroke="midnightblue" points="185.26,-189.02 194.04,-183.08 183.47,-182.25 185.26,-189.02"/>
</g>
<!-- Node30 -->
<g id="node30" class="node">
<title>Node30</title>
<g id="a_node30"><a xlink:href="classHttpParser.html#ac152c0d7912d2e757516c3d8f1b9891b" target="_top" xlink:title=" ">
<polygon fill="white" stroke="black" points="176,-126 176,-145 296,-145 296,-126 176,-126"/>
<text text-anchor="middle" x="236" y="-133" font-family="Helvetica,sans-Serif" font-size="10.00">HttpParser::getRequest</text>
</a>
</g>
</g>
<!-- Node1&#45;&gt;Node30 -->
<g id="edge36" class="edge">
<title>Node1&#45;&gt;Node30</title>
<path fill="none" stroke="midnightblue" d="M73.08,-220.77C89.56,-204.59 124.98,-172.2 161,-154.5 165.84,-152.12 171,-150.02 176.27,-148.17"/>
<polygon fill="midnightblue" stroke="midnightblue" points="177.37,-151.49 185.81,-145.1 175.22,-144.83 177.37,-151.49"/>
</g>
<!-- Node31 -->
<g id="node31" class="node">
<title>Node31</title>
<g id="a_node31"><a xlink:href="classCgiProcess.html#a6818c290e8857698710fdc09c4b5b409" target="_top" xlink:title=" ">
<polygon fill="white" stroke="black" points="174,-88 174,-107 298,-107 298,-88 174,-88"/>
<text text-anchor="middle" x="236" y="-95" font-family="Helvetica,sans-Serif" font-size="10.00">CgiProcess::isTimedOut</text>
</a>
</g>
</g>
<!-- Node1&#45;&gt;Node31 -->
<g id="edge37" class="edge">
<title>Node1&#45;&gt;Node31</title>
<path fill="none" stroke="midnightblue" d="M68.92,-220.81C81.8,-198.67 116.57,-144.19 161,-116.5 164.39,-114.39 168,-112.51 171.74,-110.84"/>
<polygon fill="midnightblue" stroke="midnightblue" points="173.2,-114.03 181.23,-107.11 170.64,-107.51 173.2,-114.03"/>
</g>
<!-- Node32 -->
<g id="node32" class="node">
<title>Node32</title>
<g id="a_node32"><a xlink:href="classHttpResponse.html#a70c126b617eb978c76afaf29ea4f0cd4" target="_top" xlink:title=" ">
<polygon fill="white" stroke="black" points="175,-354 175,-373 297,-373 297,-354 175,-354"/>
<text text-anchor="middle" x="236" y="-361" font-family="Helvetica,sans-Serif" font-size="10.00">HttpResponse::serialize</text>
</a>
</g>
</g>
<!-- Node1&#45;&gt;Node32 -->
<g id="edge38" class="edge">
<title>Node1&#45;&gt;Node32</title>
<path fill="none" stroke="midnightblue" d="M68.92,-240.19C81.8,-262.33 116.57,-316.81 161,-344.5 164.39,-346.61 168,-348.49 171.74,-350.16"/>
<polygon fill="midnightblue" stroke="midnightblue" points="170.64,-353.49 181.23,-353.89 173.2,-346.97 170.64,-353.49"/>
</g>
<!-- Node34 -->
<g id="node34" class="node">
<title>Node34</title>
<g id="a_node34"><a xlink:href="classCgiProcess.html#a8d41414d3d54ae98dff14aaa78a3a2fc" target="_top" xlink:title=" ">
<polygon fill="white" stroke="black" points="161,-50 161,-69 311,-69 311,-50 161,-50"/>
<text text-anchor="middle" x="236" y="-57" font-family="Helvetica,sans-Serif" font-size="10.00">CgiProcess::terminateProcess</text>
</a>
</g>
</g>
<!-- Node1&#45;&gt;Node34 -->
<g id="edge41" class="edge">
<title>Node1&#45;&gt;Node34</title>
<path fill="none" stroke="midnightblue" d="M66.78,-220.89C76.52,-193.91 107.9,-116.89 161,-78.5 163.69,-76.56 166.56,-74.81 169.54,-73.25"/>
<polygon fill="midnightblue" stroke="midnightblue" points="171.13,-76.37 178.81,-69.06 168.25,-69.99 171.13,-76.37"/>
</g>
<!-- Node35 -->
<g id="node35" class="node">
<title>Node35</title>
<g id="a_node35"><a xlink:href="classServerManager.html#aa0099c81bdb4ab1dcca775720d31c920" target="_top" xlink:title=" ">
<polygon fill="white" stroke="black" points="170.5,-0.5 170.5,-30.5 301.5,-30.5 301.5,-0.5 170.5,-0.5"/>
<text text-anchor="start" x="178.5" y="-18.5" font-family="Helvetica,sans-Serif" font-size="10.00">ServerManager::unregister</text>
<text text-anchor="middle" x="236" y="-7.5" font-family="Helvetica,sans-Serif" font-size="10.00">CgiPipe</text>
</a>
</g>
</g>
<!-- Node1&#45;&gt;Node35 -->
<g id="edge42" class="edge">
<title>Node1&#45;&gt;Node35</title>
<path fill="none" stroke="midnightblue" d="M65.76,-220.58C73.41,-189.35 101.17,-92.05 161,-40.5 162.98,-38.8 165.08,-37.21 167.27,-35.73"/>
<polygon fill="midnightblue" stroke="midnightblue" points="169.26,-38.61 176.11,-30.53 165.71,-32.58 169.26,-38.61"/>
</g>
<!-- Node3 -->
<g id="node3" class="node">
<title>Node3</title>
<g id="a_node3"><a xlink:href="ResponseUtils_8cpp.html#ab7c2cb6fbf297c09ec402182b04584c6" target="_top" xlink:title=" ">
<polygon fill="white" stroke="black" points="362.5,-639 362.5,-658 455.5,-658 455.5,-639 362.5,-639"/>
<text text-anchor="middle" x="409" y="-646" font-family="Helvetica,sans-Serif" font-size="10.00">fillBaseResponse</text>
</a>
</g>
</g>
<!-- Node2&#45;&gt;Node3 -->
<g id="edge2" class="edge">
<title>Node2&#45;&gt;Node3</title>
<path fill="none" stroke="midnightblue" d="M244.79,-449.02C271.44,-481.6 359.22,-588.88 393.81,-631.15"/>
<polygon fill="midnightblue" stroke="midnightblue" points="391.12,-633.4 400.16,-638.92 396.54,-628.96 391.12,-633.4"/>
</g>
<!-- Node8 -->
<g id="node8" class="node">
<title>Node8</title>
<g id="a_node8"><a xlink:href="classHttpResponse.html#a7efa3ab17ead358609d80b55db164867" target="_top" xlink:title=" ">
<polygon fill="white" stroke="black" points="699,-468 699,-487 830,-487 830,-468 699,-468"/>
<text text-anchor="middle" x="764.5" y="-475" font-family="Helvetica,sans-Serif" font-size="10.00">HttpResponse::setHeader</text>
</a>
</g>
</g>
<!-- Node2&#45;&gt;Node8 -->
<g id="edge27" class="edge">
<title>Node2&#45;&gt;Node8</title>
<path fill="none" stroke="midnightblue" d="M287.02,-446.61C305.8,-449.08 327.35,-451.69 347,-453.5 466.26,-464.51 605.22,-471.31 688.68,-474.75"/>
<polygon fill="midnightblue" stroke="midnightblue" points="688.69,-478.25 698.82,-475.16 688.98,-471.25 688.69,-478.25"/>
</g>
<!-- Node15 -->
<g id="node15" class="node">
<title>Node15</title>
<g id="a_node15"><a xlink:href="classHttpResponse.html#a11a67ba43096f5eb1870e65f1814d364" target="_top" xlink:title=" ">
<polygon fill="white" stroke="black" points="507,-430 507,-449 662,-449 662,-430 507,-430"/>
<text text-anchor="middle" x="584.5" y="-437" font-family="Helvetica,sans-Serif" font-size="10.00">HttpResponse::setContentType</text>
</a>
</g>
</g>
<!-- Node2&#45;&gt;Node15 -->
<g id="edge26" class="edge">
<title>Node2&#45;&gt;Node15</title>
<path fill="none" stroke="midnightblue" d="M287.01,-439.5C341.83,-439.5 430.77,-439.5 496.96,-439.5"/>
<polygon fill="midnightblue" stroke="midnightblue" points="496.97,-443 506.97,-439.5 496.97,-436 496.97,-443"/>
</g>
<!-- Node21 -->
<g id="node21" class="node">
<title>Node21</title>
<g id="a_node21"><a xlink:href="ErrorUtils_8cpp.html#aa759f2b84e51d20fdf7801c0514c3635" target="_top" xlink:title=" ">
<polygon fill="white" stroke="black" points="367,-392 367,-411 451,-411 451,-392 367,-392"/>
<text text-anchor="middle" x="409" y="-399" font-family="Helvetica,sans-Serif" font-size="10.00">readFileToBody</text>
</a>
</g>
</g>
<!-- Node2&#45;&gt;Node21 -->
<g id="edge24" class="edge">
<title>Node2&#45;&gt;Node21</title>
<path fill="none" stroke="midnightblue" d="M280.15,-429.91C303.54,-424.71 332.59,-418.26 357.09,-412.81"/>
<polygon fill="midnightblue" stroke="midnightblue" points="357.92,-416.21 366.93,-410.63 356.4,-409.38 357.92,-416.21"/>
</g>
<!-- Node22 -->
<g id="node22" class="node">
<title>Node22</title>
<g id="a_node22"><a xlink:href="RequestProcessorUtils_8cpp.html#aa9c12d87cb0781b781a580ff9bfd0c06" target="_top" xlink:title=" ">
<polygon fill="white" stroke="black" points="375,-354 375,-373 443,-373 443,-354 375,-354"/>
<text text-anchor="middle" x="409" y="-361" font-family="Helvetica,sans-Serif" font-size="10.00">resolvePath</text>
</a>
</g>
</g>
<!-- Node2&#45;&gt;Node22 -->
<g id="edge25" class="edge">
<title>Node2&#45;&gt;Node22</title>
<path fill="none" stroke="midnightblue" d="M253.34,-429.87C274.45,-417.7 312.58,-396.65 347,-382.5 352.79,-380.12 358.99,-377.87 365.14,-375.8"/>
<polygon fill="midnightblue" stroke="midnightblue" points="366.26,-379.12 374.7,-372.71 364.11,-372.45 366.26,-379.12"/>
</g>
<!-- Node23 -->
<g id="node23" class="node">
<title>Node23</title>
<g id="a_node23"><a xlink:href="ResponseUtils_8cpp.html#a1c98cd4773c38cae6781a257fa318ca7" target="_top" xlink:title=" ">
<polygon fill="white" stroke="black" points="385.5,-677 385.5,-696 432.5,-696 432.5,-677 385.5,-677"/>
<text text-anchor="middle" x="409" y="-684" font-family="Helvetica,sans-Serif" font-size="10.00">toBody</text>
</a>
</g>
</g>
<!-- Node2&#45;&gt;Node23 -->
<g id="edge28" class="edge">
<title>Node2&#45;&gt;Node23</title>
<path fill="none" stroke="midnightblue" d="M238.85,-449.43C245.96,-484.7 274.78,-605.22 347,-667.5 355,-674.4 365.49,-678.8 375.51,-681.6"/>
<polygon fill="midnightblue" stroke="midnightblue" points="374.73,-685.01 385.27,-683.9 376.34,-678.19 374.73,-685.01"/>
</g>
<!-- Node4 -->
<g id="node4" class="node">
<title>Node4</title>
<g id="a_node4"><a xlink:href="SessionUtils_8cpp.html#aabfd66406b8a4aec4237b26ff8e76a65" target="_top" xlink:title=" ">
<polygon fill="white" stroke="black" points="515.5,-696 515.5,-715 653.5,-715 653.5,-696 515.5,-696"/>
<text text-anchor="middle" x="584.5" y="-703" font-family="Helvetica,sans-Serif" font-size="10.00">addSessionCookieIfNeeded</text>
</a>
</g>
</g>
<!-- Node3&#45;&gt;Node4 -->
<g id="edge3" class="edge">
<title>Node3&#45;&gt;Node4</title>
<path fill="none" stroke="midnightblue" d="M444.59,-658.06C453.32,-660.81 462.6,-664.01 471,-667.5 487.71,-674.44 490.1,-680.05 507,-686.5 513.44,-688.96 520.31,-691.19 527.19,-693.18"/>
<polygon fill="midnightblue" stroke="midnightblue" points="526.66,-696.66 537.23,-695.92 528.51,-689.91 526.66,-696.66"/>
</g>
<!-- Node3&#45;&gt;Node8 -->
<g id="edge18" class="edge">
<title>Node3&#45;&gt;Node8</title>
<path fill="none" stroke="midnightblue" d="M418.58,-638.91C434.34,-621.92 469.7,-586.64 507,-568.5 570.42,-537.65 596.09,-559.6 662,-534.5 690.83,-523.52 721.36,-505.38 741.32,-492.51"/>
<polygon fill="midnightblue" stroke="midnightblue" points="743.25,-495.42 749.7,-487.01 739.42,-489.57 743.25,-495.42"/>
</g>
<!-- Node10 -->
<g id="node10" class="node">
<title>Node10</title>
<g id="a_node10"><a xlink:href="classHttpRequest.html#adf523a5345b525702a858f8792bab8ea" target="_top" xlink:title=" ">
<polygon fill="white" stroke="black" points="522.5,-506 522.5,-525 646.5,-525 646.5,-506 522.5,-506"/>
<text text-anchor="middle" x="584.5" y="-513" font-family="Helvetica,sans-Serif" font-size="10.00">HttpRequest::getMethod</text>
</a>
</g>
</g>
<!-- Node3&#45;&gt;Node10 -->
<g id="edge9" class="edge">
<title>Node3&#45;&gt;Node10</title>
<path fill="none" stroke="midnightblue" d="M415.99,-638.76C429.53,-617.55 464.66,-566.86 507,-539.5 513.82,-535.1 521.49,-531.45 529.29,-528.45"/>
<polygon fill="midnightblue" stroke="midnightblue" points="530.53,-531.72 538.8,-525.1 528.21,-525.12 530.53,-531.72"/>
</g>
<!-- Node11 -->
<g id="node11" class="node">
<title>Node11</title>
<g id="a_node11"><a xlink:href="classHttpRequest.html#acde519e492e10352bc39d6a3bcd857b2" target="_top" xlink:title=" ">
<polygon fill="white" stroke="black" points="528.5,-848 528.5,-867 640.5,-867 640.5,-848 528.5,-848"/>
<text text-anchor="middle" x="584.5" y="-855" font-family="Helvetica,sans-Serif" font-size="10.00">HttpRequest::getPath</text>
</a>
</g>
</g>
<!-- Node3&#45;&gt;Node11 -->
<g id="edge10" class="edge">
<title>Node3&#45;&gt;Node11</title>
<path fill="none" stroke="midnightblue" d="M455.56,-656.62C461.36,-659.29 466.75,-662.82 471,-667.5 523.26,-724.95 453.08,-782.6 507,-838.5 510.5,-842.13 514.57,-845.1 518.98,-847.54"/>
<polygon fill="midnightblue" stroke="midnightblue" points="517.88,-850.88 528.44,-851.82 520.77,-844.51 517.88,-850.88"/>
</g>
<!-- Node12 -->
<g id="node12" class="node">
<title>Node12</title>
<g id="a_node12"><a xlink:href="classHttpRequest.html#ac2a5d18d42289a03b57215c98d8df41e" target="_top" xlink:title=" ">
<polygon fill="white" stroke="black" points="522,-810 522,-829 647,-829 647,-810 522,-810"/>
<text text-anchor="middle" x="584.5" y="-817" font-family="Helvetica,sans-Serif" font-size="10.00">HttpRequest::getVersion</text>
</a>
</g>
</g>
<!-- Node3&#45;&gt;Node12 -->
<g id="edge11" class="edge">
<title>Node3&#45;&gt;Node12</title>
<path fill="none" stroke="midnightblue" d="M455.63,-656.98C461.35,-659.6 466.69,-663.03 471,-667.5 513.48,-711.61 463.25,-757.65 507,-800.5 508.88,-802.34 510.91,-804.02 513.06,-805.54"/>
<polygon fill="midnightblue" stroke="midnightblue" points="511.45,-808.65 521.85,-810.66 514.98,-802.6 511.45,-808.65"/>
</g>
<!-- Node13 -->
<g id="node13" class="node">
<title>Node13</title>
<g id="a_node13"><a xlink:href="classHttpResponse.html#acba4d7264c5b05e63a199c87f8526473" target="_top" xlink:title=" ">
<polygon fill="white" stroke="black" points="698,-544 698,-563 831,-563 831,-544 698,-544"/>
<text text-anchor="middle" x="764.5" y="-551" font-family="Helvetica,sans-Serif" font-size="10.00">HttpResponse::hasHeader</text>
</a>
</g>
</g>
<!-- Node3&#45;&gt;Node13 -->
<g id="edge12" class="edge">
<title>Node3&#45;&gt;Node13</title>
<path fill="none" stroke="midnightblue" d="M431.62,-638.92C451.05,-630.57 480.53,-618.57 507,-610.5 571.43,-590.85 646.87,-574.91 699.18,-564.93"/>
<polygon fill="midnightblue" stroke="midnightblue" points="700.15,-568.31 709.32,-563.01 698.85,-561.43 700.15,-568.31"/>
</g>
<!-- Node14 -->
<g id="node14" class="node">
<title>Node14</title>
<g id="a_node14"><a xlink:href="classHttpResponse.html#a884d07c418ba6145385d63e43bb1b29a" target="_top" xlink:title=" ">
<polygon fill="white" stroke="black" points="523.5,-772 523.5,-791 645.5,-791 645.5,-772 523.5,-772"/>
<text text-anchor="middle" x="584.5" y="-779" font-family="Helvetica,sans-Serif" font-size="10.00">HttpResponse::setBody</text>
</a>
</g>
</g>
<!-- Node3&#45;&gt;Node14 -->
<g id="edge14" class="edge">
<title>Node3&#45;&gt;Node14</title>
<path fill="none" stroke="midnightblue" d="M455.55,-657.51C461.21,-660.06 466.56,-663.32 471,-667.5 503.87,-698.45 473.23,-732.52 507,-762.5 509.33,-764.57 511.85,-766.42 514.51,-768.07"/>
<polygon fill="midnightblue" stroke="midnightblue" points="512.92,-771.19 523.41,-772.72 516.16,-764.99 512.92,-771.19"/>
</g>
<!-- Node3&#45;&gt;Node15 -->
<g id="edge15" class="edge">
<title>Node3&#45;&gt;Node15</title>
<path fill="none" stroke="midnightblue" d="M414.63,-638.77C427.03,-613.37 463.08,-543.72 507,-496.5 522.18,-480.18 542.54,-465.26 558.44,-454.79"/>
<polygon fill="midnightblue" stroke="midnightblue" points="560.69,-457.5 567.22,-449.16 556.91,-451.61 560.69,-457.5"/>
</g>
<!-- Node16 -->
<g id="node16" class="node">
<title>Node16</title>
<g id="a_node16"><a xlink:href="classHttpResponse.html#ac982631ddcf451521e207ac0c2bd0108" target="_top" xlink:title=" ">
<polygon fill="white" stroke="black" points="513,-734 513,-753 656,-753 656,-734 513,-734"/>
<text text-anchor="middle" x="584.5" y="-741" font-family="Helvetica,sans-Serif" font-size="10.00">HttpResponse::setHeadOnly</text>
</a>
</g>
</g>
<!-- Node3&#45;&gt;Node16 -->
<g id="edge19" class="edge">
<title>Node3&#45;&gt;Node16</title>
<path fill="none" stroke="midnightblue" d="M454.18,-658.11C460.18,-660.57 465.98,-663.65 471,-667.5 494.77,-685.75 482.71,-706.96 507,-724.5 509.66,-726.42 512.5,-728.15 515.45,-729.71"/>
<polygon fill="midnightblue" stroke="midnightblue" points="514.05,-732.92 524.61,-733.87 516.95,-726.54 514.05,-732.92"/>
</g>
<!-- Node17 -->
<g id="node17" class="node">
<title>Node17</title>
<g id="a_node17"><a xlink:href="classHttpResponse.html#a610f8f887ca042f2b18ec395aaccc255" target="_top" xlink:title=" ">
<polygon fill="white" stroke="black" points="509,-886 509,-905 660,-905 660,-886 509,-886"/>
<text text-anchor="middle" x="584.5" y="-893" font-family="Helvetica,sans-Serif" font-size="10.00">HttpResponse::setStatusCode</text>
</a>
</g>
</g>
<!-- Node3&#45;&gt;Node17 -->
<g id="edge20" class="edge">
<title>Node3&#45;&gt;Node17</title>
<path fill="none" stroke="midnightblue" d="M455.72,-656.47C461.5,-659.17 466.83,-662.75 471,-667.5 533.13,-738.38 442.82,-807.47 507,-876.5 508.22,-877.81 509.51,-879.03 510.87,-880.18"/>
<polygon fill="midnightblue" stroke="midnightblue" points="509.03,-883.16 519.26,-885.92 512.98,-877.38 509.03,-883.16"/>
</g>
<!-- Node19 -->
<g id="node19" class="node">
<title>Node19</title>
<g id="a_node19"><a xlink:href="classHttpResponse.html#a407dc1ea3f01365d8105fadc0418bc79" target="_top" xlink:title=" ">
<polygon fill="white" stroke="black" points="518.5,-658 518.5,-677 650.5,-677 650.5,-658 518.5,-658"/>
<text text-anchor="middle" x="584.5" y="-665" font-family="Helvetica,sans-Serif" font-size="10.00">HttpResponse::setVersion</text>
</a>
</g>
</g>
<!-- Node3&#45;&gt;Node19 -->
<g id="edge22" class="edge">
<title>Node3&#45;&gt;Node19</title>
<path fill="none" stroke="midnightblue" d="M455.59,-653.49C471.69,-655.26 490.26,-657.29 508.17,-659.25"/>
<polygon fill="midnightblue" stroke="midnightblue" points="508,-662.75 518.32,-660.36 508.76,-655.79 508,-662.75"/>
</g>
<!-- Node20 -->
<g id="node20" class="node">
<title>Node20</title>
<g id="a_node20"><a xlink:href="ResponseUtils_8cpp.html#af8cce302648449aa6215ac211230ef75" target="_top" xlink:title=" ">
<polygon fill="white" stroke="black" points="542.5,-620 542.5,-639 626.5,-639 626.5,-620 542.5,-620"/>
<text text-anchor="middle" x="584.5" y="-627" font-family="Helvetica,sans-Serif" font-size="10.00">versionToString</text>
</a>
</g>
</g>
<!-- Node3&#45;&gt;Node20 -->
<g id="edge23" class="edge">
<title>Node3&#45;&gt;Node20</title>
<path fill="none" stroke="midnightblue" d="M455.59,-643.51C479.13,-640.93 507.94,-637.77 532.25,-635.11"/>
<polygon fill="midnightblue" stroke="midnightblue" points="532.81,-638.57 542.37,-634 532.05,-631.61 532.81,-638.57"/>
</g>
<!-- Node5 -->
<g id="node5" class="node">
<title>Node5</title>
<g id="a_node5"><a xlink:href="SessionUtils_8cpp.html#af915f0cd7984e5d06370014bb43c74b6" target="_top" xlink:title=" ">
<polygon fill="white" stroke="black" points="721,-696 721,-715 808,-715 808,-696 721,-696"/>
<text text-anchor="middle" x="764.5" y="-703" font-family="Helvetica,sans-Serif" font-size="10.00">createSessionId</text>
</a>
</g>
</g>
<!-- Node4&#45;&gt;Node5 -->
<g id="edge4" class="edge">
<title>Node4&#45;&gt;Node5</title>
<path fill="none" stroke="midnightblue" d="M653.56,-705.5C672.6,-705.5 692.99,-705.5 710.98,-705.5"/>
<polygon fill="midnightblue" stroke="midnightblue" points="710.99,-709 720.99,-705.5 710.99,-702 710.99,-709"/>
</g>
<!-- Node6 -->
<g id="node6" class="node">
<title>Node6</title>
<g id="a_node6"><a xlink:href="SessionUtils_8cpp.html#a655520ad6c85707c8e1aae50c1eda6c8" target="_top" xlink:title=" ">
<polygon fill="white" stroke="black" points="710.5,-658 710.5,-677 818.5,-677 818.5,-658 710.5,-658"/>
<text text-anchor="middle" x="764.5" y="-665" font-family="Helvetica,sans-Serif" font-size="10.00">extractIdFromCookie</text>
</a>
</g>
</g>
<!-- Node4&#45;&gt;Node6 -->
<g id="edge5" class="edge">
<title>Node4&#45;&gt;Node6</title>
<path fill="none" stroke="midnightblue" d="M630.42,-695.91C654.33,-690.81 683.92,-684.49 709.12,-679.11"/>
<polygon fill="midnightblue" stroke="midnightblue" points="709.86,-682.53 718.91,-677.02 708.4,-675.69 709.86,-682.53"/>
</g>
<!-- Node7 -->
<g id="node7" class="node">
<title>Node7</title>
<g id="a_node7"><a xlink:href="classHttpRequest.html#ab537cb11b054734695ee4889d88aec6d" target="_top" xlink:title="Obtiene un header específico de la petición.">
<polygon fill="white" stroke="black" points="703,-734 703,-753 826,-753 826,-734 703,-734"/>
<text text-anchor="middle" x="764.5" y="-741" font-family="Helvetica,sans-Serif" font-size="10.00">HttpRequest::getHeader</text>
</a>
</g>
</g>
<!-- Node4&#45;&gt;Node7 -->
<g id="edge6" class="edge">
<title>Node4&#45;&gt;Node7</title>
<path fill="none" stroke="midnightblue" d="M630.42,-715.09C654.33,-720.19 683.92,-726.51 709.12,-731.89"/>
<polygon fill="midnightblue" stroke="midnightblue" points="708.4,-735.31 718.91,-733.98 709.86,-728.47 708.4,-735.31"/>
</g>
<!-- Node4&#45;&gt;Node8 -->
<g id="edge7" class="edge">
<title>Node4&#45;&gt;Node8</title>
<path fill="none" stroke="midnightblue" d="M649.12,-695.87C653.86,-693.37 658.25,-690.29 662,-686.5 710.82,-637.14 662.09,-593.92 698,-534.5 708.27,-517.51 725.3,-502.92 739.42,-492.75"/>
<polygon fill="midnightblue" stroke="midnightblue" points="741.51,-495.57 747.75,-487.01 737.53,-489.81 741.51,-495.57"/>
</g>
<!-- Node9 -->
<g id="node9" class="node">
<title>Node9</title>
<g id="a_node9"><a xlink:href="namespacehttp__header__utils.html#aa9b0e84aeed4203326a12eecbcd3f9e5" target="_top" xlink:title=" ">
<polygon fill="white" stroke="black" points="867,-443.5 867,-473.5 964,-473.5 964,-443.5 867,-443.5"/>
<text text-anchor="start" x="875" y="-461.5" font-family="Helvetica,sans-Serif" font-size="10.00">http_header_utils::</text>
<text text-anchor="middle" x="915.5" y="-450.5" font-family="Helvetica,sans-Serif" font-size="10.00">toLowerCopy</text>
</a>
</g>
</g>
<!-- Node8&#45;&gt;Node9 -->
<g id="edge8" class="edge">
<title>Node8&#45;&gt;Node9</title>
<path fill="none" stroke="midnightblue" d="M830.42,-469.22C839.21,-468.1 848.19,-466.96 856.84,-465.85"/>
<polygon fill="midnightblue" stroke="midnightblue" points="857.35,-469.32 866.82,-464.58 856.46,-462.37 857.35,-469.32"/>
</g>
<!-- Node13&#45;&gt;Node9 -->
<g id="edge13" class="edge">
<title>Node13&#45;&gt;Node9</title>
<path fill="none" stroke="midnightblue" d="M780.61,-543.87C804.34,-528.73 850.91,-499.05 882.37,-478.99"/>
<polygon fill="midnightblue" stroke="midnightblue" points="884.26,-481.93 890.81,-473.6 880.5,-476.03 884.26,-481.93"/>
</g>
<!-- Node15&#45;&gt;Node8 -->
<g id="edge16" class="edge">
<title>Node15&#45;&gt;Node8</title>
<path fill="none" stroke="midnightblue" d="M630.42,-449.09C654.33,-454.19 683.92,-460.51 709.12,-465.89"/>
<polygon fill="midnightblue" stroke="midnightblue" points="708.4,-469.31 718.91,-467.98 709.86,-462.47 708.4,-469.31"/>
</g>
<!-- Node15&#45;&gt;Node9 -->
<g id="edge17" class="edge">
<title>Node15&#45;&gt;Node9</title>
<path fill="none" stroke="midnightblue" d="M662.22,-443.93C721.62,-447.36 802.62,-452.04 856.64,-455.16"/>
<polygon fill="midnightblue" stroke="midnightblue" points="856.55,-458.66 866.74,-455.74 856.96,-451.67 856.55,-458.66"/>
</g>
<!-- Node18 -->
<g id="node18" class="node">
<title>Node18</title>
<g id="a_node18"><a xlink:href="HttpResponse_8cpp.html#aadc8fd8bbc80a1b3551ea1357e04f07b" target="_top" xlink:title=" ">
<polygon fill="white" stroke="black" points="705,-905 705,-924 824,-924 824,-905 705,-905"/>
<text text-anchor="middle" x="764.5" y="-912" font-family="Helvetica,sans-Serif" font-size="10.00">reasonPhraseForStatus</text>
</a>
</g>
</g>
<!-- Node17&#45;&gt;Node18 -->
<g id="edge21" class="edge">
<title>Node17&#45;&gt;Node18</title>
<path fill="none" stroke="midnightblue" d="M660.21,-903.48C671.65,-904.7 683.41,-905.95 694.71,-907.16"/>
<polygon fill="midnightblue" stroke="midnightblue" points="694.62,-910.67 704.94,-908.25 695.36,-903.71 694.62,-910.67"/>
</g>
<!-- Node24&#45;&gt;Node18 -->
<g id="edge30" class="edge">
<title>Node24&#45;&gt;Node18</title>
<path fill="none" stroke="midnightblue" d="M418.11,-848.13C433.39,-865.43 468.37,-901.17 507,-914.5 571.07,-936.61 649.61,-932.43 702.78,-925.41"/>
<polygon fill="midnightblue" stroke="midnightblue" points="703.31,-928.87 712.73,-924.02 702.34,-921.93 703.31,-928.87"/>
</g>
<!-- Node32&#45;&gt;Node9 -->
<g id="edge39" class="edge">
<title>Node32&#45;&gt;Node9</title>
<path fill="none" stroke="midnightblue" d="M289.43,-353.99C296.95,-351.51 304.37,-348.4 311,-344.5 331.05,-332.7 325.63,-315.69 347,-306.5 397.63,-284.72 416.64,-297.44 471,-306.5 624.6,-332.09 796.32,-404.33 873.29,-439.19"/>
<polygon fill="midnightblue" stroke="midnightblue" points="872.08,-442.49 882.63,-443.46 874.99,-436.12 872.08,-442.49"/>
</g>
<!-- Node33 -->
<g id="node33" class="node">
<title>Node33</title>
<g id="a_node33"><a xlink:href="HttpResponse_8cpp.html#af8cce302648449aa6215ac211230ef75" target="_top" xlink:title=" ">
<polygon fill="white" stroke="black" points="367,-316 367,-335 451,-335 451,-316 367,-316"/>
<text text-anchor="middle" x="409" y="-323" font-family="Helvetica,sans-Serif" font-size="10.00">versionToString</text>
</a>
</g>
</g>
<!-- Node32&#45;&gt;Node33 -->
<g id="edge40" class="edge">
<title>Node32&#45;&gt;Node33</title>
<path fill="none" stroke="midnightblue" d="M280.15,-353.91C303.54,-348.71 332.59,-342.26 357.09,-336.81"/>
<polygon fill="midnightblue" stroke="midnightblue" points="357.92,-340.21 366.93,-334.63 356.4,-333.38 357.92,-340.21"/>
</g>
<!-- Node36 -->
<g id="node36" class="node">
<title>Node36</title>
<g id="a_node36"><a xlink:href="classEpollWrapper.html#a9f0b3f139a516df121fa05a910ae0c06" target="_top" xlink:title=" ">
<polygon fill="white" stroke="black" points="347,-6 347,-25 471,-25 471,-6 347,-6"/>
<text text-anchor="middle" x="409" y="-13" font-family="Helvetica,sans-Serif" font-size="10.00">EpollWrapper::removeFd</text>
</a>
</g>
</g>
<!-- Node35&#45;&gt;Node36 -->
<g id="edge43" class="edge">
<title>Node35&#45;&gt;Node36</title>
<path fill="none" stroke="midnightblue" d="M301.65,-15.5C313.13,-15.5 325.15,-15.5 336.81,-15.5"/>
<polygon fill="midnightblue" stroke="midnightblue" points="336.93,-19 346.93,-15.5 336.93,-12 336.93,-19"/>
</g>
</g>
</svg>
        <g id="navigator" transform="translate(0 0)" fill="#404254">
                <rect fill="#f2f5e9" fill-opacity="0.5" stroke="#606060" stroke-width=".5" x="0" y="0" width="60" height="60"/>
                <use id="zoomplus" xlink:href="#zoomPlus" x="17" y="9" onmousedown="handleZoom(evt,'in')"/>
                <use id="zoomminus" xlink:href="#zoomMin" x="42" y="9" onmousedown="handleZoom(evt,'out')"/>
                <use id="reset" xlink:href="#resetDef" x="30" y="36" onmousedown="handleReset()"/>
                <g id="arrowUp" xlink:href="#dirArrow" transform="translate(30 24)" onmousedown="handlePan(0,-1)">
                  <use xlink:href="#rim" fill="#404040">
                        <set attributeName="fill" to="#808080" begin="arrowUp.mouseover" end="arrowUp.mouseout"/>
                  </use>
                  <path fill="none" stroke="white" stroke-width="1.5" d="M0,-3.0v7 M-2.5,-0.5L0,-3.0L2.5,-0.5"/>
                </g>
                <g id="arrowRight" xlink:href="#dirArrow" transform="rotate(90) translate(36 -43)" onmousedown="handlePan(1,0)">
                  <use xlink:href="#rim" fill="#404040">
                        <set attributeName="fill" to="#808080" begin="arrowRight.mouseover" end="arrowRight.mouseout"/>
                  </use>
                  <path fill="none" stroke="white" stroke-width="1.5" d="M0,-3.0v7 M-2.5,-0.5L0,-3.0L2.5,-0.5"/>
                </g>
                <g id="arrowDown" xlink:href="#dirArrow" transform="rotate(180) translate(-30 -48)" onmousedown="handlePan(0,1)">
                  <use xlink:href="#rim" fill="#404040">
                        <set attributeName="fill" to="#808080" begin="arrowDown.mouseover" end="arrowDown.mouseout"/>
                  </use>
                  <path fill="none" stroke="white" stroke-width="1.5" d="M0,-3.0v7 M-2.5,-0.5L0,-3.0L2.5,-0.5"/>
                </g>
                <g id="arrowLeft" xlink:href="#dirArrow" transform="rotate(270) translate(-36 17)" onmousedown="handlePan(-1,0)">
                  <use xlink:href="#rim" fill="#404040">
                        <set attributeName="fill" to="#808080" begin="arrowLeft.mouseover" end="arrowLeft.mouseout"/>
                  </use>
                  <path fill="none" stroke="white" stroke-width="1.5" d="M0,-3.0v7 M-2.5,-0.5L0,-3.0L2.5,-0.5"/>
                </g>
        </g>
        <svg viewBox="0 0 15 15" width="100%" height="30px" preserveAspectRatio="xMaxYMin meet">
         <g id="arrow_out" transform="scale(0.3 0.3)">
          <a xlink:href="classClient_a3b000abab7a3fe339f0f39ad5daca68f_cgraph_org.svg" target="_base">
           <rect id="button" ry="5" rx="5" y="6" x="6" height="38" width="38"
                fill="#f2f5e9" fill-opacity="0.5" stroke="#606060" stroke-width="1.0"/>
           <path id="arrow"
             d="M 11.500037,31.436501 C 11.940474,20.09759 22.043105,11.32322 32.158766,21.979434 L 37.068811,17.246167 C 37.068811,17.246167 37.088388,32 37.088388,32 L 22.160133,31.978069 C 22.160133,31.978069 26.997745,27.140456 26.997745,27.140456 C 18.528582,18.264221 13.291696,25.230495 11.500037,31.436501 z"
             style="fill:#404040;"/>
          </a>
         </g>
        </svg>
</svg>
