<?xml version="1.0" encoding="UTF-8" standalone="no"?>
<!DOCTYPE svg PUBLIC "-//W3C//DTD SVG 1.1//EN"
 "http://www.w3.org/Graphics/SVG/1.1/DTD/svg11.dtd">
<!-- Generated by graphviz version 2.43.0 (0)
 -->
<!-- Title: HttpRequest::shouldCloseConnection Pages: 1 -->
<!--zoomable 114 -->
<svg id="main" version="1.1" xmlns="http://www.w3.org/2000/svg" xmlns:xlink="http://www.w3.org/1999/xlink" xml:space="preserve" onload="init(evt)">
<style type="text/css"><![CDATA[
.edge:hover path { stroke: red; }
.edge:hover polygon { stroke: red; fill: red; }
]]></style>
<script type="text/javascript"><![CDATA[
var edges = document.getElementsByTagName('g');
if (edges && edges.length) {
  for (var i=0;i<edges.length;i++) {
    if (edges[i].id.substr(0,4)=='edge') {
      edges[i].setAttribute('class','edge');
    }
  }
}
]]></script>
        <defs>
                <circle id="rim" cx="0" cy="0" r="7"/>
                <circle id="rim2" cx="0" cy="0" r="3.5"/>
                <g id="zoomPlus">
                        <use xlink:href="#rim" fill="#404040">
                                <set attributeName="fill" to="#808080" begin="zoomplus.mouseover" end="zoomplus.mouseout"/>
                        </use>
                        <path d="M-4,0h8M0,-4v8" fill="none" stroke="white" stroke-width="1.5" pointer-events="none"/>
                </g>
                <g id="zoomMin">
                        <use xlink:href="#rim" fill="#404040">
                                <set attributeName="fill" to="#808080" begin="zoomminus.mouseover" end="zoomminus.mouseout"/>
                        </use>
                        <path d="M-4,0h8" fill="none" stroke="white" stroke-width="1.5" pointer-events="none"/>
                </g>
                <g id="dirArrow">
                        <path fill="none" stroke="white" stroke-width="1.5" d="M0,-3.0v7 M-2.5,-0.5L0,-3.0L2.5,-0.5"/>
                </g>
               <g id="resetDef">
                       <use xlink:href="#rim2" fill="#404040">
                               <set attributeName="fill" to="#808080" begin="reset.mouseover" end="reset.mouseout"/>
                       </use>
               </g>
        </defs>

<script type="text/javascript">
var viewWidth = 1567;
var viewHeight = 114;
var sectionId = 'dynsection-19';
</script>
<script xlink:href="svgpan.js"/>
<svg id="graph" class="graph">
<g id="viewport">
<title>HttpRequest::shouldCloseConnection</title>
<polygon fill="white" stroke="transparent" points="-4,4 -4,-109.65 1563,-109.65 1563,4 -4,4"/>
<!-- Node1 -->
<g id="node1" class="node">
<title>Node1</title>
<g id="a_node1"><a xlink:title="Verifica si se debe cerrar la conexión con el cliente después de enviar la respuesta.">
<polygon fill="#bfbfbf" stroke="black" points="1427,-33.65 1427,-63.65 1559,-63.65 1559,-33.65 1427,-33.65"/>
<text text-anchor="start" x="1435" y="-51.65" font-family="Helvetica,sans-Serif" font-size="10.00">HttpRequest::shouldClose</text>
<text text-anchor="middle" x="1493" y="-40.65" font-family="Helvetica,sans-Serif" font-size="10.00">Connection</text>
</a>
</g>
</g>
<!-- Node2 -->
<g id="node2" class="node">
<title>Node2</title>
<g id="a_node2"><a xlink:href="classClient.html#a2e0da898af07e89fcfd83fe5a3077256" target="_top" xlink:title=" ">
<polygon fill="white" stroke="black" points="1293,-58.15 1293,-77.15 1391,-77.15 1391,-58.15 1293,-58.15"/>
<text text-anchor="middle" x="1342" y="-65.15" font-family="Helvetica,sans-Serif" font-size="10.00">Client::executeCgi</text>
</a>
</g>
</g>
<!-- Node1&#45;&gt;Node2 -->
<g id="edge1" class="edge">
<title>Node1&#45;&gt;Node2</title>
<path fill="none" stroke="midnightblue" d="M1416.57,-58.27C1407.97,-59.36 1399.39,-60.46 1391.28,-61.49"/>
<polygon fill="midnightblue" stroke="midnightblue" points="1417.17,-61.72 1426.65,-56.98 1416.28,-54.78 1417.17,-61.72"/>
</g>
<!-- Node6 -->
<g id="node6" class="node">
<title>Node6</title>
<g id="a_node6"><a xlink:href="classClient.html#abcf615f2514ae7e0266315693e73a31a" target="_top" xlink:title=" ">
<polygon fill="white" stroke="black" points="652,-58.15 652,-77.15 807,-77.15 807,-58.15 652,-58.15"/>
<text text-anchor="middle" x="729.5" y="-65.15" font-family="Helvetica,sans-Serif" font-size="10.00">Client::handleCompleteRequest</text>
</a>
</g>
</g>
<!-- Node1&#45;&gt;Node6 -->
<g id="edge12" class="edge">
<title>Node1&#45;&gt;Node6</title>
<path fill="none" stroke="midnightblue" d="M1449.08,-67.55C1431.41,-74.6 1410.53,-82.01 1391,-86.65 1313.37,-105.07 1292.28,-105.65 1212.5,-105.65 1212.5,-105.65 1212.5,-105.65 1060,-105.65 960.81,-105.65 845.93,-88.45 781.37,-77.19"/>
<polygon fill="midnightblue" stroke="midnightblue" points="1450.61,-70.71 1458.54,-63.69 1447.96,-64.23 1450.61,-70.71"/>
</g>
<!-- Node12 -->
<g id="node12" class="node">
<title>Node12</title>
<g id="a_node12"><a xlink:href="StaticPathHandler_8cpp.html#a28a771d93d3051098585ebc34ed29855" target="_top" xlink:title=" ">
<polygon fill="white" stroke="black" points="1299.5,-20.15 1299.5,-39.15 1384.5,-39.15 1384.5,-20.15 1299.5,-20.15"/>
<text text-anchor="middle" x="1342" y="-27.15" font-family="Helvetica,sans-Serif" font-size="10.00">handleDirectory</text>
</a>
</g>
</g>
<!-- Node1&#45;&gt;Node12 -->
<g id="edge13" class="edge">
<title>Node1&#45;&gt;Node12</title>
<path fill="none" stroke="midnightblue" d="M1416.59,-39.03C1405.62,-37.63 1394.68,-36.24 1384.72,-34.97"/>
<polygon fill="midnightblue" stroke="midnightblue" points="1416.28,-42.52 1426.65,-40.32 1417.17,-35.58 1416.28,-42.52"/>
</g>
<!-- Node14 -->
<g id="node14" class="node">
<title>Node14</title>
<g id="a_node14"><a xlink:href="classRequestProcessor.html#a3fa9c97a7d142a7b607002138de87140" target="_top" xlink:title=" ">
<polygon fill="white" stroke="black" points="992,-20.15 992,-39.15 1130,-39.15 1130,-20.15 992,-20.15"/>
<text text-anchor="middle" x="1061" y="-27.15" font-family="Helvetica,sans-Serif" font-size="10.00">RequestProcessor::process</text>
</a>
</g>
</g>
<!-- Node1&#45;&gt;Node14 -->
<g id="edge18" class="edge">
<title>Node1&#45;&gt;Node14</title>
<path fill="none" stroke="midnightblue" d="M1450.96,-29.37C1432.98,-21.94 1411.37,-14.35 1391,-10.65 1292.61,7.25 1265.59,-1.63 1166,-10.65 1145.53,-12.5 1123.06,-16.37 1104.27,-20.14"/>
<polygon fill="midnightblue" stroke="midnightblue" points="1449.97,-32.76 1460.55,-33.46 1452.72,-26.32 1449.97,-32.76"/>
</g>
<!-- Node3 -->
<g id="node3" class="node">
<title>Node3</title>
<g id="a_node3"><a xlink:href="classClient.html#a7ce261bf1858a7904f7bb9668188284b" target="_top" xlink:title=" ">
<polygon fill="white" stroke="black" points="1170,-58.15 1170,-77.15 1253,-77.15 1253,-58.15 1170,-58.15"/>
<text text-anchor="middle" x="1211.5" y="-65.15" font-family="Helvetica,sans-Serif" font-size="10.00">Client::startCgi</text>
</a>
</g>
</g>
<!-- Node2&#45;&gt;Node3 -->
<g id="edge2" class="edge">
<title>Node2&#45;&gt;Node3</title>
<path fill="none" stroke="midnightblue" d="M1282.61,-67.65C1272.75,-67.65 1262.7,-67.65 1253.41,-67.65"/>
<polygon fill="midnightblue" stroke="midnightblue" points="1282.79,-71.15 1292.79,-67.65 1282.79,-64.15 1282.79,-71.15"/>
</g>
<!-- Node4 -->
<g id="node4" class="node">
<title>Node4</title>
<g id="a_node4"><a xlink:href="classClient.html#ae523ed90bd32b88e539ebdf30746382b" target="_top" xlink:title=" ">
<polygon fill="white" stroke="black" points="1004.5,-58.15 1004.5,-77.15 1117.5,-77.15 1117.5,-58.15 1004.5,-58.15"/>
<text text-anchor="middle" x="1061" y="-65.15" font-family="Helvetica,sans-Serif" font-size="10.00">Client::dispatchAction</text>
</a>
</g>
</g>
<!-- Node3&#45;&gt;Node4 -->
<g id="edge3" class="edge">
<title>Node3&#45;&gt;Node4</title>
<path fill="none" stroke="midnightblue" d="M1159.78,-67.65C1146.18,-67.65 1131.41,-67.65 1117.56,-67.65"/>
<polygon fill="midnightblue" stroke="midnightblue" points="1159.92,-71.15 1169.92,-67.65 1159.92,-64.15 1159.92,-71.15"/>
</g>
<!-- Node5 -->
<g id="node5" class="node">
<title>Node5</title>
<g id="a_node5"><a xlink:href="classClient.html#a419f8f3253d3f71287044e3999a5d600" target="_top" xlink:title=" ">
<polygon fill="white" stroke="black" points="843,-58.15 843,-77.15 956,-77.15 956,-58.15 843,-58.15"/>
<text text-anchor="middle" x="899.5" y="-65.15" font-family="Helvetica,sans-Serif" font-size="10.00">Client::buildResponse</text>
</a>
</g>
</g>
<!-- Node4&#45;&gt;Node5 -->
<g id="edge4" class="edge">
<title>Node4&#45;&gt;Node5</title>
<path fill="none" stroke="midnightblue" d="M993.85,-67.65C981.35,-67.65 968.39,-67.65 956.25,-67.65"/>
<polygon fill="midnightblue" stroke="midnightblue" points="994.21,-71.15 1004.21,-67.65 994.21,-64.15 994.21,-71.15"/>
</g>
<!-- Node5&#45;&gt;Node6 -->
<g id="edge5" class="edge">
<title>Node5&#45;&gt;Node6</title>
<path fill="none" stroke="midnightblue" d="M832.54,-67.65C824.2,-67.65 815.62,-67.65 807.14,-67.65"/>
<polygon fill="midnightblue" stroke="midnightblue" points="832.56,-71.15 842.56,-67.65 832.56,-64.15 832.56,-71.15"/>
</g>
<!-- Node7 -->
<g id="node7" class="node">
<title>Node7</title>
<g id="a_node7"><a xlink:href="classClient.html#ac95fe5b24fe5275bd2271bd1ac37596d" target="_top" xlink:title=" ">
<polygon fill="white" stroke="black" points="336,-77.15 336,-96.15 436,-96.15 436,-77.15 336,-77.15"/>
<text text-anchor="middle" x="386" y="-84.15" font-family="Helvetica,sans-Serif" font-size="10.00">Client::handleRead</text>
</a>
</g>
</g>
<!-- Node6&#45;&gt;Node7 -->
<g id="edge6" class="edge">
<title>Node6&#45;&gt;Node7</title>
<path fill="none" stroke="midnightblue" d="M641.61,-72.48C576.51,-76.11 489.78,-80.93 436.2,-83.91"/>
<polygon fill="midnightblue" stroke="midnightblue" points="642.07,-75.96 651.86,-71.91 641.68,-68.97 642.07,-75.96"/>
</g>
<!-- Node10 -->
<g id="node10" class="node">
<title>Node10</title>
<g id="a_node10"><a xlink:href="classClient.html#a950fd2ab8ac20c9be4c5e722344d6fe2" target="_top" xlink:title=" ">
<polygon fill="white" stroke="black" points="491,-39.15 491,-58.15 616,-58.15 616,-39.15 491,-39.15"/>
<text text-anchor="middle" x="553.5" y="-46.15" font-family="Helvetica,sans-Serif" font-size="10.00">Client::processRequests</text>
</a>
</g>
</g>
<!-- Node6&#45;&gt;Node10 -->
<g id="edge9" class="edge">
<title>Node6&#45;&gt;Node10</title>
<path fill="none" stroke="midnightblue" d="M641.81,-58.18C633.17,-57.24 624.52,-56.3 616.22,-55.39"/>
<polygon fill="midnightblue" stroke="midnightblue" points="641.61,-61.68 651.93,-59.29 642.37,-54.72 641.61,-61.68"/>
</g>
<!-- Node8 -->
<g id="node8" class="node">
<title>Node8</title>
<g id="a_node8"><a xlink:href="classServerManager.html#a9f3ca46da9df004286f90902b8daf29d" target="_top" xlink:title=" ">
<polygon fill="white" stroke="black" points="138,-71.65 138,-101.65 281,-101.65 281,-71.65 138,-71.65"/>
<text text-anchor="start" x="146" y="-89.65" font-family="Helvetica,sans-Serif" font-size="10.00">ServerManager::handleClient</text>
<text text-anchor="middle" x="209.5" y="-78.65" font-family="Helvetica,sans-Serif" font-size="10.00">Event</text>
</a>
</g>
</g>
<!-- Node7&#45;&gt;Node8 -->
<g id="edge7" class="edge">
<title>Node7&#45;&gt;Node8</title>
<path fill="none" stroke="midnightblue" d="M325.69,-86.65C311.33,-86.65 295.84,-86.65 281.02,-86.65"/>
<polygon fill="midnightblue" stroke="midnightblue" points="325.93,-90.15 335.93,-86.65 325.93,-83.15 325.93,-90.15"/>
</g>
<!-- Node9 -->
<g id="node9" class="node">
<title>Node9</title>
<g id="a_node9"><a xlink:href="classServerManager.html#aecc313c9b6afcab92c22269b3333c721" target="_top" xlink:title=" ">
<polygon fill="white" stroke="black" points="0,-77.15 0,-96.15 102,-96.15 102,-77.15 0,-77.15"/>
<text text-anchor="middle" x="51" y="-84.15" font-family="Helvetica,sans-Serif" font-size="10.00">ServerManager::run</text>
</a>
</g>
</g>
<!-- Node8&#45;&gt;Node9 -->
<g id="edge8" class="edge">
<title>Node8&#45;&gt;Node9</title>
<path fill="none" stroke="midnightblue" d="M127.45,-86.65C118.82,-86.65 110.23,-86.65 102.11,-86.65"/>
<polygon fill="midnightblue" stroke="midnightblue" points="127.58,-90.15 137.58,-86.65 127.58,-83.15 127.58,-90.15"/>
</g>
<!-- Node10&#45;&gt;Node7 -->
<g id="edge11" class="edge">
<title>Node10&#45;&gt;Node7</title>
<path fill="none" stroke="midnightblue" d="M500.69,-60.55C477.43,-65.89 450.35,-72.1 428.46,-77.13"/>
<polygon fill="midnightblue" stroke="midnightblue" points="501.77,-63.89 510.74,-58.24 500.21,-57.06 501.77,-63.89"/>
</g>
<!-- Node11 -->
<g id="node11" class="node">
<title>Node11</title>
<g id="a_node11"><a xlink:href="classClient.html#a09d6029b60ae8c9773362968e72f2e54" target="_top" xlink:title=" ">
<polygon fill="white" stroke="black" points="317,-39.15 317,-58.15 455,-58.15 455,-39.15 317,-39.15"/>
<text text-anchor="middle" x="386" y="-46.15" font-family="Helvetica,sans-Serif" font-size="10.00">Client::finalizeCgiResponse</text>
</a>
</g>
</g>
<!-- Node10&#45;&gt;Node11 -->
<g id="edge10" class="edge">
<title>Node10&#45;&gt;Node11</title>
<path fill="none" stroke="midnightblue" d="M480.63,-48.65C472.14,-48.65 463.5,-48.65 455.07,-48.65"/>
<polygon fill="midnightblue" stroke="midnightblue" points="480.87,-52.15 490.87,-48.65 480.87,-45.15 480.87,-52.15"/>
</g>
<!-- Node13 -->
<g id="node13" class="node">
<title>Node13</title>
<g id="a_node13"><a xlink:href="StaticPathHandler_8cpp.html#a4e092999675b45373270f5408cbe64c7" target="_top" xlink:title=" ">
<polygon fill="white" stroke="black" points="1166,-20.15 1166,-39.15 1257,-39.15 1257,-20.15 1166,-20.15"/>
<text text-anchor="middle" x="1211.5" y="-27.15" font-family="Helvetica,sans-Serif" font-size="10.00">handleStaticPath</text>
</a>
</g>
</g>
<!-- Node12&#45;&gt;Node13 -->
<g id="edge14" class="edge">
<title>Node12&#45;&gt;Node13</title>
<path fill="none" stroke="midnightblue" d="M1289.26,-29.65C1278.61,-29.65 1267.48,-29.65 1257.11,-29.65"/>
<polygon fill="midnightblue" stroke="midnightblue" points="1289.28,-33.15 1299.28,-29.65 1289.28,-26.15 1289.28,-33.15"/>
</g>
<!-- Node13&#45;&gt;Node14 -->
<g id="edge15" class="edge">
<title>Node13&#45;&gt;Node14</title>
<path fill="none" stroke="midnightblue" d="M1155.92,-29.65C1147.53,-29.65 1138.78,-29.65 1130.14,-29.65"/>
<polygon fill="midnightblue" stroke="midnightblue" points="1155.95,-33.15 1165.95,-29.65 1155.95,-26.15 1155.95,-33.15"/>
</g>
<!-- Node14&#45;&gt;Node5 -->
<g id="edge16" class="edge">
<title>Node14&#45;&gt;Node5</title>
<path fill="none" stroke="midnightblue" d="M1009.77,-41.62C987.41,-46.94 961.46,-53.13 940.46,-58.13"/>
<polygon fill="midnightblue" stroke="midnightblue" points="1010.83,-44.96 1019.75,-39.24 1009.21,-38.15 1010.83,-44.96"/>
</g>
<!-- Node14&#45;&gt;Node6 -->
<g id="edge17" class="edge">
<title>Node14&#45;&gt;Node6</title>
<path fill="none" stroke="midnightblue" d="M981.91,-34.97C940.54,-38.17 888.92,-42.77 843,-48.65 822.86,-51.23 800.81,-54.79 781.62,-58.13"/>
<polygon fill="midnightblue" stroke="midnightblue" points="982.22,-38.46 991.92,-34.21 981.68,-31.48 982.22,-38.46"/>
</g>
</g>
</svg>
        <g id="navigator" transform="translate(0 0)" fill="#404254">
                <rect fill="#f2f5e9" fill-opacity="0.5" stroke="#606060" stroke-width=".5" x="0" y="0" width="60" height="60"/>
                <use id="zoomplus" xlink:href="#zoomPlus" x="17" y="9" onmousedown="handleZoom(evt,'in')"/>
                <use id="zoomminus" xlink:href="#zoomMin" x="42" y="9" onmousedown="handleZoom(evt,'out')"/>
                <use id="reset" xlink:href="#resetDef" x="30" y="36" onmousedown="handleReset()"/>
                <g id="arrowUp" xlink:href="#dirArrow" transform="translate(30 24)" onmousedown="handlePan(0,-1)">
                  <use xlink:href="#rim" fill="#404040">
                        <set attributeName="fill" to="#808080" begin="arrowUp.mouseover" end="arrowUp.mouseout"/>
                  </use>
                  <path fill="none" stroke="white" stroke-width="1.5" d="M0,-3.0v7 M-2.5,-0.5L0,-3.0L2.5,-0.5"/>
                </g>
                <g id="arrowRight" xlink:href="#dirArrow" transform="rotate(90) translate(36 -43)" onmousedown="handlePan(1,0)">
                  <use xlink:href="#rim" fill="#404040">
                        <set attributeName="fill" to="#808080" begin="arrowRight.mouseover" end="arrowRight.mouseout"/>
                  </use>
                  <path fill="none" stroke="white" stroke-width="1.5" d="M0,-3.0v7 M-2.5,-0.5L0,-3.0L2.5,-0.5"/>
                </g>
                <g id="arrowDown" xlink:href="#dirArrow" transform="rotate(180) translate(-30 -48)" onmousedown="handlePan(0,1)">
                  <use xlink:href="#rim" fill="#404040">
                        <set attributeName="fill" to="#808080" begin="arrowDown.mouseover" end="arrowDown.mouseout"/>
                  </use>
                  <path fill="none" stroke="white" stroke-width="1.5" d="M0,-3.0v7 M-2.5,-0.5L0,-3.0L2.5,-0.5"/>
                </g>
                <g id="arrowLeft" xlink:href="#dirArrow" transform="rotate(270) translate(-36 17)" onmousedown="handlePan(-1,0)">
                  <use xlink:href="#rim" fill="#404040">
                        <set attributeName="fill" to="#808080" begin="arrowLeft.mouseover" end="arrowLeft.mouseout"/>
                  </use>
                  <path fill="none" stroke="white" stroke-width="1.5" d="M0,-3.0v7 M-2.5,-0.5L0,-3.0L2.5,-0.5"/>
                </g>
        </g>
        <svg viewBox="0 0 15 15" width="100%" height="30px" preserveAspectRatio="xMaxYMin meet">
         <g id="arrow_out" transform="scale(0.3 0.3)">
          <a xlink:href="classHttpRequest_ab5fb89c5ad17f9433e6798477fd4d8e8_icgraph_org.svg" target="_base">
           <rect id="button" ry="5" rx="5" y="6" x="6" height="38" width="38"
                fill="#f2f5e9" fill-opacity="0.5" stroke="#606060" stroke-width="1.0"/>
           <path id="arrow"
             d="M 11.500037,31.436501 C 11.940474,20.09759 22.043105,11.32322 32.158766,21.979434 L 37.068811,17.246167 C 37.068811,17.246167 37.088388,32 37.088388,32 L 22.160133,31.978069 C 22.160133,31.978069 26.997745,27.140456 26.997745,27.140456 C 18.528582,18.264221 13.291696,25.230495 11.500037,31.436501 z"
             style="fill:#404040;"/>
          </a>
         </g>
        </svg>
</svg>
