<?xml version="1.0" encoding="UTF-8" standalone="no"?>
<!DOCTYPE svg PUBLIC "-//W3C//DTD SVG 1.1//EN"
 "http://www.w3.org/Graphics/SVG/1.1/DTD/svg11.dtd">
<!-- Generated by graphviz version 2.43.0 (0)
 -->
<!-- Title: EpollWrapper::addFd Pages: 1 -->
<svg width="1739pt" height="116pt"
 viewBox="0.00 0.00 1739.00 115.50" xmlns="http://www.w3.org/2000/svg" xmlns:xlink="http://www.w3.org/1999/xlink">
<g id="graph0" class="graph" transform="scale(1 1) rotate(0) translate(4 111.5)">
<title>EpollWrapper::addFd</title>
<polygon fill="white" stroke="transparent" points="-4,4 -4,-111.5 1735,-111.5 1735,4 -4,4"/>
<!-- Node1 -->
<g id="node1" class="node">
<title>Node1</title>
<g id="a_node1"><a xlink:title=" ">
<polygon fill="#bfbfbf" stroke="black" points="1624,-39.5 1624,-58.5 1731,-58.5 1731,-39.5 1624,-39.5"/>
<text text-anchor="middle" x="1677.5" y="-46.5" font-family="Helvetica,sans-Serif" font-size="10.00">EpollWrapper::addFd</text>
</a>
</g>
</g>
<!-- Node2 -->
<g id="node2" class="node">
<title>Node2</title>
<g id="a_node2"><a xlink:href="classServerManager.html#a1d57002b5b7a92044b9fd57396407975" target="_top" xlink:title=" ">
<polygon fill="white" stroke="black" points="1260,-77 1260,-107 1397,-107 1397,-77 1260,-77"/>
<text text-anchor="start" x="1268" y="-95" font-family="Helvetica,sans-Serif" font-size="10.00">ServerManager::handleNew</text>
<text text-anchor="middle" x="1328.5" y="-84" font-family="Helvetica,sans-Serif" font-size="10.00">Connection</text>
</a>
</g>
</g>
<!-- Node1&#45;&gt;Node2 -->
<g id="edge1" class="edge">
<title>Node1&#45;&gt;Node2</title>
<path fill="none" stroke="midnightblue" d="M1627.11,-60.69C1614.42,-63.39 1600.75,-66.05 1588,-68 1523.62,-77.86 1449.56,-84.24 1397.26,-87.92"/>
<polygon fill="midnightblue" stroke="midnightblue" points="1628.01,-64.07 1637.04,-58.52 1626.52,-57.24 1628.01,-64.07"/>
</g>
<!-- Node4 -->
<g id="node4" class="node">
<title>Node4</title>
<g id="a_node4"><a xlink:href="classServerManager.html#a39ba2418a65f3fe96057e7dfbf050db0" target="_top" xlink:title=" ">
<polygon fill="white" stroke="black" points="1433,-39.5 1433,-58.5 1588,-58.5 1588,-39.5 1433,-39.5"/>
<text text-anchor="middle" x="1510.5" y="-46.5" font-family="Helvetica,sans-Serif" font-size="10.00">ServerManager::registerCgiPipe</text>
</a>
</g>
</g>
<!-- Node1&#45;&gt;Node4 -->
<g id="edge3" class="edge">
<title>Node1&#45;&gt;Node4</title>
<path fill="none" stroke="midnightblue" d="M1613.75,-49C1605.34,-49 1596.63,-49 1588.02,-49"/>
<polygon fill="midnightblue" stroke="midnightblue" points="1613.84,-52.5 1623.84,-49 1613.84,-45.5 1613.84,-52.5"/>
</g>
<!-- Node14 -->
<g id="node14" class="node">
<title>Node14</title>
<g id="a_node14"><a xlink:href="classServerManager.html#aaa2f3231a75c30be205a298f2fbd2833" target="_top" xlink:title=" ">
<polygon fill="white" stroke="black" points="1433,-1.5 1433,-20.5 1588,-20.5 1588,-1.5 1433,-1.5"/>
<text text-anchor="middle" x="1510.5" y="-8.5" font-family="Helvetica,sans-Serif" font-size="10.00">ServerManager::ServerManager</text>
</a>
</g>
</g>
<!-- Node1&#45;&gt;Node14 -->
<g id="edge15" class="edge">
<title>Node1&#45;&gt;Node14</title>
<path fill="none" stroke="midnightblue" d="M1624.85,-37.1C1601.65,-31.76 1574.66,-25.55 1552.84,-20.52"/>
<polygon fill="midnightblue" stroke="midnightblue" points="1624.33,-40.58 1634.86,-39.41 1625.9,-33.76 1624.33,-40.58"/>
</g>
<!-- Node3 -->
<g id="node3" class="node">
<title>Node3</title>
<g id="a_node3"><a xlink:href="classServerManager.html#aecc313c9b6afcab92c22269b3333c721" target="_top" xlink:title=" ">
<polygon fill="white" stroke="black" points="0,-60.5 0,-79.5 102,-79.5 102,-60.5 0,-60.5"/>
<text text-anchor="middle" x="51" y="-67.5" font-family="Helvetica,sans-Serif" font-size="10.00">ServerManager::run</text>
</a>
</g>
</g>
<!-- Node2&#45;&gt;Node3 -->
<g id="edge2" class="edge">
<title>Node2&#45;&gt;Node3</title>
<path fill="none" stroke="midnightblue" d="M1249.65,-92C1193.91,-92 1117.09,-92 1049.5,-92 1049.5,-92 1049.5,-92 385,-92 284.48,-92 167.25,-81.89 102.14,-75.38"/>
<polygon fill="midnightblue" stroke="midnightblue" points="1249.81,-95.5 1259.81,-92 1249.81,-88.5 1249.81,-95.5"/>
</g>
<!-- Node5 -->
<g id="node5" class="node">
<title>Node5</title>
<g id="a_node5"><a xlink:href="classClient.html#a2e0da898af07e89fcfd83fe5a3077256" target="_top" xlink:title=" ">
<polygon fill="white" stroke="black" points="1279.5,-38.5 1279.5,-57.5 1377.5,-57.5 1377.5,-38.5 1279.5,-38.5"/>
<text text-anchor="middle" x="1328.5" y="-45.5" font-family="Helvetica,sans-Serif" font-size="10.00">Client::executeCgi</text>
</a>
</g>
</g>
<!-- Node4&#45;&gt;Node5 -->
<g id="edge4" class="edge">
<title>Node4&#45;&gt;Node5</title>
<path fill="none" stroke="midnightblue" d="M1422.74,-48.52C1407.21,-48.43 1391.55,-48.34 1377.61,-48.27"/>
<polygon fill="midnightblue" stroke="midnightblue" points="1422.88,-52.02 1432.9,-48.57 1422.92,-45.02 1422.88,-52.02"/>
</g>
<!-- Node6 -->
<g id="node6" class="node">
<title>Node6</title>
<g id="a_node6"><a xlink:href="classClient.html#a7ce261bf1858a7904f7bb9668188284b" target="_top" xlink:title=" ">
<polygon fill="white" stroke="black" points="1141,-38.5 1141,-57.5 1224,-57.5 1224,-38.5 1141,-38.5"/>
<text text-anchor="middle" x="1182.5" y="-45.5" font-family="Helvetica,sans-Serif" font-size="10.00">Client::startCgi</text>
</a>
</g>
</g>
<!-- Node5&#45;&gt;Node6 -->
<g id="edge5" class="edge">
<title>Node5&#45;&gt;Node6</title>
<path fill="none" stroke="midnightblue" d="M1268.93,-48C1253.95,-48 1238.15,-48 1224.28,-48"/>
<polygon fill="midnightblue" stroke="midnightblue" points="1269.15,-51.5 1279.15,-48 1269.15,-44.5 1269.15,-51.5"/>
</g>
<!-- Node7 -->
<g id="node7" class="node">
<title>Node7</title>
<g id="a_node7"><a xlink:href="classClient.html#ae523ed90bd32b88e539ebdf30746382b" target="_top" xlink:title=" ">
<polygon fill="white" stroke="black" points="992,-38.5 992,-57.5 1105,-57.5 1105,-38.5 992,-38.5"/>
<text text-anchor="middle" x="1048.5" y="-45.5" font-family="Helvetica,sans-Serif" font-size="10.00">Client::dispatchAction</text>
</a>
</g>
</g>
<!-- Node6&#45;&gt;Node7 -->
<g id="edge6" class="edge">
<title>Node6&#45;&gt;Node7</title>
<path fill="none" stroke="midnightblue" d="M1130.57,-48C1122.31,-48 1113.71,-48 1105.34,-48"/>
<polygon fill="midnightblue" stroke="midnightblue" points="1130.82,-51.5 1140.82,-48 1130.82,-44.5 1130.82,-51.5"/>
</g>
<!-- Node8 -->
<g id="node8" class="node">
<title>Node8</title>
<g id="a_node8"><a xlink:href="classClient.html#a419f8f3253d3f71287044e3999a5d600" target="_top" xlink:title=" ">
<polygon fill="white" stroke="black" points="843,-38.5 843,-57.5 956,-57.5 956,-38.5 843,-38.5"/>
<text text-anchor="middle" x="899.5" y="-45.5" font-family="Helvetica,sans-Serif" font-size="10.00">Client::buildResponse</text>
</a>
</g>
</g>
<!-- Node7&#45;&gt;Node8 -->
<g id="edge7" class="edge">
<title>Node7&#45;&gt;Node8</title>
<path fill="none" stroke="midnightblue" d="M981.92,-48C973.32,-48 964.57,-48 956.15,-48"/>
<polygon fill="midnightblue" stroke="midnightblue" points="981.93,-51.5 991.93,-48 981.93,-44.5 981.93,-51.5"/>
</g>
<!-- Node9 -->
<g id="node9" class="node">
<title>Node9</title>
<g id="a_node9"><a xlink:href="classClient.html#abcf615f2514ae7e0266315693e73a31a" target="_top" xlink:title=" ">
<polygon fill="white" stroke="black" points="652,-38.5 652,-57.5 807,-57.5 807,-38.5 652,-38.5"/>
<text text-anchor="middle" x="729.5" y="-45.5" font-family="Helvetica,sans-Serif" font-size="10.00">Client::handleCompleteRequest</text>
</a>
</g>
</g>
<!-- Node8&#45;&gt;Node9 -->
<g id="edge8" class="edge">
<title>Node8&#45;&gt;Node9</title>
<path fill="none" stroke="midnightblue" d="M832.54,-48C824.2,-48 815.62,-48 807.14,-48"/>
<polygon fill="midnightblue" stroke="midnightblue" points="832.56,-51.5 842.56,-48 832.56,-44.5 832.56,-51.5"/>
</g>
<!-- Node10 -->
<g id="node10" class="node">
<title>Node10</title>
<g id="a_node10"><a xlink:href="classClient.html#ac95fe5b24fe5275bd2271bd1ac37596d" target="_top" xlink:title=" ">
<polygon fill="white" stroke="black" points="336,-38.5 336,-57.5 436,-57.5 436,-38.5 336,-38.5"/>
<text text-anchor="middle" x="386" y="-45.5" font-family="Helvetica,sans-Serif" font-size="10.00">Client::handleRead</text>
</a>
</g>
</g>
<!-- Node9&#45;&gt;Node10 -->
<g id="edge9" class="edge">
<title>Node9&#45;&gt;Node10</title>
<path fill="none" stroke="midnightblue" d="M641.61,-48C576.51,-48 489.78,-48 436.2,-48"/>
<polygon fill="midnightblue" stroke="midnightblue" points="641.86,-51.5 651.86,-48 641.86,-44.5 641.86,-51.5"/>
</g>
<!-- Node12 -->
<g id="node12" class="node">
<title>Node12</title>
<g id="a_node12"><a xlink:href="classClient.html#a950fd2ab8ac20c9be4c5e722344d6fe2" target="_top" xlink:title=" ">
<polygon fill="white" stroke="black" points="491,-0.5 491,-19.5 616,-19.5 616,-0.5 491,-0.5"/>
<text text-anchor="middle" x="553.5" y="-7.5" font-family="Helvetica,sans-Serif" font-size="10.00">Client::processRequests</text>
</a>
</g>
</g>
<!-- Node9&#45;&gt;Node12 -->
<g id="edge12" class="edge">
<title>Node9&#45;&gt;Node12</title>
<path fill="none" stroke="midnightblue" d="M674.69,-36.25C650.08,-30.87 621.31,-24.59 598.09,-19.52"/>
<polygon fill="midnightblue" stroke="midnightblue" points="674.08,-39.7 684.59,-38.41 675.57,-32.86 674.08,-39.7"/>
</g>
<!-- Node11 -->
<g id="node11" class="node">
<title>Node11</title>
<g id="a_node11"><a xlink:href="classServerManager.html#a9f3ca46da9df004286f90902b8daf29d" target="_top" xlink:title=" ">
<polygon fill="white" stroke="black" points="138,-33 138,-63 281,-63 281,-33 138,-33"/>
<text text-anchor="start" x="146" y="-51" font-family="Helvetica,sans-Serif" font-size="10.00">ServerManager::handleClient</text>
<text text-anchor="middle" x="209.5" y="-40" font-family="Helvetica,sans-Serif" font-size="10.00">Event</text>
</a>
</g>
</g>
<!-- Node10&#45;&gt;Node11 -->
<g id="edge10" class="edge">
<title>Node10&#45;&gt;Node11</title>
<path fill="none" stroke="midnightblue" d="M325.69,-48C311.33,-48 295.84,-48 281.02,-48"/>
<polygon fill="midnightblue" stroke="midnightblue" points="325.93,-51.5 335.93,-48 325.93,-44.5 325.93,-51.5"/>
</g>
<!-- Node11&#45;&gt;Node3 -->
<g id="edge11" class="edge">
<title>Node11&#45;&gt;Node3</title>
<path fill="none" stroke="midnightblue" d="M127.45,-59.39C118.82,-60.61 110.23,-61.81 102.11,-62.96"/>
<polygon fill="midnightblue" stroke="midnightblue" points="128.16,-62.83 137.58,-57.97 127.19,-55.9 128.16,-62.83"/>
</g>
<!-- Node12&#45;&gt;Node10 -->
<g id="edge14" class="edge">
<title>Node12&#45;&gt;Node10</title>
<path fill="none" stroke="midnightblue" d="M500.69,-21.9C477.43,-27.24 450.35,-33.45 428.46,-38.48"/>
<polygon fill="midnightblue" stroke="midnightblue" points="501.77,-25.24 510.74,-19.59 500.21,-18.42 501.77,-25.24"/>
</g>
<!-- Node13 -->
<g id="node13" class="node">
<title>Node13</title>
<g id="a_node13"><a xlink:href="classClient.html#a09d6029b60ae8c9773362968e72f2e54" target="_top" xlink:title=" ">
<polygon fill="white" stroke="black" points="317,-0.5 317,-19.5 455,-19.5 455,-0.5 317,-0.5"/>
<text text-anchor="middle" x="386" y="-7.5" font-family="Helvetica,sans-Serif" font-size="10.00">Client::finalizeCgiResponse</text>
</a>
</g>
</g>
<!-- Node12&#45;&gt;Node13 -->
<g id="edge13" class="edge">
<title>Node12&#45;&gt;Node13</title>
<path fill="none" stroke="midnightblue" d="M480.63,-10C472.14,-10 463.5,-10 455.07,-10"/>
<polygon fill="midnightblue" stroke="midnightblue" points="480.87,-13.5 490.87,-10 480.87,-6.5 480.87,-13.5"/>
</g>
</g>
</svg>
