<?xml version="1.0" encoding="UTF-8" standalone="no"?>
<!DOCTYPE svg PUBLIC "-//W3C//DTD SVG 1.1//EN"
 "http://www.w3.org/Graphics/SVG/1.1/DTD/svg11.dtd">
<!-- Generated by graphviz version 2.43.0 (0)
 -->
<!-- Title: HttpParser::parseUri Pages: 1 -->
<svg width="292pt" height="104pt"
 viewBox="0.00 0.00 292.00 104.00" xmlns="http://www.w3.org/2000/svg" xmlns:xlink="http://www.w3.org/1999/xlink">
<g id="graph0" class="graph" transform="scale(1 1) rotate(0) translate(4 100)">
<title>HttpParser::parseUri</title>
<polygon fill="white" stroke="transparent" points="-4,4 -4,-100 288,-100 288,4 -4,4"/>
<!-- Node1 -->
<g id="node1" class="node">
<title>Node1</title>
<g id="a_node1"><a xlink:title=" ">
<polygon fill="#bfbfbf" stroke="black" points="0,-38.5 0,-57.5 107,-57.5 107,-38.5 0,-38.5"/>
<text text-anchor="middle" x="53.5" y="-45.5" font-family="Helvetica,sans-Serif" font-size="10.00">HttpParser::parseUri</text>
</a>
</g>
</g>
<!-- Node2 -->
<g id="node2" class="node">
<title>Node2</title>
<g id="a_node2"><a xlink:href="HttpParserStartLine_8cpp.html#a2597e42415ee763aecb6903cea7a0af7" target="_top" xlink:title=" ">
<polygon fill="white" stroke="black" points="143,-76.5 143,-95.5 284,-95.5 284,-76.5 143,-76.5"/>
<text text-anchor="middle" x="213.5" y="-83.5" font-family="Helvetica,sans-Serif" font-size="10.00">containsParentPathSegment</text>
</a>
</g>
</g>
<!-- Node1&#45;&gt;Node2 -->
<g id="edge1" class="edge">
<title>Node1&#45;&gt;Node2</title>
<path fill="none" stroke="midnightblue" d="M94.37,-57.59C115.22,-62.6 140.93,-68.79 163.04,-74.11"/>
<polygon fill="midnightblue" stroke="midnightblue" points="162.38,-77.54 172.92,-76.48 164.01,-70.74 162.38,-77.54"/>
</g>
<!-- Node3 -->
<g id="node3" class="node">
<title>Node3</title>
<g id="a_node3"><a xlink:href="classHttpRequest.html#aa12b5a0581b89d06e681b9ecfe6486e3" target="_top" xlink:title=" ">
<polygon fill="white" stroke="black" points="157.5,-38.5 157.5,-57.5 269.5,-57.5 269.5,-38.5 157.5,-38.5"/>
<text text-anchor="middle" x="213.5" y="-45.5" font-family="Helvetica,sans-Serif" font-size="10.00">HttpRequest::setPath</text>
</a>
</g>
</g>
<!-- Node1&#45;&gt;Node3 -->
<g id="edge2" class="edge">
<title>Node1&#45;&gt;Node3</title>
<path fill="none" stroke="midnightblue" d="M107.11,-48C119.99,-48 133.92,-48 147.31,-48"/>
<polygon fill="midnightblue" stroke="midnightblue" points="147.41,-51.5 157.41,-48 147.41,-44.5 147.41,-51.5"/>
</g>
<!-- Node4 -->
<g id="node4" class="node">
<title>Node4</title>
<g id="a_node4"><a xlink:href="classHttpRequest.html#a1181be9f943f9504556f6481da778cba" target="_top" xlink:title=" ">
<polygon fill="white" stroke="black" points="154.5,-0.5 154.5,-19.5 272.5,-19.5 272.5,-0.5 154.5,-0.5"/>
<text text-anchor="middle" x="213.5" y="-7.5" font-family="Helvetica,sans-Serif" font-size="10.00">HttpRequest::setQuery</text>
</a>
</g>
</g>
<!-- Node1&#45;&gt;Node4 -->
<g id="edge3" class="edge">
<title>Node1&#45;&gt;Node4</title>
<path fill="none" stroke="midnightblue" d="M94.37,-38.41C115.22,-33.4 140.93,-27.21 163.04,-21.89"/>
<polygon fill="midnightblue" stroke="midnightblue" points="164.01,-25.26 172.92,-19.52 162.38,-18.46 164.01,-25.26"/>
</g>
</g>
</svg>
