<?xml version="1.0" encoding="UTF-8" standalone="no"?>
<!DOCTYPE svg PUBLIC "-//W3C//DTD SVG 1.1//EN"
 "http://www.w3.org/Graphics/SVG/1.1/DTD/svg11.dtd">
<!-- Generated by graphviz version 2.43.0 (0)
 -->
<!-- Title: RequestProcessor::handleParseOrMethodErrors Pages: 1 -->
<svg width="900pt" height="522pt"
 viewBox="0.00 0.00 900.00 522.00" xmlns="http://www.w3.org/2000/svg" xmlns:xlink="http://www.w3.org/1999/xlink">
<g id="graph0" class="graph" transform="scale(1 1) rotate(0) translate(4 518)">
<title>RequestProcessor::handleParseOrMethodErrors</title>
<polygon fill="white" stroke="transparent" points="-4,4 -4,-518 896,-518 896,4 -4,4"/>
<!-- Node1 -->
<g id="node1" class="node">
<title>Node1</title>
<g id="a_node1"><a xlink:title=" ">
<polygon fill="#bfbfbf" stroke="black" points="0,-128 0,-158 132,-158 132,-128 0,-128"/>
<text text-anchor="start" x="8" y="-146" font-family="Helvetica,sans-Serif" font-size="10.00">RequestProcessor::handle</text>
<text text-anchor="middle" x="66" y="-135" font-family="Helvetica,sans-Serif" font-size="10.00">ParseOrMethodErrors</text>
</a>
</g>
</g>
<!-- Node2 -->
<g id="node2" class="node">
<title>Node2</title>
<g id="a_node2"><a xlink:href="ErrorUtils_8cpp.html#a470416220aa911b8f1274140a8322e7a" target="_top" xlink:title=" ">
<polygon fill="white" stroke="black" points="168,-190.5 168,-209.5 270,-209.5 270,-190.5 168,-190.5"/>
<text text-anchor="middle" x="219" y="-197.5" font-family="Helvetica,sans-Serif" font-size="10.00">buildErrorResponse</text>
</a>
</g>
</g>
<!-- Node1&#45;&gt;Node2 -->
<g id="edge1" class="edge">
<title>Node1&#45;&gt;Node2</title>
<path fill="none" stroke="midnightblue" d="M107.07,-158.13C130.66,-167.03 160.23,-178.19 182.9,-186.75"/>
<polygon fill="midnightblue" stroke="midnightblue" points="181.88,-190.11 192.47,-190.36 184.35,-183.56 181.88,-190.11"/>
</g>
<!-- Node10 -->
<g id="node10" class="node">
<title>Node10</title>
<g id="a_node10"><a xlink:href="classHttpRequest.html#adf523a5345b525702a858f8792bab8ea" target="_top" xlink:title=" ">
<polygon fill="white" stroke="black" points="450.5,-0.5 450.5,-19.5 574.5,-19.5 574.5,-0.5 450.5,-0.5"/>
<text text-anchor="middle" x="512.5" y="-7.5" font-family="Helvetica,sans-Serif" font-size="10.00">HttpRequest::getMethod</text>
</a>
</g>
</g>
<!-- Node1&#45;&gt;Node10 -->
<g id="edge29" class="edge">
<title>Node1&#45;&gt;Node10</title>
<path fill="none" stroke="midnightblue" d="M112.65,-127.94C181.96,-105.28 318.07,-61.6 435,-29 443.52,-26.62 452.62,-24.23 461.46,-21.99"/>
<polygon fill="midnightblue" stroke="midnightblue" points="462.44,-25.36 471.29,-19.53 460.74,-18.57 462.44,-25.36"/>
</g>
<!-- Node3 -->
<g id="node3" class="node">
<title>Node3</title>
<g id="a_node3"><a xlink:href="ResponseUtils_8cpp.html#ab7c2cb6fbf297c09ec402182b04584c6" target="_top" xlink:title=" ">
<polygon fill="white" stroke="black" points="306,-228.5 306,-247.5 399,-247.5 399,-228.5 306,-228.5"/>
<text text-anchor="middle" x="352.5" y="-235.5" font-family="Helvetica,sans-Serif" font-size="10.00">fillBaseResponse</text>
</a>
</g>
</g>
<!-- Node2&#45;&gt;Node3 -->
<g id="edge2" class="edge">
<title>Node2&#45;&gt;Node3</title>
<path fill="none" stroke="midnightblue" d="M253.18,-209.59C270,-214.45 290.63,-220.41 308.63,-225.61"/>
<polygon fill="midnightblue" stroke="midnightblue" points="307.75,-229 318.33,-228.41 309.69,-222.28 307.75,-229"/>
</g>
<!-- Node8 -->
<g id="node8" class="node">
<title>Node8</title>
<g id="a_node8"><a xlink:href="classHttpResponse.html#a7efa3ab17ead358609d80b55db164867" target="_top" xlink:title=" ">
<polygon fill="white" stroke="black" points="627,-380.5 627,-399.5 758,-399.5 758,-380.5 627,-380.5"/>
<text text-anchor="middle" x="692.5" y="-387.5" font-family="Helvetica,sans-Serif" font-size="10.00">HttpResponse::setHeader</text>
</a>
</g>
</g>
<!-- Node2&#45;&gt;Node8 -->
<g id="edge27" class="edge">
<title>Node2&#45;&gt;Node8</title>
<path fill="none" stroke="midnightblue" d="M226.19,-209.94C248.76,-245.04 330.78,-363.13 435,-401 505.69,-426.69 594.64,-413.73 647.06,-401.91"/>
<polygon fill="midnightblue" stroke="midnightblue" points="648.1,-405.26 657.04,-399.58 646.51,-398.45 648.1,-405.26"/>
</g>
<!-- Node15 -->
<g id="node15" class="node">
<title>Node15</title>
<g id="a_node15"><a xlink:href="classHttpResponse.html#a11a67ba43096f5eb1870e65f1814d364" target="_top" xlink:title=" ">
<polygon fill="white" stroke="black" points="435,-342.5 435,-361.5 590,-361.5 590,-342.5 435,-342.5"/>
<text text-anchor="middle" x="512.5" y="-349.5" font-family="Helvetica,sans-Serif" font-size="10.00">HttpResponse::setContentType</text>
</a>
</g>
</g>
<!-- Node2&#45;&gt;Node15 -->
<g id="edge26" class="edge">
<title>Node2&#45;&gt;Node15</title>
<path fill="none" stroke="midnightblue" d="M233.35,-209.65C249.97,-221.46 279.42,-241.79 306,-257 361.38,-288.69 376.88,-293.68 435,-320 449.04,-326.36 464.71,-332.99 478.19,-338.56"/>
<polygon fill="midnightblue" stroke="midnightblue" points="476.99,-341.85 487.57,-342.41 479.65,-335.37 476.99,-341.85"/>
</g>
<!-- Node21 -->
<g id="node21" class="node">
<title>Node21</title>
<g id="a_node21"><a xlink:href="ErrorUtils_8cpp.html#aa759f2b84e51d20fdf7801c0514c3635" target="_top" xlink:title=" ">
<polygon fill="white" stroke="black" points="310.5,-190.5 310.5,-209.5 394.5,-209.5 394.5,-190.5 310.5,-190.5"/>
<text text-anchor="middle" x="352.5" y="-197.5" font-family="Helvetica,sans-Serif" font-size="10.00">readFileToBody</text>
</a>
</g>
</g>
<!-- Node2&#45;&gt;Node21 -->
<g id="edge24" class="edge">
<title>Node2&#45;&gt;Node21</title>
<path fill="none" stroke="midnightblue" d="M270.09,-200C279.89,-200 290.19,-200 300.04,-200"/>
<polygon fill="midnightblue" stroke="midnightblue" points="300.1,-203.5 310.1,-200 300.1,-196.5 300.1,-203.5"/>
</g>
<!-- Node22 -->
<g id="node22" class="node">
<title>Node22</title>
<g id="a_node22"><a xlink:href="RequestProcessorUtils_8cpp.html#aa9c12d87cb0781b781a580ff9bfd0c06" target="_top" xlink:title=" ">
<polygon fill="white" stroke="black" points="318.5,-152.5 318.5,-171.5 386.5,-171.5 386.5,-152.5 318.5,-152.5"/>
<text text-anchor="middle" x="352.5" y="-159.5" font-family="Helvetica,sans-Serif" font-size="10.00">resolvePath</text>
</a>
</g>
</g>
<!-- Node2&#45;&gt;Node22 -->
<g id="edge25" class="edge">
<title>Node2&#45;&gt;Node22</title>
<path fill="none" stroke="midnightblue" d="M253.18,-190.41C270,-185.55 290.63,-179.59 308.63,-174.39"/>
<polygon fill="midnightblue" stroke="midnightblue" points="309.69,-177.72 318.33,-171.59 307.75,-171 309.69,-177.72"/>
</g>
<!-- Node23 -->
<g id="node23" class="node">
<title>Node23</title>
<g id="a_node23"><a xlink:href="ResponseUtils_8cpp.html#a1c98cd4773c38cae6781a257fa318ca7" target="_top" xlink:title=" ">
<polygon fill="white" stroke="black" points="329,-114.5 329,-133.5 376,-133.5 376,-114.5 329,-114.5"/>
<text text-anchor="middle" x="352.5" y="-121.5" font-family="Helvetica,sans-Serif" font-size="10.00">toBody</text>
</a>
</g>
</g>
<!-- Node2&#45;&gt;Node23 -->
<g id="edge28" class="edge">
<title>Node2&#45;&gt;Node23</title>
<path fill="none" stroke="midnightblue" d="M232.92,-190.3C249.34,-178.25 278.82,-157.51 306,-143 310.3,-140.7 314.95,-138.48 319.57,-136.43"/>
<polygon fill="midnightblue" stroke="midnightblue" points="321.06,-139.59 328.89,-132.45 318.32,-133.15 321.06,-139.59"/>
</g>
<!-- Node4 -->
<g id="node4" class="node">
<title>Node4</title>
<g id="a_node4"><a xlink:href="SessionUtils_8cpp.html#aabfd66406b8a4aec4237b26ff8e76a65" target="_top" xlink:title=" ">
<polygon fill="white" stroke="black" points="443.5,-456.5 443.5,-475.5 581.5,-475.5 581.5,-456.5 443.5,-456.5"/>
<text text-anchor="middle" x="512.5" y="-463.5" font-family="Helvetica,sans-Serif" font-size="10.00">addSessionCookieIfNeeded</text>
</a>
</g>
</g>
<!-- Node3&#45;&gt;Node4 -->
<g id="edge3" class="edge">
<title>Node3&#45;&gt;Node4</title>
<path fill="none" stroke="midnightblue" d="M356.63,-247.81C365.59,-274.83 393.37,-351.78 435,-404 449.84,-422.61 471.16,-439.31 487.53,-450.68"/>
<polygon fill="midnightblue" stroke="midnightblue" points="485.79,-453.73 496.04,-456.43 489.71,-447.93 485.79,-453.73"/>
</g>
<!-- Node3&#45;&gt;Node8 -->
<g id="edge18" class="edge">
<title>Node3&#45;&gt;Node8</title>
<path fill="none" stroke="midnightblue" d="M356.05,-247.55C363.39,-272.87 387.14,-341.82 435,-371 492.88,-406.28 572.31,-406.4 627.38,-400.66"/>
<polygon fill="midnightblue" stroke="midnightblue" points="627.82,-404.13 637.36,-399.52 627.03,-397.17 627.82,-404.13"/>
</g>
<!-- Node3&#45;&gt;Node10 -->
<g id="edge9" class="edge">
<title>Node3&#45;&gt;Node10</title>
<path fill="none" stroke="midnightblue" d="M387.44,-228.41C391.83,-225.94 395.87,-222.86 399,-219 453.13,-152.24 375.96,-91.46 435,-29 437.03,-26.86 439.26,-24.94 441.64,-23.22"/>
<polygon fill="midnightblue" stroke="midnightblue" points="443.41,-26.24 450.25,-18.15 439.86,-20.21 443.41,-26.24"/>
</g>
<!-- Node11 -->
<g id="node11" class="node">
<title>Node11</title>
<g id="a_node11"><a xlink:href="classHttpRequest.html#acde519e492e10352bc39d6a3bcd857b2" target="_top" xlink:title=" ">
<polygon fill="white" stroke="black" points="456.5,-266.5 456.5,-285.5 568.5,-285.5 568.5,-266.5 456.5,-266.5"/>
<text text-anchor="middle" x="512.5" y="-273.5" font-family="Helvetica,sans-Serif" font-size="10.00">HttpRequest::getPath</text>
</a>
</g>
</g>
<!-- Node3&#45;&gt;Node11 -->
<g id="edge10" class="edge">
<title>Node3&#45;&gt;Node11</title>
<path fill="none" stroke="midnightblue" d="M393.37,-247.59C414.22,-252.6 439.93,-258.79 462.04,-264.11"/>
<polygon fill="midnightblue" stroke="midnightblue" points="461.38,-267.54 471.92,-266.48 463.01,-260.74 461.38,-267.54"/>
</g>
<!-- Node12 -->
<g id="node12" class="node">
<title>Node12</title>
<g id="a_node12"><a xlink:href="classHttpRequest.html#ac2a5d18d42289a03b57215c98d8df41e" target="_top" xlink:title=" ">
<polygon fill="white" stroke="black" points="450,-228.5 450,-247.5 575,-247.5 575,-228.5 450,-228.5"/>
<text text-anchor="middle" x="512.5" y="-235.5" font-family="Helvetica,sans-Serif" font-size="10.00">HttpRequest::getVersion</text>
</a>
</g>
</g>
<!-- Node3&#45;&gt;Node12 -->
<g id="edge11" class="edge">
<title>Node3&#45;&gt;Node12</title>
<path fill="none" stroke="midnightblue" d="M399.2,-238C411.76,-238 425.7,-238 439.37,-238"/>
<polygon fill="midnightblue" stroke="midnightblue" points="439.74,-241.5 449.74,-238 439.74,-234.5 439.74,-241.5"/>
</g>
<!-- Node13 -->
<g id="node13" class="node">
<title>Node13</title>
<g id="a_node13"><a xlink:href="classHttpResponse.html#acba4d7264c5b05e63a199c87f8526473" target="_top" xlink:title=" ">
<polygon fill="white" stroke="black" points="626,-304.5 626,-323.5 759,-323.5 759,-304.5 626,-304.5"/>
<text text-anchor="middle" x="692.5" y="-311.5" font-family="Helvetica,sans-Serif" font-size="10.00">HttpResponse::hasHeader</text>
</a>
</g>
</g>
<!-- Node3&#45;&gt;Node13 -->
<g id="edge12" class="edge">
<title>Node3&#45;&gt;Node13</title>
<path fill="none" stroke="midnightblue" d="M363.52,-247.78C377.95,-261.16 406.05,-284.69 435,-295 493.17,-315.72 563.34,-319.6 615.57,-318.78"/>
<polygon fill="midnightblue" stroke="midnightblue" points="615.84,-322.28 625.77,-318.56 615.69,-315.28 615.84,-322.28"/>
</g>
<!-- Node14 -->
<g id="node14" class="node">
<title>Node14</title>
<g id="a_node14"><a xlink:href="classHttpResponse.html#a884d07c418ba6145385d63e43bb1b29a" target="_top" xlink:title=" ">
<polygon fill="white" stroke="black" points="451.5,-190.5 451.5,-209.5 573.5,-209.5 573.5,-190.5 451.5,-190.5"/>
<text text-anchor="middle" x="512.5" y="-197.5" font-family="Helvetica,sans-Serif" font-size="10.00">HttpResponse::setBody</text>
</a>
</g>
</g>
<!-- Node3&#45;&gt;Node14 -->
<g id="edge14" class="edge">
<title>Node3&#45;&gt;Node14</title>
<path fill="none" stroke="midnightblue" d="M393.37,-228.41C414.22,-223.4 439.93,-217.21 462.04,-211.89"/>
<polygon fill="midnightblue" stroke="midnightblue" points="463.01,-215.26 471.92,-209.52 461.38,-208.46 463.01,-215.26"/>
</g>
<!-- Node3&#45;&gt;Node15 -->
<g id="edge15" class="edge">
<title>Node3&#45;&gt;Node15</title>
<path fill="none" stroke="midnightblue" d="M359.65,-247.68C371.81,-266.05 400.74,-306.06 435,-328 441.92,-332.43 449.71,-336.09 457.61,-339.1"/>
<polygon fill="midnightblue" stroke="midnightblue" points="456.65,-342.48 467.24,-342.47 458.95,-335.87 456.65,-342.48"/>
</g>
<!-- Node16 -->
<g id="node16" class="node">
<title>Node16</title>
<g id="a_node16"><a xlink:href="classHttpResponse.html#ac982631ddcf451521e207ac0c2bd0108" target="_top" xlink:title=" ">
<polygon fill="white" stroke="black" points="441,-152.5 441,-171.5 584,-171.5 584,-152.5 441,-152.5"/>
<text text-anchor="middle" x="512.5" y="-159.5" font-family="Helvetica,sans-Serif" font-size="10.00">HttpResponse::setHeadOnly</text>
</a>
</g>
</g>
<!-- Node3&#45;&gt;Node16 -->
<g id="edge19" class="edge">
<title>Node3&#45;&gt;Node16</title>
<path fill="none" stroke="midnightblue" d="M381.89,-228.3C387.78,-225.7 393.79,-222.6 399,-219 418.15,-205.79 414.9,-192.72 435,-181 438.72,-178.83 442.69,-176.9 446.78,-175.2"/>
<polygon fill="midnightblue" stroke="midnightblue" points="448.34,-178.35 456.5,-171.6 445.91,-171.79 448.34,-178.35"/>
</g>
<!-- Node17 -->
<g id="node17" class="node">
<title>Node17</title>
<g id="a_node17"><a xlink:href="classHttpResponse.html#a610f8f887ca042f2b18ec395aaccc255" target="_top" xlink:title=" ">
<polygon fill="white" stroke="black" points="437,-114.5 437,-133.5 588,-133.5 588,-114.5 437,-114.5"/>
<text text-anchor="middle" x="512.5" y="-121.5" font-family="Helvetica,sans-Serif" font-size="10.00">HttpResponse::setStatusCode</text>
</a>
</g>
</g>
<!-- Node3&#45;&gt;Node17 -->
<g id="edge20" class="edge">
<title>Node3&#45;&gt;Node17</title>
<path fill="none" stroke="midnightblue" d="M385.2,-228.35C390.21,-225.86 395.04,-222.78 399,-219 426.04,-193.2 406.08,-166.67 435,-143 437.04,-141.33 439.2,-139.81 441.46,-138.41"/>
<polygon fill="midnightblue" stroke="midnightblue" points="443.33,-141.38 450.59,-133.66 440.1,-135.18 443.33,-141.38"/>
</g>
<!-- Node19 -->
<g id="node19" class="node">
<title>Node19</title>
<g id="a_node19"><a xlink:href="classHttpResponse.html#a407dc1ea3f01365d8105fadc0418bc79" target="_top" xlink:title=" ">
<polygon fill="white" stroke="black" points="446.5,-76.5 446.5,-95.5 578.5,-95.5 578.5,-76.5 446.5,-76.5"/>
<text text-anchor="middle" x="512.5" y="-83.5" font-family="Helvetica,sans-Serif" font-size="10.00">HttpResponse::setVersion</text>
</a>
</g>
</g>
<!-- Node3&#45;&gt;Node19 -->
<g id="edge22" class="edge">
<title>Node3&#45;&gt;Node19</title>
<path fill="none" stroke="midnightblue" d="M386.58,-228.31C391.19,-225.85 395.53,-222.79 399,-219 434.85,-179.78 396.27,-141.38 435,-105 436.66,-103.44 438.43,-102 440.29,-100.68"/>
<polygon fill="midnightblue" stroke="midnightblue" points="442.09,-103.67 448.91,-95.57 438.52,-97.65 442.09,-103.67"/>
</g>
<!-- Node20 -->
<g id="node20" class="node">
<title>Node20</title>
<g id="a_node20"><a xlink:href="ResponseUtils_8cpp.html#af8cce302648449aa6215ac211230ef75" target="_top" xlink:title=" ">
<polygon fill="white" stroke="black" points="470.5,-38.5 470.5,-57.5 554.5,-57.5 554.5,-38.5 470.5,-38.5"/>
<text text-anchor="middle" x="512.5" y="-45.5" font-family="Helvetica,sans-Serif" font-size="10.00">versionToString</text>
</a>
</g>
</g>
<!-- Node3&#45;&gt;Node20 -->
<g id="edge23" class="edge">
<title>Node3&#45;&gt;Node20</title>
<path fill="none" stroke="midnightblue" d="M387.29,-228.28C391.69,-225.83 395.79,-222.78 399,-219 443.93,-166.08 386.18,-116.36 435,-67 441.93,-60 451.01,-55.43 460.49,-52.48"/>
<polygon fill="midnightblue" stroke="midnightblue" points="461.6,-55.81 470.43,-49.96 459.88,-49.03 461.6,-55.81"/>
</g>
<!-- Node5 -->
<g id="node5" class="node">
<title>Node5</title>
<g id="a_node5"><a xlink:href="SessionUtils_8cpp.html#af915f0cd7984e5d06370014bb43c74b6" target="_top" xlink:title=" ">
<polygon fill="white" stroke="black" points="649,-494.5 649,-513.5 736,-513.5 736,-494.5 649,-494.5"/>
<text text-anchor="middle" x="692.5" y="-501.5" font-family="Helvetica,sans-Serif" font-size="10.00">createSessionId</text>
</a>
</g>
</g>
<!-- Node4&#45;&gt;Node5 -->
<g id="edge4" class="edge">
<title>Node4&#45;&gt;Node5</title>
<path fill="none" stroke="midnightblue" d="M558.42,-475.59C582.87,-480.81 613.27,-487.3 638.84,-492.76"/>
<polygon fill="midnightblue" stroke="midnightblue" points="638.23,-496.21 648.74,-494.87 639.7,-489.36 638.23,-496.21"/>
</g>
<!-- Node6 -->
<g id="node6" class="node">
<title>Node6</title>
<g id="a_node6"><a xlink:href="SessionUtils_8cpp.html#a655520ad6c85707c8e1aae50c1eda6c8" target="_top" xlink:title=" ">
<polygon fill="white" stroke="black" points="638.5,-456.5 638.5,-475.5 746.5,-475.5 746.5,-456.5 638.5,-456.5"/>
<text text-anchor="middle" x="692.5" y="-463.5" font-family="Helvetica,sans-Serif" font-size="10.00">extractIdFromCookie</text>
</a>
</g>
</g>
<!-- Node4&#45;&gt;Node6 -->
<g id="edge5" class="edge">
<title>Node4&#45;&gt;Node6</title>
<path fill="none" stroke="midnightblue" d="M581.56,-466C596.87,-466 613.05,-466 628.16,-466"/>
<polygon fill="midnightblue" stroke="midnightblue" points="628.43,-469.5 638.43,-466 628.43,-462.5 628.43,-469.5"/>
</g>
<!-- Node7 -->
<g id="node7" class="node">
<title>Node7</title>
<g id="a_node7"><a xlink:href="classHttpRequest.html#ab537cb11b054734695ee4889d88aec6d" target="_top" xlink:title="Obtiene un header específico de la petición.">
<polygon fill="white" stroke="black" points="631,-418.5 631,-437.5 754,-437.5 754,-418.5 631,-418.5"/>
<text text-anchor="middle" x="692.5" y="-425.5" font-family="Helvetica,sans-Serif" font-size="10.00">HttpRequest::getHeader</text>
</a>
</g>
</g>
<!-- Node4&#45;&gt;Node7 -->
<g id="edge6" class="edge">
<title>Node4&#45;&gt;Node7</title>
<path fill="none" stroke="midnightblue" d="M558.42,-456.41C582.33,-451.31 611.92,-444.99 637.12,-439.61"/>
<polygon fill="midnightblue" stroke="midnightblue" points="637.86,-443.03 646.91,-437.52 636.4,-436.19 637.86,-443.03"/>
</g>
<!-- Node4&#45;&gt;Node8 -->
<g id="edge7" class="edge">
<title>Node4&#45;&gt;Node8</title>
<path fill="none" stroke="midnightblue" d="M555.39,-456.46C567.03,-452.87 579.39,-448.12 590,-442 608.8,-431.16 607.08,-419.64 626,-409 629.94,-406.79 634.16,-404.81 638.49,-403.05"/>
<polygon fill="midnightblue" stroke="midnightblue" points="639.89,-406.26 648.07,-399.53 637.48,-399.69 639.89,-406.26"/>
</g>
<!-- Node9 -->
<g id="node9" class="node">
<title>Node9</title>
<g id="a_node9"><a xlink:href="namespacehttp__header__utils.html#aa9b0e84aeed4203326a12eecbcd3f9e5" target="_top" xlink:title=" ">
<polygon fill="white" stroke="black" points="795,-337 795,-367 892,-367 892,-337 795,-337"/>
<text text-anchor="start" x="803" y="-355" font-family="Helvetica,sans-Serif" font-size="10.00">http_header_utils::</text>
<text text-anchor="middle" x="843.5" y="-344" font-family="Helvetica,sans-Serif" font-size="10.00">toLowerCopy</text>
</a>
</g>
</g>
<!-- Node8&#45;&gt;Node9 -->
<g id="edge8" class="edge">
<title>Node8&#45;&gt;Node9</title>
<path fill="none" stroke="midnightblue" d="M731.1,-380.41C747.39,-376.26 766.84,-371.3 784.89,-366.69"/>
<polygon fill="midnightblue" stroke="midnightblue" points="785.92,-370.04 794.74,-364.18 784.19,-363.26 785.92,-370.04"/>
</g>
<!-- Node13&#45;&gt;Node9 -->
<g id="edge13" class="edge">
<title>Node13&#45;&gt;Node9</title>
<path fill="none" stroke="midnightblue" d="M731.1,-323.59C747.39,-327.74 766.84,-332.7 784.89,-337.31"/>
<polygon fill="midnightblue" stroke="midnightblue" points="784.19,-340.74 794.74,-339.82 785.92,-333.96 784.19,-340.74"/>
</g>
<!-- Node15&#45;&gt;Node8 -->
<g id="edge16" class="edge">
<title>Node15&#45;&gt;Node8</title>
<path fill="none" stroke="midnightblue" d="M558.42,-361.59C582.33,-366.69 611.92,-373.01 637.12,-378.39"/>
<polygon fill="midnightblue" stroke="midnightblue" points="636.4,-381.81 646.91,-380.48 637.86,-374.97 636.4,-381.81"/>
</g>
<!-- Node15&#45;&gt;Node9 -->
<g id="edge17" class="edge">
<title>Node15&#45;&gt;Node9</title>
<path fill="none" stroke="midnightblue" d="M590.22,-352C649.62,-352 730.62,-352 784.64,-352"/>
<polygon fill="midnightblue" stroke="midnightblue" points="784.74,-355.5 794.74,-352 784.74,-348.5 784.74,-355.5"/>
</g>
<!-- Node18 -->
<g id="node18" class="node">
<title>Node18</title>
<g id="a_node18"><a xlink:href="HttpResponse_8cpp.html#aadc8fd8bbc80a1b3551ea1357e04f07b" target="_top" xlink:title=" ">
<polygon fill="white" stroke="black" points="633,-114.5 633,-133.5 752,-133.5 752,-114.5 633,-114.5"/>
<text text-anchor="middle" x="692.5" y="-121.5" font-family="Helvetica,sans-Serif" font-size="10.00">reasonPhraseForStatus</text>
</a>
</g>
</g>
<!-- Node17&#45;&gt;Node18 -->
<g id="edge21" class="edge">
<title>Node17&#45;&gt;Node18</title>
<path fill="none" stroke="midnightblue" d="M588.21,-124C599.65,-124 611.41,-124 622.71,-124"/>
<polygon fill="midnightblue" stroke="midnightblue" points="622.94,-127.5 632.94,-124 622.94,-120.5 622.94,-127.5"/>
</g>
</g>
</svg>
