<?xml version="1.0" encoding="UTF-8" standalone="no"?>
<!DOCTYPE svg PUBLIC "-//W3C//DTD SVG 1.1//EN"
 "http://www.w3.org/Graphics/SVG/1.1/DTD/svg11.dtd">
<!-- Generated by graphviz version 2.43.0 (0)
 -->
<!-- Title: HttpRequest::getPath Pages: 1 -->
<svg width="2031pt" height="600pt"
 viewBox="0.00 0.00 2031.00 600.00" xmlns="http://www.w3.org/2000/svg" xmlns:xlink="http://www.w3.org/1999/xlink">
<g id="graph0" class="graph" transform="scale(1 1) rotate(0) translate(4 596)">
<title>HttpRequest::getPath</title>
<polygon fill="white" stroke="transparent" points="-4,4 -4,-596 2027,-596 2027,4 -4,4"/>
<!-- Node1 -->
<g id="node1" class="node">
<title>Node1</title>
<g id="a_node1"><a xlink:title=" ">
<polygon fill="#bfbfbf" stroke="black" points="1911,-324.5 1911,-343.5 2023,-343.5 2023,-324.5 1911,-324.5"/>
<text text-anchor="middle" x="1967" y="-331.5" font-family="Helvetica,sans-Serif" font-size="10.00">HttpRequest::getPath</text>
</a>
</g>
</g>
<!-- Node2 -->
<g id="node2" class="node">
<title>Node2</title>
<g id="a_node2"><a xlink:href="ResponseUtils_8cpp.html#ab7c2cb6fbf297c09ec402182b04584c6" target="_top" xlink:title=" ">
<polygon fill="white" stroke="black" points="1746.5,-324.5 1746.5,-343.5 1839.5,-343.5 1839.5,-324.5 1746.5,-324.5"/>
<text text-anchor="middle" x="1793" y="-331.5" font-family="Helvetica,sans-Serif" font-size="10.00">fillBaseResponse</text>
</a>
</g>
</g>
<!-- Node1&#45;&gt;Node2 -->
<g id="edge1" class="edge">
<title>Node1&#45;&gt;Node2</title>
<path fill="none" stroke="midnightblue" d="M1900.52,-334C1880.27,-334 1858.39,-334 1839.77,-334"/>
<polygon fill="midnightblue" stroke="midnightblue" points="1900.63,-337.5 1910.63,-334 1900.63,-330.5 1900.63,-337.5"/>
</g>
<!-- Node7 -->
<g id="node7" class="node">
<title>Node7</title>
<g id="a_node7"><a xlink:href="classClient.html#abcf615f2514ae7e0266315693e73a31a" target="_top" xlink:title=" ">
<polygon fill="white" stroke="black" points="652,-285.5 652,-304.5 807,-304.5 807,-285.5 652,-285.5"/>
<text text-anchor="middle" x="729.5" y="-292.5" font-family="Helvetica,sans-Serif" font-size="10.00">Client::handleCompleteRequest</text>
</a>
</g>
</g>
<!-- Node1&#45;&gt;Node7 -->
<g id="edge37" class="edge">
<title>Node1&#45;&gt;Node7</title>
<path fill="none" stroke="midnightblue" d="M1959.97,-353.35C1948.62,-386.68 1921.02,-455.09 1875,-494 1777.99,-576.01 1733.53,-592 1606.5,-592 1606.5,-592 1606.5,-592 1079,-592 897.36,-592 762.33,-355.38 735.41,-304.55"/>
<polygon fill="midnightblue" stroke="midnightblue" points="1963.29,-354.43 1963.08,-343.84 1956.64,-352.25 1963.29,-354.43"/>
</g>
<!-- Node14 -->
<g id="node14" class="node">
<title>Node14</title>
<g id="a_node14"><a xlink:href="classRequestProcessor.html#a3fa9c97a7d142a7b607002138de87140" target="_top" xlink:title=" ">
<polygon fill="white" stroke="black" points="1011,-380.5 1011,-399.5 1149,-399.5 1149,-380.5 1011,-380.5"/>
<text text-anchor="middle" x="1080" y="-387.5" font-family="Helvetica,sans-Serif" font-size="10.00">RequestProcessor::process</text>
</a>
</g>
</g>
<!-- Node1&#45;&gt;Node14 -->
<g id="edge44" class="edge">
<title>Node1&#45;&gt;Node14</title>
<path fill="none" stroke="midnightblue" d="M1951.35,-351.47C1905.98,-403.53 1761.42,-554 1606.5,-554 1606.5,-554 1606.5,-554 1433,-554 1321.42,-554 1282.03,-570.09 1185,-515 1134.67,-486.42 1098.26,-423.46 1085.75,-399.5"/>
<polygon fill="midnightblue" stroke="midnightblue" points="1954.14,-353.6 1958,-343.74 1948.83,-349.04 1954.14,-353.6"/>
</g>
<!-- Node17 -->
<g id="node17" class="node">
<title>Node17</title>
<g id="a_node17"><a xlink:href="StaticPathHandler_8cpp.html#a28a771d93d3051098585ebc34ed29855" target="_top" xlink:title=" ">
<polygon fill="white" stroke="black" points="1391.5,-38.5 1391.5,-57.5 1476.5,-57.5 1476.5,-38.5 1391.5,-38.5"/>
<text text-anchor="middle" x="1434" y="-45.5" font-family="Helvetica,sans-Serif" font-size="10.00">handleDirectory</text>
</a>
</g>
</g>
<!-- Node1&#45;&gt;Node17 -->
<g id="edge38" class="edge">
<title>Node1&#45;&gt;Node17</title>
<path fill="none" stroke="midnightblue" d="M1944.43,-318.65C1880.05,-273.5 1682.38,-139.78 1500,-67 1491.16,-63.47 1481.4,-60.27 1472.2,-57.55"/>
<polygon fill="midnightblue" stroke="midnightblue" points="1942.43,-321.52 1952.62,-324.42 1946.46,-315.8 1942.43,-321.52"/>
</g>
<!-- Node23 -->
<g id="node23" class="node">
<title>Node23</title>
<g id="a_node23"><a xlink:href="classCgiExecutor.html#ad97592b573c577e6bae11662ec683910" target="_top" xlink:title=" ">
<polygon fill="white" stroke="black" points="1711,-95.5 1711,-114.5 1875,-114.5 1875,-95.5 1711,-95.5"/>
<text text-anchor="middle" x="1793" y="-102.5" font-family="Helvetica,sans-Serif" font-size="10.00">CgiExecutor::prepareEnvironment</text>
</a>
</g>
</g>
<!-- Node1&#45;&gt;Node23 -->
<g id="edge39" class="edge">
<title>Node1&#45;&gt;Node23</title>
<path fill="none" stroke="midnightblue" d="M1962.86,-314.12C1955.35,-273.27 1932.5,-179.49 1875,-129 1867.84,-122.71 1859.09,-118.07 1850.02,-114.64"/>
<polygon fill="midnightblue" stroke="midnightblue" points="1959.44,-314.9 1964.59,-324.16 1966.34,-313.71 1959.44,-314.9"/>
</g>
<!-- Node3 -->
<g id="node3" class="node">
<title>Node3</title>
<g id="a_node3"><a xlink:href="ErrorUtils_8cpp.html#a470416220aa911b8f1274140a8322e7a" target="_top" xlink:title=" ">
<polygon fill="white" stroke="black" points="1554.5,-266.5 1554.5,-285.5 1656.5,-285.5 1656.5,-266.5 1554.5,-266.5"/>
<text text-anchor="middle" x="1605.5" y="-273.5" font-family="Helvetica,sans-Serif" font-size="10.00">buildErrorResponse</text>
</a>
</g>
</g>
<!-- Node2&#45;&gt;Node3 -->
<g id="edge2" class="edge">
<title>Node2&#45;&gt;Node3</title>
<path fill="none" stroke="midnightblue" d="M1751.63,-321.38C1717.21,-310.61 1668.48,-295.38 1637.18,-285.59"/>
<polygon fill="midnightblue" stroke="midnightblue" points="1750.78,-324.78 1761.37,-324.42 1752.87,-318.1 1750.78,-324.78"/>
</g>
<!-- Node2&#45;&gt;Node14 -->
<g id="edge36" class="edge">
<title>Node2&#45;&gt;Node14</title>
<path fill="none" stroke="midnightblue" d="M1772.92,-350.22C1728.65,-386.52 1613.99,-473.03 1500,-497 1362.84,-525.84 1313.93,-536.97 1185,-482 1141.54,-463.47 1103.66,-419.39 1088.3,-399.74"/>
<polygon fill="midnightblue" stroke="midnightblue" points="1775.36,-352.74 1780.82,-343.66 1770.89,-347.36 1775.36,-352.74"/>
</g>
<!-- Node2&#45;&gt;Node17 -->
<g id="edge34" class="edge">
<title>Node2&#45;&gt;Node17</title>
<path fill="none" stroke="midnightblue" d="M1769.15,-318.72C1708.02,-277.79 1544.75,-167.97 1536,-157 1509.14,-123.32 1531.89,-95.96 1500,-67 1493.47,-61.07 1485.19,-56.99 1476.74,-54.17"/>
<polygon fill="midnightblue" stroke="midnightblue" points="1767.46,-321.81 1777.72,-324.46 1771.36,-315.99 1767.46,-321.81"/>
</g>
<!-- Node19 -->
<g id="node19" class="node">
<title>Node19</title>
<g id="a_node19"><a xlink:href="classRequestProcessor.html#a606f9c02a3166ca58e6930f8d292d81c" target="_top" xlink:title=" ">
<polygon fill="white" stroke="black" points="1368,-457 1368,-487 1500,-487 1500,-457 1368,-457"/>
<text text-anchor="start" x="1376" y="-475" font-family="Helvetica,sans-Serif" font-size="10.00">RequestProcessor::handle</text>
<text text-anchor="middle" x="1434" y="-464" font-family="Helvetica,sans-Serif" font-size="10.00">LocationValidation</text>
</a>
</g>
</g>
<!-- Node2&#45;&gt;Node19 -->
<g id="edge35" class="edge">
<title>Node2&#45;&gt;Node19</title>
<path fill="none" stroke="midnightblue" d="M1757.55,-347.32C1690.82,-373.11 1544.32,-429.74 1474.07,-456.9"/>
<polygon fill="midnightblue" stroke="midnightblue" points="1759.11,-350.46 1767.18,-343.59 1756.59,-343.94 1759.11,-350.46"/>
</g>
<!-- Node4 -->
<g id="node4" class="node">
<title>Node4</title>
<g id="a_node4"><a xlink:href="classClient.html#a3b000abab7a3fe339f0f39ad5daca68f" target="_top" xlink:title=" ">
<polygon fill="white" stroke="black" points="1371.5,-190.5 1371.5,-209.5 1496.5,-209.5 1496.5,-190.5 1371.5,-190.5"/>
<text text-anchor="middle" x="1434" y="-197.5" font-family="Helvetica,sans-Serif" font-size="10.00">Client::checkCgiTimeout</text>
</a>
</g>
</g>
<!-- Node3&#45;&gt;Node4 -->
<g id="edge3" class="edge">
<title>Node3&#45;&gt;Node4</title>
<path fill="none" stroke="midnightblue" d="M1580.69,-261.09C1559.97,-248.58 1528.82,-230.91 1500,-219 1491.42,-215.45 1481.94,-212.29 1472.94,-209.6"/>
<polygon fill="midnightblue" stroke="midnightblue" points="1579.07,-264.2 1589.43,-266.43 1582.73,-258.23 1579.07,-264.2"/>
</g>
<!-- Node5 -->
<g id="node5" class="node">
<title>Node5</title>
<g id="a_node5"><a xlink:href="classClient.html#ae523ed90bd32b88e539ebdf30746382b" target="_top" xlink:title=" ">
<polygon fill="white" stroke="black" points="1023.5,-152.5 1023.5,-171.5 1136.5,-171.5 1136.5,-152.5 1023.5,-152.5"/>
<text text-anchor="middle" x="1080" y="-159.5" font-family="Helvetica,sans-Serif" font-size="10.00">Client::dispatchAction</text>
</a>
</g>
</g>
<!-- Node3&#45;&gt;Node5 -->
<g id="edge4" class="edge">
<title>Node3&#45;&gt;Node5</title>
<path fill="none" stroke="midnightblue" d="M1584.71,-259.63C1570.84,-247.99 1552,-231.86 1536,-217 1519.42,-201.61 1520.7,-190.13 1500,-181 1378.57,-127.45 1217.68,-140.52 1135.05,-152.49"/>
<polygon fill="midnightblue" stroke="midnightblue" points="1582.71,-262.52 1592.63,-266.24 1587.2,-257.14 1582.71,-262.52"/>
</g>
<!-- Node12 -->
<g id="node12" class="node">
<title>Node12</title>
<g id="a_node12"><a xlink:href="classClient.html#a09d6029b60ae8c9773362968e72f2e54" target="_top" xlink:title=" ">
<polygon fill="white" stroke="black" points="317,-115.5 317,-134.5 455,-134.5 455,-115.5 317,-115.5"/>
<text text-anchor="middle" x="386" y="-122.5" font-family="Helvetica,sans-Serif" font-size="10.00">Client::finalizeCgiResponse</text>
</a>
</g>
</g>
<!-- Node3&#45;&gt;Node12 -->
<g id="edge13" class="edge">
<title>Node3&#45;&gt;Node12</title>
<path fill="none" stroke="midnightblue" d="M1581.72,-260.16C1567.27,-249.27 1548.93,-233.79 1536,-217 1513.68,-188.02 1530.22,-163.6 1500,-143 1411.41,-82.6 1366.72,-124 1259.5,-124 1259.5,-124 1259.5,-124 728.5,-124 633.64,-124 523.96,-124.39 455.03,-124.68"/>
<polygon fill="midnightblue" stroke="midnightblue" points="1579.99,-263.24 1590.13,-266.32 1584.13,-257.59 1579.99,-263.24"/>
</g>
<!-- Node13 -->
<g id="node13" class="node">
<title>Node13</title>
<g id="a_node13"><a xlink:href="classRequestProcessor.html#a79915b1a2fda205b7d5a6c92e5e3fce8" target="_top" xlink:title=" ">
<polygon fill="white" stroke="black" points="1185,-380.5 1185,-399.5 1332,-399.5 1332,-380.5 1185,-380.5"/>
<text text-anchor="middle" x="1258.5" y="-387.5" font-family="Helvetica,sans-Serif" font-size="10.00">RequestProcessor::handleCgi</text>
</a>
</g>
</g>
<!-- Node3&#45;&gt;Node13 -->
<g id="edge14" class="edge">
<title>Node3&#45;&gt;Node13</title>
<path fill="none" stroke="midnightblue" d="M1590.16,-293.69C1571.77,-314.97 1537.71,-349.82 1500,-366 1446.88,-388.79 1381.29,-394 1332.04,-393.95"/>
<polygon fill="midnightblue" stroke="midnightblue" points="1593.08,-295.66 1596.84,-285.76 1587.72,-291.16 1593.08,-295.66"/>
</g>
<!-- Node3&#45;&gt;Node14 -->
<g id="edge33" class="edge">
<title>Node3&#45;&gt;Node14</title>
<path fill="none" stroke="midnightblue" d="M1582.53,-291.22C1562.12,-304.56 1530.38,-323.28 1500,-333 1365.69,-375.98 1324.42,-349.87 1185,-371 1166.85,-373.75 1147.01,-377.25 1129.57,-380.5"/>
<polygon fill="midnightblue" stroke="midnightblue" points="1584.69,-293.99 1591.07,-285.53 1580.8,-288.17 1584.69,-293.99"/>
</g>
<!-- Node15 -->
<g id="node15" class="node">
<title>Node15</title>
<g id="a_node15"><a xlink:href="classClient.html#a4104efd3f5f7e1c0f3e3302b46861624" target="_top" xlink:title=" ">
<polygon fill="white" stroke="black" points="1378.5,-76.5 1378.5,-95.5 1489.5,-95.5 1489.5,-76.5 1378.5,-76.5"/>
<text text-anchor="middle" x="1434" y="-83.5" font-family="Helvetica,sans-Serif" font-size="10.00">Client::handleCgiPipe</text>
</a>
</g>
</g>
<!-- Node3&#45;&gt;Node15 -->
<g id="edge18" class="edge">
<title>Node3&#45;&gt;Node15</title>
<path fill="none" stroke="midnightblue" d="M1571.68,-261.75C1558.93,-254.75 1545.2,-245.17 1536,-233 1501.64,-187.57 1538.86,-151.64 1500,-110 1494.09,-103.67 1486.36,-99 1478.31,-95.56"/>
<polygon fill="midnightblue" stroke="midnightblue" points="1570.23,-264.94 1580.72,-266.4 1573.42,-258.71 1570.23,-264.94"/>
</g>
<!-- Node3&#45;&gt;Node17 -->
<g id="edge21" class="edge">
<title>Node3&#45;&gt;Node17</title>
<path fill="none" stroke="midnightblue" d="M1570.68,-261.76C1558.02,-254.83 1544.63,-245.3 1536,-233 1492.64,-171.2 1551.46,-122.24 1500,-67 1493.75,-60.29 1485.27,-55.91 1476.51,-53.05"/>
<polygon fill="midnightblue" stroke="midnightblue" points="1569.19,-264.93 1579.68,-266.35 1572.36,-258.69 1569.19,-264.93"/>
</g>
<!-- Node18 -->
<g id="node18" class="node">
<title>Node18</title>
<g id="a_node18"><a xlink:href="StaticPathHandler_8cpp.html#a4e092999675b45373270f5408cbe64c7" target="_top" xlink:title=" ">
<polygon fill="white" stroke="black" points="1213,-266.5 1213,-285.5 1304,-285.5 1304,-266.5 1213,-266.5"/>
<text text-anchor="middle" x="1258.5" y="-273.5" font-family="Helvetica,sans-Serif" font-size="10.00">handleStaticPath</text>
</a>
</g>
</g>
<!-- Node3&#45;&gt;Node18 -->
<g id="edge30" class="edge">
<title>Node3&#45;&gt;Node18</title>
<path fill="none" stroke="midnightblue" d="M1544.13,-276C1475.62,-276 1365.48,-276 1304.24,-276"/>
<polygon fill="midnightblue" stroke="midnightblue" points="1544.33,-279.5 1554.33,-276 1544.33,-272.5 1544.33,-279.5"/>
</g>
<!-- Node3&#45;&gt;Node19 -->
<g id="edge24" class="edge">
<title>Node3&#45;&gt;Node19</title>
<path fill="none" stroke="midnightblue" d="M1592.12,-293.81C1578.11,-314.16 1554.78,-348.57 1536,-379 1519.06,-406.44 1523.77,-420.21 1500,-442 1493.5,-447.96 1485.6,-452.93 1477.58,-456.99"/>
<polygon fill="midnightblue" stroke="midnightblue" points="1595.05,-295.73 1597.86,-285.51 1589.29,-291.75 1595.05,-295.73"/>
</g>
<!-- Node20 -->
<g id="node20" class="node">
<title>Node20</title>
<g id="a_node20"><a xlink:href="classRequestProcessor.html#a10779d8453416feeda2174859c00d082" target="_top" xlink:title=" ">
<polygon fill="white" stroke="black" points="1192.5,-419 1192.5,-449 1324.5,-449 1324.5,-419 1192.5,-419"/>
<text text-anchor="start" x="1200.5" y="-437" font-family="Helvetica,sans-Serif" font-size="10.00">RequestProcessor::handle</text>
<text text-anchor="middle" x="1258.5" y="-426" font-family="Helvetica,sans-Serif" font-size="10.00">ParseOrMethodErrors</text>
</a>
</g>
</g>
<!-- Node3&#45;&gt;Node20 -->
<g id="edge26" class="edge">
<title>Node3&#45;&gt;Node20</title>
<path fill="none" stroke="midnightblue" d="M1593.9,-294.19C1577.44,-320.64 1543.09,-369.16 1500,-393 1445.89,-422.94 1375.27,-432.06 1324.58,-434.38"/>
<polygon fill="midnightblue" stroke="midnightblue" points="1596.96,-295.89 1599.14,-285.53 1590.97,-292.27 1596.96,-295.89"/>
</g>
<!-- Node21 -->
<g id="node21" class="node">
<title>Node21</title>
<g id="a_node21"><a xlink:href="StaticPathHandler_8cpp.html#a5af8659f0f83e8296b29264dd671af0d" target="_top" xlink:title=" ">
<polygon fill="white" stroke="black" points="1386.5,-228.5 1386.5,-247.5 1481.5,-247.5 1481.5,-228.5 1386.5,-228.5"/>
<text text-anchor="middle" x="1434" y="-235.5" font-family="Helvetica,sans-Serif" font-size="10.00">handleRegularFile</text>
</a>
</g>
</g>
<!-- Node3&#45;&gt;Node21 -->
<g id="edge28" class="edge">
<title>Node3&#45;&gt;Node21</title>
<path fill="none" stroke="midnightblue" d="M1551.76,-264.18C1527.86,-258.82 1499.98,-252.57 1477.46,-247.52"/>
<polygon fill="midnightblue" stroke="midnightblue" points="1551.2,-267.64 1561.73,-266.41 1552.74,-260.81 1551.2,-267.64"/>
</g>
<!-- Node22 -->
<g id="node22" class="node">
<title>Node22</title>
<g id="a_node22"><a xlink:href="StaticPathHandler_8cpp.html#a638cb25cad6c24877a0e75984110ea7a" target="_top" xlink:title=" ">
<polygon fill="white" stroke="black" points="1396,-304.5 1396,-323.5 1472,-323.5 1472,-304.5 1396,-304.5"/>
<text text-anchor="middle" x="1434" y="-311.5" font-family="Helvetica,sans-Serif" font-size="10.00">handleUpload</text>
</a>
</g>
</g>
<!-- Node3&#45;&gt;Node22 -->
<g id="edge31" class="edge">
<title>Node3&#45;&gt;Node22</title>
<path fill="none" stroke="midnightblue" d="M1551.7,-287.84C1525.85,-293.63 1495.34,-300.47 1472,-305.7"/>
<polygon fill="midnightblue" stroke="midnightblue" points="1552.74,-291.19 1561.73,-285.59 1551.2,-284.36 1552.74,-291.19"/>
</g>
<!-- Node6 -->
<g id="node6" class="node">
<title>Node6</title>
<g id="a_node6"><a xlink:href="classClient.html#a419f8f3253d3f71287044e3999a5d600" target="_top" xlink:title=" ">
<polygon fill="white" stroke="black" points="852.5,-285.5 852.5,-304.5 965.5,-304.5 965.5,-285.5 852.5,-285.5"/>
<text text-anchor="middle" x="909" y="-292.5" font-family="Helvetica,sans-Serif" font-size="10.00">Client::buildResponse</text>
</a>
</g>
</g>
<!-- Node5&#45;&gt;Node6 -->
<g id="edge5" class="edge">
<title>Node5&#45;&gt;Node6</title>
<path fill="none" stroke="midnightblue" d="M1058.69,-177.98C1023.33,-205.82 951.45,-262.38 922.5,-285.16"/>
<polygon fill="midnightblue" stroke="midnightblue" points="1061.15,-180.5 1066.85,-171.57 1056.82,-175 1061.15,-180.5"/>
</g>
<!-- Node6&#45;&gt;Node7 -->
<g id="edge6" class="edge">
<title>Node6&#45;&gt;Node7</title>
<path fill="none" stroke="midnightblue" d="M842.05,-295C830.67,-295 818.75,-295 807.12,-295"/>
<polygon fill="midnightblue" stroke="midnightblue" points="842.32,-298.5 852.32,-295 842.32,-291.5 842.32,-298.5"/>
</g>
<!-- Node8 -->
<g id="node8" class="node">
<title>Node8</title>
<g id="a_node8"><a xlink:href="classClient.html#ac95fe5b24fe5275bd2271bd1ac37596d" target="_top" xlink:title=" ">
<polygon fill="white" stroke="black" points="336,-153.5 336,-172.5 436,-172.5 436,-153.5 336,-153.5"/>
<text text-anchor="middle" x="386" y="-160.5" font-family="Helvetica,sans-Serif" font-size="10.00">Client::handleRead</text>
</a>
</g>
</g>
<!-- Node7&#45;&gt;Node8 -->
<g id="edge7" class="edge">
<title>Node7&#45;&gt;Node8</title>
<path fill="none" stroke="midnightblue" d="M694.14,-281.72C625.26,-255.09 471.77,-195.77 411.74,-172.56"/>
<polygon fill="midnightblue" stroke="midnightblue" points="693.08,-285.06 703.67,-285.4 695.6,-278.53 693.08,-285.06"/>
</g>
<!-- Node11 -->
<g id="node11" class="node">
<title>Node11</title>
<g id="a_node11"><a xlink:href="classClient.html#a950fd2ab8ac20c9be4c5e722344d6fe2" target="_top" xlink:title=" ">
<polygon fill="white" stroke="black" points="491,-153.5 491,-172.5 616,-172.5 616,-153.5 491,-153.5"/>
<text text-anchor="middle" x="553.5" y="-160.5" font-family="Helvetica,sans-Serif" font-size="10.00">Client::processRequests</text>
</a>
</g>
</g>
<!-- Node7&#45;&gt;Node11 -->
<g id="edge10" class="edge">
<title>Node7&#45;&gt;Node11</title>
<path fill="none" stroke="midnightblue" d="M707.73,-279.24C671.34,-251.64 597.12,-195.33 567.31,-172.72"/>
<polygon fill="midnightblue" stroke="midnightblue" points="705.62,-282.04 715.71,-285.29 709.85,-276.46 705.62,-282.04"/>
</g>
<!-- Node9 -->
<g id="node9" class="node">
<title>Node9</title>
<g id="a_node9"><a xlink:href="classServerManager.html#a9f3ca46da9df004286f90902b8daf29d" target="_top" xlink:title=" ">
<polygon fill="white" stroke="black" points="138,-129 138,-159 281,-159 281,-129 138,-129"/>
<text text-anchor="start" x="146" y="-147" font-family="Helvetica,sans-Serif" font-size="10.00">ServerManager::handleClient</text>
<text text-anchor="middle" x="209.5" y="-136" font-family="Helvetica,sans-Serif" font-size="10.00">Event</text>
</a>
</g>
</g>
<!-- Node8&#45;&gt;Node9 -->
<g id="edge8" class="edge">
<title>Node8&#45;&gt;Node9</title>
<path fill="none" stroke="midnightblue" d="M325.69,-156.54C311.33,-154.98 295.84,-153.29 281.02,-151.68"/>
<polygon fill="midnightblue" stroke="midnightblue" points="325.61,-160.05 335.93,-157.66 326.37,-153.09 325.61,-160.05"/>
</g>
<!-- Node10 -->
<g id="node10" class="node">
<title>Node10</title>
<g id="a_node10"><a xlink:href="classServerManager.html#aecc313c9b6afcab92c22269b3333c721" target="_top" xlink:title=" ">
<polygon fill="white" stroke="black" points="0,-96.5 0,-115.5 102,-115.5 102,-96.5 0,-96.5"/>
<text text-anchor="middle" x="51" y="-103.5" font-family="Helvetica,sans-Serif" font-size="10.00">ServerManager::run</text>
</a>
</g>
</g>
<!-- Node9&#45;&gt;Node10 -->
<g id="edge9" class="edge">
<title>Node9&#45;&gt;Node10</title>
<path fill="none" stroke="midnightblue" d="M136.51,-126.52C120.96,-122.75 105.09,-118.89 91.36,-115.56"/>
<polygon fill="midnightblue" stroke="midnightblue" points="136.1,-130.02 146.65,-128.98 137.76,-123.22 136.1,-130.02"/>
</g>
<!-- Node11&#45;&gt;Node8 -->
<g id="edge12" class="edge">
<title>Node11&#45;&gt;Node8</title>
<path fill="none" stroke="midnightblue" d="M480.56,-163C465.52,-163 449.99,-163 436.02,-163"/>
<polygon fill="midnightblue" stroke="midnightblue" points="480.87,-166.5 490.87,-163 480.87,-159.5 480.87,-166.5"/>
</g>
<!-- Node11&#45;&gt;Node12 -->
<g id="edge11" class="edge">
<title>Node11&#45;&gt;Node12</title>
<path fill="none" stroke="midnightblue" d="M500.69,-151.1C477.43,-145.76 450.35,-139.55 428.46,-134.52"/>
<polygon fill="midnightblue" stroke="midnightblue" points="500.21,-154.58 510.74,-153.41 501.77,-147.76 500.21,-154.58"/>
</g>
<!-- Node13&#45;&gt;Node14 -->
<g id="edge15" class="edge">
<title>Node13&#45;&gt;Node14</title>
<path fill="none" stroke="midnightblue" d="M1174.85,-390C1166.2,-390 1157.47,-390 1149.01,-390"/>
<polygon fill="midnightblue" stroke="midnightblue" points="1174.95,-393.5 1184.95,-390 1174.95,-386.5 1174.95,-393.5"/>
</g>
<!-- Node14&#45;&gt;Node6 -->
<g id="edge16" class="edge">
<title>Node14&#45;&gt;Node6</title>
<path fill="none" stroke="midnightblue" d="M1052.71,-375.22C1017.61,-355.49 956.47,-321.12 926.93,-304.52"/>
<polygon fill="midnightblue" stroke="midnightblue" points="1051.43,-378.52 1061.87,-380.37 1054.86,-372.42 1051.43,-378.52"/>
</g>
<!-- Node14&#45;&gt;Node7 -->
<g id="edge17" class="edge">
<title>Node14&#45;&gt;Node7</title>
<path fill="none" stroke="midnightblue" d="M1034.1,-377.76C963.78,-358.59 829.14,-321.89 765.49,-304.54"/>
<polygon fill="midnightblue" stroke="midnightblue" points="1033.42,-381.2 1043.99,-380.46 1035.26,-374.45 1033.42,-381.2"/>
</g>
<!-- Node16 -->
<g id="node16" class="node">
<title>Node16</title>
<g id="a_node16"><a xlink:href="classServerManager.html#a9c75ea0bd268425c187ef25770eccbe8" target="_top" xlink:title=" ">
<polygon fill="white" stroke="black" points="843,-49 843,-79 975,-79 975,-49 843,-49"/>
<text text-anchor="start" x="851" y="-67" font-family="Helvetica,sans-Serif" font-size="10.00">ServerManager::handleCgi</text>
<text text-anchor="middle" x="909" y="-56" font-family="Helvetica,sans-Serif" font-size="10.00">PipeEvent</text>
</a>
</g>
</g>
<!-- Node15&#45;&gt;Node16 -->
<g id="edge19" class="edge">
<title>Node15&#45;&gt;Node16</title>
<path fill="none" stroke="midnightblue" d="M1381.38,-74.45C1365.62,-71.42 1348.17,-68.57 1332,-67 1206.2,-54.82 1058.33,-57.69 975.25,-60.86"/>
<polygon fill="midnightblue" stroke="midnightblue" points="1380.98,-77.94 1391.47,-76.46 1382.34,-71.07 1380.98,-77.94"/>
</g>
<!-- Node16&#45;&gt;Node10 -->
<g id="edge20" class="edge">
<title>Node16&#45;&gt;Node10</title>
<path fill="none" stroke="midnightblue" d="M832.65,-70.74C761.13,-76.54 650.58,-84 554.5,-84 554.5,-84 554.5,-84 385,-84 284.48,-84 167.25,-94.11 102.14,-100.62"/>
<polygon fill="midnightblue" stroke="midnightblue" points="833.23,-74.2 842.91,-69.89 832.66,-67.22 833.23,-74.2"/>
</g>
<!-- Node17&#45;&gt;Node18 -->
<g id="edge22" class="edge">
<title>Node17&#45;&gt;Node18</title>
<path fill="none" stroke="midnightblue" d="M1381.68,-58.58C1376.76,-60.86 1372.1,-63.63 1368,-67 1299.79,-123.09 1269.44,-233.32 1261.62,-266.39"/>
<polygon fill="midnightblue" stroke="midnightblue" points="1383.32,-61.7 1391.34,-54.78 1380.76,-55.18 1383.32,-61.7"/>
</g>
<!-- Node18&#45;&gt;Node14 -->
<g id="edge23" class="edge">
<title>Node18&#45;&gt;Node14</title>
<path fill="none" stroke="midnightblue" d="M1234.17,-291.07C1197.39,-314.83 1126.92,-360.34 1096.08,-380.26"/>
<polygon fill="midnightblue" stroke="midnightblue" points="1236.25,-293.89 1242.76,-285.52 1232.46,-288.01 1236.25,-293.89"/>
</g>
<!-- Node19&#45;&gt;Node14 -->
<g id="edge25" class="edge">
<title>Node19&#45;&gt;Node14</title>
<path fill="none" stroke="midnightblue" d="M1357.7,-478.22C1307.54,-479.93 1240.82,-477.44 1185,-459 1146.53,-446.29 1108.77,-415.33 1091.21,-399.57"/>
<polygon fill="midnightblue" stroke="midnightblue" points="1357.98,-481.71 1367.83,-477.81 1357.69,-474.72 1357.98,-481.71"/>
</g>
<!-- Node20&#45;&gt;Node14 -->
<g id="edge27" class="edge">
<title>Node20&#45;&gt;Node14</title>
<path fill="none" stroke="midnightblue" d="M1187.41,-416.53C1164.13,-410.72 1139.09,-404.48 1119.16,-399.51"/>
<polygon fill="midnightblue" stroke="midnightblue" points="1186.7,-419.96 1197.25,-418.98 1188.4,-413.17 1186.7,-419.96"/>
</g>
<!-- Node21&#45;&gt;Node18 -->
<g id="edge29" class="edge">
<title>Node21&#45;&gt;Node18</title>
<path fill="none" stroke="midnightblue" d="M1379.34,-249.75C1354.81,-255.13 1326.12,-261.41 1302.97,-266.48"/>
<polygon fill="midnightblue" stroke="midnightblue" points="1380.2,-253.15 1389.22,-247.59 1378.7,-246.31 1380.2,-253.15"/>
</g>
<!-- Node22&#45;&gt;Node18 -->
<g id="edge32" class="edge">
<title>Node22&#45;&gt;Node18</title>
<path fill="none" stroke="midnightblue" d="M1385.85,-303.67C1360.05,-298.02 1328.31,-291.07 1303.09,-285.55"/>
<polygon fill="midnightblue" stroke="midnightblue" points="1385.26,-307.13 1395.78,-305.85 1386.76,-300.29 1385.26,-307.13"/>
</g>
<!-- Node24 -->
<g id="node24" class="node">
<title>Node24</title>
<g id="a_node24"><a xlink:href="classCgiExecutor.html#a449e349a961449c342e4612d131bda8e" target="_top" xlink:title=" ">
<polygon fill="white" stroke="black" points="1536,-19.5 1536,-38.5 1675,-38.5 1675,-19.5 1536,-19.5"/>
<text text-anchor="middle" x="1605.5" y="-26.5" font-family="Helvetica,sans-Serif" font-size="10.00">CgiExecutor::executeAsync</text>
</a>
</g>
</g>
<!-- Node23&#45;&gt;Node24 -->
<g id="edge40" class="edge">
<title>Node23&#45;&gt;Node24</title>
<path fill="none" stroke="midnightblue" d="M1759.12,-91.53C1721.97,-76.31 1662.45,-51.92 1629.8,-38.55"/>
<polygon fill="midnightblue" stroke="midnightblue" points="1757.93,-94.82 1768.51,-95.37 1760.58,-88.34 1757.93,-94.82"/>
</g>
<!-- Node25 -->
<g id="node25" class="node">
<title>Node25</title>
<g id="a_node25"><a xlink:href="classClient.html#a2e0da898af07e89fcfd83fe5a3077256" target="_top" xlink:title=" ">
<polygon fill="white" stroke="black" points="1385,-0.5 1385,-19.5 1483,-19.5 1483,-0.5 1385,-0.5"/>
<text text-anchor="middle" x="1434" y="-7.5" font-family="Helvetica,sans-Serif" font-size="10.00">Client::executeCgi</text>
</a>
</g>
</g>
<!-- Node24&#45;&gt;Node25 -->
<g id="edge41" class="edge">
<title>Node24&#45;&gt;Node25</title>
<path fill="none" stroke="midnightblue" d="M1525.58,-20.15C1511.09,-18.53 1496.36,-16.88 1483.12,-15.39"/>
<polygon fill="midnightblue" stroke="midnightblue" points="1525.23,-23.64 1535.56,-21.27 1526.01,-16.68 1525.23,-23.64"/>
</g>
<!-- Node26 -->
<g id="node26" class="node">
<title>Node26</title>
<g id="a_node26"><a xlink:href="classClient.html#a7ce261bf1858a7904f7bb9668188284b" target="_top" xlink:title=" ">
<polygon fill="white" stroke="black" points="1217,-76.5 1217,-95.5 1300,-95.5 1300,-76.5 1217,-76.5"/>
<text text-anchor="middle" x="1258.5" y="-83.5" font-family="Helvetica,sans-Serif" font-size="10.00">Client::startCgi</text>
</a>
</g>
</g>
<!-- Node25&#45;&gt;Node26 -->
<g id="edge42" class="edge">
<title>Node25&#45;&gt;Node26</title>
<path fill="none" stroke="midnightblue" d="M1385.49,-22.69C1379.54,-24.63 1373.59,-26.74 1368,-29 1333.67,-42.87 1295.89,-64.22 1275.2,-76.47"/>
<polygon fill="midnightblue" stroke="midnightblue" points="1386.93,-25.91 1395.44,-19.6 1384.85,-19.22 1386.93,-25.91"/>
</g>
<!-- Node26&#45;&gt;Node5 -->
<g id="edge43" class="edge">
<title>Node26&#45;&gt;Node5</title>
<path fill="none" stroke="midnightblue" d="M1225.76,-99.67C1190.39,-114.9 1134.11,-139.13 1103.17,-152.45"/>
<polygon fill="midnightblue" stroke="midnightblue" points="1227.35,-102.8 1235.15,-95.63 1224.58,-96.37 1227.35,-102.8"/>
</g>
</g>
</svg>
