<?xml version="1.0" encoding="UTF-8" standalone="no"?>
<!DOCTYPE svg PUBLIC "-//W3C//DTD SVG 1.1//EN"
 "http://www.w3.org/Graphics/SVG/1.1/DTD/svg11.dtd">
<!-- Generated by graphviz version 2.43.0 (0)
 -->
<!-- Title: Client::handleExpect100 Pages: 1 -->
<svg width="466pt" height="154pt"
 viewBox="0.00 0.00 466.00 153.50" xmlns="http://www.w3.org/2000/svg" xmlns:xlink="http://www.w3.org/1999/xlink">
<g id="graph0" class="graph" transform="scale(1 1) rotate(0) translate(4 149.5)">
<title>Client::handleExpect100</title>
<polygon fill="white" stroke="transparent" points="-4,4 -4,-149.5 462,-149.5 462,4 -4,4"/>
<!-- Node1 -->
<g id="node1" class="node">
<title>Node1</title>
<g id="a_node1"><a xlink:title="Handle Expect: 100&#45;continue.">
<polygon fill="#bfbfbf" stroke="black" points="0,-69 0,-88 123,-88 123,-69 0,-69"/>
<text text-anchor="middle" x="61.5" y="-76" font-family="Helvetica,sans-Serif" font-size="10.00">Client::handleExpect100</text>
</a>
</g>
</g>
<!-- Node2 -->
<g id="node2" class="node">
<title>Node2</title>
<g id="a_node2"><a xlink:href="classClient.html#a464a0e4f76c7943eadf2f7f4ae28b1c6" target="_top" xlink:title=" ">
<polygon fill="white" stroke="black" points="164.5,-126 164.5,-145 293.5,-145 293.5,-126 164.5,-126"/>
<text text-anchor="middle" x="229" y="-133" font-family="Helvetica,sans-Serif" font-size="10.00">Client::enqueueResponse</text>
</a>
</g>
</g>
<!-- Node1&#45;&gt;Node2 -->
<g id="edge1" class="edge">
<title>Node1&#45;&gt;Node2</title>
<path fill="none" stroke="midnightblue" d="M84.87,-88.09C104.27,-96.22 133.21,-107.9 159,-116.5 165.97,-118.82 173.4,-121.09 180.71,-123.2"/>
<polygon fill="midnightblue" stroke="midnightblue" points="179.96,-126.62 190.54,-125.96 181.86,-119.89 179.96,-126.62"/>
</g>
<!-- Node3 -->
<g id="node3" class="node">
<title>Node3</title>
<g id="a_node3"><a xlink:href="classHttpParser.html#ac152c0d7912d2e757516c3d8f1b9891b" target="_top" xlink:title=" ">
<polygon fill="white" stroke="black" points="169,-88 169,-107 289,-107 289,-88 169,-88"/>
<text text-anchor="middle" x="229" y="-95" font-family="Helvetica,sans-Serif" font-size="10.00">HttpParser::getRequest</text>
</a>
</g>
</g>
<!-- Node1&#45;&gt;Node3 -->
<g id="edge2" class="edge">
<title>Node1&#45;&gt;Node3</title>
<path fill="none" stroke="midnightblue" d="M123.19,-85.47C134.75,-86.79 146.92,-88.19 158.73,-89.55"/>
<polygon fill="midnightblue" stroke="midnightblue" points="158.64,-93.06 168.98,-90.72 159.44,-86.11 158.64,-93.06"/>
</g>
<!-- Node4 -->
<g id="node4" class="node">
<title>Node4</title>
<g id="a_node4"><a xlink:href="classHttpParser.html#a6dfad8c8787d24caaab21f66ddb6415d" target="_top" xlink:title=" ">
<polygon fill="white" stroke="black" points="175.5,-50 175.5,-69 282.5,-69 282.5,-50 175.5,-50"/>
<text text-anchor="middle" x="229" y="-57" font-family="Helvetica,sans-Serif" font-size="10.00">HttpParser::getState</text>
</a>
</g>
</g>
<!-- Node1&#45;&gt;Node4 -->
<g id="edge3" class="edge">
<title>Node1&#45;&gt;Node4</title>
<path fill="none" stroke="midnightblue" d="M123.19,-71.53C136.79,-69.97 151.24,-68.31 164.94,-66.74"/>
<polygon fill="midnightblue" stroke="midnightblue" points="165.7,-70.18 175.23,-65.56 164.9,-63.22 165.7,-70.18"/>
</g>
<!-- Node5 -->
<g id="node5" class="node">
<title>Node5</title>
<g id="a_node5"><a xlink:href="classHttpRequest.html#a993c580bdbf75d3ede4d56594a90ee4a" target="_top" xlink:title=" ">
<polygon fill="white" stroke="black" points="159,-0.5 159,-30.5 299,-30.5 299,-0.5 159,-0.5"/>
<text text-anchor="start" x="167" y="-18.5" font-family="Helvetica,sans-Serif" font-size="10.00">HttpRequest::hasExpect100</text>
<text text-anchor="middle" x="229" y="-7.5" font-family="Helvetica,sans-Serif" font-size="10.00">Continue</text>
</a>
</g>
</g>
<!-- Node1&#45;&gt;Node5 -->
<g id="edge4" class="edge">
<title>Node1&#45;&gt;Node5</title>
<path fill="none" stroke="midnightblue" d="M86.22,-68.95C105.71,-61.15 134.07,-49.92 159,-40.5 164.57,-38.39 170.41,-36.22 176.24,-34.08"/>
<polygon fill="midnightblue" stroke="midnightblue" points="177.78,-37.24 185.97,-30.52 175.38,-30.67 177.78,-37.24"/>
</g>
<!-- Node6 -->
<g id="node6" class="node">
<title>Node6</title>
<g id="a_node6"><a xlink:href="classHttpRequest.html#ab537cb11b054734695ee4889d88aec6d" target="_top" xlink:title="Obtiene un header específico de la petición.">
<polygon fill="white" stroke="black" points="335,-6 335,-25 458,-25 458,-6 335,-6"/>
<text text-anchor="middle" x="396.5" y="-13" font-family="Helvetica,sans-Serif" font-size="10.00">HttpRequest::getHeader</text>
</a>
</g>
</g>
<!-- Node5&#45;&gt;Node6 -->
<g id="edge5" class="edge">
<title>Node5&#45;&gt;Node6</title>
<path fill="none" stroke="midnightblue" d="M299.23,-15.5C307.67,-15.5 316.3,-15.5 324.76,-15.5"/>
<polygon fill="midnightblue" stroke="midnightblue" points="324.97,-19 334.97,-15.5 324.97,-12 324.97,-19"/>
</g>
</g>
</svg>
