<?xml version="1.0" encoding="UTF-8" standalone="no"?>
<!DOCTYPE svg PUBLIC "-//W3C//DTD SVG 1.1//EN"
 "http://www.w3.org/Graphics/SVG/1.1/DTD/svg11.dtd">
<!-- Generated by graphviz version 2.43.0 (0)
 -->
<!-- Title: CgiProcess::closePipeIn Pages: 1 -->
<svg width="606pt" height="142pt"
 viewBox="0.00 0.00 606.00 142.00" xmlns="http://www.w3.org/2000/svg" xmlns:xlink="http://www.w3.org/1999/xlink">
<g id="graph0" class="graph" transform="scale(1 1) rotate(0) translate(4 138)">
<title>CgiProcess::closePipeIn</title>
<polygon fill="white" stroke="transparent" points="-4,4 -4,-138 602,-138 602,4 -4,4"/>
<!-- Node1 -->
<g id="node1" class="node">
<title>Node1</title>
<g id="a_node1"><a xlink:title=" ">
<polygon fill="#bfbfbf" stroke="black" points="473,-57.5 473,-76.5 598,-76.5 598,-57.5 473,-57.5"/>
<text text-anchor="middle" x="535.5" y="-64.5" font-family="Helvetica,sans-Serif" font-size="10.00">CgiProcess::closePipeIn</text>
</a>
</g>
</g>
<!-- Node2 -->
<g id="node2" class="node">
<title>Node2</title>
<g id="a_node2"><a xlink:href="classClient.html#a3b000abab7a3fe339f0f39ad5daca68f" target="_top" xlink:title=" ">
<polygon fill="white" stroke="black" points="309,-114.5 309,-133.5 434,-133.5 434,-114.5 309,-114.5"/>
<text text-anchor="middle" x="371.5" y="-121.5" font-family="Helvetica,sans-Serif" font-size="10.00">Client::checkCgiTimeout</text>
</a>
</g>
</g>
<!-- Node1&#45;&gt;Node2 -->
<g id="edge1" class="edge">
<title>Node1&#45;&gt;Node2</title>
<path fill="none" stroke="midnightblue" d="M502.14,-80.41C483.28,-88.02 458.96,-97.5 437,-105 427.28,-108.32 416.62,-111.6 406.81,-114.48"/>
<polygon fill="midnightblue" stroke="midnightblue" points="503.51,-83.63 511.46,-76.62 500.88,-77.15 503.51,-83.63"/>
</g>
<!-- Node3 -->
<g id="node3" class="node">
<title>Node3</title>
<g id="a_node3"><a xlink:href="classClient.html#a4104efd3f5f7e1c0f3e3302b46861624" target="_top" xlink:title=" ">
<polygon fill="white" stroke="black" points="316,-76.5 316,-95.5 427,-95.5 427,-76.5 316,-76.5"/>
<text text-anchor="middle" x="371.5" y="-83.5" font-family="Helvetica,sans-Serif" font-size="10.00">Client::handleCgiPipe</text>
</a>
</g>
</g>
<!-- Node1&#45;&gt;Node3 -->
<g id="edge2" class="edge">
<title>Node1&#45;&gt;Node3</title>
<path fill="none" stroke="midnightblue" d="M462.82,-75.41C450.85,-76.81 438.6,-78.25 427.14,-79.59"/>
<polygon fill="midnightblue" stroke="midnightblue" points="463.27,-78.88 472.79,-74.24 462.45,-71.93 463.27,-78.88"/>
</g>
<!-- Node6 -->
<g id="node6" class="node">
<title>Node6</title>
<g id="a_node6"><a xlink:href="classCgiProcess.html#a307b49dbe46b5312a06df715b1b2f7e2" target="_top" xlink:title=" ">
<polygon fill="white" stroke="black" points="306,-38.5 306,-57.5 437,-57.5 437,-38.5 306,-38.5"/>
<text text-anchor="middle" x="371.5" y="-45.5" font-family="Helvetica,sans-Serif" font-size="10.00">CgiProcess::~CgiProcess</text>
</a>
</g>
</g>
<!-- Node1&#45;&gt;Node6 -->
<g id="edge5" class="edge">
<title>Node1&#45;&gt;Node6</title>
<path fill="none" stroke="midnightblue" d="M462.6,-58.57C454.16,-57.58 445.6,-56.57 437.27,-55.6"/>
<polygon fill="midnightblue" stroke="midnightblue" points="462.45,-62.07 472.79,-59.76 463.27,-55.12 462.45,-62.07"/>
</g>
<!-- Node7 -->
<g id="node7" class="node">
<title>Node7</title>
<g id="a_node7"><a xlink:href="classClient.html#a840e519ca781888cbd54181572ebe3a7" target="_top" xlink:title=" ">
<polygon fill="white" stroke="black" points="331.5,-0.5 331.5,-19.5 411.5,-19.5 411.5,-0.5 331.5,-0.5"/>
<text text-anchor="middle" x="371.5" y="-7.5" font-family="Helvetica,sans-Serif" font-size="10.00">Client::~Client</text>
</a>
</g>
</g>
<!-- Node1&#45;&gt;Node7 -->
<g id="edge6" class="edge">
<title>Node1&#45;&gt;Node7</title>
<path fill="none" stroke="midnightblue" d="M502.14,-53.59C483.28,-45.98 458.96,-36.5 437,-29 427.28,-25.68 416.62,-22.4 406.81,-19.52"/>
<polygon fill="midnightblue" stroke="midnightblue" points="500.88,-56.85 511.46,-57.38 503.51,-50.37 500.88,-56.85"/>
</g>
<!-- Node4 -->
<g id="node4" class="node">
<title>Node4</title>
<g id="a_node4"><a xlink:href="classServerManager.html#a9c75ea0bd268425c187ef25770eccbe8" target="_top" xlink:title=" ">
<polygon fill="white" stroke="black" points="138,-71 138,-101 270,-101 270,-71 138,-71"/>
<text text-anchor="start" x="146" y="-89" font-family="Helvetica,sans-Serif" font-size="10.00">ServerManager::handleCgi</text>
<text text-anchor="middle" x="204" y="-78" font-family="Helvetica,sans-Serif" font-size="10.00">PipeEvent</text>
</a>
</g>
</g>
<!-- Node3&#45;&gt;Node4 -->
<g id="edge3" class="edge">
<title>Node3&#45;&gt;Node4</title>
<path fill="none" stroke="midnightblue" d="M305.75,-86C294.09,-86 281.92,-86 270.24,-86"/>
<polygon fill="midnightblue" stroke="midnightblue" points="305.85,-89.5 315.85,-86 305.85,-82.5 305.85,-89.5"/>
</g>
<!-- Node5 -->
<g id="node5" class="node">
<title>Node5</title>
<g id="a_node5"><a xlink:href="classServerManager.html#aecc313c9b6afcab92c22269b3333c721" target="_top" xlink:title=" ">
<polygon fill="white" stroke="black" points="0,-76.5 0,-95.5 102,-95.5 102,-76.5 0,-76.5"/>
<text text-anchor="middle" x="51" y="-83.5" font-family="Helvetica,sans-Serif" font-size="10.00">ServerManager::run</text>
</a>
</g>
</g>
<!-- Node4&#45;&gt;Node5 -->
<g id="edge4" class="edge">
<title>Node4&#45;&gt;Node5</title>
<path fill="none" stroke="midnightblue" d="M127.64,-86C119.09,-86 110.54,-86 102.43,-86"/>
<polygon fill="midnightblue" stroke="midnightblue" points="127.65,-89.5 137.65,-86 127.65,-82.5 127.65,-89.5"/>
</g>
</g>
</svg>
