<?xml version="1.0" encoding="UTF-8" standalone="no"?>
<!DOCTYPE svg PUBLIC "-//W3C//DTD SVG 1.1//EN"
 "http://www.w3.org/Graphics/SVG/1.1/DTD/svg11.dtd">
<!-- Generated by graphviz version 2.43.0 (0)
 -->
<!-- Title: TcpListener::TcpListener Pages: 1 -->
<svg width="456pt" height="104pt"
 viewBox="0.00 0.00 456.00 104.00" xmlns="http://www.w3.org/2000/svg" xmlns:xlink="http://www.w3.org/1999/xlink">
<g id="graph0" class="graph" transform="scale(1 1) rotate(0) translate(4 100)">
<title>TcpListener::TcpListener</title>
<polygon fill="white" stroke="transparent" points="-4,4 -4,-100 452,-100 452,4 -4,4"/>
<!-- Node1 -->
<g id="node1" class="node">
<title>Node1</title>
<g id="a_node1"><a xlink:title=" ">
<polygon fill="#bfbfbf" stroke="black" points="0,-38.5 0,-57.5 122,-57.5 122,-38.5 0,-38.5"/>
<text text-anchor="middle" x="61" y="-45.5" font-family="Helvetica,sans-Serif" font-size="10.00">TcpListener::TcpListener</text>
</a>
</g>
</g>
<!-- Node2 -->
<g id="node2" class="node">
<title>Node2</title>
<g id="a_node2"><a xlink:href="classTcpListener.html#ab9df83892cd21ec97627bcdec8b5eba6" target="_top" xlink:title=" ">
<polygon fill="white" stroke="black" points="172.5,-76.5 172.5,-95.5 293.5,-95.5 293.5,-76.5 172.5,-76.5"/>
<text text-anchor="middle" x="233" y="-83.5" font-family="Helvetica,sans-Serif" font-size="10.00">TcpListener::bindSocket</text>
</a>
</g>
</g>
<!-- Node1&#45;&gt;Node2 -->
<g id="edge1" class="edge">
<title>Node1&#45;&gt;Node2</title>
<path fill="none" stroke="midnightblue" d="M104.9,-57.59C127.53,-62.65 155.5,-68.9 179.43,-74.25"/>
<polygon fill="midnightblue" stroke="midnightblue" points="178.89,-77.71 189.41,-76.48 180.41,-70.88 178.89,-77.71"/>
</g>
<!-- Node4 -->
<g id="node4" class="node">
<title>Node4</title>
<g id="a_node4"><a xlink:href="classTcpListener.html#ad4411df41b572163c161a07ebb298dec" target="_top" xlink:title=" ">
<polygon fill="white" stroke="black" points="168,-38.5 168,-57.5 298,-57.5 298,-38.5 168,-38.5"/>
<text text-anchor="middle" x="233" y="-45.5" font-family="Helvetica,sans-Serif" font-size="10.00">TcpListener::createSocket</text>
</a>
</g>
</g>
<!-- Node1&#45;&gt;Node4 -->
<g id="edge3" class="edge">
<title>Node1&#45;&gt;Node4</title>
<path fill="none" stroke="midnightblue" d="M122.41,-48C133.78,-48 145.79,-48 157.53,-48"/>
<polygon fill="midnightblue" stroke="midnightblue" points="157.75,-51.5 167.75,-48 157.75,-44.5 157.75,-51.5"/>
</g>
<!-- Node5 -->
<g id="node5" class="node">
<title>Node5</title>
<g id="a_node5"><a xlink:href="classTcpListener.html#a9d157b2c9038e3e606468cf28ebf243d" target="_top" xlink:title=" ">
<polygon fill="white" stroke="black" points="158,-0.5 158,-19.5 308,-19.5 308,-0.5 158,-0.5"/>
<text text-anchor="middle" x="233" y="-7.5" font-family="Helvetica,sans-Serif" font-size="10.00">TcpListener::setSocketOptions</text>
</a>
</g>
</g>
<!-- Node1&#45;&gt;Node5 -->
<g id="edge4" class="edge">
<title>Node1&#45;&gt;Node5</title>
<path fill="none" stroke="midnightblue" d="M104.9,-38.41C127.53,-33.35 155.5,-27.1 179.43,-21.75"/>
<polygon fill="midnightblue" stroke="midnightblue" points="180.41,-25.12 189.41,-19.52 178.89,-18.29 180.41,-25.12"/>
</g>
<!-- Node3 -->
<g id="node3" class="node">
<title>Node3</title>
<g id="a_node3"><a xlink:href="namespacestring__utils.html#a726a4fc79947f870bb53799012717287" target="_top" xlink:title=" ">
<polygon fill="white" stroke="black" points="344,-76.5 344,-95.5 448,-95.5 448,-76.5 344,-76.5"/>
<text text-anchor="middle" x="396" y="-83.5" font-family="Helvetica,sans-Serif" font-size="10.00">string_utils::toString</text>
</a>
</g>
</g>
<!-- Node2&#45;&gt;Node3 -->
<g id="edge2" class="edge">
<title>Node2&#45;&gt;Node3</title>
<path fill="none" stroke="midnightblue" d="M293.95,-86C306.93,-86 320.67,-86 333.71,-86"/>
<polygon fill="midnightblue" stroke="midnightblue" points="333.98,-89.5 343.98,-86 333.98,-82.5 333.98,-89.5"/>
</g>
</g>
</svg>
