<?xml version="1.0" encoding="UTF-8" standalone="no"?>
<!DOCTYPE svg PUBLIC "-//W3C//DTD SVG 1.1//EN"
 "http://www.w3.org/Graphics/SVG/1.1/DTD/svg11.dtd">
<!-- Generated by graphviz version 2.43.0 (0)
 -->
<!-- Title: HttpParser::HttpParser Pages: 1 -->
<svg width="388pt" height="28pt"
 viewBox="0.00 0.00 388.00 28.00" xmlns="http://www.w3.org/2000/svg" xmlns:xlink="http://www.w3.org/1999/xlink">
<g id="graph0" class="graph" transform="scale(1 1) rotate(0) translate(4 24)">
<title>HttpParser::HttpParser</title>
<polygon fill="white" stroke="transparent" points="-4,4 -4,-24 384,-24 384,4 -4,4"/>
<!-- Node1 -->
<g id="node1" class="node">
<title>Node1</title>
<g id="a_node1"><a xlink:title=" ">
<polygon fill="#bfbfbf" stroke="black" points="0,-0.5 0,-19.5 117,-19.5 117,-0.5 0,-0.5"/>
<text text-anchor="middle" x="58.5" y="-7.5" font-family="Helvetica,sans-Serif" font-size="10.00">HttpParser::HttpParser</text>
</a>
</g>
</g>
<!-- Node2 -->
<g id="node2" class="node">
<title>Node2</title>
<g id="a_node2"><a xlink:href="classHttpParser.html#aef14a43b25083b06fe9a8df3f5f4fbc1" target="_top" xlink:title=" ">
<polygon fill="white" stroke="black" points="153,-0.5 153,-19.5 245,-19.5 245,-0.5 153,-0.5"/>
<text text-anchor="middle" x="199" y="-7.5" font-family="Helvetica,sans-Serif" font-size="10.00">HttpParser::reset</text>
</a>
</g>
</g>
<!-- Node1&#45;&gt;Node2 -->
<g id="edge1" class="edge">
<title>Node1&#45;&gt;Node2</title>
<path fill="none" stroke="midnightblue" d="M117.03,-10C125.49,-10 134.18,-10 142.59,-10"/>
<polygon fill="midnightblue" stroke="midnightblue" points="142.67,-13.5 152.67,-10 142.67,-6.5 142.67,-13.5"/>
</g>
<!-- Node3 -->
<g id="node3" class="node">
<title>Node3</title>
<g id="a_node3"><a xlink:href="classHttpRequest.html#a9d57f247d13a2040a6f04e886125e384" target="_top" xlink:title="Limpia el request porque se puede reutilizar el objeto para otra petición y se debe limpiar el estado...">
<polygon fill="white" stroke="black" points="281,-0.5 281,-19.5 380,-19.5 380,-0.5 281,-0.5"/>
<text text-anchor="middle" x="330.5" y="-7.5" font-family="Helvetica,sans-Serif" font-size="10.00">HttpRequest::clear</text>
</a>
</g>
</g>
<!-- Node2&#45;&gt;Node3 -->
<g id="edge2" class="edge">
<title>Node2&#45;&gt;Node3</title>
<path fill="none" stroke="midnightblue" d="M245.29,-10C253.49,-10 262.14,-10 270.65,-10"/>
<polygon fill="midnightblue" stroke="midnightblue" points="270.93,-13.5 280.93,-10 270.93,-6.5 270.93,-13.5"/>
</g>
</g>
</svg>
