<?xml version="1.0" encoding="UTF-8" standalone="no"?>
<!DOCTYPE svg PUBLIC "-//W3C//DTD SVG 1.1//EN"
 "http://www.w3.org/Graphics/SVG/1.1/DTD/svg11.dtd">
<!-- Generated by graphviz version 2.43.0 (0)
 -->
<!-- Title: ConfigParser::preprocessConfigFile Pages: 1 -->
<svg width="325pt" height="116pt"
 viewBox="0.00 0.00 325.00 115.50" xmlns="http://www.w3.org/2000/svg" xmlns:xlink="http://www.w3.org/1999/xlink">
<g id="graph0" class="graph" transform="scale(1 1) rotate(0) translate(4 111.5)">
<title>ConfigParser::preprocessConfigFile</title>
<polygon fill="white" stroke="transparent" points="-4,4 -4,-111.5 321,-111.5 321,4 -4,4"/>
<!-- Node1 -->
<g id="node1" class="node">
<title>Node1</title>
<g id="a_node1"><a xlink:title=" ">
<polygon fill="#bfbfbf" stroke="black" points="0,-33 0,-63 128,-63 128,-33 0,-33"/>
<text text-anchor="start" x="8" y="-51" font-family="Helvetica,sans-Serif" font-size="10.00">ConfigParser::preprocess</text>
<text text-anchor="middle" x="64" y="-40" font-family="Helvetica,sans-Serif" font-size="10.00">ConfigFile</text>
</a>
</g>
</g>
<!-- Node2 -->
<g id="node2" class="node">
<title>Node2</title>
<g id="a_node2"><a xlink:href="namespaceconfig_1_1utils.html#a5f6d2ab6b54f2e435ef546fd3284ea45" target="_top" xlink:title="Replaces multiple whitespace characters with a single space.">
<polygon fill="white" stroke="black" points="183,-77 183,-107 298,-107 298,-77 183,-77"/>
<text text-anchor="start" x="191" y="-95" font-family="Helvetica,sans-Serif" font-size="10.00">config::utils::normalize</text>
<text text-anchor="middle" x="240.5" y="-84" font-family="Helvetica,sans-Serif" font-size="10.00">Spaces</text>
</a>
</g>
</g>
<!-- Node1&#45;&gt;Node2 -->
<g id="edge1" class="edge">
<title>Node1&#45;&gt;Node2</title>
<path fill="none" stroke="midnightblue" d="M124.56,-63.02C140.18,-66.96 157.12,-71.23 173.07,-75.25"/>
<polygon fill="midnightblue" stroke="midnightblue" points="172.3,-78.67 182.85,-77.72 174.01,-71.88 172.3,-78.67"/>
</g>
<!-- Node3 -->
<g id="node3" class="node">
<title>Node3</title>
<g id="a_node3"><a xlink:href="namespaceconfig_1_1utils.html#a77805f5da50849772ca4cd5746492435" target="_top" xlink:title="Removes comments (starting with #) from a line.">
<polygon fill="white" stroke="black" points="164,-38.5 164,-57.5 317,-57.5 317,-38.5 164,-38.5"/>
<text text-anchor="middle" x="240.5" y="-45.5" font-family="Helvetica,sans-Serif" font-size="10.00">config::utils::removeComments</text>
</a>
</g>
</g>
<!-- Node1&#45;&gt;Node3 -->
<g id="edge2" class="edge">
<title>Node1&#45;&gt;Node3</title>
<path fill="none" stroke="midnightblue" d="M128.49,-48C136.76,-48 145.33,-48 153.88,-48"/>
<polygon fill="midnightblue" stroke="midnightblue" points="153.89,-51.5 163.89,-48 153.89,-44.5 153.89,-51.5"/>
</g>
<!-- Node4 -->
<g id="node4" class="node">
<title>Node4</title>
<g id="a_node4"><a xlink:href="namespaceconfig_1_1utils.html#a03d47ec69fc7beb981a8635fae2f6f49" target="_top" xlink:title="Trims leading and trailing whitespace from a line.">
<polygon fill="white" stroke="black" points="187,-0.5 187,-19.5 294,-19.5 294,-0.5 187,-0.5"/>
<text text-anchor="middle" x="240.5" y="-7.5" font-family="Helvetica,sans-Serif" font-size="10.00">config::utils::trimLine</text>
</a>
</g>
</g>
<!-- Node1&#45;&gt;Node4 -->
<g id="edge3" class="edge">
<title>Node1&#45;&gt;Node4</title>
<path fill="none" stroke="midnightblue" d="M128.49,-34.17C147.32,-30.07 167.75,-25.63 185.89,-21.68"/>
<polygon fill="midnightblue" stroke="midnightblue" points="186.67,-25.09 195.7,-19.54 185.19,-18.25 186.67,-25.09"/>
</g>
</g>
</svg>
