<?xml version="1.0" encoding="UTF-8" standalone="no"?>
<!DOCTYPE svg PUBLIC "-//W3C//DTD SVG 1.1//EN"
 "http://www.w3.org/Graphics/SVG/1.1/DTD/svg11.dtd">
<!-- Generated by graphviz version 2.43.0 (0)
 -->
<!-- Title: ServerManager::run Pages: 1 -->
<svg width="1396pt" height="935pt"
 viewBox="0.00 0.00 1396.00 934.56" xmlns="http://www.w3.org/2000/svg" xmlns:xlink="http://www.w3.org/1999/xlink">
<g id="graph0" class="graph" transform="scale(1 1) rotate(0) translate(4 930.56)">
<title>ServerManager::run</title>
<polygon fill="white" stroke="transparent" points="-4,4 -4,-930.56 1392,-930.56 1392,4 -4,4"/>
<!-- Node1 -->
<g id="node1" class="node">
<title>Node1</title>
<g id="a_node1"><a xlink:title=" ">
<polygon fill="#bfbfbf" stroke="black" points="0,-171.5 0,-190.5 102,-190.5 102,-171.5 0,-171.5"/>
<text text-anchor="middle" x="51" y="-178.5" font-family="Helvetica,sans-Serif" font-size="10.00">ServerManager::run</text>
</a>
</g>
</g>
<!-- Node2 -->
<g id="node2" class="node">
<title>Node2</title>
<g id="a_node2"><a xlink:href="classServerManager.html#afc55d5553173781d24690df769dc8c62" target="_top" xlink:title=" ">
<polygon fill="white" stroke="black" points="138,-427.5 138,-446.5 293,-446.5 293,-427.5 138,-427.5"/>
<text text-anchor="middle" x="215.5" y="-434.5" font-family="Helvetica,sans-Serif" font-size="10.00">ServerManager::checkTimeouts</text>
</a>
</g>
</g>
<!-- Node1&#45;&gt;Node2 -->
<g id="edge1" class="edge">
<title>Node1&#45;&gt;Node2</title>
<path fill="none" stroke="midnightblue" d="M53.29,-190.56C58.2,-223.57 78.56,-334.27 138,-399 147.77,-409.64 161.17,-417.68 174.03,-423.56"/>
<polygon fill="midnightblue" stroke="midnightblue" points="172.67,-426.79 183.24,-427.47 175.4,-420.34 172.67,-426.79"/>
</g>
<!-- Node8 -->
<g id="node8" class="node">
<title>Node8</title>
<g id="a_node8"><a xlink:href="classServerManager.html#a9c75ea0bd268425c187ef25770eccbe8" target="_top" xlink:title=" ">
<polygon fill="white" stroke="black" points="149.5,-359 149.5,-389 281.5,-389 281.5,-359 149.5,-359"/>
<text text-anchor="start" x="157.5" y="-377" font-family="Helvetica,sans-Serif" font-size="10.00">ServerManager::handleCgi</text>
<text text-anchor="middle" x="215.5" y="-366" font-family="Helvetica,sans-Serif" font-size="10.00">PipeEvent</text>
</a>
</g>
</g>
<!-- Node1&#45;&gt;Node8 -->
<g id="edge7" class="edge">
<title>Node1&#45;&gt;Node8</title>
<path fill="none" stroke="midnightblue" d="M60.06,-190.57C84.67,-219.81 159.37,-308.53 195.08,-350.94"/>
<polygon fill="midnightblue" stroke="midnightblue" points="192.56,-353.38 201.68,-358.77 197.92,-348.87 192.56,-353.38"/>
</g>
<!-- Node51 -->
<g id="node34" class="node">
<title>Node51</title>
<g id="a_node34"><a xlink:href="classServerManager.html#a9f3ca46da9df004286f90902b8daf29d" target="_top" xlink:title=" ">
<polygon fill="white" stroke="black" points="144,-223 144,-253 287,-253 287,-223 144,-223"/>
<text text-anchor="start" x="152" y="-241" font-family="Helvetica,sans-Serif" font-size="10.00">ServerManager::handleClient</text>
<text text-anchor="middle" x="215.5" y="-230" font-family="Helvetica,sans-Serif" font-size="10.00">Event</text>
</a>
</g>
</g>
<!-- Node1&#45;&gt;Node51 -->
<g id="edge38" class="edge">
<title>Node1&#45;&gt;Node51</title>
<path fill="none" stroke="midnightblue" d="M79.2,-190.54C101.75,-198.45 134.46,-209.93 162.07,-219.61"/>
<polygon fill="midnightblue" stroke="midnightblue" points="161.01,-222.95 171.6,-222.95 163.33,-216.34 161.01,-222.95"/>
</g>
<!-- Node130 -->
<g id="node44" class="node">
<title>Node130</title>
<g id="a_node44"><a xlink:href="classServerManager.html#a1d57002b5b7a92044b9fd57396407975" target="_top" xlink:title=" ">
<polygon fill="white" stroke="black" points="147,-109 147,-139 284,-139 284,-109 147,-109"/>
<text text-anchor="start" x="155" y="-127" font-family="Helvetica,sans-Serif" font-size="10.00">ServerManager::handleNew</text>
<text text-anchor="middle" x="215.5" y="-116" font-family="Helvetica,sans-Serif" font-size="10.00">Connection</text>
</a>
</g>
</g>
<!-- Node1&#45;&gt;Node130 -->
<g id="edge61" class="edge">
<title>Node1&#45;&gt;Node130</title>
<path fill="none" stroke="midnightblue" d="M79.2,-171.46C101.75,-163.55 134.46,-152.07 162.07,-142.39"/>
<polygon fill="midnightblue" stroke="midnightblue" points="163.33,-145.66 171.6,-139.05 161.01,-139.05 163.33,-145.66"/>
</g>
<!-- Node134 -->
<g id="node49" class="node">
<title>Node134</title>
<g id="a_node49"><a xlink:href="classServerManager.html#a2d46c0b956c896a01876ae77dbcbb8c4" target="_top" xlink:title=" ">
<polygon fill="white" stroke="black" points="144,-70.5 144,-89.5 287,-89.5 287,-70.5 144,-70.5"/>
<text text-anchor="middle" x="215.5" y="-77.5" font-family="Helvetica,sans-Serif" font-size="10.00">ServerManager::reapChildren</text>
</a>
</g>
</g>
<!-- Node1&#45;&gt;Node134 -->
<g id="edge66" class="edge">
<title>Node1&#45;&gt;Node134</title>
<path fill="none" stroke="midnightblue" d="M59.4,-171.39C73.05,-154.35 103.91,-118.87 138,-100 142.88,-97.3 148.14,-94.95 153.53,-92.91"/>
<polygon fill="midnightblue" stroke="midnightblue" points="154.99,-96.11 163.33,-89.57 152.73,-89.49 154.99,-96.11"/>
</g>
<!-- Node135 -->
<g id="node50" class="node">
<title>Node135</title>
<g id="a_node50"><a xlink:href="classEpollWrapper.html#ac897bb46d0d23423f880ca4be2c41c1c" target="_top" xlink:title=" ">
<polygon fill="white" stroke="black" points="166.5,-32.5 166.5,-51.5 264.5,-51.5 264.5,-32.5 166.5,-32.5"/>
<text text-anchor="middle" x="215.5" y="-39.5" font-family="Helvetica,sans-Serif" font-size="10.00">EpollWrapper::wait</text>
</a>
</g>
</g>
<!-- Node1&#45;&gt;Node135 -->
<g id="edge67" class="edge">
<title>Node1&#45;&gt;Node135</title>
<path fill="none" stroke="midnightblue" d="M56,-171.46C66.1,-148.55 94.95,-90.22 138,-61 143.63,-57.18 149.96,-54.13 156.5,-51.69"/>
<polygon fill="midnightblue" stroke="midnightblue" points="157.76,-54.96 166.19,-48.53 155.59,-48.3 157.76,-54.96"/>
</g>
<!-- Node3 -->
<g id="node3" class="node">
<title>Node3</title>
<g id="a_node3"><a xlink:href="classServerManager.html#afb4bca18fdb86e6e628cdbb8949c6d94" target="_top" xlink:title=" ">
<polygon fill="white" stroke="black" points="333,-471 333,-501 476,-501 476,-471 333,-471"/>
<text text-anchor="start" x="341" y="-489" font-family="Helvetica,sans-Serif" font-size="10.00">ServerManager::handleClient</text>
<text text-anchor="middle" x="404.5" y="-478" font-family="Helvetica,sans-Serif" font-size="10.00">Disconnect</text>
</a>
</g>
</g>
<!-- Node2&#45;&gt;Node3 -->
<g id="edge2" class="edge">
<title>Node2&#45;&gt;Node3</title>
<path fill="none" stroke="midnightblue" d="M253,-446.56C276.67,-452.77 308.23,-461.04 336.34,-468.4"/>
<polygon fill="midnightblue" stroke="midnightblue" points="335.55,-471.81 346.11,-470.96 337.33,-465.04 335.55,-471.81"/>
</g>
<!-- Node5 -->
<g id="node5" class="node">
<title>Node5</title>
<g id="a_node5"><a xlink:href="classServerManager.html#a8f841c3a98b9b1b2fd9e43320b2d924d" target="_top" xlink:title=" ">
<polygon fill="white" stroke="black" points="333,-422 333,-452 476,-452 476,-422 333,-422"/>
<text text-anchor="start" x="341" y="-440" font-family="Helvetica,sans-Serif" font-size="10.00">ServerManager::updateClient</text>
<text text-anchor="middle" x="404.5" y="-429" font-family="Helvetica,sans-Serif" font-size="10.00">Events</text>
</a>
</g>
</g>
<!-- Node2&#45;&gt;Node5 -->
<g id="edge4" class="edge">
<title>Node2&#45;&gt;Node5</title>
<path fill="none" stroke="midnightblue" d="M293.1,-437C302.83,-437 312.82,-437 322.61,-437"/>
<polygon fill="midnightblue" stroke="midnightblue" points="322.73,-440.5 332.73,-437 322.73,-433.5 322.73,-440.5"/>
</g>
<!-- Node4 -->
<g id="node4" class="node">
<title>Node4</title>
<g id="a_node4"><a xlink:href="classEpollWrapper.html#a9f0b3f139a516df121fa05a910ae0c06" target="_top" xlink:title=" ">
<polygon fill="white" stroke="black" points="894.5,-888.5 894.5,-907.5 1018.5,-907.5 1018.5,-888.5 894.5,-888.5"/>
<text text-anchor="middle" x="956.5" y="-895.5" font-family="Helvetica,sans-Serif" font-size="10.00">EpollWrapper::removeFd</text>
</a>
</g>
</g>
<!-- Node3&#45;&gt;Node4 -->
<g id="edge3" class="edge">
<title>Node3&#45;&gt;Node4</title>
<path fill="none" stroke="midnightblue" d="M409.7,-501.21C428.17,-564.76 508.87,-810.08 677,-901 752.63,-941.9 857.57,-924.53 914.61,-910.11"/>
<polygon fill="midnightblue" stroke="midnightblue" points="915.56,-913.48 924.35,-907.56 913.79,-906.71 915.56,-913.48"/>
</g>
<!-- Node6 -->
<g id="node6" class="node">
<title>Node6</title>
<g id="a_node6"><a xlink:href="classEpollWrapper.html#a65587fd636ef10c5f41f1f15a292d8d6" target="_top" xlink:title=" ">
<polygon fill="white" stroke="black" points="523.5,-525.5 523.5,-544.5 633.5,-544.5 633.5,-525.5 523.5,-525.5"/>
<text text-anchor="middle" x="578.5" y="-532.5" font-family="Helvetica,sans-Serif" font-size="10.00">EpollWrapper::modFd</text>
</a>
</g>
</g>
<!-- Node5&#45;&gt;Node6 -->
<g id="edge5" class="edge">
<title>Node5&#45;&gt;Node6</title>
<path fill="none" stroke="midnightblue" d="M463.59,-452.17C469.42,-454.93 475.02,-458.19 480,-462 502.91,-479.53 492.89,-498.75 516,-516 518.52,-517.88 521.22,-519.57 524.04,-521.1"/>
<polygon fill="midnightblue" stroke="midnightblue" points="522.82,-524.39 533.36,-525.44 525.77,-518.05 522.82,-524.39"/>
</g>
<!-- Node7 -->
<g id="node7" class="node">
<title>Node7</title>
<g id="a_node7"><a xlink:href="classClient.html#a0896e7f6670bf45187b0754d8fa73e92" target="_top" xlink:title=" ">
<polygon fill="white" stroke="black" points="530,-563.5 530,-582.5 627,-582.5 627,-563.5 530,-563.5"/>
<text text-anchor="middle" x="578.5" y="-570.5" font-family="Helvetica,sans-Serif" font-size="10.00">Client::needsWrite</text>
</a>
</g>
</g>
<!-- Node5&#45;&gt;Node7 -->
<g id="edge6" class="edge">
<title>Node5&#45;&gt;Node7</title>
<path fill="none" stroke="midnightblue" d="M466.31,-452.12C471.28,-454.88 475.95,-458.14 480,-462 511.8,-492.27 483.83,-524.11 516,-554 517.7,-555.58 519.52,-557.02 521.44,-558.35"/>
<polygon fill="midnightblue" stroke="midnightblue" points="519.96,-561.53 530.38,-563.42 523.41,-555.44 519.96,-561.53"/>
</g>
<!-- Node8&#45;&gt;Node5 -->
<g id="edge37" class="edge">
<title>Node8&#45;&gt;Node5</title>
<path fill="none" stroke="midnightblue" d="M261.29,-389.09C287.68,-397.98 321.25,-409.29 349.14,-418.69"/>
<polygon fill="midnightblue" stroke="midnightblue" points="348.16,-422.05 358.75,-421.92 350.39,-415.41 348.16,-422.05"/>
</g>
<!-- Node9 -->
<g id="node9" class="node">
<title>Node9</title>
<g id="a_node9"><a xlink:href="classClient.html#af49b65f16ec709c6421a67107aadbd6e" target="_top" xlink:title=" ">
<polygon fill="white" stroke="black" points="368,-345.5 368,-364.5 441,-364.5 441,-345.5 368,-345.5"/>
<text text-anchor="middle" x="404.5" y="-352.5" font-family="Helvetica,sans-Serif" font-size="10.00">Client::getFd</text>
</a>
</g>
</g>
<!-- Node8&#45;&gt;Node9 -->
<g id="edge8" class="edge">
<title>Node8&#45;&gt;Node9</title>
<path fill="none" stroke="midnightblue" d="M281.64,-367.38C306.78,-364.83 334.94,-361.97 357.85,-359.64"/>
<polygon fill="midnightblue" stroke="midnightblue" points="358.38,-363.1 367.97,-358.61 357.67,-356.14 358.38,-363.1"/>
</g>
<!-- Node10 -->
<g id="node10" class="node">
<title>Node10</title>
<g id="a_node10"><a xlink:href="classClient.html#a4104efd3f5f7e1c0f3e3302b46861624" target="_top" xlink:title=" ">
<polygon fill="white" stroke="black" points="523,-487.5 523,-506.5 634,-506.5 634,-487.5 523,-487.5"/>
<text text-anchor="middle" x="578.5" y="-494.5" font-family="Helvetica,sans-Serif" font-size="10.00">Client::handleCgiPipe</text>
</a>
</g>
</g>
<!-- Node8&#45;&gt;Node10 -->
<g id="edge9" class="edge">
<title>Node8&#45;&gt;Node10</title>
<path fill="none" stroke="midnightblue" d="M281.62,-373.66C336.77,-375.66 416.71,-384.05 480,-413 514.13,-428.62 545.46,-459.91 562.96,-479.58"/>
<polygon fill="midnightblue" stroke="midnightblue" points="560.39,-481.96 569.58,-487.22 565.67,-477.37 560.39,-481.96"/>
</g>
<!-- Node11 -->
<g id="node11" class="node">
<title>Node11</title>
<g id="a_node11"><a xlink:href="classCgiProcess.html#ad8787ed1a27face64263e4472da6c22f" target="_top" xlink:title=" ">
<polygon fill="white" stroke="black" points="683,-621 683,-651 841,-651 841,-621 683,-621"/>
<text text-anchor="start" x="691" y="-639" font-family="Helvetica,sans-Serif" font-size="10.00">CgiProcess::advanceBodyBytes</text>
<text text-anchor="middle" x="762" y="-628" font-family="Helvetica,sans-Serif" font-size="10.00">Written</text>
</a>
</g>
</g>
<!-- Node10&#45;&gt;Node11 -->
<g id="edge10" class="edge">
<title>Node10&#45;&gt;Node11</title>
<path fill="none" stroke="midnightblue" d="M626.66,-506.53C631.91,-509 636.85,-512.1 641,-516 673.91,-546.91 643.93,-580.26 677,-611 678.68,-612.56 680.44,-614.02 682.29,-615.39"/>
<polygon fill="midnightblue" stroke="midnightblue" points="680.5,-618.4 690.81,-620.83 684.27,-612.5 680.5,-618.4"/>
</g>
<!-- Node12 -->
<g id="node12" class="node">
<title>Node12</title>
<g id="a_node12"><a xlink:href="classCgiProcess.html#a4bbe5516678af6ae632bdd1ae4c61300" target="_top" xlink:title=" ">
<polygon fill="white" stroke="black" points="677,-582.5 677,-601.5 847,-601.5 847,-582.5 677,-582.5"/>
<text text-anchor="middle" x="762" y="-589.5" font-family="Helvetica,sans-Serif" font-size="10.00">CgiProcess::appendResponseData</text>
</a>
</g>
</g>
<!-- Node10&#45;&gt;Node12 -->
<g id="edge11" class="edge">
<title>Node10&#45;&gt;Node12</title>
<path fill="none" stroke="midnightblue" d="M624.04,-506.57C630.09,-509.04 635.94,-512.13 641,-516 664.79,-534.22 652.53,-555.71 677,-573 679.75,-574.94 682.66,-576.69 685.69,-578.26"/>
<polygon fill="midnightblue" stroke="midnightblue" points="684.52,-581.57 695.07,-582.47 687.38,-575.18 684.52,-581.57"/>
</g>
<!-- Node14 -->
<g id="node14" class="node">
<title>Node14</title>
<g id="a_node14"><a xlink:href="ErrorUtils_8cpp.html#a470416220aa911b8f1274140a8322e7a" target="_top" xlink:title=" ">
<polygon fill="white" stroke="red" points="711,-544.5 711,-563.5 813,-563.5 813,-544.5 711,-544.5"/>
<text text-anchor="middle" x="762" y="-551.5" font-family="Helvetica,sans-Serif" font-size="10.00">buildErrorResponse</text>
</a>
</g>
</g>
<!-- Node10&#45;&gt;Node14 -->
<g id="edge13" class="edge">
<title>Node10&#45;&gt;Node14</title>
<path fill="none" stroke="midnightblue" d="M611.88,-506.53C621.31,-509.43 631.61,-512.73 641,-516 657.21,-521.65 660.73,-524.52 677,-530 689.25,-534.12 702.65,-538.16 715.08,-541.71"/>
<polygon fill="midnightblue" stroke="midnightblue" points="714.23,-545.11 724.8,-544.45 716.13,-538.37 714.23,-545.11"/>
</g>
<!-- Node36 -->
<g id="node20" class="node">
<title>Node36</title>
<g id="a_node20"><a xlink:href="classHttpResponse.html#aec25ec31bb3c0a22af07fe82b0a35a79" target="_top" xlink:title=" ">
<polygon fill="white" stroke="red" points="708.5,-228.5 708.5,-247.5 815.5,-247.5 815.5,-228.5 708.5,-228.5"/>
<text text-anchor="middle" x="762" y="-235.5" font-family="Helvetica,sans-Serif" font-size="10.00">HttpResponse::clear</text>
</a>
</g>
</g>
<!-- Node10&#45;&gt;Node36 -->
<g id="edge22" class="edge">
<title>Node10&#45;&gt;Node36</title>
<path fill="none" stroke="midnightblue" d="M580.56,-487.24C584.96,-451.43 605.11,-326.06 677,-262 683.35,-256.34 690.94,-252.01 698.94,-248.7"/>
<polygon fill="midnightblue" stroke="midnightblue" points="700.24,-251.95 708.45,-245.26 697.86,-245.37 700.24,-251.95"/>
</g>
<!-- Node37 -->
<g id="node21" class="node">
<title>Node37</title>
<g id="a_node21"><a xlink:href="classCgiProcess.html#add9aed231ffcbe29556d82f6e5c0b097" target="_top" xlink:title=" ">
<polygon fill="white" stroke="black" points="699.5,-430.5 699.5,-449.5 824.5,-449.5 824.5,-430.5 699.5,-430.5"/>
<text text-anchor="middle" x="762" y="-437.5" font-family="Helvetica,sans-Serif" font-size="10.00">CgiProcess::closePipeIn</text>
</a>
</g>
</g>
<!-- Node10&#45;&gt;Node37 -->
<g id="edge23" class="edge">
<title>Node10&#45;&gt;Node37</title>
<path fill="none" stroke="midnightblue" d="M606.7,-487.4C626.2,-480.62 653.12,-471.45 677,-464 689.68,-460.04 703.52,-455.99 716.24,-452.36"/>
<polygon fill="midnightblue" stroke="midnightblue" points="717.48,-455.64 726.15,-449.55 715.57,-448.91 717.48,-455.64"/>
</g>
<!-- Node38 -->
<g id="node22" class="node">
<title>Node38</title>
<g id="a_node22"><a xlink:href="classCgiProcess.html#a496d052cdbc077e1b3e5877272180204" target="_top" xlink:title=" ">
<polygon fill="white" stroke="black" points="696,-392.5 696,-411.5 828,-411.5 828,-392.5 696,-392.5"/>
<text text-anchor="middle" x="762" y="-399.5" font-family="Helvetica,sans-Serif" font-size="10.00">CgiProcess::closePipeOut</text>
</a>
</g>
</g>
<!-- Node10&#45;&gt;Node38 -->
<g id="edge24" class="edge">
<title>Node10&#45;&gt;Node38</title>
<path fill="none" stroke="midnightblue" d="M588.76,-487.42C605.04,-471.16 640.53,-438.27 677,-421 682.19,-418.54 687.72,-416.39 693.37,-414.51"/>
<polygon fill="midnightblue" stroke="midnightblue" points="694.39,-417.86 702.94,-411.61 692.35,-411.16 694.39,-417.86"/>
</g>
<!-- Node39 -->
<g id="node23" class="node">
<title>Node39</title>
<g id="a_node23"><a xlink:href="classClient.html#a464a0e4f76c7943eadf2f7f4ae28b1c6" target="_top" xlink:title=" ">
<polygon fill="white" stroke="black" points="892,-171.5 892,-190.5 1021,-190.5 1021,-171.5 892,-171.5"/>
<text text-anchor="middle" x="956.5" y="-178.5" font-family="Helvetica,sans-Serif" font-size="10.00">Client::enqueueResponse</text>
</a>
</g>
</g>
<!-- Node10&#45;&gt;Node39 -->
<g id="edge25" class="edge">
<title>Node10&#45;&gt;Node39</title>
<path fill="none" stroke="midnightblue" d="M581.18,-487.18C587.33,-454.41 611.76,-347.93 677,-296 737.65,-247.72 783.75,-301.82 847,-257 871.45,-239.68 858.82,-217.7 883,-200 885.54,-198.14 888.25,-196.46 891.08,-194.94"/>
<polygon fill="midnightblue" stroke="midnightblue" points="892.8,-198.01 900.41,-190.64 889.87,-191.65 892.8,-198.01"/>
</g>
<!-- Node40 -->
<g id="node24" class="node">
<title>Node40</title>
<g id="a_node24"><a xlink:href="classClient.html#af2df05b97f1360f75889756b338a2bba" target="_top" xlink:title=" ">
<polygon fill="white" stroke="black" points="693,-354.5 693,-373.5 831,-373.5 831,-354.5 693,-354.5"/>
<text text-anchor="middle" x="762" y="-361.5" font-family="Helvetica,sans-Serif" font-size="10.00">Client::finalizeCgiResponse</text>
</a>
</g>
</g>
<!-- Node10&#45;&gt;Node40 -->
<g id="edge26" class="edge">
<title>Node10&#45;&gt;Node40</title>
<path fill="none" stroke="midnightblue" d="M584.86,-487.22C597.64,-464.9 632.18,-410.04 677,-383 680.6,-380.83 684.42,-378.9 688.38,-377.2"/>
<polygon fill="midnightblue" stroke="midnightblue" points="689.7,-380.44 697.8,-373.61 687.21,-373.9 689.7,-380.44"/>
</g>
<!-- Node41 -->
<g id="node25" class="node">
<title>Node41</title>
<g id="a_node25"><a xlink:href="classCgiProcess.html#ace8c6a9a364ab916ddd6e0606d4b7473" target="_top" xlink:title=" ">
<polygon fill="white" stroke="black" points="694.5,-305 694.5,-335 829.5,-335 829.5,-305 694.5,-305"/>
<text text-anchor="start" x="702.5" y="-323" font-family="Helvetica,sans-Serif" font-size="10.00">CgiProcess::getBodyBytes</text>
<text text-anchor="middle" x="762" y="-312" font-family="Helvetica,sans-Serif" font-size="10.00">Written</text>
</a>
</g>
</g>
<!-- Node10&#45;&gt;Node41 -->
<g id="edge27" class="edge">
<title>Node10&#45;&gt;Node41</title>
<path fill="none" stroke="midnightblue" d="M582.86,-487.49C592.79,-460.77 624.63,-384.39 677,-345 679.61,-343.03 682.38,-341.22 685.26,-339.55"/>
<polygon fill="midnightblue" stroke="midnightblue" points="686.89,-342.65 694.17,-334.95 683.68,-336.43 686.89,-342.65"/>
</g>
<!-- Node42 -->
<g id="node26" class="node">
<title>Node42</title>
<g id="a_node26"><a xlink:href="classCgiProcess.html#a9716e52b70fda0486a075305bfae19a6" target="_top" xlink:title=" ">
<polygon fill="white" stroke="black" points="704.5,-822.5 704.5,-841.5 819.5,-841.5 819.5,-822.5 704.5,-822.5"/>
<text text-anchor="middle" x="762" y="-829.5" font-family="Helvetica,sans-Serif" font-size="10.00">CgiProcess::getPipeIn</text>
</a>
</g>
</g>
<!-- Node10&#45;&gt;Node42 -->
<g id="edge28" class="edge">
<title>Node10&#45;&gt;Node42</title>
<path fill="none" stroke="midnightblue" d="M629.4,-506.58C633.79,-509.05 637.78,-512.14 641,-516 726.24,-618.05 587.89,-714.32 677,-813 681.96,-818.49 688.14,-822.57 694.89,-825.58"/>
<polygon fill="midnightblue" stroke="midnightblue" points="693.78,-828.9 704.38,-829.05 696.19,-822.33 693.78,-828.9"/>
</g>
<!-- Node43 -->
<g id="node27" class="node">
<title>Node43</title>
<g id="a_node27"><a xlink:href="classCgiProcess.html#ad9430b4680f7ad7316f6df7710e06b3f" target="_top" xlink:title=" ">
<polygon fill="white" stroke="black" points="701,-784.5 701,-803.5 823,-803.5 823,-784.5 701,-784.5"/>
<text text-anchor="middle" x="762" y="-791.5" font-family="Helvetica,sans-Serif" font-size="10.00">CgiProcess::getPipeOut</text>
</a>
</g>
</g>
<!-- Node10&#45;&gt;Node43 -->
<g id="edge29" class="edge">
<title>Node10&#45;&gt;Node43</title>
<path fill="none" stroke="midnightblue" d="M629.33,-506.64C633.73,-509.1 637.74,-512.17 641,-516 716.28,-604.54 598.36,-689.43 677,-775 681.08,-779.44 685.97,-782.96 691.3,-785.73"/>
<polygon fill="midnightblue" stroke="midnightblue" points="690.06,-789 700.63,-789.71 692.81,-782.56 690.06,-789"/>
</g>
<!-- Node44 -->
<g id="node28" class="node">
<title>Node44</title>
<g id="a_node28"><a xlink:href="classHttpParser.html#ac152c0d7912d2e757516c3d8f1b9891b" target="_top" xlink:title=" ">
<polygon fill="white" stroke="black" points="896.5,-209.5 896.5,-228.5 1016.5,-228.5 1016.5,-209.5 896.5,-209.5"/>
<text text-anchor="middle" x="956.5" y="-216.5" font-family="Helvetica,sans-Serif" font-size="10.00">HttpParser::getRequest</text>
</a>
</g>
</g>
<!-- Node10&#45;&gt;Node44 -->
<g id="edge30" class="edge">
<title>Node10&#45;&gt;Node44</title>
<path fill="none" stroke="midnightblue" d="M634.22,-492.47C707.84,-485.88 831.41,-472.93 847,-459 894.59,-416.48 855.93,-377.79 883,-320 898.07,-287.82 923.74,-255.26 940.15,-236.11"/>
<polygon fill="midnightblue" stroke="midnightblue" points="942.82,-238.38 946.76,-228.54 937.54,-233.77 942.82,-238.38"/>
</g>
<!-- Node45 -->
<g id="node29" class="node">
<title>Node45</title>
<g id="a_node29"><a xlink:href="classCgiProcess.html#a12b2ec677191b5ccb20dc90a903b2b11" target="_top" xlink:title=" ">
<polygon fill="white" stroke="black" points="689,-746.5 689,-765.5 835,-765.5 835,-746.5 689,-746.5"/>
<text text-anchor="middle" x="762" y="-753.5" font-family="Helvetica,sans-Serif" font-size="10.00">CgiProcess::getRequestBody</text>
</a>
</g>
</g>
<!-- Node10&#45;&gt;Node45 -->
<g id="edge31" class="edge">
<title>Node10&#45;&gt;Node45</title>
<path fill="none" stroke="midnightblue" d="M628.94,-506.55C633.48,-509.03 637.62,-512.12 641,-516 706.34,-591.06 608.81,-664.52 677,-737 678.23,-738.31 679.53,-739.54 680.9,-740.69"/>
<polygon fill="midnightblue" stroke="midnightblue" points="679.08,-743.69 689.3,-746.49 683.06,-737.93 679.08,-743.69"/>
</g>
<!-- Node46 -->
<g id="node30" class="node">
<title>Node46</title>
<g id="a_node30"><a xlink:href="classCgiProcess.html#a8d87400f66506ca7262e6c8a8ae6d8b0" target="_top" xlink:title=" ">
<polygon fill="white" stroke="black" points="681.5,-708.5 681.5,-727.5 842.5,-727.5 842.5,-708.5 681.5,-708.5"/>
<text text-anchor="middle" x="762" y="-715.5" font-family="Helvetica,sans-Serif" font-size="10.00">CgiProcess::isRequestBodySent</text>
</a>
</g>
</g>
<!-- Node10&#45;&gt;Node46 -->
<g id="edge32" class="edge">
<title>Node10&#45;&gt;Node46</title>
<path fill="none" stroke="midnightblue" d="M628.52,-506.51C633.19,-508.98 637.49,-512.1 641,-516 696.44,-577.62 619.22,-639.57 677,-699 678.25,-700.29 679.58,-701.5 680.96,-702.64"/>
<polygon fill="midnightblue" stroke="midnightblue" points="679.19,-705.67 689.44,-708.36 683.1,-699.86 679.19,-705.67"/>
</g>
<!-- Node47 -->
<g id="node31" class="node">
<title>Node47</title>
<g id="a_node31"><a xlink:href="classHttpResponse.html#a70c126b617eb978c76afaf29ea4f0cd4" target="_top" xlink:title=" ">
<polygon fill="white" stroke="red" points="895.5,-329.5 895.5,-348.5 1017.5,-348.5 1017.5,-329.5 895.5,-329.5"/>
<text text-anchor="middle" x="956.5" y="-336.5" font-family="Helvetica,sans-Serif" font-size="10.00">HttpResponse::serialize</text>
</a>
</g>
</g>
<!-- Node10&#45;&gt;Node47 -->
<g id="edge33" class="edge">
<title>Node10&#45;&gt;Node47</title>
<path fill="none" stroke="midnightblue" d="M618.05,-506.56C672.57,-517.89 773.7,-530.75 847,-492 854.2,-488.2 916.35,-396.98 943.22,-357.23"/>
<polygon fill="midnightblue" stroke="midnightblue" points="946.26,-358.98 948.95,-348.74 940.45,-355.07 946.26,-358.98"/>
</g>
<!-- Node49 -->
<g id="node32" class="node">
<title>Node49</title>
<g id="a_node32"><a xlink:href="classCgiProcess.html#a8d41414d3d54ae98dff14aaa78a3a2fc" target="_top" xlink:title=" ">
<polygon fill="white" stroke="black" points="687,-670.5 687,-689.5 837,-689.5 837,-670.5 687,-670.5"/>
<text text-anchor="middle" x="762" y="-677.5" font-family="Helvetica,sans-Serif" font-size="10.00">CgiProcess::terminateProcess</text>
</a>
</g>
</g>
<!-- Node10&#45;&gt;Node49 -->
<g id="edge34" class="edge">
<title>Node10&#45;&gt;Node49</title>
<path fill="none" stroke="midnightblue" d="M628.03,-506.53C632.85,-509 637.32,-512.1 641,-516 686.61,-564.26 629.56,-614.54 677,-661 678.44,-662.41 679.97,-663.73 681.56,-664.95"/>
<polygon fill="midnightblue" stroke="midnightblue" points="679.72,-667.94 690.04,-670.37 683.49,-662.04 679.72,-667.94"/>
</g>
<!-- Node50 -->
<g id="node33" class="node">
<title>Node50</title>
<g id="a_node33"><a xlink:href="classServerManager.html#aa0099c81bdb4ab1dcca775720d31c920" target="_top" xlink:title=" ">
<polygon fill="white" stroke="black" points="696.5,-861 696.5,-891 827.5,-891 827.5,-861 696.5,-861"/>
<text text-anchor="start" x="704.5" y="-879" font-family="Helvetica,sans-Serif" font-size="10.00">ServerManager::unregister</text>
<text text-anchor="middle" x="762" y="-868" font-family="Helvetica,sans-Serif" font-size="10.00">CgiPipe</text>
</a>
</g>
</g>
<!-- Node10&#45;&gt;Node50 -->
<g id="edge35" class="edge">
<title>Node10&#45;&gt;Node50</title>
<path fill="none" stroke="midnightblue" d="M629.45,-506.54C633.83,-509.01 637.8,-512.12 641,-516 736.22,-631.58 581.19,-735.92 677,-851 680.04,-854.65 683.59,-857.78 687.47,-860.47"/>
<polygon fill="midnightblue" stroke="midnightblue" points="686.05,-863.69 696.46,-865.66 689.55,-857.63 686.05,-863.69"/>
</g>
<!-- Node13 -->
<g id="node13" class="node">
<title>Node13</title>
<g id="a_node13"><a xlink:href="classCgiProcess.html#a1d2b52da635cb0c01e0825ed6d97fe3a" target="_top" xlink:title=" ">
<polygon fill="white" stroke="black" points="883,-639.5 883,-658.5 1030,-658.5 1030,-639.5 883,-639.5"/>
<text text-anchor="middle" x="956.5" y="-646.5" font-family="Helvetica,sans-Serif" font-size="10.00">CgiProcess::tryParseHeaders</text>
</a>
</g>
</g>
<!-- Node12&#45;&gt;Node13 -->
<g id="edge12" class="edge">
<title>Node12&#45;&gt;Node13</title>
<path fill="none" stroke="midnightblue" d="M807.28,-601.56C820.17,-604.6 834.22,-608.18 847,-612 863.3,-616.87 866.92,-619.44 883,-625 893.84,-628.75 905.63,-632.71 916.5,-636.3"/>
<polygon fill="midnightblue" stroke="midnightblue" points="915.57,-639.68 926.16,-639.49 917.76,-633.03 915.57,-639.68"/>
</g>
<!-- Node15 -->
<g id="node15" class="node">
<title>Node15</title>
<g id="a_node15"><a xlink:href="ResponseUtils_8cpp.html#ab7c2cb6fbf297c09ec402182b04584c6" target="_top" xlink:title=" ">
<polygon fill="white" stroke="red" points="910,-487.5 910,-506.5 1003,-506.5 1003,-487.5 910,-487.5"/>
<text text-anchor="middle" x="956.5" y="-494.5" font-family="Helvetica,sans-Serif" font-size="10.00">fillBaseResponse</text>
</a>
</g>
</g>
<!-- Node14&#45;&gt;Node15 -->
<g id="edge14" class="edge">
<title>Node14&#45;&gt;Node15</title>
<path fill="none" stroke="midnightblue" d="M799.2,-544.45C814.1,-540.31 831.48,-535.22 847,-530 863.27,-524.52 866.67,-521.3 883,-516 890.4,-513.6 898.29,-511.29 906.05,-509.15"/>
<polygon fill="midnightblue" stroke="midnightblue" points="907,-512.52 915.75,-506.54 905.19,-505.76 907,-512.52"/>
</g>
<!-- Node27 -->
<g id="node16" class="node">
<title>Node27</title>
<g id="a_node16"><a xlink:href="classHttpResponse.html#a11a67ba43096f5eb1870e65f1814d364" target="_top" xlink:title=" ">
<polygon fill="white" stroke="red" points="1066,-525.5 1066,-544.5 1221,-544.5 1221,-525.5 1066,-525.5"/>
<text text-anchor="middle" x="1143.5" y="-532.5" font-family="Helvetica,sans-Serif" font-size="10.00">HttpResponse::setContentType</text>
</a>
</g>
</g>
<!-- Node14&#45;&gt;Node27 -->
<g id="edge20" class="edge">
<title>Node14&#45;&gt;Node27</title>
<path fill="none" stroke="midnightblue" d="M813.38,-563.13C824.61,-565.79 836.34,-569.06 847,-573 863.97,-579.27 865.44,-587.65 883,-592 946.42,-607.71 966.45,-607.18 1030,-592 1063.54,-583.99 1098.39,-564.26 1120.25,-550.26"/>
<polygon fill="midnightblue" stroke="midnightblue" points="1122.34,-553.08 1128.78,-544.67 1118.5,-547.23 1122.34,-553.08"/>
</g>
<!-- Node20 -->
<g id="node17" class="node">
<title>Node20</title>
<g id="a_node17"><a xlink:href="classHttpResponse.html#a7efa3ab17ead358609d80b55db164867" target="_top" xlink:title=" ">
<polygon fill="white" stroke="red" points="1257,-487.5 1257,-506.5 1388,-506.5 1388,-487.5 1257,-487.5"/>
<text text-anchor="middle" x="1322.5" y="-494.5" font-family="Helvetica,sans-Serif" font-size="10.00">HttpResponse::setHeader</text>
</a>
</g>
</g>
<!-- Node14&#45;&gt;Node20 -->
<g id="edge21" class="edge">
<title>Node14&#45;&gt;Node20</title>
<path fill="none" stroke="midnightblue" d="M795.49,-544.37C811.85,-538.58 831.47,-530.15 847,-519 866.7,-504.86 860.91,-488 883,-478 1019.36,-416.27 1204.63,-460.46 1283.47,-484.36"/>
<polygon fill="midnightblue" stroke="midnightblue" points="1282.84,-487.83 1293.43,-487.45 1284.92,-481.15 1282.84,-487.83"/>
</g>
<!-- Node33 -->
<g id="node18" class="node">
<title>Node33</title>
<g id="a_node18"><a xlink:href="ErrorUtils_8cpp.html#aa759f2b84e51d20fdf7801c0514c3635" target="_top" xlink:title=" ">
<polygon fill="white" stroke="black" points="914.5,-563.5 914.5,-582.5 998.5,-582.5 998.5,-563.5 914.5,-563.5"/>
<text text-anchor="middle" x="956.5" y="-570.5" font-family="Helvetica,sans-Serif" font-size="10.00">readFileToBody</text>
</a>
</g>
</g>
<!-- Node14&#45;&gt;Node33 -->
<g id="edge18" class="edge">
<title>Node14&#45;&gt;Node33</title>
<path fill="none" stroke="midnightblue" d="M813.07,-558.94C841.15,-561.71 876.1,-565.16 904.35,-567.95"/>
<polygon fill="midnightblue" stroke="midnightblue" points="904.14,-571.45 914.43,-568.95 904.82,-564.48 904.14,-571.45"/>
</g>
<!-- Node34 -->
<g id="node19" class="node">
<title>Node34</title>
<g id="a_node19"><a xlink:href="RequestProcessorUtils_8cpp.html#aa9c12d87cb0781b781a580ff9bfd0c06" target="_top" xlink:title=" ">
<polygon fill="white" stroke="black" points="922.5,-525.5 922.5,-544.5 990.5,-544.5 990.5,-525.5 922.5,-525.5"/>
<text text-anchor="middle" x="956.5" y="-532.5" font-family="Helvetica,sans-Serif" font-size="10.00">resolvePath</text>
</a>
</g>
</g>
<!-- Node14&#45;&gt;Node34 -->
<g id="edge19" class="edge">
<title>Node14&#45;&gt;Node34</title>
<path fill="none" stroke="midnightblue" d="M813.07,-549.06C843.87,-546.02 882.92,-542.16 912.34,-539.26"/>
<polygon fill="midnightblue" stroke="midnightblue" points="912.71,-542.74 922.32,-538.27 912.02,-535.77 912.71,-542.74"/>
</g>
<!-- Node15&#45;&gt;Node27 -->
<g id="edge15" class="edge">
<title>Node15&#45;&gt;Node27</title>
<path fill="none" stroke="midnightblue" d="M1003.23,-506.39C1028.28,-511.54 1059.54,-517.96 1086.09,-523.41"/>
<polygon fill="midnightblue" stroke="midnightblue" points="1085.51,-526.87 1096.01,-525.45 1086.92,-520.01 1085.51,-526.87"/>
</g>
<!-- Node15&#45;&gt;Node20 -->
<g id="edge17" class="edge">
<title>Node15&#45;&gt;Node20</title>
<path fill="none" stroke="midnightblue" d="M1003.23,-497C1064.42,-497 1173.67,-497 1246.87,-497"/>
<polygon fill="midnightblue" stroke="midnightblue" points="1246.95,-500.5 1256.95,-497 1246.95,-493.5 1246.95,-500.5"/>
</g>
<!-- Node27&#45;&gt;Node20 -->
<g id="edge16" class="edge">
<title>Node27&#45;&gt;Node20</title>
<path fill="none" stroke="midnightblue" d="M1189.16,-525.41C1212.84,-520.33 1242.11,-514.04 1267.1,-508.68"/>
<polygon fill="midnightblue" stroke="midnightblue" points="1268.11,-512.04 1277.16,-506.52 1266.64,-505.2 1268.11,-512.04"/>
</g>
<!-- Node50&#45;&gt;Node4 -->
<g id="edge36" class="edge">
<title>Node50&#45;&gt;Node4</title>
<path fill="none" stroke="midnightblue" d="M827.64,-883.39C845.79,-885.46 865.63,-887.73 884.16,-889.85"/>
<polygon fill="midnightblue" stroke="midnightblue" points="883.96,-893.35 894.29,-891 884.75,-886.39 883.96,-893.35"/>
</g>
<!-- Node51&#45;&gt;Node3 -->
<g id="edge40" class="edge">
<title>Node51&#45;&gt;Node3</title>
<path fill="none" stroke="midnightblue" d="M228.91,-253.07C245.46,-273.8 274.78,-312.78 293,-350 315.98,-396.96 292.04,-425.02 329,-462 330.08,-463.08 331.21,-464.11 332.38,-465.1"/>
<polygon fill="midnightblue" stroke="midnightblue" points="330.48,-468.04 340.67,-470.96 334.52,-462.33 330.48,-468.04"/>
</g>
<!-- Node51&#45;&gt;Node5 -->
<g id="edge60" class="edge">
<title>Node51&#45;&gt;Node5</title>
<path fill="none" stroke="midnightblue" d="M227.52,-253.02C246.81,-278.9 288.49,-333.04 329,-374 343.54,-388.7 361.15,-403.7 375.59,-415.38"/>
<polygon fill="midnightblue" stroke="midnightblue" points="373.69,-418.33 383.69,-421.84 378.06,-412.86 373.69,-418.33"/>
</g>
<!-- Node52 -->
<g id="node35" class="node">
<title>Node52</title>
<g id="a_node35"><a xlink:href="classClient.html#a232b561fc523f844967cc50c0180c4ed" target="_top" xlink:title=" ">
<polygon fill="white" stroke="black" points="362,-190.5 362,-209.5 447,-209.5 447,-190.5 362,-190.5"/>
<text text-anchor="middle" x="404.5" y="-197.5" font-family="Helvetica,sans-Serif" font-size="10.00">Client::getState</text>
</a>
</g>
</g>
<!-- Node51&#45;&gt;Node52 -->
<g id="edge39" class="edge">
<title>Node51&#45;&gt;Node52</title>
<path fill="none" stroke="midnightblue" d="M287.2,-223.63C308.7,-219.26 331.91,-214.55 351.9,-210.49"/>
<polygon fill="midnightblue" stroke="midnightblue" points="352.63,-213.91 361.74,-208.49 351.24,-207.05 352.63,-213.91"/>
</g>
<!-- Node53 -->
<g id="node36" class="node">
<title>Node53</title>
<g id="a_node36"><a xlink:href="classClient.html#ac95fe5b24fe5275bd2271bd1ac37596d" target="_top" xlink:title=" ">
<polygon fill="white" stroke="black" points="354.5,-228.5 354.5,-247.5 454.5,-247.5 454.5,-228.5 354.5,-228.5"/>
<text text-anchor="middle" x="404.5" y="-235.5" font-family="Helvetica,sans-Serif" font-size="10.00">Client::handleRead</text>
</a>
</g>
</g>
<!-- Node51&#45;&gt;Node53 -->
<g id="edge41" class="edge">
<title>Node51&#45;&gt;Node53</title>
<path fill="none" stroke="midnightblue" d="M287.2,-238C305.96,-238 326.03,-238 344.12,-238"/>
<polygon fill="midnightblue" stroke="midnightblue" points="344.23,-241.5 354.23,-238 344.23,-234.5 344.23,-241.5"/>
</g>
<!-- Node128 -->
<g id="node42" class="node">
<title>Node128</title>
<g id="a_node42"><a xlink:href="classClient.html#aaf84f683cbd7645e15a1cc989b980407" target="_top" xlink:title=" ">
<polygon fill="white" stroke="black" points="355,-152.5 355,-171.5 454,-171.5 454,-152.5 355,-152.5"/>
<text text-anchor="middle" x="404.5" y="-159.5" font-family="Helvetica,sans-Serif" font-size="10.00">Client::handleWrite</text>
</a>
</g>
</g>
<!-- Node51&#45;&gt;Node128 -->
<g id="edge58" class="edge">
<title>Node51&#45;&gt;Node128</title>
<path fill="none" stroke="midnightblue" d="M242.13,-222.97C264.47,-210.37 298.05,-192.63 329,-181 335.46,-178.57 342.36,-176.35 349.24,-174.35"/>
<polygon fill="midnightblue" stroke="midnightblue" points="350.57,-177.61 359.28,-171.58 348.71,-170.87 350.57,-177.61"/>
</g>
<!-- Node129 -->
<g id="node43" class="node">
<title>Node129</title>
<g id="a_node43"><a xlink:href="classClient.html#a6605d16d3a3c64c8e94642bb20f2c150" target="_top" xlink:title=" ">
<polygon fill="white" stroke="black" points="344.5,-266.5 344.5,-285.5 464.5,-285.5 464.5,-266.5 344.5,-266.5"/>
<text text-anchor="middle" x="404.5" y="-273.5" font-family="Helvetica,sans-Serif" font-size="10.00">Client::hasPendingData</text>
</a>
</g>
</g>
<!-- Node51&#45;&gt;Node129 -->
<g id="edge59" class="edge">
<title>Node51&#45;&gt;Node129</title>
<path fill="none" stroke="midnightblue" d="M287.2,-252.37C306.84,-256.36 327.9,-260.64 346.64,-264.45"/>
<polygon fill="midnightblue" stroke="midnightblue" points="346,-267.89 356.49,-266.45 347.39,-261.03 346,-267.89"/>
</g>
<!-- Node54 -->
<g id="node37" class="node">
<title>Node54</title>
<g id="a_node37"><a xlink:href="classHttpParser.html#ada29088006c606896d2d46e48034f420" target="_top" xlink:title=" ">
<polygon fill="white" stroke="red" points="707,-76.5 707,-95.5 817,-95.5 817,-76.5 707,-76.5"/>
<text text-anchor="middle" x="762" y="-83.5" font-family="Helvetica,sans-Serif" font-size="10.00">HttpParser::consume</text>
</a>
</g>
</g>
<!-- Node53&#45;&gt;Node54 -->
<g id="edge42" class="edge">
<title>Node53&#45;&gt;Node54</title>
<path fill="none" stroke="midnightblue" d="M454.53,-232.01C463.7,-229.17 472.69,-225.03 480,-219 508.85,-195.24 486.9,-166.46 516,-143 567.26,-101.67 643.13,-89.25 696.84,-86.03"/>
<polygon fill="midnightblue" stroke="midnightblue" points="697.13,-89.52 706.93,-85.51 696.77,-82.53 697.13,-89.52"/>
</g>
<!-- Node81 -->
<g id="node38" class="node">
<title>Node81</title>
<g id="a_node38"><a xlink:href="classHttpParser.html#a6dfad8c8787d24caaab21f66ddb6415d" target="_top" xlink:title=" ">
<polygon fill="white" stroke="black" points="903,-133.5 903,-152.5 1010,-152.5 1010,-133.5 903,-133.5"/>
<text text-anchor="middle" x="956.5" y="-140.5" font-family="Helvetica,sans-Serif" font-size="10.00">HttpParser::getState</text>
</a>
</g>
</g>
<!-- Node53&#45;&gt;Node81 -->
<g id="edge43" class="edge">
<title>Node53&#45;&gt;Node81</title>
<path fill="none" stroke="midnightblue" d="M454.62,-233.22C464,-230.3 473.05,-225.83 480,-219 523.09,-176.7 470.45,-127.64 516,-88 627.19,8.77 706.42,-22.66 847,-67 883.82,-78.61 919.01,-107.68 938.87,-126.31"/>
<polygon fill="midnightblue" stroke="midnightblue" points="936.54,-128.93 946.17,-133.34 941.4,-123.89 936.54,-128.93"/>
</g>
<!-- Node82 -->
<g id="node39" class="node">
<title>Node82</title>
<g id="a_node39"><a xlink:href="classClient.html#abcf615f2514ae7e0266315693e73a31a" target="_top" xlink:title=" ">
<polygon fill="white" stroke="red" points="684.5,-190.5 684.5,-209.5 839.5,-209.5 839.5,-190.5 684.5,-190.5"/>
<text text-anchor="middle" x="762" y="-197.5" font-family="Helvetica,sans-Serif" font-size="10.00">Client::handleCompleteRequest</text>
</a>
</g>
</g>
<!-- Node53&#45;&gt;Node82 -->
<g id="edge44" class="edge">
<title>Node53&#45;&gt;Node82</title>
<path fill="none" stroke="midnightblue" d="M454.69,-233.2C502.34,-228.5 576.66,-221.03 641,-214 651.7,-212.83 662.92,-211.57 674.04,-210.3"/>
<polygon fill="midnightblue" stroke="midnightblue" points="674.66,-213.75 684.2,-209.13 673.87,-206.79 674.66,-213.75"/>
</g>
<!-- Node123 -->
<g id="node40" class="node">
<title>Node123</title>
<g id="a_node40"><a xlink:href="classClient.html#ab83f46c4fe6d12026fd5667e7ce270fb" target="_top" xlink:title="Handle Expect: 100&#45;continue.">
<polygon fill="white" stroke="red" points="700.5,-152.5 700.5,-171.5 823.5,-171.5 823.5,-152.5 700.5,-152.5"/>
<text text-anchor="middle" x="762" y="-159.5" font-family="Helvetica,sans-Serif" font-size="10.00">Client::handleExpect100</text>
</a>
</g>
</g>
<!-- Node53&#45;&gt;Node123 -->
<g id="edge49" class="edge">
<title>Node53&#45;&gt;Node123</title>
<path fill="none" stroke="midnightblue" d="M449.05,-228.49C469.39,-224.06 493.93,-218.74 516,-214 581.23,-199.99 656.27,-184.1 705.94,-173.61"/>
<polygon fill="midnightblue" stroke="midnightblue" points="706.77,-177.01 715.83,-171.52 705.32,-170.16 706.77,-177.01"/>
</g>
<!-- Node125 -->
<g id="node41" class="node">
<title>Node125</title>
<g id="a_node41"><a xlink:href="classClient.html#a950fd2ab8ac20c9be4c5e722344d6fe2" target="_top" xlink:title=" ">
<polygon fill="white" stroke="red" points="516,-152.5 516,-171.5 641,-171.5 641,-152.5 516,-152.5"/>
<text text-anchor="middle" x="578.5" y="-159.5" font-family="Helvetica,sans-Serif" font-size="10.00">Client::processRequests</text>
</a>
</g>
</g>
<!-- Node53&#45;&gt;Node125 -->
<g id="edge53" class="edge">
<title>Node53&#45;&gt;Node125</title>
<path fill="none" stroke="midnightblue" d="M454.89,-229.06C463.55,-226.48 472.25,-223.19 480,-219 499.09,-208.67 497.58,-197.47 516,-186 522.42,-182 529.62,-178.47 536.77,-175.43"/>
<polygon fill="midnightblue" stroke="midnightblue" points="538.41,-178.54 546.4,-171.59 535.82,-172.04 538.41,-178.54"/>
</g>
<!-- Node82&#45;&gt;Node39 -->
<g id="edge45" class="edge">
<title>Node82&#45;&gt;Node39</title>
<path fill="none" stroke="midnightblue" d="M839.63,-192.44C853.42,-191.08 867.77,-189.66 881.48,-188.31"/>
<polygon fill="midnightblue" stroke="midnightblue" points="882.21,-191.75 891.82,-187.29 881.52,-184.78 882.21,-191.75"/>
</g>
<!-- Node82&#45;&gt;Node44 -->
<g id="edge46" class="edge">
<title>Node82&#45;&gt;Node44</title>
<path fill="none" stroke="midnightblue" d="M839.63,-207.56C854.97,-209.08 871,-210.66 886.07,-212.15"/>
<polygon fill="midnightblue" stroke="midnightblue" points="886.04,-215.66 896.33,-213.16 886.73,-208.69 886.04,-215.66"/>
</g>
<!-- Node82&#45;&gt;Node47 -->
<g id="edge48" class="edge">
<title>Node82&#45;&gt;Node47</title>
<path fill="none" stroke="midnightblue" d="M825.66,-209.63C833.12,-212.08 840.42,-215.15 847,-219 890.84,-244.63 926.87,-293.91 944.26,-320.65"/>
<polygon fill="midnightblue" stroke="midnightblue" points="941.49,-322.83 949.8,-329.4 947.41,-319.08 941.49,-322.83"/>
</g>
<!-- Node82&#45;&gt;Node81 -->
<g id="edge47" class="edge">
<title>Node82&#45;&gt;Node81</title>
<path fill="none" stroke="midnightblue" d="M815.15,-190.45C825.84,-187.87 836.9,-184.73 847,-181 863.97,-174.73 866.14,-168.56 883,-162 889.27,-159.56 895.97,-157.33 902.67,-155.32"/>
<polygon fill="midnightblue" stroke="midnightblue" points="903.77,-158.65 912.43,-152.55 901.85,-151.92 903.77,-158.65"/>
</g>
<!-- Node123&#45;&gt;Node39 -->
<g id="edge50" class="edge">
<title>Node123&#45;&gt;Node39</title>
<path fill="none" stroke="midnightblue" d="M823.64,-167.99C842.05,-169.8 862.47,-171.82 881.64,-173.71"/>
<polygon fill="midnightblue" stroke="midnightblue" points="881.54,-177.22 891.84,-174.72 882.23,-170.25 881.54,-177.22"/>
</g>
<!-- Node123&#45;&gt;Node44 -->
<g id="edge51" class="edge">
<title>Node123&#45;&gt;Node44</title>
<path fill="none" stroke="midnightblue" d="M815.15,-171.55C825.84,-174.13 836.9,-177.27 847,-181 863.97,-187.27 866.14,-193.44 883,-200 889.27,-202.44 895.97,-204.67 902.67,-206.68"/>
<polygon fill="midnightblue" stroke="midnightblue" points="901.85,-210.08 912.43,-209.45 903.77,-203.35 901.85,-210.08"/>
</g>
<!-- Node123&#45;&gt;Node81 -->
<g id="edge52" class="edge">
<title>Node123&#45;&gt;Node81</title>
<path fill="none" stroke="midnightblue" d="M823.64,-156.01C845.72,-153.84 870.71,-151.37 892.95,-149.17"/>
<polygon fill="midnightblue" stroke="midnightblue" points="893.34,-152.65 902.95,-148.19 892.65,-145.69 893.34,-152.65"/>
</g>
<!-- Node125&#45;&gt;Node36 -->
<g id="edge54" class="edge">
<title>Node125&#45;&gt;Node36</title>
<path fill="none" stroke="midnightblue" d="M592.71,-171.51C610.85,-184.14 644.9,-206.34 677,-219 683.79,-221.68 691.04,-224.03 698.34,-226.07"/>
<polygon fill="midnightblue" stroke="midnightblue" points="697.71,-229.53 708.27,-228.68 699.49,-222.75 697.71,-229.53"/>
</g>
<!-- Node125&#45;&gt;Node54 -->
<g id="edge55" class="edge">
<title>Node125&#45;&gt;Node54</title>
<path fill="none" stroke="midnightblue" d="M594.88,-152.48C613.69,-141.14 646.76,-122.22 677,-110 687.88,-105.6 699.85,-101.67 711.26,-98.33"/>
<polygon fill="midnightblue" stroke="midnightblue" points="712.43,-101.63 721.1,-95.54 710.53,-94.9 712.43,-101.63"/>
</g>
<!-- Node125&#45;&gt;Node81 -->
<g id="edge56" class="edge">
<title>Node125&#45;&gt;Node81</title>
<path fill="none" stroke="midnightblue" d="M619.09,-152.49C636.71,-148.72 657.77,-144.86 677,-143 750.85,-135.87 836.23,-137.29 892.78,-139.57"/>
<polygon fill="midnightblue" stroke="midnightblue" points="892.86,-143.07 903,-140 893.16,-136.08 892.86,-143.07"/>
</g>
<!-- Node125&#45;&gt;Node82 -->
<g id="edge57" class="edge">
<title>Node125&#45;&gt;Node82</title>
<path fill="none" stroke="midnightblue" d="M625.3,-171.59C649.68,-176.69 679.86,-183.01 705.56,-188.39"/>
<polygon fill="midnightblue" stroke="midnightblue" points="705.02,-191.86 715.53,-190.48 706.46,-185 705.02,-191.86"/>
</g>
<!-- Node131 -->
<g id="node45" class="node">
<title>Node131</title>
<g id="a_node45"><a xlink:href="classTcpListener.html#a9028a8ba1496897435ca46bc715ccdaf" target="_top" xlink:title=" ">
<polygon fill="white" stroke="black" points="329,-114.5 329,-133.5 480,-133.5 480,-114.5 329,-114.5"/>
<text text-anchor="middle" x="404.5" y="-121.5" font-family="Helvetica,sans-Serif" font-size="10.00">TcpListener::acceptConnection</text>
</a>
</g>
</g>
<!-- Node130&#45;&gt;Node131 -->
<g id="edge62" class="edge">
<title>Node130&#45;&gt;Node131</title>
<path fill="none" stroke="midnightblue" d="M284.01,-124C295.26,-124 307.05,-124 318.66,-124"/>
<polygon fill="midnightblue" stroke="midnightblue" points="318.8,-127.5 328.8,-124 318.8,-120.5 318.8,-127.5"/>
</g>
<!-- Node100 -->
<g id="node46" class="node">
<title>Node100</title>
<g id="a_node46"><a xlink:href="classEpollWrapper.html#a9d1a1f203f959547001099718dd957ea" target="_top" xlink:title=" ">
<polygon fill="white" stroke="black" points="351,-76.5 351,-95.5 458,-95.5 458,-76.5 351,-76.5"/>
<text text-anchor="middle" x="404.5" y="-83.5" font-family="Helvetica,sans-Serif" font-size="10.00">EpollWrapper::addFd</text>
</a>
</g>
</g>
<!-- Node130&#45;&gt;Node100 -->
<g id="edge63" class="edge">
<title>Node130&#45;&gt;Node100</title>
<path fill="none" stroke="midnightblue" d="M284.01,-110.28C304.5,-106.12 326.8,-101.59 346.53,-97.58"/>
<polygon fill="midnightblue" stroke="midnightblue" points="347.48,-100.96 356.58,-95.53 346.09,-94.1 347.48,-100.96"/>
</g>
<!-- Node132 -->
<g id="node47" class="node">
<title>Node132</title>
<g id="a_node47"><a xlink:href="classTcpListener.html#aa262452852ad73bbec5f79b30ba74a52" target="_top" xlink:title=" ">
<polygon fill="white" stroke="black" points="352.5,-38.5 352.5,-57.5 456.5,-57.5 456.5,-38.5 352.5,-38.5"/>
<text text-anchor="middle" x="404.5" y="-45.5" font-family="Helvetica,sans-Serif" font-size="10.00">TcpListener::getPort</text>
</a>
</g>
</g>
<!-- Node130&#45;&gt;Node132 -->
<g id="edge64" class="edge">
<title>Node130&#45;&gt;Node132</title>
<path fill="none" stroke="midnightblue" d="M272,-108.89C279.27,-106.04 286.46,-102.76 293,-99 311.56,-88.34 310.09,-77.04 329,-67 333.45,-64.63 338.22,-62.55 343.1,-60.72"/>
<polygon fill="midnightblue" stroke="midnightblue" points="344.24,-64.03 352.59,-57.51 341.99,-57.4 344.24,-64.03"/>
</g>
<!-- Node133 -->
<g id="node48" class="node">
<title>Node133</title>
<g id="a_node48"><a xlink:href="classClient.html#a6db98f3365d188e1ee4e9f1cfd394135" target="_top" xlink:title=" ">
<polygon fill="white" stroke="black" points="340.5,-0.5 340.5,-19.5 468.5,-19.5 468.5,-0.5 340.5,-0.5"/>
<text text-anchor="middle" x="404.5" y="-7.5" font-family="Helvetica,sans-Serif" font-size="10.00">Client::setServerManager</text>
</a>
</g>
</g>
<!-- Node130&#45;&gt;Node133 -->
<g id="edge65" class="edge">
<title>Node130&#45;&gt;Node133</title>
<path fill="none" stroke="midnightblue" d="M277.75,-108.97C283.23,-106.19 288.43,-102.9 293,-99 319.63,-76.31 301.64,-50.8 329,-29 331.18,-27.27 333.49,-25.69 335.91,-24.25"/>
<polygon fill="midnightblue" stroke="midnightblue" points="337.69,-27.28 345.05,-19.66 334.54,-21.02 337.69,-27.28"/>
</g>
</g>
</svg>
