<?xml version="1.0" encoding="UTF-8" standalone="no"?>
<!DOCTYPE svg PUBLIC "-//W3C//DTD SVG 1.1//EN"
 "http://www.w3.org/Graphics/SVG/1.1/DTD/svg11.dtd">
<!-- Generated by graphviz version 2.43.0 (0)
 -->
<!-- Title: CgiExecutor::prepareEnvironment Pages: 1 -->
<svg width="356pt" height="332pt"
 viewBox="0.00 0.00 356.00 332.00" xmlns="http://www.w3.org/2000/svg" xmlns:xlink="http://www.w3.org/1999/xlink">
<g id="graph0" class="graph" transform="scale(1 1) rotate(0) translate(4 328)">
<title>CgiExecutor::prepareEnvironment</title>
<polygon fill="white" stroke="transparent" points="-4,4 -4,-328 352,-328 352,4 -4,4"/>
<!-- Node1 -->
<g id="node1" class="node">
<title>Node1</title>
<g id="a_node1"><a xlink:title=" ">
<polygon fill="#bfbfbf" stroke="black" points="0,-152.5 0,-171.5 164,-171.5 164,-152.5 0,-152.5"/>
<text text-anchor="middle" x="82" y="-159.5" font-family="Helvetica,sans-Serif" font-size="10.00">CgiExecutor::prepareEnvironment</text>
</a>
</g>
</g>
<!-- Node2 -->
<g id="node2" class="node">
<title>Node2</title>
<g id="a_node2"><a xlink:href="classHttpRequest.html#aa727937b993d7df56a9d99b37d6be672" target="_top" xlink:title=" ">
<polygon fill="white" stroke="black" points="217,-304.5 217,-323.5 331,-323.5 331,-304.5 217,-304.5"/>
<text text-anchor="middle" x="274" y="-311.5" font-family="Helvetica,sans-Serif" font-size="10.00">HttpRequest::getBody</text>
</a>
</g>
</g>
<!-- Node1&#45;&gt;Node2 -->
<g id="edge1" class="edge">
<title>Node1&#45;&gt;Node2</title>
<path fill="none" stroke="midnightblue" d="M88.69,-171.8C103.58,-196.54 146.32,-261.94 200,-295 203.42,-297.1 207.06,-298.97 210.82,-300.64"/>
<polygon fill="midnightblue" stroke="midnightblue" points="209.8,-304 220.39,-304.37 212.34,-297.48 209.8,-304"/>
</g>
<!-- Node3 -->
<g id="node3" class="node">
<title>Node3</title>
<g id="a_node3"><a xlink:href="classHttpRequest.html#ab537cb11b054734695ee4889d88aec6d" target="_top" xlink:title="Obtiene un header específico de la petición.">
<polygon fill="white" stroke="black" points="212.5,-266.5 212.5,-285.5 335.5,-285.5 335.5,-266.5 212.5,-266.5"/>
<text text-anchor="middle" x="274" y="-273.5" font-family="Helvetica,sans-Serif" font-size="10.00">HttpRequest::getHeader</text>
</a>
</g>
</g>
<!-- Node1&#45;&gt;Node3 -->
<g id="edge2" class="edge">
<title>Node1&#45;&gt;Node3</title>
<path fill="none" stroke="midnightblue" d="M92.01,-171.69C110.42,-190.9 154.47,-233.97 200,-257 204.63,-259.34 209.57,-261.41 214.62,-263.24"/>
<polygon fill="midnightblue" stroke="midnightblue" points="213.82,-266.66 224.41,-266.47 216.01,-260.01 213.82,-266.66"/>
</g>
<!-- Node4 -->
<g id="node4" class="node">
<title>Node4</title>
<g id="a_node4"><a xlink:href="classHttpRequest.html#a08c95fd7197579a81bbed722db6a8cc9" target="_top" xlink:title="Obtiene todos los headers de la petición.">
<polygon fill="white" stroke="black" points="210,-228.5 210,-247.5 338,-247.5 338,-228.5 210,-228.5"/>
<text text-anchor="middle" x="274" y="-235.5" font-family="Helvetica,sans-Serif" font-size="10.00">HttpRequest::getHeaders</text>
</a>
</g>
</g>
<!-- Node1&#45;&gt;Node4 -->
<g id="edge3" class="edge">
<title>Node1&#45;&gt;Node4</title>
<path fill="none" stroke="midnightblue" d="M99.97,-171.6C122.32,-183.94 163.12,-205.37 200,-219 206.52,-221.41 213.47,-223.64 220.4,-225.65"/>
<polygon fill="midnightblue" stroke="midnightblue" points="219.91,-229.15 230.48,-228.45 221.78,-222.4 219.91,-229.15"/>
</g>
<!-- Node5 -->
<g id="node5" class="node">
<title>Node5</title>
<g id="a_node5"><a xlink:href="classHttpRequest.html#adf523a5345b525702a858f8792bab8ea" target="_top" xlink:title=" ">
<polygon fill="white" stroke="black" points="212,-190.5 212,-209.5 336,-209.5 336,-190.5 212,-190.5"/>
<text text-anchor="middle" x="274" y="-197.5" font-family="Helvetica,sans-Serif" font-size="10.00">HttpRequest::getMethod</text>
</a>
</g>
</g>
<!-- Node1&#45;&gt;Node5 -->
<g id="edge4" class="edge">
<title>Node1&#45;&gt;Node5</title>
<path fill="none" stroke="midnightblue" d="M130.95,-171.59C156.58,-176.72 188.34,-183.07 215.32,-188.46"/>
<polygon fill="midnightblue" stroke="midnightblue" points="214.91,-191.95 225.4,-190.48 216.28,-185.09 214.91,-191.95"/>
</g>
<!-- Node6 -->
<g id="node6" class="node">
<title>Node6</title>
<g id="a_node6"><a xlink:href="classHttpRequest.html#acde519e492e10352bc39d6a3bcd857b2" target="_top" xlink:title=" ">
<polygon fill="white" stroke="black" points="218,-152.5 218,-171.5 330,-171.5 330,-152.5 218,-152.5"/>
<text text-anchor="middle" x="274" y="-159.5" font-family="Helvetica,sans-Serif" font-size="10.00">HttpRequest::getPath</text>
</a>
</g>
</g>
<!-- Node1&#45;&gt;Node6 -->
<g id="edge5" class="edge">
<title>Node1&#45;&gt;Node6</title>
<path fill="none" stroke="midnightblue" d="M164.13,-162C178.74,-162 193.79,-162 207.88,-162"/>
<polygon fill="midnightblue" stroke="midnightblue" points="207.94,-165.5 217.94,-162 207.94,-158.5 207.94,-165.5"/>
</g>
<!-- Node7 -->
<g id="node7" class="node">
<title>Node7</title>
<g id="a_node7"><a xlink:href="classServerConfig.html#afab0e296905ba9053273c36b250a2420" target="_top" xlink:title=" ">
<polygon fill="white" stroke="black" points="218.5,-114.5 218.5,-133.5 329.5,-133.5 329.5,-114.5 218.5,-114.5"/>
<text text-anchor="middle" x="274" y="-121.5" font-family="Helvetica,sans-Serif" font-size="10.00">ServerConfig::getPort</text>
</a>
</g>
</g>
<!-- Node1&#45;&gt;Node7 -->
<g id="edge6" class="edge">
<title>Node1&#45;&gt;Node7</title>
<path fill="none" stroke="midnightblue" d="M130.95,-152.41C156.58,-147.28 188.34,-140.93 215.32,-135.54"/>
<polygon fill="midnightblue" stroke="midnightblue" points="216.28,-138.91 225.4,-133.52 214.91,-132.05 216.28,-138.91"/>
</g>
<!-- Node8 -->
<g id="node8" class="node">
<title>Node8</title>
<g id="a_node8"><a xlink:href="classHttpRequest.html#a579bc045f297b854a798e6a2d21b9502" target="_top" xlink:title=" ">
<polygon fill="white" stroke="black" points="215,-76.5 215,-95.5 333,-95.5 333,-76.5 215,-76.5"/>
<text text-anchor="middle" x="274" y="-83.5" font-family="Helvetica,sans-Serif" font-size="10.00">HttpRequest::getQuery</text>
</a>
</g>
</g>
<!-- Node1&#45;&gt;Node8 -->
<g id="edge7" class="edge">
<title>Node1&#45;&gt;Node8</title>
<path fill="none" stroke="midnightblue" d="M99.97,-152.4C122.32,-140.06 163.12,-118.63 200,-105 206.52,-102.59 213.47,-100.36 220.4,-98.35"/>
<polygon fill="midnightblue" stroke="midnightblue" points="221.78,-101.6 230.48,-95.55 219.91,-94.85 221.78,-101.6"/>
</g>
<!-- Node9 -->
<g id="node9" class="node">
<title>Node9</title>
<g id="a_node9"><a xlink:href="classServerConfig.html#aa04c77f5ee06781c5830e2ad55f6463e" target="_top" xlink:title=" ">
<polygon fill="white" stroke="black" points="200,-38.5 200,-57.5 348,-57.5 348,-38.5 200,-38.5"/>
<text text-anchor="middle" x="274" y="-45.5" font-family="Helvetica,sans-Serif" font-size="10.00">ServerConfig::getServerName</text>
</a>
</g>
</g>
<!-- Node1&#45;&gt;Node9 -->
<g id="edge8" class="edge">
<title>Node1&#45;&gt;Node9</title>
<path fill="none" stroke="midnightblue" d="M92.01,-152.31C110.42,-133.1 154.47,-90.03 200,-67 204.63,-64.66 209.57,-62.59 214.62,-60.76"/>
<polygon fill="midnightblue" stroke="midnightblue" points="216.01,-63.99 224.41,-57.53 213.82,-57.34 216.01,-63.99"/>
</g>
<!-- Node10 -->
<g id="node10" class="node">
<title>Node10</title>
<g id="a_node10"><a xlink:href="RequestProcessorUtils_8cpp.html#a390b94b66217f7a8dacf76cf769d07c7" target="_top" xlink:title=" ">
<polygon fill="white" stroke="black" points="231.5,-0.5 231.5,-19.5 316.5,-19.5 316.5,-0.5 231.5,-0.5"/>
<text text-anchor="middle" x="274" y="-7.5" font-family="Helvetica,sans-Serif" font-size="10.00">methodToString</text>
</a>
</g>
</g>
<!-- Node1&#45;&gt;Node10 -->
<g id="edge9" class="edge">
<title>Node1&#45;&gt;Node10</title>
<path fill="none" stroke="midnightblue" d="M88.69,-152.2C103.58,-127.46 146.32,-62.06 200,-29 206.66,-24.9 214.2,-21.67 221.83,-19.14"/>
<polygon fill="midnightblue" stroke="midnightblue" points="222.88,-22.48 231.49,-16.29 220.9,-15.77 222.88,-22.48"/>
</g>
</g>
</svg>
