<?xml version="1.0" encoding="UTF-8" standalone="no"?>
<!DOCTYPE svg PUBLIC "-//W3C//DTD SVG 1.1//EN"
 "http://www.w3.org/Graphics/SVG/1.1/DTD/svg11.dtd">
<!-- Generated by graphviz version 2.43.0 (0)
 -->
<!-- Title: ServerManager::updateClientEvents Pages: 1 -->
<svg width="480pt" height="127pt"
 viewBox="0.00 0.00 480.00 126.50" xmlns="http://www.w3.org/2000/svg" xmlns:xlink="http://www.w3.org/1999/xlink">
<g id="graph0" class="graph" transform="scale(1 1) rotate(0) translate(4 122.5)">
<title>ServerManager::updateClientEvents</title>
<polygon fill="white" stroke="transparent" points="-4,4 -4,-122.5 476,-122.5 476,4 -4,4"/>
<!-- Node1 -->
<g id="node1" class="node">
<title>Node1</title>
<g id="a_node1"><a xlink:title=" ">
<polygon fill="#bfbfbf" stroke="black" points="329,-49.5 329,-79.5 472,-79.5 472,-49.5 329,-49.5"/>
<text text-anchor="start" x="337" y="-67.5" font-family="Helvetica,sans-Serif" font-size="10.00">ServerManager::updateClient</text>
<text text-anchor="middle" x="400.5" y="-56.5" font-family="Helvetica,sans-Serif" font-size="10.00">Events</text>
</a>
</g>
</g>
<!-- Node2 -->
<g id="node2" class="node">
<title>Node2</title>
<g id="a_node2"><a xlink:href="classServerManager.html#afc55d5553173781d24690df769dc8c62" target="_top" xlink:title=" ">
<polygon fill="white" stroke="black" points="138,-99 138,-118 293,-118 293,-99 138,-99"/>
<text text-anchor="middle" x="215.5" y="-106" font-family="Helvetica,sans-Serif" font-size="10.00">ServerManager::checkTimeouts</text>
</a>
</g>
</g>
<!-- Node1&#45;&gt;Node2 -->
<g id="edge1" class="edge">
<title>Node1&#45;&gt;Node2</title>
<path fill="none" stroke="midnightblue" d="M327.15,-81.9C302.92,-87.72 276.83,-94 256.06,-98.99"/>
<polygon fill="midnightblue" stroke="midnightblue" points="328.13,-85.26 337.03,-79.52 326.49,-78.45 328.13,-85.26"/>
</g>
<!-- Node4 -->
<g id="node4" class="node">
<title>Node4</title>
<g id="a_node4"><a xlink:href="classServerManager.html#a9c75ea0bd268425c187ef25770eccbe8" target="_top" xlink:title=" ">
<polygon fill="white" stroke="black" points="149.5,-49.5 149.5,-79.5 281.5,-79.5 281.5,-49.5 149.5,-49.5"/>
<text text-anchor="start" x="157.5" y="-67.5" font-family="Helvetica,sans-Serif" font-size="10.00">ServerManager::handleCgi</text>
<text text-anchor="middle" x="215.5" y="-56.5" font-family="Helvetica,sans-Serif" font-size="10.00">PipeEvent</text>
</a>
</g>
</g>
<!-- Node1&#45;&gt;Node4 -->
<g id="edge3" class="edge">
<title>Node1&#45;&gt;Node4</title>
<path fill="none" stroke="midnightblue" d="M318.48,-64.5C306.17,-64.5 293.59,-64.5 281.67,-64.5"/>
<polygon fill="midnightblue" stroke="midnightblue" points="318.75,-68 328.75,-64.5 318.75,-61 318.75,-68"/>
</g>
<!-- Node5 -->
<g id="node5" class="node">
<title>Node5</title>
<g id="a_node5"><a xlink:href="classServerManager.html#a9f3ca46da9df004286f90902b8daf29d" target="_top" xlink:title=" ">
<polygon fill="white" stroke="black" points="144,-0.5 144,-30.5 287,-30.5 287,-0.5 144,-0.5"/>
<text text-anchor="start" x="152" y="-18.5" font-family="Helvetica,sans-Serif" font-size="10.00">ServerManager::handleClient</text>
<text text-anchor="middle" x="215.5" y="-7.5" font-family="Helvetica,sans-Serif" font-size="10.00">Event</text>
</a>
</g>
</g>
<!-- Node1&#45;&gt;Node5 -->
<g id="edge5" class="edge">
<title>Node1&#45;&gt;Node5</title>
<path fill="none" stroke="midnightblue" d="M333.21,-46.75C313.38,-41.44 291.83,-35.67 272.71,-30.55"/>
<polygon fill="midnightblue" stroke="midnightblue" points="332.54,-50.19 343.1,-49.4 334.35,-43.43 332.54,-50.19"/>
</g>
<!-- Node3 -->
<g id="node3" class="node">
<title>Node3</title>
<g id="a_node3"><a xlink:href="classServerManager.html#aecc313c9b6afcab92c22269b3333c721" target="_top" xlink:title=" ">
<polygon fill="white" stroke="black" points="0,-55 0,-74 102,-74 102,-55 0,-55"/>
<text text-anchor="middle" x="51" y="-62" font-family="Helvetica,sans-Serif" font-size="10.00">ServerManager::run</text>
</a>
</g>
</g>
<!-- Node2&#45;&gt;Node3 -->
<g id="edge2" class="edge">
<title>Node2&#45;&gt;Node3</title>
<path fill="none" stroke="midnightblue" d="M164.79,-96.46C155.86,-94.21 146.64,-91.83 138,-89.5 119.98,-84.65 99.96,-78.85 83.77,-74.06"/>
<polygon fill="midnightblue" stroke="midnightblue" points="164.17,-99.91 174.72,-98.94 165.86,-93.12 164.17,-99.91"/>
</g>
<!-- Node4&#45;&gt;Node3 -->
<g id="edge4" class="edge">
<title>Node4&#45;&gt;Node3</title>
<path fill="none" stroke="midnightblue" d="M139.31,-64.5C126.71,-64.5 113.93,-64.5 102.16,-64.5"/>
<polygon fill="midnightblue" stroke="midnightblue" points="139.34,-68 149.34,-64.5 139.34,-61 139.34,-68"/>
</g>
<!-- Node5&#45;&gt;Node3 -->
<g id="edge6" class="edge">
<title>Node5&#45;&gt;Node3</title>
<path fill="none" stroke="midnightblue" d="M154.66,-33.54C130.63,-40.79 103.91,-48.85 83.76,-54.92"/>
<polygon fill="midnightblue" stroke="midnightblue" points="155.85,-36.84 164.42,-30.6 153.83,-30.14 155.85,-36.84"/>
</g>
</g>
</svg>
