<?xml version="1.0" encoding="UTF-8" standalone="no"?>
<!DOCTYPE svg PUBLIC "-//W3C//DTD SVG 1.1//EN"
 "http://www.w3.org/Graphics/SVG/1.1/DTD/svg11.dtd">
<!-- Generated by graphviz version 2.43.0 (0)
 -->
<!-- Title: ServerManager::handleNewConnection Pages: 1 -->
<svg width="332pt" height="142pt"
 viewBox="0.00 0.00 332.00 142.00" xmlns="http://www.w3.org/2000/svg" xmlns:xlink="http://www.w3.org/1999/xlink">
<g id="graph0" class="graph" transform="scale(1 1) rotate(0) translate(4 138)">
<title>ServerManager::handleNewConnection</title>
<polygon fill="white" stroke="transparent" points="-4,4 -4,-138 328,-138 328,4 -4,4"/>
<!-- Node1 -->
<g id="node1" class="node">
<title>Node1</title>
<g id="a_node1"><a xlink:title=" ">
<polygon fill="#bfbfbf" stroke="black" points="0,-52 0,-82 137,-82 137,-52 0,-52"/>
<text text-anchor="start" x="8" y="-70" font-family="Helvetica,sans-Serif" font-size="10.00">ServerManager::handleNew</text>
<text text-anchor="middle" x="68.5" y="-59" font-family="Helvetica,sans-Serif" font-size="10.00">Connection</text>
</a>
</g>
</g>
<!-- Node2 -->
<g id="node2" class="node">
<title>Node2</title>
<g id="a_node2"><a xlink:href="classTcpListener.html#a9028a8ba1496897435ca46bc715ccdaf" target="_top" xlink:title=" ">
<polygon fill="white" stroke="black" points="173,-114.5 173,-133.5 324,-133.5 324,-114.5 173,-114.5"/>
<text text-anchor="middle" x="248.5" y="-121.5" font-family="Helvetica,sans-Serif" font-size="10.00">TcpListener::acceptConnection</text>
</a>
</g>
</g>
<!-- Node1&#45;&gt;Node2 -->
<g id="edge1" class="edge">
<title>Node1&#45;&gt;Node2</title>
<path fill="none" stroke="midnightblue" d="M107.52,-82.02C126.95,-89.42 151.06,-98.19 173,-105 180.79,-107.42 189.12,-109.76 197.27,-111.94"/>
<polygon fill="midnightblue" stroke="midnightblue" points="196.52,-115.36 207.08,-114.49 198.28,-108.58 196.52,-115.36"/>
</g>
<!-- Node3 -->
<g id="node3" class="node">
<title>Node3</title>
<g id="a_node3"><a xlink:href="classEpollWrapper.html#a9d1a1f203f959547001099718dd957ea" target="_top" xlink:title=" ">
<polygon fill="white" stroke="black" points="195,-76.5 195,-95.5 302,-95.5 302,-76.5 195,-76.5"/>
<text text-anchor="middle" x="248.5" y="-83.5" font-family="Helvetica,sans-Serif" font-size="10.00">EpollWrapper::addFd</text>
</a>
</g>
</g>
<!-- Node1&#45;&gt;Node3 -->
<g id="edge2" class="edge">
<title>Node1&#45;&gt;Node3</title>
<path fill="none" stroke="midnightblue" d="M137.05,-74.21C152.78,-75.89 169.46,-77.67 184.97,-79.33"/>
<polygon fill="midnightblue" stroke="midnightblue" points="184.65,-82.81 194.96,-80.39 185.39,-75.85 184.65,-82.81"/>
</g>
<!-- Node4 -->
<g id="node4" class="node">
<title>Node4</title>
<g id="a_node4"><a xlink:href="classTcpListener.html#aa262452852ad73bbec5f79b30ba74a52" target="_top" xlink:title=" ">
<polygon fill="white" stroke="black" points="196.5,-38.5 196.5,-57.5 300.5,-57.5 300.5,-38.5 196.5,-38.5"/>
<text text-anchor="middle" x="248.5" y="-45.5" font-family="Helvetica,sans-Serif" font-size="10.00">TcpListener::getPort</text>
</a>
</g>
</g>
<!-- Node1&#45;&gt;Node4 -->
<g id="edge3" class="edge">
<title>Node1&#45;&gt;Node4</title>
<path fill="none" stroke="midnightblue" d="M137.05,-59.79C153.18,-58.07 170.32,-56.24 186.16,-54.55"/>
<polygon fill="midnightblue" stroke="midnightblue" points="186.78,-58 196.35,-53.46 186.04,-51.04 186.78,-58"/>
</g>
<!-- Node5 -->
<g id="node5" class="node">
<title>Node5</title>
<g id="a_node5"><a xlink:href="classClient.html#a6db98f3365d188e1ee4e9f1cfd394135" target="_top" xlink:title=" ">
<polygon fill="white" stroke="black" points="184.5,-0.5 184.5,-19.5 312.5,-19.5 312.5,-0.5 184.5,-0.5"/>
<text text-anchor="middle" x="248.5" y="-7.5" font-family="Helvetica,sans-Serif" font-size="10.00">Client::setServerManager</text>
</a>
</g>
</g>
<!-- Node1&#45;&gt;Node5 -->
<g id="edge4" class="edge">
<title>Node1&#45;&gt;Node5</title>
<path fill="none" stroke="midnightblue" d="M107.52,-51.98C126.95,-44.58 151.06,-35.81 173,-29 180.79,-26.58 189.12,-24.24 197.27,-22.06"/>
<polygon fill="midnightblue" stroke="midnightblue" points="198.28,-25.42 207.08,-19.51 196.52,-18.64 198.28,-25.42"/>
</g>
</g>
</svg>
