<?xml version="1.0" encoding="UTF-8" standalone="no"?>
<!DOCTYPE svg PUBLIC "-//W3C//DTD SVG 1.1//EN"
 "http://www.w3.org/Graphics/SVG/1.1/DTD/svg11.dtd">
<!-- Generated by graphviz version 2.43.0 (0)
 -->
<!-- Title: ServerManager Pages: 1 -->
<svg width="1999pt" height="680pt"
 viewBox="0.00 0.00 1999.00 679.80" xmlns="http://www.w3.org/2000/svg" xmlns:xlink="http://www.w3.org/1999/xlink">
<g id="graph0" class="graph" transform="scale(1 1) rotate(0) translate(4 675.8)">
<title>ServerManager</title>
<polygon fill="white" stroke="transparent" points="-4,4 -4,-675.8 1995,-675.8 1995,4 -4,4"/>
<!-- Node1 -->
<g id="node1" class="node">
<title>Node1</title>
<g id="a_node1"><a xlink:title=" ">
<polygon fill="#bfbfbf" stroke="black" points="1505.5,-148.3 1505.5,-167.3 1588.5,-167.3 1588.5,-148.3 1505.5,-148.3"/>
<text text-anchor="middle" x="1547" y="-155.3" font-family="Helvetica,sans-Serif" font-size="10.00">ServerManager</text>
</a>
</g>
</g>
<!-- Node12 -->
<g id="node12" class="node">
<title>Node12</title>
<g id="a_node12"><a xlink:href="classClient.html" target="_top" xlink:title=" ">
<polygon fill="white" stroke="black" points="1744,-285.3 1744,-304.3 1786,-304.3 1786,-285.3 1744,-285.3"/>
<text text-anchor="middle" x="1765" y="-292.3" font-family="Helvetica,sans-Serif" font-size="10.00">Client</text>
</a>
</g>
</g>
<!-- Node1&#45;&gt;Node12 -->
<g id="edge31" class="edge">
<title>Node1&#45;&gt;Node12</title>
<path fill="none" stroke="#9a32cd" stroke-dasharray="5,2" d="M1598.53,-165.18C1646.42,-172.57 1712.46,-183.95 1722,-191.8 1751.53,-216.09 1760.51,-264.42 1763.06,-285.08"/>
<polygon fill="#9a32cd" stroke="#9a32cd" points="1599.02,-161.72 1588.61,-163.67 1597.96,-168.64 1599.02,-161.72"/>
<text text-anchor="middle" x="1683.5" y="-194.8" font-family="Helvetica,sans-Serif" font-size="10.00"> _serverManager</text>
</g>
<!-- Node2 -->
<g id="node2" class="node">
<title>Node2</title>
<g id="a_node2"><a xlink:title=" ">
<polygon fill="white" stroke="#bfbfbf" points="1208,-266.3 1208,-285.3 1346,-285.3 1346,-266.3 1208,-266.3"/>
<text text-anchor="middle" x="1277" y="-273.3" font-family="Helvetica,sans-Serif" font-size="10.00">std::vector&lt; ServerConfig &gt;</text>
</a>
</g>
</g>
<!-- Node2&#45;&gt;Node1 -->
<g id="edge1" class="edge">
<title>Node2&#45;&gt;Node1</title>
<path fill="none" stroke="#9a32cd" stroke-dasharray="5,2" d="M1309.17,-262.08C1364.07,-237.91 1476.68,-188.32 1524.14,-167.43"/>
<polygon fill="#9a32cd" stroke="#9a32cd" points="1307.67,-258.91 1299.93,-266.15 1310.49,-265.32 1307.67,-258.91"/>
<text text-anchor="middle" x="1406.5" y="-239.8" font-family="Helvetica,sans-Serif" font-size="10.00"> configs_</text>
</g>
<!-- Node2&#45;&gt;Node12 -->
<g id="edge17" class="edge">
<title>Node2&#45;&gt;Node12</title>
<path fill="none" stroke="#9a32cd" stroke-dasharray="5,2" d="M1356.23,-278.86C1471.09,-283.35 1678.8,-291.47 1743.92,-294.02"/>
<polygon fill="#9a32cd" stroke="#9a32cd" points="1356.22,-275.36 1346.09,-278.46 1355.94,-282.35 1356.22,-275.36"/>
<text text-anchor="middle" x="1547" y="-291.8" font-family="Helvetica,sans-Serif" font-size="10.00"> _configs</text>
</g>
<!-- Node3 -->
<g id="node3" class="node">
<title>Node3</title>
<g id="a_node3"><a xlink:href="classServerConfig.html" target="_top" xlink:title="Configuration of one server { } block Represents a virtual server (nginx&#45;like style).">
<polygon fill="white" stroke="black" points="1040,-290.3 1040,-309.3 1114,-309.3 1114,-290.3 1040,-290.3"/>
<text text-anchor="middle" x="1077" y="-297.3" font-family="Helvetica,sans-Serif" font-size="10.00">ServerConfig</text>
</a>
</g>
</g>
<!-- Node3&#45;&gt;Node2 -->
<g id="edge2" class="edge">
<title>Node3&#45;&gt;Node2</title>
<path fill="none" stroke="#9a32cd" stroke-dasharray="5,2" d="M1124.3,-290.96C1126.9,-290.55 1129.48,-290.16 1132,-289.8 1156.62,-286.33 1183.74,-283.45 1207.73,-281.22"/>
<polygon fill="#9a32cd" stroke="#9a32cd" points="1123.52,-287.54 1114.24,-292.65 1124.68,-294.44 1123.52,-287.54"/>
<text text-anchor="middle" x="1161" y="-292.8" font-family="Helvetica,sans-Serif" font-size="10.00"> elements</text>
</g>
<!-- Node3&#45;&gt;Node12 -->
<g id="edge24" class="edge">
<title>Node3&#45;&gt;Node12</title>
<path fill="none" stroke="#9a32cd" stroke-dasharray="5,2" d="M1124.21,-300.71C1126.85,-300.75 1129.46,-300.78 1132,-300.8 1394.21,-303.23 1460.44,-319.39 1722,-300.8 1729.2,-300.29 1737.04,-299.29 1743.98,-298.25"/>
<polygon fill="#9a32cd" stroke="#9a32cd" points="1124.07,-297.21 1114.02,-300.56 1123.96,-304.21 1124.07,-297.21"/>
<text text-anchor="middle" x="1406.5" y="-311.8" font-family="Helvetica,sans-Serif" font-size="10.00"> _cgiServerConfig</text>
</g>
<!-- Node4 -->
<g id="node4" class="node">
<title>Node4</title>
<g id="a_node4"><a xlink:title=" ">
<polygon fill="white" stroke="#bfbfbf" points="712,-276.3 712,-295.3 858,-295.3 858,-276.3 712,-276.3"/>
<text text-anchor="middle" x="785" y="-283.3" font-family="Helvetica,sans-Serif" font-size="10.00">std::vector&lt; LocationConfig &gt;</text>
</a>
</g>
</g>
<!-- Node4&#45;&gt;Node3 -->
<g id="edge3" class="edge">
<title>Node4&#45;&gt;Node3</title>
<path fill="none" stroke="#9a32cd" stroke-dasharray="5,2" d="M868.05,-289.76C924.55,-292.49 996.88,-295.98 1039.64,-298.05"/>
<polygon fill="#9a32cd" stroke="#9a32cd" points="868.22,-286.27 858.06,-289.28 867.88,-293.26 868.22,-286.27"/>
<text text-anchor="middle" x="949" y="-299.8" font-family="Helvetica,sans-Serif" font-size="10.00"> locations_</text>
</g>
<!-- Node5 -->
<g id="node5" class="node">
<title>Node5</title>
<g id="a_node5"><a xlink:href="classLocationConfig.html" target="_top" xlink:title="Represents the configuration for a specific location within a server block.">
<polygon fill="white" stroke="black" points="526,-272.3 526,-291.3 608,-291.3 608,-272.3 526,-272.3"/>
<text text-anchor="middle" x="567" y="-279.3" font-family="Helvetica,sans-Serif" font-size="10.00">LocationConfig</text>
</a>
</g>
</g>
<!-- Node5&#45;&gt;Node4 -->
<g id="edge4" class="edge">
<title>Node5&#45;&gt;Node4</title>
<path fill="none" stroke="#9a32cd" stroke-dasharray="5,2" d="M618.39,-282.73C646.16,-283.25 681.12,-283.9 711.75,-284.46"/>
<polygon fill="#9a32cd" stroke="#9a32cd" points="618.18,-279.23 608.12,-282.54 618.06,-286.23 618.18,-279.23"/>
<text text-anchor="middle" x="660" y="-286.8" font-family="Helvetica,sans-Serif" font-size="10.00"> elements</text>
</g>
<!-- Node6 -->
<g id="node6" class="node">
<title>Node6</title>
<g id="a_node6"><a xlink:title=" ">
<polygon fill="white" stroke="#bfbfbf" points="278.5,-396.8 278.5,-426.8 388.5,-426.8 388.5,-396.8 278.5,-396.8"/>
<text text-anchor="start" x="286.5" y="-414.8" font-family="Helvetica,sans-Serif" font-size="10.00">std::map&lt; std::string,</text>
<text text-anchor="middle" x="333.5" y="-403.8" font-family="Helvetica,sans-Serif" font-size="10.00"> std::string &gt;</text>
</a>
</g>
</g>
<!-- Node6&#45;&gt;Node5 -->
<g id="edge5" class="edge">
<title>Node6&#45;&gt;Node5</title>
<path fill="none" stroke="#9a32cd" stroke-dasharray="5,2" d="M398.84,-407.19C441.47,-402.8 492.34,-394.61 508,-379.8 532.6,-356.55 505.94,-333.06 526,-305.8 530.42,-299.8 536.82,-295.01 543.22,-291.34"/>
<polygon fill="#9a32cd" stroke="#9a32cd" points="398.38,-403.71 388.76,-408.17 399.05,-410.68 398.38,-403.71"/>
<text text-anchor="middle" x="461" y="-407.8" font-family="Helvetica,sans-Serif" font-size="10.00"> cgi_handlers_</text>
</g>
<!-- Node14 -->
<g id="node14" class="node">
<title>Node14</title>
<g id="a_node14"><a xlink:href="classHttpRequest.html" target="_top" xlink:title=" ">
<polygon fill="white" stroke="black" points="531,-553.3 531,-572.3 603,-572.3 603,-553.3 531,-553.3"/>
<text text-anchor="middle" x="567" y="-560.3" font-family="Helvetica,sans-Serif" font-size="10.00">HttpRequest</text>
</a>
</g>
</g>
<!-- Node6&#45;&gt;Node14 -->
<g id="edge22" class="edge">
<title>Node6&#45;&gt;Node14</title>
<path fill="none" stroke="#9a32cd" stroke-dasharray="5,2" d="M375.49,-431.42C382.37,-434.82 389.41,-438.37 396,-441.8 404.12,-446.03 405.81,-447.71 414,-451.8 454.93,-472.27 471.46,-466.26 508,-493.8 530.74,-510.95 550.46,-538.59 559.96,-553.14"/>
<polygon fill="#9a32cd" stroke="#9a32cd" points="376.78,-428.16 366.26,-426.9 373.7,-434.44 376.78,-428.16"/>
<text text-anchor="middle" x="461" y="-496.8" font-family="Helvetica,sans-Serif" font-size="10.00"> _headers</text>
</g>
<!-- Node16 -->
<g id="node16" class="node">
<title>Node16</title>
<g id="a_node16"><a xlink:href="classHttpResponse.html" target="_top" xlink:title=" ">
<polygon fill="white" stroke="black" points="527,-438.3 527,-457.3 607,-457.3 607,-438.3 527,-438.3"/>
<text text-anchor="middle" x="567" y="-445.3" font-family="Helvetica,sans-Serif" font-size="10.00">HttpResponse</text>
</a>
</g>
</g>
<!-- Node6&#45;&gt;Node16 -->
<g id="edge28" class="edge">
<title>Node6&#45;&gt;Node16</title>
<path fill="none" stroke="#9a32cd" stroke-dasharray="5,2" d="M398.44,-420.33C431.25,-424.87 471.82,-430.77 508,-436.8 514.07,-437.81 520.47,-438.96 526.73,-440.11"/>
<polygon fill="#9a32cd" stroke="#9a32cd" points="398.9,-416.86 388.52,-418.96 397.95,-423.79 398.9,-416.86"/>
<text text-anchor="middle" x="461" y="-439.8" font-family="Helvetica,sans-Serif" font-size="10.00"> _headers</text>
</g>
<!-- Node7 -->
<g id="node7" class="node">
<title>Node7</title>
<g id="a_node7"><a xlink:title=" ">
<polygon fill="white" stroke="#bfbfbf" points="132,-320.3 132,-339.3 192,-339.3 192,-320.3 132,-320.3"/>
<text text-anchor="middle" x="162" y="-327.3" font-family="Helvetica,sans-Serif" font-size="10.00">std::string</text>
</a>
</g>
</g>
<!-- Node7&#45;&gt;Node3 -->
<g id="edge11" class="edge">
<title>Node7&#45;&gt;Node3</title>
<path fill="none" stroke="#9a32cd" stroke-dasharray="5,2" d="M202.35,-329.44C359.85,-327.91 940.21,-321.65 1022,-311.8 1027.82,-311.1 1033.93,-310.05 1039.86,-308.86"/>
<polygon fill="#9a32cd" stroke="#9a32cd" points="202.14,-325.94 192.18,-329.53 202.21,-332.94 202.14,-325.94"/>
<text text-anchor="middle" x="567" y="-360.8" font-family="Helvetica,sans-Serif" font-size="10.00"> host_address_</text>
<text text-anchor="middle" x="567" y="-349.8" font-family="Helvetica,sans-Serif" font-size="10.00">redirect_url_</text>
<text text-anchor="middle" x="567" y="-338.8" font-family="Helvetica,sans-Serif" font-size="10.00">root_</text>
<text text-anchor="middle" x="567" y="-327.8" font-family="Helvetica,sans-Serif" font-size="10.00">server_name_</text>
</g>
<!-- Node7&#45;&gt;Node5 -->
<g id="edge8" class="edge">
<title>Node7&#45;&gt;Node5</title>
<path fill="none" stroke="#9a32cd" stroke-dasharray="5,2" d="M184.16,-314.33C205.03,-300.09 238.46,-279.99 271,-271.8 318.03,-259.97 456.74,-271.1 525.88,-277.7"/>
<polygon fill="#9a32cd" stroke="#9a32cd" points="181.95,-311.6 175.76,-320.2 185.96,-317.34 181.95,-311.6"/>
<text text-anchor="middle" x="333.5" y="-307.8" font-family="Helvetica,sans-Serif" font-size="10.00"> path_</text>
<text text-anchor="middle" x="333.5" y="-296.8" font-family="Helvetica,sans-Serif" font-size="10.00">redirect_url_</text>
<text text-anchor="middle" x="333.5" y="-285.8" font-family="Helvetica,sans-Serif" font-size="10.00">root_</text>
<text text-anchor="middle" x="333.5" y="-274.8" font-family="Helvetica,sans-Serif" font-size="10.00">upload_store_</text>
</g>
<!-- Node7&#45;&gt;Node6 -->
<g id="edge6" class="edge">
<title>Node7&#45;&gt;Node6</title>
<path fill="none" stroke="#9a32cd" stroke-dasharray="5,2" d="M174.89,-348.23C183.33,-359.86 195.67,-374.24 210,-382.8 230.54,-395.08 255.92,-402.16 278.24,-406.25"/>
<polygon fill="#9a32cd" stroke="#9a32cd" points="177.55,-345.92 169,-339.67 171.78,-349.89 177.55,-345.92"/>
<text text-anchor="middle" x="231.5" y="-413.8" font-family="Helvetica,sans-Serif" font-size="10.00"> elements</text>
<text text-anchor="middle" x="231.5" y="-402.8" font-family="Helvetica,sans-Serif" font-size="10.00">keys</text>
</g>
<!-- Node9 -->
<g id="node9" class="node">
<title>Node9</title>
<g id="a_node9"><a xlink:title=" ">
<polygon fill="white" stroke="#bfbfbf" points="271,-202.3 271,-221.3 396,-221.3 396,-202.3 271,-202.3"/>
<text text-anchor="middle" x="333.5" y="-209.3" font-family="Helvetica,sans-Serif" font-size="10.00">std::vector&lt; std::string &gt;</text>
</a>
</g>
</g>
<!-- Node7&#45;&gt;Node9 -->
<g id="edge10" class="edge">
<title>Node7&#45;&gt;Node9</title>
<path fill="none" stroke="#9a32cd" stroke-dasharray="5,2" d="M166.88,-310.2C172.41,-287.79 184.79,-251.75 210,-232.8 227.25,-219.83 249.71,-213.79 270.69,-211.25"/>
<polygon fill="#9a32cd" stroke="#9a32cd" points="163.4,-309.73 164.64,-320.25 170.24,-311.25 163.4,-309.73"/>
<text text-anchor="middle" x="231.5" y="-235.8" font-family="Helvetica,sans-Serif" font-size="10.00"> elements</text>
</g>
<!-- Node10 -->
<g id="node10" class="node">
<title>Node10</title>
<g id="a_node10"><a xlink:title=" ">
<polygon fill="white" stroke="#bfbfbf" points="414,-347.8 414,-377.8 508,-377.8 508,-347.8 414,-347.8"/>
<text text-anchor="start" x="422" y="-365.8" font-family="Helvetica,sans-Serif" font-size="10.00">std::map&lt; int, std</text>
<text text-anchor="middle" x="461" y="-354.8" font-family="Helvetica,sans-Serif" font-size="10.00">::string &gt;</text>
</a>
</g>
</g>
<!-- Node7&#45;&gt;Node10 -->
<g id="edge13" class="edge">
<title>Node7&#45;&gt;Node10</title>
<path fill="none" stroke="#9a32cd" stroke-dasharray="5,2" d="M201.38,-341.96C204.28,-342.65 207.17,-343.28 210,-343.8 280.2,-356.77 363.05,-360.92 413.54,-362.23"/>
<polygon fill="#9a32cd" stroke="#9a32cd" points="202.16,-338.54 191.6,-339.38 200.37,-345.31 202.16,-338.54"/>
<text text-anchor="middle" x="231.5" y="-352.8" font-family="Helvetica,sans-Serif" font-size="10.00"> elements</text>
</g>
<!-- Node7&#45;&gt;Node12 -->
<g id="edge30" class="edge">
<title>Node7&#45;&gt;Node12</title>
<path fill="none" stroke="#9a32cd" stroke-dasharray="5,2" d="M165.34,-310.1C169.54,-283.54 180.84,-236.52 210,-209.8 251.84,-171.47 275.75,-173.8 332.5,-173.8 332.5,-173.8 332.5,-173.8 661,-173.8 1012.14,-173.8 1101.08,-183.37 1449,-230.8 1561.52,-246.14 1694.2,-277.54 1743.89,-289.77"/>
<polygon fill="#9a32cd" stroke="#9a32cd" points="161.86,-309.72 163.94,-320.11 168.79,-310.69 161.86,-309.72"/>
<text text-anchor="middle" x="949" y="-195.8" font-family="Helvetica,sans-Serif" font-size="10.00"> _clientIp</text>
<text text-anchor="middle" x="949" y="-184.8" font-family="Helvetica,sans-Serif" font-size="10.00">_outBuffer</text>
</g>
<!-- Node13 -->
<g id="node13" class="node">
<title>Node13</title>
<g id="a_node13"><a xlink:href="classHttpParser.html" target="_top" xlink:title=" ">
<polygon fill="white" stroke="black" points="753,-553.3 753,-572.3 817,-572.3 817,-553.3 753,-553.3"/>
<text text-anchor="middle" x="785" y="-560.3" font-family="Helvetica,sans-Serif" font-size="10.00">HttpParser</text>
</a>
</g>
</g>
<!-- Node7&#45;&gt;Node13 -->
<g id="edge23" class="edge">
<title>Node7&#45;&gt;Node13</title>
<path fill="none" stroke="#9a32cd" stroke-dasharray="5,2" d="M162.71,-349.73C163.14,-405.55 173.27,-562.63 271,-613.8 442.66,-703.68 690.88,-605.06 763.39,-572.49"/>
<polygon fill="#9a32cd" stroke="#9a32cd" points="166.21,-349.44 162.73,-339.44 159.21,-349.43 166.21,-349.44"/>
<text text-anchor="middle" x="461" y="-663.8" font-family="Helvetica,sans-Serif" font-size="10.00"> _buffer</text>
<text text-anchor="middle" x="461" y="-652.8" font-family="Helvetica,sans-Serif" font-size="10.00">_chunkBuffer</text>
</g>
<!-- Node7&#45;&gt;Node14 -->
<g id="edge21" class="edge">
<title>Node7&#45;&gt;Node14</title>
<path fill="none" stroke="#9a32cd" stroke-dasharray="5,2" d="M165.58,-349.36C172.75,-394.83 197.47,-507.42 271,-554.8 352.18,-607.11 473.75,-586.73 532.22,-572.34"/>
<polygon fill="#9a32cd" stroke="#9a32cd" points="169.02,-348.71 164.12,-339.32 162.1,-349.72 169.02,-348.71"/>
<text text-anchor="middle" x="333.5" y="-601.8" font-family="Helvetica,sans-Serif" font-size="10.00"> _path</text>
<text text-anchor="middle" x="333.5" y="-590.8" font-family="Helvetica,sans-Serif" font-size="10.00">_query</text>
</g>
<!-- Node7&#45;&gt;Node16 -->
<g id="edge27" class="edge">
<title>Node7&#45;&gt;Node16</title>
<path fill="none" stroke="#9a32cd" stroke-dasharray="5,2" d="M167.06,-349.5C172.71,-371.68 185.17,-407.05 210,-425.8 305.73,-498.12 460.47,-473.57 530.07,-457.36"/>
<polygon fill="#9a32cd" stroke="#9a32cd" points="170.42,-348.49 164.75,-339.54 163.6,-350.07 170.42,-348.49"/>
<text text-anchor="middle" x="333.5" y="-477.8" font-family="Helvetica,sans-Serif" font-size="10.00"> _reasonPhrase</text>
</g>
<!-- Node18 -->
<g id="node18" class="node">
<title>Node18</title>
<g id="a_node18"><a xlink:href="classCgiProcess.html" target="_top" xlink:title=" ">
<polygon fill="white" stroke="black" points="626,-18.3 626,-37.3 694,-37.3 694,-18.3 626,-18.3"/>
<text text-anchor="middle" x="660" y="-25.3" font-family="Helvetica,sans-Serif" font-size="10.00">CgiProcess</text>
</a>
</g>
</g>
<!-- Node7&#45;&gt;Node18 -->
<g id="edge33" class="edge">
<title>Node7&#45;&gt;Node18</title>
<path fill="none" stroke="#9a32cd" stroke-dasharray="5,2" d="M162.58,-310.27C162.59,-254.16 171.57,-93.14 271,-39.8 388.29,23.12 555.54,-3.9 625.85,-19.54"/>
<polygon fill="#9a32cd" stroke="#9a32cd" points="159.08,-310.33 162.68,-320.3 166.08,-310.27 159.08,-310.33"/>
<text text-anchor="middle" x="333.5" y="-108.8" font-family="Helvetica,sans-Serif" font-size="10.00"> complete_response_</text>
<text text-anchor="middle" x="333.5" y="-97.8" font-family="Helvetica,sans-Serif" font-size="10.00">interpreter_</text>
<text text-anchor="middle" x="333.5" y="-86.8" font-family="Helvetica,sans-Serif" font-size="10.00">request_body_</text>
<text text-anchor="middle" x="333.5" y="-75.8" font-family="Helvetica,sans-Serif" font-size="10.00">response_body_</text>
<text text-anchor="start" x="286.5" y="-64.8" font-family="Helvetica,sans-Serif" font-size="10.00">response_headers</text>
<text text-anchor="middle" x="333.5" y="-53.8" font-family="Helvetica,sans-Serif" font-size="10.00">_</text>
<text text-anchor="middle" x="333.5" y="-42.8" font-family="Helvetica,sans-Serif" font-size="10.00">script_path_</text>
</g>
<!-- Node23 -->
<g id="node23" class="node">
<title>Node23</title>
<g id="a_node23"><a xlink:href="classTcpListener.html" target="_top" xlink:title=" ">
<polygon fill="white" stroke="black" points="300.5,-126.3 300.5,-145.3 366.5,-145.3 366.5,-126.3 300.5,-126.3"/>
<text text-anchor="middle" x="333.5" y="-133.3" font-family="Helvetica,sans-Serif" font-size="10.00">TcpListener</text>
</a>
</g>
</g>
<!-- Node7&#45;&gt;Node23 -->
<g id="edge39" class="edge">
<title>Node7&#45;&gt;Node23</title>
<path fill="none" stroke="#9a32cd" stroke-dasharray="5,2" d="M165.3,-310.14C170.67,-267.76 185.5,-169.91 210,-148.8 234.63,-127.58 273.2,-126.98 300.47,-129.99"/>
<polygon fill="#9a32cd" stroke="#9a32cd" points="161.82,-309.73 164.08,-320.08 168.77,-310.58 161.82,-309.73"/>
<text text-anchor="middle" x="231.5" y="-151.8" font-family="Helvetica,sans-Serif" font-size="10.00"> host_</text>
</g>
<!-- Node8 -->
<g id="node8" class="node">
<title>Node8</title>
<g id="a_node8"><a xlink:title=" ">
<polygon fill="white" stroke="#bfbfbf" points="0,-314.8 0,-344.8 95,-344.8 95,-314.8 0,-314.8"/>
<text text-anchor="start" x="8" y="-332.8" font-family="Helvetica,sans-Serif" font-size="10.00">std::basic_string&lt;</text>
<text text-anchor="middle" x="47.5" y="-321.8" font-family="Helvetica,sans-Serif" font-size="10.00"> Char &gt;</text>
</a>
</g>
</g>
<!-- Node8&#45;&gt;Node7 -->
<g id="edge7" class="edge">
<title>Node8&#45;&gt;Node7</title>
<path fill="none" stroke="midnightblue" d="M105.53,-329.8C114.68,-329.8 123.8,-329.8 131.93,-329.8"/>
<polygon fill="midnightblue" stroke="midnightblue" points="105.23,-326.3 95.23,-329.8 105.23,-333.3 105.23,-326.3"/>
</g>
<!-- Node9&#45;&gt;Node3 -->
<g id="edge14" class="edge">
<title>Node9&#45;&gt;Node3</title>
<path fill="none" stroke="#9a32cd" stroke-dasharray="5,2" d="M406.72,-217.05C437.89,-219.47 474.77,-222.52 508,-225.8 736.88,-248.39 795.93,-243.51 1022,-285.8 1028.57,-287.03 1035.52,-288.61 1042.17,-290.27"/>
<polygon fill="#9a32cd" stroke="#9a32cd" points="406.62,-213.53 396.38,-216.26 406.08,-220.51 406.62,-213.53"/>
<text text-anchor="middle" x="660" y="-244.8" font-family="Helvetica,sans-Serif" font-size="10.00"> indexes_</text>
</g>
<!-- Node9&#45;&gt;Node5 -->
<g id="edge9" class="edge">
<title>Node9&#45;&gt;Node5</title>
<path fill="none" stroke="#9a32cd" stroke-dasharray="5,2" d="M405.32,-223.03C444.68,-229.79 489.37,-238.48 508,-245.8 524.77,-252.39 542.07,-263.85 553.36,-272.07"/>
<polygon fill="#9a32cd" stroke="#9a32cd" points="405.89,-219.58 395.45,-221.35 404.72,-226.48 405.89,-219.58"/>
<text text-anchor="middle" x="461" y="-259.8" font-family="Helvetica,sans-Serif" font-size="10.00"> allowed_methods_</text>
<text text-anchor="middle" x="461" y="-248.8" font-family="Helvetica,sans-Serif" font-size="10.00">indexes_</text>
</g>
<!-- Node10&#45;&gt;Node3 -->
<g id="edge12" class="edge">
<title>Node10&#45;&gt;Node3</title>
<path fill="none" stroke="#9a32cd" stroke-dasharray="5,2" d="M518.33,-374.89C520.92,-375.24 523.48,-375.55 526,-375.8 562.26,-379.45 571.59,-377.29 608,-375.8 792.46,-368.24 849.97,-408.82 1022,-341.8 1040.15,-334.73 1057.21,-319.48 1067.12,-309.44"/>
<polygon fill="#9a32cd" stroke="#9a32cd" points="518.74,-371.41 508.32,-373.35 517.67,-378.33 518.74,-371.41"/>
<text text-anchor="middle" x="660" y="-377.8" font-family="Helvetica,sans-Serif" font-size="10.00"> error_pages_</text>
</g>
<!-- Node11 -->
<g id="node11" class="node">
<title>Node11</title>
<g id="a_node11"><a xlink:title=" ">
<polygon fill="white" stroke="#bfbfbf" points="1869,-164.3 1869,-183.3 1991,-183.3 1991,-164.3 1869,-164.3"/>
<text text-anchor="middle" x="1930" y="-171.3" font-family="Helvetica,sans-Serif" font-size="10.00">std::map&lt; int, Client * &gt;</text>
</a>
</g>
</g>
<!-- Node11&#45;&gt;Node1 -->
<g id="edge15" class="edge">
<title>Node11&#45;&gt;Node1</title>
<path fill="none" stroke="#9a32cd" stroke-dasharray="5,2" d="M1858.5,-170.84C1779.22,-167.51 1653.17,-162.22 1588.77,-159.51"/>
<polygon fill="#9a32cd" stroke="#9a32cd" points="1858.75,-174.35 1868.89,-171.28 1859.04,-167.36 1858.75,-174.35"/>
<text text-anchor="middle" x="1765" y="-181.8" font-family="Helvetica,sans-Serif" font-size="10.00"> cgi_pipes_</text>
<text text-anchor="middle" x="1765" y="-170.8" font-family="Helvetica,sans-Serif" font-size="10.00">clients_</text>
</g>
<!-- Node12&#45;&gt;Node11 -->
<g id="edge16" class="edge">
<title>Node12&#45;&gt;Node11</title>
<path fill="none" stroke="#9a32cd" stroke-dasharray="5,2" d="M1787.44,-278.89C1821.7,-253.45 1887.8,-204.38 1915.87,-183.55"/>
<polygon fill="#9a32cd" stroke="#9a32cd" points="1785.01,-276.33 1779.06,-285.1 1789.18,-281.95 1785.01,-276.33"/>
<text text-anchor="middle" x="1829.5" y="-264.8" font-family="Helvetica,sans-Serif" font-size="10.00"> elements</text>
</g>
<!-- Node13&#45;&gt;Node12 -->
<g id="edge18" class="edge">
<title>Node13&#45;&gt;Node12</title>
<path fill="none" stroke="#9a32cd" stroke-dasharray="5,2" d="M815.45,-549.17C867.06,-526.57 977.71,-483.8 1076,-483.8 1076,-483.8 1076,-483.8 1548,-483.8 1626.63,-483.8 1664.23,-505.15 1722,-451.8 1765.32,-411.79 1765.9,-332.47 1764.65,-304.69"/>
<polygon fill="#9a32cd" stroke="#9a32cd" points="813.94,-546.01 806.23,-553.27 816.79,-552.41 813.94,-546.01"/>
<text text-anchor="middle" x="1277" y="-486.8" font-family="Helvetica,sans-Serif" font-size="10.00"> _parser</text>
</g>
<!-- Node14&#45;&gt;Node13 -->
<g id="edge19" class="edge">
<title>Node14&#45;&gt;Node13</title>
<path fill="none" stroke="#9a32cd" stroke-dasharray="5,2" d="M613.37,-562.8C655.16,-562.8 716.08,-562.8 752.69,-562.8"/>
<polygon fill="#9a32cd" stroke="#9a32cd" points="613.18,-559.3 603.18,-562.8 613.18,-566.3 613.18,-559.3"/>
<text text-anchor="middle" x="660" y="-565.8" font-family="Helvetica,sans-Serif" font-size="10.00"> _request</text>
</g>
<!-- Node15 -->
<g id="node15" class="node">
<title>Node15</title>
<g id="a_node15"><a xlink:title=" ">
<polygon fill="white" stroke="#bfbfbf" points="283.5,-526.3 283.5,-545.3 383.5,-545.3 383.5,-526.3 283.5,-526.3"/>
<text text-anchor="middle" x="333.5" y="-533.3" font-family="Helvetica,sans-Serif" font-size="10.00">std::vector&lt; char &gt;</text>
</a>
</g>
</g>
<!-- Node15&#45;&gt;Node14 -->
<g id="edge20" class="edge">
<title>Node15&#45;&gt;Node14</title>
<path fill="none" stroke="#9a32cd" stroke-dasharray="5,2" d="M393.74,-542.71C437.14,-547.77 494.57,-554.47 530.91,-558.71"/>
<polygon fill="#9a32cd" stroke="#9a32cd" points="393.93,-539.21 383.6,-541.53 393.12,-546.16 393.93,-539.21"/>
<text text-anchor="middle" x="461" y="-557.8" font-family="Helvetica,sans-Serif" font-size="10.00"> _body</text>
</g>
<!-- Node15&#45;&gt;Node16 -->
<g id="edge26" class="edge">
<title>Node15&#45;&gt;Node16</title>
<path fill="none" stroke="#9a32cd" stroke-dasharray="5,2" d="M393.77,-529.85C435.95,-524.87 488.48,-516.96 508,-506.8 530.68,-495 549.86,-471.09 559.44,-457.61"/>
<polygon fill="#9a32cd" stroke="#9a32cd" points="393.1,-526.4 383.57,-531.02 393.9,-533.35 393.1,-526.4"/>
<text text-anchor="middle" x="461" y="-529.8" font-family="Helvetica,sans-Serif" font-size="10.00"> _body</text>
</g>
<!-- Node16&#45;&gt;Node12 -->
<g id="edge25" class="edge">
<title>Node16&#45;&gt;Node12</title>
<path fill="none" stroke="#9a32cd" stroke-dasharray="5,2" d="M617.48,-444.21C661.24,-441.34 726.83,-437.8 784,-437.8 784,-437.8 784,-437.8 1548,-437.8 1644.69,-437.8 1731.32,-336.94 1756.59,-304.63"/>
<polygon fill="#9a32cd" stroke="#9a32cd" points="617.13,-440.72 607.39,-444.88 617.6,-447.71 617.13,-440.72"/>
<text text-anchor="middle" x="1161" y="-440.8" font-family="Helvetica,sans-Serif" font-size="10.00"> _response</text>
</g>
<!-- Node17 -->
<g id="node17" class="node">
<title>Node17</title>
<g id="a_node17"><a xlink:title=" ">
<polygon fill="white" stroke="#bfbfbf" points="1467,-550.3 1467,-569.3 1627,-569.3 1627,-550.3 1467,-550.3"/>
<text text-anchor="middle" x="1547" y="-557.3" font-family="Helvetica,sans-Serif" font-size="10.00">std::queue&lt; PendingResponse &gt;</text>
</a>
</g>
</g>
<!-- Node17&#45;&gt;Node12 -->
<g id="edge29" class="edge">
<title>Node17&#45;&gt;Node12</title>
<path fill="none" stroke="#9a32cd" stroke-dasharray="5,2" d="M1637.43,-565.32C1667.92,-562.5 1699.86,-553.59 1722,-531.8 1755.06,-499.26 1762.37,-344.93 1763.72,-304.51"/>
<polygon fill="#9a32cd" stroke="#9a32cd" points="1636.88,-561.85 1627.16,-566.06 1637.38,-568.83 1636.88,-561.85"/>
<text text-anchor="middle" x="1683.5" y="-566.8" font-family="Helvetica,sans-Serif" font-size="10.00"> _responseQueue</text>
</g>
<!-- Node18&#45;&gt;Node12 -->
<g id="edge32" class="edge">
<title>Node18&#45;&gt;Node12</title>
<path fill="none" stroke="#9a32cd" stroke-dasharray="5,2" d="M704.44,-27.56C760.65,-27.26 861.64,-26.8 948,-26.8 948,-26.8 948,-26.8 1548,-26.8 1647.82,-26.8 1665.31,-86.65 1722,-168.8 1748.32,-206.95 1759.2,-262.87 1762.66,-285.14"/>
<polygon fill="#9a32cd" stroke="#9a32cd" points="704.13,-24.06 694.14,-27.61 704.16,-31.06 704.13,-24.06"/>
<text text-anchor="middle" x="1161" y="-29.8" font-family="Helvetica,sans-Serif" font-size="10.00"> _cgiProcess</text>
</g>
<!-- Node19 -->
<g id="node19" class="node">
<title>Node19</title>
<g id="a_node19"><a xlink:href="classRequestProcessor.html" target="_top" xlink:title=" ">
<polygon fill="white" stroke="black" points="1498,-512.3 1498,-531.3 1596,-531.3 1596,-512.3 1498,-512.3"/>
<text text-anchor="middle" x="1547" y="-519.3" font-family="Helvetica,sans-Serif" font-size="10.00">RequestProcessor</text>
</a>
</g>
</g>
<!-- Node19&#45;&gt;Node12 -->
<g id="edge34" class="edge">
<title>Node19&#45;&gt;Node12</title>
<path fill="none" stroke="#9a32cd" stroke-dasharray="5,2" d="M1606.41,-520.8C1650.31,-518.79 1705.57,-513.16 1722,-497.8 1750.85,-470.82 1761.1,-340.87 1763.44,-304.36"/>
<polygon fill="#9a32cd" stroke="#9a32cd" points="1606.24,-517.31 1596.39,-521.21 1606.52,-524.3 1606.24,-517.31"/>
<text text-anchor="middle" x="1683.5" y="-519.8" font-family="Helvetica,sans-Serif" font-size="10.00"> _processor</text>
</g>
<!-- Node20 -->
<g id="node20" class="node">
<title>Node20</title>
<g id="a_node20"><a xlink:title=" ">
<polygon fill="white" stroke="#bfbfbf" points="1227,-93.3 1227,-112.3 1327,-112.3 1327,-93.3 1227,-93.3"/>
<text text-anchor="middle" x="1277" y="-100.3" font-family="Helvetica,sans-Serif" font-size="10.00">std::map&lt; int, int &gt;</text>
</a>
</g>
</g>
<!-- Node20&#45;&gt;Node1 -->
<g id="edge35" class="edge">
<title>Node20&#45;&gt;Node1</title>
<path fill="none" stroke="#9a32cd" stroke-dasharray="5,2" d="M1337.35,-102.49C1370.61,-103.51 1412.59,-106.8 1449,-115.8 1478.22,-123.02 1509.81,-138.23 1528.74,-148.22"/>
<polygon fill="#9a32cd" stroke="#9a32cd" points="1337.41,-98.99 1327.33,-102.25 1337.24,-105.99 1337.41,-98.99"/>
<text text-anchor="middle" x="1406.5" y="-118.8" font-family="Helvetica,sans-Serif" font-size="10.00"> listener_ports_</text>
</g>
<!-- Node21 -->
<g id="node21" class="node">
<title>Node21</title>
<g id="a_node21"><a xlink:title=" ">
<polygon fill="white" stroke="#bfbfbf" points="1222,-55.3 1222,-74.3 1332,-74.3 1332,-55.3 1222,-55.3"/>
<text text-anchor="middle" x="1277" y="-62.3" font-family="Helvetica,sans-Serif" font-size="10.00">std::map&lt; pid_t, int &gt;</text>
</a>
</g>
</g>
<!-- Node21&#45;&gt;Node1 -->
<g id="edge36" class="edge">
<title>Node21&#45;&gt;Node1</title>
<path fill="none" stroke="#9a32cd" stroke-dasharray="5,2" d="M1342.46,-66.6C1375.31,-69.3 1415.32,-75.39 1449,-88.8 1484.52,-102.94 1519.36,-132.68 1535.95,-148.09"/>
<polygon fill="#9a32cd" stroke="#9a32cd" points="1342.29,-63.08 1332.06,-65.84 1341.78,-70.06 1342.29,-63.08"/>
<text text-anchor="middle" x="1406.5" y="-91.8" font-family="Helvetica,sans-Serif" font-size="10.00"> cgi_exit_statuses_</text>
</g>
<!-- Node22 -->
<g id="node22" class="node">
<title>Node22</title>
<g id="a_node22"><a xlink:title=" ">
<polygon fill="white" stroke="#bfbfbf" points="876,-129.3 876,-148.3 1022,-148.3 1022,-129.3 876,-129.3"/>
<text text-anchor="middle" x="949" y="-136.3" font-family="Helvetica,sans-Serif" font-size="10.00">std::map&lt; int, TcpListener * &gt;</text>
</a>
</g>
</g>
<!-- Node22&#45;&gt;Node1 -->
<g id="edge37" class="edge">
<title>Node22&#45;&gt;Node1</title>
<path fill="none" stroke="#9a32cd" stroke-dasharray="5,2" d="M1032.45,-141.43C1161.93,-145.56 1408.18,-153.41 1505.23,-156.5"/>
<polygon fill="#9a32cd" stroke="#9a32cd" points="1032.29,-137.92 1022.19,-141.1 1032.07,-144.92 1032.29,-137.92"/>
<text text-anchor="middle" x="1161" y="-148.8" font-family="Helvetica,sans-Serif" font-size="10.00"> listeners_</text>
</g>
<!-- Node23&#45;&gt;Node22 -->
<g id="edge38" class="edge">
<title>Node23&#45;&gt;Node22</title>
<path fill="none" stroke="#9a32cd" stroke-dasharray="5,2" d="M376.68,-136.01C480.03,-136.51 746.87,-137.82 875.95,-138.45"/>
<polygon fill="#9a32cd" stroke="#9a32cd" points="376.64,-132.51 366.62,-135.96 376.6,-139.51 376.64,-132.51"/>
<text text-anchor="middle" x="567" y="-139.8" font-family="Helvetica,sans-Serif" font-size="10.00"> elements</text>
</g>
<!-- Node24 -->
<g id="node24" class="node">
<title>Node24</title>
<g id="a_node24"><a xlink:href="classEpollWrapper.html" target="_top" xlink:title=" ">
<polygon fill="white" stroke="black" points="1240,-169.3 1240,-188.3 1314,-188.3 1314,-169.3 1240,-169.3"/>
<text text-anchor="middle" x="1277" y="-176.3" font-family="Helvetica,sans-Serif" font-size="10.00">EpollWrapper</text>
</a>
</g>
</g>
<!-- Node24&#45;&gt;Node1 -->
<g id="edge40" class="edge">
<title>Node24&#45;&gt;Node1</title>
<path fill="none" stroke="#9a32cd" stroke-dasharray="5,2" d="M1324.23,-175.18C1375.21,-171.18 1456.46,-164.82 1505.18,-161"/>
<polygon fill="#9a32cd" stroke="#9a32cd" points="1323.84,-171.7 1314.14,-175.97 1324.39,-178.68 1323.84,-171.7"/>
<text text-anchor="middle" x="1406.5" y="-174.8" font-family="Helvetica,sans-Serif" font-size="10.00"> epoll_</text>
</g>
</g>
</svg>
