<?xml version="1.0" encoding="UTF-8" standalone="no"?>
<!DOCTYPE svg PUBLIC "-//W3C//DTD SVG 1.1//EN"
 "http://www.w3.org/Graphics/SVG/1.1/DTD/svg11.dtd">
<!-- Generated by graphviz version 2.43.0 (0)
 -->
<!-- Title: HttpRequest::HttpRequest Pages: 1 -->
<svg width="303pt" height="66pt"
 viewBox="0.00 0.00 303.00 66.00" xmlns="http://www.w3.org/2000/svg" xmlns:xlink="http://www.w3.org/1999/xlink">
<g id="graph0" class="graph" transform="scale(1 1) rotate(0) translate(4 62)">
<title>HttpRequest::HttpRequest</title>
<polygon fill="white" stroke="transparent" points="-4,4 -4,-62 299,-62 299,4 -4,4"/>
<!-- Node1 -->
<g id="node1" class="node">
<title>Node1</title>
<g id="a_node1"><a xlink:title=" ">
<polygon fill="#bfbfbf" stroke="black" points="0,-19.5 0,-38.5 134,-38.5 134,-19.5 0,-19.5"/>
<text text-anchor="middle" x="67" y="-26.5" font-family="Helvetica,sans-Serif" font-size="10.00">HttpRequest::HttpRequest</text>
</a>
</g>
</g>
<!-- Node2 -->
<g id="node2" class="node">
<title>Node2</title>
<g id="a_node2"><a xlink:href="classHttpRequest.html#a7c225a37759f8106cc8e22f49c9eed5c" target="_top" xlink:title="Convierte el método HTTP a mayúsculas y lo asigna al atributo _method.">
<polygon fill="white" stroke="black" points="170.5,-38.5 170.5,-57.5 294.5,-57.5 294.5,-38.5 170.5,-38.5"/>
<text text-anchor="middle" x="232.5" y="-45.5" font-family="Helvetica,sans-Serif" font-size="10.00">HttpRequest::setMethod</text>
</a>
</g>
</g>
<!-- Node1&#45;&gt;Node2 -->
<g id="edge1" class="edge">
<title>Node1&#45;&gt;Node2</title>
<path fill="none" stroke="midnightblue" d="M134.03,-36.67C142.63,-37.67 151.47,-38.7 160.15,-39.71"/>
<polygon fill="midnightblue" stroke="midnightblue" points="159.91,-43.2 170.25,-40.88 160.72,-36.25 159.91,-43.2"/>
</g>
<!-- Node3 -->
<g id="node3" class="node">
<title>Node3</title>
<g id="a_node3"><a xlink:href="classHttpRequest.html#a27c140b8f5fc57bf03b3d85e94214603" target="_top" xlink:title=" ">
<polygon fill="white" stroke="black" points="170,-0.5 170,-19.5 295,-19.5 295,-0.5 170,-0.5"/>
<text text-anchor="middle" x="232.5" y="-7.5" font-family="Helvetica,sans-Serif" font-size="10.00">HttpRequest::setVersion</text>
</a>
</g>
</g>
<!-- Node1&#45;&gt;Node3 -->
<g id="edge2" class="edge">
<title>Node1&#45;&gt;Node3</title>
<path fill="none" stroke="midnightblue" d="M134.03,-21.33C142.57,-20.33 151.34,-19.32 159.96,-18.31"/>
<polygon fill="midnightblue" stroke="midnightblue" points="160.46,-21.78 169.98,-17.15 159.65,-14.83 160.46,-21.78"/>
</g>
</g>
</svg>
