<?xml version="1.0" encoding="UTF-8" standalone="no"?>
<!DOCTYPE svg PUBLIC "-//W3C//DTD SVG 1.1//EN"
 "http://www.w3.org/Graphics/SVG/1.1/DTD/svg11.dtd">
<!-- Generated by graphviz version 2.43.0 (0)
 -->
<!-- Title: HttpParser::getState Pages: 1 -->
<svg width="958pt" height="121pt"
 viewBox="0.00 0.00 958.00 121.21" xmlns="http://www.w3.org/2000/svg" xmlns:xlink="http://www.w3.org/1999/xlink">
<g id="graph0" class="graph" transform="scale(1 1) rotate(0) translate(4 117.21)">
<title>HttpParser::getState</title>
<polygon fill="white" stroke="transparent" points="-4,4 -4,-117.21 954,-117.21 954,4 -4,4"/>
<!-- Node1 -->
<g id="node1" class="node">
<title>Node1</title>
<g id="a_node1"><a xlink:title=" ">
<polygon fill="#bfbfbf" stroke="black" points="843,-36.71 843,-55.71 950,-55.71 950,-36.71 843,-36.71"/>
<text text-anchor="middle" x="896.5" y="-43.71" font-family="Helvetica,sans-Serif" font-size="10.00">HttpParser::getState</text>
</a>
</g>
</g>
<!-- Node2 -->
<g id="node2" class="node">
<title>Node2</title>
<g id="a_node2"><a xlink:href="classClient.html#abcf615f2514ae7e0266315693e73a31a" target="_top" xlink:title=" ">
<polygon fill="white" stroke="black" points="652,-55.71 652,-74.71 807,-74.71 807,-55.71 652,-55.71"/>
<text text-anchor="middle" x="729.5" y="-62.71" font-family="Helvetica,sans-Serif" font-size="10.00">Client::handleCompleteRequest</text>
</a>
</g>
</g>
<!-- Node1&#45;&gt;Node2 -->
<g id="edge1" class="edge">
<title>Node1&#45;&gt;Node2</title>
<path fill="none" stroke="midnightblue" d="M832.75,-53.44C824.34,-54.41 815.63,-55.41 807.02,-56.4"/>
<polygon fill="midnightblue" stroke="midnightblue" points="833.31,-56.9 842.84,-52.28 832.5,-49.94 833.31,-56.9"/>
</g>
<!-- Node3 -->
<g id="node3" class="node">
<title>Node3</title>
<g id="a_node3"><a xlink:href="classClient.html#ac95fe5b24fe5275bd2271bd1ac37596d" target="_top" xlink:title=" ">
<polygon fill="white" stroke="black" points="336,-36.71 336,-55.71 436,-55.71 436,-36.71 336,-36.71"/>
<text text-anchor="middle" x="386" y="-43.71" font-family="Helvetica,sans-Serif" font-size="10.00">Client::handleRead</text>
</a>
</g>
</g>
<!-- Node1&#45;&gt;Node3 -->
<g id="edge10" class="edge">
<title>Node1&#45;&gt;Node3</title>
<path fill="none" stroke="midnightblue" d="M850.58,-34.19C775.58,-15.85 620.35,14.68 491,-8.21 460.52,-13.61 427.25,-27.25 406.75,-36.63"/>
<polygon fill="midnightblue" stroke="midnightblue" points="850.07,-37.67 860.61,-36.69 851.76,-30.87 850.07,-37.67"/>
</g>
<!-- Node6 -->
<g id="node6" class="node">
<title>Node6</title>
<g id="a_node6"><a xlink:href="classClient.html#a950fd2ab8ac20c9be4c5e722344d6fe2" target="_top" xlink:title=" ">
<polygon fill="white" stroke="black" points="491,-93.71 491,-112.71 616,-112.71 616,-93.71 491,-93.71"/>
<text text-anchor="middle" x="553.5" y="-100.71" font-family="Helvetica,sans-Serif" font-size="10.00">Client::processRequests</text>
</a>
</g>
</g>
<!-- Node1&#45;&gt;Node6 -->
<g id="edge11" class="edge">
<title>Node1&#45;&gt;Node6</title>
<path fill="none" stroke="midnightblue" d="M868.77,-60.45C851.61,-68.88 828.59,-78.92 807,-84.21 743.17,-99.86 667.78,-103.71 616.1,-104.21"/>
<polygon fill="midnightblue" stroke="midnightblue" points="870.78,-63.35 878.13,-55.72 867.63,-57.1 870.78,-63.35"/>
</g>
<!-- Node8 -->
<g id="node8" class="node">
<title>Node8</title>
<g id="a_node8"><a xlink:href="classClient.html#ab83f46c4fe6d12026fd5667e7ce270fb" target="_top" xlink:title="Handle Expect: 100&#45;continue.">
<polygon fill="white" stroke="black" points="492,-17.71 492,-36.71 615,-36.71 615,-17.71 492,-17.71"/>
<text text-anchor="middle" x="553.5" y="-24.71" font-family="Helvetica,sans-Serif" font-size="10.00">Client::handleExpect100</text>
</a>
</g>
</g>
<!-- Node1&#45;&gt;Node8 -->
<g id="edge8" class="edge">
<title>Node1&#45;&gt;Node8</title>
<path fill="none" stroke="midnightblue" d="M832.92,-42.73C770.89,-39.27 676.5,-34.01 615.16,-30.59"/>
<polygon fill="midnightblue" stroke="midnightblue" points="832.79,-46.22 842.97,-43.29 833.18,-39.24 832.79,-46.22"/>
</g>
<!-- Node2&#45;&gt;Node3 -->
<g id="edge2" class="edge">
<title>Node2&#45;&gt;Node3</title>
<path fill="none" stroke="midnightblue" d="M641.61,-60.38C576.51,-56.76 489.78,-51.93 436.2,-48.95"/>
<polygon fill="midnightblue" stroke="midnightblue" points="641.68,-63.89 651.86,-60.95 642.07,-56.9 641.68,-63.89"/>
</g>
<!-- Node2&#45;&gt;Node6 -->
<g id="edge5" class="edge">
<title>Node2&#45;&gt;Node6</title>
<path fill="none" stroke="midnightblue" d="M674.69,-76.97C650.08,-82.34 621.31,-88.62 598.09,-93.69"/>
<polygon fill="midnightblue" stroke="midnightblue" points="675.57,-80.36 684.59,-74.8 674.08,-73.52 675.57,-80.36"/>
</g>
<!-- Node4 -->
<g id="node4" class="node">
<title>Node4</title>
<g id="a_node4"><a xlink:href="classServerManager.html#a9f3ca46da9df004286f90902b8daf29d" target="_top" xlink:title=" ">
<polygon fill="white" stroke="black" points="138,-31.21 138,-61.21 281,-61.21 281,-31.21 138,-31.21"/>
<text text-anchor="start" x="146" y="-49.21" font-family="Helvetica,sans-Serif" font-size="10.00">ServerManager::handleClient</text>
<text text-anchor="middle" x="209.5" y="-38.21" font-family="Helvetica,sans-Serif" font-size="10.00">Event</text>
</a>
</g>
</g>
<!-- Node3&#45;&gt;Node4 -->
<g id="edge3" class="edge">
<title>Node3&#45;&gt;Node4</title>
<path fill="none" stroke="midnightblue" d="M325.69,-46.21C311.33,-46.21 295.84,-46.21 281.02,-46.21"/>
<polygon fill="midnightblue" stroke="midnightblue" points="325.93,-49.71 335.93,-46.21 325.93,-42.71 325.93,-49.71"/>
</g>
<!-- Node5 -->
<g id="node5" class="node">
<title>Node5</title>
<g id="a_node5"><a xlink:href="classServerManager.html#aecc313c9b6afcab92c22269b3333c721" target="_top" xlink:title=" ">
<polygon fill="white" stroke="black" points="0,-36.71 0,-55.71 102,-55.71 102,-36.71 0,-36.71"/>
<text text-anchor="middle" x="51" y="-43.71" font-family="Helvetica,sans-Serif" font-size="10.00">ServerManager::run</text>
</a>
</g>
</g>
<!-- Node4&#45;&gt;Node5 -->
<g id="edge4" class="edge">
<title>Node4&#45;&gt;Node5</title>
<path fill="none" stroke="midnightblue" d="M127.45,-46.21C118.82,-46.21 110.23,-46.21 102.11,-46.21"/>
<polygon fill="midnightblue" stroke="midnightblue" points="127.58,-49.71 137.58,-46.21 127.58,-42.71 127.58,-49.71"/>
</g>
<!-- Node6&#45;&gt;Node3 -->
<g id="edge7" class="edge">
<title>Node6&#45;&gt;Node3</title>
<path fill="none" stroke="midnightblue" d="M514.96,-90.28C484.51,-79.8 442.27,-65.25 414.79,-55.78"/>
<polygon fill="midnightblue" stroke="midnightblue" points="514.2,-93.73 524.8,-93.67 516.48,-87.11 514.2,-93.73"/>
</g>
<!-- Node7 -->
<g id="node7" class="node">
<title>Node7</title>
<g id="a_node7"><a xlink:href="classClient.html#a09d6029b60ae8c9773362968e72f2e54" target="_top" xlink:title=" ">
<polygon fill="white" stroke="black" points="317,-93.71 317,-112.71 455,-112.71 455,-93.71 317,-93.71"/>
<text text-anchor="middle" x="386" y="-100.71" font-family="Helvetica,sans-Serif" font-size="10.00">Client::finalizeCgiResponse</text>
</a>
</g>
</g>
<!-- Node6&#45;&gt;Node7 -->
<g id="edge6" class="edge">
<title>Node6&#45;&gt;Node7</title>
<path fill="none" stroke="midnightblue" d="M480.63,-103.21C472.14,-103.21 463.5,-103.21 455.07,-103.21"/>
<polygon fill="midnightblue" stroke="midnightblue" points="480.87,-106.71 490.87,-103.21 480.87,-99.71 480.87,-106.71"/>
</g>
<!-- Node8&#45;&gt;Node3 -->
<g id="edge9" class="edge">
<title>Node8&#45;&gt;Node3</title>
<path fill="none" stroke="midnightblue" d="M481.79,-35.33C466.37,-37.1 450.39,-38.94 436.04,-40.58"/>
<polygon fill="midnightblue" stroke="midnightblue" points="482.28,-38.8 491.81,-34.18 481.48,-31.84 482.28,-38.8"/>
</g>
</g>
</svg>
