<?xml version="1.0" encoding="UTF-8" standalone="no"?>
<!DOCTYPE svg PUBLIC "-//W3C//DTD SVG 1.1//EN"
 "http://www.w3.org/Graphics/SVG/1.1/DTD/svg11.dtd">
<!-- Generated by graphviz version 2.43.0 (0)
 -->
<!-- Title: HttpParser::parseBodyChunked Pages: 1 -->
<svg width="697pt" height="163pt"
 viewBox="0.00 0.00 697.00 162.50" xmlns="http://www.w3.org/2000/svg" xmlns:xlink="http://www.w3.org/1999/xlink">
<g id="graph0" class="graph" transform="scale(1 1) rotate(0) translate(4 158.5)">
<title>HttpParser::parseBodyChunked</title>
<polygon fill="white" stroke="transparent" points="-4,4 -4,-158.5 693,-158.5 693,4 -4,4"/>
<!-- Node1 -->
<g id="node1" class="node">
<title>Node1</title>
<g id="a_node1"><a xlink:title=" ">
<polygon fill="#bfbfbf" stroke="black" points="0,-55 0,-74 155,-74 155,-55 0,-55"/>
<text text-anchor="middle" x="77.5" y="-62" font-family="Helvetica,sans-Serif" font-size="10.00">HttpParser::parseBodyChunked</text>
</a>
</g>
</g>
<!-- Node2 -->
<g id="node2" class="node">
<title>Node2</title>
<g id="a_node2"><a xlink:href="classHttpParser.html#af765dc1e57edfa64d33b1e851504a393" target="_top" xlink:title=" ">
<polygon fill="white" stroke="black" points="191,-98.5 191,-128.5 339,-128.5 339,-98.5 191,-98.5"/>
<text text-anchor="start" x="199" y="-116.5" font-family="Helvetica,sans-Serif" font-size="10.00">HttpParser::handleChunkData</text>
<text text-anchor="middle" x="265" y="-105.5" font-family="Helvetica,sans-Serif" font-size="10.00">State</text>
</a>
</g>
</g>
<!-- Node1&#45;&gt;Node2 -->
<g id="edge1" class="edge">
<title>Node1&#45;&gt;Node2</title>
<path fill="none" stroke="midnightblue" d="M114.71,-74.06C138.19,-80.27 169.5,-88.54 197.38,-95.9"/>
<polygon fill="midnightblue" stroke="midnightblue" points="196.51,-99.29 207.07,-98.46 198.3,-92.53 196.51,-99.29"/>
</g>
<!-- Node5 -->
<g id="node5" class="node">
<title>Node5</title>
<g id="a_node5"><a xlink:href="classHttpParser.html#adeb6831e441d64132e5be749cd140706" target="_top" xlink:title=" ">
<polygon fill="white" stroke="black" points="193,-49.5 193,-79.5 337,-79.5 337,-49.5 193,-49.5"/>
<text text-anchor="start" x="201" y="-67.5" font-family="Helvetica,sans-Serif" font-size="10.00">HttpParser::handleChunkEnd</text>
<text text-anchor="middle" x="265" y="-56.5" font-family="Helvetica,sans-Serif" font-size="10.00">State</text>
</a>
</g>
</g>
<!-- Node1&#45;&gt;Node5 -->
<g id="edge4" class="edge">
<title>Node1&#45;&gt;Node5</title>
<path fill="none" stroke="midnightblue" d="M155.02,-64.5C164.08,-64.5 173.36,-64.5 182.49,-64.5"/>
<polygon fill="midnightblue" stroke="midnightblue" points="182.72,-68 192.72,-64.5 182.72,-61 182.72,-68"/>
</g>
<!-- Node7 -->
<g id="node7" class="node">
<title>Node7</title>
<g id="a_node7"><a xlink:href="classHttpParser.html#ab31b647126e0e69451c80b70a83c850f" target="_top" xlink:title=" ">
<polygon fill="white" stroke="black" points="192,-0.5 192,-30.5 338,-30.5 338,-0.5 192,-0.5"/>
<text text-anchor="start" x="200" y="-18.5" font-family="Helvetica,sans-Serif" font-size="10.00">HttpParser::handleChunkSize</text>
<text text-anchor="middle" x="265" y="-7.5" font-family="Helvetica,sans-Serif" font-size="10.00">State</text>
</a>
</g>
</g>
<!-- Node1&#45;&gt;Node7 -->
<g id="edge6" class="edge">
<title>Node1&#45;&gt;Node7</title>
<path fill="none" stroke="midnightblue" d="M114.71,-54.94C138.19,-48.73 169.5,-40.46 197.38,-33.1"/>
<polygon fill="midnightblue" stroke="midnightblue" points="198.3,-36.47 207.07,-30.54 196.51,-29.71 198.3,-36.47"/>
</g>
<!-- Node3 -->
<g id="node3" class="node">
<title>Node3</title>
<g id="a_node3"><a xlink:href="classHttpRequest.html#ae5ee7fd2b11f54656722b0a6e32a5ad0" target="_top" xlink:title=" ">
<polygon fill="white" stroke="black" points="397,-135 397,-154 513,-154 513,-135 397,-135"/>
<text text-anchor="middle" x="455" y="-142" font-family="Helvetica,sans-Serif" font-size="10.00">HttpRequest::addBody</text>
</a>
</g>
</g>
<!-- Node2&#45;&gt;Node3 -->
<g id="edge2" class="edge">
<title>Node2&#45;&gt;Node3</title>
<path fill="none" stroke="midnightblue" d="M339.22,-125.57C354.95,-128.17 371.5,-130.9 386.98,-133.45"/>
<polygon fill="midnightblue" stroke="midnightblue" points="386.55,-136.92 396.98,-135.1 387.69,-130.02 386.55,-136.92"/>
</g>
<!-- Node4 -->
<g id="node4" class="node">
<title>Node4</title>
<g id="a_node4"><a xlink:href="classHttpRequest.html#aa727937b993d7df56a9d99b37d6be672" target="_top" xlink:title=" ">
<polygon fill="white" stroke="black" points="398,-97 398,-116 512,-116 512,-97 398,-97"/>
<text text-anchor="middle" x="455" y="-104" font-family="Helvetica,sans-Serif" font-size="10.00">HttpRequest::getBody</text>
</a>
</g>
</g>
<!-- Node2&#45;&gt;Node4 -->
<g id="edge3" class="edge">
<title>Node2&#45;&gt;Node4</title>
<path fill="none" stroke="midnightblue" d="M339.22,-110.77C355.21,-110.18 372.04,-109.55 387.73,-108.97"/>
<polygon fill="midnightblue" stroke="midnightblue" points="388,-112.46 397.86,-108.59 387.74,-105.46 388,-112.46"/>
</g>
<!-- Node6 -->
<g id="node6" class="node">
<title>Node6</title>
<g id="a_node6"><a xlink:href="classHttpParser.html#aaee9364e5a2d7de7213cfc7ffb74fcac" target="_top" xlink:title=" ">
<polygon fill="white" stroke="black" points="571,-30 571,-49 689,-49 689,-30 571,-30"/>
<text text-anchor="middle" x="630" y="-37" font-family="Helvetica,sans-Serif" font-size="10.00">HttpParser::extractLine</text>
</a>
</g>
</g>
<!-- Node5&#45;&gt;Node6 -->
<g id="edge5" class="edge">
<title>Node5&#45;&gt;Node6</title>
<path fill="none" stroke="midnightblue" d="M337.28,-59.59C401.93,-55.14 496.58,-48.62 560.38,-44.23"/>
<polygon fill="midnightblue" stroke="midnightblue" points="561.01,-47.69 570.74,-43.51 560.52,-40.71 561.01,-47.69"/>
</g>
<!-- Node8 -->
<g id="node8" class="node">
<title>Node8</title>
<g id="a_node8"><a xlink:href="classHttpParser.html#acdcae8756a7f32ec6e431b1b2d3417b8" target="_top" xlink:title=" ">
<polygon fill="white" stroke="black" points="375,-11 375,-30 535,-30 535,-11 375,-11"/>
<text text-anchor="middle" x="455" y="-18" font-family="Helvetica,sans-Serif" font-size="10.00">HttpParser::parseChunkSizeLine</text>
</a>
</g>
</g>
<!-- Node7&#45;&gt;Node8 -->
<g id="edge7" class="edge">
<title>Node7&#45;&gt;Node8</title>
<path fill="none" stroke="midnightblue" d="M338.15,-17.42C346.88,-17.65 355.87,-17.89 364.8,-18.13"/>
<polygon fill="midnightblue" stroke="midnightblue" points="364.76,-21.63 374.85,-18.39 364.95,-14.63 364.76,-21.63"/>
</g>
<!-- Node8&#45;&gt;Node6 -->
<g id="edge8" class="edge">
<title>Node8&#45;&gt;Node6</title>
<path fill="none" stroke="midnightblue" d="M535.16,-29.19C543.7,-30.13 552.33,-31.08 560.73,-32"/>
<polygon fill="midnightblue" stroke="midnightblue" points="560.5,-35.5 570.83,-33.11 561.27,-28.54 560.5,-35.5"/>
</g>
</g>
</svg>
