<?xml version="1.0" encoding="UTF-8" standalone="no"?>
<!DOCTYPE svg PUBLIC "-//W3C//DTD SVG 1.1//EN"
 "http://www.w3.org/Graphics/SVG/1.1/DTD/svg11.dtd">
<!-- Generated by graphviz version 2.43.0 (0)
 -->
<!-- Title: HttpParser::parseBody Pages: 1 -->
<svg width="849pt" height="173pt"
 viewBox="0.00 0.00 849.00 172.50" xmlns="http://www.w3.org/2000/svg" xmlns:xlink="http://www.w3.org/1999/xlink">
<g id="graph0" class="graph" transform="scale(1 1) rotate(0) translate(4 168.5)">
<title>HttpParser::parseBody</title>
<polygon fill="white" stroke="transparent" points="-4,4 -4,-168.5 845,-168.5 845,4 -4,4"/>
<!-- Node1 -->
<g id="node1" class="node">
<title>Node1</title>
<g id="a_node1"><a xlink:title=" ">
<polygon fill="#bfbfbf" stroke="black" points="0,-43.5 0,-62.5 116,-62.5 116,-43.5 0,-43.5"/>
<text text-anchor="middle" x="58" y="-50.5" font-family="Helvetica,sans-Serif" font-size="10.00">HttpParser::parseBody</text>
</a>
</g>
</g>
<!-- Node2 -->
<g id="node2" class="node">
<title>Node2</title>
<g id="a_node2"><a xlink:href="classHttpParser.html#a317def360bd0e77edbcb6673e0575d04" target="_top" xlink:title=" ">
<polygon fill="white" stroke="black" points="152,-65.5 152,-84.5 307,-84.5 307,-65.5 152,-65.5"/>
<text text-anchor="middle" x="229.5" y="-72.5" font-family="Helvetica,sans-Serif" font-size="10.00">HttpParser::parseBodyChunked</text>
</a>
</g>
</g>
<!-- Node1&#45;&gt;Node2 -->
<g id="edge1" class="edge">
<title>Node1&#45;&gt;Node2</title>
<path fill="none" stroke="midnightblue" d="M116.38,-60.45C125.65,-61.65 135.41,-62.92 145.14,-64.18"/>
<polygon fill="midnightblue" stroke="midnightblue" points="144.88,-67.68 155.25,-65.49 145.78,-60.73 144.88,-67.68"/>
</g>
<!-- Node10 -->
<g id="node10" class="node">
<title>Node10</title>
<g id="a_node10"><a xlink:href="classHttpParser.html#a6ef6b2216ab8d46870530e801719d92d" target="_top" xlink:title=" ">
<polygon fill="white" stroke="black" points="159.5,-16 159.5,-46 299.5,-46 299.5,-16 159.5,-16"/>
<text text-anchor="start" x="167.5" y="-34" font-family="Helvetica,sans-Serif" font-size="10.00">HttpParser::parseBodyFixed</text>
<text text-anchor="middle" x="229.5" y="-23" font-family="Helvetica,sans-Serif" font-size="10.00">Length</text>
</a>
</g>
</g>
<!-- Node1&#45;&gt;Node10 -->
<g id="edge10" class="edge">
<title>Node1&#45;&gt;Node10</title>
<path fill="none" stroke="midnightblue" d="M116.38,-45.55C126.97,-44.18 138.2,-42.72 149.3,-41.28"/>
<polygon fill="midnightblue" stroke="midnightblue" points="149.97,-44.72 159.44,-39.96 149.07,-37.78 149.97,-44.72"/>
</g>
<!-- Node3 -->
<g id="node3" class="node">
<title>Node3</title>
<g id="a_node3"><a xlink:href="classHttpParser.html#af765dc1e57edfa64d33b1e851504a393" target="_top" xlink:title=" ">
<polygon fill="white" stroke="black" points="343,-36 343,-66 491,-66 491,-36 343,-36"/>
<text text-anchor="start" x="351" y="-54" font-family="Helvetica,sans-Serif" font-size="10.00">HttpParser::handleChunkData</text>
<text text-anchor="middle" x="417" y="-43" font-family="Helvetica,sans-Serif" font-size="10.00">State</text>
</a>
</g>
</g>
<!-- Node2&#45;&gt;Node3 -->
<g id="edge2" class="edge">
<title>Node2&#45;&gt;Node3</title>
<path fill="none" stroke="midnightblue" d="M304.08,-65.48C313.54,-64.26 323.28,-63 332.88,-61.75"/>
<polygon fill="midnightblue" stroke="midnightblue" points="333.34,-65.22 342.81,-60.47 332.44,-58.28 333.34,-65.22"/>
</g>
<!-- Node6 -->
<g id="node6" class="node">
<title>Node6</title>
<g id="a_node6"><a xlink:href="classHttpParser.html#adeb6831e441d64132e5be749cd140706" target="_top" xlink:title=" ">
<polygon fill="white" stroke="black" points="345,-85 345,-115 489,-115 489,-85 345,-85"/>
<text text-anchor="start" x="353" y="-103" font-family="Helvetica,sans-Serif" font-size="10.00">HttpParser::handleChunkEnd</text>
<text text-anchor="middle" x="417" y="-92" font-family="Helvetica,sans-Serif" font-size="10.00">State</text>
</a>
</g>
</g>
<!-- Node2&#45;&gt;Node6 -->
<g id="edge5" class="edge">
<title>Node2&#45;&gt;Node6</title>
<path fill="none" stroke="midnightblue" d="M301.16,-84.52C312.13,-86 323.55,-87.54 334.73,-89.05"/>
<polygon fill="midnightblue" stroke="midnightblue" points="334.55,-92.55 344.92,-90.42 335.48,-85.62 334.55,-92.55"/>
</g>
<!-- Node8 -->
<g id="node8" class="node">
<title>Node8</title>
<g id="a_node8"><a xlink:href="classHttpParser.html#ab31b647126e0e69451c80b70a83c850f" target="_top" xlink:title=" ">
<polygon fill="white" stroke="black" points="344,-134 344,-164 490,-164 490,-134 344,-134"/>
<text text-anchor="start" x="352" y="-152" font-family="Helvetica,sans-Serif" font-size="10.00">HttpParser::handleChunkSize</text>
<text text-anchor="middle" x="417" y="-141" font-family="Helvetica,sans-Serif" font-size="10.00">State</text>
</a>
</g>
</g>
<!-- Node2&#45;&gt;Node8 -->
<g id="edge7" class="edge">
<title>Node2&#45;&gt;Node8</title>
<path fill="none" stroke="midnightblue" d="M250.57,-84.65C272.87,-95.21 310.09,-112.32 343,-125 347.85,-126.87 352.92,-128.73 358.03,-130.54"/>
<polygon fill="midnightblue" stroke="midnightblue" points="357.26,-133.97 367.85,-133.93 359.54,-127.36 357.26,-133.97"/>
</g>
<!-- Node4 -->
<g id="node4" class="node">
<title>Node4</title>
<g id="a_node4"><a xlink:href="classHttpRequest.html#ae5ee7fd2b11f54656722b0a6e32a5ad0" target="_top" xlink:title=" ">
<polygon fill="white" stroke="black" points="549,-0.5 549,-19.5 665,-19.5 665,-0.5 549,-0.5"/>
<text text-anchor="middle" x="607" y="-7.5" font-family="Helvetica,sans-Serif" font-size="10.00">HttpRequest::addBody</text>
</a>
</g>
</g>
<!-- Node3&#45;&gt;Node4 -->
<g id="edge3" class="edge">
<title>Node3&#45;&gt;Node4</title>
<path fill="none" stroke="midnightblue" d="M486.94,-35.97C508.45,-31.27 531.86,-26.17 552.18,-21.74"/>
<polygon fill="midnightblue" stroke="midnightblue" points="553.16,-25.1 562.19,-19.55 551.67,-18.27 553.16,-25.1"/>
</g>
<!-- Node5 -->
<g id="node5" class="node">
<title>Node5</title>
<g id="a_node5"><a xlink:href="classHttpRequest.html#aa727937b993d7df56a9d99b37d6be672" target="_top" xlink:title=" ">
<polygon fill="white" stroke="black" points="550,-41.5 550,-60.5 664,-60.5 664,-41.5 550,-41.5"/>
<text text-anchor="middle" x="607" y="-48.5" font-family="Helvetica,sans-Serif" font-size="10.00">HttpRequest::getBody</text>
</a>
</g>
</g>
<!-- Node3&#45;&gt;Node5 -->
<g id="edge4" class="edge">
<title>Node3&#45;&gt;Node5</title>
<path fill="none" stroke="midnightblue" d="M491.22,-51C507.21,-51 524.04,-51 539.73,-51"/>
<polygon fill="midnightblue" stroke="midnightblue" points="539.86,-54.5 549.86,-51 539.86,-47.5 539.86,-54.5"/>
</g>
<!-- Node7 -->
<g id="node7" class="node">
<title>Node7</title>
<g id="a_node7"><a xlink:href="classHttpParser.html#aaee9364e5a2d7de7213cfc7ffb74fcac" target="_top" xlink:title=" ">
<polygon fill="white" stroke="black" points="723,-112.5 723,-131.5 841,-131.5 841,-112.5 723,-112.5"/>
<text text-anchor="middle" x="782" y="-119.5" font-family="Helvetica,sans-Serif" font-size="10.00">HttpParser::extractLine</text>
</a>
</g>
</g>
<!-- Node6&#45;&gt;Node7 -->
<g id="edge6" class="edge">
<title>Node6&#45;&gt;Node7</title>
<path fill="none" stroke="midnightblue" d="M489.28,-104.32C553.93,-108.24 648.58,-113.97 712.38,-117.84"/>
<polygon fill="midnightblue" stroke="midnightblue" points="712.55,-121.36 722.74,-118.47 712.97,-114.37 712.55,-121.36"/>
</g>
<!-- Node9 -->
<g id="node9" class="node">
<title>Node9</title>
<g id="a_node9"><a xlink:href="classHttpParser.html#acdcae8756a7f32ec6e431b1b2d3417b8" target="_top" xlink:title=" ">
<polygon fill="white" stroke="black" points="527,-136.5 527,-155.5 687,-155.5 687,-136.5 527,-136.5"/>
<text text-anchor="middle" x="607" y="-143.5" font-family="Helvetica,sans-Serif" font-size="10.00">HttpParser::parseChunkSizeLine</text>
</a>
</g>
</g>
<!-- Node8&#45;&gt;Node9 -->
<g id="edge8" class="edge">
<title>Node8&#45;&gt;Node9</title>
<path fill="none" stroke="midnightblue" d="M490.15,-147.85C498.88,-147.71 507.87,-147.57 516.8,-147.42"/>
<polygon fill="midnightblue" stroke="midnightblue" points="516.91,-150.92 526.85,-147.26 516.8,-143.92 516.91,-150.92"/>
</g>
<!-- Node9&#45;&gt;Node7 -->
<g id="edge9" class="edge">
<title>Node9&#45;&gt;Node7</title>
<path fill="none" stroke="midnightblue" d="M676.87,-136.45C688.68,-134.81 700.94,-133.11 712.73,-131.47"/>
<polygon fill="midnightblue" stroke="midnightblue" points="713.52,-134.89 722.95,-130.05 712.56,-127.96 713.52,-134.89"/>
</g>
<!-- Node10&#45;&gt;Node4 -->
<g id="edge11" class="edge">
<title>Node10&#45;&gt;Node4</title>
<path fill="none" stroke="midnightblue" d="M299.81,-27.12C367.94,-23.31 471.23,-17.54 538.67,-13.77"/>
<polygon fill="midnightblue" stroke="midnightblue" points="538.97,-17.25 548.76,-13.2 538.58,-10.26 538.97,-17.25"/>
</g>
</g>
</svg>
