<?xml version="1.0" encoding="UTF-8" standalone="no"?>
<!DOCTYPE svg PUBLIC "-//W3C//DTD SVG 1.1//EN"
 "http://www.w3.org/Graphics/SVG/1.1/DTD/svg11.dtd">
<!-- Generated by graphviz version 2.43.0 (0)
 -->
<!-- Title: CgiExecutor::executeAsync Pages: 1 -->
<svg width="531pt" height="351pt"
 viewBox="0.00 0.00 531.00 351.00" xmlns="http://www.w3.org/2000/svg" xmlns:xlink="http://www.w3.org/1999/xlink">
<g id="graph0" class="graph" transform="scale(1 1) rotate(0) translate(4 347)">
<title>CgiExecutor::executeAsync</title>
<polygon fill="white" stroke="transparent" points="-4,4 -4,-347 527,-347 527,4 -4,4"/>
<!-- Node1 -->
<g id="node1" class="node">
<title>Node1</title>
<g id="a_node1"><a xlink:title=" ">
<polygon fill="#bfbfbf" stroke="black" points="0,-228.5 0,-247.5 139,-247.5 139,-228.5 0,-228.5"/>
<text text-anchor="middle" x="69.5" y="-235.5" font-family="Helvetica,sans-Serif" font-size="10.00">CgiExecutor::executeAsync</text>
</a>
</g>
</g>
<!-- Node2 -->
<g id="node2" class="node">
<title>Node2</title>
<g id="a_node2"><a xlink:href="CgiExecutor_8cpp.html#abcb00127e3438f917615431df567802b" target="_top" xlink:title=" ">
<polygon fill="white" stroke="black" points="223.5,-323.5 223.5,-342.5 290.5,-342.5 290.5,-323.5 223.5,-323.5"/>
<text text-anchor="middle" x="257" y="-330.5" font-family="Helvetica,sans-Serif" font-size="10.00">closeIfValid</text>
</a>
</g>
</g>
<!-- Node1&#45;&gt;Node2 -->
<g id="edge1" class="edge">
<title>Node1&#45;&gt;Node2</title>
<path fill="none" stroke="midnightblue" d="M80.59,-247.52C98.27,-263.68 136.66,-296.43 175,-314 187.02,-319.51 200.8,-323.5 213.54,-326.37"/>
<polygon fill="midnightblue" stroke="midnightblue" points="212.99,-329.83 223.49,-328.43 214.41,-322.97 212.99,-329.83"/>
</g>
<!-- Node3 -->
<g id="node3" class="node">
<title>Node3</title>
<g id="a_node3"><a xlink:href="classCgiExecutor.html#a82f74408b92879b5909c44f81d2438f8" target="_top" xlink:title=" ">
<polygon fill="white" stroke="black" points="185,-285.5 185,-304.5 329,-304.5 329,-285.5 185,-285.5"/>
<text text-anchor="middle" x="257" y="-292.5" font-family="Helvetica,sans-Serif" font-size="10.00">CgiExecutor::createEnvArray</text>
</a>
</g>
</g>
<!-- Node1&#45;&gt;Node3 -->
<g id="edge2" class="edge">
<title>Node1&#45;&gt;Node3</title>
<path fill="none" stroke="midnightblue" d="M100.19,-247.53C121.08,-254.2 149.71,-263.26 175,-271 187.51,-274.83 201.13,-278.9 213.57,-282.58"/>
<polygon fill="midnightblue" stroke="midnightblue" points="212.67,-285.97 223.25,-285.44 214.65,-279.25 212.67,-285.97"/>
</g>
<!-- Node4 -->
<g id="node4" class="node">
<title>Node4</title>
<g id="a_node4"><a xlink:href="classHttpRequest.html#aa727937b993d7df56a9d99b37d6be672" target="_top" xlink:title=" ">
<polygon fill="white" stroke="black" points="392,-304.5 392,-323.5 506,-323.5 506,-304.5 392,-304.5"/>
<text text-anchor="middle" x="449" y="-311.5" font-family="Helvetica,sans-Serif" font-size="10.00">HttpRequest::getBody</text>
</a>
</g>
</g>
<!-- Node1&#45;&gt;Node4 -->
<g id="edge3" class="edge">
<title>Node1&#45;&gt;Node4</title>
<path fill="none" stroke="midnightblue" d="M139.27,-241.21C194.4,-245.32 273.16,-254.68 339,-276 356.21,-281.57 358.13,-288.46 375,-295 381.32,-297.45 388.06,-299.69 394.8,-301.7"/>
<polygon fill="midnightblue" stroke="midnightblue" points="394.05,-305.12 404.63,-304.47 395.96,-298.38 394.05,-305.12"/>
</g>
<!-- Node5 -->
<g id="node5" class="node">
<title>Node5</title>
<g id="a_node5"><a xlink:href="classServerConfig.html#a6d5c3238d2d89e315d7255974a36d618" target="_top" xlink:title=" ">
<polygon fill="white" stroke="black" points="185.5,-209.5 185.5,-228.5 328.5,-228.5 328.5,-209.5 185.5,-209.5"/>
<text text-anchor="middle" x="257" y="-216.5" font-family="Helvetica,sans-Serif" font-size="10.00">ServerConfig::getCgiTimeout</text>
</a>
</g>
</g>
<!-- Node1&#45;&gt;Node5 -->
<g id="edge4" class="edge">
<title>Node1&#45;&gt;Node5</title>
<path fill="none" stroke="midnightblue" d="M139.05,-230.98C150.82,-229.77 163.15,-228.51 175.21,-227.28"/>
<polygon fill="midnightblue" stroke="midnightblue" points="175.66,-230.75 185.25,-226.25 174.95,-223.78 175.66,-230.75"/>
</g>
<!-- Node6 -->
<g id="node6" class="node">
<title>Node6</title>
<g id="a_node6"><a xlink:href="classCgiExecutor.html#ad97592b573c577e6bae11662ec683910" target="_top" xlink:title=" ">
<polygon fill="white" stroke="black" points="175,-171.5 175,-190.5 339,-190.5 339,-171.5 175,-171.5"/>
<text text-anchor="middle" x="257" y="-178.5" font-family="Helvetica,sans-Serif" font-size="10.00">CgiExecutor::prepareEnvironment</text>
</a>
</g>
</g>
<!-- Node1&#45;&gt;Node6 -->
<g id="edge5" class="edge">
<title>Node1&#45;&gt;Node6</title>
<path fill="none" stroke="midnightblue" d="M94.3,-228.43C115.31,-220.2 146.88,-208.38 175,-200 183.45,-197.48 192.47,-195.09 201.32,-192.89"/>
<polygon fill="midnightblue" stroke="midnightblue" points="202.29,-196.26 211.19,-190.51 200.64,-189.46 202.29,-196.26"/>
</g>
<!-- Node15 -->
<g id="node15" class="node">
<title>Node15</title>
<g id="a_node15"><a xlink:href="classCgiExecutor.html#a4ccb7df600011595abda3893d14a1f3f" target="_top" xlink:title=" ">
<polygon fill="white" stroke="black" points="184,-133.5 184,-152.5 330,-152.5 330,-133.5 184,-133.5"/>
<text text-anchor="middle" x="257" y="-140.5" font-family="Helvetica,sans-Serif" font-size="10.00">CgiExecutor::setNonBlocking</text>
</a>
</g>
</g>
<!-- Node1&#45;&gt;Node15 -->
<g id="edge15" class="edge">
<title>Node1&#45;&gt;Node15</title>
<path fill="none" stroke="midnightblue" d="M80.59,-228.48C98.27,-212.32 136.66,-179.57 175,-162 180.38,-159.53 186.12,-157.37 191.96,-155.47"/>
<polygon fill="midnightblue" stroke="midnightblue" points="193.25,-158.74 201.84,-152.53 191.26,-152.03 193.25,-158.74"/>
</g>
<!-- Node6&#45;&gt;Node4 -->
<g id="edge6" class="edge">
<title>Node6&#45;&gt;Node4</title>
<path fill="none" stroke="midnightblue" d="M324.4,-190.62C329.69,-193.11 334.65,-196.19 339,-200 372.96,-229.76 341.4,-264.84 375,-295 377.36,-297.12 379.93,-299.01 382.64,-300.69"/>
<polygon fill="midnightblue" stroke="midnightblue" points="381.24,-303.91 391.73,-305.39 384.46,-297.69 381.24,-303.91"/>
</g>
<!-- Node7 -->
<g id="node7" class="node">
<title>Node7</title>
<g id="a_node7"><a xlink:href="classHttpRequest.html#ab537cb11b054734695ee4889d88aec6d" target="_top" xlink:title="Obtiene un header específico de la petición.">
<polygon fill="white" stroke="black" points="387.5,-266.5 387.5,-285.5 510.5,-285.5 510.5,-266.5 387.5,-266.5"/>
<text text-anchor="middle" x="449" y="-273.5" font-family="Helvetica,sans-Serif" font-size="10.00">HttpRequest::getHeader</text>
</a>
</g>
</g>
<!-- Node6&#45;&gt;Node7 -->
<g id="edge7" class="edge">
<title>Node6&#45;&gt;Node7</title>
<path fill="none" stroke="midnightblue" d="M321.17,-190.6C327.51,-193.06 333.59,-196.15 339,-200 363.4,-217.38 350.81,-239.32 375,-257 377.64,-258.93 380.47,-260.67 383.41,-262.23"/>
<polygon fill="midnightblue" stroke="midnightblue" points="381.99,-265.42 392.54,-266.4 384.89,-259.06 381.99,-265.42"/>
</g>
<!-- Node8 -->
<g id="node8" class="node">
<title>Node8</title>
<g id="a_node8"><a xlink:href="classHttpRequest.html#a08c95fd7197579a81bbed722db6a8cc9" target="_top" xlink:title="Obtiene todos los headers de la petición.">
<polygon fill="white" stroke="black" points="385,-228.5 385,-247.5 513,-247.5 513,-228.5 385,-228.5"/>
<text text-anchor="middle" x="449" y="-235.5" font-family="Helvetica,sans-Serif" font-size="10.00">HttpRequest::getHeaders</text>
</a>
</g>
</g>
<!-- Node6&#45;&gt;Node8 -->
<g id="edge8" class="edge">
<title>Node6&#45;&gt;Node8</title>
<path fill="none" stroke="midnightblue" d="M307.86,-190.58C318.29,-193.17 329.12,-196.31 339,-200 355.94,-206.34 358.13,-212.46 375,-219 381.32,-221.45 388.06,-223.69 394.8,-225.7"/>
<polygon fill="midnightblue" stroke="midnightblue" points="394.05,-229.12 404.63,-228.47 395.96,-222.38 394.05,-229.12"/>
</g>
<!-- Node9 -->
<g id="node9" class="node">
<title>Node9</title>
<g id="a_node9"><a xlink:href="classHttpRequest.html#adf523a5345b525702a858f8792bab8ea" target="_top" xlink:title=" ">
<polygon fill="white" stroke="black" points="387,-190.5 387,-209.5 511,-209.5 511,-190.5 387,-190.5"/>
<text text-anchor="middle" x="449" y="-197.5" font-family="Helvetica,sans-Serif" font-size="10.00">HttpRequest::getMethod</text>
</a>
</g>
</g>
<!-- Node6&#45;&gt;Node9 -->
<g id="edge9" class="edge">
<title>Node6&#45;&gt;Node9</title>
<path fill="none" stroke="midnightblue" d="M339.13,-189.11C351.66,-190.37 364.52,-191.65 376.8,-192.88"/>
<polygon fill="midnightblue" stroke="midnightblue" points="376.68,-196.39 386.98,-193.9 377.37,-189.42 376.68,-196.39"/>
</g>
<!-- Node10 -->
<g id="node10" class="node">
<title>Node10</title>
<g id="a_node10"><a xlink:href="classHttpRequest.html#acde519e492e10352bc39d6a3bcd857b2" target="_top" xlink:title=" ">
<polygon fill="white" stroke="black" points="393,-152.5 393,-171.5 505,-171.5 505,-152.5 393,-152.5"/>
<text text-anchor="middle" x="449" y="-159.5" font-family="Helvetica,sans-Serif" font-size="10.00">HttpRequest::getPath</text>
</a>
</g>
</g>
<!-- Node6&#45;&gt;Node10 -->
<g id="edge10" class="edge">
<title>Node6&#45;&gt;Node10</title>
<path fill="none" stroke="midnightblue" d="M339.13,-172.89C353.74,-171.43 368.79,-169.92 382.88,-168.51"/>
<polygon fill="midnightblue" stroke="midnightblue" points="383.33,-171.98 392.94,-167.51 382.64,-165.02 383.33,-171.98"/>
</g>
<!-- Node11 -->
<g id="node11" class="node">
<title>Node11</title>
<g id="a_node11"><a xlink:href="classServerConfig.html#afab0e296905ba9053273c36b250a2420" target="_top" xlink:title=" ">
<polygon fill="white" stroke="black" points="393.5,-114.5 393.5,-133.5 504.5,-133.5 504.5,-114.5 393.5,-114.5"/>
<text text-anchor="middle" x="449" y="-121.5" font-family="Helvetica,sans-Serif" font-size="10.00">ServerConfig::getPort</text>
</a>
</g>
</g>
<!-- Node6&#45;&gt;Node11 -->
<g id="edge11" class="edge">
<title>Node6&#45;&gt;Node11</title>
<path fill="none" stroke="midnightblue" d="M307.86,-171.42C318.29,-168.83 329.12,-165.69 339,-162 355.94,-155.66 358.13,-149.54 375,-143 381.32,-140.55 388.06,-138.31 394.8,-136.3"/>
<polygon fill="midnightblue" stroke="midnightblue" points="395.96,-139.62 404.63,-133.53 394.05,-132.88 395.96,-139.62"/>
</g>
<!-- Node12 -->
<g id="node12" class="node">
<title>Node12</title>
<g id="a_node12"><a xlink:href="classHttpRequest.html#a579bc045f297b854a798e6a2d21b9502" target="_top" xlink:title=" ">
<polygon fill="white" stroke="black" points="390,-76.5 390,-95.5 508,-95.5 508,-76.5 390,-76.5"/>
<text text-anchor="middle" x="449" y="-83.5" font-family="Helvetica,sans-Serif" font-size="10.00">HttpRequest::getQuery</text>
</a>
</g>
</g>
<!-- Node6&#45;&gt;Node12 -->
<g id="edge12" class="edge">
<title>Node6&#45;&gt;Node12</title>
<path fill="none" stroke="midnightblue" d="M321.17,-171.4C327.51,-168.94 333.59,-165.85 339,-162 363.4,-144.62 350.81,-122.68 375,-105 377.64,-103.07 380.47,-101.33 383.41,-99.77"/>
<polygon fill="midnightblue" stroke="midnightblue" points="384.89,-102.94 392.54,-95.6 381.99,-96.58 384.89,-102.94"/>
</g>
<!-- Node13 -->
<g id="node13" class="node">
<title>Node13</title>
<g id="a_node13"><a xlink:href="classServerConfig.html#aa04c77f5ee06781c5830e2ad55f6463e" target="_top" xlink:title=" ">
<polygon fill="white" stroke="black" points="375,-38.5 375,-57.5 523,-57.5 523,-38.5 375,-38.5"/>
<text text-anchor="middle" x="449" y="-45.5" font-family="Helvetica,sans-Serif" font-size="10.00">ServerConfig::getServerName</text>
</a>
</g>
</g>
<!-- Node6&#45;&gt;Node13 -->
<g id="edge13" class="edge">
<title>Node6&#45;&gt;Node13</title>
<path fill="none" stroke="midnightblue" d="M324.4,-171.38C329.69,-168.89 334.65,-165.81 339,-162 372.96,-132.24 341.4,-97.16 375,-67 376.74,-65.44 378.6,-64 380.54,-62.68"/>
<polygon fill="midnightblue" stroke="midnightblue" points="382.56,-65.55 389.55,-57.59 379.12,-59.46 382.56,-65.55"/>
</g>
<!-- Node14 -->
<g id="node14" class="node">
<title>Node14</title>
<g id="a_node14"><a xlink:href="RequestProcessorUtils_8cpp.html#a390b94b66217f7a8dacf76cf769d07c7" target="_top" xlink:title=" ">
<polygon fill="white" stroke="black" points="406.5,-0.5 406.5,-19.5 491.5,-19.5 491.5,-0.5 406.5,-0.5"/>
<text text-anchor="middle" x="449" y="-7.5" font-family="Helvetica,sans-Serif" font-size="10.00">methodToString</text>
</a>
</g>
</g>
<!-- Node6&#45;&gt;Node14 -->
<g id="edge14" class="edge">
<title>Node6&#45;&gt;Node14</title>
<path fill="none" stroke="midnightblue" d="M325.59,-171.43C330.49,-168.92 335.05,-165.81 339,-162 383.03,-119.44 331.49,-72.09 375,-29 380.95,-23.1 388.49,-18.97 396.45,-16.08"/>
<polygon fill="midnightblue" stroke="midnightblue" points="397.71,-19.36 406.29,-13.14 395.7,-12.65 397.71,-19.36"/>
</g>
</g>
</svg>
