<?xml version="1.0" encoding="UTF-8" standalone="no"?>
<!DOCTYPE svg PUBLIC "-//W3C//DTD SVG 1.1//EN"
 "http://www.w3.org/Graphics/SVG/1.1/DTD/svg11.dtd">
<!-- Generated by graphviz version 2.43.0 (0)
 -->
<!-- Title: HttpParser::consume Pages: 1 -->
<!--zoomable 548 -->
<svg id="main" version="1.1" xmlns="http://www.w3.org/2000/svg" xmlns:xlink="http://www.w3.org/1999/xlink" xml:space="preserve" onload="init(evt)">
<style type="text/css"><![CDATA[
.edge:hover path { stroke: red; }
.edge:hover polygon { stroke: red; fill: red; }
]]></style>
<script type="text/javascript"><![CDATA[
var edges = document.getElementsByTagName('g');
if (edges && edges.length) {
  for (var i=0;i<edges.length;i++) {
    if (edges[i].id.substr(0,4)=='edge') {
      edges[i].setAttribute('class','edge');
    }
  }
}
]]></script>
        <defs>
                <circle id="rim" cx="0" cy="0" r="7"/>
                <circle id="rim2" cx="0" cy="0" r="3.5"/>
                <g id="zoomPlus">
                        <use xlink:href="#rim" fill="#404040">
                                <set attributeName="fill" to="#808080" begin="zoomplus.mouseover" end="zoomplus.mouseout"/>
                        </use>
                        <path d="M-4,0h8M0,-4v8" fill="none" stroke="white" stroke-width="1.5" pointer-events="none"/>
                </g>
                <g id="zoomMin">
                        <use xlink:href="#rim" fill="#404040">
                                <set attributeName="fill" to="#808080" begin="zoomminus.mouseover" end="zoomminus.mouseout"/>
                        </use>
                        <path d="M-4,0h8" fill="none" stroke="white" stroke-width="1.5" pointer-events="none"/>
                </g>
                <g id="dirArrow">
                        <path fill="none" stroke="white" stroke-width="1.5" d="M0,-3.0v7 M-2.5,-0.5L0,-3.0L2.5,-0.5"/>
                </g>
               <g id="resetDef">
                       <use xlink:href="#rim2" fill="#404040">
                               <set attributeName="fill" to="#808080" begin="reset.mouseover" end="reset.mouseout"/>
                       </use>
               </g>
        </defs>

<script type="text/javascript">
var viewWidth = 1012;
var viewHeight = 548;
var sectionId = 'dynsection-2';
</script>
<script xlink:href="svgpan.js"/>
<svg id="graph" class="graph">
<g id="viewport">
<title>HttpParser::consume</title>
<polygon fill="white" stroke="transparent" points="-4,4 -4,-544 1008,-544 1008,4 -4,4"/>
<!-- Node1 -->
<g id="node1" class="node">
<title>Node1</title>
<g id="a_node1"><a xlink:title=" ">
<polygon fill="#bfbfbf" stroke="black" points="0,-285.5 0,-304.5 110,-304.5 110,-285.5 0,-285.5"/>
<text text-anchor="middle" x="55" y="-292.5" font-family="Helvetica,sans-Serif" font-size="10.00">HttpParser::consume</text>
</a>
</g>
</g>
<!-- Node2 -->
<g id="node2" class="node">
<title>Node2</title>
<g id="a_node2"><a xlink:href="classHttpParser.html#a72e22a873ca7e20a8dbbd63a43b045f9" target="_top" xlink:title=" ">
<polygon fill="white" stroke="black" points="154.5,-430.5 154.5,-449.5 270.5,-449.5 270.5,-430.5 154.5,-430.5"/>
<text text-anchor="middle" x="212.5" y="-437.5" font-family="Helvetica,sans-Serif" font-size="10.00">HttpParser::parseBody</text>
</a>
</g>
</g>
<!-- Node1&#45;&gt;Node2 -->
<g id="edge1" class="edge">
<title>Node1&#45;&gt;Node2</title>
<path fill="none" stroke="midnightblue" d="M66.2,-304.51C92.11,-328.68 160.73,-392.65 193.53,-423.25"/>
<polygon fill="midnightblue" stroke="midnightblue" points="191.36,-426 201.06,-430.26 196.13,-420.88 191.36,-426"/>
</g>
<!-- Node12 -->
<g id="node12" class="node">
<title>Node12</title>
<g id="a_node12"><a xlink:href="classHttpParser.html#a7c2c3b29f245b3421b9af34300d7806b" target="_top" xlink:title=" ">
<polygon fill="white" stroke="black" points="147,-285.5 147,-304.5 278,-304.5 278,-285.5 147,-285.5"/>
<text text-anchor="middle" x="212.5" y="-292.5" font-family="Helvetica,sans-Serif" font-size="10.00">HttpParser::parseHeaders</text>
</a>
</g>
</g>
<!-- Node1&#45;&gt;Node12 -->
<g id="edge13" class="edge">
<title>Node1&#45;&gt;Node12</title>
<path fill="none" stroke="midnightblue" d="M110.39,-295C118.98,-295 127.99,-295 136.94,-295"/>
<polygon fill="midnightblue" stroke="midnightblue" points="137,-298.5 147,-295 137,-291.5 137,-298.5"/>
</g>
<!-- Node23 -->
<g id="node23" class="node">
<title>Node23</title>
<g id="a_node23"><a xlink:href="classHttpParser.html#a6f9875f1100d6d08d2b2b3c36f06e56e" target="_top" xlink:title=" ">
<polygon fill="white" stroke="black" points="146,-95.5 146,-114.5 279,-114.5 279,-95.5 146,-95.5"/>
<text text-anchor="middle" x="212.5" y="-102.5" font-family="Helvetica,sans-Serif" font-size="10.00">HttpParser::parseStartLine</text>
</a>
</g>
</g>
<!-- Node1&#45;&gt;Node23 -->
<g id="edge25" class="edge">
<title>Node1&#45;&gt;Node23</title>
<path fill="none" stroke="midnightblue" d="M63.93,-285.32C88.67,-255.09 164.74,-162.14 196.9,-122.84"/>
<polygon fill="midnightblue" stroke="midnightblue" points="199.78,-124.85 203.4,-114.89 194.36,-120.41 199.78,-124.85"/>
</g>
<!-- Node3 -->
<g id="node3" class="node">
<title>Node3</title>
<g id="a_node3"><a xlink:href="classHttpParser.html#a317def360bd0e77edbcb6673e0575d04" target="_top" xlink:title=" ">
<polygon fill="white" stroke="black" points="315,-430.5 315,-449.5 470,-449.5 470,-430.5 315,-430.5"/>
<text text-anchor="middle" x="392.5" y="-437.5" font-family="Helvetica,sans-Serif" font-size="10.00">HttpParser::parseBodyChunked</text>
</a>
</g>
</g>
<!-- Node2&#45;&gt;Node3 -->
<g id="edge2" class="edge">
<title>Node2&#45;&gt;Node3</title>
<path fill="none" stroke="midnightblue" d="M270.8,-440C281.65,-440 293.22,-440 304.74,-440"/>
<polygon fill="midnightblue" stroke="midnightblue" points="304.83,-443.5 314.83,-440 304.83,-436.5 304.83,-443.5"/>
</g>
<!-- Node11 -->
<g id="node11" class="node">
<title>Node11</title>
<g id="a_node11"><a xlink:href="classHttpParser.html#a6ef6b2216ab8d46870530e801719d92d" target="_top" xlink:title=" ">
<polygon fill="white" stroke="black" points="322.5,-493 322.5,-523 462.5,-523 462.5,-493 322.5,-493"/>
<text text-anchor="start" x="330.5" y="-511" font-family="Helvetica,sans-Serif" font-size="10.00">HttpParser::parseBodyFixed</text>
<text text-anchor="middle" x="392.5" y="-500" font-family="Helvetica,sans-Serif" font-size="10.00">Length</text>
</a>
</g>
</g>
<!-- Node2&#45;&gt;Node11 -->
<g id="edge11" class="edge">
<title>Node2&#45;&gt;Node11</title>
<path fill="none" stroke="midnightblue" d="M238.63,-449.6C265.49,-459.86 308.76,-476.39 342.43,-489.25"/>
<polygon fill="midnightblue" stroke="midnightblue" points="341.5,-492.64 352.09,-492.94 344,-486.11 341.5,-492.64"/>
</g>
<!-- Node4 -->
<g id="node4" class="node">
<title>Node4</title>
<g id="a_node4"><a xlink:href="classHttpParser.html#af765dc1e57edfa64d33b1e851504a393" target="_top" xlink:title=" ">
<polygon fill="white" stroke="black" points="506,-474 506,-504 654,-504 654,-474 506,-474"/>
<text text-anchor="start" x="514" y="-492" font-family="Helvetica,sans-Serif" font-size="10.00">HttpParser::handleChunkData</text>
<text text-anchor="middle" x="580" y="-481" font-family="Helvetica,sans-Serif" font-size="10.00">State</text>
</a>
</g>
</g>
<!-- Node3&#45;&gt;Node4 -->
<g id="edge3" class="edge">
<title>Node3&#45;&gt;Node4</title>
<path fill="none" stroke="midnightblue" d="M429.71,-449.56C453.19,-455.77 484.5,-464.04 512.38,-471.4"/>
<polygon fill="midnightblue" stroke="midnightblue" points="511.51,-474.79 522.07,-473.96 513.3,-468.03 511.51,-474.79"/>
</g>
<!-- Node7 -->
<g id="node7" class="node">
<title>Node7</title>
<g id="a_node7"><a xlink:href="classHttpParser.html#adeb6831e441d64132e5be749cd140706" target="_top" xlink:title=" ">
<polygon fill="white" stroke="black" points="698,-381 698,-411 842,-411 842,-381 698,-381"/>
<text text-anchor="start" x="706" y="-399" font-family="Helvetica,sans-Serif" font-size="10.00">HttpParser::handleChunkEnd</text>
<text text-anchor="middle" x="770" y="-388" font-family="Helvetica,sans-Serif" font-size="10.00">State</text>
</a>
</g>
</g>
<!-- Node3&#45;&gt;Node7 -->
<g id="edge6" class="edge">
<title>Node3&#45;&gt;Node7</title>
<path fill="none" stroke="midnightblue" d="M431.8,-430.49C453.45,-425.46 481.09,-419.59 506,-416 566.55,-407.28 635.53,-402.21 687.64,-399.36"/>
<polygon fill="midnightblue" stroke="midnightblue" points="688.04,-402.85 697.84,-398.82 687.66,-395.86 688.04,-402.85"/>
</g>
<!-- Node9 -->
<g id="node9" class="node">
<title>Node9</title>
<g id="a_node9"><a xlink:href="classHttpParser.html#ab31b647126e0e69451c80b70a83c850f" target="_top" xlink:title=" ">
<polygon fill="white" stroke="black" points="507,-425 507,-455 653,-455 653,-425 507,-425"/>
<text text-anchor="start" x="515" y="-443" font-family="Helvetica,sans-Serif" font-size="10.00">HttpParser::handleChunkSize</text>
<text text-anchor="middle" x="580" y="-432" font-family="Helvetica,sans-Serif" font-size="10.00">State</text>
</a>
</g>
</g>
<!-- Node3&#45;&gt;Node9 -->
<g id="edge8" class="edge">
<title>Node3&#45;&gt;Node9</title>
<path fill="none" stroke="midnightblue" d="M470.02,-440C478.77,-440 487.72,-440 496.55,-440"/>
<polygon fill="midnightblue" stroke="midnightblue" points="496.83,-443.5 506.83,-440 496.83,-436.5 496.83,-443.5"/>
</g>
<!-- Node5 -->
<g id="node5" class="node">
<title>Node5</title>
<g id="a_node5"><a xlink:href="classHttpRequest.html#ae5ee7fd2b11f54656722b0a6e32a5ad0" target="_top" xlink:title=" ">
<polygon fill="white" stroke="black" points="712,-520.5 712,-539.5 828,-539.5 828,-520.5 712,-520.5"/>
<text text-anchor="middle" x="770" y="-527.5" font-family="Helvetica,sans-Serif" font-size="10.00">HttpRequest::addBody</text>
</a>
</g>
</g>
<!-- Node4&#45;&gt;Node5 -->
<g id="edge4" class="edge">
<title>Node4&#45;&gt;Node5</title>
<path fill="none" stroke="midnightblue" d="M649.94,-504.03C671.45,-508.73 694.86,-513.83 715.18,-518.26"/>
<polygon fill="midnightblue" stroke="midnightblue" points="714.67,-521.73 725.19,-520.45 716.16,-514.9 714.67,-521.73"/>
</g>
<!-- Node6 -->
<g id="node6" class="node">
<title>Node6</title>
<g id="a_node6"><a xlink:href="classHttpRequest.html#aa727937b993d7df56a9d99b37d6be672" target="_top" xlink:title=" ">
<polygon fill="white" stroke="black" points="713,-479.5 713,-498.5 827,-498.5 827,-479.5 713,-479.5"/>
<text text-anchor="middle" x="770" y="-486.5" font-family="Helvetica,sans-Serif" font-size="10.00">HttpRequest::getBody</text>
</a>
</g>
</g>
<!-- Node4&#45;&gt;Node6 -->
<g id="edge5" class="edge">
<title>Node4&#45;&gt;Node6</title>
<path fill="none" stroke="midnightblue" d="M654.22,-489C670.21,-489 687.04,-489 702.73,-489"/>
<polygon fill="midnightblue" stroke="midnightblue" points="702.86,-492.5 712.86,-489 702.86,-485.5 702.86,-492.5"/>
</g>
<!-- Node8 -->
<g id="node8" class="node">
<title>Node8</title>
<g id="a_node8"><a xlink:href="classHttpParser.html#aaee9364e5a2d7de7213cfc7ffb74fcac" target="_top" xlink:title=" ">
<polygon fill="white" stroke="black" points="886,-364.5 886,-383.5 1004,-383.5 1004,-364.5 886,-364.5"/>
<text text-anchor="middle" x="945" y="-371.5" font-family="Helvetica,sans-Serif" font-size="10.00">HttpParser::extractLine</text>
</a>
</g>
</g>
<!-- Node7&#45;&gt;Node8 -->
<g id="edge7" class="edge">
<title>Node7&#45;&gt;Node8</title>
<path fill="none" stroke="midnightblue" d="M842.36,-386.92C853.48,-385.51 864.94,-384.05 875.98,-382.65"/>
<polygon fill="midnightblue" stroke="midnightblue" points="876.5,-386.11 885.98,-381.38 875.62,-379.17 876.5,-386.11"/>
</g>
<!-- Node10 -->
<g id="node10" class="node">
<title>Node10</title>
<g id="a_node10"><a xlink:href="classHttpParser.html#acdcae8756a7f32ec6e431b1b2d3417b8" target="_top" xlink:title=" ">
<polygon fill="white" stroke="black" points="690,-430.5 690,-449.5 850,-449.5 850,-430.5 690,-430.5"/>
<text text-anchor="middle" x="770" y="-437.5" font-family="Helvetica,sans-Serif" font-size="10.00">HttpParser::parseChunkSizeLine</text>
</a>
</g>
</g>
<!-- Node9&#45;&gt;Node10 -->
<g id="edge9" class="edge">
<title>Node9&#45;&gt;Node10</title>
<path fill="none" stroke="midnightblue" d="M653.15,-440C661.88,-440 670.87,-440 679.8,-440"/>
<polygon fill="midnightblue" stroke="midnightblue" points="679.85,-443.5 689.85,-440 679.85,-436.5 679.85,-443.5"/>
</g>
<!-- Node10&#45;&gt;Node8 -->
<g id="edge10" class="edge">
<title>Node10&#45;&gt;Node8</title>
<path fill="none" stroke="midnightblue" d="M818.31,-430.48C828.87,-427.84 839.93,-424.67 850,-421 874.08,-412.21 900.05,-398.91 918.57,-388.7"/>
<polygon fill="midnightblue" stroke="midnightblue" points="920.52,-391.62 927.53,-383.68 917.1,-385.52 920.52,-391.62"/>
</g>
<!-- Node11&#45;&gt;Node5 -->
<g id="edge12" class="edge">
<title>Node11&#45;&gt;Node5</title>
<path fill="none" stroke="midnightblue" d="M462.81,-512.06C530.94,-516.05 634.23,-522.1 701.67,-526.06"/>
<polygon fill="midnightblue" stroke="midnightblue" points="701.58,-529.56 711.76,-526.65 701.99,-522.57 701.58,-529.56"/>
</g>
<!-- Node12&#45;&gt;Node8 -->
<g id="edge14" class="edge">
<title>Node12&#45;&gt;Node8</title>
<path fill="none" stroke="midnightblue" d="M259.85,-304.54C277.11,-307.87 296.9,-311.41 315,-314 517.91,-343.03 759.73,-361.65 875.54,-369.59"/>
<polygon fill="midnightblue" stroke="midnightblue" points="875.47,-373.09 885.68,-370.28 875.94,-366.11 875.47,-373.09"/>
</g>
<!-- Node13 -->
<g id="node13" class="node">
<title>Node13</title>
<g id="a_node13"><a xlink:href="classHttpParser.html#aad534f8119b202b2c0194bf0a7cb6620" target="_top" xlink:title=" ">
<polygon fill="white" stroke="black" points="315.5,-285.5 315.5,-304.5 469.5,-304.5 469.5,-285.5 315.5,-285.5"/>
<text text-anchor="middle" x="392.5" y="-292.5" font-family="Helvetica,sans-Serif" font-size="10.00">HttpParser::processHeaderLine</text>
</a>
</g>
</g>
<!-- Node12&#45;&gt;Node13 -->
<g id="edge15" class="edge">
<title>Node12&#45;&gt;Node13</title>
<path fill="none" stroke="midnightblue" d="M278.01,-295C286.83,-295 296,-295 305.13,-295"/>
<polygon fill="midnightblue" stroke="midnightblue" points="305.4,-298.5 315.4,-295 305.4,-291.5 305.4,-298.5"/>
</g>
<!-- Node20 -->
<g id="node20" class="node">
<title>Node20</title>
<g id="a_node20"><a xlink:href="classHttpParser.html#af1b9bb0ac2ed3f90cbccba85c9e5130d" target="_top" xlink:title="Valida headers obligatorios y conflictos.">
<polygon fill="white" stroke="black" points="322.5,-228.5 322.5,-247.5 462.5,-247.5 462.5,-228.5 322.5,-228.5"/>
<text text-anchor="middle" x="392.5" y="-235.5" font-family="Helvetica,sans-Serif" font-size="10.00">HttpParser::validateHeaders</text>
</a>
</g>
</g>
<!-- Node12&#45;&gt;Node20 -->
<g id="edge22" class="edge">
<title>Node12&#45;&gt;Node20</title>
<path fill="none" stroke="midnightblue" d="M243.29,-285.46C273.07,-275.92 319.03,-261.21 351.87,-250.69"/>
<polygon fill="midnightblue" stroke="midnightblue" points="353.15,-253.95 361.61,-247.57 351.02,-247.29 353.15,-253.95"/>
</g>
<!-- Node14 -->
<g id="node14" class="node">
<title>Node14</title>
<g id="a_node14"><a xlink:href="classHttpParser.html#ae451799e46fef4713ec48321d8b21806" target="_top" xlink:title=" ">
<polygon fill="white" stroke="black" points="515,-304.5 515,-323.5 645,-323.5 645,-304.5 515,-304.5"/>
<text text-anchor="middle" x="580" y="-311.5" font-family="Helvetica,sans-Serif" font-size="10.00">HttpParser::handleHeader</text>
</a>
</g>
</g>
<!-- Node13&#45;&gt;Node14 -->
<g id="edge16" class="edge">
<title>Node13&#45;&gt;Node14</title>
<path fill="none" stroke="midnightblue" d="M469.75,-302.81C481.35,-304 493.29,-305.22 504.84,-306.4"/>
<polygon fill="midnightblue" stroke="midnightblue" points="504.56,-309.89 514.87,-307.43 505.28,-302.93 504.56,-309.89"/>
</g>
<!-- Node17 -->
<g id="node17" class="node">
<title>Node17</title>
<g id="a_node17"><a xlink:href="classHttpParser.html#aa4b991659eac9e1657d9c71caada3ea1" target="_top" xlink:title="Divide una linea de header en key y value.">
<polygon fill="white" stroke="black" points="511.5,-266.5 511.5,-285.5 648.5,-285.5 648.5,-266.5 511.5,-266.5"/>
<text text-anchor="middle" x="580" y="-273.5" font-family="Helvetica,sans-Serif" font-size="10.00">HttpParser::splitHeaderLine</text>
</a>
</g>
</g>
<!-- Node13&#45;&gt;Node17 -->
<g id="edge19" class="edge">
<title>Node13&#45;&gt;Node17</title>
<path fill="none" stroke="midnightblue" d="M469.75,-287.19C480.1,-286.13 490.72,-285.04 501.09,-283.98"/>
<polygon fill="midnightblue" stroke="midnightblue" points="501.77,-287.43 511.36,-282.93 501.05,-280.47 501.77,-287.43"/>
</g>
<!-- Node15 -->
<g id="node15" class="node">
<title>Node15</title>
<g id="a_node15"><a xlink:href="classHttpRequest.html#a321d2ac0235127e7470d98795eb4a355" target="_top" xlink:title="Agrega un header al mapa. La clave debe venir ya normalizada en minúsculas.">
<polygon fill="white" stroke="black" points="704.5,-304.5 704.5,-323.5 835.5,-323.5 835.5,-304.5 704.5,-304.5"/>
<text text-anchor="middle" x="770" y="-311.5" font-family="Helvetica,sans-Serif" font-size="10.00">HttpRequest::addHeaders</text>
</a>
</g>
</g>
<!-- Node14&#45;&gt;Node15 -->
<g id="edge17" class="edge">
<title>Node14&#45;&gt;Node15</title>
<path fill="none" stroke="midnightblue" d="M645.17,-314C661.03,-314 678.15,-314 694.45,-314"/>
<polygon fill="midnightblue" stroke="midnightblue" points="694.48,-317.5 704.48,-314 694.48,-310.5 694.48,-317.5"/>
</g>
<!-- Node16 -->
<g id="node16" class="node">
<title>Node16</title>
<g id="a_node16"><a xlink:href="namespacehttp__header__utils.html#aa9b0e84aeed4203326a12eecbcd3f9e5" target="_top" xlink:title=" ">
<polygon fill="white" stroke="black" points="721.5,-255 721.5,-285 818.5,-285 818.5,-255 721.5,-255"/>
<text text-anchor="start" x="729.5" y="-273" font-family="Helvetica,sans-Serif" font-size="10.00">http_header_utils::</text>
<text text-anchor="middle" x="770" y="-262" font-family="Helvetica,sans-Serif" font-size="10.00">toLowerCopy</text>
</a>
</g>
</g>
<!-- Node14&#45;&gt;Node16 -->
<g id="edge18" class="edge">
<title>Node14&#45;&gt;Node16</title>
<path fill="none" stroke="midnightblue" d="M621.79,-304.45C647.97,-298.33 682.36,-290.28 711.32,-283.5"/>
<polygon fill="midnightblue" stroke="midnightblue" points="712.37,-286.85 721.31,-281.16 710.78,-280.03 712.37,-286.85"/>
</g>
<!-- Node18 -->
<g id="node18" class="node">
<title>Node18</title>
<g id="a_node18"><a xlink:href="namespacehttp__header__utils.html#a8e76e9e7c6a2030b51da66551de2a136" target="_top" xlink:title=" ">
<polygon fill="white" stroke="black" points="721.5,-103 721.5,-133 818.5,-133 818.5,-103 721.5,-103"/>
<text text-anchor="start" x="729.5" y="-121" font-family="Helvetica,sans-Serif" font-size="10.00">http_header_utils::</text>
<text text-anchor="middle" x="770" y="-110" font-family="Helvetica,sans-Serif" font-size="10.00">splitHeaderLine</text>
</a>
</g>
</g>
<!-- Node17&#45;&gt;Node18 -->
<g id="edge20" class="edge">
<title>Node17&#45;&gt;Node18</title>
<path fill="none" stroke="midnightblue" d="M634.1,-266.41C641.09,-263.95 647.92,-260.87 654,-257 700.21,-227.57 736.96,-173.47 755.6,-142.15"/>
<polygon fill="midnightblue" stroke="midnightblue" points="758.8,-143.62 760.8,-133.21 752.75,-140.1 758.8,-143.62"/>
</g>
<!-- Node19 -->
<g id="node19" class="node">
<title>Node19</title>
<g id="a_node19"><a xlink:href="namespacehttp__header__utils.html#ad43de990f48606a45f250b95d34daf91" target="_top" xlink:title=" ">
<polygon fill="white" stroke="black" points="896.5,-103 896.5,-133 993.5,-133 993.5,-103 896.5,-103"/>
<text text-anchor="start" x="904.5" y="-121" font-family="Helvetica,sans-Serif" font-size="10.00">http_header_utils::</text>
<text text-anchor="middle" x="945" y="-110" font-family="Helvetica,sans-Serif" font-size="10.00">trimSpaces</text>
</a>
</g>
</g>
<!-- Node18&#45;&gt;Node19 -->
<g id="edge21" class="edge">
<title>Node18&#45;&gt;Node19</title>
<path fill="none" stroke="midnightblue" d="M818.73,-118C839.63,-118 864.32,-118 886.25,-118"/>
<polygon fill="midnightblue" stroke="midnightblue" points="886.42,-121.5 896.42,-118 886.42,-114.5 886.42,-121.5"/>
</g>
<!-- Node21 -->
<g id="node21" class="node">
<title>Node21</title>
<g id="a_node21"><a xlink:href="classHttpRequest.html#ab537cb11b054734695ee4889d88aec6d" target="_top" xlink:title="Obtiene un header específico de la petición.">
<polygon fill="white" stroke="black" points="518.5,-228.5 518.5,-247.5 641.5,-247.5 641.5,-228.5 518.5,-228.5"/>
<text text-anchor="middle" x="580" y="-235.5" font-family="Helvetica,sans-Serif" font-size="10.00">HttpRequest::getHeader</text>
</a>
</g>
</g>
<!-- Node20&#45;&gt;Node21 -->
<g id="edge23" class="edge">
<title>Node20&#45;&gt;Node21</title>
<path fill="none" stroke="midnightblue" d="M462.57,-238C477.47,-238 493.24,-238 508.2,-238"/>
<polygon fill="midnightblue" stroke="midnightblue" points="508.41,-241.5 518.41,-238 508.41,-234.5 508.41,-241.5"/>
</g>
<!-- Node22 -->
<g id="node22" class="node">
<title>Node22</title>
<g id="a_node22"><a xlink:href="classHttpRequest.html#ac2a5d18d42289a03b57215c98d8df41e" target="_top" xlink:title=" ">
<polygon fill="white" stroke="black" points="517.5,-190.5 517.5,-209.5 642.5,-209.5 642.5,-190.5 517.5,-190.5"/>
<text text-anchor="middle" x="580" y="-197.5" font-family="Helvetica,sans-Serif" font-size="10.00">HttpRequest::getVersion</text>
</a>
</g>
</g>
<!-- Node20&#45;&gt;Node22 -->
<g id="edge24" class="edge">
<title>Node20&#45;&gt;Node22</title>
<path fill="none" stroke="midnightblue" d="M440.31,-228.41C465.34,-223.28 496.34,-216.93 522.68,-211.54"/>
<polygon fill="midnightblue" stroke="midnightblue" points="523.43,-214.96 532.53,-209.52 522.03,-208.1 523.43,-214.96"/>
</g>
<!-- Node23&#45;&gt;Node8 -->
<g id="edge26" class="edge">
<title>Node23&#45;&gt;Node8</title>
<path fill="none" stroke="midnightblue" d="M234.41,-114.57C254.6,-123.39 286.27,-136.12 315,-143 550.49,-199.37 654.17,-103.58 850,-246 890.51,-275.46 920.87,-327.58 935.08,-355.35"/>
<polygon fill="midnightblue" stroke="midnightblue" points="931.99,-357 939.57,-364.4 938.26,-353.88 931.99,-357"/>
</g>
<!-- Node24 -->
<g id="node24" class="node">
<title>Node24</title>
<g id="a_node24"><a xlink:href="classHttpParser.html#a4a86302e8f97c316b662225211f11dd3" target="_top" xlink:title=" ">
<polygon fill="white" stroke="black" points="339,-76.5 339,-95.5 446,-95.5 446,-76.5 339,-76.5"/>
<text text-anchor="middle" x="392.5" y="-83.5" font-family="Helvetica,sans-Serif" font-size="10.00">HttpParser::parseUri</text>
</a>
</g>
</g>
<!-- Node23&#45;&gt;Node24 -->
<g id="edge27" class="edge">
<title>Node23&#45;&gt;Node24</title>
<path fill="none" stroke="midnightblue" d="M279.02,-98.01C295.2,-96.28 312.5,-94.43 328.56,-92.72"/>
<polygon fill="midnightblue" stroke="midnightblue" points="329.33,-96.16 338.91,-91.61 328.59,-89.2 329.33,-96.16"/>
</g>
<!-- Node28 -->
<g id="node28" class="node">
<title>Node28</title>
<g id="a_node28"><a xlink:href="classHttpRequest.html#a7c225a37759f8106cc8e22f49c9eed5c" target="_top" xlink:title="Convierte el método HTTP a mayúsculas y lo asigna al atributo _method.">
<polygon fill="white" stroke="black" points="330.5,-38.5 330.5,-57.5 454.5,-57.5 454.5,-38.5 330.5,-38.5"/>
<text text-anchor="middle" x="392.5" y="-45.5" font-family="Helvetica,sans-Serif" font-size="10.00">HttpRequest::setMethod</text>
</a>
</g>
</g>
<!-- Node23&#45;&gt;Node28 -->
<g id="edge31" class="edge">
<title>Node23&#45;&gt;Node28</title>
<path fill="none" stroke="midnightblue" d="M236.62,-95.48C257.02,-87.28 287.68,-75.47 315,-67 322.81,-64.58 331.13,-62.25 339.31,-60.11"/>
<polygon fill="midnightblue" stroke="midnightblue" points="340.35,-63.46 349.17,-57.59 338.62,-56.67 340.35,-63.46"/>
</g>
<!-- Node29 -->
<g id="node29" class="node">
<title>Node29</title>
<g id="a_node29"><a xlink:href="classHttpRequest.html#a27c140b8f5fc57bf03b3d85e94214603" target="_top" xlink:title=" ">
<polygon fill="white" stroke="black" points="330,-0.5 330,-19.5 455,-19.5 455,-0.5 330,-0.5"/>
<text text-anchor="middle" x="392.5" y="-7.5" font-family="Helvetica,sans-Serif" font-size="10.00">HttpRequest::setVersion</text>
</a>
</g>
</g>
<!-- Node23&#45;&gt;Node29 -->
<g id="edge32" class="edge">
<title>Node23&#45;&gt;Node29</title>
<path fill="none" stroke="midnightblue" d="M223.54,-95.26C240.79,-79.07 277.81,-46.65 315,-29 320.02,-26.62 325.38,-24.51 330.83,-22.66"/>
<polygon fill="midnightblue" stroke="midnightblue" points="332.2,-25.89 340.71,-19.58 330.12,-19.21 332.2,-25.89"/>
</g>
<!-- Node30 -->
<g id="node30" class="node">
<title>Node30</title>
<g id="a_node30"><a xlink:href="classHttpParser.html#a2fa66a66c5dca9a86784ae5d8353b18c" target="_top" xlink:title=" ">
<polygon fill="white" stroke="black" points="329,-114.5 329,-133.5 456,-133.5 456,-114.5 329,-114.5"/>
<text text-anchor="middle" x="392.5" y="-121.5" font-family="Helvetica,sans-Serif" font-size="10.00">HttpParser::splitStartLine</text>
</a>
</g>
</g>
<!-- Node23&#45;&gt;Node30 -->
<g id="edge33" class="edge">
<title>Node23&#45;&gt;Node30</title>
<path fill="none" stroke="midnightblue" d="M279.02,-111.99C291.98,-113.38 305.65,-114.84 318.82,-116.24"/>
<polygon fill="midnightblue" stroke="midnightblue" points="318.47,-119.72 328.78,-117.31 319.21,-112.76 318.47,-119.72"/>
</g>
<!-- Node25 -->
<g id="node25" class="node">
<title>Node25</title>
<g id="a_node25"><a xlink:href="HttpParserStartLine_8cpp.html#a2597e42415ee763aecb6903cea7a0af7" target="_top" xlink:title=" ">
<polygon fill="white" stroke="black" points="509.5,-114.5 509.5,-133.5 650.5,-133.5 650.5,-114.5 509.5,-114.5"/>
<text text-anchor="middle" x="580" y="-121.5" font-family="Helvetica,sans-Serif" font-size="10.00">containsParentPathSegment</text>
</a>
</g>
</g>
<!-- Node24&#45;&gt;Node25 -->
<g id="edge28" class="edge">
<title>Node24&#45;&gt;Node25</title>
<path fill="none" stroke="midnightblue" d="M440.31,-95.59C465.34,-100.72 496.34,-107.07 522.68,-112.46"/>
<polygon fill="midnightblue" stroke="midnightblue" points="522.03,-115.9 532.53,-114.48 523.43,-109.04 522.03,-115.9"/>
</g>
<!-- Node26 -->
<g id="node26" class="node">
<title>Node26</title>
<g id="a_node26"><a xlink:href="classHttpRequest.html#aa12b5a0581b89d06e681b9ecfe6486e3" target="_top" xlink:title=" ">
<polygon fill="white" stroke="black" points="524,-76.5 524,-95.5 636,-95.5 636,-76.5 524,-76.5"/>
<text text-anchor="middle" x="580" y="-83.5" font-family="Helvetica,sans-Serif" font-size="10.00">HttpRequest::setPath</text>
</a>
</g>
</g>
<!-- Node24&#45;&gt;Node26 -->
<g id="edge29" class="edge">
<title>Node24&#45;&gt;Node26</title>
<path fill="none" stroke="midnightblue" d="M446.16,-86C467.25,-86 491.75,-86 513.94,-86"/>
<polygon fill="midnightblue" stroke="midnightblue" points="513.94,-89.5 523.94,-86 513.94,-82.5 513.94,-89.5"/>
</g>
<!-- Node27 -->
<g id="node27" class="node">
<title>Node27</title>
<g id="a_node27"><a xlink:href="classHttpRequest.html#a1181be9f943f9504556f6481da778cba" target="_top" xlink:title=" ">
<polygon fill="white" stroke="black" points="521,-38.5 521,-57.5 639,-57.5 639,-38.5 521,-38.5"/>
<text text-anchor="middle" x="580" y="-45.5" font-family="Helvetica,sans-Serif" font-size="10.00">HttpRequest::setQuery</text>
</a>
</g>
</g>
<!-- Node24&#45;&gt;Node27 -->
<g id="edge30" class="edge">
<title>Node24&#45;&gt;Node27</title>
<path fill="none" stroke="midnightblue" d="M440.31,-76.41C465.34,-71.28 496.34,-64.93 522.68,-59.54"/>
<polygon fill="midnightblue" stroke="midnightblue" points="523.43,-62.96 532.53,-57.52 522.03,-56.1 523.43,-62.96"/>
</g>
</g>
</svg>
        <g id="navigator" transform="translate(0 0)" fill="#404254">
                <rect fill="#f2f5e9" fill-opacity="0.5" stroke="#606060" stroke-width=".5" x="0" y="0" width="60" height="60"/>
                <use id="zoomplus" xlink:href="#zoomPlus" x="17" y="9" onmousedown="handleZoom(evt,'in')"/>
                <use id="zoomminus" xlink:href="#zoomMin" x="42" y="9" onmousedown="handleZoom(evt,'out')"/>
                <use id="reset" xlink:href="#resetDef" x="30" y="36" onmousedown="handleReset()"/>
                <g id="arrowUp" xlink:href="#dirArrow" transform="translate(30 24)" onmousedown="handlePan(0,-1)">
                  <use xlink:href="#rim" fill="#404040">
                        <set attributeName="fill" to="#808080" begin="arrowUp.mouseover" end="arrowUp.mouseout"/>
                  </use>
                  <path fill="none" stroke="white" stroke-width="1.5" d="M0,-3.0v7 M-2.5,-0.5L0,-3.0L2.5,-0.5"/>
                </g>
                <g id="arrowRight" xlink:href="#dirArrow" transform="rotate(90) translate(36 -43)" onmousedown="handlePan(1,0)">
                  <use xlink:href="#rim" fill="#404040">
                        <set attributeName="fill" to="#808080" begin="arrowRight.mouseover" end="arrowRight.mouseout"/>
                  </use>
                  <path fill="none" stroke="white" stroke-width="1.5" d="M0,-3.0v7 M-2.5,-0.5L0,-3.0L2.5,-0.5"/>
                </g>
                <g id="arrowDown" xlink:href="#dirArrow" transform="rotate(180) translate(-30 -48)" onmousedown="handlePan(0,1)">
                  <use xlink:href="#rim" fill="#404040">
                        <set attributeName="fill" to="#808080" begin="arrowDown.mouseover" end="arrowDown.mouseout"/>
                  </use>
                  <path fill="none" stroke="white" stroke-width="1.5" d="M0,-3.0v7 M-2.5,-0.5L0,-3.0L2.5,-0.5"/>
                </g>
                <g id="arrowLeft" xlink:href="#dirArrow" transform="rotate(270) translate(-36 17)" onmousedown="handlePan(-1,0)">
                  <use xlink:href="#rim" fill="#404040">
                        <set attributeName="fill" to="#808080" begin="arrowLeft.mouseover" end="arrowLeft.mouseout"/>
                  </use>
                  <path fill="none" stroke="white" stroke-width="1.5" d="M0,-3.0v7 M-2.5,-0.5L0,-3.0L2.5,-0.5"/>
                </g>
        </g>
        <svg viewBox="0 0 15 15" width="100%" height="30px" preserveAspectRatio="xMaxYMin meet">
         <g id="arrow_out" transform="scale(0.3 0.3)">
          <a xlink:href="classHttpParser_ada29088006c606896d2d46e48034f420_cgraph_org.svg" target="_base">
           <rect id="button" ry="5" rx="5" y="6" x="6" height="38" width="38"
                fill="#f2f5e9" fill-opacity="0.5" stroke="#606060" stroke-width="1.0"/>
           <path id="arrow"
             d="M 11.500037,31.436501 C 11.940474,20.09759 22.043105,11.32322 32.158766,21.979434 L 37.068811,17.246167 C 37.068811,17.246167 37.088388,32 37.088388,32 L 22.160133,31.978069 C 22.160133,31.978069 26.997745,27.140456 26.997745,27.140456 C 18.528582,18.264221 13.291696,25.230495 11.500037,31.436501 z"
             style="fill:#404040;"/>
          </a>
         </g>
        </svg>
</svg>
