<?xml version="1.0" encoding="UTF-8" standalone="no"?>
<!DOCTYPE svg PUBLIC "-//W3C//DTD SVG 1.1//EN"
 "http://www.w3.org/Graphics/SVG/1.1/DTD/svg11.dtd">
<!-- Generated by graphviz version 2.43.0 (0)
 -->
<!-- Title: HttpRequest::getMethod Pages: 1 -->
<!--zoomable 611 -->
<svg id="main" version="1.1" xmlns="http://www.w3.org/2000/svg" xmlns:xlink="http://www.w3.org/1999/xlink" xml:space="preserve" onload="init(evt)">
<style type="text/css"><![CDATA[
.edge:hover path { stroke: red; }
.edge:hover polygon { stroke: red; fill: red; }
]]></style>
<script type="text/javascript"><![CDATA[
var edges = document.getElementsByTagName('g');
if (edges && edges.length) {
  for (var i=0;i<edges.length;i++) {
    if (edges[i].id.substr(0,4)=='edge') {
      edges[i].setAttribute('class','edge');
    }
  }
}
]]></script>
        <defs>
                <circle id="rim" cx="0" cy="0" r="7"/>
                <circle id="rim2" cx="0" cy="0" r="3.5"/>
                <g id="zoomPlus">
                        <use xlink:href="#rim" fill="#404040">
                                <set attributeName="fill" to="#808080" begin="zoomplus.mouseover" end="zoomplus.mouseout"/>
                        </use>
                        <path d="M-4,0h8M0,-4v8" fill="none" stroke="white" stroke-width="1.5" pointer-events="none"/>
                </g>
                <g id="zoomMin">
                        <use xlink:href="#rim" fill="#404040">
                                <set attributeName="fill" to="#808080" begin="zoomminus.mouseover" end="zoomminus.mouseout"/>
                        </use>
                        <path d="M-4,0h8" fill="none" stroke="white" stroke-width="1.5" pointer-events="none"/>
                </g>
                <g id="dirArrow">
                        <path fill="none" stroke="white" stroke-width="1.5" d="M0,-3.0v7 M-2.5,-0.5L0,-3.0L2.5,-0.5"/>
                </g>
               <g id="resetDef">
                       <use xlink:href="#rim2" fill="#404040">
                               <set attributeName="fill" to="#808080" begin="reset.mouseover" end="reset.mouseout"/>
                       </use>
               </g>
        </defs>

<script type="text/javascript">
var viewWidth = 2043;
var viewHeight = 611;
var sectionId = 'dynsection-8';
</script>
<script xlink:href="svgpan.js"/>
<svg id="graph" class="graph">
<g id="viewport">
<title>HttpRequest::getMethod</title>
<polygon fill="white" stroke="transparent" points="-4,4 -4,-607.42 2039,-607.42 2039,4 -4,4"/>
<!-- Node1 -->
<g id="node1" class="node">
<title>Node1</title>
<g id="a_node1"><a xlink:title=" ">
<polygon fill="#bfbfbf" stroke="black" points="1911,-332.92 1911,-351.92 2035,-351.92 2035,-332.92 1911,-332.92"/>
<text text-anchor="middle" x="1973" y="-339.92" font-family="Helvetica,sans-Serif" font-size="10.00">HttpRequest::getMethod</text>
</a>
</g>
</g>
<!-- Node2 -->
<g id="node2" class="node">
<title>Node2</title>
<g id="a_node2"><a xlink:href="ResponseUtils_8cpp.html#ab7c2cb6fbf297c09ec402182b04584c6" target="_top" xlink:title=" ">
<polygon fill="white" stroke="black" points="1746.5,-332.92 1746.5,-351.92 1839.5,-351.92 1839.5,-332.92 1746.5,-332.92"/>
<text text-anchor="middle" x="1793" y="-339.92" font-family="Helvetica,sans-Serif" font-size="10.00">fillBaseResponse</text>
</a>
</g>
</g>
<!-- Node1&#45;&gt;Node2 -->
<g id="edge1" class="edge">
<title>Node1&#45;&gt;Node2</title>
<path fill="none" stroke="midnightblue" d="M1900.47,-342.42C1879.95,-342.42 1858.13,-342.42 1839.62,-342.42"/>
<polygon fill="midnightblue" stroke="midnightblue" points="1900.74,-345.92 1910.74,-342.42 1900.74,-338.92 1900.74,-345.92"/>
</g>
<!-- Node7 -->
<g id="node7" class="node">
<title>Node7</title>
<g id="a_node7"><a xlink:href="classClient.html#abcf615f2514ae7e0266315693e73a31a" target="_top" xlink:title=" ">
<polygon fill="white" stroke="black" points="652,-350.92 652,-369.92 807,-369.92 807,-350.92 652,-350.92"/>
<text text-anchor="middle" x="729.5" y="-357.92" font-family="Helvetica,sans-Serif" font-size="10.00">Client::handleCompleteRequest</text>
</a>
</g>
</g>
<!-- Node1&#45;&gt;Node7 -->
<g id="edge37" class="edge">
<title>Node1&#45;&gt;Node7</title>
<path fill="none" stroke="midnightblue" d="M1970.64,-322.68C1966.21,-273.84 1947.89,-146.42 1875,-78.42 1784.13,6.35 1730.77,-0.42 1606.5,-0.42 1606.5,-0.42 1606.5,-0.42 1079,-0.42 878.06,-0.42 756,-293.54 734.07,-350.79"/>
<polygon fill="midnightblue" stroke="midnightblue" points="1967.17,-323.15 1971.46,-332.84 1974.15,-322.59 1967.17,-323.15"/>
</g>
<!-- Node18 -->
<g id="node18" class="node">
<title>Node18</title>
<g id="a_node18"><a xlink:href="StaticPathHandler_8cpp.html#a4e092999675b45373270f5408cbe64c7" target="_top" xlink:title=" ">
<polygon fill="white" stroke="black" points="1213,-123.92 1213,-142.92 1304,-142.92 1304,-123.92 1213,-123.92"/>
<text text-anchor="middle" x="1258.5" y="-130.92" font-family="Helvetica,sans-Serif" font-size="10.00">handleStaticPath</text>
</a>
</g>
</g>
<!-- Node1&#45;&gt;Node18 -->
<g id="edge40" class="edge">
<title>Node1&#45;&gt;Node18</title>
<path fill="none" stroke="midnightblue" d="M1966.53,-323.08C1955.38,-287.12 1926.59,-209.76 1875,-167.42 1740.73,-57.24 1672.26,-79.68 1500,-57.42 1441.82,-49.9 1423.95,-39.78 1368,-57.42 1326.11,-70.64 1286.33,-106.44 1268.83,-123.77"/>
<polygon fill="midnightblue" stroke="midnightblue" points="1963.23,-324.24 1969.43,-332.83 1969.94,-322.25 1963.23,-324.24"/>
</g>
<!-- Node20 -->
<g id="node20" class="node">
<title>Node20</title>
<g id="a_node20"><a xlink:href="classRequestProcessor.html#a10779d8453416feeda2174859c00d082" target="_top" xlink:title=" ">
<polygon fill="white" stroke="black" points="1368,-534.42 1368,-564.42 1500,-564.42 1500,-534.42 1368,-534.42"/>
<text text-anchor="start" x="1376" y="-552.42" font-family="Helvetica,sans-Serif" font-size="10.00">RequestProcessor::handle</text>
<text text-anchor="middle" x="1434" y="-541.42" font-family="Helvetica,sans-Serif" font-size="10.00">ParseOrMethodErrors</text>
</a>
</g>
</g>
<!-- Node1&#45;&gt;Node20 -->
<g id="edge38" class="edge">
<title>Node1&#45;&gt;Node20</title>
<path fill="none" stroke="midnightblue" d="M1956.33,-359.48C1938.23,-378.38 1906.84,-408.77 1875,-428.42 1755.5,-502.17 1590.55,-531.8 1500.37,-543.05"/>
<polygon fill="midnightblue" stroke="midnightblue" points="1958.93,-361.83 1963.24,-352.15 1953.83,-357.03 1958.93,-361.83"/>
</g>
<!-- Node21 -->
<g id="node21" class="node">
<title>Node21</title>
<g id="a_node21"><a xlink:href="StaticPathHandler_8cpp.html#a5af8659f0f83e8296b29264dd671af0d" target="_top" xlink:title=" ">
<polygon fill="white" stroke="black" points="1386.5,-66.92 1386.5,-85.92 1481.5,-85.92 1481.5,-66.92 1386.5,-66.92"/>
<text text-anchor="middle" x="1434" y="-73.92" font-family="Helvetica,sans-Serif" font-size="10.00">handleRegularFile</text>
</a>
</g>
</g>
<!-- Node1&#45;&gt;Node21 -->
<g id="edge39" class="edge">
<title>Node1&#45;&gt;Node21</title>
<path fill="none" stroke="midnightblue" d="M1951.54,-326.7C1904.81,-291.39 1785.71,-204.82 1675,-152.42 1601.06,-117.43 1578.15,-119.57 1500,-95.42 1489.78,-92.27 1478.61,-88.95 1468.46,-85.99"/>
<polygon fill="midnightblue" stroke="midnightblue" points="1949.57,-329.6 1959.65,-332.86 1953.81,-324.03 1949.57,-329.6"/>
</g>
<!-- Node23 -->
<g id="node23" class="node">
<title>Node23</title>
<g id="a_node23"><a xlink:href="classCgiExecutor.html#ad97592b573c577e6bae11662ec683910" target="_top" xlink:title=" ">
<polygon fill="white" stroke="black" points="1711,-566.92 1711,-585.92 1875,-585.92 1875,-566.92 1711,-566.92"/>
<text text-anchor="middle" x="1793" y="-573.92" font-family="Helvetica,sans-Serif" font-size="10.00">CgiExecutor::prepareEnvironment</text>
</a>
</g>
</g>
<!-- Node1&#45;&gt;Node23 -->
<g id="edge41" class="edge">
<title>Node1&#45;&gt;Node23</title>
<path fill="none" stroke="midnightblue" d="M1968.56,-361.96C1960.24,-403.37 1935.1,-500.44 1875,-552.42 1867.68,-558.76 1858.75,-563.42 1849.53,-566.85"/>
<polygon fill="midnightblue" stroke="midnightblue" points="1972.02,-362.52 1970.44,-352.05 1965.14,-361.22 1972.02,-362.52"/>
</g>
<!-- Node27 -->
<g id="node27" class="node">
<title>Node27</title>
<g id="a_node27"><a xlink:href="RequestProcessorUtils_8cpp.html#a78597f2a4e423d57364c43dda7bcf969" target="_top" xlink:title=" ">
<polygon fill="white" stroke="black" points="1562,-479.92 1562,-498.92 1649,-498.92 1649,-479.92 1562,-479.92"/>
<text text-anchor="middle" x="1605.5" y="-486.92" font-family="Helvetica,sans-Serif" font-size="10.00">validateLocation</text>
</a>
</g>
</g>
<!-- Node1&#45;&gt;Node27 -->
<g id="edge46" class="edge">
<title>Node1&#45;&gt;Node27</title>
<path fill="none" stroke="midnightblue" d="M1938.69,-355.82C1865.71,-385.17 1693.24,-454.54 1630.15,-479.91"/>
<polygon fill="midnightblue" stroke="midnightblue" points="1940.33,-358.93 1948.3,-351.95 1937.72,-352.44 1940.33,-358.93"/>
</g>
<!-- Node3 -->
<g id="node3" class="node">
<title>Node3</title>
<g id="a_node3"><a xlink:href="ErrorUtils_8cpp.html#a470416220aa911b8f1274140a8322e7a" target="_top" xlink:title=" ">
<polygon fill="white" stroke="black" points="1554.5,-294.92 1554.5,-313.92 1656.5,-313.92 1656.5,-294.92 1554.5,-294.92"/>
<text text-anchor="middle" x="1605.5" y="-301.92" font-family="Helvetica,sans-Serif" font-size="10.00">buildErrorResponse</text>
</a>
</g>
</g>
<!-- Node2&#45;&gt;Node3 -->
<g id="edge2" class="edge">
<title>Node2&#45;&gt;Node3</title>
<path fill="none" stroke="midnightblue" d="M1736.24,-331C1709.71,-325.57 1678.35,-319.14 1653.11,-313.97"/>
<polygon fill="midnightblue" stroke="midnightblue" points="1735.65,-334.45 1746.15,-333.03 1737.05,-327.59 1735.65,-334.45"/>
</g>
<!-- Node14 -->
<g id="node14" class="node">
<title>Node14</title>
<g id="a_node14"><a xlink:href="classRequestProcessor.html#a3fa9c97a7d142a7b607002138de87140" target="_top" xlink:title=" ">
<polygon fill="white" stroke="black" points="1011,-369.92 1011,-388.92 1149,-388.92 1149,-369.92 1011,-369.92"/>
<text text-anchor="middle" x="1080" y="-376.92" font-family="Helvetica,sans-Serif" font-size="10.00">RequestProcessor::process</text>
</a>
</g>
</g>
<!-- Node2&#45;&gt;Node14 -->
<g id="edge36" class="edge">
<title>Node2&#45;&gt;Node14</title>
<path fill="none" stroke="midnightblue" d="M1736.17,-345.34C1649.62,-349.87 1477.81,-358.84 1332,-366.42 1270.12,-369.64 1199.66,-373.29 1149.18,-375.9"/>
<polygon fill="midnightblue" stroke="midnightblue" points="1736.49,-348.83 1746.3,-344.81 1736.13,-341.84 1736.49,-348.83"/>
</g>
<!-- Node17 -->
<g id="node17" class="node">
<title>Node17</title>
<g id="a_node17"><a xlink:href="StaticPathHandler_8cpp.html#a28a771d93d3051098585ebc34ed29855" target="_top" xlink:title=" ">
<polygon fill="white" stroke="black" points="1391.5,-104.92 1391.5,-123.92 1476.5,-123.92 1476.5,-104.92 1391.5,-104.92"/>
<text text-anchor="middle" x="1434" y="-111.92" font-family="Helvetica,sans-Serif" font-size="10.00">handleDirectory</text>
</a>
</g>
</g>
<!-- Node2&#45;&gt;Node17 -->
<g id="edge34" class="edge">
<title>Node2&#45;&gt;Node17</title>
<path fill="none" stroke="midnightblue" d="M1773.91,-326.06C1730.1,-287.23 1613.49,-188.64 1500,-133.42 1492.39,-129.72 1483.92,-126.6 1475.67,-124.02"/>
<polygon fill="midnightblue" stroke="midnightblue" points="1771.67,-328.75 1781.46,-332.8 1776.33,-323.53 1771.67,-328.75"/>
</g>
<!-- Node19 -->
<g id="node19" class="node">
<title>Node19</title>
<g id="a_node19"><a xlink:href="classRequestProcessor.html#a606f9c02a3166ca58e6930f8d292d81c" target="_top" xlink:title=" ">
<polygon fill="white" stroke="black" points="1368,-485.42 1368,-515.42 1500,-515.42 1500,-485.42 1368,-485.42"/>
<text text-anchor="start" x="1376" y="-503.42" font-family="Helvetica,sans-Serif" font-size="10.00">RequestProcessor::handle</text>
<text text-anchor="middle" x="1434" y="-492.42" font-family="Helvetica,sans-Serif" font-size="10.00">LocationValidation</text>
</a>
</g>
</g>
<!-- Node2&#45;&gt;Node19 -->
<g id="edge35" class="edge">
<title>Node2&#45;&gt;Node19</title>
<path fill="none" stroke="midnightblue" d="M1761.04,-356.19C1729.28,-370.31 1683.36,-390.72 1675,-394.42 1601.7,-426.9 1515.75,-464.82 1469.19,-485.35"/>
<polygon fill="midnightblue" stroke="midnightblue" points="1762.67,-359.29 1770.38,-352.03 1759.82,-352.9 1762.67,-359.29"/>
</g>
<!-- Node4 -->
<g id="node4" class="node">
<title>Node4</title>
<g id="a_node4"><a xlink:href="classClient.html#a3b000abab7a3fe339f0f39ad5daca68f" target="_top" xlink:title=" ">
<polygon fill="white" stroke="black" points="1371.5,-256.92 1371.5,-275.92 1496.5,-275.92 1496.5,-256.92 1371.5,-256.92"/>
<text text-anchor="middle" x="1434" y="-263.92" font-family="Helvetica,sans-Serif" font-size="10.00">Client::checkCgiTimeout</text>
</a>
</g>
</g>
<!-- Node3&#45;&gt;Node4 -->
<g id="edge3" class="edge">
<title>Node3&#45;&gt;Node4</title>
<path fill="none" stroke="midnightblue" d="M1551.76,-292.6C1527.86,-287.24 1499.98,-280.99 1477.46,-275.94"/>
<polygon fill="midnightblue" stroke="midnightblue" points="1551.2,-296.06 1561.73,-294.83 1552.74,-289.23 1551.2,-296.06"/>
</g>
<!-- Node5 -->
<g id="node5" class="node">
<title>Node5</title>
<g id="a_node5"><a xlink:href="classClient.html#ae523ed90bd32b88e539ebdf30746382b" target="_top" xlink:title=" ">
<polygon fill="white" stroke="black" points="1023.5,-484.92 1023.5,-503.92 1136.5,-503.92 1136.5,-484.92 1023.5,-484.92"/>
<text text-anchor="middle" x="1080" y="-491.92" font-family="Helvetica,sans-Serif" font-size="10.00">Client::dispatchAction</text>
</a>
</g>
</g>
<!-- Node3&#45;&gt;Node5 -->
<g id="edge4" class="edge">
<title>Node3&#45;&gt;Node5</title>
<path fill="none" stroke="midnightblue" d="M1590.38,-322.34C1563.24,-356.69 1505.93,-428.75 1500,-432.42 1440.29,-469.39 1236.44,-485.71 1136.77,-491.61"/>
<polygon fill="midnightblue" stroke="midnightblue" points="1593.42,-324.13 1596.87,-314.11 1587.93,-319.79 1593.42,-324.13"/>
</g>
<!-- Node12 -->
<g id="node12" class="node">
<title>Node12</title>
<g id="a_node12"><a xlink:href="classClient.html#a09d6029b60ae8c9773362968e72f2e54" target="_top" xlink:title=" ">
<polygon fill="white" stroke="black" points="317,-405.92 317,-424.92 455,-424.92 455,-405.92 317,-405.92"/>
<text text-anchor="middle" x="386" y="-412.92" font-family="Helvetica,sans-Serif" font-size="10.00">Client::finalizeCgiResponse</text>
</a>
</g>
</g>
<!-- Node3&#45;&gt;Node12 -->
<g id="edge13" class="edge">
<title>Node3&#45;&gt;Node12</title>
<path fill="none" stroke="midnightblue" d="M1577.06,-318.4C1500.62,-355.98 1277.94,-456.42 1081,-456.42 1081,-456.42 1081,-456.42 728.5,-456.42 623.4,-456.42 501.4,-437.04 435.42,-424.93"/>
<polygon fill="midnightblue" stroke="midnightblue" points="1578.65,-321.51 1586.05,-313.93 1575.54,-315.24 1578.65,-321.51"/>
</g>
<!-- Node13 -->
<g id="node13" class="node">
<title>Node13</title>
<g id="a_node13"><a xlink:href="classRequestProcessor.html#a79915b1a2fda205b7d5a6c92e5e3fce8" target="_top" xlink:title=" ">
<polygon fill="white" stroke="black" points="1185,-294.92 1185,-313.92 1332,-313.92 1332,-294.92 1185,-294.92"/>
<text text-anchor="middle" x="1258.5" y="-301.92" font-family="Helvetica,sans-Serif" font-size="10.00">RequestProcessor::handleCgi</text>
</a>
</g>
</g>
<!-- Node3&#45;&gt;Node13 -->
<g id="edge14" class="edge">
<title>Node3&#45;&gt;Node13</title>
<path fill="none" stroke="midnightblue" d="M1544.05,-304.42C1485.05,-304.42 1395.21,-304.42 1332.31,-304.42"/>
<polygon fill="midnightblue" stroke="midnightblue" points="1544.33,-307.92 1554.33,-304.42 1544.33,-300.92 1544.33,-307.92"/>
</g>
<!-- Node3&#45;&gt;Node14 -->
<g id="edge33" class="edge">
<title>Node3&#45;&gt;Node14</title>
<path fill="none" stroke="midnightblue" d="M1544.19,-313.06C1445.4,-327.22 1249.87,-355.23 1147.31,-369.92"/>
<polygon fill="midnightblue" stroke="midnightblue" points="1544.9,-316.5 1554.3,-311.61 1543.91,-309.57 1544.9,-316.5"/>
</g>
<!-- Node15 -->
<g id="node15" class="node">
<title>Node15</title>
<g id="a_node15"><a xlink:href="classClient.html#a4104efd3f5f7e1c0f3e3302b46861624" target="_top" xlink:title=" ">
<polygon fill="white" stroke="black" points="1378.5,-218.92 1378.5,-237.92 1489.5,-237.92 1489.5,-218.92 1378.5,-218.92"/>
<text text-anchor="middle" x="1434" y="-225.92" font-family="Helvetica,sans-Serif" font-size="10.00">Client::handleCgiPipe</text>
</a>
</g>
</g>
<!-- Node3&#45;&gt;Node15 -->
<g id="edge18" class="edge">
<title>Node3&#45;&gt;Node15</title>
<path fill="none" stroke="midnightblue" d="M1580.69,-289.51C1559.97,-277 1528.82,-259.33 1500,-247.42 1491.42,-243.88 1481.94,-240.71 1472.94,-238.02"/>
<polygon fill="midnightblue" stroke="midnightblue" points="1579.07,-292.62 1589.43,-294.85 1582.73,-286.65 1579.07,-292.62"/>
</g>
<!-- Node3&#45;&gt;Node17 -->
<g id="edge21" class="edge">
<title>Node3&#45;&gt;Node17</title>
<path fill="none" stroke="midnightblue" d="M1581.93,-288.86C1567.02,-277.52 1548.07,-260.96 1536,-242.42 1508.17,-199.67 1536.69,-168.87 1500,-133.42 1493.57,-127.22 1485.23,-123.02 1476.68,-120.19"/>
<polygon fill="midnightblue" stroke="midnightblue" points="1580.03,-291.8 1590.16,-294.9 1584.17,-286.16 1580.03,-291.8"/>
</g>
<!-- Node3&#45;&gt;Node18 -->
<g id="edge30" class="edge">
<title>Node3&#45;&gt;Node18</title>
<path fill="none" stroke="midnightblue" d="M1585.99,-287.73C1572.19,-275.27 1552.89,-257.81 1536,-242.42 1519.95,-227.81 1518.93,-220.04 1500,-209.42 1446.75,-179.56 1426.17,-189.96 1368,-171.42 1339.67,-162.39 1307.56,-151 1285.67,-143.06"/>
<polygon fill="midnightblue" stroke="midnightblue" points="1584.03,-290.68 1593.8,-294.78 1588.72,-285.48 1584.03,-290.68"/>
</g>
<!-- Node3&#45;&gt;Node19 -->
<g id="edge24" class="edge">
<title>Node3&#45;&gt;Node19</title>
<path fill="none" stroke="midnightblue" d="M1594.54,-323.07C1573.68,-361.6 1525.25,-448.25 1500,-470.42 1493.28,-476.33 1485.19,-481.28 1477.05,-485.36"/>
<polygon fill="midnightblue" stroke="midnightblue" points="1597.78,-324.44 1599.43,-313.97 1591.61,-321.12 1597.78,-324.44"/>
</g>
<!-- Node3&#45;&gt;Node20 -->
<g id="edge26" class="edge">
<title>Node3&#45;&gt;Node20</title>
<path fill="none" stroke="midnightblue" d="M1597.49,-323.63C1579.68,-371.62 1531.79,-494.97 1500,-524.42 1495.83,-528.29 1491,-531.57 1485.9,-534.36"/>
<polygon fill="midnightblue" stroke="midnightblue" points="1600.83,-324.71 1601,-314.11 1594.26,-322.29 1600.83,-324.71"/>
</g>
<!-- Node3&#45;&gt;Node21 -->
<g id="edge28" class="edge">
<title>Node3&#45;&gt;Node21</title>
<path fill="none" stroke="midnightblue" d="M1600.31,-284.94C1590.41,-243.64 1561.61,-146.87 1500,-95.42 1494.68,-90.98 1488.35,-87.57 1481.78,-84.96"/>
<polygon fill="midnightblue" stroke="midnightblue" points="1596.93,-285.85 1602.57,-294.82 1603.75,-284.3 1596.93,-285.85"/>
</g>
<!-- Node22 -->
<g id="node22" class="node">
<title>Node22</title>
<g id="a_node22"><a xlink:href="StaticPathHandler_8cpp.html#a638cb25cad6c24877a0e75984110ea7a" target="_top" xlink:title=" ">
<polygon fill="white" stroke="black" points="1396,-142.92 1396,-161.92 1472,-161.92 1472,-142.92 1396,-142.92"/>
<text text-anchor="middle" x="1434" y="-149.92" font-family="Helvetica,sans-Serif" font-size="10.00">handleUpload</text>
</a>
</g>
</g>
<!-- Node3&#45;&gt;Node22 -->
<g id="edge31" class="edge">
<title>Node3&#45;&gt;Node22</title>
<path fill="none" stroke="midnightblue" d="M1583.49,-288.54C1568.97,-276.86 1549.86,-260.01 1536,-242.42 1515.32,-216.18 1525.28,-198.27 1500,-176.42 1492.08,-169.58 1482.04,-164.62 1472.23,-161.05"/>
<polygon fill="midnightblue" stroke="midnightblue" points="1581.41,-291.35 1591.43,-294.78 1585.73,-285.85 1581.41,-291.35"/>
</g>
<!-- Node6 -->
<g id="node6" class="node">
<title>Node6</title>
<g id="a_node6"><a xlink:href="classClient.html#a419f8f3253d3f71287044e3999a5d600" target="_top" xlink:title=" ">
<polygon fill="white" stroke="black" points="852.5,-388.92 852.5,-407.92 965.5,-407.92 965.5,-388.92 852.5,-388.92"/>
<text text-anchor="middle" x="909" y="-395.92" font-family="Helvetica,sans-Serif" font-size="10.00">Client::buildResponse</text>
</a>
</g>
</g>
<!-- Node5&#45;&gt;Node6 -->
<g id="edge5" class="edge">
<title>Node5&#45;&gt;Node6</title>
<path fill="none" stroke="midnightblue" d="M1053.48,-479.92C1018.44,-460.02 956.44,-424.8 926.75,-407.94"/>
<polygon fill="midnightblue" stroke="midnightblue" points="1051.75,-482.97 1062.18,-484.87 1055.21,-476.88 1051.75,-482.97"/>
</g>
<!-- Node6&#45;&gt;Node7 -->
<g id="edge6" class="edge">
<title>Node6&#45;&gt;Node7</title>
<path fill="none" stroke="midnightblue" d="M853.1,-386.67C828,-381.3 798.66,-375.01 774.97,-369.94"/>
<polygon fill="midnightblue" stroke="midnightblue" points="852.7,-390.16 863.21,-388.83 854.16,-383.32 852.7,-390.16"/>
</g>
<!-- Node8 -->
<g id="node8" class="node">
<title>Node8</title>
<g id="a_node8"><a xlink:href="classClient.html#ac95fe5b24fe5275bd2271bd1ac37596d" target="_top" xlink:title=" ">
<polygon fill="white" stroke="black" points="336,-339.92 336,-358.92 436,-358.92 436,-339.92 336,-339.92"/>
<text text-anchor="middle" x="386" y="-346.92" font-family="Helvetica,sans-Serif" font-size="10.00">Client::handleRead</text>
</a>
</g>
</g>
<!-- Node7&#45;&gt;Node8 -->
<g id="edge7" class="edge">
<title>Node7&#45;&gt;Node8</title>
<path fill="none" stroke="midnightblue" d="M641.61,-357.62C576.51,-355.53 489.78,-352.73 436.2,-351.01"/>
<polygon fill="midnightblue" stroke="midnightblue" points="641.75,-361.13 651.86,-357.95 641.98,-354.13 641.75,-361.13"/>
</g>
<!-- Node11 -->
<g id="node11" class="node">
<title>Node11</title>
<g id="a_node11"><a xlink:href="classClient.html#a950fd2ab8ac20c9be4c5e722344d6fe2" target="_top" xlink:title=" ">
<polygon fill="white" stroke="black" points="491,-377.92 491,-396.92 616,-396.92 616,-377.92 491,-377.92"/>
<text text-anchor="middle" x="553.5" y="-384.92" font-family="Helvetica,sans-Serif" font-size="10.00">Client::processRequests</text>
</a>
</g>
</g>
<!-- Node7&#45;&gt;Node11 -->
<g id="edge10" class="edge">
<title>Node7&#45;&gt;Node11</title>
<path fill="none" stroke="midnightblue" d="M657.27,-371.48C643.54,-373.61 629.26,-375.82 615.88,-377.9"/>
<polygon fill="midnightblue" stroke="midnightblue" points="657.81,-374.93 667.15,-369.94 656.74,-368.02 657.81,-374.93"/>
</g>
<!-- Node9 -->
<g id="node9" class="node">
<title>Node9</title>
<g id="a_node9"><a xlink:href="classServerManager.html#a9f3ca46da9df004286f90902b8daf29d" target="_top" xlink:title=" ">
<polygon fill="white" stroke="black" points="138,-328.42 138,-358.42 281,-358.42 281,-328.42 138,-328.42"/>
<text text-anchor="start" x="146" y="-346.42" font-family="Helvetica,sans-Serif" font-size="10.00">ServerManager::handleClient</text>
<text text-anchor="middle" x="209.5" y="-335.42" font-family="Helvetica,sans-Serif" font-size="10.00">Event</text>
</a>
</g>
</g>
<!-- Node8&#45;&gt;Node9 -->
<g id="edge8" class="edge">
<title>Node8&#45;&gt;Node9</title>
<path fill="none" stroke="midnightblue" d="M325.69,-347.38C311.33,-346.89 295.84,-346.36 281.02,-345.85"/>
<polygon fill="midnightblue" stroke="midnightblue" points="325.81,-350.89 335.93,-347.74 326.05,-343.89 325.81,-350.89"/>
</g>
<!-- Node10 -->
<g id="node10" class="node">
<title>Node10</title>
<g id="a_node10"><a xlink:href="classServerManager.html#aecc313c9b6afcab92c22269b3333c721" target="_top" xlink:title=" ">
<polygon fill="white" stroke="black" points="0,-289.92 0,-308.92 102,-308.92 102,-289.92 0,-289.92"/>
<text text-anchor="middle" x="51" y="-296.92" font-family="Helvetica,sans-Serif" font-size="10.00">ServerManager::run</text>
</a>
</g>
</g>
<!-- Node9&#45;&gt;Node10 -->
<g id="edge9" class="edge">
<title>Node9&#45;&gt;Node10</title>
<path fill="none" stroke="midnightblue" d="M145.28,-325.65C125.04,-319.96 103.4,-313.87 86.07,-309"/>
<polygon fill="midnightblue" stroke="midnightblue" points="144.51,-329.07 155.08,-328.4 146.4,-322.33 144.51,-329.07"/>
</g>
<!-- Node11&#45;&gt;Node8 -->
<g id="edge12" class="edge">
<title>Node11&#45;&gt;Node8</title>
<path fill="none" stroke="midnightblue" d="M500.69,-375.53C477.43,-370.19 450.35,-363.97 428.46,-358.94"/>
<polygon fill="midnightblue" stroke="midnightblue" points="500.21,-379.01 510.74,-377.83 501.77,-372.18 500.21,-379.01"/>
</g>
<!-- Node11&#45;&gt;Node12 -->
<g id="edge11" class="edge">
<title>Node11&#45;&gt;Node12</title>
<path fill="none" stroke="midnightblue" d="M485.86,-398.7C471.72,-401.09 456.94,-403.59 443.24,-405.91"/>
<polygon fill="midnightblue" stroke="midnightblue" points="486.73,-402.1 496.01,-396.98 485.56,-395.2 486.73,-402.1"/>
</g>
<!-- Node13&#45;&gt;Node14 -->
<g id="edge15" class="edge">
<title>Node13&#45;&gt;Node14</title>
<path fill="none" stroke="midnightblue" d="M1215.86,-317.13C1205.67,-320.53 1194.86,-324.4 1185,-328.42 1153.91,-341.12 1119.13,-358.96 1098.7,-369.82"/>
<polygon fill="midnightblue" stroke="midnightblue" points="1216.98,-320.45 1225.4,-314.01 1214.8,-313.79 1216.98,-320.45"/>
</g>
<!-- Node14&#45;&gt;Node6 -->
<g id="edge16" class="edge">
<title>Node14&#45;&gt;Node6</title>
<path fill="none" stroke="midnightblue" d="M1000.81,-388.21C988.9,-389.55 976.83,-390.91 965.54,-392.18"/>
<polygon fill="midnightblue" stroke="midnightblue" points="1001.2,-391.69 1010.75,-387.1 1000.42,-384.74 1001.2,-391.69"/>
</g>
<!-- Node14&#45;&gt;Node7 -->
<g id="edge17" class="edge">
<title>Node14&#45;&gt;Node7</title>
<path fill="none" stroke="midnightblue" d="M1000.79,-375.16C942.96,-372.01 864.6,-367.73 807.14,-364.6"/>
<polygon fill="midnightblue" stroke="midnightblue" points="1000.8,-378.66 1010.98,-375.71 1001.18,-371.68 1000.8,-378.66"/>
</g>
<!-- Node16 -->
<g id="node16" class="node">
<title>Node16</title>
<g id="a_node16"><a xlink:href="classServerManager.html#a9c75ea0bd268425c187ef25770eccbe8" target="_top" xlink:title=" ">
<polygon fill="white" stroke="black" points="843,-260.42 843,-290.42 975,-290.42 975,-260.42 843,-260.42"/>
<text text-anchor="start" x="851" y="-278.42" font-family="Helvetica,sans-Serif" font-size="10.00">ServerManager::handleCgi</text>
<text text-anchor="middle" x="909" y="-267.42" font-family="Helvetica,sans-Serif" font-size="10.00">PipeEvent</text>
</a>
</g>
</g>
<!-- Node15&#45;&gt;Node16 -->
<g id="edge19" class="edge">
<title>Node15&#45;&gt;Node16</title>
<path fill="none" stroke="midnightblue" d="M1368,-234.26C1267.57,-243.29 1075.78,-260.52 975.22,-269.56"/>
<polygon fill="midnightblue" stroke="midnightblue" points="1368.37,-237.75 1378.02,-233.36 1367.75,-230.77 1368.37,-237.75"/>
</g>
<!-- Node16&#45;&gt;Node10 -->
<g id="edge20" class="edge">
<title>Node16&#45;&gt;Node10</title>
<path fill="none" stroke="midnightblue" d="M832.58,-276.1C761.01,-276.68 650.43,-277.42 554.5,-277.42 554.5,-277.42 554.5,-277.42 385,-277.42 284.48,-277.42 167.25,-287.53 102.14,-294.04"/>
<polygon fill="midnightblue" stroke="midnightblue" points="832.88,-279.59 842.85,-276.01 832.82,-272.59 832.88,-279.59"/>
</g>
<!-- Node17&#45;&gt;Node18 -->
<g id="edge22" class="edge">
<title>Node17&#45;&gt;Node18</title>
<path fill="none" stroke="midnightblue" d="M1381.22,-120.09C1356.67,-122.78 1327.62,-125.96 1304.06,-128.54"/>
<polygon fill="midnightblue" stroke="midnightblue" points="1381.88,-123.54 1391.44,-118.97 1381.12,-116.58 1381.88,-123.54"/>
</g>
<!-- Node18&#45;&gt;Node14 -->
<g id="edge23" class="edge">
<title>Node18&#45;&gt;Node14</title>
<path fill="none" stroke="midnightblue" d="M1244.63,-151.36C1209.76,-199.97 1114.31,-332.99 1087.87,-369.85"/>
<polygon fill="midnightblue" stroke="midnightblue" points="1247.6,-153.23 1250.58,-143.07 1241.91,-149.15 1247.6,-153.23"/>
</g>
<!-- Node19&#45;&gt;Node14 -->
<g id="edge25" class="edge">
<title>Node19&#45;&gt;Node14</title>
<path fill="none" stroke="midnightblue" d="M1379.26,-481.95C1303.2,-455.81 1166.93,-408.96 1108.66,-388.93"/>
<polygon fill="midnightblue" stroke="midnightblue" points="1378.54,-485.4 1389.13,-485.34 1380.81,-478.78 1378.54,-485.4"/>
</g>
<!-- Node20&#45;&gt;Node14 -->
<g id="edge27" class="edge">
<title>Node20&#45;&gt;Node14</title>
<path fill="none" stroke="midnightblue" d="M1372.75,-531.22C1321.31,-514.54 1246.17,-487.47 1185,-454.42 1148.77,-434.85 1110.59,-404.4 1092.2,-389.01"/>
<polygon fill="midnightblue" stroke="midnightblue" points="1371.8,-534.59 1382.39,-534.31 1373.94,-527.92 1371.8,-534.59"/>
</g>
<!-- Node21&#45;&gt;Node18 -->
<g id="edge29" class="edge">
<title>Node21&#45;&gt;Node18</title>
<path fill="none" stroke="midnightblue" d="M1389.5,-88.79C1382.3,-90.94 1374.93,-93.2 1368,-95.42 1339.68,-104.51 1307.57,-115.89 1285.68,-123.82"/>
<polygon fill="midnightblue" stroke="midnightblue" points="1390.56,-92.13 1399.16,-85.95 1388.58,-85.42 1390.56,-92.13"/>
</g>
<!-- Node22&#45;&gt;Node18 -->
<g id="edge32" class="edge">
<title>Node22&#45;&gt;Node18</title>
<path fill="none" stroke="midnightblue" d="M1385.62,-147.23C1360.19,-144.45 1329.03,-141.04 1304.04,-138.3"/>
<polygon fill="midnightblue" stroke="midnightblue" points="1385.46,-150.74 1395.78,-148.35 1386.22,-143.78 1385.46,-150.74"/>
</g>
<!-- Node24 -->
<g id="node24" class="node">
<title>Node24</title>
<g id="a_node24"><a xlink:href="classCgiExecutor.html#a449e349a961449c342e4612d131bda8e" target="_top" xlink:title=" ">
<polygon fill="white" stroke="black" points="1536,-574.92 1536,-593.92 1675,-593.92 1675,-574.92 1536,-574.92"/>
<text text-anchor="middle" x="1605.5" y="-581.92" font-family="Helvetica,sans-Serif" font-size="10.00">CgiExecutor::executeAsync</text>
</a>
</g>
</g>
<!-- Node23&#45;&gt;Node24 -->
<g id="edge42" class="edge">
<title>Node23&#45;&gt;Node24</title>
<path fill="none" stroke="midnightblue" d="M1700.83,-580.36C1692.22,-580.73 1683.59,-581.1 1675.24,-581.46"/>
<polygon fill="midnightblue" stroke="midnightblue" points="1701.07,-583.85 1710.91,-579.92 1700.77,-576.85 1701.07,-583.85"/>
</g>
<!-- Node25 -->
<g id="node25" class="node">
<title>Node25</title>
<g id="a_node25"><a xlink:href="classClient.html#a2e0da898af07e89fcfd83fe5a3077256" target="_top" xlink:title=" ">
<polygon fill="white" stroke="black" points="1385,-583.92 1385,-602.92 1483,-602.92 1483,-583.92 1385,-583.92"/>
<text text-anchor="middle" x="1434" y="-590.92" font-family="Helvetica,sans-Serif" font-size="10.00">Client::executeCgi</text>
</a>
</g>
</g>
<!-- Node24&#45;&gt;Node25 -->
<g id="edge43" class="edge">
<title>Node24&#45;&gt;Node25</title>
<path fill="none" stroke="midnightblue" d="M1525.16,-588.64C1510.8,-589.4 1496.24,-590.17 1483.12,-590.87"/>
<polygon fill="midnightblue" stroke="midnightblue" points="1525.76,-592.11 1535.56,-588.08 1525.39,-585.12 1525.76,-592.11"/>
</g>
<!-- Node26 -->
<g id="node26" class="node">
<title>Node26</title>
<g id="a_node26"><a xlink:href="classClient.html#a7ce261bf1858a7904f7bb9668188284b" target="_top" xlink:title=" ">
<polygon fill="white" stroke="black" points="1217,-575.92 1217,-594.92 1300,-594.92 1300,-575.92 1217,-575.92"/>
<text text-anchor="middle" x="1258.5" y="-582.92" font-family="Helvetica,sans-Serif" font-size="10.00">Client::startCgi</text>
</a>
</g>
</g>
<!-- Node25&#45;&gt;Node26 -->
<g id="edge44" class="edge">
<title>Node25&#45;&gt;Node26</title>
<path fill="none" stroke="midnightblue" d="M1374.45,-590.72C1350.06,-589.6 1322.34,-588.32 1300.23,-587.3"/>
<polygon fill="midnightblue" stroke="midnightblue" points="1374.52,-594.23 1384.67,-591.19 1374.84,-587.24 1374.52,-594.23"/>
</g>
<!-- Node26&#45;&gt;Node5 -->
<g id="edge45" class="edge">
<title>Node26&#45;&gt;Node5</title>
<path fill="none" stroke="midnightblue" d="M1223.55,-571.89C1211.26,-566.74 1197.37,-560.61 1185,-554.42 1152.56,-538.2 1116.17,-516.31 1096.19,-503.95"/>
<polygon fill="midnightblue" stroke="midnightblue" points="1222.43,-575.21 1233,-575.8 1225.1,-568.75 1222.43,-575.21"/>
</g>
<!-- Node27&#45;&gt;Node19 -->
<g id="edge47" class="edge">
<title>Node27&#45;&gt;Node19</title>
<path fill="none" stroke="midnightblue" d="M1551.36,-492.87C1535.15,-493.92 1517.13,-495.09 1500.21,-496.19"/>
<polygon fill="midnightblue" stroke="midnightblue" points="1551.98,-496.34 1561.73,-492.2 1551.52,-489.35 1551.98,-496.34"/>
</g>
</g>
</svg>
        <g id="navigator" transform="translate(0 0)" fill="#404254">
                <rect fill="#f2f5e9" fill-opacity="0.5" stroke="#606060" stroke-width=".5" x="0" y="0" width="60" height="60"/>
                <use id="zoomplus" xlink:href="#zoomPlus" x="17" y="9" onmousedown="handleZoom(evt,'in')"/>
                <use id="zoomminus" xlink:href="#zoomMin" x="42" y="9" onmousedown="handleZoom(evt,'out')"/>
                <use id="reset" xlink:href="#resetDef" x="30" y="36" onmousedown="handleReset()"/>
                <g id="arrowUp" xlink:href="#dirArrow" transform="translate(30 24)" onmousedown="handlePan(0,-1)">
                  <use xlink:href="#rim" fill="#404040">
                        <set attributeName="fill" to="#808080" begin="arrowUp.mouseover" end="arrowUp.mouseout"/>
                  </use>
                  <path fill="none" stroke="white" stroke-width="1.5" d="M0,-3.0v7 M-2.5,-0.5L0,-3.0L2.5,-0.5"/>
                </g>
                <g id="arrowRight" xlink:href="#dirArrow" transform="rotate(90) translate(36 -43)" onmousedown="handlePan(1,0)">
                  <use xlink:href="#rim" fill="#404040">
                        <set attributeName="fill" to="#808080" begin="arrowRight.mouseover" end="arrowRight.mouseout"/>
                  </use>
                  <path fill="none" stroke="white" stroke-width="1.5" d="M0,-3.0v7 M-2.5,-0.5L0,-3.0L2.5,-0.5"/>
                </g>
                <g id="arrowDown" xlink:href="#dirArrow" transform="rotate(180) translate(-30 -48)" onmousedown="handlePan(0,1)">
                  <use xlink:href="#rim" fill="#404040">
                        <set attributeName="fill" to="#808080" begin="arrowDown.mouseover" end="arrowDown.mouseout"/>
                  </use>
                  <path fill="none" stroke="white" stroke-width="1.5" d="M0,-3.0v7 M-2.5,-0.5L0,-3.0L2.5,-0.5"/>
                </g>
                <g id="arrowLeft" xlink:href="#dirArrow" transform="rotate(270) translate(-36 17)" onmousedown="handlePan(-1,0)">
                  <use xlink:href="#rim" fill="#404040">
                        <set attributeName="fill" to="#808080" begin="arrowLeft.mouseover" end="arrowLeft.mouseout"/>
                  </use>
                  <path fill="none" stroke="white" stroke-width="1.5" d="M0,-3.0v7 M-2.5,-0.5L0,-3.0L2.5,-0.5"/>
                </g>
        </g>
        <svg viewBox="0 0 15 15" width="100%" height="30px" preserveAspectRatio="xMaxYMin meet">
         <g id="arrow_out" transform="scale(0.3 0.3)">
          <a xlink:href="classHttpRequest_adf523a5345b525702a858f8792bab8ea_icgraph_org.svg" target="_base">
           <rect id="button" ry="5" rx="5" y="6" x="6" height="38" width="38"
                fill="#f2f5e9" fill-opacity="0.5" stroke="#606060" stroke-width="1.0"/>
           <path id="arrow"
             d="M 11.500037,31.436501 C 11.940474,20.09759 22.043105,11.32322 32.158766,21.979434 L 37.068811,17.246167 C 37.068811,17.246167 37.088388,32 37.088388,32 L 22.160133,31.978069 C 22.160133,31.978069 26.997745,27.140456 26.997745,27.140456 C 18.528582,18.264221 13.291696,25.230495 11.500037,31.436501 z"
             style="fill:#404040;"/>
          </a>
         </g>
        </svg>
</svg>
