<?xml version="1.0" encoding="UTF-8" standalone="no"?>
<!DOCTYPE svg PUBLIC "-//W3C//DTD SVG 1.1//EN"
 "http://www.w3.org/Graphics/SVG/1.1/DTD/svg11.dtd">
<!-- Generated by graphviz version 2.43.0 (0)
 -->
<!-- Title: HttpParser::parseHeaders Pages: 1 -->
<svg width="802pt" height="191pt"
 viewBox="0.00 0.00 802.00 191.00" xmlns="http://www.w3.org/2000/svg" xmlns:xlink="http://www.w3.org/1999/xlink">
<g id="graph0" class="graph" transform="scale(1 1) rotate(0) translate(4 187)">
<title>HttpParser::parseHeaders</title>
<polygon fill="white" stroke="transparent" points="-4,4 -4,-187 798,-187 798,4 -4,4"/>
<!-- Node1 -->
<g id="node1" class="node">
<title>Node1</title>
<g id="a_node1"><a xlink:title=" ">
<polygon fill="#bfbfbf" stroke="black" points="0,-76.5 0,-95.5 131,-95.5 131,-76.5 0,-76.5"/>
<text text-anchor="middle" x="65.5" y="-83.5" font-family="Helvetica,sans-Serif" font-size="10.00">HttpParser::parseHeaders</text>
</a>
</g>
</g>
<!-- Node2 -->
<g id="node2" class="node">
<title>Node2</title>
<g id="a_node2"><a xlink:href="classHttpParser.html#aaee9364e5a2d7de7213cfc7ffb74fcac" target="_top" xlink:title=" ">
<polygon fill="white" stroke="black" points="185,-114.5 185,-133.5 303,-133.5 303,-114.5 185,-114.5"/>
<text text-anchor="middle" x="244" y="-121.5" font-family="Helvetica,sans-Serif" font-size="10.00">HttpParser::extractLine</text>
</a>
</g>
</g>
<!-- Node1&#45;&gt;Node2 -->
<g id="edge1" class="edge">
<title>Node1&#45;&gt;Node2</title>
<path fill="none" stroke="midnightblue" d="M111.04,-95.59C134.64,-100.67 163.83,-106.96 188.75,-112.32"/>
<polygon fill="midnightblue" stroke="midnightblue" points="188.27,-115.8 198.78,-114.48 189.74,-108.95 188.27,-115.8"/>
</g>
<!-- Node3 -->
<g id="node3" class="node">
<title>Node3</title>
<g id="a_node3"><a xlink:href="classHttpParser.html#aad534f8119b202b2c0194bf0a7cb6620" target="_top" xlink:title=" ">
<polygon fill="white" stroke="black" points="167,-76.5 167,-95.5 321,-95.5 321,-76.5 167,-76.5"/>
<text text-anchor="middle" x="244" y="-83.5" font-family="Helvetica,sans-Serif" font-size="10.00">HttpParser::processHeaderLine</text>
</a>
</g>
</g>
<!-- Node1&#45;&gt;Node3 -->
<g id="edge2" class="edge">
<title>Node1&#45;&gt;Node3</title>
<path fill="none" stroke="midnightblue" d="M131.22,-86C139.56,-86 148.21,-86 156.83,-86"/>
<polygon fill="midnightblue" stroke="midnightblue" points="156.92,-89.5 166.92,-86 156.92,-82.5 156.92,-89.5"/>
</g>
<!-- Node10 -->
<g id="node10" class="node">
<title>Node10</title>
<g id="a_node10"><a xlink:href="classHttpParser.html#af1b9bb0ac2ed3f90cbccba85c9e5130d" target="_top" xlink:title="Valida headers obligatorios y conflictos.">
<polygon fill="white" stroke="black" points="174,-38.5 174,-57.5 314,-57.5 314,-38.5 174,-38.5"/>
<text text-anchor="middle" x="244" y="-45.5" font-family="Helvetica,sans-Serif" font-size="10.00">HttpParser::validateHeaders</text>
</a>
</g>
</g>
<!-- Node1&#45;&gt;Node10 -->
<g id="edge9" class="edge">
<title>Node1&#45;&gt;Node10</title>
<path fill="none" stroke="midnightblue" d="M111.04,-76.41C134.64,-71.33 163.83,-65.04 188.75,-59.68"/>
<polygon fill="midnightblue" stroke="midnightblue" points="189.74,-63.05 198.78,-57.52 188.27,-56.2 189.74,-63.05"/>
</g>
<!-- Node4 -->
<g id="node4" class="node">
<title>Node4</title>
<g id="a_node4"><a xlink:href="classHttpParser.html#ae451799e46fef4713ec48321d8b21806" target="_top" xlink:title=" ">
<polygon fill="white" stroke="black" points="360.5,-119.5 360.5,-138.5 490.5,-138.5 490.5,-119.5 360.5,-119.5"/>
<text text-anchor="middle" x="425.5" y="-126.5" font-family="Helvetica,sans-Serif" font-size="10.00">HttpParser::handleHeader</text>
</a>
</g>
</g>
<!-- Node3&#45;&gt;Node4 -->
<g id="edge3" class="edge">
<title>Node3&#45;&gt;Node4</title>
<path fill="none" stroke="midnightblue" d="M284.84,-95.54C311.45,-101.92 346.64,-110.35 375.04,-117.15"/>
<polygon fill="midnightblue" stroke="midnightblue" points="374.23,-120.56 384.77,-119.48 375.87,-113.75 374.23,-120.56"/>
</g>
<!-- Node7 -->
<g id="node7" class="node">
<title>Node7</title>
<g id="a_node7"><a xlink:href="classHttpParser.html#aa4b991659eac9e1657d9c71caada3ea1" target="_top" xlink:title="Divide una linea de header en key y value.">
<polygon fill="white" stroke="black" points="357,-76.5 357,-95.5 494,-95.5 494,-76.5 357,-76.5"/>
<text text-anchor="middle" x="425.5" y="-83.5" font-family="Helvetica,sans-Serif" font-size="10.00">HttpParser::splitHeaderLine</text>
</a>
</g>
</g>
<!-- Node3&#45;&gt;Node7 -->
<g id="edge6" class="edge">
<title>Node3&#45;&gt;Node7</title>
<path fill="none" stroke="midnightblue" d="M321.12,-86C329.55,-86 338.14,-86 346.58,-86"/>
<polygon fill="midnightblue" stroke="midnightblue" points="346.79,-89.5 356.79,-86 346.79,-82.5 346.79,-89.5"/>
</g>
<!-- Node5 -->
<g id="node5" class="node">
<title>Node5</title>
<g id="a_node5"><a xlink:href="classHttpRequest.html#a321d2ac0235127e7470d98795eb4a355" target="_top" xlink:title="Agrega un header al mapa. La clave debe venir ya normalizada en minúsculas.">
<polygon fill="white" stroke="black" points="530,-163.5 530,-182.5 661,-182.5 661,-163.5 530,-163.5"/>
<text text-anchor="middle" x="595.5" y="-170.5" font-family="Helvetica,sans-Serif" font-size="10.00">HttpRequest::addHeaders</text>
</a>
</g>
</g>
<!-- Node4&#45;&gt;Node5 -->
<g id="edge4" class="edge">
<title>Node4&#45;&gt;Node5</title>
<path fill="none" stroke="midnightblue" d="M462.95,-138.55C487.94,-145.09 521.3,-153.83 548.17,-160.87"/>
<polygon fill="midnightblue" stroke="midnightblue" points="547.56,-164.32 558.12,-163.47 549.33,-157.55 547.56,-164.32"/>
</g>
<!-- Node6 -->
<g id="node6" class="node">
<title>Node6</title>
<g id="a_node6"><a xlink:href="namespacehttp__header__utils.html#aa9b0e84aeed4203326a12eecbcd3f9e5" target="_top" xlink:title=" ">
<polygon fill="white" stroke="black" points="547,-114 547,-144 644,-144 644,-114 547,-114"/>
<text text-anchor="start" x="555" y="-132" font-family="Helvetica,sans-Serif" font-size="10.00">http_header_utils::</text>
<text text-anchor="middle" x="595.5" y="-121" font-family="Helvetica,sans-Serif" font-size="10.00">toLowerCopy</text>
</a>
</g>
</g>
<!-- Node4&#45;&gt;Node6 -->
<g id="edge5" class="edge">
<title>Node4&#45;&gt;Node6</title>
<path fill="none" stroke="midnightblue" d="M490.97,-129C506.08,-129 522.09,-129 536.88,-129"/>
<polygon fill="midnightblue" stroke="midnightblue" points="536.9,-132.5 546.9,-129 536.9,-125.5 536.9,-132.5"/>
</g>
<!-- Node8 -->
<g id="node8" class="node">
<title>Node8</title>
<g id="a_node8"><a xlink:href="namespacehttp__header__utils.html#a8e76e9e7c6a2030b51da66551de2a136" target="_top" xlink:title=" ">
<polygon fill="white" stroke="black" points="547,-65 547,-95 644,-95 644,-65 547,-65"/>
<text text-anchor="start" x="555" y="-83" font-family="Helvetica,sans-Serif" font-size="10.00">http_header_utils::</text>
<text text-anchor="middle" x="595.5" y="-72" font-family="Helvetica,sans-Serif" font-size="10.00">splitHeaderLine</text>
</a>
</g>
</g>
<!-- Node7&#45;&gt;Node8 -->
<g id="edge7" class="edge">
<title>Node7&#45;&gt;Node8</title>
<path fill="none" stroke="midnightblue" d="M494.35,-83.58C508.35,-83.08 522.98,-82.55 536.6,-82.07"/>
<polygon fill="midnightblue" stroke="midnightblue" points="536.91,-85.56 546.78,-81.7 536.66,-78.56 536.91,-85.56"/>
</g>
<!-- Node9 -->
<g id="node9" class="node">
<title>Node9</title>
<g id="a_node9"><a xlink:href="namespacehttp__header__utils.html#ad43de990f48606a45f250b95d34daf91" target="_top" xlink:title=" ">
<polygon fill="white" stroke="black" points="697,-65 697,-95 794,-95 794,-65 697,-65"/>
<text text-anchor="start" x="705" y="-83" font-family="Helvetica,sans-Serif" font-size="10.00">http_header_utils::</text>
<text text-anchor="middle" x="745.5" y="-72" font-family="Helvetica,sans-Serif" font-size="10.00">trimSpaces</text>
</a>
</g>
</g>
<!-- Node8&#45;&gt;Node9 -->
<g id="edge8" class="edge">
<title>Node8&#45;&gt;Node9</title>
<path fill="none" stroke="midnightblue" d="M644.14,-80C657.74,-80 672.71,-80 686.84,-80"/>
<polygon fill="midnightblue" stroke="midnightblue" points="686.95,-83.5 696.95,-80 686.95,-76.5 686.95,-83.5"/>
</g>
<!-- Node11 -->
<g id="node11" class="node">
<title>Node11</title>
<g id="a_node11"><a xlink:href="classHttpRequest.html#ab537cb11b054734695ee4889d88aec6d" target="_top" xlink:title="Obtiene un header específico de la petición.">
<polygon fill="white" stroke="black" points="364,-38.5 364,-57.5 487,-57.5 487,-38.5 364,-38.5"/>
<text text-anchor="middle" x="425.5" y="-45.5" font-family="Helvetica,sans-Serif" font-size="10.00">HttpRequest::getHeader</text>
</a>
</g>
</g>
<!-- Node10&#45;&gt;Node11 -->
<g id="edge10" class="edge">
<title>Node10&#45;&gt;Node11</title>
<path fill="none" stroke="midnightblue" d="M314.14,-48C327.08,-48 340.62,-48 353.61,-48"/>
<polygon fill="midnightblue" stroke="midnightblue" points="353.88,-51.5 363.88,-48 353.88,-44.5 353.88,-51.5"/>
</g>
<!-- Node12 -->
<g id="node12" class="node">
<title>Node12</title>
<g id="a_node12"><a xlink:href="classHttpRequest.html#ac2a5d18d42289a03b57215c98d8df41e" target="_top" xlink:title=" ">
<polygon fill="white" stroke="black" points="363,-0.5 363,-19.5 488,-19.5 488,-0.5 363,-0.5"/>
<text text-anchor="middle" x="425.5" y="-7.5" font-family="Helvetica,sans-Serif" font-size="10.00">HttpRequest::getVersion</text>
</a>
</g>
</g>
<!-- Node10&#45;&gt;Node12 -->
<g id="edge11" class="edge">
<title>Node10&#45;&gt;Node12</title>
<path fill="none" stroke="midnightblue" d="M290.3,-38.41C314.41,-33.31 344.25,-26.99 369.67,-21.61"/>
<polygon fill="midnightblue" stroke="midnightblue" points="370.47,-25.02 379.53,-19.52 369.02,-18.17 370.47,-25.02"/>
</g>
</g>
</svg>
