<?xml version="1.0" encoding="UTF-8" standalone="no"?>
<!DOCTYPE svg PUBLIC "-//W3C//DTD SVG 1.1//EN"
 "http://www.w3.org/Graphics/SVG/1.1/DTD/svg11.dtd">
<!-- Generated by graphviz version 2.43.0 (0)
 -->
<!-- Title: HttpParser::parseStartLine Pages: 1 -->
<svg width="481pt" height="180pt"
 viewBox="0.00 0.00 481.00 180.00" xmlns="http://www.w3.org/2000/svg" xmlns:xlink="http://www.w3.org/1999/xlink">
<g id="graph0" class="graph" transform="scale(1 1) rotate(0) translate(4 176)">
<title>HttpParser::parseStartLine</title>
<polygon fill="white" stroke="transparent" points="-4,4 -4,-176 477,-176 477,4 -4,4"/>
<!-- Node1 -->
<g id="node1" class="node">
<title>Node1</title>
<g id="a_node1"><a xlink:title=" ">
<polygon fill="#bfbfbf" stroke="black" points="0,-76.5 0,-95.5 133,-95.5 133,-76.5 0,-76.5"/>
<text text-anchor="middle" x="66.5" y="-83.5" font-family="Helvetica,sans-Serif" font-size="10.00">HttpParser::parseStartLine</text>
</a>
</g>
</g>
<!-- Node2 -->
<g id="node2" class="node">
<title>Node2</title>
<g id="a_node2"><a xlink:href="classHttpParser.html#aaee9364e5a2d7de7213cfc7ffb74fcac" target="_top" xlink:title=" ">
<polygon fill="white" stroke="black" points="173.5,-152.5 173.5,-171.5 291.5,-171.5 291.5,-152.5 173.5,-152.5"/>
<text text-anchor="middle" x="232.5" y="-159.5" font-family="Helvetica,sans-Serif" font-size="10.00">HttpParser::extractLine</text>
</a>
</g>
</g>
<!-- Node1&#45;&gt;Node2 -->
<g id="edge1" class="edge">
<title>Node1&#45;&gt;Node2</title>
<path fill="none" stroke="midnightblue" d="M82.12,-95.55C101.39,-107.82 136.66,-129.2 169,-143 174.35,-145.28 180.06,-147.41 185.77,-149.36"/>
<polygon fill="midnightblue" stroke="midnightblue" points="184.74,-152.7 195.33,-152.46 186.9,-146.04 184.74,-152.7"/>
</g>
<!-- Node3 -->
<g id="node3" class="node">
<title>Node3</title>
<g id="a_node3"><a xlink:href="classHttpParser.html#a4a86302e8f97c316b662225211f11dd3" target="_top" xlink:title=" ">
<polygon fill="white" stroke="black" points="179,-114.5 179,-133.5 286,-133.5 286,-114.5 179,-114.5"/>
<text text-anchor="middle" x="232.5" y="-121.5" font-family="Helvetica,sans-Serif" font-size="10.00">HttpParser::parseUri</text>
</a>
</g>
</g>
<!-- Node1&#45;&gt;Node3 -->
<g id="edge2" class="edge">
<title>Node1&#45;&gt;Node3</title>
<path fill="none" stroke="midnightblue" d="M108.88,-95.59C130.62,-100.63 157.46,-106.84 180.47,-112.18"/>
<polygon fill="midnightblue" stroke="midnightblue" points="179.88,-115.63 190.41,-114.48 181.46,-108.81 179.88,-115.63"/>
</g>
<!-- Node7 -->
<g id="node7" class="node">
<title>Node7</title>
<g id="a_node7"><a xlink:href="classHttpRequest.html#a7c225a37759f8106cc8e22f49c9eed5c" target="_top" xlink:title="Convierte el método HTTP a mayúsculas y lo asigna al atributo _method.">
<polygon fill="white" stroke="black" points="170.5,-76.5 170.5,-95.5 294.5,-95.5 294.5,-76.5 170.5,-76.5"/>
<text text-anchor="middle" x="232.5" y="-83.5" font-family="Helvetica,sans-Serif" font-size="10.00">HttpRequest::setMethod</text>
</a>
</g>
</g>
<!-- Node1&#45;&gt;Node7 -->
<g id="edge6" class="edge">
<title>Node1&#45;&gt;Node7</title>
<path fill="none" stroke="midnightblue" d="M133.26,-86C142.13,-86 151.26,-86 160.23,-86"/>
<polygon fill="midnightblue" stroke="midnightblue" points="160.24,-89.5 170.24,-86 160.24,-82.5 160.24,-89.5"/>
</g>
<!-- Node8 -->
<g id="node8" class="node">
<title>Node8</title>
<g id="a_node8"><a xlink:href="classHttpRequest.html#a27c140b8f5fc57bf03b3d85e94214603" target="_top" xlink:title=" ">
<polygon fill="white" stroke="black" points="170,-38.5 170,-57.5 295,-57.5 295,-38.5 170,-38.5"/>
<text text-anchor="middle" x="232.5" y="-45.5" font-family="Helvetica,sans-Serif" font-size="10.00">HttpRequest::setVersion</text>
</a>
</g>
</g>
<!-- Node1&#45;&gt;Node8 -->
<g id="edge7" class="edge">
<title>Node1&#45;&gt;Node8</title>
<path fill="none" stroke="midnightblue" d="M108.88,-76.41C130.62,-71.37 157.46,-65.16 180.47,-59.82"/>
<polygon fill="midnightblue" stroke="midnightblue" points="181.46,-63.19 190.41,-57.52 179.88,-56.37 181.46,-63.19"/>
</g>
<!-- Node9 -->
<g id="node9" class="node">
<title>Node9</title>
<g id="a_node9"><a xlink:href="classHttpParser.html#a2fa66a66c5dca9a86784ae5d8353b18c" target="_top" xlink:title=" ">
<polygon fill="white" stroke="black" points="169,-0.5 169,-19.5 296,-19.5 296,-0.5 169,-0.5"/>
<text text-anchor="middle" x="232.5" y="-7.5" font-family="Helvetica,sans-Serif" font-size="10.00">HttpParser::splitStartLine</text>
</a>
</g>
</g>
<!-- Node1&#45;&gt;Node9 -->
<g id="edge8" class="edge">
<title>Node1&#45;&gt;Node9</title>
<path fill="none" stroke="midnightblue" d="M82.12,-76.45C101.39,-64.18 136.66,-42.8 169,-29 174.35,-26.72 180.06,-24.59 185.77,-22.64"/>
<polygon fill="midnightblue" stroke="midnightblue" points="186.9,-25.96 195.33,-19.54 184.74,-19.3 186.9,-25.96"/>
</g>
<!-- Node4 -->
<g id="node4" class="node">
<title>Node4</title>
<g id="a_node4"><a xlink:href="HttpParserStartLine_8cpp.html#a2597e42415ee763aecb6903cea7a0af7" target="_top" xlink:title=" ">
<polygon fill="white" stroke="black" points="332,-152.5 332,-171.5 473,-171.5 473,-152.5 332,-152.5"/>
<text text-anchor="middle" x="402.5" y="-159.5" font-family="Helvetica,sans-Serif" font-size="10.00">containsParentPathSegment</text>
</a>
</g>
</g>
<!-- Node3&#45;&gt;Node4 -->
<g id="edge3" class="edge">
<title>Node3&#45;&gt;Node4</title>
<path fill="none" stroke="midnightblue" d="M275.89,-133.59C298.26,-138.65 325.9,-144.9 349.55,-150.25"/>
<polygon fill="midnightblue" stroke="midnightblue" points="348.89,-153.69 359.41,-152.48 350.43,-146.86 348.89,-153.69"/>
</g>
<!-- Node5 -->
<g id="node5" class="node">
<title>Node5</title>
<g id="a_node5"><a xlink:href="classHttpRequest.html#aa12b5a0581b89d06e681b9ecfe6486e3" target="_top" xlink:title=" ">
<polygon fill="white" stroke="black" points="346.5,-114.5 346.5,-133.5 458.5,-133.5 458.5,-114.5 346.5,-114.5"/>
<text text-anchor="middle" x="402.5" y="-121.5" font-family="Helvetica,sans-Serif" font-size="10.00">HttpRequest::setPath</text>
</a>
</g>
</g>
<!-- Node3&#45;&gt;Node5 -->
<g id="edge4" class="edge">
<title>Node3&#45;&gt;Node5</title>
<path fill="none" stroke="midnightblue" d="M286.2,-124C302.05,-124 319.65,-124 336.22,-124"/>
<polygon fill="midnightblue" stroke="midnightblue" points="336.38,-127.5 346.38,-124 336.38,-120.5 336.38,-127.5"/>
</g>
<!-- Node6 -->
<g id="node6" class="node">
<title>Node6</title>
<g id="a_node6"><a xlink:href="classHttpRequest.html#a1181be9f943f9504556f6481da778cba" target="_top" xlink:title=" ">
<polygon fill="white" stroke="black" points="343.5,-76.5 343.5,-95.5 461.5,-95.5 461.5,-76.5 343.5,-76.5"/>
<text text-anchor="middle" x="402.5" y="-83.5" font-family="Helvetica,sans-Serif" font-size="10.00">HttpRequest::setQuery</text>
</a>
</g>
</g>
<!-- Node3&#45;&gt;Node6 -->
<g id="edge5" class="edge">
<title>Node3&#45;&gt;Node6</title>
<path fill="none" stroke="midnightblue" d="M275.89,-114.41C298.26,-109.35 325.9,-103.1 349.55,-97.75"/>
<polygon fill="midnightblue" stroke="midnightblue" points="350.43,-101.14 359.41,-95.52 348.89,-94.31 350.43,-101.14"/>
</g>
</g>
</svg>
