<?xml version="1.0" encoding="UTF-8" standalone="no"?>
<!DOCTYPE svg PUBLIC "-//W3C//DTD SVG 1.1//EN"
 "http://www.w3.org/Graphics/SVG/1.1/DTD/svg11.dtd">
<!-- Generated by graphviz version 2.43.0 (0)
 -->
<!-- Title: src/client/Client.hpp Pages: 1 -->
<svg width="1020pt" height="252pt"
 viewBox="0.00 0.00 1019.69 252.00" xmlns="http://www.w3.org/2000/svg" xmlns:xlink="http://www.w3.org/1999/xlink">
<g id="graph0" class="graph" transform="scale(1 1) rotate(0) translate(4 248)">
<title>src/client/Client.hpp</title>
<polygon fill="white" stroke="transparent" points="-4,4 -4,-248 1015.69,-248 1015.69,4 -4,4"/>
<!-- Node1 -->
<g id="node1" class="node">
<title>Node1</title>
<g id="a_node1"><a xlink:title=" ">
<polygon fill="#bfbfbf" stroke="black" points="300.5,-224.5 300.5,-243.5 404.5,-243.5 404.5,-224.5 300.5,-224.5"/>
<text text-anchor="middle" x="352.5" y="-231.5" font-family="Helvetica,sans-Serif" font-size="10.00">src/client/Client.hpp</text>
</a>
</g>
</g>
<!-- Node2 -->
<g id="node2" class="node">
<title>Node2</title>
<g id="a_node2"><a xlink:title=" ">
<polygon fill="white" stroke="#bfbfbf" points="0,-168.5 0,-187.5 41,-187.5 41,-168.5 0,-168.5"/>
<text text-anchor="middle" x="20.5" y="-175.5" font-family="Helvetica,sans-Serif" font-size="10.00">ctime</text>
</a>
</g>
</g>
<!-- Node1&#45;&gt;Node2 -->
<g id="edge1" class="edge">
<title>Node1&#45;&gt;Node2</title>
<path fill="none" stroke="midnightblue" d="M300.31,-227.71C241.65,-221.23 143.48,-208.72 51.09,-188.1"/>
<polygon fill="midnightblue" stroke="midnightblue" points="51.83,-184.68 41.31,-185.88 50.28,-191.5 51.83,-184.68"/>
</g>
<!-- Node3 -->
<g id="node3" class="node">
<title>Node3</title>
<g id="a_node3"><a xlink:title=" ">
<polygon fill="white" stroke="#bfbfbf" points="59,-168.5 59,-187.5 102,-187.5 102,-168.5 59,-168.5"/>
<text text-anchor="middle" x="80.5" y="-175.5" font-family="Helvetica,sans-Serif" font-size="10.00">queue</text>
</a>
</g>
</g>
<!-- Node1&#45;&gt;Node3 -->
<g id="edge2" class="edge">
<title>Node1&#45;&gt;Node3</title>
<path fill="none" stroke="midnightblue" d="M303.52,-224.49C255.67,-215.99 180.86,-202.17 116.5,-188 115.05,-187.68 113.56,-187.34 112.06,-187"/>
<polygon fill="midnightblue" stroke="midnightblue" points="112.7,-183.55 102.16,-184.62 111.06,-190.36 112.7,-183.55"/>
</g>
<!-- Node4 -->
<g id="node4" class="node">
<title>Node4</title>
<g id="a_node4"><a xlink:title=" ">
<polygon fill="white" stroke="#bfbfbf" points="765,-0.5 765,-19.5 806,-19.5 806,-0.5 765,-0.5"/>
<text text-anchor="middle" x="785.5" y="-7.5" font-family="Helvetica,sans-Serif" font-size="10.00">string</text>
</a>
</g>
</g>
<!-- Node1&#45;&gt;Node4 -->
<g id="edge3" class="edge">
<title>Node1&#45;&gt;Node4</title>
<path fill="none" stroke="midnightblue" d="M404.58,-233.13C543.88,-232.25 919.63,-221.47 995.5,-132 1017.35,-106.24 1016.74,-82.27 995.5,-56 973.3,-28.53 868.95,-17.08 816.2,-12.97"/>
<polygon fill="midnightblue" stroke="midnightblue" points="816.3,-9.47 806.07,-12.23 815.79,-16.45 816.3,-9.47"/>
</g>
<!-- Node5 -->
<g id="node5" class="node">
<title>Node5</title>
<g id="a_node5"><a xlink:title=" ">
<polygon fill="white" stroke="#bfbfbf" points="203.5,-0.5 203.5,-19.5 247.5,-19.5 247.5,-0.5 203.5,-0.5"/>
<text text-anchor="middle" x="225.5" y="-7.5" font-family="Helvetica,sans-Serif" font-size="10.00">vector</text>
</a>
</g>
</g>
<!-- Node1&#45;&gt;Node5 -->
<g id="edge4" class="edge">
<title>Node1&#45;&gt;Node5</title>
<path fill="none" stroke="midnightblue" d="M325.62,-224.45C289.31,-211.25 226.15,-182.05 200.5,-132 185.09,-101.94 190.75,-88.63 199.5,-56 202.15,-46.1 207.57,-36.13 212.77,-28.1"/>
<polygon fill="midnightblue" stroke="midnightblue" points="215.79,-29.89 218.61,-19.68 210.04,-25.91 215.79,-29.89"/>
</g>
<!-- Node6 -->
<g id="node6" class="node">
<title>Node6</title>
<g id="a_node6"><a xlink:href="RequestProcessor_8hpp.html" target="_top" xlink:title=" ">
<polygon fill="white" stroke="black" points="294.5,-168.5 294.5,-187.5 410.5,-187.5 410.5,-168.5 294.5,-168.5"/>
<text text-anchor="middle" x="352.5" y="-175.5" font-family="Helvetica,sans-Serif" font-size="10.00">RequestProcessor.hpp</text>
</a>
</g>
</g>
<!-- Node1&#45;&gt;Node6 -->
<g id="edge5" class="edge">
<title>Node1&#45;&gt;Node6</title>
<path fill="none" stroke="midnightblue" d="M352.5,-224.08C352.5,-217.01 352.5,-206.86 352.5,-197.99"/>
<polygon fill="midnightblue" stroke="midnightblue" points="356,-197.75 352.5,-187.75 349,-197.75 356,-197.75"/>
</g>
<!-- Node7 -->
<g id="node7" class="node">
<title>Node7</title>
<g id="a_node7"><a xlink:href="ServerConfig_8hpp.html" target="_top" xlink:title=" ">
<polygon fill="white" stroke="black" points="466.5,-112.5 466.5,-131.5 588.5,-131.5 588.5,-112.5 466.5,-112.5"/>
<text text-anchor="middle" x="527.5" y="-119.5" font-family="Helvetica,sans-Serif" font-size="10.00">config/ServerConfig.hpp</text>
</a>
</g>
</g>
<!-- Node1&#45;&gt;Node7 -->
<g id="edge30" class="edge">
<title>Node1&#45;&gt;Node7</title>
<path fill="none" stroke="midnightblue" d="M376.53,-224.47C397.43,-216.52 428.11,-203.58 452.5,-188 474.8,-173.76 497.33,-153.21 511.8,-139.05"/>
<polygon fill="midnightblue" stroke="midnightblue" points="514.34,-141.46 518.95,-131.92 509.39,-136.5 514.34,-141.46"/>
</g>
<!-- Node12 -->
<g id="node12" class="node">
<title>Node12</title>
<g id="a_node12"><a xlink:href="HttpRequest_8hpp.html" target="_top" xlink:title=" ">
<polygon fill="white" stroke="black" points="310.5,-56.5 310.5,-75.5 420.5,-75.5 420.5,-56.5 310.5,-56.5"/>
<text text-anchor="middle" x="365.5" y="-63.5" font-family="Helvetica,sans-Serif" font-size="10.00">http/HttpRequest.hpp</text>
</a>
</g>
</g>
<!-- Node1&#45;&gt;Node12 -->
<g id="edge35" class="edge">
<title>Node1&#45;&gt;Node12</title>
<path fill="none" stroke="midnightblue" d="M375.29,-224.47C390.83,-217.32 410.21,-205.44 419.5,-188 438.95,-151.5 404.44,-106.58 382.18,-83.08"/>
<polygon fill="midnightblue" stroke="midnightblue" points="384.43,-80.38 374.92,-75.71 379.44,-85.29 384.43,-80.38"/>
</g>
<!-- Node13 -->
<g id="node13" class="node">
<title>Node13</title>
<g id="a_node13"><a xlink:href="HttpResponse_8hpp.html" target="_top" xlink:title=" ">
<polygon fill="white" stroke="black" points="221.5,-112.5 221.5,-131.5 339.5,-131.5 339.5,-112.5 221.5,-112.5"/>
<text text-anchor="middle" x="280.5" y="-119.5" font-family="Helvetica,sans-Serif" font-size="10.00">http/HttpResponse.hpp</text>
</a>
</g>
</g>
<!-- Node1&#45;&gt;Node13 -->
<g id="edge36" class="edge">
<title>Node1&#45;&gt;Node13</title>
<path fill="none" stroke="midnightblue" d="M330.44,-224.4C315.04,-217.15 295.53,-205.19 285.5,-188 277.39,-174.1 276.75,-155.59 277.78,-141.88"/>
<polygon fill="midnightblue" stroke="midnightblue" points="281.28,-142.02 278.91,-131.69 274.33,-141.25 281.28,-142.02"/>
</g>
<!-- Node14 -->
<g id="node14" class="node">
<title>Node14</title>
<g id="a_node14"><a xlink:href="HttpParser_8hpp.html" target="_top" xlink:title=" ">
<polygon fill="white" stroke="black" points="885,-112.5 885,-131.5 986,-131.5 986,-112.5 885,-112.5"/>
<text text-anchor="middle" x="935.5" y="-119.5" font-family="Helvetica,sans-Serif" font-size="10.00">http/HttpParser.hpp</text>
</a>
</g>
</g>
<!-- Node1&#45;&gt;Node14 -->
<g id="edge31" class="edge">
<title>Node1&#45;&gt;Node14</title>
<path fill="none" stroke="midnightblue" d="M397.76,-224.46C503.33,-204.54 765.57,-155.06 880.29,-133.42"/>
<polygon fill="midnightblue" stroke="midnightblue" points="881.09,-136.83 890.27,-131.53 879.79,-129.95 881.09,-136.83"/>
</g>
<!-- Node6&#45;&gt;Node4 -->
<g id="edge6" class="edge">
<title>Node6&#45;&gt;Node4</title>
<path fill="none" stroke="midnightblue" d="M410.81,-173.67C526.48,-165.69 778.25,-141.09 829.5,-76 842.54,-59.44 823.76,-39.16 806.85,-25.7"/>
<polygon fill="midnightblue" stroke="midnightblue" points="808.94,-22.9 798.84,-19.69 804.74,-28.49 808.94,-22.9"/>
</g>
<!-- Node6&#45;&gt;Node5 -->
<g id="edge7" class="edge">
<title>Node6&#45;&gt;Node5</title>
<path fill="none" stroke="midnightblue" d="M294.45,-173.91C264.85,-169.03 231.22,-157.69 212.5,-132 190.19,-101.39 205.51,-54.3 216.69,-28.83"/>
<polygon fill="midnightblue" stroke="midnightblue" points="219.92,-30.18 220.97,-19.64 213.57,-27.23 219.92,-30.18"/>
</g>
<!-- Node6&#45;&gt;Node7 -->
<g id="edge8" class="edge">
<title>Node6&#45;&gt;Node7</title>
<path fill="none" stroke="midnightblue" d="M380.23,-168.44C409.93,-159.28 457.22,-144.69 490.17,-134.52"/>
<polygon fill="midnightblue" stroke="midnightblue" points="491.38,-137.81 499.9,-131.52 489.31,-131.12 491.38,-137.81"/>
</g>
<!-- Node6&#45;&gt;Node12 -->
<g id="edge20" class="edge">
<title>Node6&#45;&gt;Node12</title>
<path fill="none" stroke="midnightblue" d="M353.52,-168.37C355.62,-150.62 360.46,-109.67 363.3,-85.6"/>
<polygon fill="midnightblue" stroke="midnightblue" points="366.79,-85.93 364.48,-75.59 359.84,-85.11 366.79,-85.93"/>
</g>
<!-- Node6&#45;&gt;Node13 -->
<g id="edge25" class="edge">
<title>Node6&#45;&gt;Node13</title>
<path fill="none" stroke="midnightblue" d="M340.93,-168.32C330.08,-160.18 313.62,-147.84 300.62,-138.09"/>
<polygon fill="midnightblue" stroke="midnightblue" points="302.38,-135.03 292.28,-131.83 298.18,-140.63 302.38,-135.03"/>
</g>
<!-- Node7&#45;&gt;Node4 -->
<g id="edge11" class="edge">
<title>Node7&#45;&gt;Node4</title>
<path fill="none" stroke="midnightblue" d="M588.64,-120.32C663.87,-118.03 785.16,-109.14 813.5,-76 825.65,-61.79 813.47,-41.51 801.58,-27.4"/>
<polygon fill="midnightblue" stroke="midnightblue" points="804.11,-24.97 794.81,-19.89 798.91,-29.66 804.11,-24.97"/>
</g>
<!-- Node7&#45;&gt;Node5 -->
<g id="edge12" class="edge">
<title>Node7&#45;&gt;Node5</title>
<path fill="none" stroke="midnightblue" d="M466.31,-117.25C419.26,-112.41 353.68,-101.34 301.5,-76 276.99,-64.1 253.97,-42.36 239.82,-27.32"/>
<polygon fill="midnightblue" stroke="midnightblue" points="242.25,-24.79 232.92,-19.76 237.08,-29.5 242.25,-24.79"/>
</g>
<!-- Node8 -->
<g id="node8" class="node">
<title>Node8</title>
<g id="a_node8"><a xlink:title=" ">
<polygon fill="white" stroke="#bfbfbf" points="500.5,-0.5 500.5,-19.5 554.5,-19.5 554.5,-0.5 500.5,-0.5"/>
<text text-anchor="middle" x="527.5" y="-7.5" font-family="Helvetica,sans-Serif" font-size="10.00">iostream</text>
</a>
</g>
</g>
<!-- Node7&#45;&gt;Node8 -->
<g id="edge9" class="edge">
<title>Node7&#45;&gt;Node8</title>
<path fill="none" stroke="midnightblue" d="M546.08,-112.43C567.8,-101.09 599.38,-79.76 587.5,-56 580.77,-42.54 567.89,-32.07 555.79,-24.62"/>
<polygon fill="midnightblue" stroke="midnightblue" points="557.22,-21.41 546.8,-19.52 553.77,-27.5 557.22,-21.41"/>
</g>
<!-- Node9 -->
<g id="node9" class="node">
<title>Node9</title>
<g id="a_node9"><a xlink:title=" ">
<polygon fill="white" stroke="#bfbfbf" points="389,-0.5 389,-19.5 424,-19.5 424,-0.5 389,-0.5"/>
<text text-anchor="middle" x="406.5" y="-7.5" font-family="Helvetica,sans-Serif" font-size="10.00">map</text>
</a>
</g>
</g>
<!-- Node7&#45;&gt;Node9 -->
<g id="edge10" class="edge">
<title>Node7&#45;&gt;Node9</title>
<path fill="none" stroke="midnightblue" d="M514.85,-112.23C502.58,-103.54 483.66,-89.58 468.5,-76 451.18,-60.49 433.01,-41.01 420.85,-27.43"/>
<polygon fill="midnightblue" stroke="midnightblue" points="423.37,-25 414.12,-19.83 418.13,-29.64 423.37,-25"/>
</g>
<!-- Node10 -->
<g id="node10" class="node">
<title>Node10</title>
<g id="a_node10"><a xlink:href="LocationConfig_8hpp.html" target="_top" xlink:title=" ">
<polygon fill="white" stroke="black" points="477,-56.5 477,-75.5 578,-75.5 578,-56.5 477,-56.5"/>
<text text-anchor="middle" x="527.5" y="-63.5" font-family="Helvetica,sans-Serif" font-size="10.00">LocationConfig.hpp</text>
</a>
</g>
</g>
<!-- Node7&#45;&gt;Node10 -->
<g id="edge13" class="edge">
<title>Node7&#45;&gt;Node10</title>
<path fill="none" stroke="midnightblue" d="M527.5,-112.08C527.5,-105.01 527.5,-94.86 527.5,-85.99"/>
<polygon fill="midnightblue" stroke="midnightblue" points="531,-85.75 527.5,-75.75 524,-85.75 531,-85.75"/>
</g>
<!-- Node11 -->
<g id="node11" class="node">
<title>Node11</title>
<g id="a_node11"><a xlink:href="namespaces_8hpp.html" target="_top" xlink:title=" ">
<polygon fill="white" stroke="black" points="673,-56.5 673,-75.5 804,-75.5 804,-56.5 673,-56.5"/>
<text text-anchor="middle" x="738.5" y="-63.5" font-family="Helvetica,sans-Serif" font-size="10.00">common/namespaces.hpp</text>
</a>
</g>
</g>
<!-- Node7&#45;&gt;Node11 -->
<g id="edge18" class="edge">
<title>Node7&#45;&gt;Node11</title>
<path fill="none" stroke="midnightblue" d="M560.93,-112.44C597.36,-103.12 655.73,-88.18 695.53,-78"/>
<polygon fill="midnightblue" stroke="midnightblue" points="696.4,-81.39 705.22,-75.52 694.67,-74.61 696.4,-81.39"/>
</g>
<!-- Node10&#45;&gt;Node4 -->
<g id="edge16" class="edge">
<title>Node10&#45;&gt;Node4</title>
<path fill="none" stroke="midnightblue" d="M568.38,-56.44C620.19,-45.6 708.31,-27.16 754.76,-17.43"/>
<polygon fill="midnightblue" stroke="midnightblue" points="755.74,-20.8 764.82,-15.33 754.31,-13.95 755.74,-20.8"/>
</g>
<!-- Node10&#45;&gt;Node5 -->
<g id="edge17" class="edge">
<title>Node10&#45;&gt;Node5</title>
<path fill="none" stroke="midnightblue" d="M479.65,-56.44C417.59,-45.35 311.01,-26.29 257.75,-16.77"/>
<polygon fill="midnightblue" stroke="midnightblue" points="258.3,-13.31 247.84,-15 257.07,-20.2 258.3,-13.31"/>
</g>
<!-- Node10&#45;&gt;Node8 -->
<g id="edge14" class="edge">
<title>Node10&#45;&gt;Node8</title>
<path fill="none" stroke="midnightblue" d="M527.5,-56.08C527.5,-49.01 527.5,-38.86 527.5,-29.99"/>
<polygon fill="midnightblue" stroke="midnightblue" points="531,-29.75 527.5,-19.75 524,-29.75 531,-29.75"/>
</g>
<!-- Node10&#45;&gt;Node9 -->
<g id="edge15" class="edge">
<title>Node10&#45;&gt;Node9</title>
<path fill="none" stroke="midnightblue" d="M508.33,-56.44C488.13,-47.43 456.15,-33.16 433.42,-23.02"/>
<polygon fill="midnightblue" stroke="midnightblue" points="434.57,-19.69 424.01,-18.82 431.72,-26.09 434.57,-19.69"/>
</g>
<!-- Node11&#45;&gt;Node4 -->
<g id="edge19" class="edge">
<title>Node11&#45;&gt;Node4</title>
<path fill="none" stroke="midnightblue" d="M746.26,-56.08C753.04,-48.3 763.04,-36.8 771.26,-27.37"/>
<polygon fill="midnightblue" stroke="midnightblue" points="773.96,-29.59 777.88,-19.75 768.68,-25 773.96,-29.59"/>
</g>
<!-- Node12&#45;&gt;Node4 -->
<g id="edge23" class="edge">
<title>Node12&#45;&gt;Node4</title>
<path fill="none" stroke="midnightblue" d="M420.84,-57.88C510.46,-46.36 684.42,-24 754.82,-14.94"/>
<polygon fill="midnightblue" stroke="midnightblue" points="755.34,-18.41 764.82,-13.66 754.45,-11.46 755.34,-18.41"/>
</g>
<!-- Node12&#45;&gt;Node5 -->
<g id="edge24" class="edge">
<title>Node12&#45;&gt;Node5</title>
<path fill="none" stroke="midnightblue" d="M343.32,-56.44C320.07,-47.48 283.35,-33.31 257.08,-23.18"/>
<polygon fill="midnightblue" stroke="midnightblue" points="258.17,-19.85 247.58,-19.52 255.65,-26.38 258.17,-19.85"/>
</g>
<!-- Node12&#45;&gt;Node8 -->
<g id="edge21" class="edge">
<title>Node12&#45;&gt;Node8</title>
<path fill="none" stroke="midnightblue" d="M391.17,-56.44C418.42,-47.36 461.68,-32.94 492.15,-22.78"/>
<polygon fill="midnightblue" stroke="midnightblue" points="493.57,-26 501.95,-19.52 491.36,-19.36 493.57,-26"/>
</g>
<!-- Node12&#45;&gt;Node9 -->
<g id="edge22" class="edge">
<title>Node12&#45;&gt;Node9</title>
<path fill="none" stroke="midnightblue" d="M372.27,-56.08C378.06,-48.46 386.56,-37.26 393.64,-27.94"/>
<polygon fill="midnightblue" stroke="midnightblue" points="396.6,-29.83 399.86,-19.75 391.02,-25.6 396.6,-29.83"/>
</g>
<!-- Node13&#45;&gt;Node4 -->
<g id="edge27" class="edge">
<title>Node13&#45;&gt;Node4</title>
<path fill="none" stroke="midnightblue" d="M339.63,-115.38C401.87,-108.76 502.43,-96.04 587.5,-76 648.11,-61.72 716.73,-37.26 755.18,-22.76"/>
<polygon fill="midnightblue" stroke="midnightblue" points="756.64,-25.95 764.74,-19.13 754.15,-19.41 756.64,-25.95"/>
</g>
<!-- Node13&#45;&gt;Node5 -->
<g id="edge28" class="edge">
<title>Node13&#45;&gt;Node5</title>
<path fill="none" stroke="midnightblue" d="M265.86,-112.33C254.07,-104.47 238.24,-91.72 230.5,-76 223.39,-61.56 222.64,-43.11 223.37,-29.56"/>
<polygon fill="midnightblue" stroke="midnightblue" points="226.87,-29.78 224.23,-19.52 219.89,-29.19 226.87,-29.78"/>
</g>
<!-- Node13&#45;&gt;Node9 -->
<g id="edge26" class="edge">
<title>Node13&#45;&gt;Node9</title>
<path fill="none" stroke="midnightblue" d="M281.06,-112.29C282.38,-98.65 286.8,-72.13 301.5,-56 321.87,-33.66 355.21,-21.97 378.85,-16.17"/>
<polygon fill="midnightblue" stroke="midnightblue" points="379.65,-19.57 388.64,-13.96 378.11,-12.74 379.65,-19.57"/>
</g>
<!-- Node13&#45;&gt;Node12 -->
<g id="edge29" class="edge">
<title>Node13&#45;&gt;Node12</title>
<path fill="none" stroke="midnightblue" d="M294.16,-112.32C307.42,-103.9 327.77,-90.97 343.35,-81.07"/>
<polygon fill="midnightblue" stroke="midnightblue" points="345.31,-83.97 351.88,-75.65 341.56,-78.06 345.31,-83.97"/>
</g>
<!-- Node14&#45;&gt;Node4 -->
<g id="edge33" class="edge">
<title>Node14&#45;&gt;Node4</title>
<path fill="none" stroke="midnightblue" d="M930.59,-112.34C922.52,-98.75 905.25,-72.31 884.5,-56 863.83,-39.76 836.37,-27.87 815.61,-20.41"/>
<polygon fill="midnightblue" stroke="midnightblue" points="816.61,-17.05 806.01,-17.1 814.33,-23.67 816.61,-17.05"/>
</g>
<!-- Node14&#45;&gt;Node12 -->
<g id="edge34" class="edge">
<title>Node14&#45;&gt;Node12</title>
<path fill="none" stroke="midnightblue" d="M884.92,-116.21C781.37,-106.4 545.38,-84.04 430.6,-73.17"/>
<polygon fill="midnightblue" stroke="midnightblue" points="430.83,-69.67 420.54,-72.21 430.17,-76.64 430.83,-69.67"/>
</g>
<!-- Node15 -->
<g id="node15" class="node">
<title>Node15</title>
<g id="a_node15"><a xlink:title=" ">
<polygon fill="white" stroke="#bfbfbf" points="937,-56.5 937,-75.5 986,-75.5 986,-56.5 937,-56.5"/>
<text text-anchor="middle" x="961.5" y="-63.5" font-family="Helvetica,sans-Serif" font-size="10.00">cstddef</text>
</a>
</g>
</g>
<!-- Node14&#45;&gt;Node15 -->
<g id="edge32" class="edge">
<title>Node14&#45;&gt;Node15</title>
<path fill="none" stroke="midnightblue" d="M939.79,-112.08C943.35,-104.69 948.52,-93.95 952.92,-84.81"/>
<polygon fill="midnightblue" stroke="midnightblue" points="956.1,-86.28 957.29,-75.75 949.79,-83.24 956.1,-86.28"/>
</g>
</g>
</svg>
