<?xml version="1.0" encoding="UTF-8" standalone="no"?>
<!DOCTYPE svg PUBLIC "-//W3C//DTD SVG 1.1//EN"
 "http://www.w3.org/Graphics/SVG/1.1/DTD/svg11.dtd">
<!-- Generated by graphviz version 2.43.0 (0)
 -->
<!-- Title: src/client/Client.hpp Pages: 1 -->
<svg width="514pt" height="140pt"
 viewBox="0.00 0.00 513.50 140.00" xmlns="http://www.w3.org/2000/svg" xmlns:xlink="http://www.w3.org/1999/xlink">
<g id="graph0" class="graph" transform="scale(1 1) rotate(0) translate(4 136)">
<title>src/client/Client.hpp</title>
<polygon fill="white" stroke="transparent" points="-4,4 -4,-136 509.5,-136 509.5,4 -4,4"/>
<!-- Node1 -->
<g id="node1" class="node">
<title>Node1</title>
<g id="a_node1"><a xlink:title=" ">
<polygon fill="#bfbfbf" stroke="black" points="183,-112.5 183,-131.5 287,-131.5 287,-112.5 183,-112.5"/>
<text text-anchor="middle" x="235" y="-119.5" font-family="Helvetica,sans-Serif" font-size="10.00">src/client/Client.hpp</text>
</a>
</g>
</g>
<!-- Node2 -->
<g id="node2" class="node">
<title>Node2</title>
<g id="a_node2"><a xlink:href="Client_8cpp.html" target="_top" xlink:title=" ">
<polygon fill="white" stroke="black" points="0,-0.5 0,-19.5 104,-19.5 104,-0.5 0,-0.5"/>
<text text-anchor="middle" x="52" y="-7.5" font-family="Helvetica,sans-Serif" font-size="10.00">src/client/Client.cpp</text>
</a>
</g>
</g>
<!-- Node1&#45;&gt;Node2 -->
<g id="edge1" class="edge">
<title>Node1&#45;&gt;Node2</title>
<path fill="none" stroke="midnightblue" d="M211.72,-107.01C173.31,-83.92 97.77,-38.51 66.29,-19.59"/>
<polygon fill="midnightblue" stroke="midnightblue" points="210.27,-110.22 220.64,-112.37 213.87,-104.22 210.27,-110.22"/>
</g>
<!-- Node3 -->
<g id="node3" class="node">
<title>Node3</title>
<g id="a_node3"><a xlink:href="ClientCgi_8cpp.html" target="_top" xlink:title=" ">
<polygon fill="white" stroke="black" points="122.5,-0.5 122.5,-19.5 241.5,-19.5 241.5,-0.5 122.5,-0.5"/>
<text text-anchor="middle" x="182" y="-7.5" font-family="Helvetica,sans-Serif" font-size="10.00">src/client/ClientCgi.cpp</text>
</a>
</g>
</g>
<!-- Node1&#45;&gt;Node3 -->
<g id="edge2" class="edge">
<title>Node1&#45;&gt;Node3</title>
<path fill="none" stroke="midnightblue" d="M220.72,-104.36C214.3,-96.23 207.05,-86.04 202,-76 192.46,-57.01 186.45,-32.59 183.72,-19.76"/>
<polygon fill="midnightblue" stroke="midnightblue" points="218.17,-106.77 227.22,-112.28 223.58,-102.33 218.17,-106.77"/>
</g>
<!-- Node4 -->
<g id="node4" class="node">
<title>Node4</title>
<g id="a_node4"><a xlink:href="ServerManager_8cpp.html" target="_top" xlink:title=" ">
<polygon fill="white" stroke="black" points="350.5,-0.5 350.5,-19.5 505.5,-19.5 505.5,-0.5 350.5,-0.5"/>
<text text-anchor="middle" x="428" y="-7.5" font-family="Helvetica,sans-Serif" font-size="10.00">src/network/ServerManager.cpp</text>
</a>
</g>
</g>
<!-- Node1&#45;&gt;Node4 -->
<g id="edge3" class="edge">
<title>Node1&#45;&gt;Node4</title>
<path fill="none" stroke="midnightblue" d="M293.98,-110.04C320.36,-103.2 350.88,-92.46 375,-76 397.13,-60.9 414.83,-33.93 423.03,-19.95"/>
<polygon fill="midnightblue" stroke="midnightblue" points="292.97,-106.68 284.1,-112.47 294.64,-113.48 292.97,-106.68"/>
</g>
<!-- Node5 -->
<g id="node5" class="node">
<title>Node5</title>
<g id="a_node5"><a xlink:href="ServerManager_8hpp.html" target="_top" xlink:title=" ">
<polygon fill="white" stroke="black" points="210.5,-56.5 210.5,-75.5 365.5,-75.5 365.5,-56.5 210.5,-56.5"/>
<text text-anchor="middle" x="288" y="-63.5" font-family="Helvetica,sans-Serif" font-size="10.00">src/network/ServerManager.hpp</text>
</a>
</g>
</g>
<!-- Node1&#45;&gt;Node5 -->
<g id="edge4" class="edge">
<title>Node1&#45;&gt;Node5</title>
<path fill="none" stroke="midnightblue" d="M250.98,-104.72C260.32,-95.2 271.75,-83.56 279.41,-75.75"/>
<polygon fill="midnightblue" stroke="midnightblue" points="248.26,-102.49 243.75,-112.08 253.25,-107.4 248.26,-102.49"/>
</g>
<!-- Node5&#45;&gt;Node2 -->
<g id="edge5" class="edge">
<title>Node5&#45;&gt;Node2</title>
<path fill="none" stroke="midnightblue" d="M240.59,-54.15C196,-43.95 130.15,-28.88 89.22,-19.52"/>
<polygon fill="midnightblue" stroke="midnightblue" points="240.08,-57.62 250.61,-56.44 241.64,-50.8 240.08,-57.62"/>
</g>
<!-- Node5&#45;&gt;Node3 -->
<g id="edge6" class="edge">
<title>Node5&#45;&gt;Node3</title>
<path fill="none" stroke="midnightblue" d="M261.94,-51.73C242.32,-41.73 215.97,-28.31 198.99,-19.65"/>
<polygon fill="midnightblue" stroke="midnightblue" points="260.47,-54.9 270.97,-56.32 263.65,-48.67 260.47,-54.9"/>
</g>
<!-- Node5&#45;&gt;Node4 -->
<g id="edge8" class="edge">
<title>Node5&#45;&gt;Node4</title>
<path fill="none" stroke="midnightblue" d="M319.7,-52.77C346,-42.63 382.72,-28.47 405.92,-19.52"/>
<polygon fill="midnightblue" stroke="midnightblue" points="318.25,-49.58 310.18,-56.44 320.77,-56.11 318.25,-49.58"/>
</g>
<!-- Node6 -->
<g id="node6" class="node">
<title>Node6</title>
<g id="a_node6"><a xlink:href="main_8cpp.html" target="_top" xlink:title=" ">
<polygon fill="white" stroke="black" points="259.5,-0.5 259.5,-19.5 332.5,-19.5 332.5,-0.5 259.5,-0.5"/>
<text text-anchor="middle" x="296" y="-7.5" font-family="Helvetica,sans-Serif" font-size="10.00">src/main.cpp</text>
</a>
</g>
</g>
<!-- Node5&#45;&gt;Node6 -->
<g id="edge7" class="edge">
<title>Node5&#45;&gt;Node6</title>
<path fill="none" stroke="midnightblue" d="M290.8,-46.1C292.13,-37.14 293.65,-26.86 294.7,-19.75"/>
<polygon fill="midnightblue" stroke="midnightblue" points="287.32,-45.68 289.32,-56.08 294.25,-46.7 287.32,-45.68"/>
</g>
</g>
</svg>
