<?xml version="1.0" encoding="UTF-8" standalone="no"?>
<!DOCTYPE svg PUBLIC "-//W3C//DTD SVG 1.1//EN"
 "http://www.w3.org/Graphics/SVG/1.1/DTD/svg11.dtd">
<!-- Generated by graphviz version 2.43.0 (0)
 -->
<!-- Title: src/client/Client.cpp Pages: 1 -->
<!--zoomable 364 -->
<svg id="main" version="1.1" xmlns="http://www.w3.org/2000/svg" xmlns:xlink="http://www.w3.org/1999/xlink" xml:space="preserve" onload="init(evt)">
<style type="text/css"><![CDATA[
.edge:hover path { stroke: red; }
.edge:hover polygon { stroke: red; fill: red; }
]]></style>
<script type="text/javascript"><![CDATA[
var edges = document.getElementsByTagName('g');
if (edges && edges.length) {
  for (var i=0;i<edges.length;i++) {
    if (edges[i].id.substr(0,4)=='edge') {
      edges[i].setAttribute('class','edge');
    }
  }
}
]]></script>
        <defs>
                <circle id="rim" cx="0" cy="0" r="7"/>
                <circle id="rim2" cx="0" cy="0" r="3.5"/>
                <g id="zoomPlus">
                        <use xlink:href="#rim" fill="#404040">
                                <set attributeName="fill" to="#808080" begin="zoomplus.mouseover" end="zoomplus.mouseout"/>
                        </use>
                        <path d="M-4,0h8M0,-4v8" fill="none" stroke="white" stroke-width="1.5" pointer-events="none"/>
                </g>
                <g id="zoomMin">
                        <use xlink:href="#rim" fill="#404040">
                                <set attributeName="fill" to="#808080" begin="zoomminus.mouseover" end="zoomminus.mouseout"/>
                        </use>
                        <path d="M-4,0h8" fill="none" stroke="white" stroke-width="1.5" pointer-events="none"/>
                </g>
                <g id="dirArrow">
                        <path fill="none" stroke="white" stroke-width="1.5" d="M0,-3.0v7 M-2.5,-0.5L0,-3.0L2.5,-0.5"/>
                </g>
               <g id="resetDef">
                       <use xlink:href="#rim2" fill="#404040">
                               <set attributeName="fill" to="#808080" begin="reset.mouseover" end="reset.mouseout"/>
                       </use>
               </g>
        </defs>

<script type="text/javascript">
var viewWidth = 1258;
var viewHeight = 364;
var sectionId = 'dynsection-0';
</script>
<script xlink:href="svgpan.js"/>
<svg id="graph" class="graph">
<g id="viewport">
<title>src/client/Client.cpp</title>
<polygon fill="white" stroke="transparent" points="-4,4 -4,-360 1254.3,-360 1254.3,4 -4,4"/>
<!-- Node1 -->
<g id="node1" class="node">
<title>Node1</title>
<g id="a_node1"><a xlink:title=" ">
<polygon fill="#bfbfbf" stroke="black" points="791.3,-336.5 791.3,-355.5 895.3,-355.5 895.3,-336.5 791.3,-336.5"/>
<text text-anchor="middle" x="843.3" y="-343.5" font-family="Helvetica,sans-Serif" font-size="10.00">src/client/Client.cpp</text>
</a>
</g>
</g>
<!-- Node2 -->
<g id="node2" class="node">
<title>Node2</title>
<g id="a_node2"><a xlink:href="Client_8hpp.html" target="_top" xlink:title=" ">
<polygon fill="white" stroke="black" points="679.8,-224.5 679.8,-243.5 740.8,-243.5 740.8,-224.5 679.8,-224.5"/>
<text text-anchor="middle" x="710.3" y="-231.5" font-family="Helvetica,sans-Serif" font-size="10.00">Client.hpp</text>
</a>
</g>
</g>
<!-- Node1&#45;&gt;Node2 -->
<g id="edge1" class="edge">
<title>Node1&#45;&gt;Node2</title>
<path fill="none" stroke="midnightblue" d="M824.49,-336.46C807.93,-328.41 783.66,-315.33 765.3,-300 748.36,-285.85 732.47,-266.1 722.17,-252.09"/>
<polygon fill="midnightblue" stroke="midnightblue" points="724.92,-249.92 716.25,-243.83 719.23,-254 724.92,-249.92"/>
</g>
<!-- Node9 -->
<g id="node9" class="node">
<title>Node9</title>
<g id="a_node9"><a xlink:title=" ">
<polygon fill="white" stroke="#bfbfbf" points="293.3,-0.5 293.3,-19.5 347.3,-19.5 347.3,-0.5 293.3,-0.5"/>
<text text-anchor="middle" x="320.3" y="-7.5" font-family="Helvetica,sans-Serif" font-size="10.00">iostream</text>
</a>
</g>
</g>
<!-- Node1&#45;&gt;Node9 -->
<g id="edge41" class="edge">
<title>Node1&#45;&gt;Node9</title>
<path fill="none" stroke="midnightblue" d="M791.01,-343.48C610.91,-337.55 27.3,-312.37 27.3,-235 27.3,-235 27.3,-235 27.3,-121 27.3,-66.92 204.46,-30.43 283.26,-16.88"/>
<polygon fill="midnightblue" stroke="midnightblue" points="283.98,-20.31 293.26,-15.19 282.82,-13.4 283.98,-20.31"/>
</g>
<!-- Node17 -->
<g id="node17" class="node">
<title>Node17</title>
<g id="a_node17"><a xlink:title=" ">
<polygon fill="white" stroke="#bfbfbf" points="1114.8,-280.5 1114.8,-299.5 1187.8,-299.5 1187.8,-280.5 1114.8,-280.5"/>
<text text-anchor="middle" x="1151.3" y="-287.5" font-family="Helvetica,sans-Serif" font-size="10.00">sys/socket.h</text>
</a>
</g>
</g>
<!-- Node1&#45;&gt;Node17 -->
<g id="edge38" class="edge">
<title>Node1&#45;&gt;Node17</title>
<path fill="none" stroke="midnightblue" d="M892.09,-336.48C943.79,-327.44 1027.8,-312.74 1100.3,-300 1101.74,-299.75 1103.2,-299.49 1104.67,-299.23"/>
<polygon fill="midnightblue" stroke="midnightblue" points="1105.29,-302.68 1114.53,-297.49 1104.07,-295.78 1105.29,-302.68"/>
</g>
<!-- Node18 -->
<g id="node18" class="node">
<title>Node18</title>
<g id="a_node18"><a xlink:title=" ">
<polygon fill="white" stroke="#bfbfbf" points="1070.8,-168.5 1070.8,-187.5 1121.8,-187.5 1121.8,-168.5 1070.8,-168.5"/>
<text text-anchor="middle" x="1096.3" y="-175.5" font-family="Helvetica,sans-Serif" font-size="10.00">unistd.h</text>
</a>
</g>
</g>
<!-- Node1&#45;&gt;Node18 -->
<g id="edge39" class="edge">
<title>Node1&#45;&gt;Node18</title>
<path fill="none" stroke="midnightblue" d="M863.07,-336.44C898.23,-320.77 973.19,-285.24 1029.3,-244 1049.17,-229.4 1069.08,-209.19 1081.97,-195.2"/>
<polygon fill="midnightblue" stroke="midnightblue" points="1084.58,-197.54 1088.7,-187.77 1079.39,-192.84 1084.58,-197.54"/>
</g>
<!-- Node19 -->
<g id="node19" class="node">
<title>Node19</title>
<g id="a_node19"><a xlink:title=" ">
<polygon fill="white" stroke="#bfbfbf" points="1206.3,-280.5 1206.3,-299.5 1250.3,-299.5 1250.3,-280.5 1206.3,-280.5"/>
<text text-anchor="middle" x="1228.3" y="-287.5" font-family="Helvetica,sans-Serif" font-size="10.00">cerrno</text>
</a>
</g>
</g>
<!-- Node1&#45;&gt;Node19 -->
<g id="edge40" class="edge">
<title>Node1&#45;&gt;Node19</title>
<path fill="none" stroke="midnightblue" d="M895.43,-340.78C962.69,-334.79 1083.42,-322.24 1196.18,-299.71"/>
<polygon fill="midnightblue" stroke="midnightblue" points="1196.92,-303.14 1206.02,-297.72 1195.53,-296.28 1196.92,-303.14"/>
</g>
<!-- Node20 -->
<g id="node20" class="node">
<title>Node20</title>
<g id="a_node20"><a xlink:href="ErrorUtils_8hpp.html" target="_top" xlink:title=" ">
<polygon fill="white" stroke="black" points="333.8,-168.5 333.8,-187.5 410.8,-187.5 410.8,-168.5 333.8,-168.5"/>
<text text-anchor="middle" x="372.3" y="-175.5" font-family="Helvetica,sans-Serif" font-size="10.00">ErrorUtils.hpp</text>
</a>
</g>
</g>
<!-- Node1&#45;&gt;Node20 -->
<g id="edge42" class="edge">
<title>Node1&#45;&gt;Node20</title>
<path fill="none" stroke="midnightblue" d="M818.97,-336.42C740.8,-308.88 495.96,-222.58 405.94,-190.86"/>
<polygon fill="midnightblue" stroke="midnightblue" points="407.08,-187.55 396.48,-187.52 404.75,-194.15 407.08,-187.55"/>
</g>
<!-- Node21 -->
<g id="node21" class="node">
<title>Node21</title>
<g id="a_node21"><a xlink:href="RequestProcessorUtils_8hpp.html" target="_top" xlink:title=" ">
<polygon fill="white" stroke="black" points="178.8,-168.5 178.8,-187.5 315.8,-187.5 315.8,-168.5 178.8,-168.5"/>
<text text-anchor="middle" x="247.3" y="-175.5" font-family="Helvetica,sans-Serif" font-size="10.00">RequestProcessorUtils.hpp</text>
</a>
</g>
</g>
<!-- Node1&#45;&gt;Node21 -->
<g id="edge46" class="edge">
<title>Node1&#45;&gt;Node21</title>
<path fill="none" stroke="midnightblue" d="M807.88,-336.5C771.7,-327.71 713.94,-313.44 664.3,-300 523.92,-262 358.29,-212.55 285.2,-190.5"/>
<polygon fill="midnightblue" stroke="midnightblue" points="286.1,-187.11 275.51,-187.57 284.07,-193.81 286.1,-187.11"/>
</g>
<!-- Node22 -->
<g id="node22" class="node">
<title>Node22</title>
<g id="a_node22"><a xlink:href="CgiProcess_8hpp.html" target="_top" xlink:title=" ">
<polygon fill="white" stroke="black" points="1076.3,-224.5 1076.3,-243.5 1178.3,-243.5 1178.3,-224.5 1076.3,-224.5"/>
<text text-anchor="middle" x="1127.3" y="-231.5" font-family="Helvetica,sans-Serif" font-size="10.00">cgi/CgiProcess.hpp</text>
</a>
</g>
</g>
<!-- Node1&#45;&gt;Node22 -->
<g id="edge52" class="edge">
<title>Node1&#45;&gt;Node22</title>
<path fill="none" stroke="midnightblue" d="M895.73,-342.68C942,-338.73 1010.01,-328.16 1062.3,-300 1084.15,-288.23 1103.43,-266.78 1115.21,-251.75"/>
<polygon fill="midnightblue" stroke="midnightblue" points="1118.01,-253.85 1121.24,-243.76 1112.42,-249.64 1118.01,-253.85"/>
</g>
<!-- Node24 -->
<g id="node24" class="node">
<title>Node24</title>
<g id="a_node24"><a xlink:href="ServerManager_8hpp.html" target="_top" xlink:title=" ">
<polygon fill="white" stroke="black" points="774.3,-280.5 774.3,-299.5 912.3,-299.5 912.3,-280.5 774.3,-280.5"/>
<text text-anchor="middle" x="843.3" y="-287.5" font-family="Helvetica,sans-Serif" font-size="10.00">network/ServerManager.hpp</text>
</a>
</g>
</g>
<!-- Node1&#45;&gt;Node24 -->
<g id="edge57" class="edge">
<title>Node1&#45;&gt;Node24</title>
<path fill="none" stroke="midnightblue" d="M843.3,-336.08C843.3,-329.01 843.3,-318.86 843.3,-309.99"/>
<polygon fill="midnightblue" stroke="midnightblue" points="846.8,-309.75 843.3,-299.75 839.8,-309.75 846.8,-309.75"/>
</g>
<!-- Node3 -->
<g id="node3" class="node">
<title>Node3</title>
<g id="a_node3"><a xlink:title=" ">
<polygon fill="white" stroke="#bfbfbf" points="928.8,-168.5 928.8,-187.5 969.8,-187.5 969.8,-168.5 928.8,-168.5"/>
<text text-anchor="middle" x="949.3" y="-175.5" font-family="Helvetica,sans-Serif" font-size="10.00">ctime</text>
</a>
</g>
</g>
<!-- Node2&#45;&gt;Node3 -->
<g id="edge2" class="edge">
<title>Node2&#45;&gt;Node3</title>
<path fill="none" stroke="midnightblue" d="M741.05,-226.05C786.9,-215.69 872.68,-196.31 918.54,-185.95"/>
<polygon fill="midnightblue" stroke="midnightblue" points="919.5,-189.32 928.49,-183.7 917.96,-182.49 919.5,-189.32"/>
</g>
<!-- Node4 -->
<g id="node4" class="node">
<title>Node4</title>
<g id="a_node4"><a xlink:title=" ">
<polygon fill="white" stroke="#bfbfbf" points="428.8,-168.5 428.8,-187.5 471.8,-187.5 471.8,-168.5 428.8,-168.5"/>
<text text-anchor="middle" x="450.3" y="-175.5" font-family="Helvetica,sans-Serif" font-size="10.00">queue</text>
</a>
</g>
</g>
<!-- Node2&#45;&gt;Node4 -->
<g id="edge3" class="edge">
<title>Node2&#45;&gt;Node4</title>
<path fill="none" stroke="midnightblue" d="M679.77,-227.34C636.57,-219.21 555.18,-203.52 486.3,-188 484.84,-187.67 483.36,-187.33 481.86,-186.98"/>
<polygon fill="midnightblue" stroke="midnightblue" points="482.5,-183.53 471.96,-184.59 480.86,-190.34 482.5,-183.53"/>
</g>
<!-- Node5 -->
<g id="node5" class="node">
<title>Node5</title>
<g id="a_node5"><a xlink:title=" ">
<polygon fill="white" stroke="#bfbfbf" points="822.8,-0.5 822.8,-19.5 863.8,-19.5 863.8,-0.5 822.8,-0.5"/>
<text text-anchor="middle" x="843.3" y="-7.5" font-family="Helvetica,sans-Serif" font-size="10.00">string</text>
</a>
</g>
</g>
<!-- Node2&#45;&gt;Node5 -->
<g id="edge4" class="edge">
<title>Node2&#45;&gt;Node5</title>
<path fill="none" stroke="midnightblue" d="M735.77,-224.43C797.42,-203.49 950.86,-150.1 967.3,-132 990.51,-106.45 1003.63,-83.89 983.3,-56 958.4,-21.84 907.14,-13.04 874.04,-11.09"/>
<polygon fill="midnightblue" stroke="midnightblue" points="874.12,-7.59 863.98,-10.67 873.83,-14.59 874.12,-7.59"/>
</g>
<!-- Node6 -->
<g id="node6" class="node">
<title>Node6</title>
<g id="a_node6"><a xlink:title=" ">
<polygon fill="white" stroke="#bfbfbf" points="138.3,-0.5 138.3,-19.5 182.3,-19.5 182.3,-0.5 138.3,-0.5"/>
<text text-anchor="middle" x="160.3" y="-7.5" font-family="Helvetica,sans-Serif" font-size="10.00">vector</text>
</a>
</g>
</g>
<!-- Node2&#45;&gt;Node6 -->
<g id="edge5" class="edge">
<title>Node2&#45;&gt;Node6</title>
<path fill="none" stroke="midnightblue" d="M679.73,-232.59C579.87,-230.92 264.15,-222.93 169.3,-188 84.07,-156.62 -40.71,-129.02 13.3,-56 39.55,-20.51 93.24,-12.1 127.95,-10.58"/>
<polygon fill="midnightblue" stroke="midnightblue" points="128.16,-14.08 138.07,-10.31 127.98,-7.08 128.16,-14.08"/>
</g>
<!-- Node7 -->
<g id="node7" class="node">
<title>Node7</title>
<g id="a_node7"><a xlink:href="RequestProcessor_8hpp.html" target="_top" xlink:title=" ">
<polygon fill="white" stroke="black" points="566.3,-168.5 566.3,-187.5 682.3,-187.5 682.3,-168.5 566.3,-168.5"/>
<text text-anchor="middle" x="624.3" y="-175.5" font-family="Helvetica,sans-Serif" font-size="10.00">RequestProcessor.hpp</text>
</a>
</g>
</g>
<!-- Node2&#45;&gt;Node7 -->
<g id="edge6" class="edge">
<title>Node2&#45;&gt;Node7</title>
<path fill="none" stroke="midnightblue" d="M696.48,-224.32C683.07,-215.9 662.47,-202.97 646.71,-193.07"/>
<polygon fill="midnightblue" stroke="midnightblue" points="648.41,-190.01 638.08,-187.65 644.69,-195.94 648.41,-190.01"/>
</g>
<!-- Node8 -->
<g id="node8" class="node">
<title>Node8</title>
<g id="a_node8"><a xlink:href="ServerConfig_8hpp.html" target="_top" xlink:title=" ">
<polygon fill="white" stroke="black" points="645.3,-112.5 645.3,-131.5 767.3,-131.5 767.3,-112.5 645.3,-112.5"/>
<text text-anchor="middle" x="706.3" y="-119.5" font-family="Helvetica,sans-Serif" font-size="10.00">config/ServerConfig.hpp</text>
</a>
</g>
</g>
<!-- Node2&#45;&gt;Node8 -->
<g id="edge31" class="edge">
<title>Node2&#45;&gt;Node8</title>
<path fill="none" stroke="midnightblue" d="M709.98,-224.37C709.34,-206.62 707.85,-165.67 706.97,-141.6"/>
<polygon fill="midnightblue" stroke="midnightblue" points="710.47,-141.46 706.61,-131.59 703.48,-141.71 710.47,-141.46"/>
</g>
<!-- Node13 -->
<g id="node13" class="node">
<title>Node13</title>
<g id="a_node13"><a xlink:href="HttpRequest_8hpp.html" target="_top" xlink:title=" ">
<polygon fill="white" stroke="black" points="327.3,-56.5 327.3,-75.5 437.3,-75.5 437.3,-56.5 327.3,-56.5"/>
<text text-anchor="middle" x="382.3" y="-63.5" font-family="Helvetica,sans-Serif" font-size="10.00">http/HttpRequest.hpp</text>
</a>
</g>
</g>
<!-- Node2&#45;&gt;Node13 -->
<g id="edge36" class="edge">
<title>Node2&#45;&gt;Node13</title>
<path fill="none" stroke="midnightblue" d="M679.63,-227.86C642.87,-221.15 579.77,-207.86 528.3,-188 503.81,-178.55 443.58,-149.81 424.3,-132 409.68,-118.51 397.92,-98.88 390.61,-84.72"/>
<polygon fill="midnightblue" stroke="midnightblue" points="393.65,-82.98 386.09,-75.55 387.37,-86.07 393.65,-82.98"/>
</g>
<!-- Node14 -->
<g id="node14" class="node">
<title>Node14</title>
<g id="a_node14"><a xlink:href="HttpResponse_8hpp.html" target="_top" xlink:title=" ">
<polygon fill="white" stroke="black" points="433.3,-112.5 433.3,-131.5 551.3,-131.5 551.3,-112.5 433.3,-112.5"/>
<text text-anchor="middle" x="492.3" y="-119.5" font-family="Helvetica,sans-Serif" font-size="10.00">http/HttpResponse.hpp</text>
</a>
</g>
</g>
<!-- Node2&#45;&gt;Node14 -->
<g id="edge37" class="edge">
<title>Node2&#45;&gt;Node14</title>
<path fill="none" stroke="midnightblue" d="M679.76,-228.62C647.52,-222.98 596.11,-211.04 557.3,-188 536.16,-175.45 516.93,-154.47 504.96,-139.75"/>
<polygon fill="midnightblue" stroke="midnightblue" points="507.43,-137.22 498.49,-131.52 501.92,-141.55 507.43,-137.22"/>
</g>
<!-- Node15 -->
<g id="node15" class="node">
<title>Node15</title>
<g id="a_node15"><a xlink:href="HttpParser_8hpp.html" target="_top" xlink:title=" ">
<polygon fill="white" stroke="black" points="857.8,-112.5 857.8,-131.5 958.8,-131.5 958.8,-112.5 857.8,-112.5"/>
<text text-anchor="middle" x="908.3" y="-119.5" font-family="Helvetica,sans-Serif" font-size="10.00">http/HttpParser.hpp</text>
</a>
</g>
</g>
<!-- Node2&#45;&gt;Node15 -->
<g id="edge32" class="edge">
<title>Node2&#45;&gt;Node15</title>
<path fill="none" stroke="midnightblue" d="M716.5,-224.11C726.63,-210.21 748.05,-183.35 772.3,-168 797.55,-152.02 829.05,-141.13 855.38,-134.07"/>
<polygon fill="midnightblue" stroke="midnightblue" points="856.38,-137.42 865.19,-131.55 854.64,-130.64 856.38,-137.42"/>
</g>
<!-- Node7&#45;&gt;Node5 -->
<g id="edge7" class="edge">
<title>Node7&#45;&gt;Node5</title>
<path fill="none" stroke="midnightblue" d="M670.41,-168.49C701.57,-161.53 742.95,-149.88 776.3,-132 810.5,-113.67 826.86,-111.16 843.3,-76 850.02,-61.62 849.36,-43.43 847.39,-29.95"/>
<polygon fill="midnightblue" stroke="midnightblue" points="850.8,-29.13 845.57,-19.92 843.92,-30.38 850.8,-29.13"/>
</g>
<!-- Node7&#45;&gt;Node6 -->
<g id="edge8" class="edge">
<title>Node7&#45;&gt;Node6</title>
<path fill="none" stroke="midnightblue" d="M566.24,-171.45C457.96,-159.92 231.22,-129.88 176.3,-76 164.12,-64.06 160.65,-44.44 159.9,-29.88"/>
<polygon fill="midnightblue" stroke="midnightblue" points="163.4,-29.48 159.77,-19.53 156.4,-29.57 163.4,-29.48"/>
</g>
<!-- Node7&#45;&gt;Node8 -->
<g id="edge9" class="edge">
<title>Node7&#45;&gt;Node8</title>
<path fill="none" stroke="midnightblue" d="M637.47,-168.32C650.15,-159.98 669.53,-147.21 684.5,-137.35"/>
<polygon fill="midnightblue" stroke="midnightblue" points="686.73,-140.08 693.16,-131.65 682.88,-134.23 686.73,-140.08"/>
</g>
<!-- Node7&#45;&gt;Node13 -->
<g id="edge21" class="edge">
<title>Node7&#45;&gt;Node13</title>
<path fill="none" stroke="midnightblue" d="M618.29,-168.36C608.06,-154.32 585.86,-126.65 560.3,-112 525.81,-92.24 482.69,-81.05 447.53,-74.77"/>
<polygon fill="midnightblue" stroke="midnightblue" points="447.81,-71.27 437.37,-73.06 446.64,-78.17 447.81,-71.27"/>
</g>
<!-- Node7&#45;&gt;Node14 -->
<g id="edge26" class="edge">
<title>Node7&#45;&gt;Node14</title>
<path fill="none" stroke="midnightblue" d="M603.38,-168.44C581.56,-159.52 547.15,-145.44 522.41,-135.32"/>
<polygon fill="midnightblue" stroke="midnightblue" points="523.7,-132.06 513.12,-131.52 521.05,-138.54 523.7,-132.06"/>
</g>
<!-- Node8&#45;&gt;Node5 -->
<g id="edge12" class="edge">
<title>Node8&#45;&gt;Node5</title>
<path fill="none" stroke="midnightblue" d="M755.48,-112.48C778.88,-106.08 805.55,-95.01 823.3,-76 835,-63.47 839.86,-44.25 841.88,-29.95"/>
<polygon fill="midnightblue" stroke="midnightblue" points="845.38,-30.08 842.96,-19.76 838.42,-29.34 845.38,-30.08"/>
</g>
<!-- Node8&#45;&gt;Node6 -->
<g id="edge13" class="edge">
<title>Node8&#45;&gt;Node6</title>
<path fill="none" stroke="midnightblue" d="M675.68,-112.4C627.28,-99.03 529.97,-73.01 446.3,-56 354.83,-37.41 245.56,-22.11 192.46,-15.11"/>
<polygon fill="midnightblue" stroke="midnightblue" points="192.67,-11.61 182.3,-13.78 191.77,-18.55 192.67,-11.61"/>
</g>
<!-- Node8&#45;&gt;Node9 -->
<g id="edge10" class="edge">
<title>Node8&#45;&gt;Node9</title>
<path fill="none" stroke="midnightblue" d="M689.54,-112.35C662.15,-98.54 605.77,-71.49 555.3,-56 487,-35.03 404.4,-21.93 357.54,-15.58"/>
<polygon fill="midnightblue" stroke="midnightblue" points="357.92,-12.1 347.55,-14.26 357,-19.04 357.92,-12.1"/>
</g>
<!-- Node10 -->
<g id="node10" class="node">
<title>Node10</title>
<g id="a_node10"><a xlink:title=" ">
<polygon fill="white" stroke="#bfbfbf" points="447.8,-0.5 447.8,-19.5 482.8,-19.5 482.8,-0.5 447.8,-0.5"/>
<text text-anchor="middle" x="465.3" y="-7.5" font-family="Helvetica,sans-Serif" font-size="10.00">map</text>
</a>
</g>
</g>
<!-- Node8&#45;&gt;Node10 -->
<g id="edge11" class="edge">
<title>Node8&#45;&gt;Node10</title>
<path fill="none" stroke="midnightblue" d="M698.89,-112.46C686.36,-98.55 659.58,-71.07 631.3,-56 586.35,-32.06 527.62,-20.05 493.42,-14.69"/>
<polygon fill="midnightblue" stroke="midnightblue" points="493.63,-11.19 483.22,-13.18 492.6,-18.11 493.63,-11.19"/>
</g>
<!-- Node11 -->
<g id="node11" class="node">
<title>Node11</title>
<g id="a_node11"><a xlink:href="LocationConfig_8hpp.html" target="_top" xlink:title=" ">
<polygon fill="white" stroke="black" points="207.8,-56.5 207.8,-75.5 308.8,-75.5 308.8,-56.5 207.8,-56.5"/>
<text text-anchor="middle" x="258.3" y="-63.5" font-family="Helvetica,sans-Serif" font-size="10.00">LocationConfig.hpp</text>
</a>
</g>
</g>
<!-- Node8&#45;&gt;Node11 -->
<g id="edge14" class="edge">
<title>Node8&#45;&gt;Node11</title>
<path fill="none" stroke="midnightblue" d="M645.07,-114.54C570.63,-106.54 440.92,-92.14 319.26,-76.09"/>
<polygon fill="midnightblue" stroke="midnightblue" points="319.39,-72.57 309.02,-74.73 318.47,-79.51 319.39,-72.57"/>
</g>
<!-- Node12 -->
<g id="node12" class="node">
<title>Node12</title>
<g id="a_node12"><a xlink:href="namespaces_8hpp.html" target="_top" xlink:title=" ">
<polygon fill="white" stroke="black" points="683.8,-56.5 683.8,-75.5 814.8,-75.5 814.8,-56.5 683.8,-56.5"/>
<text text-anchor="middle" x="749.3" y="-63.5" font-family="Helvetica,sans-Serif" font-size="10.00">common/namespaces.hpp</text>
</a>
</g>
</g>
<!-- Node8&#45;&gt;Node12 -->
<g id="edge19" class="edge">
<title>Node8&#45;&gt;Node12</title>
<path fill="none" stroke="midnightblue" d="M713.4,-112.08C719.54,-104.38 728.57,-93.03 736.04,-83.65"/>
<polygon fill="midnightblue" stroke="midnightblue" points="738.84,-85.75 742.33,-75.75 733.36,-81.39 738.84,-85.75"/>
</g>
<!-- Node11&#45;&gt;Node5 -->
<g id="edge17" class="edge">
<title>Node11&#45;&gt;Node5</title>
<path fill="none" stroke="midnightblue" d="M309.01,-57.16C312.15,-56.75 315.26,-56.36 318.3,-56 505.67,-33.94 731.88,-18.22 812.74,-12.94"/>
<polygon fill="midnightblue" stroke="midnightblue" points="812.98,-16.43 822.74,-12.29 812.53,-9.45 812.98,-16.43"/>
</g>
<!-- Node11&#45;&gt;Node6 -->
<g id="edge18" class="edge">
<title>Node11&#45;&gt;Node6</title>
<path fill="none" stroke="midnightblue" d="M242.55,-56.32C226.98,-47.74 202.92,-34.49 184.84,-24.52"/>
<polygon fill="midnightblue" stroke="midnightblue" points="186.45,-21.42 176,-19.65 183.07,-27.55 186.45,-21.42"/>
</g>
<!-- Node11&#45;&gt;Node9 -->
<g id="edge15" class="edge">
<title>Node11&#45;&gt;Node9</title>
<path fill="none" stroke="midnightblue" d="M268.26,-56.32C277.42,-48.34 291.24,-36.31 302.33,-26.65"/>
<polygon fill="midnightblue" stroke="midnightblue" points="304.91,-29.04 310.16,-19.83 300.32,-23.76 304.91,-29.04"/>
</g>
<!-- Node11&#45;&gt;Node10 -->
<g id="edge16" class="edge">
<title>Node11&#45;&gt;Node10</title>
<path fill="none" stroke="midnightblue" d="M291.1,-56.44C331.63,-45.87 399.88,-28.06 437.8,-18.17"/>
<polygon fill="midnightblue" stroke="midnightblue" points="438.85,-21.52 447.65,-15.6 437.09,-14.74 438.85,-21.52"/>
</g>
<!-- Node12&#45;&gt;Node5 -->
<g id="edge20" class="edge">
<title>Node12&#45;&gt;Node5</title>
<path fill="none" stroke="midnightblue" d="M764.4,-56.32C779.2,-47.82 801.99,-34.73 819.28,-24.8"/>
<polygon fill="midnightblue" stroke="midnightblue" points="821.31,-27.67 828.23,-19.65 817.82,-21.6 821.31,-27.67"/>
</g>
<!-- Node13&#45;&gt;Node5 -->
<g id="edge24" class="edge">
<title>Node13&#45;&gt;Node5</title>
<path fill="none" stroke="midnightblue" d="M437.45,-58.54C535.14,-47.1 735.54,-23.62 812.37,-14.62"/>
<polygon fill="midnightblue" stroke="midnightblue" points="812.85,-18.09 822.37,-13.45 812.03,-11.14 812.85,-18.09"/>
</g>
<!-- Node13&#45;&gt;Node6 -->
<g id="edge25" class="edge">
<title>Node13&#45;&gt;Node6</title>
<path fill="none" stroke="midnightblue" d="M347.12,-56.44C304.52,-46.08 233.37,-28.77 192.26,-18.77"/>
<polygon fill="midnightblue" stroke="midnightblue" points="193.04,-15.36 182.49,-16.4 191.38,-22.16 193.04,-15.36"/>
</g>
<!-- Node13&#45;&gt;Node9 -->
<g id="edge22" class="edge">
<title>Node13&#45;&gt;Node9</title>
<path fill="none" stroke="midnightblue" d="M372.34,-56.32C363.17,-48.34 349.36,-36.31 338.27,-26.65"/>
<polygon fill="midnightblue" stroke="midnightblue" points="340.28,-23.76 330.44,-19.83 335.68,-29.04 340.28,-23.76"/>
</g>
<!-- Node13&#45;&gt;Node10 -->
<g id="edge23" class="edge">
<title>Node13&#45;&gt;Node10</title>
<path fill="none" stroke="midnightblue" d="M395.63,-56.32C408.46,-47.98 428.08,-35.21 443.24,-25.35"/>
<polygon fill="midnightblue" stroke="midnightblue" points="445.52,-28.04 452,-19.65 441.71,-22.17 445.52,-28.04"/>
</g>
<!-- Node14&#45;&gt;Node5 -->
<g id="edge28" class="edge">
<title>Node14&#45;&gt;Node5</title>
<path fill="none" stroke="midnightblue" d="M499.29,-112.12C511.17,-97.73 536.8,-69.56 565.3,-56 648.32,-16.51 759.38,-10.75 812.48,-10.48"/>
<polygon fill="midnightblue" stroke="midnightblue" points="812.6,-13.98 822.61,-10.49 812.61,-6.98 812.6,-13.98"/>
</g>
<!-- Node14&#45;&gt;Node6 -->
<g id="edge29" class="edge">
<title>Node14&#45;&gt;Node6</title>
<path fill="none" stroke="midnightblue" d="M433.21,-117.92C358.63,-113.03 235.56,-101.32 198.3,-76 182.12,-65 171.87,-44.65 166.14,-29.63"/>
<polygon fill="midnightblue" stroke="midnightblue" points="169.34,-28.16 162.76,-19.86 162.72,-30.45 169.34,-28.16"/>
</g>
<!-- Node14&#45;&gt;Node10 -->
<g id="edge27" class="edge">
<title>Node14&#45;&gt;Node10</title>
<path fill="none" stroke="midnightblue" d="M490.18,-112.37C485.82,-94.62 475.77,-53.67 469.86,-29.6"/>
<polygon fill="midnightblue" stroke="midnightblue" points="473.19,-28.47 467.41,-19.59 466.39,-30.14 473.19,-28.47"/>
</g>
<!-- Node14&#45;&gt;Node13 -->
<g id="edge30" class="edge">
<title>Node14&#45;&gt;Node13</title>
<path fill="none" stroke="midnightblue" d="M474.62,-112.32C456.9,-103.62 429.4,-90.12 409.01,-80.11"/>
<polygon fill="midnightblue" stroke="midnightblue" points="410.45,-76.92 399.93,-75.65 407.36,-83.2 410.45,-76.92"/>
</g>
<!-- Node15&#45;&gt;Node5 -->
<g id="edge34" class="edge">
<title>Node15&#45;&gt;Node5</title>
<path fill="none" stroke="midnightblue" d="M926.49,-112.36C949.03,-100.45 982.69,-77.96 967.3,-56 946.34,-26.1 903.4,-15.99 873.98,-12.62"/>
<polygon fill="midnightblue" stroke="midnightblue" points="874.1,-9.11 863.82,-11.65 873.44,-16.08 874.1,-9.11"/>
</g>
<!-- Node15&#45;&gt;Node13 -->
<g id="edge35" class="edge">
<title>Node15&#45;&gt;Node13</title>
<path fill="none" stroke="midnightblue" d="M857.39,-115.77C761.45,-105.92 554.02,-84.63 447.83,-73.73"/>
<polygon fill="midnightblue" stroke="midnightblue" points="447.87,-70.21 437.57,-72.67 447.16,-77.18 447.87,-70.21"/>
</g>
<!-- Node16 -->
<g id="node16" class="node">
<title>Node16</title>
<g id="a_node16"><a xlink:title=" ">
<polygon fill="white" stroke="#bfbfbf" points="909.8,-56.5 909.8,-75.5 958.8,-75.5 958.8,-56.5 909.8,-56.5"/>
<text text-anchor="middle" x="934.3" y="-63.5" font-family="Helvetica,sans-Serif" font-size="10.00">cstddef</text>
</a>
</g>
</g>
<!-- Node15&#45;&gt;Node16 -->
<g id="edge33" class="edge">
<title>Node15&#45;&gt;Node16</title>
<path fill="none" stroke="midnightblue" d="M912.59,-112.08C916.15,-104.69 921.32,-93.95 925.72,-84.81"/>
<polygon fill="midnightblue" stroke="midnightblue" points="928.9,-86.28 930.08,-75.75 922.59,-83.24 928.9,-86.28"/>
</g>
<!-- Node20&#45;&gt;Node8 -->
<g id="edge43" class="edge">
<title>Node20&#45;&gt;Node8</title>
<path fill="none" stroke="midnightblue" d="M411.01,-169.48C413.81,-168.97 416.6,-168.47 419.3,-168 493.94,-155 579.82,-141.76 638.03,-133.04"/>
<polygon fill="midnightblue" stroke="midnightblue" points="638.84,-136.46 648.21,-131.52 637.8,-129.54 638.84,-136.46"/>
</g>
<!-- Node20&#45;&gt;Node13 -->
<g id="edge44" class="edge">
<title>Node20&#45;&gt;Node13</title>
<path fill="none" stroke="midnightblue" d="M373.08,-168.37C374.7,-150.62 378.42,-109.67 380.61,-85.6"/>
<polygon fill="midnightblue" stroke="midnightblue" points="384.1,-85.87 381.52,-75.59 377.13,-85.23 384.1,-85.87"/>
</g>
<!-- Node20&#45;&gt;Node14 -->
<g id="edge45" class="edge">
<title>Node20&#45;&gt;Node14</title>
<path fill="none" stroke="midnightblue" d="M391.31,-168.44C410.89,-159.64 441.61,-145.81 464.03,-135.72"/>
<polygon fill="midnightblue" stroke="midnightblue" points="465.69,-138.81 473.37,-131.52 462.82,-132.43 465.69,-138.81"/>
</g>
<!-- Node21&#45;&gt;Node5 -->
<g id="edge47" class="edge">
<title>Node21&#45;&gt;Node5</title>
<path fill="none" stroke="midnightblue" d="M315.83,-168.78C401.02,-158.31 537.96,-140.55 560.3,-132 617.17,-110.24 618.8,-81.06 674.3,-56 720.44,-35.17 778.18,-22.38 812.82,-16"/>
<polygon fill="midnightblue" stroke="midnightblue" points="813.57,-19.42 822.8,-14.22 812.34,-12.53 813.57,-19.42"/>
</g>
<!-- Node21&#45;&gt;Node6 -->
<g id="edge48" class="edge">
<title>Node21&#45;&gt;Node6</title>
<path fill="none" stroke="midnightblue" d="M184.88,-168.45C162.97,-162.12 140.54,-151.11 127.3,-132 108.06,-104.24 116.79,-88.1 127.3,-56 130.79,-45.34 137.87,-35.12 144.58,-27.12"/>
<polygon fill="midnightblue" stroke="midnightblue" points="147.2,-29.44 151.28,-19.66 141.99,-24.76 147.2,-29.44"/>
</g>
<!-- Node21&#45;&gt;Node8 -->
<g id="edge50" class="edge">
<title>Node21&#45;&gt;Node8</title>
<path fill="none" stroke="midnightblue" d="M316.02,-168.92C401.9,-158.81 548.14,-141.61 635.15,-131.37"/>
<polygon fill="midnightblue" stroke="midnightblue" points="635.67,-134.83 645.2,-130.19 634.86,-127.88 635.67,-134.83"/>
</g>
<!-- Node21&#45;&gt;Node11 -->
<g id="edge49" class="edge">
<title>Node21&#45;&gt;Node11</title>
<path fill="none" stroke="midnightblue" d="M248.16,-168.37C249.94,-150.62 254.03,-109.67 256.44,-85.6"/>
<polygon fill="midnightblue" stroke="midnightblue" points="259.93,-85.89 257.44,-75.59 252.96,-85.19 259.93,-85.89"/>
</g>
<!-- Node21&#45;&gt;Node13 -->
<g id="edge51" class="edge">
<title>Node21&#45;&gt;Node13</title>
<path fill="none" stroke="midnightblue" d="M257.89,-168.37C280.76,-149.73 335.01,-105.53 363.72,-82.13"/>
<polygon fill="midnightblue" stroke="midnightblue" points="366.21,-84.62 371.75,-75.59 361.79,-79.19 366.21,-84.62"/>
</g>
<!-- Node22&#45;&gt;Node3 -->
<g id="edge55" class="edge">
<title>Node22&#45;&gt;Node3</title>
<path fill="none" stroke="midnightblue" d="M1099.09,-224.44C1066.49,-214.55 1013.03,-198.34 979.58,-188.19"/>
<polygon fill="midnightblue" stroke="midnightblue" points="980.46,-184.8 969.88,-185.24 978.43,-191.5 980.46,-184.8"/>
</g>
<!-- Node22&#45;&gt;Node5 -->
<g id="edge56" class="edge">
<title>Node22&#45;&gt;Node5</title>
<path fill="none" stroke="midnightblue" d="M1160.65,-224.47C1191.08,-214.74 1229.57,-196.4 1217.3,-168 1188.49,-101.33 1163.22,-88.56 1098.3,-56 1023.99,-18.73 923.97,-11.82 874.16,-10.86"/>
<polygon fill="midnightblue" stroke="midnightblue" points="874.08,-7.36 864.04,-10.74 874,-14.36 874.08,-7.36"/>
</g>
<!-- Node22&#45;&gt;Node18 -->
<g id="edge54" class="edge">
<title>Node22&#45;&gt;Node18</title>
<path fill="none" stroke="midnightblue" d="M1122.18,-224.08C1117.89,-216.61 1111.64,-205.72 1106.36,-196.52"/>
<polygon fill="midnightblue" stroke="midnightblue" points="1109.34,-194.68 1101.32,-187.75 1103.27,-198.17 1109.34,-194.68"/>
</g>
<!-- Node23 -->
<g id="node23" class="node">
<title>Node23</title>
<g id="a_node23"><a xlink:title=" ">
<polygon fill="white" stroke="#bfbfbf" points="1140.3,-168.5 1140.3,-187.5 1208.3,-187.5 1208.3,-168.5 1140.3,-168.5"/>
<text text-anchor="middle" x="1174.3" y="-175.5" font-family="Helvetica,sans-Serif" font-size="10.00">sys/types.h</text>
</a>
</g>
</g>
<!-- Node22&#45;&gt;Node23 -->
<g id="edge53" class="edge">
<title>Node22&#45;&gt;Node23</title>
<path fill="none" stroke="midnightblue" d="M1135.06,-224.08C1141.84,-216.3 1151.84,-204.8 1160.05,-195.37"/>
<polygon fill="midnightblue" stroke="midnightblue" points="1162.76,-197.59 1166.68,-187.75 1157.48,-193 1162.76,-197.59"/>
</g>
<!-- Node24&#45;&gt;Node2 -->
<g id="edge65" class="edge">
<title>Node24&#45;&gt;Node2</title>
<path fill="none" stroke="midnightblue" d="M822.22,-280.44C800.24,-271.52 765.56,-257.44 740.63,-247.32"/>
<polygon fill="midnightblue" stroke="midnightblue" points="741.86,-244.04 731.27,-243.52 739.22,-250.52 741.86,-244.04"/>
</g>
<!-- Node24&#45;&gt;Node6 -->
<g id="edge59" class="edge">
<title>Node24&#45;&gt;Node6</title>
<path fill="none" stroke="midnightblue" d="M774.01,-285.92C590.05,-276.83 103.3,-246.42 103.3,-179 103.3,-179 103.3,-179 103.3,-121 103.3,-84.3 128.62,-47.66 145.51,-27.3"/>
<polygon fill="midnightblue" stroke="midnightblue" points="148.25,-29.48 152.13,-19.62 142.95,-24.9 148.25,-29.48"/>
</g>
<!-- Node24&#45;&gt;Node8 -->
<g id="edge66" class="edge">
<title>Node24&#45;&gt;Node8</title>
<path fill="none" stroke="midnightblue" d="M835.93,-280.08C813.9,-253.38 748.28,-173.87 719.77,-139.32"/>
<polygon fill="midnightblue" stroke="midnightblue" points="722.43,-137.05 713.37,-131.57 717.04,-141.51 722.43,-137.05"/>
</g>
<!-- Node24&#45;&gt;Node10 -->
<g id="edge58" class="edge">
<title>Node24&#45;&gt;Node10</title>
<path fill="none" stroke="midnightblue" d="M845.08,-280.27C849.9,-258.68 865.04,-202.09 897.3,-168 921.34,-142.59 949.08,-161.86 967.3,-132 984.89,-103.17 990.09,-80.93 967.3,-56 935.11,-20.8 593.54,-12.92 492.99,-11.35"/>
<polygon fill="midnightblue" stroke="midnightblue" points="493.04,-7.85 482.99,-11.21 492.94,-14.85 493.04,-7.85"/>
</g>
<!-- Node25 -->
<g id="node25" class="node">
<title>Node25</title>
<g id="a_node25"><a xlink:href="EpollWrapper_8hpp.html" target="_top" xlink:title=" ">
<polygon fill="white" stroke="black" points="928.3,-224.5 928.3,-243.5 1020.3,-243.5 1020.3,-224.5 928.3,-224.5"/>
<text text-anchor="middle" x="974.3" y="-231.5" font-family="Helvetica,sans-Serif" font-size="10.00">EpollWrapper.hpp</text>
</a>
</g>
</g>
<!-- Node24&#45;&gt;Node25 -->
<g id="edge60" class="edge">
<title>Node24&#45;&gt;Node25</title>
<path fill="none" stroke="midnightblue" d="M864.06,-280.44C885.61,-271.56 919.56,-257.56 944.09,-247.45"/>
<polygon fill="midnightblue" stroke="midnightblue" points="945.73,-250.56 953.64,-243.52 943.06,-244.09 945.73,-250.56"/>
</g>
<!-- Node27 -->
<g id="node27" class="node">
<title>Node27</title>
<g id="a_node27"><a xlink:href="TcpListener_8hpp.html" target="_top" xlink:title=" ">
<polygon fill="white" stroke="black" points="1056.3,-112.5 1056.3,-131.5 1140.3,-131.5 1140.3,-112.5 1056.3,-112.5"/>
<text text-anchor="middle" x="1098.3" y="-119.5" font-family="Helvetica,sans-Serif" font-size="10.00">TcpListener.hpp</text>
</a>
</g>
</g>
<!-- Node24&#45;&gt;Node27 -->
<g id="edge63" class="edge">
<title>Node24&#45;&gt;Node27</title>
<path fill="none" stroke="midnightblue" d="M850.19,-280.25C857.1,-271.34 867.88,-257.02 876.3,-244 897.37,-211.41 888.43,-191.52 919.3,-168 939.08,-152.92 1000.71,-139.58 1046.15,-131.42"/>
<polygon fill="midnightblue" stroke="midnightblue" points="1046.91,-134.84 1056.15,-129.66 1045.7,-127.94 1046.91,-134.84"/>
</g>
<!-- Node25&#45;&gt;Node18 -->
<g id="edge62" class="edge">
<title>Node25&#45;&gt;Node18</title>
<path fill="none" stroke="midnightblue" d="M993.63,-224.44C1013.62,-215.6 1045.04,-201.69 1067.86,-191.59"/>
<polygon fill="midnightblue" stroke="midnightblue" points="1069.33,-194.76 1077.06,-187.52 1066.5,-188.36 1069.33,-194.76"/>
</g>
<!-- Node26 -->
<g id="node26" class="node">
<title>Node26</title>
<g id="a_node26"><a xlink:title=" ">
<polygon fill="white" stroke="#bfbfbf" points="988.3,-168.5 988.3,-187.5 1052.3,-187.5 1052.3,-168.5 988.3,-168.5"/>
<text text-anchor="middle" x="1020.3" y="-175.5" font-family="Helvetica,sans-Serif" font-size="10.00">sys/epoll.h</text>
</a>
</g>
</g>
<!-- Node25&#45;&gt;Node26 -->
<g id="edge61" class="edge">
<title>Node25&#45;&gt;Node26</title>
<path fill="none" stroke="midnightblue" d="M981.89,-224.08C988.53,-216.3 998.32,-204.8 1006.36,-195.37"/>
<polygon fill="midnightblue" stroke="midnightblue" points="1009.02,-197.63 1012.84,-187.75 1003.69,-193.09 1009.02,-197.63"/>
</g>
<!-- Node27&#45;&gt;Node5 -->
<g id="edge64" class="edge">
<title>Node27&#45;&gt;Node5</title>
<path fill="none" stroke="midnightblue" d="M1098.15,-112.36C1097.42,-98.3 1093.82,-70.61 1077.3,-56 1047.53,-29.67 930.66,-17.52 874.18,-13.09"/>
<polygon fill="midnightblue" stroke="midnightblue" points="874.29,-9.59 864.05,-12.33 873.76,-16.57 874.29,-9.59"/>
</g>
</g>
</svg>
        <g id="navigator" transform="translate(0 0)" fill="#404254">
                <rect fill="#f2f5e9" fill-opacity="0.5" stroke="#606060" stroke-width=".5" x="0" y="0" width="60" height="60"/>
                <use id="zoomplus" xlink:href="#zoomPlus" x="17" y="9" onmousedown="handleZoom(evt,'in')"/>
                <use id="zoomminus" xlink:href="#zoomMin" x="42" y="9" onmousedown="handleZoom(evt,'out')"/>
                <use id="reset" xlink:href="#resetDef" x="30" y="36" onmousedown="handleReset()"/>
                <g id="arrowUp" xlink:href="#dirArrow" transform="translate(30 24)" onmousedown="handlePan(0,-1)">
                  <use xlink:href="#rim" fill="#404040">
                        <set attributeName="fill" to="#808080" begin="arrowUp.mouseover" end="arrowUp.mouseout"/>
                  </use>
                  <path fill="none" stroke="white" stroke-width="1.5" d="M0,-3.0v7 M-2.5,-0.5L0,-3.0L2.5,-0.5"/>
                </g>
                <g id="arrowRight" xlink:href="#dirArrow" transform="rotate(90) translate(36 -43)" onmousedown="handlePan(1,0)">
                  <use xlink:href="#rim" fill="#404040">
                        <set attributeName="fill" to="#808080" begin="arrowRight.mouseover" end="arrowRight.mouseout"/>
                  </use>
                  <path fill="none" stroke="white" stroke-width="1.5" d="M0,-3.0v7 M-2.5,-0.5L0,-3.0L2.5,-0.5"/>
                </g>
                <g id="arrowDown" xlink:href="#dirArrow" transform="rotate(180) translate(-30 -48)" onmousedown="handlePan(0,1)">
                  <use xlink:href="#rim" fill="#404040">
                        <set attributeName="fill" to="#808080" begin="arrowDown.mouseover" end="arrowDown.mouseout"/>
                  </use>
                  <path fill="none" stroke="white" stroke-width="1.5" d="M0,-3.0v7 M-2.5,-0.5L0,-3.0L2.5,-0.5"/>
                </g>
                <g id="arrowLeft" xlink:href="#dirArrow" transform="rotate(270) translate(-36 17)" onmousedown="handlePan(-1,0)">
                  <use xlink:href="#rim" fill="#404040">
                        <set attributeName="fill" to="#808080" begin="arrowLeft.mouseover" end="arrowLeft.mouseout"/>
                  </use>
                  <path fill="none" stroke="white" stroke-width="1.5" d="M0,-3.0v7 M-2.5,-0.5L0,-3.0L2.5,-0.5"/>
                </g>
        </g>
        <svg viewBox="0 0 15 15" width="100%" height="30px" preserveAspectRatio="xMaxYMin meet">
         <g id="arrow_out" transform="scale(0.3 0.3)">
          <a xlink:href="Client_8cpp__incl_org.svg" target="_base">
           <rect id="button" ry="5" rx="5" y="6" x="6" height="38" width="38"
                fill="#f2f5e9" fill-opacity="0.5" stroke="#606060" stroke-width="1.0"/>
           <path id="arrow"
             d="M 11.500037,31.436501 C 11.940474,20.09759 22.043105,11.32322 32.158766,21.979434 L 37.068811,17.246167 C 37.068811,17.246167 37.088388,32 37.088388,32 L 22.160133,31.978069 C 22.160133,31.978069 26.997745,27.140456 26.997745,27.140456 C 18.528582,18.264221 13.291696,25.230495 11.500037,31.436501 z"
             style="fill:#404040;"/>
          </a>
         </g>
        </svg>
</svg>
