<?xml version="1.0" encoding="UTF-8" standalone="no"?>
<!DOCTYPE svg PUBLIC "-//W3C//DTD SVG 1.1//EN"
 "http://www.w3.org/Graphics/SVG/1.1/DTD/svg11.dtd">
<!-- Generated by graphviz version 2.43.0 (0)
 -->
<!-- Title: src/client/ClientCgi.cpp Pages: 1 -->
<!--zoomable 364 -->
<svg id="main" version="1.1" xmlns="http://www.w3.org/2000/svg" xmlns:xlink="http://www.w3.org/1999/xlink" xml:space="preserve" onload="init(evt)">
<style type="text/css"><![CDATA[
.edge:hover path { stroke: red; }
.edge:hover polygon { stroke: red; fill: red; }
]]></style>
<script type="text/javascript"><![CDATA[
var edges = document.getElementsByTagName('g');
if (edges && edges.length) {
  for (var i=0;i<edges.length;i++) {
    if (edges[i].id.substr(0,4)=='edge') {
      edges[i].setAttribute('class','edge');
    }
  }
}
]]></script>
        <defs>
                <circle id="rim" cx="0" cy="0" r="7"/>
                <circle id="rim2" cx="0" cy="0" r="3.5"/>
                <g id="zoomPlus">
                        <use xlink:href="#rim" fill="#404040">
                                <set attributeName="fill" to="#808080" begin="zoomplus.mouseover" end="zoomplus.mouseout"/>
                        </use>
                        <path d="M-4,0h8M0,-4v8" fill="none" stroke="white" stroke-width="1.5" pointer-events="none"/>
                </g>
                <g id="zoomMin">
                        <use xlink:href="#rim" fill="#404040">
                                <set attributeName="fill" to="#808080" begin="zoomminus.mouseover" end="zoomminus.mouseout"/>
                        </use>
                        <path d="M-4,0h8" fill="none" stroke="white" stroke-width="1.5" pointer-events="none"/>
                </g>
                <g id="dirArrow">
                        <path fill="none" stroke="white" stroke-width="1.5" d="M0,-3.0v7 M-2.5,-0.5L0,-3.0L2.5,-0.5"/>
                </g>
               <g id="resetDef">
                       <use xlink:href="#rim2" fill="#404040">
                               <set attributeName="fill" to="#808080" begin="reset.mouseover" end="reset.mouseout"/>
                       </use>
               </g>
        </defs>

<script type="text/javascript">
var viewWidth = 1321;
var viewHeight = 364;
var sectionId = 'dynsection-0';
</script>
<script xlink:href="svgpan.js"/>
<svg id="graph" class="graph">
<g id="viewport">
<title>src/client/ClientCgi.cpp</title>
<polygon fill="white" stroke="transparent" points="-4,4 -4,-360 1317.32,-360 1317.32,4 -4,4"/>
<!-- Node1 -->
<g id="node1" class="node">
<title>Node1</title>
<g id="a_node1"><a xlink:title=" ">
<polygon fill="#bfbfbf" stroke="black" points="548.32,-336.5 548.32,-355.5 667.32,-355.5 667.32,-336.5 548.32,-336.5"/>
<text text-anchor="middle" x="607.82" y="-343.5" font-family="Helvetica,sans-Serif" font-size="10.00">src/client/ClientCgi.cpp</text>
</a>
</g>
</g>
<!-- Node2 -->
<g id="node2" class="node">
<title>Node2</title>
<g id="a_node2"><a xlink:title=" ">
<polygon fill="white" stroke="#bfbfbf" points="998.32,-168.5 998.32,-187.5 1049.32,-187.5 1049.32,-168.5 998.32,-168.5"/>
<text text-anchor="middle" x="1023.82" y="-175.5" font-family="Helvetica,sans-Serif" font-size="10.00">unistd.h</text>
</a>
</g>
</g>
<!-- Node1&#45;&gt;Node2 -->
<g id="edge1" class="edge">
<title>Node1&#45;&gt;Node2</title>
<path fill="none" stroke="midnightblue" d="M667.53,-343.09C751.38,-339.4 898.7,-328.9 942.82,-300 975.84,-278.36 966.44,-256.53 988.82,-224 995.48,-214.32 1003.49,-203.93 1010.17,-195.59"/>
<polygon fill="midnightblue" stroke="midnightblue" points="1012.95,-197.71 1016.53,-187.73 1007.52,-193.3 1012.95,-197.71"/>
</g>
<!-- Node3 -->
<g id="node3" class="node">
<title>Node3</title>
<g id="a_node3"><a xlink:title=" ">
<polygon fill="white" stroke="#bfbfbf" points="327.82,-280.5 327.82,-299.5 383.82,-299.5 383.82,-280.5 327.82,-280.5"/>
<text text-anchor="middle" x="355.82" y="-287.5" font-family="Helvetica,sans-Serif" font-size="10.00">algorithm</text>
</a>
</g>
</g>
<!-- Node1&#45;&gt;Node3 -->
<g id="edge2" class="edge">
<title>Node1&#45;&gt;Node3</title>
<path fill="none" stroke="midnightblue" d="M564.9,-336.44C523.56,-328.1 459.02,-314.84 394.08,-300.23"/>
<polygon fill="midnightblue" stroke="midnightblue" points="394.6,-296.76 384.08,-297.97 393.06,-303.59 394.6,-296.76"/>
</g>
<!-- Node4 -->
<g id="node4" class="node">
<title>Node4</title>
<g id="a_node4"><a xlink:title=" ">
<polygon fill="white" stroke="#bfbfbf" points="401.82,-280.5 401.82,-299.5 447.82,-299.5 447.82,-280.5 401.82,-280.5"/>
<text text-anchor="middle" x="424.82" y="-287.5" font-family="Helvetica,sans-Serif" font-size="10.00">cctype</text>
</a>
</g>
</g>
<!-- Node1&#45;&gt;Node4 -->
<g id="edge3" class="edge">
<title>Node1&#45;&gt;Node4</title>
<path fill="none" stroke="midnightblue" d="M578.82,-336.44C545.8,-326.7 491.97,-310.82 457.49,-300.64"/>
<polygon fill="midnightblue" stroke="midnightblue" points="458.47,-297.28 447.89,-297.81 456.49,-303.99 458.47,-297.28"/>
</g>
<!-- Node5 -->
<g id="node5" class="node">
<title>Node5</title>
<g id="a_node5"><a xlink:title=" ">
<polygon fill="white" stroke="#bfbfbf" points="465.82,-280.5 465.82,-299.5 509.82,-299.5 509.82,-280.5 465.82,-280.5"/>
<text text-anchor="middle" x="487.82" y="-287.5" font-family="Helvetica,sans-Serif" font-size="10.00">cerrno</text>
</a>
</g>
</g>
<!-- Node1&#45;&gt;Node5 -->
<g id="edge4" class="edge">
<title>Node1&#45;&gt;Node5</title>
<path fill="none" stroke="midnightblue" d="M588.8,-336.44C569.23,-327.64 538.51,-313.81 516.09,-303.72"/>
<polygon fill="midnightblue" stroke="midnightblue" points="517.3,-300.43 506.74,-299.52 514.43,-306.81 517.3,-300.43"/>
</g>
<!-- Node6 -->
<g id="node6" class="node">
<title>Node6</title>
<g id="a_node6"><a xlink:title=" ">
<polygon fill="white" stroke="#bfbfbf" points="527.82,-280.5 527.82,-299.5 579.82,-299.5 579.82,-280.5 527.82,-280.5"/>
<text text-anchor="middle" x="553.82" y="-287.5" font-family="Helvetica,sans-Serif" font-size="10.00">sstream</text>
</a>
</g>
</g>
<!-- Node1&#45;&gt;Node6 -->
<g id="edge5" class="edge">
<title>Node1&#45;&gt;Node6</title>
<path fill="none" stroke="midnightblue" d="M598.9,-336.08C591.04,-328.22 579.39,-316.57 569.9,-307.08"/>
<polygon fill="midnightblue" stroke="midnightblue" points="572.12,-304.35 562.57,-299.75 567.17,-309.3 572.12,-304.35"/>
</g>
<!-- Node7 -->
<g id="node7" class="node">
<title>Node7</title>
<g id="a_node7"><a xlink:href="Client_8hpp.html" target="_top" xlink:title=" ">
<polygon fill="white" stroke="black" points="269.32,-224.5 269.32,-243.5 330.32,-243.5 330.32,-224.5 269.32,-224.5"/>
<text text-anchor="middle" x="299.82" y="-231.5" font-family="Helvetica,sans-Serif" font-size="10.00">Client.hpp</text>
</a>
</g>
</g>
<!-- Node1&#45;&gt;Node7 -->
<g id="edge6" class="edge">
<title>Node1&#45;&gt;Node7</title>
<path fill="none" stroke="midnightblue" d="M548.08,-343.08C473.6,-339.46 352.02,-329.14 318.82,-300 305.72,-288.5 301.42,-268.53 300.12,-253.75"/>
<polygon fill="midnightblue" stroke="midnightblue" points="303.61,-253.5 299.62,-243.69 296.62,-253.85 303.61,-253.5"/>
</g>
<!-- Node22 -->
<g id="node22" class="node">
<title>Node22</title>
<g id="a_node22"><a xlink:href="ErrorUtils_8hpp.html" target="_top" xlink:title=" ">
<polygon fill="white" stroke="black" points="452.32,-168.5 452.32,-187.5 529.32,-187.5 529.32,-168.5 452.32,-168.5"/>
<text text-anchor="middle" x="490.82" y="-175.5" font-family="Helvetica,sans-Serif" font-size="10.00">ErrorUtils.hpp</text>
</a>
</g>
</g>
<!-- Node1&#45;&gt;Node22 -->
<g id="edge43" class="edge">
<title>Node1&#45;&gt;Node22</title>
<path fill="none" stroke="midnightblue" d="M606.67,-336.48C604.65,-323.54 599.59,-298.49 588.82,-280 568.19,-244.59 532.52,-212.22 510.38,-194.11"/>
<polygon fill="midnightblue" stroke="midnightblue" points="512.34,-191.19 502.34,-187.68 507.96,-196.66 512.34,-191.19"/>
</g>
<!-- Node23 -->
<g id="node23" class="node">
<title>Node23</title>
<g id="a_node23"><a xlink:href="CgiExecutor_8hpp.html" target="_top" xlink:title=" ">
<polygon fill="white" stroke="black" points="635.82,-280.5 635.82,-299.5 739.82,-299.5 739.82,-280.5 635.82,-280.5"/>
<text text-anchor="middle" x="687.82" y="-287.5" font-family="Helvetica,sans-Serif" font-size="10.00">cgi/CgiExecutor.hpp</text>
</a>
</g>
</g>
<!-- Node1&#45;&gt;Node23 -->
<g id="edge47" class="edge">
<title>Node1&#45;&gt;Node23</title>
<path fill="none" stroke="midnightblue" d="M620.67,-336.32C633.03,-327.98 651.95,-315.21 666.56,-305.35"/>
<polygon fill="midnightblue" stroke="midnightblue" points="668.67,-308.15 675,-299.65 664.75,-302.35 668.67,-308.15"/>
</g>
<!-- Node24 -->
<g id="node24" class="node">
<title>Node24</title>
<g id="a_node24"><a xlink:href="CgiProcess_8hpp.html" target="_top" xlink:title=" ">
<polygon fill="white" stroke="black" points="741.82,-224.5 741.82,-243.5 827.82,-243.5 827.82,-224.5 741.82,-224.5"/>
<text text-anchor="middle" x="784.82" y="-231.5" font-family="Helvetica,sans-Serif" font-size="10.00">CgiProcess.hpp</text>
</a>
</g>
</g>
<!-- Node1&#45;&gt;Node24 -->
<g id="edge57" class="edge">
<title>Node1&#45;&gt;Node24</title>
<path fill="none" stroke="midnightblue" d="M666.83,-336.47C694.12,-330.1 725.57,-319.07 748.82,-300 763.75,-287.76 773.52,-267.61 779.07,-252.99"/>
<polygon fill="midnightblue" stroke="midnightblue" points="782.39,-254.1 782.38,-243.51 775.78,-251.8 782.39,-254.1"/>
</g>
<!-- Node26 -->
<g id="node26" class="node">
<title>Node26</title>
<g id="a_node26"><a xlink:href="HttpHeaderUtils_8hpp.html" target="_top" xlink:title=" ">
<polygon fill="white" stroke="black" points="1188.32,-112.5 1188.32,-131.5 1313.32,-131.5 1313.32,-112.5 1188.32,-112.5"/>
<text text-anchor="middle" x="1250.82" y="-119.5" font-family="Helvetica,sans-Serif" font-size="10.00">http/HttpHeaderUtils.hpp</text>
</a>
</g>
</g>
<!-- Node1&#45;&gt;Node26 -->
<g id="edge58" class="edge">
<title>Node1&#45;&gt;Node26</title>
<path fill="none" stroke="midnightblue" d="M667.52,-342.72C802.66,-336.36 1126.39,-314.01 1205.82,-244 1235.99,-217.41 1245.97,-168.64 1249.25,-141.86"/>
<polygon fill="midnightblue" stroke="midnightblue" points="1252.77,-141.86 1250.3,-131.55 1245.8,-141.14 1252.77,-141.86"/>
</g>
<!-- Node27 -->
<g id="node27" class="node">
<title>Node27</title>
<g id="a_node27"><a xlink:href="ServerManager_8hpp.html" target="_top" xlink:title=" ">
<polygon fill="white" stroke="black" points="795.82,-280.5 795.82,-299.5 933.82,-299.5 933.82,-280.5 795.82,-280.5"/>
<text text-anchor="middle" x="864.82" y="-287.5" font-family="Helvetica,sans-Serif" font-size="10.00">network/ServerManager.hpp</text>
</a>
</g>
</g>
<!-- Node1&#45;&gt;Node27 -->
<g id="edge60" class="edge">
<title>Node1&#45;&gt;Node27</title>
<path fill="none" stroke="midnightblue" d="M648.54,-336.44C693.47,-327 765.82,-311.8 814.32,-301.61"/>
<polygon fill="midnightblue" stroke="midnightblue" points="815.22,-305 824.29,-299.52 813.78,-298.15 815.22,-305"/>
</g>
<!-- Node8 -->
<g id="node8" class="node">
<title>Node8</title>
<g id="a_node8"><a xlink:title=" ">
<polygon fill="white" stroke="#bfbfbf" points="662.32,-168.5 662.32,-187.5 703.32,-187.5 703.32,-168.5 662.32,-168.5"/>
<text text-anchor="middle" x="682.82" y="-175.5" font-family="Helvetica,sans-Serif" font-size="10.00">ctime</text>
</a>
</g>
</g>
<!-- Node7&#45;&gt;Node8 -->
<g id="edge7" class="edge">
<title>Node7&#45;&gt;Node8</title>
<path fill="none" stroke="midnightblue" d="M330.51,-228.67C402.27,-218.55 580.34,-193.45 652.11,-183.33"/>
<polygon fill="midnightblue" stroke="midnightblue" points="652.88,-186.76 662.29,-181.89 651.9,-179.82 652.88,-186.76"/>
</g>
<!-- Node9 -->
<g id="node9" class="node">
<title>Node9</title>
<g id="a_node9"><a xlink:title=" ">
<polygon fill="white" stroke="#bfbfbf" points="180.32,-168.5 180.32,-187.5 223.32,-187.5 223.32,-168.5 180.32,-168.5"/>
<text text-anchor="middle" x="201.82" y="-175.5" font-family="Helvetica,sans-Serif" font-size="10.00">queue</text>
</a>
</g>
</g>
<!-- Node7&#45;&gt;Node9 -->
<g id="edge8" class="edge">
<title>Node7&#45;&gt;Node9</title>
<path fill="none" stroke="midnightblue" d="M284.07,-224.32C268.5,-215.74 244.44,-202.49 226.36,-192.52"/>
<polygon fill="midnightblue" stroke="midnightblue" points="227.97,-189.42 217.52,-187.65 224.59,-195.55 227.97,-189.42"/>
</g>
<!-- Node10 -->
<g id="node10" class="node">
<title>Node10</title>
<g id="a_node10"><a xlink:title=" ">
<polygon fill="white" stroke="#bfbfbf" points="827.32,-0.5 827.32,-19.5 868.32,-19.5 868.32,-0.5 827.32,-0.5"/>
<text text-anchor="middle" x="847.82" y="-7.5" font-family="Helvetica,sans-Serif" font-size="10.00">string</text>
</a>
</g>
</g>
<!-- Node7&#45;&gt;Node10 -->
<g id="edge9" class="edge">
<title>Node7&#45;&gt;Node10</title>
<path fill="none" stroke="midnightblue" d="M330.45,-228.9C380.3,-221.98 481.93,-206.9 566.82,-188 589.5,-182.95 955.76,-94.5 969.82,-76 996.37,-41.06 922.76,-22.87 878.52,-15.33"/>
<polygon fill="midnightblue" stroke="midnightblue" points="878.94,-11.85 868.51,-13.72 877.83,-18.77 878.94,-11.85"/>
</g>
<!-- Node11 -->
<g id="node11" class="node">
<title>Node11</title>
<g id="a_node11"><a xlink:title=" ">
<polygon fill="white" stroke="#bfbfbf" points="195.82,-0.5 195.82,-19.5 239.82,-19.5 239.82,-0.5 195.82,-0.5"/>
<text text-anchor="middle" x="217.82" y="-7.5" font-family="Helvetica,sans-Serif" font-size="10.00">vector</text>
</a>
</g>
</g>
<!-- Node7&#45;&gt;Node11 -->
<g id="edge10" class="edge">
<title>Node7&#45;&gt;Node11</title>
<path fill="none" stroke="midnightblue" d="M269.24,-228.24C204.78,-216.32 56.55,-178.4 3.82,-76 -0.25,-68.1 -1.78,-62.9 3.82,-56 26.36,-28.23 131.67,-16.96 185.68,-12.94"/>
<polygon fill="midnightblue" stroke="midnightblue" points="186.03,-16.43 195.76,-12.24 185.54,-9.45 186.03,-16.43"/>
</g>
<!-- Node12 -->
<g id="node12" class="node">
<title>Node12</title>
<g id="a_node12"><a xlink:href="RequestProcessor_8hpp.html" target="_top" xlink:title=" ">
<polygon fill="white" stroke="black" points="317.82,-168.5 317.82,-187.5 433.82,-187.5 433.82,-168.5 317.82,-168.5"/>
<text text-anchor="middle" x="375.82" y="-175.5" font-family="Helvetica,sans-Serif" font-size="10.00">RequestProcessor.hpp</text>
</a>
</g>
</g>
<!-- Node7&#45;&gt;Node12 -->
<g id="edge11" class="edge">
<title>Node7&#45;&gt;Node12</title>
<path fill="none" stroke="midnightblue" d="M312.03,-224.32C323.59,-216.11 341.19,-203.6 354.98,-193.81"/>
<polygon fill="midnightblue" stroke="midnightblue" points="357.26,-196.48 363.39,-187.83 353.21,-190.77 357.26,-196.48"/>
</g>
<!-- Node13 -->
<g id="node13" class="node">
<title>Node13</title>
<g id="a_node13"><a xlink:href="ServerConfig_8hpp.html" target="_top" xlink:title=" ">
<polygon fill="white" stroke="black" points="550.82,-112.5 550.82,-131.5 672.82,-131.5 672.82,-112.5 550.82,-112.5"/>
<text text-anchor="middle" x="611.82" y="-119.5" font-family="Helvetica,sans-Serif" font-size="10.00">config/ServerConfig.hpp</text>
</a>
</g>
</g>
<!-- Node7&#45;&gt;Node13 -->
<g id="edge36" class="edge">
<title>Node7&#45;&gt;Node13</title>
<path fill="none" stroke="midnightblue" d="M330.51,-232.41C377.65,-230.39 469.66,-221.99 538.82,-188 562.72,-176.25 584.75,-154.48 598.22,-139.39"/>
<polygon fill="midnightblue" stroke="midnightblue" points="600.89,-141.65 604.78,-131.8 595.6,-137.08 600.89,-141.65"/>
</g>
<!-- Node18 -->
<g id="node18" class="node">
<title>Node18</title>
<g id="a_node18"><a xlink:href="HttpRequest_8hpp.html" target="_top" xlink:title=" ">
<polygon fill="white" stroke="black" points="162.82,-56.5 162.82,-75.5 272.82,-75.5 272.82,-56.5 162.82,-56.5"/>
<text text-anchor="middle" x="217.82" y="-63.5" font-family="Helvetica,sans-Serif" font-size="10.00">http/HttpRequest.hpp</text>
</a>
</g>
</g>
<!-- Node7&#45;&gt;Node18 -->
<g id="edge41" class="edge">
<title>Node7&#45;&gt;Node18</title>
<path fill="none" stroke="midnightblue" d="M295.41,-224.08C282.39,-197.72 243.94,-119.88 226.54,-84.66"/>
<polygon fill="midnightblue" stroke="midnightblue" points="229.62,-82.98 222.05,-75.57 223.34,-86.08 229.62,-82.98"/>
</g>
<!-- Node19 -->
<g id="node19" class="node">
<title>Node19</title>
<g id="a_node19"><a xlink:href="HttpResponse_8hpp.html" target="_top" xlink:title=" ">
<polygon fill="white" stroke="black" points="355.82,-112.5 355.82,-131.5 473.82,-131.5 473.82,-112.5 355.82,-112.5"/>
<text text-anchor="middle" x="414.82" y="-119.5" font-family="Helvetica,sans-Serif" font-size="10.00">http/HttpResponse.hpp</text>
</a>
</g>
</g>
<!-- Node7&#45;&gt;Node19 -->
<g id="edge42" class="edge">
<title>Node7&#45;&gt;Node19</title>
<path fill="none" stroke="midnightblue" d="M298.53,-224.42C297,-210.94 296.07,-184.64 308.82,-168 321.19,-151.85 340.47,-141.42 359.22,-134.73"/>
<polygon fill="midnightblue" stroke="midnightblue" points="360.51,-137.99 368.93,-131.56 358.34,-131.33 360.51,-137.99"/>
</g>
<!-- Node20 -->
<g id="node20" class="node">
<title>Node20</title>
<g id="a_node20"><a xlink:href="HttpParser_8hpp.html" target="_top" xlink:title=" ">
<polygon fill="white" stroke="black" points="122.32,-112.5 122.32,-131.5 223.32,-131.5 223.32,-112.5 122.32,-112.5"/>
<text text-anchor="middle" x="172.82" y="-119.5" font-family="Helvetica,sans-Serif" font-size="10.00">http/HttpParser.hpp</text>
</a>
</g>
</g>
<!-- Node7&#45;&gt;Node20 -->
<g id="edge37" class="edge">
<title>Node7&#45;&gt;Node20</title>
<path fill="none" stroke="midnightblue" d="M269.13,-231.9C238.53,-228.97 193,-219.23 170.82,-188 161.33,-174.64 163.24,-155.52 166.68,-141.48"/>
<polygon fill="midnightblue" stroke="midnightblue" points="170.15,-142.09 169.58,-131.51 163.43,-140.14 170.15,-142.09"/>
</g>
<!-- Node12&#45;&gt;Node10 -->
<g id="edge12" class="edge">
<title>Node12&#45;&gt;Node10</title>
<path fill="none" stroke="midnightblue" d="M395.49,-168.49C426.32,-155.34 488.03,-129.75 541.82,-112 599.97,-92.81 616.53,-94.79 674.82,-76 725.68,-59.6 783.59,-37.03 817.85,-23.25"/>
<polygon fill="midnightblue" stroke="midnightblue" points="819.31,-26.44 827.27,-19.45 816.69,-19.95 819.31,-26.44"/>
</g>
<!-- Node12&#45;&gt;Node11 -->
<g id="edge13" class="edge">
<title>Node12&#45;&gt;Node11</title>
<path fill="none" stroke="midnightblue" d="M317.66,-173.22C250.24,-167.79 144.32,-155.72 112.82,-132 84.18,-110.44 64.96,-85.15 85.82,-56 108.41,-24.42 154.5,-14.75 185.78,-11.93"/>
<polygon fill="midnightblue" stroke="midnightblue" points="186.04,-15.42 195.77,-11.21 185.54,-8.44 186.04,-15.42"/>
</g>
<!-- Node12&#45;&gt;Node13 -->
<g id="edge14" class="edge">
<title>Node12&#45;&gt;Node13</title>
<path fill="none" stroke="midnightblue" d="M413.21,-168.44C454.21,-159.06 520.07,-143.99 564.6,-133.8"/>
<polygon fill="midnightblue" stroke="midnightblue" points="565.63,-137.16 574.6,-131.52 564.07,-130.34 565.63,-137.16"/>
</g>
<!-- Node12&#45;&gt;Node18 -->
<g id="edge26" class="edge">
<title>Node12&#45;&gt;Node18</title>
<path fill="none" stroke="midnightblue" d="M363.42,-168.37C336.42,-149.57 272.07,-104.77 238.69,-81.53"/>
<polygon fill="midnightblue" stroke="midnightblue" points="240.37,-78.43 230.16,-75.59 236.37,-84.18 240.37,-78.43"/>
</g>
<!-- Node12&#45;&gt;Node19 -->
<g id="edge31" class="edge">
<title>Node12&#45;&gt;Node19</title>
<path fill="none" stroke="midnightblue" d="M382.26,-168.08C387.77,-160.46 395.85,-149.26 402.58,-139.94"/>
<polygon fill="midnightblue" stroke="midnightblue" points="405.48,-141.91 408.5,-131.75 399.81,-137.81 405.48,-141.91"/>
</g>
<!-- Node13&#45;&gt;Node10 -->
<g id="edge17" class="edge">
<title>Node13&#45;&gt;Node10</title>
<path fill="none" stroke="midnightblue" d="M640.96,-112.48C667.13,-104.4 706.32,-91.27 738.82,-76 770.75,-61 805.38,-39.33 826.84,-25.21"/>
<polygon fill="midnightblue" stroke="midnightblue" points="828.8,-28.11 835.19,-19.66 824.92,-22.28 828.8,-28.11"/>
</g>
<!-- Node13&#45;&gt;Node11 -->
<g id="edge18" class="edge">
<title>Node13&#45;&gt;Node11</title>
<path fill="none" stroke="midnightblue" d="M565.85,-112.48C524.05,-104.37 460.84,-91.17 406.82,-76 350.78,-60.27 287.04,-37.25 249.75,-23.24"/>
<polygon fill="midnightblue" stroke="midnightblue" points="250.55,-19.81 239.96,-19.55 248.08,-26.35 250.55,-19.81"/>
</g>
<!-- Node14 -->
<g id="node14" class="node">
<title>Node14</title>
<g id="a_node14"><a xlink:title=" ">
<polygon fill="white" stroke="#bfbfbf" points="349.82,-0.5 349.82,-19.5 403.82,-19.5 403.82,-0.5 349.82,-0.5"/>
<text text-anchor="middle" x="376.82" y="-7.5" font-family="Helvetica,sans-Serif" font-size="10.00">iostream</text>
</a>
</g>
</g>
<!-- Node13&#45;&gt;Node14 -->
<g id="edge15" class="edge">
<title>Node13&#45;&gt;Node14</title>
<path fill="none" stroke="midnightblue" d="M550.59,-114.75C514.51,-108.9 469.16,-97.63 433.82,-76 414.29,-64.04 397.79,-43.25 387.65,-28.4"/>
<polygon fill="midnightblue" stroke="midnightblue" points="390.33,-26.11 381.93,-19.65 384.47,-29.94 390.33,-26.11"/>
</g>
<!-- Node15 -->
<g id="node15" class="node">
<title>Node15</title>
<g id="a_node15"><a xlink:title=" ">
<polygon fill="white" stroke="#bfbfbf" points="515.32,-0.5 515.32,-19.5 550.32,-19.5 550.32,-0.5 515.32,-0.5"/>
<text text-anchor="middle" x="532.82" y="-7.5" font-family="Helvetica,sans-Serif" font-size="10.00">map</text>
</a>
</g>
</g>
<!-- Node13&#45;&gt;Node15 -->
<g id="edge16" class="edge">
<title>Node13&#45;&gt;Node15</title>
<path fill="none" stroke="midnightblue" d="M605.62,-112.37C592.58,-94.22 562.12,-51.8 545.02,-27.99"/>
<polygon fill="midnightblue" stroke="midnightblue" points="547.66,-25.67 538.99,-19.59 541.98,-29.76 547.66,-25.67"/>
</g>
<!-- Node16 -->
<g id="node16" class="node">
<title>Node16</title>
<g id="a_node16"><a xlink:href="LocationConfig_8hpp.html" target="_top" xlink:title=" ">
<polygon fill="white" stroke="black" points="443.32,-56.5 443.32,-75.5 544.32,-75.5 544.32,-56.5 443.32,-56.5"/>
<text text-anchor="middle" x="493.82" y="-63.5" font-family="Helvetica,sans-Serif" font-size="10.00">LocationConfig.hpp</text>
</a>
</g>
</g>
<!-- Node13&#45;&gt;Node16 -->
<g id="edge19" class="edge">
<title>Node13&#45;&gt;Node16</title>
<path fill="none" stroke="midnightblue" d="M593.12,-112.44C573.87,-103.64 543.67,-89.81 521.62,-79.72"/>
<polygon fill="midnightblue" stroke="midnightblue" points="522.98,-76.5 512.43,-75.52 520.06,-82.86 522.98,-76.5"/>
</g>
<!-- Node17 -->
<g id="node17" class="node">
<title>Node17</title>
<g id="a_node17"><a xlink:href="namespaces_8hpp.html" target="_top" xlink:title=" ">
<polygon fill="white" stroke="black" points="829.32,-56.5 829.32,-75.5 960.32,-75.5 960.32,-56.5 829.32,-56.5"/>
<text text-anchor="middle" x="894.82" y="-63.5" font-family="Helvetica,sans-Serif" font-size="10.00">common/namespaces.hpp</text>
</a>
</g>
</g>
<!-- Node13&#45;&gt;Node17 -->
<g id="edge24" class="edge">
<title>Node13&#45;&gt;Node17</title>
<path fill="none" stroke="midnightblue" d="M656.66,-112.44C706.44,-102.94 786.8,-87.61 840.21,-77.42"/>
<polygon fill="midnightblue" stroke="midnightblue" points="841.02,-80.83 850.19,-75.52 839.71,-73.95 841.02,-80.83"/>
</g>
<!-- Node16&#45;&gt;Node10 -->
<g id="edge22" class="edge">
<title>Node16&#45;&gt;Node10</title>
<path fill="none" stroke="midnightblue" d="M544.54,-57.26C619.02,-45.9 755.76,-25.04 816.88,-15.72"/>
<polygon fill="midnightblue" stroke="midnightblue" points="817.68,-19.14 827.04,-14.17 816.63,-12.22 817.68,-19.14"/>
</g>
<!-- Node16&#45;&gt;Node11 -->
<g id="edge23" class="edge">
<title>Node16&#45;&gt;Node11</title>
<path fill="none" stroke="midnightblue" d="M450.09,-56.44C394.32,-45.53 299.2,-26.92 249.77,-17.25"/>
<polygon fill="midnightblue" stroke="midnightblue" points="250.43,-13.81 239.95,-15.33 249.09,-20.68 250.43,-13.81"/>
</g>
<!-- Node16&#45;&gt;Node14 -->
<g id="edge20" class="edge">
<title>Node16&#45;&gt;Node14</title>
<path fill="none" stroke="midnightblue" d="M475.28,-56.44C456.2,-47.64 426.24,-33.81 404.38,-23.72"/>
<polygon fill="midnightblue" stroke="midnightblue" points="405.82,-20.53 395.27,-19.52 402.88,-26.88 405.82,-20.53"/>
</g>
<!-- Node16&#45;&gt;Node15 -->
<g id="edge21" class="edge">
<title>Node16&#45;&gt;Node15</title>
<path fill="none" stroke="midnightblue" d="M500.26,-56.08C505.77,-48.46 513.85,-37.26 520.58,-27.94"/>
<polygon fill="midnightblue" stroke="midnightblue" points="523.48,-29.91 526.5,-19.75 517.81,-25.81 523.48,-29.91"/>
</g>
<!-- Node17&#45;&gt;Node10 -->
<g id="edge25" class="edge">
<title>Node17&#45;&gt;Node10</title>
<path fill="none" stroke="midnightblue" d="M887.06,-56.08C880.28,-48.3 870.28,-36.8 862.06,-27.37"/>
<polygon fill="midnightblue" stroke="midnightblue" points="864.64,-25 855.43,-19.75 859.36,-29.59 864.64,-25"/>
</g>
<!-- Node18&#45;&gt;Node10 -->
<g id="edge29" class="edge">
<title>Node18&#45;&gt;Node10</title>
<path fill="none" stroke="midnightblue" d="M272.9,-60.28C401.34,-49.27 717.33,-22.18 817.11,-13.63"/>
<polygon fill="midnightblue" stroke="midnightblue" points="817.47,-17.11 827.13,-12.77 816.87,-10.14 817.47,-17.11"/>
</g>
<!-- Node18&#45;&gt;Node11 -->
<g id="edge30" class="edge">
<title>Node18&#45;&gt;Node11</title>
<path fill="none" stroke="midnightblue" d="M217.82,-56.08C217.82,-49.01 217.82,-38.86 217.82,-29.99"/>
<polygon fill="midnightblue" stroke="midnightblue" points="221.32,-29.75 217.82,-19.75 214.32,-29.75 221.32,-29.75"/>
</g>
<!-- Node18&#45;&gt;Node14 -->
<g id="edge27" class="edge">
<title>Node18&#45;&gt;Node14</title>
<path fill="none" stroke="midnightblue" d="M243.01,-56.44C269.76,-47.36 312.22,-32.94 342.12,-22.78"/>
<polygon fill="midnightblue" stroke="midnightblue" points="343.4,-26.05 351.74,-19.52 341.15,-19.42 343.4,-26.05"/>
</g>
<!-- Node18&#45;&gt;Node15 -->
<g id="edge28" class="edge">
<title>Node18&#45;&gt;Node15</title>
<path fill="none" stroke="midnightblue" d="M267.73,-56.44C334.92,-44.93 452.15,-24.83 505.27,-15.72"/>
<polygon fill="midnightblue" stroke="midnightblue" points="506.03,-19.14 515.29,-14 504.85,-12.24 506.03,-19.14"/>
</g>
<!-- Node19&#45;&gt;Node10 -->
<g id="edge33" class="edge">
<title>Node19&#45;&gt;Node10</title>
<path fill="none" stroke="midnightblue" d="M459.28,-112.45C501.94,-104.01 568.06,-90.33 624.82,-76 694.17,-58.49 774.47,-34.04 817.26,-20.67"/>
<polygon fill="midnightblue" stroke="midnightblue" points="818.56,-23.93 827.05,-17.6 816.46,-17.25 818.56,-23.93"/>
</g>
<!-- Node19&#45;&gt;Node11 -->
<g id="edge34" class="edge">
<title>Node19&#45;&gt;Node11</title>
<path fill="none" stroke="midnightblue" d="M396.66,-112.46C378.32,-103.72 349.28,-89.52 324.82,-76 294.82,-59.43 261.19,-38.61 239.77,-25.07"/>
<polygon fill="midnightblue" stroke="midnightblue" points="241.44,-21.98 231.12,-19.57 237.68,-27.89 241.44,-21.98"/>
</g>
<!-- Node19&#45;&gt;Node15 -->
<g id="edge32" class="edge">
<title>Node19&#45;&gt;Node15</title>
<path fill="none" stroke="midnightblue" d="M415.12,-112.35C416.03,-98.77 419.65,-72.35 433.82,-56 452.29,-34.7 482.9,-22.93 505.2,-16.83"/>
<polygon fill="midnightblue" stroke="midnightblue" points="506.25,-20.18 515.09,-14.34 504.54,-13.39 506.25,-20.18"/>
</g>
<!-- Node19&#45;&gt;Node18 -->
<g id="edge35" class="edge">
<title>Node19&#45;&gt;Node18</title>
<path fill="none" stroke="midnightblue" d="M383.6,-112.44C349.89,-103.2 296.02,-88.44 258.89,-78.26"/>
<polygon fill="midnightblue" stroke="midnightblue" points="259.46,-74.78 248.89,-75.52 257.61,-81.54 259.46,-74.78"/>
</g>
<!-- Node20&#45;&gt;Node10 -->
<g id="edge39" class="edge">
<title>Node20&#45;&gt;Node10</title>
<path fill="none" stroke="midnightblue" d="M223.44,-117.56C296.81,-112.01 436.72,-99.26 553.82,-76 585.97,-69.61 592.95,-63.69 624.82,-56 693.1,-39.52 774.13,-24.22 817.24,-16.41"/>
<polygon fill="midnightblue" stroke="midnightblue" points="817.88,-19.86 827.1,-14.64 816.64,-12.97 817.88,-19.86"/>
</g>
<!-- Node20&#45;&gt;Node18 -->
<g id="edge40" class="edge">
<title>Node20&#45;&gt;Node18</title>
<path fill="none" stroke="midnightblue" d="M180.25,-112.08C186.67,-104.38 196.12,-93.03 203.94,-83.65"/>
<polygon fill="midnightblue" stroke="midnightblue" points="206.81,-85.67 210.53,-75.75 201.43,-81.19 206.81,-85.67"/>
</g>
<!-- Node21 -->
<g id="node21" class="node">
<title>Node21</title>
<g id="a_node21"><a xlink:title=" ">
<polygon fill="white" stroke="#bfbfbf" points="95.32,-56.5 95.32,-75.5 144.32,-75.5 144.32,-56.5 95.32,-56.5"/>
<text text-anchor="middle" x="119.82" y="-63.5" font-family="Helvetica,sans-Serif" font-size="10.00">cstddef</text>
</a>
</g>
</g>
<!-- Node20&#45;&gt;Node21 -->
<g id="edge38" class="edge">
<title>Node20&#45;&gt;Node21</title>
<path fill="none" stroke="midnightblue" d="M164.07,-112.08C156.35,-104.22 144.91,-92.57 135.6,-83.08"/>
<polygon fill="midnightblue" stroke="midnightblue" points="137.91,-80.44 128.41,-75.75 132.91,-85.34 137.91,-80.44"/>
</g>
<!-- Node22&#45;&gt;Node13 -->
<g id="edge44" class="edge">
<title>Node22&#45;&gt;Node13</title>
<path fill="none" stroke="midnightblue" d="M509.99,-168.44C529.73,-159.64 560.7,-145.81 583.31,-135.72"/>
<polygon fill="midnightblue" stroke="midnightblue" points="585.03,-138.79 592.74,-131.52 582.18,-132.4 585.03,-138.79"/>
</g>
<!-- Node22&#45;&gt;Node18 -->
<g id="edge45" class="edge">
<title>Node22&#45;&gt;Node18</title>
<path fill="none" stroke="midnightblue" d="M456.66,-168.44C427.03,-160.52 383.29,-147.63 346.82,-132 330,-124.79 327.06,-120.43 310.82,-112 289.13,-100.74 264.18,-88.72 245.59,-79.94"/>
<polygon fill="midnightblue" stroke="midnightblue" points="247.04,-76.75 236.5,-75.66 244.06,-83.08 247.04,-76.75"/>
</g>
<!-- Node22&#45;&gt;Node19 -->
<g id="edge46" class="edge">
<title>Node22&#45;&gt;Node19</title>
<path fill="none" stroke="midnightblue" d="M478.61,-168.32C467.04,-160.11 449.44,-147.6 435.66,-137.81"/>
<polygon fill="midnightblue" stroke="midnightblue" points="437.43,-134.77 427.25,-131.83 433.38,-140.48 437.43,-134.77"/>
</g>
<!-- Node23&#45;&gt;Node10 -->
<g id="edge49" class="edge">
<title>Node23&#45;&gt;Node10</title>
<path fill="none" stroke="midnightblue" d="M728.37,-280.45C808.37,-260.92 981.99,-204.42 1018.82,-76 1035.53,-17.73 932.28,-10.22 878.65,-10.17"/>
<polygon fill="midnightblue" stroke="midnightblue" points="878.3,-6.67 868.33,-10.25 878.36,-13.67 878.3,-6.67"/>
</g>
<!-- Node23&#45;&gt;Node13 -->
<g id="edge50" class="edge">
<title>Node23&#45;&gt;Node13</title>
<path fill="none" stroke="midnightblue" d="M683.73,-280.08C671.67,-253.72 636.03,-175.88 619.9,-140.66"/>
<polygon fill="midnightblue" stroke="midnightblue" points="623.09,-139.2 615.74,-131.57 616.72,-142.12 623.09,-139.2"/>
</g>
<!-- Node23&#45;&gt;Node15 -->
<g id="edge48" class="edge">
<title>Node23&#45;&gt;Node15</title>
<path fill="none" stroke="midnightblue" d="M692.28,-280.43C702.04,-260.53 723.6,-209.75 712.82,-168 693.25,-92.26 604.77,-42.89 559.57,-22.15"/>
<polygon fill="midnightblue" stroke="midnightblue" points="560.92,-18.92 550.36,-18.05 558.08,-25.32 560.92,-18.92"/>
</g>
<!-- Node23&#45;&gt;Node18 -->
<g id="edge51" class="edge">
<title>Node23&#45;&gt;Node18</title>
<path fill="none" stroke="midnightblue" d="M635.41,-284.06C525.08,-273.59 277.47,-249.65 259.82,-244 181.59,-218.96 141.31,-209.03 112.82,-132 102.68,-104.6 133.08,-87.96 163.74,-78.38"/>
<polygon fill="midnightblue" stroke="midnightblue" points="165.01,-81.65 173.65,-75.51 163.07,-74.93 165.01,-81.65"/>
</g>
<!-- Node23&#45;&gt;Node24 -->
<g id="edge52" class="edge">
<title>Node23&#45;&gt;Node24</title>
<path fill="none" stroke="midnightblue" d="M703.4,-280.32C718.82,-271.74 742.63,-258.49 760.53,-248.52"/>
<polygon fill="midnightblue" stroke="midnightblue" points="762.24,-251.58 769.27,-243.65 758.83,-245.46 762.24,-251.58"/>
</g>
<!-- Node24&#45;&gt;Node2 -->
<g id="edge54" class="edge">
<title>Node24&#45;&gt;Node2</title>
<path fill="none" stroke="midnightblue" d="M822.69,-224.44C868.24,-214.15 944.09,-197.01 988.48,-186.98"/>
<polygon fill="midnightblue" stroke="midnightblue" points="989.27,-190.39 998.25,-184.78 987.73,-183.57 989.27,-190.39"/>
</g>
<!-- Node24&#45;&gt;Node8 -->
<g id="edge55" class="edge">
<title>Node24&#45;&gt;Node8</title>
<path fill="none" stroke="midnightblue" d="M768.43,-224.32C752.15,-215.7 726.95,-202.36 708.1,-192.39"/>
<polygon fill="midnightblue" stroke="midnightblue" points="709.64,-189.24 699.17,-187.65 706.37,-195.43 709.64,-189.24"/>
</g>
<!-- Node24&#45;&gt;Node10 -->
<g id="edge56" class="edge">
<title>Node24&#45;&gt;Node10</title>
<path fill="none" stroke="midnightblue" d="M808.63,-224.44C856.04,-205.92 961.25,-157.16 1002.82,-76 1028.08,-26.68 930.56,-14.76 878.52,-11.9"/>
<polygon fill="midnightblue" stroke="midnightblue" points="878.62,-8.4 868.47,-11.43 878.29,-15.39 878.62,-8.4"/>
</g>
<!-- Node25 -->
<g id="node25" class="node">
<title>Node25</title>
<g id="a_node25"><a xlink:title=" ">
<polygon fill="white" stroke="#bfbfbf" points="759.82,-168.5 759.82,-187.5 827.82,-187.5 827.82,-168.5 759.82,-168.5"/>
<text text-anchor="middle" x="793.82" y="-175.5" font-family="Helvetica,sans-Serif" font-size="10.00">sys/types.h</text>
</a>
</g>
</g>
<!-- Node24&#45;&gt;Node25 -->
<g id="edge53" class="edge">
<title>Node24&#45;&gt;Node25</title>
<path fill="none" stroke="midnightblue" d="M786.3,-224.08C787.5,-216.93 789.21,-206.64 790.7,-197.69"/>
<polygon fill="midnightblue" stroke="midnightblue" points="794.17,-198.19 792.36,-187.75 787.26,-197.04 794.17,-198.19"/>
</g>
<!-- Node26&#45;&gt;Node10 -->
<g id="edge59" class="edge">
<title>Node26&#45;&gt;Node10</title>
<path fill="none" stroke="midnightblue" d="M1243.36,-112.05C1230.72,-97.56 1203.54,-69.24 1173.82,-56 1121.2,-32.56 949.21,-18.13 878.55,-13.05"/>
<polygon fill="midnightblue" stroke="midnightblue" points="878.72,-9.56 868.5,-12.35 878.23,-16.54 878.72,-9.56"/>
</g>
<!-- Node27&#45;&gt;Node7 -->
<g id="edge68" class="edge">
<title>Node27&#45;&gt;Node7</title>
<path fill="none" stroke="midnightblue" d="M795.54,-282.38C676.39,-270.99 436.26,-248.04 340.55,-238.89"/>
<polygon fill="midnightblue" stroke="midnightblue" points="340.7,-235.39 330.41,-237.92 340.03,-242.36 340.7,-235.39"/>
</g>
<!-- Node27&#45;&gt;Node11 -->
<g id="edge62" class="edge">
<title>Node27&#45;&gt;Node11</title>
<path fill="none" stroke="midnightblue" d="M795.82,-283.6C780.35,-282.4 764.03,-281.15 748.82,-280 667.06,-273.82 17.82,-260.99 17.82,-179 17.82,-179 17.82,-179 17.82,-121 17.82,-45.43 128.81,-21.41 185.43,-14.07"/>
<polygon fill="midnightblue" stroke="midnightblue" points="186.14,-17.51 195.65,-12.85 185.31,-10.56 186.14,-17.51"/>
</g>
<!-- Node27&#45;&gt;Node13 -->
<g id="edge69" class="edge">
<title>Node27&#45;&gt;Node13</title>
<path fill="none" stroke="midnightblue" d="M865.68,-280.5C867.4,-258.43 868.69,-198.93 836.82,-168 815.21,-147.03 740.66,-135.13 683.23,-128.91"/>
<polygon fill="midnightblue" stroke="midnightblue" points="683.4,-125.41 673.09,-127.85 682.67,-132.37 683.4,-125.41"/>
</g>
<!-- Node27&#45;&gt;Node15 -->
<g id="edge61" class="edge">
<title>Node27&#45;&gt;Node15</title>
<path fill="none" stroke="midnightblue" d="M868.16,-280.2C871.37,-271.24 875.99,-256.88 877.82,-244 882.71,-209.42 880.64,-194.44 857.82,-168 775.78,-72.92 623.01,-30.49 560.54,-16.55"/>
<polygon fill="midnightblue" stroke="midnightblue" points="561.14,-13.1 550.63,-14.41 559.67,-19.94 561.14,-13.1"/>
</g>
<!-- Node28 -->
<g id="node28" class="node">
<title>Node28</title>
<g id="a_node28"><a xlink:href="EpollWrapper_8hpp.html" target="_top" xlink:title=" ">
<polygon fill="white" stroke="black" points="997.82,-224.5 997.82,-243.5 1089.82,-243.5 1089.82,-224.5 997.82,-224.5"/>
<text text-anchor="middle" x="1043.82" y="-231.5" font-family="Helvetica,sans-Serif" font-size="10.00">EpollWrapper.hpp</text>
</a>
</g>
</g>
<!-- Node27&#45;&gt;Node28 -->
<g id="edge63" class="edge">
<title>Node27&#45;&gt;Node28</title>
<path fill="none" stroke="midnightblue" d="M893.18,-280.44C923.56,-271.28 971.93,-256.69 1005.63,-246.52"/>
<polygon fill="midnightblue" stroke="midnightblue" points="1007.02,-249.76 1015.59,-243.52 1005,-243.05 1007.02,-249.76"/>
</g>
<!-- Node30 -->
<g id="node30" class="node">
<title>Node30</title>
<g id="a_node30"><a xlink:href="TcpListener_8hpp.html" target="_top" xlink:title=" ">
<polygon fill="white" stroke="black" points="1112.82,-224.5 1112.82,-243.5 1196.82,-243.5 1196.82,-224.5 1112.82,-224.5"/>
<text text-anchor="middle" x="1154.82" y="-231.5" font-family="Helvetica,sans-Serif" font-size="10.00">TcpListener.hpp</text>
</a>
</g>
</g>
<!-- Node27&#45;&gt;Node30 -->
<g id="edge66" class="edge">
<title>Node27&#45;&gt;Node30</title>
<path fill="none" stroke="midnightblue" d="M910.77,-280.44C962.94,-270.73 1047.89,-254.91 1102.55,-244.73"/>
<polygon fill="midnightblue" stroke="midnightblue" points="1103.19,-248.17 1112.38,-242.9 1101.91,-241.29 1103.19,-248.17"/>
</g>
<!-- Node28&#45;&gt;Node2 -->
<g id="edge65" class="edge">
<title>Node28&#45;&gt;Node2</title>
<path fill="none" stroke="midnightblue" d="M1040.52,-224.08C1037.84,-216.85 1033.97,-206.41 1030.63,-197.4"/>
<polygon fill="midnightblue" stroke="midnightblue" points="1033.81,-195.91 1027.06,-187.75 1027.25,-198.34 1033.81,-195.91"/>
</g>
<!-- Node29 -->
<g id="node29" class="node">
<title>Node29</title>
<g id="a_node29"><a xlink:title=" ">
<polygon fill="white" stroke="#bfbfbf" points="1067.82,-168.5 1067.82,-187.5 1131.82,-187.5 1131.82,-168.5 1067.82,-168.5"/>
<text text-anchor="middle" x="1099.82" y="-175.5" font-family="Helvetica,sans-Serif" font-size="10.00">sys/epoll.h</text>
</a>
</g>
</g>
<!-- Node28&#45;&gt;Node29 -->
<g id="edge64" class="edge">
<title>Node28&#45;&gt;Node29</title>
<path fill="none" stroke="midnightblue" d="M1052.82,-224.32C1061.01,-216.42 1073.32,-204.55 1083.29,-194.94"/>
<polygon fill="midnightblue" stroke="midnightblue" points="1085.89,-197.29 1090.66,-187.83 1081.03,-192.26 1085.89,-197.29"/>
</g>
<!-- Node30&#45;&gt;Node10 -->
<g id="edge67" class="edge">
<title>Node30&#45;&gt;Node10</title>
<path fill="none" stroke="midnightblue" d="M1154.11,-224.5C1151.18,-195.29 1137.24,-98.49 1078.82,-56 1047.22,-33.02 933.91,-19.26 878.61,-13.77"/>
<polygon fill="midnightblue" stroke="midnightblue" points="878.66,-10.26 868.37,-12.78 877.99,-17.23 878.66,-10.26"/>
</g>
</g>
</svg>
        <g id="navigator" transform="translate(0 0)" fill="#404254">
                <rect fill="#f2f5e9" fill-opacity="0.5" stroke="#606060" stroke-width=".5" x="0" y="0" width="60" height="60"/>
                <use id="zoomplus" xlink:href="#zoomPlus" x="17" y="9" onmousedown="handleZoom(evt,'in')"/>
                <use id="zoomminus" xlink:href="#zoomMin" x="42" y="9" onmousedown="handleZoom(evt,'out')"/>
                <use id="reset" xlink:href="#resetDef" x="30" y="36" onmousedown="handleReset()"/>
                <g id="arrowUp" xlink:href="#dirArrow" transform="translate(30 24)" onmousedown="handlePan(0,-1)">
                  <use xlink:href="#rim" fill="#404040">
                        <set attributeName="fill" to="#808080" begin="arrowUp.mouseover" end="arrowUp.mouseout"/>
                  </use>
                  <path fill="none" stroke="white" stroke-width="1.5" d="M0,-3.0v7 M-2.5,-0.5L0,-3.0L2.5,-0.5"/>
                </g>
                <g id="arrowRight" xlink:href="#dirArrow" transform="rotate(90) translate(36 -43)" onmousedown="handlePan(1,0)">
                  <use xlink:href="#rim" fill="#404040">
                        <set attributeName="fill" to="#808080" begin="arrowRight.mouseover" end="arrowRight.mouseout"/>
                  </use>
                  <path fill="none" stroke="white" stroke-width="1.5" d="M0,-3.0v7 M-2.5,-0.5L0,-3.0L2.5,-0.5"/>
                </g>
                <g id="arrowDown" xlink:href="#dirArrow" transform="rotate(180) translate(-30 -48)" onmousedown="handlePan(0,1)">
                  <use xlink:href="#rim" fill="#404040">
                        <set attributeName="fill" to="#808080" begin="arrowDown.mouseover" end="arrowDown.mouseout"/>
                  </use>
                  <path fill="none" stroke="white" stroke-width="1.5" d="M0,-3.0v7 M-2.5,-0.5L0,-3.0L2.5,-0.5"/>
                </g>
                <g id="arrowLeft" xlink:href="#dirArrow" transform="rotate(270) translate(-36 17)" onmousedown="handlePan(-1,0)">
                  <use xlink:href="#rim" fill="#404040">
                        <set attributeName="fill" to="#808080" begin="arrowLeft.mouseover" end="arrowLeft.mouseout"/>
                  </use>
                  <path fill="none" stroke="white" stroke-width="1.5" d="M0,-3.0v7 M-2.5,-0.5L0,-3.0L2.5,-0.5"/>
                </g>
        </g>
        <svg viewBox="0 0 15 15" width="100%" height="30px" preserveAspectRatio="xMaxYMin meet">
         <g id="arrow_out" transform="scale(0.3 0.3)">
          <a xlink:href="ClientCgi_8cpp__incl_org.svg" target="_base">
           <rect id="button" ry="5" rx="5" y="6" x="6" height="38" width="38"
                fill="#f2f5e9" fill-opacity="0.5" stroke="#606060" stroke-width="1.0"/>
           <path id="arrow"
             d="M 11.500037,31.436501 C 11.940474,20.09759 22.043105,11.32322 32.158766,21.979434 L 37.068811,17.246167 C 37.068811,17.246167 37.088388,32 37.088388,32 L 22.160133,31.978069 C 22.160133,31.978069 26.997745,27.140456 26.997745,27.140456 C 18.528582,18.264221 13.291696,25.230495 11.500037,31.436501 z"
             style="fill:#404040;"/>
          </a>
         </g>
        </svg>
</svg>
