<?xml version="1.0" encoding="UTF-8" standalone="no"?>
<!DOCTYPE svg PUBLIC "-//W3C//DTD SVG 1.1//EN"
 "http://www.w3.org/Graphics/SVG/1.1/DTD/svg11.dtd">
<!-- Generated by graphviz version 2.43.0 (0)
 -->
<!-- Title: src/common/StringUtils.hpp Pages: 1 -->
<svg width="478pt" height="84pt"
 viewBox="0.00 0.00 477.50 84.00" xmlns="http://www.w3.org/2000/svg" xmlns:xlink="http://www.w3.org/1999/xlink">
<g id="graph0" class="graph" transform="scale(1 1) rotate(0) translate(4 80)">
<title>src/common/StringUtils.hpp</title>
<polygon fill="white" stroke="transparent" points="-4,4 -4,-80 473.5,-80 473.5,4 -4,4"/>
<!-- Node1 -->
<g id="node1" class="node">
<title>Node1</title>
<g id="a_node1"><a xlink:title=" ">
<polygon fill="#bfbfbf" stroke="black" points="175.5,-56.5 175.5,-75.5 313.5,-75.5 313.5,-56.5 175.5,-56.5"/>
<text text-anchor="middle" x="244.5" y="-63.5" font-family="Helvetica,sans-Serif" font-size="10.00">src/common/StringUtils.hpp</text>
</a>
</g>
</g>
<!-- Node2 -->
<g id="node2" class="node">
<title>Node2</title>
<g id="a_node2"><a xlink:href="StaticPathHandler_8cpp.html" target="_top" xlink:title=" ">
<polygon fill="white" stroke="black" points="0,-0.5 0,-19.5 157,-19.5 157,-0.5 0,-0.5"/>
<text text-anchor="middle" x="78.5" y="-7.5" font-family="Helvetica,sans-Serif" font-size="10.00">src/client/StaticPathHandler.cpp</text>
</a>
</g>
</g>
<!-- Node1&#45;&gt;Node2 -->
<g id="edge1" class="edge">
<title>Node1&#45;&gt;Node2</title>
<path fill="none" stroke="midnightblue" d="M208.55,-53.3C177.27,-43.13 132.68,-28.62 104.68,-19.52"/>
<polygon fill="midnightblue" stroke="midnightblue" points="207.6,-56.68 218.2,-56.44 209.77,-50.02 207.6,-56.68"/>
</g>
<!-- Node3 -->
<g id="node3" class="node">
<title>Node3</title>
<g id="a_node3"><a xlink:href="common_2StringUtils_8cpp.html" target="_top" xlink:title=" ">
<polygon fill="white" stroke="black" points="175.5,-0.5 175.5,-19.5 313.5,-19.5 313.5,-0.5 175.5,-0.5"/>
<text text-anchor="middle" x="244.5" y="-7.5" font-family="Helvetica,sans-Serif" font-size="10.00">src/common/StringUtils.cpp</text>
</a>
</g>
</g>
<!-- Node1&#45;&gt;Node3 -->
<g id="edge2" class="edge">
<title>Node1&#45;&gt;Node3</title>
<path fill="none" stroke="midnightblue" d="M244.5,-45.8C244.5,-36.91 244.5,-26.78 244.5,-19.75"/>
<polygon fill="midnightblue" stroke="midnightblue" points="241,-46.08 244.5,-56.08 248,-46.08 241,-46.08"/>
</g>
<!-- Node4 -->
<g id="node4" class="node">
<title>Node4</title>
<g id="a_node4"><a xlink:href="TcpListener_8cpp.html" target="_top" xlink:title=" ">
<polygon fill="white" stroke="black" points="331.5,-0.5 331.5,-19.5 469.5,-19.5 469.5,-0.5 331.5,-0.5"/>
<text text-anchor="middle" x="400.5" y="-7.5" font-family="Helvetica,sans-Serif" font-size="10.00">src/network/TcpListener.cpp</text>
</a>
</g>
</g>
<!-- Node1&#45;&gt;Node4 -->
<g id="edge3" class="edge">
<title>Node1&#45;&gt;Node4</title>
<path fill="none" stroke="midnightblue" d="M278.67,-53.17C308.04,-43 349.7,-28.59 375.9,-19.52"/>
<polygon fill="midnightblue" stroke="midnightblue" points="277.52,-49.86 269.22,-56.44 279.81,-56.48 277.52,-49.86"/>
</g>
</g>
</svg>
