<?xml version="1.0" encoding="UTF-8" standalone="no"?>
<!DOCTYPE svg PUBLIC "-//W3C//DTD SVG 1.1//EN"
 "http://www.w3.org/Graphics/SVG/1.1/DTD/svg11.dtd">
<!-- Generated by graphviz version 2.43.0 (0)
 -->
<!-- Title: src/common/StringUtils.cpp Pages: 1 -->
<svg width="297pt" height="140pt"
 viewBox="0.00 0.00 297.00 140.00" xmlns="http://www.w3.org/2000/svg" xmlns:xlink="http://www.w3.org/1999/xlink">
<g id="graph0" class="graph" transform="scale(1 1) rotate(0) translate(4 136)">
<title>src/common/StringUtils.cpp</title>
<polygon fill="white" stroke="transparent" points="-4,4 -4,-136 293,-136 293,4 -4,4"/>
<!-- Node1 -->
<g id="node1" class="node">
<title>Node1</title>
<g id="a_node1"><a xlink:title=" ">
<polygon fill="#bfbfbf" stroke="black" points="102.5,-112.5 102.5,-131.5 240.5,-131.5 240.5,-112.5 102.5,-112.5"/>
<text text-anchor="middle" x="171.5" y="-119.5" font-family="Helvetica,sans-Serif" font-size="10.00">src/common/StringUtils.cpp</text>
</a>
</g>
</g>
<!-- Node2 -->
<g id="node2" class="node">
<title>Node2</title>
<g id="a_node2"><a xlink:href="common_2StringUtils_8hpp.html" target="_top" xlink:title=" ">
<polygon fill="white" stroke="black" points="19,-56.5 19,-75.5 100,-75.5 100,-56.5 19,-56.5"/>
<text text-anchor="middle" x="59.5" y="-63.5" font-family="Helvetica,sans-Serif" font-size="10.00">StringUtils.hpp</text>
</a>
</g>
</g>
<!-- Node1&#45;&gt;Node2 -->
<g id="edge1" class="edge">
<title>Node1&#45;&gt;Node2</title>
<path fill="none" stroke="midnightblue" d="M153.51,-112.32C135.46,-103.62 107.45,-90.12 86.7,-80.11"/>
<polygon fill="midnightblue" stroke="midnightblue" points="87.98,-76.84 77.45,-75.65 84.94,-83.15 87.98,-76.84"/>
</g>
<!-- Node5 -->
<g id="node5" class="node">
<title>Node5</title>
<g id="a_node5"><a xlink:title=" ">
<polygon fill="white" stroke="#bfbfbf" points="118.5,-56.5 118.5,-75.5 162.5,-75.5 162.5,-56.5 118.5,-56.5"/>
<text text-anchor="middle" x="140.5" y="-63.5" font-family="Helvetica,sans-Serif" font-size="10.00">cerrno</text>
</a>
</g>
</g>
<!-- Node1&#45;&gt;Node5 -->
<g id="edge4" class="edge">
<title>Node1&#45;&gt;Node5</title>
<path fill="none" stroke="midnightblue" d="M166.38,-112.08C162.09,-104.61 155.84,-93.72 150.56,-84.52"/>
<polygon fill="midnightblue" stroke="midnightblue" points="153.54,-82.68 145.52,-75.75 147.47,-86.17 153.54,-82.68"/>
</g>
<!-- Node6 -->
<g id="node6" class="node">
<title>Node6</title>
<g id="a_node6"><a xlink:title=" ">
<polygon fill="white" stroke="#bfbfbf" points="181,-56.5 181,-75.5 226,-75.5 226,-56.5 181,-56.5"/>
<text text-anchor="middle" x="203.5" y="-63.5" font-family="Helvetica,sans-Serif" font-size="10.00">climits</text>
</a>
</g>
</g>
<!-- Node1&#45;&gt;Node6 -->
<g id="edge5" class="edge">
<title>Node1&#45;&gt;Node6</title>
<path fill="none" stroke="midnightblue" d="M176.78,-112.08C181.21,-104.61 187.66,-93.72 193.12,-84.52"/>
<polygon fill="midnightblue" stroke="midnightblue" points="196.23,-86.14 198.31,-75.75 190.21,-82.57 196.23,-86.14"/>
</g>
<!-- Node7 -->
<g id="node7" class="node">
<title>Node7</title>
<g id="a_node7"><a xlink:title=" ">
<polygon fill="white" stroke="#bfbfbf" points="244,-56.5 244,-75.5 289,-75.5 289,-56.5 244,-56.5"/>
<text text-anchor="middle" x="266.5" y="-63.5" font-family="Helvetica,sans-Serif" font-size="10.00">cstdlib</text>
</a>
</g>
</g>
<!-- Node1&#45;&gt;Node7 -->
<g id="edge6" class="edge">
<title>Node1&#45;&gt;Node7</title>
<path fill="none" stroke="midnightblue" d="M186.76,-112.32C201.72,-103.82 224.75,-90.73 242.23,-80.8"/>
<polygon fill="midnightblue" stroke="midnightblue" points="244.31,-83.64 251.27,-75.65 240.85,-77.55 244.31,-83.64"/>
</g>
<!-- Node3 -->
<g id="node3" class="node">
<title>Node3</title>
<g id="a_node3"><a xlink:title=" ">
<polygon fill="white" stroke="#bfbfbf" points="0,-0.5 0,-19.5 41,-19.5 41,-0.5 0,-0.5"/>
<text text-anchor="middle" x="20.5" y="-7.5" font-family="Helvetica,sans-Serif" font-size="10.00">string</text>
</a>
</g>
</g>
<!-- Node2&#45;&gt;Node3 -->
<g id="edge2" class="edge">
<title>Node2&#45;&gt;Node3</title>
<path fill="none" stroke="midnightblue" d="M53.06,-56.08C47.55,-48.46 39.47,-37.26 32.74,-27.94"/>
<polygon fill="midnightblue" stroke="midnightblue" points="35.51,-25.81 26.82,-19.75 29.84,-29.91 35.51,-25.81"/>
</g>
<!-- Node4 -->
<g id="node4" class="node">
<title>Node4</title>
<g id="a_node4"><a xlink:title=" ">
<polygon fill="white" stroke="#bfbfbf" points="59,-0.5 59,-19.5 138,-19.5 138,-0.5 59,-0.5"/>
<text text-anchor="middle" x="98.5" y="-7.5" font-family="Helvetica,sans-Serif" font-size="10.00">StringUtils.tpp</text>
</a>
</g>
</g>
<!-- Node2&#45;&gt;Node4 -->
<g id="edge3" class="edge">
<title>Node2&#45;&gt;Node4</title>
<path fill="none" stroke="midnightblue" d="M65.94,-56.08C71.45,-48.46 79.53,-37.26 86.26,-27.94"/>
<polygon fill="midnightblue" stroke="midnightblue" points="89.16,-29.91 92.18,-19.75 83.49,-25.81 89.16,-29.91"/>
</g>
</g>
</svg>
