<?xml version="1.0" encoding="UTF-8" standalone="no"?>
<!DOCTYPE svg PUBLIC "-//W3C//DTD SVG 1.1//EN"
 "http://www.w3.org/Graphics/SVG/1.1/DTD/svg11.dtd">
<!-- Generated by graphviz version 2.43.0 (0)
 -->
<!-- Title: src/config/ConfigUtils.cpp Pages: 1 -->
<svg width="920pt" height="196pt"
 viewBox="0.00 0.00 919.50 196.00" xmlns="http://www.w3.org/2000/svg" xmlns:xlink="http://www.w3.org/1999/xlink">
<g id="graph0" class="graph" transform="scale(1 1) rotate(0) translate(4 192)">
<title>src/config/ConfigUtils.cpp</title>
<polygon fill="white" stroke="transparent" points="-4,4 -4,-192 915.5,-192 915.5,4 -4,4"/>
<!-- Node1 -->
<g id="node1" class="node">
<title>Node1</title>
<g id="a_node1"><a xlink:title=" ">
<polygon fill="#bfbfbf" stroke="black" points="398,-168.5 398,-187.5 528,-187.5 528,-168.5 398,-168.5"/>
<text text-anchor="middle" x="463" y="-175.5" font-family="Helvetica,sans-Serif" font-size="10.00">src/config/ConfigUtils.cpp</text>
</a>
</g>
</g>
<!-- Node2 -->
<g id="node2" class="node">
<title>Node2</title>
<g id="a_node2"><a xlink:href="ConfigUtils_8hpp.html" target="_top" xlink:title=" ">
<polygon fill="white" stroke="black" points="0,-112.5 0,-131.5 84,-131.5 84,-112.5 0,-112.5"/>
<text text-anchor="middle" x="42" y="-119.5" font-family="Helvetica,sans-Serif" font-size="10.00">ConfigUtils.hpp</text>
</a>
</g>
</g>
<!-- Node1&#45;&gt;Node2 -->
<g id="edge1" class="edge">
<title>Node1&#45;&gt;Node2</title>
<path fill="none" stroke="midnightblue" d="M397.69,-170.13C325.82,-162.33 206.64,-148.68 94.41,-132.14"/>
<polygon fill="midnightblue" stroke="midnightblue" points="94.68,-128.65 84.27,-130.64 93.65,-135.57 94.68,-128.65"/>
</g>
<!-- Node6 -->
<g id="node6" class="node">
<title>Node6</title>
<g id="a_node6"><a xlink:title=" ">
<polygon fill="white" stroke="#bfbfbf" points="102,-112.5 102,-131.5 162,-131.5 162,-112.5 102,-112.5"/>
<text text-anchor="middle" x="132" y="-119.5" font-family="Helvetica,sans-Serif" font-size="10.00">sys/stat.h</text>
</a>
</g>
</g>
<!-- Node1&#45;&gt;Node6 -->
<g id="edge5" class="edge">
<title>Node1&#45;&gt;Node6</title>
<path fill="none" stroke="midnightblue" d="M398.68,-168.48C341.62,-160.6 255.79,-147.99 172.11,-132.1"/>
<polygon fill="midnightblue" stroke="midnightblue" points="172.67,-128.64 162.19,-130.2 171.35,-135.52 172.67,-128.64"/>
</g>
<!-- Node7 -->
<g id="node7" class="node">
<title>Node7</title>
<g id="a_node7"><a xlink:title=" ">
<polygon fill="white" stroke="#bfbfbf" points="180,-112.5 180,-131.5 248,-131.5 248,-112.5 180,-112.5"/>
<text text-anchor="middle" x="214" y="-119.5" font-family="Helvetica,sans-Serif" font-size="10.00">sys/types.h</text>
</a>
</g>
</g>
<!-- Node1&#45;&gt;Node7 -->
<g id="edge6" class="edge">
<title>Node1&#45;&gt;Node7</title>
<path fill="none" stroke="midnightblue" d="M423.55,-168.44C378.45,-158.66 304.83,-142.7 257.94,-132.53"/>
<polygon fill="midnightblue" stroke="midnightblue" points="258.58,-129.09 248.07,-130.39 257.1,-135.93 258.58,-129.09"/>
</g>
<!-- Node8 -->
<g id="node8" class="node">
<title>Node8</title>
<g id="a_node8"><a xlink:title=" ">
<polygon fill="white" stroke="#bfbfbf" points="266.5,-112.5 266.5,-131.5 317.5,-131.5 317.5,-112.5 266.5,-112.5"/>
<text text-anchor="middle" x="292" y="-119.5" font-family="Helvetica,sans-Serif" font-size="10.00">unistd.h</text>
</a>
</g>
</g>
<!-- Node1&#45;&gt;Node8 -->
<g id="edge7" class="edge">
<title>Node1&#45;&gt;Node8</title>
<path fill="none" stroke="midnightblue" d="M435.9,-168.44C406.59,-159.19 359.72,-144.39 327.48,-134.21"/>
<polygon fill="midnightblue" stroke="midnightblue" points="328.16,-130.75 317.57,-131.08 326.05,-137.42 328.16,-130.75"/>
</g>
<!-- Node9 -->
<g id="node9" class="node">
<title>Node9</title>
<g id="a_node9"><a xlink:title=" ">
<polygon fill="white" stroke="#bfbfbf" points="336,-112.5 336,-131.5 392,-131.5 392,-112.5 336,-112.5"/>
<text text-anchor="middle" x="364" y="-119.5" font-family="Helvetica,sans-Serif" font-size="10.00">algorithm</text>
</a>
</g>
</g>
<!-- Node1&#45;&gt;Node9 -->
<g id="edge8" class="edge">
<title>Node1&#45;&gt;Node9</title>
<path fill="none" stroke="midnightblue" d="M447.09,-168.32C431.36,-159.74 407.06,-146.49 388.79,-136.52"/>
<polygon fill="midnightblue" stroke="midnightblue" points="390.32,-133.37 379.87,-131.65 386.97,-139.52 390.32,-133.37"/>
</g>
<!-- Node10 -->
<g id="node10" class="node">
<title>Node10</title>
<g id="a_node10"><a xlink:title=" ">
<polygon fill="white" stroke="#bfbfbf" points="410,-112.5 410,-131.5 454,-131.5 454,-112.5 410,-112.5"/>
<text text-anchor="middle" x="432" y="-119.5" font-family="Helvetica,sans-Serif" font-size="10.00">cerrno</text>
</a>
</g>
</g>
<!-- Node1&#45;&gt;Node10 -->
<g id="edge9" class="edge">
<title>Node1&#45;&gt;Node10</title>
<path fill="none" stroke="midnightblue" d="M457.88,-168.08C453.59,-160.61 447.34,-149.72 442.06,-140.52"/>
<polygon fill="midnightblue" stroke="midnightblue" points="445.04,-138.68 437.02,-131.75 438.97,-142.17 445.04,-138.68"/>
</g>
<!-- Node11 -->
<g id="node11" class="node">
<title>Node11</title>
<g id="a_node11"><a xlink:title=" ">
<polygon fill="white" stroke="#bfbfbf" points="472,-112.5 472,-131.5 518,-131.5 518,-112.5 472,-112.5"/>
<text text-anchor="middle" x="495" y="-119.5" font-family="Helvetica,sans-Serif" font-size="10.00">cstring</text>
</a>
</g>
</g>
<!-- Node1&#45;&gt;Node11 -->
<g id="edge10" class="edge">
<title>Node1&#45;&gt;Node11</title>
<path fill="none" stroke="midnightblue" d="M468.28,-168.08C472.71,-160.61 479.16,-149.72 484.62,-140.52"/>
<polygon fill="midnightblue" stroke="midnightblue" points="487.73,-142.14 489.81,-131.75 481.71,-138.57 487.73,-142.14"/>
</g>
<!-- Node12 -->
<g id="node12" class="node">
<title>Node12</title>
<g id="a_node12"><a xlink:title=" ">
<polygon fill="white" stroke="#bfbfbf" points="536,-112.5 536,-131.5 586,-131.5 586,-112.5 536,-112.5"/>
<text text-anchor="middle" x="561" y="-119.5" font-family="Helvetica,sans-Serif" font-size="10.00">fstream</text>
</a>
</g>
</g>
<!-- Node1&#45;&gt;Node12 -->
<g id="edge11" class="edge">
<title>Node1&#45;&gt;Node12</title>
<path fill="none" stroke="midnightblue" d="M478.75,-168.32C494.32,-159.74 518.38,-146.49 536.46,-136.52"/>
<polygon fill="midnightblue" stroke="midnightblue" points="538.22,-139.55 545.29,-131.65 534.85,-133.42 538.22,-139.55"/>
</g>
<!-- Node13 -->
<g id="node13" class="node">
<title>Node13</title>
<g id="a_node13"><a xlink:title=" ">
<polygon fill="white" stroke="#bfbfbf" points="604,-112.5 604,-131.5 658,-131.5 658,-112.5 604,-112.5"/>
<text text-anchor="middle" x="631" y="-119.5" font-family="Helvetica,sans-Serif" font-size="10.00">iostream</text>
</a>
</g>
</g>
<!-- Node1&#45;&gt;Node13 -->
<g id="edge12" class="edge">
<title>Node1&#45;&gt;Node13</title>
<path fill="none" stroke="midnightblue" d="M489.62,-168.44C518.01,-159.32 563.14,-144.81 594.75,-134.65"/>
<polygon fill="midnightblue" stroke="midnightblue" points="596.06,-137.91 604.5,-131.52 593.91,-131.24 596.06,-137.91"/>
</g>
<!-- Node14 -->
<g id="node14" class="node">
<title>Node14</title>
<g id="a_node14"><a xlink:title=" ">
<polygon fill="white" stroke="#bfbfbf" points="676,-112.5 676,-131.5 716,-131.5 716,-112.5 676,-112.5"/>
<text text-anchor="middle" x="696" y="-119.5" font-family="Helvetica,sans-Serif" font-size="10.00">limits</text>
</a>
</g>
</g>
<!-- Node1&#45;&gt;Node14 -->
<g id="edge13" class="edge">
<title>Node1&#45;&gt;Node14</title>
<path fill="none" stroke="midnightblue" d="M506.63,-168.48C546,-160.54 605.69,-147.9 666.08,-132.08"/>
<polygon fill="midnightblue" stroke="midnightblue" points="667.01,-135.45 675.78,-129.51 665.22,-128.69 667.01,-135.45"/>
</g>
<!-- Node15 -->
<g id="node15" class="node">
<title>Node15</title>
<g id="a_node15"><a xlink:title=" ">
<polygon fill="white" stroke="#bfbfbf" points="734,-112.5 734,-131.5 786,-131.5 786,-112.5 734,-112.5"/>
<text text-anchor="middle" x="760" y="-119.5" font-family="Helvetica,sans-Serif" font-size="10.00">sstream</text>
</a>
</g>
</g>
<!-- Node1&#45;&gt;Node15 -->
<g id="edge14" class="edge">
<title>Node1&#45;&gt;Node15</title>
<path fill="none" stroke="midnightblue" d="M520.76,-168.47C571.73,-160.62 648.24,-148.09 723.55,-132.18"/>
<polygon fill="midnightblue" stroke="midnightblue" points="724.63,-135.52 733.68,-130.01 723.17,-128.68 724.63,-135.52"/>
</g>
<!-- Node16 -->
<g id="node16" class="node">
<title>Node16</title>
<g id="a_node16"><a xlink:href="ConfigException_8hpp.html" target="_top" xlink:title=" ">
<polygon fill="white" stroke="black" points="804.5,-112.5 804.5,-131.5 911.5,-131.5 911.5,-112.5 804.5,-112.5"/>
<text text-anchor="middle" x="858" y="-119.5" font-family="Helvetica,sans-Serif" font-size="10.00">ConfigException.hpp</text>
</a>
</g>
</g>
<!-- Node1&#45;&gt;Node16 -->
<g id="edge15" class="edge">
<title>Node1&#45;&gt;Node16</title>
<path fill="none" stroke="midnightblue" d="M526.97,-168.47C591.69,-159.8 694.9,-145.9 794.46,-132.07"/>
<polygon fill="midnightblue" stroke="midnightblue" points="794.97,-135.53 804.39,-130.69 794,-128.6 794.97,-135.53"/>
</g>
<!-- Node3 -->
<g id="node3" class="node">
<title>Node3</title>
<g id="a_node3"><a xlink:title=" ">
<polygon fill="white" stroke="#bfbfbf" points="20,-56.5 20,-75.5 64,-75.5 64,-56.5 20,-56.5"/>
<text text-anchor="middle" x="42" y="-63.5" font-family="Helvetica,sans-Serif" font-size="10.00">vector</text>
</a>
</g>
</g>
<!-- Node2&#45;&gt;Node3 -->
<g id="edge2" class="edge">
<title>Node2&#45;&gt;Node3</title>
<path fill="none" stroke="midnightblue" d="M42,-112.08C42,-105.01 42,-94.86 42,-85.99"/>
<polygon fill="midnightblue" stroke="midnightblue" points="45.5,-85.75 42,-75.75 38.5,-85.75 45.5,-85.75"/>
</g>
<!-- Node4 -->
<g id="node4" class="node">
<title>Node4</title>
<g id="a_node4"><a xlink:href="namespaces_8hpp.html" target="_top" xlink:title=" ">
<polygon fill="white" stroke="black" points="222.5,-56.5 222.5,-75.5 353.5,-75.5 353.5,-56.5 222.5,-56.5"/>
<text text-anchor="middle" x="288" y="-63.5" font-family="Helvetica,sans-Serif" font-size="10.00">common/namespaces.hpp</text>
</a>
</g>
</g>
<!-- Node2&#45;&gt;Node4 -->
<g id="edge3" class="edge">
<title>Node2&#45;&gt;Node4</title>
<path fill="none" stroke="midnightblue" d="M80.98,-112.44C123.89,-103.02 192.95,-87.87 239.37,-77.68"/>
<polygon fill="midnightblue" stroke="midnightblue" points="240.19,-81.08 249.2,-75.52 238.69,-74.24 240.19,-81.08"/>
</g>
<!-- Node5 -->
<g id="node5" class="node">
<title>Node5</title>
<g id="a_node5"><a xlink:title=" ">
<polygon fill="white" stroke="#bfbfbf" points="314.5,-0.5 314.5,-19.5 355.5,-19.5 355.5,-0.5 314.5,-0.5"/>
<text text-anchor="middle" x="335" y="-7.5" font-family="Helvetica,sans-Serif" font-size="10.00">string</text>
</a>
</g>
</g>
<!-- Node4&#45;&gt;Node5 -->
<g id="edge4" class="edge">
<title>Node4&#45;&gt;Node5</title>
<path fill="none" stroke="midnightblue" d="M295.76,-56.08C302.54,-48.3 312.54,-36.8 320.76,-27.37"/>
<polygon fill="midnightblue" stroke="midnightblue" points="323.46,-29.59 327.38,-19.75 318.18,-25 323.46,-29.59"/>
</g>
<!-- Node16&#45;&gt;Node5 -->
<g id="edge17" class="edge">
<title>Node16&#45;&gt;Node5</title>
<path fill="none" stroke="midnightblue" d="M817.4,-112.46C716.28,-91.19 454.93,-36.22 365.52,-17.42"/>
<polygon fill="midnightblue" stroke="midnightblue" points="366.24,-13.99 355.73,-15.36 364.8,-20.84 366.24,-13.99"/>
</g>
<!-- Node17 -->
<g id="node17" class="node">
<title>Node17</title>
<g id="a_node17"><a xlink:title=" ">
<polygon fill="white" stroke="#bfbfbf" points="828.5,-56.5 828.5,-75.5 887.5,-75.5 887.5,-56.5 828.5,-56.5"/>
<text text-anchor="middle" x="858" y="-63.5" font-family="Helvetica,sans-Serif" font-size="10.00">exception</text>
</a>
</g>
</g>
<!-- Node16&#45;&gt;Node17 -->
<g id="edge16" class="edge">
<title>Node16&#45;&gt;Node17</title>
<path fill="none" stroke="midnightblue" d="M858,-112.08C858,-105.01 858,-94.86 858,-85.99"/>
<polygon fill="midnightblue" stroke="midnightblue" points="861.5,-85.75 858,-75.75 854.5,-85.75 861.5,-85.75"/>
</g>
</g>
</svg>
