<?xml version="1.0" encoding="UTF-8" standalone="no"?>
<!DOCTYPE svg PUBLIC "-//W3C//DTD SVG 1.1//EN"
 "http://www.w3.org/Graphics/SVG/1.1/DTD/svg11.dtd">
<!-- Generated by graphviz version 2.43.0 (0)
 -->
<!-- Title: src/config/ConfigException.cpp Pages: 1 -->
<svg width="161pt" height="140pt"
 viewBox="0.00 0.00 161.00 140.00" xmlns="http://www.w3.org/2000/svg" xmlns:xlink="http://www.w3.org/1999/xlink">
<g id="graph0" class="graph" transform="scale(1 1) rotate(0) translate(4 136)">
<title>src/config/ConfigException.cpp</title>
<polygon fill="white" stroke="transparent" points="-4,4 -4,-136 157,-136 157,4 -4,4"/>
<!-- Node1 -->
<g id="node1" class="node">
<title>Node1</title>
<g id="a_node1"><a xlink:title=" ">
<polygon fill="#bfbfbf" stroke="black" points="0,-112.5 0,-131.5 153,-131.5 153,-112.5 0,-112.5"/>
<text text-anchor="middle" x="76.5" y="-119.5" font-family="Helvetica,sans-Serif" font-size="10.00">src/config/ConfigException.cpp</text>
</a>
</g>
</g>
<!-- Node2 -->
<g id="node2" class="node">
<title>Node2</title>
<g id="a_node2"><a xlink:href="ConfigException_8hpp.html" target="_top" xlink:title=" ">
<polygon fill="white" stroke="black" points="23,-56.5 23,-75.5 130,-75.5 130,-56.5 23,-56.5"/>
<text text-anchor="middle" x="76.5" y="-63.5" font-family="Helvetica,sans-Serif" font-size="10.00">ConfigException.hpp</text>
</a>
</g>
</g>
<!-- Node1&#45;&gt;Node2 -->
<g id="edge1" class="edge">
<title>Node1&#45;&gt;Node2</title>
<path fill="none" stroke="midnightblue" d="M76.5,-112.08C76.5,-105.01 76.5,-94.86 76.5,-85.99"/>
<polygon fill="midnightblue" stroke="midnightblue" points="80,-85.75 76.5,-75.75 73,-85.75 80,-85.75"/>
</g>
<!-- Node3 -->
<g id="node3" class="node">
<title>Node3</title>
<g id="a_node3"><a xlink:title=" ">
<polygon fill="white" stroke="#bfbfbf" points="13,-0.5 13,-19.5 72,-19.5 72,-0.5 13,-0.5"/>
<text text-anchor="middle" x="42.5" y="-7.5" font-family="Helvetica,sans-Serif" font-size="10.00">exception</text>
</a>
</g>
</g>
<!-- Node2&#45;&gt;Node3 -->
<g id="edge2" class="edge">
<title>Node2&#45;&gt;Node3</title>
<path fill="none" stroke="midnightblue" d="M70.89,-56.08C66.13,-48.53 59.18,-37.49 53.35,-28.23"/>
<polygon fill="midnightblue" stroke="midnightblue" points="56.3,-26.35 48.01,-19.75 50.38,-30.08 56.3,-26.35"/>
</g>
<!-- Node4 -->
<g id="node4" class="node">
<title>Node4</title>
<g id="a_node4"><a xlink:title=" ">
<polygon fill="white" stroke="#bfbfbf" points="90,-0.5 90,-19.5 131,-19.5 131,-0.5 90,-0.5"/>
<text text-anchor="middle" x="110.5" y="-7.5" font-family="Helvetica,sans-Serif" font-size="10.00">string</text>
</a>
</g>
</g>
<!-- Node2&#45;&gt;Node4 -->
<g id="edge3" class="edge">
<title>Node2&#45;&gt;Node4</title>
<path fill="none" stroke="midnightblue" d="M82.11,-56.08C86.87,-48.53 93.82,-37.49 99.65,-28.23"/>
<polygon fill="midnightblue" stroke="midnightblue" points="102.62,-30.08 104.99,-19.75 96.7,-26.35 102.62,-30.08"/>
</g>
</g>
</svg>
