<?xml version="1.0" encoding="UTF-8" standalone="no"?>
<!DOCTYPE svg PUBLIC "-//W3C//DTD SVG 1.1//EN"
 "http://www.w3.org/Graphics/SVG/1.1/DTD/svg11.dtd">
<!-- Generated by graphviz version 2.43.0 (0)
 -->
<!-- Title: src/config/ConfigParser.hpp Pages: 1 -->
<svg width="600pt" height="196pt"
 viewBox="0.00 0.00 600.16 196.00" xmlns="http://www.w3.org/2000/svg" xmlns:xlink="http://www.w3.org/1999/xlink">
<g id="graph0" class="graph" transform="scale(1 1) rotate(0) translate(4 192)">
<title>src/config/ConfigParser.hpp</title>
<polygon fill="white" stroke="transparent" points="-4,4 -4,-192 596.16,-192 596.16,4 -4,4"/>
<!-- Node1 -->
<g id="node1" class="node">
<title>Node1</title>
<g id="a_node1"><a xlink:title=" ">
<polygon fill="#bfbfbf" stroke="black" points="75.5,-168.5 75.5,-187.5 212.5,-187.5 212.5,-168.5 75.5,-168.5"/>
<text text-anchor="middle" x="144" y="-175.5" font-family="Helvetica,sans-Serif" font-size="10.00">src/config/ConfigParser.hpp</text>
</a>
</g>
</g>
<!-- Node2 -->
<g id="node2" class="node">
<title>Node2</title>
<g id="a_node2"><a xlink:title=" ">
<polygon fill="white" stroke="#bfbfbf" points="0,-112.5 0,-131.5 50,-131.5 50,-112.5 0,-112.5"/>
<text text-anchor="middle" x="25" y="-119.5" font-family="Helvetica,sans-Serif" font-size="10.00">fstream</text>
</a>
</g>
</g>
<!-- Node1&#45;&gt;Node2 -->
<g id="edge1" class="edge">
<title>Node1&#45;&gt;Node2</title>
<path fill="none" stroke="midnightblue" d="M125.14,-168.44C105.73,-159.64 75.27,-145.81 53.04,-135.72"/>
<polygon fill="midnightblue" stroke="midnightblue" points="54.32,-132.46 43.77,-131.52 51.43,-138.84 54.32,-132.46"/>
</g>
<!-- Node3 -->
<g id="node3" class="node">
<title>Node3</title>
<g id="a_node3"><a xlink:title=" ">
<polygon fill="white" stroke="#bfbfbf" points="68.5,-112.5 68.5,-131.5 115.5,-131.5 115.5,-112.5 68.5,-112.5"/>
<text text-anchor="middle" x="92" y="-119.5" font-family="Helvetica,sans-Serif" font-size="10.00">iterator</text>
</a>
</g>
</g>
<!-- Node1&#45;&gt;Node3 -->
<g id="edge2" class="edge">
<title>Node1&#45;&gt;Node3</title>
<path fill="none" stroke="midnightblue" d="M135.41,-168.08C127.84,-160.22 116.62,-148.57 107.49,-139.08"/>
<polygon fill="midnightblue" stroke="midnightblue" points="109.88,-136.53 100.43,-131.75 104.84,-141.38 109.88,-136.53"/>
</g>
<!-- Node4 -->
<g id="node4" class="node">
<title>Node4</title>
<g id="a_node4"><a xlink:title=" ">
<polygon fill="white" stroke="#bfbfbf" points="410.5,-0.5 410.5,-19.5 451.5,-19.5 451.5,-0.5 410.5,-0.5"/>
<text text-anchor="middle" x="431" y="-7.5" font-family="Helvetica,sans-Serif" font-size="10.00">string</text>
</a>
</g>
</g>
<!-- Node1&#45;&gt;Node4 -->
<g id="edge3" class="edge">
<title>Node1&#45;&gt;Node4</title>
<path fill="none" stroke="midnightblue" d="M212.95,-171.52C325.21,-161.01 539.6,-133.72 585,-76 619.4,-32.27 515.9,-17.58 461.76,-12.96"/>
<polygon fill="midnightblue" stroke="midnightblue" points="461.89,-9.46 451.64,-12.17 461.34,-16.44 461.89,-9.46"/>
</g>
<!-- Node5 -->
<g id="node5" class="node">
<title>Node5</title>
<g id="a_node5"><a xlink:title=" ">
<polygon fill="white" stroke="#bfbfbf" points="160,-0.5 160,-19.5 204,-19.5 204,-0.5 160,-0.5"/>
<text text-anchor="middle" x="182" y="-7.5" font-family="Helvetica,sans-Serif" font-size="10.00">vector</text>
</a>
</g>
</g>
<!-- Node1&#45;&gt;Node5 -->
<g id="edge4" class="edge">
<title>Node1&#45;&gt;Node5</title>
<path fill="none" stroke="midnightblue" d="M146.04,-168.08C152.02,-141.95 169.59,-65.21 177.75,-29.58"/>
<polygon fill="midnightblue" stroke="midnightblue" points="181.22,-30.1 180.04,-19.57 174.4,-28.53 181.22,-30.1"/>
</g>
<!-- Node6 -->
<g id="node6" class="node">
<title>Node6</title>
<g id="a_node6"><a xlink:href="ServerConfig_8hpp.html" target="_top" xlink:title=" ">
<polygon fill="white" stroke="black" points="253,-112.5 253,-131.5 345,-131.5 345,-112.5 253,-112.5"/>
<text text-anchor="middle" x="299" y="-119.5" font-family="Helvetica,sans-Serif" font-size="10.00">ServerConfig.hpp</text>
</a>
</g>
</g>
<!-- Node1&#45;&gt;Node6 -->
<g id="edge5" class="edge">
<title>Node1&#45;&gt;Node6</title>
<path fill="none" stroke="midnightblue" d="M168.56,-168.44C194.52,-159.4 235.67,-145.06 264.8,-134.92"/>
<polygon fill="midnightblue" stroke="midnightblue" points="266.26,-138.11 274.55,-131.52 263.96,-131.5 266.26,-138.11"/>
</g>
<!-- Node6&#45;&gt;Node4 -->
<g id="edge8" class="edge">
<title>Node6&#45;&gt;Node4</title>
<path fill="none" stroke="midnightblue" d="M317.56,-112.41C333.9,-104.34 357.86,-91.24 376,-76 392.9,-61.8 408.79,-42.06 419.11,-28.06"/>
<polygon fill="midnightblue" stroke="midnightblue" points="422.04,-29.98 425.03,-19.82 416.36,-25.89 422.04,-29.98"/>
</g>
<!-- Node6&#45;&gt;Node5 -->
<g id="edge9" class="edge">
<title>Node6&#45;&gt;Node5</title>
<path fill="none" stroke="midnightblue" d="M283.62,-112.37C269.58,-104.08 248.7,-90.68 233,-76 217.51,-61.51 202.9,-42.07 193.32,-28.24"/>
<polygon fill="midnightblue" stroke="midnightblue" points="196.04,-26.01 187.54,-19.68 190.24,-29.93 196.04,-26.01"/>
</g>
<!-- Node7 -->
<g id="node7" class="node">
<title>Node7</title>
<g id="a_node7"><a xlink:title=" ">
<polygon fill="white" stroke="#bfbfbf" points="249,-0.5 249,-19.5 303,-19.5 303,-0.5 249,-0.5"/>
<text text-anchor="middle" x="276" y="-7.5" font-family="Helvetica,sans-Serif" font-size="10.00">iostream</text>
</a>
</g>
</g>
<!-- Node6&#45;&gt;Node7 -->
<g id="edge6" class="edge">
<title>Node6&#45;&gt;Node7</title>
<path fill="none" stroke="midnightblue" d="M279.7,-112.48C265.57,-105.08 247.44,-92.89 239,-76 230.36,-58.72 244.26,-39.57 257.42,-26.56"/>
<polygon fill="midnightblue" stroke="midnightblue" points="259.92,-29.02 264.91,-19.67 255.18,-23.86 259.92,-29.02"/>
</g>
<!-- Node8 -->
<g id="node8" class="node">
<title>Node8</title>
<g id="a_node8"><a xlink:title=" ">
<polygon fill="white" stroke="#bfbfbf" points="345.5,-0.5 345.5,-19.5 380.5,-19.5 380.5,-0.5 345.5,-0.5"/>
<text text-anchor="middle" x="363" y="-7.5" font-family="Helvetica,sans-Serif" font-size="10.00">map</text>
</a>
</g>
</g>
<!-- Node6&#45;&gt;Node8 -->
<g id="edge7" class="edge">
<title>Node6&#45;&gt;Node8</title>
<path fill="none" stroke="midnightblue" d="M317.34,-112.37C331.09,-104.84 349.02,-92.52 358,-76 365.69,-61.86 366.38,-43.38 365.47,-29.74"/>
<polygon fill="midnightblue" stroke="midnightblue" points="368.94,-29.22 364.45,-19.62 361.97,-29.92 368.94,-29.22"/>
</g>
<!-- Node9 -->
<g id="node9" class="node">
<title>Node9</title>
<g id="a_node9"><a xlink:href="LocationConfig_8hpp.html" target="_top" xlink:title=" ">
<polygon fill="white" stroke="black" points="248.5,-56.5 248.5,-75.5 349.5,-75.5 349.5,-56.5 248.5,-56.5"/>
<text text-anchor="middle" x="299" y="-63.5" font-family="Helvetica,sans-Serif" font-size="10.00">LocationConfig.hpp</text>
</a>
</g>
</g>
<!-- Node6&#45;&gt;Node9 -->
<g id="edge10" class="edge">
<title>Node6&#45;&gt;Node9</title>
<path fill="none" stroke="midnightblue" d="M299,-112.08C299,-105.01 299,-94.86 299,-85.99"/>
<polygon fill="midnightblue" stroke="midnightblue" points="302.5,-85.75 299,-75.75 295.5,-85.75 302.5,-85.75"/>
</g>
<!-- Node10 -->
<g id="node10" class="node">
<title>Node10</title>
<g id="a_node10"><a xlink:href="namespaces_8hpp.html" target="_top" xlink:title=" ">
<polygon fill="white" stroke="black" points="444.5,-56.5 444.5,-75.5 575.5,-75.5 575.5,-56.5 444.5,-56.5"/>
<text text-anchor="middle" x="510" y="-63.5" font-family="Helvetica,sans-Serif" font-size="10.00">common/namespaces.hpp</text>
</a>
</g>
</g>
<!-- Node6&#45;&gt;Node10 -->
<g id="edge15" class="edge">
<title>Node6&#45;&gt;Node10</title>
<path fill="none" stroke="midnightblue" d="M332.43,-112.44C368.86,-103.12 427.23,-88.18 467.03,-78"/>
<polygon fill="midnightblue" stroke="midnightblue" points="467.9,-81.39 476.72,-75.52 466.17,-74.61 467.9,-81.39"/>
</g>
<!-- Node9&#45;&gt;Node4 -->
<g id="edge13" class="edge">
<title>Node9&#45;&gt;Node4</title>
<path fill="none" stroke="midnightblue" d="M319.92,-56.44C341.74,-47.52 376.15,-33.44 400.89,-23.32"/>
<polygon fill="midnightblue" stroke="midnightblue" points="402.25,-26.54 410.18,-19.52 399.6,-20.06 402.25,-26.54"/>
</g>
<!-- Node9&#45;&gt;Node5 -->
<g id="edge14" class="edge">
<title>Node9&#45;&gt;Node5</title>
<path fill="none" stroke="midnightblue" d="M280.46,-56.44C261.38,-47.64 231.43,-33.81 209.56,-23.72"/>
<polygon fill="midnightblue" stroke="midnightblue" points="211,-20.53 200.45,-19.52 208.07,-26.88 211,-20.53"/>
</g>
<!-- Node9&#45;&gt;Node7 -->
<g id="edge11" class="edge">
<title>Node9&#45;&gt;Node7</title>
<path fill="none" stroke="midnightblue" d="M295.2,-56.08C292.09,-48.77 287.58,-38.18 283.71,-29.1"/>
<polygon fill="midnightblue" stroke="midnightblue" points="286.87,-27.58 279.73,-19.75 280.43,-30.32 286.87,-27.58"/>
</g>
<!-- Node9&#45;&gt;Node8 -->
<g id="edge12" class="edge">
<title>Node9&#45;&gt;Node8</title>
<path fill="none" stroke="midnightblue" d="M309.28,-56.32C318.84,-48.26 333.28,-36.08 344.78,-26.37"/>
<polygon fill="midnightblue" stroke="midnightblue" points="347.14,-28.96 352.53,-19.83 342.63,-23.61 347.14,-28.96"/>
</g>
<!-- Node10&#45;&gt;Node4 -->
<g id="edge16" class="edge">
<title>Node10&#45;&gt;Node4</title>
<path fill="none" stroke="midnightblue" d="M497.31,-56.32C485.1,-47.98 466.42,-35.21 452,-25.35"/>
<polygon fill="midnightblue" stroke="midnightblue" points="453.89,-22.41 443.66,-19.65 449.94,-28.19 453.89,-22.41"/>
</g>
</g>
</svg>
