<?xml version="1.0" encoding="UTF-8" standalone="no"?>
<!DOCTYPE svg PUBLIC "-//W3C//DTD SVG 1.1//EN"
 "http://www.w3.org/Graphics/SVG/1.1/DTD/svg11.dtd">
<!-- Generated by graphviz version 2.43.0 (0)
 -->
<!-- Title: src/config/ConfigParser.cpp Pages: 1 -->
<svg width="815pt" height="252pt"
 viewBox="0.00 0.00 815.00 252.00" xmlns="http://www.w3.org/2000/svg" xmlns:xlink="http://www.w3.org/1999/xlink">
<g id="graph0" class="graph" transform="scale(1 1) rotate(0) translate(4 248)">
<title>src/config/ConfigParser.cpp</title>
<polygon fill="white" stroke="transparent" points="-4,4 -4,-248 811,-248 811,4 -4,4"/>
<!-- Node1 -->
<g id="node1" class="node">
<title>Node1</title>
<g id="a_node1"><a xlink:title=" ">
<polygon fill="#bfbfbf" stroke="black" points="456.5,-224.5 456.5,-243.5 593.5,-243.5 593.5,-224.5 456.5,-224.5"/>
<text text-anchor="middle" x="525" y="-231.5" font-family="Helvetica,sans-Serif" font-size="10.00">src/config/ConfigParser.cpp</text>
</a>
</g>
</g>
<!-- Node2 -->
<g id="node2" class="node">
<title>Node2</title>
<g id="a_node2"><a xlink:href="ConfigParser_8hpp.html" target="_top" xlink:title=" ">
<polygon fill="white" stroke="black" points="202,-168.5 202,-187.5 294,-187.5 294,-168.5 202,-168.5"/>
<text text-anchor="middle" x="248" y="-175.5" font-family="Helvetica,sans-Serif" font-size="10.00">ConfigParser.hpp</text>
</a>
</g>
</g>
<!-- Node1&#45;&gt;Node2 -->
<g id="edge1" class="edge">
<title>Node1&#45;&gt;Node2</title>
<path fill="none" stroke="midnightblue" d="M481.11,-224.44C432.48,-214.96 354.05,-199.67 301.78,-189.48"/>
<polygon fill="midnightblue" stroke="midnightblue" points="302.17,-185.99 291.69,-187.52 300.83,-192.87 302.17,-185.99"/>
</g>
<!-- Node10 -->
<g id="node10" class="node">
<title>Node10</title>
<g id="a_node10"><a xlink:href="LocationConfig_8hpp.html" target="_top" xlink:title=" ">
<polygon fill="white" stroke="black" points="79.5,-56.5 79.5,-75.5 180.5,-75.5 180.5,-56.5 79.5,-56.5"/>
<text text-anchor="middle" x="130" y="-63.5" font-family="Helvetica,sans-Serif" font-size="10.00">LocationConfig.hpp</text>
</a>
</g>
</g>
<!-- Node1&#45;&gt;Node10 -->
<g id="edge28" class="edge">
<title>Node1&#45;&gt;Node10</title>
<path fill="none" stroke="midnightblue" d="M456.31,-230.23C330.7,-223.49 72.24,-201.32 22,-132 3.16,-106 41.38,-88.46 77.45,-78.21"/>
<polygon fill="midnightblue" stroke="midnightblue" points="78.77,-81.48 87.52,-75.51 76.95,-74.72 78.77,-81.48"/>
</g>
<!-- Node11 -->
<g id="node11" class="node">
<title>Node11</title>
<g id="a_node11"><a xlink:href="namespaces_8hpp.html" target="_top" xlink:title=" ">
<polygon fill="white" stroke="black" points="389.5,-56.5 389.5,-75.5 520.5,-75.5 520.5,-56.5 389.5,-56.5"/>
<text text-anchor="middle" x="455" y="-63.5" font-family="Helvetica,sans-Serif" font-size="10.00">common/namespaces.hpp</text>
</a>
</g>
</g>
<!-- Node1&#45;&gt;Node11 -->
<g id="edge21" class="edge">
<title>Node1&#45;&gt;Node11</title>
<path fill="none" stroke="midnightblue" d="M520.84,-224.43C516.5,-215.42 509.58,-200.81 504,-188 488.23,-151.78 471.22,-108.79 461.97,-85.04"/>
<polygon fill="midnightblue" stroke="midnightblue" points="465.17,-83.63 458.29,-75.57 458.65,-86.16 465.17,-83.63"/>
</g>
<!-- Node12 -->
<g id="node12" class="node">
<title>Node12</title>
<g id="a_node12"><a xlink:title=" ">
<polygon fill="white" stroke="#bfbfbf" points="637.5,-168.5 637.5,-187.5 688.5,-187.5 688.5,-168.5 637.5,-168.5"/>
<text text-anchor="middle" x="663" y="-175.5" font-family="Helvetica,sans-Serif" font-size="10.00">unistd.h</text>
</a>
</g>
</g>
<!-- Node1&#45;&gt;Node12 -->
<g id="edge18" class="edge">
<title>Node1&#45;&gt;Node12</title>
<path fill="none" stroke="midnightblue" d="M546.87,-224.44C569.78,-215.48 605.98,-201.31 631.87,-191.18"/>
<polygon fill="midnightblue" stroke="midnightblue" points="633.2,-194.42 641.24,-187.52 630.65,-187.9 633.2,-194.42"/>
</g>
<!-- Node13 -->
<g id="node13" class="node">
<title>Node13</title>
<g id="a_node13"><a xlink:title=" ">
<polygon fill="white" stroke="#bfbfbf" points="707,-168.5 707,-187.5 737,-187.5 737,-168.5 707,-168.5"/>
<text text-anchor="middle" x="722" y="-175.5" font-family="Helvetica,sans-Serif" font-size="10.00">set</text>
</a>
</g>
</g>
<!-- Node1&#45;&gt;Node13 -->
<g id="edge19" class="edge">
<title>Node1&#45;&gt;Node13</title>
<path fill="none" stroke="midnightblue" d="M562.44,-224.45C595.63,-216.61 645.56,-204.18 697.19,-188.02"/>
<polygon fill="midnightblue" stroke="midnightblue" points="698.37,-191.31 706.85,-184.95 696.26,-184.64 698.37,-191.31"/>
</g>
<!-- Node14 -->
<g id="node14" class="node">
<title>Node14</title>
<g id="a_node14"><a xlink:title=" ">
<polygon fill="white" stroke="#bfbfbf" points="755,-168.5 755,-187.5 807,-187.5 807,-168.5 755,-168.5"/>
<text text-anchor="middle" x="781" y="-175.5" font-family="Helvetica,sans-Serif" font-size="10.00">sstream</text>
</a>
</g>
</g>
<!-- Node1&#45;&gt;Node14 -->
<g id="edge20" class="edge">
<title>Node1&#45;&gt;Node14</title>
<path fill="none" stroke="midnightblue" d="M570.43,-224.45C613.03,-216.28 678.72,-203.27 744.53,-188.25"/>
<polygon fill="midnightblue" stroke="midnightblue" points="745.7,-191.58 754.66,-185.93 744.13,-184.75 745.7,-191.58"/>
</g>
<!-- Node15 -->
<g id="node15" class="node">
<title>Node15</title>
<g id="a_node15"><a xlink:href="ConfigException_8hpp.html" target="_top" xlink:title=" ">
<polygon fill="white" stroke="black" points="512.5,-168.5 512.5,-187.5 619.5,-187.5 619.5,-168.5 512.5,-168.5"/>
<text text-anchor="middle" x="566" y="-175.5" font-family="Helvetica,sans-Serif" font-size="10.00">ConfigException.hpp</text>
</a>
</g>
</g>
<!-- Node1&#45;&gt;Node15 -->
<g id="edge22" class="edge">
<title>Node1&#45;&gt;Node15</title>
<path fill="none" stroke="midnightblue" d="M531.77,-224.08C537.56,-216.46 546.06,-205.26 553.14,-195.94"/>
<polygon fill="midnightblue" stroke="midnightblue" points="556.1,-197.83 559.36,-187.75 550.52,-193.6 556.1,-197.83"/>
</g>
<!-- Node17 -->
<g id="node17" class="node">
<title>Node17</title>
<g id="a_node17"><a xlink:href="ConfigUtils_8hpp.html" target="_top" xlink:title=" ">
<polygon fill="white" stroke="black" points="372,-112.5 372,-131.5 456,-131.5 456,-112.5 372,-112.5"/>
<text text-anchor="middle" x="414" y="-119.5" font-family="Helvetica,sans-Serif" font-size="10.00">ConfigUtils.hpp</text>
</a>
</g>
</g>
<!-- Node1&#45;&gt;Node17 -->
<g id="edge25" class="edge">
<title>Node1&#45;&gt;Node17</title>
<path fill="none" stroke="midnightblue" d="M513.13,-224.25C501.64,-215.56 483.96,-201.61 470,-188 454.25,-172.65 438.04,-153.38 427.14,-139.82"/>
<polygon fill="midnightblue" stroke="midnightblue" points="429.76,-137.49 420.8,-131.84 424.28,-141.84 429.76,-137.49"/>
</g>
<!-- Node3 -->
<g id="node3" class="node">
<title>Node3</title>
<g id="a_node3"><a xlink:title=" ">
<polygon fill="white" stroke="#bfbfbf" points="97,-112.5 97,-131.5 147,-131.5 147,-112.5 97,-112.5"/>
<text text-anchor="middle" x="122" y="-119.5" font-family="Helvetica,sans-Serif" font-size="10.00">fstream</text>
</a>
</g>
</g>
<!-- Node2&#45;&gt;Node3 -->
<g id="edge2" class="edge">
<title>Node2&#45;&gt;Node3</title>
<path fill="none" stroke="midnightblue" d="M228.03,-168.44C207.39,-159.6 174.94,-145.69 151.37,-135.59"/>
<polygon fill="midnightblue" stroke="midnightblue" points="152.44,-132.24 141.87,-131.52 149.68,-138.67 152.44,-132.24"/>
</g>
<!-- Node4 -->
<g id="node4" class="node">
<title>Node4</title>
<g id="a_node4"><a xlink:title=" ">
<polygon fill="white" stroke="#bfbfbf" points="31.5,-112.5 31.5,-131.5 78.5,-131.5 78.5,-112.5 31.5,-112.5"/>
<text text-anchor="middle" x="55" y="-119.5" font-family="Helvetica,sans-Serif" font-size="10.00">iterator</text>
</a>
</g>
</g>
<!-- Node2&#45;&gt;Node4 -->
<g id="edge3" class="edge">
<title>Node2&#45;&gt;Node4</title>
<path fill="none" stroke="midnightblue" d="M217.42,-168.44C182.25,-158.6 124.7,-142.5 88.39,-132.34"/>
<polygon fill="midnightblue" stroke="midnightblue" points="89.32,-128.97 78.75,-129.64 87.43,-135.71 89.32,-128.97"/>
</g>
<!-- Node5 -->
<g id="node5" class="node">
<title>Node5</title>
<g id="a_node5"><a xlink:title=" ">
<polygon fill="white" stroke="#bfbfbf" points="340.5,-0.5 340.5,-19.5 381.5,-19.5 381.5,-0.5 340.5,-0.5"/>
<text text-anchor="middle" x="361" y="-7.5" font-family="Helvetica,sans-Serif" font-size="10.00">string</text>
</a>
</g>
</g>
<!-- Node2&#45;&gt;Node5 -->
<g id="edge4" class="edge">
<title>Node2&#45;&gt;Node5</title>
<path fill="none" stroke="midnightblue" d="M254.96,-168.17C261.96,-159.19 272.99,-144.82 282,-132 307.49,-95.74 335.42,-51.9 350.28,-28.21"/>
<polygon fill="midnightblue" stroke="midnightblue" points="353.31,-29.98 355.64,-19.64 347.37,-26.27 353.31,-29.98"/>
</g>
<!-- Node6 -->
<g id="node6" class="node">
<title>Node6</title>
<g id="a_node6"><a xlink:title=" ">
<polygon fill="white" stroke="#bfbfbf" points="225,-0.5 225,-19.5 269,-19.5 269,-0.5 225,-0.5"/>
<text text-anchor="middle" x="247" y="-7.5" font-family="Helvetica,sans-Serif" font-size="10.00">vector</text>
</a>
</g>
</g>
<!-- Node2&#45;&gt;Node6 -->
<g id="edge5" class="edge">
<title>Node2&#45;&gt;Node6</title>
<path fill="none" stroke="midnightblue" d="M252.62,-168.34C257.06,-159.49 263.45,-145.22 266,-132 273.01,-95.6 261.67,-52.68 253.71,-28.98"/>
<polygon fill="midnightblue" stroke="midnightblue" points="257.01,-27.8 250.37,-19.54 250.41,-30.14 257.01,-27.8"/>
</g>
<!-- Node7 -->
<g id="node7" class="node">
<title>Node7</title>
<g id="a_node7"><a xlink:href="ServerConfig_8hpp.html" target="_top" xlink:title=" ">
<polygon fill="white" stroke="black" points="165,-112.5 165,-131.5 257,-131.5 257,-112.5 165,-112.5"/>
<text text-anchor="middle" x="211" y="-119.5" font-family="Helvetica,sans-Serif" font-size="10.00">ServerConfig.hpp</text>
</a>
</g>
</g>
<!-- Node2&#45;&gt;Node7 -->
<g id="edge6" class="edge">
<title>Node2&#45;&gt;Node7</title>
<path fill="none" stroke="midnightblue" d="M241.89,-168.08C236.72,-160.53 229.15,-149.49 222.81,-140.23"/>
<polygon fill="midnightblue" stroke="midnightblue" points="225.54,-138.02 217,-131.75 219.76,-141.98 225.54,-138.02"/>
</g>
<!-- Node7&#45;&gt;Node5 -->
<g id="edge9" class="edge">
<title>Node7&#45;&gt;Node5</title>
<path fill="none" stroke="midnightblue" d="M222.77,-112.37C248.4,-93.57 309.5,-48.77 341.18,-25.53"/>
<polygon fill="midnightblue" stroke="midnightblue" points="343.29,-28.33 349.28,-19.59 339.15,-22.68 343.29,-28.33"/>
</g>
<!-- Node7&#45;&gt;Node6 -->
<g id="edge10" class="edge">
<title>Node7&#45;&gt;Node6</title>
<path fill="none" stroke="midnightblue" d="M213.82,-112.37C219.66,-94.54 233.16,-53.3 241.02,-29.27"/>
<polygon fill="midnightblue" stroke="midnightblue" points="244.4,-30.18 244.19,-19.59 237.75,-28.01 244.4,-30.18"/>
</g>
<!-- Node8 -->
<g id="node8" class="node">
<title>Node8</title>
<g id="a_node8"><a xlink:title=" ">
<polygon fill="white" stroke="#bfbfbf" points="0,-0.5 0,-19.5 54,-19.5 54,-0.5 0,-0.5"/>
<text text-anchor="middle" x="27" y="-7.5" font-family="Helvetica,sans-Serif" font-size="10.00">iostream</text>
</a>
</g>
</g>
<!-- Node7&#45;&gt;Node8 -->
<g id="edge7" class="edge">
<title>Node7&#45;&gt;Node8</title>
<path fill="none" stroke="midnightblue" d="M170.56,-112.45C132.42,-103.75 78.69,-89.64 62,-76 47.15,-63.86 37.7,-43.7 32.41,-29.04"/>
<polygon fill="midnightblue" stroke="midnightblue" points="35.73,-27.94 29.28,-19.54 29.08,-30.13 35.73,-27.94"/>
</g>
<!-- Node9 -->
<g id="node9" class="node">
<title>Node9</title>
<g id="a_node9"><a xlink:title=" ">
<polygon fill="white" stroke="#bfbfbf" points="99.5,-0.5 99.5,-19.5 134.5,-19.5 134.5,-0.5 99.5,-0.5"/>
<text text-anchor="middle" x="117" y="-7.5" font-family="Helvetica,sans-Serif" font-size="10.00">map</text>
</a>
</g>
</g>
<!-- Node7&#45;&gt;Node9 -->
<g id="edge8" class="edge">
<title>Node7&#45;&gt;Node9</title>
<path fill="none" stroke="midnightblue" d="M165.44,-112.48C128.76,-104.59 81.48,-91.72 70,-76 57.36,-58.7 76.88,-38.72 94.48,-25.53"/>
<polygon fill="midnightblue" stroke="midnightblue" points="96.66,-28.27 102.81,-19.64 92.62,-22.55 96.66,-28.27"/>
</g>
<!-- Node7&#45;&gt;Node10 -->
<g id="edge11" class="edge">
<title>Node7&#45;&gt;Node10</title>
<path fill="none" stroke="midnightblue" d="M197.99,-112.32C185.47,-103.98 166.32,-91.21 151.53,-81.35"/>
<polygon fill="midnightblue" stroke="midnightblue" points="153.24,-78.29 142.98,-75.65 149.36,-84.11 153.24,-78.29"/>
</g>
<!-- Node7&#45;&gt;Node11 -->
<g id="edge16" class="edge">
<title>Node7&#45;&gt;Node11</title>
<path fill="none" stroke="midnightblue" d="M249.66,-112.44C292.14,-103.04 360.43,-87.93 406.47,-77.74"/>
<polygon fill="midnightblue" stroke="midnightblue" points="407.51,-81.09 416.52,-75.52 406,-74.26 407.51,-81.09"/>
</g>
<!-- Node10&#45;&gt;Node5 -->
<g id="edge14" class="edge">
<title>Node10&#45;&gt;Node5</title>
<path fill="none" stroke="midnightblue" d="M166.6,-56.44C211.87,-45.86 288.12,-28.04 330.41,-18.15"/>
<polygon fill="midnightblue" stroke="midnightblue" points="331.46,-21.5 340.4,-15.82 329.86,-14.68 331.46,-21.5"/>
</g>
<!-- Node10&#45;&gt;Node6 -->
<g id="edge15" class="edge">
<title>Node10&#45;&gt;Node6</title>
<path fill="none" stroke="midnightblue" d="M148.54,-56.44C167.62,-47.64 197.57,-33.81 219.44,-23.72"/>
<polygon fill="midnightblue" stroke="midnightblue" points="220.93,-26.88 228.55,-19.52 218,-20.53 220.93,-26.88"/>
</g>
<!-- Node10&#45;&gt;Node8 -->
<g id="edge12" class="edge">
<title>Node10&#45;&gt;Node8</title>
<path fill="none" stroke="midnightblue" d="M113.45,-56.32C97.01,-47.7 71.57,-34.36 52.53,-24.39"/>
<polygon fill="midnightblue" stroke="midnightblue" points="53.99,-21.2 43.51,-19.65 50.74,-27.4 53.99,-21.2"/>
</g>
<!-- Node10&#45;&gt;Node9 -->
<g id="edge13" class="edge">
<title>Node10&#45;&gt;Node9</title>
<path fill="none" stroke="midnightblue" d="M127.85,-56.08C126.13,-48.93 123.65,-38.64 121.5,-29.69"/>
<polygon fill="midnightblue" stroke="midnightblue" points="124.85,-28.65 119.11,-19.75 118.04,-30.29 124.85,-28.65"/>
</g>
<!-- Node11&#45;&gt;Node5 -->
<g id="edge17" class="edge">
<title>Node11&#45;&gt;Node5</title>
<path fill="none" stroke="midnightblue" d="M439.9,-56.32C425.1,-47.82 402.31,-34.73 385.02,-24.8"/>
<polygon fill="midnightblue" stroke="midnightblue" points="386.48,-21.6 376.07,-19.65 382.99,-27.67 386.48,-21.6"/>
</g>
<!-- Node15&#45;&gt;Node5 -->
<g id="edge24" class="edge">
<title>Node15&#45;&gt;Node5</title>
<path fill="none" stroke="midnightblue" d="M566.04,-168.23C565.63,-146.05 561.4,-87.28 529,-56 491.83,-20.11 429.3,-12.09 391.91,-10.72"/>
<polygon fill="midnightblue" stroke="midnightblue" points="391.7,-7.22 381.62,-10.49 391.54,-14.22 391.7,-7.22"/>
</g>
<!-- Node16 -->
<g id="node16" class="node">
<title>Node16</title>
<g id="a_node16"><a xlink:title=" ">
<polygon fill="white" stroke="#bfbfbf" points="577.5,-112.5 577.5,-131.5 636.5,-131.5 636.5,-112.5 577.5,-112.5"/>
<text text-anchor="middle" x="607" y="-119.5" font-family="Helvetica,sans-Serif" font-size="10.00">exception</text>
</a>
</g>
</g>
<!-- Node15&#45;&gt;Node16 -->
<g id="edge23" class="edge">
<title>Node15&#45;&gt;Node16</title>
<path fill="none" stroke="midnightblue" d="M572.77,-168.08C578.56,-160.46 587.06,-149.26 594.14,-139.94"/>
<polygon fill="midnightblue" stroke="midnightblue" points="597.1,-141.83 600.36,-131.75 591.52,-137.6 597.1,-141.83"/>
</g>
<!-- Node17&#45;&gt;Node6 -->
<g id="edge26" class="edge">
<title>Node17&#45;&gt;Node6</title>
<path fill="none" stroke="midnightblue" d="M400.9,-112.37C372.24,-93.49 303.76,-48.38 268.61,-25.24"/>
<polygon fill="midnightblue" stroke="midnightblue" points="270.32,-22.17 260.04,-19.59 266.47,-28.02 270.32,-22.17"/>
</g>
<!-- Node17&#45;&gt;Node11 -->
<g id="edge27" class="edge">
<title>Node17&#45;&gt;Node11</title>
<path fill="none" stroke="midnightblue" d="M420.77,-112.08C426.56,-104.46 435.06,-93.26 442.14,-83.94"/>
<polygon fill="midnightblue" stroke="midnightblue" points="445.1,-85.83 448.36,-75.75 439.52,-81.6 445.1,-85.83"/>
</g>
</g>
</svg>
