<?xml version="1.0" encoding="UTF-8" standalone="no"?>
<!DOCTYPE svg PUBLIC "-//W3C//DTD SVG 1.1//EN"
 "http://www.w3.org/Graphics/SVG/1.1/DTD/svg11.dtd">
<!-- Generated by graphviz version 2.43.0 (0)
 -->
<!-- Title: src/client Pages: 1 -->
<svg width="226pt" height="383pt"
 viewBox="0.00 0.00 226.00 383.00" xmlns="http://www.w3.org/2000/svg" xmlns:xlink="http://www.w3.org/1999/xlink">
<g id="graph0" class="graph" transform="scale(1 1) rotate(0) translate(4 379)">
<title>src/client</title>
<polygon fill="white" stroke="transparent" points="-4,4 -4,-379 222,-379 222,4 -4,4"/>
<g id="clust1" class="cluster">
<title>clusterdir_68267d1309a1af8e8297ef4c3efbcdba</title>
<g id="a_clust1"><a xlink:href="dir_68267d1309a1af8e8297ef4c3efbcdba.html" target="_top" xlink:title="src">
<polygon fill="#ddddee" stroke="black" points="8,-8 8,-367 210,-367 210,-8 8,-8"/>
<text text-anchor="middle" x="109" y="-355" font-family="Helvetica,sans-Serif" font-size="10.00">src</text>
</a>
</g>
</g>
<!-- dir_2d29d7dff7c7baf1180920f6796c23ae -->
<g id="node1" class="node">
<title>dir_2d29d7dff7c7baf1180920f6796c23ae</title>
<g id="a_node1"><a xlink:href="dir_2d29d7dff7c7baf1180920f6796c23ae.html" target="_top" xlink:title="http">
<polygon fill="none" stroke="black" points="70,-196 16,-196 16,-160 70,-160 70,-196"/>
<text text-anchor="middle" x="43" y="-175.5" font-family="Helvetica,sans-Serif" font-size="10.00">http</text>
</a>
</g>
</g>
<!-- dir_7e83d1792d529f4aa7126ac7e0b3b699 -->
<g id="node2" class="node">
<title>dir_7e83d1792d529f4aa7126ac7e0b3b699</title>
<g id="a_node2"><a xlink:href="dir_7e83d1792d529f4aa7126ac7e0b3b699.html" target="_top" xlink:title="config">
<polygon fill="none" stroke="black" points="202,-124 148,-124 148,-88 202,-88 202,-124"/>
<text text-anchor="middle" x="175" y="-103.5" font-family="Helvetica,sans-Serif" font-size="10.00">config</text>
</a>
</g>
</g>
<!-- dir_fdedb0aba14d44ce9d99bc100e026e6a -->
<g id="node5" class="node">
<title>dir_fdedb0aba14d44ce9d99bc100e026e6a</title>
<g id="a_node5"><a xlink:href="dir_fdedb0aba14d44ce9d99bc100e026e6a.html" target="_top" xlink:title="common">
<polygon fill="none" stroke="black" points="156,-52 102,-52 102,-16 156,-16 156,-52"/>
<text text-anchor="middle" x="129" y="-31.5" font-family="Helvetica,sans-Serif" font-size="10.00">common</text>
</a>
</g>
</g>
<!-- dir_7e83d1792d529f4aa7126ac7e0b3b699&#45;&gt;dir_fdedb0aba14d44ce9d99bc100e026e6a -->
<g id="edge1" class="edge">
<title>dir_7e83d1792d529f4aa7126ac7e0b3b699&#45;&gt;dir_fdedb0aba14d44ce9d99bc100e026e6a</title>
<path fill="none" stroke="black" d="M163.63,-87.7C158.28,-79.56 151.8,-69.69 145.89,-60.7"/>
<polygon fill="black" stroke="black" points="148.66,-58.54 140.24,-52.1 142.81,-62.38 148.66,-58.54"/>
<g id="a_edge1&#45;headlabel"><a xlink:href="dir_000005_000003.html" target="_top" xlink:title="5">
<text text-anchor="middle" x="153" y="-57.48" font-family="Helvetica,sans-Serif" font-size="10.00">5</text>
</a>
</g>
</g>
<!-- dir_a0157e6e277ba485fc92d8029bf0571e -->
<g id="node3" class="node">
<title>dir_a0157e6e277ba485fc92d8029bf0571e</title>
<g id="a_node3"><a xlink:href="dir_a0157e6e277ba485fc92d8029bf0571e.html" target="_top" xlink:title="cgi">
<polygon fill="none" stroke="black" points="162,-340 108,-340 108,-304 162,-304 162,-340"/>
<text text-anchor="middle" x="135" y="-319.5" font-family="Helvetica,sans-Serif" font-size="10.00">cgi</text>
</a>
</g>
</g>
<!-- dir_a0157e6e277ba485fc92d8029bf0571e&#45;&gt;dir_2d29d7dff7c7baf1180920f6796c23ae -->
<g id="edge2" class="edge">
<title>dir_a0157e6e277ba485fc92d8029bf0571e&#45;&gt;dir_2d29d7dff7c7baf1180920f6796c23ae</title>
<path fill="none" stroke="black" d="M123.17,-303.92C116.07,-293.58 106.91,-280.1 99,-268 85.22,-246.92 70.03,-222.72 58.95,-204.87"/>
<polygon fill="black" stroke="black" points="61.8,-202.83 53.56,-196.18 55.85,-206.52 61.8,-202.83"/>
<g id="a_edge2&#45;headlabel"><a xlink:href="dir_000001_000006.html" target="_top" xlink:title="1">
<text text-anchor="middle" x="66.11" y="-201.89" font-family="Helvetica,sans-Serif" font-size="10.00">1</text>
</a>
</g>
</g>
<!-- dir_a0157e6e277ba485fc92d8029bf0571e&#45;&gt;dir_7e83d1792d529f4aa7126ac7e0b3b699 -->
<g id="edge4" class="edge">
<title>dir_a0157e6e277ba485fc92d8029bf0571e&#45;&gt;dir_7e83d1792d529f4aa7126ac7e0b3b699</title>
<path fill="none" stroke="black" d="M150.03,-303.58C157.63,-293.78 166.22,-280.94 171,-268 187.44,-223.46 183.83,-167.17 179.54,-134.32"/>
<polygon fill="black" stroke="black" points="182.96,-133.53 178.08,-124.12 176.03,-134.52 182.96,-133.53"/>
<g id="a_edge4&#45;headlabel"><a xlink:href="dir_000001_000005.html" target="_top" xlink:title="1">
<text text-anchor="middle" x="186.28" y="-134.19" font-family="Helvetica,sans-Serif" font-size="10.00">1</text>
</a>
</g>
</g>
<!-- dir_6908ff505388a07996d238c763adbdab -->
<g id="node6" class="node">
<title>dir_6908ff505388a07996d238c763adbdab</title>
<g id="a_node6"><a xlink:href="dir_6908ff505388a07996d238c763adbdab.html" target="_top" xlink:title="client">
<polygon fill="#eeeeff" stroke="black" points="162,-268 108,-268 108,-232 162,-232 162,-268"/>
<text text-anchor="middle" x="135" y="-247.5" font-family="Helvetica,sans-Serif" font-size="10.00">client</text>
</a>
</g>
</g>
<!-- dir_a0157e6e277ba485fc92d8029bf0571e&#45;&gt;dir_6908ff505388a07996d238c763adbdab -->
<g id="edge3" class="edge">
<title>dir_a0157e6e277ba485fc92d8029bf0571e&#45;&gt;dir_6908ff505388a07996d238c763adbdab</title>
<path fill="none" stroke="black" d="M129.08,-303.7C128.29,-295.98 128.06,-286.71 128.4,-278.11"/>
<polygon fill="black" stroke="black" points="131.9,-278.32 129.1,-268.1 124.92,-277.84 131.9,-278.32"/>
<g id="a_edge3&#45;headlabel"><a xlink:href="dir_000001_000002.html" target="_top" xlink:title="1">
<text text-anchor="middle" x="134.48" y="-279.61" font-family="Helvetica,sans-Serif" font-size="10.00">1</text>
</a>
</g>
</g>
<!-- dir_fc4c7f03e1a69a98c370fae55a743828 -->
<g id="node4" class="node">
<title>dir_fc4c7f03e1a69a98c370fae55a743828</title>
<g id="a_node4"><a xlink:href="dir_fc4c7f03e1a69a98c370fae55a743828.html" target="_top" xlink:title="network">
<polygon fill="none" stroke="black" points="162,-196 108,-196 108,-160 162,-160 162,-196"/>
<text text-anchor="middle" x="135" y="-175.5" font-family="Helvetica,sans-Serif" font-size="10.00">network</text>
</a>
</g>
</g>
<!-- dir_fc4c7f03e1a69a98c370fae55a743828&#45;&gt;dir_7e83d1792d529f4aa7126ac7e0b3b699 -->
<g id="edge11" class="edge">
<title>dir_fc4c7f03e1a69a98c370fae55a743828&#45;&gt;dir_7e83d1792d529f4aa7126ac7e0b3b699</title>
<path fill="none" stroke="black" d="M144.89,-159.7C149.49,-151.64 155.06,-141.89 160.15,-132.98"/>
<polygon fill="black" stroke="black" points="163.3,-134.52 165.23,-124.1 157.23,-131.05 163.3,-134.52"/>
<g id="a_edge11&#45;headlabel"><a xlink:href="dir_000007_000005.html" target="_top" xlink:title="1">
<text text-anchor="middle" x="163.99" y="-136.55" font-family="Helvetica,sans-Serif" font-size="10.00">1</text>
</a>
</g>
</g>
<!-- dir_fc4c7f03e1a69a98c370fae55a743828&#45;&gt;dir_fdedb0aba14d44ce9d99bc100e026e6a -->
<g id="edge12" class="edge">
<title>dir_fc4c7f03e1a69a98c370fae55a743828&#45;&gt;dir_fdedb0aba14d44ce9d99bc100e026e6a</title>
<path fill="none" stroke="black" d="M134.28,-159.87C133.25,-135.67 131.38,-91.21 130.16,-62.39"/>
<polygon fill="black" stroke="black" points="133.65,-62.03 129.73,-52.19 126.65,-62.33 133.65,-62.03"/>
<g id="a_edge12&#45;headlabel"><a xlink:href="dir_000007_000003.html" target="_top" xlink:title="1">
<text text-anchor="middle" x="136.63" y="-63" font-family="Helvetica,sans-Serif" font-size="10.00">1</text>
</a>
</g>
</g>
<!-- dir_fc4c7f03e1a69a98c370fae55a743828&#45;&gt;dir_6908ff505388a07996d238c763adbdab -->
<g id="edge10" class="edge">
<title>dir_fc4c7f03e1a69a98c370fae55a743828&#45;&gt;dir_6908ff505388a07996d238c763adbdab</title>
<path fill="none" stroke="black" d="M140.9,-196.1C141.7,-203.79 141.94,-213.05 141.6,-221.67"/>
<polygon fill="black" stroke="black" points="138.11,-221.48 140.92,-231.7 145.09,-221.96 138.11,-221.48"/>
<g id="a_edge10&#45;headlabel"><a xlink:href="dir_000007_000002.html" target="_top" xlink:title="2">
<text text-anchor="middle" x="135.52" y="-215.2" font-family="Helvetica,sans-Serif" font-size="10.00">2</text>
</a>
</g>
</g>
<!-- dir_6908ff505388a07996d238c763adbdab&#45;&gt;dir_2d29d7dff7c7baf1180920f6796c23ae -->
<g id="edge5" class="edge">
<title>dir_6908ff505388a07996d238c763adbdab&#45;&gt;dir_2d29d7dff7c7baf1180920f6796c23ae</title>
<path fill="none" stroke="black" d="M112.26,-231.7C100.56,-222.8 86.14,-211.82 73.49,-202.2"/>
<polygon fill="black" stroke="black" points="75.56,-199.37 65.48,-196.1 71.32,-204.94 75.56,-199.37"/>
<g id="a_edge5&#45;headlabel"><a xlink:href="dir_000002_000006.html" target="_top" xlink:title="17">
<text text-anchor="middle" x="80.14" y="-196.79" font-family="Helvetica,sans-Serif" font-size="10.00">17</text>
</a>
</g>
</g>
<!-- dir_6908ff505388a07996d238c763adbdab&#45;&gt;dir_7e83d1792d529f4aa7126ac7e0b3b699 -->
<g id="edge6" class="edge">
<title>dir_6908ff505388a07996d238c763adbdab&#45;&gt;dir_7e83d1792d529f4aa7126ac7e0b3b699</title>
<path fill="none" stroke="black" d="M150.37,-231.7C158.07,-221.93 166.65,-209.09 171,-196 177.61,-176.09 178.34,-152.3 177.57,-134.33"/>
<polygon fill="black" stroke="black" points="181.05,-134 176.95,-124.23 174.07,-134.43 181.05,-134"/>
<g id="a_edge6&#45;headlabel"><a xlink:href="dir_000002_000005.html" target="_top" xlink:title="7">
<text text-anchor="middle" x="184.11" y="-134.91" font-family="Helvetica,sans-Serif" font-size="10.00">7</text>
</a>
</g>
</g>
<!-- dir_6908ff505388a07996d238c763adbdab&#45;&gt;dir_a0157e6e277ba485fc92d8029bf0571e -->
<g id="edge7" class="edge">
<title>dir_6908ff505388a07996d238c763adbdab&#45;&gt;dir_a0157e6e277ba485fc92d8029bf0571e</title>
<path fill="none" stroke="black" d="M140.9,-268.1C141.7,-275.79 141.94,-285.05 141.6,-293.67"/>
<polygon fill="black" stroke="black" points="138.11,-293.48 140.92,-303.7 145.09,-293.96 138.11,-293.48"/>
<g id="a_edge7&#45;headlabel"><a xlink:href="dir_000002_000001.html" target="_top" xlink:title="3">
<text text-anchor="middle" x="135.52" y="-287.2" font-family="Helvetica,sans-Serif" font-size="10.00">3</text>
</a>
</g>
</g>
<!-- dir_6908ff505388a07996d238c763adbdab&#45;&gt;dir_fc4c7f03e1a69a98c370fae55a743828 -->
<g id="edge8" class="edge">
<title>dir_6908ff505388a07996d238c763adbdab&#45;&gt;dir_fc4c7f03e1a69a98c370fae55a743828</title>
<path fill="none" stroke="black" d="M129.08,-231.7C128.29,-223.98 128.06,-214.71 128.4,-206.11"/>
<polygon fill="black" stroke="black" points="131.9,-206.32 129.1,-196.1 124.92,-205.84 131.9,-206.32"/>
<g id="a_edge8&#45;headlabel"><a xlink:href="dir_000002_000007.html" target="_top" xlink:title="2">
<text text-anchor="middle" x="134.48" y="-207.61" font-family="Helvetica,sans-Serif" font-size="10.00">2</text>
</a>
</g>
</g>
<!-- dir_6908ff505388a07996d238c763adbdab&#45;&gt;dir_fdedb0aba14d44ce9d99bc100e026e6a -->
<g id="edge9" class="edge">
<title>dir_6908ff505388a07996d238c763adbdab&#45;&gt;dir_fdedb0aba14d44ce9d99bc100e026e6a</title>
<path fill="none" stroke="black" d="M119.39,-231.77C111.63,-222.03 103.05,-209.18 99,-196 84.76,-149.7 102.76,-93.72 116.4,-61.45"/>
<polygon fill="black" stroke="black" points="119.63,-62.79 120.45,-52.23 113.22,-59.98 119.63,-62.79"/>
<g id="a_edge9&#45;headlabel"><a xlink:href="dir_000002_000003.html" target="_top" xlink:title="1">
<text text-anchor="middle" x="120.78" y="-64.73" font-family="Helvetica,sans-Serif" font-size="10.00">1</text>
</a>
</g>
</g>
</g>
</svg>
