<?xml version="1.0" encoding="UTF-8" standalone="no"?>
<!DOCTYPE svg PUBLIC "-//W3C//DTD SVG 1.1//EN"
 "http://www.w3.org/Graphics/SVG/1.1/DTD/svg11.dtd">
<!-- Generated by graphviz version 2.43.0 (0)
 -->
<!-- Title: src/network Pages: 1 -->
<svg width="134pt" height="311pt"
 viewBox="0.00 0.00 134.00 311.00" xmlns="http://www.w3.org/2000/svg" xmlns:xlink="http://www.w3.org/1999/xlink">
<g id="graph0" class="graph" transform="scale(1 1) rotate(0) translate(4 307)">
<title>src/network</title>
<polygon fill="white" stroke="transparent" points="-4,4 -4,-307 130,-307 130,4 -4,4"/>
<g id="clust1" class="cluster">
<title>clusterdir_68267d1309a1af8e8297ef4c3efbcdba</title>
<g id="a_clust1"><a xlink:href="dir_68267d1309a1af8e8297ef4c3efbcdba.html" target="_top" xlink:title="src">
<polygon fill="#ddddee" stroke="black" points="8,-8 8,-295 118,-295 118,-8 8,-8"/>
<text text-anchor="middle" x="63" y="-283" font-family="Helvetica,sans-Serif" font-size="10.00">src</text>
</a>
</g>
</g>
<!-- dir_6908ff505388a07996d238c763adbdab -->
<g id="node1" class="node">
<title>dir_6908ff505388a07996d238c763adbdab</title>
<g id="a_node1"><a xlink:href="dir_6908ff505388a07996d238c763adbdab.html" target="_top" xlink:title="client">
<polygon fill="none" stroke="black" points="90,-268 36,-268 36,-232 90,-232 90,-268"/>
<text text-anchor="middle" x="63" y="-247.5" font-family="Helvetica,sans-Serif" font-size="10.00">client</text>
</a>
</g>
</g>
<!-- dir_7e83d1792d529f4aa7126ac7e0b3b699 -->
<g id="node2" class="node">
<title>dir_7e83d1792d529f4aa7126ac7e0b3b699</title>
<g id="a_node2"><a xlink:href="dir_7e83d1792d529f4aa7126ac7e0b3b699.html" target="_top" xlink:title="config">
<polygon fill="none" stroke="black" points="90,-124 36,-124 36,-88 90,-88 90,-124"/>
<text text-anchor="middle" x="63" y="-103.5" font-family="Helvetica,sans-Serif" font-size="10.00">config</text>
</a>
</g>
</g>
<!-- dir_6908ff505388a07996d238c763adbdab&#45;&gt;dir_7e83d1792d529f4aa7126ac7e0b3b699 -->
<g id="edge2" class="edge">
<title>dir_6908ff505388a07996d238c763adbdab&#45;&gt;dir_7e83d1792d529f4aa7126ac7e0b3b699</title>
<path fill="none" stroke="black" d="M56.35,-231.63C52.8,-221.42 48.8,-208.17 47,-196 44.66,-180.17 44.66,-175.83 47,-160 48.28,-151.35 50.67,-142.15 53.22,-133.89"/>
<polygon fill="black" stroke="black" points="56.55,-134.96 56.35,-124.37 49.9,-132.78 56.55,-134.96"/>
<g id="a_edge2&#45;headlabel"><a xlink:href="dir_000002_000005.html" target="_top" xlink:title="7">
<text text-anchor="middle" x="58.12" y="-136.77" font-family="Helvetica,sans-Serif" font-size="10.00">7</text>
</a>
</g>
</g>
<!-- dir_fdedb0aba14d44ce9d99bc100e026e6a -->
<g id="node3" class="node">
<title>dir_fdedb0aba14d44ce9d99bc100e026e6a</title>
<g id="a_node3"><a xlink:href="dir_fdedb0aba14d44ce9d99bc100e026e6a.html" target="_top" xlink:title="common">
<polygon fill="none" stroke="black" points="90,-52 36,-52 36,-16 90,-16 90,-52"/>
<text text-anchor="middle" x="63" y="-31.5" font-family="Helvetica,sans-Serif" font-size="10.00">common</text>
</a>
</g>
</g>
<!-- dir_6908ff505388a07996d238c763adbdab&#45;&gt;dir_fdedb0aba14d44ce9d99bc100e026e6a -->
<g id="edge4" class="edge">
<title>dir_6908ff505388a07996d238c763adbdab&#45;&gt;dir_fdedb0aba14d44ce9d99bc100e026e6a</title>
<path fill="none" stroke="black" d="M53.38,-231.85C38.01,-202.17 11.17,-139.47 27,-88 30.01,-78.22 35.51,-68.62 41.32,-60.33"/>
<polygon fill="black" stroke="black" points="44.19,-62.33 47.39,-52.23 38.59,-58.13 44.19,-62.33"/>
<g id="a_edge4&#45;headlabel"><a xlink:href="dir_000002_000003.html" target="_top" xlink:title="1">
<text text-anchor="middle" x="44.31" y="-64.41" font-family="Helvetica,sans-Serif" font-size="10.00">1</text>
</a>
</g>
</g>
<!-- dir_fc4c7f03e1a69a98c370fae55a743828 -->
<g id="node4" class="node">
<title>dir_fc4c7f03e1a69a98c370fae55a743828</title>
<g id="a_node4"><a xlink:href="dir_fc4c7f03e1a69a98c370fae55a743828.html" target="_top" xlink:title="network">
<polygon fill="#eeeeff" stroke="black" points="110,-196 56,-196 56,-160 110,-160 110,-196"/>
<text text-anchor="middle" x="83" y="-175.5" font-family="Helvetica,sans-Serif" font-size="10.00">network</text>
</a>
</g>
</g>
<!-- dir_6908ff505388a07996d238c763adbdab&#45;&gt;dir_fc4c7f03e1a69a98c370fae55a743828 -->
<g id="edge3" class="edge">
<title>dir_6908ff505388a07996d238c763adbdab&#45;&gt;dir_fc4c7f03e1a69a98c370fae55a743828</title>
<path fill="none" stroke="black" d="M62.03,-231.7C63.47,-223.81 65.97,-214.3 68.84,-205.55"/>
<polygon fill="black" stroke="black" points="72.15,-206.7 72.22,-196.1 65.56,-204.34 72.15,-206.7"/>
<g id="a_edge3&#45;headlabel"><a xlink:href="dir_000002_000007.html" target="_top" xlink:title="2">
<text text-anchor="middle" x="73.61" y="-208.54" font-family="Helvetica,sans-Serif" font-size="10.00">2</text>
</a>
</g>
</g>
<!-- dir_7e83d1792d529f4aa7126ac7e0b3b699&#45;&gt;dir_fdedb0aba14d44ce9d99bc100e026e6a -->
<g id="edge1" class="edge">
<title>dir_7e83d1792d529f4aa7126ac7e0b3b699&#45;&gt;dir_fdedb0aba14d44ce9d99bc100e026e6a</title>
<path fill="none" stroke="black" d="M63,-87.7C63,-79.98 63,-70.71 63,-62.11"/>
<polygon fill="black" stroke="black" points="66.5,-62.1 63,-52.1 59.5,-62.1 66.5,-62.1"/>
<g id="a_edge1&#45;headlabel"><a xlink:href="dir_000005_000003.html" target="_top" xlink:title="5">
<text text-anchor="middle" x="69.34" y="-63.2" font-family="Helvetica,sans-Serif" font-size="10.00">5</text>
</a>
</g>
</g>
<!-- dir_fc4c7f03e1a69a98c370fae55a743828&#45;&gt;dir_6908ff505388a07996d238c763adbdab -->
<g id="edge5" class="edge">
<title>dir_fc4c7f03e1a69a98c370fae55a743828&#45;&gt;dir_6908ff505388a07996d238c763adbdab</title>
<path fill="none" stroke="black" d="M84.01,-196.1C82.59,-203.96 80.1,-213.46 77.23,-222.23"/>
<polygon fill="black" stroke="black" points="73.92,-221.1 73.86,-231.7 80.51,-223.45 73.92,-221.1"/>
<g id="a_edge5&#45;headlabel"><a xlink:href="dir_000007_000002.html" target="_top" xlink:title="2">
<text text-anchor="middle" x="72.45" y="-214.26" font-family="Helvetica,sans-Serif" font-size="10.00">2</text>
</a>
</g>
</g>
<!-- dir_fc4c7f03e1a69a98c370fae55a743828&#45;&gt;dir_7e83d1792d529f4aa7126ac7e0b3b699 -->
<g id="edge6" class="edge">
<title>dir_fc4c7f03e1a69a98c370fae55a743828&#45;&gt;dir_7e83d1792d529f4aa7126ac7e0b3b699</title>
<path fill="none" stroke="black" d="M78.06,-159.7C75.83,-151.9 73.15,-142.51 70.67,-133.83"/>
<polygon fill="black" stroke="black" points="74,-132.76 67.89,-124.1 67.27,-134.68 74,-132.76"/>
<g id="a_edge6&#45;headlabel"><a xlink:href="dir_000007_000005.html" target="_top" xlink:title="1">
<text text-anchor="middle" x="77.72" y="-132.93" font-family="Helvetica,sans-Serif" font-size="10.00">1</text>
</a>
</g>
</g>
<!-- dir_fc4c7f03e1a69a98c370fae55a743828&#45;&gt;dir_fdedb0aba14d44ce9d99bc100e026e6a -->
<g id="edge7" class="edge">
<title>dir_fc4c7f03e1a69a98c370fae55a743828&#45;&gt;dir_fdedb0aba14d44ce9d99bc100e026e6a</title>
<path fill="none" stroke="black" d="M90.78,-159.98C97.98,-141.85 106.52,-112.46 99,-88 95.99,-78.22 90.49,-68.62 84.68,-60.33"/>
<polygon fill="black" stroke="black" points="87.41,-58.13 78.61,-52.23 81.81,-62.33 87.41,-58.13"/>
<g id="a_edge7&#45;headlabel"><a xlink:href="dir_000007_000003.html" target="_top" xlink:title="1">
<text text-anchor="middle" x="91.83" y="-56.8" font-family="Helvetica,sans-Serif" font-size="10.00">1</text>
</a>
</g>
</g>
</g>
</svg>
