<?xml version="1.0" encoding="UTF-8" standalone="no"?>
<!DOCTYPE svg PUBLIC "-//W3C//DTD SVG 1.1//EN"
 "http://www.w3.org/Graphics/SVG/1.1/DTD/svg11.dtd">
<!-- Generated by graphviz version 2.43.0 (0)
 -->
<!-- Title: src Pages: 1 -->
<svg width="238pt" height="364pt"
 viewBox="0.00 0.00 238.00 364.00" xmlns="http://www.w3.org/2000/svg" xmlns:xlink="http://www.w3.org/1999/xlink">
<g id="graph0" class="graph" transform="scale(1 1) rotate(0) translate(4 360)">
<title>src</title>
<polygon fill="white" stroke="transparent" points="-4,4 -4,-360 234,-360 234,4 -4,4"/>
<g id="clust1" class="cluster">
<title>clusterdir_68267d1309a1af8e8297ef4c3efbcdba</title>
<g id="a_clust1"><a xlink:href="dir_68267d1309a1af8e8297ef4c3efbcdba.html" target="_top">
<polygon fill="#eeeeff" stroke="black" points="8,-8 8,-348 222,-348 222,-8 8,-8"/>
</a>
</g>
</g>
<!-- dir_68267d1309a1af8e8297ef4c3efbcdba -->
<g id="node1" class="node">
<title>dir_68267d1309a1af8e8297ef4c3efbcdba</title>
<text text-anchor="middle" x="187" y="-319.5" font-family="Helvetica,sans-Serif" font-size="10.00">src</text>
</g>
<!-- dir_a0157e6e277ba485fc92d8029bf0571e -->
<g id="node2" class="node">
<title>dir_a0157e6e277ba485fc92d8029bf0571e</title>
<g id="a_node2"><a xlink:href="dir_a0157e6e277ba485fc92d8029bf0571e.html" target="_top" xlink:title="cgi">
<polygon fill="white" stroke="black" points="142,-340 88,-340 88,-304 142,-304 142,-340"/>
<text text-anchor="middle" x="115" y="-319.5" font-family="Helvetica,sans-Serif" font-size="10.00">cgi</text>
</a>
</g>
</g>
<!-- dir_6908ff505388a07996d238c763adbdab -->
<g id="node3" class="node">
<title>dir_6908ff505388a07996d238c763adbdab</title>
<g id="a_node3"><a xlink:href="dir_6908ff505388a07996d238c763adbdab.html" target="_top" xlink:title="client">
<polygon fill="white" stroke="black" points="139,-268 85,-268 85,-232 139,-232 139,-268"/>
<text text-anchor="middle" x="112" y="-247.5" font-family="Helvetica,sans-Serif" font-size="10.00">client</text>
</a>
</g>
</g>
<!-- dir_a0157e6e277ba485fc92d8029bf0571e&#45;&gt;dir_6908ff505388a07996d238c763adbdab -->
<g id="edge3" class="edge">
<title>dir_a0157e6e277ba485fc92d8029bf0571e&#45;&gt;dir_6908ff505388a07996d238c763adbdab</title>
<path fill="none" stroke="black" d="M108.34,-303.7C107.22,-295.98 106.59,-286.71 106.57,-278.11"/>
<polygon fill="black" stroke="black" points="110.07,-278.2 106.84,-268.1 103.07,-278.01 110.07,-278.2"/>
<g id="a_edge3&#45;headlabel"><a xlink:href="dir_000001_000002.html" target="_top" xlink:title="1">
<text text-anchor="middle" x="112.81" y="-279.37" font-family="Helvetica,sans-Serif" font-size="10.00">1</text>
</a>
</g>
</g>
<!-- dir_7e83d1792d529f4aa7126ac7e0b3b699 -->
<g id="node5" class="node">
<title>dir_7e83d1792d529f4aa7126ac7e0b3b699</title>
<g id="a_node5"><a xlink:href="dir_7e83d1792d529f4aa7126ac7e0b3b699.html" target="_top" xlink:title="config">
<polygon fill="white" stroke="black" points="139,-124 85,-124 85,-88 139,-88 139,-124"/>
<text text-anchor="middle" x="112" y="-103.5" font-family="Helvetica,sans-Serif" font-size="10.00">config</text>
</a>
</g>
</g>
<!-- dir_a0157e6e277ba485fc92d8029bf0571e&#45;&gt;dir_7e83d1792d529f4aa7126ac7e0b3b699 -->
<g id="edge4" class="edge">
<title>dir_a0157e6e277ba485fc92d8029bf0571e&#45;&gt;dir_7e83d1792d529f4aa7126ac7e0b3b699</title>
<path fill="none" stroke="black" d="M134.68,-303.84C166.26,-274.14 221.99,-211.41 194,-160 184.22,-142.04 165.45,-129.23 148.33,-120.72"/>
<polygon fill="black" stroke="black" points="149.6,-117.45 139.05,-116.42 146.65,-123.8 149.6,-117.45"/>
<g id="a_edge4&#45;headlabel"><a xlink:href="dir_000001_000005.html" target="_top" xlink:title="1">
<text text-anchor="middle" x="154.05" y="-113.88" font-family="Helvetica,sans-Serif" font-size="10.00">1</text>
</a>
</g>
</g>
<!-- dir_2d29d7dff7c7baf1180920f6796c23ae -->
<g id="node6" class="node">
<title>dir_2d29d7dff7c7baf1180920f6796c23ae</title>
<g id="a_node6"><a xlink:href="dir_2d29d7dff7c7baf1180920f6796c23ae.html" target="_top" xlink:title="http">
<polygon fill="white" stroke="black" points="185,-196 131,-196 131,-160 185,-160 185,-196"/>
<text text-anchor="middle" x="158" y="-175.5" font-family="Helvetica,sans-Serif" font-size="10.00">http</text>
</a>
</g>
</g>
<!-- dir_a0157e6e277ba485fc92d8029bf0571e&#45;&gt;dir_2d29d7dff7c7baf1180920f6796c23ae -->
<g id="edge2" class="edge">
<title>dir_a0157e6e277ba485fc92d8029bf0571e&#45;&gt;dir_2d29d7dff7c7baf1180920f6796c23ae</title>
<path fill="none" stroke="black" d="M128.42,-303.86C135.45,-293.94 143.52,-280.9 148,-268 154.92,-248.08 157.32,-224.29 158.04,-206.32"/>
<polygon fill="black" stroke="black" points="161.54,-206.31 158.29,-196.22 154.54,-206.13 161.54,-206.31"/>
<g id="a_edge2&#45;headlabel"><a xlink:href="dir_000001_000006.html" target="_top" xlink:title="1">
<text text-anchor="middle" x="164.29" y="-207.48" font-family="Helvetica,sans-Serif" font-size="10.00">1</text>
</a>
</g>
</g>
<!-- dir_6908ff505388a07996d238c763adbdab&#45;&gt;dir_a0157e6e277ba485fc92d8029bf0571e -->
<g id="edge7" class="edge">
<title>dir_6908ff505388a07996d238c763adbdab&#45;&gt;dir_a0157e6e277ba485fc92d8029bf0571e</title>
<path fill="none" stroke="black" d="M118.63,-268.1C119.76,-275.79 120.4,-285.05 120.43,-293.67"/>
<polygon fill="black" stroke="black" points="116.93,-293.61 120.17,-303.7 123.93,-293.79 116.93,-293.61"/>
<g id="a_edge7&#45;headlabel"><a xlink:href="dir_000002_000001.html" target="_top" xlink:title="3">
<text text-anchor="middle" x="114.19" y="-287.44" font-family="Helvetica,sans-Serif" font-size="10.00">3</text>
</a>
</g>
</g>
<!-- dir_fdedb0aba14d44ce9d99bc100e026e6a -->
<g id="node4" class="node">
<title>dir_fdedb0aba14d44ce9d99bc100e026e6a</title>
<g id="a_node4"><a xlink:href="dir_fdedb0aba14d44ce9d99bc100e026e6a.html" target="_top" xlink:title="common">
<polygon fill="white" stroke="black" points="93,-52 39,-52 39,-16 93,-16 93,-52"/>
<text text-anchor="middle" x="66" y="-31.5" font-family="Helvetica,sans-Serif" font-size="10.00">common</text>
</a>
</g>
</g>
<!-- dir_6908ff505388a07996d238c763adbdab&#45;&gt;dir_fdedb0aba14d44ce9d99bc100e026e6a -->
<g id="edge9" class="edge">
<title>dir_6908ff505388a07996d238c763adbdab&#45;&gt;dir_fdedb0aba14d44ce9d99bc100e026e6a</title>
<path fill="none" stroke="black" d="M84.95,-239.58C65.82,-231.33 41.59,-217.29 30,-196 6.32,-152.5 31.06,-94.3 49.61,-61.11"/>
<polygon fill="black" stroke="black" points="52.87,-62.46 54.87,-52.06 46.82,-58.95 52.87,-62.46"/>
<g id="a_edge9&#45;headlabel"><a xlink:href="dir_000002_000003.html" target="_top" xlink:title="1">
<text text-anchor="middle" x="53.52" y="-64.49" font-family="Helvetica,sans-Serif" font-size="10.00">1</text>
</a>
</g>
</g>
<!-- dir_6908ff505388a07996d238c763adbdab&#45;&gt;dir_7e83d1792d529f4aa7126ac7e0b3b699 -->
<g id="edge6" class="edge">
<title>dir_6908ff505388a07996d238c763adbdab&#45;&gt;dir_7e83d1792d529f4aa7126ac7e0b3b699</title>
<path fill="none" stroke="black" d="M112,-231.87C112,-207.67 112,-163.21 112,-134.39"/>
<polygon fill="black" stroke="black" points="115.5,-134.19 112,-124.19 108.5,-134.19 115.5,-134.19"/>
<g id="a_edge6&#45;headlabel"><a xlink:href="dir_000002_000005.html" target="_top" xlink:title="7">
<text text-anchor="middle" x="118.34" y="-135.28" font-family="Helvetica,sans-Serif" font-size="10.00">7</text>
</a>
</g>
</g>
<!-- dir_6908ff505388a07996d238c763adbdab&#45;&gt;dir_2d29d7dff7c7baf1180920f6796c23ae -->
<g id="edge5" class="edge">
<title>dir_6908ff505388a07996d238c763adbdab&#45;&gt;dir_2d29d7dff7c7baf1180920f6796c23ae</title>
<path fill="none" stroke="black" d="M123.37,-231.7C128.72,-223.56 135.2,-213.69 141.11,-204.7"/>
<polygon fill="black" stroke="black" points="144.19,-206.38 146.76,-196.1 138.34,-202.54 144.19,-206.38"/>
<g id="a_edge5&#45;headlabel"><a xlink:href="dir_000002_000006.html" target="_top" xlink:title="17">
<text text-anchor="middle" x="144.59" y="-208.45" font-family="Helvetica,sans-Serif" font-size="10.00">17</text>
</a>
</g>
</g>
<!-- dir_fc4c7f03e1a69a98c370fae55a743828 -->
<g id="node7" class="node">
<title>dir_fc4c7f03e1a69a98c370fae55a743828</title>
<g id="a_node7"><a xlink:href="dir_fc4c7f03e1a69a98c370fae55a743828.html" target="_top" xlink:title="network">
<polygon fill="white" stroke="black" points="93,-196 39,-196 39,-160 93,-160 93,-196"/>
<text text-anchor="middle" x="66" y="-175.5" font-family="Helvetica,sans-Serif" font-size="10.00">network</text>
</a>
</g>
</g>
<!-- dir_6908ff505388a07996d238c763adbdab&#45;&gt;dir_fc4c7f03e1a69a98c370fae55a743828 -->
<g id="edge8" class="edge">
<title>dir_6908ff505388a07996d238c763adbdab&#45;&gt;dir_fc4c7f03e1a69a98c370fae55a743828</title>
<path fill="none" stroke="black" d="M94.71,-231.7C88.59,-223.64 81.97,-213.89 76.53,-204.98"/>
<polygon fill="black" stroke="black" points="79.41,-202.98 71.34,-196.1 73.36,-206.51 79.41,-202.98"/>
<g id="a_edge8&#45;headlabel"><a xlink:href="dir_000002_000007.html" target="_top" xlink:title="2">
<text text-anchor="middle" x="83.67" y="-202.15" font-family="Helvetica,sans-Serif" font-size="10.00">2</text>
</a>
</g>
</g>
<!-- dir_7e83d1792d529f4aa7126ac7e0b3b699&#45;&gt;dir_fdedb0aba14d44ce9d99bc100e026e6a -->
<g id="edge1" class="edge">
<title>dir_7e83d1792d529f4aa7126ac7e0b3b699&#45;&gt;dir_fdedb0aba14d44ce9d99bc100e026e6a</title>
<path fill="none" stroke="black" d="M100.63,-87.7C95.28,-79.56 88.8,-69.69 82.89,-60.7"/>
<polygon fill="black" stroke="black" points="85.66,-58.54 77.24,-52.1 79.81,-62.38 85.66,-58.54"/>
<g id="a_edge1&#45;headlabel"><a xlink:href="dir_000005_000003.html" target="_top" xlink:title="5">
<text text-anchor="middle" x="90" y="-57.48" font-family="Helvetica,sans-Serif" font-size="10.00">5</text>
</a>
</g>
</g>
<!-- dir_fc4c7f03e1a69a98c370fae55a743828&#45;&gt;dir_6908ff505388a07996d238c763adbdab -->
<g id="edge10" class="edge">
<title>dir_fc4c7f03e1a69a98c370fae55a743828&#45;&gt;dir_6908ff505388a07996d238c763adbdab</title>
<path fill="none" stroke="black" d="M83.14,-196.1C89.25,-204.13 95.87,-213.87 101.34,-222.8"/>
<polygon fill="black" stroke="black" points="98.47,-224.83 106.54,-231.7 104.52,-221.3 98.47,-224.83"/>
<g id="a_edge10&#45;headlabel"><a xlink:href="dir_000007_000002.html" target="_top" xlink:title="2">
<text text-anchor="middle" x="94.21" y="-220.66" font-family="Helvetica,sans-Serif" font-size="10.00">2</text>
</a>
</g>
</g>
<!-- dir_fc4c7f03e1a69a98c370fae55a743828&#45;&gt;dir_fdedb0aba14d44ce9d99bc100e026e6a -->
<g id="edge12" class="edge">
<title>dir_fc4c7f03e1a69a98c370fae55a743828&#45;&gt;dir_fdedb0aba14d44ce9d99bc100e026e6a</title>
<path fill="none" stroke="black" d="M66,-159.87C66,-135.67 66,-91.21 66,-62.39"/>
<polygon fill="black" stroke="black" points="69.5,-62.19 66,-52.19 62.5,-62.19 69.5,-62.19"/>
<g id="a_edge12&#45;headlabel"><a xlink:href="dir_000007_000003.html" target="_top" xlink:title="1">
<text text-anchor="middle" x="72.34" y="-63.28" font-family="Helvetica,sans-Serif" font-size="10.00">1</text>
</a>
</g>
</g>
<!-- dir_fc4c7f03e1a69a98c370fae55a743828&#45;&gt;dir_7e83d1792d529f4aa7126ac7e0b3b699 -->
<g id="edge11" class="edge">
<title>dir_fc4c7f03e1a69a98c370fae55a743828&#45;&gt;dir_7e83d1792d529f4aa7126ac7e0b3b699</title>
<path fill="none" stroke="black" d="M77.37,-159.7C82.72,-151.56 89.2,-141.69 95.11,-132.7"/>
<polygon fill="black" stroke="black" points="98.19,-134.38 100.76,-124.1 92.34,-130.54 98.19,-134.38"/>
<g id="a_edge11&#45;headlabel"><a xlink:href="dir_000007_000005.html" target="_top" xlink:title="1">
<text text-anchor="middle" x="98.59" y="-136.45" font-family="Helvetica,sans-Serif" font-size="10.00">1</text>
</a>
</g>
</g>
<!-- dir_313caf1132e152dd9b58bea13a4052ca -->
<g id="node8" class="node">
<title>dir_313caf1132e152dd9b58bea13a4052ca</title>
<g id="a_node8"><a xlink:href="dir_313caf1132e152dd9b58bea13a4052ca.html" target="_top" xlink:title="utils">
<polygon fill="white" stroke="black" points="70,-340 16,-340 16,-304 70,-304 70,-340"/>
<text text-anchor="middle" x="43" y="-319.5" font-family="Helvetica,sans-Serif" font-size="10.00">utils</text>
</a>
</g>
</g>
</g>
</svg>
