<?xml version="1.0" encoding="UTF-8" standalone="no"?>
<!DOCTYPE svg PUBLIC "-//W3C//DTD SVG 1.1//EN"
 "http://www.w3.org/Graphics/SVG/1.1/DTD/svg11.dtd">
<!-- Generated by graphviz version 2.43.0 (0)
 -->
<!-- Title: src/cgi Pages: 1 -->
<svg width="166pt" height="239pt"
 viewBox="0.00 0.00 166.00 239.00" xmlns="http://www.w3.org/2000/svg" xmlns:xlink="http://www.w3.org/1999/xlink">
<g id="graph0" class="graph" transform="scale(1 1) rotate(0) translate(4 235)">
<title>src/cgi</title>
<polygon fill="white" stroke="transparent" points="-4,4 -4,-235 162,-235 162,4 -4,4"/>
<g id="clust1" class="cluster">
<title>clusterdir_68267d1309a1af8e8297ef4c3efbcdba</title>
<g id="a_clust1"><a xlink:href="dir_68267d1309a1af8e8297ef4c3efbcdba.html" target="_top" xlink:title="src">
<polygon fill="#ddddee" stroke="black" points="8,-8 8,-223 150,-223 150,-8 8,-8"/>
<text text-anchor="middle" x="79" y="-211" font-family="Helvetica,sans-Serif" font-size="10.00">src</text>
</a>
</g>
</g>
<!-- dir_2d29d7dff7c7baf1180920f6796c23ae -->
<g id="node1" class="node">
<title>dir_2d29d7dff7c7baf1180920f6796c23ae</title>
<g id="a_node1"><a xlink:href="dir_2d29d7dff7c7baf1180920f6796c23ae.html" target="_top" xlink:title="http">
<polygon fill="none" stroke="black" points="70,-52 16,-52 16,-16 70,-16 70,-52"/>
<text text-anchor="middle" x="43" y="-31.5" font-family="Helvetica,sans-Serif" font-size="10.00">http</text>
</a>
</g>
</g>
<!-- dir_6908ff505388a07996d238c763adbdab -->
<g id="node2" class="node">
<title>dir_6908ff505388a07996d238c763adbdab</title>
<g id="a_node2"><a xlink:href="dir_6908ff505388a07996d238c763adbdab.html" target="_top" xlink:title="client">
<polygon fill="none" stroke="black" points="106,-196 52,-196 52,-160 106,-160 106,-196"/>
<text text-anchor="middle" x="79" y="-175.5" font-family="Helvetica,sans-Serif" font-size="10.00">client</text>
</a>
</g>
</g>
<!-- dir_6908ff505388a07996d238c763adbdab&#45;&gt;dir_2d29d7dff7c7baf1180920f6796c23ae -->
<g id="edge4" class="edge">
<title>dir_6908ff505388a07996d238c763adbdab&#45;&gt;dir_2d29d7dff7c7baf1180920f6796c23ae</title>
<path fill="none" stroke="black" d="M63.39,-159.77C55.63,-150.03 47.05,-137.18 43,-124 36.84,-103.97 37.21,-80.18 38.91,-62.24"/>
<polygon fill="black" stroke="black" points="42.41,-62.51 40.07,-52.17 35.45,-61.71 42.41,-62.51"/>
<g id="a_edge4&#45;headlabel"><a xlink:href="dir_000002_000006.html" target="_top" xlink:title="17">
<text text-anchor="middle" x="44.82" y="-63.9" font-family="Helvetica,sans-Serif" font-size="10.00">17</text>
</a>
</g>
</g>
<!-- dir_7e83d1792d529f4aa7126ac7e0b3b699 -->
<g id="node3" class="node">
<title>dir_7e83d1792d529f4aa7126ac7e0b3b699</title>
<g id="a_node3"><a xlink:href="dir_7e83d1792d529f4aa7126ac7e0b3b699.html" target="_top" xlink:title="config">
<polygon fill="none" stroke="black" points="142,-52 88,-52 88,-16 142,-16 142,-52"/>
<text text-anchor="middle" x="115" y="-31.5" font-family="Helvetica,sans-Serif" font-size="10.00">config</text>
</a>
</g>
</g>
<!-- dir_6908ff505388a07996d238c763adbdab&#45;&gt;dir_7e83d1792d529f4aa7126ac7e0b3b699 -->
<g id="edge5" class="edge">
<title>dir_6908ff505388a07996d238c763adbdab&#45;&gt;dir_7e83d1792d529f4aa7126ac7e0b3b699</title>
<path fill="none" stroke="black" d="M94.61,-159.77C102.37,-150.03 110.95,-137.18 115,-124 121.16,-103.97 120.79,-80.18 119.09,-62.24"/>
<polygon fill="black" stroke="black" points="122.55,-61.71 117.93,-52.17 115.59,-62.51 122.55,-61.71"/>
<g id="a_edge5&#45;headlabel"><a xlink:href="dir_000002_000005.html" target="_top" xlink:title="7">
<text text-anchor="middle" x="125.78" y="-62.46" font-family="Helvetica,sans-Serif" font-size="10.00">7</text>
</a>
</g>
</g>
<!-- dir_a0157e6e277ba485fc92d8029bf0571e -->
<g id="node4" class="node">
<title>dir_a0157e6e277ba485fc92d8029bf0571e</title>
<g id="a_node4"><a xlink:href="dir_a0157e6e277ba485fc92d8029bf0571e.html" target="_top" xlink:title="cgi">
<polygon fill="#eeeeff" stroke="black" points="106,-124 52,-124 52,-88 106,-88 106,-124"/>
<text text-anchor="middle" x="79" y="-103.5" font-family="Helvetica,sans-Serif" font-size="10.00">cgi</text>
</a>
</g>
</g>
<!-- dir_6908ff505388a07996d238c763adbdab&#45;&gt;dir_a0157e6e277ba485fc92d8029bf0571e -->
<g id="edge6" class="edge">
<title>dir_6908ff505388a07996d238c763adbdab&#45;&gt;dir_a0157e6e277ba485fc92d8029bf0571e</title>
<path fill="none" stroke="black" d="M73.08,-159.7C72.29,-151.98 72.06,-142.71 72.4,-134.11"/>
<polygon fill="black" stroke="black" points="75.9,-134.32 73.1,-124.1 68.92,-133.84 75.9,-134.32"/>
<g id="a_edge6&#45;headlabel"><a xlink:href="dir_000002_000001.html" target="_top" xlink:title="3">
<text text-anchor="middle" x="78.48" y="-135.61" font-family="Helvetica,sans-Serif" font-size="10.00">3</text>
</a>
</g>
</g>
<!-- dir_a0157e6e277ba485fc92d8029bf0571e&#45;&gt;dir_2d29d7dff7c7baf1180920f6796c23ae -->
<g id="edge1" class="edge">
<title>dir_a0157e6e277ba485fc92d8029bf0571e&#45;&gt;dir_2d29d7dff7c7baf1180920f6796c23ae</title>
<path fill="none" stroke="black" d="M70.1,-87.7C66,-79.73 61.05,-70.1 56.51,-61.26"/>
<polygon fill="black" stroke="black" points="59.48,-59.4 51.8,-52.1 53.26,-62.6 59.48,-59.4"/>
<g id="a_edge1&#45;headlabel"><a xlink:href="dir_000001_000006.html" target="_top" xlink:title="1">
<text text-anchor="middle" x="63.65" y="-58.79" font-family="Helvetica,sans-Serif" font-size="10.00">1</text>
</a>
</g>
</g>
<!-- dir_a0157e6e277ba485fc92d8029bf0571e&#45;&gt;dir_6908ff505388a07996d238c763adbdab -->
<g id="edge2" class="edge">
<title>dir_a0157e6e277ba485fc92d8029bf0571e&#45;&gt;dir_6908ff505388a07996d238c763adbdab</title>
<path fill="none" stroke="black" d="M84.9,-124.1C85.7,-131.79 85.94,-141.05 85.6,-149.67"/>
<polygon fill="black" stroke="black" points="82.11,-149.48 84.92,-159.7 89.09,-149.96 82.11,-149.48"/>
<g id="a_edge2&#45;headlabel"><a xlink:href="dir_000001_000002.html" target="_top" xlink:title="1">
<text text-anchor="middle" x="79.52" y="-143.2" font-family="Helvetica,sans-Serif" font-size="10.00">1</text>
</a>
</g>
</g>
<!-- dir_a0157e6e277ba485fc92d8029bf0571e&#45;&gt;dir_7e83d1792d529f4aa7126ac7e0b3b699 -->
<g id="edge3" class="edge">
<title>dir_a0157e6e277ba485fc92d8029bf0571e&#45;&gt;dir_7e83d1792d529f4aa7126ac7e0b3b699</title>
<path fill="none" stroke="black" d="M87.9,-87.7C92,-79.73 96.95,-70.1 101.49,-61.26"/>
<polygon fill="black" stroke="black" points="104.74,-62.6 106.2,-52.1 98.52,-59.4 104.74,-62.6"/>
<g id="a_edge3&#45;headlabel"><a xlink:href="dir_000001_000005.html" target="_top" xlink:title="1">
<text text-anchor="middle" x="105.62" y="-64.59" font-family="Helvetica,sans-Serif" font-size="10.00">1</text>
</a>
</g>
</g>
</g>
</svg>
