<?xml version="1.0" encoding="UTF-8" standalone="no"?>
<!DOCTYPE svg PUBLIC "-//W3C//DTD SVG 1.1//EN"
 "http://www.w3.org/Graphics/SVG/1.1/DTD/svg11.dtd">
<!-- Generated by graphviz version 2.43.0 (0)
 -->
<!-- Title: src/network/EpollWrapper.hpp Pages: 1 -->
<svg width="517pt" height="140pt"
 viewBox="0.00 0.00 516.50 140.00" xmlns="http://www.w3.org/2000/svg" xmlns:xlink="http://www.w3.org/1999/xlink">
<g id="graph0" class="graph" transform="scale(1 1) rotate(0) translate(4 136)">
<title>src/network/EpollWrapper.hpp</title>
<polygon fill="white" stroke="transparent" points="-4,4 -4,-136 512.5,-136 512.5,4 -4,4"/>
<!-- Node1 -->
<g id="node1" class="node">
<title>Node1</title>
<g id="a_node1"><a xlink:title=" ">
<polygon fill="#bfbfbf" stroke="black" points="84,-112.5 84,-131.5 230,-131.5 230,-112.5 84,-112.5"/>
<text text-anchor="middle" x="157" y="-119.5" font-family="Helvetica,sans-Serif" font-size="10.00">src/network/EpollWrapper.hpp</text>
</a>
</g>
</g>
<!-- Node2 -->
<g id="node2" class="node">
<title>Node2</title>
<g id="a_node2"><a xlink:href="EpollWrapper_8cpp.html" target="_top" xlink:title=" ">
<polygon fill="white" stroke="black" points="0,-56.5 0,-75.5 146,-75.5 146,-56.5 0,-56.5"/>
<text text-anchor="middle" x="73" y="-63.5" font-family="Helvetica,sans-Serif" font-size="10.00">src/network/EpollWrapper.cpp</text>
</a>
</g>
</g>
<!-- Node1&#45;&gt;Node2 -->
<g id="edge1" class="edge">
<title>Node1&#45;&gt;Node2</title>
<path fill="none" stroke="midnightblue" d="M135.07,-106.9C119.66,-97 99.55,-84.07 86.46,-75.65"/>
<polygon fill="midnightblue" stroke="midnightblue" points="133.2,-109.86 143.5,-112.32 136.98,-103.97 133.2,-109.86"/>
</g>
<!-- Node3 -->
<g id="node3" class="node">
<title>Node3</title>
<g id="a_node3"><a xlink:href="ServerManager_8hpp.html" target="_top" xlink:title=" ">
<polygon fill="white" stroke="black" points="164.5,-56.5 164.5,-75.5 319.5,-75.5 319.5,-56.5 164.5,-56.5"/>
<text text-anchor="middle" x="242" y="-63.5" font-family="Helvetica,sans-Serif" font-size="10.00">src/network/ServerManager.hpp</text>
</a>
</g>
</g>
<!-- Node1&#45;&gt;Node3 -->
<g id="edge2" class="edge">
<title>Node1&#45;&gt;Node3</title>
<path fill="none" stroke="midnightblue" d="M179.19,-106.9C194.78,-97 215.13,-84.07 228.38,-75.65"/>
<polygon fill="midnightblue" stroke="midnightblue" points="177.22,-104.01 170.66,-112.32 180.97,-109.92 177.22,-104.01"/>
</g>
<!-- Node4 -->
<g id="node4" class="node">
<title>Node4</title>
<g id="a_node4"><a xlink:href="Client_8cpp.html" target="_top" xlink:title=" ">
<polygon fill="white" stroke="black" points="3,-0.5 3,-19.5 107,-19.5 107,-0.5 3,-0.5"/>
<text text-anchor="middle" x="55" y="-7.5" font-family="Helvetica,sans-Serif" font-size="10.00">src/client/Client.cpp</text>
</a>
</g>
</g>
<!-- Node3&#45;&gt;Node4 -->
<g id="edge3" class="edge">
<title>Node3&#45;&gt;Node4</title>
<path fill="none" stroke="midnightblue" d="M202.41,-53.57C167.13,-43.38 116.31,-28.7 84.49,-19.52"/>
<polygon fill="midnightblue" stroke="midnightblue" points="201.79,-57.03 212.37,-56.44 203.73,-50.31 201.79,-57.03"/>
</g>
<!-- Node5 -->
<g id="node5" class="node">
<title>Node5</title>
<g id="a_node5"><a xlink:href="ClientCgi_8cpp.html" target="_top" xlink:title=" ">
<polygon fill="white" stroke="black" points="125.5,-0.5 125.5,-19.5 244.5,-19.5 244.5,-0.5 125.5,-0.5"/>
<text text-anchor="middle" x="185" y="-7.5" font-family="Helvetica,sans-Serif" font-size="10.00">src/client/ClientCgi.cpp</text>
</a>
</g>
</g>
<!-- Node3&#45;&gt;Node5 -->
<g id="edge4" class="edge">
<title>Node3&#45;&gt;Node5</title>
<path fill="none" stroke="midnightblue" d="M225.38,-49.25C215.27,-39.67 202.72,-27.79 194.32,-19.83"/>
<polygon fill="midnightblue" stroke="midnightblue" points="223.18,-51.99 232.84,-56.32 227.99,-46.91 223.18,-51.99"/>
</g>
<!-- Node6 -->
<g id="node6" class="node">
<title>Node6</title>
<g id="a_node6"><a xlink:href="main_8cpp.html" target="_top" xlink:title=" ">
<polygon fill="white" stroke="black" points="262.5,-0.5 262.5,-19.5 335.5,-19.5 335.5,-0.5 262.5,-0.5"/>
<text text-anchor="middle" x="299" y="-7.5" font-family="Helvetica,sans-Serif" font-size="10.00">src/main.cpp</text>
</a>
</g>
</g>
<!-- Node3&#45;&gt;Node6 -->
<g id="edge5" class="edge">
<title>Node3&#45;&gt;Node6</title>
<path fill="none" stroke="midnightblue" d="M258.62,-49.25C268.73,-39.67 281.28,-27.79 289.68,-19.83"/>
<polygon fill="midnightblue" stroke="midnightblue" points="256.01,-46.91 251.16,-56.32 260.82,-51.99 256.01,-46.91"/>
</g>
<!-- Node7 -->
<g id="node7" class="node">
<title>Node7</title>
<g id="a_node7"><a xlink:href="ServerManager_8cpp.html" target="_top" xlink:title=" ">
<polygon fill="white" stroke="black" points="353.5,-0.5 353.5,-19.5 508.5,-19.5 508.5,-0.5 353.5,-0.5"/>
<text text-anchor="middle" x="431" y="-7.5" font-family="Helvetica,sans-Serif" font-size="10.00">src/network/ServerManager.cpp</text>
</a>
</g>
</g>
<!-- Node3&#45;&gt;Node7 -->
<g id="edge6" class="edge">
<title>Node3&#45;&gt;Node7</title>
<path fill="none" stroke="midnightblue" d="M282.01,-53.57C317.67,-43.38 369.04,-28.7 401.19,-19.52"/>
<polygon fill="midnightblue" stroke="midnightblue" points="280.6,-50.33 271.95,-56.44 282.52,-57.06 280.6,-50.33"/>
</g>
</g>
</svg>
