<?xml version="1.0" encoding="UTF-8" standalone="no"?>
<!DOCTYPE svg PUBLIC "-//W3C//DTD SVG 1.1//EN"
 "http://www.w3.org/Graphics/SVG/1.1/DTD/svg11.dtd">
<!-- Generated by graphviz version 2.43.0 (0)
 -->
<!-- Title: buildErrorResponse Pages: 1 -->
<!--zoomable 472 -->
<svg id="main" version="1.1" xmlns="http://www.w3.org/2000/svg" xmlns:xlink="http://www.w3.org/1999/xlink" xml:space="preserve" onload="init(evt)">
<style type="text/css"><![CDATA[
.edge:hover path { stroke: red; }
.edge:hover polygon { stroke: red; fill: red; }
]]></style>
<script type="text/javascript"><![CDATA[
var edges = document.getElementsByTagName('g');
if (edges && edges.length) {
  for (var i=0;i<edges.length;i++) {
    if (edges[i].id.substr(0,4)=='edge') {
      edges[i].setAttribute('class','edge');
    }
  }
}
]]></script>
        <defs>
                <circle id="rim" cx="0" cy="0" r="7"/>
                <circle id="rim2" cx="0" cy="0" r="3.5"/>
                <g id="zoomPlus">
                        <use xlink:href="#rim" fill="#404040">
                                <set attributeName="fill" to="#808080" begin="zoomplus.mouseover" end="zoomplus.mouseout"/>
                        </use>
                        <path d="M-4,0h8M0,-4v8" fill="none" stroke="white" stroke-width="1.5" pointer-events="none"/>
                </g>
                <g id="zoomMin">
                        <use xlink:href="#rim" fill="#404040">
                                <set attributeName="fill" to="#808080" begin="zoomminus.mouseover" end="zoomminus.mouseout"/>
                        </use>
                        <path d="M-4,0h8" fill="none" stroke="white" stroke-width="1.5" pointer-events="none"/>
                </g>
                <g id="dirArrow">
                        <path fill="none" stroke="white" stroke-width="1.5" d="M0,-3.0v7 M-2.5,-0.5L0,-3.0L2.5,-0.5"/>
                </g>
               <g id="resetDef">
                       <use xlink:href="#rim2" fill="#404040">
                               <set attributeName="fill" to="#808080" begin="reset.mouseover" end="reset.mouseout"/>
                       </use>
               </g>
        </defs>

<script type="text/javascript">
var viewWidth = 732;
var viewHeight = 472;
var sectionId = 'dynsection-1';
</script>
<script xlink:href="svgpan.js"/>
<svg id="graph" class="graph">
<g id="viewport">
<title>buildErrorResponse</title>
<polygon fill="white" stroke="transparent" points="-4,4 -4,-467.91 728,-467.91 728,4 -4,4"/>
<!-- Node1 -->
<g id="node1" class="node">
<title>Node1</title>
<g id="a_node1"><a xlink:title=" ">
<polygon fill="#bfbfbf" stroke="black" points="0,-228.5 0,-247.5 102,-247.5 102,-228.5 0,-228.5"/>
<text text-anchor="middle" x="51" y="-235.5" font-family="Helvetica,sans-Serif" font-size="10.00">buildErrorResponse</text>
</a>
</g>
</g>
<!-- Node2 -->
<g id="node2" class="node">
<title>Node2</title>
<g id="a_node2"><a xlink:href="ResponseUtils_8cpp.html#ab7c2cb6fbf297c09ec402182b04584c6" target="_top" xlink:title=" ">
<polygon fill="white" stroke="black" points="138,-247.5 138,-266.5 231,-266.5 231,-247.5 138,-247.5"/>
<text text-anchor="middle" x="184.5" y="-254.5" font-family="Helvetica,sans-Serif" font-size="10.00">fillBaseResponse</text>
</a>
</g>
</g>
<!-- Node1&#45;&gt;Node2 -->
<g id="edge1" class="edge">
<title>Node1&#45;&gt;Node2</title>
<path fill="none" stroke="midnightblue" d="M102.09,-245.24C110.54,-246.46 119.36,-247.73 127.94,-248.97"/>
<polygon fill="midnightblue" stroke="midnightblue" points="127.47,-252.44 137.87,-250.41 128.47,-245.51 127.47,-252.44"/>
</g>
<!-- Node7 -->
<g id="node7" class="node">
<title>Node7</title>
<g id="a_node7"><a xlink:href="classHttpResponse.html#a7efa3ab17ead358609d80b55db164867" target="_top" xlink:title=" ">
<polygon fill="white" stroke="black" points="459,-342.5 459,-361.5 590,-361.5 590,-342.5 459,-342.5"/>
<text text-anchor="middle" x="524.5" y="-349.5" font-family="Helvetica,sans-Serif" font-size="10.00">HttpResponse::setHeader</text>
</a>
</g>
</g>
<!-- Node1&#45;&gt;Node7 -->
<g id="edge26" class="edge">
<title>Node1&#45;&gt;Node7</title>
<path fill="none" stroke="midnightblue" d="M56.45,-247.5C67.56,-270.46 98.48,-329.84 138,-368 186.36,-414.7 202.29,-428.76 267,-447 333.31,-465.69 357.93,-472.31 422,-447 461.24,-431.5 494.21,-392.88 511.19,-369.93"/>
<polygon fill="midnightblue" stroke="midnightblue" points="514.09,-371.88 517.08,-361.72 508.4,-367.81 514.09,-371.88"/>
</g>
<!-- Node14 -->
<g id="node14" class="node">
<title>Node14</title>
<g id="a_node14"><a xlink:href="classHttpResponse.html#a11a67ba43096f5eb1870e65f1814d364" target="_top" xlink:title=" ">
<polygon fill="white" stroke="black" points="267,-418.5 267,-437.5 422,-437.5 422,-418.5 267,-418.5"/>
<text text-anchor="middle" x="344.5" y="-425.5" font-family="Helvetica,sans-Serif" font-size="10.00">HttpResponse::setContentType</text>
</a>
</g>
</g>
<!-- Node1&#45;&gt;Node14 -->
<g id="edge25" class="edge">
<title>Node1&#45;&gt;Node14</title>
<path fill="none" stroke="midnightblue" d="M61.23,-247.87C89.21,-277.2 176.72,-364.53 267,-409 271.91,-411.42 277.15,-413.55 282.51,-415.41"/>
<polygon fill="midnightblue" stroke="midnightblue" points="281.62,-418.8 292.21,-418.5 283.74,-412.13 281.62,-418.8"/>
</g>
<!-- Node20 -->
<g id="node20" class="node">
<title>Node20</title>
<g id="a_node20"><a xlink:href="ErrorUtils_8cpp.html#aa759f2b84e51d20fdf7801c0514c3635" target="_top" xlink:title=" ">
<polygon fill="white" stroke="black" points="142.5,-209.5 142.5,-228.5 226.5,-228.5 226.5,-209.5 142.5,-209.5"/>
<text text-anchor="middle" x="184.5" y="-216.5" font-family="Helvetica,sans-Serif" font-size="10.00">readFileToBody</text>
</a>
</g>
</g>
<!-- Node1&#45;&gt;Node20 -->
<g id="edge23" class="edge">
<title>Node1&#45;&gt;Node20</title>
<path fill="none" stroke="midnightblue" d="M102.09,-230.76C111.89,-229.35 122.19,-227.86 132.04,-226.44"/>
<polygon fill="midnightblue" stroke="midnightblue" points="132.7,-229.88 142.1,-224.98 131.7,-222.95 132.7,-229.88"/>
</g>
<!-- Node21 -->
<g id="node21" class="node">
<title>Node21</title>
<g id="a_node21"><a xlink:href="RequestProcessorUtils_8cpp.html#aa9c12d87cb0781b781a580ff9bfd0c06" target="_top" xlink:title=" ">
<polygon fill="white" stroke="black" points="150.5,-171.5 150.5,-190.5 218.5,-190.5 218.5,-171.5 150.5,-171.5"/>
<text text-anchor="middle" x="184.5" y="-178.5" font-family="Helvetica,sans-Serif" font-size="10.00">resolvePath</text>
</a>
</g>
</g>
<!-- Node1&#45;&gt;Node21 -->
<g id="edge24" class="edge">
<title>Node1&#45;&gt;Node21</title>
<path fill="none" stroke="midnightblue" d="M73.51,-228.35C90.87,-220.6 115.95,-209.47 138,-200 142.18,-198.2 146.59,-196.33 150.95,-194.5"/>
<polygon fill="midnightblue" stroke="midnightblue" points="152.44,-197.67 160.31,-190.57 149.74,-191.21 152.44,-197.67"/>
</g>
<!-- Node22 -->
<g id="node22" class="node">
<title>Node22</title>
<g id="a_node22"><a xlink:href="ResponseUtils_8cpp.html#a1c98cd4773c38cae6781a257fa318ca7" target="_top" xlink:title=" ">
<polygon fill="white" stroke="black" points="161,-133.5 161,-152.5 208,-152.5 208,-133.5 161,-133.5"/>
<text text-anchor="middle" x="184.5" y="-140.5" font-family="Helvetica,sans-Serif" font-size="10.00">toBody</text>
</a>
</g>
</g>
<!-- Node1&#45;&gt;Node22 -->
<g id="edge27" class="edge">
<title>Node1&#45;&gt;Node22</title>
<path fill="none" stroke="midnightblue" d="M60.73,-228.47C75.43,-212.88 106.59,-181.68 138,-162 142.13,-159.41 146.68,-157.03 151.26,-154.9"/>
<polygon fill="midnightblue" stroke="midnightblue" points="152.77,-158.06 160.56,-150.88 149.99,-151.63 152.77,-158.06"/>
</g>
<!-- Node3 -->
<g id="node3" class="node">
<title>Node3</title>
<g id="a_node3"><a xlink:href="SessionUtils_8cpp.html#aabfd66406b8a4aec4237b26ff8e76a65" target="_top" xlink:title=" ">
<polygon fill="white" stroke="black" points="275.5,-76.5 275.5,-95.5 413.5,-95.5 413.5,-76.5 275.5,-76.5"/>
<text text-anchor="middle" x="344.5" y="-83.5" font-family="Helvetica,sans-Serif" font-size="10.00">addSessionCookieIfNeeded</text>
</a>
</g>
</g>
<!-- Node2&#45;&gt;Node3 -->
<g id="edge2" class="edge">
<title>Node2&#45;&gt;Node3</title>
<path fill="none" stroke="midnightblue" d="M218.72,-247.43C223.32,-244.96 227.61,-241.86 231,-238 271.37,-191.95 223.25,-147.85 267,-105 268.47,-103.56 270.02,-102.23 271.66,-100.99"/>
<polygon fill="midnightblue" stroke="midnightblue" points="273.73,-103.83 280.37,-95.57 270.03,-97.88 273.73,-103.83"/>
</g>
<!-- Node2&#45;&gt;Node7 -->
<g id="edge17" class="edge">
<title>Node2&#45;&gt;Node7</title>
<path fill="none" stroke="midnightblue" d="M203.16,-266.61C219.37,-275.09 244.24,-287.27 267,-295 302.98,-307.22 400.75,-327.67 464.65,-340.47"/>
<polygon fill="midnightblue" stroke="midnightblue" points="464.11,-343.93 474.61,-342.46 465.48,-337.07 464.11,-343.93"/>
</g>
<!-- Node9 -->
<g id="node9" class="node">
<title>Node9</title>
<g id="a_node9"><a xlink:href="classHttpRequest.html#adf523a5345b525702a858f8792bab8ea" target="_top" xlink:title=" ">
<polygon fill="white" stroke="black" points="282.5,-38.5 282.5,-57.5 406.5,-57.5 406.5,-38.5 282.5,-38.5"/>
<text text-anchor="middle" x="344.5" y="-45.5" font-family="Helvetica,sans-Serif" font-size="10.00">HttpRequest::getMethod</text>
</a>
</g>
</g>
<!-- Node2&#45;&gt;Node9 -->
<g id="edge8" class="edge">
<title>Node2&#45;&gt;Node9</title>
<path fill="none" stroke="midnightblue" d="M219.37,-247.35C223.77,-244.89 227.83,-241.82 231,-238 280.52,-178.17 213.08,-122.9 267,-67 269.05,-64.88 271.29,-62.98 273.69,-61.28"/>
<polygon fill="midnightblue" stroke="midnightblue" points="275.47,-64.29 282.35,-56.23 271.94,-58.24 275.47,-64.29"/>
</g>
<!-- Node10 -->
<g id="node10" class="node">
<title>Node10</title>
<g id="a_node10"><a xlink:href="classHttpRequest.html#acde519e492e10352bc39d6a3bcd857b2" target="_top" xlink:title=" ">
<polygon fill="white" stroke="black" points="288.5,-0.5 288.5,-19.5 400.5,-19.5 400.5,-0.5 288.5,-0.5"/>
<text text-anchor="middle" x="344.5" y="-7.5" font-family="Helvetica,sans-Serif" font-size="10.00">HttpRequest::getPath</text>
</a>
</g>
</g>
<!-- Node2&#45;&gt;Node10 -->
<g id="edge9" class="edge">
<title>Node2&#45;&gt;Node10</title>
<path fill="none" stroke="midnightblue" d="M219.5,-247.45C223.88,-244.98 227.91,-241.88 231,-238 289.75,-164.29 202.82,-98.03 267,-29 270.43,-25.31 274.46,-22.29 278.83,-19.82"/>
<polygon fill="midnightblue" stroke="midnightblue" points="280.62,-22.85 288.24,-15.49 277.69,-16.49 280.62,-22.85"/>
</g>
<!-- Node11 -->
<g id="node11" class="node">
<title>Node11</title>
<g id="a_node11"><a xlink:href="classHttpRequest.html#ac2a5d18d42289a03b57215c98d8df41e" target="_top" xlink:title=" ">
<polygon fill="white" stroke="black" points="282,-380.5 282,-399.5 407,-399.5 407,-380.5 282,-380.5"/>
<text text-anchor="middle" x="344.5" y="-387.5" font-family="Helvetica,sans-Serif" font-size="10.00">HttpRequest::getVersion</text>
</a>
</g>
</g>
<!-- Node2&#45;&gt;Node11 -->
<g id="edge10" class="edge">
<title>Node2&#45;&gt;Node11</title>
<path fill="none" stroke="midnightblue" d="M189.57,-266.72C199.38,-288.91 226.55,-343.52 267,-371 269.92,-372.98 273.02,-374.76 276.25,-376.35"/>
<polygon fill="midnightblue" stroke="midnightblue" points="275.04,-379.64 285.61,-380.36 277.8,-373.2 275.04,-379.64"/>
</g>
<!-- Node12 -->
<g id="node12" class="node">
<title>Node12</title>
<g id="a_node12"><a xlink:href="classHttpResponse.html#acba4d7264c5b05e63a199c87f8526473" target="_top" xlink:title=" ">
<polygon fill="white" stroke="black" points="458,-285.5 458,-304.5 591,-304.5 591,-285.5 458,-285.5"/>
<text text-anchor="middle" x="524.5" y="-292.5" font-family="Helvetica,sans-Serif" font-size="10.00">HttpResponse::hasHeader</text>
</a>
</g>
</g>
<!-- Node2&#45;&gt;Node12 -->
<g id="edge11" class="edge">
<title>Node2&#45;&gt;Node12</title>
<path fill="none" stroke="midnightblue" d="M231.27,-252.21C279.23,-248.3 356.55,-245.15 422,-257 447.62,-261.64 475.19,-272.36 495.13,-281.24"/>
<polygon fill="midnightblue" stroke="midnightblue" points="493.71,-284.44 504.26,-285.41 496.62,-278.07 493.71,-284.44"/>
</g>
<!-- Node13 -->
<g id="node13" class="node">
<title>Node13</title>
<g id="a_node13"><a xlink:href="classHttpResponse.html#a884d07c418ba6145385d63e43bb1b29a" target="_top" xlink:title=" ">
<polygon fill="white" stroke="black" points="283.5,-342.5 283.5,-361.5 405.5,-361.5 405.5,-342.5 283.5,-342.5"/>
<text text-anchor="middle" x="344.5" y="-349.5" font-family="Helvetica,sans-Serif" font-size="10.00">HttpResponse::setBody</text>
</a>
</g>
</g>
<!-- Node2&#45;&gt;Node13 -->
<g id="edge13" class="edge">
<title>Node2&#45;&gt;Node13</title>
<path fill="none" stroke="midnightblue" d="M194.06,-266.69C207.95,-281.83 236.87,-311.13 267,-328 274.85,-332.4 283.62,-336.1 292.34,-339.19"/>
<polygon fill="midnightblue" stroke="midnightblue" points="291.52,-342.6 302.11,-342.41 293.71,-335.95 291.52,-342.6"/>
</g>
<!-- Node2&#45;&gt;Node14 -->
<g id="edge14" class="edge">
<title>Node2&#45;&gt;Node14</title>
<path fill="none" stroke="midnightblue" d="M190.38,-266.61C206.98,-299.24 260.62,-404.04 267,-409 269.33,-410.81 271.81,-412.45 274.4,-413.94"/>
<polygon fill="midnightblue" stroke="midnightblue" points="273.03,-417.17 283.55,-418.42 276.11,-410.88 273.03,-417.17"/>
</g>
<!-- Node15 -->
<g id="node15" class="node">
<title>Node15</title>
<g id="a_node15"><a xlink:href="classHttpResponse.html#ac982631ddcf451521e207ac0c2bd0108" target="_top" xlink:title=" ">
<polygon fill="white" stroke="black" points="273,-266.5 273,-285.5 416,-285.5 416,-266.5 273,-266.5"/>
<text text-anchor="middle" x="344.5" y="-273.5" font-family="Helvetica,sans-Serif" font-size="10.00">HttpResponse::setHeadOnly</text>
</a>
</g>
</g>
<!-- Node2&#45;&gt;Node15 -->
<g id="edge18" class="edge">
<title>Node2&#45;&gt;Node15</title>
<path fill="none" stroke="midnightblue" d="M231.2,-262.5C241.18,-263.7 252.02,-265 262.91,-266.31"/>
<polygon fill="midnightblue" stroke="midnightblue" points="262.55,-269.79 272.9,-267.51 263.39,-262.84 262.55,-269.79"/>
</g>
<!-- Node16 -->
<g id="node16" class="node">
<title>Node16</title>
<g id="a_node16"><a xlink:href="classHttpResponse.html#a610f8f887ca042f2b18ec395aaccc255" target="_top" xlink:title=" ">
<polygon fill="white" stroke="black" points="269,-190.5 269,-209.5 420,-209.5 420,-190.5 269,-190.5"/>
<text text-anchor="middle" x="344.5" y="-197.5" font-family="Helvetica,sans-Serif" font-size="10.00">HttpResponse::setStatusCode</text>
</a>
</g>
</g>
<!-- Node2&#45;&gt;Node16 -->
<g id="edge19" class="edge">
<title>Node2&#45;&gt;Node16</title>
<path fill="none" stroke="midnightblue" d="M208.74,-247.35C228.69,-239.1 255.94,-227.97 267,-224 278.05,-220.04 290.11,-216.08 301.33,-212.56"/>
<polygon fill="midnightblue" stroke="midnightblue" points="302.41,-215.89 310.92,-209.59 300.33,-209.2 302.41,-215.89"/>
</g>
<!-- Node18 -->
<g id="node18" class="node">
<title>Node18</title>
<g id="a_node18"><a xlink:href="classHttpResponse.html#a407dc1ea3f01365d8105fadc0418bc79" target="_top" xlink:title=" ">
<polygon fill="white" stroke="black" points="278.5,-152.5 278.5,-171.5 410.5,-171.5 410.5,-152.5 278.5,-152.5"/>
<text text-anchor="middle" x="344.5" y="-159.5" font-family="Helvetica,sans-Serif" font-size="10.00">HttpResponse::setVersion</text>
</a>
</g>
</g>
<!-- Node2&#45;&gt;Node18 -->
<g id="edge21" class="edge">
<title>Node2&#45;&gt;Node18</title>
<path fill="none" stroke="midnightblue" d="M215.88,-247.39C221.26,-244.86 226.55,-241.76 231,-238 253.89,-218.66 242.71,-198.54 267,-181 269.66,-179.08 272.5,-177.35 275.45,-175.79"/>
<polygon fill="midnightblue" stroke="midnightblue" points="276.95,-178.96 284.61,-171.63 274.05,-172.58 276.95,-178.96"/>
</g>
<!-- Node19 -->
<g id="node19" class="node">
<title>Node19</title>
<g id="a_node19"><a xlink:href="ResponseUtils_8cpp.html#af8cce302648449aa6215ac211230ef75" target="_top" xlink:title=" ">
<polygon fill="white" stroke="black" points="302.5,-114.5 302.5,-133.5 386.5,-133.5 386.5,-114.5 302.5,-114.5"/>
<text text-anchor="middle" x="344.5" y="-121.5" font-family="Helvetica,sans-Serif" font-size="10.00">versionToString</text>
</a>
</g>
</g>
<!-- Node2&#45;&gt;Node19 -->
<g id="edge22" class="edge">
<title>Node2&#45;&gt;Node19</title>
<path fill="none" stroke="midnightblue" d="M217.93,-247.38C222.74,-244.9 227.31,-241.81 231,-238 262.39,-205.54 233.23,-172.98 267,-143 274.22,-136.59 283.26,-132.28 292.58,-129.38"/>
<polygon fill="midnightblue" stroke="midnightblue" points="293.52,-132.75 302.32,-126.85 291.76,-125.98 293.52,-132.75"/>
</g>
<!-- Node4 -->
<g id="node4" class="node">
<title>Node4</title>
<g id="a_node4"><a xlink:href="SessionUtils_8cpp.html#af915f0cd7984e5d06370014bb43c74b6" target="_top" xlink:title=" ">
<polygon fill="white" stroke="black" points="481,-114.5 481,-133.5 568,-133.5 568,-114.5 481,-114.5"/>
<text text-anchor="middle" x="524.5" y="-121.5" font-family="Helvetica,sans-Serif" font-size="10.00">createSessionId</text>
</a>
</g>
</g>
<!-- Node3&#45;&gt;Node4 -->
<g id="edge3" class="edge">
<title>Node3&#45;&gt;Node4</title>
<path fill="none" stroke="midnightblue" d="M390.42,-95.59C414.87,-100.81 445.27,-107.3 470.84,-112.76"/>
<polygon fill="midnightblue" stroke="midnightblue" points="470.23,-116.21 480.74,-114.87 471.7,-109.36 470.23,-116.21"/>
</g>
<!-- Node5 -->
<g id="node5" class="node">
<title>Node5</title>
<g id="a_node5"><a xlink:href="SessionUtils_8cpp.html#a655520ad6c85707c8e1aae50c1eda6c8" target="_top" xlink:title=" ">
<polygon fill="white" stroke="black" points="470.5,-76.5 470.5,-95.5 578.5,-95.5 578.5,-76.5 470.5,-76.5"/>
<text text-anchor="middle" x="524.5" y="-83.5" font-family="Helvetica,sans-Serif" font-size="10.00">extractIdFromCookie</text>
</a>
</g>
</g>
<!-- Node3&#45;&gt;Node5 -->
<g id="edge4" class="edge">
<title>Node3&#45;&gt;Node5</title>
<path fill="none" stroke="midnightblue" d="M413.56,-86C428.87,-86 445.05,-86 460.16,-86"/>
<polygon fill="midnightblue" stroke="midnightblue" points="460.43,-89.5 470.43,-86 460.43,-82.5 460.43,-89.5"/>
</g>
<!-- Node6 -->
<g id="node6" class="node">
<title>Node6</title>
<g id="a_node6"><a xlink:href="classHttpRequest.html#ab537cb11b054734695ee4889d88aec6d" target="_top" xlink:title="Obtiene un header específico de la petición.">
<polygon fill="white" stroke="black" points="463,-38.5 463,-57.5 586,-57.5 586,-38.5 463,-38.5"/>
<text text-anchor="middle" x="524.5" y="-45.5" font-family="Helvetica,sans-Serif" font-size="10.00">HttpRequest::getHeader</text>
</a>
</g>
</g>
<!-- Node3&#45;&gt;Node6 -->
<g id="edge5" class="edge">
<title>Node3&#45;&gt;Node6</title>
<path fill="none" stroke="midnightblue" d="M390.42,-76.41C414.33,-71.31 443.92,-64.99 469.12,-59.61"/>
<polygon fill="midnightblue" stroke="midnightblue" points="469.86,-63.03 478.91,-57.52 468.4,-56.19 469.86,-63.03"/>
</g>
<!-- Node3&#45;&gt;Node7 -->
<g id="edge6" class="edge">
<title>Node3&#45;&gt;Node7</title>
<path fill="none" stroke="midnightblue" d="M409.74,-95.58C414.28,-98.09 418.46,-101.19 422,-105 486.18,-174.03 404.17,-236.63 458,-314 465.16,-324.29 476.06,-332.18 486.94,-338.04"/>
<polygon fill="midnightblue" stroke="midnightblue" points="485.46,-341.21 495.98,-342.49 488.55,-334.93 485.46,-341.21"/>
</g>
<!-- Node8 -->
<g id="node8" class="node">
<title>Node8</title>
<g id="a_node8"><a xlink:href="namespacehttp__header__utils.html#aa9b0e84aeed4203326a12eecbcd3f9e5" target="_top" xlink:title=" ">
<polygon fill="white" stroke="black" points="627,-337 627,-367 724,-367 724,-337 627,-337"/>
<text text-anchor="start" x="635" y="-355" font-family="Helvetica,sans-Serif" font-size="10.00">http_header_utils::</text>
<text text-anchor="middle" x="675.5" y="-344" font-family="Helvetica,sans-Serif" font-size="10.00">toLowerCopy</text>
</a>
</g>
</g>
<!-- Node7&#45;&gt;Node8 -->
<g id="edge7" class="edge">
<title>Node7&#45;&gt;Node8</title>
<path fill="none" stroke="midnightblue" d="M590.42,-352C599.12,-352 607.99,-352 616.56,-352"/>
<polygon fill="midnightblue" stroke="midnightblue" points="616.82,-355.5 626.82,-352 616.82,-348.5 616.82,-355.5"/>
</g>
<!-- Node12&#45;&gt;Node8 -->
<g id="edge12" class="edge">
<title>Node12&#45;&gt;Node8</title>
<path fill="none" stroke="midnightblue" d="M550.44,-304.54C570.93,-312.38 600.59,-323.73 625.77,-333.36"/>
<polygon fill="midnightblue" stroke="midnightblue" points="624.58,-336.65 635.17,-336.95 627.08,-330.11 624.58,-336.65"/>
</g>
<!-- Node14&#45;&gt;Node7 -->
<g id="edge15" class="edge">
<title>Node14&#45;&gt;Node7</title>
<path fill="none" stroke="midnightblue" d="M392.65,-418.4C402.5,-415.81 412.71,-412.68 422,-409 450.51,-397.69 480.89,-379.76 500.9,-367.03"/>
<polygon fill="midnightblue" stroke="midnightblue" points="502.82,-369.96 509.32,-361.59 499.02,-364.08 502.82,-369.96"/>
</g>
<!-- Node14&#45;&gt;Node8 -->
<g id="edge16" class="edge">
<title>Node14&#45;&gt;Node8</title>
<path fill="none" stroke="midnightblue" d="M386.83,-418.45C445.03,-405.01 551.34,-380.45 617.15,-365.25"/>
<polygon fill="midnightblue" stroke="midnightblue" points="618,-368.64 626.95,-362.98 616.42,-361.82 618,-368.64"/>
</g>
<!-- Node17 -->
<g id="node17" class="node">
<title>Node17</title>
<g id="a_node17"><a xlink:href="HttpResponse_8cpp.html#aadc8fd8bbc80a1b3551ea1357e04f07b" target="_top" xlink:title=" ">
<polygon fill="white" stroke="black" points="465,-190.5 465,-209.5 584,-209.5 584,-190.5 465,-190.5"/>
<text text-anchor="middle" x="524.5" y="-197.5" font-family="Helvetica,sans-Serif" font-size="10.00">reasonPhraseForStatus</text>
</a>
</g>
</g>
<!-- Node16&#45;&gt;Node17 -->
<g id="edge20" class="edge">
<title>Node16&#45;&gt;Node17</title>
<path fill="none" stroke="midnightblue" d="M420.21,-200C431.65,-200 443.41,-200 454.71,-200"/>
<polygon fill="midnightblue" stroke="midnightblue" points="454.94,-203.5 464.94,-200 454.94,-196.5 454.94,-203.5"/>
</g>
</g>
</svg>
        <g id="navigator" transform="translate(0 0)" fill="#404254">
                <rect fill="#f2f5e9" fill-opacity="0.5" stroke="#606060" stroke-width=".5" x="0" y="0" width="60" height="60"/>
                <use id="zoomplus" xlink:href="#zoomPlus" x="17" y="9" onmousedown="handleZoom(evt,'in')"/>
                <use id="zoomminus" xlink:href="#zoomMin" x="42" y="9" onmousedown="handleZoom(evt,'out')"/>
                <use id="reset" xlink:href="#resetDef" x="30" y="36" onmousedown="handleReset()"/>
                <g id="arrowUp" xlink:href="#dirArrow" transform="translate(30 24)" onmousedown="handlePan(0,-1)">
                  <use xlink:href="#rim" fill="#404040">
                        <set attributeName="fill" to="#808080" begin="arrowUp.mouseover" end="arrowUp.mouseout"/>
                  </use>
                  <path fill="none" stroke="white" stroke-width="1.5" d="M0,-3.0v7 M-2.5,-0.5L0,-3.0L2.5,-0.5"/>
                </g>
                <g id="arrowRight" xlink:href="#dirArrow" transform="rotate(90) translate(36 -43)" onmousedown="handlePan(1,0)">
                  <use xlink:href="#rim" fill="#404040">
                        <set attributeName="fill" to="#808080" begin="arrowRight.mouseover" end="arrowRight.mouseout"/>
                  </use>
                  <path fill="none" stroke="white" stroke-width="1.5" d="M0,-3.0v7 M-2.5,-0.5L0,-3.0L2.5,-0.5"/>
                </g>
                <g id="arrowDown" xlink:href="#dirArrow" transform="rotate(180) translate(-30 -48)" onmousedown="handlePan(0,1)">
                  <use xlink:href="#rim" fill="#404040">
                        <set attributeName="fill" to="#808080" begin="arrowDown.mouseover" end="arrowDown.mouseout"/>
                  </use>
                  <path fill="none" stroke="white" stroke-width="1.5" d="M0,-3.0v7 M-2.5,-0.5L0,-3.0L2.5,-0.5"/>
                </g>
                <g id="arrowLeft" xlink:href="#dirArrow" transform="rotate(270) translate(-36 17)" onmousedown="handlePan(-1,0)">
                  <use xlink:href="#rim" fill="#404040">
                        <set attributeName="fill" to="#808080" begin="arrowLeft.mouseover" end="arrowLeft.mouseout"/>
                  </use>
                  <path fill="none" stroke="white" stroke-width="1.5" d="M0,-3.0v7 M-2.5,-0.5L0,-3.0L2.5,-0.5"/>
                </g>
        </g>
        <svg viewBox="0 0 15 15" width="100%" height="30px" preserveAspectRatio="xMaxYMin meet">
         <g id="arrow_out" transform="scale(0.3 0.3)">
          <a xlink:href="ErrorUtils_8cpp_a470416220aa911b8f1274140a8322e7a_cgraph_org.svg" target="_base">
           <rect id="button" ry="5" rx="5" y="6" x="6" height="38" width="38"
                fill="#f2f5e9" fill-opacity="0.5" stroke="#606060" stroke-width="1.0"/>
           <path id="arrow"
             d="M 11.500037,31.436501 C 11.940474,20.09759 22.043105,11.32322 32.158766,21.979434 L 37.068811,17.246167 C 37.068811,17.246167 37.088388,32 37.088388,32 L 22.160133,31.978069 C 22.160133,31.978069 26.997745,27.140456 26.997745,27.140456 C 18.528582,18.264221 13.291696,25.230495 11.500037,31.436501 z"
             style="fill:#404040;"/>
          </a>
         </g>
        </svg>
</svg>
