<?xml version="1.0" encoding="UTF-8" standalone="no"?>
<!DOCTYPE svg PUBLIC "-//W3C//DTD SVG 1.1//EN"
 "http://www.w3.org/Graphics/SVG/1.1/DTD/svg11.dtd">
<!-- Generated by graphviz version 2.43.0 (0)
 -->
<!-- Title: src/client/ErrorUtils.cpp Pages: 1 -->
<!--zoomable 252 -->
<svg id="main" version="1.1" xmlns="http://www.w3.org/2000/svg" xmlns:xlink="http://www.w3.org/1999/xlink" xml:space="preserve" onload="init(evt)">
<style type="text/css"><![CDATA[
.edge:hover path { stroke: red; }
.edge:hover polygon { stroke: red; fill: red; }
]]></style>
<script type="text/javascript"><![CDATA[
var edges = document.getElementsByTagName('g');
if (edges && edges.length) {
  for (var i=0;i<edges.length;i++) {
    if (edges[i].id.substr(0,4)=='edge') {
      edges[i].setAttribute('class','edge');
    }
  }
}
]]></script>
        <defs>
                <circle id="rim" cx="0" cy="0" r="7"/>
                <circle id="rim2" cx="0" cy="0" r="3.5"/>
                <g id="zoomPlus">
                        <use xlink:href="#rim" fill="#404040">
                                <set attributeName="fill" to="#808080" begin="zoomplus.mouseover" end="zoomplus.mouseout"/>
                        </use>
                        <path d="M-4,0h8M0,-4v8" fill="none" stroke="white" stroke-width="1.5" pointer-events="none"/>
                </g>
                <g id="zoomMin">
                        <use xlink:href="#rim" fill="#404040">
                                <set attributeName="fill" to="#808080" begin="zoomminus.mouseover" end="zoomminus.mouseout"/>
                        </use>
                        <path d="M-4,0h8" fill="none" stroke="white" stroke-width="1.5" pointer-events="none"/>
                </g>
                <g id="dirArrow">
                        <path fill="none" stroke="white" stroke-width="1.5" d="M0,-3.0v7 M-2.5,-0.5L0,-3.0L2.5,-0.5"/>
                </g>
               <g id="resetDef">
                       <use xlink:href="#rim2" fill="#404040">
                               <set attributeName="fill" to="#808080" begin="reset.mouseover" end="reset.mouseout"/>
                       </use>
               </g>
        </defs>

<script type="text/javascript">
var viewWidth = 777;
var viewHeight = 252;
var sectionId = 'dynsection-0';
</script>
<script xlink:href="svgpan.js"/>
<svg id="graph" class="graph">
<g id="viewport">
<title>src/client/ErrorUtils.cpp</title>
<polygon fill="white" stroke="transparent" points="-4,4 -4,-248 773.45,-248 773.45,4 -4,4"/>
<!-- Node1 -->
<g id="node1" class="node">
<title>Node1</title>
<g id="a_node1"><a xlink:title=" ">
<polygon fill="#bfbfbf" stroke="black" points="521.95,-224.5 521.95,-243.5 640.95,-243.5 640.95,-224.5 521.95,-224.5"/>
<text text-anchor="middle" x="581.45" y="-231.5" font-family="Helvetica,sans-Serif" font-size="10.00">src/client/ErrorUtils.cpp</text>
</a>
</g>
</g>
<!-- Node2 -->
<g id="node2" class="node">
<title>Node2</title>
<g id="a_node2"><a xlink:href="ErrorUtils_8hpp.html" target="_top" xlink:title=" ">
<polygon fill="white" stroke="black" points="280.95,-168.5 280.95,-187.5 357.95,-187.5 357.95,-168.5 280.95,-168.5"/>
<text text-anchor="middle" x="319.45" y="-175.5" font-family="Helvetica,sans-Serif" font-size="10.00">ErrorUtils.hpp</text>
</a>
</g>
</g>
<!-- Node1&#45;&gt;Node2 -->
<g id="edge1" class="edge">
<title>Node1&#45;&gt;Node2</title>
<path fill="none" stroke="midnightblue" d="M539.94,-224.44C493.23,-214.82 417.45,-199.2 368.03,-189.01"/>
<polygon fill="midnightblue" stroke="midnightblue" points="368.71,-185.58 358.21,-186.99 367.3,-192.43 368.71,-185.58"/>
</g>
<!-- Node12 -->
<g id="node12" class="node">
<title>Node12</title>
<g id="a_node12"><a xlink:title=" ">
<polygon fill="white" stroke="#bfbfbf" points="649.45,-168.5 649.45,-187.5 699.45,-187.5 699.45,-168.5 649.45,-168.5"/>
<text text-anchor="middle" x="674.45" y="-175.5" font-family="Helvetica,sans-Serif" font-size="10.00">fstream</text>
</a>
</g>
</g>
<!-- Node1&#45;&gt;Node12 -->
<g id="edge24" class="edge">
<title>Node1&#45;&gt;Node12</title>
<path fill="none" stroke="midnightblue" d="M596.39,-224.32C611.04,-215.82 633.59,-202.73 650.69,-192.8"/>
<polygon fill="midnightblue" stroke="midnightblue" points="652.66,-195.7 659.55,-187.65 649.14,-189.65 652.66,-195.7"/>
</g>
<!-- Node13 -->
<g id="node13" class="node">
<title>Node13</title>
<g id="a_node13"><a xlink:title=" ">
<polygon fill="white" stroke="#bfbfbf" points="717.45,-168.5 717.45,-187.5 769.45,-187.5 769.45,-168.5 717.45,-168.5"/>
<text text-anchor="middle" x="743.45" y="-175.5" font-family="Helvetica,sans-Serif" font-size="10.00">sstream</text>
</a>
</g>
</g>
<!-- Node1&#45;&gt;Node13 -->
<g id="edge25" class="edge">
<title>Node1&#45;&gt;Node13</title>
<path fill="none" stroke="midnightblue" d="M607.12,-224.44C634.38,-215.36 677.64,-200.94 708.1,-190.78"/>
<polygon fill="midnightblue" stroke="midnightblue" points="709.52,-194 717.9,-187.52 707.31,-187.36 709.52,-194"/>
</g>
<!-- Node14 -->
<g id="node14" class="node">
<title>Node14</title>
<g id="a_node14"><a xlink:href="RequestProcessorUtils_8hpp.html" target="_top" xlink:title=" ">
<polygon fill="white" stroke="black" points="375.95,-168.5 375.95,-187.5 512.95,-187.5 512.95,-168.5 375.95,-168.5"/>
<text text-anchor="middle" x="444.45" y="-175.5" font-family="Helvetica,sans-Serif" font-size="10.00">RequestProcessorUtils.hpp</text>
</a>
</g>
</g>
<!-- Node1&#45;&gt;Node14 -->
<g id="edge26" class="edge">
<title>Node1&#45;&gt;Node14</title>
<path fill="none" stroke="midnightblue" d="M559.74,-224.44C537.1,-215.52 501.38,-201.44 475.7,-191.32"/>
<polygon fill="midnightblue" stroke="midnightblue" points="476.65,-187.93 466.06,-187.52 474.08,-194.44 476.65,-187.93"/>
</g>
<!-- Node15 -->
<g id="node15" class="node">
<title>Node15</title>
<g id="a_node15"><a xlink:href="ResponseUtils_8hpp.html" target="_top" xlink:title=" ">
<polygon fill="white" stroke="black" points="531.45,-168.5 531.45,-187.5 631.45,-187.5 631.45,-168.5 531.45,-168.5"/>
<text text-anchor="middle" x="581.45" y="-175.5" font-family="Helvetica,sans-Serif" font-size="10.00">ResponseUtils.hpp</text>
</a>
</g>
</g>
<!-- Node1&#45;&gt;Node15 -->
<g id="edge32" class="edge">
<title>Node1&#45;&gt;Node15</title>
<path fill="none" stroke="midnightblue" d="M581.45,-224.08C581.45,-217.01 581.45,-206.86 581.45,-197.99"/>
<polygon fill="midnightblue" stroke="midnightblue" points="584.95,-197.75 581.45,-187.75 577.95,-197.75 584.95,-197.75"/>
</g>
<!-- Node3 -->
<g id="node3" class="node">
<title>Node3</title>
<g id="a_node3"><a xlink:href="ServerConfig_8hpp.html" target="_top" xlink:title=" ">
<polygon fill="white" stroke="black" points="95.95,-112.5 95.95,-131.5 226.95,-131.5 226.95,-112.5 95.95,-112.5"/>
<text text-anchor="middle" x="161.45" y="-119.5" font-family="Helvetica,sans-Serif" font-size="10.00">../config/ServerConfig.hpp</text>
</a>
</g>
</g>
<!-- Node2&#45;&gt;Node3 -->
<g id="edge2" class="edge">
<title>Node2&#45;&gt;Node3</title>
<path fill="none" stroke="midnightblue" d="M294.42,-168.44C267.84,-159.36 225.64,-144.94 195.93,-134.78"/>
<polygon fill="midnightblue" stroke="midnightblue" points="196.97,-131.44 186.37,-131.52 194.7,-138.06 196.97,-131.44"/>
</g>
<!-- Node10 -->
<g id="node10" class="node">
<title>Node10</title>
<g id="a_node10"><a xlink:href="HttpRequest_8hpp.html" target="_top" xlink:title=" ">
<polygon fill="white" stroke="black" points="404.95,-56.5 404.95,-75.5 523.95,-75.5 523.95,-56.5 404.95,-56.5"/>
<text text-anchor="middle" x="464.45" y="-63.5" font-family="Helvetica,sans-Serif" font-size="10.00">../http/HttpRequest.hpp</text>
</a>
</g>
</g>
<!-- Node2&#45;&gt;Node10 -->
<g id="edge14" class="edge">
<title>Node2&#45;&gt;Node10</title>
<path fill="none" stroke="midnightblue" d="M330.83,-168.37C355.5,-149.65 414.16,-105.15 444.9,-81.83"/>
<polygon fill="midnightblue" stroke="midnightblue" points="447.28,-84.42 453.13,-75.59 443.05,-78.85 447.28,-84.42"/>
</g>
<!-- Node11 -->
<g id="node11" class="node">
<title>Node11</title>
<g id="a_node11"><a xlink:href="HttpResponse_8hpp.html" target="_top" xlink:title=" ">
<polygon fill="white" stroke="black" points="472.95,-112.5 472.95,-131.5 599.95,-131.5 599.95,-112.5 472.95,-112.5"/>
<text text-anchor="middle" x="536.45" y="-119.5" font-family="Helvetica,sans-Serif" font-size="10.00">../http/HttpResponse.hpp</text>
</a>
</g>
</g>
<!-- Node2&#45;&gt;Node11 -->
<g id="edge19" class="edge">
<title>Node2&#45;&gt;Node11</title>
<path fill="none" stroke="midnightblue" d="M353.84,-168.44C391.37,-159.1 451.58,-144.12 492.52,-133.93"/>
<polygon fill="midnightblue" stroke="midnightblue" points="493.37,-137.33 502.23,-131.52 491.68,-130.53 493.37,-137.33"/>
</g>
<!-- Node4 -->
<g id="node4" class="node">
<title>Node4</title>
<g id="a_node4"><a xlink:title=" ">
<polygon fill="white" stroke="#bfbfbf" points="44.45,-0.5 44.45,-19.5 98.45,-19.5 98.45,-0.5 44.45,-0.5"/>
<text text-anchor="middle" x="71.45" y="-7.5" font-family="Helvetica,sans-Serif" font-size="10.00">iostream</text>
</a>
</g>
</g>
<!-- Node3&#45;&gt;Node4 -->
<g id="edge3" class="edge">
<title>Node3&#45;&gt;Node4</title>
<path fill="none" stroke="midnightblue" d="M106.71,-112.45C66.56,-104.93 16.95,-92.59 4.45,-76 -10.68,-55.92 17.15,-36.3 41.42,-23.96"/>
<polygon fill="midnightblue" stroke="midnightblue" points="42.96,-27.1 50.45,-19.6 39.92,-20.8 42.96,-27.1"/>
</g>
<!-- Node5 -->
<g id="node5" class="node">
<title>Node5</title>
<g id="a_node5"><a xlink:title=" ">
<polygon fill="white" stroke="#bfbfbf" points="143.95,-0.5 143.95,-19.5 178.95,-19.5 178.95,-0.5 143.95,-0.5"/>
<text text-anchor="middle" x="161.45" y="-7.5" font-family="Helvetica,sans-Serif" font-size="10.00">map</text>
</a>
</g>
</g>
<!-- Node3&#45;&gt;Node5 -->
<g id="edge4" class="edge">
<title>Node3&#45;&gt;Node5</title>
<path fill="none" stroke="midnightblue" d="M95.92,-118.56C65.1,-113.7 30.93,-102.18 11.45,-76 6.15,-68.87 6.15,-63.13 11.45,-56 26.1,-36.32 94.63,-22.02 133.8,-15.3"/>
<polygon fill="midnightblue" stroke="midnightblue" points="134.48,-18.74 143.77,-13.65 133.33,-11.83 134.48,-18.74"/>
</g>
<!-- Node6 -->
<g id="node6" class="node">
<title>Node6</title>
<g id="a_node6"><a xlink:title=" ">
<polygon fill="white" stroke="#bfbfbf" points="443.95,-0.5 443.95,-19.5 484.95,-19.5 484.95,-0.5 443.95,-0.5"/>
<text text-anchor="middle" x="464.45" y="-7.5" font-family="Helvetica,sans-Serif" font-size="10.00">string</text>
</a>
</g>
</g>
<!-- Node3&#45;&gt;Node6 -->
<g id="edge5" class="edge">
<title>Node3&#45;&gt;Node6</title>
<path fill="none" stroke="midnightblue" d="M165.02,-112.16C171.29,-97.83 185.72,-69.75 207.45,-56 244.74,-32.41 374.09,-18.66 433.81,-13.44"/>
<polygon fill="midnightblue" stroke="midnightblue" points="434.11,-16.93 443.78,-12.59 433.51,-9.95 434.11,-16.93"/>
</g>
<!-- Node7 -->
<g id="node7" class="node">
<title>Node7</title>
<g id="a_node7"><a xlink:title=" ">
<polygon fill="white" stroke="#bfbfbf" points="535.45,-0.5 535.45,-19.5 579.45,-19.5 579.45,-0.5 535.45,-0.5"/>
<text text-anchor="middle" x="557.45" y="-7.5" font-family="Helvetica,sans-Serif" font-size="10.00">vector</text>
</a>
</g>
</g>
<!-- Node3&#45;&gt;Node7 -->
<g id="edge6" class="edge">
<title>Node3&#45;&gt;Node7</title>
<path fill="none" stroke="midnightblue" d="M214.2,-112.48C254.02,-105.18 309.62,-93.11 356.45,-76 374.75,-69.31 377.31,-63.09 395.45,-56 439.25,-38.89 492.06,-25.5 525.21,-17.92"/>
<polygon fill="midnightblue" stroke="midnightblue" points="526.26,-21.27 535.24,-15.66 524.72,-14.44 526.26,-21.27"/>
</g>
<!-- Node8 -->
<g id="node8" class="node">
<title>Node8</title>
<g id="a_node8"><a xlink:href="LocationConfig_8hpp.html" target="_top" xlink:title=" ">
<polygon fill="white" stroke="black" points="20.95,-56.5 20.95,-75.5 121.95,-75.5 121.95,-56.5 20.95,-56.5"/>
<text text-anchor="middle" x="71.45" y="-63.5" font-family="Helvetica,sans-Serif" font-size="10.00">LocationConfig.hpp</text>
</a>
</g>
</g>
<!-- Node3&#45;&gt;Node8 -->
<g id="edge7" class="edge">
<title>Node3&#45;&gt;Node8</title>
<path fill="none" stroke="midnightblue" d="M146.99,-112.32C132.95,-103.9 111.4,-90.97 94.91,-81.07"/>
<polygon fill="midnightblue" stroke="midnightblue" points="96.25,-77.8 85.88,-75.65 92.65,-83.8 96.25,-77.8"/>
</g>
<!-- Node9 -->
<g id="node9" class="node">
<title>Node9</title>
<g id="a_node9"><a xlink:href="namespaces_8hpp.html" target="_top" xlink:title=" ">
<polygon fill="white" stroke="black" points="216.95,-56.5 216.95,-75.5 347.95,-75.5 347.95,-56.5 216.95,-56.5"/>
<text text-anchor="middle" x="282.45" y="-63.5" font-family="Helvetica,sans-Serif" font-size="10.00">common/namespaces.hpp</text>
</a>
</g>
</g>
<!-- Node3&#45;&gt;Node9 -->
<g id="edge12" class="edge">
<title>Node3&#45;&gt;Node9</title>
<path fill="none" stroke="midnightblue" d="M180.63,-112.44C200.36,-103.64 231.34,-89.81 253.95,-79.72"/>
<polygon fill="midnightblue" stroke="midnightblue" points="255.66,-82.79 263.37,-75.52 252.81,-76.4 255.66,-82.79"/>
</g>
<!-- Node8&#45;&gt;Node4 -->
<g id="edge8" class="edge">
<title>Node8&#45;&gt;Node4</title>
<path fill="none" stroke="midnightblue" d="M71.45,-56.08C71.45,-49.01 71.45,-38.86 71.45,-29.99"/>
<polygon fill="midnightblue" stroke="midnightblue" points="74.95,-29.75 71.45,-19.75 67.95,-29.75 74.95,-29.75"/>
</g>
<!-- Node8&#45;&gt;Node5 -->
<g id="edge9" class="edge">
<title>Node8&#45;&gt;Node5</title>
<path fill="none" stroke="midnightblue" d="M85.91,-56.32C99.95,-47.9 121.5,-34.97 138,-25.07"/>
<polygon fill="midnightblue" stroke="midnightblue" points="140.25,-27.8 147.03,-19.65 136.65,-21.8 140.25,-27.8"/>
</g>
<!-- Node8&#45;&gt;Node6 -->
<g id="edge10" class="edge">
<title>Node8&#45;&gt;Node6</title>
<path fill="none" stroke="midnightblue" d="M122.19,-57.97C127.01,-57.3 131.83,-56.64 136.45,-56 245.8,-40.93 375.68,-23.14 433.74,-15.2"/>
<polygon fill="midnightblue" stroke="midnightblue" points="434.3,-18.66 443.73,-13.83 433.35,-11.72 434.3,-18.66"/>
</g>
<!-- Node8&#45;&gt;Node7 -->
<g id="edge11" class="edge">
<title>Node8&#45;&gt;Node7</title>
<path fill="none" stroke="midnightblue" d="M121.98,-60.22C201.38,-52.57 360.16,-36.73 494.45,-20 504.44,-18.76 515.29,-17.26 525.13,-15.84"/>
<polygon fill="midnightblue" stroke="midnightblue" points="525.93,-19.27 535.32,-14.36 524.92,-12.34 525.93,-19.27"/>
</g>
<!-- Node9&#45;&gt;Node6 -->
<g id="edge13" class="edge">
<title>Node9&#45;&gt;Node6</title>
<path fill="none" stroke="midnightblue" d="M311.29,-56.44C344.81,-46.5 399.88,-30.16 434.05,-20.02"/>
<polygon fill="midnightblue" stroke="midnightblue" points="435.35,-23.29 443.94,-17.09 433.36,-16.58 435.35,-23.29"/>
</g>
<!-- Node10&#45;&gt;Node4 -->
<g id="edge15" class="edge">
<title>Node10&#45;&gt;Node4</title>
<path fill="none" stroke="midnightblue" d="M404.82,-56.98C338.72,-48.07 228.94,-33.19 134.45,-20 126.13,-18.84 117.19,-17.57 108.73,-16.37"/>
<polygon fill="midnightblue" stroke="midnightblue" points="109.13,-12.89 98.74,-14.94 108.14,-19.82 109.13,-12.89"/>
</g>
<!-- Node10&#45;&gt;Node5 -->
<g id="edge16" class="edge">
<title>Node10&#45;&gt;Node5</title>
<path fill="none" stroke="midnightblue" d="M416.44,-56.44C352.26,-45 240.6,-25.11 189.02,-15.91"/>
<polygon fill="midnightblue" stroke="midnightblue" points="189.43,-12.43 178.97,-14.12 188.2,-19.32 189.43,-12.43"/>
</g>
<!-- Node10&#45;&gt;Node6 -->
<g id="edge17" class="edge">
<title>Node10&#45;&gt;Node6</title>
<path fill="none" stroke="midnightblue" d="M464.45,-56.08C464.45,-49.01 464.45,-38.86 464.45,-29.99"/>
<polygon fill="midnightblue" stroke="midnightblue" points="467.95,-29.75 464.45,-19.75 460.95,-29.75 467.95,-29.75"/>
</g>
<!-- Node10&#45;&gt;Node7 -->
<g id="edge18" class="edge">
<title>Node10&#45;&gt;Node7</title>
<path fill="none" stroke="midnightblue" d="M479.39,-56.32C494.04,-47.82 516.59,-34.73 533.69,-24.8"/>
<polygon fill="midnightblue" stroke="midnightblue" points="535.66,-27.7 542.55,-19.65 532.14,-21.65 535.66,-27.7"/>
</g>
<!-- Node11&#45;&gt;Node5 -->
<g id="edge20" class="edge">
<title>Node11&#45;&gt;Node5</title>
<path fill="none" stroke="midnightblue" d="M472.85,-118.27C390.06,-113.72 250.82,-102.32 207.45,-76 189.59,-65.16 176.79,-44.47 169.29,-29.33"/>
<polygon fill="midnightblue" stroke="midnightblue" points="172.33,-27.54 164.96,-19.93 165.97,-30.48 172.33,-27.54"/>
</g>
<!-- Node11&#45;&gt;Node6 -->
<g id="edge21" class="edge">
<title>Node11&#45;&gt;Node6</title>
<path fill="none" stroke="midnightblue" d="M538.4,-112.32C540.87,-99.17 543.66,-73.85 533.45,-56 524.77,-40.83 508.65,-29.88 494.18,-22.59"/>
<polygon fill="midnightblue" stroke="midnightblue" points="495.54,-19.36 484.99,-18.32 492.58,-25.71 495.54,-19.36"/>
</g>
<!-- Node11&#45;&gt;Node7 -->
<g id="edge22" class="edge">
<title>Node11&#45;&gt;Node7</title>
<path fill="none" stroke="midnightblue" d="M544.67,-112.18C552,-103.66 562.21,-90.02 566.45,-76 571.1,-60.67 567.92,-42.57 564.12,-29.36"/>
<polygon fill="midnightblue" stroke="midnightblue" points="567.36,-28.02 560.93,-19.6 560.71,-30.19 567.36,-28.02"/>
</g>
<!-- Node11&#45;&gt;Node10 -->
<g id="edge23" class="edge">
<title>Node11&#45;&gt;Node10</title>
<path fill="none" stroke="midnightblue" d="M524.88,-112.32C514.03,-104.18 497.57,-91.84 484.57,-82.09"/>
<polygon fill="midnightblue" stroke="midnightblue" points="486.33,-79.03 476.23,-75.83 482.13,-84.63 486.33,-79.03"/>
</g>
<!-- Node14&#45;&gt;Node3 -->
<g id="edge30" class="edge">
<title>Node14&#45;&gt;Node3</title>
<path fill="none" stroke="midnightblue" d="M399.61,-168.44C349.83,-158.94 269.47,-143.61 216.06,-133.42"/>
<polygon fill="midnightblue" stroke="midnightblue" points="216.56,-129.95 206.08,-131.52 215.25,-136.83 216.56,-129.95"/>
</g>
<!-- Node14&#45;&gt;Node6 -->
<g id="edge27" class="edge">
<title>Node14&#45;&gt;Node6</title>
<path fill="none" stroke="midnightblue" d="M504.11,-168.45C545.89,-161.1 596.48,-148.99 609.45,-132 647.59,-82.06 547.36,-39.08 494.56,-20.63"/>
<polygon fill="midnightblue" stroke="midnightblue" points="495.59,-17.28 485,-17.37 493.33,-23.91 495.59,-17.28"/>
</g>
<!-- Node14&#45;&gt;Node7 -->
<g id="edge28" class="edge">
<title>Node14&#45;&gt;Node7</title>
<path fill="none" stroke="midnightblue" d="M512.96,-168.98C558.77,-162.04 613.17,-150.22 627.45,-132 654.98,-96.88 606.86,-49.8 577.56,-26.05"/>
<polygon fill="midnightblue" stroke="midnightblue" points="579.54,-23.16 569.52,-19.73 575.22,-28.66 579.54,-23.16"/>
</g>
<!-- Node14&#45;&gt;Node8 -->
<g id="edge29" class="edge">
<title>Node14&#45;&gt;Node8</title>
<path fill="none" stroke="midnightblue" d="M417.82,-168.4C378.18,-155.68 301.28,-131.26 235.45,-112 194.24,-99.94 146.91,-87.06 113.73,-78.18"/>
<polygon fill="midnightblue" stroke="midnightblue" points="114.47,-74.76 103.91,-75.56 112.67,-81.52 114.47,-74.76"/>
</g>
<!-- Node14&#45;&gt;Node10 -->
<g id="edge31" class="edge">
<title>Node14&#45;&gt;Node10</title>
<path fill="none" stroke="midnightblue" d="M439.74,-168.42C433.45,-155.83 423.85,-131.7 430.45,-112 434.06,-101.25 441.36,-91.02 448.27,-83.04"/>
<polygon fill="midnightblue" stroke="midnightblue" points="450.93,-85.32 455.16,-75.61 445.8,-80.56 450.93,-85.32"/>
</g>
<!-- Node15&#45;&gt;Node6 -->
<g id="edge33" class="edge">
<title>Node15&#45;&gt;Node6</title>
<path fill="none" stroke="midnightblue" d="M595.24,-168.19C606.28,-160.24 620.95,-147.45 627.45,-132 641.41,-98.82 626.65,-79.59 599.45,-56 569.86,-30.34 525.15,-19.2 495.39,-14.44"/>
<polygon fill="midnightblue" stroke="midnightblue" points="495.56,-10.93 485.16,-12.96 494.56,-17.86 495.56,-10.93"/>
</g>
<!-- Node15&#45;&gt;Node7 -->
<g id="edge34" class="edge">
<title>Node15&#45;&gt;Node7</title>
<path fill="none" stroke="midnightblue" d="M625.04,-168.46C660.78,-160.47 707.26,-147.46 718.45,-132 738.26,-104.64 738.87,-82.91 718.45,-56 702.97,-35.59 632.27,-21.93 589.88,-15.42"/>
<polygon fill="midnightblue" stroke="midnightblue" points="590.17,-11.92 579.76,-13.91 589.14,-18.85 590.17,-11.92"/>
</g>
<!-- Node15&#45;&gt;Node10 -->
<g id="edge35" class="edge">
<title>Node15&#45;&gt;Node10</title>
<path fill="none" stroke="midnightblue" d="M547.42,-168.5C516.47,-159.99 474.19,-146.17 464.45,-132 455.28,-118.64 456.4,-99.82 459.15,-85.86"/>
<polygon fill="midnightblue" stroke="midnightblue" points="462.6,-86.45 461.54,-75.91 455.8,-84.82 462.6,-86.45"/>
</g>
<!-- Node15&#45;&gt;Node11 -->
<g id="edge36" class="edge">
<title>Node15&#45;&gt;Node11</title>
<path fill="none" stroke="midnightblue" d="M574.02,-168.08C567.6,-160.38 558.15,-149.03 550.33,-139.65"/>
<polygon fill="midnightblue" stroke="midnightblue" points="552.84,-137.19 543.75,-131.75 547.46,-141.67 552.84,-137.19"/>
</g>
</g>
</svg>
        <g id="navigator" transform="translate(0 0)" fill="#404254">
                <rect fill="#f2f5e9" fill-opacity="0.5" stroke="#606060" stroke-width=".5" x="0" y="0" width="60" height="60"/>
                <use id="zoomplus" xlink:href="#zoomPlus" x="17" y="9" onmousedown="handleZoom(evt,'in')"/>
                <use id="zoomminus" xlink:href="#zoomMin" x="42" y="9" onmousedown="handleZoom(evt,'out')"/>
                <use id="reset" xlink:href="#resetDef" x="30" y="36" onmousedown="handleReset()"/>
                <g id="arrowUp" xlink:href="#dirArrow" transform="translate(30 24)" onmousedown="handlePan(0,-1)">
                  <use xlink:href="#rim" fill="#404040">
                        <set attributeName="fill" to="#808080" begin="arrowUp.mouseover" end="arrowUp.mouseout"/>
                  </use>
                  <path fill="none" stroke="white" stroke-width="1.5" d="M0,-3.0v7 M-2.5,-0.5L0,-3.0L2.5,-0.5"/>
                </g>
                <g id="arrowRight" xlink:href="#dirArrow" transform="rotate(90) translate(36 -43)" onmousedown="handlePan(1,0)">
                  <use xlink:href="#rim" fill="#404040">
                        <set attributeName="fill" to="#808080" begin="arrowRight.mouseover" end="arrowRight.mouseout"/>
                  </use>
                  <path fill="none" stroke="white" stroke-width="1.5" d="M0,-3.0v7 M-2.5,-0.5L0,-3.0L2.5,-0.5"/>
                </g>
                <g id="arrowDown" xlink:href="#dirArrow" transform="rotate(180) translate(-30 -48)" onmousedown="handlePan(0,1)">
                  <use xlink:href="#rim" fill="#404040">
                        <set attributeName="fill" to="#808080" begin="arrowDown.mouseover" end="arrowDown.mouseout"/>
                  </use>
                  <path fill="none" stroke="white" stroke-width="1.5" d="M0,-3.0v7 M-2.5,-0.5L0,-3.0L2.5,-0.5"/>
                </g>
                <g id="arrowLeft" xlink:href="#dirArrow" transform="rotate(270) translate(-36 17)" onmousedown="handlePan(-1,0)">
                  <use xlink:href="#rim" fill="#404040">
                        <set attributeName="fill" to="#808080" begin="arrowLeft.mouseover" end="arrowLeft.mouseout"/>
                  </use>
                  <path fill="none" stroke="white" stroke-width="1.5" d="M0,-3.0v7 M-2.5,-0.5L0,-3.0L2.5,-0.5"/>
                </g>
        </g>
        <svg viewBox="0 0 15 15" width="100%" height="30px" preserveAspectRatio="xMaxYMin meet">
         <g id="arrow_out" transform="scale(0.3 0.3)">
          <a xlink:href="ErrorUtils_8cpp__incl_org.svg" target="_base">
           <rect id="button" ry="5" rx="5" y="6" x="6" height="38" width="38"
                fill="#f2f5e9" fill-opacity="0.5" stroke="#606060" stroke-width="1.0"/>
           <path id="arrow"
             d="M 11.500037,31.436501 C 11.940474,20.09759 22.043105,11.32322 32.158766,21.979434 L 37.068811,17.246167 C 37.068811,17.246167 37.088388,32 37.088388,32 L 22.160133,31.978069 C 22.160133,31.978069 26.997745,27.140456 26.997745,27.140456 C 18.528582,18.264221 13.291696,25.230495 11.500037,31.436501 z"
             style="fill:#404040;"/>
          </a>
         </g>
        </svg>
</svg>
