<?xml version="1.0" encoding="UTF-8" standalone="no"?>
<!DOCTYPE svg PUBLIC "-//W3C//DTD SVG 1.1//EN"
 "http://www.w3.org/Graphics/SVG/1.1/DTD/svg11.dtd">
<!-- Generated by graphviz version 2.43.0 (0)
 -->
<!-- Title: src/client/ErrorUtils.hpp Pages: 1 -->
<svg width="613pt" height="196pt"
 viewBox="0.00 0.00 613.08 196.00" xmlns="http://www.w3.org/2000/svg" xmlns:xlink="http://www.w3.org/1999/xlink">
<g id="graph0" class="graph" transform="scale(1 1) rotate(0) translate(4 192)">
<title>src/client/ErrorUtils.hpp</title>
<polygon fill="white" stroke="transparent" points="-4,4 -4,-192 609.08,-192 609.08,4 -4,4"/>
<!-- Node1 -->
<g id="node1" class="node">
<title>Node1</title>
<g id="a_node1"><a xlink:title=" ">
<polygon fill="#bfbfbf" stroke="black" points="362.87,-168.5 362.87,-187.5 481.87,-187.5 481.87,-168.5 362.87,-168.5"/>
<text text-anchor="middle" x="422.37" y="-175.5" font-family="Helvetica,sans-Serif" font-size="10.00">src/client/ErrorUtils.hpp</text>
</a>
</g>
</g>
<!-- Node2 -->
<g id="node2" class="node">
<title>Node2</title>
<g id="a_node2"><a xlink:href="ServerConfig_8hpp.html" target="_top" xlink:title=" ">
<polygon fill="white" stroke="black" points="228.87,-112.5 228.87,-131.5 359.87,-131.5 359.87,-112.5 228.87,-112.5"/>
<text text-anchor="middle" x="294.37" y="-119.5" font-family="Helvetica,sans-Serif" font-size="10.00">../config/ServerConfig.hpp</text>
</a>
</g>
</g>
<!-- Node1&#45;&gt;Node2 -->
<g id="edge1" class="edge">
<title>Node1&#45;&gt;Node2</title>
<path fill="none" stroke="midnightblue" d="M402.09,-168.44C381.02,-159.56 347.85,-145.56 323.89,-135.45"/>
<polygon fill="midnightblue" stroke="midnightblue" points="325.13,-132.18 314.56,-131.52 322.41,-138.63 325.13,-132.18"/>
</g>
<!-- Node9 -->
<g id="node9" class="node">
<title>Node9</title>
<g id="a_node9"><a xlink:href="HttpRequest_8hpp.html" target="_top" xlink:title=" ">
<polygon fill="white" stroke="black" points="401.87,-56.5 401.87,-75.5 520.87,-75.5 520.87,-56.5 401.87,-56.5"/>
<text text-anchor="middle" x="461.37" y="-63.5" font-family="Helvetica,sans-Serif" font-size="10.00">../http/HttpRequest.hpp</text>
</a>
</g>
</g>
<!-- Node1&#45;&gt;Node9 -->
<g id="edge13" class="edge">
<title>Node1&#45;&gt;Node9</title>
<path fill="none" stroke="midnightblue" d="M424.48,-168.47C427.65,-155.93 434.09,-131.87 441.37,-112 444.68,-102.97 448.94,-93.19 452.68,-85.05"/>
<polygon fill="midnightblue" stroke="midnightblue" points="455.94,-86.36 457.03,-75.82 449.6,-83.38 455.94,-86.36"/>
</g>
<!-- Node10 -->
<g id="node10" class="node">
<title>Node10</title>
<g id="a_node10"><a xlink:href="HttpResponse_8hpp.html" target="_top" xlink:title=" ">
<polygon fill="white" stroke="black" points="450.87,-112.5 450.87,-131.5 577.87,-131.5 577.87,-112.5 450.87,-112.5"/>
<text text-anchor="middle" x="514.37" y="-119.5" font-family="Helvetica,sans-Serif" font-size="10.00">../http/HttpResponse.hpp</text>
</a>
</g>
</g>
<!-- Node1&#45;&gt;Node10 -->
<g id="edge18" class="edge">
<title>Node1&#45;&gt;Node10</title>
<path fill="none" stroke="midnightblue" d="M437.15,-168.32C451.64,-159.82 473.94,-146.73 490.86,-136.8"/>
<polygon fill="midnightblue" stroke="midnightblue" points="492.77,-139.74 499.63,-131.65 489.23,-133.7 492.77,-139.74"/>
</g>
<!-- Node3 -->
<g id="node3" class="node">
<title>Node3</title>
<g id="a_node3"><a xlink:title=" ">
<polygon fill="white" stroke="#bfbfbf" points="267.37,-0.5 267.37,-19.5 321.37,-19.5 321.37,-0.5 267.37,-0.5"/>
<text text-anchor="middle" x="294.37" y="-7.5" font-family="Helvetica,sans-Serif" font-size="10.00">iostream</text>
</a>
</g>
</g>
<!-- Node2&#45;&gt;Node3 -->
<g id="edge2" class="edge">
<title>Node2&#45;&gt;Node3</title>
<path fill="none" stroke="midnightblue" d="M275.08,-112.48C260.94,-105.08 242.81,-92.89 234.37,-76 224.02,-55.3 246.65,-36.45 267.01,-24.44"/>
<polygon fill="midnightblue" stroke="midnightblue" points="268.74,-27.48 275.79,-19.57 265.35,-21.36 268.74,-27.48"/>
</g>
<!-- Node4 -->
<g id="node4" class="node">
<title>Node4</title>
<g id="a_node4"><a xlink:title=" ">
<polygon fill="white" stroke="#bfbfbf" points="370.87,-0.5 370.87,-19.5 405.87,-19.5 405.87,-0.5 370.87,-0.5"/>
<text text-anchor="middle" x="388.37" y="-7.5" font-family="Helvetica,sans-Serif" font-size="10.00">map</text>
</a>
</g>
</g>
<!-- Node2&#45;&gt;Node4 -->
<g id="edge3" class="edge">
<title>Node2&#45;&gt;Node4</title>
<path fill="none" stroke="midnightblue" d="M308.87,-112.45C321.76,-104.31 340.49,-91.09 353.37,-76 365.44,-61.86 375.07,-42.88 381.15,-29.08"/>
<polygon fill="midnightblue" stroke="midnightblue" points="384.44,-30.28 385.08,-19.71 377.99,-27.57 384.44,-30.28"/>
</g>
<!-- Node5 -->
<g id="node5" class="node">
<title>Node5</title>
<g id="a_node5"><a xlink:title=" ">
<polygon fill="white" stroke="#bfbfbf" points="156.87,-0.5 156.87,-19.5 197.87,-19.5 197.87,-0.5 156.87,-0.5"/>
<text text-anchor="middle" x="177.37" y="-7.5" font-family="Helvetica,sans-Serif" font-size="10.00">string</text>
</a>
</g>
</g>
<!-- Node2&#45;&gt;Node5 -->
<g id="edge4" class="edge">
<title>Node2&#45;&gt;Node5</title>
<path fill="none" stroke="midnightblue" d="M228.63,-120.17C153.15,-117.66 36.14,-108.47 8.37,-76 -31.44,-29.44 87.29,-16.1 146.26,-12.38"/>
<polygon fill="midnightblue" stroke="midnightblue" points="146.74,-15.86 156.52,-11.8 146.34,-8.87 146.74,-15.86"/>
</g>
<!-- Node6 -->
<g id="node6" class="node">
<title>Node6</title>
<g id="a_node6"><a xlink:title=" ">
<polygon fill="white" stroke="#bfbfbf" points="502.37,-0.5 502.37,-19.5 546.37,-19.5 546.37,-0.5 502.37,-0.5"/>
<text text-anchor="middle" x="524.37" y="-7.5" font-family="Helvetica,sans-Serif" font-size="10.00">vector</text>
</a>
</g>
</g>
<!-- Node2&#45;&gt;Node6 -->
<g id="edge5" class="edge">
<title>Node2&#45;&gt;Node6</title>
<path fill="none" stroke="midnightblue" d="M360.07,-117.61C422.23,-112.86 509.1,-101.71 530.37,-76 541.07,-63.07 537.38,-43.35 532.38,-29.03"/>
<polygon fill="midnightblue" stroke="midnightblue" points="535.62,-27.72 528.68,-19.72 529.12,-30.31 535.62,-27.72"/>
</g>
<!-- Node7 -->
<g id="node7" class="node">
<title>Node7</title>
<g id="a_node7"><a xlink:href="LocationConfig_8hpp.html" target="_top" xlink:title=" ">
<polygon fill="white" stroke="black" points="243.87,-56.5 243.87,-75.5 344.87,-75.5 344.87,-56.5 243.87,-56.5"/>
<text text-anchor="middle" x="294.37" y="-63.5" font-family="Helvetica,sans-Serif" font-size="10.00">LocationConfig.hpp</text>
</a>
</g>
</g>
<!-- Node2&#45;&gt;Node7 -->
<g id="edge6" class="edge">
<title>Node2&#45;&gt;Node7</title>
<path fill="none" stroke="midnightblue" d="M294.37,-112.08C294.37,-105.01 294.37,-94.86 294.37,-85.99"/>
<polygon fill="midnightblue" stroke="midnightblue" points="297.87,-85.75 294.37,-75.75 290.87,-85.75 297.87,-85.75"/>
</g>
<!-- Node8 -->
<g id="node8" class="node">
<title>Node8</title>
<g id="a_node8"><a xlink:href="namespaces_8hpp.html" target="_top" xlink:title=" ">
<polygon fill="white" stroke="black" points="17.87,-56.5 17.87,-75.5 148.87,-75.5 148.87,-56.5 17.87,-56.5"/>
<text text-anchor="middle" x="83.37" y="-63.5" font-family="Helvetica,sans-Serif" font-size="10.00">common/namespaces.hpp</text>
</a>
</g>
</g>
<!-- Node2&#45;&gt;Node8 -->
<g id="edge11" class="edge">
<title>Node2&#45;&gt;Node8</title>
<path fill="none" stroke="midnightblue" d="M260.94,-112.44C224.52,-103.12 166.14,-88.18 126.34,-78"/>
<polygon fill="midnightblue" stroke="midnightblue" points="127.2,-74.61 116.65,-75.52 125.47,-81.39 127.2,-74.61"/>
</g>
<!-- Node7&#45;&gt;Node3 -->
<g id="edge7" class="edge">
<title>Node7&#45;&gt;Node3</title>
<path fill="none" stroke="midnightblue" d="M294.37,-56.08C294.37,-49.01 294.37,-38.86 294.37,-29.99"/>
<polygon fill="midnightblue" stroke="midnightblue" points="297.87,-29.75 294.37,-19.75 290.87,-29.75 297.87,-29.75"/>
</g>
<!-- Node7&#45;&gt;Node4 -->
<g id="edge8" class="edge">
<title>Node7&#45;&gt;Node4</title>
<path fill="none" stroke="midnightblue" d="M309.47,-56.32C324.27,-47.82 347.07,-34.73 364.35,-24.8"/>
<polygon fill="midnightblue" stroke="midnightblue" points="366.38,-27.67 373.31,-19.65 362.89,-21.6 366.38,-27.67"/>
</g>
<!-- Node7&#45;&gt;Node5 -->
<g id="edge9" class="edge">
<title>Node7&#45;&gt;Node5</title>
<path fill="none" stroke="midnightblue" d="M275.83,-56.44C256.75,-47.64 226.8,-33.81 204.94,-23.72"/>
<polygon fill="midnightblue" stroke="midnightblue" points="206.37,-20.53 195.82,-19.52 203.44,-26.88 206.37,-20.53"/>
</g>
<!-- Node7&#45;&gt;Node6 -->
<g id="edge10" class="edge">
<title>Node7&#45;&gt;Node6</title>
<path fill="none" stroke="midnightblue" d="M330.82,-56.44C375.4,-45.98 450.16,-28.42 492.53,-18.47"/>
<polygon fill="midnightblue" stroke="midnightblue" points="493.39,-21.87 502.32,-16.18 491.79,-15.06 493.39,-21.87"/>
</g>
<!-- Node8&#45;&gt;Node5 -->
<g id="edge12" class="edge">
<title>Node8&#45;&gt;Node5</title>
<path fill="none" stroke="midnightblue" d="M98.47,-56.32C113.27,-47.82 136.07,-34.73 153.35,-24.8"/>
<polygon fill="midnightblue" stroke="midnightblue" points="155.38,-27.67 162.31,-19.65 151.89,-21.6 155.38,-27.67"/>
</g>
<!-- Node9&#45;&gt;Node3 -->
<g id="edge14" class="edge">
<title>Node9&#45;&gt;Node3</title>
<path fill="none" stroke="midnightblue" d="M434.91,-56.44C406.69,-47.32 361.83,-32.81 330.4,-22.65"/>
<polygon fill="midnightblue" stroke="midnightblue" points="331.3,-19.26 320.71,-19.52 329.15,-25.92 331.3,-19.26"/>
</g>
<!-- Node9&#45;&gt;Node4 -->
<g id="edge15" class="edge">
<title>Node9&#45;&gt;Node4</title>
<path fill="none" stroke="midnightblue" d="M449.64,-56.32C438.53,-48.11 421.63,-35.6 408.39,-25.81"/>
<polygon fill="midnightblue" stroke="midnightblue" points="410.43,-22.97 400.31,-19.83 406.27,-28.59 410.43,-22.97"/>
</g>
<!-- Node9&#45;&gt;Node5 -->
<g id="edge16" class="edge">
<title>Node9&#45;&gt;Node5</title>
<path fill="none" stroke="midnightblue" d="M416.37,-56.44C358.11,-45.37 258.12,-26.35 207.95,-16.81"/>
<polygon fill="midnightblue" stroke="midnightblue" points="208.52,-13.36 198.04,-14.93 207.21,-20.24 208.52,-13.36"/>
</g>
<!-- Node9&#45;&gt;Node6 -->
<g id="edge17" class="edge">
<title>Node9&#45;&gt;Node6</title>
<path fill="none" stroke="midnightblue" d="M471.49,-56.32C480.9,-48.26 495.12,-36.08 506.44,-26.37"/>
<polygon fill="midnightblue" stroke="midnightblue" points="508.75,-29 514.07,-19.83 504.19,-23.68 508.75,-29"/>
</g>
<!-- Node10&#45;&gt;Node4 -->
<g id="edge19" class="edge">
<title>Node10&#45;&gt;Node4</title>
<path fill="none" stroke="midnightblue" d="M520.74,-112.12C529.51,-98.72 542.87,-73.07 530.37,-56 504.18,-20.23 449.38,-12.18 416.04,-10.78"/>
<polygon fill="midnightblue" stroke="midnightblue" points="416.12,-7.28 406.03,-10.53 415.94,-14.27 416.12,-7.28"/>
</g>
<!-- Node10&#45;&gt;Node5 -->
<g id="edge20" class="edge">
<title>Node10&#45;&gt;Node5</title>
<path fill="none" stroke="midnightblue" d="M450.69,-115.8C379.84,-109.14 270.56,-96.01 234.37,-76 214.14,-64.81 197.62,-43.56 187.67,-28.4"/>
<polygon fill="midnightblue" stroke="midnightblue" points="190.62,-26.51 182.35,-19.89 184.68,-30.23 190.62,-26.51"/>
</g>
<!-- Node10&#45;&gt;Node6 -->
<g id="edge21" class="edge">
<title>Node10&#45;&gt;Node6</title>
<path fill="none" stroke="midnightblue" d="M549.38,-112.45C568.31,-105.84 590.06,-94.59 601.37,-76 615.71,-52.44 583.19,-33.25 556.09,-21.98"/>
<polygon fill="midnightblue" stroke="midnightblue" points="557.03,-18.59 546.44,-18.19 554.47,-25.11 557.03,-18.59"/>
</g>
<!-- Node10&#45;&gt;Node9 -->
<g id="edge22" class="edge">
<title>Node10&#45;&gt;Node9</title>
<path fill="none" stroke="midnightblue" d="M505.62,-112.08C497.9,-104.22 486.47,-92.57 477.15,-83.08"/>
<polygon fill="midnightblue" stroke="midnightblue" points="479.46,-80.44 469.96,-75.75 474.47,-85.34 479.46,-80.44"/>
</g>
</g>
</svg>
