<?xml version="1.0" encoding="UTF-8" standalone="no"?>
<!DOCTYPE svg PUBLIC "-//W3C//DTD SVG 1.1//EN"
 "http://www.w3.org/Graphics/SVG/1.1/DTD/svg11.dtd">
<!-- Generated by graphviz version 2.43.0 (0)
 -->
<!-- Title: reasonPhraseForStatus Pages: 1 -->
<svg width="2122pt" height="578pt"
 viewBox="0.00 0.00 2122.00 578.17" xmlns="http://www.w3.org/2000/svg" xmlns:xlink="http://www.w3.org/1999/xlink">
<g id="graph0" class="graph" transform="scale(1 1) rotate(0) translate(4 574.17)">
<title>reasonPhraseForStatus</title>
<polygon fill="white" stroke="transparent" points="-4,4 -4,-574.17 2118,-574.17 2118,4 -4,4"/>
<!-- Node1 -->
<g id="node1" class="node">
<title>Node1</title>
<g id="a_node1"><a xlink:title=" ">
<polygon fill="#bfbfbf" stroke="black" points="1995,-218.67 1995,-237.67 2114,-237.67 2114,-218.67 1995,-218.67"/>
<text text-anchor="middle" x="2054.5" y="-225.67" font-family="Helvetica,sans-Serif" font-size="10.00">reasonPhraseForStatus</text>
</a>
</g>
</g>
<!-- Node2 -->
<g id="node2" class="node">
<title>Node2</title>
<g id="a_node2"><a xlink:href="classHttpResponse.html#aec25ec31bb3c0a22af07fe82b0a35a79" target="_top" xlink:title=" ">
<polygon fill="white" stroke="black" points="1536,-446.67 1536,-465.67 1643,-465.67 1643,-446.67 1536,-446.67"/>
<text text-anchor="middle" x="1589.5" y="-453.67" font-family="Helvetica,sans-Serif" font-size="10.00">HttpResponse::clear</text>
</a>
</g>
</g>
<!-- Node1&#45;&gt;Node2 -->
<g id="edge1" class="edge">
<title>Node1&#45;&gt;Node2</title>
<path fill="none" stroke="midnightblue" d="M2025.01,-242.2C1938.86,-284.63 1682.54,-410.85 1609.89,-446.63"/>
<polygon fill="midnightblue" stroke="midnightblue" points="2026.77,-245.24 2034.19,-237.68 2023.68,-238.96 2026.77,-245.24"/>
</g>
<!-- Node11 -->
<g id="node11" class="node">
<title>Node11</title>
<g id="a_node11"><a xlink:href="classHttpResponse.html#a610f8f887ca042f2b18ec395aaccc255" target="_top" xlink:title=" ">
<polygon fill="white" stroke="black" points="1808,-199.67 1808,-218.67 1959,-218.67 1959,-199.67 1808,-199.67"/>
<text text-anchor="middle" x="1883.5" y="-206.67" font-family="Helvetica,sans-Serif" font-size="10.00">HttpResponse::setStatusCode</text>
</a>
</g>
</g>
<!-- Node1&#45;&gt;Node11 -->
<g id="edge12" class="edge">
<title>Node1&#45;&gt;Node11</title>
<path fill="none" stroke="midnightblue" d="M1984.71,-220.44C1976.27,-219.49 1967.62,-218.52 1959.11,-217.56"/>
<polygon fill="midnightblue" stroke="midnightblue" points="1984.54,-223.94 1994.87,-221.58 1985.32,-216.99 1984.54,-223.94"/>
</g>
<!-- Node3 -->
<g id="node3" class="node">
<title>Node3</title>
<g id="a_node3"><a xlink:href="classClient.html#a3b000abab7a3fe339f0f39ad5daca68f" target="_top" xlink:title=" ">
<polygon fill="white" stroke="black" points="1371.5,-408.67 1371.5,-427.67 1496.5,-427.67 1496.5,-408.67 1371.5,-408.67"/>
<text text-anchor="middle" x="1434" y="-415.67" font-family="Helvetica,sans-Serif" font-size="10.00">Client::checkCgiTimeout</text>
</a>
</g>
</g>
<!-- Node2&#45;&gt;Node3 -->
<g id="edge2" class="edge">
<title>Node2&#45;&gt;Node3</title>
<path fill="none" stroke="midnightblue" d="M1539.86,-444.13C1518.42,-438.82 1493.58,-432.67 1473.46,-427.69"/>
<polygon fill="midnightblue" stroke="midnightblue" points="1539.22,-447.58 1549.77,-446.58 1540.9,-440.78 1539.22,-447.58"/>
</g>
<!-- Node4 -->
<g id="node4" class="node">
<title>Node4</title>
<g id="a_node4"><a xlink:href="classClient.html#a09d6029b60ae8c9773362968e72f2e54" target="_top" xlink:title=" ">
<polygon fill="white" stroke="black" points="317,-408.67 317,-427.67 455,-427.67 455,-408.67 317,-408.67"/>
<text text-anchor="middle" x="386" y="-415.67" font-family="Helvetica,sans-Serif" font-size="10.00">Client::finalizeCgiResponse</text>
</a>
</g>
</g>
<!-- Node2&#45;&gt;Node4 -->
<g id="edge3" class="edge">
<title>Node2&#45;&gt;Node4</title>
<path fill="none" stroke="midnightblue" d="M1562.88,-470.46C1545.62,-479.47 1522.05,-490.61 1500,-497.17 1396.47,-527.98 1367.51,-532.17 1259.5,-532.17 1259.5,-532.17 1259.5,-532.17 728.5,-532.17 596.93,-532.17 450.84,-455.1 403.06,-427.7"/>
<polygon fill="midnightblue" stroke="midnightblue" points="1564.6,-473.51 1571.78,-465.71 1561.31,-467.33 1564.6,-473.51"/>
</g>
<!-- Node5 -->
<g id="node5" class="node">
<title>Node5</title>
<g id="a_node5"><a xlink:href="classClient.html#a4104efd3f5f7e1c0f3e3302b46861624" target="_top" xlink:title=" ">
<polygon fill="white" stroke="black" points="1378.5,-446.67 1378.5,-465.67 1489.5,-465.67 1489.5,-446.67 1378.5,-446.67"/>
<text text-anchor="middle" x="1434" y="-453.67" font-family="Helvetica,sans-Serif" font-size="10.00">Client::handleCgiPipe</text>
</a>
</g>
</g>
<!-- Node2&#45;&gt;Node5 -->
<g id="edge4" class="edge">
<title>Node2&#45;&gt;Node5</title>
<path fill="none" stroke="midnightblue" d="M1525.42,-456.17C1513.59,-456.17 1501.31,-456.17 1489.75,-456.17"/>
<polygon fill="midnightblue" stroke="midnightblue" points="1525.67,-459.67 1535.67,-456.17 1525.67,-452.67 1525.67,-459.67"/>
</g>
<!-- Node8 -->
<g id="node8" class="node">
<title>Node8</title>
<g id="a_node8"><a xlink:href="classClient.html#a950fd2ab8ac20c9be4c5e722344d6fe2" target="_top" xlink:title=" ">
<polygon fill="white" stroke="black" points="491,-332.67 491,-351.67 616,-351.67 616,-332.67 491,-332.67"/>
<text text-anchor="middle" x="553.5" y="-339.67" font-family="Helvetica,sans-Serif" font-size="10.00">Client::processRequests</text>
</a>
</g>
</g>
<!-- Node2&#45;&gt;Node8 -->
<g id="edge7" class="edge">
<title>Node2&#45;&gt;Node8</title>
<path fill="none" stroke="midnightblue" d="M1539.49,-467.91C1526.7,-470.64 1512.88,-473.29 1500,-475.17 1393.91,-490.68 1366.72,-494.17 1259.5,-494.17 1259.5,-494.17 1259.5,-494.17 1079,-494.17 973.77,-494.17 944.79,-501.83 843,-475.17 732.56,-446.25 612.09,-377.14 570.02,-351.75"/>
<polygon fill="midnightblue" stroke="midnightblue" points="1540.47,-471.27 1549.49,-465.72 1538.98,-464.44 1540.47,-471.27"/>
</g>
<!-- Node6 -->
<g id="node6" class="node">
<title>Node6</title>
<g id="a_node6"><a xlink:href="classServerManager.html#a9c75ea0bd268425c187ef25770eccbe8" target="_top" xlink:title=" ">
<polygon fill="white" stroke="black" points="843,-435.17 843,-465.17 975,-465.17 975,-435.17 843,-435.17"/>
<text text-anchor="start" x="851" y="-453.17" font-family="Helvetica,sans-Serif" font-size="10.00">ServerManager::handleCgi</text>
<text text-anchor="middle" x="909" y="-442.17" font-family="Helvetica,sans-Serif" font-size="10.00">PipeEvent</text>
</a>
</g>
</g>
<!-- Node5&#45;&gt;Node6 -->
<g id="edge5" class="edge">
<title>Node5&#45;&gt;Node6</title>
<path fill="none" stroke="midnightblue" d="M1368,-455.43C1267.57,-454.28 1075.78,-452.08 975.22,-450.92"/>
<polygon fill="midnightblue" stroke="midnightblue" points="1367.98,-458.93 1378.02,-455.54 1368.06,-451.93 1367.98,-458.93"/>
</g>
<!-- Node7 -->
<g id="node7" class="node">
<title>Node7</title>
<g id="a_node7"><a xlink:href="classServerManager.html#aecc313c9b6afcab92c22269b3333c721" target="_top" xlink:title=" ">
<polygon fill="white" stroke="black" points="0,-408.67 0,-427.67 102,-427.67 102,-408.67 0,-408.67"/>
<text text-anchor="middle" x="51" y="-415.67" font-family="Helvetica,sans-Serif" font-size="10.00">ServerManager::run</text>
</a>
</g>
</g>
<!-- Node6&#45;&gt;Node7 -->
<g id="edge6" class="edge">
<title>Node6&#45;&gt;Node7</title>
<path fill="none" stroke="midnightblue" d="M832.59,-465.05C761.25,-477.82 651.02,-494.17 554.5,-494.17 554.5,-494.17 554.5,-494.17 385,-494.17 266.99,-494.17 131.23,-448.25 76.62,-427.8"/>
<polygon fill="midnightblue" stroke="midnightblue" points="833.61,-468.42 842.82,-463.2 832.36,-461.54 833.61,-468.42"/>
</g>
<!-- Node8&#45;&gt;Node4 -->
<g id="edge8" class="edge">
<title>Node8&#45;&gt;Node4</title>
<path fill="none" stroke="midnightblue" d="M517.12,-355.34C508.51,-358.72 499.37,-362.46 491,-366.17 460.19,-379.85 425.32,-397.81 404.8,-408.65"/>
<polygon fill="midnightblue" stroke="midnightblue" points="518.48,-358.57 526.55,-351.7 515.96,-352.04 518.48,-358.57"/>
</g>
<!-- Node9 -->
<g id="node9" class="node">
<title>Node9</title>
<g id="a_node9"><a xlink:href="classClient.html#ac95fe5b24fe5275bd2271bd1ac37596d" target="_top" xlink:title=" ">
<polygon fill="white" stroke="black" points="336,-332.67 336,-351.67 436,-351.67 436,-332.67 336,-332.67"/>
<text text-anchor="middle" x="386" y="-339.67" font-family="Helvetica,sans-Serif" font-size="10.00">Client::handleRead</text>
</a>
</g>
</g>
<!-- Node8&#45;&gt;Node9 -->
<g id="edge9" class="edge">
<title>Node8&#45;&gt;Node9</title>
<path fill="none" stroke="midnightblue" d="M480.56,-342.17C465.52,-342.17 449.99,-342.17 436.02,-342.17"/>
<polygon fill="midnightblue" stroke="midnightblue" points="480.87,-345.67 490.87,-342.17 480.87,-338.67 480.87,-345.67"/>
</g>
<!-- Node10 -->
<g id="node10" class="node">
<title>Node10</title>
<g id="a_node10"><a xlink:href="classServerManager.html#a9f3ca46da9df004286f90902b8daf29d" target="_top" xlink:title=" ">
<polygon fill="white" stroke="black" points="138,-381.17 138,-411.17 281,-411.17 281,-381.17 138,-381.17"/>
<text text-anchor="start" x="146" y="-399.17" font-family="Helvetica,sans-Serif" font-size="10.00">ServerManager::handleClient</text>
<text text-anchor="middle" x="209.5" y="-388.17" font-family="Helvetica,sans-Serif" font-size="10.00">Event</text>
</a>
</g>
</g>
<!-- Node9&#45;&gt;Node10 -->
<g id="edge10" class="edge">
<title>Node9&#45;&gt;Node10</title>
<path fill="none" stroke="midnightblue" d="M344.49,-354.71C319.01,-362.59 285.98,-372.81 259.1,-381.13"/>
<polygon fill="midnightblue" stroke="midnightblue" points="345.69,-358 354.2,-351.7 343.62,-351.32 345.69,-358"/>
</g>
<!-- Node10&#45;&gt;Node7 -->
<g id="edge11" class="edge">
<title>Node10&#45;&gt;Node7</title>
<path fill="none" stroke="midnightblue" d="M127.45,-407.57C118.82,-408.78 110.23,-409.99 102.11,-411.13"/>
<polygon fill="midnightblue" stroke="midnightblue" points="128.16,-411 137.58,-406.14 127.19,-404.07 128.16,-411"/>
</g>
<!-- Node11&#45;&gt;Node4 -->
<g id="edge43" class="edge">
<title>Node11&#45;&gt;Node4</title>
<path fill="none" stroke="midnightblue" d="M1877.24,-228.87C1855.8,-304.24 1767.62,-570.17 1590.5,-570.17 1590.5,-570.17 1590.5,-570.17 728.5,-570.17 619.52,-570.17 587.41,-559.99 491,-509.17 449.83,-487.47 411.33,-446.4 395.1,-427.78"/>
<polygon fill="midnightblue" stroke="midnightblue" points="1880.72,-229.4 1880.02,-218.83 1873.98,-227.53 1880.72,-229.4"/>
</g>
<!-- Node12 -->
<g id="node12" class="node">
<title>Node12</title>
<g id="a_node12"><a xlink:href="ResponseUtils_8cpp.html#ab7c2cb6fbf297c09ec402182b04584c6" target="_top" xlink:title=" ">
<polygon fill="white" stroke="black" points="1679,-66.67 1679,-85.67 1772,-85.67 1772,-66.67 1679,-66.67"/>
<text text-anchor="middle" x="1725.5" y="-73.67" font-family="Helvetica,sans-Serif" font-size="10.00">fillBaseResponse</text>
</a>
</g>
</g>
<!-- Node11&#45;&gt;Node12 -->
<g id="edge13" class="edge">
<title>Node11&#45;&gt;Node12</title>
<path fill="none" stroke="midnightblue" d="M1863.34,-192.83C1830.55,-164.88 1764.65,-108.7 1738.04,-86.01"/>
<polygon fill="midnightblue" stroke="midnightblue" points="1861.4,-195.78 1871.28,-199.61 1865.94,-190.46 1861.4,-195.78"/>
</g>
<!-- Node24 -->
<g id="node24" class="node">
<title>Node24</title>
<g id="a_node24"><a xlink:href="StaticPathHandler_8cpp.html#a638cb25cad6c24877a0e75984110ea7a" target="_top" xlink:title=" ">
<polygon fill="white" stroke="black" points="1396,-104.67 1396,-123.67 1472,-123.67 1472,-104.67 1396,-104.67"/>
<text text-anchor="middle" x="1434" y="-111.67" font-family="Helvetica,sans-Serif" font-size="10.00">handleUpload</text>
</a>
</g>
</g>
<!-- Node11&#45;&gt;Node24 -->
<g id="edge44" class="edge">
<title>Node11&#45;&gt;Node24</title>
<path fill="none" stroke="midnightblue" d="M1827.55,-197.51C1735.16,-177.89 1551.09,-138.82 1472.25,-122.08"/>
<polygon fill="midnightblue" stroke="midnightblue" points="1827.03,-200.98 1837.54,-199.63 1828.49,-194.13 1827.03,-200.98"/>
</g>
<!-- Node13 -->
<g id="node13" class="node">
<title>Node13</title>
<g id="a_node13"><a xlink:href="ErrorUtils_8cpp.html#a470416220aa911b8f1274140a8322e7a" target="_top" xlink:title=" ">
<polygon fill="white" stroke="black" points="1538.5,-218.67 1538.5,-237.67 1640.5,-237.67 1640.5,-218.67 1538.5,-218.67"/>
<text text-anchor="middle" x="1589.5" y="-225.67" font-family="Helvetica,sans-Serif" font-size="10.00">buildErrorResponse</text>
</a>
</g>
</g>
<!-- Node12&#45;&gt;Node13 -->
<g id="edge14" class="edge">
<title>Node12&#45;&gt;Node13</title>
<path fill="none" stroke="midnightblue" d="M1709.34,-93.37C1681.02,-125.5 1620.97,-193.62 1598.88,-218.67"/>
<polygon fill="midnightblue" stroke="midnightblue" points="1712.13,-95.5 1716.12,-85.68 1706.88,-90.87 1712.13,-95.5"/>
</g>
<!-- Node18 -->
<g id="node18" class="node">
<title>Node18</title>
<g id="a_node18"><a xlink:href="classRequestProcessor.html#a3fa9c97a7d142a7b607002138de87140" target="_top" xlink:title=" ">
<polygon fill="white" stroke="black" points="1011,-225.67 1011,-244.67 1149,-244.67 1149,-225.67 1011,-225.67"/>
<text text-anchor="middle" x="1080" y="-232.67" font-family="Helvetica,sans-Serif" font-size="10.00">RequestProcessor::process</text>
</a>
</g>
</g>
<!-- Node12&#45;&gt;Node18 -->
<g id="edge42" class="edge">
<title>Node12&#45;&gt;Node18</title>
<path fill="none" stroke="midnightblue" d="M1692.95,-62.76C1677.97,-56.65 1659.72,-49.6 1643,-44.17 1525.69,-6.12 1490.06,10.46 1368,-7.17 1284.07,-19.3 1252.02,-9.21 1185,-61.17 1126.04,-106.89 1093.41,-196.22 1083.94,-225.57"/>
<polygon fill="midnightblue" stroke="midnightblue" points="1691.7,-66.03 1702.28,-66.61 1694.37,-59.56 1691.7,-66.03"/>
</g>
<!-- Node19 -->
<g id="node19" class="node">
<title>Node19</title>
<g id="a_node19"><a xlink:href="StaticPathHandler_8cpp.html#a28a771d93d3051098585ebc34ed29855" target="_top" xlink:title=" ">
<polygon fill="white" stroke="black" points="1391.5,-66.67 1391.5,-85.67 1476.5,-85.67 1476.5,-66.67 1391.5,-66.67"/>
<text text-anchor="middle" x="1434" y="-73.67" font-family="Helvetica,sans-Serif" font-size="10.00">handleDirectory</text>
</a>
</g>
</g>
<!-- Node12&#45;&gt;Node19 -->
<g id="edge40" class="edge">
<title>Node12&#45;&gt;Node19</title>
<path fill="none" stroke="midnightblue" d="M1668.81,-76.17C1612.59,-76.17 1527.07,-76.17 1476.53,-76.17"/>
<polygon fill="midnightblue" stroke="midnightblue" points="1668.95,-79.67 1678.95,-76.17 1668.95,-72.67 1668.95,-79.67"/>
</g>
<!-- Node21 -->
<g id="node21" class="node">
<title>Node21</title>
<g id="a_node21"><a xlink:href="classRequestProcessor.html#a606f9c02a3166ca58e6930f8d292d81c" target="_top" xlink:title=" ">
<polygon fill="white" stroke="black" points="1368,-17.17 1368,-47.17 1500,-47.17 1500,-17.17 1368,-17.17"/>
<text text-anchor="start" x="1376" y="-35.17" font-family="Helvetica,sans-Serif" font-size="10.00">RequestProcessor::handle</text>
<text text-anchor="middle" x="1434" y="-24.17" font-family="Helvetica,sans-Serif" font-size="10.00">LocationValidation</text>
</a>
</g>
</g>
<!-- Node12&#45;&gt;Node21 -->
<g id="edge41" class="edge">
<title>Node12&#45;&gt;Node21</title>
<path fill="none" stroke="midnightblue" d="M1669.01,-67.74C1620.83,-60.42 1551.01,-49.81 1500.18,-42.08"/>
<polygon fill="midnightblue" stroke="midnightblue" points="1668.53,-71.21 1678.95,-69.25 1669.59,-64.29 1668.53,-71.21"/>
</g>
<!-- Node13&#45;&gt;Node3 -->
<g id="edge15" class="edge">
<title>Node13&#45;&gt;Node3</title>
<path fill="none" stroke="midnightblue" d="M1583.13,-247.73C1572.72,-282.08 1546.63,-353.49 1500,-394.17 1492.84,-400.42 1483.91,-405.1 1474.98,-408.58"/>
<polygon fill="midnightblue" stroke="midnightblue" points="1586.54,-248.54 1585.96,-237.96 1579.81,-246.59 1586.54,-248.54"/>
</g>
<!-- Node13&#45;&gt;Node4 -->
<g id="edge21" class="edge">
<title>Node13&#45;&gt;Node4</title>
<path fill="none" stroke="midnightblue" d="M1575.96,-246.11C1560.49,-266.86 1532.25,-300.54 1500,-319.17 1404.51,-374.34 1369.77,-380.17 1259.5,-380.17 1259.5,-380.17 1259.5,-380.17 728.5,-380.17 625.75,-380.17 506.66,-397.38 439.74,-408.63"/>
<polygon fill="midnightblue" stroke="midnightblue" points="1578.92,-247.99 1581.96,-237.84 1573.25,-243.88 1578.92,-247.99"/>
</g>
<!-- Node13&#45;&gt;Node5 -->
<g id="edge26" class="edge">
<title>Node13&#45;&gt;Node5</title>
<path fill="none" stroke="midnightblue" d="M1585.85,-247.86C1579.23,-289.19 1558.11,-385.45 1500,-437.17 1495.61,-441.08 1490.45,-444.19 1485,-446.66"/>
<polygon fill="midnightblue" stroke="midnightblue" points="1589.34,-248.15 1587.35,-237.74 1582.42,-247.12 1589.34,-248.15"/>
</g>
<!-- Node14 -->
<g id="node14" class="node">
<title>Node14</title>
<g id="a_node14"><a xlink:href="classClient.html#ae523ed90bd32b88e539ebdf30746382b" target="_top" xlink:title=" ">
<polygon fill="white" stroke="black" points="1023.5,-313.67 1023.5,-332.67 1136.5,-332.67 1136.5,-313.67 1023.5,-313.67"/>
<text text-anchor="middle" x="1080" y="-320.67" font-family="Helvetica,sans-Serif" font-size="10.00">Client::dispatchAction</text>
</a>
</g>
</g>
<!-- Node13&#45;&gt;Node14 -->
<g id="edge16" class="edge">
<title>Node13&#45;&gt;Node14</title>
<path fill="none" stroke="midnightblue" d="M1569.56,-244.27C1552.46,-257.97 1526.06,-277.14 1500,-288.17 1378.5,-339.63 1219.7,-335.87 1136.83,-329.22"/>
<polygon fill="midnightblue" stroke="midnightblue" points="1572.09,-246.72 1577.6,-237.68 1567.65,-241.31 1572.09,-246.72"/>
</g>
<!-- Node17 -->
<g id="node17" class="node">
<title>Node17</title>
<g id="a_node17"><a xlink:href="classRequestProcessor.html#a79915b1a2fda205b7d5a6c92e5e3fce8" target="_top" xlink:title=" ">
<polygon fill="white" stroke="black" points="1185,-244.67 1185,-263.67 1332,-263.67 1332,-244.67 1185,-244.67"/>
<text text-anchor="middle" x="1258.5" y="-251.67" font-family="Helvetica,sans-Serif" font-size="10.00">RequestProcessor::handleCgi</text>
</a>
</g>
</g>
<!-- Node13&#45;&gt;Node17 -->
<g id="edge22" class="edge">
<title>Node13&#45;&gt;Node17</title>
<path fill="none" stroke="midnightblue" d="M1528.03,-238.62C1518.67,-239.98 1509.09,-241.23 1500,-242.17 1443.76,-248.01 1379.82,-251.03 1332.01,-252.58"/>
<polygon fill="midnightblue" stroke="midnightblue" points="1528.71,-242.06 1538.08,-237.11 1527.67,-235.14 1528.71,-242.06"/>
</g>
<!-- Node13&#45;&gt;Node18 -->
<g id="edge39" class="edge">
<title>Node13&#45;&gt;Node18</title>
<path fill="none" stroke="midnightblue" d="M1528.42,-229C1433.37,-230.31 1248.86,-232.86 1149.05,-234.24"/>
<polygon fill="midnightblue" stroke="midnightblue" points="1528.5,-232.5 1538.45,-228.86 1528.4,-225.5 1528.5,-232.5"/>
</g>
<!-- Node13&#45;&gt;Node19 -->
<g id="edge27" class="edge">
<title>Node13&#45;&gt;Node19</title>
<path fill="none" stroke="midnightblue" d="M1580.9,-209.03C1568.42,-180.03 1540.8,-125.17 1500,-95.17 1493.09,-90.09 1484.83,-86.36 1476.56,-83.63"/>
<polygon fill="midnightblue" stroke="midnightblue" points="1577.75,-210.56 1584.82,-218.45 1584.21,-207.87 1577.75,-210.56"/>
</g>
<!-- Node20 -->
<g id="node20" class="node">
<title>Node20</title>
<g id="a_node20"><a xlink:href="StaticPathHandler_8cpp.html#a4e092999675b45373270f5408cbe64c7" target="_top" xlink:title=" ">
<polygon fill="white" stroke="black" points="1213,-142.67 1213,-161.67 1304,-161.67 1304,-142.67 1213,-142.67"/>
<text text-anchor="middle" x="1258.5" y="-149.67" font-family="Helvetica,sans-Serif" font-size="10.00">handleStaticPath</text>
</a>
</g>
</g>
<!-- Node13&#45;&gt;Node20 -->
<g id="edge36" class="edge">
<title>Node13&#45;&gt;Node20</title>
<path fill="none" stroke="midnightblue" d="M1537.1,-216.3C1471.86,-201.23 1360.61,-175.53 1300.67,-161.68"/>
<polygon fill="midnightblue" stroke="midnightblue" points="1536.63,-219.78 1547.17,-218.63 1538.21,-212.96 1536.63,-219.78"/>
</g>
<!-- Node13&#45;&gt;Node21 -->
<g id="edge30" class="edge">
<title>Node13&#45;&gt;Node21</title>
<path fill="none" stroke="midnightblue" d="M1583.38,-208.6C1573.26,-173.52 1547.42,-99.63 1500,-57.17 1495.68,-53.3 1490.69,-50 1485.44,-47.2"/>
<polygon fill="midnightblue" stroke="midnightblue" points="1580.09,-209.83 1586.13,-218.54 1586.84,-207.97 1580.09,-209.83"/>
</g>
<!-- Node22 -->
<g id="node22" class="node">
<title>Node22</title>
<g id="a_node22"><a xlink:href="classRequestProcessor.html#a10779d8453416feeda2174859c00d082" target="_top" xlink:title=" ">
<polygon fill="white" stroke="black" points="1192.5,-283.17 1192.5,-313.17 1324.5,-313.17 1324.5,-283.17 1192.5,-283.17"/>
<text text-anchor="start" x="1200.5" y="-301.17" font-family="Helvetica,sans-Serif" font-size="10.00">RequestProcessor::handle</text>
<text text-anchor="middle" x="1258.5" y="-290.17" font-family="Helvetica,sans-Serif" font-size="10.00">ParseOrMethodErrors</text>
</a>
</g>
</g>
<!-- Node13&#45;&gt;Node22 -->
<g id="edge32" class="edge">
<title>Node13&#45;&gt;Node22</title>
<path fill="none" stroke="midnightblue" d="M1557.42,-241.54C1540.67,-248.29 1519.5,-256.1 1500,-261.17 1441.54,-276.4 1373.35,-286.16 1324.54,-291.81"/>
<polygon fill="midnightblue" stroke="midnightblue" points="1558.8,-244.76 1566.72,-237.72 1556.14,-238.28 1558.8,-244.76"/>
</g>
<!-- Node23 -->
<g id="node23" class="node">
<title>Node23</title>
<g id="a_node23"><a xlink:href="StaticPathHandler_8cpp.html#a5af8659f0f83e8296b29264dd671af0d" target="_top" xlink:title=" ">
<polygon fill="white" stroke="black" points="1386.5,-142.67 1386.5,-161.67 1481.5,-161.67 1481.5,-142.67 1386.5,-142.67"/>
<text text-anchor="middle" x="1434" y="-149.67" font-family="Helvetica,sans-Serif" font-size="10.00">handleRegularFile</text>
</a>
</g>
</g>
<!-- Node13&#45;&gt;Node23 -->
<g id="edge34" class="edge">
<title>Node13&#45;&gt;Node23</title>
<path fill="none" stroke="midnightblue" d="M1565.48,-213.12C1547.97,-202.04 1523.04,-187.09 1500,-176.17 1488.59,-170.77 1475.6,-165.76 1464.25,-161.73"/>
<polygon fill="midnightblue" stroke="midnightblue" points="1563.6,-216.07 1573.91,-218.51 1567.37,-210.17 1563.6,-216.07"/>
</g>
<!-- Node13&#45;&gt;Node24 -->
<g id="edge37" class="edge">
<title>Node13&#45;&gt;Node24</title>
<path fill="none" stroke="midnightblue" d="M1574.23,-210.76C1553.92,-186.37 1517.25,-143.81 1500,-133.17 1491.59,-127.99 1481.71,-124.16 1472.21,-121.36"/>
<polygon fill="midnightblue" stroke="midnightblue" points="1571.6,-213.07 1580.67,-218.55 1576.99,-208.61 1571.6,-213.07"/>
</g>
<!-- Node15 -->
<g id="node15" class="node">
<title>Node15</title>
<g id="a_node15"><a xlink:href="classClient.html#a419f8f3253d3f71287044e3999a5d600" target="_top" xlink:title=" ">
<polygon fill="white" stroke="black" points="852.5,-294.67 852.5,-313.67 965.5,-313.67 965.5,-294.67 852.5,-294.67"/>
<text text-anchor="middle" x="909" y="-301.67" font-family="Helvetica,sans-Serif" font-size="10.00">Client::buildResponse</text>
</a>
</g>
</g>
<!-- Node14&#45;&gt;Node15 -->
<g id="edge17" class="edge">
<title>Node14&#45;&gt;Node15</title>
<path fill="none" stroke="midnightblue" d="M1013.07,-315.76C997.42,-314 980.89,-312.14 965.75,-310.44"/>
<polygon fill="midnightblue" stroke="midnightblue" points="1012.87,-319.26 1023.19,-316.9 1013.65,-312.3 1012.87,-319.26"/>
</g>
<!-- Node16 -->
<g id="node16" class="node">
<title>Node16</title>
<g id="a_node16"><a xlink:href="classClient.html#abcf615f2514ae7e0266315693e73a31a" target="_top" xlink:title=" ">
<polygon fill="white" stroke="black" points="652,-294.67 652,-313.67 807,-313.67 807,-294.67 652,-294.67"/>
<text text-anchor="middle" x="729.5" y="-301.67" font-family="Helvetica,sans-Serif" font-size="10.00">Client::handleCompleteRequest</text>
</a>
</g>
</g>
<!-- Node15&#45;&gt;Node16 -->
<g id="edge18" class="edge">
<title>Node15&#45;&gt;Node16</title>
<path fill="none" stroke="midnightblue" d="M842.05,-304.17C830.67,-304.17 818.75,-304.17 807.12,-304.17"/>
<polygon fill="midnightblue" stroke="midnightblue" points="842.32,-307.67 852.32,-304.17 842.32,-300.67 842.32,-307.67"/>
</g>
<!-- Node16&#45;&gt;Node8 -->
<g id="edge20" class="edge">
<title>Node16&#45;&gt;Node8</title>
<path fill="none" stroke="midnightblue" d="M674.69,-315.93C650.08,-321.3 621.31,-327.58 598.09,-332.65"/>
<polygon fill="midnightblue" stroke="midnightblue" points="675.57,-319.32 684.59,-313.76 674.08,-312.48 675.57,-319.32"/>
</g>
<!-- Node16&#45;&gt;Node9 -->
<g id="edge19" class="edge">
<title>Node16&#45;&gt;Node9</title>
<path fill="none" stroke="midnightblue" d="M641.78,-309C596.7,-312.05 540.76,-316.65 491,-323.17 472.07,-325.65 451.36,-329.25 433.44,-332.66"/>
<polygon fill="midnightblue" stroke="midnightblue" points="642.07,-312.49 651.82,-308.34 641.61,-305.51 642.07,-312.49"/>
</g>
<!-- Node17&#45;&gt;Node18 -->
<g id="edge23" class="edge">
<title>Node17&#45;&gt;Node18</title>
<path fill="none" stroke="midnightblue" d="M1174.85,-245.28C1166.2,-244.34 1157.47,-243.41 1149.01,-242.5"/>
<polygon fill="midnightblue" stroke="midnightblue" points="1174.63,-248.77 1184.95,-246.36 1175.38,-241.81 1174.63,-248.77"/>
</g>
<!-- Node18&#45;&gt;Node15 -->
<g id="edge24" class="edge">
<title>Node18&#45;&gt;Node15</title>
<path fill="none" stroke="midnightblue" d="M1046.22,-248.56C1013.05,-262.1 962.59,-282.7 933.3,-294.66"/>
<polygon fill="midnightblue" stroke="midnightblue" points="1047.57,-251.79 1055.5,-244.77 1044.92,-245.31 1047.57,-251.79"/>
</g>
<!-- Node18&#45;&gt;Node16 -->
<g id="edge25" class="edge">
<title>Node18&#45;&gt;Node16</title>
<path fill="none" stroke="midnightblue" d="M1020.81,-246.7C952.91,-260.14 841.92,-282.11 778.66,-294.64"/>
<polygon fill="midnightblue" stroke="midnightblue" points="1021.78,-250.07 1030.91,-244.7 1020.42,-243.2 1021.78,-250.07"/>
</g>
<!-- Node19&#45;&gt;Node20 -->
<g id="edge28" class="edge">
<title>Node19&#45;&gt;Node20</title>
<path fill="none" stroke="midnightblue" d="M1385.49,-88.86C1379.54,-90.8 1373.59,-92.92 1368,-95.17 1333.67,-109.05 1295.89,-130.39 1275.2,-142.65"/>
<polygon fill="midnightblue" stroke="midnightblue" points="1386.93,-92.08 1395.44,-85.77 1384.85,-85.4 1386.93,-92.08"/>
</g>
<!-- Node20&#45;&gt;Node18 -->
<g id="edge29" class="edge">
<title>Node20&#45;&gt;Node18</title>
<path fill="none" stroke="midnightblue" d="M1227.79,-166.15C1191.86,-183.04 1132.34,-211.03 1101.28,-225.64"/>
<polygon fill="midnightblue" stroke="midnightblue" points="1229.69,-169.12 1237.25,-161.69 1226.71,-162.78 1229.69,-169.12"/>
</g>
<!-- Node21&#45;&gt;Node18 -->
<g id="edge31" class="edge">
<title>Node21&#45;&gt;Node18</title>
<path fill="none" stroke="midnightblue" d="M1369.41,-50.35C1317.2,-67.04 1242.73,-94.97 1185,-133.17 1143.66,-160.53 1104.66,-205.79 1088.65,-225.5"/>
<polygon fill="midnightblue" stroke="midnightblue" points="1370.73,-53.61 1379.22,-47.27 1368.63,-46.93 1370.73,-53.61"/>
</g>
<!-- Node22&#45;&gt;Node18 -->
<g id="edge33" class="edge">
<title>Node22&#45;&gt;Node18</title>
<path fill="none" stroke="midnightblue" d="M1203.58,-279.7C1197.31,-277.52 1191.01,-275.31 1185,-273.17 1158.19,-263.65 1127.62,-252.44 1106.6,-244.67"/>
<polygon fill="midnightblue" stroke="midnightblue" points="1202.77,-283.13 1213.36,-283.1 1205.06,-276.51 1202.77,-283.13"/>
</g>
<!-- Node23&#45;&gt;Node20 -->
<g id="edge35" class="edge">
<title>Node23&#45;&gt;Node20</title>
<path fill="none" stroke="midnightblue" d="M1375.92,-152.17C1352.58,-152.17 1325.98,-152.17 1304.1,-152.17"/>
<polygon fill="midnightblue" stroke="midnightblue" points="1376.05,-155.67 1386.05,-152.17 1376.05,-148.67 1376.05,-155.67"/>
</g>
<!-- Node24&#45;&gt;Node20 -->
<g id="edge38" class="edge">
<title>Node24&#45;&gt;Node20</title>
<path fill="none" stroke="midnightblue" d="M1385.85,-124.5C1360.05,-130.15 1328.31,-137.1 1303.09,-142.63"/>
<polygon fill="midnightblue" stroke="midnightblue" points="1386.76,-127.88 1395.78,-122.33 1385.26,-121.05 1386.76,-127.88"/>
</g>
</g>
</svg>
