<?xml version="1.0" encoding="UTF-8" standalone="no"?>
<!DOCTYPE svg PUBLIC "-//W3C//DTD SVG 1.1//EN"
 "http://www.w3.org/Graphics/SVG/1.1/DTD/svg11.dtd">
<!-- Generated by graphviz version 2.43.0 (0)
 -->
<!-- Title: src/http/HttpRequest.cpp Pages: 1 -->
<svg width="310pt" height="140pt"
 viewBox="0.00 0.00 310.00 140.00" xmlns="http://www.w3.org/2000/svg" xmlns:xlink="http://www.w3.org/1999/xlink">
<g id="graph0" class="graph" transform="scale(1 1) rotate(0) translate(4 136)">
<title>src/http/HttpRequest.cpp</title>
<polygon fill="white" stroke="transparent" points="-4,4 -4,-136 306,-136 306,4 -4,4"/>
<!-- Node1 -->
<g id="node1" class="node">
<title>Node1</title>
<g id="a_node1"><a xlink:title=" ">
<polygon fill="#bfbfbf" stroke="black" points="146.5,-112.5 146.5,-131.5 273.5,-131.5 273.5,-112.5 146.5,-112.5"/>
<text text-anchor="middle" x="210" y="-119.5" font-family="Helvetica,sans-Serif" font-size="10.00">src/http/HttpRequest.cpp</text>
</a>
</g>
</g>
<!-- Node2 -->
<g id="node2" class="node">
<title>Node2</title>
<g id="a_node2"><a xlink:href="HttpRequest_8hpp.html" target="_top" xlink:title=" ">
<polygon fill="white" stroke="black" points="72.5,-56.5 72.5,-75.5 163.5,-75.5 163.5,-56.5 72.5,-56.5"/>
<text text-anchor="middle" x="118" y="-63.5" font-family="Helvetica,sans-Serif" font-size="10.00">HttpRequest.hpp</text>
</a>
</g>
</g>
<!-- Node1&#45;&gt;Node2 -->
<g id="edge1" class="edge">
<title>Node1&#45;&gt;Node2</title>
<path fill="none" stroke="midnightblue" d="M195.22,-112.32C180.73,-103.82 158.43,-90.73 141.51,-80.8"/>
<polygon fill="midnightblue" stroke="midnightblue" points="143.14,-77.7 132.74,-75.65 139.6,-83.74 143.14,-77.7"/>
</g>
<!-- Node7 -->
<g id="node7" class="node">
<title>Node7</title>
<g id="a_node7"><a xlink:title=" ">
<polygon fill="white" stroke="#bfbfbf" points="182,-56.5 182,-75.5 238,-75.5 238,-56.5 182,-56.5"/>
<text text-anchor="middle" x="210" y="-63.5" font-family="Helvetica,sans-Serif" font-size="10.00">algorithm</text>
</a>
</g>
</g>
<!-- Node1&#45;&gt;Node7 -->
<g id="edge6" class="edge">
<title>Node1&#45;&gt;Node7</title>
<path fill="none" stroke="midnightblue" d="M210,-112.08C210,-105.01 210,-94.86 210,-85.99"/>
<polygon fill="midnightblue" stroke="midnightblue" points="213.5,-85.75 210,-75.75 206.5,-85.75 213.5,-85.75"/>
</g>
<!-- Node8 -->
<g id="node8" class="node">
<title>Node8</title>
<g id="a_node8"><a xlink:title=" ">
<polygon fill="white" stroke="#bfbfbf" points="256,-56.5 256,-75.5 302,-75.5 302,-56.5 256,-56.5"/>
<text text-anchor="middle" x="279" y="-63.5" font-family="Helvetica,sans-Serif" font-size="10.00">cctype</text>
</a>
</g>
</g>
<!-- Node1&#45;&gt;Node8 -->
<g id="edge7" class="edge">
<title>Node1&#45;&gt;Node8</title>
<path fill="none" stroke="midnightblue" d="M221.09,-112.32C231.49,-104.18 247.26,-91.84 259.72,-82.09"/>
<polygon fill="midnightblue" stroke="midnightblue" points="261.99,-84.75 267.71,-75.83 257.68,-79.24 261.99,-84.75"/>
</g>
<!-- Node3 -->
<g id="node3" class="node">
<title>Node3</title>
<g id="a_node3"><a xlink:title=" ">
<polygon fill="white" stroke="#bfbfbf" points="0,-0.5 0,-19.5 54,-19.5 54,-0.5 0,-0.5"/>
<text text-anchor="middle" x="27" y="-7.5" font-family="Helvetica,sans-Serif" font-size="10.00">iostream</text>
</a>
</g>
</g>
<!-- Node2&#45;&gt;Node3 -->
<g id="edge2" class="edge">
<title>Node2&#45;&gt;Node3</title>
<path fill="none" stroke="midnightblue" d="M103.38,-56.32C89.05,-47.82 66.99,-34.73 50.25,-24.8"/>
<polygon fill="midnightblue" stroke="midnightblue" points="51.97,-21.75 41.58,-19.65 48.4,-27.77 51.97,-21.75"/>
</g>
<!-- Node4 -->
<g id="node4" class="node">
<title>Node4</title>
<g id="a_node4"><a xlink:title=" ">
<polygon fill="white" stroke="#bfbfbf" points="72.5,-0.5 72.5,-19.5 107.5,-19.5 107.5,-0.5 72.5,-0.5"/>
<text text-anchor="middle" x="90" y="-7.5" font-family="Helvetica,sans-Serif" font-size="10.00">map</text>
</a>
</g>
</g>
<!-- Node2&#45;&gt;Node4 -->
<g id="edge3" class="edge">
<title>Node2&#45;&gt;Node4</title>
<path fill="none" stroke="midnightblue" d="M113.38,-56.08C109.54,-48.69 103.98,-37.95 99.24,-28.81"/>
<polygon fill="midnightblue" stroke="midnightblue" points="102.25,-27.02 94.54,-19.75 96.03,-30.24 102.25,-27.02"/>
</g>
<!-- Node5 -->
<g id="node5" class="node">
<title>Node5</title>
<g id="a_node5"><a xlink:title=" ">
<polygon fill="white" stroke="#bfbfbf" points="125.5,-0.5 125.5,-19.5 166.5,-19.5 166.5,-0.5 125.5,-0.5"/>
<text text-anchor="middle" x="146" y="-7.5" font-family="Helvetica,sans-Serif" font-size="10.00">string</text>
</a>
</g>
</g>
<!-- Node2&#45;&gt;Node5 -->
<g id="edge4" class="edge">
<title>Node2&#45;&gt;Node5</title>
<path fill="none" stroke="midnightblue" d="M122.62,-56.08C126.46,-48.69 132.02,-37.95 136.76,-28.81"/>
<polygon fill="midnightblue" stroke="midnightblue" points="139.97,-30.24 141.46,-19.75 133.75,-27.02 139.97,-30.24"/>
</g>
<!-- Node6 -->
<g id="node6" class="node">
<title>Node6</title>
<g id="a_node6"><a xlink:title=" ">
<polygon fill="white" stroke="#bfbfbf" points="185,-0.5 185,-19.5 229,-19.5 229,-0.5 185,-0.5"/>
<text text-anchor="middle" x="207" y="-7.5" font-family="Helvetica,sans-Serif" font-size="10.00">vector</text>
</a>
</g>
</g>
<!-- Node2&#45;&gt;Node6 -->
<g id="edge5" class="edge">
<title>Node2&#45;&gt;Node6</title>
<path fill="none" stroke="midnightblue" d="M132.3,-56.32C146.18,-47.9 167.49,-34.97 183.8,-25.07"/>
<polygon fill="midnightblue" stroke="midnightblue" points="186,-27.83 192.74,-19.65 182.37,-21.85 186,-27.83"/>
</g>
</g>
</svg>
