<?xml version="1.0" encoding="UTF-8" standalone="no"?>
<!DOCTYPE svg PUBLIC "-//W3C//DTD SVG 1.1//EN"
 "http://www.w3.org/Graphics/SVG/1.1/DTD/svg11.dtd">
<!-- Generated by graphviz version 2.43.0 (0)
 -->
<!-- Title: src/http/HttpParserHeaders.cpp Pages: 1 -->
<svg width="432pt" height="196pt"
 viewBox="0.00 0.00 431.50 196.00" xmlns="http://www.w3.org/2000/svg" xmlns:xlink="http://www.w3.org/1999/xlink">
<g id="graph0" class="graph" transform="scale(1 1) rotate(0) translate(4 192)">
<title>src/http/HttpParserHeaders.cpp</title>
<polygon fill="white" stroke="transparent" points="-4,4 -4,-192 427.5,-192 427.5,4 -4,4"/>
<!-- Node1 -->
<g id="node1" class="node">
<title>Node1</title>
<g id="a_node1"><a xlink:title=" ">
<polygon fill="#bfbfbf" stroke="black" points="33,-168.5 33,-187.5 188,-187.5 188,-168.5 33,-168.5"/>
<text text-anchor="middle" x="110.5" y="-175.5" font-family="Helvetica,sans-Serif" font-size="10.00">src/http/HttpParserHeaders.cpp</text>
</a>
</g>
</g>
<!-- Node2 -->
<g id="node2" class="node">
<title>Node2</title>
<g id="a_node2"><a xlink:title=" ">
<polygon fill="white" stroke="#bfbfbf" points="0,-112.5 0,-131.5 45,-131.5 45,-112.5 0,-112.5"/>
<text text-anchor="middle" x="22.5" y="-119.5" font-family="Helvetica,sans-Serif" font-size="10.00">cstdlib</text>
</a>
</g>
</g>
<!-- Node1&#45;&gt;Node2 -->
<g id="edge1" class="edge">
<title>Node1&#45;&gt;Node2</title>
<path fill="none" stroke="midnightblue" d="M96.36,-168.32C82.63,-159.9 61.56,-146.97 45.44,-137.07"/>
<polygon fill="midnightblue" stroke="midnightblue" points="46.96,-133.9 36.6,-131.65 43.3,-139.87 46.96,-133.9"/>
</g>
<!-- Node3 -->
<g id="node3" class="node">
<title>Node3</title>
<g id="a_node3"><a xlink:title=" ">
<polygon fill="white" stroke="#bfbfbf" points="46.5,-0.5 46.5,-19.5 100.5,-19.5 100.5,-0.5 46.5,-0.5"/>
<text text-anchor="middle" x="73.5" y="-7.5" font-family="Helvetica,sans-Serif" font-size="10.00">iostream</text>
</a>
</g>
</g>
<!-- Node1&#45;&gt;Node3 -->
<g id="edge2" class="edge">
<title>Node1&#45;&gt;Node3</title>
<path fill="none" stroke="midnightblue" d="M108.51,-168.08C102.69,-141.95 85.58,-65.21 77.64,-29.58"/>
<polygon fill="midnightblue" stroke="midnightblue" points="81,-28.57 75.41,-19.57 74.17,-30.09 81,-28.57"/>
</g>
<!-- Node4 -->
<g id="node4" class="node">
<title>Node4</title>
<g id="a_node4"><a xlink:href="HttpHeaderUtils_8hpp.html" target="_top" xlink:title=" ">
<polygon fill="white" stroke="black" points="317.5,-56.5 317.5,-75.5 423.5,-75.5 423.5,-56.5 317.5,-56.5"/>
<text text-anchor="middle" x="370.5" y="-63.5" font-family="Helvetica,sans-Serif" font-size="10.00">HttpHeaderUtils.hpp</text>
</a>
</g>
</g>
<!-- Node1&#45;&gt;Node4 -->
<g id="edge3" class="edge">
<title>Node1&#45;&gt;Node4</title>
<path fill="none" stroke="midnightblue" d="M136.43,-168.42C161.72,-159.85 201.13,-145.99 234.5,-132 273.62,-115.6 317.72,-93.91 344.82,-80.2"/>
<polygon fill="midnightblue" stroke="midnightblue" points="346.66,-83.19 353.99,-75.54 343.49,-76.95 346.66,-83.19"/>
</g>
<!-- Node6 -->
<g id="node6" class="node">
<title>Node6</title>
<g id="a_node6"><a xlink:href="HttpParser_8hpp.html" target="_top" xlink:title=" ">
<polygon fill="white" stroke="black" points="143.5,-112.5 143.5,-131.5 225.5,-131.5 225.5,-112.5 143.5,-112.5"/>
<text text-anchor="middle" x="184.5" y="-119.5" font-family="Helvetica,sans-Serif" font-size="10.00">HttpParser.hpp</text>
</a>
</g>
</g>
<!-- Node1&#45;&gt;Node6 -->
<g id="edge5" class="edge">
<title>Node1&#45;&gt;Node6</title>
<path fill="none" stroke="midnightblue" d="M122.39,-168.32C133.65,-160.11 150.79,-147.6 164.21,-137.81"/>
<polygon fill="midnightblue" stroke="midnightblue" points="166.38,-140.56 172.39,-131.83 162.25,-134.9 166.38,-140.56"/>
</g>
<!-- Node5 -->
<g id="node5" class="node">
<title>Node5</title>
<g id="a_node5"><a xlink:title=" ">
<polygon fill="white" stroke="#bfbfbf" points="235,-0.5 235,-19.5 276,-19.5 276,-0.5 235,-0.5"/>
<text text-anchor="middle" x="255.5" y="-7.5" font-family="Helvetica,sans-Serif" font-size="10.00">string</text>
</a>
</g>
</g>
<!-- Node4&#45;&gt;Node5 -->
<g id="edge4" class="edge">
<title>Node4&#45;&gt;Node5</title>
<path fill="none" stroke="midnightblue" d="M352.28,-56.44C333.6,-47.68 304.34,-33.94 282.88,-23.86"/>
<polygon fill="midnightblue" stroke="midnightblue" points="284.18,-20.6 273.64,-19.52 281.2,-26.93 284.18,-20.6"/>
</g>
<!-- Node6&#45;&gt;Node5 -->
<g id="edge7" class="edge">
<title>Node6&#45;&gt;Node5</title>
<path fill="none" stroke="midnightblue" d="M190.07,-112.37C201.74,-94.3 228.92,-52.18 244.33,-28.31"/>
<polygon fill="midnightblue" stroke="midnightblue" points="247.47,-29.89 249.95,-19.59 241.59,-26.1 247.47,-29.89"/>
</g>
<!-- Node7 -->
<g id="node7" class="node">
<title>Node7</title>
<g id="a_node7"><a xlink:title=" ">
<polygon fill="white" stroke="#bfbfbf" points="250,-56.5 250,-75.5 299,-75.5 299,-56.5 250,-56.5"/>
<text text-anchor="middle" x="274.5" y="-63.5" font-family="Helvetica,sans-Serif" font-size="10.00">cstddef</text>
</a>
</g>
</g>
<!-- Node6&#45;&gt;Node7 -->
<g id="edge6" class="edge">
<title>Node6&#45;&gt;Node7</title>
<path fill="none" stroke="midnightblue" d="M198.96,-112.32C213,-103.9 234.55,-90.97 251.04,-81.07"/>
<polygon fill="midnightblue" stroke="midnightblue" points="253.3,-83.8 260.08,-75.65 249.7,-77.8 253.3,-83.8"/>
</g>
<!-- Node8 -->
<g id="node8" class="node">
<title>Node8</title>
<g id="a_node8"><a xlink:href="HttpRequest_8hpp.html" target="_top" xlink:title=" ">
<polygon fill="white" stroke="black" points="102,-56.5 102,-75.5 193,-75.5 193,-56.5 102,-56.5"/>
<text text-anchor="middle" x="147.5" y="-63.5" font-family="Helvetica,sans-Serif" font-size="10.00">HttpRequest.hpp</text>
</a>
</g>
</g>
<!-- Node6&#45;&gt;Node8 -->
<g id="edge8" class="edge">
<title>Node6&#45;&gt;Node8</title>
<path fill="none" stroke="midnightblue" d="M178.39,-112.08C173.22,-104.53 165.65,-93.49 159.31,-84.23"/>
<polygon fill="midnightblue" stroke="midnightblue" points="162.04,-82.02 153.5,-75.75 156.26,-85.98 162.04,-82.02"/>
</g>
<!-- Node8&#45;&gt;Node3 -->
<g id="edge9" class="edge">
<title>Node8&#45;&gt;Node3</title>
<path fill="none" stroke="midnightblue" d="M135.61,-56.32C124.35,-48.11 107.21,-35.6 93.79,-25.81"/>
<polygon fill="midnightblue" stroke="midnightblue" points="95.75,-22.9 85.61,-19.83 91.62,-28.56 95.75,-22.9"/>
</g>
<!-- Node8&#45;&gt;Node5 -->
<g id="edge11" class="edge">
<title>Node8&#45;&gt;Node5</title>
<path fill="none" stroke="midnightblue" d="M164.85,-56.32C182.17,-47.66 209.02,-34.24 229,-24.25"/>
<polygon fill="midnightblue" stroke="midnightblue" points="230.81,-27.26 238.19,-19.65 227.68,-21 230.81,-27.26"/>
</g>
<!-- Node9 -->
<g id="node9" class="node">
<title>Node9</title>
<g id="a_node9"><a xlink:title=" ">
<polygon fill="white" stroke="#bfbfbf" points="119,-0.5 119,-19.5 154,-19.5 154,-0.5 119,-0.5"/>
<text text-anchor="middle" x="136.5" y="-7.5" font-family="Helvetica,sans-Serif" font-size="10.00">map</text>
</a>
</g>
</g>
<!-- Node8&#45;&gt;Node9 -->
<g id="edge10" class="edge">
<title>Node8&#45;&gt;Node9</title>
<path fill="none" stroke="midnightblue" d="M145.68,-56.08C144.23,-48.93 142.13,-38.64 140.31,-29.69"/>
<polygon fill="midnightblue" stroke="midnightblue" points="143.71,-28.85 138.28,-19.75 136.85,-30.25 143.71,-28.85"/>
</g>
<!-- Node10 -->
<g id="node10" class="node">
<title>Node10</title>
<g id="a_node10"><a xlink:title=" ">
<polygon fill="white" stroke="#bfbfbf" points="172.5,-0.5 172.5,-19.5 216.5,-19.5 216.5,-0.5 172.5,-0.5"/>
<text text-anchor="middle" x="194.5" y="-7.5" font-family="Helvetica,sans-Serif" font-size="10.00">vector</text>
</a>
</g>
</g>
<!-- Node8&#45;&gt;Node10 -->
<g id="edge12" class="edge">
<title>Node8&#45;&gt;Node10</title>
<path fill="none" stroke="midnightblue" d="M155.26,-56.08C162.04,-48.3 172.04,-36.8 180.26,-27.37"/>
<polygon fill="midnightblue" stroke="midnightblue" points="182.96,-29.59 186.88,-19.75 177.68,-25 182.96,-29.59"/>
</g>
</g>
</svg>
