<?xml version="1.0" encoding="UTF-8" standalone="no"?>
<!DOCTYPE svg PUBLIC "-//W3C//DTD SVG 1.1//EN"
 "http://www.w3.org/Graphics/SVG/1.1/DTD/svg11.dtd">
<!-- Generated by graphviz version 2.43.0 (0)
 -->
<!-- Title: src/http/HttpResponse.hpp Pages: 1 -->
<svg width="1445pt" height="263pt"
 viewBox="0.00 0.00 1444.50 263.00" xmlns="http://www.w3.org/2000/svg" xmlns:xlink="http://www.w3.org/1999/xlink">
<g id="graph0" class="graph" transform="scale(1 1) rotate(0) translate(4 259)">
<title>src/http/HttpResponse.hpp</title>
<polygon fill="white" stroke="transparent" points="-4,4 -4,-259 1440.5,-259 1440.5,4 -4,4"/>
<!-- Node1 -->
<g id="node1" class="node">
<title>Node1</title>
<g id="a_node1"><a xlink:title=" ">
<polygon fill="#bfbfbf" stroke="black" points="797.5,-235.5 797.5,-254.5 931.5,-254.5 931.5,-235.5 797.5,-235.5"/>
<text text-anchor="middle" x="864.5" y="-242.5" font-family="Helvetica,sans-Serif" font-size="10.00">src/http/HttpResponse.hpp</text>
</a>
</g>
</g>
<!-- Node2 -->
<g id="node2" class="node">
<title>Node2</title>
<g id="a_node2"><a xlink:href="Client_8hpp.html" target="_top" xlink:title=" ">
<polygon fill="white" stroke="black" points="249.5,-112.5 249.5,-131.5 353.5,-131.5 353.5,-112.5 249.5,-112.5"/>
<text text-anchor="middle" x="301.5" y="-119.5" font-family="Helvetica,sans-Serif" font-size="10.00">src/client/Client.hpp</text>
</a>
</g>
</g>
<!-- Node1&#45;&gt;Node2 -->
<g id="edge1" class="edge">
<title>Node1&#45;&gt;Node2</title>
<path fill="none" stroke="midnightblue" d="M787.05,-243.58C639.14,-241.97 328.17,-234.36 295.5,-199 278.34,-180.43 290.13,-147.27 297.22,-131.62"/>
<polygon fill="midnightblue" stroke="midnightblue" points="787.38,-247.08 797.41,-243.69 787.45,-240.08 787.38,-247.08"/>
</g>
<!-- Node8 -->
<g id="node8" class="node">
<title>Node8</title>
<g id="a_node8"><a xlink:href="ErrorUtils_8hpp.html" target="_top" xlink:title=" ">
<polygon fill="white" stroke="black" points="481,-174 481,-193 600,-193 600,-174 481,-174"/>
<text text-anchor="middle" x="540.5" y="-181" font-family="Helvetica,sans-Serif" font-size="10.00">src/client/ErrorUtils.hpp</text>
</a>
</g>
</g>
<!-- Node1&#45;&gt;Node8 -->
<g id="edge10" class="edge">
<title>Node1&#45;&gt;Node8</title>
<path fill="none" stroke="midnightblue" d="M802.86,-233.81C750.94,-225.07 674.74,-211.88 608.5,-199 599.02,-197.16 588.83,-195.05 579.29,-193.02"/>
<polygon fill="midnightblue" stroke="midnightblue" points="802.47,-237.29 812.91,-235.49 803.63,-230.39 802.47,-237.29"/>
</g>
<!-- Node11 -->
<g id="node11" class="node">
<title>Node11</title>
<g id="a_node11"><a xlink:href="StaticPathHandler_8cpp.html" target="_top" xlink:title=" ">
<polygon fill="white" stroke="black" points="786,-112.5 786,-131.5 943,-131.5 943,-112.5 786,-112.5"/>
<text text-anchor="middle" x="864.5" y="-119.5" font-family="Helvetica,sans-Serif" font-size="10.00">src/client/StaticPathHandler.cpp</text>
</a>
</g>
</g>
<!-- Node1&#45;&gt;Node11 -->
<g id="edge28" class="edge">
<title>Node1&#45;&gt;Node11</title>
<path fill="none" stroke="midnightblue" d="M905.02,-231.54C920.51,-224.57 936.58,-214.16 945.5,-199 952.49,-187.13 952.49,-179.87 945.5,-168 934.73,-149.7 913.53,-138.31 895.52,-131.56"/>
<polygon fill="midnightblue" stroke="midnightblue" points="903.44,-228.4 895.52,-235.44 906.1,-234.88 903.44,-228.4"/>
</g>
<!-- Node12 -->
<g id="node12" class="node">
<title>Node12</title>
<g id="a_node12"><a xlink:href="RequestProcessor_8hpp.html" target="_top" xlink:title=" ">
<polygon fill="white" stroke="black" points="304.5,-174 304.5,-193 462.5,-193 462.5,-174 304.5,-174"/>
<text text-anchor="middle" x="383.5" y="-181" font-family="Helvetica,sans-Serif" font-size="10.00">src/client/RequestProcessor.hpp</text>
</a>
</g>
</g>
<!-- Node1&#45;&gt;Node12 -->
<g id="edge16" class="edge">
<title>Node1&#45;&gt;Node12</title>
<path fill="none" stroke="midnightblue" d="M786.87,-236.25C707.49,-228.06 580.69,-214.24 471.5,-199 458.93,-197.25 445.38,-195.13 432.77,-193.06"/>
<polygon fill="midnightblue" stroke="midnightblue" points="786.96,-239.78 797.27,-237.32 787.68,-232.82 786.96,-239.78"/>
</g>
<!-- Node13 -->
<g id="node13" class="node">
<title>Node13</title>
<g id="a_node13"><a xlink:href="RequestProcessorUtils_8cpp.html" target="_top" xlink:title=" ">
<polygon fill="white" stroke="black" points="1144.5,-168.5 1144.5,-198.5 1284.5,-198.5 1284.5,-168.5 1144.5,-168.5"/>
<text text-anchor="start" x="1152.5" y="-186.5" font-family="Helvetica,sans-Serif" font-size="10.00">src/client/RequestProcessor</text>
<text text-anchor="middle" x="1214.5" y="-175.5" font-family="Helvetica,sans-Serif" font-size="10.00">Utils.cpp</text>
</a>
</g>
</g>
<!-- Node1&#45;&gt;Node13 -->
<g id="edge19" class="edge">
<title>Node1&#45;&gt;Node13</title>
<path fill="none" stroke="midnightblue" d="M927.45,-233.86C982.41,-224.93 1064.29,-211.45 1135.5,-199 1138.38,-198.5 1141.33,-197.98 1144.3,-197.45"/>
<polygon fill="midnightblue" stroke="midnightblue" points="926.82,-230.41 917.51,-235.47 927.94,-237.32 926.82,-230.41"/>
</g>
<!-- Node14 -->
<g id="node14" class="node">
<title>Node14</title>
<g id="a_node14"><a xlink:href="ResponseUtils_8hpp.html" target="_top" xlink:title=" ">
<polygon fill="white" stroke="black" points="793,-174 793,-193 936,-193 936,-174 793,-174"/>
<text text-anchor="middle" x="864.5" y="-181" font-family="Helvetica,sans-Serif" font-size="10.00">src/client/ResponseUtils.hpp</text>
</a>
</g>
</g>
<!-- Node1&#45;&gt;Node14 -->
<g id="edge20" class="edge">
<title>Node1&#45;&gt;Node14</title>
<path fill="none" stroke="midnightblue" d="M864.5,-225.32C864.5,-214.5 864.5,-201.4 864.5,-193.01"/>
<polygon fill="midnightblue" stroke="midnightblue" points="861,-225.48 864.5,-235.48 868,-225.48 861,-225.48"/>
</g>
<!-- Node16 -->
<g id="node16" class="node">
<title>Node16</title>
<g id="a_node16"><a xlink:href="SessionUtils_8hpp.html" target="_top" xlink:title=" ">
<polygon fill="white" stroke="black" points="992.5,-174 992.5,-193 1126.5,-193 1126.5,-174 992.5,-174"/>
<text text-anchor="middle" x="1059.5" y="-181" font-family="Helvetica,sans-Serif" font-size="10.00">src/client/SessionUtils.hpp</text>
</a>
</g>
</g>
<!-- Node1&#45;&gt;Node16 -->
<g id="edge25" class="edge">
<title>Node1&#45;&gt;Node16</title>
<path fill="none" stroke="midnightblue" d="M902.1,-232.53C939.99,-220.96 997.61,-203.38 1031.61,-193.01"/>
<polygon fill="midnightblue" stroke="midnightblue" points="900.98,-229.21 892.44,-235.48 903.02,-235.9 900.98,-229.21"/>
</g>
<!-- Node18 -->
<g id="node18" class="node">
<title>Node18</title>
<g id="a_node18"><a xlink:href="StaticPathHandler_8hpp.html" target="_top" xlink:title=" ">
<polygon fill="white" stroke="black" points="618,-174 618,-193 775,-193 775,-174 618,-174"/>
<text text-anchor="middle" x="696.5" y="-181" font-family="Helvetica,sans-Serif" font-size="10.00">src/client/StaticPathHandler.hpp</text>
</a>
</g>
</g>
<!-- Node1&#45;&gt;Node18 -->
<g id="edge29" class="edge">
<title>Node1&#45;&gt;Node18</title>
<path fill="none" stroke="midnightblue" d="M830.85,-232.08C798.2,-220.52 749.45,-203.25 720.53,-193.01"/>
<polygon fill="midnightblue" stroke="midnightblue" points="829.83,-235.44 840.43,-235.48 832.17,-228.84 829.83,-235.44"/>
</g>
<!-- Node19 -->
<g id="node19" class="node">
<title>Node19</title>
<g id="a_node19"><a xlink:href="HttpResponse_8cpp.html" target="_top" xlink:title=" ">
<polygon fill="white" stroke="black" points="1302.5,-174 1302.5,-193 1436.5,-193 1436.5,-174 1302.5,-174"/>
<text text-anchor="middle" x="1369.5" y="-181" font-family="Helvetica,sans-Serif" font-size="10.00">src/http/HttpResponse.cpp</text>
</a>
</g>
</g>
<!-- Node1&#45;&gt;Node19 -->
<g id="edge32" class="edge">
<title>Node1&#45;&gt;Node19</title>
<path fill="none" stroke="midnightblue" d="M941.81,-237.86C1027.89,-230.57 1171.05,-217.07 1293.5,-199 1304.8,-197.33 1316.97,-195.17 1328.19,-193.03"/>
<polygon fill="midnightblue" stroke="midnightblue" points="941.27,-234.39 931.6,-238.72 941.85,-241.37 941.27,-234.39"/>
</g>
<!-- Node3 -->
<g id="node3" class="node">
<title>Node3</title>
<g id="a_node3"><a xlink:href="Client_8cpp.html" target="_top" xlink:title=" ">
<polygon fill="white" stroke="black" points="264.5,-0.5 264.5,-19.5 368.5,-19.5 368.5,-0.5 264.5,-0.5"/>
<text text-anchor="middle" x="316.5" y="-7.5" font-family="Helvetica,sans-Serif" font-size="10.00">src/client/Client.cpp</text>
</a>
</g>
</g>
<!-- Node2&#45;&gt;Node3 -->
<g id="edge2" class="edge">
<title>Node2&#45;&gt;Node3</title>
<path fill="none" stroke="midnightblue" d="M304.04,-102.35C307.33,-78.25 312.91,-37.31 315.33,-19.59"/>
<polygon fill="midnightblue" stroke="midnightblue" points="300.56,-101.99 302.68,-112.37 307.5,-102.93 300.56,-101.99"/>
</g>
<!-- Node4 -->
<g id="node4" class="node">
<title>Node4</title>
<g id="a_node4"><a xlink:href="ClientCgi_8cpp.html" target="_top" xlink:title=" ">
<polygon fill="white" stroke="black" points="387,-0.5 387,-19.5 506,-19.5 506,-0.5 387,-0.5"/>
<text text-anchor="middle" x="446.5" y="-7.5" font-family="Helvetica,sans-Serif" font-size="10.00">src/client/ClientCgi.cpp</text>
</a>
</g>
</g>
<!-- Node2&#45;&gt;Node4 -->
<g id="edge3" class="edge">
<title>Node2&#45;&gt;Node4</title>
<path fill="none" stroke="midnightblue" d="M321.12,-106.12C351.9,-82.77 410.55,-38.27 435.17,-19.59"/>
<polygon fill="midnightblue" stroke="midnightblue" points="318.73,-103.54 312.88,-112.37 322.96,-109.11 318.73,-103.54"/>
</g>
<!-- Node5 -->
<g id="node5" class="node">
<title>Node5</title>
<g id="a_node5"><a xlink:href="ServerManager_8cpp.html" target="_top" xlink:title=" ">
<polygon fill="white" stroke="black" points="0,-0.5 0,-19.5 155,-19.5 155,-0.5 0,-0.5"/>
<text text-anchor="middle" x="77.5" y="-7.5" font-family="Helvetica,sans-Serif" font-size="10.00">src/network/ServerManager.cpp</text>
</a>
</g>
</g>
<!-- Node2&#45;&gt;Node5 -->
<g id="edge4" class="edge">
<title>Node2&#45;&gt;Node5</title>
<path fill="none" stroke="midnightblue" d="M239.25,-116.04C202.9,-110.64 157.62,-99.4 123.5,-76 102.3,-61.45 87.62,-33.73 81.18,-19.66"/>
<polygon fill="midnightblue" stroke="midnightblue" points="238.86,-119.52 249.25,-117.41 239.82,-112.58 238.86,-119.52"/>
</g>
<!-- Node6 -->
<g id="node6" class="node">
<title>Node6</title>
<g id="a_node6"><a xlink:href="ServerManager_8hpp.html" target="_top" xlink:title=" ">
<polygon fill="white" stroke="black" points="133,-56.5 133,-75.5 288,-75.5 288,-56.5 133,-56.5"/>
<text text-anchor="middle" x="210.5" y="-63.5" font-family="Helvetica,sans-Serif" font-size="10.00">src/network/ServerManager.hpp</text>
</a>
</g>
</g>
<!-- Node2&#45;&gt;Node6 -->
<g id="edge5" class="edge">
<title>Node2&#45;&gt;Node6</title>
<path fill="none" stroke="midnightblue" d="M278.21,-107.18C261.46,-97.24 239.4,-84.15 225.08,-75.65"/>
<polygon fill="midnightblue" stroke="midnightblue" points="276.49,-110.23 286.88,-112.32 280.07,-104.21 276.49,-110.23"/>
</g>
<!-- Node6&#45;&gt;Node3 -->
<g id="edge6" class="edge">
<title>Node6&#45;&gt;Node3</title>
<path fill="none" stroke="midnightblue" d="M236.56,-51.73C256.18,-41.73 282.53,-28.31 299.51,-19.65"/>
<polygon fill="midnightblue" stroke="midnightblue" points="234.85,-48.67 227.53,-56.32 238.03,-54.9 234.85,-48.67"/>
</g>
<!-- Node6&#45;&gt;Node4 -->
<g id="edge7" class="edge">
<title>Node6&#45;&gt;Node4</title>
<path fill="none" stroke="midnightblue" d="M257.91,-54.15C302.5,-43.95 368.35,-28.88 409.28,-19.52"/>
<polygon fill="midnightblue" stroke="midnightblue" points="256.86,-50.8 247.89,-56.44 258.42,-57.62 256.86,-50.8"/>
</g>
<!-- Node6&#45;&gt;Node5 -->
<g id="edge9" class="edge">
<title>Node6&#45;&gt;Node5</title>
<path fill="none" stroke="midnightblue" d="M180.05,-52.64C155.09,-42.5 120.42,-28.43 98.48,-19.52"/>
<polygon fill="midnightblue" stroke="midnightblue" points="178.84,-55.92 189.43,-56.44 181.48,-49.44 178.84,-55.92"/>
</g>
<!-- Node7 -->
<g id="node7" class="node">
<title>Node7</title>
<g id="a_node7"><a xlink:href="main_8cpp.html" target="_top" xlink:title=" ">
<polygon fill="white" stroke="black" points="173,-0.5 173,-19.5 246,-19.5 246,-0.5 173,-0.5"/>
<text text-anchor="middle" x="209.5" y="-7.5" font-family="Helvetica,sans-Serif" font-size="10.00">src/main.cpp</text>
</a>
</g>
</g>
<!-- Node6&#45;&gt;Node7 -->
<g id="edge8" class="edge">
<title>Node6&#45;&gt;Node7</title>
<path fill="none" stroke="midnightblue" d="M210.14,-45.8C209.98,-36.91 209.79,-26.78 209.66,-19.75"/>
<polygon fill="midnightblue" stroke="midnightblue" points="206.65,-46.15 210.33,-56.08 213.65,-46.02 206.65,-46.15"/>
</g>
<!-- Node8&#45;&gt;Node3 -->
<g id="edge11" class="edge">
<title>Node8&#45;&gt;Node3</title>
<path fill="none" stroke="midnightblue" d="M513.54,-169.39C495.15,-159.96 470.57,-146.42 450.5,-132 398.82,-94.88 344.84,-40.54 324.71,-19.64"/>
<polygon fill="midnightblue" stroke="midnightblue" points="512.04,-172.55 522.54,-173.92 515.19,-166.3 512.04,-172.55"/>
</g>
<!-- Node8&#45;&gt;Node4 -->
<g id="edge12" class="edge">
<title>Node8&#45;&gt;Node4</title>
<path fill="none" stroke="midnightblue" d="M508.88,-169.53C492.68,-161.23 474.16,-148.82 463.5,-132 440.45,-95.63 443.26,-40.86 445.42,-19.73"/>
<polygon fill="midnightblue" stroke="midnightblue" points="507.54,-172.77 518.07,-173.95 510.58,-166.47 507.54,-172.77"/>
</g>
<!-- Node9 -->
<g id="node9" class="node">
<title>Node9</title>
<g id="a_node9"><a xlink:href="ErrorUtils_8cpp.html" target="_top" xlink:title=" ">
<polygon fill="white" stroke="black" points="649,-112.5 649,-131.5 768,-131.5 768,-112.5 649,-112.5"/>
<text text-anchor="middle" x="708.5" y="-119.5" font-family="Helvetica,sans-Serif" font-size="10.00">src/client/ErrorUtils.cpp</text>
</a>
</g>
</g>
<!-- Node8&#45;&gt;Node9 -->
<g id="edge13" class="edge">
<title>Node8&#45;&gt;Node9</title>
<path fill="none" stroke="midnightblue" d="M574.15,-170.58C606.8,-159.02 655.55,-141.75 684.47,-131.51"/>
<polygon fill="midnightblue" stroke="midnightblue" points="572.83,-167.34 564.57,-173.98 575.17,-173.94 572.83,-167.34"/>
</g>
<!-- Node10 -->
<g id="node10" class="node">
<title>Node10</title>
<g id="a_node10"><a xlink:href="RequestProcessor_8cpp.html" target="_top" xlink:title=" ">
<polygon fill="white" stroke="black" points="472.5,-112.5 472.5,-131.5 630.5,-131.5 630.5,-112.5 472.5,-112.5"/>
<text text-anchor="middle" x="551.5" y="-119.5" font-family="Helvetica,sans-Serif" font-size="10.00">src/client/RequestProcessor.cpp</text>
</a>
</g>
</g>
<!-- Node8&#45;&gt;Node10 -->
<g id="edge14" class="edge">
<title>Node8&#45;&gt;Node10</title>
<path fill="none" stroke="midnightblue" d="M543.95,-163.82C545.95,-153 548.38,-139.9 549.93,-131.51"/>
<polygon fill="midnightblue" stroke="midnightblue" points="540.45,-163.51 542.08,-173.98 547.34,-164.78 540.45,-163.51"/>
</g>
<!-- Node8&#45;&gt;Node11 -->
<g id="edge15" class="edge">
<title>Node8&#45;&gt;Node11</title>
<path fill="none" stroke="midnightblue" d="M589.3,-171.87C595.75,-170.53 602.28,-169.21 608.5,-168 679.15,-154.26 761.14,-140.17 812.91,-131.51"/>
<polygon fill="midnightblue" stroke="midnightblue" points="588.35,-168.49 579.29,-173.98 589.79,-175.35 588.35,-168.49"/>
</g>
<!-- Node12&#45;&gt;Node2 -->
<g id="edge17" class="edge">
<title>Node12&#45;&gt;Node2</title>
<path fill="none" stroke="midnightblue" d="M363.23,-167.79C347.5,-156.38 326.25,-140.96 313.23,-131.51"/>
<polygon fill="midnightblue" stroke="midnightblue" points="361.6,-170.93 371.75,-173.98 365.71,-165.27 361.6,-170.93"/>
</g>
<!-- Node12&#45;&gt;Node10 -->
<g id="edge18" class="edge">
<title>Node12&#45;&gt;Node10</title>
<path fill="none" stroke="midnightblue" d="M417.15,-170.58C449.8,-159.02 498.55,-141.75 527.47,-131.51"/>
<polygon fill="midnightblue" stroke="midnightblue" points="415.83,-167.34 407.57,-173.98 418.17,-173.94 415.83,-167.34"/>
</g>
<!-- Node14&#45;&gt;Node9 -->
<g id="edge21" class="edge">
<title>Node14&#45;&gt;Node9</title>
<path fill="none" stroke="midnightblue" d="M832.47,-170.28C802.15,-158.72 757.43,-141.66 730.81,-131.51"/>
<polygon fill="midnightblue" stroke="midnightblue" points="831.56,-173.68 842.15,-173.98 834.05,-167.14 831.56,-173.68"/>
</g>
<!-- Node14&#45;&gt;Node10 -->
<g id="edge22" class="edge">
<title>Node14&#45;&gt;Node10</title>
<path fill="none" stroke="midnightblue" d="M809.5,-172.05C748.87,-160.52 652.47,-142.19 596.26,-131.51"/>
<polygon fill="midnightblue" stroke="midnightblue" points="809.18,-175.55 819.65,-173.98 810.48,-168.67 809.18,-175.55"/>
</g>
<!-- Node14&#45;&gt;Node11 -->
<g id="edge24" class="edge">
<title>Node14&#45;&gt;Node11</title>
<path fill="none" stroke="midnightblue" d="M864.5,-163.82C864.5,-153 864.5,-139.9 864.5,-131.51"/>
<polygon fill="midnightblue" stroke="midnightblue" points="861,-163.98 864.5,-173.98 868,-163.98 861,-163.98"/>
</g>
<!-- Node15 -->
<g id="node15" class="node">
<title>Node15</title>
<g id="a_node15"><a xlink:href="ResponseUtils_8cpp.html" target="_top" xlink:title=" ">
<polygon fill="white" stroke="black" points="961,-112.5 961,-131.5 1104,-131.5 1104,-112.5 961,-112.5"/>
<text text-anchor="middle" x="1032.5" y="-119.5" font-family="Helvetica,sans-Serif" font-size="10.00">src/client/ResponseUtils.cpp</text>
</a>
</g>
</g>
<!-- Node14&#45;&gt;Node15 -->
<g id="edge23" class="edge">
<title>Node14&#45;&gt;Node15</title>
<path fill="none" stroke="midnightblue" d="M898.15,-170.58C930.8,-159.02 979.55,-141.75 1008.47,-131.51"/>
<polygon fill="midnightblue" stroke="midnightblue" points="896.83,-167.34 888.57,-173.98 899.17,-173.94 896.83,-167.34"/>
</g>
<!-- Node16&#45;&gt;Node15 -->
<g id="edge26" class="edge">
<title>Node16&#45;&gt;Node15</title>
<path fill="none" stroke="midnightblue" d="M1051.48,-164.83C1046.49,-153.83 1040.29,-140.16 1036.36,-131.51"/>
<polygon fill="midnightblue" stroke="midnightblue" points="1048.31,-166.32 1055.63,-173.98 1054.69,-163.42 1048.31,-166.32"/>
</g>
<!-- Node17 -->
<g id="node17" class="node">
<title>Node17</title>
<g id="a_node17"><a xlink:href="SessionUtils_8cpp.html" target="_top" xlink:title=" ">
<polygon fill="white" stroke="black" points="1122.5,-112.5 1122.5,-131.5 1256.5,-131.5 1256.5,-112.5 1122.5,-112.5"/>
<text text-anchor="middle" x="1189.5" y="-119.5" font-family="Helvetica,sans-Serif" font-size="10.00">src/client/SessionUtils.cpp</text>
</a>
</g>
</g>
<!-- Node16&#45;&gt;Node17 -->
<g id="edge27" class="edge">
<title>Node16&#45;&gt;Node17</title>
<path fill="none" stroke="midnightblue" d="M1087.52,-169.67C1112.75,-158.13 1149.11,-141.49 1170.91,-131.51"/>
<polygon fill="midnightblue" stroke="midnightblue" points="1085.76,-166.63 1078.13,-173.98 1088.68,-173 1085.76,-166.63"/>
</g>
<!-- Node18&#45;&gt;Node10 -->
<g id="edge30" class="edge">
<title>Node18&#45;&gt;Node10</title>
<path fill="none" stroke="midnightblue" d="M666.36,-170.13C638.19,-158.57 596.88,-141.62 572.24,-131.51"/>
<polygon fill="midnightblue" stroke="midnightblue" points="665.14,-173.42 675.73,-173.98 667.8,-166.94 665.14,-173.42"/>
</g>
<!-- Node18&#45;&gt;Node11 -->
<g id="edge31" class="edge">
<title>Node18&#45;&gt;Node11</title>
<path fill="none" stroke="midnightblue" d="M730.15,-170.58C762.8,-159.02 811.55,-141.75 840.47,-131.51"/>
<polygon fill="midnightblue" stroke="midnightblue" points="728.83,-167.34 720.57,-173.98 731.17,-173.94 728.83,-167.34"/>
</g>
</g>
</svg>
