<?xml version="1.0" encoding="UTF-8" standalone="no"?>
<!DOCTYPE svg PUBLIC "-//W3C//DTD SVG 1.1//EN"
 "http://www.w3.org/Graphics/SVG/1.1/DTD/svg11.dtd">
<!-- Generated by graphviz version 2.43.0 (0)
 -->
<!-- Title: src/http/HttpResponse.cpp Pages: 1 -->
<svg width="350pt" height="196pt"
 viewBox="0.00 0.00 350.00 196.00" xmlns="http://www.w3.org/2000/svg" xmlns:xlink="http://www.w3.org/1999/xlink">
<g id="graph0" class="graph" transform="scale(1 1) rotate(0) translate(4 192)">
<title>src/http/HttpResponse.cpp</title>
<polygon fill="white" stroke="transparent" points="-4,4 -4,-192 346,-192 346,4 -4,4"/>
<!-- Node1 -->
<g id="node1" class="node">
<title>Node1</title>
<g id="a_node1"><a xlink:title=" ">
<polygon fill="#bfbfbf" stroke="black" points="141,-168.5 141,-187.5 275,-187.5 275,-168.5 141,-168.5"/>
<text text-anchor="middle" x="208" y="-175.5" font-family="Helvetica,sans-Serif" font-size="10.00">src/http/HttpResponse.cpp</text>
</a>
</g>
</g>
<!-- Node2 -->
<g id="node2" class="node">
<title>Node2</title>
<g id="a_node2"><a xlink:href="HttpResponse_8hpp.html" target="_top" xlink:title=" ">
<polygon fill="white" stroke="black" points="159,-112.5 159,-131.5 257,-131.5 257,-112.5 159,-112.5"/>
<text text-anchor="middle" x="208" y="-119.5" font-family="Helvetica,sans-Serif" font-size="10.00">HttpResponse.hpp</text>
</a>
</g>
</g>
<!-- Node1&#45;&gt;Node2 -->
<g id="edge1" class="edge">
<title>Node1&#45;&gt;Node2</title>
<path fill="none" stroke="midnightblue" d="M208,-168.08C208,-161.01 208,-150.86 208,-141.99"/>
<polygon fill="midnightblue" stroke="midnightblue" points="211.5,-141.75 208,-131.75 204.5,-141.75 211.5,-141.75"/>
</g>
<!-- Node8 -->
<g id="node8" class="node">
<title>Node8</title>
<g id="a_node8"><a xlink:title=" ">
<polygon fill="white" stroke="#bfbfbf" points="275,-112.5 275,-131.5 327,-131.5 327,-112.5 275,-112.5"/>
<text text-anchor="middle" x="301" y="-119.5" font-family="Helvetica,sans-Serif" font-size="10.00">sstream</text>
</a>
</g>
</g>
<!-- Node1&#45;&gt;Node8 -->
<g id="edge10" class="edge">
<title>Node1&#45;&gt;Node8</title>
<path fill="none" stroke="midnightblue" d="M222.94,-168.32C237.59,-159.82 260.13,-146.73 277.24,-136.8"/>
<polygon fill="midnightblue" stroke="midnightblue" points="279.2,-139.7 286.1,-131.65 275.69,-133.65 279.2,-139.7"/>
</g>
<!-- Node9 -->
<g id="node9" class="node">
<title>Node9</title>
<g id="a_node9"><a xlink:href="HttpHeaderUtils_8hpp.html" target="_top" xlink:title=" ">
<polygon fill="white" stroke="black" points="0,-56.5 0,-75.5 106,-75.5 106,-56.5 0,-56.5"/>
<text text-anchor="middle" x="53" y="-63.5" font-family="Helvetica,sans-Serif" font-size="10.00">HttpHeaderUtils.hpp</text>
</a>
</g>
</g>
<!-- Node1&#45;&gt;Node9 -->
<g id="edge11" class="edge">
<title>Node1&#45;&gt;Node9</title>
<path fill="none" stroke="midnightblue" d="M195.84,-168.37C169.35,-149.57 106.22,-104.77 73.48,-81.53"/>
<polygon fill="midnightblue" stroke="midnightblue" points="75.29,-78.52 65.11,-75.59 71.24,-84.23 75.29,-78.52"/>
</g>
<!-- Node3 -->
<g id="node3" class="node">
<title>Node3</title>
<g id="a_node3"><a xlink:title=" ">
<polygon fill="white" stroke="#bfbfbf" points="244.5,-0.5 244.5,-19.5 279.5,-19.5 279.5,-0.5 244.5,-0.5"/>
<text text-anchor="middle" x="262" y="-7.5" font-family="Helvetica,sans-Serif" font-size="10.00">map</text>
</a>
</g>
</g>
<!-- Node2&#45;&gt;Node3 -->
<g id="edge2" class="edge">
<title>Node2&#45;&gt;Node3</title>
<path fill="none" stroke="midnightblue" d="M225.2,-112.39C238.25,-104.79 255.23,-92.39 263,-76 269.87,-61.5 268.8,-43.05 266.49,-29.52"/>
<polygon fill="midnightblue" stroke="midnightblue" points="269.87,-28.58 264.41,-19.5 263.02,-30 269.87,-28.58"/>
</g>
<!-- Node4 -->
<g id="node4" class="node">
<title>Node4</title>
<g id="a_node4"><a xlink:title=" ">
<polygon fill="white" stroke="#bfbfbf" points="112.5,-0.5 112.5,-19.5 153.5,-19.5 153.5,-0.5 112.5,-0.5"/>
<text text-anchor="middle" x="133" y="-7.5" font-family="Helvetica,sans-Serif" font-size="10.00">string</text>
</a>
</g>
</g>
<!-- Node2&#45;&gt;Node4 -->
<g id="edge3" class="edge">
<title>Node2&#45;&gt;Node4</title>
<path fill="none" stroke="midnightblue" d="M193.65,-112.36C181.48,-104.35 164.39,-91.37 154,-76 144.56,-62.03 139.13,-43.53 136.16,-29.83"/>
<polygon fill="midnightblue" stroke="midnightblue" points="139.54,-28.84 134.22,-19.67 132.66,-30.15 139.54,-28.84"/>
</g>
<!-- Node5 -->
<g id="node5" class="node">
<title>Node5</title>
<g id="a_node5"><a xlink:title=" ">
<polygon fill="white" stroke="#bfbfbf" points="298,-0.5 298,-19.5 342,-19.5 342,-0.5 298,-0.5"/>
<text text-anchor="middle" x="320" y="-7.5" font-family="Helvetica,sans-Serif" font-size="10.00">vector</text>
</a>
</g>
</g>
<!-- Node2&#45;&gt;Node5 -->
<g id="edge4" class="edge">
<title>Node2&#45;&gt;Node5</title>
<path fill="none" stroke="midnightblue" d="M226.18,-112.37C241.53,-104.45 263.43,-91.6 279,-76 292.8,-62.17 304.23,-42.89 311.48,-28.92"/>
<polygon fill="midnightblue" stroke="midnightblue" points="314.68,-30.36 316,-19.84 308.41,-27.24 314.68,-30.36"/>
</g>
<!-- Node6 -->
<g id="node6" class="node">
<title>Node6</title>
<g id="a_node6"><a xlink:href="HttpRequest_8hpp.html" target="_top" xlink:title=" ">
<polygon fill="white" stroke="black" points="162.5,-56.5 162.5,-75.5 253.5,-75.5 253.5,-56.5 162.5,-56.5"/>
<text text-anchor="middle" x="208" y="-63.5" font-family="Helvetica,sans-Serif" font-size="10.00">HttpRequest.hpp</text>
</a>
</g>
</g>
<!-- Node2&#45;&gt;Node6 -->
<g id="edge5" class="edge">
<title>Node2&#45;&gt;Node6</title>
<path fill="none" stroke="midnightblue" d="M208,-112.08C208,-105.01 208,-94.86 208,-85.99"/>
<polygon fill="midnightblue" stroke="midnightblue" points="211.5,-85.75 208,-75.75 204.5,-85.75 211.5,-85.75"/>
</g>
<!-- Node6&#45;&gt;Node3 -->
<g id="edge7" class="edge">
<title>Node6&#45;&gt;Node3</title>
<path fill="none" stroke="midnightblue" d="M216.92,-56.08C224.78,-48.22 236.43,-36.57 245.92,-27.08"/>
<polygon fill="midnightblue" stroke="midnightblue" points="248.65,-29.3 253.25,-19.75 243.7,-24.35 248.65,-29.3"/>
</g>
<!-- Node6&#45;&gt;Node4 -->
<g id="edge8" class="edge">
<title>Node6&#45;&gt;Node4</title>
<path fill="none" stroke="midnightblue" d="M195.95,-56.32C184.54,-48.11 167.17,-35.6 153.57,-25.81"/>
<polygon fill="midnightblue" stroke="midnightblue" points="155.43,-22.84 145.27,-19.83 151.34,-28.52 155.43,-22.84"/>
</g>
<!-- Node6&#45;&gt;Node5 -->
<g id="edge9" class="edge">
<title>Node6&#45;&gt;Node5</title>
<path fill="none" stroke="midnightblue" d="M225.99,-56.32C244.04,-47.62 272.05,-34.12 292.8,-24.11"/>
<polygon fill="midnightblue" stroke="midnightblue" points="294.56,-27.15 302.05,-19.65 291.52,-20.84 294.56,-27.15"/>
</g>
<!-- Node7 -->
<g id="node7" class="node">
<title>Node7</title>
<g id="a_node7"><a xlink:title=" ">
<polygon fill="white" stroke="#bfbfbf" points="172,-0.5 172,-19.5 226,-19.5 226,-0.5 172,-0.5"/>
<text text-anchor="middle" x="199" y="-7.5" font-family="Helvetica,sans-Serif" font-size="10.00">iostream</text>
</a>
</g>
</g>
<!-- Node6&#45;&gt;Node7 -->
<g id="edge6" class="edge">
<title>Node6&#45;&gt;Node7</title>
<path fill="none" stroke="midnightblue" d="M206.51,-56.08C205.32,-48.93 203.61,-38.64 202.12,-29.69"/>
<polygon fill="midnightblue" stroke="midnightblue" points="205.55,-29.04 200.46,-19.75 198.65,-30.19 205.55,-29.04"/>
</g>
<!-- Node9&#45;&gt;Node4 -->
<g id="edge12" class="edge">
<title>Node9&#45;&gt;Node4</title>
<path fill="none" stroke="midnightblue" d="M65.85,-56.32C78.22,-47.98 97.13,-35.21 111.74,-25.35"/>
<polygon fill="midnightblue" stroke="midnightblue" points="113.85,-28.15 120.18,-19.65 109.93,-22.35 113.85,-28.15"/>
</g>
</g>
</svg>
