<?xml version="1.0" encoding="UTF-8" standalone="no"?>
<!DOCTYPE svg PUBLIC "-//W3C//DTD SVG 1.1//EN"
 "http://www.w3.org/Graphics/SVG/1.1/DTD/svg11.dtd">
<!-- Generated by graphviz version 2.43.0 (0)
 -->
<!-- Title: versionToString Pages: 1 -->
<svg width="1093pt" height="155pt"
 viewBox="0.00 0.00 1093.00 154.67" xmlns="http://www.w3.org/2000/svg" xmlns:xlink="http://www.w3.org/1999/xlink">
<g id="graph0" class="graph" transform="scale(1 1) rotate(0) translate(4 150.67)">
<title>versionToString</title>
<polygon fill="white" stroke="transparent" points="-4,4 -4,-150.67 1089,-150.67 1089,4 -4,4"/>
<!-- Node1 -->
<g id="node1" class="node">
<title>Node1</title>
<g id="a_node1"><a xlink:title=" ">
<polygon fill="#bfbfbf" stroke="black" points="1001,-70.17 1001,-89.17 1085,-89.17 1085,-70.17 1001,-70.17"/>
<text text-anchor="middle" x="1043" y="-77.17" font-family="Helvetica,sans-Serif" font-size="10.00">versionToString</text>
</a>
</g>
</g>
<!-- Node2 -->
<g id="node2" class="node">
<title>Node2</title>
<g id="a_node2"><a xlink:href="classHttpResponse.html#a70c126b617eb978c76afaf29ea4f0cd4" target="_top" xlink:title=" ">
<polygon fill="white" stroke="black" points="843,-70.17 843,-89.17 965,-89.17 965,-70.17 843,-70.17"/>
<text text-anchor="middle" x="904" y="-77.17" font-family="Helvetica,sans-Serif" font-size="10.00">HttpResponse::serialize</text>
</a>
</g>
</g>
<!-- Node1&#45;&gt;Node2 -->
<g id="edge1" class="edge">
<title>Node1&#45;&gt;Node2</title>
<path fill="none" stroke="midnightblue" d="M990.86,-79.67C982.45,-79.67 973.67,-79.67 965.07,-79.67"/>
<polygon fill="midnightblue" stroke="midnightblue" points="990.9,-83.17 1000.9,-79.67 990.9,-76.17 990.9,-83.17"/>
</g>
<!-- Node3 -->
<g id="node3" class="node">
<title>Node3</title>
<g id="a_node3"><a xlink:href="classClient.html#a3b000abab7a3fe339f0f39ad5daca68f" target="_top" xlink:title=" ">
<polygon fill="white" stroke="black" points="667,-127.17 667,-146.17 792,-146.17 792,-127.17 667,-127.17"/>
<text text-anchor="middle" x="729.5" y="-134.17" font-family="Helvetica,sans-Serif" font-size="10.00">Client::checkCgiTimeout</text>
</a>
</g>
</g>
<!-- Node2&#45;&gt;Node3 -->
<g id="edge2" class="edge">
<title>Node2&#45;&gt;Node3</title>
<path fill="none" stroke="midnightblue" d="M871.75,-93.26C853.17,-101.04 828.99,-110.62 807,-117.67 796.18,-121.13 784.34,-124.35 773.27,-127.11"/>
<polygon fill="midnightblue" stroke="midnightblue" points="873.34,-96.39 881.19,-89.27 870.61,-89.94 873.34,-96.39"/>
</g>
<!-- Node4 -->
<g id="node4" class="node">
<title>Node4</title>
<g id="a_node4"><a xlink:href="classClient.html#a09d6029b60ae8c9773362968e72f2e54" target="_top" xlink:title=" ">
<polygon fill="white" stroke="black" points="317,-51.17 317,-70.17 455,-70.17 455,-51.17 317,-51.17"/>
<text text-anchor="middle" x="386" y="-58.17" font-family="Helvetica,sans-Serif" font-size="10.00">Client::finalizeCgiResponse</text>
</a>
</g>
</g>
<!-- Node2&#45;&gt;Node4 -->
<g id="edge3" class="edge">
<title>Node2&#45;&gt;Node4</title>
<path fill="none" stroke="midnightblue" d="M832.57,-77.07C733.33,-73.42 553.53,-66.8 455.4,-63.19"/>
<polygon fill="midnightblue" stroke="midnightblue" points="832.68,-80.58 842.8,-77.45 832.93,-73.58 832.68,-80.58"/>
</g>
<!-- Node5 -->
<g id="node5" class="node">
<title>Node5</title>
<g id="a_node5"><a xlink:href="classClient.html#a4104efd3f5f7e1c0f3e3302b46861624" target="_top" xlink:title=" ">
<polygon fill="white" stroke="black" points="674,-89.17 674,-108.17 785,-108.17 785,-89.17 674,-89.17"/>
<text text-anchor="middle" x="729.5" y="-96.17" font-family="Helvetica,sans-Serif" font-size="10.00">Client::handleCgiPipe</text>
</a>
</g>
</g>
<!-- Node2&#45;&gt;Node5 -->
<g id="edge4" class="edge">
<title>Node2&#45;&gt;Node5</title>
<path fill="none" stroke="midnightblue" d="M832.41,-87.44C816.6,-89.18 800.07,-91 785.03,-92.66"/>
<polygon fill="midnightblue" stroke="midnightblue" points="833.11,-90.89 842.67,-86.31 832.34,-83.93 833.11,-90.89"/>
</g>
<!-- Node8 -->
<g id="node8" class="node">
<title>Node8</title>
<g id="a_node8"><a xlink:href="classClient.html#abcf615f2514ae7e0266315693e73a31a" target="_top" xlink:title=" ">
<polygon fill="white" stroke="black" points="652,-13.17 652,-32.17 807,-32.17 807,-13.17 652,-13.17"/>
<text text-anchor="middle" x="729.5" y="-20.17" font-family="Helvetica,sans-Serif" font-size="10.00">Client::handleCompleteRequest</text>
</a>
</g>
</g>
<!-- Node2&#45;&gt;Node8 -->
<g id="edge7" class="edge">
<title>Node2&#45;&gt;Node8</title>
<path fill="none" stroke="midnightblue" d="M866.28,-66.78C848.43,-60.59 826.64,-53.12 807,-46.67 792.06,-41.76 775.4,-36.5 761.46,-32.17"/>
<polygon fill="midnightblue" stroke="midnightblue" points="865.16,-70.1 875.76,-70.08 867.46,-63.49 865.16,-70.1"/>
</g>
<!-- Node6 -->
<g id="node6" class="node">
<title>Node6</title>
<g id="a_node6"><a xlink:href="classServerManager.html#a9c75ea0bd268425c187ef25770eccbe8" target="_top" xlink:title=" ">
<polygon fill="white" stroke="black" points="143.5,-76.67 143.5,-106.67 275.5,-106.67 275.5,-76.67 143.5,-76.67"/>
<text text-anchor="start" x="151.5" y="-94.67" font-family="Helvetica,sans-Serif" font-size="10.00">ServerManager::handleCgi</text>
<text text-anchor="middle" x="209.5" y="-83.67" font-family="Helvetica,sans-Serif" font-size="10.00">PipeEvent</text>
</a>
</g>
</g>
<!-- Node5&#45;&gt;Node6 -->
<g id="edge5" class="edge">
<title>Node5&#45;&gt;Node6</title>
<path fill="none" stroke="midnightblue" d="M663.34,-97.79C563.89,-96.44 375.31,-93.89 275.78,-92.55"/>
<polygon fill="midnightblue" stroke="midnightblue" points="663.51,-101.29 673.56,-97.92 663.6,-94.29 663.51,-101.29"/>
</g>
<!-- Node7 -->
<g id="node7" class="node">
<title>Node7</title>
<g id="a_node7"><a xlink:href="classServerManager.html#aecc313c9b6afcab92c22269b3333c721" target="_top" xlink:title=" ">
<polygon fill="white" stroke="black" points="0,-50.17 0,-69.17 102,-69.17 102,-50.17 0,-50.17"/>
<text text-anchor="middle" x="51" y="-57.17" font-family="Helvetica,sans-Serif" font-size="10.00">ServerManager::run</text>
</a>
</g>
</g>
<!-- Node6&#45;&gt;Node7 -->
<g id="edge6" class="edge">
<title>Node6&#45;&gt;Node7</title>
<path fill="none" stroke="midnightblue" d="M133.61,-76.35C121.79,-73.94 109.86,-71.5 98.92,-69.26"/>
<polygon fill="midnightblue" stroke="midnightblue" points="132.99,-79.8 143.49,-78.37 134.39,-72.94 132.99,-79.8"/>
</g>
<!-- Node9 -->
<g id="node9" class="node">
<title>Node9</title>
<g id="a_node9"><a xlink:href="classClient.html#ac95fe5b24fe5275bd2271bd1ac37596d" target="_top" xlink:title=" ">
<polygon fill="white" stroke="black" points="336,-13.17 336,-32.17 436,-32.17 436,-13.17 336,-13.17"/>
<text text-anchor="middle" x="386" y="-20.17" font-family="Helvetica,sans-Serif" font-size="10.00">Client::handleRead</text>
</a>
</g>
</g>
<!-- Node8&#45;&gt;Node9 -->
<g id="edge8" class="edge">
<title>Node8&#45;&gt;Node9</title>
<path fill="none" stroke="midnightblue" d="M672.69,-11.35C654.68,-8.2 634.57,-5.22 616,-3.67 560.64,0.98 546.33,1.35 491,-3.67 470.53,-5.52 448.06,-9.39 429.27,-13.16"/>
<polygon fill="midnightblue" stroke="midnightblue" points="672.28,-14.83 682.74,-13.15 673.52,-7.94 672.28,-14.83"/>
</g>
<!-- Node11 -->
<g id="node11" class="node">
<title>Node11</title>
<g id="a_node11"><a xlink:href="classClient.html#a950fd2ab8ac20c9be4c5e722344d6fe2" target="_top" xlink:title=" ">
<polygon fill="white" stroke="black" points="491,-13.17 491,-32.17 616,-32.17 616,-13.17 491,-13.17"/>
<text text-anchor="middle" x="553.5" y="-20.17" font-family="Helvetica,sans-Serif" font-size="10.00">Client::processRequests</text>
</a>
</g>
</g>
<!-- Node8&#45;&gt;Node11 -->
<g id="edge11" class="edge">
<title>Node8&#45;&gt;Node11</title>
<path fill="none" stroke="midnightblue" d="M641.81,-22.67C633.17,-22.67 624.52,-22.67 616.22,-22.67"/>
<polygon fill="midnightblue" stroke="midnightblue" points="641.93,-26.17 651.93,-22.67 641.93,-19.17 641.93,-26.17"/>
</g>
<!-- Node10 -->
<g id="node10" class="node">
<title>Node10</title>
<g id="a_node10"><a xlink:href="classServerManager.html#a9f3ca46da9df004286f90902b8daf29d" target="_top" xlink:title=" ">
<polygon fill="white" stroke="black" points="138,-20.67 138,-50.67 281,-50.67 281,-20.67 138,-20.67"/>
<text text-anchor="start" x="146" y="-38.67" font-family="Helvetica,sans-Serif" font-size="10.00">ServerManager::handleClient</text>
<text text-anchor="middle" x="209.5" y="-27.67" font-family="Helvetica,sans-Serif" font-size="10.00">Event</text>
</a>
</g>
</g>
<!-- Node9&#45;&gt;Node10 -->
<g id="edge9" class="edge">
<title>Node9&#45;&gt;Node10</title>
<path fill="none" stroke="midnightblue" d="M325.69,-27.09C311.33,-28.16 295.84,-29.31 281.02,-30.41"/>
<polygon fill="midnightblue" stroke="midnightblue" points="326.22,-30.56 335.93,-26.32 325.7,-23.58 326.22,-30.56"/>
</g>
<!-- Node10&#45;&gt;Node7 -->
<g id="edge10" class="edge">
<title>Node10&#45;&gt;Node7</title>
<path fill="none" stroke="midnightblue" d="M127.45,-48.1C118.82,-49.42 110.23,-50.74 102.11,-51.98"/>
<polygon fill="midnightblue" stroke="midnightblue" points="128.22,-51.52 137.58,-46.54 127.16,-44.6 128.22,-51.52"/>
</g>
<!-- Node11&#45;&gt;Node4 -->
<g id="edge12" class="edge">
<title>Node11&#45;&gt;Node4</title>
<path fill="none" stroke="midnightblue" d="M500.69,-34.56C477.43,-39.9 450.35,-46.12 428.46,-51.15"/>
<polygon fill="midnightblue" stroke="midnightblue" points="501.77,-37.9 510.74,-32.26 500.21,-31.08 501.77,-37.9"/>
</g>
<!-- Node11&#45;&gt;Node9 -->
<g id="edge13" class="edge">
<title>Node11&#45;&gt;Node9</title>
<path fill="none" stroke="midnightblue" d="M480.56,-22.67C465.52,-22.67 449.99,-22.67 436.02,-22.67"/>
<polygon fill="midnightblue" stroke="midnightblue" points="480.87,-26.17 490.87,-22.67 480.87,-19.17 480.87,-26.17"/>
</g>
</g>
</svg>
