<?xml version="1.0" encoding="UTF-8" standalone="no"?>
<!DOCTYPE svg PUBLIC "-//W3C//DTD SVG 1.1//EN"
 "http://www.w3.org/Graphics/SVG/1.1/DTD/svg11.dtd">
<!-- Generated by graphviz version 2.43.0 (0)
 -->
<!-- Title: src/http/HttpParserBody.cpp Pages: 1 -->
<svg width="420pt" height="196pt"
 viewBox="0.00 0.00 419.50 196.00" xmlns="http://www.w3.org/2000/svg" xmlns:xlink="http://www.w3.org/1999/xlink">
<g id="graph0" class="graph" transform="scale(1 1) rotate(0) translate(4 192)">
<title>src/http/HttpParserBody.cpp</title>
<polygon fill="white" stroke="transparent" points="-4,4 -4,-192 415.5,-192 415.5,4 -4,4"/>
<!-- Node1 -->
<g id="node1" class="node">
<title>Node1</title>
<g id="a_node1"><a xlink:title=" ">
<polygon fill="#bfbfbf" stroke="black" points="78,-168.5 78,-187.5 218,-187.5 218,-168.5 78,-168.5"/>
<text text-anchor="middle" x="148" y="-175.5" font-family="Helvetica,sans-Serif" font-size="10.00">src/http/HttpParserBody.cpp</text>
</a>
</g>
</g>
<!-- Node2 -->
<g id="node2" class="node">
<title>Node2</title>
<g id="a_node2"><a xlink:title=" ">
<polygon fill="white" stroke="#bfbfbf" points="0,-112.5 0,-131.5 56,-131.5 56,-112.5 0,-112.5"/>
<text text-anchor="middle" x="28" y="-119.5" font-family="Helvetica,sans-Serif" font-size="10.00">algorithm</text>
</a>
</g>
</g>
<!-- Node1&#45;&gt;Node2 -->
<g id="edge1" class="edge">
<title>Node1&#45;&gt;Node2</title>
<path fill="none" stroke="midnightblue" d="M128.99,-168.44C109.41,-159.64 78.69,-145.81 56.27,-135.72"/>
<polygon fill="midnightblue" stroke="midnightblue" points="57.48,-132.43 46.93,-131.52 54.61,-138.81 57.48,-132.43"/>
</g>
<!-- Node3 -->
<g id="node3" class="node">
<title>Node3</title>
<g id="a_node3"><a xlink:title=" ">
<polygon fill="white" stroke="#bfbfbf" points="74.5,-112.5 74.5,-131.5 119.5,-131.5 119.5,-112.5 74.5,-112.5"/>
<text text-anchor="middle" x="97" y="-119.5" font-family="Helvetica,sans-Serif" font-size="10.00">cstdlib</text>
</a>
</g>
</g>
<!-- Node1&#45;&gt;Node3 -->
<g id="edge2" class="edge">
<title>Node1&#45;&gt;Node3</title>
<path fill="none" stroke="midnightblue" d="M139.58,-168.08C132.15,-160.22 121.15,-148.57 112.19,-139.08"/>
<polygon fill="midnightblue" stroke="midnightblue" points="114.68,-136.62 105.26,-131.75 109.59,-141.42 114.68,-136.62"/>
</g>
<!-- Node4 -->
<g id="node4" class="node">
<title>Node4</title>
<g id="a_node4"><a xlink:title=" ">
<polygon fill="white" stroke="#bfbfbf" points="121,-0.5 121,-19.5 175,-19.5 175,-0.5 121,-0.5"/>
<text text-anchor="middle" x="148" y="-7.5" font-family="Helvetica,sans-Serif" font-size="10.00">iostream</text>
</a>
</g>
</g>
<!-- Node1&#45;&gt;Node4 -->
<g id="edge3" class="edge">
<title>Node1&#45;&gt;Node4</title>
<path fill="none" stroke="midnightblue" d="M148,-168.08C148,-141.95 148,-65.21 148,-29.58"/>
<polygon fill="midnightblue" stroke="midnightblue" points="151.5,-29.57 148,-19.57 144.5,-29.57 151.5,-29.57"/>
</g>
<!-- Node5 -->
<g id="node5" class="node">
<title>Node5</title>
<g id="a_node5"><a xlink:title=" ">
<polygon fill="white" stroke="#bfbfbf" points="193,-0.5 193,-19.5 237,-19.5 237,-0.5 193,-0.5"/>
<text text-anchor="middle" x="215" y="-7.5" font-family="Helvetica,sans-Serif" font-size="10.00">vector</text>
</a>
</g>
</g>
<!-- Node1&#45;&gt;Node5 -->
<g id="edge4" class="edge">
<title>Node1&#45;&gt;Node5</title>
<path fill="none" stroke="midnightblue" d="M151.6,-168.08C162.19,-141.83 193.39,-64.55 207.69,-29.12"/>
<polygon fill="midnightblue" stroke="midnightblue" points="211.04,-30.15 211.54,-19.57 204.55,-27.53 211.04,-30.15"/>
</g>
<!-- Node6 -->
<g id="node6" class="node">
<title>Node6</title>
<g id="a_node6"><a xlink:href="HttpParser_8hpp.html" target="_top" xlink:title=" ">
<polygon fill="white" stroke="black" points="256,-112.5 256,-131.5 338,-131.5 338,-112.5 256,-112.5"/>
<text text-anchor="middle" x="297" y="-119.5" font-family="Helvetica,sans-Serif" font-size="10.00">HttpParser.hpp</text>
</a>
</g>
</g>
<!-- Node1&#45;&gt;Node6 -->
<g id="edge5" class="edge">
<title>Node1&#45;&gt;Node6</title>
<path fill="none" stroke="midnightblue" d="M171.61,-168.44C196.46,-159.44 235.77,-145.19 263.75,-135.05"/>
<polygon fill="midnightblue" stroke="midnightblue" points="265.29,-138.21 273.5,-131.52 262.91,-131.63 265.29,-138.21"/>
</g>
<!-- Node7 -->
<g id="node7" class="node">
<title>Node7</title>
<g id="a_node7"><a xlink:title=" ">
<polygon fill="white" stroke="#bfbfbf" points="362.5,-56.5 362.5,-75.5 411.5,-75.5 411.5,-56.5 362.5,-56.5"/>
<text text-anchor="middle" x="387" y="-63.5" font-family="Helvetica,sans-Serif" font-size="10.00">cstddef</text>
</a>
</g>
</g>
<!-- Node6&#45;&gt;Node7 -->
<g id="edge6" class="edge">
<title>Node6&#45;&gt;Node7</title>
<path fill="none" stroke="midnightblue" d="M311.46,-112.32C325.5,-103.9 347.05,-90.97 363.54,-81.07"/>
<polygon fill="midnightblue" stroke="midnightblue" points="365.8,-83.8 372.58,-75.65 362.2,-77.8 365.8,-83.8"/>
</g>
<!-- Node8 -->
<g id="node8" class="node">
<title>Node8</title>
<g id="a_node8"><a xlink:title=" ">
<polygon fill="white" stroke="#bfbfbf" points="310.5,-0.5 310.5,-19.5 351.5,-19.5 351.5,-0.5 310.5,-0.5"/>
<text text-anchor="middle" x="331" y="-7.5" font-family="Helvetica,sans-Serif" font-size="10.00">string</text>
</a>
</g>
</g>
<!-- Node6&#45;&gt;Node8 -->
<g id="edge7" class="edge">
<title>Node6&#45;&gt;Node8</title>
<path fill="none" stroke="midnightblue" d="M300.96,-112.17C304.88,-103.19 310.88,-88.82 315,-76 319.95,-60.6 324.25,-42.72 327.14,-29.62"/>
<polygon fill="midnightblue" stroke="midnightblue" points="330.63,-30.03 329.3,-19.52 323.79,-28.57 330.63,-30.03"/>
</g>
<!-- Node9 -->
<g id="node9" class="node">
<title>Node9</title>
<g id="a_node9"><a xlink:href="HttpRequest_8hpp.html" target="_top" xlink:title=" ">
<polygon fill="white" stroke="black" points="214.5,-56.5 214.5,-75.5 305.5,-75.5 305.5,-56.5 214.5,-56.5"/>
<text text-anchor="middle" x="260" y="-63.5" font-family="Helvetica,sans-Serif" font-size="10.00">HttpRequest.hpp</text>
</a>
</g>
</g>
<!-- Node6&#45;&gt;Node9 -->
<g id="edge8" class="edge">
<title>Node6&#45;&gt;Node9</title>
<path fill="none" stroke="midnightblue" d="M290.89,-112.08C285.72,-104.53 278.15,-93.49 271.81,-84.23"/>
<polygon fill="midnightblue" stroke="midnightblue" points="274.54,-82.02 266,-75.75 268.76,-85.98 274.54,-82.02"/>
</g>
<!-- Node9&#45;&gt;Node4 -->
<g id="edge9" class="edge">
<title>Node9&#45;&gt;Node4</title>
<path fill="none" stroke="midnightblue" d="M242.01,-56.32C223.96,-47.62 195.95,-34.12 175.2,-24.11"/>
<polygon fill="midnightblue" stroke="midnightblue" points="176.48,-20.84 165.95,-19.65 173.44,-27.15 176.48,-20.84"/>
</g>
<!-- Node9&#45;&gt;Node5 -->
<g id="edge12" class="edge">
<title>Node9&#45;&gt;Node5</title>
<path fill="none" stroke="midnightblue" d="M252.57,-56.08C246.15,-48.38 236.69,-37.03 228.88,-27.65"/>
<polygon fill="midnightblue" stroke="midnightblue" points="231.38,-25.19 222.29,-19.75 226.01,-29.67 231.38,-25.19"/>
</g>
<!-- Node9&#45;&gt;Node8 -->
<g id="edge11" class="edge">
<title>Node9&#45;&gt;Node8</title>
<path fill="none" stroke="midnightblue" d="M271.41,-56.32C282.11,-48.18 298.34,-35.84 311.16,-26.09"/>
<polygon fill="midnightblue" stroke="midnightblue" points="313.54,-28.67 319.39,-19.83 309.31,-23.1 313.54,-28.67"/>
</g>
<!-- Node10 -->
<g id="node10" class="node">
<title>Node10</title>
<g id="a_node10"><a xlink:title=" ">
<polygon fill="white" stroke="#bfbfbf" points="255.5,-0.5 255.5,-19.5 290.5,-19.5 290.5,-0.5 255.5,-0.5"/>
<text text-anchor="middle" x="273" y="-7.5" font-family="Helvetica,sans-Serif" font-size="10.00">map</text>
</a>
</g>
</g>
<!-- Node9&#45;&gt;Node10 -->
<g id="edge10" class="edge">
<title>Node9&#45;&gt;Node10</title>
<path fill="none" stroke="midnightblue" d="M262.15,-56.08C263.87,-48.93 266.35,-38.64 268.5,-29.69"/>
<polygon fill="midnightblue" stroke="midnightblue" points="271.96,-30.29 270.89,-19.75 265.15,-28.65 271.96,-30.29"/>
</g>
</g>
</svg>
