<?xml version="1.0" encoding="UTF-8" standalone="no"?>
<!DOCTYPE svg PUBLIC "-//W3C//DTD SVG 1.1//EN"
 "http://www.w3.org/Graphics/SVG/1.1/DTD/svg11.dtd">
<!-- Generated by graphviz version 2.43.0 (0)
 -->
<!-- Title: src/http/HttpRequest.hpp Pages: 1 -->
<svg width="2086pt" height="330pt"
 viewBox="0.00 0.00 2085.50 330.00" xmlns="http://www.w3.org/2000/svg" xmlns:xlink="http://www.w3.org/1999/xlink">
<g id="graph0" class="graph" transform="scale(1 1) rotate(0) translate(4 326)">
<title>src/http/HttpRequest.hpp</title>
<polygon fill="white" stroke="transparent" points="-4,4 -4,-326 2081.5,-326 2081.5,4 -4,4"/>
<!-- Node1 -->
<g id="node1" class="node">
<title>Node1</title>
<g id="a_node1"><a xlink:title=" ">
<polygon fill="#bfbfbf" stroke="black" points="1200,-302.5 1200,-321.5 1327,-321.5 1327,-302.5 1200,-302.5"/>
<text text-anchor="middle" x="1263.5" y="-309.5" font-family="Helvetica,sans-Serif" font-size="10.00">src/http/HttpRequest.hpp</text>
</a>
</g>
</g>
<!-- Node2 -->
<g id="node2" class="node">
<title>Node2</title>
<g id="a_node2"><a xlink:href="CgiExecutor_8hpp.html" target="_top" xlink:title=" ">
<polygon fill="white" stroke="black" points="0,-185 0,-204 121,-204 121,-185 0,-185"/>
<text text-anchor="middle" x="60.5" y="-192" font-family="Helvetica,sans-Serif" font-size="10.00">src/cgi/CgiExecutor.hpp</text>
</a>
</g>
</g>
<!-- Node1&#45;&gt;Node2 -->
<g id="edge1" class="edge">
<title>Node1&#45;&gt;Node2</title>
<path fill="none" stroke="midnightblue" d="M1189.72,-308.52C1056.16,-303.59 765.51,-290.83 521.5,-266 346.85,-248.23 303.42,-240.26 130.5,-210 120.48,-208.25 109.69,-206.13 99.66,-204.06"/>
<polygon fill="midnightblue" stroke="midnightblue" points="1189.71,-312.03 1199.84,-308.89 1189.97,-305.03 1189.71,-312.03"/>
</g>
<!-- Node5 -->
<g id="node5" class="node">
<title>Node5</title>
<g id="a_node5"><a xlink:href="Client_8hpp.html" target="_top" xlink:title=" ">
<polygon fill="white" stroke="black" points="758.5,-118 758.5,-137 862.5,-137 862.5,-118 758.5,-118"/>
<text text-anchor="middle" x="810.5" y="-125" font-family="Helvetica,sans-Serif" font-size="10.00">src/client/Client.hpp</text>
</a>
</g>
</g>
<!-- Node1&#45;&gt;Node5 -->
<g id="edge4" class="edge">
<title>Node1&#45;&gt;Node5</title>
<path fill="none" stroke="midnightblue" d="M1189.47,-303.93C1077.43,-291.66 872.61,-262.54 823.5,-210 804.62,-189.8 806.82,-153.73 809.04,-137.21"/>
<polygon fill="midnightblue" stroke="midnightblue" points="1189.37,-307.44 1199.69,-305.03 1190.12,-300.48 1189.37,-307.44"/>
</g>
<!-- Node10 -->
<g id="node10" class="node">
<title>Node10</title>
<g id="a_node10"><a xlink:href="ErrorUtils_8hpp.html" target="_top" xlink:title=" ">
<polygon fill="white" stroke="black" points="1760,-185 1760,-204 1879,-204 1879,-185 1760,-185"/>
<text text-anchor="middle" x="1819.5" y="-192" font-family="Helvetica,sans-Serif" font-size="10.00">src/client/ErrorUtils.hpp</text>
</a>
</g>
</g>
<!-- Node1&#45;&gt;Node10 -->
<g id="edge13" class="edge">
<title>Node1&#45;&gt;Node10</title>
<path fill="none" stroke="midnightblue" d="M1328.54,-300.74C1369.61,-293.3 1423.42,-281.77 1469.5,-266 1489.06,-259.31 1491.73,-252.04 1511.5,-246 1614.65,-214.47 1645.37,-229.26 1751.5,-210 1761.24,-208.23 1771.72,-206.11 1781.46,-204.04"/>
<polygon fill="midnightblue" stroke="midnightblue" points="1327.88,-297.3 1318.65,-302.5 1329.11,-304.19 1327.88,-297.3"/>
</g>
<!-- Node14 -->
<g id="node14" class="node">
<title>Node14</title>
<g id="a_node14"><a xlink:href="RequestProcessor_8hpp.html" target="_top" xlink:title=" ">
<polygon fill="white" stroke="black" points="860.5,-185 860.5,-204 1018.5,-204 1018.5,-185 860.5,-185"/>
<text text-anchor="middle" x="939.5" y="-192" font-family="Helvetica,sans-Serif" font-size="10.00">src/client/RequestProcessor.hpp</text>
</a>
</g>
</g>
<!-- Node1&#45;&gt;Node14 -->
<g id="edge19" class="edge">
<title>Node1&#45;&gt;Node14</title>
<path fill="none" stroke="midnightblue" d="M1229.96,-299.05C1164.47,-275.7 1020.96,-224.54 963.75,-204.14"/>
<polygon fill="midnightblue" stroke="midnightblue" points="1228.82,-302.35 1239.41,-302.41 1231.17,-295.76 1228.82,-302.35"/>
</g>
<!-- Node15 -->
<g id="node15" class="node">
<title>Node15</title>
<g id="a_node15"><a xlink:href="RequestProcessorUtils_8hpp.html" target="_top" xlink:title=" ">
<polygon fill="white" stroke="black" points="1074.5,-179.5 1074.5,-209.5 1214.5,-209.5 1214.5,-179.5 1074.5,-179.5"/>
<text text-anchor="start" x="1082.5" y="-197.5" font-family="Helvetica,sans-Serif" font-size="10.00">src/client/RequestProcessor</text>
<text text-anchor="middle" x="1144.5" y="-186.5" font-family="Helvetica,sans-Serif" font-size="10.00">Utils.hpp</text>
</a>
</g>
</g>
<!-- Node1&#45;&gt;Node15 -->
<g id="edge22" class="edge">
<title>Node1&#45;&gt;Node15</title>
<path fill="none" stroke="midnightblue" d="M1247.16,-295.14C1223.81,-272.47 1181.25,-231.17 1158.97,-209.55"/>
<polygon fill="midnightblue" stroke="midnightblue" points="1244.94,-297.87 1254.56,-302.32 1249.82,-292.84 1244.94,-297.87"/>
</g>
<!-- Node17 -->
<g id="node17" class="node">
<title>Node17</title>
<g id="a_node17"><a xlink:href="ResponseUtils_8hpp.html" target="_top" xlink:title=" ">
<polygon fill="white" stroke="black" points="1599,-185 1599,-204 1742,-204 1742,-185 1599,-185"/>
<text text-anchor="middle" x="1670.5" y="-192" font-family="Helvetica,sans-Serif" font-size="10.00">src/client/ResponseUtils.hpp</text>
</a>
</g>
</g>
<!-- Node1&#45;&gt;Node17 -->
<g id="edge29" class="edge">
<title>Node1&#45;&gt;Node17</title>
<path fill="none" stroke="midnightblue" d="M1314.03,-300.2C1348.46,-292.24 1394.82,-280.32 1434.5,-266 1454.33,-258.85 1457.67,-253.14 1477.5,-246 1528.66,-227.58 1589.66,-212.76 1629.19,-204.05"/>
<polygon fill="midnightblue" stroke="midnightblue" points="1313.17,-296.8 1304.2,-302.44 1314.73,-303.63 1313.17,-296.8"/>
</g>
<!-- Node19 -->
<g id="node19" class="node">
<title>Node19</title>
<g id="a_node19"><a xlink:href="SessionUtils_8hpp.html" target="_top" xlink:title=" ">
<polygon fill="white" stroke="black" points="1897.5,-185 1897.5,-204 2031.5,-204 2031.5,-185 1897.5,-185"/>
<text text-anchor="middle" x="1964.5" y="-192" font-family="Helvetica,sans-Serif" font-size="10.00">src/client/SessionUtils.hpp</text>
</a>
</g>
</g>
<!-- Node1&#45;&gt;Node19 -->
<g id="edge34" class="edge">
<title>Node1&#45;&gt;Node19</title>
<path fill="none" stroke="midnightblue" d="M1337.48,-305C1416.73,-297.99 1546.05,-284.9 1656.5,-266 1758.15,-248.6 1876.61,-218.74 1932.37,-204.1"/>
<polygon fill="midnightblue" stroke="midnightblue" points="1336.77,-301.55 1327.11,-305.9 1337.38,-308.52 1336.77,-301.55"/>
</g>
<!-- Node21 -->
<g id="node21" class="node">
<title>Node21</title>
<g id="a_node21"><a xlink:href="StaticPathHandler_8hpp.html" target="_top" xlink:title=" ">
<polygon fill="white" stroke="black" points="1233,-185 1233,-204 1390,-204 1390,-185 1233,-185"/>
<text text-anchor="middle" x="1311.5" y="-192" font-family="Helvetica,sans-Serif" font-size="10.00">src/client/StaticPathHandler.hpp</text>
</a>
</g>
</g>
<!-- Node1&#45;&gt;Node21 -->
<g id="edge37" class="edge">
<title>Node1&#45;&gt;Node21</title>
<path fill="none" stroke="midnightblue" d="M1267.65,-292.56C1270.92,-279.32 1276.02,-261.21 1282.5,-246 1289.08,-230.56 1299.32,-213.91 1305.71,-204.11"/>
<polygon fill="midnightblue" stroke="midnightblue" points="1264.23,-291.83 1265.34,-302.36 1271.04,-293.43 1264.23,-291.83"/>
</g>
<!-- Node22 -->
<g id="node22" class="node">
<title>Node22</title>
<g id="a_node22"><a xlink:href="HttpParser_8hpp.html" target="_top" xlink:title=" ">
<polygon fill="white" stroke="black" points="530.5,-246.5 530.5,-265.5 648.5,-265.5 648.5,-246.5 530.5,-246.5"/>
<text text-anchor="middle" x="589.5" y="-253.5" font-family="Helvetica,sans-Serif" font-size="10.00">src/http/HttpParser.hpp</text>
</a>
</g>
</g>
<!-- Node1&#45;&gt;Node22 -->
<g id="edge40" class="edge">
<title>Node1&#45;&gt;Node22</title>
<path fill="none" stroke="midnightblue" d="M1189.56,-305.08C1054.83,-294.28 771.88,-271.61 648.8,-261.75"/>
<polygon fill="midnightblue" stroke="midnightblue" points="1189.54,-308.59 1199.79,-305.9 1190.1,-301.61 1189.54,-308.59"/>
</g>
<!-- Node27 -->
<g id="node27" class="node">
<title>Node27</title>
<g id="a_node27"><a xlink:href="HttpRequest_8cpp.html" target="_top" xlink:title=" ">
<polygon fill="white" stroke="black" points="1520,-246.5 1520,-265.5 1647,-265.5 1647,-246.5 1520,-246.5"/>
<text text-anchor="middle" x="1583.5" y="-253.5" font-family="Helvetica,sans-Serif" font-size="10.00">src/http/HttpRequest.cpp</text>
</a>
</g>
</g>
<!-- Node1&#45;&gt;Node27 -->
<g id="edge46" class="edge">
<title>Node1&#45;&gt;Node27</title>
<path fill="none" stroke="midnightblue" d="M1324.37,-300.73C1384.84,-290.52 1476.49,-275.06 1533.03,-265.52"/>
<polygon fill="midnightblue" stroke="midnightblue" points="1323.48,-297.33 1314.2,-302.44 1324.65,-304.23 1323.48,-297.33"/>
</g>
<!-- Node28 -->
<g id="node28" class="node">
<title>Node28</title>
<g id="a_node28"><a xlink:href="HttpResponse_8hpp.html" target="_top" xlink:title=" ">
<polygon fill="white" stroke="black" points="1291.5,-246.5 1291.5,-265.5 1425.5,-265.5 1425.5,-246.5 1291.5,-246.5"/>
<text text-anchor="middle" x="1358.5" y="-253.5" font-family="Helvetica,sans-Serif" font-size="10.00">src/http/HttpResponse.hpp</text>
</a>
</g>
</g>
<!-- Node1&#45;&gt;Node28 -->
<g id="edge47" class="edge">
<title>Node1&#45;&gt;Node28</title>
<path fill="none" stroke="midnightblue" d="M1287.82,-297.18C1305.3,-287.24 1328.33,-274.15 1343.27,-265.65"/>
<polygon fill="midnightblue" stroke="midnightblue" points="1285.73,-294.34 1278.76,-302.32 1289.19,-300.43 1285.73,-294.34"/>
</g>
<!-- Node3 -->
<g id="node3" class="node">
<title>Node3</title>
<g id="a_node3"><a xlink:href="CgiExecutor_8cpp.html" target="_top" xlink:title=" ">
<polygon fill="white" stroke="black" points="881,-118 881,-137 1002,-137 1002,-118 881,-118"/>
<text text-anchor="middle" x="941.5" y="-125" font-family="Helvetica,sans-Serif" font-size="10.00">src/cgi/CgiExecutor.cpp</text>
</a>
</g>
</g>
<!-- Node2&#45;&gt;Node3 -->
<g id="edge2" class="edge">
<title>Node2&#45;&gt;Node3</title>
<path fill="none" stroke="midnightblue" d="M106.27,-182.95C114.31,-181.41 122.62,-180 130.5,-179 457.59,-137.43 544.41,-184.57 871.5,-143 882.7,-141.58 894.79,-139.33 905.71,-137.03"/>
<polygon fill="midnightblue" stroke="midnightblue" points="105.4,-179.56 96.29,-184.97 106.79,-186.42 105.4,-179.56"/>
</g>
<!-- Node4 -->
<g id="node4" class="node">
<title>Node4</title>
<g id="a_node4"><a xlink:href="ClientCgi_8cpp.html" target="_top" xlink:title=" ">
<polygon fill="white" stroke="black" points="751,-0.5 751,-19.5 870,-19.5 870,-0.5 751,-0.5"/>
<text text-anchor="middle" x="810.5" y="-7.5" font-family="Helvetica,sans-Serif" font-size="10.00">src/client/ClientCgi.cpp</text>
</a>
</g>
</g>
<!-- Node2&#45;&gt;Node4 -->
<g id="edge3" class="edge">
<title>Node2&#45;&gt;Node4</title>
<path fill="none" stroke="midnightblue" d="M105.43,-182.57C242.36,-149.25 652.62,-49.42 775.41,-19.54"/>
<polygon fill="midnightblue" stroke="midnightblue" points="104.56,-179.18 95.67,-184.94 106.21,-185.98 104.56,-179.18"/>
</g>
<!-- Node5&#45;&gt;Node4 -->
<g id="edge6" class="edge">
<title>Node5&#45;&gt;Node4</title>
<path fill="none" stroke="midnightblue" d="M810.5,-107.66C810.5,-82.37 810.5,-38.44 810.5,-19.78"/>
<polygon fill="midnightblue" stroke="midnightblue" points="807,-107.82 810.5,-117.82 814,-107.82 807,-107.82"/>
</g>
<!-- Node6 -->
<g id="node6" class="node">
<title>Node6</title>
<g id="a_node6"><a xlink:href="Client_8cpp.html" target="_top" xlink:title=" ">
<polygon fill="white" stroke="black" points="1152.5,-0.5 1152.5,-19.5 1256.5,-19.5 1256.5,-0.5 1152.5,-0.5"/>
<text text-anchor="middle" x="1204.5" y="-7.5" font-family="Helvetica,sans-Serif" font-size="10.00">src/client/Client.cpp</text>
</a>
</g>
</g>
<!-- Node5&#45;&gt;Node6 -->
<g id="edge5" class="edge">
<title>Node5&#45;&gt;Node6</title>
<path fill="none" stroke="midnightblue" d="M854.87,-115.65C860.46,-114.37 866.11,-113.12 871.5,-112 960.35,-93.5 986.28,-104.32 1072.5,-76 1117.64,-61.17 1166.87,-33.58 1190.41,-19.6"/>
<polygon fill="midnightblue" stroke="midnightblue" points="853.89,-112.28 844.94,-117.96 855.48,-119.1 853.89,-112.28"/>
</g>
<!-- Node7 -->
<g id="node7" class="node">
<title>Node7</title>
<g id="a_node7"><a xlink:href="ServerManager_8cpp.html" target="_top" xlink:title=" ">
<polygon fill="white" stroke="black" points="979,-0.5 979,-19.5 1134,-19.5 1134,-0.5 979,-0.5"/>
<text text-anchor="middle" x="1056.5" y="-7.5" font-family="Helvetica,sans-Serif" font-size="10.00">src/network/ServerManager.cpp</text>
</a>
</g>
</g>
<!-- Node5&#45;&gt;Node7 -->
<g id="edge7" class="edge">
<title>Node5&#45;&gt;Node7</title>
<path fill="none" stroke="midnightblue" d="M855.1,-115.69C860.61,-114.41 866.18,-113.15 871.5,-112 952.5,-94.41 1000.87,-139.2 1054.5,-76 1067.94,-60.16 1063.09,-33.51 1059.3,-19.77"/>
<polygon fill="midnightblue" stroke="midnightblue" points="854.22,-112.3 845.29,-117.98 855.82,-119.11 854.22,-112.3"/>
</g>
<!-- Node8 -->
<g id="node8" class="node">
<title>Node8</title>
<g id="a_node8"><a xlink:href="ServerManager_8hpp.html" target="_top" xlink:title=" ">
<polygon fill="white" stroke="black" points="890,-56.5 890,-75.5 1045,-75.5 1045,-56.5 890,-56.5"/>
<text text-anchor="middle" x="967.5" y="-63.5" font-family="Helvetica,sans-Serif" font-size="10.00">src/network/ServerManager.hpp</text>
</a>
</g>
</g>
<!-- Node5&#45;&gt;Node8 -->
<g id="edge8" class="edge">
<title>Node5&#45;&gt;Node8</title>
<path fill="none" stroke="midnightblue" d="M842.74,-114.28C873.25,-102.72 918.25,-85.66 945.05,-75.51"/>
<polygon fill="midnightblue" stroke="midnightblue" points="841.1,-111.16 832.99,-117.98 843.59,-117.7 841.1,-111.16"/>
</g>
<!-- Node8&#45;&gt;Node4 -->
<g id="edge10" class="edge">
<title>Node8&#45;&gt;Node4</title>
<path fill="none" stroke="midnightblue" d="M933.11,-53.17C903.55,-43 861.63,-28.59 835.26,-19.52"/>
<polygon fill="midnightblue" stroke="midnightblue" points="932.03,-56.5 942.62,-56.44 934.3,-49.88 932.03,-56.5"/>
</g>
<!-- Node8&#45;&gt;Node6 -->
<g id="edge9" class="edge">
<title>Node8&#45;&gt;Node6</title>
<path fill="none" stroke="midnightblue" d="M1014.82,-54.22C1059.61,-44.01 1125.94,-28.9 1167.12,-19.52"/>
<polygon fill="midnightblue" stroke="midnightblue" points="1014.03,-50.81 1005.05,-56.44 1015.58,-57.63 1014.03,-50.81"/>
</g>
<!-- Node8&#45;&gt;Node7 -->
<g id="edge12" class="edge">
<title>Node8&#45;&gt;Node7</title>
<path fill="none" stroke="midnightblue" d="M990.74,-50.9C1007.06,-41 1028.37,-28.07 1042.24,-19.65"/>
<polygon fill="midnightblue" stroke="midnightblue" points="988.53,-48.14 981.8,-56.32 992.16,-54.13 988.53,-48.14"/>
</g>
<!-- Node9 -->
<g id="node9" class="node">
<title>Node9</title>
<g id="a_node9"><a xlink:href="main_8cpp.html" target="_top" xlink:title=" ">
<polygon fill="white" stroke="black" points="888,-0.5 888,-19.5 961,-19.5 961,-0.5 888,-0.5"/>
<text text-anchor="middle" x="924.5" y="-7.5" font-family="Helvetica,sans-Serif" font-size="10.00">src/main.cpp</text>
</a>
</g>
</g>
<!-- Node8&#45;&gt;Node9 -->
<g id="edge11" class="edge">
<title>Node8&#45;&gt;Node9</title>
<path fill="none" stroke="midnightblue" d="M954.08,-48.14C946.59,-38.74 937.56,-27.4 931.47,-19.75"/>
<polygon fill="midnightblue" stroke="midnightblue" points="951.43,-50.44 960.4,-56.08 956.91,-46.08 951.43,-50.44"/>
</g>
<!-- Node10&#45;&gt;Node4 -->
<g id="edge15" class="edge">
<title>Node10&#45;&gt;Node4</title>
<path fill="none" stroke="midnightblue" d="M1795.16,-179.99C1778.1,-170.25 1754.96,-156.5 1735.5,-143 1717.31,-130.38 1717.24,-119.76 1696.5,-112 1526.49,-48.42 1047.95,-146.05 880.5,-76 851.74,-63.97 827.47,-34.55 816.6,-19.78"/>
<polygon fill="midnightblue" stroke="midnightblue" points="1793.52,-183.08 1803.95,-184.96 1796.97,-176.99 1793.52,-183.08"/>
</g>
<!-- Node10&#45;&gt;Node6 -->
<g id="edge14" class="edge">
<title>Node10&#45;&gt;Node6</title>
<path fill="none" stroke="midnightblue" d="M1847.73,-180.21C1877.69,-164.35 1917.98,-136.85 1896.5,-112 1813.37,-15.85 1403.33,-9.42 1256.73,-10.26"/>
<polygon fill="midnightblue" stroke="midnightblue" points="1845.78,-177.27 1838.45,-184.93 1848.95,-183.51 1845.78,-177.27"/>
</g>
<!-- Node11 -->
<g id="node11" class="node">
<title>Node11</title>
<g id="a_node11"><a xlink:href="ErrorUtils_8cpp.html" target="_top" xlink:title=" ">
<polygon fill="white" stroke="black" points="1568,-118 1568,-137 1687,-137 1687,-118 1568,-118"/>
<text text-anchor="middle" x="1627.5" y="-125" font-family="Helvetica,sans-Serif" font-size="10.00">src/client/ErrorUtils.cpp</text>
</a>
</g>
</g>
<!-- Node10&#45;&gt;Node11 -->
<g id="edge16" class="edge">
<title>Node10&#45;&gt;Node11</title>
<path fill="none" stroke="midnightblue" d="M1784.35,-181.6C1746.29,-168.71 1686.5,-148.47 1652.8,-137.06"/>
<polygon fill="midnightblue" stroke="midnightblue" points="1783.41,-184.98 1794,-184.87 1785.65,-178.35 1783.41,-184.98"/>
</g>
<!-- Node12 -->
<g id="node12" class="node">
<title>Node12</title>
<g id="a_node12"><a xlink:href="RequestProcessor_8cpp.html" target="_top" xlink:title=" ">
<polygon fill="white" stroke="black" points="1216.5,-118 1216.5,-137 1374.5,-137 1374.5,-118 1216.5,-118"/>
<text text-anchor="middle" x="1295.5" y="-125" font-family="Helvetica,sans-Serif" font-size="10.00">src/client/RequestProcessor.cpp</text>
</a>
</g>
</g>
<!-- Node10&#45;&gt;Node12 -->
<g id="edge17" class="edge">
<title>Node10&#45;&gt;Node12</title>
<path fill="none" stroke="midnightblue" d="M1773.47,-182.96C1766.15,-181.49 1758.63,-180.11 1751.5,-179 1589.54,-153.87 1547.02,-164.19 1384.5,-143 1371.46,-141.3 1357.4,-139.15 1344.38,-137.04"/>
<polygon fill="midnightblue" stroke="midnightblue" points="1772.79,-186.39 1783.29,-184.99 1774.21,-179.53 1772.79,-186.39"/>
</g>
<!-- Node13 -->
<g id="node13" class="node">
<title>Node13</title>
<g id="a_node13"><a xlink:href="StaticPathHandler_8cpp.html" target="_top" xlink:title=" ">
<polygon fill="white" stroke="black" points="1393,-118 1393,-137 1550,-137 1550,-118 1393,-118"/>
<text text-anchor="middle" x="1471.5" y="-125" font-family="Helvetica,sans-Serif" font-size="10.00">src/client/StaticPathHandler.cpp</text>
</a>
</g>
</g>
<!-- Node10&#45;&gt;Node13 -->
<g id="edge18" class="edge">
<title>Node10&#45;&gt;Node13</title>
<path fill="none" stroke="midnightblue" d="M1770.45,-182.85C1764.08,-181.52 1757.64,-180.21 1751.5,-179 1671.17,-163.19 1577.48,-146.69 1521.41,-137.01"/>
<polygon fill="midnightblue" stroke="midnightblue" points="1769.84,-186.3 1780.35,-184.93 1771.28,-179.45 1769.84,-186.3"/>
</g>
<!-- Node14&#45;&gt;Node5 -->
<g id="edge20" class="edge">
<title>Node14&#45;&gt;Node5</title>
<path fill="none" stroke="midnightblue" d="M913.25,-180.27C887.7,-167.4 849.61,-148.21 827.7,-137.17"/>
<polygon fill="midnightblue" stroke="midnightblue" points="911.86,-183.49 922.37,-184.87 915.01,-177.24 911.86,-183.49"/>
</g>
<!-- Node14&#45;&gt;Node12 -->
<g id="edge21" class="edge">
<title>Node14&#45;&gt;Node12</title>
<path fill="none" stroke="midnightblue" d="M996.37,-183.12C1066.34,-170.34 1183.81,-148.89 1248.77,-137.03"/>
<polygon fill="midnightblue" stroke="midnightblue" points="995.62,-179.7 986.41,-184.94 996.87,-186.58 995.62,-179.7"/>
</g>
<!-- Node15&#45;&gt;Node3 -->
<g id="edge23" class="edge">
<title>Node15&#45;&gt;Node3</title>
<path fill="none" stroke="midnightblue" d="M1090.69,-176.27C1051.13,-163.6 999.07,-146.93 968.07,-137.01"/>
<polygon fill="midnightblue" stroke="midnightblue" points="1089.86,-179.68 1100.45,-179.4 1092,-173.01 1089.86,-179.68"/>
</g>
<!-- Node15&#45;&gt;Node6 -->
<g id="edge24" class="edge">
<title>Node15&#45;&gt;Node6</title>
<path fill="none" stroke="midnightblue" d="M1157.17,-170.37C1161.47,-161.92 1166.05,-152.18 1169.5,-143 1186.51,-97.73 1198.64,-40.79 1202.86,-19.52"/>
<polygon fill="midnightblue" stroke="midnightblue" points="1154.05,-168.78 1152.51,-179.26 1160.25,-172.02 1154.05,-168.78"/>
</g>
<!-- Node15&#45;&gt;Node11 -->
<g id="edge25" class="edge">
<title>Node15&#45;&gt;Node11</title>
<path fill="none" stroke="midnightblue" d="M1224.72,-179.05C1374.44,-158.01 1414.81,-166.14 1559.5,-143 1569.75,-141.36 1580.79,-139.19 1590.93,-137.02"/>
<polygon fill="midnightblue" stroke="midnightblue" points="1224.1,-175.6 1214.69,-180.48 1225.09,-182.53 1224.1,-175.6"/>
</g>
<!-- Node15&#45;&gt;Node12 -->
<g id="edge26" class="edge">
<title>Node15&#45;&gt;Node12</title>
<path fill="none" stroke="midnightblue" d="M1186.79,-175.3C1215.91,-162.76 1253.26,-146.68 1275.74,-137.01"/>
<polygon fill="midnightblue" stroke="midnightblue" points="1185.07,-172.23 1177.26,-179.4 1187.83,-178.66 1185.07,-172.23"/>
</g>
<!-- Node15&#45;&gt;Node13 -->
<g id="edge28" class="edge">
<title>Node15&#45;&gt;Node13</title>
<path fill="none" stroke="midnightblue" d="M1224.76,-177.55C1289.07,-164.76 1376.82,-147.32 1428.49,-137.05"/>
<polygon fill="midnightblue" stroke="midnightblue" points="1223.78,-174.17 1214.65,-179.56 1225.14,-181.04 1223.78,-174.17"/>
</g>
<!-- Node16 -->
<g id="node16" class="node">
<title>Node16</title>
<g id="a_node16"><a xlink:href="RequestProcessorUtils_8cpp.html" target="_top" xlink:title=" ">
<polygon fill="white" stroke="black" points="1020.5,-112.5 1020.5,-142.5 1160.5,-142.5 1160.5,-112.5 1020.5,-112.5"/>
<text text-anchor="start" x="1028.5" y="-130.5" font-family="Helvetica,sans-Serif" font-size="10.00">src/client/RequestProcessor</text>
<text text-anchor="middle" x="1090.5" y="-119.5" font-family="Helvetica,sans-Serif" font-size="10.00">Utils.cpp</text>
</a>
</g>
</g>
<!-- Node15&#45;&gt;Node16 -->
<g id="edge27" class="edge">
<title>Node15&#45;&gt;Node16</title>
<path fill="none" stroke="midnightblue" d="M1126.18,-171.45C1118.25,-161.9 1109.2,-151 1102.19,-142.58"/>
<polygon fill="midnightblue" stroke="midnightblue" points="1123.7,-173.94 1132.78,-179.4 1129.08,-169.47 1123.7,-173.94"/>
</g>
<!-- Node17&#45;&gt;Node11 -->
<g id="edge30" class="edge">
<title>Node17&#45;&gt;Node11</title>
<path fill="none" stroke="midnightblue" d="M1658.95,-176.03C1650.62,-163.45 1639.74,-147.01 1633.21,-137.13"/>
<polygon fill="midnightblue" stroke="midnightblue" points="1656.26,-178.32 1664.7,-184.73 1662.1,-174.46 1656.26,-178.32"/>
</g>
<!-- Node17&#45;&gt;Node12 -->
<g id="edge31" class="edge">
<title>Node17&#45;&gt;Node12</title>
<path fill="none" stroke="midnightblue" d="M1611.04,-183.19C1537.4,-170.43 1413.29,-148.92 1344.72,-137.03"/>
<polygon fill="midnightblue" stroke="midnightblue" points="1610.64,-186.68 1621.09,-184.94 1611.83,-179.78 1610.64,-186.68"/>
</g>
<!-- Node17&#45;&gt;Node13 -->
<g id="edge33" class="edge">
<title>Node17&#45;&gt;Node13</title>
<path fill="none" stroke="midnightblue" d="M1634.32,-181.68C1594.88,-168.8 1532.72,-148.5 1497.72,-137.06"/>
<polygon fill="midnightblue" stroke="midnightblue" points="1633.48,-185.09 1644.07,-184.87 1635.66,-178.44 1633.48,-185.09"/>
</g>
<!-- Node18 -->
<g id="node18" class="node">
<title>Node18</title>
<g id="a_node18"><a xlink:href="ResponseUtils_8cpp.html" target="_top" xlink:title=" ">
<polygon fill="white" stroke="black" points="1744,-118 1744,-137 1887,-137 1887,-118 1744,-118"/>
<text text-anchor="middle" x="1815.5" y="-125" font-family="Helvetica,sans-Serif" font-size="10.00">src/client/ResponseUtils.cpp</text>
</a>
</g>
</g>
<!-- Node17&#45;&gt;Node18 -->
<g id="edge32" class="edge">
<title>Node17&#45;&gt;Node18</title>
<path fill="none" stroke="midnightblue" d="M1699.25,-180.61C1727.97,-167.74 1771.32,-148.31 1796.17,-137.17"/>
<polygon fill="midnightblue" stroke="midnightblue" points="1697.45,-177.58 1689.75,-184.87 1700.31,-183.97 1697.45,-177.58"/>
</g>
<!-- Node19&#45;&gt;Node18 -->
<g id="edge35" class="edge">
<title>Node19&#45;&gt;Node18</title>
<path fill="none" stroke="midnightblue" d="M1935.34,-180.78C1905.84,-167.91 1861.01,-148.35 1835.37,-137.17"/>
<polygon fill="midnightblue" stroke="midnightblue" points="1934.15,-184.08 1944.71,-184.87 1936.95,-177.66 1934.15,-184.08"/>
</g>
<!-- Node20 -->
<g id="node20" class="node">
<title>Node20</title>
<g id="a_node20"><a xlink:href="SessionUtils_8cpp.html" target="_top" xlink:title=" ">
<polygon fill="white" stroke="black" points="1943.5,-118 1943.5,-137 2077.5,-137 2077.5,-118 1943.5,-118"/>
<text text-anchor="middle" x="2010.5" y="-125" font-family="Helvetica,sans-Serif" font-size="10.00">src/client/SessionUtils.cpp</text>
</a>
</g>
</g>
<!-- Node19&#45;&gt;Node20 -->
<g id="edge36" class="edge">
<title>Node19&#45;&gt;Node20</title>
<path fill="none" stroke="midnightblue" d="M1976.6,-176.4C1985.54,-163.77 1997.33,-147.1 2004.39,-137.13"/>
<polygon fill="midnightblue" stroke="midnightblue" points="1973.62,-174.55 1970.7,-184.73 1979.34,-178.59 1973.62,-174.55"/>
</g>
<!-- Node21&#45;&gt;Node12 -->
<g id="edge38" class="edge">
<title>Node21&#45;&gt;Node12</title>
<path fill="none" stroke="midnightblue" d="M1306.93,-174.91C1303.87,-162.49 1299.98,-146.72 1297.62,-137.13"/>
<polygon fill="midnightblue" stroke="midnightblue" points="1303.55,-175.86 1309.34,-184.73 1310.35,-174.19 1303.55,-175.86"/>
</g>
<!-- Node21&#45;&gt;Node13 -->
<g id="edge39" class="edge">
<title>Node21&#45;&gt;Node13</title>
<path fill="none" stroke="midnightblue" d="M1342.01,-181.1C1373.78,-168.2 1422.69,-148.33 1450.42,-137.06"/>
<polygon fill="midnightblue" stroke="midnightblue" points="1340.69,-177.86 1332.75,-184.87 1343.33,-184.35 1340.69,-177.86"/>
</g>
<!-- Node22&#45;&gt;Node5 -->
<g id="edge41" class="edge">
<title>Node22&#45;&gt;Node5</title>
<path fill="none" stroke="midnightblue" d="M650.33,-244.11C678.1,-237.26 710.51,-226.49 736.5,-210 767.81,-190.14 794.16,-153.58 805.09,-137.03"/>
<polygon fill="midnightblue" stroke="midnightblue" points="649.26,-240.76 640.33,-246.46 650.86,-247.58 649.26,-240.76"/>
</g>
<!-- Node23 -->
<g id="node23" class="node">
<title>Node23</title>
<g id="a_node23"><a xlink:href="HttpParser_8cpp.html" target="_top" xlink:title=" ">
<polygon fill="white" stroke="black" points="139.5,-185 139.5,-204 257.5,-204 257.5,-185 139.5,-185"/>
<text text-anchor="middle" x="198.5" y="-192" font-family="Helvetica,sans-Serif" font-size="10.00">src/http/HttpParser.cpp</text>
</a>
</g>
</g>
<!-- Node22&#45;&gt;Node23 -->
<g id="edge42" class="edge">
<title>Node22&#45;&gt;Node23</title>
<path fill="none" stroke="midnightblue" d="M520.15,-246.8C454.59,-238.7 353.57,-225.33 266.5,-210 256.63,-208.26 246.02,-206.13 236.17,-204.04"/>
<polygon fill="midnightblue" stroke="midnightblue" points="520.01,-250.31 530.36,-248.05 520.86,-243.36 520.01,-250.31"/>
</g>
<!-- Node24 -->
<g id="node24" class="node">
<title>Node24</title>
<g id="a_node24"><a xlink:href="HttpParserBody_8cpp.html" target="_top" xlink:title=" ">
<polygon fill="white" stroke="black" points="275.5,-185 275.5,-204 415.5,-204 415.5,-185 275.5,-185"/>
<text text-anchor="middle" x="345.5" y="-192" font-family="Helvetica,sans-Serif" font-size="10.00">src/http/HttpParserBody.cpp</text>
</a>
</g>
</g>
<!-- Node22&#45;&gt;Node24 -->
<g id="edge43" class="edge">
<title>Node22&#45;&gt;Node24</title>
<path fill="none" stroke="midnightblue" d="M544.56,-244.04C497.19,-232.49 423.58,-214.54 380.39,-204.01"/>
<polygon fill="midnightblue" stroke="midnightblue" points="544,-247.51 554.54,-246.48 545.65,-240.71 544,-247.51"/>
</g>
<!-- Node25 -->
<g id="node25" class="node">
<title>Node25</title>
<g id="a_node25"><a xlink:href="HttpParserHeaders_8cpp.html" target="_top" xlink:title=" ">
<polygon fill="white" stroke="black" points="434,-185 434,-204 589,-204 589,-185 434,-185"/>
<text text-anchor="middle" x="511.5" y="-192" font-family="Helvetica,sans-Serif" font-size="10.00">src/http/HttpParserHeaders.cpp</text>
</a>
</g>
</g>
<!-- Node22&#45;&gt;Node25 -->
<g id="edge44" class="edge">
<title>Node22&#45;&gt;Node25</title>
<path fill="none" stroke="midnightblue" d="M570.22,-240.29C555.26,-228.88 535.04,-213.46 522.65,-204.01"/>
<polygon fill="midnightblue" stroke="midnightblue" points="568.25,-243.19 578.32,-246.48 572.5,-237.63 568.25,-243.19"/>
</g>
<!-- Node26 -->
<g id="node26" class="node">
<title>Node26</title>
<g id="a_node26"><a xlink:href="HttpParserStartLine_8cpp.html" target="_top" xlink:title=" ">
<polygon fill="white" stroke="black" points="607,-179.5 607,-209.5 728,-209.5 728,-179.5 607,-179.5"/>
<text text-anchor="start" x="615" y="-197.5" font-family="Helvetica,sans-Serif" font-size="10.00">src/http/HttpParserStart</text>
<text text-anchor="middle" x="667.5" y="-186.5" font-family="Helvetica,sans-Serif" font-size="10.00">Line.cpp</text>
</a>
</g>
</g>
<!-- Node22&#45;&gt;Node26 -->
<g id="edge45" class="edge">
<title>Node22&#45;&gt;Node26</title>
<path fill="none" stroke="midnightblue" d="M608.91,-240.2C621.21,-230.81 637.02,-218.75 649.12,-209.52"/>
<polygon fill="midnightblue" stroke="midnightblue" points="606.5,-237.63 600.68,-246.48 610.75,-243.19 606.5,-237.63"/>
</g>
<!-- Node28&#45;&gt;Node5 -->
<g id="edge48" class="edge">
<title>Node28&#45;&gt;Node5</title>
<path fill="none" stroke="midnightblue" d="M1281.29,-252.26C1148.14,-246.92 886.19,-233.56 851.5,-210 825.95,-192.65 815.53,-154.44 812.02,-137.22"/>
<polygon fill="midnightblue" stroke="midnightblue" points="1281.3,-255.76 1291.43,-252.66 1281.58,-248.76 1281.3,-255.76"/>
</g>
<!-- Node28&#45;&gt;Node10 -->
<g id="edge49" class="edge">
<title>Node28&#45;&gt;Node10</title>
<path fill="none" stroke="midnightblue" d="M1435.94,-248.35C1515.42,-241 1642.53,-227.81 1751.5,-210 1761.63,-208.34 1772.52,-206.19 1782.57,-204.05"/>
<polygon fill="midnightblue" stroke="midnightblue" points="1435.16,-244.9 1425.53,-249.3 1435.8,-251.88 1435.16,-244.9"/>
</g>
<!-- Node28&#45;&gt;Node13 -->
<g id="edge54" class="edge">
<title>Node28&#45;&gt;Node13</title>
<path fill="none" stroke="midnightblue" d="M1419.59,-244.65C1472.94,-235 1543.14,-220.54 1551.5,-210 1560.07,-199.21 1558.15,-191.07 1551.5,-179 1540.08,-158.29 1516.2,-144.9 1497.48,-137.15"/>
<polygon fill="midnightblue" stroke="midnightblue" points="1418.74,-241.25 1409.51,-246.46 1419.97,-248.14 1418.74,-241.25"/>
</g>
<!-- Node28&#45;&gt;Node14 -->
<g id="edge50" class="edge">
<title>Node28&#45;&gt;Node14</title>
<path fill="none" stroke="midnightblue" d="M1284.11,-245.11C1218,-236.23 1118.75,-222.68 1032.5,-210 1019.73,-208.12 1005.98,-206.02 993.08,-204.02"/>
<polygon fill="midnightblue" stroke="midnightblue" points="1284.05,-248.63 1294.43,-246.49 1284.98,-241.69 1284.05,-248.63"/>
</g>
<!-- Node28&#45;&gt;Node16 -->
<g id="edge51" class="edge">
<title>Node28&#45;&gt;Node16</title>
<path fill="none" stroke="midnightblue" d="M1280.97,-254.09C1203.72,-251.33 1092.76,-241.77 1065.5,-210 1048.83,-190.57 1066.1,-160.18 1079.06,-142.52"/>
<polygon fill="midnightblue" stroke="midnightblue" points="1281.05,-257.59 1291.16,-254.42 1281.28,-250.59 1281.05,-257.59"/>
</g>
<!-- Node28&#45;&gt;Node17 -->
<g id="edge52" class="edge">
<title>Node28&#45;&gt;Node17</title>
<path fill="none" stroke="midnightblue" d="M1413.32,-244.55C1473.76,-233.02 1569.85,-214.69 1625.88,-204.01"/>
<polygon fill="midnightblue" stroke="midnightblue" points="1412.37,-241.16 1403.2,-246.48 1413.68,-248.04 1412.37,-241.16"/>
</g>
<!-- Node28&#45;&gt;Node19 -->
<g id="edge53" class="edge">
<title>Node28&#45;&gt;Node19</title>
<path fill="none" stroke="midnightblue" d="M1436.09,-249.41C1561.5,-240.2 1803.3,-221.71 1888.5,-210 1900.08,-208.41 1912.56,-206.22 1924,-204.03"/>
<polygon fill="midnightblue" stroke="midnightblue" points="1435.52,-245.94 1425.8,-250.16 1436.03,-252.92 1435.52,-245.94"/>
</g>
<!-- Node28&#45;&gt;Node21 -->
<g id="edge55" class="edge">
<title>Node28&#45;&gt;Node21</title>
<path fill="none" stroke="midnightblue" d="M1345.34,-238.34C1336.52,-227.17 1325.27,-212.93 1318.22,-204.01"/>
<polygon fill="midnightblue" stroke="midnightblue" points="1342.82,-240.8 1351.77,-246.48 1348.31,-236.46 1342.82,-240.8"/>
</g>
<!-- Node29 -->
<g id="node29" class="node">
<title>Node29</title>
<g id="a_node29"><a xlink:href="HttpResponse_8cpp.html" target="_top" xlink:title=" ">
<polygon fill="white" stroke="black" points="1408.5,-185 1408.5,-204 1542.5,-204 1542.5,-185 1408.5,-185"/>
<text text-anchor="middle" x="1475.5" y="-192" font-family="Helvetica,sans-Serif" font-size="10.00">src/http/HttpResponse.cpp</text>
</a>
</g>
</g>
<!-- Node28&#45;&gt;Node29 -->
<g id="edge56" class="edge">
<title>Node28&#45;&gt;Node29</title>
<path fill="none" stroke="midnightblue" d="M1384.33,-241.87C1407,-230.33 1439.32,-213.9 1458.77,-204.01"/>
<polygon fill="midnightblue" stroke="midnightblue" points="1382.59,-238.82 1375.26,-246.48 1385.76,-245.06 1382.59,-238.82"/>
</g>
</g>
</svg>
