<?xml version="1.0" encoding="UTF-8" standalone="no"?>
<!DOCTYPE svg PUBLIC "-//W3C//DTD SVG 1.1//EN"
 "http://www.w3.org/Graphics/SVG/1.1/DTD/svg11.dtd">
<!-- Generated by graphviz version 2.43.0 (0)
 -->
<!-- Title: src/http/HttpHeaderUtils.cpp Pages: 1 -->
<svg width="252pt" height="140pt"
 viewBox="0.00 0.00 252.00 140.00" xmlns="http://www.w3.org/2000/svg" xmlns:xlink="http://www.w3.org/1999/xlink">
<g id="graph0" class="graph" transform="scale(1 1) rotate(0) translate(4 136)">
<title>src/http/HttpHeaderUtils.cpp</title>
<polygon fill="white" stroke="transparent" points="-4,4 -4,-136 248,-136 248,4 -4,4"/>
<!-- Node1 -->
<g id="node1" class="node">
<title>Node1</title>
<g id="a_node1"><a xlink:title=" ">
<polygon fill="#bfbfbf" stroke="black" points="81,-112.5 81,-131.5 223,-131.5 223,-112.5 81,-112.5"/>
<text text-anchor="middle" x="152" y="-119.5" font-family="Helvetica,sans-Serif" font-size="10.00">src/http/HttpHeaderUtils.cpp</text>
</a>
</g>
</g>
<!-- Node2 -->
<g id="node2" class="node">
<title>Node2</title>
<g id="a_node2"><a xlink:href="HttpHeaderUtils_8hpp.html" target="_top" xlink:title=" ">
<polygon fill="white" stroke="black" points="0,-56.5 0,-75.5 106,-75.5 106,-56.5 0,-56.5"/>
<text text-anchor="middle" x="53" y="-63.5" font-family="Helvetica,sans-Serif" font-size="10.00">HttpHeaderUtils.hpp</text>
</a>
</g>
</g>
<!-- Node1&#45;&gt;Node2 -->
<g id="edge1" class="edge">
<title>Node1&#45;&gt;Node2</title>
<path fill="none" stroke="midnightblue" d="M136.09,-112.32C120.36,-103.74 96.06,-90.49 77.79,-80.52"/>
<polygon fill="midnightblue" stroke="midnightblue" points="79.32,-77.37 68.87,-75.65 75.97,-83.52 79.32,-77.37"/>
</g>
<!-- Node4 -->
<g id="node4" class="node">
<title>Node4</title>
<g id="a_node4"><a xlink:title=" ">
<polygon fill="white" stroke="#bfbfbf" points="124,-56.5 124,-75.5 180,-75.5 180,-56.5 124,-56.5"/>
<text text-anchor="middle" x="152" y="-63.5" font-family="Helvetica,sans-Serif" font-size="10.00">algorithm</text>
</a>
</g>
</g>
<!-- Node1&#45;&gt;Node4 -->
<g id="edge3" class="edge">
<title>Node1&#45;&gt;Node4</title>
<path fill="none" stroke="midnightblue" d="M152,-112.08C152,-105.01 152,-94.86 152,-85.99"/>
<polygon fill="midnightblue" stroke="midnightblue" points="155.5,-85.75 152,-75.75 148.5,-85.75 155.5,-85.75"/>
</g>
<!-- Node5 -->
<g id="node5" class="node">
<title>Node5</title>
<g id="a_node5"><a xlink:title=" ">
<polygon fill="white" stroke="#bfbfbf" points="198,-56.5 198,-75.5 244,-75.5 244,-56.5 198,-56.5"/>
<text text-anchor="middle" x="221" y="-63.5" font-family="Helvetica,sans-Serif" font-size="10.00">cctype</text>
</a>
</g>
</g>
<!-- Node1&#45;&gt;Node5 -->
<g id="edge4" class="edge">
<title>Node1&#45;&gt;Node5</title>
<path fill="none" stroke="midnightblue" d="M163.09,-112.32C173.49,-104.18 189.26,-91.84 201.72,-82.09"/>
<polygon fill="midnightblue" stroke="midnightblue" points="203.99,-84.75 209.71,-75.83 199.68,-79.24 203.99,-84.75"/>
</g>
<!-- Node3 -->
<g id="node3" class="node">
<title>Node3</title>
<g id="a_node3"><a xlink:title=" ">
<polygon fill="white" stroke="#bfbfbf" points="32.5,-0.5 32.5,-19.5 73.5,-19.5 73.5,-0.5 32.5,-0.5"/>
<text text-anchor="middle" x="53" y="-7.5" font-family="Helvetica,sans-Serif" font-size="10.00">string</text>
</a>
</g>
</g>
<!-- Node2&#45;&gt;Node3 -->
<g id="edge2" class="edge">
<title>Node2&#45;&gt;Node3</title>
<path fill="none" stroke="midnightblue" d="M53,-56.08C53,-49.01 53,-38.86 53,-29.99"/>
<polygon fill="midnightblue" stroke="midnightblue" points="56.5,-29.75 53,-19.75 49.5,-29.75 56.5,-29.75"/>
</g>
</g>
</svg>
