<?xml version="1.0" encoding="UTF-8" standalone="no"?>
<!DOCTYPE svg PUBLIC "-//W3C//DTD SVG 1.1//EN"
 "http://www.w3.org/Graphics/SVG/1.1/DTD/svg11.dtd">
<!-- Generated by graphviz version 2.43.0 (0)
 -->
<!-- Title: src/http/HttpResponse.hpp Pages: 1 -->
<svg width="237pt" height="140pt"
 viewBox="0.00 0.00 236.50 140.00" xmlns="http://www.w3.org/2000/svg" xmlns:xlink="http://www.w3.org/1999/xlink">
<g id="graph0" class="graph" transform="scale(1 1) rotate(0) translate(4 136)">
<title>src/http/HttpResponse.hpp</title>
<polygon fill="white" stroke="transparent" points="-4,4 -4,-136 232.5,-136 232.5,4 -4,4"/>
<!-- Node1 -->
<g id="node1" class="node">
<title>Node1</title>
<g id="a_node1"><a xlink:title=" ">
<polygon fill="#bfbfbf" stroke="black" points="28.5,-112.5 28.5,-131.5 162.5,-131.5 162.5,-112.5 28.5,-112.5"/>
<text text-anchor="middle" x="95.5" y="-119.5" font-family="Helvetica,sans-Serif" font-size="10.00">src/http/HttpResponse.hpp</text>
</a>
</g>
</g>
<!-- Node2 -->
<g id="node2" class="node">
<title>Node2</title>
<g id="a_node2"><a xlink:title=" ">
<polygon fill="white" stroke="#bfbfbf" points="0,-0.5 0,-19.5 35,-19.5 35,-0.5 0,-0.5"/>
<text text-anchor="middle" x="17.5" y="-7.5" font-family="Helvetica,sans-Serif" font-size="10.00">map</text>
</a>
</g>
</g>
<!-- Node1&#45;&gt;Node2 -->
<g id="edge1" class="edge">
<title>Node1&#45;&gt;Node2</title>
<path fill="none" stroke="midnightblue" d="M89.38,-112.37C76.51,-94.22 46.43,-51.8 29.55,-27.99"/>
<polygon fill="midnightblue" stroke="midnightblue" points="32.23,-25.72 23.59,-19.59 26.52,-29.77 32.23,-25.72"/>
</g>
<!-- Node3 -->
<g id="node3" class="node">
<title>Node3</title>
<g id="a_node3"><a xlink:title=" ">
<polygon fill="white" stroke="#bfbfbf" points="53,-0.5 53,-19.5 94,-19.5 94,-0.5 53,-0.5"/>
<text text-anchor="middle" x="73.5" y="-7.5" font-family="Helvetica,sans-Serif" font-size="10.00">string</text>
</a>
</g>
</g>
<!-- Node1&#45;&gt;Node3 -->
<g id="edge2" class="edge">
<title>Node1&#45;&gt;Node3</title>
<path fill="none" stroke="midnightblue" d="M91.35,-112.26C87.32,-103.36 81.4,-89.04 78.5,-76 75.08,-60.62 73.9,-42.74 73.54,-29.64"/>
<polygon fill="midnightblue" stroke="midnightblue" points="77.03,-29.48 73.39,-19.53 70.03,-29.58 77.03,-29.48"/>
</g>
<!-- Node4 -->
<g id="node4" class="node">
<title>Node4</title>
<g id="a_node4"><a xlink:title=" ">
<polygon fill="white" stroke="#bfbfbf" points="184.5,-0.5 184.5,-19.5 228.5,-19.5 228.5,-0.5 184.5,-0.5"/>
<text text-anchor="middle" x="206.5" y="-7.5" font-family="Helvetica,sans-Serif" font-size="10.00">vector</text>
</a>
</g>
</g>
<!-- Node1&#45;&gt;Node4 -->
<g id="edge3" class="edge">
<title>Node1&#45;&gt;Node4</title>
<path fill="none" stroke="midnightblue" d="M127.81,-112.5C147.66,-105.7 172.15,-94.22 187.5,-76 198.5,-62.95 203.13,-43.79 205.08,-29.66"/>
<polygon fill="midnightblue" stroke="midnightblue" points="208.58,-29.92 206.14,-19.61 201.61,-29.18 208.58,-29.92"/>
</g>
<!-- Node5 -->
<g id="node5" class="node">
<title>Node5</title>
<g id="a_node5"><a xlink:href="HttpRequest_8hpp.html" target="_top" xlink:title=" ">
<polygon fill="white" stroke="black" points="87,-56.5 87,-75.5 178,-75.5 178,-56.5 87,-56.5"/>
<text text-anchor="middle" x="132.5" y="-63.5" font-family="Helvetica,sans-Serif" font-size="10.00">HttpRequest.hpp</text>
</a>
</g>
</g>
<!-- Node1&#45;&gt;Node5 -->
<g id="edge4" class="edge">
<title>Node1&#45;&gt;Node5</title>
<path fill="none" stroke="midnightblue" d="M101.61,-112.08C106.78,-104.53 114.35,-93.49 120.69,-84.23"/>
<polygon fill="midnightblue" stroke="midnightblue" points="123.74,-85.98 126.5,-75.75 117.96,-82.02 123.74,-85.98"/>
</g>
<!-- Node5&#45;&gt;Node2 -->
<g id="edge6" class="edge">
<title>Node5&#45;&gt;Node2</title>
<path fill="none" stroke="midnightblue" d="M114.28,-56.44C95.49,-47.62 66,-33.77 44.5,-23.68"/>
<polygon fill="midnightblue" stroke="midnightblue" points="45.8,-20.42 35.26,-19.34 42.82,-26.76 45.8,-20.42"/>
</g>
<!-- Node5&#45;&gt;Node3 -->
<g id="edge7" class="edge">
<title>Node5&#45;&gt;Node3</title>
<path fill="none" stroke="midnightblue" d="M123.02,-56.32C114.3,-48.34 101.16,-36.31 90.6,-26.65"/>
<polygon fill="midnightblue" stroke="midnightblue" points="92.89,-24 83.15,-19.83 88.17,-29.17 92.89,-24"/>
</g>
<!-- Node5&#45;&gt;Node4 -->
<g id="edge8" class="edge">
<title>Node5&#45;&gt;Node4</title>
<path fill="none" stroke="midnightblue" d="M144.39,-56.32C155.65,-48.11 172.79,-35.6 186.21,-25.81"/>
<polygon fill="midnightblue" stroke="midnightblue" points="188.38,-28.56 194.39,-19.83 184.25,-22.9 188.38,-28.56"/>
</g>
<!-- Node6 -->
<g id="node6" class="node">
<title>Node6</title>
<g id="a_node6"><a xlink:title=" ">
<polygon fill="white" stroke="#bfbfbf" points="112.5,-0.5 112.5,-19.5 166.5,-19.5 166.5,-0.5 112.5,-0.5"/>
<text text-anchor="middle" x="139.5" y="-7.5" font-family="Helvetica,sans-Serif" font-size="10.00">iostream</text>
</a>
</g>
</g>
<!-- Node5&#45;&gt;Node6 -->
<g id="edge5" class="edge">
<title>Node5&#45;&gt;Node6</title>
<path fill="none" stroke="midnightblue" d="M133.66,-56.08C134.58,-48.93 135.92,-38.64 137.08,-29.69"/>
<polygon fill="midnightblue" stroke="midnightblue" points="140.55,-30.12 138.37,-19.75 133.61,-29.22 140.55,-30.12"/>
</g>
</g>
</svg>
