<?xml version="1.0" encoding="UTF-8" standalone="no"?>
<!DOCTYPE svg PUBLIC "-//W3C//DTD SVG 1.1//EN"
 "http://www.w3.org/Graphics/SVG/1.1/DTD/svg11.dtd">
<!-- Generated by graphviz version 2.43.0 (0)
 -->
<!-- Title: src/config/LocationConfig.cpp Pages: 1 -->
<svg width="389pt" height="140pt"
 viewBox="0.00 0.00 389.00 140.00" xmlns="http://www.w3.org/2000/svg" xmlns:xlink="http://www.w3.org/1999/xlink">
<g id="graph0" class="graph" transform="scale(1 1) rotate(0) translate(4 136)">
<title>src/config/LocationConfig.cpp</title>
<polygon fill="white" stroke="transparent" points="-4,4 -4,-136 385,-136 385,4 -4,4"/>
<!-- Node1 -->
<g id="node1" class="node">
<title>Node1</title>
<g id="a_node1"><a xlink:title=" ">
<polygon fill="#bfbfbf" stroke="black" points="73,-112.5 73,-131.5 219,-131.5 219,-112.5 73,-112.5"/>
<text text-anchor="middle" x="146" y="-119.5" font-family="Helvetica,sans-Serif" font-size="10.00">src/config/LocationConfig.cpp</text>
</a>
</g>
</g>
<!-- Node2 -->
<g id="node2" class="node">
<title>Node2</title>
<g id="a_node2"><a xlink:href="LocationConfig_8hpp.html" target="_top" xlink:title=" ">
<polygon fill="white" stroke="black" points="47.5,-56.5 47.5,-75.5 148.5,-75.5 148.5,-56.5 47.5,-56.5"/>
<text text-anchor="middle" x="98" y="-63.5" font-family="Helvetica,sans-Serif" font-size="10.00">LocationConfig.hpp</text>
</a>
</g>
</g>
<!-- Node1&#45;&gt;Node2 -->
<g id="edge1" class="edge">
<title>Node1&#45;&gt;Node2</title>
<path fill="none" stroke="midnightblue" d="M138.07,-112.08C131.15,-104.3 120.93,-92.8 112.55,-83.37"/>
<polygon fill="midnightblue" stroke="midnightblue" points="115.04,-80.9 105.78,-75.75 109.81,-85.55 115.04,-80.9"/>
</g>
<!-- Node3 -->
<g id="node3" class="node">
<title>Node3</title>
<g id="a_node3"><a xlink:title=" ">
<polygon fill="white" stroke="#bfbfbf" points="0,-0.5 0,-19.5 54,-19.5 54,-0.5 0,-0.5"/>
<text text-anchor="middle" x="27" y="-7.5" font-family="Helvetica,sans-Serif" font-size="10.00">iostream</text>
</a>
</g>
</g>
<!-- Node1&#45;&gt;Node3 -->
<g id="edge7" class="edge">
<title>Node1&#45;&gt;Node3</title>
<path fill="none" stroke="midnightblue" d="M99.51,-112.47C77.64,-106.07 53.11,-95 38,-76 27.66,-62.99 25.51,-43.83 25.59,-29.68"/>
<polygon fill="midnightblue" stroke="midnightblue" points="29.08,-29.76 26.01,-19.62 22.09,-29.46 29.08,-29.76"/>
</g>
<!-- Node7 -->
<g id="node7" class="node">
<title>Node7</title>
<g id="a_node7"><a xlink:title=" ">
<polygon fill="white" stroke="#bfbfbf" points="167,-56.5 167,-75.5 223,-75.5 223,-56.5 167,-56.5"/>
<text text-anchor="middle" x="195" y="-63.5" font-family="Helvetica,sans-Serif" font-size="10.00">algorithm</text>
</a>
</g>
</g>
<!-- Node1&#45;&gt;Node7 -->
<g id="edge6" class="edge">
<title>Node1&#45;&gt;Node7</title>
<path fill="none" stroke="midnightblue" d="M154.09,-112.08C161.16,-104.3 171.59,-92.8 180.15,-83.37"/>
<polygon fill="midnightblue" stroke="midnightblue" points="182.93,-85.51 187.06,-75.75 177.75,-80.8 182.93,-85.51"/>
</g>
<!-- Node8 -->
<g id="node8" class="node">
<title>Node8</title>
<g id="a_node8"><a xlink:href="namespaces_8hpp.html" target="_top" xlink:title=" ">
<polygon fill="white" stroke="black" points="241,-56.5 241,-75.5 381,-75.5 381,-56.5 241,-56.5"/>
<text text-anchor="middle" x="311" y="-63.5" font-family="Helvetica,sans-Serif" font-size="10.00">../common/namespaces.hpp</text>
</a>
</g>
</g>
<!-- Node1&#45;&gt;Node8 -->
<g id="edge8" class="edge">
<title>Node1&#45;&gt;Node8</title>
<path fill="none" stroke="midnightblue" d="M172.14,-112.44C200.02,-103.32 244.35,-88.81 275.4,-78.65"/>
<polygon fill="midnightblue" stroke="midnightblue" points="276.56,-81.95 284.98,-75.52 274.38,-75.3 276.56,-81.95"/>
</g>
<!-- Node2&#45;&gt;Node3 -->
<g id="edge2" class="edge">
<title>Node2&#45;&gt;Node3</title>
<path fill="none" stroke="midnightblue" d="M86.59,-56.32C75.89,-48.18 59.66,-35.84 46.84,-26.09"/>
<polygon fill="midnightblue" stroke="midnightblue" points="48.69,-23.1 38.61,-19.83 44.46,-28.67 48.69,-23.1"/>
</g>
<!-- Node4 -->
<g id="node4" class="node">
<title>Node4</title>
<g id="a_node4"><a xlink:title=" ">
<polygon fill="white" stroke="#bfbfbf" points="76.5,-0.5 76.5,-19.5 111.5,-19.5 111.5,-0.5 76.5,-0.5"/>
<text text-anchor="middle" x="94" y="-7.5" font-family="Helvetica,sans-Serif" font-size="10.00">map</text>
</a>
</g>
</g>
<!-- Node2&#45;&gt;Node4 -->
<g id="edge3" class="edge">
<title>Node2&#45;&gt;Node4</title>
<path fill="none" stroke="midnightblue" d="M97.34,-56.08C96.82,-49.01 96.06,-38.86 95.41,-29.99"/>
<polygon fill="midnightblue" stroke="midnightblue" points="98.88,-29.47 94.65,-19.75 91.9,-29.98 98.88,-29.47"/>
</g>
<!-- Node5 -->
<g id="node5" class="node">
<title>Node5</title>
<g id="a_node5"><a xlink:title=" ">
<polygon fill="white" stroke="#bfbfbf" points="241.5,-0.5 241.5,-19.5 282.5,-19.5 282.5,-0.5 241.5,-0.5"/>
<text text-anchor="middle" x="262" y="-7.5" font-family="Helvetica,sans-Serif" font-size="10.00">string</text>
</a>
</g>
</g>
<!-- Node2&#45;&gt;Node5 -->
<g id="edge4" class="edge">
<title>Node2&#45;&gt;Node5</title>
<path fill="none" stroke="midnightblue" d="M123.99,-56.44C153.2,-46.82 200.58,-31.22 231.52,-21.04"/>
<polygon fill="midnightblue" stroke="midnightblue" points="232.92,-24.26 241.33,-17.81 230.73,-17.61 232.92,-24.26"/>
</g>
<!-- Node6 -->
<g id="node6" class="node">
<title>Node6</title>
<g id="a_node6"><a xlink:title=" ">
<polygon fill="white" stroke="#bfbfbf" points="130,-0.5 130,-19.5 174,-19.5 174,-0.5 130,-0.5"/>
<text text-anchor="middle" x="152" y="-7.5" font-family="Helvetica,sans-Serif" font-size="10.00">vector</text>
</a>
</g>
</g>
<!-- Node2&#45;&gt;Node6 -->
<g id="edge5" class="edge">
<title>Node2&#45;&gt;Node6</title>
<path fill="none" stroke="midnightblue" d="M106.92,-56.08C114.78,-48.22 126.43,-36.57 135.92,-27.08"/>
<polygon fill="midnightblue" stroke="midnightblue" points="138.65,-29.3 143.25,-19.75 133.7,-24.35 138.65,-29.3"/>
</g>
<!-- Node8&#45;&gt;Node5 -->
<g id="edge9" class="edge">
<title>Node8&#45;&gt;Node5</title>
<path fill="none" stroke="midnightblue" d="M302.91,-56.08C295.84,-48.3 285.41,-36.8 276.85,-27.37"/>
<polygon fill="midnightblue" stroke="midnightblue" points="279.25,-24.8 269.94,-19.75 274.07,-29.51 279.25,-24.8"/>
</g>
</g>
</svg>
