<?xml version="1.0" encoding="UTF-8" standalone="no"?>
<!DOCTYPE svg PUBLIC "-//W3C//DTD SVG 1.1//EN"
 "http://www.w3.org/Graphics/SVG/1.1/DTD/svg11.dtd">
<!-- Generated by graphviz version 2.43.0 (0)
 -->
<!-- Title: src/config/LocationConfig.hpp Pages: 1 -->
<!--zoomable 330 -->
<svg id="main" version="1.1" xmlns="http://www.w3.org/2000/svg" xmlns:xlink="http://www.w3.org/1999/xlink" xml:space="preserve" onload="init(evt)">
<style type="text/css"><![CDATA[
.edge:hover path { stroke: red; }
.edge:hover polygon { stroke: red; fill: red; }
]]></style>
<script type="text/javascript"><![CDATA[
var edges = document.getElementsByTagName('g');
if (edges && edges.length) {
  for (var i=0;i<edges.length;i++) {
    if (edges[i].id.substr(0,4)=='edge') {
      edges[i].setAttribute('class','edge');
    }
  }
}
]]></script>
        <defs>
                <circle id="rim" cx="0" cy="0" r="7"/>
                <circle id="rim2" cx="0" cy="0" r="3.5"/>
                <g id="zoomPlus">
                        <use xlink:href="#rim" fill="#404040">
                                <set attributeName="fill" to="#808080" begin="zoomplus.mouseover" end="zoomplus.mouseout"/>
                        </use>
                        <path d="M-4,0h8M0,-4v8" fill="none" stroke="white" stroke-width="1.5" pointer-events="none"/>
                </g>
                <g id="zoomMin">
                        <use xlink:href="#rim" fill="#404040">
                                <set attributeName="fill" to="#808080" begin="zoomminus.mouseover" end="zoomminus.mouseout"/>
                        </use>
                        <path d="M-4,0h8" fill="none" stroke="white" stroke-width="1.5" pointer-events="none"/>
                </g>
                <g id="dirArrow">
                        <path fill="none" stroke="white" stroke-width="1.5" d="M0,-3.0v7 M-2.5,-0.5L0,-3.0L2.5,-0.5"/>
                </g>
               <g id="resetDef">
                       <use xlink:href="#rim2" fill="#404040">
                               <set attributeName="fill" to="#808080" begin="reset.mouseover" end="reset.mouseout"/>
                       </use>
               </g>
        </defs>

<script type="text/javascript">
var viewWidth = 1321;
var viewHeight = 330;
var sectionId = 'dynsection-1';
</script>
<script xlink:href="svgpan.js"/>
<svg id="graph" class="graph">
<g id="viewport">
<title>src/config/LocationConfig.hpp</title>
<polygon fill="white" stroke="transparent" points="-4,4 -4,-326 1317,-326 1317,4 -4,4"/>
<!-- Node1 -->
<g id="node1" class="node">
<title>Node1</title>
<g id="a_node1"><a xlink:title=" ">
<polygon fill="#bfbfbf" stroke="black" points="450.5,-302.5 450.5,-321.5 596.5,-321.5 596.5,-302.5 450.5,-302.5"/>
<text text-anchor="middle" x="523.5" y="-309.5" font-family="Helvetica,sans-Serif" font-size="10.00">src/config/LocationConfig.hpp</text>
</a>
</g>
</g>
<!-- Node2 -->
<g id="node2" class="node">
<title>Node2</title>
<g id="a_node2"><a xlink:href="RequestProcessorUtils_8hpp.html" target="_top" xlink:title=" ">
<polygon fill="white" stroke="black" points="516.5,-179.5 516.5,-209.5 656.5,-209.5 656.5,-179.5 516.5,-179.5"/>
<text text-anchor="start" x="524.5" y="-197.5" font-family="Helvetica,sans-Serif" font-size="10.00">src/client/RequestProcessor</text>
<text text-anchor="middle" x="586.5" y="-186.5" font-family="Helvetica,sans-Serif" font-size="10.00">Utils.hpp</text>
</a>
</g>
</g>
<!-- Node1&#45;&gt;Node2 -->
<g id="edge1" class="edge">
<title>Node1&#45;&gt;Node2</title>
<path fill="none" stroke="midnightblue" d="M506.78,-294.82C495.02,-281.4 482.94,-262 492.5,-246 502.67,-228.99 520.76,-217.37 538.38,-209.62"/>
<polygon fill="midnightblue" stroke="midnightblue" points="504.46,-297.46 513.87,-302.32 509.55,-292.65 504.46,-297.46"/>
</g>
<!-- Node9 -->
<g id="node9" class="node">
<title>Node9</title>
<g id="a_node9"><a xlink:href="StaticPathHandler_8hpp.html" target="_top" xlink:title=" ">
<polygon fill="white" stroke="black" points="812,-185 812,-204 969,-204 969,-185 812,-185"/>
<text text-anchor="middle" x="890.5" y="-192" font-family="Helvetica,sans-Serif" font-size="10.00">src/client/StaticPathHandler.hpp</text>
</a>
</g>
</g>
<!-- Node1&#45;&gt;Node9 -->
<g id="edge8" class="edge">
<title>Node1&#45;&gt;Node9</title>
<path fill="none" stroke="midnightblue" d="M606.82,-310.57C666.66,-307.34 747.83,-296.82 812.5,-266 843.81,-251.08 871.61,-219.47 883.86,-204.17"/>
<polygon fill="midnightblue" stroke="midnightblue" points="606.48,-307.08 596.66,-311.06 606.82,-314.07 606.48,-307.08"/>
</g>
<!-- Node10 -->
<g id="node10" class="node">
<title>Node10</title>
<g id="a_node10"><a xlink:href="ConfigParser_8cpp.html" target="_top" xlink:title=" ">
<polygon fill="white" stroke="black" points="0,-118 0,-137 137,-137 137,-118 0,-118"/>
<text text-anchor="middle" x="68.5" y="-125" font-family="Helvetica,sans-Serif" font-size="10.00">src/config/ConfigParser.cpp</text>
</a>
</g>
</g>
<!-- Node1&#45;&gt;Node10 -->
<g id="edge11" class="edge">
<title>Node1&#45;&gt;Node10</title>
<path fill="none" stroke="midnightblue" d="M440.09,-305.29C318.91,-295.06 103.49,-268.89 56.5,-210 39.37,-188.54 54.69,-153.42 63.41,-137.21"/>
<polygon fill="midnightblue" stroke="midnightblue" points="439.82,-308.78 450.08,-306.12 440.4,-301.81 439.82,-308.78"/>
</g>
<!-- Node11 -->
<g id="node11" class="node">
<title>Node11</title>
<g id="a_node11"><a xlink:href="LocationConfig_8cpp.html" target="_top" xlink:title=" ">
<polygon fill="white" stroke="black" points="501.5,-246.5 501.5,-265.5 647.5,-265.5 647.5,-246.5 501.5,-246.5"/>
<text text-anchor="middle" x="574.5" y="-253.5" font-family="Helvetica,sans-Serif" font-size="10.00">src/config/LocationConfig.cpp</text>
</a>
</g>
</g>
<!-- Node1&#45;&gt;Node11 -->
<g id="edge12" class="edge">
<title>Node1&#45;&gt;Node11</title>
<path fill="none" stroke="midnightblue" d="M538.88,-294.72C547.87,-285.2 558.86,-273.56 566.24,-265.75"/>
<polygon fill="midnightblue" stroke="midnightblue" points="536.24,-292.41 531.92,-302.08 541.33,-297.22 536.24,-292.41"/>
</g>
<!-- Node12 -->
<g id="node12" class="node">
<title>Node12</title>
<g id="a_node12"><a xlink:href="ServerConfig_8cpp.html" target="_top" xlink:title=" ">
<polygon fill="white" stroke="black" points="65.5,-185 65.5,-204 203.5,-204 203.5,-185 65.5,-185"/>
<text text-anchor="middle" x="134.5" y="-192" font-family="Helvetica,sans-Serif" font-size="10.00">src/config/ServerConfig.cpp</text>
</a>
</g>
</g>
<!-- Node1&#45;&gt;Node12 -->
<g id="edge13" class="edge">
<title>Node1&#45;&gt;Node12</title>
<path fill="none" stroke="midnightblue" d="M484.67,-299.47C406.61,-276.29 232.28,-224.53 163.35,-204.06"/>
<polygon fill="midnightblue" stroke="midnightblue" points="484,-302.92 494.58,-302.41 485.99,-296.21 484,-302.92"/>
</g>
<!-- Node13 -->
<g id="node13" class="node">
<title>Node13</title>
<g id="a_node13"><a xlink:href="ServerConfig_8hpp.html" target="_top" xlink:title=" ">
<polygon fill="white" stroke="black" points="665.5,-246.5 665.5,-265.5 803.5,-265.5 803.5,-246.5 665.5,-246.5"/>
<text text-anchor="middle" x="734.5" y="-253.5" font-family="Helvetica,sans-Serif" font-size="10.00">src/config/ServerConfig.hpp</text>
</a>
</g>
</g>
<!-- Node1&#45;&gt;Node13 -->
<g id="edge14" class="edge">
<title>Node1&#45;&gt;Node13</title>
<path fill="none" stroke="midnightblue" d="M566.64,-299.96C606.49,-289.76 664.86,-274.82 701.22,-265.52"/>
<polygon fill="midnightblue" stroke="midnightblue" points="565.75,-296.57 556.93,-302.44 567.49,-303.35 565.75,-296.57"/>
</g>
<!-- Node3 -->
<g id="node3" class="node">
<title>Node3</title>
<g id="a_node3"><a xlink:href="CgiExecutor_8cpp.html" target="_top" xlink:title=" ">
<polygon fill="white" stroke="black" points="263,-118 263,-137 384,-137 384,-118 263,-118"/>
<text text-anchor="middle" x="323.5" y="-125" font-family="Helvetica,sans-Serif" font-size="10.00">src/cgi/CgiExecutor.cpp</text>
</a>
</g>
</g>
<!-- Node2&#45;&gt;Node3 -->
<g id="edge2" class="edge">
<title>Node2&#45;&gt;Node3</title>
<path fill="none" stroke="midnightblue" d="M520.02,-177.07C468.44,-164.32 399.04,-147.17 358.01,-137.03"/>
<polygon fill="midnightblue" stroke="midnightblue" points="519.21,-180.47 529.76,-179.48 520.89,-173.68 519.21,-180.47"/>
</g>
<!-- Node4 -->
<g id="node4" class="node">
<title>Node4</title>
<g id="a_node4"><a xlink:href="Client_8cpp.html" target="_top" xlink:title=" ">
<polygon fill="white" stroke="black" points="874.5,-0.5 874.5,-19.5 978.5,-19.5 978.5,-0.5 874.5,-0.5"/>
<text text-anchor="middle" x="926.5" y="-7.5" font-family="Helvetica,sans-Serif" font-size="10.00">src/client/Client.cpp</text>
</a>
</g>
</g>
<!-- Node2&#45;&gt;Node4 -->
<g id="edge3" class="edge">
<title>Node2&#45;&gt;Node4</title>
<path fill="none" stroke="midnightblue" d="M580.51,-169.34C577.63,-151.66 577.09,-128.05 589.5,-112 624.48,-66.76 788.59,-33.67 874.21,-19.15"/>
<polygon fill="midnightblue" stroke="midnightblue" points="577.14,-170.33 582.52,-179.46 584.01,-168.98 577.14,-170.33"/>
</g>
<!-- Node5 -->
<g id="node5" class="node">
<title>Node5</title>
<g id="a_node5"><a xlink:href="ErrorUtils_8cpp.html" target="_top" xlink:title=" ">
<polygon fill="white" stroke="black" points="599,-118 599,-137 718,-137 718,-118 599,-118"/>
<text text-anchor="middle" x="658.5" y="-125" font-family="Helvetica,sans-Serif" font-size="10.00">src/client/ErrorUtils.cpp</text>
</a>
</g>
</g>
<!-- Node2&#45;&gt;Node5 -->
<g id="edge4" class="edge">
<title>Node2&#45;&gt;Node5</title>
<path fill="none" stroke="midnightblue" d="M609.57,-172.67C622.86,-160.67 638.87,-146.22 648.87,-137.19"/>
<polygon fill="midnightblue" stroke="midnightblue" points="607.2,-170.1 602.12,-179.4 611.89,-175.29 607.2,-170.1"/>
</g>
<!-- Node6 -->
<g id="node6" class="node">
<title>Node6</title>
<g id="a_node6"><a xlink:href="RequestProcessor_8cpp.html" target="_top" xlink:title=" ">
<polygon fill="white" stroke="black" points="987.5,-118 987.5,-137 1145.5,-137 1145.5,-118 987.5,-118"/>
<text text-anchor="middle" x="1066.5" y="-125" font-family="Helvetica,sans-Serif" font-size="10.00">src/client/RequestProcessor.cpp</text>
</a>
</g>
</g>
<!-- Node2&#45;&gt;Node6 -->
<g id="edge5" class="edge">
<title>Node2&#45;&gt;Node6</title>
<path fill="none" stroke="midnightblue" d="M666.59,-178.88C784.39,-160.87 909.58,-145.92 988.32,-137.03"/>
<polygon fill="midnightblue" stroke="midnightblue" points="666.03,-175.43 656.68,-180.41 667.09,-182.35 666.03,-175.43"/>
</g>
<!-- Node7 -->
<g id="node7" class="node">
<title>Node7</title>
<g id="a_node7"><a xlink:href="RequestProcessorUtils_8cpp.html" target="_top" xlink:title=" ">
<polygon fill="white" stroke="black" points="402.5,-112.5 402.5,-142.5 542.5,-142.5 542.5,-112.5 402.5,-112.5"/>
<text text-anchor="start" x="410.5" y="-130.5" font-family="Helvetica,sans-Serif" font-size="10.00">src/client/RequestProcessor</text>
<text text-anchor="middle" x="472.5" y="-119.5" font-family="Helvetica,sans-Serif" font-size="10.00">Utils.cpp</text>
</a>
</g>
</g>
<!-- Node2&#45;&gt;Node7 -->
<g id="edge6" class="edge">
<title>Node2&#45;&gt;Node7</title>
<path fill="none" stroke="midnightblue" d="M552.82,-174.3C534.98,-164.12 513.46,-151.85 497.19,-142.58"/>
<polygon fill="midnightblue" stroke="midnightblue" points="551.34,-177.48 561.76,-179.4 554.81,-171.4 551.34,-177.48"/>
</g>
<!-- Node8 -->
<g id="node8" class="node">
<title>Node8</title>
<g id="a_node8"><a xlink:href="StaticPathHandler_8cpp.html" target="_top" xlink:title=" ">
<polygon fill="white" stroke="black" points="736,-118 736,-137 893,-137 893,-118 736,-118"/>
<text text-anchor="middle" x="814.5" y="-125" font-family="Helvetica,sans-Serif" font-size="10.00">src/client/StaticPathHandler.cpp</text>
</a>
</g>
</g>
<!-- Node2&#45;&gt;Node8 -->
<g id="edge7" class="edge">
<title>Node2&#45;&gt;Node8</title>
<path fill="none" stroke="midnightblue" d="M645.53,-176.67C690.09,-163.97 749.38,-147.06 784.58,-137.03"/>
<polygon fill="midnightblue" stroke="midnightblue" points="644.35,-173.37 635.69,-179.48 646.27,-180.1 644.35,-173.37"/>
</g>
<!-- Node9&#45;&gt;Node6 -->
<g id="edge9" class="edge">
<title>Node9&#45;&gt;Node6</title>
<path fill="none" stroke="midnightblue" d="M923.61,-181.27C958.54,-168.37 1012.68,-148.38 1043.31,-137.06"/>
<polygon fill="midnightblue" stroke="midnightblue" points="922.04,-178.12 913.87,-184.87 924.46,-184.69 922.04,-178.12"/>
</g>
<!-- Node9&#45;&gt;Node8 -->
<g id="edge10" class="edge">
<title>Node9&#45;&gt;Node8</title>
<path fill="none" stroke="midnightblue" d="M872.63,-178.21C857.65,-165.41 836.82,-147.59 824.59,-137.13"/>
<polygon fill="midnightblue" stroke="midnightblue" points="870.38,-180.89 880.25,-184.73 874.93,-175.57 870.38,-180.89"/>
</g>
<!-- Node13&#45;&gt;Node2 -->
<g id="edge36" class="edge">
<title>Node13&#45;&gt;Node2</title>
<path fill="none" stroke="midnightblue" d="M703.95,-242.72C679.93,-233.06 646.45,-219.6 621.38,-209.52"/>
<polygon fill="midnightblue" stroke="midnightblue" points="702.71,-245.99 713.3,-246.48 705.32,-239.5 702.71,-245.99"/>
</g>
<!-- Node13&#45;&gt;Node9 -->
<g id="edge37" class="edge">
<title>Node13&#45;&gt;Node9</title>
<path fill="none" stroke="midnightblue" d="M766.53,-242.78C796.85,-231.22 841.57,-214.16 868.19,-204.01"/>
<polygon fill="midnightblue" stroke="midnightblue" points="764.95,-239.64 756.85,-246.48 767.44,-246.18 764.95,-239.64"/>
</g>
<!-- Node13&#45;&gt;Node12 -->
<g id="edge41" class="edge">
<title>Node13&#45;&gt;Node12</title>
<path fill="none" stroke="midnightblue" d="M655.07,-245.9C457.74,-226.96 405.49,-235.69 212.5,-210 200.62,-208.42 187.81,-206.24 176.07,-204.05"/>
<polygon fill="midnightblue" stroke="midnightblue" points="654.9,-249.4 665.19,-246.88 655.58,-242.43 654.9,-249.4"/>
</g>
<!-- Node14 -->
<g id="node14" class="node">
<title>Node14</title>
<g id="a_node14"><a xlink:href="CgiExecutor_8hpp.html" target="_top" xlink:title=" ">
<polygon fill="white" stroke="black" points="377,-185 377,-204 498,-204 498,-185 377,-185"/>
<text text-anchor="middle" x="437.5" y="-192" font-family="Helvetica,sans-Serif" font-size="10.00">src/cgi/CgiExecutor.hpp</text>
</a>
</g>
</g>
<!-- Node13&#45;&gt;Node14 -->
<g id="edge15" class="edge">
<title>Node13&#45;&gt;Node14</title>
<path fill="none" stroke="midnightblue" d="M680.91,-244.51C634.9,-235.47 566.8,-222.02 507.5,-210 498.13,-208.1 488.07,-206.03 478.57,-204.07"/>
<polygon fill="midnightblue" stroke="midnightblue" points="680.47,-247.99 690.96,-246.48 681.82,-241.12 680.47,-247.99"/>
</g>
<!-- Node16 -->
<g id="node16" class="node">
<title>Node16</title>
<g id="a_node16"><a xlink:href="Client_8hpp.html" target="_top" xlink:title=" ">
<polygon fill="white" stroke="black" points="1201.5,-118 1201.5,-137 1305.5,-137 1305.5,-118 1201.5,-118"/>
<text text-anchor="middle" x="1253.5" y="-125" font-family="Helvetica,sans-Serif" font-size="10.00">src/client/Client.hpp</text>
</a>
</g>
</g>
<!-- Node13&#45;&gt;Node16 -->
<g id="edge18" class="edge">
<title>Node13&#45;&gt;Node16</title>
<path fill="none" stroke="midnightblue" d="M813.78,-254.39C926.09,-252.3 1124.85,-243.78 1187.5,-210 1218.91,-193.06 1240.91,-154.29 1249.5,-137.04"/>
<polygon fill="midnightblue" stroke="midnightblue" points="813.46,-250.89 803.52,-254.56 813.58,-257.89 813.46,-250.89"/>
</g>
<!-- Node18 -->
<g id="node18" class="node">
<title>Node18</title>
<g id="a_node18"><a xlink:href="ServerManager_8hpp.html" target="_top" xlink:title=" ">
<polygon fill="white" stroke="black" points="991,-56.5 991,-75.5 1146,-75.5 1146,-56.5 991,-56.5"/>
<text text-anchor="middle" x="1068.5" y="-63.5" font-family="Helvetica,sans-Serif" font-size="10.00">src/network/ServerManager.hpp</text>
</a>
</g>
</g>
<!-- Node13&#45;&gt;Node18 -->
<g id="edge42" class="edge">
<title>Node13&#45;&gt;Node18</title>
<path fill="none" stroke="midnightblue" d="M813.89,-252.12C929.31,-247.09 1132.2,-234.82 1154.5,-210 1183.61,-177.6 1177.06,-149.26 1154.5,-112 1143.24,-93.4 1121.49,-82.12 1102.68,-75.51"/>
<polygon fill="midnightblue" stroke="midnightblue" points="813.53,-248.63 803.69,-252.55 813.83,-255.62 813.53,-248.63"/>
</g>
<!-- Node20 -->
<g id="node20" class="node">
<title>Node20</title>
<g id="a_node20"><a xlink:href="ErrorUtils_8hpp.html" target="_top" xlink:title=" ">
<polygon fill="white" stroke="black" points="675,-185 675,-204 794,-204 794,-185 675,-185"/>
<text text-anchor="middle" x="734.5" y="-192" font-family="Helvetica,sans-Serif" font-size="10.00">src/client/ErrorUtils.hpp</text>
</a>
</g>
</g>
<!-- Node13&#45;&gt;Node20 -->
<g id="edge27" class="edge">
<title>Node13&#45;&gt;Node20</title>
<path fill="none" stroke="midnightblue" d="M734.5,-236.32C734.5,-225.5 734.5,-212.4 734.5,-204.01"/>
<polygon fill="midnightblue" stroke="midnightblue" points="731,-236.48 734.5,-246.48 738,-236.48 731,-236.48"/>
</g>
<!-- Node21 -->
<g id="node21" class="node">
<title>Node21</title>
<g id="a_node21"><a xlink:href="RequestProcessor_8hpp.html" target="_top" xlink:title=" ">
<polygon fill="white" stroke="black" points="987.5,-185 987.5,-204 1145.5,-204 1145.5,-185 987.5,-185"/>
<text text-anchor="middle" x="1066.5" y="-192" font-family="Helvetica,sans-Serif" font-size="10.00">src/client/RequestProcessor.hpp</text>
</a>
</g>
</g>
<!-- Node13&#45;&gt;Node21 -->
<g id="edge33" class="edge">
<title>Node13&#45;&gt;Node21</title>
<path fill="none" stroke="midnightblue" d="M792.04,-244.69C856.31,-233.17 959.15,-214.74 1019.02,-204.01"/>
<polygon fill="midnightblue" stroke="midnightblue" points="791.29,-241.27 782.07,-246.48 792.53,-248.16 791.29,-241.27"/>
</g>
<!-- Node22 -->
<g id="node22" class="node">
<title>Node22</title>
<g id="a_node22"><a xlink:href="ConfigParser_8hpp.html" target="_top" xlink:title=" ">
<polygon fill="white" stroke="black" points="222,-185 222,-204 359,-204 359,-185 222,-185"/>
<text text-anchor="middle" x="290.5" y="-192" font-family="Helvetica,sans-Serif" font-size="10.00">src/config/ConfigParser.hpp</text>
</a>
</g>
</g>
<!-- Node13&#45;&gt;Node22 -->
<g id="edge38" class="edge">
<title>Node13&#45;&gt;Node22</title>
<path fill="none" stroke="midnightblue" d="M655.43,-245.58C556.1,-233.7 395.21,-214.3 367.5,-210 356.34,-208.27 344.33,-206.13 333.18,-204.04"/>
<polygon fill="midnightblue" stroke="midnightblue" points="655.1,-249.06 665.44,-246.78 655.93,-242.11 655.1,-249.06"/>
</g>
<!-- Node14&#45;&gt;Node3 -->
<g id="edge16" class="edge">
<title>Node14&#45;&gt;Node3</title>
<path fill="none" stroke="midnightblue" d="M413.15,-179.62C390.56,-166.74 357.66,-147.98 338.63,-137.13"/>
<polygon fill="midnightblue" stroke="midnightblue" points="411.7,-182.82 422.13,-184.73 415.17,-176.74 411.7,-182.82"/>
</g>
<!-- Node15 -->
<g id="node15" class="node">
<title>Node15</title>
<g id="a_node15"><a xlink:href="ClientCgi_8cpp.html" target="_top" xlink:title=" ">
<polygon fill="white" stroke="black" points="1004,-0.5 1004,-19.5 1123,-19.5 1123,-0.5 1004,-0.5"/>
<text text-anchor="middle" x="1063.5" y="-7.5" font-family="Helvetica,sans-Serif" font-size="10.00">src/client/ClientCgi.cpp</text>
</a>
</g>
</g>
<!-- Node14&#45;&gt;Node15 -->
<g id="edge17" class="edge">
<title>Node14&#45;&gt;Node15</title>
<path fill="none" stroke="midnightblue" d="M386.54,-182.82C334.99,-171.5 261.74,-153.8 253.5,-143 245.15,-132.04 244.38,-122.33 253.5,-112 256.63,-108.46 817.26,-40.65 1003.87,-18.17"/>
<polygon fill="midnightblue" stroke="midnightblue" points="386.02,-186.29 396.53,-184.99 387.51,-179.45 386.02,-186.29"/>
</g>
<!-- Node16&#45;&gt;Node4 -->
<g id="edge19" class="edge">
<title>Node16&#45;&gt;Node4</title>
<path fill="none" stroke="midnightblue" d="M1234.59,-111.57C1210.89,-93.11 1171.33,-63.25 1154.5,-56 1123.51,-42.65 1035.7,-27.54 978.54,-18.66"/>
<polygon fill="midnightblue" stroke="midnightblue" points="1232.5,-114.38 1242.53,-117.79 1236.82,-108.86 1232.5,-114.38"/>
</g>
<!-- Node16&#45;&gt;Node15 -->
<g id="edge20" class="edge">
<title>Node16&#45;&gt;Node15</title>
<path fill="none" stroke="midnightblue" d="M1241.91,-109.53C1230.31,-93.7 1211.11,-70.42 1189.5,-56 1162.83,-38.21 1128.3,-26.52 1102.14,-19.53"/>
<polygon fill="midnightblue" stroke="midnightblue" points="1239.18,-111.74 1247.82,-117.87 1244.89,-107.69 1239.18,-111.74"/>
</g>
<!-- Node17 -->
<g id="node17" class="node">
<title>Node17</title>
<g id="a_node17"><a xlink:href="ServerManager_8cpp.html" target="_top" xlink:title=" ">
<polygon fill="white" stroke="black" points="1158,-0.5 1158,-19.5 1313,-19.5 1313,-0.5 1158,-0.5"/>
<text text-anchor="middle" x="1235.5" y="-7.5" font-family="Helvetica,sans-Serif" font-size="10.00">src/network/ServerManager.cpp</text>
</a>
</g>
</g>
<!-- Node16&#45;&gt;Node17 -->
<g id="edge21" class="edge">
<title>Node16&#45;&gt;Node17</title>
<path fill="none" stroke="midnightblue" d="M1250.56,-107.66C1246.62,-82.37 1239.78,-38.44 1236.87,-19.78"/>
<polygon fill="midnightblue" stroke="midnightblue" points="1247.15,-108.48 1252.15,-117.82 1254.07,-107.4 1247.15,-108.48"/>
</g>
<!-- Node16&#45;&gt;Node18 -->
<g id="edge22" class="edge">
<title>Node16&#45;&gt;Node18</title>
<path fill="none" stroke="midnightblue" d="M1217.37,-114.88C1181.41,-103.32 1127.08,-85.84 1094.96,-75.51"/>
<polygon fill="midnightblue" stroke="midnightblue" points="1216.4,-118.25 1226.99,-117.98 1218.55,-111.58 1216.4,-118.25"/>
</g>
<!-- Node18&#45;&gt;Node4 -->
<g id="edge23" class="edge">
<title>Node18&#45;&gt;Node4</title>
<path fill="none" stroke="midnightblue" d="M1036.34,-52.77C1009.67,-42.63 972.43,-28.47 948.9,-19.52"/>
<polygon fill="midnightblue" stroke="midnightblue" points="1035.41,-56.16 1046,-56.44 1037.9,-49.62 1035.41,-56.16"/>
</g>
<!-- Node18&#45;&gt;Node15 -->
<g id="edge24" class="edge">
<title>Node18&#45;&gt;Node15</title>
<path fill="none" stroke="midnightblue" d="M1066.75,-46.1C1065.92,-37.14 1064.97,-26.86 1064.31,-19.75"/>
<polygon fill="midnightblue" stroke="midnightblue" points="1063.27,-46.45 1067.67,-56.08 1070.24,-45.8 1063.27,-46.45"/>
</g>
<!-- Node18&#45;&gt;Node17 -->
<g id="edge26" class="edge">
<title>Node18&#45;&gt;Node17</title>
<path fill="none" stroke="midnightblue" d="M1104.67,-53.3C1136.14,-43.13 1180.99,-28.62 1209.16,-19.52"/>
<polygon fill="midnightblue" stroke="midnightblue" points="1103.4,-50.04 1094.96,-56.44 1105.55,-56.7 1103.4,-50.04"/>
</g>
<!-- Node19 -->
<g id="node19" class="node">
<title>Node19</title>
<g id="a_node19"><a xlink:href="main_8cpp.html" target="_top" xlink:title=" ">
<polygon fill="white" stroke="black" points="474,-0.5 474,-19.5 547,-19.5 547,-0.5 474,-0.5"/>
<text text-anchor="middle" x="510.5" y="-7.5" font-family="Helvetica,sans-Serif" font-size="10.00">src/main.cpp</text>
</a>
</g>
</g>
<!-- Node18&#45;&gt;Node19 -->
<g id="edge25" class="edge">
<title>Node18&#45;&gt;Node19</title>
<path fill="none" stroke="midnightblue" d="M980.66,-56.5C856.3,-44.46 634.33,-22.98 547.12,-14.54"/>
<polygon fill="midnightblue" stroke="midnightblue" points="980.62,-60.01 990.91,-57.49 981.3,-53.04 980.62,-60.01"/>
</g>
<!-- Node20&#45;&gt;Node4 -->
<g id="edge28" class="edge">
<title>Node20&#45;&gt;Node4</title>
<path fill="none" stroke="midnightblue" d="M779.33,-182.49C825.89,-170.67 893.13,-152.31 901.5,-143 933.77,-107.09 930.2,-42.95 927.65,-19.71"/>
<polygon fill="midnightblue" stroke="midnightblue" points="778.28,-179.15 769.44,-184.99 780,-185.94 778.28,-179.15"/>
</g>
<!-- Node20&#45;&gt;Node5 -->
<g id="edge30" class="edge">
<title>Node20&#45;&gt;Node5</title>
<path fill="none" stroke="midnightblue" d="M716.63,-178.21C701.65,-165.41 680.82,-147.59 668.59,-137.13"/>
<polygon fill="midnightblue" stroke="midnightblue" points="714.38,-180.89 724.25,-184.73 718.93,-175.57 714.38,-180.89"/>
</g>
<!-- Node20&#45;&gt;Node6 -->
<g id="edge31" class="edge">
<title>Node20&#45;&gt;Node6</title>
<path fill="none" stroke="midnightblue" d="M784.25,-182.76C790.39,-181.48 796.59,-180.2 802.5,-179 878.65,-163.6 967.42,-146.87 1020.18,-137.05"/>
<polygon fill="midnightblue" stroke="midnightblue" points="783.08,-179.43 774.02,-184.92 784.53,-186.28 783.08,-179.43"/>
</g>
<!-- Node20&#45;&gt;Node8 -->
<g id="edge32" class="edge">
<title>Node20&#45;&gt;Node8</title>
<path fill="none" stroke="midnightblue" d="M753.31,-178.21C769.08,-165.41 791.01,-147.59 803.88,-137.13"/>
<polygon fill="midnightblue" stroke="midnightblue" points="750.84,-175.71 745.29,-184.73 755.26,-181.14 750.84,-175.71"/>
</g>
<!-- Node20&#45;&gt;Node15 -->
<g id="edge29" class="edge">
<title>Node20&#45;&gt;Node15</title>
<path fill="none" stroke="midnightblue" d="M782.15,-182.71C834.53,-170.55 912.87,-151.4 924.5,-143 961.98,-115.94 947.56,-87.39 981.5,-56 999.14,-39.68 1023.79,-27.19 1041.45,-19.56"/>
<polygon fill="midnightblue" stroke="midnightblue" points="781.32,-179.31 772.37,-184.97 782.9,-186.13 781.32,-179.31"/>
</g>
<!-- Node21&#45;&gt;Node6 -->
<g id="edge35" class="edge">
<title>Node21&#45;&gt;Node6</title>
<path fill="none" stroke="midnightblue" d="M1066.5,-174.54C1066.5,-162.17 1066.5,-146.62 1066.5,-137.13"/>
<polygon fill="midnightblue" stroke="midnightblue" points="1063,-174.73 1066.5,-184.73 1070,-174.73 1063,-174.73"/>
</g>
<!-- Node21&#45;&gt;Node16 -->
<g id="edge34" class="edge">
<title>Node21&#45;&gt;Node16</title>
<path fill="none" stroke="midnightblue" d="M1101.21,-181.44C1138.3,-168.54 1196.18,-148.42 1228.86,-137.06"/>
<polygon fill="midnightblue" stroke="midnightblue" points="1099.63,-178.28 1091.33,-184.87 1101.93,-184.89 1099.63,-178.28"/>
</g>
<!-- Node22&#45;&gt;Node10 -->
<g id="edge39" class="edge">
<title>Node22&#45;&gt;Node10</title>
<path fill="none" stroke="midnightblue" d="M251.26,-182.01C207.32,-169.15 137.13,-148.59 97.75,-137.06"/>
<polygon fill="midnightblue" stroke="midnightblue" points="250.44,-185.42 261.02,-184.87 252.41,-178.7 250.44,-185.42"/>
</g>
<!-- Node22&#45;&gt;Node19 -->
<g id="edge40" class="edge">
<title>Node22&#45;&gt;Node19</title>
<path fill="none" stroke="midnightblue" d="M260.69,-180.31C245.71,-171.95 228.98,-159.57 220.5,-143 214.22,-130.73 212.52,-123.23 220.5,-112 279.02,-29.65 409.81,-13.87 473.81,-11.23"/>
<polygon fill="midnightblue" stroke="midnightblue" points="259.21,-183.48 269.7,-184.99 262.44,-177.27 259.21,-183.48"/>
</g>
</g>
</svg>
        <g id="navigator" transform="translate(0 0)" fill="#404254">
                <rect fill="#f2f5e9" fill-opacity="0.5" stroke="#606060" stroke-width=".5" x="0" y="0" width="60" height="60"/>
                <use id="zoomplus" xlink:href="#zoomPlus" x="17" y="9" onmousedown="handleZoom(evt,'in')"/>
                <use id="zoomminus" xlink:href="#zoomMin" x="42" y="9" onmousedown="handleZoom(evt,'out')"/>
                <use id="reset" xlink:href="#resetDef" x="30" y="36" onmousedown="handleReset()"/>
                <g id="arrowUp" xlink:href="#dirArrow" transform="translate(30 24)" onmousedown="handlePan(0,-1)">
                  <use xlink:href="#rim" fill="#404040">
                        <set attributeName="fill" to="#808080" begin="arrowUp.mouseover" end="arrowUp.mouseout"/>
                  </use>
                  <path fill="none" stroke="white" stroke-width="1.5" d="M0,-3.0v7 M-2.5,-0.5L0,-3.0L2.5,-0.5"/>
                </g>
                <g id="arrowRight" xlink:href="#dirArrow" transform="rotate(90) translate(36 -43)" onmousedown="handlePan(1,0)">
                  <use xlink:href="#rim" fill="#404040">
                        <set attributeName="fill" to="#808080" begin="arrowRight.mouseover" end="arrowRight.mouseout"/>
                  </use>
                  <path fill="none" stroke="white" stroke-width="1.5" d="M0,-3.0v7 M-2.5,-0.5L0,-3.0L2.5,-0.5"/>
                </g>
                <g id="arrowDown" xlink:href="#dirArrow" transform="rotate(180) translate(-30 -48)" onmousedown="handlePan(0,1)">
                  <use xlink:href="#rim" fill="#404040">
                        <set attributeName="fill" to="#808080" begin="arrowDown.mouseover" end="arrowDown.mouseout"/>
                  </use>
                  <path fill="none" stroke="white" stroke-width="1.5" d="M0,-3.0v7 M-2.5,-0.5L0,-3.0L2.5,-0.5"/>
                </g>
                <g id="arrowLeft" xlink:href="#dirArrow" transform="rotate(270) translate(-36 17)" onmousedown="handlePan(-1,0)">
                  <use xlink:href="#rim" fill="#404040">
                        <set attributeName="fill" to="#808080" begin="arrowLeft.mouseover" end="arrowLeft.mouseout"/>
                  </use>
                  <path fill="none" stroke="white" stroke-width="1.5" d="M0,-3.0v7 M-2.5,-0.5L0,-3.0L2.5,-0.5"/>
                </g>
        </g>
        <svg viewBox="0 0 15 15" width="100%" height="30px" preserveAspectRatio="xMaxYMin meet">
         <g id="arrow_out" transform="scale(0.3 0.3)">
          <a xlink:href="LocationConfig_8hpp__dep__incl_org.svg" target="_base">
           <rect id="button" ry="5" rx="5" y="6" x="6" height="38" width="38"
                fill="#f2f5e9" fill-opacity="0.5" stroke="#606060" stroke-width="1.0"/>
           <path id="arrow"
             d="M 11.500037,31.436501 C 11.940474,20.09759 22.043105,11.32322 32.158766,21.979434 L 37.068811,17.246167 C 37.068811,17.246167 37.088388,32 37.088388,32 L 22.160133,31.978069 C 22.160133,31.978069 26.997745,27.140456 26.997745,27.140456 C 18.528582,18.264221 13.291696,25.230495 11.500037,31.436501 z"
             style="fill:#404040;"/>
          </a>
         </g>
        </svg>
</svg>
