<?xml version="1.0" encoding="UTF-8" standalone="no"?>
<!DOCTYPE svg PUBLIC "-//W3C//DTD SVG 1.1//EN"
 "http://www.w3.org/Graphics/SVG/1.1/DTD/svg11.dtd">
<!-- Generated by graphviz version 2.43.0 (0)
 -->
<!-- Title: src/main.cpp Pages: 1 -->
<!--zoomable 364 -->
<svg id="main" version="1.1" xmlns="http://www.w3.org/2000/svg" xmlns:xlink="http://www.w3.org/1999/xlink" xml:space="preserve" onload="init(evt)">
<style type="text/css"><![CDATA[
.edge:hover path { stroke: red; }
.edge:hover polygon { stroke: red; fill: red; }
]]></style>
<script type="text/javascript"><![CDATA[
var edges = document.getElementsByTagName('g');
if (edges && edges.length) {
  for (var i=0;i<edges.length;i++) {
    if (edges[i].id.substr(0,4)=='edge') {
      edges[i].setAttribute('class','edge');
    }
  }
}
]]></script>
        <defs>
                <circle id="rim" cx="0" cy="0" r="7"/>
                <circle id="rim2" cx="0" cy="0" r="3.5"/>
                <g id="zoomPlus">
                        <use xlink:href="#rim" fill="#404040">
                                <set attributeName="fill" to="#808080" begin="zoomplus.mouseover" end="zoomplus.mouseout"/>
                        </use>
                        <path d="M-4,0h8M0,-4v8" fill="none" stroke="white" stroke-width="1.5" pointer-events="none"/>
                </g>
                <g id="zoomMin">
                        <use xlink:href="#rim" fill="#404040">
                                <set attributeName="fill" to="#808080" begin="zoomminus.mouseover" end="zoomminus.mouseout"/>
                        </use>
                        <path d="M-4,0h8" fill="none" stroke="white" stroke-width="1.5" pointer-events="none"/>
                </g>
                <g id="dirArrow">
                        <path fill="none" stroke="white" stroke-width="1.5" d="M0,-3.0v7 M-2.5,-0.5L0,-3.0L2.5,-0.5"/>
                </g>
               <g id="resetDef">
                       <use xlink:href="#rim2" fill="#404040">
                               <set attributeName="fill" to="#808080" begin="reset.mouseover" end="reset.mouseout"/>
                       </use>
               </g>
        </defs>

<script type="text/javascript">
var viewWidth = 1506;
var viewHeight = 364;
var sectionId = 'dynsection-0';
</script>
<script xlink:href="svgpan.js"/>
<svg id="graph" class="graph">
<g id="viewport">
<title>src/main.cpp</title>
<polygon fill="white" stroke="transparent" points="-4,4 -4,-360 1501.85,-360 1501.85,4 -4,4"/>
<!-- Node1 -->
<g id="node1" class="node">
<title>Node1</title>
<g id="a_node1"><a xlink:title=" ">
<polygon fill="#bfbfbf" stroke="black" points="300.5,-336.5 300.5,-355.5 373.5,-355.5 373.5,-336.5 300.5,-336.5"/>
<text text-anchor="middle" x="337" y="-343.5" font-family="Helvetica,sans-Serif" font-size="10.00">src/main.cpp</text>
</a>
</g>
</g>
<!-- Node2 -->
<g id="node2" class="node">
<title>Node2</title>
<g id="a_node2"><a xlink:title=" ">
<polygon fill="white" stroke="#bfbfbf" points="0,-280.5 0,-299.5 50,-299.5 50,-280.5 0,-280.5"/>
<text text-anchor="middle" x="25" y="-287.5" font-family="Helvetica,sans-Serif" font-size="10.00">signal.h</text>
</a>
</g>
</g>
<!-- Node1&#45;&gt;Node2 -->
<g id="edge1" class="edge">
<title>Node1&#45;&gt;Node2</title>
<path fill="none" stroke="midnightblue" d="M300.22,-339.69C247.66,-331.94 148.12,-316.62 64,-300 62.73,-299.75 61.45,-299.49 60.15,-299.22"/>
<polygon fill="midnightblue" stroke="midnightblue" points="60.64,-295.74 50.12,-297.04 59.16,-302.59 60.64,-295.74"/>
</g>
<!-- Node3 -->
<g id="node3" class="node">
<title>Node3</title>
<g id="a_node3"><a xlink:title=" ">
<polygon fill="white" stroke="#bfbfbf" points="39.5,-224.5 39.5,-243.5 98.5,-243.5 98.5,-224.5 39.5,-224.5"/>
<text text-anchor="middle" x="69" y="-231.5" font-family="Helvetica,sans-Serif" font-size="10.00">exception</text>
</a>
</g>
</g>
<!-- Node1&#45;&gt;Node3 -->
<g id="edge2" class="edge">
<title>Node1&#45;&gt;Node3</title>
<path fill="none" stroke="midnightblue" d="M300.36,-342.31C241.14,-337.29 127.87,-324.69 97,-300 82.78,-288.62 75.64,-268.63 72.15,-253.81"/>
<polygon fill="midnightblue" stroke="midnightblue" points="75.52,-252.84 70.13,-243.72 68.66,-254.21 75.52,-252.84"/>
</g>
<!-- Node4 -->
<g id="node4" class="node">
<title>Node4</title>
<g id="a_node4"><a xlink:title=" ">
<polygon fill="white" stroke="#bfbfbf" points="1145,-0.5 1145,-19.5 1199,-19.5 1199,-0.5 1145,-0.5"/>
<text text-anchor="middle" x="1172" y="-7.5" font-family="Helvetica,sans-Serif" font-size="10.00">iostream</text>
</a>
</g>
</g>
<!-- Node1&#45;&gt;Node4 -->
<g id="edge3" class="edge">
<title>Node1&#45;&gt;Node4</title>
<path fill="none" stroke="midnightblue" d="M373.51,-343.44C554.86,-335.48 1353.95,-297.59 1450,-244 1483.7,-225.2 1509.62,-202.34 1492,-168 1437.07,-60.95 1280.98,-25.94 1209.09,-15.3"/>
<polygon fill="midnightblue" stroke="midnightblue" points="1209.5,-11.82 1199.11,-13.9 1208.53,-18.75 1209.5,-11.82"/>
</g>
<!-- Node5 -->
<g id="node5" class="node">
<title>Node5</title>
<g id="a_node5"><a xlink:title=" ">
<polygon fill="white" stroke="#bfbfbf" points="637.5,-0.5 637.5,-19.5 678.5,-19.5 678.5,-0.5 637.5,-0.5"/>
<text text-anchor="middle" x="658" y="-7.5" font-family="Helvetica,sans-Serif" font-size="10.00">string</text>
</a>
</g>
</g>
<!-- Node1&#45;&gt;Node5 -->
<g id="edge4" class="edge">
<title>Node1&#45;&gt;Node5</title>
<path fill="none" stroke="midnightblue" d="M337,-336.44C337,-317.94 337,-272.81 337,-235 337,-235 337,-235 337,-121 337,-82.58 360.46,-74.75 394,-56 433.62,-33.84 566.41,-19.31 627.17,-13.65"/>
<polygon fill="midnightblue" stroke="midnightblue" points="627.66,-17.12 637.3,-12.73 627.03,-10.15 627.66,-17.12"/>
</g>
<!-- Node6 -->
<g id="node6" class="node">
<title>Node6</title>
<g id="a_node6"><a xlink:href="namespaces_8hpp.html" target="_top" xlink:title=" ">
<polygon fill="white" stroke="black" points="403.5,-56.5 403.5,-75.5 534.5,-75.5 534.5,-56.5 403.5,-56.5"/>
<text text-anchor="middle" x="469" y="-63.5" font-family="Helvetica,sans-Serif" font-size="10.00">common/namespaces.hpp</text>
</a>
</g>
</g>
<!-- Node1&#45;&gt;Node6 -->
<g id="edge5" class="edge">
<title>Node1&#45;&gt;Node6</title>
<path fill="none" stroke="midnightblue" d="M348.54,-336.43C369.8,-319.57 413,-279.8 413,-235 413,-235 413,-235 413,-177 413,-146.9 417.93,-138.61 432,-112 437.6,-101.4 445.94,-90.98 453.29,-82.83"/>
<polygon fill="midnightblue" stroke="midnightblue" points="455.86,-85.2 460.17,-75.52 450.77,-80.41 455.86,-85.2"/>
</g>
<!-- Node7 -->
<g id="node7" class="node">
<title>Node7</title>
<g id="a_node7"><a xlink:href="ConfigException_8hpp.html" target="_top" xlink:title=" ">
<polygon fill="white" stroke="black" points="106.5,-280.5 106.5,-299.5 243.5,-299.5 243.5,-280.5 106.5,-280.5"/>
<text text-anchor="middle" x="175" y="-287.5" font-family="Helvetica,sans-Serif" font-size="10.00">config/ConfigException.hpp</text>
</a>
</g>
</g>
<!-- Node1&#45;&gt;Node7 -->
<g id="edge7" class="edge">
<title>Node1&#45;&gt;Node7</title>
<path fill="none" stroke="midnightblue" d="M311.33,-336.44C284.08,-327.36 240.82,-312.94 210.35,-302.78"/>
<polygon fill="midnightblue" stroke="midnightblue" points="211.14,-299.36 200.55,-299.52 208.93,-306 211.14,-299.36"/>
</g>
<!-- Node8 -->
<g id="node8" class="node">
<title>Node8</title>
<g id="a_node8"><a xlink:href="ConfigParser_8hpp.html" target="_top" xlink:title=" ">
<polygon fill="white" stroke="black" points="187.5,-168.5 187.5,-187.5 308.5,-187.5 308.5,-168.5 187.5,-168.5"/>
<text text-anchor="middle" x="248" y="-175.5" font-family="Helvetica,sans-Serif" font-size="10.00">config/ConfigParser.hpp</text>
</a>
</g>
</g>
<!-- Node1&#45;&gt;Node8 -->
<g id="edge10" class="edge">
<title>Node1&#45;&gt;Node8</title>
<path fill="none" stroke="midnightblue" d="M332.21,-336.08C318.08,-309.72 276.35,-231.88 257.47,-196.66"/>
<polygon fill="midnightblue" stroke="midnightblue" points="260.4,-194.73 252.59,-187.57 254.23,-198.04 260.4,-194.73"/>
</g>
<!-- Node15 -->
<g id="node15" class="node">
<title>Node15</title>
<g id="a_node15"><a xlink:href="ConfigUtils_8hpp.html" target="_top" xlink:title=" ">
<polygon fill="white" stroke="black" points="441.5,-112.5 441.5,-131.5 554.5,-131.5 554.5,-112.5 441.5,-112.5"/>
<text text-anchor="middle" x="498" y="-119.5" font-family="Helvetica,sans-Serif" font-size="10.00">config/ConfigUtils.hpp</text>
</a>
</g>
</g>
<!-- Node1&#45;&gt;Node15 -->
<g id="edge26" class="edge">
<title>Node1&#45;&gt;Node15</title>
<path fill="none" stroke="midnightblue" d="M366.33,-336.43C385.79,-329.42 410.67,-317.73 427,-300 470.13,-253.18 488.52,-176.85 495.01,-141.74"/>
<polygon fill="midnightblue" stroke="midnightblue" points="498.52,-141.97 496.77,-131.52 491.62,-140.78 498.52,-141.97"/>
</g>
<!-- Node16 -->
<g id="node16" class="node">
<title>Node16</title>
<g id="a_node16"><a xlink:href="ServerManager_8hpp.html" target="_top" xlink:title=" ">
<polygon fill="white" stroke="black" points="675,-280.5 675,-299.5 813,-299.5 813,-280.5 675,-280.5"/>
<text text-anchor="middle" x="744" y="-287.5" font-family="Helvetica,sans-Serif" font-size="10.00">network/ServerManager.hpp</text>
</a>
</g>
</g>
<!-- Node1&#45;&gt;Node16 -->
<g id="edge29" class="edge">
<title>Node1&#45;&gt;Node16</title>
<path fill="none" stroke="midnightblue" d="M373.84,-340.11C440.47,-331.27 582.2,-312.47 669.67,-300.86"/>
<polygon fill="midnightblue" stroke="midnightblue" points="670.34,-304.3 679.79,-299.52 669.42,-297.36 670.34,-304.3"/>
</g>
<!-- Node6&#45;&gt;Node5 -->
<g id="edge6" class="edge">
<title>Node6&#45;&gt;Node5</title>
<path fill="none" stroke="midnightblue" d="M498.95,-56.44C534.09,-46.4 592.06,-29.84 627.46,-19.73"/>
<polygon fill="midnightblue" stroke="midnightblue" points="628.59,-23.04 637.24,-16.93 626.67,-16.31 628.59,-23.04"/>
</g>
<!-- Node7&#45;&gt;Node3 -->
<g id="edge8" class="edge">
<title>Node7&#45;&gt;Node3</title>
<path fill="none" stroke="midnightblue" d="M157.97,-280.32C140.97,-271.66 114.62,-258.24 95.01,-248.25"/>
<polygon fill="midnightblue" stroke="midnightblue" points="96.49,-245.08 85.99,-243.65 93.31,-251.31 96.49,-245.08"/>
</g>
<!-- Node7&#45;&gt;Node5 -->
<g id="edge9" class="edge">
<title>Node7&#45;&gt;Node5</title>
<path fill="none" stroke="midnightblue" d="M168.33,-280.44C155.14,-262.62 127,-219.84 127,-179 127,-179 127,-179 127,-121 127,-18.17 513.66,-10.74 627.08,-10.77"/>
<polygon fill="midnightblue" stroke="midnightblue" points="627.18,-14.27 637.18,-10.79 627.19,-7.27 627.18,-14.27"/>
</g>
<!-- Node8&#45;&gt;Node5 -->
<g id="edge13" class="edge">
<title>Node8&#45;&gt;Node5</title>
<path fill="none" stroke="midnightblue" d="M228.17,-168.49C204.09,-156.91 168.49,-134.97 184,-112 234.26,-37.56 530.36,-17.04 627.3,-12.27"/>
<polygon fill="midnightblue" stroke="midnightblue" points="627.51,-15.77 637.34,-11.8 627.18,-8.77 627.51,-15.77"/>
</g>
<!-- Node9 -->
<g id="node9" class="node">
<title>Node9</title>
<g id="a_node9"><a xlink:title=" ">
<polygon fill="white" stroke="#bfbfbf" points="193,-112.5 193,-131.5 243,-131.5 243,-112.5 193,-112.5"/>
<text text-anchor="middle" x="218" y="-119.5" font-family="Helvetica,sans-Serif" font-size="10.00">fstream</text>
</a>
</g>
</g>
<!-- Node8&#45;&gt;Node9 -->
<g id="edge11" class="edge">
<title>Node8&#45;&gt;Node9</title>
<path fill="none" stroke="midnightblue" d="M243.05,-168.08C238.9,-160.61 232.85,-149.72 227.73,-140.52"/>
<polygon fill="midnightblue" stroke="midnightblue" points="230.78,-138.79 222.86,-131.75 224.66,-142.19 230.78,-138.79"/>
</g>
<!-- Node10 -->
<g id="node10" class="node">
<title>Node10</title>
<g id="a_node10"><a xlink:title=" ">
<polygon fill="white" stroke="#bfbfbf" points="261.5,-112.5 261.5,-131.5 308.5,-131.5 308.5,-112.5 261.5,-112.5"/>
<text text-anchor="middle" x="285" y="-119.5" font-family="Helvetica,sans-Serif" font-size="10.00">iterator</text>
</a>
</g>
</g>
<!-- Node8&#45;&gt;Node10 -->
<g id="edge12" class="edge">
<title>Node8&#45;&gt;Node10</title>
<path fill="none" stroke="midnightblue" d="M254.11,-168.08C259.28,-160.53 266.85,-149.49 273.19,-140.23"/>
<polygon fill="midnightblue" stroke="midnightblue" points="276.24,-141.98 279,-131.75 270.46,-138.02 276.24,-141.98"/>
</g>
<!-- Node11 -->
<g id="node11" class="node">
<title>Node11</title>
<g id="a_node11"><a xlink:title=" ">
<polygon fill="white" stroke="#bfbfbf" points="992,-0.5 992,-19.5 1036,-19.5 1036,-0.5 992,-0.5"/>
<text text-anchor="middle" x="1014" y="-7.5" font-family="Helvetica,sans-Serif" font-size="10.00">vector</text>
</a>
</g>
</g>
<!-- Node8&#45;&gt;Node11 -->
<g id="edge14" class="edge">
<title>Node8&#45;&gt;Node11</title>
<path fill="none" stroke="midnightblue" d="M262.86,-168.5C277.25,-160 299.41,-146.18 317,-132 354.44,-101.83 350.21,-75.85 394,-56 447.73,-31.64 861.96,-16.06 981.69,-12.04"/>
<polygon fill="midnightblue" stroke="midnightblue" points="981.83,-15.54 991.71,-11.71 981.6,-8.54 981.83,-15.54"/>
</g>
<!-- Node12 -->
<g id="node12" class="node">
<title>Node12</title>
<g id="a_node12"><a xlink:href="ServerConfig_8hpp.html" target="_top" xlink:title=" ">
<polygon fill="white" stroke="black" points="854,-112.5 854,-131.5 946,-131.5 946,-112.5 854,-112.5"/>
<text text-anchor="middle" x="900" y="-119.5" font-family="Helvetica,sans-Serif" font-size="10.00">ServerConfig.hpp</text>
</a>
</g>
</g>
<!-- Node8&#45;&gt;Node12 -->
<g id="edge15" class="edge">
<title>Node8&#45;&gt;Node12</title>
<path fill="none" stroke="midnightblue" d="M308.65,-174.11C414.79,-168.67 641.29,-155.44 843.67,-131.92"/>
<polygon fill="midnightblue" stroke="midnightblue" points="844.37,-135.37 853.9,-130.72 843.56,-128.41 844.37,-135.37"/>
</g>
<!-- Node12&#45;&gt;Node4 -->
<g id="edge16" class="edge">
<title>Node12&#45;&gt;Node4</title>
<path fill="none" stroke="midnightblue" d="M946.09,-113.42C982,-106.49 1032.53,-94.49 1074,-76 1103.78,-62.72 1134.54,-40.71 1153.47,-26.04"/>
<polygon fill="midnightblue" stroke="midnightblue" points="1155.85,-28.62 1161.53,-19.68 1151.51,-23.13 1155.85,-28.62"/>
</g>
<!-- Node12&#45;&gt;Node5 -->
<g id="edge18" class="edge">
<title>Node12&#45;&gt;Node5</title>
<path fill="none" stroke="midnightblue" d="M889.02,-112.32C871.37,-98.7 835.18,-72.21 801,-56 763.77,-38.34 717.89,-25.31 688.3,-17.94"/>
<polygon fill="midnightblue" stroke="midnightblue" points="689.1,-14.53 678.56,-15.57 687.45,-21.33 689.1,-14.53"/>
</g>
<!-- Node12&#45;&gt;Node6 -->
<g id="edge25" class="edge">
<title>Node12&#45;&gt;Node6</title>
<path fill="none" stroke="midnightblue" d="M853.88,-113.44C850.54,-112.94 847.22,-112.45 844,-112 740.53,-97.48 620.58,-83.6 544.75,-75.19"/>
<polygon fill="midnightblue" stroke="midnightblue" points="545.14,-71.71 534.81,-74.09 544.37,-78.67 545.14,-71.71"/>
</g>
<!-- Node12&#45;&gt;Node11 -->
<g id="edge19" class="edge">
<title>Node12&#45;&gt;Node11</title>
<path fill="none" stroke="midnightblue" d="M906.08,-112.46C915.52,-99.49 934.66,-74.41 954,-56 965.88,-44.7 980.58,-33.63 992.47,-25.3"/>
<polygon fill="midnightblue" stroke="midnightblue" points="994.64,-28.05 1000.91,-19.5 990.68,-22.28 994.64,-28.05"/>
</g>
<!-- Node13 -->
<g id="node13" class="node">
<title>Node13</title>
<g id="a_node13"><a xlink:title=" ">
<polygon fill="white" stroke="#bfbfbf" points="1317.5,-0.5 1317.5,-19.5 1352.5,-19.5 1352.5,-0.5 1317.5,-0.5"/>
<text text-anchor="middle" x="1335" y="-7.5" font-family="Helvetica,sans-Serif" font-size="10.00">map</text>
</a>
</g>
</g>
<!-- Node12&#45;&gt;Node13 -->
<g id="edge17" class="edge">
<title>Node12&#45;&gt;Node13</title>
<path fill="none" stroke="midnightblue" d="M946.24,-118.87C1048.72,-113.74 1288.08,-99.38 1316,-76 1329.36,-64.81 1333.62,-44.79 1334.84,-29.91"/>
<polygon fill="midnightblue" stroke="midnightblue" points="1338.34,-29.91 1335.28,-19.77 1331.35,-29.61 1338.34,-29.91"/>
</g>
<!-- Node14 -->
<g id="node14" class="node">
<title>Node14</title>
<g id="a_node14"><a xlink:href="LocationConfig_8hpp.html" target="_top" xlink:title=" ">
<polygon fill="white" stroke="black" points="963.5,-56.5 963.5,-75.5 1064.5,-75.5 1064.5,-56.5 963.5,-56.5"/>
<text text-anchor="middle" x="1014" y="-63.5" font-family="Helvetica,sans-Serif" font-size="10.00">LocationConfig.hpp</text>
</a>
</g>
</g>
<!-- Node12&#45;&gt;Node14 -->
<g id="edge20" class="edge">
<title>Node12&#45;&gt;Node14</title>
<path fill="none" stroke="midnightblue" d="M918.06,-112.44C936.57,-103.68 965.58,-89.94 986.86,-79.86"/>
<polygon fill="midnightblue" stroke="midnightblue" points="988.48,-82.96 996.02,-75.52 985.49,-76.63 988.48,-82.96"/>
</g>
<!-- Node14&#45;&gt;Node4 -->
<g id="edge21" class="edge">
<title>Node14&#45;&gt;Node4</title>
<path fill="none" stroke="midnightblue" d="M1039.04,-56.44C1065.62,-47.36 1107.81,-32.94 1137.52,-22.78"/>
<polygon fill="midnightblue" stroke="midnightblue" points="1138.75,-26.06 1147.08,-19.52 1136.49,-19.44 1138.75,-26.06"/>
</g>
<!-- Node14&#45;&gt;Node5 -->
<g id="edge23" class="edge">
<title>Node14&#45;&gt;Node5</title>
<path fill="none" stroke="midnightblue" d="M963.37,-57.32C888.4,-45.95 750.12,-24.97 688.74,-15.66"/>
<polygon fill="midnightblue" stroke="midnightblue" points="688.96,-12.16 678.55,-14.12 687.91,-19.08 688.96,-12.16"/>
</g>
<!-- Node14&#45;&gt;Node11 -->
<g id="edge24" class="edge">
<title>Node14&#45;&gt;Node11</title>
<path fill="none" stroke="midnightblue" d="M1014,-56.08C1014,-49.01 1014,-38.86 1014,-29.99"/>
<polygon fill="midnightblue" stroke="midnightblue" points="1017.5,-29.75 1014,-19.75 1010.5,-29.75 1017.5,-29.75"/>
</g>
<!-- Node14&#45;&gt;Node13 -->
<g id="edge22" class="edge">
<title>Node14&#45;&gt;Node13</title>
<path fill="none" stroke="midnightblue" d="M1064.51,-56.5C1133.06,-44.97 1253.18,-24.76 1307.25,-15.67"/>
<polygon fill="midnightblue" stroke="midnightblue" points="1308.16,-19.06 1317.44,-13.95 1307,-12.16 1308.16,-19.06"/>
</g>
<!-- Node15&#45;&gt;Node6 -->
<g id="edge28" class="edge">
<title>Node15&#45;&gt;Node6</title>
<path fill="none" stroke="midnightblue" d="M493.21,-112.08C489.24,-104.69 483.47,-93.95 478.57,-84.81"/>
<polygon fill="midnightblue" stroke="midnightblue" points="481.51,-82.91 473.7,-75.75 475.35,-86.22 481.51,-82.91"/>
</g>
<!-- Node15&#45;&gt;Node11 -->
<g id="edge27" class="edge">
<title>Node15&#45;&gt;Node11</title>
<path fill="none" stroke="midnightblue" d="M520.49,-112.43C557.57,-98.61 634.11,-71.4 701,-56 802.02,-32.74 924.31,-19.31 981.53,-13.86"/>
<polygon fill="midnightblue" stroke="midnightblue" points="982.12,-17.32 991.76,-12.91 981.47,-10.35 982.12,-17.32"/>
</g>
<!-- Node16&#45;&gt;Node11 -->
<g id="edge31" class="edge">
<title>Node16&#45;&gt;Node11</title>
<path fill="none" stroke="midnightblue" d="M739.73,-280.21C723.67,-245.79 671.01,-118.99 734,-56 768.3,-21.7 915.66,-13.54 981.73,-11.6"/>
<polygon fill="midnightblue" stroke="midnightblue" points="982.07,-15.1 991.98,-11.33 981.89,-8.1 982.07,-15.1"/>
</g>
<!-- Node16&#45;&gt;Node12 -->
<g id="edge63" class="edge">
<title>Node16&#45;&gt;Node12</title>
<path fill="none" stroke="midnightblue" d="M752.39,-280.08C777.58,-253.27 852.83,-173.19 885.07,-138.89"/>
<polygon fill="midnightblue" stroke="midnightblue" points="887.65,-141.25 891.95,-131.57 882.55,-136.46 887.65,-141.25"/>
</g>
<!-- Node16&#45;&gt;Node13 -->
<g id="edge30" class="edge">
<title>Node16&#45;&gt;Node13</title>
<path fill="none" stroke="midnightblue" d="M813,-283.43C884.36,-276.91 998.76,-264.34 1096,-244 1182.59,-225.89 1204.61,-220.21 1287,-188 1300.05,-182.9 1392.4,-143.77 1400,-132 1418.32,-103.61 1417.89,-85.82 1402,-56 1393.51,-40.07 1376.61,-28.78 1361.9,-21.49"/>
<polygon fill="midnightblue" stroke="midnightblue" points="1363.22,-18.25 1352.67,-17.27 1360.31,-24.61 1363.22,-18.25"/>
</g>
<!-- Node17 -->
<g id="node17" class="node">
<title>Node17</title>
<g id="a_node17"><a xlink:href="EpollWrapper_8hpp.html" target="_top" xlink:title=" ">
<polygon fill="white" stroke="black" points="1349,-224.5 1349,-243.5 1441,-243.5 1441,-224.5 1349,-224.5"/>
<text text-anchor="middle" x="1395" y="-231.5" font-family="Helvetica,sans-Serif" font-size="10.00">EpollWrapper.hpp</text>
</a>
</g>
</g>
<!-- Node16&#45;&gt;Node17 -->
<g id="edge32" class="edge">
<title>Node16&#45;&gt;Node17</title>
<path fill="none" stroke="midnightblue" d="M813.3,-285.37C923.86,-279.2 1146.86,-265.24 1335,-244 1336.27,-243.86 1337.55,-243.71 1338.84,-243.55"/>
<polygon fill="midnightblue" stroke="midnightblue" points="1339.38,-247.01 1348.86,-242.27 1338.49,-240.07 1339.38,-247.01"/>
</g>
<!-- Node20 -->
<g id="node20" class="node">
<title>Node20</title>
<g id="a_node20"><a xlink:href="TcpListener_8hpp.html" target="_top" xlink:title=" ">
<polygon fill="white" stroke="black" points="576,-224.5 576,-243.5 660,-243.5 660,-224.5 576,-224.5"/>
<text text-anchor="middle" x="618" y="-231.5" font-family="Helvetica,sans-Serif" font-size="10.00">TcpListener.hpp</text>
</a>
</g>
</g>
<!-- Node16&#45;&gt;Node20 -->
<g id="edge35" class="edge">
<title>Node16&#45;&gt;Node20</title>
<path fill="none" stroke="midnightblue" d="M724.03,-280.44C703.39,-271.6 670.94,-257.69 647.37,-247.59"/>
<polygon fill="midnightblue" stroke="midnightblue" points="648.44,-244.24 637.87,-243.52 645.68,-250.67 648.44,-244.24"/>
</g>
<!-- Node21 -->
<g id="node21" class="node">
<title>Node21</title>
<g id="a_node21"><a xlink:href="Client_8hpp.html" target="_top" xlink:title=" ">
<polygon fill="white" stroke="black" points="999.5,-224.5 999.5,-243.5 1086.5,-243.5 1086.5,-224.5 999.5,-224.5"/>
<text text-anchor="middle" x="1043" y="-231.5" font-family="Helvetica,sans-Serif" font-size="10.00">client/Client.hpp</text>
</a>
</g>
</g>
<!-- Node16&#45;&gt;Node21 -->
<g id="edge37" class="edge">
<title>Node16&#45;&gt;Node21</title>
<path fill="none" stroke="midnightblue" d="M791.38,-280.44C845.17,-270.73 932.75,-254.91 989.1,-244.73"/>
<polygon fill="midnightblue" stroke="midnightblue" points="990.03,-248.12 999.25,-242.9 988.79,-241.23 990.03,-248.12"/>
</g>
<!-- Node18 -->
<g id="node18" class="node">
<title>Node18</title>
<g id="a_node18"><a xlink:title=" ">
<polygon fill="white" stroke="#bfbfbf" points="1349,-168.5 1349,-187.5 1413,-187.5 1413,-168.5 1349,-168.5"/>
<text text-anchor="middle" x="1381" y="-175.5" font-family="Helvetica,sans-Serif" font-size="10.00">sys/epoll.h</text>
</a>
</g>
</g>
<!-- Node17&#45;&gt;Node18 -->
<g id="edge33" class="edge">
<title>Node17&#45;&gt;Node18</title>
<path fill="none" stroke="midnightblue" d="M1392.69,-224.08C1390.83,-216.93 1388.16,-206.64 1385.85,-197.69"/>
<polygon fill="midnightblue" stroke="midnightblue" points="1389.17,-196.55 1383.27,-187.75 1382.39,-198.31 1389.17,-196.55"/>
</g>
<!-- Node19 -->
<g id="node19" class="node">
<title>Node19</title>
<g id="a_node19"><a xlink:title=" ">
<polygon fill="white" stroke="#bfbfbf" points="1431.5,-168.5 1431.5,-187.5 1482.5,-187.5 1482.5,-168.5 1431.5,-168.5"/>
<text text-anchor="middle" x="1457" y="-175.5" font-family="Helvetica,sans-Serif" font-size="10.00">unistd.h</text>
</a>
</g>
</g>
<!-- Node17&#45;&gt;Node19 -->
<g id="edge34" class="edge">
<title>Node17&#45;&gt;Node19</title>
<path fill="none" stroke="midnightblue" d="M1404.96,-224.32C1414.13,-216.34 1427.94,-204.31 1439.03,-194.65"/>
<polygon fill="midnightblue" stroke="midnightblue" points="1441.62,-197.04 1446.86,-187.83 1437.02,-191.76 1441.62,-197.04"/>
</g>
<!-- Node20&#45;&gt;Node5 -->
<g id="edge36" class="edge">
<title>Node20&#45;&gt;Node5</title>
<path fill="none" stroke="midnightblue" d="M616.59,-224.19C612.72,-197.78 603.6,-117.26 625,-56 628.66,-45.52 635.65,-35.41 642.26,-27.44"/>
<polygon fill="midnightblue" stroke="midnightblue" points="645.1,-29.51 649.11,-19.7 639.86,-24.87 645.1,-29.51"/>
</g>
<!-- Node21&#45;&gt;Node5 -->
<g id="edge40" class="edge">
<title>Node21&#45;&gt;Node5</title>
<path fill="none" stroke="midnightblue" d="M999.35,-230.05C932.63,-223.38 804.64,-201.74 725,-132 692.59,-103.63 672.71,-55.61 663.7,-29.41"/>
<polygon fill="midnightblue" stroke="midnightblue" points="666.94,-28.05 660.51,-19.63 660.29,-30.22 666.94,-28.05"/>
</g>
<!-- Node21&#45;&gt;Node11 -->
<g id="edge41" class="edge">
<title>Node21&#45;&gt;Node11</title>
<path fill="none" stroke="midnightblue" d="M1049.55,-224.3C1068.85,-197.52 1122.16,-114.57 1089,-56 1079.71,-39.59 1061.77,-28.51 1045.77,-21.45"/>
<polygon fill="midnightblue" stroke="midnightblue" points="1046.74,-18.06 1036.16,-17.56 1044.12,-24.55 1046.74,-18.06"/>
</g>
<!-- Node21&#45;&gt;Node12 -->
<g id="edge56" class="edge">
<title>Node21&#45;&gt;Node12</title>
<path fill="none" stroke="midnightblue" d="M1004.41,-224.47C981.43,-217.76 952.95,-206.39 933,-188 919.36,-175.42 910.52,-155.93 905.45,-141.57"/>
<polygon fill="midnightblue" stroke="midnightblue" points="908.7,-140.23 902.3,-131.79 902.04,-142.38 908.7,-140.23"/>
</g>
<!-- Node22 -->
<g id="node22" class="node">
<title>Node22</title>
<g id="a_node22"><a xlink:title=" ">
<polygon fill="white" stroke="#bfbfbf" points="1114.5,-168.5 1114.5,-187.5 1155.5,-187.5 1155.5,-168.5 1114.5,-168.5"/>
<text text-anchor="middle" x="1135" y="-175.5" font-family="Helvetica,sans-Serif" font-size="10.00">ctime</text>
</a>
</g>
</g>
<!-- Node21&#45;&gt;Node22 -->
<g id="edge38" class="edge">
<title>Node21&#45;&gt;Node22</title>
<path fill="none" stroke="midnightblue" d="M1057.78,-224.32C1072.27,-215.82 1094.57,-202.73 1111.49,-192.8"/>
<polygon fill="midnightblue" stroke="midnightblue" points="1113.4,-195.74 1120.26,-187.65 1109.86,-189.7 1113.4,-195.74"/>
</g>
<!-- Node23 -->
<g id="node23" class="node">
<title>Node23</title>
<g id="a_node23"><a xlink:title=" ">
<polygon fill="white" stroke="#bfbfbf" points="1173.5,-168.5 1173.5,-187.5 1216.5,-187.5 1216.5,-168.5 1173.5,-168.5"/>
<text text-anchor="middle" x="1195" y="-175.5" font-family="Helvetica,sans-Serif" font-size="10.00">queue</text>
</a>
</g>
</g>
<!-- Node21&#45;&gt;Node23 -->
<g id="edge39" class="edge">
<title>Node21&#45;&gt;Node23</title>
<path fill="none" stroke="midnightblue" d="M1067.08,-224.44C1093.29,-215.13 1135.28,-200.22 1163.95,-190.03"/>
<polygon fill="midnightblue" stroke="midnightblue" points="1165.23,-193.29 1173.49,-186.64 1162.89,-186.69 1165.23,-193.29"/>
</g>
<!-- Node24 -->
<g id="node24" class="node">
<title>Node24</title>
<g id="a_node24"><a xlink:href="RequestProcessor_8hpp.html" target="_top" xlink:title=" ">
<polygon fill="white" stroke="black" points="942,-168.5 942,-187.5 1058,-187.5 1058,-168.5 942,-168.5"/>
<text text-anchor="middle" x="1000" y="-175.5" font-family="Helvetica,sans-Serif" font-size="10.00">RequestProcessor.hpp</text>
</a>
</g>
</g>
<!-- Node21&#45;&gt;Node24 -->
<g id="edge42" class="edge">
<title>Node21&#45;&gt;Node24</title>
<path fill="none" stroke="midnightblue" d="M1035.9,-224.08C1029.76,-216.38 1020.73,-205.03 1013.26,-195.65"/>
<polygon fill="midnightblue" stroke="midnightblue" points="1015.94,-193.39 1006.97,-187.75 1010.46,-197.75 1015.94,-193.39"/>
</g>
<!-- Node25 -->
<g id="node25" class="node">
<title>Node25</title>
<g id="a_node25"><a xlink:href="HttpRequest_8hpp.html" target="_top" xlink:title=" ">
<polygon fill="white" stroke="black" points="1197,-56.5 1197,-75.5 1307,-75.5 1307,-56.5 1197,-56.5"/>
<text text-anchor="middle" x="1252" y="-63.5" font-family="Helvetica,sans-Serif" font-size="10.00">http/HttpRequest.hpp</text>
</a>
</g>
</g>
<!-- Node21&#45;&gt;Node25 -->
<g id="edge61" class="edge">
<title>Node21&#45;&gt;Node25</title>
<path fill="none" stroke="midnightblue" d="M1086.65,-227.63C1134.46,-220.86 1206.91,-207.66 1226,-188 1252.73,-160.47 1254.82,-112.47 1253.64,-85.96"/>
<polygon fill="midnightblue" stroke="midnightblue" points="1257.12,-85.48 1252.97,-75.73 1250.13,-85.94 1257.12,-85.48"/>
</g>
<!-- Node26 -->
<g id="node26" class="node">
<title>Node26</title>
<g id="a_node26"><a xlink:href="HttpResponse_8hpp.html" target="_top" xlink:title=" ">
<polygon fill="white" stroke="black" points="1273,-112.5 1273,-131.5 1391,-131.5 1391,-112.5 1273,-112.5"/>
<text text-anchor="middle" x="1332" y="-119.5" font-family="Helvetica,sans-Serif" font-size="10.00">http/HttpResponse.hpp</text>
</a>
</g>
</g>
<!-- Node21&#45;&gt;Node26 -->
<g id="edge62" class="edge">
<title>Node21&#45;&gt;Node26</title>
<path fill="none" stroke="midnightblue" d="M1086.56,-230.54C1131.8,-226.51 1203.57,-215.91 1259,-188 1282.79,-176.02 1304.84,-154.3 1318.35,-139.29"/>
<polygon fill="midnightblue" stroke="midnightblue" points="1321,-141.58 1324.93,-131.74 1315.72,-136.97 1321,-141.58"/>
</g>
<!-- Node27 -->
<g id="node27" class="node">
<title>Node27</title>
<g id="a_node27"><a xlink:href="HttpParser_8hpp.html" target="_top" xlink:title=" ">
<polygon fill="white" stroke="black" points="734.5,-112.5 734.5,-131.5 835.5,-131.5 835.5,-112.5 734.5,-112.5"/>
<text text-anchor="middle" x="785" y="-119.5" font-family="Helvetica,sans-Serif" font-size="10.00">http/HttpParser.hpp</text>
</a>
</g>
</g>
<!-- Node21&#45;&gt;Node27 -->
<g id="edge57" class="edge">
<title>Node21&#45;&gt;Node27</title>
<path fill="none" stroke="midnightblue" d="M1015.65,-224.49C989.48,-216.09 949.05,-202.43 915,-188 877.51,-172.11 835.62,-150.42 809.78,-136.56"/>
<polygon fill="midnightblue" stroke="midnightblue" points="811.17,-133.33 800.71,-131.66 807.84,-139.49 811.17,-133.33"/>
</g>
<!-- Node24&#45;&gt;Node5 -->
<g id="edge43" class="edge">
<title>Node24&#45;&gt;Node5</title>
<path fill="none" stroke="midnightblue" d="M995.92,-168.32C989.13,-154.71 974.35,-128.23 955,-112 874.66,-44.63 747.19,-21.47 688.91,-14.12"/>
<polygon fill="midnightblue" stroke="midnightblue" points="689.2,-10.63 678.86,-12.93 688.38,-17.59 689.2,-10.63"/>
</g>
<!-- Node24&#45;&gt;Node11 -->
<g id="edge44" class="edge">
<title>Node24&#45;&gt;Node11</title>
<path fill="none" stroke="midnightblue" d="M1009.39,-168.4C1026.25,-152.26 1061.09,-115.46 1074,-76 1076.76,-67.55 1077.98,-63.95 1074,-56 1067.27,-42.54 1054.39,-32.07 1042.29,-24.62"/>
<polygon fill="midnightblue" stroke="midnightblue" points="1043.72,-21.41 1033.3,-19.52 1040.27,-27.5 1043.72,-21.41"/>
</g>
<!-- Node24&#45;&gt;Node12 -->
<g id="edge45" class="edge">
<title>Node24&#45;&gt;Node12</title>
<path fill="none" stroke="midnightblue" d="M983.93,-168.32C968.04,-159.74 943.49,-146.49 925.04,-136.52"/>
<polygon fill="midnightblue" stroke="midnightblue" points="926.49,-133.33 916.03,-131.65 923.16,-139.49 926.49,-133.33"/>
</g>
<!-- Node24&#45;&gt;Node25 -->
<g id="edge46" class="edge">
<title>Node24&#45;&gt;Node25</title>
<path fill="none" stroke="midnightblue" d="M1036.05,-168.44C1065.95,-160.73 1109.19,-148.14 1145,-132 1176.76,-117.69 1210.7,-95.82 1231.63,-81.46"/>
<polygon fill="midnightblue" stroke="midnightblue" points="1233.81,-84.21 1240.02,-75.63 1229.81,-78.46 1233.81,-84.21"/>
</g>
<!-- Node24&#45;&gt;Node26 -->
<g id="edge51" class="edge">
<title>Node24&#45;&gt;Node26</title>
<path fill="none" stroke="midnightblue" d="M1052.61,-168.44C1111.49,-158.87 1206.85,-143.36 1269.49,-133.17"/>
<polygon fill="midnightblue" stroke="midnightblue" points="1270.33,-136.58 1279.64,-131.52 1269.21,-129.67 1270.33,-136.58"/>
</g>
<!-- Node25&#45;&gt;Node4 -->
<g id="edge47" class="edge">
<title>Node25&#45;&gt;Node4</title>
<path fill="none" stroke="midnightblue" d="M1239.15,-56.32C1226.78,-47.98 1207.87,-35.21 1193.26,-25.35"/>
<polygon fill="midnightblue" stroke="midnightblue" points="1195.07,-22.35 1184.82,-19.65 1191.15,-28.15 1195.07,-22.35"/>
</g>
<!-- Node25&#45;&gt;Node5 -->
<g id="edge49" class="edge">
<title>Node25&#45;&gt;Node5</title>
<path fill="none" stroke="midnightblue" d="M1196.92,-59.99C1074.65,-48.88 783.89,-22.44 688.73,-13.79"/>
<polygon fill="midnightblue" stroke="midnightblue" points="688.89,-10.29 678.62,-12.87 688.26,-17.27 688.89,-10.29"/>
</g>
<!-- Node25&#45;&gt;Node11 -->
<g id="edge50" class="edge">
<title>Node25&#45;&gt;Node11</title>
<path fill="none" stroke="midnightblue" d="M1214.29,-56.44C1167.81,-45.9 1089.65,-28.16 1045.98,-18.26"/>
<polygon fill="midnightblue" stroke="midnightblue" points="1046.7,-14.83 1036.18,-16.03 1045.15,-21.66 1046.7,-14.83"/>
</g>
<!-- Node25&#45;&gt;Node13 -->
<g id="edge48" class="edge">
<title>Node25&#45;&gt;Node13</title>
<path fill="none" stroke="midnightblue" d="M1265.34,-56.32C1278.16,-47.98 1297.78,-35.21 1312.94,-25.35"/>
<polygon fill="midnightblue" stroke="midnightblue" points="1315.22,-28.04 1321.7,-19.65 1311.41,-22.17 1315.22,-28.04"/>
</g>
<!-- Node26&#45;&gt;Node5 -->
<g id="edge53" class="edge">
<title>Node26&#45;&gt;Node5</title>
<path fill="none" stroke="midnightblue" d="M1272.92,-119.72C1197.55,-116.79 1063.82,-107.21 954,-76 933.73,-70.24 931.1,-62.34 911,-56 833.08,-31.41 737.16,-18.97 688.87,-13.88"/>
<polygon fill="midnightblue" stroke="midnightblue" points="689.07,-10.39 678.77,-12.85 688.36,-17.35 689.07,-10.39"/>
</g>
<!-- Node26&#45;&gt;Node11 -->
<g id="edge54" class="edge">
<title>Node26&#45;&gt;Node11</title>
<path fill="none" stroke="midnightblue" d="M1332.65,-112.34C1333.19,-98.27 1331.98,-70.55 1316,-56 1296.25,-38.01 1120.34,-20.45 1046.46,-13.8"/>
<polygon fill="midnightblue" stroke="midnightblue" points="1046.6,-10.3 1036.32,-12.9 1045.98,-17.27 1046.6,-10.3"/>
</g>
<!-- Node26&#45;&gt;Node13 -->
<g id="edge52" class="edge">
<title>Node26&#45;&gt;Node13</title>
<path fill="none" stroke="midnightblue" d="M1349.2,-112.39C1362.25,-104.79 1379.23,-92.39 1387,-76 1396.31,-56.36 1376.73,-37.36 1359,-25.03"/>
<polygon fill="midnightblue" stroke="midnightblue" points="1360.86,-22.07 1350.58,-19.54 1357.04,-27.93 1360.86,-22.07"/>
</g>
<!-- Node26&#45;&gt;Node25 -->
<g id="edge55" class="edge">
<title>Node26&#45;&gt;Node25</title>
<path fill="none" stroke="midnightblue" d="M1319.15,-112.32C1306.78,-103.98 1287.87,-91.21 1273.26,-81.35"/>
<polygon fill="midnightblue" stroke="midnightblue" points="1275.07,-78.35 1264.82,-75.65 1271.15,-84.15 1275.07,-78.35"/>
</g>
<!-- Node27&#45;&gt;Node5 -->
<g id="edge59" class="edge">
<title>Node27&#45;&gt;Node5</title>
<path fill="none" stroke="midnightblue" d="M775.03,-112.37C753.61,-93.81 702.93,-49.91 675.82,-26.44"/>
<polygon fill="midnightblue" stroke="midnightblue" points="677.77,-23.49 667.92,-19.59 673.19,-28.78 677.77,-23.49"/>
</g>
<!-- Node27&#45;&gt;Node25 -->
<g id="edge60" class="edge">
<title>Node27&#45;&gt;Node25</title>
<path fill="none" stroke="midnightblue" d="M835.72,-113.25C838.86,-112.82 841.97,-112.39 845,-112 965.5,-96.31 1106.55,-81.51 1186.97,-73.41"/>
<polygon fill="midnightblue" stroke="midnightblue" points="1187.35,-76.88 1196.95,-72.4 1186.65,-69.92 1187.35,-76.88"/>
</g>
<!-- Node28 -->
<g id="node28" class="node">
<title>Node28</title>
<g id="a_node28"><a xlink:title=" ">
<polygon fill="white" stroke="#bfbfbf" points="743.5,-56.5 743.5,-75.5 792.5,-75.5 792.5,-56.5 743.5,-56.5"/>
<text text-anchor="middle" x="768" y="-63.5" font-family="Helvetica,sans-Serif" font-size="10.00">cstddef</text>
</a>
</g>
</g>
<!-- Node27&#45;&gt;Node28 -->
<g id="edge58" class="edge">
<title>Node27&#45;&gt;Node28</title>
<path fill="none" stroke="midnightblue" d="M782.19,-112.08C779.92,-104.85 776.63,-94.41 773.79,-85.4"/>
<polygon fill="midnightblue" stroke="midnightblue" points="777.1,-84.24 770.75,-75.75 770.42,-86.34 777.1,-84.24"/>
</g>
</g>
</svg>
        <g id="navigator" transform="translate(0 0)" fill="#404254">
                <rect fill="#f2f5e9" fill-opacity="0.5" stroke="#606060" stroke-width=".5" x="0" y="0" width="60" height="60"/>
                <use id="zoomplus" xlink:href="#zoomPlus" x="17" y="9" onmousedown="handleZoom(evt,'in')"/>
                <use id="zoomminus" xlink:href="#zoomMin" x="42" y="9" onmousedown="handleZoom(evt,'out')"/>
                <use id="reset" xlink:href="#resetDef" x="30" y="36" onmousedown="handleReset()"/>
                <g id="arrowUp" xlink:href="#dirArrow" transform="translate(30 24)" onmousedown="handlePan(0,-1)">
                  <use xlink:href="#rim" fill="#404040">
                        <set attributeName="fill" to="#808080" begin="arrowUp.mouseover" end="arrowUp.mouseout"/>
                  </use>
                  <path fill="none" stroke="white" stroke-width="1.5" d="M0,-3.0v7 M-2.5,-0.5L0,-3.0L2.5,-0.5"/>
                </g>
                <g id="arrowRight" xlink:href="#dirArrow" transform="rotate(90) translate(36 -43)" onmousedown="handlePan(1,0)">
                  <use xlink:href="#rim" fill="#404040">
                        <set attributeName="fill" to="#808080" begin="arrowRight.mouseover" end="arrowRight.mouseout"/>
                  </use>
                  <path fill="none" stroke="white" stroke-width="1.5" d="M0,-3.0v7 M-2.5,-0.5L0,-3.0L2.5,-0.5"/>
                </g>
                <g id="arrowDown" xlink:href="#dirArrow" transform="rotate(180) translate(-30 -48)" onmousedown="handlePan(0,1)">
                  <use xlink:href="#rim" fill="#404040">
                        <set attributeName="fill" to="#808080" begin="arrowDown.mouseover" end="arrowDown.mouseout"/>
                  </use>
                  <path fill="none" stroke="white" stroke-width="1.5" d="M0,-3.0v7 M-2.5,-0.5L0,-3.0L2.5,-0.5"/>
                </g>
                <g id="arrowLeft" xlink:href="#dirArrow" transform="rotate(270) translate(-36 17)" onmousedown="handlePan(-1,0)">
                  <use xlink:href="#rim" fill="#404040">
                        <set attributeName="fill" to="#808080" begin="arrowLeft.mouseover" end="arrowLeft.mouseout"/>
                  </use>
                  <path fill="none" stroke="white" stroke-width="1.5" d="M0,-3.0v7 M-2.5,-0.5L0,-3.0L2.5,-0.5"/>
                </g>
        </g>
        <svg viewBox="0 0 15 15" width="100%" height="30px" preserveAspectRatio="xMaxYMin meet">
         <g id="arrow_out" transform="scale(0.3 0.3)">
          <a xlink:href="main_8cpp__incl_org.svg" target="_base">
           <rect id="button" ry="5" rx="5" y="6" x="6" height="38" width="38"
                fill="#f2f5e9" fill-opacity="0.5" stroke="#606060" stroke-width="1.0"/>
           <path id="arrow"
             d="M 11.500037,31.436501 C 11.940474,20.09759 22.043105,11.32322 32.158766,21.979434 L 37.068811,17.246167 C 37.068811,17.246167 37.088388,32 37.088388,32 L 22.160133,31.978069 C 22.160133,31.978069 26.997745,27.140456 26.997745,27.140456 C 18.528582,18.264221 13.291696,25.230495 11.500037,31.436501 z"
             style="fill:#404040;"/>
          </a>
         </g>
        </svg>
</svg>
