<?xml version="1.0" encoding="UTF-8" standalone="no"?>
<!DOCTYPE svg PUBLIC "-//W3C//DTD SVG 1.1//EN"
 "http://www.w3.org/Graphics/SVG/1.1/DTD/svg11.dtd">
<!-- Generated by graphviz version 2.43.0 (0)
 -->
<!-- Title: config::utils::isValidHost Pages: 1 -->
<svg width="439pt" height="66pt"
 viewBox="0.00 0.00 439.00 66.00" xmlns="http://www.w3.org/2000/svg" xmlns:xlink="http://www.w3.org/1999/xlink">
<g id="graph0" class="graph" transform="scale(1 1) rotate(0) translate(4 62)">
<title>config::utils::isValidHost</title>
<polygon fill="white" stroke="transparent" points="-4,4 -4,-62 435,-62 435,4 -4,4"/>
<!-- Node1 -->
<g id="node1" class="node">
<title>Node1</title>
<g id="a_node1"><a xlink:title="Validates a host string (either IPv4 or hostname)">
<polygon fill="#bfbfbf" stroke="black" points="0,-19.5 0,-38.5 122,-38.5 122,-19.5 0,-19.5"/>
<text text-anchor="middle" x="61" y="-26.5" font-family="Helvetica,sans-Serif" font-size="10.00">config::utils::isValidHost</text>
</a>
</g>
</g>
<!-- Node2 -->
<g id="node2" class="node">
<title>Node2</title>
<g id="a_node2"><a xlink:href="namespaceconfig_1_1utils.html#abccb78e02eed9bea1836a7aa96acf8f7" target="_top" xlink:title="Validates hostname format following RFC 952 and RFC 1123.">
<polygon fill="white" stroke="black" points="158,-38.5 158,-57.5 304,-57.5 304,-38.5 158,-38.5"/>
<text text-anchor="middle" x="231" y="-45.5" font-family="Helvetica,sans-Serif" font-size="10.00">config::utils::isValidHostname</text>
</a>
</g>
</g>
<!-- Node1&#45;&gt;Node2 -->
<g id="edge1" class="edge">
<title>Node1&#45;&gt;Node2</title>
<path fill="none" stroke="midnightblue" d="M122.18,-35.81C130.5,-36.75 139.16,-37.73 147.8,-38.7"/>
<polygon fill="midnightblue" stroke="midnightblue" points="147.58,-42.2 157.91,-39.85 148.37,-35.25 147.58,-42.2"/>
</g>
<!-- Node3 -->
<g id="node3" class="node">
<title>Node3</title>
<g id="a_node3"><a xlink:href="namespaceconfig_1_1utils.html#a36374aff9046ea2a3e8af894f939c215" target="_top" xlink:title="Validates an IPv4 address string.">
<polygon fill="white" stroke="black" points="170,-0.5 170,-19.5 292,-19.5 292,-0.5 170,-0.5"/>
<text text-anchor="middle" x="231" y="-7.5" font-family="Helvetica,sans-Serif" font-size="10.00">config::utils::isValidIPv4</text>
</a>
</g>
</g>
<!-- Node1&#45;&gt;Node3 -->
<g id="edge2" class="edge">
<title>Node1&#45;&gt;Node3</title>
<path fill="none" stroke="midnightblue" d="M122.18,-22.19C134.44,-20.81 147.43,-19.34 160,-17.92"/>
<polygon fill="midnightblue" stroke="midnightblue" points="160.42,-21.39 169.96,-16.79 159.63,-14.44 160.42,-21.39"/>
</g>
<!-- Node4 -->
<g id="node4" class="node">
<title>Node4</title>
<g id="a_node4"><a xlink:href="namespaceconfig_1_1utils.html#a86bd730a60ae105179738c895a3a398b" target="_top" xlink:title="Splits a string by a delimiter into a vector.">
<polygon fill="white" stroke="black" points="340,-0.5 340,-19.5 431,-19.5 431,-0.5 340,-0.5"/>
<text text-anchor="middle" x="385.5" y="-7.5" font-family="Helvetica,sans-Serif" font-size="10.00">config::utils::split</text>
</a>
</g>
</g>
<!-- Node3&#45;&gt;Node4 -->
<g id="edge3" class="edge">
<title>Node3&#45;&gt;Node4</title>
<path fill="none" stroke="midnightblue" d="M292.27,-10C304.51,-10 317.32,-10 329.36,-10"/>
<polygon fill="midnightblue" stroke="midnightblue" points="329.72,-13.5 339.72,-10 329.72,-6.5 329.72,-13.5"/>
</g>
</g>
</svg>
