<?xml version="1.0" encoding="UTF-8" standalone="no"?>
<!DOCTYPE svg PUBLIC "-//W3C//DTD SVG 1.1//EN"
 "http://www.w3.org/Graphics/SVG/1.1/DTD/svg11.dtd">
<!-- Generated by graphviz version 2.43.0 (0)
 -->
<!-- Title: config::utils::parseSize Pages: 1 -->
<svg width="1060pt" height="61pt"
 viewBox="0.00 0.00 1060.00 61.00" xmlns="http://www.w3.org/2000/svg" xmlns:xlink="http://www.w3.org/1999/xlink">
<g id="graph0" class="graph" transform="scale(1 1) rotate(0) translate(4 57)">
<title>config::utils::parseSize</title>
<polygon fill="white" stroke="transparent" points="-4,4 -4,-57 1056,-57 1056,4 -4,4"/>
<!-- Node1 -->
<g id="node1" class="node">
<title>Node1</title>
<g id="a_node1"><a xlink:title="Parses a size string (e.g., &quot;1k&quot;, &quot;1m&quot;) into bytes.">
<polygon fill="#bfbfbf" stroke="black" points="936,-6 936,-25 1052,-25 1052,-6 936,-6"/>
<text text-anchor="middle" x="994" y="-13" font-family="Helvetica,sans-Serif" font-size="10.00">config::utils::parseSize</text>
</a>
</g>
</g>
<!-- Node2 -->
<g id="node2" class="node">
<title>Node2</title>
<g id="a_node2"><a xlink:href="classConfigParser.html#a9b725718db54abd627b37d021acf726e" target="_top" xlink:title=" ">
<polygon fill="white" stroke="black" points="736,-6 736,-25 900,-25 900,-6 736,-6"/>
<text text-anchor="middle" x="818" y="-13" font-family="Helvetica,sans-Serif" font-size="10.00">ConfigParser::parseMaxSizeBody</text>
</a>
</g>
</g>
<!-- Node1&#45;&gt;Node2 -->
<g id="edge1" class="edge">
<title>Node1&#45;&gt;Node2</title>
<path fill="none" stroke="midnightblue" d="M925.5,-15.5C917.15,-15.5 908.54,-15.5 900.01,-15.5"/>
<polygon fill="midnightblue" stroke="midnightblue" points="925.54,-19 935.54,-15.5 925.54,-12 925.54,-19"/>
</g>
<!-- Node3 -->
<g id="node3" class="node">
<title>Node3</title>
<g id="a_node3"><a xlink:href="classConfigParser.html#a497afc5807db6d7f6092609c62cdd7ad" target="_top" xlink:title=" ">
<polygon fill="white" stroke="black" points="560,-22.5 560,-52.5 700,-52.5 700,-22.5 560,-22.5"/>
<text text-anchor="start" x="568" y="-40.5" font-family="Helvetica,sans-Serif" font-size="10.00">ConfigParser::parseLocation</text>
<text text-anchor="middle" x="630" y="-29.5" font-family="Helvetica,sans-Serif" font-size="10.00">Block</text>
</a>
</g>
</g>
<!-- Node2&#45;&gt;Node3 -->
<g id="edge2" class="edge">
<title>Node2&#45;&gt;Node3</title>
<path fill="none" stroke="midnightblue" d="M726.55,-26.2C717.7,-27.24 708.83,-28.29 700.25,-29.31"/>
<polygon fill="midnightblue" stroke="midnightblue" points="726.98,-29.67 736.5,-25.02 726.16,-22.72 726.98,-29.67"/>
</g>
<!-- Node4 -->
<g id="node4" class="node">
<title>Node4</title>
<g id="a_node4"><a xlink:href="classConfigParser.html#a787a614f759e68dcd7ae0595df9b73e1" target="_top" xlink:title=" ">
<polygon fill="white" stroke="black" points="393,-0.5 393,-30.5 524,-30.5 524,-0.5 393,-0.5"/>
<text text-anchor="start" x="401" y="-18.5" font-family="Helvetica,sans-Serif" font-size="10.00">ConfigParser::parseSingle</text>
<text text-anchor="middle" x="458.5" y="-7.5" font-family="Helvetica,sans-Serif" font-size="10.00">ServerBlock</text>
</a>
</g>
</g>
<!-- Node2&#45;&gt;Node4 -->
<g id="edge7" class="edge">
<title>Node2&#45;&gt;Node4</title>
<path fill="none" stroke="midnightblue" d="M725.65,-13.79C716.98,-13.67 708.32,-13.57 700,-13.5 637.78,-12.97 622.22,-12.88 560,-13.5 548.4,-13.62 536.04,-13.81 524.1,-14.02"/>
<polygon fill="midnightblue" stroke="midnightblue" points="725.76,-17.29 735.81,-13.93 725.86,-10.29 725.76,-17.29"/>
</g>
<!-- Node3&#45;&gt;Node4 -->
<g id="edge3" class="edge">
<title>Node3&#45;&gt;Node4</title>
<path fill="none" stroke="midnightblue" d="M549.62,-27.2C541.1,-26.09 532.51,-24.98 524.19,-23.9"/>
<polygon fill="midnightblue" stroke="midnightblue" points="549.2,-30.67 559.57,-28.49 550.1,-23.73 549.2,-30.67"/>
</g>
<!-- Node5 -->
<g id="node5" class="node">
<title>Node5</title>
<g id="a_node5"><a xlink:href="classConfigParser.html#a49c9f8ad4f9ba802d27db330cf172e43" target="_top" xlink:title=" ">
<polygon fill="white" stroke="black" points="214,-0.5 214,-30.5 357,-30.5 357,-0.5 214,-0.5"/>
<text text-anchor="start" x="222" y="-18.5" font-family="Helvetica,sans-Serif" font-size="10.00">ConfigParser::parseAllServer</text>
<text text-anchor="middle" x="285.5" y="-7.5" font-family="Helvetica,sans-Serif" font-size="10.00">Blocks</text>
</a>
</g>
</g>
<!-- Node4&#45;&gt;Node5 -->
<g id="edge4" class="edge">
<title>Node4&#45;&gt;Node5</title>
<path fill="none" stroke="midnightblue" d="M382.65,-15.5C374.21,-15.5 365.63,-15.5 357.24,-15.5"/>
<polygon fill="midnightblue" stroke="midnightblue" points="382.85,-19 392.85,-15.5 382.85,-12 382.85,-19"/>
</g>
<!-- Node6 -->
<g id="node6" class="node">
<title>Node6</title>
<g id="a_node6"><a xlink:href="classConfigParser.html#a07493adaa4feb9beb085dcfe01af3e3c" target="_top" xlink:title="Parse the configuration file.">
<polygon fill="white" stroke="black" points="74,-6 74,-25 178,-25 178,-6 74,-6"/>
<text text-anchor="middle" x="126" y="-13" font-family="Helvetica,sans-Serif" font-size="10.00">ConfigParser::parse</text>
</a>
</g>
</g>
<!-- Node5&#45;&gt;Node6 -->
<g id="edge5" class="edge">
<title>Node5&#45;&gt;Node6</title>
<path fill="none" stroke="midnightblue" d="M203.49,-15.5C194.89,-15.5 186.32,-15.5 178.2,-15.5"/>
<polygon fill="midnightblue" stroke="midnightblue" points="203.58,-19 213.58,-15.5 203.58,-12 203.58,-19"/>
</g>
<!-- Node7 -->
<g id="node7" class="node">
<title>Node7</title>
<g id="a_node7"><a xlink:href="main_8cpp.html#a0ddf1224851353fc92bfbff6f499fa97" target="_top" xlink:title=" ">
<polygon fill="white" stroke="black" points="0,-6 0,-25 38,-25 38,-6 0,-6"/>
<text text-anchor="middle" x="19" y="-13" font-family="Helvetica,sans-Serif" font-size="10.00">main</text>
</a>
</g>
</g>
<!-- Node6&#45;&gt;Node7 -->
<g id="edge6" class="edge">
<title>Node6&#45;&gt;Node7</title>
<path fill="none" stroke="midnightblue" d="M63.64,-15.5C54.43,-15.5 45.6,-15.5 38.31,-15.5"/>
<polygon fill="midnightblue" stroke="midnightblue" points="63.73,-19 73.73,-15.5 63.73,-12 63.73,-19"/>
</g>
</g>
</svg>
