<?xml version="1.0" encoding="UTF-8" standalone="no"?>
<!DOCTYPE svg PUBLIC "-//W3C//DTD SVG 1.1//EN"
 "http://www.w3.org/Graphics/SVG/1.1/DTD/svg11.dtd">
<!-- Generated by graphviz version 2.43.0 (0)
 -->
<!-- Title: config::utils::removeComments Pages: 1 -->
<svg width="563pt" height="78pt"
 viewBox="0.00 0.00 563.00 77.50" xmlns="http://www.w3.org/2000/svg" xmlns:xlink="http://www.w3.org/1999/xlink">
<g id="graph0" class="graph" transform="scale(1 1) rotate(0) translate(4 73.5)">
<title>config::utils::removeComments</title>
<polygon fill="white" stroke="transparent" points="-4,4 -4,-73.5 559,-73.5 559,4 -4,4"/>
<!-- Node1 -->
<g id="node1" class="node">
<title>Node1</title>
<g id="a_node1"><a xlink:title="Removes comments (starting with #) from a line.">
<polygon fill="#bfbfbf" stroke="black" points="402,-28 402,-47 555,-47 555,-28 402,-28"/>
<text text-anchor="middle" x="478.5" y="-35" font-family="Helvetica,sans-Serif" font-size="10.00">config::utils::removeComments</text>
</a>
</g>
</g>
<!-- Node2 -->
<g id="node2" class="node">
<title>Node2</title>
<g id="a_node2"><a xlink:href="namespaceconfig_1_1debug.html#ad8281716483273c5adfe192d36177738" target="_top" xlink:title=" ">
<polygon fill="white" stroke="black" points="214,-50 214,-69 366,-69 366,-50 214,-50"/>
<text text-anchor="middle" x="290" y="-57" font-family="Helvetica,sans-Serif" font-size="10.00">config::debug::debugConfigLog</text>
</a>
</g>
</g>
<!-- Node1&#45;&gt;Node2 -->
<g id="edge1" class="edge">
<title>Node1&#45;&gt;Node2</title>
<path fill="none" stroke="midnightblue" d="M391.87,-47.6C383.26,-48.62 374.57,-49.64 366.09,-50.64"/>
<polygon fill="midnightblue" stroke="midnightblue" points="392.39,-51.06 401.91,-46.42 391.57,-44.11 392.39,-51.06"/>
</g>
<!-- Node3 -->
<g id="node3" class="node">
<title>Node3</title>
<g id="a_node3"><a xlink:href="classConfigParser.html#a4023141310c6afc61155fd6842735abd" target="_top" xlink:title=" ">
<polygon fill="white" stroke="black" points="226,-0.5 226,-30.5 354,-30.5 354,-0.5 226,-0.5"/>
<text text-anchor="start" x="234" y="-18.5" font-family="Helvetica,sans-Serif" font-size="10.00">ConfigParser::preprocess</text>
<text text-anchor="middle" x="290" y="-7.5" font-family="Helvetica,sans-Serif" font-size="10.00">ConfigFile</text>
</a>
</g>
</g>
<!-- Node1&#45;&gt;Node3 -->
<g id="edge2" class="edge">
<title>Node1&#45;&gt;Node3</title>
<path fill="none" stroke="midnightblue" d="M391.8,-27.39C379.13,-25.9 366.26,-24.38 354.16,-22.95"/>
<polygon fill="midnightblue" stroke="midnightblue" points="391.57,-30.89 401.91,-28.58 392.39,-23.94 391.57,-30.89"/>
</g>
<!-- Node4 -->
<g id="node4" class="node">
<title>Node4</title>
<g id="a_node4"><a xlink:href="classConfigParser.html#a07493adaa4feb9beb085dcfe01af3e3c" target="_top" xlink:title="Parse the configuration file.">
<polygon fill="white" stroke="black" points="74,-6 74,-25 178,-25 178,-6 74,-6"/>
<text text-anchor="middle" x="126" y="-13" font-family="Helvetica,sans-Serif" font-size="10.00">ConfigParser::parse</text>
</a>
</g>
</g>
<!-- Node3&#45;&gt;Node4 -->
<g id="edge3" class="edge">
<title>Node3&#45;&gt;Node4</title>
<path fill="none" stroke="midnightblue" d="M215.79,-15.5C203.09,-15.5 190.12,-15.5 178.16,-15.5"/>
<polygon fill="midnightblue" stroke="midnightblue" points="215.9,-19 225.9,-15.5 215.9,-12 215.9,-19"/>
</g>
<!-- Node5 -->
<g id="node5" class="node">
<title>Node5</title>
<g id="a_node5"><a xlink:href="main_8cpp.html#a0ddf1224851353fc92bfbff6f499fa97" target="_top" xlink:title=" ">
<polygon fill="white" stroke="black" points="0,-6 0,-25 38,-25 38,-6 0,-6"/>
<text text-anchor="middle" x="19" y="-13" font-family="Helvetica,sans-Serif" font-size="10.00">main</text>
</a>
</g>
</g>
<!-- Node4&#45;&gt;Node5 -->
<g id="edge4" class="edge">
<title>Node4&#45;&gt;Node5</title>
<path fill="none" stroke="midnightblue" d="M63.64,-15.5C54.43,-15.5 45.6,-15.5 38.31,-15.5"/>
<polygon fill="midnightblue" stroke="midnightblue" points="63.73,-19 73.73,-15.5 63.73,-12 63.73,-19"/>
</g>
</g>
</svg>
