<?xml version="1.0" encoding="UTF-8" standalone="no"?>
<!DOCTYPE svg PUBLIC "-//W3C//DTD SVG 1.1//EN"
 "http://www.w3.org/Graphics/SVG/1.1/DTD/svg11.dtd">
<!-- Generated by graphviz version 2.43.0 (0)
 -->
<!-- Title: config::utils::split Pages: 1 -->
<!--zoomable 66 -->
<svg id="main" version="1.1" xmlns="http://www.w3.org/2000/svg" xmlns:xlink="http://www.w3.org/1999/xlink" xml:space="preserve" onload="init(evt)">
<style type="text/css"><![CDATA[
.edge:hover path { stroke: red; }
.edge:hover polygon { stroke: red; fill: red; }
]]></style>
<script type="text/javascript"><![CDATA[
var edges = document.getElementsByTagName('g');
if (edges && edges.length) {
  for (var i=0;i<edges.length;i++) {
    if (edges[i].id.substr(0,4)=='edge') {
      edges[i].setAttribute('class','edge');
    }
  }
}
]]></script>
        <defs>
                <circle id="rim" cx="0" cy="0" r="7"/>
                <circle id="rim2" cx="0" cy="0" r="3.5"/>
                <g id="zoomPlus">
                        <use xlink:href="#rim" fill="#404040">
                                <set attributeName="fill" to="#808080" begin="zoomplus.mouseover" end="zoomplus.mouseout"/>
                        </use>
                        <path d="M-4,0h8M0,-4v8" fill="none" stroke="white" stroke-width="1.5" pointer-events="none"/>
                </g>
                <g id="zoomMin">
                        <use xlink:href="#rim" fill="#404040">
                                <set attributeName="fill" to="#808080" begin="zoomminus.mouseover" end="zoomminus.mouseout"/>
                        </use>
                        <path d="M-4,0h8" fill="none" stroke="white" stroke-width="1.5" pointer-events="none"/>
                </g>
                <g id="dirArrow">
                        <path fill="none" stroke="white" stroke-width="1.5" d="M0,-3.0v7 M-2.5,-0.5L0,-3.0L2.5,-0.5"/>
                </g>
               <g id="resetDef">
                       <use xlink:href="#rim2" fill="#404040">
                               <set attributeName="fill" to="#808080" begin="reset.mouseover" end="reset.mouseout"/>
                       </use>
               </g>
        </defs>

<script type="text/javascript">
var viewWidth = 1141;
var viewHeight = 66;
var sectionId = 'dynsection-14';
</script>
<script xlink:href="svgpan.js"/>
<svg id="graph" class="graph">
<g id="viewport">
<title>config::utils::split</title>
<polygon fill="white" stroke="transparent" points="-4,4 -4,-62 1137,-62 1137,4 -4,4"/>
<!-- Node1 -->
<g id="node1" class="node">
<title>Node1</title>
<g id="a_node1"><a xlink:title="Splits a string by a delimiter into a vector.">
<polygon fill="#bfbfbf" stroke="black" points="1042,-19.5 1042,-38.5 1133,-38.5 1133,-19.5 1042,-19.5"/>
<text text-anchor="middle" x="1087.5" y="-26.5" font-family="Helvetica,sans-Serif" font-size="10.00">config::utils::split</text>
</a>
</g>
</g>
<!-- Node2 -->
<g id="node2" class="node">
<title>Node2</title>
<g id="a_node2"><a xlink:href="namespaceconfig_1_1utils.html#a36374aff9046ea2a3e8af894f939c215" target="_top" xlink:title="Validates an IPv4 address string.">
<polygon fill="white" stroke="black" points="884,-19.5 884,-38.5 1006,-38.5 1006,-19.5 884,-19.5"/>
<text text-anchor="middle" x="945" y="-26.5" font-family="Helvetica,sans-Serif" font-size="10.00">config::utils::isValidIPv4</text>
</a>
</g>
</g>
<!-- Node1&#45;&gt;Node2 -->
<g id="edge1" class="edge">
<title>Node1&#45;&gt;Node2</title>
<path fill="none" stroke="midnightblue" d="M1031.62,-29C1023.23,-29 1014.54,-29 1006.05,-29"/>
<polygon fill="midnightblue" stroke="midnightblue" points="1031.66,-32.5 1041.66,-29 1031.66,-25.5 1031.66,-32.5"/>
</g>
<!-- Node3 -->
<g id="node3" class="node">
<title>Node3</title>
<g id="a_node3"><a xlink:href="namespaceconfig_1_1utils.html#ab2e0db706cadd8f620668e8aa9ea1644" target="_top" xlink:title="Validates a host string (either IPv4 or hostname)">
<polygon fill="white" stroke="black" points="726,-19.5 726,-38.5 848,-38.5 848,-19.5 726,-19.5"/>
<text text-anchor="middle" x="787" y="-26.5" font-family="Helvetica,sans-Serif" font-size="10.00">config::utils::isValidHost</text>
</a>
</g>
</g>
<!-- Node2&#45;&gt;Node3 -->
<g id="edge2" class="edge">
<title>Node2&#45;&gt;Node3</title>
<path fill="none" stroke="midnightblue" d="M873.46,-29C865.01,-29 856.44,-29 848.15,-29"/>
<polygon fill="midnightblue" stroke="midnightblue" points="873.69,-32.5 883.69,-29 873.69,-25.5 873.69,-32.5"/>
</g>
<!-- Node4 -->
<g id="node4" class="node">
<title>Node4</title>
<g id="a_node4"><a xlink:href="classConfigParser.html#a53634b014cd0c6419ecf857b20b9a0ba" target="_top" xlink:title=" ">
<polygon fill="white" stroke="black" points="562.5,-38.5 562.5,-57.5 687.5,-57.5 687.5,-38.5 562.5,-38.5"/>
<text text-anchor="middle" x="625" y="-45.5" font-family="Helvetica,sans-Serif" font-size="10.00">ConfigParser::parseHost</text>
</a>
</g>
</g>
<!-- Node3&#45;&gt;Node4 -->
<g id="edge3" class="edge">
<title>Node3&#45;&gt;Node4</title>
<path fill="none" stroke="midnightblue" d="M715.88,-37.33C706.5,-38.44 696.93,-39.58 687.7,-40.67"/>
<polygon fill="midnightblue" stroke="midnightblue" points="716.45,-40.78 725.97,-36.13 715.62,-33.83 716.45,-40.78"/>
</g>
<!-- Node9 -->
<g id="node9" class="node">
<title>Node9</title>
<g id="a_node9"><a xlink:href="classConfigParser.html#a5334f5b1843097862ae150b653001674" target="_top" xlink:title=" ">
<polygon fill="white" stroke="black" points="560,-0.5 560,-19.5 690,-19.5 690,-0.5 560,-0.5"/>
<text text-anchor="middle" x="625" y="-7.5" font-family="Helvetica,sans-Serif" font-size="10.00">ConfigParser::parseListen</text>
</a>
</g>
</g>
<!-- Node3&#45;&gt;Node9 -->
<g id="edge8" class="edge">
<title>Node3&#45;&gt;Node9</title>
<path fill="none" stroke="midnightblue" d="M715.97,-20.68C707.37,-19.66 698.62,-18.62 690.12,-17.61"/>
<polygon fill="midnightblue" stroke="midnightblue" points="715.62,-24.17 725.97,-21.87 716.45,-17.22 715.62,-24.17"/>
</g>
<!-- Node5 -->
<g id="node5" class="node">
<title>Node5</title>
<g id="a_node5"><a xlink:href="classConfigParser.html#a787a614f759e68dcd7ae0595df9b73e1" target="_top" xlink:title=" ">
<polygon fill="white" stroke="black" points="393,-14 393,-44 524,-44 524,-14 393,-14"/>
<text text-anchor="start" x="401" y="-32" font-family="Helvetica,sans-Serif" font-size="10.00">ConfigParser::parseSingle</text>
<text text-anchor="middle" x="458.5" y="-21" font-family="Helvetica,sans-Serif" font-size="10.00">ServerBlock</text>
</a>
</g>
</g>
<!-- Node4&#45;&gt;Node5 -->
<g id="edge4" class="edge">
<title>Node4&#45;&gt;Node5</title>
<path fill="none" stroke="midnightblue" d="M552.21,-39.71C542.84,-38.63 533.28,-37.52 524.04,-36.45"/>
<polygon fill="midnightblue" stroke="midnightblue" points="551.94,-43.2 562.28,-40.87 552.75,-36.25 551.94,-43.2"/>
</g>
<!-- Node6 -->
<g id="node6" class="node">
<title>Node6</title>
<g id="a_node6"><a xlink:href="classConfigParser.html#a49c9f8ad4f9ba802d27db330cf172e43" target="_top" xlink:title=" ">
<polygon fill="white" stroke="black" points="214,-14 214,-44 357,-44 357,-14 214,-14"/>
<text text-anchor="start" x="222" y="-32" font-family="Helvetica,sans-Serif" font-size="10.00">ConfigParser::parseAllServer</text>
<text text-anchor="middle" x="285.5" y="-21" font-family="Helvetica,sans-Serif" font-size="10.00">Blocks</text>
</a>
</g>
</g>
<!-- Node5&#45;&gt;Node6 -->
<g id="edge5" class="edge">
<title>Node5&#45;&gt;Node6</title>
<path fill="none" stroke="midnightblue" d="M382.65,-29C374.21,-29 365.63,-29 357.24,-29"/>
<polygon fill="midnightblue" stroke="midnightblue" points="382.85,-32.5 392.85,-29 382.85,-25.5 382.85,-32.5"/>
</g>
<!-- Node7 -->
<g id="node7" class="node">
<title>Node7</title>
<g id="a_node7"><a xlink:href="classConfigParser.html#a07493adaa4feb9beb085dcfe01af3e3c" target="_top" xlink:title="Parse the configuration file.">
<polygon fill="white" stroke="black" points="74,-19.5 74,-38.5 178,-38.5 178,-19.5 74,-19.5"/>
<text text-anchor="middle" x="126" y="-26.5" font-family="Helvetica,sans-Serif" font-size="10.00">ConfigParser::parse</text>
</a>
</g>
</g>
<!-- Node6&#45;&gt;Node7 -->
<g id="edge6" class="edge">
<title>Node6&#45;&gt;Node7</title>
<path fill="none" stroke="midnightblue" d="M203.49,-29C194.89,-29 186.32,-29 178.2,-29"/>
<polygon fill="midnightblue" stroke="midnightblue" points="203.58,-32.5 213.58,-29 203.58,-25.5 203.58,-32.5"/>
</g>
<!-- Node8 -->
<g id="node8" class="node">
<title>Node8</title>
<g id="a_node8"><a xlink:href="main_8cpp.html#a0ddf1224851353fc92bfbff6f499fa97" target="_top" xlink:title=" ">
<polygon fill="white" stroke="black" points="0,-19.5 0,-38.5 38,-38.5 38,-19.5 0,-19.5"/>
<text text-anchor="middle" x="19" y="-26.5" font-family="Helvetica,sans-Serif" font-size="10.00">main</text>
</a>
</g>
</g>
<!-- Node7&#45;&gt;Node8 -->
<g id="edge7" class="edge">
<title>Node7&#45;&gt;Node8</title>
<path fill="none" stroke="midnightblue" d="M63.64,-29C54.43,-29 45.6,-29 38.31,-29"/>
<polygon fill="midnightblue" stroke="midnightblue" points="63.73,-32.5 73.73,-29 63.73,-25.5 63.73,-32.5"/>
</g>
<!-- Node9&#45;&gt;Node5 -->
<g id="edge9" class="edge">
<title>Node9&#45;&gt;Node5</title>
<path fill="none" stroke="midnightblue" d="M549.93,-18.55C541.35,-19.55 532.65,-20.55 524.21,-21.53"/>
<polygon fill="midnightblue" stroke="midnightblue" points="550.4,-22.02 559.93,-17.4 549.59,-15.07 550.4,-22.02"/>
</g>
</g>
</svg>
        <g id="navigator" transform="translate(0 0)" fill="#404254">
                <rect fill="#f2f5e9" fill-opacity="0.5" stroke="#606060" stroke-width=".5" x="0" y="0" width="60" height="60"/>
                <use id="zoomplus" xlink:href="#zoomPlus" x="17" y="9" onmousedown="handleZoom(evt,'in')"/>
                <use id="zoomminus" xlink:href="#zoomMin" x="42" y="9" onmousedown="handleZoom(evt,'out')"/>
                <use id="reset" xlink:href="#resetDef" x="30" y="36" onmousedown="handleReset()"/>
                <g id="arrowUp" xlink:href="#dirArrow" transform="translate(30 24)" onmousedown="handlePan(0,-1)">
                  <use xlink:href="#rim" fill="#404040">
                        <set attributeName="fill" to="#808080" begin="arrowUp.mouseover" end="arrowUp.mouseout"/>
                  </use>
                  <path fill="none" stroke="white" stroke-width="1.5" d="M0,-3.0v7 M-2.5,-0.5L0,-3.0L2.5,-0.5"/>
                </g>
                <g id="arrowRight" xlink:href="#dirArrow" transform="rotate(90) translate(36 -43)" onmousedown="handlePan(1,0)">
                  <use xlink:href="#rim" fill="#404040">
                        <set attributeName="fill" to="#808080" begin="arrowRight.mouseover" end="arrowRight.mouseout"/>
                  </use>
                  <path fill="none" stroke="white" stroke-width="1.5" d="M0,-3.0v7 M-2.5,-0.5L0,-3.0L2.5,-0.5"/>
                </g>
                <g id="arrowDown" xlink:href="#dirArrow" transform="rotate(180) translate(-30 -48)" onmousedown="handlePan(0,1)">
                  <use xlink:href="#rim" fill="#404040">
                        <set attributeName="fill" to="#808080" begin="arrowDown.mouseover" end="arrowDown.mouseout"/>
                  </use>
                  <path fill="none" stroke="white" stroke-width="1.5" d="M0,-3.0v7 M-2.5,-0.5L0,-3.0L2.5,-0.5"/>
                </g>
                <g id="arrowLeft" xlink:href="#dirArrow" transform="rotate(270) translate(-36 17)" onmousedown="handlePan(-1,0)">
                  <use xlink:href="#rim" fill="#404040">
                        <set attributeName="fill" to="#808080" begin="arrowLeft.mouseover" end="arrowLeft.mouseout"/>
                  </use>
                  <path fill="none" stroke="white" stroke-width="1.5" d="M0,-3.0v7 M-2.5,-0.5L0,-3.0L2.5,-0.5"/>
                </g>
        </g>
        <svg viewBox="0 0 15 15" width="100%" height="30px" preserveAspectRatio="xMaxYMin meet">
         <g id="arrow_out" transform="scale(0.3 0.3)">
          <a xlink:href="namespaceconfig_1_1utils_a86bd730a60ae105179738c895a3a398b_icgraph_org.svg" target="_base">
           <rect id="button" ry="5" rx="5" y="6" x="6" height="38" width="38"
                fill="#f2f5e9" fill-opacity="0.5" stroke="#606060" stroke-width="1.0"/>
           <path id="arrow"
             d="M 11.500037,31.436501 C 11.940474,20.09759 22.043105,11.32322 32.158766,21.979434 L 37.068811,17.246167 C 37.068811,17.246167 37.088388,32 37.088388,32 L 22.160133,31.978069 C 22.160133,31.978069 26.997745,27.140456 26.997745,27.140456 C 18.528582,18.264221 13.291696,25.230495 11.500037,31.436501 z"
             style="fill:#404040;"/>
          </a>
         </g>
        </svg>
</svg>
