<?xml version="1.0" encoding="UTF-8" standalone="no"?>
<!DOCTYPE svg PUBLIC "-//W3C//DTD SVG 1.1//EN"
 "http://www.w3.org/Graphics/SVG/1.1/DTD/svg11.dtd">
<!-- Generated by graphviz version 2.43.0 (0)
 -->
<!-- Title: config::utils::toAbsolutePath Pages: 1 -->
<!--zoomable 134 -->
<svg id="main" version="1.1" xmlns="http://www.w3.org/2000/svg" xmlns:xlink="http://www.w3.org/1999/xlink" xml:space="preserve" onload="init(evt)">
<style type="text/css"><![CDATA[
.edge:hover path { stroke: red; }
.edge:hover polygon { stroke: red; fill: red; }
]]></style>
<script type="text/javascript"><![CDATA[
var edges = document.getElementsByTagName('g');
if (edges && edges.length) {
  for (var i=0;i<edges.length;i++) {
    if (edges[i].id.substr(0,4)=='edge') {
      edges[i].setAttribute('class','edge');
    }
  }
}
]]></script>
        <defs>
                <circle id="rim" cx="0" cy="0" r="7"/>
                <circle id="rim2" cx="0" cy="0" r="3.5"/>
                <g id="zoomPlus">
                        <use xlink:href="#rim" fill="#404040">
                                <set attributeName="fill" to="#808080" begin="zoomplus.mouseover" end="zoomplus.mouseout"/>
                        </use>
                        <path d="M-4,0h8M0,-4v8" fill="none" stroke="white" stroke-width="1.5" pointer-events="none"/>
                </g>
                <g id="zoomMin">
                        <use xlink:href="#rim" fill="#404040">
                                <set attributeName="fill" to="#808080" begin="zoomminus.mouseover" end="zoomminus.mouseout"/>
                        </use>
                        <path d="M-4,0h8" fill="none" stroke="white" stroke-width="1.5" pointer-events="none"/>
                </g>
                <g id="dirArrow">
                        <path fill="none" stroke="white" stroke-width="1.5" d="M0,-3.0v7 M-2.5,-0.5L0,-3.0L2.5,-0.5"/>
                </g>
               <g id="resetDef">
                       <use xlink:href="#rim2" fill="#404040">
                               <set attributeName="fill" to="#808080" begin="reset.mouseover" end="reset.mouseout"/>
                       </use>
               </g>
        </defs>

<script type="text/javascript">
var viewWidth = 1054;
var viewHeight = 134;
var sectionId = 'dynsection-16';
</script>
<script xlink:href="svgpan.js"/>
<svg id="graph" class="graph">
<g id="viewport">
<title>config::utils::toAbsolutePath</title>
<polygon fill="white" stroke="transparent" points="-4,4 -4,-130.41 1050,-130.41 1050,4 -4,4"/>
<!-- Node1 -->
<g id="node1" class="node">
<title>Node1</title>
<g id="a_node1"><a xlink:title="Converts a possibly relative path to absolute.">
<polygon fill="#bfbfbf" stroke="black" points="906,-46.91 906,-65.91 1046,-65.91 1046,-46.91 906,-46.91"/>
<text text-anchor="middle" x="976" y="-53.91" font-family="Helvetica,sans-Serif" font-size="10.00">config::utils::toAbsolutePath</text>
</a>
</g>
</g>
<!-- Node2 -->
<g id="node2" class="node">
<title>Node2</title>
<g id="a_node2"><a xlink:href="classConfigParser.html#a7ab80fb3ce52414448d41df88f94400a" target="_top" xlink:title=" ">
<polygon fill="white" stroke="black" points="743.5,-106.91 743.5,-125.91 862.5,-125.91 862.5,-106.91 743.5,-106.91"/>
<text text-anchor="middle" x="803" y="-113.91" font-family="Helvetica,sans-Serif" font-size="10.00">ConfigParser::parseCgi</text>
</a>
</g>
</g>
<!-- Node1&#45;&gt;Node2 -->
<g id="edge1" class="edge">
<title>Node1&#45;&gt;Node2</title>
<path fill="none" stroke="midnightblue" d="M938.41,-69.25C906.27,-80.53 860.24,-96.68 831.25,-106.85"/>
<polygon fill="midnightblue" stroke="midnightblue" points="939.63,-72.53 947.9,-65.92 937.31,-65.93 939.63,-72.53"/>
</g>
<!-- Node3 -->
<g id="node3" class="node">
<title>Node3</title>
<g id="a_node3"><a xlink:href="classConfigParser.html#a497afc5807db6d7f6092609c62cdd7ad" target="_top" xlink:title=" ">
<polygon fill="white" stroke="black" points="560,-52.41 560,-82.41 700,-82.41 700,-52.41 560,-52.41"/>
<text text-anchor="start" x="568" y="-70.41" font-family="Helvetica,sans-Serif" font-size="10.00">ConfigParser::parseLocation</text>
<text text-anchor="middle" x="630" y="-59.41" font-family="Helvetica,sans-Serif" font-size="10.00">Block</text>
</a>
</g>
</g>
<!-- Node1&#45;&gt;Node3 -->
<g id="edge7" class="edge">
<title>Node1&#45;&gt;Node3</title>
<path fill="none" stroke="midnightblue" d="M895.76,-58.95C836.63,-60.84 756.63,-63.4 700.09,-65.2"/>
<polygon fill="midnightblue" stroke="midnightblue" points="895.92,-62.44 905.8,-58.63 895.69,-55.45 895.92,-62.44"/>
</g>
<!-- Node8 -->
<g id="node8" class="node">
<title>Node8</title>
<g id="a_node8"><a xlink:href="classConfigParser.html#a8b154ff32d31129037f006c0776bd05f" target="_top" xlink:title=" ">
<polygon fill="white" stroke="black" points="567.5,-2.91 567.5,-21.91 692.5,-21.91 692.5,-2.91 567.5,-2.91"/>
<text text-anchor="middle" x="630" y="-9.91" font-family="Helvetica,sans-Serif" font-size="10.00">ConfigParser::parseRoot</text>
</a>
</g>
</g>
<!-- Node1&#45;&gt;Node8 -->
<g id="edge8" class="edge">
<title>Node1&#45;&gt;Node8</title>
<path fill="none" stroke="midnightblue" d="M950.62,-41.94C929.96,-30.56 899.13,-15.64 870,-9.41 810.75,3.24 741.35,0.49 692.64,-4.22"/>
<polygon fill="midnightblue" stroke="midnightblue" points="948.93,-45 959.35,-46.87 952.37,-38.9 948.93,-45"/>
</g>
<!-- Node9 -->
<g id="node9" class="node">
<title>Node9</title>
<g id="a_node9"><a xlink:href="classConfigParser.html#a5e88206a9aca177924981f1567eeaf37" target="_top" xlink:title=" ">
<polygon fill="white" stroke="black" points="736,-19.41 736,-49.41 870,-49.41 870,-19.41 736,-19.41"/>
<text text-anchor="start" x="744" y="-37.41" font-family="Helvetica,sans-Serif" font-size="10.00">ConfigParser::parseUpload</text>
<text text-anchor="middle" x="803" y="-26.41" font-family="Helvetica,sans-Serif" font-size="10.00">Bonus</text>
</a>
</g>
</g>
<!-- Node1&#45;&gt;Node9 -->
<g id="edge10" class="edge">
<title>Node1&#45;&gt;Node9</title>
<path fill="none" stroke="midnightblue" d="M895.93,-46.24C887.34,-45.14 878.67,-44.02 870.27,-42.94"/>
<polygon fill="midnightblue" stroke="midnightblue" points="895.58,-49.72 905.94,-47.53 896.47,-42.78 895.58,-49.72"/>
</g>
<!-- Node2&#45;&gt;Node3 -->
<g id="edge2" class="edge">
<title>Node2&#45;&gt;Node3</title>
<path fill="none" stroke="midnightblue" d="M758.85,-104.05C735.95,-97.49 707.63,-89.37 683.48,-82.45"/>
<polygon fill="midnightblue" stroke="midnightblue" points="758.05,-107.46 768.62,-106.85 759.97,-100.73 758.05,-107.46"/>
</g>
<!-- Node4 -->
<g id="node4" class="node">
<title>Node4</title>
<g id="a_node4"><a xlink:href="classConfigParser.html#a787a614f759e68dcd7ae0595df9b73e1" target="_top" xlink:title=" ">
<polygon fill="white" stroke="black" points="393,-19.41 393,-49.41 524,-49.41 524,-19.41 393,-19.41"/>
<text text-anchor="start" x="401" y="-37.41" font-family="Helvetica,sans-Serif" font-size="10.00">ConfigParser::parseSingle</text>
<text text-anchor="middle" x="458.5" y="-26.41" font-family="Helvetica,sans-Serif" font-size="10.00">ServerBlock</text>
</a>
</g>
</g>
<!-- Node3&#45;&gt;Node4 -->
<g id="edge3" class="edge">
<title>Node3&#45;&gt;Node4</title>
<path fill="none" stroke="midnightblue" d="M549.62,-51.96C541.1,-50.3 532.51,-48.63 524.19,-47.01"/>
<polygon fill="midnightblue" stroke="midnightblue" points="549.08,-55.42 559.57,-53.9 550.42,-48.55 549.08,-55.42"/>
</g>
<!-- Node5 -->
<g id="node5" class="node">
<title>Node5</title>
<g id="a_node5"><a xlink:href="classConfigParser.html#a49c9f8ad4f9ba802d27db330cf172e43" target="_top" xlink:title=" ">
<polygon fill="white" stroke="black" points="214,-19.41 214,-49.41 357,-49.41 357,-19.41 214,-19.41"/>
<text text-anchor="start" x="222" y="-37.41" font-family="Helvetica,sans-Serif" font-size="10.00">ConfigParser::parseAllServer</text>
<text text-anchor="middle" x="285.5" y="-26.41" font-family="Helvetica,sans-Serif" font-size="10.00">Blocks</text>
</a>
</g>
</g>
<!-- Node4&#45;&gt;Node5 -->
<g id="edge4" class="edge">
<title>Node4&#45;&gt;Node5</title>
<path fill="none" stroke="midnightblue" d="M382.65,-34.41C374.21,-34.41 365.63,-34.41 357.24,-34.41"/>
<polygon fill="midnightblue" stroke="midnightblue" points="382.85,-37.91 392.85,-34.41 382.85,-30.91 382.85,-37.91"/>
</g>
<!-- Node6 -->
<g id="node6" class="node">
<title>Node6</title>
<g id="a_node6"><a xlink:href="classConfigParser.html#a07493adaa4feb9beb085dcfe01af3e3c" target="_top" xlink:title="Parse the configuration file.">
<polygon fill="white" stroke="black" points="74,-24.91 74,-43.91 178,-43.91 178,-24.91 74,-24.91"/>
<text text-anchor="middle" x="126" y="-31.91" font-family="Helvetica,sans-Serif" font-size="10.00">ConfigParser::parse</text>
</a>
</g>
</g>
<!-- Node5&#45;&gt;Node6 -->
<g id="edge5" class="edge">
<title>Node5&#45;&gt;Node6</title>
<path fill="none" stroke="midnightblue" d="M203.49,-34.41C194.89,-34.41 186.32,-34.41 178.2,-34.41"/>
<polygon fill="midnightblue" stroke="midnightblue" points="203.58,-37.91 213.58,-34.41 203.58,-30.91 203.58,-37.91"/>
</g>
<!-- Node7 -->
<g id="node7" class="node">
<title>Node7</title>
<g id="a_node7"><a xlink:href="main_8cpp.html#a0ddf1224851353fc92bfbff6f499fa97" target="_top" xlink:title=" ">
<polygon fill="white" stroke="black" points="0,-24.91 0,-43.91 38,-43.91 38,-24.91 0,-24.91"/>
<text text-anchor="middle" x="19" y="-31.91" font-family="Helvetica,sans-Serif" font-size="10.00">main</text>
</a>
</g>
</g>
<!-- Node6&#45;&gt;Node7 -->
<g id="edge6" class="edge">
<title>Node6&#45;&gt;Node7</title>
<path fill="none" stroke="midnightblue" d="M63.64,-34.41C54.43,-34.41 45.6,-34.41 38.31,-34.41"/>
<polygon fill="midnightblue" stroke="midnightblue" points="63.73,-37.91 73.73,-34.41 63.73,-30.91 63.73,-37.91"/>
</g>
<!-- Node8&#45;&gt;Node4 -->
<g id="edge9" class="edge">
<title>Node8&#45;&gt;Node4</title>
<path fill="none" stroke="midnightblue" d="M557.35,-21.71C546.37,-23.14 535.09,-24.6 524.26,-26.01"/>
<polygon fill="midnightblue" stroke="midnightblue" points="557.86,-25.18 567.33,-20.42 556.96,-18.23 557.86,-25.18"/>
</g>
<!-- Node9&#45;&gt;Node3 -->
<g id="edge11" class="edge">
<title>Node9&#45;&gt;Node3</title>
<path fill="none" stroke="midnightblue" d="M725.87,-49.1C717.28,-50.76 708.55,-52.45 700.05,-54.09"/>
<polygon fill="midnightblue" stroke="midnightblue" points="726.73,-52.5 735.89,-47.17 725.4,-45.63 726.73,-52.5"/>
</g>
</g>
</svg>
        <g id="navigator" transform="translate(0 0)" fill="#404254">
                <rect fill="#f2f5e9" fill-opacity="0.5" stroke="#606060" stroke-width=".5" x="0" y="0" width="60" height="60"/>
                <use id="zoomplus" xlink:href="#zoomPlus" x="17" y="9" onmousedown="handleZoom(evt,'in')"/>
                <use id="zoomminus" xlink:href="#zoomMin" x="42" y="9" onmousedown="handleZoom(evt,'out')"/>
                <use id="reset" xlink:href="#resetDef" x="30" y="36" onmousedown="handleReset()"/>
                <g id="arrowUp" xlink:href="#dirArrow" transform="translate(30 24)" onmousedown="handlePan(0,-1)">
                  <use xlink:href="#rim" fill="#404040">
                        <set attributeName="fill" to="#808080" begin="arrowUp.mouseover" end="arrowUp.mouseout"/>
                  </use>
                  <path fill="none" stroke="white" stroke-width="1.5" d="M0,-3.0v7 M-2.5,-0.5L0,-3.0L2.5,-0.5"/>
                </g>
                <g id="arrowRight" xlink:href="#dirArrow" transform="rotate(90) translate(36 -43)" onmousedown="handlePan(1,0)">
                  <use xlink:href="#rim" fill="#404040">
                        <set attributeName="fill" to="#808080" begin="arrowRight.mouseover" end="arrowRight.mouseout"/>
                  </use>
                  <path fill="none" stroke="white" stroke-width="1.5" d="M0,-3.0v7 M-2.5,-0.5L0,-3.0L2.5,-0.5"/>
                </g>
                <g id="arrowDown" xlink:href="#dirArrow" transform="rotate(180) translate(-30 -48)" onmousedown="handlePan(0,1)">
                  <use xlink:href="#rim" fill="#404040">
                        <set attributeName="fill" to="#808080" begin="arrowDown.mouseover" end="arrowDown.mouseout"/>
                  </use>
                  <path fill="none" stroke="white" stroke-width="1.5" d="M0,-3.0v7 M-2.5,-0.5L0,-3.0L2.5,-0.5"/>
                </g>
                <g id="arrowLeft" xlink:href="#dirArrow" transform="rotate(270) translate(-36 17)" onmousedown="handlePan(-1,0)">
                  <use xlink:href="#rim" fill="#404040">
                        <set attributeName="fill" to="#808080" begin="arrowLeft.mouseover" end="arrowLeft.mouseout"/>
                  </use>
                  <path fill="none" stroke="white" stroke-width="1.5" d="M0,-3.0v7 M-2.5,-0.5L0,-3.0L2.5,-0.5"/>
                </g>
        </g>
        <svg viewBox="0 0 15 15" width="100%" height="30px" preserveAspectRatio="xMaxYMin meet">
         <g id="arrow_out" transform="scale(0.3 0.3)">
          <a xlink:href="namespaceconfig_1_1utils_ab47e6d08957f3aa61a7e2a31c5e8d77f_icgraph_org.svg" target="_base">
           <rect id="button" ry="5" rx="5" y="6" x="6" height="38" width="38"
                fill="#f2f5e9" fill-opacity="0.5" stroke="#606060" stroke-width="1.0"/>
           <path id="arrow"
             d="M 11.500037,31.436501 C 11.940474,20.09759 22.043105,11.32322 32.158766,21.979434 L 37.068811,17.246167 C 37.068811,17.246167 37.088388,32 37.088388,32 L 22.160133,31.978069 C 22.160133,31.978069 26.997745,27.140456 26.997745,27.140456 C 18.528582,18.264221 13.291696,25.230495 11.500037,31.436501 z"
             style="fill:#404040;"/>
          </a>
         </g>
        </svg>
</svg>
