<?xml version="1.0" encoding="UTF-8" standalone="no"?>
<!DOCTYPE svg PUBLIC "-//W3C//DTD SVG 1.1//EN"
 "http://www.w3.org/Graphics/SVG/1.1/DTD/svg11.dtd">
<!-- Generated by graphviz version 2.43.0 (0)
 -->
<!-- Title: config::utils::stringToInt Pages: 1 -->
<svg width="1039pt" height="116pt"
 viewBox="0.00 0.00 1039.00 115.50" xmlns="http://www.w3.org/2000/svg" xmlns:xlink="http://www.w3.org/1999/xlink">
<g id="graph0" class="graph" transform="scale(1 1) rotate(0) translate(4 111.5)">
<title>config::utils::stringToInt</title>
<polygon fill="white" stroke="transparent" points="-4,4 -4,-111.5 1035,-111.5 1035,4 -4,4"/>
<!-- Node1 -->
<g id="node1" class="node">
<title>Node1</title>
<g id="a_node1"><a xlink:title="Converts a string to an integer.">
<polygon fill="#bfbfbf" stroke="black" points="912,-50 912,-69 1031,-69 1031,-50 912,-50"/>
<text text-anchor="middle" x="971.5" y="-57" font-family="Helvetica,sans-Serif" font-size="10.00">config::utils::stringToInt</text>
</a>
</g>
</g>
<!-- Node2 -->
<g id="node2" class="node">
<title>Node2</title>
<g id="a_node2"><a xlink:href="classConfigParser.html#a586b651c9d22c24a5b3b4602819a7031" target="_top" xlink:title=" ">
<polygon fill="white" stroke="black" points="560,-88 560,-107 707,-107 707,-88 560,-88"/>
<text text-anchor="middle" x="633.5" y="-95" font-family="Helvetica,sans-Serif" font-size="10.00">ConfigParser::parseErrorPage</text>
</a>
</g>
</g>
<!-- Node1&#45;&gt;Node2 -->
<g id="edge1" class="edge">
<title>Node1&#45;&gt;Node2</title>
<path fill="none" stroke="midnightblue" d="M918.94,-71.03C905.06,-73.82 890,-76.55 876,-78.5 819.56,-86.37 755.21,-91.23 707.13,-94.06"/>
<polygon fill="midnightblue" stroke="midnightblue" points="919.72,-74.44 928.82,-69 918.32,-67.59 919.72,-74.44"/>
</g>
<!-- Node7 -->
<g id="node7" class="node">
<title>Node7</title>
<g id="a_node7"><a xlink:href="classConfigParser.html#a5334f5b1843097862ae150b653001674" target="_top" xlink:title=" ">
<polygon fill="white" stroke="black" points="744.5,-50 744.5,-69 874.5,-69 874.5,-50 744.5,-50"/>
<text text-anchor="middle" x="809.5" y="-57" font-family="Helvetica,sans-Serif" font-size="10.00">ConfigParser::parseListen</text>
</a>
</g>
</g>
<!-- Node1&#45;&gt;Node7 -->
<g id="edge6" class="edge">
<title>Node1&#45;&gt;Node7</title>
<path fill="none" stroke="midnightblue" d="M901.75,-59.5C892.72,-59.5 883.5,-59.5 874.56,-59.5"/>
<polygon fill="midnightblue" stroke="midnightblue" points="901.83,-63 911.83,-59.5 901.83,-56 901.83,-63"/>
</g>
<!-- Node8 -->
<g id="node8" class="node">
<title>Node8</title>
<g id="a_node8"><a xlink:href="classConfigParser.html#a27bff35ad8d26d109518201906023389" target="_top" xlink:title=" ">
<polygon fill="white" stroke="black" points="743,-9 743,-28 876,-28 876,-9 743,-9"/>
<text text-anchor="middle" x="809.5" y="-16" font-family="Helvetica,sans-Serif" font-size="10.00">ConfigParser::parseReturn</text>
</a>
</g>
</g>
<!-- Node1&#45;&gt;Node8 -->
<g id="edge8" class="edge">
<title>Node1&#45;&gt;Node8</title>
<path fill="none" stroke="midnightblue" d="M923.69,-47.51C899.48,-41.3 870.34,-33.83 847.68,-28.03"/>
<polygon fill="midnightblue" stroke="midnightblue" points="922.83,-50.9 933.39,-49.99 924.57,-44.12 922.83,-50.9"/>
</g>
<!-- Node3 -->
<g id="node3" class="node">
<title>Node3</title>
<g id="a_node3"><a xlink:href="classConfigParser.html#a787a614f759e68dcd7ae0595df9b73e1" target="_top" xlink:title=" ">
<polygon fill="white" stroke="black" points="393,-44.5 393,-74.5 524,-74.5 524,-44.5 393,-44.5"/>
<text text-anchor="start" x="401" y="-62.5" font-family="Helvetica,sans-Serif" font-size="10.00">ConfigParser::parseSingle</text>
<text text-anchor="middle" x="458.5" y="-51.5" font-family="Helvetica,sans-Serif" font-size="10.00">ServerBlock</text>
</a>
</g>
</g>
<!-- Node2&#45;&gt;Node3 -->
<g id="edge2" class="edge">
<title>Node2&#45;&gt;Node3</title>
<path fill="none" stroke="midnightblue" d="M578.9,-85.73C561.55,-81.92 542.13,-77.65 524.07,-73.68"/>
<polygon fill="midnightblue" stroke="midnightblue" points="578.33,-89.18 588.84,-87.91 579.83,-82.35 578.33,-89.18"/>
</g>
<!-- Node4 -->
<g id="node4" class="node">
<title>Node4</title>
<g id="a_node4"><a xlink:href="classConfigParser.html#a49c9f8ad4f9ba802d27db330cf172e43" target="_top" xlink:title=" ">
<polygon fill="white" stroke="black" points="214,-44.5 214,-74.5 357,-74.5 357,-44.5 214,-44.5"/>
<text text-anchor="start" x="222" y="-62.5" font-family="Helvetica,sans-Serif" font-size="10.00">ConfigParser::parseAllServer</text>
<text text-anchor="middle" x="285.5" y="-51.5" font-family="Helvetica,sans-Serif" font-size="10.00">Blocks</text>
</a>
</g>
</g>
<!-- Node3&#45;&gt;Node4 -->
<g id="edge3" class="edge">
<title>Node3&#45;&gt;Node4</title>
<path fill="none" stroke="midnightblue" d="M382.65,-59.5C374.21,-59.5 365.63,-59.5 357.24,-59.5"/>
<polygon fill="midnightblue" stroke="midnightblue" points="382.85,-63 392.85,-59.5 382.85,-56 382.85,-63"/>
</g>
<!-- Node5 -->
<g id="node5" class="node">
<title>Node5</title>
<g id="a_node5"><a xlink:href="classConfigParser.html#a07493adaa4feb9beb085dcfe01af3e3c" target="_top" xlink:title="Parse the configuration file.">
<polygon fill="white" stroke="black" points="74,-50 74,-69 178,-69 178,-50 74,-50"/>
<text text-anchor="middle" x="126" y="-57" font-family="Helvetica,sans-Serif" font-size="10.00">ConfigParser::parse</text>
</a>
</g>
</g>
<!-- Node4&#45;&gt;Node5 -->
<g id="edge4" class="edge">
<title>Node4&#45;&gt;Node5</title>
<path fill="none" stroke="midnightblue" d="M203.49,-59.5C194.89,-59.5 186.32,-59.5 178.2,-59.5"/>
<polygon fill="midnightblue" stroke="midnightblue" points="203.58,-63 213.58,-59.5 203.58,-56 203.58,-63"/>
</g>
<!-- Node6 -->
<g id="node6" class="node">
<title>Node6</title>
<g id="a_node6"><a xlink:href="main_8cpp.html#a0ddf1224851353fc92bfbff6f499fa97" target="_top" xlink:title=" ">
<polygon fill="white" stroke="black" points="0,-50 0,-69 38,-69 38,-50 0,-50"/>
<text text-anchor="middle" x="19" y="-57" font-family="Helvetica,sans-Serif" font-size="10.00">main</text>
</a>
</g>
</g>
<!-- Node5&#45;&gt;Node6 -->
<g id="edge5" class="edge">
<title>Node5&#45;&gt;Node6</title>
<path fill="none" stroke="midnightblue" d="M63.64,-59.5C54.43,-59.5 45.6,-59.5 38.31,-59.5"/>
<polygon fill="midnightblue" stroke="midnightblue" points="63.73,-63 73.73,-59.5 63.73,-56 63.73,-63"/>
</g>
<!-- Node7&#45;&gt;Node3 -->
<g id="edge7" class="edge">
<title>Node7&#45;&gt;Node3</title>
<path fill="none" stroke="midnightblue" d="M734.33,-59.5C672,-59.5 583.82,-59.5 524.29,-59.5"/>
<polygon fill="midnightblue" stroke="midnightblue" points="734.49,-63 744.49,-59.5 734.49,-56 734.49,-63"/>
</g>
<!-- Node9 -->
<g id="node9" class="node">
<title>Node9</title>
<g id="a_node9"><a xlink:href="classConfigParser.html#a497afc5807db6d7f6092609c62cdd7ad" target="_top" xlink:title=" ">
<polygon fill="white" stroke="black" points="563.5,-0.5 563.5,-30.5 703.5,-30.5 703.5,-0.5 563.5,-0.5"/>
<text text-anchor="start" x="571.5" y="-18.5" font-family="Helvetica,sans-Serif" font-size="10.00">ConfigParser::parseLocation</text>
<text text-anchor="middle" x="633.5" y="-7.5" font-family="Helvetica,sans-Serif" font-size="10.00">Block</text>
</a>
</g>
</g>
<!-- Node8&#45;&gt;Node9 -->
<g id="edge9" class="edge">
<title>Node8&#45;&gt;Node9</title>
<path fill="none" stroke="midnightblue" d="M732.71,-17.19C723.02,-17.03 713.14,-16.86 703.56,-16.69"/>
<polygon fill="midnightblue" stroke="midnightblue" points="732.66,-20.69 742.72,-17.37 732.78,-13.69 732.66,-20.69"/>
</g>
<!-- Node9&#45;&gt;Node3 -->
<g id="edge10" class="edge">
<title>Node9&#45;&gt;Node3</title>
<path fill="none" stroke="midnightblue" d="M563.75,-32.99C548.8,-36.79 533.12,-40.78 518.58,-44.47"/>
<polygon fill="midnightblue" stroke="midnightblue" points="564.62,-36.38 573.45,-30.52 562.89,-29.59 564.62,-36.38"/>
</g>
</g>
</svg>
