<?xml version="1.0" encoding="UTF-8" standalone="no"?>
<!DOCTYPE svg PUBLIC "-//W3C//DTD SVG 1.1//EN"
 "http://www.w3.org/Graphics/SVG/1.1/DTD/svg11.dtd">
<!-- Generated by graphviz version 2.43.0 (0)
 -->
<!-- Title: config::utils::isValidIPv4 Pages: 1 -->
<svg width="1014pt" height="66pt"
 viewBox="0.00 0.00 1014.00 66.00" xmlns="http://www.w3.org/2000/svg" xmlns:xlink="http://www.w3.org/1999/xlink">
<g id="graph0" class="graph" transform="scale(1 1) rotate(0) translate(4 62)">
<title>config::utils::isValidIPv4</title>
<polygon fill="white" stroke="transparent" points="-4,4 -4,-62 1010,-62 1010,4 -4,4"/>
<!-- Node1 -->
<g id="node1" class="node">
<title>Node1</title>
<g id="a_node1"><a xlink:title="Validates an IPv4 address string.">
<polygon fill="#bfbfbf" stroke="black" points="884,-19.5 884,-38.5 1006,-38.5 1006,-19.5 884,-19.5"/>
<text text-anchor="middle" x="945" y="-26.5" font-family="Helvetica,sans-Serif" font-size="10.00">config::utils::isValidIPv4</text>
</a>
</g>
</g>
<!-- Node2 -->
<g id="node2" class="node">
<title>Node2</title>
<g id="a_node2"><a xlink:href="namespaceconfig_1_1utils.html#ab2e0db706cadd8f620668e8aa9ea1644" target="_top" xlink:title="Validates a host string (either IPv4 or hostname)">
<polygon fill="white" stroke="black" points="726,-19.5 726,-38.5 848,-38.5 848,-19.5 726,-19.5"/>
<text text-anchor="middle" x="787" y="-26.5" font-family="Helvetica,sans-Serif" font-size="10.00">config::utils::isValidHost</text>
</a>
</g>
</g>
<!-- Node1&#45;&gt;Node2 -->
<g id="edge1" class="edge">
<title>Node1&#45;&gt;Node2</title>
<path fill="none" stroke="midnightblue" d="M873.46,-29C865.01,-29 856.44,-29 848.15,-29"/>
<polygon fill="midnightblue" stroke="midnightblue" points="873.69,-32.5 883.69,-29 873.69,-25.5 873.69,-32.5"/>
</g>
<!-- Node3 -->
<g id="node3" class="node">
<title>Node3</title>
<g id="a_node3"><a xlink:href="classConfigParser.html#a53634b014cd0c6419ecf857b20b9a0ba" target="_top" xlink:title=" ">
<polygon fill="white" stroke="black" points="562.5,-38.5 562.5,-57.5 687.5,-57.5 687.5,-38.5 562.5,-38.5"/>
<text text-anchor="middle" x="625" y="-45.5" font-family="Helvetica,sans-Serif" font-size="10.00">ConfigParser::parseHost</text>
</a>
</g>
</g>
<!-- Node2&#45;&gt;Node3 -->
<g id="edge2" class="edge">
<title>Node2&#45;&gt;Node3</title>
<path fill="none" stroke="midnightblue" d="M715.88,-37.33C706.5,-38.44 696.93,-39.58 687.7,-40.67"/>
<polygon fill="midnightblue" stroke="midnightblue" points="716.45,-40.78 725.97,-36.13 715.62,-33.83 716.45,-40.78"/>
</g>
<!-- Node8 -->
<g id="node8" class="node">
<title>Node8</title>
<g id="a_node8"><a xlink:href="classConfigParser.html#a5334f5b1843097862ae150b653001674" target="_top" xlink:title=" ">
<polygon fill="white" stroke="black" points="560,-0.5 560,-19.5 690,-19.5 690,-0.5 560,-0.5"/>
<text text-anchor="middle" x="625" y="-7.5" font-family="Helvetica,sans-Serif" font-size="10.00">ConfigParser::parseListen</text>
</a>
</g>
</g>
<!-- Node2&#45;&gt;Node8 -->
<g id="edge7" class="edge">
<title>Node2&#45;&gt;Node8</title>
<path fill="none" stroke="midnightblue" d="M715.97,-20.68C707.37,-19.66 698.62,-18.62 690.12,-17.61"/>
<polygon fill="midnightblue" stroke="midnightblue" points="715.62,-24.17 725.97,-21.87 716.45,-17.22 715.62,-24.17"/>
</g>
<!-- Node4 -->
<g id="node4" class="node">
<title>Node4</title>
<g id="a_node4"><a xlink:href="classConfigParser.html#a787a614f759e68dcd7ae0595df9b73e1" target="_top" xlink:title=" ">
<polygon fill="white" stroke="black" points="393,-14 393,-44 524,-44 524,-14 393,-14"/>
<text text-anchor="start" x="401" y="-32" font-family="Helvetica,sans-Serif" font-size="10.00">ConfigParser::parseSingle</text>
<text text-anchor="middle" x="458.5" y="-21" font-family="Helvetica,sans-Serif" font-size="10.00">ServerBlock</text>
</a>
</g>
</g>
<!-- Node3&#45;&gt;Node4 -->
<g id="edge3" class="edge">
<title>Node3&#45;&gt;Node4</title>
<path fill="none" stroke="midnightblue" d="M552.21,-39.71C542.84,-38.63 533.28,-37.52 524.04,-36.45"/>
<polygon fill="midnightblue" stroke="midnightblue" points="551.94,-43.2 562.28,-40.87 552.75,-36.25 551.94,-43.2"/>
</g>
<!-- Node5 -->
<g id="node5" class="node">
<title>Node5</title>
<g id="a_node5"><a xlink:href="classConfigParser.html#a49c9f8ad4f9ba802d27db330cf172e43" target="_top" xlink:title=" ">
<polygon fill="white" stroke="black" points="214,-14 214,-44 357,-44 357,-14 214,-14"/>
<text text-anchor="start" x="222" y="-32" font-family="Helvetica,sans-Serif" font-size="10.00">ConfigParser::parseAllServer</text>
<text text-anchor="middle" x="285.5" y="-21" font-family="Helvetica,sans-Serif" font-size="10.00">Blocks</text>
</a>
</g>
</g>
<!-- Node4&#45;&gt;Node5 -->
<g id="edge4" class="edge">
<title>Node4&#45;&gt;Node5</title>
<path fill="none" stroke="midnightblue" d="M382.65,-29C374.21,-29 365.63,-29 357.24,-29"/>
<polygon fill="midnightblue" stroke="midnightblue" points="382.85,-32.5 392.85,-29 382.85,-25.5 382.85,-32.5"/>
</g>
<!-- Node6 -->
<g id="node6" class="node">
<title>Node6</title>
<g id="a_node6"><a xlink:href="classConfigParser.html#a07493adaa4feb9beb085dcfe01af3e3c" target="_top" xlink:title="Parse the configuration file.">
<polygon fill="white" stroke="black" points="74,-19.5 74,-38.5 178,-38.5 178,-19.5 74,-19.5"/>
<text text-anchor="middle" x="126" y="-26.5" font-family="Helvetica,sans-Serif" font-size="10.00">ConfigParser::parse</text>
</a>
</g>
</g>
<!-- Node5&#45;&gt;Node6 -->
<g id="edge5" class="edge">
<title>Node5&#45;&gt;Node6</title>
<path fill="none" stroke="midnightblue" d="M203.49,-29C194.89,-29 186.32,-29 178.2,-29"/>
<polygon fill="midnightblue" stroke="midnightblue" points="203.58,-32.5 213.58,-29 203.58,-25.5 203.58,-32.5"/>
</g>
<!-- Node7 -->
<g id="node7" class="node">
<title>Node7</title>
<g id="a_node7"><a xlink:href="main_8cpp.html#a0ddf1224851353fc92bfbff6f499fa97" target="_top" xlink:title=" ">
<polygon fill="white" stroke="black" points="0,-19.5 0,-38.5 38,-38.5 38,-19.5 0,-19.5"/>
<text text-anchor="middle" x="19" y="-26.5" font-family="Helvetica,sans-Serif" font-size="10.00">main</text>
</a>
</g>
</g>
<!-- Node6&#45;&gt;Node7 -->
<g id="edge6" class="edge">
<title>Node6&#45;&gt;Node7</title>
<path fill="none" stroke="midnightblue" d="M63.64,-29C54.43,-29 45.6,-29 38.31,-29"/>
<polygon fill="midnightblue" stroke="midnightblue" points="63.73,-32.5 73.73,-29 63.73,-25.5 63.73,-32.5"/>
</g>
<!-- Node8&#45;&gt;Node4 -->
<g id="edge8" class="edge">
<title>Node8&#45;&gt;Node4</title>
<path fill="none" stroke="midnightblue" d="M549.93,-18.55C541.35,-19.55 532.65,-20.55 524.21,-21.53"/>
<polygon fill="midnightblue" stroke="midnightblue" points="550.4,-22.02 559.93,-17.4 549.59,-15.07 550.4,-22.02"/>
</g>
</g>
</svg>
