<?xml version="1.0" encoding="UTF-8" standalone="no"?>
<!DOCTYPE svg PUBLIC "-//W3C//DTD SVG 1.1//EN"
 "http://www.w3.org/Graphics/SVG/1.1/DTD/svg11.dtd">
<!-- Generated by graphviz version 2.43.0 (0)
 -->
<!-- Title: config::utils::exportContentToLogFile Pages: 1 -->
<svg width="686pt" height="61pt"
 viewBox="0.00 0.00 686.00 61.00" xmlns="http://www.w3.org/2000/svg" xmlns:xlink="http://www.w3.org/1999/xlink">
<g id="graph0" class="graph" transform="scale(1 1) rotate(0) translate(4 57)">
<title>config::utils::exportContentToLogFile</title>
<polygon fill="white" stroke="transparent" points="-4,4 -4,-57 682,-57 682,4 -4,4"/>
<!-- Node1 -->
<g id="node1" class="node">
<title>Node1</title>
<g id="a_node1"><a xlink:title="Appends content to a log file.">
<polygon fill="#bfbfbf" stroke="black" points="544,-22.5 544,-52.5 678,-52.5 678,-22.5 544,-22.5"/>
<text text-anchor="start" x="552" y="-40.5" font-family="Helvetica,sans-Serif" font-size="10.00">config::utils::exportContent</text>
<text text-anchor="middle" x="611" y="-29.5" font-family="Helvetica,sans-Serif" font-size="10.00">ToLogFile</text>
</a>
</g>
</g>
<!-- Node2 -->
<g id="node2" class="node">
<title>Node2</title>
<g id="a_node2"><a xlink:href="classConfigParser.html#a07493adaa4feb9beb085dcfe01af3e3c" target="_top" xlink:title="Parse the configuration file.">
<polygon fill="white" stroke="black" points="74,-28 74,-47 178,-47 178,-28 74,-28"/>
<text text-anchor="middle" x="126" y="-35" font-family="Helvetica,sans-Serif" font-size="10.00">ConfigParser::parse</text>
</a>
</g>
</g>
<!-- Node1&#45;&gt;Node2 -->
<g id="edge1" class="edge">
<title>Node1&#45;&gt;Node2</title>
<path fill="none" stroke="midnightblue" d="M533.74,-39.16C525.06,-39.3 516.34,-39.42 508,-39.5 377.34,-40.78 344.66,-41 214,-39.5 202.37,-39.37 189.86,-39.13 178.06,-38.87"/>
<polygon fill="midnightblue" stroke="midnightblue" points="533.95,-42.66 543.89,-38.99 533.83,-35.66 533.95,-42.66"/>
</g>
<!-- Node4 -->
<g id="node4" class="node">
<title>Node4</title>
<g id="a_node4"><a xlink:href="classConfigParser.html#aa7b57f2294fdd47bb93e64ec0b497a62" target="_top" xlink:title=" ">
<polygon fill="white" stroke="black" points="376,-0.5 376,-30.5 508,-30.5 508,-0.5 376,-0.5"/>
<text text-anchor="start" x="384" y="-18.5" font-family="Helvetica,sans-Serif" font-size="10.00">ConfigParser::splitContent</text>
<text text-anchor="middle" x="442" y="-7.5" font-family="Helvetica,sans-Serif" font-size="10.00">IntoServerBlocks</text>
</a>
</g>
</g>
<!-- Node1&#45;&gt;Node4 -->
<g id="edge3" class="edge">
<title>Node1&#45;&gt;Node4</title>
<path fill="none" stroke="midnightblue" d="M533.98,-27.49C525.39,-26.35 516.69,-25.21 508.25,-24.1"/>
<polygon fill="midnightblue" stroke="midnightblue" points="533.63,-30.97 544,-28.81 534.54,-24.03 533.63,-30.97"/>
</g>
<!-- Node3 -->
<g id="node3" class="node">
<title>Node3</title>
<g id="a_node3"><a xlink:href="main_8cpp.html#a0ddf1224851353fc92bfbff6f499fa97" target="_top" xlink:title=" ">
<polygon fill="white" stroke="black" points="0,-28 0,-47 38,-47 38,-28 0,-28"/>
<text text-anchor="middle" x="19" y="-35" font-family="Helvetica,sans-Serif" font-size="10.00">main</text>
</a>
</g>
</g>
<!-- Node2&#45;&gt;Node3 -->
<g id="edge2" class="edge">
<title>Node2&#45;&gt;Node3</title>
<path fill="none" stroke="midnightblue" d="M63.64,-37.5C54.43,-37.5 45.6,-37.5 38.31,-37.5"/>
<polygon fill="midnightblue" stroke="midnightblue" points="63.73,-41 73.73,-37.5 63.73,-34 63.73,-41"/>
</g>
<!-- Node5 -->
<g id="node5" class="node">
<title>Node5</title>
<g id="a_node5"><a xlink:href="classConfigParser.html#a2084d4e17518e0c8e7f534ba50be4ee9" target="_top" xlink:title=" ">
<polygon fill="white" stroke="black" points="214,-0.5 214,-30.5 340,-30.5 340,-0.5 214,-0.5"/>
<text text-anchor="start" x="222" y="-18.5" font-family="Helvetica,sans-Serif" font-size="10.00">ConfigParser::loadServer</text>
<text text-anchor="middle" x="277" y="-7.5" font-family="Helvetica,sans-Serif" font-size="10.00">Blocks</text>
</a>
</g>
</g>
<!-- Node4&#45;&gt;Node5 -->
<g id="edge4" class="edge">
<title>Node4&#45;&gt;Node5</title>
<path fill="none" stroke="midnightblue" d="M365.41,-15.5C356.97,-15.5 348.44,-15.5 340.2,-15.5"/>
<polygon fill="midnightblue" stroke="midnightblue" points="365.64,-19 375.64,-15.5 365.64,-12 365.64,-19"/>
</g>
<!-- Node5&#45;&gt;Node2 -->
<g id="edge5" class="edge">
<title>Node5&#45;&gt;Node2</title>
<path fill="none" stroke="midnightblue" d="M203.64,-26.18C195.06,-27.45 186.44,-28.72 178.24,-29.93"/>
<polygon fill="midnightblue" stroke="midnightblue" points="204.29,-29.63 213.67,-24.7 203.27,-22.7 204.29,-29.63"/>
</g>
</g>
</svg>
