<?xml version="1.0" encoding="UTF-8" standalone="no"?>
<!DOCTYPE svg PUBLIC "-//W3C//DTD SVG 1.1//EN"
 "http://www.w3.org/Graphics/SVG/1.1/DTD/svg11.dtd">
<!-- Generated by graphviz version 2.43.0 (0)
 -->
<!-- Title: config::debug::debugConfigLog Pages: 1 -->
<svg width="349pt" height="66pt"
 viewBox="0.00 0.00 349.00 66.00" xmlns="http://www.w3.org/2000/svg" xmlns:xlink="http://www.w3.org/1999/xlink">
<g id="graph0" class="graph" transform="scale(1 1) rotate(0) translate(4 62)">
<title>config::debug::debugConfigLog</title>
<polygon fill="white" stroke="transparent" points="-4,4 -4,-62 345,-62 345,4 -4,4"/>
<!-- Node1 -->
<g id="node1" class="node">
<title>Node1</title>
<g id="a_node1"><a xlink:title=" ">
<polygon fill="#bfbfbf" stroke="black" points="0,-19.5 0,-38.5 152,-38.5 152,-19.5 0,-19.5"/>
<text text-anchor="middle" x="76" y="-26.5" font-family="Helvetica,sans-Serif" font-size="10.00">config::debug::debugConfigLog</text>
</a>
</g>
</g>
<!-- Node2 -->
<g id="node2" class="node">
<title>Node2</title>
<g id="a_node2"><a xlink:href="namespaceconfig_1_1utils.html#a77805f5da50849772ca4cd5746492435" target="_top" xlink:title="Removes comments (starting with #) from a line.">
<polygon fill="white" stroke="black" points="188,-38.5 188,-57.5 341,-57.5 341,-38.5 188,-38.5"/>
<text text-anchor="middle" x="264.5" y="-45.5" font-family="Helvetica,sans-Serif" font-size="10.00">config::utils::removeComments</text>
</a>
</g>
</g>
<!-- Node1&#45;&gt;Node2 -->
<g id="edge1" class="edge">
<title>Node1&#45;&gt;Node2</title>
<path fill="none" stroke="midnightblue" d="M152.05,-36.65C160.56,-37.51 169.28,-38.4 177.92,-39.28"/>
<polygon fill="midnightblue" stroke="midnightblue" points="177.69,-42.78 188,-40.31 178.4,-35.81 177.69,-42.78"/>
</g>
<!-- Node3 -->
<g id="node3" class="node">
<title>Node3</title>
<g id="a_node3"><a xlink:href="namespaceconfig_1_1utils.html#a03d47ec69fc7beb981a8635fae2f6f49" target="_top" xlink:title="Trims leading and trailing whitespace from a line.">
<polygon fill="white" stroke="black" points="211,-0.5 211,-19.5 318,-19.5 318,-0.5 211,-0.5"/>
<text text-anchor="middle" x="264.5" y="-7.5" font-family="Helvetica,sans-Serif" font-size="10.00">config::utils::trimLine</text>
</a>
</g>
</g>
<!-- Node1&#45;&gt;Node3 -->
<g id="edge2" class="edge">
<title>Node1&#45;&gt;Node3</title>
<path fill="none" stroke="midnightblue" d="M152.05,-21.35C168.24,-19.7 185.19,-17.98 200.85,-16.38"/>
<polygon fill="midnightblue" stroke="midnightblue" points="201.34,-19.85 210.93,-15.36 200.63,-12.89 201.34,-19.85"/>
</g>
</g>
</svg>
