<?xml version="1.0" encoding="UTF-8" standalone="no"?>
<!DOCTYPE svg PUBLIC "-//W3C//DTD SVG 1.1//EN"
 "http://www.w3.org/Graphics/SVG/1.1/DTD/svg11.dtd">
<!-- Generated by graphviz version 2.43.0 (0)
 -->
<!-- Title: src/common/namespaces.hpp Pages: 1 -->
<svg width="1648pt" height="330pt"
 viewBox="0.00 0.00 1648.19 330.00" xmlns="http://www.w3.org/2000/svg" xmlns:xlink="http://www.w3.org/1999/xlink">
<g id="graph0" class="graph" transform="scale(1 1) rotate(0) translate(4 326)">
<title>src/common/namespaces.hpp</title>
<polygon fill="white" stroke="transparent" points="-4,4 -4,-326 1644.19,-326 1644.19,4 -4,4"/>
<!-- Node1 -->
<g id="node1" class="node">
<title>Node1</title>
<g id="a_node1"><a xlink:title=" ">
<polygon fill="#bfbfbf" stroke="black" points="184,-302.5 184,-321.5 332,-321.5 332,-302.5 184,-302.5"/>
<text text-anchor="middle" x="258" y="-309.5" font-family="Helvetica,sans-Serif" font-size="10.00">src/common/namespaces.hpp</text>
</a>
</g>
</g>
<!-- Node2 -->
<g id="node2" class="node">
<title>Node2</title>
<g id="a_node2"><a xlink:href="ConfigParser_8cpp.html" target="_top" xlink:title=" ">
<polygon fill="white" stroke="black" points="186.5,-118 186.5,-137 323.5,-137 323.5,-118 186.5,-118"/>
<text text-anchor="middle" x="255" y="-125" font-family="Helvetica,sans-Serif" font-size="10.00">src/config/ConfigParser.cpp</text>
</a>
</g>
</g>
<!-- Node1&#45;&gt;Node2 -->
<g id="edge1" class="edge">
<title>Node1&#45;&gt;Node2</title>
<path fill="none" stroke="midnightblue" d="M240.89,-295.26C233.25,-287.25 224.9,-276.92 220,-266 204.11,-230.57 198.59,-215.44 212,-179 218.36,-161.71 233.57,-146.31 244.08,-137.18"/>
<polygon fill="midnightblue" stroke="midnightblue" points="238.55,-297.88 248.12,-302.43 243.48,-292.9 238.55,-297.88"/>
</g>
<!-- Node3 -->
<g id="node3" class="node">
<title>Node3</title>
<g id="a_node3"><a xlink:href="ConfigUtils_8hpp.html" target="_top" xlink:title=" ">
<polygon fill="white" stroke="black" points="12,-185 12,-204 142,-204 142,-185 12,-185"/>
<text text-anchor="middle" x="77" y="-192" font-family="Helvetica,sans-Serif" font-size="10.00">src/config/ConfigUtils.hpp</text>
</a>
</g>
</g>
<!-- Node1&#45;&gt;Node3 -->
<g id="edge2" class="edge">
<title>Node1&#45;&gt;Node3</title>
<path fill="none" stroke="midnightblue" d="M223.46,-298.88C203.03,-290.97 177.12,-279.6 156,-266 127.25,-247.49 98.57,-218.66 85.04,-204.28"/>
<polygon fill="midnightblue" stroke="midnightblue" points="222.41,-302.23 233,-302.48 224.88,-295.68 222.41,-302.23"/>
</g>
<!-- Node5 -->
<g id="node5" class="node">
<title>Node5</title>
<g id="a_node5"><a xlink:href="main_8cpp.html" target="_top" xlink:title=" ">
<polygon fill="white" stroke="black" points="386.5,-0.5 386.5,-19.5 459.5,-19.5 459.5,-0.5 386.5,-0.5"/>
<text text-anchor="middle" x="423" y="-7.5" font-family="Helvetica,sans-Serif" font-size="10.00">src/main.cpp</text>
</a>
</g>
</g>
<!-- Node1&#45;&gt;Node5 -->
<g id="edge45" class="edge">
<title>Node1&#45;&gt;Node5</title>
<path fill="none" stroke="midnightblue" d="M337.69,-299.58C357.84,-292.93 377.56,-282.46 391,-266 422.75,-227.12 423.41,-59.6 423.1,-19.6"/>
<polygon fill="midnightblue" stroke="midnightblue" points="336.68,-296.23 328.1,-302.46 338.69,-302.94 336.68,-296.23"/>
</g>
<!-- Node6 -->
<g id="node6" class="node">
<title>Node6</title>
<g id="a_node6"><a xlink:href="LocationConfig_8cpp.html" target="_top" xlink:title=" ">
<polygon fill="white" stroke="black" points="236,-246.5 236,-265.5 382,-265.5 382,-246.5 236,-246.5"/>
<text text-anchor="middle" x="309" y="-253.5" font-family="Helvetica,sans-Serif" font-size="10.00">src/config/LocationConfig.cpp</text>
</a>
</g>
</g>
<!-- Node1&#45;&gt;Node6 -->
<g id="edge6" class="edge">
<title>Node1&#45;&gt;Node6</title>
<path fill="none" stroke="midnightblue" d="M273.38,-294.72C282.37,-285.2 293.36,-273.56 300.74,-265.75"/>
<polygon fill="midnightblue" stroke="midnightblue" points="270.74,-292.41 266.42,-302.08 275.83,-297.22 270.74,-292.41"/>
</g>
<!-- Node7 -->
<g id="node7" class="node">
<title>Node7</title>
<g id="a_node7"><a xlink:href="ServerConfig_8cpp.html" target="_top" xlink:title=" ">
<polygon fill="white" stroke="black" points="221,-185 221,-204 359,-204 359,-185 221,-185"/>
<text text-anchor="middle" x="290" y="-192" font-family="Helvetica,sans-Serif" font-size="10.00">src/config/ServerConfig.cpp</text>
</a>
</g>
</g>
<!-- Node1&#45;&gt;Node7 -->
<g id="edge7" class="edge">
<title>Node1&#45;&gt;Node7</title>
<path fill="none" stroke="midnightblue" d="M241.38,-294.43C230.3,-281.29 219.1,-262.46 227,-246 236.28,-226.67 256.97,-212.4 272.12,-204.06"/>
<polygon fill="midnightblue" stroke="midnightblue" points="239.11,-297.14 248.44,-302.16 244.28,-292.42 239.11,-297.14"/>
</g>
<!-- Node8 -->
<g id="node8" class="node">
<title>Node8</title>
<g id="a_node8"><a xlink:href="ServerConfig_8hpp.html" target="_top" xlink:title=" ">
<polygon fill="white" stroke="black" points="614,-246.5 614,-265.5 752,-265.5 752,-246.5 614,-246.5"/>
<text text-anchor="middle" x="683" y="-253.5" font-family="Helvetica,sans-Serif" font-size="10.00">src/config/ServerConfig.hpp</text>
</a>
</g>
</g>
<!-- Node1&#45;&gt;Node8 -->
<g id="edge8" class="edge">
<title>Node1&#45;&gt;Node8</title>
<path fill="none" stroke="midnightblue" d="M335.39,-301.17C415.63,-290.97 539.79,-275.2 615.97,-265.52"/>
<polygon fill="midnightblue" stroke="midnightblue" points="334.82,-297.71 325.34,-302.44 335.7,-304.66 334.82,-297.71"/>
</g>
<!-- Node3&#45;&gt;Node2 -->
<g id="edge3" class="edge">
<title>Node3&#45;&gt;Node2</title>
<path fill="none" stroke="midnightblue" d="M110.04,-181.44C145.35,-168.54 200.44,-148.42 231.55,-137.06"/>
<polygon fill="midnightblue" stroke="midnightblue" points="108.83,-178.15 100.64,-184.87 111.23,-184.73 108.83,-178.15"/>
</g>
<!-- Node4 -->
<g id="node4" class="node">
<title>Node4</title>
<g id="a_node4"><a xlink:href="ConfigUtils_8cpp.html" target="_top" xlink:title=" ">
<polygon fill="white" stroke="black" points="0,-118 0,-137 130,-137 130,-118 0,-118"/>
<text text-anchor="middle" x="65" y="-125" font-family="Helvetica,sans-Serif" font-size="10.00">src/config/ConfigUtils.cpp</text>
</a>
</g>
</g>
<!-- Node3&#45;&gt;Node4 -->
<g id="edge4" class="edge">
<title>Node3&#45;&gt;Node4</title>
<path fill="none" stroke="midnightblue" d="M73.5,-174.54C71.22,-162.17 68.35,-146.62 66.59,-137.13"/>
<polygon fill="midnightblue" stroke="midnightblue" points="70.12,-175.54 75.38,-184.73 77.01,-174.26 70.12,-175.54"/>
</g>
<!-- Node3&#45;&gt;Node5 -->
<g id="edge5" class="edge">
<title>Node3&#45;&gt;Node5</title>
<path fill="none" stroke="midnightblue" d="M95.54,-178.43C124.08,-155.24 175.76,-113.33 178,-112 251.81,-68.25 348.11,-34.64 394.95,-19.62"/>
<polygon fill="midnightblue" stroke="midnightblue" points="93.06,-175.94 87.5,-184.96 97.47,-181.37 93.06,-175.94"/>
</g>
<!-- Node8&#45;&gt;Node7 -->
<g id="edge43" class="edge">
<title>Node8&#45;&gt;Node7</title>
<path fill="none" stroke="midnightblue" d="M616.76,-244.97C540.82,-233.47 417.65,-214.83 346.2,-204.01"/>
<polygon fill="midnightblue" stroke="midnightblue" points="616.28,-248.44 626.69,-246.48 617.33,-241.52 616.28,-248.44"/>
</g>
<!-- Node9 -->
<g id="node9" class="node">
<title>Node9</title>
<g id="a_node9"><a xlink:href="CgiExecutor_8hpp.html" target="_top" xlink:title=" ">
<polygon fill="white" stroke="black" points="1503.5,-185 1503.5,-204 1624.5,-204 1624.5,-185 1503.5,-185"/>
<text text-anchor="middle" x="1564" y="-192" font-family="Helvetica,sans-Serif" font-size="10.00">src/cgi/CgiExecutor.hpp</text>
</a>
</g>
</g>
<!-- Node8&#45;&gt;Node9 -->
<g id="edge9" class="edge">
<title>Node8&#45;&gt;Node9</title>
<path fill="none" stroke="midnightblue" d="M762.24,-249.65C936.18,-237.9 1348.27,-210.07 1503.47,-199.59"/>
<polygon fill="midnightblue" stroke="midnightblue" points="761.87,-246.17 752.13,-250.33 762.34,-253.15 761.87,-246.17"/>
</g>
<!-- Node12 -->
<g id="node12" class="node">
<title>Node12</title>
<g id="a_node12"><a xlink:href="Client_8hpp.html" target="_top" xlink:title=" ">
<polygon fill="white" stroke="black" points="620,-118 620,-137 724,-137 724,-118 620,-118"/>
<text text-anchor="middle" x="672" y="-125" font-family="Helvetica,sans-Serif" font-size="10.00">src/client/Client.hpp</text>
</a>
</g>
</g>
<!-- Node8&#45;&gt;Node12 -->
<g id="edge12" class="edge">
<title>Node8&#45;&gt;Node12</title>
<path fill="none" stroke="midnightblue" d="M666.82,-238.96C659.9,-230.98 652.6,-220.75 649,-210 640.21,-183.79 656.74,-152.12 666.13,-137.15"/>
<polygon fill="midnightblue" stroke="midnightblue" points="664.35,-241.44 673.71,-246.39 669.48,-236.68 664.35,-241.44"/>
</g>
<!-- Node15 -->
<g id="node15" class="node">
<title>Node15</title>
<g id="a_node15"><a xlink:href="ServerManager_8hpp.html" target="_top" xlink:title=" ">
<polygon fill="white" stroke="black" points="604.5,-56.5 604.5,-75.5 759.5,-75.5 759.5,-56.5 604.5,-56.5"/>
<text text-anchor="middle" x="682" y="-63.5" font-family="Helvetica,sans-Serif" font-size="10.00">src/network/ServerManager.hpp</text>
</a>
</g>
</g>
<!-- Node8&#45;&gt;Node15 -->
<g id="edge44" class="edge">
<title>Node8&#45;&gt;Node15</title>
<path fill="none" stroke="midnightblue" d="M666.47,-239.28C658.42,-231.07 649,-220.54 642,-210 623.85,-182.67 618.05,-175.04 611,-143 608.04,-129.54 604.36,-124.07 611,-112 620.71,-94.35 640.58,-82.66 656.84,-75.62"/>
<polygon fill="midnightblue" stroke="midnightblue" points="664.07,-241.83 673.64,-246.38 668.99,-236.86 664.07,-241.83"/>
</g>
<!-- Node16 -->
<g id="node16" class="node">
<title>Node16</title>
<g id="a_node16"><a xlink:href="ErrorUtils_8hpp.html" target="_top" xlink:title=" ">
<polygon fill="white" stroke="black" points="1009.5,-185 1009.5,-204 1128.5,-204 1128.5,-185 1009.5,-185"/>
<text text-anchor="middle" x="1069" y="-192" font-family="Helvetica,sans-Serif" font-size="10.00">src/client/ErrorUtils.hpp</text>
</a>
</g>
</g>
<!-- Node8&#45;&gt;Node16 -->
<g id="edge21" class="edge">
<title>Node8&#45;&gt;Node16</title>
<path fill="none" stroke="midnightblue" d="M762.17,-245.35C826.66,-237.12 919.96,-224.36 1001,-210 1010.87,-208.25 1021.48,-206.11 1031.32,-204.02"/>
<polygon fill="midnightblue" stroke="midnightblue" points="761.55,-241.9 752.07,-246.63 762.44,-248.84 761.55,-241.9"/>
</g>
<!-- Node20 -->
<g id="node20" class="node">
<title>Node20</title>
<g id="a_node20"><a xlink:href="RequestProcessor_8hpp.html" target="_top" xlink:title=" ">
<polygon fill="white" stroke="black" points="658,-185 658,-204 816,-204 816,-185 658,-185"/>
<text text-anchor="middle" x="737" y="-192" font-family="Helvetica,sans-Serif" font-size="10.00">src/client/RequestProcessor.hpp</text>
</a>
</g>
</g>
<!-- Node8&#45;&gt;Node20 -->
<g id="edge27" class="edge">
<title>Node8&#45;&gt;Node20</title>
<path fill="none" stroke="midnightblue" d="M697.52,-239C707.74,-227.74 721.02,-213.1 729.28,-204.01"/>
<polygon fill="midnightblue" stroke="midnightblue" points="694.87,-236.72 690.74,-246.48 700.05,-241.42 694.87,-236.72"/>
</g>
<!-- Node21 -->
<g id="node21" class="node">
<title>Node21</title>
<g id="a_node21"><a xlink:href="RequestProcessorUtils_8hpp.html" target="_top" xlink:title=" ">
<polygon fill="white" stroke="black" points="1159,-179.5 1159,-209.5 1299,-209.5 1299,-179.5 1159,-179.5"/>
<text text-anchor="start" x="1167" y="-197.5" font-family="Helvetica,sans-Serif" font-size="10.00">src/client/RequestProcessor</text>
<text text-anchor="middle" x="1229" y="-186.5" font-family="Helvetica,sans-Serif" font-size="10.00">Utils.hpp</text>
</a>
</g>
</g>
<!-- Node8&#45;&gt;Node21 -->
<g id="edge30" class="edge">
<title>Node8&#45;&gt;Node21</title>
<path fill="none" stroke="midnightblue" d="M762.36,-248.59C853.29,-240.91 1006.67,-226.94 1138,-210 1144.66,-209.14 1151.59,-208.17 1158.51,-207.15"/>
<polygon fill="midnightblue" stroke="midnightblue" points="761.81,-245.12 752.14,-249.45 762.39,-252.1 761.81,-245.12"/>
</g>
<!-- Node23 -->
<g id="node23" class="node">
<title>Node23</title>
<g id="a_node23"><a xlink:href="StaticPathHandler_8hpp.html" target="_top" xlink:title=" ">
<polygon fill="white" stroke="black" points="834.5,-185 834.5,-204 991.5,-204 991.5,-185 834.5,-185"/>
<text text-anchor="middle" x="913" y="-192" font-family="Helvetica,sans-Serif" font-size="10.00">src/client/StaticPathHandler.hpp</text>
</a>
</g>
</g>
<!-- Node8&#45;&gt;Node23 -->
<g id="edge37" class="edge">
<title>Node8&#45;&gt;Node23</title>
<path fill="none" stroke="midnightblue" d="M725.64,-243.97C770.3,-232.41 839.49,-214.52 880.11,-204.01"/>
<polygon fill="midnightblue" stroke="midnightblue" points="724.76,-240.58 715.95,-246.48 726.51,-247.36 724.76,-240.58"/>
</g>
<!-- Node24 -->
<g id="node24" class="node">
<title>Node24</title>
<g id="a_node24"><a xlink:href="ConfigParser_8hpp.html" target="_top" xlink:title=" ">
<polygon fill="white" stroke="black" points="426.5,-185 426.5,-204 563.5,-204 563.5,-185 426.5,-185"/>
<text text-anchor="middle" x="495" y="-192" font-family="Helvetica,sans-Serif" font-size="10.00">src/config/ConfigParser.hpp</text>
</a>
</g>
</g>
<!-- Node8&#45;&gt;Node24 -->
<g id="edge40" class="edge">
<title>Node8&#45;&gt;Node24</title>
<path fill="none" stroke="midnightblue" d="M646.29,-243.38C609.74,-231.82 554.53,-214.34 521.89,-204.01"/>
<polygon fill="midnightblue" stroke="midnightblue" points="645.47,-246.79 656.06,-246.48 647.59,-240.12 645.47,-246.79"/>
</g>
<!-- Node10 -->
<g id="node10" class="node">
<title>Node10</title>
<g id="a_node10"><a xlink:href="CgiExecutor_8cpp.html" target="_top" xlink:title=" ">
<polygon fill="white" stroke="black" points="1503.5,-118 1503.5,-137 1624.5,-137 1624.5,-118 1503.5,-118"/>
<text text-anchor="middle" x="1564" y="-125" font-family="Helvetica,sans-Serif" font-size="10.00">src/cgi/CgiExecutor.cpp</text>
</a>
</g>
</g>
<!-- Node9&#45;&gt;Node10 -->
<g id="edge10" class="edge">
<title>Node9&#45;&gt;Node10</title>
<path fill="none" stroke="midnightblue" d="M1564,-174.54C1564,-162.17 1564,-146.62 1564,-137.13"/>
<polygon fill="midnightblue" stroke="midnightblue" points="1560.5,-174.73 1564,-184.73 1567.5,-174.73 1560.5,-174.73"/>
</g>
<!-- Node11 -->
<g id="node11" class="node">
<title>Node11</title>
<g id="a_node11"><a xlink:href="ClientCgi_8cpp.html" target="_top" xlink:title=" ">
<polygon fill="white" stroke="black" points="887.5,-0.5 887.5,-19.5 1006.5,-19.5 1006.5,-0.5 887.5,-0.5"/>
<text text-anchor="middle" x="947" y="-7.5" font-family="Helvetica,sans-Serif" font-size="10.00">src/client/ClientCgi.cpp</text>
</a>
</g>
</g>
<!-- Node9&#45;&gt;Node11 -->
<g id="edge11" class="edge">
<title>Node9&#45;&gt;Node11</title>
<path fill="none" stroke="midnightblue" d="M1589.94,-179.9C1617.54,-163.7 1654.59,-135.84 1634,-112 1552.93,-18.14 1158.41,-9.91 1006.65,-10.3"/>
<polygon fill="midnightblue" stroke="midnightblue" points="1588.03,-176.96 1581.04,-184.92 1591.47,-183.05 1588.03,-176.96"/>
</g>
<!-- Node12&#45;&gt;Node11 -->
<g id="edge14" class="edge">
<title>Node12&#45;&gt;Node11</title>
<path fill="none" stroke="midnightblue" d="M702.1,-113.86C758.43,-90.2 878.41,-39.81 926.47,-19.62"/>
<polygon fill="midnightblue" stroke="midnightblue" points="700.53,-110.72 692.67,-117.82 703.24,-117.17 700.53,-110.72"/>
</g>
<!-- Node13 -->
<g id="node13" class="node">
<title>Node13</title>
<g id="a_node13"><a xlink:href="Client_8cpp.html" target="_top" xlink:title=" ">
<polygon fill="white" stroke="black" points="755,-0.5 755,-19.5 859,-19.5 859,-0.5 755,-0.5"/>
<text text-anchor="middle" x="807" y="-7.5" font-family="Helvetica,sans-Serif" font-size="10.00">src/client/Client.cpp</text>
</a>
</g>
</g>
<!-- Node12&#45;&gt;Node13 -->
<g id="edge13" class="edge">
<title>Node12&#45;&gt;Node13</title>
<path fill="none" stroke="midnightblue" d="M706.48,-114.16C726.48,-105.73 751.16,-92.99 769,-76 786.42,-59.41 798.43,-33.09 803.81,-19.6"/>
<polygon fill="midnightblue" stroke="midnightblue" points="705.05,-110.97 697.09,-117.96 707.67,-117.46 705.05,-110.97"/>
</g>
<!-- Node14 -->
<g id="node14" class="node">
<title>Node14</title>
<g id="a_node14"><a xlink:href="ServerManager_8cpp.html" target="_top" xlink:title=" ">
<polygon fill="white" stroke="black" points="560.5,-0.5 560.5,-19.5 715.5,-19.5 715.5,-0.5 560.5,-0.5"/>
<text text-anchor="middle" x="638" y="-7.5" font-family="Helvetica,sans-Serif" font-size="10.00">src/network/ServerManager.cpp</text>
</a>
</g>
</g>
<!-- Node12&#45;&gt;Node14 -->
<g id="edge15" class="edge">
<title>Node12&#45;&gt;Node14</title>
<path fill="none" stroke="midnightblue" d="M639.18,-113.65C623.08,-105.48 605.2,-93.16 596,-76 584.7,-54.92 609.42,-31.73 625.53,-19.56"/>
<polygon fill="midnightblue" stroke="midnightblue" points="637.85,-116.89 648.38,-117.99 640.83,-110.56 637.85,-116.89"/>
</g>
<!-- Node12&#45;&gt;Node15 -->
<g id="edge16" class="edge">
<title>Node12&#45;&gt;Node15</title>
<path fill="none" stroke="midnightblue" d="M675.14,-107.82C676.96,-97 679.16,-83.9 680.57,-75.51"/>
<polygon fill="midnightblue" stroke="midnightblue" points="671.64,-107.53 673.43,-117.98 678.54,-108.69 671.64,-107.53"/>
</g>
<!-- Node15&#45;&gt;Node5 -->
<g id="edge19" class="edge">
<title>Node15&#45;&gt;Node5</title>
<path fill="none" stroke="midnightblue" d="M630.91,-54.35C580.42,-43.82 504.43,-27.98 459.66,-18.64"/>
<polygon fill="midnightblue" stroke="midnightblue" points="630.46,-57.83 640.96,-56.44 631.89,-50.98 630.46,-57.83"/>
</g>
<!-- Node15&#45;&gt;Node11 -->
<g id="edge18" class="edge">
<title>Node15&#45;&gt;Node11</title>
<path fill="none" stroke="midnightblue" d="M733.97,-54.41C784.05,-44.2 858.86,-28.96 905.21,-19.52"/>
<polygon fill="midnightblue" stroke="midnightblue" points="733.09,-51.02 723.99,-56.44 734.49,-57.88 733.09,-51.02"/>
</g>
<!-- Node15&#45;&gt;Node13 -->
<g id="edge17" class="edge">
<title>Node15&#45;&gt;Node13</title>
<path fill="none" stroke="midnightblue" d="M711.24,-52.37C734.65,-42.26 766.84,-28.35 787.29,-19.52"/>
<polygon fill="midnightblue" stroke="midnightblue" points="709.6,-49.26 701.81,-56.44 712.37,-55.69 709.6,-49.26"/>
</g>
<!-- Node15&#45;&gt;Node14 -->
<g id="edge20" class="edge">
<title>Node15&#45;&gt;Node14</title>
<path fill="none" stroke="midnightblue" d="M668.27,-48.14C660.6,-38.74 651.37,-27.4 645.13,-19.75"/>
<polygon fill="midnightblue" stroke="midnightblue" points="665.7,-50.54 674.73,-56.08 671.13,-46.12 665.7,-50.54"/>
</g>
<!-- Node16&#45;&gt;Node11 -->
<g id="edge23" class="edge">
<title>Node16&#45;&gt;Node11</title>
<path fill="none" stroke="midnightblue" d="M1036.44,-180.63C1019.18,-172.29 998.93,-159.81 986,-143 955.98,-103.98 949.02,-42.29 947.45,-19.67"/>
<polygon fill="midnightblue" stroke="midnightblue" points="1035.1,-183.87 1045.65,-184.85 1038.01,-177.51 1035.1,-183.87"/>
</g>
<!-- Node16&#45;&gt;Node13 -->
<g id="edge22" class="edge">
<title>Node16&#45;&gt;Node13</title>
<path fill="none" stroke="midnightblue" d="M1037.93,-181.01C1016.44,-171.79 987.57,-158.23 964,-143 902.39,-103.19 838.27,-41.97 815.58,-19.58"/>
<polygon fill="midnightblue" stroke="midnightblue" points="1036.67,-184.28 1047.25,-184.93 1039.39,-177.82 1036.67,-184.28"/>
</g>
<!-- Node17 -->
<g id="node17" class="node">
<title>Node17</title>
<g id="a_node17"><a xlink:href="ErrorUtils_8cpp.html" target="_top" xlink:title=" ">
<polygon fill="white" stroke="black" points="1169.5,-118 1169.5,-137 1288.5,-137 1288.5,-118 1169.5,-118"/>
<text text-anchor="middle" x="1229" y="-125" font-family="Helvetica,sans-Serif" font-size="10.00">src/client/ErrorUtils.cpp</text>
</a>
</g>
</g>
<!-- Node16&#45;&gt;Node17 -->
<g id="edge24" class="edge">
<title>Node16&#45;&gt;Node17</title>
<path fill="none" stroke="midnightblue" d="M1099.51,-181.1C1131.28,-168.2 1180.19,-148.33 1207.92,-137.06"/>
<polygon fill="midnightblue" stroke="midnightblue" points="1098.19,-177.86 1090.25,-184.87 1100.83,-184.35 1098.19,-177.86"/>
</g>
<!-- Node18 -->
<g id="node18" class="node">
<title>Node18</title>
<g id="a_node18"><a xlink:href="RequestProcessor_8cpp.html" target="_top" xlink:title=" ">
<polygon fill="white" stroke="black" points="742,-118 742,-137 900,-137 900,-118 742,-118"/>
<text text-anchor="middle" x="821" y="-125" font-family="Helvetica,sans-Serif" font-size="10.00">src/client/RequestProcessor.cpp</text>
</a>
</g>
</g>
<!-- Node16&#45;&gt;Node18 -->
<g id="edge25" class="edge">
<title>Node16&#45;&gt;Node18</title>
<path fill="none" stroke="midnightblue" d="M1026.36,-182.32C977.39,-169.49 898.12,-148.71 853.75,-137.08"/>
<polygon fill="midnightblue" stroke="midnightblue" points="1025.76,-185.79 1036.32,-184.94 1027.54,-179.01 1025.76,-185.79"/>
</g>
<!-- Node19 -->
<g id="node19" class="node">
<title>Node19</title>
<g id="a_node19"><a xlink:href="StaticPathHandler_8cpp.html" target="_top" xlink:title=" ">
<polygon fill="white" stroke="black" points="994.5,-118 994.5,-137 1151.5,-137 1151.5,-118 994.5,-118"/>
<text text-anchor="middle" x="1073" y="-125" font-family="Helvetica,sans-Serif" font-size="10.00">src/client/StaticPathHandler.cpp</text>
</a>
</g>
</g>
<!-- Node16&#45;&gt;Node19 -->
<g id="edge26" class="edge">
<title>Node16&#45;&gt;Node19</title>
<path fill="none" stroke="midnightblue" d="M1070.17,-174.54C1070.93,-162.17 1071.88,-146.62 1072.47,-137.13"/>
<polygon fill="midnightblue" stroke="midnightblue" points="1066.66,-174.54 1069.54,-184.73 1073.65,-174.97 1066.66,-174.54"/>
</g>
<!-- Node20&#45;&gt;Node12 -->
<g id="edge28" class="edge">
<title>Node20&#45;&gt;Node12</title>
<path fill="none" stroke="midnightblue" d="M721,-177.5C708.25,-164.75 690.89,-147.39 680.63,-137.13"/>
<polygon fill="midnightblue" stroke="midnightblue" points="718.69,-180.14 728.23,-184.73 723.64,-175.19 718.69,-180.14"/>
</g>
<!-- Node20&#45;&gt;Node18 -->
<g id="edge29" class="edge">
<title>Node20&#45;&gt;Node18</title>
<path fill="none" stroke="midnightblue" d="M756.3,-178.57C772.88,-165.74 796.21,-147.69 809.85,-137.13"/>
<polygon fill="midnightblue" stroke="midnightblue" points="754.1,-175.85 748.33,-184.73 758.38,-181.38 754.1,-175.85"/>
</g>
<!-- Node21&#45;&gt;Node10 -->
<g id="edge31" class="edge">
<title>Node21&#45;&gt;Node10</title>
<path fill="none" stroke="midnightblue" d="M1309.03,-178.59C1361.64,-168.71 1431.97,-155.33 1494,-143 1503.49,-141.11 1513.7,-139.03 1523.31,-137.04"/>
<polygon fill="midnightblue" stroke="midnightblue" points="1308.26,-175.18 1299.08,-180.46 1309.56,-182.06 1308.26,-175.18"/>
</g>
<!-- Node21&#45;&gt;Node13 -->
<g id="edge32" class="edge">
<title>Node21&#45;&gt;Node13</title>
<path fill="none" stroke="midnightblue" d="M1264.04,-174.04C1289.08,-157.63 1315.5,-133.47 1298,-112 1270.2,-77.89 979.86,-34.64 859.17,-17.98"/>
<polygon fill="midnightblue" stroke="midnightblue" points="1261.93,-171.23 1255.31,-179.5 1265.65,-177.16 1261.93,-171.23"/>
</g>
<!-- Node21&#45;&gt;Node17 -->
<g id="edge33" class="edge">
<title>Node21&#45;&gt;Node17</title>
<path fill="none" stroke="midnightblue" d="M1229,-169.25C1229,-158.02 1229,-145.38 1229,-137.19"/>
<polygon fill="midnightblue" stroke="midnightblue" points="1225.5,-169.4 1229,-179.4 1232.5,-169.4 1225.5,-169.4"/>
</g>
<!-- Node21&#45;&gt;Node18 -->
<g id="edge34" class="edge">
<title>Node21&#45;&gt;Node18</title>
<path fill="none" stroke="midnightblue" d="M1148.69,-180.71C1067.59,-167.78 944.58,-148.19 874.62,-137.04"/>
<polygon fill="midnightblue" stroke="midnightblue" points="1148.44,-184.21 1158.86,-182.33 1149.54,-177.3 1148.44,-184.21"/>
</g>
<!-- Node21&#45;&gt;Node19 -->
<g id="edge36" class="edge">
<title>Node21&#45;&gt;Node19</title>
<path fill="none" stroke="midnightblue" d="M1185.7,-175.46C1155.56,-162.9 1116.74,-146.72 1093.42,-137.01"/>
<polygon fill="midnightblue" stroke="midnightblue" points="1184.57,-178.78 1195.15,-179.4 1187.27,-172.32 1184.57,-178.78"/>
</g>
<!-- Node22 -->
<g id="node22" class="node">
<title>Node22</title>
<g id="a_node22"><a xlink:href="RequestProcessorUtils_8cpp.html" target="_top" xlink:title=" ">
<polygon fill="white" stroke="black" points="1345,-112.5 1345,-142.5 1485,-142.5 1485,-112.5 1345,-112.5"/>
<text text-anchor="start" x="1353" y="-130.5" font-family="Helvetica,sans-Serif" font-size="10.00">src/client/RequestProcessor</text>
<text text-anchor="middle" x="1415" y="-119.5" font-family="Helvetica,sans-Serif" font-size="10.00">Utils.cpp</text>
</a>
</g>
</g>
<!-- Node21&#45;&gt;Node22 -->
<g id="edge35" class="edge">
<title>Node21&#45;&gt;Node22</title>
<path fill="none" stroke="midnightblue" d="M1278.81,-176.09C1308.84,-165.6 1346.59,-152.41 1374.72,-142.58"/>
<polygon fill="midnightblue" stroke="midnightblue" points="1277.64,-172.79 1269.36,-179.4 1279.95,-179.4 1277.64,-172.79"/>
</g>
<!-- Node23&#45;&gt;Node18 -->
<g id="edge38" class="edge">
<title>Node23&#45;&gt;Node18</title>
<path fill="none" stroke="midnightblue" d="M892.36,-178.92C874.18,-166.07 848.29,-147.78 833.21,-137.13"/>
<polygon fill="midnightblue" stroke="midnightblue" points="890.41,-181.82 900.59,-184.73 894.44,-176.1 890.41,-181.82"/>
</g>
<!-- Node23&#45;&gt;Node19 -->
<g id="edge39" class="edge">
<title>Node23&#45;&gt;Node19</title>
<path fill="none" stroke="midnightblue" d="M943.51,-181.1C975.28,-168.2 1024.19,-148.33 1051.92,-137.06"/>
<polygon fill="midnightblue" stroke="midnightblue" points="942.19,-177.86 934.25,-184.87 944.83,-184.35 942.19,-177.86"/>
</g>
<!-- Node24&#45;&gt;Node2 -->
<g id="edge41" class="edge">
<title>Node24&#45;&gt;Node2</title>
<path fill="none" stroke="midnightblue" d="M453.47,-182.25C406.04,-169.41 329.46,-148.67 286.62,-137.06"/>
<polygon fill="midnightblue" stroke="midnightblue" points="452.56,-185.63 463.13,-184.87 454.39,-178.88 452.56,-185.63"/>
</g>
<!-- Node24&#45;&gt;Node5 -->
<g id="edge42" class="edge">
<title>Node24&#45;&gt;Node5</title>
<path fill="none" stroke="midnightblue" d="M487.79,-175.22C472.54,-136.57 437.53,-47.83 426.44,-19.71"/>
<polygon fill="midnightblue" stroke="midnightblue" points="484.6,-176.68 491.53,-184.7 491.11,-174.11 484.6,-176.68"/>
</g>
</g>
</svg>
