<?xml version="1.0" encoding="UTF-8" standalone="no"?>
<!DOCTYPE svg PUBLIC "-//W3C//DTD SVG 1.1//EN"
 "http://www.w3.org/Graphics/SVG/1.1/DTD/svg11.dtd">
<!-- Generated by graphviz version 2.43.0 (0)
 -->
<!-- Title: http_header_utils::toLowerCopy Pages: 1 -->
<svg width="2344pt" height="742pt"
 viewBox="0.00 0.00 2344.00 742.32" xmlns="http://www.w3.org/2000/svg" xmlns:xlink="http://www.w3.org/1999/xlink">
<g id="graph0" class="graph" transform="scale(1 1) rotate(0) translate(4 738.32)">
<title>http_header_utils::toLowerCopy</title>
<polygon fill="white" stroke="transparent" points="-4,4 -4,-738.32 2340,-738.32 2340,4 -4,4"/>
<!-- Node1 -->
<g id="node1" class="node">
<title>Node1</title>
<g id="a_node1"><a xlink:title=" ">
<polygon fill="#bfbfbf" stroke="black" points="2239,-481.32 2239,-511.32 2336,-511.32 2336,-481.32 2239,-481.32"/>
<text text-anchor="start" x="2247" y="-499.32" font-family="Helvetica,sans-Serif" font-size="10.00">http_header_utils::</text>
<text text-anchor="middle" x="2287.5" y="-488.32" font-family="Helvetica,sans-Serif" font-size="10.00">toLowerCopy</text>
</a>
</g>
</g>
<!-- Node2 -->
<g id="node2" class="node">
<title>Node2</title>
<g id="a_node2"><a xlink:href="classHttpParser.html#ae451799e46fef4713ec48321d8b21806" target="_top" xlink:title=" ">
<polygon fill="white" stroke="black" points="2072.5,-600.82 2072.5,-619.82 2202.5,-619.82 2202.5,-600.82 2072.5,-600.82"/>
<text text-anchor="middle" x="2137.5" y="-607.82" font-family="Helvetica,sans-Serif" font-size="10.00">HttpParser::handleHeader</text>
</a>
</g>
</g>
<!-- Node1&#45;&gt;Node2 -->
<g id="edge1" class="edge">
<title>Node1&#45;&gt;Node2</title>
<path fill="none" stroke="midnightblue" d="M2258.69,-517.74C2226.36,-542.64 2174.46,-582.62 2150.87,-600.79"/>
<polygon fill="midnightblue" stroke="midnightblue" points="2261.06,-520.33 2266.85,-511.45 2256.79,-514.78 2261.06,-520.33"/>
</g>
<!-- Node11 -->
<g id="node11" class="node">
<title>Node11</title>
<g id="a_node11"><a xlink:href="classHttpResponse.html#acba4d7264c5b05e63a199c87f8526473" target="_top" xlink:title=" ">
<polygon fill="white" stroke="black" points="1892,-486.82 1892,-505.82 2025,-505.82 2025,-486.82 1892,-486.82"/>
<text text-anchor="middle" x="1958.5" y="-493.82" font-family="Helvetica,sans-Serif" font-size="10.00">HttpResponse::hasHeader</text>
</a>
</g>
</g>
<!-- Node1&#45;&gt;Node11 -->
<g id="edge11" class="edge">
<title>Node1&#45;&gt;Node11</title>
<path fill="none" stroke="midnightblue" d="M2228.67,-496.32C2171.69,-496.32 2084.76,-496.32 2025.2,-496.32"/>
<polygon fill="midnightblue" stroke="midnightblue" points="2228.95,-499.82 2238.95,-496.32 2228.95,-492.82 2228.95,-499.82"/>
</g>
<!-- Node28 -->
<g id="node28" class="node">
<title>Node28</title>
<g id="a_node28"><a xlink:href="classHttpResponse.html#a70c126b617eb978c76afaf29ea4f0cd4" target="_top" xlink:title=" ">
<polygon fill="white" stroke="black" points="1528.5,-486.82 1528.5,-505.82 1650.5,-505.82 1650.5,-486.82 1528.5,-486.82"/>
<text text-anchor="middle" x="1589.5" y="-493.82" font-family="Helvetica,sans-Serif" font-size="10.00">HttpResponse::serialize</text>
</a>
</g>
</g>
<!-- Node1&#45;&gt;Node28 -->
<g id="edge45" class="edge">
<title>Node1&#45;&gt;Node28</title>
<path fill="none" stroke="midnightblue" d="M2228.92,-507.02C2220.26,-508.33 2211.41,-509.49 2203,-510.32 2001.35,-530.15 1760.64,-512.71 1650.67,-502.49"/>
<polygon fill="midnightblue" stroke="midnightblue" points="2229.63,-510.45 2238.96,-505.44 2228.54,-503.54 2229.63,-510.45"/>
</g>
<!-- Node29 -->
<g id="node29" class="node">
<title>Node29</title>
<g id="a_node29"><a xlink:href="classHttpResponse.html#a11a67ba43096f5eb1870e65f1814d364" target="_top" xlink:title=" ">
<polygon fill="white" stroke="black" points="1881,-106.82 1881,-125.82 2036,-125.82 2036,-106.82 1881,-106.82"/>
<text text-anchor="middle" x="1958.5" y="-113.82" font-family="Helvetica,sans-Serif" font-size="10.00">HttpResponse::setContentType</text>
</a>
</g>
</g>
<!-- Node1&#45;&gt;Node29 -->
<g id="edge50" class="edge">
<title>Node1&#45;&gt;Node29</title>
<path fill="none" stroke="midnightblue" d="M2285.9,-471.21C2283.3,-417.19 2269.99,-288.57 2203,-211.32 2159.22,-160.83 2085.25,-136.99 2030.29,-125.85"/>
<polygon fill="midnightblue" stroke="midnightblue" points="2282.4,-471.42 2286.29,-481.27 2289.4,-471.14 2282.4,-471.42"/>
</g>
<!-- Node30 -->
<g id="node30" class="node">
<title>Node30</title>
<g id="a_node30"><a xlink:href="classHttpResponse.html#a7efa3ab17ead358609d80b55db164867" target="_top" xlink:title=" ">
<polygon fill="white" stroke="black" points="2072,-220.82 2072,-239.82 2203,-239.82 2203,-220.82 2072,-220.82"/>
<text text-anchor="middle" x="2137.5" y="-227.82" font-family="Helvetica,sans-Serif" font-size="10.00">HttpResponse::setHeader</text>
</a>
</g>
</g>
<!-- Node1&#45;&gt;Node30 -->
<g id="edge55" class="edge">
<title>Node1&#45;&gt;Node30</title>
<path fill="none" stroke="midnightblue" d="M2273.16,-472.35C2241.85,-416.07 2164.7,-277.41 2143.8,-239.84"/>
<polygon fill="midnightblue" stroke="midnightblue" points="2270.2,-474.22 2278.12,-481.25 2276.32,-470.81 2270.2,-474.22"/>
</g>
<!-- Node3 -->
<g id="node3" class="node">
<title>Node3</title>
<g id="a_node3"><a xlink:href="classHttpParser.html#aad534f8119b202b2c0194bf0a7cb6620" target="_top" xlink:title=" ">
<polygon fill="white" stroke="black" points="1691,-714.82 1691,-733.82 1845,-733.82 1845,-714.82 1691,-714.82"/>
<text text-anchor="middle" x="1768" y="-721.82" font-family="Helvetica,sans-Serif" font-size="10.00">HttpParser::processHeaderLine</text>
</a>
</g>
</g>
<!-- Node2&#45;&gt;Node3 -->
<g id="edge2" class="edge">
<title>Node2&#45;&gt;Node3</title>
<path fill="none" stroke="midnightblue" d="M2095.9,-622.91C2021.78,-645.9 1866.09,-694.2 1799.87,-714.74"/>
<polygon fill="midnightblue" stroke="midnightblue" points="2097.29,-626.14 2105.8,-619.84 2095.21,-619.46 2097.29,-626.14"/>
</g>
<!-- Node4 -->
<g id="node4" class="node">
<title>Node4</title>
<g id="a_node4"><a xlink:href="classHttpParser.html#a7c2c3b29f245b3421b9af34300d7806b" target="_top" xlink:title=" ">
<polygon fill="white" stroke="black" points="1524,-638.82 1524,-657.82 1655,-657.82 1655,-638.82 1524,-638.82"/>
<text text-anchor="middle" x="1589.5" y="-645.82" font-family="Helvetica,sans-Serif" font-size="10.00">HttpParser::parseHeaders</text>
</a>
</g>
</g>
<!-- Node3&#45;&gt;Node4 -->
<g id="edge3" class="edge">
<title>Node3&#45;&gt;Node4</title>
<path fill="none" stroke="midnightblue" d="M1735.26,-710.65C1699.89,-695.42 1643.61,-671.18 1612.67,-657.86"/>
<polygon fill="midnightblue" stroke="midnightblue" points="1734.08,-713.95 1744.65,-714.69 1736.85,-707.52 1734.08,-713.95"/>
</g>
<!-- Node5 -->
<g id="node5" class="node">
<title>Node5</title>
<g id="a_node5"><a xlink:href="classHttpParser.html#ada29088006c606896d2d46e48034f420" target="_top" xlink:title=" ">
<polygon fill="white" stroke="black" points="681.5,-486.82 681.5,-505.82 791.5,-505.82 791.5,-486.82 681.5,-486.82"/>
<text text-anchor="middle" x="736.5" y="-493.82" font-family="Helvetica,sans-Serif" font-size="10.00">HttpParser::consume</text>
</a>
</g>
</g>
<!-- Node4&#45;&gt;Node5 -->
<g id="edge4" class="edge">
<title>Node4&#45;&gt;Node5</title>
<path fill="none" stroke="midnightblue" d="M1525.03,-636.98C1363.71,-608.16 940.23,-532.53 790.71,-505.82"/>
<polygon fill="midnightblue" stroke="midnightblue" points="1524.81,-640.49 1535.27,-638.81 1526.04,-633.6 1524.81,-640.49"/>
</g>
<!-- Node6 -->
<g id="node6" class="node">
<title>Node6</title>
<g id="a_node6"><a xlink:href="classClient.html#ac95fe5b24fe5275bd2271bd1ac37596d" target="_top" xlink:title=" ">
<polygon fill="white" stroke="black" points="336,-429.82 336,-448.82 436,-448.82 436,-429.82 336,-429.82"/>
<text text-anchor="middle" x="386" y="-436.82" font-family="Helvetica,sans-Serif" font-size="10.00">Client::handleRead</text>
</a>
</g>
</g>
<!-- Node5&#45;&gt;Node6 -->
<g id="edge5" class="edge">
<title>Node5&#45;&gt;Node6</title>
<path fill="none" stroke="midnightblue" d="M671.25,-485.38C655.48,-482.72 638.63,-479.89 623,-477.32 558.51,-466.68 484.04,-454.75 436.29,-447.14"/>
<polygon fill="midnightblue" stroke="midnightblue" points="671,-488.88 681.44,-487.1 672.16,-481.98 671,-488.88"/>
</g>
<!-- Node9 -->
<g id="node9" class="node">
<title>Node9</title>
<g id="a_node9"><a xlink:href="classClient.html#a950fd2ab8ac20c9be4c5e722344d6fe2" target="_top" xlink:title=" ">
<polygon fill="white" stroke="black" points="494.5,-486.82 494.5,-505.82 619.5,-505.82 619.5,-486.82 494.5,-486.82"/>
<text text-anchor="middle" x="557" y="-493.82" font-family="Helvetica,sans-Serif" font-size="10.00">Client::processRequests</text>
</a>
</g>
</g>
<!-- Node5&#45;&gt;Node9 -->
<g id="edge8" class="edge">
<title>Node5&#45;&gt;Node9</title>
<path fill="none" stroke="midnightblue" d="M671.03,-496.32C654.27,-496.32 636.26,-496.32 619.65,-496.32"/>
<polygon fill="midnightblue" stroke="midnightblue" points="671.28,-499.82 681.28,-496.32 671.28,-492.82 671.28,-499.82"/>
</g>
<!-- Node7 -->
<g id="node7" class="node">
<title>Node7</title>
<g id="a_node7"><a xlink:href="classServerManager.html#a9f3ca46da9df004286f90902b8daf29d" target="_top" xlink:title=" ">
<polygon fill="white" stroke="black" points="138,-424.32 138,-454.32 281,-454.32 281,-424.32 138,-424.32"/>
<text text-anchor="start" x="146" y="-442.32" font-family="Helvetica,sans-Serif" font-size="10.00">ServerManager::handleClient</text>
<text text-anchor="middle" x="209.5" y="-431.32" font-family="Helvetica,sans-Serif" font-size="10.00">Event</text>
</a>
</g>
</g>
<!-- Node6&#45;&gt;Node7 -->
<g id="edge6" class="edge">
<title>Node6&#45;&gt;Node7</title>
<path fill="none" stroke="midnightblue" d="M325.69,-439.32C311.33,-439.32 295.84,-439.32 281.02,-439.32"/>
<polygon fill="midnightblue" stroke="midnightblue" points="325.93,-442.82 335.93,-439.32 325.93,-435.82 325.93,-442.82"/>
</g>
<!-- Node8 -->
<g id="node8" class="node">
<title>Node8</title>
<g id="a_node8"><a xlink:href="classServerManager.html#aecc313c9b6afcab92c22269b3333c721" target="_top" xlink:title=" ">
<polygon fill="white" stroke="black" points="0,-407.82 0,-426.82 102,-426.82 102,-407.82 0,-407.82"/>
<text text-anchor="middle" x="51" y="-414.82" font-family="Helvetica,sans-Serif" font-size="10.00">ServerManager::run</text>
</a>
</g>
</g>
<!-- Node7&#45;&gt;Node8 -->
<g id="edge7" class="edge">
<title>Node7&#45;&gt;Node8</title>
<path fill="none" stroke="midnightblue" d="M127.45,-427.92C118.82,-426.71 110.23,-425.5 102.11,-424.36"/>
<polygon fill="midnightblue" stroke="midnightblue" points="127.19,-431.42 137.58,-429.35 128.16,-424.49 127.19,-431.42"/>
</g>
<!-- Node9&#45;&gt;Node6 -->
<g id="edge10" class="edge">
<title>Node9&#45;&gt;Node6</title>
<path fill="none" stroke="midnightblue" d="M518.07,-483.52C486.95,-473.03 443.56,-458.39 415.38,-448.89"/>
<polygon fill="midnightblue" stroke="midnightblue" points="517.12,-486.9 527.71,-486.77 519.36,-480.26 517.12,-486.9"/>
</g>
<!-- Node10 -->
<g id="node10" class="node">
<title>Node10</title>
<g id="a_node10"><a xlink:href="classClient.html#a09d6029b60ae8c9773362968e72f2e54" target="_top" xlink:title=" ">
<polygon fill="white" stroke="black" points="317,-581.82 317,-600.82 455,-600.82 455,-581.82 317,-581.82"/>
<text text-anchor="middle" x="386" y="-588.82" font-family="Helvetica,sans-Serif" font-size="10.00">Client::finalizeCgiResponse</text>
</a>
</g>
</g>
<!-- Node9&#45;&gt;Node10 -->
<g id="edge9" class="edge">
<title>Node9&#45;&gt;Node10</title>
<path fill="none" stroke="midnightblue" d="M515.67,-509.45C507.35,-512.65 498.76,-516.31 491,-520.32 455.45,-538.66 417.58,-567.06 398.87,-581.76"/>
<polygon fill="midnightblue" stroke="midnightblue" points="517.07,-512.67 525.24,-505.93 514.65,-506.1 517.07,-512.67"/>
</g>
<!-- Node11&#45;&gt;Node10 -->
<g id="edge44" class="edge">
<title>Node11&#45;&gt;Node10</title>
<path fill="none" stroke="midnightblue" d="M1947.4,-514.61C1930.33,-543.73 1892.88,-600.32 1845,-629.32 1745.85,-689.36 1706.41,-686.32 1590.5,-686.32 1590.5,-686.32 1590.5,-686.32 735.5,-686.32 625.6,-686.32 594.99,-684.87 491,-649.32 456.18,-637.41 419.5,-614.02 400.38,-600.87"/>
<polygon fill="midnightblue" stroke="midnightblue" points="1950.48,-516.28 1952.4,-505.86 1944.4,-512.81 1950.48,-516.28"/>
</g>
<!-- Node12 -->
<g id="node12" class="node">
<title>Node12</title>
<g id="a_node12"><a xlink:href="ResponseUtils_8cpp.html#ab7c2cb6fbf297c09ec402182b04584c6" target="_top" xlink:title=" ">
<polygon fill="white" stroke="black" points="1721.5,-163.82 1721.5,-182.82 1814.5,-182.82 1814.5,-163.82 1721.5,-163.82"/>
<text text-anchor="middle" x="1768" y="-170.82" font-family="Helvetica,sans-Serif" font-size="10.00">fillBaseResponse</text>
</a>
</g>
</g>
<!-- Node11&#45;&gt;Node12 -->
<g id="edge12" class="edge">
<title>Node11&#45;&gt;Node12</title>
<path fill="none" stroke="midnightblue" d="M1946.71,-477.83C1911.53,-417.54 1800.86,-227.91 1774.62,-182.94"/>
<polygon fill="midnightblue" stroke="midnightblue" points="1943.8,-479.78 1951.86,-486.65 1949.84,-476.25 1943.8,-479.78"/>
</g>
<!-- Node13 -->
<g id="node13" class="node">
<title>Node13</title>
<g id="a_node13"><a xlink:href="ErrorUtils_8cpp.html#a470416220aa911b8f1274140a8322e7a" target="_top" xlink:title=" ">
<polygon fill="white" stroke="black" points="1538.5,-258.82 1538.5,-277.82 1640.5,-277.82 1640.5,-258.82 1538.5,-258.82"/>
<text text-anchor="middle" x="1589.5" y="-265.82" font-family="Helvetica,sans-Serif" font-size="10.00">buildErrorResponse</text>
</a>
</g>
</g>
<!-- Node12&#45;&gt;Node13 -->
<g id="edge13" class="edge">
<title>Node12&#45;&gt;Node13</title>
<path fill="none" stroke="midnightblue" d="M1740.01,-187.84C1703.44,-207.53 1639.16,-242.12 1608.18,-258.8"/>
<polygon fill="midnightblue" stroke="midnightblue" points="1741.96,-190.77 1749.1,-182.95 1738.64,-184.6 1741.96,-190.77"/>
</g>
<!-- Node19 -->
<g id="node19" class="node">
<title>Node19</title>
<g id="a_node19"><a xlink:href="classRequestProcessor.html#a3fa9c97a7d142a7b607002138de87140" target="_top" xlink:title=" ">
<polygon fill="white" stroke="black" points="999,-236.82 999,-255.82 1137,-255.82 1137,-236.82 999,-236.82"/>
<text text-anchor="middle" x="1068" y="-243.82" font-family="Helvetica,sans-Serif" font-size="10.00">RequestProcessor::process</text>
</a>
</g>
</g>
<!-- Node12&#45;&gt;Node19 -->
<g id="edge43" class="edge">
<title>Node12&#45;&gt;Node19</title>
<path fill="none" stroke="midnightblue" d="M1747.89,-157.06C1704.93,-121.72 1596.03,-38.72 1488,-9.32 1431.39,6.09 1414.08,-1.07 1356,-9.32 1272.16,-21.21 1239.42,-9.79 1173,-62.32 1111.7,-110.8 1080.41,-205.98 1071.63,-236.59"/>
<polygon fill="midnightblue" stroke="midnightblue" points="1745.88,-159.94 1755.8,-163.65 1750.36,-154.56 1745.88,-159.94"/>
</g>
<!-- Node22 -->
<g id="node22" class="node">
<title>Node22</title>
<g id="a_node22"><a xlink:href="StaticPathHandler_8cpp.html#a28a771d93d3051098585ebc34ed29855" target="_top" xlink:title=" ">
<polygon fill="white" stroke="black" points="1379.5,-106.82 1379.5,-125.82 1464.5,-125.82 1464.5,-106.82 1379.5,-106.82"/>
<text text-anchor="middle" x="1422" y="-113.82" font-family="Helvetica,sans-Serif" font-size="10.00">handleDirectory</text>
</a>
</g>
</g>
<!-- Node12&#45;&gt;Node22 -->
<g id="edge41" class="edge">
<title>Node12&#45;&gt;Node22</title>
<path fill="none" stroke="midnightblue" d="M1711.08,-181.92C1660.64,-187.44 1585.2,-190.02 1524,-168.32 1504.9,-161.54 1505.72,-150.16 1488,-140.32 1477.7,-134.59 1465.76,-129.73 1454.94,-125.91"/>
<polygon fill="midnightblue" stroke="midnightblue" points="1711.61,-185.38 1721.13,-180.75 1710.8,-178.43 1711.61,-185.38"/>
</g>
<!-- Node24 -->
<g id="node24" class="node">
<title>Node24</title>
<g id="a_node24"><a xlink:href="classRequestProcessor.html#a606f9c02a3166ca58e6930f8d292d81c" target="_top" xlink:title=" ">
<polygon fill="white" stroke="black" points="1356,-19.32 1356,-49.32 1488,-49.32 1488,-19.32 1356,-19.32"/>
<text text-anchor="start" x="1364" y="-37.32" font-family="Helvetica,sans-Serif" font-size="10.00">RequestProcessor::handle</text>
<text text-anchor="middle" x="1422" y="-26.32" font-family="Helvetica,sans-Serif" font-size="10.00">LocationValidation</text>
</a>
</g>
</g>
<!-- Node12&#45;&gt;Node24 -->
<g id="edge42" class="edge">
<title>Node12&#45;&gt;Node24</title>
<path fill="none" stroke="midnightblue" d="M1711.26,-169.2C1648.95,-163.63 1552.97,-151.81 1524,-130.32 1495.59,-109.23 1514.26,-83.02 1488,-59.32 1483.78,-55.51 1478.92,-52.26 1473.8,-49.48"/>
<polygon fill="midnightblue" stroke="midnightblue" points="1711.07,-172.7 1721.34,-170.08 1711.68,-165.73 1711.07,-172.7"/>
</g>
<!-- Node13&#45;&gt;Node10 -->
<g id="edge20" class="edge">
<title>Node13&#45;&gt;Node10</title>
<path fill="none" stroke="midnightblue" d="M1579.98,-287.26C1565.61,-316.88 1533.57,-373.61 1488,-401.32 1439.99,-430.51 546.29,-561.29 491,-571.32 472.82,-574.61 452.88,-578.4 435.38,-581.79"/>
<polygon fill="midnightblue" stroke="midnightblue" points="1583.25,-288.55 1584.33,-278.01 1576.91,-285.58 1583.25,-288.55"/>
</g>
<!-- Node14 -->
<g id="node14" class="node">
<title>Node14</title>
<g id="a_node14"><a xlink:href="classClient.html#a3b000abab7a3fe339f0f39ad5daca68f" target="_top" xlink:title=" ">
<polygon fill="white" stroke="black" points="1359.5,-448.82 1359.5,-467.82 1484.5,-467.82 1484.5,-448.82 1359.5,-448.82"/>
<text text-anchor="middle" x="1422" y="-455.82" font-family="Helvetica,sans-Serif" font-size="10.00">Client::checkCgiTimeout</text>
</a>
</g>
</g>
<!-- Node13&#45;&gt;Node14 -->
<g id="edge14" class="edge">
<title>Node13&#45;&gt;Node14</title>
<path fill="none" stroke="midnightblue" d="M1581.64,-287.88C1568.65,-322.25 1537.23,-393.68 1488,-434.32 1480.49,-440.52 1471.22,-445.2 1462.06,-448.7"/>
<polygon fill="midnightblue" stroke="midnightblue" points="1585.07,-288.7 1585.22,-278.11 1578.5,-286.3 1585.07,-288.7"/>
</g>
<!-- Node15 -->
<g id="node15" class="node">
<title>Node15</title>
<g id="a_node15"><a xlink:href="classClient.html#ae523ed90bd32b88e539ebdf30746382b" target="_top" xlink:title=" ">
<polygon fill="white" stroke="black" points="1011.5,-334.82 1011.5,-353.82 1124.5,-353.82 1124.5,-334.82 1011.5,-334.82"/>
<text text-anchor="middle" x="1068" y="-341.82" font-family="Helvetica,sans-Serif" font-size="10.00">Client::dispatchAction</text>
</a>
</g>
</g>
<!-- Node13&#45;&gt;Node15 -->
<g id="edge15" class="edge">
<title>Node13&#45;&gt;Node15</title>
<path fill="none" stroke="midnightblue" d="M1558.89,-281.95C1539.21,-290.39 1512.57,-300.67 1488,-306.32 1360.22,-335.69 1205.64,-342.55 1124.66,-344.03"/>
<polygon fill="midnightblue" stroke="midnightblue" points="1560.47,-285.08 1568.22,-277.85 1557.66,-278.66 1560.47,-285.08"/>
</g>
<!-- Node18 -->
<g id="node18" class="node">
<title>Node18</title>
<g id="a_node18"><a xlink:href="classRequestProcessor.html#a79915b1a2fda205b7d5a6c92e5e3fce8" target="_top" xlink:title=" ">
<polygon fill="white" stroke="black" points="1173,-258.82 1173,-277.82 1320,-277.82 1320,-258.82 1173,-258.82"/>
<text text-anchor="middle" x="1246.5" y="-265.82" font-family="Helvetica,sans-Serif" font-size="10.00">RequestProcessor::handleCgi</text>
</a>
</g>
</g>
<!-- Node13&#45;&gt;Node18 -->
<g id="edge21" class="edge">
<title>Node13&#45;&gt;Node18</title>
<path fill="none" stroke="midnightblue" d="M1528.05,-268.32C1469.91,-268.32 1381.98,-268.32 1320.08,-268.32"/>
<polygon fill="midnightblue" stroke="midnightblue" points="1528.18,-271.82 1538.18,-268.32 1528.18,-264.82 1528.18,-271.82"/>
</g>
<!-- Node13&#45;&gt;Node19 -->
<g id="edge40" class="edge">
<title>Node13&#45;&gt;Node19</title>
<path fill="none" stroke="midnightblue" d="M1529.34,-279.57C1448.19,-293.07 1298.18,-311.1 1173,-287.32 1141.54,-281.34 1107.43,-266.03 1087.16,-255.91"/>
<polygon fill="midnightblue" stroke="midnightblue" points="1530.09,-282.99 1539.36,-277.86 1528.92,-276.09 1530.09,-282.99"/>
</g>
<!-- Node20 -->
<g id="node20" class="node">
<title>Node20</title>
<g id="a_node20"><a xlink:href="classClient.html#a4104efd3f5f7e1c0f3e3302b46861624" target="_top" xlink:title=" ">
<polygon fill="white" stroke="black" points="1366.5,-372.82 1366.5,-391.82 1477.5,-391.82 1477.5,-372.82 1366.5,-372.82"/>
<text text-anchor="middle" x="1422" y="-379.82" font-family="Helvetica,sans-Serif" font-size="10.00">Client::handleCgiPipe</text>
</a>
</g>
</g>
<!-- Node13&#45;&gt;Node20 -->
<g id="edge25" class="edge">
<title>Node13&#45;&gt;Node20</title>
<path fill="none" stroke="midnightblue" d="M1573.23,-285.45C1554.75,-305.31 1521.86,-337.93 1488,-358.32 1478.21,-364.21 1466.73,-369.04 1456.17,-372.77"/>
<polygon fill="midnightblue" stroke="midnightblue" points="1575.85,-287.77 1580.02,-278.03 1570.69,-283.05 1575.85,-287.77"/>
</g>
<!-- Node13&#45;&gt;Node22 -->
<g id="edge28" class="edge">
<title>Node13&#45;&gt;Node22</title>
<path fill="none" stroke="midnightblue" d="M1537.33,-254.34C1532.43,-251.57 1527.86,-248.27 1524,-244.32 1489.81,-209.33 1522.23,-175.25 1488,-140.32 1481.6,-133.78 1473.27,-129.02 1464.73,-125.54"/>
<polygon fill="midnightblue" stroke="midnightblue" points="1535.9,-257.54 1546.42,-258.76 1538.96,-251.24 1535.9,-257.54"/>
</g>
<!-- Node23 -->
<g id="node23" class="node">
<title>Node23</title>
<g id="a_node23"><a xlink:href="StaticPathHandler_8cpp.html#a4e092999675b45373270f5408cbe64c7" target="_top" xlink:title=" ">
<polygon fill="white" stroke="black" points="1201,-144.82 1201,-163.82 1292,-163.82 1292,-144.82 1201,-144.82"/>
<text text-anchor="middle" x="1246.5" y="-151.82" font-family="Helvetica,sans-Serif" font-size="10.00">handleStaticPath</text>
</a>
</g>
</g>
<!-- Node13&#45;&gt;Node23 -->
<g id="edge37" class="edge">
<title>Node13&#45;&gt;Node23</title>
<path fill="none" stroke="midnightblue" d="M1539.28,-254.54C1533.76,-251.72 1528.51,-248.34 1524,-244.32 1497.61,-220.75 1517.4,-193 1488,-173.32 1429.36,-134.04 1343.73,-138.24 1292.03,-145.69"/>
<polygon fill="midnightblue" stroke="midnightblue" points="1538.18,-257.88 1548.73,-258.78 1541.04,-251.49 1538.18,-257.88"/>
</g>
<!-- Node13&#45;&gt;Node24 -->
<g id="edge31" class="edge">
<title>Node13&#45;&gt;Node24</title>
<path fill="none" stroke="midnightblue" d="M1574.94,-250.4C1560.74,-230.99 1538.54,-198.73 1524,-168.32 1502,-122.29 1523.2,-96.25 1488,-59.32 1484.33,-55.46 1480,-52.2 1475.35,-49.43"/>
<polygon fill="midnightblue" stroke="midnightblue" points="1572.25,-252.65 1581.02,-258.59 1577.87,-248.47 1572.25,-252.65"/>
</g>
<!-- Node25 -->
<g id="node25" class="node">
<title>Node25</title>
<g id="a_node25"><a xlink:href="classRequestProcessor.html#a10779d8453416feeda2174859c00d082" target="_top" xlink:title=" ">
<polygon fill="white" stroke="black" points="1180.5,-209.32 1180.5,-239.32 1312.5,-239.32 1312.5,-209.32 1180.5,-209.32"/>
<text text-anchor="start" x="1188.5" y="-227.32" font-family="Helvetica,sans-Serif" font-size="10.00">RequestProcessor::handle</text>
<text text-anchor="middle" x="1246.5" y="-216.32" font-family="Helvetica,sans-Serif" font-size="10.00">ParseOrMethodErrors</text>
</a>
</g>
</g>
<!-- Node13&#45;&gt;Node25 -->
<g id="edge33" class="edge">
<title>Node13&#45;&gt;Node25</title>
<path fill="none" stroke="midnightblue" d="M1528.02,-260.51C1467.51,-252.7 1374.73,-240.73 1312.62,-232.72"/>
<polygon fill="midnightblue" stroke="midnightblue" points="1527.82,-264.01 1538.18,-261.82 1528.71,-257.07 1527.82,-264.01"/>
</g>
<!-- Node26 -->
<g id="node26" class="node">
<title>Node26</title>
<g id="a_node26"><a xlink:href="StaticPathHandler_8cpp.html#a5af8659f0f83e8296b29264dd671af0d" target="_top" xlink:title=" ">
<polygon fill="white" stroke="black" points="1374.5,-68.82 1374.5,-87.82 1469.5,-87.82 1469.5,-68.82 1374.5,-68.82"/>
<text text-anchor="middle" x="1422" y="-75.82" font-family="Helvetica,sans-Serif" font-size="10.00">handleRegularFile</text>
</a>
</g>
</g>
<!-- Node13&#45;&gt;Node26 -->
<g id="edge35" class="edge">
<title>Node13&#45;&gt;Node26</title>
<path fill="none" stroke="midnightblue" d="M1576.04,-250.25C1562.6,-230.49 1540.87,-197.7 1524,-168.32 1506.39,-137.63 1515.22,-119.92 1488,-97.32 1482.66,-92.88 1476.33,-89.49 1469.75,-86.88"/>
<polygon fill="midnightblue" stroke="midnightblue" points="1573.21,-252.31 1581.75,-258.59 1578.99,-248.36 1573.21,-252.31"/>
</g>
<!-- Node27 -->
<g id="node27" class="node">
<title>Node27</title>
<g id="a_node27"><a xlink:href="StaticPathHandler_8cpp.html#a638cb25cad6c24877a0e75984110ea7a" target="_top" xlink:title=" ">
<polygon fill="white" stroke="black" points="1384,-182.82 1384,-201.82 1460,-201.82 1460,-182.82 1384,-182.82"/>
<text text-anchor="middle" x="1422" y="-189.82" font-family="Helvetica,sans-Serif" font-size="10.00">handleUpload</text>
</a>
</g>
</g>
<!-- Node13&#45;&gt;Node27 -->
<g id="edge38" class="edge">
<title>Node13&#45;&gt;Node27</title>
<path fill="none" stroke="midnightblue" d="M1547.53,-255.22C1539.53,-252.07 1531.34,-248.41 1524,-244.32 1506.3,-234.44 1505.72,-226.16 1488,-216.32 1477.7,-210.59 1465.76,-205.73 1454.94,-201.91"/>
<polygon fill="midnightblue" stroke="midnightblue" points="1546.54,-258.59 1557.13,-258.81 1548.99,-252.03 1546.54,-258.59"/>
</g>
<!-- Node16 -->
<g id="node16" class="node">
<title>Node16</title>
<g id="a_node16"><a xlink:href="classClient.html#a419f8f3253d3f71287044e3999a5d600" target="_top" xlink:title=" ">
<polygon fill="white" stroke="black" points="850,-334.82 850,-353.82 963,-353.82 963,-334.82 850,-334.82"/>
<text text-anchor="middle" x="906.5" y="-341.82" font-family="Helvetica,sans-Serif" font-size="10.00">Client::buildResponse</text>
</a>
</g>
</g>
<!-- Node15&#45;&gt;Node16 -->
<g id="edge16" class="edge">
<title>Node15&#45;&gt;Node16</title>
<path fill="none" stroke="midnightblue" d="M1000.85,-344.32C988.35,-344.32 975.39,-344.32 963.25,-344.32"/>
<polygon fill="midnightblue" stroke="midnightblue" points="1001.21,-347.82 1011.21,-344.32 1001.21,-340.82 1001.21,-347.82"/>
</g>
<!-- Node17 -->
<g id="node17" class="node">
<title>Node17</title>
<g id="a_node17"><a xlink:href="classClient.html#abcf615f2514ae7e0266315693e73a31a" target="_top" xlink:title=" ">
<polygon fill="white" stroke="black" points="659,-410.82 659,-429.82 814,-429.82 814,-410.82 659,-410.82"/>
<text text-anchor="middle" x="736.5" y="-417.82" font-family="Helvetica,sans-Serif" font-size="10.00">Client::handleCompleteRequest</text>
</a>
</g>
</g>
<!-- Node16&#45;&gt;Node17 -->
<g id="edge17" class="edge">
<title>Node16&#45;&gt;Node17</title>
<path fill="none" stroke="midnightblue" d="M874.86,-358.18C841.16,-373.42 787.92,-397.5 758.6,-410.77"/>
<polygon fill="midnightblue" stroke="midnightblue" points="876.55,-361.25 884.22,-353.94 873.67,-354.87 876.55,-361.25"/>
</g>
<!-- Node17&#45;&gt;Node6 -->
<g id="edge18" class="edge">
<title>Node17&#45;&gt;Node6</title>
<path fill="none" stroke="midnightblue" d="M648.45,-425.06C581.37,-428.72 491.07,-433.64 436.05,-436.64"/>
<polygon fill="midnightblue" stroke="midnightblue" points="648.79,-428.55 658.59,-424.51 648.41,-421.56 648.79,-428.55"/>
</g>
<!-- Node17&#45;&gt;Node9 -->
<g id="edge19" class="edge">
<title>Node17&#45;&gt;Node9</title>
<path fill="none" stroke="midnightblue" d="M703.58,-433.98C668.01,-449.21 611.41,-473.45 580.3,-486.77"/>
<polygon fill="midnightblue" stroke="midnightblue" points="705.2,-437.09 713.02,-429.94 702.45,-430.66 705.2,-437.09"/>
</g>
<!-- Node18&#45;&gt;Node19 -->
<g id="edge22" class="edge">
<title>Node18&#45;&gt;Node19</title>
<path fill="none" stroke="midnightblue" d="M1162.85,-258.01C1154.2,-256.93 1145.47,-255.85 1137.01,-254.79"/>
<polygon fill="midnightblue" stroke="midnightblue" points="1162.59,-261.51 1172.95,-259.27 1163.46,-254.56 1162.59,-261.51"/>
</g>
<!-- Node19&#45;&gt;Node16 -->
<g id="edge23" class="edge">
<title>Node19&#45;&gt;Node16</title>
<path fill="none" stroke="midnightblue" d="M1042.81,-261.18C1009.76,-281.48 951.4,-317.34 923.38,-334.56"/>
<polygon fill="midnightblue" stroke="midnightblue" points="1044.73,-264.11 1051.42,-255.89 1041.06,-258.14 1044.73,-264.11"/>
</g>
<!-- Node19&#45;&gt;Node17 -->
<g id="edge24" class="edge">
<title>Node19&#45;&gt;Node17</title>
<path fill="none" stroke="midnightblue" d="M1018.87,-258.55C973.43,-271.29 904.34,-293.83 850,-325.32 807.09,-350.18 764.61,-391.92 746.55,-410.67"/>
<polygon fill="midnightblue" stroke="midnightblue" points="1020.05,-261.85 1028.76,-255.82 1018.19,-255.1 1020.05,-261.85"/>
</g>
<!-- Node21 -->
<g id="node21" class="node">
<title>Node21</title>
<g id="a_node21"><a xlink:href="classServerManager.html#a9c75ea0bd268425c187ef25770eccbe8" target="_top" xlink:title=" ">
<polygon fill="white" stroke="black" points="491,-361.32 491,-391.32 623,-391.32 623,-361.32 491,-361.32"/>
<text text-anchor="start" x="499" y="-379.32" font-family="Helvetica,sans-Serif" font-size="10.00">ServerManager::handleCgi</text>
<text text-anchor="middle" x="557" y="-368.32" font-family="Helvetica,sans-Serif" font-size="10.00">PipeEvent</text>
</a>
</g>
</g>
<!-- Node20&#45;&gt;Node21 -->
<g id="edge26" class="edge">
<title>Node20&#45;&gt;Node21</title>
<path fill="none" stroke="midnightblue" d="M1356.35,-382.32C1285.74,-382.32 1169.33,-382.32 1069,-382.32 1069,-382.32 1069,-382.32 905.5,-382.32 807,-382.32 692.81,-379.88 623,-378.11"/>
<polygon fill="midnightblue" stroke="midnightblue" points="1356.43,-385.82 1366.43,-382.32 1356.43,-378.82 1356.43,-385.82"/>
</g>
<!-- Node21&#45;&gt;Node8 -->
<g id="edge27" class="edge">
<title>Node21&#45;&gt;Node8</title>
<path fill="none" stroke="midnightblue" d="M480.75,-382.44C376.5,-390.92 190.98,-406.01 102.13,-413.24"/>
<polygon fill="midnightblue" stroke="midnightblue" points="481.2,-385.91 490.89,-381.61 480.63,-378.93 481.2,-385.91"/>
</g>
<!-- Node22&#45;&gt;Node23 -->
<g id="edge29" class="edge">
<title>Node22&#45;&gt;Node23</title>
<path fill="none" stroke="midnightblue" d="M1369.43,-127.61C1344.51,-133.07 1314.93,-139.55 1291.14,-144.76"/>
<polygon fill="midnightblue" stroke="midnightblue" points="1370.42,-130.98 1379.44,-125.42 1368.93,-124.14 1370.42,-130.98"/>
</g>
<!-- Node23&#45;&gt;Node19 -->
<g id="edge30" class="edge">
<title>Node23&#45;&gt;Node19</title>
<path fill="none" stroke="midnightblue" d="M1217.86,-168.72C1181.43,-187.71 1118.33,-220.6 1087.31,-236.77"/>
<polygon fill="midnightblue" stroke="midnightblue" points="1219.7,-171.71 1226.95,-163.99 1216.46,-165.51 1219.7,-171.71"/>
</g>
<!-- Node24&#45;&gt;Node19 -->
<g id="edge32" class="edge">
<title>Node24&#45;&gt;Node19</title>
<path fill="none" stroke="midnightblue" d="M1355.24,-52.4C1302.87,-68.78 1229.28,-96.33 1173,-135.32 1129.8,-165.24 1090.92,-215.71 1075.75,-236.71"/>
<polygon fill="midnightblue" stroke="midnightblue" points="1356.56,-55.66 1365.09,-49.38 1354.5,-48.97 1356.56,-55.66"/>
</g>
<!-- Node25&#45;&gt;Node19 -->
<g id="edge34" class="edge">
<title>Node25&#45;&gt;Node19</title>
<path fill="none" stroke="midnightblue" d="M1170.29,-233.69C1159.3,-235.06 1148.04,-236.46 1137.2,-237.81"/>
<polygon fill="midnightblue" stroke="midnightblue" points="1170.79,-237.15 1180.28,-232.44 1169.92,-230.21 1170.79,-237.15"/>
</g>
<!-- Node26&#45;&gt;Node23 -->
<g id="edge36" class="edge">
<title>Node26&#45;&gt;Node23</title>
<path fill="none" stroke="midnightblue" d="M1373.49,-91C1367.54,-92.94 1361.59,-95.06 1356,-97.32 1321.67,-111.19 1283.89,-132.53 1263.2,-144.79"/>
<polygon fill="midnightblue" stroke="midnightblue" points="1374.93,-94.22 1383.44,-87.91 1372.85,-87.54 1374.93,-94.22"/>
</g>
<!-- Node27&#45;&gt;Node23 -->
<g id="edge39" class="edge">
<title>Node27&#45;&gt;Node23</title>
<path fill="none" stroke="midnightblue" d="M1373.85,-181.99C1348.05,-176.34 1316.31,-169.39 1291.09,-163.86"/>
<polygon fill="midnightblue" stroke="midnightblue" points="1373.26,-185.44 1383.78,-184.16 1374.76,-178.6 1373.26,-185.44"/>
</g>
<!-- Node28&#45;&gt;Node10 -->
<g id="edge47" class="edge">
<title>Node28&#45;&gt;Node10</title>
<path fill="none" stroke="midnightblue" d="M1517.98,-502.37C1402.17,-512.28 1164.41,-532.43 963,-548.32 779.56,-562.79 563.15,-578.61 455.29,-586.4"/>
<polygon fill="midnightblue" stroke="midnightblue" points="1518.47,-505.84 1528.13,-501.5 1517.87,-498.87 1518.47,-505.84"/>
</g>
<!-- Node28&#45;&gt;Node14 -->
<g id="edge46" class="edge">
<title>Node28&#45;&gt;Node14</title>
<path fill="none" stroke="midnightblue" d="M1536.69,-484.42C1513.43,-479.08 1486.35,-472.86 1464.46,-467.84"/>
<polygon fill="midnightblue" stroke="midnightblue" points="1536.21,-487.9 1546.74,-486.73 1537.77,-481.08 1536.21,-487.9"/>
</g>
<!-- Node28&#45;&gt;Node17 -->
<g id="edge49" class="edge">
<title>Node28&#45;&gt;Node17</title>
<path fill="none" stroke="midnightblue" d="M1518.08,-490.75C1471.97,-487.06 1410.39,-482.04 1356,-477.32 1160.75,-460.34 930.99,-438.74 814.13,-427.64"/>
<polygon fill="midnightblue" stroke="midnightblue" points="1518.02,-494.26 1528.27,-491.57 1518.58,-487.28 1518.02,-494.26"/>
</g>
<!-- Node28&#45;&gt;Node20 -->
<g id="edge48" class="edge">
<title>Node28&#45;&gt;Node20</title>
<path fill="none" stroke="midnightblue" d="M1566.19,-480.95C1531.57,-457.1 1465.93,-411.89 1437.14,-392.05"/>
<polygon fill="midnightblue" stroke="midnightblue" points="1564.45,-484 1574.67,-486.79 1568.42,-478.24 1564.45,-484"/>
</g>
<!-- Node29&#45;&gt;Node12 -->
<g id="edge52" class="edge">
<title>Node29&#45;&gt;Node12</title>
<path fill="none" stroke="midnightblue" d="M1904.99,-128.42C1896.91,-130.55 1888.7,-132.87 1881,-135.32 1864.64,-140.51 1861.19,-143.62 1845,-149.32 1830.64,-154.37 1814.59,-159.51 1800.95,-163.73"/>
<polygon fill="midnightblue" stroke="midnightblue" points="1905.93,-131.79 1914.74,-125.91 1904.19,-125.01 1905.93,-131.79"/>
</g>
<!-- Node29&#45;&gt;Node13 -->
<g id="edge51" class="edge">
<title>Node29&#45;&gt;Node13</title>
<path fill="none" stroke="midnightblue" d="M1870.77,-113.73C1816.21,-115.6 1745.98,-124.64 1691,-154.32 1644.1,-179.63 1608.64,-235.97 1595.77,-258.62"/>
<polygon fill="midnightblue" stroke="midnightblue" points="1870.86,-117.23 1880.77,-113.46 1870.68,-110.23 1870.86,-117.23"/>
</g>
<!-- Node29&#45;&gt;Node22 -->
<g id="edge53" class="edge">
<title>Node29&#45;&gt;Node22</title>
<path fill="none" stroke="midnightblue" d="M1870.77,-112.07C1862.06,-111.76 1853.36,-111.5 1845,-111.32 1705.64,-108.22 1540.35,-112.49 1464.63,-114.88"/>
<polygon fill="midnightblue" stroke="midnightblue" points="1870.84,-115.58 1880.96,-112.46 1871.1,-108.58 1870.84,-115.58"/>
</g>
<!-- Node29&#45;&gt;Node26 -->
<g id="edge54" class="edge">
<title>Node29&#45;&gt;Node26</title>
<path fill="none" stroke="midnightblue" d="M1870.77,-108.41C1862.07,-107.68 1853.36,-106.96 1845,-106.32 1708.66,-95.73 1547.33,-85.73 1469.55,-81.06"/>
<polygon fill="midnightblue" stroke="midnightblue" points="1870.7,-111.92 1880.97,-109.28 1871.3,-104.94 1870.7,-111.92"/>
</g>
<!-- Node30&#45;&gt;Node10 -->
<g id="edge60" class="edge">
<title>Node30&#45;&gt;Node10</title>
<path fill="none" stroke="midnightblue" d="M2116.33,-246.11C2052.73,-295.04 1849.08,-445 1655,-515.32 1406.93,-605.19 1332.84,-610.32 1069,-610.32 1069,-610.32 1069,-610.32 735.5,-610.32 637.94,-610.32 525.26,-602.8 455.05,-597.22"/>
<polygon fill="midnightblue" stroke="midnightblue" points="2118.6,-248.79 2124.36,-239.9 2114.31,-243.25 2118.6,-248.79"/>
</g>
<!-- Node30&#45;&gt;Node12 -->
<g id="edge59" class="edge">
<title>Node30&#45;&gt;Node12</title>
<path fill="none" stroke="midnightblue" d="M2064.81,-219.2C1990.76,-207.71 1877.42,-190.13 1814.72,-180.41"/>
<polygon fill="midnightblue" stroke="midnightblue" points="2064.57,-222.7 2074.99,-220.77 2065.64,-215.78 2064.57,-222.7"/>
</g>
<!-- Node30&#45;&gt;Node13 -->
<g id="edge58" class="edge">
<title>Node30&#45;&gt;Node13</title>
<path fill="none" stroke="midnightblue" d="M2064,-241.16C2054.6,-242.35 2045.08,-243.44 2036,-244.32 1892.98,-258.1 1723.31,-264.51 1640.71,-266.99"/>
<polygon fill="midnightblue" stroke="midnightblue" points="2064.68,-244.6 2074.14,-239.84 2063.77,-237.66 2064.68,-244.6"/>
</g>
<!-- Node30&#45;&gt;Node22 -->
<g id="edge61" class="edge">
<title>Node30&#45;&gt;Node22</title>
<path fill="none" stroke="midnightblue" d="M2061.78,-233.7C1918.94,-238.86 1613.35,-243.23 1524,-191.32 1499.06,-176.82 1511,-154.72 1488,-137.32 1481.1,-132.09 1472.84,-128.14 1464.57,-125.16"/>
<polygon fill="midnightblue" stroke="midnightblue" points="2061.92,-237.2 2071.78,-233.33 2061.66,-230.2 2061.92,-237.2"/>
</g>
<!-- Node30&#45;&gt;Node24 -->
<g id="edge62" class="edge">
<title>Node30&#45;&gt;Node24</title>
<path fill="none" stroke="midnightblue" d="M2128.4,-211.45C2114.42,-181.45 2082.69,-123.62 2036,-97.32 1858.67,2.59 1606.35,-11.2 1488.45,-24.88"/>
<polygon fill="midnightblue" stroke="midnightblue" points="2125.31,-213.11 2132.6,-220.79 2131.69,-210.24 2125.31,-213.11"/>
</g>
<!-- Node30&#45;&gt;Node29 -->
<g id="edge65" class="edge">
<title>Node30&#45;&gt;Node29</title>
<path fill="none" stroke="midnightblue" d="M2118.88,-213.44C2090.72,-186.51 2038.46,-136.66 2036,-135.32 2028.92,-131.44 2021.03,-128.34 2013.1,-125.87"/>
<polygon fill="midnightblue" stroke="midnightblue" points="2116.8,-216.3 2126.44,-220.68 2121.64,-211.24 2116.8,-216.3"/>
</g>
<!-- Node31 -->
<g id="node31" class="node">
<title>Node31</title>
<g id="a_node31"><a xlink:href="SessionUtils_8cpp.html#aabfd66406b8a4aec4237b26ff8e76a65" target="_top" xlink:title=" ">
<polygon fill="white" stroke="black" points="1889.5,-144.82 1889.5,-163.82 2027.5,-163.82 2027.5,-144.82 1889.5,-144.82"/>
<text text-anchor="middle" x="1958.5" y="-151.82" font-family="Helvetica,sans-Serif" font-size="10.00">addSessionCookieIfNeeded</text>
</a>
</g>
</g>
<!-- Node30&#45;&gt;Node31 -->
<g id="edge56" class="edge">
<title>Node30&#45;&gt;Node31</title>
<path fill="none" stroke="midnightblue" d="M2111.43,-215.79C2091.44,-204.59 2062.5,-189.23 2036,-178.32 2022.61,-172.8 2007.48,-167.81 1994.23,-163.82"/>
<polygon fill="midnightblue" stroke="midnightblue" points="2109.78,-218.88 2120.2,-220.76 2113.23,-212.79 2109.78,-218.88"/>
</g>
<!-- Node32 -->
<g id="node32" class="node">
<title>Node32</title>
<g id="a_node32"><a xlink:href="ClientCgi_8cpp.html#a8b77e6a9b66d57c486e83d946c0ae62a" target="_top" xlink:title=" ">
<polygon fill="white" stroke="black" points="1722,-600.82 1722,-619.82 1814,-619.82 1814,-600.82 1722,-600.82"/>
<text text-anchor="middle" x="1768" y="-607.82" font-family="Helvetica,sans-Serif" font-size="10.00">parseCgiHeaders</text>
</a>
</g>
</g>
<!-- Node30&#45;&gt;Node32 -->
<g id="edge63" class="edge">
<title>Node30&#45;&gt;Node32</title>
<path fill="none" stroke="midnightblue" d="M2132.48,-249.96C2123.11,-290.69 2095.88,-384.71 2036,-434.32 1980.95,-479.92 1932.76,-428 1881,-477.32 1844.06,-512.51 1881.31,-550.48 1845,-586.32 1836.63,-594.58 1825.44,-600 1814.22,-603.55"/>
<polygon fill="midnightblue" stroke="midnightblue" points="2135.91,-250.69 2134.62,-240.17 2129.07,-249.19 2135.91,-250.69"/>
</g>
<!-- Node31&#45;&gt;Node12 -->
<g id="edge57" class="edge">
<title>Node31&#45;&gt;Node12</title>
<path fill="none" stroke="midnightblue" d="M1879.41,-162.19C1857.34,-164.41 1834.04,-166.76 1814.57,-168.72"/>
<polygon fill="midnightblue" stroke="midnightblue" points="1879.85,-165.66 1889.45,-161.17 1879.15,-158.7 1879.85,-165.66"/>
</g>
<!-- Node32&#45;&gt;Node10 -->
<g id="edge64" class="edge">
<title>Node32&#45;&gt;Node10</title>
<path fill="none" stroke="midnightblue" d="M1711.91,-614.56C1582.92,-624.48 1270.42,-648.32 1247.5,-648.32 1247.5,-648.32 1247.5,-648.32 735.5,-648.32 626.31,-648.32 597.96,-646.28 491,-624.32 463.35,-618.64 432.66,-608.39 411.83,-600.82"/>
<polygon fill="midnightblue" stroke="midnightblue" points="1712.28,-618.04 1721.98,-613.79 1711.74,-611.07 1712.28,-618.04"/>
</g>
</g>
</svg>
