<?xml version="1.0" encoding="UTF-8" standalone="no"?>
<!DOCTYPE svg PUBLIC "-//W3C//DTD SVG 1.1//EN"
 "http://www.w3.org/Graphics/SVG/1.1/DTD/svg11.dtd">
<!-- Generated by graphviz version 2.43.0 (0)
 -->
<!-- Title: http_header_utils::splitHeaderLine Pages: 1 -->
<!--zoomable 91 -->
<svg id="main" version="1.1" xmlns="http://www.w3.org/2000/svg" xmlns:xlink="http://www.w3.org/1999/xlink" xml:space="preserve" onload="init(evt)">
<style type="text/css"><![CDATA[
.edge:hover path { stroke: red; }
.edge:hover polygon { stroke: red; fill: red; }
]]></style>
<script type="text/javascript"><![CDATA[
var edges = document.getElementsByTagName('g');
if (edges && edges.length) {
  for (var i=0;i<edges.length;i++) {
    if (edges[i].id.substr(0,4)=='edge') {
      edges[i].setAttribute('class','edge');
    }
  }
}
]]></script>
        <defs>
                <circle id="rim" cx="0" cy="0" r="7"/>
                <circle id="rim2" cx="0" cy="0" r="3.5"/>
                <g id="zoomPlus">
                        <use xlink:href="#rim" fill="#404040">
                                <set attributeName="fill" to="#808080" begin="zoomplus.mouseover" end="zoomplus.mouseout"/>
                        </use>
                        <path d="M-4,0h8M0,-4v8" fill="none" stroke="white" stroke-width="1.5" pointer-events="none"/>
                </g>
                <g id="zoomMin">
                        <use xlink:href="#rim" fill="#404040">
                                <set attributeName="fill" to="#808080" begin="zoomminus.mouseover" end="zoomminus.mouseout"/>
                        </use>
                        <path d="M-4,0h8" fill="none" stroke="white" stroke-width="1.5" pointer-events="none"/>
                </g>
                <g id="dirArrow">
                        <path fill="none" stroke="white" stroke-width="1.5" d="M0,-3.0v7 M-2.5,-0.5L0,-3.0L2.5,-0.5"/>
                </g>
               <g id="resetDef">
                       <use xlink:href="#rim2" fill="#404040">
                               <set attributeName="fill" to="#808080" begin="reset.mouseover" end="reset.mouseout"/>
                       </use>
               </g>
        </defs>

<script type="text/javascript">
var viewWidth = 1433;
var viewHeight = 91;
var sectionId = 'dynsection-1';
</script>
<script xlink:href="svgpan.js"/>
<svg id="graph" class="graph">
<g id="viewport">
<title>http_header_utils::splitHeaderLine</title>
<polygon fill="white" stroke="transparent" points="-4,4 -4,-86.5 1429,-86.5 1429,4 -4,4"/>
<!-- Node1 -->
<g id="node1" class="node">
<title>Node1</title>
<g id="a_node1"><a xlink:title=" ">
<polygon fill="#bfbfbf" stroke="black" points="1328,-38.5 1328,-68.5 1425,-68.5 1425,-38.5 1328,-38.5"/>
<text text-anchor="start" x="1336" y="-56.5" font-family="Helvetica,sans-Serif" font-size="10.00">http_header_utils::</text>
<text text-anchor="middle" x="1376.5" y="-45.5" font-family="Helvetica,sans-Serif" font-size="10.00">splitHeaderLine</text>
</a>
</g>
</g>
<!-- Node2 -->
<g id="node2" class="node">
<title>Node2</title>
<g id="a_node2"><a xlink:href="ClientCgi_8cpp.html#a8b77e6a9b66d57c486e83d946c0ae62a" target="_top" xlink:title=" ">
<polygon fill="white" stroke="black" points="996,-63 996,-82 1088,-82 1088,-63 996,-63"/>
<text text-anchor="middle" x="1042" y="-70" font-family="Helvetica,sans-Serif" font-size="10.00">parseCgiHeaders</text>
</a>
</g>
</g>
<!-- Node1&#45;&gt;Node2 -->
<g id="edge1" class="edge">
<title>Node1&#45;&gt;Node2</title>
<path fill="none" stroke="midnightblue" d="M1317.74,-56.8C1252.5,-60.53 1147.69,-66.52 1088.15,-69.92"/>
<polygon fill="midnightblue" stroke="midnightblue" points="1318.08,-60.29 1327.86,-56.22 1317.68,-53.3 1318.08,-60.29"/>
</g>
<!-- Node4 -->
<g id="node4" class="node">
<title>Node4</title>
<g id="a_node4"><a xlink:href="classHttpParser.html#aa4b991659eac9e1657d9c71caada3ea1" target="_top" xlink:title="Divide una linea de header en key y value.">
<polygon fill="white" stroke="black" points="1155,-25 1155,-44 1292,-44 1292,-25 1155,-25"/>
<text text-anchor="middle" x="1223.5" y="-32" font-family="Helvetica,sans-Serif" font-size="10.00">HttpParser::splitHeaderLine</text>
</a>
</g>
</g>
<!-- Node1&#45;&gt;Node4 -->
<g id="edge3" class="edge">
<title>Node1&#45;&gt;Node4</title>
<path fill="none" stroke="midnightblue" d="M1317.69,-46.23C1309.32,-45.17 1300.65,-44.08 1292.11,-43.01"/>
<polygon fill="midnightblue" stroke="midnightblue" points="1317.36,-49.71 1327.72,-47.49 1318.24,-42.77 1317.36,-49.71"/>
</g>
<!-- Node3 -->
<g id="node3" class="node">
<title>Node3</title>
<g id="a_node3"><a xlink:href="classClient.html#a09d6029b60ae8c9773362968e72f2e54" target="_top" xlink:title=" ">
<polygon fill="white" stroke="black" points="317,-53 317,-72 455,-72 455,-53 317,-53"/>
<text text-anchor="middle" x="386" y="-60" font-family="Helvetica,sans-Serif" font-size="10.00">Client::finalizeCgiResponse</text>
</a>
</g>
</g>
<!-- Node2&#45;&gt;Node3 -->
<g id="edge2" class="edge">
<title>Node2&#45;&gt;Node3</title>
<path fill="none" stroke="midnightblue" d="M985.78,-71.66C866.49,-69.83 585.03,-65.53 455.02,-63.54"/>
<polygon fill="midnightblue" stroke="midnightblue" points="985.74,-75.16 995.79,-71.81 985.84,-68.16 985.74,-75.16"/>
</g>
<!-- Node5 -->
<g id="node5" class="node">
<title>Node5</title>
<g id="a_node5"><a xlink:href="classHttpParser.html#aad534f8119b202b2c0194bf0a7cb6620" target="_top" xlink:title=" ">
<polygon fill="white" stroke="black" points="965,-25 965,-44 1119,-44 1119,-25 965,-25"/>
<text text-anchor="middle" x="1042" y="-32" font-family="Helvetica,sans-Serif" font-size="10.00">HttpParser::processHeaderLine</text>
</a>
</g>
</g>
<!-- Node4&#45;&gt;Node5 -->
<g id="edge4" class="edge">
<title>Node4&#45;&gt;Node5</title>
<path fill="none" stroke="midnightblue" d="M1144.7,-34.5C1136.27,-34.5 1127.69,-34.5 1119.27,-34.5"/>
<polygon fill="midnightblue" stroke="midnightblue" points="1144.89,-38 1154.89,-34.5 1144.89,-31 1144.89,-38"/>
</g>
<!-- Node6 -->
<g id="node6" class="node">
<title>Node6</title>
<g id="a_node6"><a xlink:href="classHttpParser.html#a7c2c3b29f245b3421b9af34300d7806b" target="_top" xlink:title=" ">
<polygon fill="white" stroke="black" points="798,-25 798,-44 929,-44 929,-25 798,-25"/>
<text text-anchor="middle" x="863.5" y="-32" font-family="Helvetica,sans-Serif" font-size="10.00">HttpParser::parseHeaders</text>
</a>
</g>
</g>
<!-- Node5&#45;&gt;Node6 -->
<g id="edge5" class="edge">
<title>Node5&#45;&gt;Node6</title>
<path fill="none" stroke="midnightblue" d="M954.74,-34.5C946.08,-34.5 937.4,-34.5 929.03,-34.5"/>
<polygon fill="midnightblue" stroke="midnightblue" points="954.87,-38 964.87,-34.5 954.87,-31 954.87,-38"/>
</g>
<!-- Node7 -->
<g id="node7" class="node">
<title>Node7</title>
<g id="a_node7"><a xlink:href="classHttpParser.html#ada29088006c606896d2d46e48034f420" target="_top" xlink:title=" ">
<polygon fill="white" stroke="black" points="652,-25 652,-44 762,-44 762,-25 652,-25"/>
<text text-anchor="middle" x="707" y="-32" font-family="Helvetica,sans-Serif" font-size="10.00">HttpParser::consume</text>
</a>
</g>
</g>
<!-- Node6&#45;&gt;Node7 -->
<g id="edge6" class="edge">
<title>Node6&#45;&gt;Node7</title>
<path fill="none" stroke="midnightblue" d="M787.76,-34.5C779.1,-34.5 770.4,-34.5 762.09,-34.5"/>
<polygon fill="midnightblue" stroke="midnightblue" points="787.87,-38 797.87,-34.5 787.87,-31 787.87,-38"/>
</g>
<!-- Node8 -->
<g id="node8" class="node">
<title>Node8</title>
<g id="a_node8"><a xlink:href="classClient.html#ac95fe5b24fe5275bd2271bd1ac37596d" target="_top" xlink:title=" ">
<polygon fill="white" stroke="black" points="336,-6 336,-25 436,-25 436,-6 336,-6"/>
<text text-anchor="middle" x="386" y="-13" font-family="Helvetica,sans-Serif" font-size="10.00">Client::handleRead</text>
</a>
</g>
</g>
<!-- Node7&#45;&gt;Node8 -->
<g id="edge7" class="edge">
<title>Node7&#45;&gt;Node8</title>
<path fill="none" stroke="midnightblue" d="M659.64,-22.79C645.7,-19.79 630.31,-16.99 616,-15.5 554.31,-9.06 482.77,-10.47 436.29,-12.55"/>
<polygon fill="midnightblue" stroke="midnightblue" points="658.97,-26.23 669.49,-24.99 660.5,-19.39 658.97,-26.23"/>
</g>
<!-- Node11 -->
<g id="node11" class="node">
<title>Node11</title>
<g id="a_node11"><a xlink:href="classClient.html#a950fd2ab8ac20c9be4c5e722344d6fe2" target="_top" xlink:title=" ">
<polygon fill="white" stroke="black" points="491,-25 491,-44 616,-44 616,-25 491,-25"/>
<text text-anchor="middle" x="553.5" y="-32" font-family="Helvetica,sans-Serif" font-size="10.00">Client::processRequests</text>
</a>
</g>
</g>
<!-- Node7&#45;&gt;Node11 -->
<g id="edge10" class="edge">
<title>Node7&#45;&gt;Node11</title>
<path fill="none" stroke="midnightblue" d="M641.57,-34.5C633.13,-34.5 624.5,-34.5 616.11,-34.5"/>
<polygon fill="midnightblue" stroke="midnightblue" points="641.73,-38 651.73,-34.5 641.73,-31 641.73,-38"/>
</g>
<!-- Node9 -->
<g id="node9" class="node">
<title>Node9</title>
<g id="a_node9"><a xlink:href="classServerManager.html#a9f3ca46da9df004286f90902b8daf29d" target="_top" xlink:title=" ">
<polygon fill="white" stroke="black" points="138,-0.5 138,-30.5 281,-30.5 281,-0.5 138,-0.5"/>
<text text-anchor="start" x="146" y="-18.5" font-family="Helvetica,sans-Serif" font-size="10.00">ServerManager::handleClient</text>
<text text-anchor="middle" x="209.5" y="-7.5" font-family="Helvetica,sans-Serif" font-size="10.00">Event</text>
</a>
</g>
</g>
<!-- Node8&#45;&gt;Node9 -->
<g id="edge8" class="edge">
<title>Node8&#45;&gt;Node9</title>
<path fill="none" stroke="midnightblue" d="M325.69,-15.5C311.33,-15.5 295.84,-15.5 281.02,-15.5"/>
<polygon fill="midnightblue" stroke="midnightblue" points="325.93,-19 335.93,-15.5 325.93,-12 325.93,-19"/>
</g>
<!-- Node10 -->
<g id="node10" class="node">
<title>Node10</title>
<g id="a_node10"><a xlink:href="classServerManager.html#aecc313c9b6afcab92c22269b3333c721" target="_top" xlink:title=" ">
<polygon fill="white" stroke="black" points="0,-6 0,-25 102,-25 102,-6 0,-6"/>
<text text-anchor="middle" x="51" y="-13" font-family="Helvetica,sans-Serif" font-size="10.00">ServerManager::run</text>
</a>
</g>
</g>
<!-- Node9&#45;&gt;Node10 -->
<g id="edge9" class="edge">
<title>Node9&#45;&gt;Node10</title>
<path fill="none" stroke="midnightblue" d="M127.45,-15.5C118.82,-15.5 110.23,-15.5 102.11,-15.5"/>
<polygon fill="midnightblue" stroke="midnightblue" points="127.58,-19 137.58,-15.5 127.58,-12 127.58,-19"/>
</g>
<!-- Node11&#45;&gt;Node3 -->
<g id="edge11" class="edge">
<title>Node11&#45;&gt;Node3</title>
<path fill="none" stroke="midnightblue" d="M485.86,-45.78C471.72,-48.17 456.94,-50.67 443.24,-52.99"/>
<polygon fill="midnightblue" stroke="midnightblue" points="486.73,-49.18 496.01,-44.06 485.56,-42.27 486.73,-49.18"/>
</g>
<!-- Node11&#45;&gt;Node8 -->
<g id="edge12" class="edge">
<title>Node11&#45;&gt;Node8</title>
<path fill="none" stroke="midnightblue" d="M480.56,-26.24C465.52,-24.51 449.99,-22.73 436.02,-21.13"/>
<polygon fill="midnightblue" stroke="midnightblue" points="480.54,-29.76 490.87,-27.43 481.34,-22.81 480.54,-29.76"/>
</g>
</g>
</svg>
        <g id="navigator" transform="translate(0 0)" fill="#404254">
                <rect fill="#f2f5e9" fill-opacity="0.5" stroke="#606060" stroke-width=".5" x="0" y="0" width="60" height="60"/>
                <use id="zoomplus" xlink:href="#zoomPlus" x="17" y="9" onmousedown="handleZoom(evt,'in')"/>
                <use id="zoomminus" xlink:href="#zoomMin" x="42" y="9" onmousedown="handleZoom(evt,'out')"/>
                <use id="reset" xlink:href="#resetDef" x="30" y="36" onmousedown="handleReset()"/>
                <g id="arrowUp" xlink:href="#dirArrow" transform="translate(30 24)" onmousedown="handlePan(0,-1)">
                  <use xlink:href="#rim" fill="#404040">
                        <set attributeName="fill" to="#808080" begin="arrowUp.mouseover" end="arrowUp.mouseout"/>
                  </use>
                  <path fill="none" stroke="white" stroke-width="1.5" d="M0,-3.0v7 M-2.5,-0.5L0,-3.0L2.5,-0.5"/>
                </g>
                <g id="arrowRight" xlink:href="#dirArrow" transform="rotate(90) translate(36 -43)" onmousedown="handlePan(1,0)">
                  <use xlink:href="#rim" fill="#404040">
                        <set attributeName="fill" to="#808080" begin="arrowRight.mouseover" end="arrowRight.mouseout"/>
                  </use>
                  <path fill="none" stroke="white" stroke-width="1.5" d="M0,-3.0v7 M-2.5,-0.5L0,-3.0L2.5,-0.5"/>
                </g>
                <g id="arrowDown" xlink:href="#dirArrow" transform="rotate(180) translate(-30 -48)" onmousedown="handlePan(0,1)">
                  <use xlink:href="#rim" fill="#404040">
                        <set attributeName="fill" to="#808080" begin="arrowDown.mouseover" end="arrowDown.mouseout"/>
                  </use>
                  <path fill="none" stroke="white" stroke-width="1.5" d="M0,-3.0v7 M-2.5,-0.5L0,-3.0L2.5,-0.5"/>
                </g>
                <g id="arrowLeft" xlink:href="#dirArrow" transform="rotate(270) translate(-36 17)" onmousedown="handlePan(-1,0)">
                  <use xlink:href="#rim" fill="#404040">
                        <set attributeName="fill" to="#808080" begin="arrowLeft.mouseover" end="arrowLeft.mouseout"/>
                  </use>
                  <path fill="none" stroke="white" stroke-width="1.5" d="M0,-3.0v7 M-2.5,-0.5L0,-3.0L2.5,-0.5"/>
                </g>
        </g>
        <svg viewBox="0 0 15 15" width="100%" height="30px" preserveAspectRatio="xMaxYMin meet">
         <g id="arrow_out" transform="scale(0.3 0.3)">
          <a xlink:href="namespacehttp__header__utils_a8e76e9e7c6a2030b51da66551de2a136_icgraph_org.svg" target="_base">
           <rect id="button" ry="5" rx="5" y="6" x="6" height="38" width="38"
                fill="#f2f5e9" fill-opacity="0.5" stroke="#606060" stroke-width="1.0"/>
           <path id="arrow"
             d="M 11.500037,31.436501 C 11.940474,20.09759 22.043105,11.32322 32.158766,21.979434 L 37.068811,17.246167 C 37.068811,17.246167 37.088388,32 37.088388,32 L 22.160133,31.978069 C 22.160133,31.978069 26.997745,27.140456 26.997745,27.140456 C 18.528582,18.264221 13.291696,25.230495 11.500037,31.436501 z"
             style="fill:#404040;"/>
          </a>
         </g>
        </svg>
</svg>
