<?xml version="1.0" encoding="UTF-8" standalone="no"?>
<!DOCTYPE svg PUBLIC "-//W3C//DTD SVG 1.1//EN"
 "http://www.w3.org/Graphics/SVG/1.1/DTD/svg11.dtd">
<!-- Generated by graphviz version 2.43.0 (0)
 -->
<!-- Title: config::utils::normalizeSpaces Pages: 1 -->
<svg width="501pt" height="39pt"
 viewBox="0.00 0.00 501.00 39.00" xmlns="http://www.w3.org/2000/svg" xmlns:xlink="http://www.w3.org/1999/xlink">
<g id="graph0" class="graph" transform="scale(1 1) rotate(0) translate(4 35)">
<title>config::utils::normalizeSpaces</title>
<polygon fill="white" stroke="transparent" points="-4,4 -4,-35 497,-35 497,4 -4,4"/>
<!-- Node1 -->
<g id="node1" class="node">
<title>Node1</title>
<g id="a_node1"><a xlink:title="Replaces multiple whitespace characters with a single space.">
<polygon fill="#bfbfbf" stroke="black" points="378,-0.5 378,-30.5 493,-30.5 493,-0.5 378,-0.5"/>
<text text-anchor="start" x="386" y="-18.5" font-family="Helvetica,sans-Serif" font-size="10.00">config::utils::normalize</text>
<text text-anchor="middle" x="435.5" y="-7.5" font-family="Helvetica,sans-Serif" font-size="10.00">Spaces</text>
</a>
</g>
</g>
<!-- Node2 -->
<g id="node2" class="node">
<title>Node2</title>
<g id="a_node2"><a xlink:href="classConfigParser.html#a4023141310c6afc61155fd6842735abd" target="_top" xlink:title=" ">
<polygon fill="white" stroke="black" points="214,-0.5 214,-30.5 342,-30.5 342,-0.5 214,-0.5"/>
<text text-anchor="start" x="222" y="-18.5" font-family="Helvetica,sans-Serif" font-size="10.00">ConfigParser::preprocess</text>
<text text-anchor="middle" x="278" y="-7.5" font-family="Helvetica,sans-Serif" font-size="10.00">ConfigFile</text>
</a>
</g>
</g>
<!-- Node1&#45;&gt;Node2 -->
<g id="edge1" class="edge">
<title>Node1&#45;&gt;Node2</title>
<path fill="none" stroke="midnightblue" d="M367.69,-15.5C359.2,-15.5 350.54,-15.5 342.11,-15.5"/>
<polygon fill="midnightblue" stroke="midnightblue" points="367.92,-19 377.92,-15.5 367.92,-12 367.92,-19"/>
</g>
<!-- Node3 -->
<g id="node3" class="node">
<title>Node3</title>
<g id="a_node3"><a xlink:href="classConfigParser.html#a07493adaa4feb9beb085dcfe01af3e3c" target="_top" xlink:title="Parse the configuration file.">
<polygon fill="white" stroke="black" points="74,-6 74,-25 178,-25 178,-6 74,-6"/>
<text text-anchor="middle" x="126" y="-13" font-family="Helvetica,sans-Serif" font-size="10.00">ConfigParser::parse</text>
</a>
</g>
</g>
<!-- Node2&#45;&gt;Node3 -->
<g id="edge2" class="edge">
<title>Node2&#45;&gt;Node3</title>
<path fill="none" stroke="midnightblue" d="M203.75,-15.5C195.14,-15.5 186.5,-15.5 178.28,-15.5"/>
<polygon fill="midnightblue" stroke="midnightblue" points="203.82,-19 213.82,-15.5 203.82,-12 203.82,-19"/>
</g>
<!-- Node4 -->
<g id="node4" class="node">
<title>Node4</title>
<g id="a_node4"><a xlink:href="main_8cpp.html#a0ddf1224851353fc92bfbff6f499fa97" target="_top" xlink:title=" ">
<polygon fill="white" stroke="black" points="0,-6 0,-25 38,-25 38,-6 0,-6"/>
<text text-anchor="middle" x="19" y="-13" font-family="Helvetica,sans-Serif" font-size="10.00">main</text>
</a>
</g>
</g>
<!-- Node3&#45;&gt;Node4 -->
<g id="edge3" class="edge">
<title>Node3&#45;&gt;Node4</title>
<path fill="none" stroke="midnightblue" d="M63.64,-15.5C54.43,-15.5 45.6,-15.5 38.31,-15.5"/>
<polygon fill="midnightblue" stroke="midnightblue" points="63.73,-19 73.73,-15.5 63.73,-12 63.73,-19"/>
</g>
</g>
</svg>
