<?xml version="1.0" encoding="UTF-8" standalone="no"?>
<!DOCTYPE svg PUBLIC "-//W3C//DTD SVG 1.1//EN"
 "http://www.w3.org/Graphics/SVG/1.1/DTD/svg11.dtd">
<!-- Generated by graphviz version 2.43.0 (0)
 -->
<!-- Title: config::utils::removeSemicolon Pages: 1 -->
<!--zoomable 414 -->
<svg id="main" version="1.1" xmlns="http://www.w3.org/2000/svg" xmlns:xlink="http://www.w3.org/1999/xlink" xml:space="preserve" onload="init(evt)">
<style type="text/css"><![CDATA[
.edge:hover path { stroke: red; }
.edge:hover polygon { stroke: red; fill: red; }
]]></style>
<script type="text/javascript"><![CDATA[
var edges = document.getElementsByTagName('g');
if (edges && edges.length) {
  for (var i=0;i<edges.length;i++) {
    if (edges[i].id.substr(0,4)=='edge') {
      edges[i].setAttribute('class','edge');
    }
  }
}
]]></script>
        <defs>
                <circle id="rim" cx="0" cy="0" r="7"/>
                <circle id="rim2" cx="0" cy="0" r="3.5"/>
                <g id="zoomPlus">
                        <use xlink:href="#rim" fill="#404040">
                                <set attributeName="fill" to="#808080" begin="zoomplus.mouseover" end="zoomplus.mouseout"/>
                        </use>
                        <path d="M-4,0h8M0,-4v8" fill="none" stroke="white" stroke-width="1.5" pointer-events="none"/>
                </g>
                <g id="zoomMin">
                        <use xlink:href="#rim" fill="#404040">
                                <set attributeName="fill" to="#808080" begin="zoomminus.mouseover" end="zoomminus.mouseout"/>
                        </use>
                        <path d="M-4,0h8" fill="none" stroke="white" stroke-width="1.5" pointer-events="none"/>
                </g>
                <g id="dirArrow">
                        <path fill="none" stroke="white" stroke-width="1.5" d="M0,-3.0v7 M-2.5,-0.5L0,-3.0L2.5,-0.5"/>
                </g>
               <g id="resetDef">
                       <use xlink:href="#rim2" fill="#404040">
                               <set attributeName="fill" to="#808080" begin="reset.mouseover" end="reset.mouseout"/>
                       </use>
               </g>
        </defs>

<script type="text/javascript">
var viewWidth = 1102;
var viewHeight = 414;
var sectionId = 'dynsection-13';
</script>
<script xlink:href="svgpan.js"/>
<svg id="graph" class="graph">
<g id="viewport">
<title>config::utils::removeSemicolon</title>
<polygon fill="white" stroke="transparent" points="-4,4 -4,-410.13 1098,-410.13 1098,4 -4,4"/>
<!-- Node1 -->
<g id="node1" class="node">
<title>Node1</title>
<g id="a_node1"><a xlink:title="Removes the trailing semicolon from a string if present.">
<polygon fill="#bfbfbf" stroke="black" points="943,-191.11 943,-210.11 1094,-210.11 1094,-191.11 943,-191.11"/>
<text text-anchor="middle" x="1018.5" y="-198.11" font-family="Helvetica,sans-Serif" font-size="10.00">config::utils::removeSemicolon</text>
</a>
</g>
</g>
<!-- Node2 -->
<g id="node2" class="node">
<title>Node2</title>
<g id="a_node2"><a xlink:href="classConfigParser.html#a7ab80fb3ce52414448d41df88f94400a" target="_top" xlink:title=" ">
<polygon fill="white" stroke="black" points="765.5,-267.11 765.5,-286.11 884.5,-286.11 884.5,-267.11 765.5,-267.11"/>
<text text-anchor="middle" x="825" y="-274.11" font-family="Helvetica,sans-Serif" font-size="10.00">ConfigParser::parseCgi</text>
</a>
</g>
</g>
<!-- Node1&#45;&gt;Node2 -->
<g id="edge1" class="edge">
<title>Node1&#45;&gt;Node2</title>
<path fill="none" stroke="midnightblue" d="M993.33,-215.29C971.46,-228.03 938.01,-246.17 907,-257.61 896.97,-261.31 885.97,-264.46 875.4,-267.06"/>
<polygon fill="midnightblue" stroke="midnightblue" points="995.13,-218.29 1001.96,-210.19 991.57,-212.26 995.13,-218.29"/>
</g>
<!-- Node3 -->
<g id="node3" class="node">
<title>Node3</title>
<g id="a_node3"><a xlink:href="classConfigParser.html#a497afc5807db6d7f6092609c62cdd7ad" target="_top" xlink:title=" ">
<polygon fill="white" stroke="black" points="563.5,-286.61 563.5,-316.61 703.5,-316.61 703.5,-286.61 563.5,-286.61"/>
<text text-anchor="start" x="571.5" y="-304.61" font-family="Helvetica,sans-Serif" font-size="10.00">ConfigParser::parseLocation</text>
<text text-anchor="middle" x="633.5" y="-293.61" font-family="Helvetica,sans-Serif" font-size="10.00">Block</text>
</a>
</g>
</g>
<!-- Node1&#45;&gt;Node3 -->
<g id="edge15" class="edge">
<title>Node1&#45;&gt;Node3</title>
<path fill="none" stroke="midnightblue" d="M1012.66,-219.85C1001.63,-259.11 970.52,-347.76 907,-383.61 843.52,-419.43 812.11,-406.79 743,-383.61 703.6,-370.4 667.09,-336.6 648.12,-316.76"/>
<polygon fill="midnightblue" stroke="midnightblue" points="1016.05,-220.74 1015.25,-210.17 1009.29,-218.93 1016.05,-220.74"/>
</g>
<!-- Node8 -->
<g id="node8" class="node">
<title>Node8</title>
<g id="a_node8"><a xlink:href="classConfigParser.html#a586b651c9d22c24a5b3b4602819a7031" target="_top" xlink:title=" ">
<polygon fill="white" stroke="black" points="560,-191.11 560,-210.11 707,-210.11 707,-191.11 560,-191.11"/>
<text text-anchor="middle" x="633.5" y="-198.11" font-family="Helvetica,sans-Serif" font-size="10.00">ConfigParser::parseErrorPage</text>
</a>
</g>
</g>
<!-- Node1&#45;&gt;Node8 -->
<g id="edge7" class="edge">
<title>Node1&#45;&gt;Node8</title>
<path fill="none" stroke="midnightblue" d="M932.54,-200.61C864.92,-200.61 771.29,-200.61 707.12,-200.61"/>
<polygon fill="midnightblue" stroke="midnightblue" points="932.74,-204.11 942.74,-200.61 932.74,-197.11 932.74,-204.11"/>
</g>
<!-- Node9 -->
<g id="node9" class="node">
<title>Node9</title>
<g id="a_node9"><a xlink:href="classConfigParser.html#a53634b014cd0c6419ecf857b20b9a0ba" target="_top" xlink:title=" ">
<polygon fill="white" stroke="black" points="571,-153.11 571,-172.11 696,-172.11 696,-153.11 571,-153.11"/>
<text text-anchor="middle" x="633.5" y="-160.11" font-family="Helvetica,sans-Serif" font-size="10.00">ConfigParser::parseHost</text>
</a>
</g>
</g>
<!-- Node1&#45;&gt;Node9 -->
<g id="edge9" class="edge">
<title>Node1&#45;&gt;Node9</title>
<path fill="none" stroke="midnightblue" d="M932.4,-192.17C860.81,-185.06 760.15,-175.08 696.12,-168.73"/>
<polygon fill="midnightblue" stroke="midnightblue" points="932.45,-195.69 942.74,-193.19 933.14,-188.72 932.45,-195.69"/>
</g>
<!-- Node10 -->
<g id="node10" class="node">
<title>Node10</title>
<g id="a_node10"><a xlink:href="classConfigParser.html#a75b7302fd3f4fbbb22306335f8d3706b" target="_top" xlink:title=" ">
<polygon fill="white" stroke="black" points="569.5,-115.11 569.5,-134.11 697.5,-134.11 697.5,-115.11 569.5,-115.11"/>
<text text-anchor="middle" x="633.5" y="-122.11" font-family="Helvetica,sans-Serif" font-size="10.00">ConfigParser::parseIndex</text>
</a>
</g>
</g>
<!-- Node1&#45;&gt;Node10 -->
<g id="edge11" class="edge">
<title>Node1&#45;&gt;Node10</title>
<path fill="none" stroke="midnightblue" d="M975.62,-188.2C955.06,-182.38 929.86,-175.63 907,-170.61 835.77,-154.97 753.06,-141.69 697.61,-133.47"/>
<polygon fill="midnightblue" stroke="midnightblue" points="974.73,-191.59 985.31,-190.98 976.66,-184.86 974.73,-191.59"/>
</g>
<!-- Node11 -->
<g id="node11" class="node">
<title>Node11</title>
<g id="a_node11"><a xlink:href="classConfigParser.html#a5334f5b1843097862ae150b653001674" target="_top" xlink:title=" ">
<polygon fill="white" stroke="black" points="568.5,-77.11 568.5,-96.11 698.5,-96.11 698.5,-77.11 568.5,-77.11"/>
<text text-anchor="middle" x="633.5" y="-84.11" font-family="Helvetica,sans-Serif" font-size="10.00">ConfigParser::parseListen</text>
</a>
</g>
</g>
<!-- Node1&#45;&gt;Node11 -->
<g id="edge13" class="edge">
<title>Node1&#45;&gt;Node11</title>
<path fill="none" stroke="midnightblue" d="M995.87,-185.37C974.33,-170.91 939.83,-149.66 907,-137.61 838.2,-112.37 754.85,-99.12 698.6,-92.52"/>
<polygon fill="midnightblue" stroke="midnightblue" points="994.04,-188.35 1004.27,-191.1 997.98,-182.57 994.04,-188.35"/>
</g>
<!-- Node12 -->
<g id="node12" class="node">
<title>Node12</title>
<g id="a_node12"><a xlink:href="classConfigParser.html#a9b725718db54abd627b37d021acf726e" target="_top" xlink:title=" ">
<polygon fill="white" stroke="black" points="743,-229.11 743,-248.11 907,-248.11 907,-229.11 743,-229.11"/>
<text text-anchor="middle" x="825" y="-236.11" font-family="Helvetica,sans-Serif" font-size="10.00">ConfigParser::parseMaxSizeBody</text>
</a>
</g>
</g>
<!-- Node1&#45;&gt;Node12 -->
<g id="edge16" class="edge">
<title>Node1&#45;&gt;Node12</title>
<path fill="none" stroke="midnightblue" d="M959.35,-212.15C932.04,-217.57 899.87,-223.95 873.98,-229.09"/>
<polygon fill="midnightblue" stroke="midnightblue" points="960.05,-215.58 969.18,-210.2 958.69,-208.71 960.05,-215.58"/>
</g>
<!-- Node13 -->
<g id="node13" class="node">
<title>Node13</title>
<g id="a_node13"><a xlink:href="classConfigParser.html#a27bff35ad8d26d109518201906023389" target="_top" xlink:title=" ">
<polygon fill="white" stroke="black" points="758.5,-355.11 758.5,-374.11 891.5,-374.11 891.5,-355.11 758.5,-355.11"/>
<text text-anchor="middle" x="825" y="-362.11" font-family="Helvetica,sans-Serif" font-size="10.00">ConfigParser::parseReturn</text>
</a>
</g>
</g>
<!-- Node1&#45;&gt;Node13 -->
<g id="edge19" class="edge">
<title>Node1&#45;&gt;Node13</title>
<path fill="none" stroke="midnightblue" d="M1008.54,-219.58C992.69,-250.97 956.63,-313.45 907,-345.61 901.06,-349.46 894.43,-352.53 887.58,-354.98"/>
<polygon fill="midnightblue" stroke="midnightblue" points="1011.87,-220.74 1013.13,-210.22 1005.58,-217.66 1011.87,-220.74"/>
</g>
<!-- Node14 -->
<g id="node14" class="node">
<title>Node14</title>
<g id="a_node14"><a xlink:href="classConfigParser.html#a8b154ff32d31129037f006c0776bd05f" target="_top" xlink:title=" ">
<polygon fill="white" stroke="black" points="571,-39.11 571,-58.11 696,-58.11 696,-39.11 571,-39.11"/>
<text text-anchor="middle" x="633.5" y="-46.11" font-family="Helvetica,sans-Serif" font-size="10.00">ConfigParser::parseRoot</text>
</a>
</g>
</g>
<!-- Node1&#45;&gt;Node14 -->
<g id="edge21" class="edge">
<title>Node1&#45;&gt;Node14</title>
<path fill="none" stroke="midnightblue" d="M1004.21,-182.57C985.43,-158.52 948.73,-116.57 907,-95.61 840.07,-62.01 753.52,-51.9 696.12,-49.14"/>
<polygon fill="midnightblue" stroke="midnightblue" points="1001.66,-184.99 1010.5,-190.83 1007.23,-180.75 1001.66,-184.99"/>
</g>
<!-- Node15 -->
<g id="node15" class="node">
<title>Node15</title>
<g id="a_node15"><a xlink:href="classConfigParser.html#a6df5ea64005edb4d851839a3b6e6b0df" target="_top" xlink:title=" ">
<polygon fill="white" stroke="black" points="746,-1.11 746,-20.11 904,-20.11 904,-1.11 746,-1.11"/>
<text text-anchor="middle" x="825" y="-8.11" font-family="Helvetica,sans-Serif" font-size="10.00">ConfigParser::parseServerName</text>
</a>
</g>
</g>
<!-- Node1&#45;&gt;Node15 -->
<g id="edge23" class="edge">
<title>Node1&#45;&gt;Node15</title>
<path fill="none" stroke="midnightblue" d="M1010.09,-181.65C995.61,-147.12 960.27,-73.92 907,-34.61 898.39,-28.25 888.1,-23.57 877.79,-20.12"/>
<polygon fill="midnightblue" stroke="midnightblue" points="1006.9,-183.1 1013.91,-191.05 1013.38,-180.47 1006.9,-183.1"/>
</g>
<!-- Node16 -->
<g id="node16" class="node">
<title>Node16</title>
<g id="a_node16"><a xlink:href="classConfigParser.html#a5e88206a9aca177924981f1567eeaf37" target="_top" xlink:title=" ">
<polygon fill="white" stroke="black" points="758,-305.61 758,-335.61 892,-335.61 892,-305.61 758,-305.61"/>
<text text-anchor="start" x="766" y="-323.61" font-family="Helvetica,sans-Serif" font-size="10.00">ConfigParser::parseUpload</text>
<text text-anchor="middle" x="825" y="-312.61" font-family="Helvetica,sans-Serif" font-size="10.00">Bonus</text>
</a>
</g>
</g>
<!-- Node1&#45;&gt;Node16 -->
<g id="edge25" class="edge">
<title>Node1&#45;&gt;Node16</title>
<path fill="none" stroke="midnightblue" d="M1001.97,-217.73C981.94,-238.86 945.12,-274.55 907,-295.61 900.17,-299.38 892.7,-302.67 885.14,-305.5"/>
<polygon fill="midnightblue" stroke="midnightblue" points="1004.77,-219.86 1009.02,-210.16 999.65,-215.09 1004.77,-219.86"/>
</g>
<!-- Node2&#45;&gt;Node3 -->
<g id="edge2" class="edge">
<title>Node2&#45;&gt;Node3</title>
<path fill="none" stroke="midnightblue" d="M755.06,-285.71C738.27,-287.92 720.31,-290.29 703.51,-292.51"/>
<polygon fill="midnightblue" stroke="midnightblue" points="755.88,-289.13 765.34,-284.35 754.97,-282.19 755.88,-289.13"/>
</g>
<!-- Node4 -->
<g id="node4" class="node">
<title>Node4</title>
<g id="a_node4"><a xlink:href="classConfigParser.html#a787a614f759e68dcd7ae0595df9b73e1" target="_top" xlink:title=" ">
<polygon fill="white" stroke="black" points="393,-128.61 393,-158.61 524,-158.61 524,-128.61 393,-128.61"/>
<text text-anchor="start" x="401" y="-146.61" font-family="Helvetica,sans-Serif" font-size="10.00">ConfigParser::parseSingle</text>
<text text-anchor="middle" x="458.5" y="-135.61" font-family="Helvetica,sans-Serif" font-size="10.00">ServerBlock</text>
</a>
</g>
</g>
<!-- Node3&#45;&gt;Node4 -->
<g id="edge3" class="edge">
<title>Node3&#45;&gt;Node4</title>
<path fill="none" stroke="midnightblue" d="M598.55,-281C585.97,-272.77 571.89,-262.83 560,-252.61 524.87,-222.41 489.45,-180.79 471.52,-158.74"/>
<polygon fill="midnightblue" stroke="midnightblue" points="596.66,-283.95 606.97,-286.41 600.44,-278.06 596.66,-283.95"/>
</g>
<!-- Node5 -->
<g id="node5" class="node">
<title>Node5</title>
<g id="a_node5"><a xlink:href="classConfigParser.html#a49c9f8ad4f9ba802d27db330cf172e43" target="_top" xlink:title=" ">
<polygon fill="white" stroke="black" points="214,-128.61 214,-158.61 357,-158.61 357,-128.61 214,-128.61"/>
<text text-anchor="start" x="222" y="-146.61" font-family="Helvetica,sans-Serif" font-size="10.00">ConfigParser::parseAllServer</text>
<text text-anchor="middle" x="285.5" y="-135.61" font-family="Helvetica,sans-Serif" font-size="10.00">Blocks</text>
</a>
</g>
</g>
<!-- Node4&#45;&gt;Node5 -->
<g id="edge4" class="edge">
<title>Node4&#45;&gt;Node5</title>
<path fill="none" stroke="midnightblue" d="M382.65,-143.61C374.21,-143.61 365.63,-143.61 357.24,-143.61"/>
<polygon fill="midnightblue" stroke="midnightblue" points="382.85,-147.11 392.85,-143.61 382.85,-140.11 382.85,-147.11"/>
</g>
<!-- Node6 -->
<g id="node6" class="node">
<title>Node6</title>
<g id="a_node6"><a xlink:href="classConfigParser.html#a07493adaa4feb9beb085dcfe01af3e3c" target="_top" xlink:title="Parse the configuration file.">
<polygon fill="white" stroke="black" points="74,-134.11 74,-153.11 178,-153.11 178,-134.11 74,-134.11"/>
<text text-anchor="middle" x="126" y="-141.11" font-family="Helvetica,sans-Serif" font-size="10.00">ConfigParser::parse</text>
</a>
</g>
</g>
<!-- Node5&#45;&gt;Node6 -->
<g id="edge5" class="edge">
<title>Node5&#45;&gt;Node6</title>
<path fill="none" stroke="midnightblue" d="M203.49,-143.61C194.89,-143.61 186.32,-143.61 178.2,-143.61"/>
<polygon fill="midnightblue" stroke="midnightblue" points="203.58,-147.11 213.58,-143.61 203.58,-140.11 203.58,-147.11"/>
</g>
<!-- Node7 -->
<g id="node7" class="node">
<title>Node7</title>
<g id="a_node7"><a xlink:href="main_8cpp.html#a0ddf1224851353fc92bfbff6f499fa97" target="_top" xlink:title=" ">
<polygon fill="white" stroke="black" points="0,-134.11 0,-153.11 38,-153.11 38,-134.11 0,-134.11"/>
<text text-anchor="middle" x="19" y="-141.11" font-family="Helvetica,sans-Serif" font-size="10.00">main</text>
</a>
</g>
</g>
<!-- Node6&#45;&gt;Node7 -->
<g id="edge6" class="edge">
<title>Node6&#45;&gt;Node7</title>
<path fill="none" stroke="midnightblue" d="M63.64,-143.61C54.43,-143.61 45.6,-143.61 38.31,-143.61"/>
<polygon fill="midnightblue" stroke="midnightblue" points="63.73,-147.11 73.73,-143.61 63.73,-140.11 63.73,-147.11"/>
</g>
<!-- Node8&#45;&gt;Node4 -->
<g id="edge8" class="edge">
<title>Node8&#45;&gt;Node4</title>
<path fill="none" stroke="midnightblue" d="M583.34,-188.48C575.5,-186.33 567.5,-184 560,-181.61 538.68,-174.81 515.26,-166.03 496.4,-158.63"/>
<polygon fill="midnightblue" stroke="midnightblue" points="582.59,-191.9 593.15,-191.1 584.4,-185.14 582.59,-191.9"/>
</g>
<!-- Node9&#45;&gt;Node4 -->
<g id="edge10" class="edge">
<title>Node9&#45;&gt;Node4</title>
<path fill="none" stroke="midnightblue" d="M560.54,-154.71C548.5,-153.39 536.08,-152.02 524.25,-150.72"/>
<polygon fill="midnightblue" stroke="midnightblue" points="560.21,-158.19 570.53,-155.81 560.97,-151.23 560.21,-158.19"/>
</g>
<!-- Node10&#45;&gt;Node4 -->
<g id="edge12" class="edge">
<title>Node10&#45;&gt;Node4</title>
<path fill="none" stroke="midnightblue" d="M558.98,-132.69C547.38,-133.96 535.46,-135.27 524.09,-136.52"/>
<polygon fill="midnightblue" stroke="midnightblue" points="559.51,-136.15 569.06,-131.58 558.74,-129.19 559.51,-136.15"/>
</g>
<!-- Node11&#45;&gt;Node4 -->
<g id="edge14" class="edge">
<title>Node11&#45;&gt;Node4</title>
<path fill="none" stroke="midnightblue" d="M583.34,-98.75C575.5,-100.9 567.5,-103.22 560,-105.61 538.68,-112.42 515.26,-121.19 496.4,-128.59"/>
<polygon fill="midnightblue" stroke="midnightblue" points="584.4,-102.09 593.15,-96.12 582.59,-95.32 584.4,-102.09"/>
</g>
<!-- Node12&#45;&gt;Node3 -->
<g id="edge17" class="edge">
<title>Node12&#45;&gt;Node3</title>
<path fill="none" stroke="midnightblue" d="M768.01,-250.55C759.57,-252.69 751.01,-255.06 743,-257.61 717.24,-265.8 688.96,-277.36 667.73,-286.57"/>
<polygon fill="midnightblue" stroke="midnightblue" points="768.95,-253.92 777.83,-248.14 767.28,-247.12 768.95,-253.92"/>
</g>
<!-- Node12&#45;&gt;Node4 -->
<g id="edge18" class="edge">
<title>Node12&#45;&gt;Node4</title>
<path fill="none" stroke="midnightblue" d="M732.68,-244.64C680.54,-245.03 614.84,-240.23 560,-219.61 524.99,-206.45 491.91,-176.96 473.8,-158.83"/>
<polygon fill="midnightblue" stroke="midnightblue" points="732.97,-248.14 742.92,-244.5 732.87,-241.14 732.97,-248.14"/>
</g>
<!-- Node13&#45;&gt;Node3 -->
<g id="edge20" class="edge">
<title>Node13&#45;&gt;Node3</title>
<path fill="none" stroke="midnightblue" d="M768.01,-352.67C759.57,-350.53 751.01,-348.16 743,-345.61 717.24,-337.42 688.96,-325.86 667.73,-316.65"/>
<polygon fill="midnightblue" stroke="midnightblue" points="767.28,-356.1 777.83,-355.08 768.95,-349.3 767.28,-356.1"/>
</g>
<!-- Node14&#45;&gt;Node4 -->
<g id="edge22" class="edge">
<title>Node14&#45;&gt;Node4</title>
<path fill="none" stroke="midnightblue" d="M575.47,-61.26C570.14,-63.12 564.9,-65.23 560,-67.61 526.94,-83.66 493.99,-111.37 475.24,-128.53"/>
<polygon fill="midnightblue" stroke="midnightblue" points="576.67,-64.55 585.12,-58.16 574.53,-57.89 576.67,-64.55"/>
</g>
<!-- Node15&#45;&gt;Node4 -->
<g id="edge24" class="edge">
<title>Node15&#45;&gt;Node4</title>
<path fill="none" stroke="midnightblue" d="M735.57,-0.68C682.1,1.48 614.06,-2.83 560,-29.61 515.55,-51.63 482.19,-102.79 467.6,-128.42"/>
<polygon fill="midnightblue" stroke="midnightblue" points="735.56,-4.18 745.72,-1.17 735.9,2.81 735.56,-4.18"/>
</g>
<!-- Node16&#45;&gt;Node3 -->
<g id="edge26" class="edge">
<title>Node16&#45;&gt;Node3</title>
<path fill="none" stroke="midnightblue" d="M748,-312.99C733.4,-311.53 718.19,-310 703.82,-308.56"/>
<polygon fill="midnightblue" stroke="midnightblue" points="747.69,-316.48 757.99,-313.99 748.39,-309.51 747.69,-316.48"/>
</g>
</g>
</svg>
        <g id="navigator" transform="translate(0 0)" fill="#404254">
                <rect fill="#f2f5e9" fill-opacity="0.5" stroke="#606060" stroke-width=".5" x="0" y="0" width="60" height="60"/>
                <use id="zoomplus" xlink:href="#zoomPlus" x="17" y="9" onmousedown="handleZoom(evt,'in')"/>
                <use id="zoomminus" xlink:href="#zoomMin" x="42" y="9" onmousedown="handleZoom(evt,'out')"/>
                <use id="reset" xlink:href="#resetDef" x="30" y="36" onmousedown="handleReset()"/>
                <g id="arrowUp" xlink:href="#dirArrow" transform="translate(30 24)" onmousedown="handlePan(0,-1)">
                  <use xlink:href="#rim" fill="#404040">
                        <set attributeName="fill" to="#808080" begin="arrowUp.mouseover" end="arrowUp.mouseout"/>
                  </use>
                  <path fill="none" stroke="white" stroke-width="1.5" d="M0,-3.0v7 M-2.5,-0.5L0,-3.0L2.5,-0.5"/>
                </g>
                <g id="arrowRight" xlink:href="#dirArrow" transform="rotate(90) translate(36 -43)" onmousedown="handlePan(1,0)">
                  <use xlink:href="#rim" fill="#404040">
                        <set attributeName="fill" to="#808080" begin="arrowRight.mouseover" end="arrowRight.mouseout"/>
                  </use>
                  <path fill="none" stroke="white" stroke-width="1.5" d="M0,-3.0v7 M-2.5,-0.5L0,-3.0L2.5,-0.5"/>
                </g>
                <g id="arrowDown" xlink:href="#dirArrow" transform="rotate(180) translate(-30 -48)" onmousedown="handlePan(0,1)">
                  <use xlink:href="#rim" fill="#404040">
                        <set attributeName="fill" to="#808080" begin="arrowDown.mouseover" end="arrowDown.mouseout"/>
                  </use>
                  <path fill="none" stroke="white" stroke-width="1.5" d="M0,-3.0v7 M-2.5,-0.5L0,-3.0L2.5,-0.5"/>
                </g>
                <g id="arrowLeft" xlink:href="#dirArrow" transform="rotate(270) translate(-36 17)" onmousedown="handlePan(-1,0)">
                  <use xlink:href="#rim" fill="#404040">
                        <set attributeName="fill" to="#808080" begin="arrowLeft.mouseover" end="arrowLeft.mouseout"/>
                  </use>
                  <path fill="none" stroke="white" stroke-width="1.5" d="M0,-3.0v7 M-2.5,-0.5L0,-3.0L2.5,-0.5"/>
                </g>
        </g>
        <svg viewBox="0 0 15 15" width="100%" height="30px" preserveAspectRatio="xMaxYMin meet">
         <g id="arrow_out" transform="scale(0.3 0.3)">
          <a xlink:href="namespaceconfig_1_1utils_a4c504c996325f8d62e08d878b037e975_icgraph_org.svg" target="_base">
           <rect id="button" ry="5" rx="5" y="6" x="6" height="38" width="38"
                fill="#f2f5e9" fill-opacity="0.5" stroke="#606060" stroke-width="1.0"/>
           <path id="arrow"
             d="M 11.500037,31.436501 C 11.940474,20.09759 22.043105,11.32322 32.158766,21.979434 L 37.068811,17.246167 C 37.068811,17.246167 37.088388,32 37.088388,32 L 22.160133,31.978069 C 22.160133,31.978069 26.997745,27.140456 26.997745,27.140456 C 18.528582,18.264221 13.291696,25.230495 11.500037,31.436501 z"
             style="fill:#404040;"/>
          </a>
         </g>
        </svg>
</svg>
