<?xml version="1.0" encoding="UTF-8" standalone="no"?>
<!DOCTYPE svg PUBLIC "-//W3C//DTD SVG 1.1//EN"
 "http://www.w3.org/Graphics/SVG/1.1/DTD/svg11.dtd">
<!-- Generated by graphviz version 2.43.0 (0)
 -->
<!-- Title: src/client/RequestProcessor.cpp Pages: 1 -->
<svg width="918pt" height="252pt"
 viewBox="0.00 0.00 918.42 252.00" xmlns="http://www.w3.org/2000/svg" xmlns:xlink="http://www.w3.org/1999/xlink">
<g id="graph0" class="graph" transform="scale(1 1) rotate(0) translate(4 248)">
<title>src/client/RequestProcessor.cpp</title>
<polygon fill="white" stroke="transparent" points="-4,4 -4,-248 914.42,-248 914.42,4 -4,4"/>
<!-- Node1 -->
<g id="node1" class="node">
<title>Node1</title>
<g id="a_node1"><a xlink:title=" ">
<polygon fill="#bfbfbf" stroke="black" points="324.5,-224.5 324.5,-243.5 482.5,-243.5 482.5,-224.5 324.5,-224.5"/>
<text text-anchor="middle" x="403.5" y="-231.5" font-family="Helvetica,sans-Serif" font-size="10.00">src/client/RequestProcessor.cpp</text>
</a>
</g>
</g>
<!-- Node2 -->
<g id="node2" class="node">
<title>Node2</title>
<g id="a_node2"><a xlink:href="RequestProcessor_8hpp.html" target="_top" xlink:title=" ">
<polygon fill="white" stroke="black" points="623.5,-168.5 623.5,-187.5 739.5,-187.5 739.5,-168.5 623.5,-168.5"/>
<text text-anchor="middle" x="681.5" y="-175.5" font-family="Helvetica,sans-Serif" font-size="10.00">RequestProcessor.hpp</text>
</a>
</g>
</g>
<!-- Node1&#45;&gt;Node2 -->
<g id="edge1" class="edge">
<title>Node1&#45;&gt;Node2</title>
<path fill="none" stroke="midnightblue" d="M447.55,-224.44C496.35,-214.96 575.06,-199.67 627.53,-189.48"/>
<polygon fill="midnightblue" stroke="midnightblue" points="628.51,-192.86 637.66,-187.52 627.17,-185.99 628.51,-192.86"/>
</g>
<!-- Node12 -->
<g id="node12" class="node">
<title>Node12</title>
<g id="a_node12"><a xlink:title=" ">
<polygon fill="white" stroke="#bfbfbf" points="185.5,-168.5 185.5,-187.5 245.5,-187.5 245.5,-168.5 185.5,-168.5"/>
<text text-anchor="middle" x="215.5" y="-175.5" font-family="Helvetica,sans-Serif" font-size="10.00">sys/stat.h</text>
</a>
</g>
</g>
<!-- Node1&#45;&gt;Node12 -->
<g id="edge26" class="edge">
<title>Node1&#45;&gt;Node12</title>
<path fill="none" stroke="midnightblue" d="M373.71,-224.44C341.67,-215.24 290.57,-200.56 255.15,-190.39"/>
<polygon fill="midnightblue" stroke="midnightblue" points="255.73,-186.91 245.15,-187.52 253.79,-193.64 255.73,-186.91"/>
</g>
<!-- Node13 -->
<g id="node13" class="node">
<title>Node13</title>
<g id="a_node13"><a xlink:title=" ">
<polygon fill="white" stroke="#bfbfbf" points="264,-168.5 264,-187.5 315,-187.5 315,-168.5 264,-168.5"/>
<text text-anchor="middle" x="289.5" y="-175.5" font-family="Helvetica,sans-Serif" font-size="10.00">unistd.h</text>
</a>
</g>
</g>
<!-- Node1&#45;&gt;Node13 -->
<g id="edge27" class="edge">
<title>Node1&#45;&gt;Node13</title>
<path fill="none" stroke="midnightblue" d="M385.44,-224.44C366.92,-215.68 337.92,-201.94 316.64,-191.86"/>
<polygon fill="midnightblue" stroke="midnightblue" points="318.01,-188.63 307.48,-187.52 315.02,-194.96 318.01,-188.63"/>
</g>
<!-- Node14 -->
<g id="node14" class="node">
<title>Node14</title>
<g id="a_node14"><a xlink:title=" ">
<polygon fill="white" stroke="#bfbfbf" points="333.5,-168.5 333.5,-187.5 377.5,-187.5 377.5,-168.5 333.5,-168.5"/>
<text text-anchor="middle" x="355.5" y="-175.5" font-family="Helvetica,sans-Serif" font-size="10.00">cerrno</text>
</a>
</g>
</g>
<!-- Node1&#45;&gt;Node14 -->
<g id="edge28" class="edge">
<title>Node1&#45;&gt;Node14</title>
<path fill="none" stroke="midnightblue" d="M395.57,-224.08C388.65,-216.3 378.43,-204.8 370.05,-195.37"/>
<polygon fill="midnightblue" stroke="midnightblue" points="372.54,-192.9 363.28,-187.75 367.31,-197.55 372.54,-192.9"/>
</g>
<!-- Node15 -->
<g id="node15" class="node">
<title>Node15</title>
<g id="a_node15"><a xlink:href="ErrorUtils_8hpp.html" target="_top" xlink:title=" ">
<polygon fill="white" stroke="black" points="528,-168.5 528,-187.5 605,-187.5 605,-168.5 528,-168.5"/>
<text text-anchor="middle" x="566.5" y="-175.5" font-family="Helvetica,sans-Serif" font-size="10.00">ErrorUtils.hpp</text>
</a>
</g>
</g>
<!-- Node1&#45;&gt;Node15 -->
<g id="edge29" class="edge">
<title>Node1&#45;&gt;Node15</title>
<path fill="none" stroke="midnightblue" d="M429.33,-224.44C456.75,-215.36 500.28,-200.94 530.93,-190.78"/>
<polygon fill="midnightblue" stroke="midnightblue" points="532.4,-193.98 540.79,-187.52 530.2,-187.34 532.4,-193.98"/>
</g>
<!-- Node16 -->
<g id="node16" class="node">
<title>Node16</title>
<g id="a_node16"><a xlink:href="RequestProcessorUtils_8hpp.html" target="_top" xlink:title=" ">
<polygon fill="white" stroke="black" points="30,-168.5 30,-187.5 167,-187.5 167,-168.5 30,-168.5"/>
<text text-anchor="middle" x="98.5" y="-175.5" font-family="Helvetica,sans-Serif" font-size="10.00">RequestProcessorUtils.hpp</text>
</a>
</g>
</g>
<!-- Node1&#45;&gt;Node16 -->
<g id="edge33" class="edge">
<title>Node1&#45;&gt;Node16</title>
<path fill="none" stroke="midnightblue" d="M355.17,-224.44C301.29,-214.9 214.19,-199.48 156.64,-189.29"/>
<polygon fill="midnightblue" stroke="midnightblue" points="157.06,-185.81 146.6,-187.52 155.84,-192.71 157.06,-185.81"/>
</g>
<!-- Node17 -->
<g id="node17" class="node">
<title>Node17</title>
<g id="a_node17"><a xlink:href="ResponseUtils_8hpp.html" target="_top" xlink:title=" ">
<polygon fill="white" stroke="black" points="794.5,-168.5 794.5,-187.5 894.5,-187.5 894.5,-168.5 794.5,-168.5"/>
<text text-anchor="middle" x="844.5" y="-175.5" font-family="Helvetica,sans-Serif" font-size="10.00">ResponseUtils.hpp</text>
</a>
</g>
</g>
<!-- Node1&#45;&gt;Node17 -->
<g id="edge39" class="edge">
<title>Node1&#45;&gt;Node17</title>
<path fill="none" stroke="midnightblue" d="M473.38,-224.44C559.2,-213.93 703.35,-196.28 784.43,-186.36"/>
<polygon fill="midnightblue" stroke="midnightblue" points="784.97,-189.82 794.47,-185.13 784.12,-182.87 784.97,-189.82"/>
</g>
<!-- Node18 -->
<g id="node18" class="node">
<title>Node18</title>
<g id="a_node18"><a xlink:href="StaticPathHandler_8hpp.html" target="_top" xlink:title=" ">
<polygon fill="white" stroke="black" points="395.5,-168.5 395.5,-187.5 509.5,-187.5 509.5,-168.5 395.5,-168.5"/>
<text text-anchor="middle" x="452.5" y="-175.5" font-family="Helvetica,sans-Serif" font-size="10.00">StaticPathHandler.hpp</text>
</a>
</g>
</g>
<!-- Node1&#45;&gt;Node18 -->
<g id="edge44" class="edge">
<title>Node1&#45;&gt;Node18</title>
<path fill="none" stroke="midnightblue" d="M411.59,-224.08C418.65,-216.3 429.09,-204.8 437.65,-195.37"/>
<polygon fill="midnightblue" stroke="midnightblue" points="440.43,-197.51 444.56,-187.75 435.25,-192.8 440.43,-197.51"/>
</g>
<!-- Node3 -->
<g id="node3" class="node">
<title>Node3</title>
<g id="a_node3"><a xlink:title=" ">
<polygon fill="white" stroke="#bfbfbf" points="392,-0.5 392,-19.5 433,-19.5 433,-0.5 392,-0.5"/>
<text text-anchor="middle" x="412.5" y="-7.5" font-family="Helvetica,sans-Serif" font-size="10.00">string</text>
</a>
</g>
</g>
<!-- Node2&#45;&gt;Node3 -->
<g id="edge2" class="edge">
<title>Node2&#45;&gt;Node3</title>
<path fill="none" stroke="midnightblue" d="M690.66,-168.21C702.47,-155.74 720.48,-132.22 711.5,-112 696.42,-78.07 682.75,-72.52 649.5,-56 581.12,-22.03 489.95,-13.62 443.12,-11.59"/>
<polygon fill="midnightblue" stroke="midnightblue" points="443.13,-8.09 433.01,-11.23 442.88,-15.09 443.13,-8.09"/>
</g>
<!-- Node4 -->
<g id="node4" class="node">
<title>Node4</title>
<g id="a_node4"><a xlink:title=" ">
<polygon fill="white" stroke="#bfbfbf" points="609.5,-0.5 609.5,-19.5 653.5,-19.5 653.5,-0.5 609.5,-0.5"/>
<text text-anchor="middle" x="631.5" y="-7.5" font-family="Helvetica,sans-Serif" font-size="10.00">vector</text>
</a>
</g>
</g>
<!-- Node2&#45;&gt;Node4 -->
<g id="edge3" class="edge">
<title>Node2&#45;&gt;Node4</title>
<path fill="none" stroke="midnightblue" d="M727.15,-168.43C747.74,-162.04 770.16,-151 782.5,-132 800.89,-103.67 802.69,-83.08 782.5,-56 755.31,-19.53 699.73,-11.45 664.11,-10.27"/>
<polygon fill="midnightblue" stroke="midnightblue" points="663.81,-6.76 653.75,-10.1 663.69,-13.76 663.81,-6.76"/>
</g>
<!-- Node5 -->
<g id="node5" class="node">
<title>Node5</title>
<g id="a_node5"><a xlink:href="ServerConfig_8hpp.html" target="_top" xlink:title=" ">
<polygon fill="white" stroke="black" points="254.5,-112.5 254.5,-131.5 376.5,-131.5 376.5,-112.5 254.5,-112.5"/>
<text text-anchor="middle" x="315.5" y="-119.5" font-family="Helvetica,sans-Serif" font-size="10.00">config/ServerConfig.hpp</text>
</a>
</g>
</g>
<!-- Node2&#45;&gt;Node5 -->
<g id="edge4" class="edge">
<title>Node2&#45;&gt;Node5</title>
<path fill="none" stroke="midnightblue" d="M623.51,-168.44C558.18,-158.81 452.16,-143.16 383.13,-132.98"/>
<polygon fill="midnightblue" stroke="midnightblue" points="383.63,-129.51 373.22,-131.52 382.6,-136.44 383.63,-129.51"/>
</g>
<!-- Node10 -->
<g id="node10" class="node">
<title>Node10</title>
<g id="a_node10"><a xlink:href="HttpRequest_8hpp.html" target="_top" xlink:title=" ">
<polygon fill="white" stroke="black" points="478.5,-56.5 478.5,-75.5 588.5,-75.5 588.5,-56.5 478.5,-56.5"/>
<text text-anchor="middle" x="533.5" y="-63.5" font-family="Helvetica,sans-Serif" font-size="10.00">http/HttpRequest.hpp</text>
</a>
</g>
</g>
<!-- Node2&#45;&gt;Node10 -->
<g id="edge16" class="edge">
<title>Node2&#45;&gt;Node10</title>
<path fill="none" stroke="midnightblue" d="M648.16,-168.45C625.77,-161.45 596.61,-149.76 575.5,-132 560.27,-119.2 548.61,-99.46 541.48,-85.09"/>
<polygon fill="midnightblue" stroke="midnightblue" points="544.52,-83.33 537.11,-75.76 538.18,-86.3 544.52,-83.33"/>
</g>
<!-- Node11 -->
<g id="node11" class="node">
<title>Node11</title>
<g id="a_node11"><a xlink:href="HttpResponse_8hpp.html" target="_top" xlink:title=" ">
<polygon fill="white" stroke="black" points="584.5,-112.5 584.5,-131.5 702.5,-131.5 702.5,-112.5 584.5,-112.5"/>
<text text-anchor="middle" x="643.5" y="-119.5" font-family="Helvetica,sans-Serif" font-size="10.00">http/HttpResponse.hpp</text>
</a>
</g>
</g>
<!-- Node2&#45;&gt;Node11 -->
<g id="edge21" class="edge">
<title>Node2&#45;&gt;Node11</title>
<path fill="none" stroke="midnightblue" d="M675.22,-168.08C669.86,-160.46 661.98,-149.26 655.42,-139.94"/>
<polygon fill="midnightblue" stroke="midnightblue" points="658.27,-137.91 649.66,-131.75 652.55,-141.94 658.27,-137.91"/>
</g>
<!-- Node5&#45;&gt;Node3 -->
<g id="edge7" class="edge">
<title>Node5&#45;&gt;Node3</title>
<path fill="none" stroke="midnightblue" d="M273.51,-112.48C234.02,-102.56 184.05,-83.89 206.5,-56 228.15,-29.11 329.69,-17.42 381.67,-13.12"/>
<polygon fill="midnightblue" stroke="midnightblue" points="382.27,-16.59 391.96,-12.32 381.72,-9.61 382.27,-16.59"/>
</g>
<!-- Node5&#45;&gt;Node4 -->
<g id="edge8" class="edge">
<title>Node5&#45;&gt;Node4</title>
<path fill="none" stroke="midnightblue" d="M333.69,-112.42C362.2,-99.18 419.35,-73.47 469.5,-56 513.9,-40.54 566.56,-26.72 599.51,-18.59"/>
<polygon fill="midnightblue" stroke="midnightblue" points="600.59,-21.93 609.48,-16.16 598.93,-15.13 600.59,-21.93"/>
</g>
<!-- Node6 -->
<g id="node6" class="node">
<title>Node6</title>
<g id="a_node6"><a xlink:title=" ">
<polygon fill="white" stroke="#bfbfbf" points="42.5,-0.5 42.5,-19.5 96.5,-19.5 96.5,-0.5 42.5,-0.5"/>
<text text-anchor="middle" x="69.5" y="-7.5" font-family="Helvetica,sans-Serif" font-size="10.00">iostream</text>
</a>
</g>
</g>
<!-- Node5&#45;&gt;Node6 -->
<g id="edge5" class="edge">
<title>Node5&#45;&gt;Node6</title>
<path fill="none" stroke="midnightblue" d="M254.26,-121.05C174.19,-119.66 40.47,-111.86 9.5,-76 -6.21,-57.82 19.69,-37.58 42.21,-24.6"/>
<polygon fill="midnightblue" stroke="midnightblue" points="44.12,-27.54 51.21,-19.66 40.76,-21.4 44.12,-27.54"/>
</g>
<!-- Node7 -->
<g id="node7" class="node">
<title>Node7</title>
<g id="a_node7"><a xlink:title=" ">
<polygon fill="white" stroke="#bfbfbf" points="235,-0.5 235,-19.5 270,-19.5 270,-0.5 235,-0.5"/>
<text text-anchor="middle" x="252.5" y="-7.5" font-family="Helvetica,sans-Serif" font-size="10.00">map</text>
</a>
</g>
</g>
<!-- Node5&#45;&gt;Node7 -->
<g id="edge6" class="edge">
<title>Node5&#45;&gt;Node7</title>
<path fill="none" stroke="midnightblue" d="M268.93,-112.5C231.79,-104.65 184.12,-91.84 172.5,-76 154.52,-51.5 195.59,-30.9 225.28,-19.81"/>
<polygon fill="midnightblue" stroke="midnightblue" points="226.57,-23.07 234.82,-16.42 224.22,-16.47 226.57,-23.07"/>
</g>
<!-- Node8 -->
<g id="node8" class="node">
<title>Node8</title>
<g id="a_node8"><a xlink:href="LocationConfig_8hpp.html" target="_top" xlink:title=" ">
<polygon fill="white" stroke="black" points="19,-56.5 19,-75.5 120,-75.5 120,-56.5 19,-56.5"/>
<text text-anchor="middle" x="69.5" y="-63.5" font-family="Helvetica,sans-Serif" font-size="10.00">LocationConfig.hpp</text>
</a>
</g>
</g>
<!-- Node5&#45;&gt;Node8 -->
<g id="edge9" class="edge">
<title>Node5&#45;&gt;Node8</title>
<path fill="none" stroke="midnightblue" d="M276.52,-112.44C233.61,-103.02 164.55,-87.87 118.13,-77.68"/>
<polygon fill="midnightblue" stroke="midnightblue" points="118.81,-74.24 108.3,-75.52 117.31,-81.08 118.81,-74.24"/>
</g>
<!-- Node9 -->
<g id="node9" class="node">
<title>Node9</title>
<g id="a_node9"><a xlink:href="namespaces_8hpp.html" target="_top" xlink:title=" ">
<polygon fill="white" stroke="black" points="215,-56.5 215,-75.5 346,-75.5 346,-56.5 215,-56.5"/>
<text text-anchor="middle" x="280.5" y="-63.5" font-family="Helvetica,sans-Serif" font-size="10.00">common/namespaces.hpp</text>
</a>
</g>
</g>
<!-- Node5&#45;&gt;Node9 -->
<g id="edge14" class="edge">
<title>Node5&#45;&gt;Node9</title>
<path fill="none" stroke="midnightblue" d="M309.72,-112.08C304.83,-104.53 297.67,-93.49 291.67,-84.23"/>
<polygon fill="midnightblue" stroke="midnightblue" points="294.55,-82.24 286.17,-75.75 288.67,-86.05 294.55,-82.24"/>
</g>
<!-- Node8&#45;&gt;Node3 -->
<g id="edge12" class="edge">
<title>Node8&#45;&gt;Node3</title>
<path fill="none" stroke="midnightblue" d="M120.11,-57.03C192.21,-45.68 322.32,-25.2 381.58,-15.87"/>
<polygon fill="midnightblue" stroke="midnightblue" points="382.46,-19.27 391.8,-14.26 381.37,-12.36 382.46,-19.27"/>
</g>
<!-- Node8&#45;&gt;Node4 -->
<g id="edge13" class="edge">
<title>Node8&#45;&gt;Node4</title>
<path fill="none" stroke="midnightblue" d="M120.36,-60.11C234.06,-49.19 506.11,-23.05 599.44,-14.08"/>
<polygon fill="midnightblue" stroke="midnightblue" points="599.79,-17.56 609.41,-13.12 599.12,-10.6 599.79,-17.56"/>
</g>
<!-- Node8&#45;&gt;Node6 -->
<g id="edge10" class="edge">
<title>Node8&#45;&gt;Node6</title>
<path fill="none" stroke="midnightblue" d="M69.5,-56.08C69.5,-49.01 69.5,-38.86 69.5,-29.99"/>
<polygon fill="midnightblue" stroke="midnightblue" points="73,-29.75 69.5,-19.75 66,-29.75 73,-29.75"/>
</g>
<!-- Node8&#45;&gt;Node7 -->
<g id="edge11" class="edge">
<title>Node8&#45;&gt;Node7</title>
<path fill="none" stroke="midnightblue" d="M98.5,-56.44C133.2,-46.2 190.89,-29.18 224.95,-19.13"/>
<polygon fill="midnightblue" stroke="midnightblue" points="226.1,-22.44 234.71,-16.25 224.12,-15.72 226.1,-22.44"/>
</g>
<!-- Node9&#45;&gt;Node3 -->
<g id="edge15" class="edge">
<title>Node9&#45;&gt;Node3</title>
<path fill="none" stroke="midnightblue" d="M301.41,-56.44C323.23,-47.52 357.65,-33.44 382.39,-23.32"/>
<polygon fill="midnightblue" stroke="midnightblue" points="383.75,-26.54 391.68,-19.52 381.1,-20.06 383.75,-26.54"/>
</g>
<!-- Node10&#45;&gt;Node3 -->
<g id="edge19" class="edge">
<title>Node10&#45;&gt;Node3</title>
<path fill="none" stroke="midnightblue" d="M514.33,-56.44C494.59,-47.64 463.61,-33.81 441.01,-23.72"/>
<polygon fill="midnightblue" stroke="midnightblue" points="442.14,-20.4 431.58,-19.52 439.29,-26.79 442.14,-20.4"/>
</g>
<!-- Node10&#45;&gt;Node4 -->
<g id="edge20" class="edge">
<title>Node10&#45;&gt;Node4</title>
<path fill="none" stroke="midnightblue" d="M549.24,-56.32C564.82,-47.74 588.88,-34.49 606.96,-24.52"/>
<polygon fill="midnightblue" stroke="midnightblue" points="608.72,-27.55 615.79,-19.65 605.35,-21.42 608.72,-27.55"/>
</g>
<!-- Node10&#45;&gt;Node6 -->
<g id="edge17" class="edge">
<title>Node10&#45;&gt;Node6</title>
<path fill="none" stroke="midnightblue" d="M478.45,-58.59C382.88,-47.47 188.67,-24.87 107.01,-15.37"/>
<polygon fill="midnightblue" stroke="midnightblue" points="107.04,-11.85 96.71,-14.17 106.23,-18.8 107.04,-11.85"/>
</g>
<!-- Node10&#45;&gt;Node7 -->
<g id="edge18" class="edge">
<title>Node10&#45;&gt;Node7</title>
<path fill="none" stroke="midnightblue" d="M488.97,-56.44C430.29,-45.17 328.83,-25.67 280.14,-16.31"/>
<polygon fill="midnightblue" stroke="midnightblue" points="280.79,-12.87 270.31,-14.42 279.47,-19.75 280.79,-12.87"/>
</g>
<!-- Node11&#45;&gt;Node3 -->
<g id="edge23" class="edge">
<title>Node11&#45;&gt;Node3</title>
<path fill="none" stroke="midnightblue" d="M644.5,-112.48C645.61,-98.62 645.59,-71.18 630.5,-56 604.63,-29.97 497.17,-17.8 443.41,-13.24"/>
<polygon fill="midnightblue" stroke="midnightblue" points="443.36,-9.73 433.11,-12.41 442.79,-16.71 443.36,-9.73"/>
</g>
<!-- Node11&#45;&gt;Node4 -->
<g id="edge24" class="edge">
<title>Node11&#45;&gt;Node4</title>
<path fill="none" stroke="midnightblue" d="M651.07,-112.22C660.84,-99.77 675.76,-76.26 668.5,-56 664.56,-45 656.64,-34.77 649.14,-26.85"/>
<polygon fill="midnightblue" stroke="midnightblue" points="651.52,-24.28 641.94,-19.76 646.61,-29.27 651.52,-24.28"/>
</g>
<!-- Node11&#45;&gt;Node7 -->
<g id="edge22" class="edge">
<title>Node11&#45;&gt;Node7</title>
<path fill="none" stroke="midnightblue" d="M640,-112.05C633.83,-97.57 619.52,-69.27 597.5,-56 570.5,-39.73 358.16,-20.08 280.68,-13.37"/>
<polygon fill="midnightblue" stroke="midnightblue" points="280.52,-9.85 270.26,-12.48 279.93,-16.82 280.52,-9.85"/>
</g>
<!-- Node11&#45;&gt;Node10 -->
<g id="edge25" class="edge">
<title>Node11&#45;&gt;Node10</title>
<path fill="none" stroke="midnightblue" d="M625.83,-112.32C608.1,-103.62 580.6,-90.12 560.21,-80.11"/>
<polygon fill="midnightblue" stroke="midnightblue" points="561.65,-76.92 551.13,-75.65 558.56,-83.2 561.65,-76.92"/>
</g>
<!-- Node15&#45;&gt;Node5 -->
<g id="edge30" class="edge">
<title>Node15&#45;&gt;Node5</title>
<path fill="none" stroke="midnightblue" d="M527.83,-168.68C484.05,-159.26 412.62,-143.9 364.86,-133.62"/>
<polygon fill="midnightblue" stroke="midnightblue" points="365.55,-130.19 355.04,-131.51 364.08,-137.03 365.55,-130.19"/>
</g>
<!-- Node15&#45;&gt;Node10 -->
<g id="edge31" class="edge">
<title>Node15&#45;&gt;Node10</title>
<path fill="none" stroke="midnightblue" d="M560.75,-168.45C555.15,-159.68 546.87,-145.47 542.5,-132 537.6,-116.91 535.37,-99.01 534.35,-85.82"/>
<polygon fill="midnightblue" stroke="midnightblue" points="537.83,-85.4 533.73,-75.63 530.85,-85.82 537.83,-85.4"/>
</g>
<!-- Node15&#45;&gt;Node11 -->
<g id="edge32" class="edge">
<title>Node15&#45;&gt;Node11</title>
<path fill="none" stroke="midnightblue" d="M578.87,-168.32C590.66,-160.06 608.63,-147.45 622.63,-137.63"/>
<polygon fill="midnightblue" stroke="midnightblue" points="624.98,-140.26 631.16,-131.65 620.96,-134.53 624.98,-140.26"/>
</g>
<!-- Node16&#45;&gt;Node3 -->
<g id="edge34" class="edge">
<title>Node16&#45;&gt;Node3</title>
<path fill="none" stroke="midnightblue" d="M83.6,-168.36C50.1,-147.9 -25.62,-95.26 9.5,-56 21.93,-42.1 289.8,-20.39 381.8,-13.31"/>
<polygon fill="midnightblue" stroke="midnightblue" points="382.17,-16.79 391.87,-12.54 381.63,-9.82 382.17,-16.79"/>
</g>
<!-- Node16&#45;&gt;Node4 -->
<g id="edge35" class="edge">
<title>Node16&#45;&gt;Node4</title>
<path fill="none" stroke="midnightblue" d="M116.36,-168.41C143.79,-155.37 198.08,-130.19 245.5,-112 293.53,-93.58 306.74,-92.39 355.5,-76 381.35,-67.31 387.2,-63.22 413.5,-56 478.6,-38.14 556.37,-23.7 599.2,-16.33"/>
<polygon fill="midnightblue" stroke="midnightblue" points="600.04,-19.74 609.31,-14.61 598.86,-12.84 600.04,-19.74"/>
</g>
<!-- Node16&#45;&gt;Node5 -->
<g id="edge37" class="edge">
<title>Node16&#45;&gt;Node5</title>
<path fill="none" stroke="midnightblue" d="M132.88,-168.44C170.42,-159.1 230.63,-144.12 271.57,-133.93"/>
<polygon fill="midnightblue" stroke="midnightblue" points="272.42,-137.33 281.28,-131.52 270.73,-130.53 272.42,-137.33"/>
</g>
<!-- Node16&#45;&gt;Node8 -->
<g id="edge36" class="edge">
<title>Node16&#45;&gt;Node8</title>
<path fill="none" stroke="midnightblue" d="M96.22,-168.37C91.52,-150.54 80.65,-109.3 74.32,-85.27"/>
<polygon fill="midnightblue" stroke="midnightblue" points="77.7,-84.37 71.76,-75.59 70.93,-86.15 77.7,-84.37"/>
</g>
<!-- Node16&#45;&gt;Node10 -->
<g id="edge38" class="edge">
<title>Node16&#45;&gt;Node10</title>
<path fill="none" stroke="midnightblue" d="M165.72,-168.5C237.23,-159.09 345.44,-143.72 385.5,-132 430.51,-118.83 479.82,-95.16 508.64,-80.3"/>
<polygon fill="midnightblue" stroke="midnightblue" points="510.34,-83.36 517.59,-75.63 507.11,-77.16 510.34,-83.36"/>
</g>
<!-- Node17&#45;&gt;Node3 -->
<g id="edge40" class="edge">
<title>Node17&#45;&gt;Node3</title>
<path fill="none" stroke="midnightblue" d="M835.85,-168.21C812.91,-145.46 747.61,-84.45 680.5,-56 599.6,-21.7 494.56,-13.49 443.32,-11.56"/>
<polygon fill="midnightblue" stroke="midnightblue" points="443.34,-8.06 433.24,-11.24 443.12,-15.06 443.34,-8.06"/>
</g>
<!-- Node17&#45;&gt;Node4 -->
<g id="edge41" class="edge">
<title>Node17&#45;&gt;Node4</title>
<path fill="none" stroke="midnightblue" d="M860.28,-168.47C872.7,-160.77 889.1,-148.18 896.5,-132 910.54,-101.28 918.29,-81.81 896.5,-56 867.11,-21.2 728.46,-13.31 664.26,-11.52"/>
<polygon fill="midnightblue" stroke="midnightblue" points="663.99,-8.01 653.9,-11.27 663.82,-15.01 663.99,-8.01"/>
</g>
<!-- Node17&#45;&gt;Node10 -->
<g id="edge42" class="edge">
<title>Node17&#45;&gt;Node10</title>
<path fill="none" stroke="midnightblue" d="M829.39,-168.33C805.18,-154.73 755.9,-128.26 711.5,-112 671.05,-97.18 623.69,-85.47 588,-77.71"/>
<polygon fill="midnightblue" stroke="midnightblue" points="588.3,-74.19 577.79,-75.53 586.84,-81.04 588.3,-74.19"/>
</g>
<!-- Node17&#45;&gt;Node11 -->
<g id="edge43" class="edge">
<title>Node17&#45;&gt;Node11</title>
<path fill="none" stroke="midnightblue" d="M812.65,-168.44C778.1,-159.16 722.82,-144.31 684.92,-134.13"/>
<polygon fill="midnightblue" stroke="midnightblue" points="685.76,-130.73 675.2,-131.52 683.95,-137.49 685.76,-130.73"/>
</g>
<!-- Node18&#45;&gt;Node3 -->
<g id="edge45" class="edge">
<title>Node18&#45;&gt;Node3</title>
<path fill="none" stroke="midnightblue" d="M450.35,-168.08C444.05,-141.95 425.56,-65.21 416.98,-29.58"/>
<polygon fill="midnightblue" stroke="midnightblue" points="420.31,-28.47 414.56,-19.57 413.5,-30.11 420.31,-28.47"/>
</g>
<!-- Node18&#45;&gt;Node4 -->
<g id="edge46" class="edge">
<title>Node18&#45;&gt;Node4</title>
<path fill="none" stroke="midnightblue" d="M509.73,-168.95C584.02,-158.23 705.01,-139.72 711.5,-132 741.43,-96.42 686.57,-49.22 653.66,-25.67"/>
<polygon fill="midnightblue" stroke="midnightblue" points="655.26,-22.52 645.05,-19.68 651.26,-28.27 655.26,-22.52"/>
</g>
<!-- Node18&#45;&gt;Node5 -->
<g id="edge48" class="edge">
<title>Node18&#45;&gt;Node5</title>
<path fill="none" stroke="midnightblue" d="M430.79,-168.44C408.14,-159.52 372.43,-145.44 346.75,-135.32"/>
<polygon fill="midnightblue" stroke="midnightblue" points="347.69,-131.93 337.11,-131.52 345.13,-138.44 347.69,-131.93"/>
</g>
<!-- Node18&#45;&gt;Node8 -->
<g id="edge47" class="edge">
<title>Node18&#45;&gt;Node8</title>
<path fill="none" stroke="midnightblue" d="M403.92,-168.43C361.66,-160.5 298.99,-147.61 245.5,-132 193.13,-116.72 133.96,-93.61 99.3,-79.46"/>
<polygon fill="midnightblue" stroke="midnightblue" points="100.36,-76.11 89.78,-75.55 97.7,-82.59 100.36,-76.11"/>
</g>
<!-- Node18&#45;&gt;Node10 -->
<g id="edge49" class="edge">
<title>Node18&#45;&gt;Node10</title>
<path fill="none" stroke="midnightblue" d="M458.85,-168.37C472.28,-150.14 503.73,-107.43 521.22,-83.68"/>
<polygon fill="midnightblue" stroke="midnightblue" points="524.06,-85.72 527.17,-75.59 518.42,-81.57 524.06,-85.72"/>
</g>
<!-- Node18&#45;&gt;Node11 -->
<g id="edge50" class="edge">
<title>Node18&#45;&gt;Node11</title>
<path fill="none" stroke="midnightblue" d="M482.76,-168.44C515.45,-159.2 567.68,-144.44 603.68,-134.26"/>
<polygon fill="midnightblue" stroke="midnightblue" points="604.71,-137.61 613.38,-131.52 602.8,-130.87 604.71,-137.61"/>
</g>
</g>
</svg>
