<?xml version="1.0" encoding="UTF-8" standalone="no"?>
<!DOCTYPE svg PUBLIC "-//W3C//DTD SVG 1.1//EN"
 "http://www.w3.org/Graphics/SVG/1.1/DTD/svg11.dtd">
<!-- Generated by graphviz version 2.43.0 (0)
 -->
<!-- Title: src/client/RequestProcessorUtils.hpp Pages: 1 -->
<svg width="899pt" height="106pt"
 viewBox="0.00 0.00 899.00 106.00" xmlns="http://www.w3.org/2000/svg" xmlns:xlink="http://www.w3.org/1999/xlink">
<g id="graph0" class="graph" transform="scale(1 1) rotate(0) translate(4 102)">
<title>src/client/RequestProcessorUtils.hpp</title>
<polygon fill="white" stroke="transparent" points="-4,4 -4,-102 895,-102 895,4 -4,4"/>
<!-- Node1 -->
<g id="node1" class="node">
<title>Node1</title>
<g id="a_node1"><a xlink:title=" ">
<polygon fill="#bfbfbf" stroke="black" points="329.5,-67.5 329.5,-97.5 469.5,-97.5 469.5,-67.5 329.5,-67.5"/>
<text text-anchor="start" x="337.5" y="-85.5" font-family="Helvetica,sans-Serif" font-size="10.00">src/client/RequestProcessor</text>
<text text-anchor="middle" x="399.5" y="-74.5" font-family="Helvetica,sans-Serif" font-size="10.00">Utils.hpp</text>
</a>
</g>
</g>
<!-- Node2 -->
<g id="node2" class="node">
<title>Node2</title>
<g id="a_node2"><a xlink:href="CgiExecutor_8cpp.html" target="_top" xlink:title=" ">
<polygon fill="white" stroke="black" points="0,-6 0,-25 121,-25 121,-6 0,-6"/>
<text text-anchor="middle" x="60.5" y="-13" font-family="Helvetica,sans-Serif" font-size="10.00">src/cgi/CgiExecutor.cpp</text>
</a>
</g>
</g>
<!-- Node1&#45;&gt;Node2 -->
<g id="edge1" class="edge">
<title>Node1&#45;&gt;Node2</title>
<path fill="none" stroke="midnightblue" d="M319.37,-66.86C265.84,-56.98 193.89,-43.52 130.5,-31 121,-29.13 110.79,-27.05 101.19,-25.06"/>
<polygon fill="midnightblue" stroke="midnightblue" points="319.01,-70.35 329.48,-68.73 320.28,-63.47 319.01,-70.35"/>
</g>
<!-- Node3 -->
<g id="node3" class="node">
<title>Node3</title>
<g id="a_node3"><a xlink:href="Client_8cpp.html" target="_top" xlink:title=" ">
<polygon fill="white" stroke="black" points="139.5,-6 139.5,-25 243.5,-25 243.5,-6 139.5,-6"/>
<text text-anchor="middle" x="191.5" y="-13" font-family="Helvetica,sans-Serif" font-size="10.00">src/client/Client.cpp</text>
</a>
</g>
</g>
<!-- Node1&#45;&gt;Node3 -->
<g id="edge2" class="edge">
<title>Node1&#45;&gt;Node3</title>
<path fill="none" stroke="midnightblue" d="M344.88,-64.43C304.31,-51.75 250.7,-35 218.79,-25.03"/>
<polygon fill="midnightblue" stroke="midnightblue" points="344.03,-67.83 354.62,-67.48 346.12,-61.15 344.03,-67.83"/>
</g>
<!-- Node4 -->
<g id="node4" class="node">
<title>Node4</title>
<g id="a_node4"><a xlink:href="ErrorUtils_8cpp.html" target="_top" xlink:title=" ">
<polygon fill="white" stroke="black" points="262,-6 262,-25 381,-25 381,-6 262,-6"/>
<text text-anchor="middle" x="321.5" y="-13" font-family="Helvetica,sans-Serif" font-size="10.00">src/client/ErrorUtils.cpp</text>
</a>
</g>
</g>
<!-- Node1&#45;&gt;Node4 -->
<g id="edge3" class="edge">
<title>Node1&#45;&gt;Node4</title>
<path fill="none" stroke="midnightblue" d="M374.51,-60.67C360.1,-48.67 342.76,-34.22 331.93,-25.19"/>
<polygon fill="midnightblue" stroke="midnightblue" points="372.65,-63.68 382.58,-67.4 377.13,-58.31 372.65,-63.68"/>
</g>
<!-- Node5 -->
<g id="node5" class="node">
<title>Node5</title>
<g id="a_node5"><a xlink:href="RequestProcessor_8cpp.html" target="_top" xlink:title=" ">
<polygon fill="white" stroke="black" points="399.5,-6 399.5,-25 557.5,-25 557.5,-6 399.5,-6"/>
<text text-anchor="middle" x="478.5" y="-13" font-family="Helvetica,sans-Serif" font-size="10.00">src/client/RequestProcessor.cpp</text>
</a>
</g>
</g>
<!-- Node1&#45;&gt;Node5 -->
<g id="edge4" class="edge">
<title>Node1&#45;&gt;Node5</title>
<path fill="none" stroke="midnightblue" d="M424.41,-61.01C439.07,-48.94 456.86,-34.3 467.93,-25.19"/>
<polygon fill="midnightblue" stroke="midnightblue" points="422.14,-58.34 416.64,-67.4 426.59,-63.75 422.14,-58.34"/>
</g>
<!-- Node6 -->
<g id="node6" class="node">
<title>Node6</title>
<g id="a_node6"><a xlink:href="RequestProcessorUtils_8cpp.html" target="_top" xlink:title=" ">
<polygon fill="white" stroke="black" points="575.5,-0.5 575.5,-30.5 715.5,-30.5 715.5,-0.5 575.5,-0.5"/>
<text text-anchor="start" x="583.5" y="-18.5" font-family="Helvetica,sans-Serif" font-size="10.00">src/client/RequestProcessor</text>
<text text-anchor="middle" x="645.5" y="-7.5" font-family="Helvetica,sans-Serif" font-size="10.00">Utils.cpp</text>
</a>
</g>
</g>
<!-- Node1&#45;&gt;Node6 -->
<g id="edge5" class="edge">
<title>Node1&#45;&gt;Node6</title>
<path fill="none" stroke="midnightblue" d="M462.26,-64.92C502.4,-54.31 553.92,-40.7 592.1,-30.61"/>
<polygon fill="midnightblue" stroke="midnightblue" points="461.35,-61.54 452.58,-67.48 463.14,-68.31 461.35,-61.54"/>
</g>
<!-- Node7 -->
<g id="node7" class="node">
<title>Node7</title>
<g id="a_node7"><a xlink:href="StaticPathHandler_8cpp.html" target="_top" xlink:title=" ">
<polygon fill="white" stroke="black" points="734,-6 734,-25 891,-25 891,-6 734,-6"/>
<text text-anchor="middle" x="812.5" y="-13" font-family="Helvetica,sans-Serif" font-size="10.00">src/client/StaticPathHandler.cpp</text>
</a>
</g>
</g>
<!-- Node1&#45;&gt;Node7 -->
<g id="edge6" class="edge">
<title>Node1&#45;&gt;Node7</title>
<path fill="none" stroke="midnightblue" d="M479.48,-69.28C545.28,-59.18 640.97,-44.37 724.5,-31 736.43,-29.09 749.25,-27 761.33,-25.01"/>
<polygon fill="midnightblue" stroke="midnightblue" points="478.94,-65.82 469.58,-70.8 480,-72.74 478.94,-65.82"/>
</g>
</g>
</svg>
