<?xml version="1.0" encoding="UTF-8" standalone="no"?>
<!DOCTYPE svg PUBLIC "-//W3C//DTD SVG 1.1//EN"
 "http://www.w3.org/Graphics/SVG/1.1/DTD/svg11.dtd">
<!-- Generated by graphviz version 2.43.0 (0)
 -->
<!-- Title: src/client/RequestProcessorUtils.cpp Pages: 1 -->
<svg width="673pt" height="263pt"
 viewBox="0.00 0.00 672.51 263.00" xmlns="http://www.w3.org/2000/svg" xmlns:xlink="http://www.w3.org/1999/xlink">
<g id="graph0" class="graph" transform="scale(1 1) rotate(0) translate(4 259)">
<title>src/client/RequestProcessorUtils.cpp</title>
<polygon fill="white" stroke="transparent" points="-4,4 -4,-259 668.51,-259 668.51,4 -4,4"/>
<!-- Node1 -->
<g id="node1" class="node">
<title>Node1</title>
<g id="a_node1"><a xlink:title=" ">
<polygon fill="#bfbfbf" stroke="black" points="406.02,-224.5 406.02,-254.5 546.02,-254.5 546.02,-224.5 406.02,-224.5"/>
<text text-anchor="start" x="414.02" y="-242.5" font-family="Helvetica,sans-Serif" font-size="10.00">src/client/RequestProcessor</text>
<text text-anchor="middle" x="476.02" y="-231.5" font-family="Helvetica,sans-Serif" font-size="10.00">Utils.cpp</text>
</a>
</g>
</g>
<!-- Node2 -->
<g id="node2" class="node">
<title>Node2</title>
<g id="a_node2"><a xlink:href="RequestProcessorUtils_8hpp.html" target="_top" xlink:title=" ">
<polygon fill="white" stroke="black" points="290.52,-168.5 290.52,-187.5 427.52,-187.5 427.52,-168.5 290.52,-168.5"/>
<text text-anchor="middle" x="359.02" y="-175.5" font-family="Helvetica,sans-Serif" font-size="10.00">RequestProcessorUtils.hpp</text>
</a>
</g>
</g>
<!-- Node1&#45;&gt;Node2 -->
<g id="edge1" class="edge">
<title>Node1&#45;&gt;Node2</title>
<path fill="none" stroke="midnightblue" d="M448.3,-224.4C429.19,-214.68 403.97,-201.86 385.2,-192.31"/>
<polygon fill="midnightblue" stroke="midnightblue" points="386.55,-189.07 376.05,-187.66 383.38,-195.31 386.55,-189.07"/>
</g>
<!-- Node11 -->
<g id="node11" class="node">
<title>Node11</title>
<g id="a_node11"><a xlink:title=" ">
<polygon fill="white" stroke="#bfbfbf" points="446.02,-168.5 446.02,-187.5 506.02,-187.5 506.02,-168.5 446.02,-168.5"/>
<text text-anchor="middle" x="476.02" y="-175.5" font-family="Helvetica,sans-Serif" font-size="10.00">sys/stat.h</text>
</a>
</g>
</g>
<!-- Node1&#45;&gt;Node11 -->
<g id="edge22" class="edge">
<title>Node1&#45;&gt;Node11</title>
<path fill="none" stroke="midnightblue" d="M476.02,-224.4C476.02,-216.47 476.02,-206.46 476.02,-197.86"/>
<polygon fill="midnightblue" stroke="midnightblue" points="479.52,-197.66 476.02,-187.66 472.52,-197.66 479.52,-197.66"/>
</g>
<!-- Node12 -->
<g id="node12" class="node">
<title>Node12</title>
<g id="a_node12"><a xlink:href="HttpResponse_8hpp.html" target="_top" xlink:title=" ">
<polygon fill="white" stroke="black" points="475.02,-112.5 475.02,-131.5 593.02,-131.5 593.02,-112.5 475.02,-112.5"/>
<text text-anchor="middle" x="534.02" y="-119.5" font-family="Helvetica,sans-Serif" font-size="10.00">http/HttpResponse.hpp</text>
</a>
</g>
</g>
<!-- Node1&#45;&gt;Node12 -->
<g id="edge23" class="edge">
<title>Node1&#45;&gt;Node12</title>
<path fill="none" stroke="midnightblue" d="M489.19,-224.46C497.61,-214.84 508.19,-201.43 515.02,-188 522.53,-173.27 527.52,-155.11 530.5,-141.73"/>
<polygon fill="midnightblue" stroke="midnightblue" points="533.95,-142.3 532.53,-131.8 527.1,-140.89 533.95,-142.3"/>
</g>
<!-- Node3 -->
<g id="node3" class="node">
<title>Node3</title>
<g id="a_node3"><a xlink:title=" ">
<polygon fill="white" stroke="#bfbfbf" points="117.52,-0.5 117.52,-19.5 158.52,-19.5 158.52,-0.5 117.52,-0.5"/>
<text text-anchor="middle" x="138.02" y="-7.5" font-family="Helvetica,sans-Serif" font-size="10.00">string</text>
</a>
</g>
</g>
<!-- Node2&#45;&gt;Node3 -->
<g id="edge2" class="edge">
<title>Node2&#45;&gt;Node3</title>
<path fill="none" stroke="midnightblue" d="M297.73,-168.5C206.15,-154.38 40.64,-122.94 6.02,-76 -22.16,-37.77 60.23,-20.79 107.44,-14.35"/>
<polygon fill="midnightblue" stroke="midnightblue" points="108.01,-17.81 117.49,-13.07 107.12,-10.86 108.01,-17.81"/>
</g>
<!-- Node4 -->
<g id="node4" class="node">
<title>Node4</title>
<g id="a_node4"><a xlink:title=" ">
<polygon fill="white" stroke="#bfbfbf" points="610.02,-0.5 610.02,-19.5 654.02,-19.5 654.02,-0.5 610.02,-0.5"/>
<text text-anchor="middle" x="632.02" y="-7.5" font-family="Helvetica,sans-Serif" font-size="10.00">vector</text>
</a>
</g>
</g>
<!-- Node2&#45;&gt;Node4 -->
<g id="edge3" class="edge">
<title>Node2&#45;&gt;Node4</title>
<path fill="none" stroke="midnightblue" d="M427.61,-168.66C488.44,-160.48 572.14,-147.07 602.02,-132 634.6,-115.58 647.49,-109.45 662.02,-76 669.26,-59.36 658.48,-40.55 647.88,-27.47"/>
<polygon fill="midnightblue" stroke="midnightblue" points="650.36,-24.99 641.14,-19.77 645.1,-29.6 650.36,-24.99"/>
</g>
<!-- Node5 -->
<g id="node5" class="node">
<title>Node5</title>
<g id="a_node5"><a xlink:href="LocationConfig_8hpp.html" target="_top" xlink:title=" ">
<polygon fill="white" stroke="black" points="289.52,-56.5 289.52,-75.5 428.52,-75.5 428.52,-56.5 289.52,-56.5"/>
<text text-anchor="middle" x="359.02" y="-63.5" font-family="Helvetica,sans-Serif" font-size="10.00">../config/LocationConfig.hpp</text>
</a>
</g>
</g>
<!-- Node2&#45;&gt;Node5 -->
<g id="edge4" class="edge">
<title>Node2&#45;&gt;Node5</title>
<path fill="none" stroke="midnightblue" d="M359.02,-168.37C359.02,-150.62 359.02,-109.67 359.02,-85.6"/>
<polygon fill="midnightblue" stroke="midnightblue" points="362.52,-85.59 359.02,-75.59 355.52,-85.59 362.52,-85.59"/>
</g>
<!-- Node8 -->
<g id="node8" class="node">
<title>Node8</title>
<g id="a_node8"><a xlink:href="ServerConfig_8hpp.html" target="_top" xlink:title=" ">
<polygon fill="white" stroke="black" points="195.52,-112.5 195.52,-131.5 326.52,-131.5 326.52,-112.5 195.52,-112.5"/>
<text text-anchor="middle" x="261.02" y="-119.5" font-family="Helvetica,sans-Serif" font-size="10.00">../config/ServerConfig.hpp</text>
</a>
</g>
</g>
<!-- Node2&#45;&gt;Node8 -->
<g id="edge9" class="edge">
<title>Node2&#45;&gt;Node8</title>
<path fill="none" stroke="midnightblue" d="M343.28,-168.32C327.71,-159.74 303.65,-146.49 285.56,-136.52"/>
<polygon fill="midnightblue" stroke="midnightblue" points="287.18,-133.42 276.73,-131.65 283.8,-139.55 287.18,-133.42"/>
</g>
<!-- Node10 -->
<g id="node10" class="node">
<title>Node10</title>
<g id="a_node10"><a xlink:href="HttpRequest_8hpp.html" target="_top" xlink:title=" ">
<polygon fill="white" stroke="black" points="446.52,-56.5 446.52,-75.5 565.52,-75.5 565.52,-56.5 446.52,-56.5"/>
<text text-anchor="middle" x="506.02" y="-63.5" font-family="Helvetica,sans-Serif" font-size="10.00">../http/HttpRequest.hpp</text>
</a>
</g>
</g>
<!-- Node2&#45;&gt;Node10 -->
<g id="edge17" class="edge">
<title>Node2&#45;&gt;Node10</title>
<path fill="none" stroke="midnightblue" d="M370.56,-168.37C395.57,-149.65 455.04,-105.15 486.2,-81.83"/>
<polygon fill="midnightblue" stroke="midnightblue" points="488.63,-84.39 494.54,-75.59 484.44,-78.78 488.63,-84.39"/>
</g>
<!-- Node5&#45;&gt;Node3 -->
<g id="edge7" class="edge">
<title>Node5&#45;&gt;Node3</title>
<path fill="none" stroke="midnightblue" d="M324.01,-56.44C281.12,-45.97 209.19,-28.39 168.49,-18.45"/>
<polygon fill="midnightblue" stroke="midnightblue" points="169.16,-15.01 158.62,-16.03 167.5,-21.81 169.16,-15.01"/>
</g>
<!-- Node5&#45;&gt;Node4 -->
<g id="edge8" class="edge">
<title>Node5&#45;&gt;Node4</title>
<path fill="none" stroke="midnightblue" d="M402.28,-56.44C457.19,-45.58 550.66,-27.09 599.74,-17.39"/>
<polygon fill="midnightblue" stroke="midnightblue" points="600.66,-20.77 609.79,-15.4 599.3,-13.9 600.66,-20.77"/>
</g>
<!-- Node6 -->
<g id="node6" class="node">
<title>Node6</title>
<g id="a_node6"><a xlink:title=" ">
<polygon fill="white" stroke="#bfbfbf" points="332.02,-0.5 332.02,-19.5 386.02,-19.5 386.02,-0.5 332.02,-0.5"/>
<text text-anchor="middle" x="359.02" y="-7.5" font-family="Helvetica,sans-Serif" font-size="10.00">iostream</text>
</a>
</g>
</g>
<!-- Node5&#45;&gt;Node6 -->
<g id="edge5" class="edge">
<title>Node5&#45;&gt;Node6</title>
<path fill="none" stroke="midnightblue" d="M359.02,-56.08C359.02,-49.01 359.02,-38.86 359.02,-29.99"/>
<polygon fill="midnightblue" stroke="midnightblue" points="362.52,-29.75 359.02,-19.75 355.52,-29.75 362.52,-29.75"/>
</g>
<!-- Node7 -->
<g id="node7" class="node">
<title>Node7</title>
<g id="a_node7"><a xlink:title=" ">
<polygon fill="white" stroke="#bfbfbf" points="446.52,-0.5 446.52,-19.5 481.52,-19.5 481.52,-0.5 446.52,-0.5"/>
<text text-anchor="middle" x="464.02" y="-7.5" font-family="Helvetica,sans-Serif" font-size="10.00">map</text>
</a>
</g>
</g>
<!-- Node5&#45;&gt;Node7 -->
<g id="edge6" class="edge">
<title>Node5&#45;&gt;Node7</title>
<path fill="none" stroke="midnightblue" d="M375.89,-56.32C392.73,-47.66 418.83,-34.24 438.26,-24.25"/>
<polygon fill="midnightblue" stroke="midnightblue" points="439.9,-27.34 447.2,-19.65 436.7,-21.12 439.9,-27.34"/>
</g>
<!-- Node8&#45;&gt;Node3 -->
<g id="edge12" class="edge">
<title>Node8&#45;&gt;Node3</title>
<path fill="none" stroke="midnightblue" d="M195.25,-118.14C130.6,-113.79 38.45,-102.91 16.02,-76 -12.13,-42.2 62.58,-23.48 107.29,-15.57"/>
<polygon fill="midnightblue" stroke="midnightblue" points="108.11,-18.98 117.39,-13.88 106.95,-12.08 108.11,-18.98"/>
</g>
<!-- Node8&#45;&gt;Node4 -->
<g id="edge13" class="edge">
<title>Node8&#45;&gt;Node4</title>
<path fill="none" stroke="midnightblue" d="M326.81,-116.93C405.95,-111.12 533.38,-98.57 575.02,-76 595.35,-64.99 611.85,-43.69 621.77,-28.48"/>
<polygon fill="midnightblue" stroke="midnightblue" points="624.77,-30.28 627.08,-19.94 618.83,-26.59 624.77,-30.28"/>
</g>
<!-- Node8&#45;&gt;Node5 -->
<g id="edge14" class="edge">
<title>Node8&#45;&gt;Node5</title>
<path fill="none" stroke="midnightblue" d="M276.77,-112.32C292.34,-103.74 316.4,-90.49 334.48,-80.52"/>
<polygon fill="midnightblue" stroke="midnightblue" points="336.25,-83.55 343.32,-75.65 332.87,-77.42 336.25,-83.55"/>
</g>
<!-- Node8&#45;&gt;Node6 -->
<g id="edge10" class="edge">
<title>Node8&#45;&gt;Node6</title>
<path fill="none" stroke="midnightblue" d="M255.24,-112.21C247.3,-98.92 235.26,-73.41 247.02,-56 263.63,-31.43 296.1,-20.28 321.82,-15.21"/>
<polygon fill="midnightblue" stroke="midnightblue" points="322.75,-18.6 332.01,-13.44 321.56,-11.7 322.75,-18.6"/>
</g>
<!-- Node8&#45;&gt;Node7 -->
<g id="edge11" class="edge">
<title>Node8&#45;&gt;Node7</title>
<path fill="none" stroke="midnightblue" d="M261.11,-112.46C261.73,-98.56 265.06,-71.08 281.02,-56 303.27,-35 390.67,-20.67 436.16,-14.47"/>
<polygon fill="midnightblue" stroke="midnightblue" points="436.78,-17.92 446.24,-13.13 435.87,-10.98 436.78,-17.92"/>
</g>
<!-- Node9 -->
<g id="node9" class="node">
<title>Node9</title>
<g id="a_node9"><a xlink:href="namespaces_8hpp.html" target="_top" xlink:title=" ">
<polygon fill="white" stroke="black" points="25.52,-56.5 25.52,-75.5 156.52,-75.5 156.52,-56.5 25.52,-56.5"/>
<text text-anchor="middle" x="91.02" y="-63.5" font-family="Helvetica,sans-Serif" font-size="10.00">common/namespaces.hpp</text>
</a>
</g>
</g>
<!-- Node8&#45;&gt;Node9 -->
<g id="edge15" class="edge">
<title>Node8&#45;&gt;Node9</title>
<path fill="none" stroke="midnightblue" d="M234.09,-112.44C205.36,-103.32 159.7,-88.81 127.7,-78.65"/>
<polygon fill="midnightblue" stroke="midnightblue" points="128.43,-75.21 117.84,-75.52 126.31,-81.88 128.43,-75.21"/>
</g>
<!-- Node9&#45;&gt;Node3 -->
<g id="edge16" class="edge">
<title>Node9&#45;&gt;Node3</title>
<path fill="none" stroke="midnightblue" d="M98.79,-56.08C105.56,-48.3 115.57,-36.8 123.78,-27.37"/>
<polygon fill="midnightblue" stroke="midnightblue" points="126.48,-29.59 130.41,-19.75 121.2,-25 126.48,-29.59"/>
</g>
<!-- Node10&#45;&gt;Node3 -->
<g id="edge20" class="edge">
<title>Node10&#45;&gt;Node3</title>
<path fill="none" stroke="midnightblue" d="M447.71,-56.44C368.75,-44.86 230.64,-24.59 169.12,-15.56"/>
<polygon fill="midnightblue" stroke="midnightblue" points="169.3,-12.05 158.89,-14.06 168.28,-18.98 169.3,-12.05"/>
</g>
<!-- Node10&#45;&gt;Node4 -->
<g id="edge21" class="edge">
<title>Node10&#45;&gt;Node4</title>
<path fill="none" stroke="midnightblue" d="M525.99,-56.44C546.63,-47.6 579.09,-33.69 602.66,-23.59"/>
<polygon fill="midnightblue" stroke="midnightblue" points="604.34,-26.67 612.15,-19.52 601.58,-20.24 604.34,-26.67"/>
</g>
<!-- Node10&#45;&gt;Node6 -->
<g id="edge18" class="edge">
<title>Node10&#45;&gt;Node6</title>
<path fill="none" stroke="midnightblue" d="M482.73,-56.44C458.22,-47.44 419.43,-33.19 391.82,-23.05"/>
<polygon fill="midnightblue" stroke="midnightblue" points="392.8,-19.68 382.21,-19.52 390.39,-26.25 392.8,-19.68"/>
</g>
<!-- Node10&#45;&gt;Node7 -->
<g id="edge19" class="edge">
<title>Node10&#45;&gt;Node7</title>
<path fill="none" stroke="midnightblue" d="M499.09,-56.08C493.1,-48.38 484.27,-37.03 476.98,-27.65"/>
<polygon fill="midnightblue" stroke="midnightblue" points="479.73,-25.5 470.83,-19.75 474.21,-29.79 479.73,-25.5"/>
</g>
<!-- Node12&#45;&gt;Node3 -->
<g id="edge25" class="edge">
<title>Node12&#45;&gt;Node3</title>
<path fill="none" stroke="midnightblue" d="M475,-114.75C423.08,-108.26 345.89,-96.16 281.02,-76 237.69,-62.53 190.28,-39.11 162.4,-24.37"/>
<polygon fill="midnightblue" stroke="midnightblue" points="163.86,-21.18 153.39,-19.55 160.55,-27.35 163.86,-21.18"/>
</g>
<!-- Node12&#45;&gt;Node4 -->
<g id="edge26" class="edge">
<title>Node12&#45;&gt;Node4</title>
<path fill="none" stroke="midnightblue" d="M589.16,-112.42C610.62,-106.09 633.12,-95.1 646.02,-76 655.49,-61.99 649.54,-42.74 642.72,-28.83"/>
<polygon fill="midnightblue" stroke="midnightblue" points="645.66,-26.9 637.81,-19.79 639.51,-30.25 645.66,-26.9"/>
</g>
<!-- Node12&#45;&gt;Node7 -->
<g id="edge24" class="edge">
<title>Node12&#45;&gt;Node7</title>
<path fill="none" stroke="midnightblue" d="M546.27,-112.48C562.72,-99.96 588.44,-75.92 575.02,-56 556.54,-28.56 518.17,-17.85 491.76,-13.67"/>
<polygon fill="midnightblue" stroke="midnightblue" points="491.99,-10.17 481.61,-12.29 491.05,-17.1 491.99,-10.17"/>
</g>
<!-- Node12&#45;&gt;Node10 -->
<g id="edge27" class="edge">
<title>Node12&#45;&gt;Node10</title>
<path fill="none" stroke="midnightblue" d="M529.4,-112.08C525.57,-104.69 520,-93.95 515.26,-84.81"/>
<polygon fill="midnightblue" stroke="midnightblue" points="518.27,-83.02 510.56,-75.75 512.06,-86.24 518.27,-83.02"/>
</g>
</g>
</svg>
