<?xml version="1.0" encoding="UTF-8" standalone="no"?>
<!DOCTYPE svg PUBLIC "-//W3C//DTD SVG 1.1//EN"
 "http://www.w3.org/Graphics/SVG/1.1/DTD/svg11.dtd">
<!-- Generated by graphviz version 2.43.0 (0)
 -->
<!-- Title: src/client/RequestProcessor.hpp Pages: 1 -->
<!--zoomable 196 -->
<svg id="main" version="1.1" xmlns="http://www.w3.org/2000/svg" xmlns:xlink="http://www.w3.org/1999/xlink" xml:space="preserve" onload="init(evt)">
<style type="text/css"><![CDATA[
.edge:hover path { stroke: red; }
.edge:hover polygon { stroke: red; fill: red; }
]]></style>
<script type="text/javascript"><![CDATA[
var edges = document.getElementsByTagName('g');
if (edges && edges.length) {
  for (var i=0;i<edges.length;i++) {
    if (edges[i].id.substr(0,4)=='edge') {
      edges[i].setAttribute('class','edge');
    }
  }
}
]]></script>
        <defs>
                <circle id="rim" cx="0" cy="0" r="7"/>
                <circle id="rim2" cx="0" cy="0" r="3.5"/>
                <g id="zoomPlus">
                        <use xlink:href="#rim" fill="#404040">
                                <set attributeName="fill" to="#808080" begin="zoomplus.mouseover" end="zoomplus.mouseout"/>
                        </use>
                        <path d="M-4,0h8M0,-4v8" fill="none" stroke="white" stroke-width="1.5" pointer-events="none"/>
                </g>
                <g id="zoomMin">
                        <use xlink:href="#rim" fill="#404040">
                                <set attributeName="fill" to="#808080" begin="zoomminus.mouseover" end="zoomminus.mouseout"/>
                        </use>
                        <path d="M-4,0h8" fill="none" stroke="white" stroke-width="1.5" pointer-events="none"/>
                </g>
                <g id="dirArrow">
                        <path fill="none" stroke="white" stroke-width="1.5" d="M0,-3.0v7 M-2.5,-0.5L0,-3.0L2.5,-0.5"/>
                </g>
               <g id="resetDef">
                       <use xlink:href="#rim2" fill="#404040">
                               <set attributeName="fill" to="#808080" begin="reset.mouseover" end="reset.mouseout"/>
                       </use>
               </g>
        </defs>

<script type="text/javascript">
var viewWidth = 627;
var viewHeight = 196;
var sectionId = 'dynsection-0';
</script>
<script xlink:href="svgpan.js"/>
<svg id="graph" class="graph">
<g id="viewport">
<title>src/client/RequestProcessor.hpp</title>
<polygon fill="white" stroke="transparent" points="-4,4 -4,-192 623.16,-192 623.16,4 -4,4"/>
<!-- Node1 -->
<g id="node1" class="node">
<title>Node1</title>
<g id="a_node1"><a xlink:title=" ">
<polygon fill="#bfbfbf" stroke="black" points="346.45,-168.5 346.45,-187.5 504.45,-187.5 504.45,-168.5 346.45,-168.5"/>
<text text-anchor="middle" x="425.45" y="-175.5" font-family="Helvetica,sans-Serif" font-size="10.00">src/client/RequestProcessor.hpp</text>
</a>
</g>
</g>
<!-- Node2 -->
<g id="node2" class="node">
<title>Node2</title>
<g id="a_node2"><a xlink:title=" ">
<polygon fill="white" stroke="#bfbfbf" points="117.95,-0.5 117.95,-19.5 158.95,-19.5 158.95,-0.5 117.95,-0.5"/>
<text text-anchor="middle" x="138.45" y="-7.5" font-family="Helvetica,sans-Serif" font-size="10.00">string</text>
</a>
</g>
</g>
<!-- Node1&#45;&gt;Node2 -->
<g id="edge1" class="edge">
<title>Node1&#45;&gt;Node2</title>
<path fill="none" stroke="midnightblue" d="M346.19,-169.45C236.65,-157.19 47.78,-128.82 6.45,-76 -22.82,-38.59 60.06,-21.23 107.62,-14.54"/>
<polygon fill="midnightblue" stroke="midnightblue" points="108.29,-17.98 117.74,-13.19 107.37,-11.04 108.29,-17.98"/>
</g>
<!-- Node3 -->
<g id="node3" class="node">
<title>Node3</title>
<g id="a_node3"><a xlink:title=" ">
<polygon fill="white" stroke="#bfbfbf" points="563.45,-0.5 563.45,-19.5 607.45,-19.5 607.45,-0.5 563.45,-0.5"/>
<text text-anchor="middle" x="585.45" y="-7.5" font-family="Helvetica,sans-Serif" font-size="10.00">vector</text>
</a>
</g>
</g>
<!-- Node1&#45;&gt;Node3 -->
<g id="edge2" class="edge">
<title>Node1&#45;&gt;Node3</title>
<path fill="none" stroke="midnightblue" d="M492.87,-168.44C522.03,-162.1 555.19,-151.1 580.45,-132 610.11,-109.57 626.23,-91.59 615.45,-56 612.33,-45.7 606,-35.61 599.95,-27.6"/>
<polygon fill="midnightblue" stroke="midnightblue" points="602.67,-25.4 593.66,-19.82 597.22,-29.8 602.67,-25.4"/>
</g>
<!-- Node4 -->
<g id="node4" class="node">
<title>Node4</title>
<g id="a_node4"><a xlink:href="ServerConfig_8hpp.html" target="_top" xlink:title=" ">
<polygon fill="white" stroke="black" points="241.45,-112.5 241.45,-131.5 363.45,-131.5 363.45,-112.5 241.45,-112.5"/>
<text text-anchor="middle" x="302.45" y="-119.5" font-family="Helvetica,sans-Serif" font-size="10.00">config/ServerConfig.hpp</text>
</a>
</g>
</g>
<!-- Node1&#45;&gt;Node4 -->
<g id="edge3" class="edge">
<title>Node1&#45;&gt;Node4</title>
<path fill="none" stroke="midnightblue" d="M405.96,-168.44C385.81,-159.6 354.13,-145.69 331.12,-135.59"/>
<polygon fill="midnightblue" stroke="midnightblue" points="332.41,-132.33 321.85,-131.52 329.6,-138.74 332.41,-132.33"/>
</g>
<!-- Node9 -->
<g id="node9" class="node">
<title>Node9</title>
<g id="a_node9"><a xlink:href="HttpRequest_8hpp.html" target="_top" xlink:title=" ">
<polygon fill="white" stroke="black" points="409.45,-56.5 409.45,-75.5 519.45,-75.5 519.45,-56.5 409.45,-56.5"/>
<text text-anchor="middle" x="464.45" y="-63.5" font-family="Helvetica,sans-Serif" font-size="10.00">http/HttpRequest.hpp</text>
</a>
</g>
</g>
<!-- Node1&#45;&gt;Node9 -->
<g id="edge15" class="edge">
<title>Node1&#45;&gt;Node9</title>
<path fill="none" stroke="midnightblue" d="M427.55,-168.47C430.73,-155.93 437.17,-131.87 444.45,-112 447.76,-102.97 452.02,-93.19 455.76,-85.05"/>
<polygon fill="midnightblue" stroke="midnightblue" points="459.02,-86.36 460.11,-75.82 452.68,-83.38 459.02,-86.36"/>
</g>
<!-- Node10 -->
<g id="node10" class="node">
<title>Node10</title>
<g id="a_node10"><a xlink:href="HttpResponse_8hpp.html" target="_top" xlink:title=" ">
<polygon fill="white" stroke="black" points="453.45,-112.5 453.45,-131.5 571.45,-131.5 571.45,-112.5 453.45,-112.5"/>
<text text-anchor="middle" x="512.45" y="-119.5" font-family="Helvetica,sans-Serif" font-size="10.00">http/HttpResponse.hpp</text>
</a>
</g>
</g>
<!-- Node1&#45;&gt;Node10 -->
<g id="edge20" class="edge">
<title>Node1&#45;&gt;Node10</title>
<path fill="none" stroke="midnightblue" d="M439.43,-168.32C453,-159.9 473.83,-146.97 489.77,-137.07"/>
<polygon fill="midnightblue" stroke="midnightblue" points="491.85,-139.9 498.51,-131.65 488.16,-133.95 491.85,-139.9"/>
</g>
<!-- Node4&#45;&gt;Node2 -->
<g id="edge6" class="edge">
<title>Node4&#45;&gt;Node2</title>
<path fill="none" stroke="midnightblue" d="M241.31,-120.32C166.08,-118.03 44.78,-109.14 16.45,-76 -12.14,-42.56 62.76,-23.68 107.61,-15.66"/>
<polygon fill="midnightblue" stroke="midnightblue" points="108.47,-19.06 117.74,-13.94 107.3,-12.16 108.47,-19.06"/>
</g>
<!-- Node4&#45;&gt;Node3 -->
<g id="edge7" class="edge">
<title>Node4&#45;&gt;Node3</title>
<path fill="none" stroke="midnightblue" d="M363.75,-119.39C411.47,-115.74 477.87,-105.21 528.45,-76 548.28,-64.55 564.72,-43.66 574.77,-28.65"/>
<polygon fill="midnightblue" stroke="midnightblue" points="577.99,-30.1 580.42,-19.79 572.09,-26.34 577.99,-30.1"/>
</g>
<!-- Node5 -->
<g id="node5" class="node">
<title>Node5</title>
<g id="a_node5"><a xlink:title=" ">
<polygon fill="white" stroke="#bfbfbf" points="275.45,-0.5 275.45,-19.5 329.45,-19.5 329.45,-0.5 275.45,-0.5"/>
<text text-anchor="middle" x="302.45" y="-7.5" font-family="Helvetica,sans-Serif" font-size="10.00">iostream</text>
</a>
</g>
</g>
<!-- Node4&#45;&gt;Node5 -->
<g id="edge4" class="edge">
<title>Node4&#45;&gt;Node5</title>
<path fill="none" stroke="midnightblue" d="M283.15,-112.48C269.02,-105.08 250.89,-92.89 242.45,-76 232.1,-55.3 254.73,-36.45 275.09,-24.44"/>
<polygon fill="midnightblue" stroke="midnightblue" points="276.82,-27.48 283.87,-19.57 273.43,-21.36 276.82,-27.48"/>
</g>
<!-- Node6 -->
<g id="node6" class="node">
<title>Node6</title>
<g id="a_node6"><a xlink:title=" ">
<polygon fill="white" stroke="#bfbfbf" points="404.95,-0.5 404.95,-19.5 439.95,-19.5 439.95,-0.5 404.95,-0.5"/>
<text text-anchor="middle" x="422.45" y="-7.5" font-family="Helvetica,sans-Serif" font-size="10.00">map</text>
</a>
</g>
</g>
<!-- Node4&#45;&gt;Node6 -->
<g id="edge5" class="edge">
<title>Node4&#45;&gt;Node6</title>
<path fill="none" stroke="midnightblue" d="M315.38,-112.33C327.9,-103.7 347.18,-89.79 362.45,-76 379.44,-60.66 396.99,-41.14 408.68,-27.52"/>
<polygon fill="midnightblue" stroke="midnightblue" points="411.35,-29.78 415.15,-19.89 406.01,-25.25 411.35,-29.78"/>
</g>
<!-- Node7 -->
<g id="node7" class="node">
<title>Node7</title>
<g id="a_node7"><a xlink:href="LocationConfig_8hpp.html" target="_top" xlink:title=" ">
<polygon fill="white" stroke="black" points="251.95,-56.5 251.95,-75.5 352.95,-75.5 352.95,-56.5 251.95,-56.5"/>
<text text-anchor="middle" x="302.45" y="-63.5" font-family="Helvetica,sans-Serif" font-size="10.00">LocationConfig.hpp</text>
</a>
</g>
</g>
<!-- Node4&#45;&gt;Node7 -->
<g id="edge8" class="edge">
<title>Node4&#45;&gt;Node7</title>
<path fill="none" stroke="midnightblue" d="M302.45,-112.08C302.45,-105.01 302.45,-94.86 302.45,-85.99"/>
<polygon fill="midnightblue" stroke="midnightblue" points="305.95,-85.75 302.45,-75.75 298.95,-85.75 305.95,-85.75"/>
</g>
<!-- Node8 -->
<g id="node8" class="node">
<title>Node8</title>
<g id="a_node8"><a xlink:href="namespaces_8hpp.html" target="_top" xlink:title=" ">
<polygon fill="white" stroke="black" points="25.95,-56.5 25.95,-75.5 156.95,-75.5 156.95,-56.5 25.95,-56.5"/>
<text text-anchor="middle" x="91.45" y="-63.5" font-family="Helvetica,sans-Serif" font-size="10.00">common/namespaces.hpp</text>
</a>
</g>
</g>
<!-- Node4&#45;&gt;Node8 -->
<g id="edge13" class="edge">
<title>Node4&#45;&gt;Node8</title>
<path fill="none" stroke="midnightblue" d="M269.02,-112.44C232.59,-103.12 174.22,-88.18 134.42,-78"/>
<polygon fill="midnightblue" stroke="midnightblue" points="135.28,-74.61 124.73,-75.52 133.55,-81.39 135.28,-74.61"/>
</g>
<!-- Node7&#45;&gt;Node2 -->
<g id="edge11" class="edge">
<title>Node7&#45;&gt;Node2</title>
<path fill="none" stroke="midnightblue" d="M276.46,-56.44C247.25,-46.82 199.87,-31.22 168.93,-21.04"/>
<polygon fill="midnightblue" stroke="midnightblue" points="169.71,-17.61 159.12,-17.81 167.52,-24.26 169.71,-17.61"/>
</g>
<!-- Node7&#45;&gt;Node3 -->
<g id="edge12" class="edge">
<title>Node7&#45;&gt;Node3</title>
<path fill="none" stroke="midnightblue" d="M347.29,-56.44C404.62,-45.5 502.5,-26.83 553.07,-17.18"/>
<polygon fill="midnightblue" stroke="midnightblue" points="553.95,-20.57 563.11,-15.26 552.64,-13.7 553.95,-20.57"/>
</g>
<!-- Node7&#45;&gt;Node5 -->
<g id="edge9" class="edge">
<title>Node7&#45;&gt;Node5</title>
<path fill="none" stroke="midnightblue" d="M302.45,-56.08C302.45,-49.01 302.45,-38.86 302.45,-29.99"/>
<polygon fill="midnightblue" stroke="midnightblue" points="305.95,-29.75 302.45,-19.75 298.95,-29.75 305.95,-29.75"/>
</g>
<!-- Node7&#45;&gt;Node6 -->
<g id="edge10" class="edge">
<title>Node7&#45;&gt;Node6</title>
<path fill="none" stroke="midnightblue" d="M321.46,-56.44C341.38,-47.48 372.84,-33.32 395.36,-23.19"/>
<polygon fill="midnightblue" stroke="midnightblue" points="397.01,-26.28 404.7,-18.99 394.14,-19.9 397.01,-26.28"/>
</g>
<!-- Node8&#45;&gt;Node2 -->
<g id="edge14" class="edge">
<title>Node8&#45;&gt;Node2</title>
<path fill="none" stroke="midnightblue" d="M99.21,-56.08C105.99,-48.3 115.99,-36.8 124.2,-27.37"/>
<polygon fill="midnightblue" stroke="midnightblue" points="126.91,-29.59 130.83,-19.75 121.63,-25 126.91,-29.59"/>
</g>
<!-- Node9&#45;&gt;Node2 -->
<g id="edge18" class="edge">
<title>Node9&#45;&gt;Node2</title>
<path fill="none" stroke="midnightblue" d="M412.79,-56.44C344.15,-45.07 225.03,-25.34 169.11,-16.08"/>
<polygon fill="midnightblue" stroke="midnightblue" points="169.55,-12.6 159.11,-14.42 168.4,-19.51 169.55,-12.6"/>
</g>
<!-- Node9&#45;&gt;Node3 -->
<g id="edge19" class="edge">
<title>Node9&#45;&gt;Node3</title>
<path fill="none" stroke="midnightblue" d="M483.62,-56.44C503.36,-47.64 534.33,-33.81 556.94,-23.72"/>
<polygon fill="midnightblue" stroke="midnightblue" points="558.66,-26.79 566.37,-19.52 555.81,-20.4 558.66,-26.79"/>
</g>
<!-- Node9&#45;&gt;Node5 -->
<g id="edge16" class="edge">
<title>Node9&#45;&gt;Node5</title>
<path fill="none" stroke="midnightblue" d="M438.78,-56.44C411.53,-47.36 368.26,-32.94 337.8,-22.78"/>
<polygon fill="midnightblue" stroke="midnightblue" points="338.59,-19.36 328,-19.52 336.38,-26 338.59,-19.36"/>
</g>
<!-- Node9&#45;&gt;Node6 -->
<g id="edge17" class="edge">
<title>Node9&#45;&gt;Node6</title>
<path fill="none" stroke="midnightblue" d="M457.51,-56.08C451.52,-48.38 442.7,-37.03 435.4,-27.65"/>
<polygon fill="midnightblue" stroke="midnightblue" points="438.16,-25.5 429.26,-19.75 432.63,-29.79 438.16,-25.5"/>
</g>
<!-- Node10&#45;&gt;Node2 -->
<g id="edge22" class="edge">
<title>Node10&#45;&gt;Node2</title>
<path fill="none" stroke="midnightblue" d="M453.31,-117.82C397.42,-113.28 312,-102.33 242.45,-76 210.01,-63.72 176.75,-40.75 156.84,-25.67"/>
<polygon fill="midnightblue" stroke="midnightblue" points="158.98,-22.9 148.93,-19.55 154.7,-28.43 158.98,-22.9"/>
</g>
<!-- Node10&#45;&gt;Node3 -->
<g id="edge23" class="edge">
<title>Node10&#45;&gt;Node3</title>
<path fill="none" stroke="midnightblue" d="M547.46,-112.45C566.38,-105.84 588.13,-94.59 599.45,-76 608.24,-61.56 602.39,-42.37 595.77,-28.59"/>
<polygon fill="midnightblue" stroke="midnightblue" points="598.81,-26.84 591.02,-19.65 592.63,-30.13 598.81,-26.84"/>
</g>
<!-- Node10&#45;&gt;Node6 -->
<g id="edge21" class="edge">
<title>Node10&#45;&gt;Node6</title>
<path fill="none" stroke="midnightblue" d="M518.61,-112.27C527.11,-99.05 540.12,-73.64 528.45,-56 511.17,-29.89 475.35,-18.88 450.15,-14.27"/>
<polygon fill="midnightblue" stroke="midnightblue" points="450.52,-10.79 440.09,-12.66 449.41,-17.7 450.52,-10.79"/>
</g>
<!-- Node10&#45;&gt;Node9 -->
<g id="edge24" class="edge">
<title>Node10&#45;&gt;Node9</title>
<path fill="none" stroke="midnightblue" d="M504.52,-112.08C497.6,-104.3 487.38,-92.8 479,-83.37"/>
<polygon fill="midnightblue" stroke="midnightblue" points="481.49,-80.9 472.23,-75.75 476.26,-85.55 481.49,-80.9"/>
</g>
</g>
</svg>
        <g id="navigator" transform="translate(0 0)" fill="#404254">
                <rect fill="#f2f5e9" fill-opacity="0.5" stroke="#606060" stroke-width=".5" x="0" y="0" width="60" height="60"/>
                <use id="zoomplus" xlink:href="#zoomPlus" x="17" y="9" onmousedown="handleZoom(evt,'in')"/>
                <use id="zoomminus" xlink:href="#zoomMin" x="42" y="9" onmousedown="handleZoom(evt,'out')"/>
                <use id="reset" xlink:href="#resetDef" x="30" y="36" onmousedown="handleReset()"/>
                <g id="arrowUp" xlink:href="#dirArrow" transform="translate(30 24)" onmousedown="handlePan(0,-1)">
                  <use xlink:href="#rim" fill="#404040">
                        <set attributeName="fill" to="#808080" begin="arrowUp.mouseover" end="arrowUp.mouseout"/>
                  </use>
                  <path fill="none" stroke="white" stroke-width="1.5" d="M0,-3.0v7 M-2.5,-0.5L0,-3.0L2.5,-0.5"/>
                </g>
                <g id="arrowRight" xlink:href="#dirArrow" transform="rotate(90) translate(36 -43)" onmousedown="handlePan(1,0)">
                  <use xlink:href="#rim" fill="#404040">
                        <set attributeName="fill" to="#808080" begin="arrowRight.mouseover" end="arrowRight.mouseout"/>
                  </use>
                  <path fill="none" stroke="white" stroke-width="1.5" d="M0,-3.0v7 M-2.5,-0.5L0,-3.0L2.5,-0.5"/>
                </g>
                <g id="arrowDown" xlink:href="#dirArrow" transform="rotate(180) translate(-30 -48)" onmousedown="handlePan(0,1)">
                  <use xlink:href="#rim" fill="#404040">
                        <set attributeName="fill" to="#808080" begin="arrowDown.mouseover" end="arrowDown.mouseout"/>
                  </use>
                  <path fill="none" stroke="white" stroke-width="1.5" d="M0,-3.0v7 M-2.5,-0.5L0,-3.0L2.5,-0.5"/>
                </g>
                <g id="arrowLeft" xlink:href="#dirArrow" transform="rotate(270) translate(-36 17)" onmousedown="handlePan(-1,0)">
                  <use xlink:href="#rim" fill="#404040">
                        <set attributeName="fill" to="#808080" begin="arrowLeft.mouseover" end="arrowLeft.mouseout"/>
                  </use>
                  <path fill="none" stroke="white" stroke-width="1.5" d="M0,-3.0v7 M-2.5,-0.5L0,-3.0L2.5,-0.5"/>
                </g>
        </g>
        <svg viewBox="0 0 15 15" width="100%" height="30px" preserveAspectRatio="xMaxYMin meet">
         <g id="arrow_out" transform="scale(0.3 0.3)">
          <a xlink:href="RequestProcessor_8hpp__incl_org.svg" target="_base">
           <rect id="button" ry="5" rx="5" y="6" x="6" height="38" width="38"
                fill="#f2f5e9" fill-opacity="0.5" stroke="#606060" stroke-width="1.0"/>
           <path id="arrow"
             d="M 11.500037,31.436501 C 11.940474,20.09759 22.043105,11.32322 32.158766,21.979434 L 37.068811,17.246167 C 37.068811,17.246167 37.088388,32 37.088388,32 L 22.160133,31.978069 C 22.160133,31.978069 26.997745,27.140456 26.997745,27.140456 C 18.528582,18.264221 13.291696,25.230495 11.500037,31.436501 z"
             style="fill:#404040;"/>
          </a>
         </g>
        </svg>
</svg>
