<?xml version="1.0" encoding="UTF-8" standalone="no"?>
<!DOCTYPE svg PUBLIC "-//W3C//DTD SVG 1.1//EN"
 "http://www.w3.org/Graphics/SVG/1.1/DTD/svg11.dtd">
<!-- Generated by graphviz version 2.43.0 (0)
 -->
<!-- Title: methodToString Pages: 1 -->
<svg width="1887pt" height="81pt"
 viewBox="0.00 0.00 1887.00 81.00" xmlns="http://www.w3.org/2000/svg" xmlns:xlink="http://www.w3.org/1999/xlink">
<g id="graph0" class="graph" transform="scale(1 1) rotate(0) translate(4 77)">
<title>methodToString</title>
<polygon fill="white" stroke="transparent" points="-4,4 -4,-77 1883,-77 1883,4 -4,4"/>
<!-- Node1 -->
<g id="node1" class="node">
<title>Node1</title>
<g id="a_node1"><a xlink:title=" ">
<polygon fill="#bfbfbf" stroke="black" points="1794,-28 1794,-47 1879,-47 1879,-28 1794,-28"/>
<text text-anchor="middle" x="1836.5" y="-35" font-family="Helvetica,sans-Serif" font-size="10.00">methodToString</text>
</a>
</g>
</g>
<!-- Node2 -->
<g id="node2" class="node">
<title>Node2</title>
<g id="a_node2"><a xlink:href="classCgiExecutor.html#ad97592b573c577e6bae11662ec683910" target="_top" xlink:title=" ">
<polygon fill="white" stroke="black" points="1594,-48 1594,-67 1758,-67 1758,-48 1594,-48"/>
<text text-anchor="middle" x="1676" y="-55" font-family="Helvetica,sans-Serif" font-size="10.00">CgiExecutor::prepareEnvironment</text>
</a>
</g>
</g>
<!-- Node1&#45;&gt;Node2 -->
<g id="edge1" class="edge">
<title>Node1&#45;&gt;Node2</title>
<path fill="none" stroke="midnightblue" d="M1783.69,-44.04C1773.67,-45.3 1762.99,-46.65 1752.4,-47.99"/>
<polygon fill="midnightblue" stroke="midnightblue" points="1784.37,-47.48 1793.86,-42.75 1783.5,-40.53 1784.37,-47.48"/>
</g>
<!-- Node14 -->
<g id="node14" class="node">
<title>Node14</title>
<g id="a_node14"><a xlink:href="RequestProcessorUtils_8cpp.html#a78597f2a4e423d57364c43dda7bcf969" target="_top" xlink:title=" ">
<polygon fill="white" stroke="black" points="1632.5,-9 1632.5,-28 1719.5,-28 1719.5,-9 1632.5,-9"/>
<text text-anchor="middle" x="1676" y="-16" font-family="Helvetica,sans-Serif" font-size="10.00">validateLocation</text>
</a>
</g>
</g>
<!-- Node1&#45;&gt;Node14 -->
<g id="edge14" class="edge">
<title>Node1&#45;&gt;Node14</title>
<path fill="none" stroke="midnightblue" d="M1783.65,-31.28C1762.96,-28.8 1739.43,-25.98 1719.75,-23.62"/>
<polygon fill="midnightblue" stroke="midnightblue" points="1783.51,-34.79 1793.86,-32.51 1784.34,-27.84 1783.51,-34.79"/>
</g>
<!-- Node3 -->
<g id="node3" class="node">
<title>Node3</title>
<g id="a_node3"><a xlink:href="classCgiExecutor.html#a449e349a961449c342e4612d131bda8e" target="_top" xlink:title=" ">
<polygon fill="white" stroke="black" points="1419,-50 1419,-69 1558,-69 1558,-50 1419,-50"/>
<text text-anchor="middle" x="1488.5" y="-57" font-family="Helvetica,sans-Serif" font-size="10.00">CgiExecutor::executeAsync</text>
</a>
</g>
</g>
<!-- Node2&#45;&gt;Node3 -->
<g id="edge2" class="edge">
<title>Node2&#45;&gt;Node3</title>
<path fill="none" stroke="midnightblue" d="M1583.83,-58.48C1575.22,-58.58 1566.59,-58.67 1558.24,-58.76"/>
<polygon fill="midnightblue" stroke="midnightblue" points="1583.95,-61.98 1593.91,-58.37 1583.87,-54.98 1583.95,-61.98"/>
</g>
<!-- Node4 -->
<g id="node4" class="node">
<title>Node4</title>
<g id="a_node4"><a xlink:href="classClient.html#a2e0da898af07e89fcfd83fe5a3077256" target="_top" xlink:title=" ">
<polygon fill="white" stroke="black" points="1285,-49 1285,-68 1383,-68 1383,-49 1285,-49"/>
<text text-anchor="middle" x="1334" y="-56" font-family="Helvetica,sans-Serif" font-size="10.00">Client::executeCgi</text>
</a>
</g>
</g>
<!-- Node3&#45;&gt;Node4 -->
<g id="edge3" class="edge">
<title>Node3&#45;&gt;Node4</title>
<path fill="none" stroke="midnightblue" d="M1408.66,-58.98C1399.99,-58.93 1391.36,-58.87 1383.23,-58.82"/>
<polygon fill="midnightblue" stroke="midnightblue" points="1408.81,-62.48 1418.83,-59.05 1408.86,-55.48 1408.81,-62.48"/>
</g>
<!-- Node5 -->
<g id="node5" class="node">
<title>Node5</title>
<g id="a_node5"><a xlink:href="classClient.html#a7ce261bf1858a7904f7bb9668188284b" target="_top" xlink:title=" ">
<polygon fill="white" stroke="black" points="1166,-48 1166,-67 1249,-67 1249,-48 1166,-48"/>
<text text-anchor="middle" x="1207.5" y="-55" font-family="Helvetica,sans-Serif" font-size="10.00">Client::startCgi</text>
</a>
</g>
</g>
<!-- Node4&#45;&gt;Node5 -->
<g id="edge4" class="edge">
<title>Node4&#45;&gt;Node5</title>
<path fill="none" stroke="midnightblue" d="M1274.81,-58.03C1266.16,-57.96 1257.41,-57.89 1249.23,-57.83"/>
<polygon fill="midnightblue" stroke="midnightblue" points="1274.84,-61.53 1284.87,-58.11 1274.89,-54.53 1274.84,-61.53"/>
</g>
<!-- Node6 -->
<g id="node6" class="node">
<title>Node6</title>
<g id="a_node6"><a xlink:href="classClient.html#ae523ed90bd32b88e539ebdf30746382b" target="_top" xlink:title=" ">
<polygon fill="white" stroke="black" points="1004.5,-48 1004.5,-67 1117.5,-67 1117.5,-48 1004.5,-48"/>
<text text-anchor="middle" x="1061" y="-55" font-family="Helvetica,sans-Serif" font-size="10.00">Client::dispatchAction</text>
</a>
</g>
</g>
<!-- Node5&#45;&gt;Node6 -->
<g id="edge5" class="edge">
<title>Node5&#45;&gt;Node6</title>
<path fill="none" stroke="midnightblue" d="M1155.77,-57.5C1143.46,-57.5 1130.22,-57.5 1117.69,-57.5"/>
<polygon fill="midnightblue" stroke="midnightblue" points="1155.86,-61 1165.86,-57.5 1155.86,-54 1155.86,-61"/>
</g>
<!-- Node7 -->
<g id="node7" class="node">
<title>Node7</title>
<g id="a_node7"><a xlink:href="classClient.html#a419f8f3253d3f71287044e3999a5d600" target="_top" xlink:title=" ">
<polygon fill="white" stroke="black" points="843,-48 843,-67 956,-67 956,-48 843,-48"/>
<text text-anchor="middle" x="899.5" y="-55" font-family="Helvetica,sans-Serif" font-size="10.00">Client::buildResponse</text>
</a>
</g>
</g>
<!-- Node6&#45;&gt;Node7 -->
<g id="edge6" class="edge">
<title>Node6&#45;&gt;Node7</title>
<path fill="none" stroke="midnightblue" d="M993.85,-57.5C981.35,-57.5 968.39,-57.5 956.25,-57.5"/>
<polygon fill="midnightblue" stroke="midnightblue" points="994.21,-61 1004.21,-57.5 994.21,-54 994.21,-61"/>
</g>
<!-- Node8 -->
<g id="node8" class="node">
<title>Node8</title>
<g id="a_node8"><a xlink:href="classClient.html#abcf615f2514ae7e0266315693e73a31a" target="_top" xlink:title=" ">
<polygon fill="white" stroke="black" points="652,-29 652,-48 807,-48 807,-29 652,-29"/>
<text text-anchor="middle" x="729.5" y="-36" font-family="Helvetica,sans-Serif" font-size="10.00">Client::handleCompleteRequest</text>
</a>
</g>
</g>
<!-- Node7&#45;&gt;Node8 -->
<g id="edge7" class="edge">
<title>Node7&#45;&gt;Node8</title>
<path fill="none" stroke="midnightblue" d="M832.54,-50.04C824.2,-49.1 815.62,-48.13 807.14,-47.17"/>
<polygon fill="midnightblue" stroke="midnightblue" points="832.23,-53.53 842.56,-51.17 833.02,-46.57 832.23,-53.53"/>
</g>
<!-- Node9 -->
<g id="node9" class="node">
<title>Node9</title>
<g id="a_node9"><a xlink:href="classClient.html#ac95fe5b24fe5275bd2271bd1ac37596d" target="_top" xlink:title=" ">
<polygon fill="white" stroke="black" points="336,-48 336,-67 436,-67 436,-48 336,-48"/>
<text text-anchor="middle" x="386" y="-55" font-family="Helvetica,sans-Serif" font-size="10.00">Client::handleRead</text>
</a>
</g>
</g>
<!-- Node8&#45;&gt;Node9 -->
<g id="edge8" class="edge">
<title>Node8&#45;&gt;Node9</title>
<path fill="none" stroke="midnightblue" d="M641.61,-43.33C576.51,-46.96 489.78,-51.78 436.2,-54.76"/>
<polygon fill="midnightblue" stroke="midnightblue" points="642.07,-46.81 651.86,-42.76 641.68,-39.82 642.07,-46.81"/>
</g>
<!-- Node12 -->
<g id="node12" class="node">
<title>Node12</title>
<g id="a_node12"><a xlink:href="classClient.html#a950fd2ab8ac20c9be4c5e722344d6fe2" target="_top" xlink:title=" ">
<polygon fill="white" stroke="black" points="491,-10 491,-29 616,-29 616,-10 491,-10"/>
<text text-anchor="middle" x="553.5" y="-17" font-family="Helvetica,sans-Serif" font-size="10.00">Client::processRequests</text>
</a>
</g>
</g>
<!-- Node8&#45;&gt;Node12 -->
<g id="edge11" class="edge">
<title>Node8&#45;&gt;Node12</title>
<path fill="none" stroke="midnightblue" d="M641.81,-29.03C633.17,-28.09 624.52,-27.15 616.22,-26.24"/>
<polygon fill="midnightblue" stroke="midnightblue" points="641.61,-32.53 651.93,-30.14 642.37,-25.57 641.61,-32.53"/>
</g>
<!-- Node10 -->
<g id="node10" class="node">
<title>Node10</title>
<g id="a_node10"><a xlink:href="classServerManager.html#a9f3ca46da9df004286f90902b8daf29d" target="_top" xlink:title=" ">
<polygon fill="white" stroke="black" points="138,-42.5 138,-72.5 281,-72.5 281,-42.5 138,-42.5"/>
<text text-anchor="start" x="146" y="-60.5" font-family="Helvetica,sans-Serif" font-size="10.00">ServerManager::handleClient</text>
<text text-anchor="middle" x="209.5" y="-49.5" font-family="Helvetica,sans-Serif" font-size="10.00">Event</text>
</a>
</g>
</g>
<!-- Node9&#45;&gt;Node10 -->
<g id="edge9" class="edge">
<title>Node9&#45;&gt;Node10</title>
<path fill="none" stroke="midnightblue" d="M325.69,-57.5C311.33,-57.5 295.84,-57.5 281.02,-57.5"/>
<polygon fill="midnightblue" stroke="midnightblue" points="325.93,-61 335.93,-57.5 325.93,-54 325.93,-61"/>
</g>
<!-- Node11 -->
<g id="node11" class="node">
<title>Node11</title>
<g id="a_node11"><a xlink:href="classServerManager.html#aecc313c9b6afcab92c22269b3333c721" target="_top" xlink:title=" ">
<polygon fill="white" stroke="black" points="0,-48 0,-67 102,-67 102,-48 0,-48"/>
<text text-anchor="middle" x="51" y="-55" font-family="Helvetica,sans-Serif" font-size="10.00">ServerManager::run</text>
</a>
</g>
</g>
<!-- Node10&#45;&gt;Node11 -->
<g id="edge10" class="edge">
<title>Node10&#45;&gt;Node11</title>
<path fill="none" stroke="midnightblue" d="M127.45,-57.5C118.82,-57.5 110.23,-57.5 102.11,-57.5"/>
<polygon fill="midnightblue" stroke="midnightblue" points="127.58,-61 137.58,-57.5 127.58,-54 127.58,-61"/>
</g>
<!-- Node12&#45;&gt;Node9 -->
<g id="edge13" class="edge">
<title>Node12&#45;&gt;Node9</title>
<path fill="none" stroke="midnightblue" d="M500.69,-31.4C477.43,-36.74 450.35,-42.95 428.46,-47.98"/>
<polygon fill="midnightblue" stroke="midnightblue" points="501.77,-34.74 510.74,-29.09 500.21,-27.92 501.77,-34.74"/>
</g>
<!-- Node13 -->
<g id="node13" class="node">
<title>Node13</title>
<g id="a_node13"><a xlink:href="classClient.html#a09d6029b60ae8c9773362968e72f2e54" target="_top" xlink:title=" ">
<polygon fill="white" stroke="black" points="317,-10 317,-29 455,-29 455,-10 317,-10"/>
<text text-anchor="middle" x="386" y="-17" font-family="Helvetica,sans-Serif" font-size="10.00">Client::finalizeCgiResponse</text>
</a>
</g>
</g>
<!-- Node12&#45;&gt;Node13 -->
<g id="edge12" class="edge">
<title>Node12&#45;&gt;Node13</title>
<path fill="none" stroke="midnightblue" d="M480.63,-19.5C472.14,-19.5 463.5,-19.5 455.07,-19.5"/>
<polygon fill="midnightblue" stroke="midnightblue" points="480.87,-23 490.87,-19.5 480.87,-16 480.87,-23"/>
</g>
<!-- Node15 -->
<g id="node15" class="node">
<title>Node15</title>
<g id="a_node15"><a xlink:href="classRequestProcessor.html#a606f9c02a3166ca58e6930f8d292d81c" target="_top" xlink:title=" ">
<polygon fill="white" stroke="black" points="1422.5,-0.5 1422.5,-30.5 1554.5,-30.5 1554.5,-0.5 1422.5,-0.5"/>
<text text-anchor="start" x="1430.5" y="-18.5" font-family="Helvetica,sans-Serif" font-size="10.00">RequestProcessor::handle</text>
<text text-anchor="middle" x="1488.5" y="-7.5" font-family="Helvetica,sans-Serif" font-size="10.00">LocationValidation</text>
</a>
</g>
</g>
<!-- Node14&#45;&gt;Node15 -->
<g id="edge15" class="edge">
<title>Node14&#45;&gt;Node15</title>
<path fill="none" stroke="midnightblue" d="M1622.42,-17.65C1601.38,-17.31 1576.93,-16.91 1554.78,-16.56"/>
<polygon fill="midnightblue" stroke="midnightblue" points="1622.39,-21.15 1632.44,-17.81 1622.5,-14.15 1622.39,-21.15"/>
</g>
<!-- Node16 -->
<g id="node16" class="node">
<title>Node16</title>
<g id="a_node16"><a xlink:href="classRequestProcessor.html#a3fa9c97a7d142a7b607002138de87140" target="_top" xlink:title=" ">
<polygon fill="white" stroke="black" points="992,-10 992,-29 1130,-29 1130,-10 992,-10"/>
<text text-anchor="middle" x="1061" y="-17" font-family="Helvetica,sans-Serif" font-size="10.00">RequestProcessor::process</text>
</a>
</g>
</g>
<!-- Node15&#45;&gt;Node16 -->
<g id="edge16" class="edge">
<title>Node15&#45;&gt;Node16</title>
<path fill="none" stroke="midnightblue" d="M1411.94,-16.21C1332.07,-16.96 1207.23,-18.13 1130.25,-18.86"/>
<polygon fill="midnightblue" stroke="midnightblue" points="1412.45,-19.71 1422.41,-16.11 1412.38,-12.71 1412.45,-19.71"/>
</g>
<!-- Node16&#45;&gt;Node7 -->
<g id="edge17" class="edge">
<title>Node16&#45;&gt;Node7</title>
<path fill="none" stroke="midnightblue" d="M1009.77,-31.47C987.41,-36.79 961.46,-42.98 940.46,-47.98"/>
<polygon fill="midnightblue" stroke="midnightblue" points="1010.83,-34.81 1019.75,-29.09 1009.21,-28 1010.83,-34.81"/>
</g>
<!-- Node16&#45;&gt;Node8 -->
<g id="edge18" class="edge">
<title>Node16&#45;&gt;Node8</title>
<path fill="none" stroke="midnightblue" d="M981.73,-24.01C928.9,-27.06 859.51,-31.06 807.04,-34.09"/>
<polygon fill="midnightblue" stroke="midnightblue" points="981.95,-27.51 991.73,-23.44 981.54,-20.52 981.95,-27.51"/>
</g>
</g>
</svg>
