<?xml version="1.0" encoding="UTF-8" standalone="no"?>
<!DOCTYPE svg PUBLIC "-//W3C//DTD SVG 1.1//EN"
 "http://www.w3.org/Graphics/SVG/1.1/DTD/svg11.dtd">
<!-- Generated by graphviz version 2.43.0 (0)
 -->
<!-- Title: resolvePath Pages: 1 -->
<svg width="1743pt" height="495pt"
 viewBox="0.00 0.00 1743.00 494.79" xmlns="http://www.w3.org/2000/svg" xmlns:xlink="http://www.w3.org/1999/xlink">
<g id="graph0" class="graph" transform="scale(1 1) rotate(0) translate(4 490.79)">
<title>resolvePath</title>
<polygon fill="white" stroke="transparent" points="-4,4 -4,-490.79 1739,-490.79 1739,4 -4,4"/>
<!-- Node1 -->
<g id="node1" class="node">
<title>Node1</title>
<g id="a_node1"><a xlink:title=" ">
<polygon fill="#bfbfbf" stroke="black" points="1667,-113.79 1667,-132.79 1735,-132.79 1735,-113.79 1667,-113.79"/>
<text text-anchor="middle" x="1701" y="-120.79" font-family="Helvetica,sans-Serif" font-size="10.00">resolvePath</text>
</a>
</g>
</g>
<!-- Node2 -->
<g id="node2" class="node">
<title>Node2</title>
<g id="a_node2"><a xlink:href="ErrorUtils_8cpp.html#a470416220aa911b8f1274140a8322e7a" target="_top" xlink:title=" ">
<polygon fill="white" stroke="black" points="1529,-227.79 1529,-246.79 1631,-246.79 1631,-227.79 1529,-227.79"/>
<text text-anchor="middle" x="1580" y="-234.79" font-family="Helvetica,sans-Serif" font-size="10.00">buildErrorResponse</text>
</a>
</g>
</g>
<!-- Node1&#45;&gt;Node2 -->
<g id="edge1" class="edge">
<title>Node1&#45;&gt;Node2</title>
<path fill="none" stroke="midnightblue" d="M1682.43,-140.12C1657.16,-164.33 1611.39,-208.18 1591.12,-227.59"/>
<polygon fill="midnightblue" stroke="midnightblue" points="1685.05,-142.45 1689.85,-133.01 1680.21,-137.4 1685.05,-142.45"/>
</g>
<!-- Node13 -->
<g id="node13" class="node">
<title>Node13</title>
<g id="a_node13"><a xlink:href="classRequestProcessor.html#a3fa9c97a7d142a7b607002138de87140" target="_top" xlink:title=" ">
<polygon fill="white" stroke="black" points="1011,-144.79 1011,-163.79 1149,-163.79 1149,-144.79 1011,-144.79"/>
<text text-anchor="middle" x="1080" y="-151.79" font-family="Helvetica,sans-Serif" font-size="10.00">RequestProcessor::process</text>
</a>
</g>
</g>
<!-- Node1&#45;&gt;Node13 -->
<g id="edge33" class="edge">
<title>Node1&#45;&gt;Node13</title>
<path fill="none" stroke="midnightblue" d="M1674.97,-108.51C1597.97,-65.12 1359.3,53.85 1185,-28.29 1132.14,-53.2 1097.01,-119.61 1085.3,-144.6"/>
<polygon fill="midnightblue" stroke="midnightblue" points="1673.53,-111.72 1683.95,-113.64 1677,-105.64 1673.53,-111.72"/>
</g>
<!-- Node3 -->
<g id="node3" class="node">
<title>Node3</title>
<g id="a_node3"><a xlink:href="classClient.html#a3b000abab7a3fe339f0f39ad5daca68f" target="_top" xlink:title=" ">
<polygon fill="white" stroke="black" points="1368,-379.79 1368,-398.79 1493,-398.79 1493,-379.79 1368,-379.79"/>
<text text-anchor="middle" x="1430.5" y="-386.79" font-family="Helvetica,sans-Serif" font-size="10.00">Client::checkCgiTimeout</text>
</a>
</g>
</g>
<!-- Node2&#45;&gt;Node3 -->
<g id="edge2" class="edge">
<title>Node2&#45;&gt;Node3</title>
<path fill="none" stroke="midnightblue" d="M1570.7,-256.46C1557.85,-284.11 1530.6,-335.15 1493,-365.29 1485.31,-371.45 1475.84,-376.19 1466.67,-379.75"/>
<polygon fill="midnightblue" stroke="midnightblue" points="1574,-257.66 1574.92,-247.11 1567.62,-254.79 1574,-257.66"/>
</g>
<!-- Node4 -->
<g id="node4" class="node">
<title>Node4</title>
<g id="a_node4"><a xlink:href="classClient.html#ae523ed90bd32b88e539ebdf30746382b" target="_top" xlink:title=" ">
<polygon fill="white" stroke="black" points="1023.5,-341.79 1023.5,-360.79 1136.5,-360.79 1136.5,-341.79 1023.5,-341.79"/>
<text text-anchor="middle" x="1080" y="-348.79" font-family="Helvetica,sans-Serif" font-size="10.00">Client::dispatchAction</text>
</a>
</g>
</g>
<!-- Node2&#45;&gt;Node4 -->
<g id="edge3" class="edge">
<title>Node2&#45;&gt;Node4</title>
<path fill="none" stroke="midnightblue" d="M1568.78,-255.5C1554.93,-278.15 1527.86,-315.85 1493,-332.29 1373.35,-388.71 1211.82,-373.59 1131.17,-360.8"/>
<polygon fill="midnightblue" stroke="midnightblue" points="1571.83,-257.21 1573.89,-246.82 1565.8,-253.66 1571.83,-257.21"/>
</g>
<!-- Node11 -->
<g id="node11" class="node">
<title>Node11</title>
<g id="a_node11"><a xlink:href="classClient.html#a09d6029b60ae8c9773362968e72f2e54" target="_top" xlink:title=" ">
<polygon fill="white" stroke="black" points="317,-417.79 317,-436.79 455,-436.79 455,-417.79 317,-417.79"/>
<text text-anchor="middle" x="386" y="-424.79" font-family="Helvetica,sans-Serif" font-size="10.00">Client::finalizeCgiResponse</text>
</a>
</g>
</g>
<!-- Node2&#45;&gt;Node11 -->
<g id="edge12" class="edge">
<title>Node2&#45;&gt;Node11</title>
<path fill="none" stroke="midnightblue" d="M1575.61,-256.73C1568.06,-293.43 1546.19,-372.44 1493,-408.29 1406.66,-466.48 1363.62,-427.29 1259.5,-427.29 1259.5,-427.29 1259.5,-427.29 728.5,-427.29 633.64,-427.29 523.96,-427.29 455.03,-427.29"/>
<polygon fill="midnightblue" stroke="midnightblue" points="1579.06,-257.27 1577.5,-246.79 1572.19,-255.96 1579.06,-257.27"/>
</g>
<!-- Node12 -->
<g id="node12" class="node">
<title>Node12</title>
<g id="a_node12"><a xlink:href="classRequestProcessor.html#a79915b1a2fda205b7d5a6c92e5e3fce8" target="_top" xlink:title=" ">
<polygon fill="white" stroke="black" points="1185,-37.79 1185,-56.79 1332,-56.79 1332,-37.79 1185,-37.79"/>
<text text-anchor="middle" x="1258.5" y="-44.79" font-family="Helvetica,sans-Serif" font-size="10.00">RequestProcessor::handleCgi</text>
</a>
</g>
</g>
<!-- Node2&#45;&gt;Node12 -->
<g id="edge13" class="edge">
<title>Node2&#45;&gt;Node12</title>
<path fill="none" stroke="midnightblue" d="M1575.13,-217.53C1566.97,-181.64 1544.33,-106.23 1493,-71.29 1446.09,-39.36 1381.12,-35.07 1331.63,-37.79"/>
<polygon fill="midnightblue" stroke="midnightblue" points="1571.79,-218.64 1577.29,-227.7 1578.64,-217.19 1571.79,-218.64"/>
</g>
<!-- Node2&#45;&gt;Node13 -->
<g id="edge32" class="edge">
<title>Node2&#45;&gt;Node13</title>
<path fill="none" stroke="midnightblue" d="M1570.28,-218.43C1557.35,-192.83 1530.53,-147.81 1493,-126.29 1373.97,-58.04 1318.9,-75.33 1185,-105.29 1151.11,-112.87 1115.24,-132.78 1095.74,-144.76"/>
<polygon fill="midnightblue" stroke="midnightblue" points="1567.16,-220.03 1574.68,-227.5 1573.46,-216.97 1567.16,-220.03"/>
</g>
<!-- Node14 -->
<g id="node14" class="node">
<title>Node14</title>
<g id="a_node14"><a xlink:href="classClient.html#a4104efd3f5f7e1c0f3e3302b46861624" target="_top" xlink:title=" ">
<polygon fill="white" stroke="black" points="1375,-457.79 1375,-476.79 1486,-476.79 1486,-457.79 1375,-457.79"/>
<text text-anchor="middle" x="1430.5" y="-464.79" font-family="Helvetica,sans-Serif" font-size="10.00">Client::handleCgiPipe</text>
</a>
</g>
</g>
<!-- Node2&#45;&gt;Node14 -->
<g id="edge17" class="edge">
<title>Node2&#45;&gt;Node14</title>
<path fill="none" stroke="midnightblue" d="M1575.83,-256.81C1568.39,-296.63 1546.27,-387.97 1493,-441.29 1485.79,-448.51 1476.27,-453.83 1466.88,-457.72"/>
<polygon fill="midnightblue" stroke="midnightblue" points="1579.3,-257.27 1577.58,-246.81 1572.41,-256.06 1579.3,-257.27"/>
</g>
<!-- Node16 -->
<g id="node16" class="node">
<title>Node16</title>
<g id="a_node16"><a xlink:href="StaticPathHandler_8cpp.html#a28a771d93d3051098585ebc34ed29855" target="_top" xlink:title=" ">
<polygon fill="white" stroke="black" points="1388,-227.79 1388,-246.79 1473,-246.79 1473,-227.79 1388,-227.79"/>
<text text-anchor="middle" x="1430.5" y="-234.79" font-family="Helvetica,sans-Serif" font-size="10.00">handleDirectory</text>
</a>
</g>
</g>
<!-- Node2&#45;&gt;Node16 -->
<g id="edge20" class="edge">
<title>Node2&#45;&gt;Node16</title>
<path fill="none" stroke="midnightblue" d="M1518.32,-237.29C1503.19,-237.29 1487.29,-237.29 1473.29,-237.29"/>
<polygon fill="midnightblue" stroke="midnightblue" points="1518.65,-240.79 1528.65,-237.29 1518.65,-233.79 1518.65,-240.79"/>
</g>
<!-- Node17 -->
<g id="node17" class="node">
<title>Node17</title>
<g id="a_node17"><a xlink:href="StaticPathHandler_8cpp.html#a4e092999675b45373270f5408cbe64c7" target="_top" xlink:title=" ">
<polygon fill="white" stroke="black" points="1213,-227.79 1213,-246.79 1304,-246.79 1304,-227.79 1213,-227.79"/>
<text text-anchor="middle" x="1258.5" y="-234.79" font-family="Helvetica,sans-Serif" font-size="10.00">handleStaticPath</text>
</a>
</g>
</g>
<!-- Node2&#45;&gt;Node17 -->
<g id="edge29" class="edge">
<title>Node2&#45;&gt;Node17</title>
<path fill="none" stroke="midnightblue" d="M1534.34,-249.09C1521.13,-252.05 1506.57,-254.81 1493,-256.29 1437.77,-262.32 1423.35,-261.1 1368,-256.29 1346.66,-254.44 1323.23,-250.57 1303.61,-246.8"/>
<polygon fill="midnightblue" stroke="midnightblue" points="1535.2,-252.48 1544.14,-246.8 1533.61,-245.66 1535.2,-252.48"/>
</g>
<!-- Node18 -->
<g id="node18" class="node">
<title>Node18</title>
<g id="a_node18"><a xlink:href="classRequestProcessor.html#a606f9c02a3166ca58e6930f8d292d81c" target="_top" xlink:title=" ">
<polygon fill="white" stroke="black" points="1192.5,-163.29 1192.5,-193.29 1324.5,-193.29 1324.5,-163.29 1192.5,-163.29"/>
<text text-anchor="start" x="1200.5" y="-181.29" font-family="Helvetica,sans-Serif" font-size="10.00">RequestProcessor::handle</text>
<text text-anchor="middle" x="1258.5" y="-170.29" font-family="Helvetica,sans-Serif" font-size="10.00">LocationValidation</text>
</a>
</g>
</g>
<!-- Node2&#45;&gt;Node18 -->
<g id="edge23" class="edge">
<title>Node2&#45;&gt;Node18</title>
<path fill="none" stroke="midnightblue" d="M1561.25,-221C1544.9,-207.17 1519.25,-188.32 1493,-180.29 1438.05,-163.48 1372.36,-164.67 1324.68,-169.08"/>
<polygon fill="midnightblue" stroke="midnightblue" points="1559.08,-223.75 1568.91,-227.7 1563.69,-218.48 1559.08,-223.75"/>
</g>
<!-- Node19 -->
<g id="node19" class="node">
<title>Node19</title>
<g id="a_node19"><a xlink:href="classRequestProcessor.html#a10779d8453416feeda2174859c00d082" target="_top" xlink:title=" ">
<polygon fill="white" stroke="black" points="1192.5,-114.29 1192.5,-144.29 1324.5,-144.29 1324.5,-114.29 1192.5,-114.29"/>
<text text-anchor="start" x="1200.5" y="-132.29" font-family="Helvetica,sans-Serif" font-size="10.00">RequestProcessor::handle</text>
<text text-anchor="middle" x="1258.5" y="-121.29" font-family="Helvetica,sans-Serif" font-size="10.00">ParseOrMethodErrors</text>
</a>
</g>
</g>
<!-- Node2&#45;&gt;Node19 -->
<g id="edge25" class="edge">
<title>Node2&#45;&gt;Node19</title>
<path fill="none" stroke="midnightblue" d="M1564.72,-219.66C1549.12,-201.75 1522.42,-174.78 1493,-161.29 1439.81,-136.9 1373.19,-129.77 1324.73,-128.23"/>
<polygon fill="midnightblue" stroke="midnightblue" points="1562.32,-222.24 1571.45,-227.62 1567.67,-217.72 1562.32,-222.24"/>
</g>
<!-- Node20 -->
<g id="node20" class="node">
<title>Node20</title>
<g id="a_node20"><a xlink:href="StaticPathHandler_8cpp.html#a5af8659f0f83e8296b29264dd671af0d" target="_top" xlink:title=" ">
<polygon fill="white" stroke="black" points="1383,-189.79 1383,-208.79 1478,-208.79 1478,-189.79 1383,-189.79"/>
<text text-anchor="middle" x="1430.5" y="-196.79" font-family="Helvetica,sans-Serif" font-size="10.00">handleRegularFile</text>
</a>
</g>
</g>
<!-- Node2&#45;&gt;Node20 -->
<g id="edge27" class="edge">
<title>Node2&#45;&gt;Node20</title>
<path fill="none" stroke="midnightblue" d="M1531.99,-225.18C1511.44,-219.89 1487.7,-213.77 1468.45,-208.81"/>
<polygon fill="midnightblue" stroke="midnightblue" points="1531.22,-228.6 1541.78,-227.7 1532.97,-221.82 1531.22,-228.6"/>
</g>
<!-- Node21 -->
<g id="node21" class="node">
<title>Node21</title>
<g id="a_node21"><a xlink:href="StaticPathHandler_8cpp.html#a638cb25cad6c24877a0e75984110ea7a" target="_top" xlink:title=" ">
<polygon fill="white" stroke="black" points="1392.5,-303.79 1392.5,-322.79 1468.5,-322.79 1468.5,-303.79 1392.5,-303.79"/>
<text text-anchor="middle" x="1430.5" y="-310.79" font-family="Helvetica,sans-Serif" font-size="10.00">handleUpload</text>
</a>
</g>
</g>
<!-- Node2&#45;&gt;Node21 -->
<g id="edge30" class="edge">
<title>Node2&#45;&gt;Node21</title>
<path fill="none" stroke="midnightblue" d="M1556.16,-252.58C1539.17,-263.59 1515.18,-278.36 1493,-289.29 1482.1,-294.66 1469.69,-299.7 1458.88,-303.76"/>
<polygon fill="midnightblue" stroke="midnightblue" points="1558.38,-255.31 1564.82,-246.9 1554.54,-249.46 1558.38,-255.31"/>
</g>
<!-- Node5 -->
<g id="node5" class="node">
<title>Node5</title>
<g id="a_node5"><a xlink:href="classClient.html#a419f8f3253d3f71287044e3999a5d600" target="_top" xlink:title=" ">
<polygon fill="white" stroke="black" points="852.5,-341.79 852.5,-360.79 965.5,-360.79 965.5,-341.79 852.5,-341.79"/>
<text text-anchor="middle" x="909" y="-348.79" font-family="Helvetica,sans-Serif" font-size="10.00">Client::buildResponse</text>
</a>
</g>
</g>
<!-- Node4&#45;&gt;Node5 -->
<g id="edge4" class="edge">
<title>Node4&#45;&gt;Node5</title>
<path fill="none" stroke="midnightblue" d="M1013.07,-351.29C997.42,-351.29 980.89,-351.29 965.75,-351.29"/>
<polygon fill="midnightblue" stroke="midnightblue" points="1013.19,-354.79 1023.19,-351.29 1013.19,-347.79 1013.19,-354.79"/>
</g>
<!-- Node6 -->
<g id="node6" class="node">
<title>Node6</title>
<g id="a_node6"><a xlink:href="classClient.html#abcf615f2514ae7e0266315693e73a31a" target="_top" xlink:title=" ">
<polygon fill="white" stroke="black" points="652,-341.79 652,-360.79 807,-360.79 807,-341.79 652,-341.79"/>
<text text-anchor="middle" x="729.5" y="-348.79" font-family="Helvetica,sans-Serif" font-size="10.00">Client::handleCompleteRequest</text>
</a>
</g>
</g>
<!-- Node5&#45;&gt;Node6 -->
<g id="edge5" class="edge">
<title>Node5&#45;&gt;Node6</title>
<path fill="none" stroke="midnightblue" d="M842.05,-351.29C830.67,-351.29 818.75,-351.29 807.12,-351.29"/>
<polygon fill="midnightblue" stroke="midnightblue" points="842.32,-354.79 852.32,-351.29 842.32,-347.79 842.32,-354.79"/>
</g>
<!-- Node7 -->
<g id="node7" class="node">
<title>Node7</title>
<g id="a_node7"><a xlink:href="classClient.html#ac95fe5b24fe5275bd2271bd1ac37596d" target="_top" xlink:title=" ">
<polygon fill="white" stroke="black" points="336,-379.79 336,-398.79 436,-398.79 436,-379.79 336,-379.79"/>
<text text-anchor="middle" x="386" y="-386.79" font-family="Helvetica,sans-Serif" font-size="10.00">Client::handleRead</text>
</a>
</g>
</g>
<!-- Node6&#45;&gt;Node7 -->
<g id="edge6" class="edge">
<title>Node6&#45;&gt;Node7</title>
<path fill="none" stroke="midnightblue" d="M641.78,-356.12C596.7,-359.16 540.76,-363.77 491,-370.29 472.07,-372.77 451.36,-376.37 433.44,-379.77"/>
<polygon fill="midnightblue" stroke="midnightblue" points="642.07,-359.61 651.82,-355.46 641.61,-352.62 642.07,-359.61"/>
</g>
<!-- Node10 -->
<g id="node10" class="node">
<title>Node10</title>
<g id="a_node10"><a xlink:href="classClient.html#a950fd2ab8ac20c9be4c5e722344d6fe2" target="_top" xlink:title=" ">
<polygon fill="white" stroke="black" points="491,-379.79 491,-398.79 616,-398.79 616,-379.79 491,-379.79"/>
<text text-anchor="middle" x="553.5" y="-386.79" font-family="Helvetica,sans-Serif" font-size="10.00">Client::processRequests</text>
</a>
</g>
</g>
<!-- Node6&#45;&gt;Node10 -->
<g id="edge9" class="edge">
<title>Node6&#45;&gt;Node10</title>
<path fill="none" stroke="midnightblue" d="M674.69,-363.04C650.08,-368.42 621.31,-374.7 598.09,-379.77"/>
<polygon fill="midnightblue" stroke="midnightblue" points="675.57,-366.43 684.59,-360.88 674.08,-359.59 675.57,-366.43"/>
</g>
<!-- Node8 -->
<g id="node8" class="node">
<title>Node8</title>
<g id="a_node8"><a xlink:href="classServerManager.html#a9f3ca46da9df004286f90902b8daf29d" target="_top" xlink:title=" ">
<polygon fill="white" stroke="black" points="138,-393.29 138,-423.29 281,-423.29 281,-393.29 138,-393.29"/>
<text text-anchor="start" x="146" y="-411.29" font-family="Helvetica,sans-Serif" font-size="10.00">ServerManager::handleClient</text>
<text text-anchor="middle" x="209.5" y="-400.29" font-family="Helvetica,sans-Serif" font-size="10.00">Event</text>
</a>
</g>
</g>
<!-- Node7&#45;&gt;Node8 -->
<g id="edge7" class="edge">
<title>Node7&#45;&gt;Node8</title>
<path fill="none" stroke="midnightblue" d="M325.69,-395.75C311.33,-397.31 295.84,-399 281.02,-400.61"/>
<polygon fill="midnightblue" stroke="midnightblue" points="326.37,-399.19 335.93,-394.63 325.61,-392.24 326.37,-399.19"/>
</g>
<!-- Node9 -->
<g id="node9" class="node">
<title>Node9</title>
<g id="a_node9"><a xlink:href="classServerManager.html#aecc313c9b6afcab92c22269b3333c721" target="_top" xlink:title=" ">
<polygon fill="white" stroke="black" points="0,-420.79 0,-439.79 102,-439.79 102,-420.79 0,-420.79"/>
<text text-anchor="middle" x="51" y="-427.79" font-family="Helvetica,sans-Serif" font-size="10.00">ServerManager::run</text>
</a>
</g>
</g>
<!-- Node8&#45;&gt;Node9 -->
<g id="edge8" class="edge">
<title>Node8&#45;&gt;Node9</title>
<path fill="none" stroke="midnightblue" d="M127.45,-419.68C118.82,-420.9 110.23,-422.1 102.11,-423.25"/>
<polygon fill="midnightblue" stroke="midnightblue" points="128.16,-423.12 137.58,-418.26 127.19,-416.19 128.16,-423.12"/>
</g>
<!-- Node10&#45;&gt;Node7 -->
<g id="edge11" class="edge">
<title>Node10&#45;&gt;Node7</title>
<path fill="none" stroke="midnightblue" d="M480.56,-389.29C465.52,-389.29 449.99,-389.29 436.02,-389.29"/>
<polygon fill="midnightblue" stroke="midnightblue" points="480.87,-392.79 490.87,-389.29 480.87,-385.79 480.87,-392.79"/>
</g>
<!-- Node10&#45;&gt;Node11 -->
<g id="edge10" class="edge">
<title>Node10&#45;&gt;Node11</title>
<path fill="none" stroke="midnightblue" d="M500.69,-401.19C477.43,-406.53 450.35,-412.74 428.46,-417.77"/>
<polygon fill="midnightblue" stroke="midnightblue" points="501.77,-404.53 510.74,-398.88 500.21,-397.71 501.77,-404.53"/>
</g>
<!-- Node12&#45;&gt;Node13 -->
<g id="edge14" class="edge">
<title>Node12&#45;&gt;Node13</title>
<path fill="none" stroke="midnightblue" d="M1210.57,-60.12C1201.83,-63.25 1192.96,-66.98 1185,-71.29 1146.41,-92.2 1107.81,-127.79 1090.48,-144.75"/>
<polygon fill="midnightblue" stroke="midnightblue" points="1211.96,-63.34 1220.31,-56.82 1209.72,-56.71 1211.96,-63.34"/>
</g>
<!-- Node13&#45;&gt;Node5 -->
<g id="edge15" class="edge">
<title>Node13&#45;&gt;Node5</title>
<path fill="none" stroke="midnightblue" d="M1064.33,-171.39C1030.05,-211.35 945.51,-309.89 918.47,-341.42"/>
<polygon fill="midnightblue" stroke="midnightblue" points="1066.99,-173.66 1070.85,-163.79 1061.68,-169.1 1066.99,-173.66"/>
</g>
<!-- Node13&#45;&gt;Node6 -->
<g id="edge16" class="edge">
<title>Node13&#45;&gt;Node6</title>
<path fill="none" stroke="midnightblue" d="M1053.45,-168.73C985.94,-206.9 804.13,-309.67 747.55,-341.65"/>
<polygon fill="midnightblue" stroke="midnightblue" points="1055.21,-171.76 1062.19,-163.79 1051.76,-165.67 1055.21,-171.76"/>
</g>
<!-- Node15 -->
<g id="node15" class="node">
<title>Node15</title>
<g id="a_node15"><a xlink:href="classServerManager.html#a9c75ea0bd268425c187ef25770eccbe8" target="_top" xlink:title=" ">
<polygon fill="white" stroke="black" points="843,-456.29 843,-486.29 975,-486.29 975,-456.29 843,-456.29"/>
<text text-anchor="start" x="851" y="-474.29" font-family="Helvetica,sans-Serif" font-size="10.00">ServerManager::handleCgi</text>
<text text-anchor="middle" x="909" y="-463.29" font-family="Helvetica,sans-Serif" font-size="10.00">PipeEvent</text>
</a>
</g>
</g>
<!-- Node14&#45;&gt;Node15 -->
<g id="edge18" class="edge">
<title>Node14&#45;&gt;Node15</title>
<path fill="none" stroke="midnightblue" d="M1364.65,-467.79C1264.95,-468.56 1075.11,-470.02 975.2,-470.79"/>
<polygon fill="midnightblue" stroke="midnightblue" points="1364.91,-471.29 1374.89,-467.71 1364.86,-464.29 1364.91,-471.29"/>
</g>
<!-- Node15&#45;&gt;Node9 -->
<g id="edge19" class="edge">
<title>Node15&#45;&gt;Node9</title>
<path fill="none" stroke="midnightblue" d="M832.58,-470.28C761.01,-469.41 650.43,-468.29 554.5,-468.29 554.5,-468.29 554.5,-468.29 385,-468.29 284.04,-468.29 166.98,-450.84 102.01,-439.59"/>
<polygon fill="midnightblue" stroke="midnightblue" points="832.81,-473.78 842.85,-470.41 832.89,-466.78 832.81,-473.78"/>
</g>
<!-- Node16&#45;&gt;Node17 -->
<g id="edge21" class="edge">
<title>Node16&#45;&gt;Node17</title>
<path fill="none" stroke="midnightblue" d="M1377.78,-237.29C1354.31,-237.29 1326.8,-237.29 1304.23,-237.29"/>
<polygon fill="midnightblue" stroke="midnightblue" points="1377.91,-240.79 1387.91,-237.29 1377.91,-233.79 1377.91,-240.79"/>
</g>
<!-- Node17&#45;&gt;Node13 -->
<g id="edge22" class="edge">
<title>Node17&#45;&gt;Node13</title>
<path fill="none" stroke="midnightblue" d="M1228.09,-223.51C1214.91,-217.34 1199.17,-209.95 1185,-203.29 1155.92,-189.62 1122.28,-173.76 1101.32,-163.88"/>
<polygon fill="midnightblue" stroke="midnightblue" points="1226.64,-226.7 1237.18,-227.77 1229.61,-220.36 1226.64,-226.7"/>
</g>
<!-- Node18&#45;&gt;Node13 -->
<g id="edge24" class="edge">
<title>Node18&#45;&gt;Node13</title>
<path fill="none" stroke="midnightblue" d="M1182.29,-168.06C1171.3,-166.57 1160.04,-165.04 1149.2,-163.56"/>
<polygon fill="midnightblue" stroke="midnightblue" points="1181.9,-171.54 1192.28,-169.42 1182.84,-164.61 1181.9,-171.54"/>
</g>
<!-- Node19&#45;&gt;Node13 -->
<g id="edge26" class="edge">
<title>Node19&#45;&gt;Node13</title>
<path fill="none" stroke="midnightblue" d="M1182.08,-139.97C1170.86,-141.56 1159.35,-143.19 1148.32,-144.75"/>
<polygon fill="midnightblue" stroke="midnightblue" points="1182.87,-143.4 1192.28,-138.53 1181.89,-136.46 1182.87,-143.4"/>
</g>
<!-- Node20&#45;&gt;Node17 -->
<g id="edge28" class="edge">
<title>Node20&#45;&gt;Node17</title>
<path fill="none" stroke="midnightblue" d="M1376.6,-211.11C1352.63,-216.47 1324.68,-222.72 1302.09,-227.77"/>
<polygon fill="midnightblue" stroke="midnightblue" points="1377.61,-214.48 1386.6,-208.88 1376.08,-207.64 1377.61,-214.48"/>
</g>
<!-- Node21&#45;&gt;Node17 -->
<g id="edge31" class="edge">
<title>Node21&#45;&gt;Node17</title>
<path fill="none" stroke="midnightblue" d="M1394.4,-300.11C1385.72,-296.71 1376.48,-292.97 1368,-289.29 1336.19,-275.48 1300.01,-257.72 1278.51,-246.93"/>
<polygon fill="midnightblue" stroke="midnightblue" points="1393.3,-303.44 1403.89,-303.79 1395.83,-296.91 1393.3,-303.44"/>
</g>
</g>
</svg>
