<?xml version="1.0" encoding="UTF-8" standalone="no"?>
<!DOCTYPE svg PUBLIC "-//W3C//DTD SVG 1.1//EN"
 "http://www.w3.org/Graphics/SVG/1.1/DTD/svg11.dtd">
<!-- Generated by graphviz version 2.43.0 (0)
 -->
<!-- Title: src/client/RequestProcessorUtils.hpp Pages: 1 -->
<!--zoomable 207 -->
<svg id="main" version="1.1" xmlns="http://www.w3.org/2000/svg" xmlns:xlink="http://www.w3.org/1999/xlink" xml:space="preserve" onload="init(evt)">
<style type="text/css"><![CDATA[
.edge:hover path { stroke: red; }
.edge:hover polygon { stroke: red; fill: red; }
]]></style>
<script type="text/javascript"><![CDATA[
var edges = document.getElementsByTagName('g');
if (edges && edges.length) {
  for (var i=0;i<edges.length;i++) {
    if (edges[i].id.substr(0,4)=='edge') {
      edges[i].setAttribute('class','edge');
    }
  }
}
]]></script>
        <defs>
                <circle id="rim" cx="0" cy="0" r="7"/>
                <circle id="rim2" cx="0" cy="0" r="3.5"/>
                <g id="zoomPlus">
                        <use xlink:href="#rim" fill="#404040">
                                <set attributeName="fill" to="#808080" begin="zoomplus.mouseover" end="zoomplus.mouseout"/>
                        </use>
                        <path d="M-4,0h8M0,-4v8" fill="none" stroke="white" stroke-width="1.5" pointer-events="none"/>
                </g>
                <g id="zoomMin">
                        <use xlink:href="#rim" fill="#404040">
                                <set attributeName="fill" to="#808080" begin="zoomminus.mouseover" end="zoomminus.mouseout"/>
                        </use>
                        <path d="M-4,0h8" fill="none" stroke="white" stroke-width="1.5" pointer-events="none"/>
                </g>
                <g id="dirArrow">
                        <path fill="none" stroke="white" stroke-width="1.5" d="M0,-3.0v7 M-2.5,-0.5L0,-3.0L2.5,-0.5"/>
                </g>
               <g id="resetDef">
                       <use xlink:href="#rim2" fill="#404040">
                               <set attributeName="fill" to="#808080" begin="reset.mouseover" end="reset.mouseout"/>
                       </use>
               </g>
        </defs>

<script type="text/javascript">
var viewWidth = 595;
var viewHeight = 207;
var sectionId = 'dynsection-0';
</script>
<script xlink:href="svgpan.js"/>
<svg id="graph" class="graph">
<g id="viewport">
<title>src/client/RequestProcessorUtils.hpp</title>
<polygon fill="white" stroke="transparent" points="-4,4 -4,-203 590.69,-203 590.69,4 -4,4"/>
<!-- Node1 -->
<g id="node1" class="node">
<title>Node1</title>
<g id="a_node1"><a xlink:title=" ">
<polygon fill="#bfbfbf" stroke="black" points="278.93,-168.5 278.93,-198.5 418.93,-198.5 418.93,-168.5 278.93,-168.5"/>
<text text-anchor="start" x="286.93" y="-186.5" font-family="Helvetica,sans-Serif" font-size="10.00">src/client/RequestProcessor</text>
<text text-anchor="middle" x="348.93" y="-175.5" font-family="Helvetica,sans-Serif" font-size="10.00">Utils.hpp</text>
</a>
</g>
</g>
<!-- Node2 -->
<g id="node2" class="node">
<title>Node2</title>
<g id="a_node2"><a xlink:title=" ">
<polygon fill="white" stroke="#bfbfbf" points="155.43,-0.5 155.43,-19.5 196.43,-19.5 196.43,-0.5 155.43,-0.5"/>
<text text-anchor="middle" x="175.93" y="-7.5" font-family="Helvetica,sans-Serif" font-size="10.00">string</text>
</a>
</g>
</g>
<!-- Node1&#45;&gt;Node2 -->
<g id="edge1" class="edge">
<title>Node1&#45;&gt;Node2</title>
<path fill="none" stroke="midnightblue" d="M278.67,-170.69C188.3,-153.88 39.11,-120.17 6.93,-76 -29.06,-26.61 87.07,-14.75 145.03,-11.9"/>
<polygon fill="midnightblue" stroke="midnightblue" points="145.29,-15.39 155.13,-11.47 144.99,-8.4 145.29,-15.39"/>
</g>
<!-- Node3 -->
<g id="node3" class="node">
<title>Node3</title>
<g id="a_node3"><a xlink:title=" ">
<polygon fill="white" stroke="#bfbfbf" points="519.93,-0.5 519.93,-19.5 563.93,-19.5 563.93,-0.5 519.93,-0.5"/>
<text text-anchor="middle" x="541.93" y="-7.5" font-family="Helvetica,sans-Serif" font-size="10.00">vector</text>
</a>
</g>
</g>
<!-- Node1&#45;&gt;Node3 -->
<g id="edge2" class="edge">
<title>Node1&#45;&gt;Node3</title>
<path fill="none" stroke="midnightblue" d="M419.09,-171.42C474.07,-158.65 547.06,-131.74 582.93,-76 593.84,-59.06 577.6,-39.48 562.46,-26.28"/>
<polygon fill="midnightblue" stroke="midnightblue" points="564.3,-23.26 554.34,-19.65 559.88,-28.69 564.3,-23.26"/>
</g>
<!-- Node4 -->
<g id="node4" class="node">
<title>Node4</title>
<g id="a_node4"><a xlink:href="LocationConfig_8hpp.html" target="_top" xlink:title=" ">
<polygon fill="white" stroke="black" points="242.43,-56.5 242.43,-75.5 381.43,-75.5 381.43,-56.5 242.43,-56.5"/>
<text text-anchor="middle" x="311.93" y="-63.5" font-family="Helvetica,sans-Serif" font-size="10.00">../config/LocationConfig.hpp</text>
</a>
</g>
</g>
<!-- Node1&#45;&gt;Node4 -->
<g id="edge3" class="edge">
<title>Node1&#45;&gt;Node4</title>
<path fill="none" stroke="midnightblue" d="M345.63,-168.31C342.17,-153.97 336.35,-131.24 329.93,-112 326.9,-102.91 323,-93 319.61,-84.8"/>
<polygon fill="midnightblue" stroke="midnightblue" points="322.8,-83.36 315.69,-75.52 316.36,-86.09 322.8,-83.36"/>
</g>
<!-- Node7 -->
<g id="node7" class="node">
<title>Node7</title>
<g id="a_node7"><a xlink:href="ServerConfig_8hpp.html" target="_top" xlink:title=" ">
<polygon fill="white" stroke="black" points="189.43,-112.5 189.43,-131.5 320.43,-131.5 320.43,-112.5 189.43,-112.5"/>
<text text-anchor="middle" x="254.93" y="-119.5" font-family="Helvetica,sans-Serif" font-size="10.00">../config/ServerConfig.hpp</text>
</a>
</g>
</g>
<!-- Node1&#45;&gt;Node7 -->
<g id="edge8" class="edge">
<title>Node1&#45;&gt;Node7</title>
<path fill="none" stroke="midnightblue" d="M326.66,-168.4C311.73,-158.95 292.15,-146.56 277.22,-137.11"/>
<polygon fill="midnightblue" stroke="midnightblue" points="278.93,-134.05 268.61,-131.66 275.19,-139.96 278.93,-134.05"/>
</g>
<!-- Node9 -->
<g id="node9" class="node">
<title>Node9</title>
<g id="a_node9"><a xlink:href="HttpRequest_8hpp.html" target="_top" xlink:title=" ">
<polygon fill="white" stroke="black" points="438.43,-56.5 438.43,-75.5 557.43,-75.5 557.43,-56.5 438.43,-56.5"/>
<text text-anchor="middle" x="497.93" y="-63.5" font-family="Helvetica,sans-Serif" font-size="10.00">../http/HttpRequest.hpp</text>
</a>
</g>
</g>
<!-- Node1&#45;&gt;Node9 -->
<g id="edge16" class="edge">
<title>Node1&#45;&gt;Node9</title>
<path fill="none" stroke="midnightblue" d="M367.2,-168.34C395.51,-146.39 449.72,-104.37 478.64,-81.95"/>
<polygon fill="midnightblue" stroke="midnightblue" points="480.99,-84.56 486.75,-75.67 476.7,-79.03 480.99,-84.56"/>
</g>
<!-- Node4&#45;&gt;Node2 -->
<g id="edge6" class="edge">
<title>Node4&#45;&gt;Node2</title>
<path fill="none" stroke="midnightblue" d="M290.38,-56.44C267.64,-47.41 231.61,-33.11 206.06,-22.96"/>
<polygon fill="midnightblue" stroke="midnightblue" points="207.08,-19.6 196.49,-19.16 204.49,-26.11 207.08,-19.6"/>
</g>
<!-- Node4&#45;&gt;Node3 -->
<g id="edge7" class="edge">
<title>Node4&#45;&gt;Node3</title>
<path fill="none" stroke="midnightblue" d="M348.38,-56.44C392.96,-45.98 467.72,-28.42 510.09,-18.47"/>
<polygon fill="midnightblue" stroke="midnightblue" points="510.95,-21.87 519.88,-16.18 509.35,-15.06 510.95,-21.87"/>
</g>
<!-- Node5 -->
<g id="node5" class="node">
<title>Node5</title>
<g id="a_node5"><a xlink:title=" ">
<polygon fill="white" stroke="#bfbfbf" points="284.93,-0.5 284.93,-19.5 338.93,-19.5 338.93,-0.5 284.93,-0.5"/>
<text text-anchor="middle" x="311.93" y="-7.5" font-family="Helvetica,sans-Serif" font-size="10.00">iostream</text>
</a>
</g>
</g>
<!-- Node4&#45;&gt;Node5 -->
<g id="edge4" class="edge">
<title>Node4&#45;&gt;Node5</title>
<path fill="none" stroke="midnightblue" d="M311.93,-56.08C311.93,-49.01 311.93,-38.86 311.93,-29.99"/>
<polygon fill="midnightblue" stroke="midnightblue" points="315.43,-29.75 311.93,-19.75 308.43,-29.75 315.43,-29.75"/>
</g>
<!-- Node6 -->
<g id="node6" class="node">
<title>Node6</title>
<g id="a_node6"><a xlink:title=" ">
<polygon fill="white" stroke="#bfbfbf" points="392.43,-0.5 392.43,-19.5 427.43,-19.5 427.43,-0.5 392.43,-0.5"/>
<text text-anchor="middle" x="409.93" y="-7.5" font-family="Helvetica,sans-Serif" font-size="10.00">map</text>
</a>
</g>
</g>
<!-- Node4&#45;&gt;Node6 -->
<g id="edge5" class="edge">
<title>Node4&#45;&gt;Node6</title>
<path fill="none" stroke="midnightblue" d="M327.68,-56.32C343.25,-47.74 367.31,-34.49 385.39,-24.52"/>
<polygon fill="midnightblue" stroke="midnightblue" points="387.16,-27.55 394.23,-19.65 383.78,-21.42 387.16,-27.55"/>
</g>
<!-- Node7&#45;&gt;Node2 -->
<g id="edge11" class="edge">
<title>Node7&#45;&gt;Node2</title>
<path fill="none" stroke="midnightblue" d="M248.73,-112.37C235.7,-94.22 205.23,-51.8 188.13,-27.99"/>
<polygon fill="midnightblue" stroke="midnightblue" points="190.78,-25.67 182.1,-19.59 185.09,-29.76 190.78,-25.67"/>
</g>
<!-- Node7&#45;&gt;Node3 -->
<g id="edge12" class="edge">
<title>Node7&#45;&gt;Node3</title>
<path fill="none" stroke="midnightblue" d="M320.51,-121.19C402.44,-119.87 535.72,-112.04 566.93,-76 578.99,-62.07 567.84,-41.7 556.83,-27.48"/>
<polygon fill="midnightblue" stroke="midnightblue" points="559.3,-24.98 550.21,-19.54 553.93,-29.46 559.3,-24.98"/>
</g>
<!-- Node7&#45;&gt;Node4 -->
<g id="edge13" class="edge">
<title>Node7&#45;&gt;Node4</title>
<path fill="none" stroke="midnightblue" d="M264.09,-112.32C272.43,-104.42 284.96,-92.55 295.11,-82.94"/>
<polygon fill="midnightblue" stroke="midnightblue" points="297.75,-85.25 302.61,-75.83 292.94,-80.17 297.75,-85.25"/>
</g>
<!-- Node7&#45;&gt;Node5 -->
<g id="edge9" class="edge">
<title>Node7&#45;&gt;Node5</title>
<path fill="none" stroke="midnightblue" d="M247.66,-112.1C237.98,-99.11 223.26,-74.48 233.93,-56 242.93,-40.42 259.61,-29.75 275.24,-22.73"/>
<polygon fill="midnightblue" stroke="midnightblue" points="276.84,-25.85 284.76,-18.81 274.18,-19.38 276.84,-25.85"/>
</g>
<!-- Node7&#45;&gt;Node6 -->
<g id="edge10" class="edge">
<title>Node7&#45;&gt;Node6</title>
<path fill="none" stroke="midnightblue" d="M320.73,-112.47C345.66,-106.15 372.45,-95.14 390.93,-76 402.79,-63.72 407.31,-44.46 409,-30.09"/>
<polygon fill="midnightblue" stroke="midnightblue" points="412.51,-30.09 409.83,-19.84 405.53,-29.52 412.51,-30.09"/>
</g>
<!-- Node8 -->
<g id="node8" class="node">
<title>Node8</title>
<g id="a_node8"><a xlink:href="namespaces_8hpp.html" target="_top" xlink:title=" ">
<polygon fill="white" stroke="black" points="16.43,-56.5 16.43,-75.5 147.43,-75.5 147.43,-56.5 16.43,-56.5"/>
<text text-anchor="middle" x="81.93" y="-63.5" font-family="Helvetica,sans-Serif" font-size="10.00">common/namespaces.hpp</text>
</a>
</g>
</g>
<!-- Node7&#45;&gt;Node8 -->
<g id="edge14" class="edge">
<title>Node7&#45;&gt;Node8</title>
<path fill="none" stroke="midnightblue" d="M227.52,-112.44C198.16,-103.28 151.41,-88.69 118.84,-78.52"/>
<polygon fill="midnightblue" stroke="midnightblue" points="119.8,-75.16 109.22,-75.52 117.72,-81.84 119.8,-75.16"/>
</g>
<!-- Node8&#45;&gt;Node2 -->
<g id="edge15" class="edge">
<title>Node8&#45;&gt;Node2</title>
<path fill="none" stroke="midnightblue" d="M97.03,-56.32C111.84,-47.82 134.63,-34.73 151.91,-24.8"/>
<polygon fill="midnightblue" stroke="midnightblue" points="153.94,-27.67 160.87,-19.65 150.45,-21.6 153.94,-27.67"/>
</g>
<!-- Node9&#45;&gt;Node2 -->
<g id="edge19" class="edge">
<title>Node9&#45;&gt;Node2</title>
<path fill="none" stroke="midnightblue" d="M446.91,-56.44C379.27,-45.1 262.03,-25.44 206.62,-16.15"/>
<polygon fill="midnightblue" stroke="midnightblue" points="207.15,-12.69 196.71,-14.48 205.99,-19.59 207.15,-12.69"/>
</g>
<!-- Node9&#45;&gt;Node3 -->
<g id="edge20" class="edge">
<title>Node9&#45;&gt;Node3</title>
<path fill="none" stroke="midnightblue" d="M505.2,-56.08C511.48,-48.38 520.72,-37.03 528.36,-27.65"/>
<polygon fill="midnightblue" stroke="midnightblue" points="531.2,-29.71 534.8,-19.75 525.77,-25.29 531.2,-29.71"/>
</g>
<!-- Node9&#45;&gt;Node5 -->
<g id="edge17" class="edge">
<title>Node9&#45;&gt;Node5</title>
<path fill="none" stroke="midnightblue" d="M468.46,-56.44C436.11,-47.05 384.11,-31.95 349.01,-21.77"/>
<polygon fill="midnightblue" stroke="midnightblue" points="349.73,-18.33 339.15,-18.9 347.78,-25.05 349.73,-18.33"/>
</g>
<!-- Node9&#45;&gt;Node6 -->
<g id="edge18" class="edge">
<title>Node9&#45;&gt;Node6</title>
<path fill="none" stroke="midnightblue" d="M483.79,-56.32C470.07,-47.9 449,-34.97 432.87,-25.07"/>
<polygon fill="midnightblue" stroke="midnightblue" points="434.39,-21.9 424.04,-19.65 430.73,-27.87 434.39,-21.9"/>
</g>
</g>
</svg>
        <g id="navigator" transform="translate(0 0)" fill="#404254">
                <rect fill="#f2f5e9" fill-opacity="0.5" stroke="#606060" stroke-width=".5" x="0" y="0" width="60" height="60"/>
                <use id="zoomplus" xlink:href="#zoomPlus" x="17" y="9" onmousedown="handleZoom(evt,'in')"/>
                <use id="zoomminus" xlink:href="#zoomMin" x="42" y="9" onmousedown="handleZoom(evt,'out')"/>
                <use id="reset" xlink:href="#resetDef" x="30" y="36" onmousedown="handleReset()"/>
                <g id="arrowUp" xlink:href="#dirArrow" transform="translate(30 24)" onmousedown="handlePan(0,-1)">
                  <use xlink:href="#rim" fill="#404040">
                        <set attributeName="fill" to="#808080" begin="arrowUp.mouseover" end="arrowUp.mouseout"/>
                  </use>
                  <path fill="none" stroke="white" stroke-width="1.5" d="M0,-3.0v7 M-2.5,-0.5L0,-3.0L2.5,-0.5"/>
                </g>
                <g id="arrowRight" xlink:href="#dirArrow" transform="rotate(90) translate(36 -43)" onmousedown="handlePan(1,0)">
                  <use xlink:href="#rim" fill="#404040">
                        <set attributeName="fill" to="#808080" begin="arrowRight.mouseover" end="arrowRight.mouseout"/>
                  </use>
                  <path fill="none" stroke="white" stroke-width="1.5" d="M0,-3.0v7 M-2.5,-0.5L0,-3.0L2.5,-0.5"/>
                </g>
                <g id="arrowDown" xlink:href="#dirArrow" transform="rotate(180) translate(-30 -48)" onmousedown="handlePan(0,1)">
                  <use xlink:href="#rim" fill="#404040">
                        <set attributeName="fill" to="#808080" begin="arrowDown.mouseover" end="arrowDown.mouseout"/>
                  </use>
                  <path fill="none" stroke="white" stroke-width="1.5" d="M0,-3.0v7 M-2.5,-0.5L0,-3.0L2.5,-0.5"/>
                </g>
                <g id="arrowLeft" xlink:href="#dirArrow" transform="rotate(270) translate(-36 17)" onmousedown="handlePan(-1,0)">
                  <use xlink:href="#rim" fill="#404040">
                        <set attributeName="fill" to="#808080" begin="arrowLeft.mouseover" end="arrowLeft.mouseout"/>
                  </use>
                  <path fill="none" stroke="white" stroke-width="1.5" d="M0,-3.0v7 M-2.5,-0.5L0,-3.0L2.5,-0.5"/>
                </g>
        </g>
        <svg viewBox="0 0 15 15" width="100%" height="30px" preserveAspectRatio="xMaxYMin meet">
         <g id="arrow_out" transform="scale(0.3 0.3)">
          <a xlink:href="RequestProcessorUtils_8hpp__incl_org.svg" target="_base">
           <rect id="button" ry="5" rx="5" y="6" x="6" height="38" width="38"
                fill="#f2f5e9" fill-opacity="0.5" stroke="#606060" stroke-width="1.0"/>
           <path id="arrow"
             d="M 11.500037,31.436501 C 11.940474,20.09759 22.043105,11.32322 32.158766,21.979434 L 37.068811,17.246167 C 37.068811,17.246167 37.088388,32 37.088388,32 L 22.160133,31.978069 C 22.160133,31.978069 26.997745,27.140456 26.997745,27.140456 C 18.528582,18.264221 13.291696,25.230495 11.500037,31.436501 z"
             style="fill:#404040;"/>
          </a>
         </g>
        </svg>
</svg>
