<?xml version="1.0" encoding="UTF-8" standalone="no"?>
<!DOCTYPE svg PUBLIC "-//W3C//DTD SVG 1.1//EN"
 "http://www.w3.org/Graphics/SVG/1.1/DTD/svg11.dtd">
<!-- Generated by graphviz version 2.43.0 (0)
 -->
<!-- Title: src/client/ResponseUtils.hpp Pages: 1 -->
<svg width="272pt" height="196pt"
 viewBox="0.00 0.00 272.18 196.00" xmlns="http://www.w3.org/2000/svg" xmlns:xlink="http://www.w3.org/1999/xlink">
<g id="graph0" class="graph" transform="scale(1 1) rotate(0) translate(4 192)">
<title>src/client/ResponseUtils.hpp</title>
<polygon fill="white" stroke="transparent" points="-4,4 -4,-192 268.18,-192 268.18,4 -4,4"/>
<!-- Node1 -->
<g id="node1" class="node">
<title>Node1</title>
<g id="a_node1"><a xlink:title=" ">
<polygon fill="#bfbfbf" stroke="black" points="63,-168.5 63,-187.5 206,-187.5 206,-168.5 63,-168.5"/>
<text text-anchor="middle" x="134.5" y="-175.5" font-family="Helvetica,sans-Serif" font-size="10.00">src/client/ResponseUtils.hpp</text>
</a>
</g>
</g>
<!-- Node2 -->
<g id="node2" class="node">
<title>Node2</title>
<g id="a_node2"><a xlink:title=" ">
<polygon fill="white" stroke="#bfbfbf" points="0,-0.5 0,-19.5 41,-19.5 41,-0.5 0,-0.5"/>
<text text-anchor="middle" x="20.5" y="-7.5" font-family="Helvetica,sans-Serif" font-size="10.00">string</text>
</a>
</g>
</g>
<!-- Node1&#45;&gt;Node2 -->
<g id="edge1" class="edge">
<title>Node1&#45;&gt;Node2</title>
<path fill="none" stroke="midnightblue" d="M119.38,-168.48C94.44,-153.48 45.36,-119.77 24.5,-76 17.66,-61.65 17.13,-43.45 18.04,-29.96"/>
<polygon fill="midnightblue" stroke="midnightblue" points="21.53,-30.22 19.03,-19.93 14.56,-29.53 21.53,-30.22"/>
</g>
<!-- Node3 -->
<g id="node3" class="node">
<title>Node3</title>
<g id="a_node3"><a xlink:title=" ">
<polygon fill="white" stroke="#bfbfbf" points="212.5,-0.5 212.5,-19.5 256.5,-19.5 256.5,-0.5 212.5,-0.5"/>
<text text-anchor="middle" x="234.5" y="-7.5" font-family="Helvetica,sans-Serif" font-size="10.00">vector</text>
</a>
</g>
</g>
<!-- Node1&#45;&gt;Node3 -->
<g id="edge2" class="edge">
<title>Node1&#45;&gt;Node3</title>
<path fill="none" stroke="midnightblue" d="M196.1,-168.42C217.93,-162.08 240.32,-151.08 253.5,-132 275.17,-100.63 257.17,-53.85 244.43,-28.63"/>
<polygon fill="midnightblue" stroke="midnightblue" points="247.38,-26.71 239.59,-19.53 241.2,-30 247.38,-26.71"/>
</g>
<!-- Node4 -->
<g id="node4" class="node">
<title>Node4</title>
<g id="a_node4"><a xlink:href="HttpRequest_8hpp.html" target="_top" xlink:title=" ">
<polygon fill="white" stroke="black" points="49,-56.5 49,-75.5 168,-75.5 168,-56.5 49,-56.5"/>
<text text-anchor="middle" x="108.5" y="-63.5" font-family="Helvetica,sans-Serif" font-size="10.00">../http/HttpRequest.hpp</text>
</a>
</g>
</g>
<!-- Node1&#45;&gt;Node4 -->
<g id="edge3" class="edge">
<title>Node1&#45;&gt;Node4</title>
<path fill="none" stroke="midnightblue" d="M127.35,-168.36C120.73,-159.76 111.34,-145.87 107.5,-132 103.31,-116.86 103.97,-98.96 105.45,-85.79"/>
<polygon fill="midnightblue" stroke="midnightblue" points="108.95,-85.99 106.85,-75.61 102.02,-85.03 108.95,-85.99"/>
</g>
<!-- Node7 -->
<g id="node7" class="node">
<title>Node7</title>
<g id="a_node7"><a xlink:href="HttpResponse_8hpp.html" target="_top" xlink:title=" ">
<polygon fill="white" stroke="black" points="117,-112.5 117,-131.5 244,-131.5 244,-112.5 117,-112.5"/>
<text text-anchor="middle" x="180.5" y="-119.5" font-family="Helvetica,sans-Serif" font-size="10.00">../http/HttpResponse.hpp</text>
</a>
</g>
</g>
<!-- Node1&#45;&gt;Node7 -->
<g id="edge8" class="edge">
<title>Node1&#45;&gt;Node7</title>
<path fill="none" stroke="midnightblue" d="M142.1,-168.08C148.73,-160.3 158.52,-148.8 166.56,-139.37"/>
<polygon fill="midnightblue" stroke="midnightblue" points="169.23,-141.63 173.05,-131.75 163.9,-137.09 169.23,-141.63"/>
</g>
<!-- Node4&#45;&gt;Node2 -->
<g id="edge6" class="edge">
<title>Node4&#45;&gt;Node2</title>
<path fill="none" stroke="midnightblue" d="M94.36,-56.32C80.63,-47.9 59.56,-34.97 43.44,-25.07"/>
<polygon fill="midnightblue" stroke="midnightblue" points="44.96,-21.9 34.6,-19.65 41.3,-27.87 44.96,-21.9"/>
</g>
<!-- Node4&#45;&gt;Node3 -->
<g id="edge7" class="edge">
<title>Node4&#45;&gt;Node3</title>
<path fill="none" stroke="midnightblue" d="M128.47,-56.44C149.11,-47.6 181.56,-33.69 205.13,-23.59"/>
<polygon fill="midnightblue" stroke="midnightblue" points="206.82,-26.67 214.63,-19.52 204.06,-20.24 206.82,-26.67"/>
</g>
<!-- Node5 -->
<g id="node5" class="node">
<title>Node5</title>
<g id="a_node5"><a xlink:title=" ">
<polygon fill="white" stroke="#bfbfbf" points="81.5,-0.5 81.5,-19.5 135.5,-19.5 135.5,-0.5 81.5,-0.5"/>
<text text-anchor="middle" x="108.5" y="-7.5" font-family="Helvetica,sans-Serif" font-size="10.00">iostream</text>
</a>
</g>
</g>
<!-- Node4&#45;&gt;Node5 -->
<g id="edge4" class="edge">
<title>Node4&#45;&gt;Node5</title>
<path fill="none" stroke="midnightblue" d="M108.5,-56.08C108.5,-49.01 108.5,-38.86 108.5,-29.99"/>
<polygon fill="midnightblue" stroke="midnightblue" points="112,-29.75 108.5,-19.75 105,-29.75 112,-29.75"/>
</g>
<!-- Node6 -->
<g id="node6" class="node">
<title>Node6</title>
<g id="a_node6"><a xlink:title=" ">
<polygon fill="white" stroke="#bfbfbf" points="157,-0.5 157,-19.5 192,-19.5 192,-0.5 157,-0.5"/>
<text text-anchor="middle" x="174.5" y="-7.5" font-family="Helvetica,sans-Serif" font-size="10.00">map</text>
</a>
</g>
</g>
<!-- Node4&#45;&gt;Node6 -->
<g id="edge5" class="edge">
<title>Node4&#45;&gt;Node6</title>
<path fill="none" stroke="midnightblue" d="M119.1,-56.32C128.96,-48.26 143.85,-36.08 155.72,-26.37"/>
<polygon fill="midnightblue" stroke="midnightblue" points="158.18,-28.88 163.7,-19.83 153.75,-23.46 158.18,-28.88"/>
</g>
<!-- Node7&#45;&gt;Node2 -->
<g id="edge10" class="edge">
<title>Node7&#45;&gt;Node2</title>
<path fill="none" stroke="midnightblue" d="M116.65,-114.02C89.63,-107.99 59.78,-96.78 39.5,-76 27.58,-63.78 23.07,-44.52 21.4,-30.13"/>
<polygon fill="midnightblue" stroke="midnightblue" points="24.86,-29.55 20.58,-19.86 17.88,-30.11 24.86,-29.55"/>
</g>
<!-- Node7&#45;&gt;Node3 -->
<g id="edge11" class="edge">
<title>Node7&#45;&gt;Node3</title>
<path fill="none" stroke="midnightblue" d="M184.74,-112.37C193.57,-94.38 214.1,-52.55 225.85,-28.63"/>
<polygon fill="midnightblue" stroke="midnightblue" points="229.02,-30.11 230.28,-19.59 222.73,-27.03 229.02,-30.11"/>
</g>
<!-- Node7&#45;&gt;Node4 -->
<g id="edge12" class="edge">
<title>Node7&#45;&gt;Node4</title>
<path fill="none" stroke="midnightblue" d="M168.93,-112.32C158.08,-104.18 141.62,-91.84 128.62,-82.09"/>
<polygon fill="midnightblue" stroke="midnightblue" points="130.38,-79.03 120.28,-75.83 126.18,-84.63 130.38,-79.03"/>
</g>
<!-- Node7&#45;&gt;Node6 -->
<g id="edge9" class="edge">
<title>Node7&#45;&gt;Node6</title>
<path fill="none" stroke="midnightblue" d="M180.03,-112.37C179.06,-94.62 176.83,-53.67 175.51,-29.6"/>
<polygon fill="midnightblue" stroke="midnightblue" points="179.01,-29.39 174.97,-19.59 172.02,-29.77 179.01,-29.39"/>
</g>
</g>
</svg>
