<?xml version="1.0" encoding="UTF-8" standalone="no"?>
<!DOCTYPE svg PUBLIC "-//W3C//DTD SVG 1.1//EN"
 "http://www.w3.org/Graphics/SVG/1.1/DTD/svg11.dtd">
<!-- Generated by graphviz version 2.43.0 (0)
 -->
<!-- Title: fillBaseResponse Pages: 1 -->
<svg width="594pt" height="484pt"
 viewBox="0.00 0.00 594.00 484.00" xmlns="http://www.w3.org/2000/svg" xmlns:xlink="http://www.w3.org/1999/xlink">
<g id="graph0" class="graph" transform="scale(1 1) rotate(0) translate(4 480)">
<title>fillBaseResponse</title>
<polygon fill="white" stroke="transparent" points="-4,4 -4,-480 590,-480 590,4 -4,4"/>
<!-- Node1 -->
<g id="node1" class="node">
<title>Node1</title>
<g id="a_node1"><a xlink:title=" ">
<polygon fill="#bfbfbf" stroke="black" points="0,-209.5 0,-228.5 93,-228.5 93,-209.5 0,-209.5"/>
<text text-anchor="middle" x="46.5" y="-216.5" font-family="Helvetica,sans-Serif" font-size="10.00">fillBaseResponse</text>
</a>
</g>
</g>
<!-- Node2 -->
<g id="node2" class="node">
<title>Node2</title>
<g id="a_node2"><a xlink:href="SessionUtils_8cpp.html#aabfd66406b8a4aec4237b26ff8e76a65" target="_top" xlink:title=" ">
<polygon fill="white" stroke="black" points="137.5,-418.5 137.5,-437.5 275.5,-437.5 275.5,-418.5 137.5,-418.5"/>
<text text-anchor="middle" x="206.5" y="-425.5" font-family="Helvetica,sans-Serif" font-size="10.00">addSessionCookieIfNeeded</text>
</a>
</g>
</g>
<!-- Node1&#45;&gt;Node2 -->
<g id="edge1" class="edge">
<title>Node1&#45;&gt;Node2</title>
<path fill="none" stroke="midnightblue" d="M48.91,-228.69C53.86,-259.18 73.29,-354.15 129,-404 133.52,-408.04 138.71,-411.41 144.23,-414.2"/>
<polygon fill="midnightblue" stroke="midnightblue" points="143.18,-417.56 153.74,-418.39 146,-411.16 143.18,-417.56"/>
</g>
<!-- Node6 -->
<g id="node6" class="node">
<title>Node6</title>
<g id="a_node6"><a xlink:href="classHttpResponse.html#a7efa3ab17ead358609d80b55db164867" target="_top" xlink:title=" ">
<polygon fill="white" stroke="black" points="321,-304.5 321,-323.5 452,-323.5 452,-304.5 321,-304.5"/>
<text text-anchor="middle" x="386.5" y="-311.5" font-family="Helvetica,sans-Serif" font-size="10.00">HttpResponse::setHeader</text>
</a>
</g>
</g>
<!-- Node1&#45;&gt;Node6 -->
<g id="edge16" class="edge">
<title>Node1&#45;&gt;Node6</title>
<path fill="none" stroke="midnightblue" d="M49.22,-228.83C54.77,-257.11 75.04,-338.71 129,-371 188.11,-406.38 217.35,-388.43 284,-371 314.52,-363.02 345.56,-343.58 365.13,-329.62"/>
<polygon fill="midnightblue" stroke="midnightblue" points="367.28,-332.39 373.28,-323.65 363.14,-326.74 367.28,-332.39"/>
</g>
<!-- Node8 -->
<g id="node8" class="node">
<title>Node8</title>
<g id="a_node8"><a xlink:href="classHttpRequest.html#adf523a5345b525702a858f8792bab8ea" target="_top" xlink:title=" ">
<polygon fill="white" stroke="black" points="144.5,-342.5 144.5,-361.5 268.5,-361.5 268.5,-342.5 144.5,-342.5"/>
<text text-anchor="middle" x="206.5" y="-349.5" font-family="Helvetica,sans-Serif" font-size="10.00">HttpRequest::getMethod</text>
</a>
</g>
</g>
<!-- Node1&#45;&gt;Node8 -->
<g id="edge7" class="edge">
<title>Node1&#45;&gt;Node8</title>
<path fill="none" stroke="midnightblue" d="M51.57,-228.72C61.38,-250.91 88.55,-305.52 129,-333 131.92,-334.98 135.02,-336.76 138.25,-338.35"/>
<polygon fill="midnightblue" stroke="midnightblue" points="137.04,-341.64 147.61,-342.36 139.8,-335.2 137.04,-341.64"/>
</g>
<!-- Node9 -->
<g id="node9" class="node">
<title>Node9</title>
<g id="a_node9"><a xlink:href="classHttpRequest.html#acde519e492e10352bc39d6a3bcd857b2" target="_top" xlink:title=" ">
<polygon fill="white" stroke="black" points="150.5,-304.5 150.5,-323.5 262.5,-323.5 262.5,-304.5 150.5,-304.5"/>
<text text-anchor="middle" x="206.5" y="-311.5" font-family="Helvetica,sans-Serif" font-size="10.00">HttpRequest::getPath</text>
</a>
</g>
</g>
<!-- Node1&#45;&gt;Node9 -->
<g id="edge8" class="edge">
<title>Node1&#45;&gt;Node9</title>
<path fill="none" stroke="midnightblue" d="M54.93,-228.57C68.06,-244.8 97.03,-277.66 129,-295 133.21,-297.29 137.71,-299.3 142.32,-301.08"/>
<polygon fill="midnightblue" stroke="midnightblue" points="141.33,-304.44 151.93,-304.4 143.62,-297.82 141.33,-304.44"/>
</g>
<!-- Node10 -->
<g id="node10" class="node">
<title>Node10</title>
<g id="a_node10"><a xlink:href="classHttpRequest.html#ac2a5d18d42289a03b57215c98d8df41e" target="_top" xlink:title=" ">
<polygon fill="white" stroke="black" points="144,-266.5 144,-285.5 269,-285.5 269,-266.5 144,-266.5"/>
<text text-anchor="middle" x="206.5" y="-273.5" font-family="Helvetica,sans-Serif" font-size="10.00">HttpRequest::getVersion</text>
</a>
</g>
</g>
<!-- Node1&#45;&gt;Node10 -->
<g id="edge9" class="edge">
<title>Node1&#45;&gt;Node10</title>
<path fill="none" stroke="midnightblue" d="M65.53,-228.64C81.77,-237.02 106.48,-249.04 129,-257 136.09,-259.51 143.65,-261.81 151.17,-263.89"/>
<polygon fill="midnightblue" stroke="midnightblue" points="150.41,-267.31 160.98,-266.48 152.2,-260.54 150.41,-267.31"/>
</g>
<!-- Node11 -->
<g id="node11" class="node">
<title>Node11</title>
<g id="a_node11"><a xlink:href="classHttpResponse.html#acba4d7264c5b05e63a199c87f8526473" target="_top" xlink:title=" ">
<polygon fill="white" stroke="black" points="320,-171.5 320,-190.5 453,-190.5 453,-171.5 320,-171.5"/>
<text text-anchor="middle" x="386.5" y="-178.5" font-family="Helvetica,sans-Serif" font-size="10.00">HttpResponse::hasHeader</text>
</a>
</g>
</g>
<!-- Node1&#45;&gt;Node11 -->
<g id="edge10" class="edge">
<title>Node1&#45;&gt;Node11</title>
<path fill="none" stroke="midnightblue" d="M62.7,-209.43C78.55,-200.07 104.46,-186.44 129,-181 188.71,-167.76 258.18,-168.73 309.75,-172.47"/>
<polygon fill="midnightblue" stroke="midnightblue" points="309.58,-175.97 319.82,-173.25 310.12,-168.99 309.58,-175.97"/>
</g>
<!-- Node12 -->
<g id="node12" class="node">
<title>Node12</title>
<g id="a_node12"><a xlink:href="classHttpResponse.html#a884d07c418ba6145385d63e43bb1b29a" target="_top" xlink:title=" ">
<polygon fill="white" stroke="black" points="145.5,-190.5 145.5,-209.5 267.5,-209.5 267.5,-190.5 145.5,-190.5"/>
<text text-anchor="middle" x="206.5" y="-197.5" font-family="Helvetica,sans-Serif" font-size="10.00">HttpResponse::setBody</text>
</a>
</g>
</g>
<!-- Node1&#45;&gt;Node12 -->
<g id="edge12" class="edge">
<title>Node1&#45;&gt;Node12</title>
<path fill="none" stroke="midnightblue" d="M93.2,-213.5C106.33,-211.93 120.96,-210.17 135.2,-208.45"/>
<polygon fill="midnightblue" stroke="midnightblue" points="135.97,-211.89 145.48,-207.22 135.14,-204.94 135.97,-211.89"/>
</g>
<!-- Node13 -->
<g id="node13" class="node">
<title>Node13</title>
<g id="a_node13"><a xlink:href="classHttpResponse.html#a11a67ba43096f5eb1870e65f1814d364" target="_top" xlink:title=" ">
<polygon fill="white" stroke="black" points="129,-228.5 129,-247.5 284,-247.5 284,-228.5 129,-228.5"/>
<text text-anchor="middle" x="206.5" y="-235.5" font-family="Helvetica,sans-Serif" font-size="10.00">HttpResponse::setContentType</text>
</a>
</g>
</g>
<!-- Node1&#45;&gt;Node13 -->
<g id="edge13" class="edge">
<title>Node1&#45;&gt;Node13</title>
<path fill="none" stroke="midnightblue" d="M93.2,-224.5C101.35,-225.48 110.07,-226.52 118.92,-227.59"/>
<polygon fill="midnightblue" stroke="midnightblue" points="118.6,-231.07 128.94,-228.79 119.43,-224.12 118.6,-231.07"/>
</g>
<!-- Node14 -->
<g id="node14" class="node">
<title>Node14</title>
<g id="a_node14"><a xlink:href="classHttpResponse.html#ac982631ddcf451521e207ac0c2bd0108" target="_top" xlink:title=" ">
<polygon fill="white" stroke="black" points="135,-114.5 135,-133.5 278,-133.5 278,-114.5 135,-114.5"/>
<text text-anchor="middle" x="206.5" y="-121.5" font-family="Helvetica,sans-Serif" font-size="10.00">HttpResponse::setHeadOnly</text>
</a>
</g>
</g>
<!-- Node1&#45;&gt;Node14 -->
<g id="edge17" class="edge">
<title>Node1&#45;&gt;Node14</title>
<path fill="none" stroke="midnightblue" d="M56.06,-209.31C69.95,-194.17 98.87,-164.87 129,-148 136.85,-143.6 145.62,-139.9 154.34,-136.81"/>
<polygon fill="midnightblue" stroke="midnightblue" points="155.71,-140.05 164.11,-133.59 153.52,-133.4 155.71,-140.05"/>
</g>
<!-- Node15 -->
<g id="node15" class="node">
<title>Node15</title>
<g id="a_node15"><a xlink:href="classHttpResponse.html#a610f8f887ca042f2b18ec395aaccc255" target="_top" xlink:title=" ">
<polygon fill="white" stroke="black" points="131,-76.5 131,-95.5 282,-95.5 282,-76.5 131,-76.5"/>
<text text-anchor="middle" x="206.5" y="-83.5" font-family="Helvetica,sans-Serif" font-size="10.00">HttpResponse::setStatusCode</text>
</a>
</g>
</g>
<!-- Node1&#45;&gt;Node15 -->
<g id="edge18" class="edge">
<title>Node1&#45;&gt;Node15</title>
<path fill="none" stroke="midnightblue" d="M51.57,-209.28C61.38,-187.09 88.55,-132.48 129,-105 131.92,-103.02 135.02,-101.24 138.25,-99.65"/>
<polygon fill="midnightblue" stroke="midnightblue" points="139.8,-102.8 147.61,-95.64 137.04,-96.36 139.8,-102.8"/>
</g>
<!-- Node17 -->
<g id="node17" class="node">
<title>Node17</title>
<g id="a_node17"><a xlink:href="classHttpResponse.html#a407dc1ea3f01365d8105fadc0418bc79" target="_top" xlink:title=" ">
<polygon fill="white" stroke="black" points="140.5,-38.5 140.5,-57.5 272.5,-57.5 272.5,-38.5 140.5,-38.5"/>
<text text-anchor="middle" x="206.5" y="-45.5" font-family="Helvetica,sans-Serif" font-size="10.00">HttpResponse::setVersion</text>
</a>
</g>
</g>
<!-- Node1&#45;&gt;Node17 -->
<g id="edge20" class="edge">
<title>Node1&#45;&gt;Node17</title>
<path fill="none" stroke="midnightblue" d="M49.74,-209.4C56.54,-182.42 79.6,-105.42 129,-67 131.33,-65.19 133.81,-63.55 136.4,-62.06"/>
<polygon fill="midnightblue" stroke="midnightblue" points="138.11,-65.12 145.55,-57.58 135.03,-58.83 138.11,-65.12"/>
</g>
<!-- Node18 -->
<g id="node18" class="node">
<title>Node18</title>
<g id="a_node18"><a xlink:href="ResponseUtils_8cpp.html#af8cce302648449aa6215ac211230ef75" target="_top" xlink:title=" ">
<polygon fill="white" stroke="black" points="164.5,-0.5 164.5,-19.5 248.5,-19.5 248.5,-0.5 164.5,-0.5"/>
<text text-anchor="middle" x="206.5" y="-7.5" font-family="Helvetica,sans-Serif" font-size="10.00">versionToString</text>
</a>
</g>
</g>
<!-- Node1&#45;&gt;Node18 -->
<g id="edge21" class="edge">
<title>Node1&#45;&gt;Node18</title>
<path fill="none" stroke="midnightblue" d="M48.64,-209.35C52.85,-178.09 70.48,-78.75 129,-29 136.2,-22.88 145.08,-18.68 154.21,-15.81"/>
<polygon fill="midnightblue" stroke="midnightblue" points="155.37,-19.12 164.14,-13.19 153.58,-12.35 155.37,-19.12"/>
</g>
<!-- Node3 -->
<g id="node3" class="node">
<title>Node3</title>
<g id="a_node3"><a xlink:href="SessionUtils_8cpp.html#af915f0cd7984e5d06370014bb43c74b6" target="_top" xlink:title=" ">
<polygon fill="white" stroke="black" points="343,-418.5 343,-437.5 430,-437.5 430,-418.5 343,-418.5"/>
<text text-anchor="middle" x="386.5" y="-425.5" font-family="Helvetica,sans-Serif" font-size="10.00">createSessionId</text>
</a>
</g>
</g>
<!-- Node2&#45;&gt;Node3 -->
<g id="edge2" class="edge">
<title>Node2&#45;&gt;Node3</title>
<path fill="none" stroke="midnightblue" d="M275.56,-428C294.6,-428 314.99,-428 332.98,-428"/>
<polygon fill="midnightblue" stroke="midnightblue" points="332.99,-431.5 342.99,-428 332.99,-424.5 332.99,-431.5"/>
</g>
<!-- Node4 -->
<g id="node4" class="node">
<title>Node4</title>
<g id="a_node4"><a xlink:href="SessionUtils_8cpp.html#a655520ad6c85707c8e1aae50c1eda6c8" target="_top" xlink:title=" ">
<polygon fill="white" stroke="black" points="332.5,-380.5 332.5,-399.5 440.5,-399.5 440.5,-380.5 332.5,-380.5"/>
<text text-anchor="middle" x="386.5" y="-387.5" font-family="Helvetica,sans-Serif" font-size="10.00">extractIdFromCookie</text>
</a>
</g>
</g>
<!-- Node2&#45;&gt;Node4 -->
<g id="edge3" class="edge">
<title>Node2&#45;&gt;Node4</title>
<path fill="none" stroke="midnightblue" d="M252.42,-418.41C276.33,-413.31 305.92,-406.99 331.12,-401.61"/>
<polygon fill="midnightblue" stroke="midnightblue" points="331.86,-405.03 340.91,-399.52 330.4,-398.19 331.86,-405.03"/>
</g>
<!-- Node5 -->
<g id="node5" class="node">
<title>Node5</title>
<g id="a_node5"><a xlink:href="classHttpRequest.html#ab537cb11b054734695ee4889d88aec6d" target="_top" xlink:title="Obtiene un header específico de la petición.">
<polygon fill="white" stroke="black" points="325,-456.5 325,-475.5 448,-475.5 448,-456.5 325,-456.5"/>
<text text-anchor="middle" x="386.5" y="-463.5" font-family="Helvetica,sans-Serif" font-size="10.00">HttpRequest::getHeader</text>
</a>
</g>
</g>
<!-- Node2&#45;&gt;Node5 -->
<g id="edge4" class="edge">
<title>Node2&#45;&gt;Node5</title>
<path fill="none" stroke="midnightblue" d="M252.42,-437.59C276.33,-442.69 305.92,-449.01 331.12,-454.39"/>
<polygon fill="midnightblue" stroke="midnightblue" points="330.4,-457.81 340.91,-456.48 331.86,-450.97 330.4,-457.81"/>
</g>
<!-- Node2&#45;&gt;Node6 -->
<g id="edge5" class="edge">
<title>Node2&#45;&gt;Node6</title>
<path fill="none" stroke="midnightblue" d="M249.39,-418.46C261.03,-414.87 273.39,-410.12 284,-404 302.8,-393.16 303.81,-385.46 320,-371 335.49,-357.16 353.29,-341.7 366.42,-330.38"/>
<polygon fill="midnightblue" stroke="midnightblue" points="369,-332.77 374.3,-323.6 364.44,-327.47 369,-332.77"/>
</g>
<!-- Node7 -->
<g id="node7" class="node">
<title>Node7</title>
<g id="a_node7"><a xlink:href="namespacehttp__header__utils.html#aa9b0e84aeed4203326a12eecbcd3f9e5" target="_top" xlink:title=" ">
<polygon fill="white" stroke="black" points="489,-223 489,-253 586,-253 586,-223 489,-223"/>
<text text-anchor="start" x="497" y="-241" font-family="Helvetica,sans-Serif" font-size="10.00">http_header_utils::</text>
<text text-anchor="middle" x="537.5" y="-230" font-family="Helvetica,sans-Serif" font-size="10.00">toLowerCopy</text>
</a>
</g>
</g>
<!-- Node6&#45;&gt;Node7 -->
<g id="edge6" class="edge">
<title>Node6&#45;&gt;Node7</title>
<path fill="none" stroke="midnightblue" d="M406.37,-304.37C429.27,-292.7 468.44,-272.71 497.84,-257.72"/>
<polygon fill="midnightblue" stroke="midnightblue" points="499.69,-260.7 507.01,-253.04 496.51,-254.47 499.69,-260.7"/>
</g>
<!-- Node11&#45;&gt;Node7 -->
<g id="edge11" class="edge">
<title>Node11&#45;&gt;Node7</title>
<path fill="none" stroke="midnightblue" d="M412.44,-190.54C432.93,-198.38 462.59,-209.73 487.77,-219.36"/>
<polygon fill="midnightblue" stroke="midnightblue" points="486.58,-222.65 497.17,-222.95 489.08,-216.11 486.58,-222.65"/>
</g>
<!-- Node13&#45;&gt;Node6 -->
<g id="edge14" class="edge">
<title>Node13&#45;&gt;Node6</title>
<path fill="none" stroke="midnightblue" d="M254.65,-247.6C264.5,-250.19 274.71,-253.32 284,-257 312.51,-268.31 342.89,-286.24 362.9,-298.97"/>
<polygon fill="midnightblue" stroke="midnightblue" points="361.02,-301.92 371.32,-304.41 364.82,-296.04 361.02,-301.92"/>
</g>
<!-- Node13&#45;&gt;Node7 -->
<g id="edge15" class="edge">
<title>Node13&#45;&gt;Node7</title>
<path fill="none" stroke="midnightblue" d="M284.22,-238C343.62,-238 424.62,-238 478.64,-238"/>
<polygon fill="midnightblue" stroke="midnightblue" points="478.74,-241.5 488.74,-238 478.74,-234.5 478.74,-241.5"/>
</g>
<!-- Node16 -->
<g id="node16" class="node">
<title>Node16</title>
<g id="a_node16"><a xlink:href="HttpResponse_8cpp.html#aadc8fd8bbc80a1b3551ea1357e04f07b" target="_top" xlink:title=" ">
<polygon fill="white" stroke="black" points="327,-76.5 327,-95.5 446,-95.5 446,-76.5 327,-76.5"/>
<text text-anchor="middle" x="386.5" y="-83.5" font-family="Helvetica,sans-Serif" font-size="10.00">reasonPhraseForStatus</text>
</a>
</g>
</g>
<!-- Node15&#45;&gt;Node16 -->
<g id="edge19" class="edge">
<title>Node15&#45;&gt;Node16</title>
<path fill="none" stroke="midnightblue" d="M282.21,-86C293.65,-86 305.41,-86 316.71,-86"/>
<polygon fill="midnightblue" stroke="midnightblue" points="316.94,-89.5 326.94,-86 316.94,-82.5 316.94,-89.5"/>
</g>
</g>
</svg>
