<?xml version="1.0" encoding="UTF-8" standalone="no"?>
<!DOCTYPE svg PUBLIC "-//W3C//DTD SVG 1.1//EN"
 "http://www.w3.org/Graphics/SVG/1.1/DTD/svg11.dtd">
<!-- Generated by graphviz version 2.43.0 (0)
 -->
<!-- Title: toBody Pages: 1 -->
<svg width="1722pt" height="446pt"
 viewBox="0.00 0.00 1722.00 446.00" xmlns="http://www.w3.org/2000/svg" xmlns:xlink="http://www.w3.org/1999/xlink">
<g id="graph0" class="graph" transform="scale(1 1) rotate(0) translate(4 442)">
<title>toBody</title>
<polygon fill="white" stroke="transparent" points="-4,4 -4,-442 1718,-442 1718,4 -4,4"/>
<!-- Node1 -->
<g id="node1" class="node">
<title>Node1</title>
<g id="a_node1"><a xlink:title=" ">
<polygon fill="#bfbfbf" stroke="black" points="1667,-209.5 1667,-228.5 1714,-228.5 1714,-209.5 1667,-209.5"/>
<text text-anchor="middle" x="1690.5" y="-216.5" font-family="Helvetica,sans-Serif" font-size="10.00">toBody</text>
</a>
</g>
</g>
<!-- Node2 -->
<g id="node2" class="node">
<title>Node2</title>
<g id="a_node2"><a xlink:href="ErrorUtils_8cpp.html#a470416220aa911b8f1274140a8322e7a" target="_top" xlink:title=" ">
<polygon fill="white" stroke="black" points="1529,-209.5 1529,-228.5 1631,-228.5 1631,-209.5 1529,-209.5"/>
<text text-anchor="middle" x="1580" y="-216.5" font-family="Helvetica,sans-Serif" font-size="10.00">buildErrorResponse</text>
</a>
</g>
</g>
<!-- Node1&#45;&gt;Node2 -->
<g id="edge1" class="edge">
<title>Node1&#45;&gt;Node2</title>
<path fill="none" stroke="midnightblue" d="M1656.75,-219C1648.76,-219 1640.03,-219 1631.42,-219"/>
<polygon fill="midnightblue" stroke="midnightblue" points="1656.75,-222.5 1666.75,-219 1656.75,-215.5 1656.75,-222.5"/>
</g>
<!-- Node3 -->
<g id="node3" class="node">
<title>Node3</title>
<g id="a_node3"><a xlink:href="classClient.html#a3b000abab7a3fe339f0f39ad5daca68f" target="_top" xlink:title=" ">
<polygon fill="white" stroke="black" points="1368,-418.5 1368,-437.5 1493,-437.5 1493,-418.5 1368,-418.5"/>
<text text-anchor="middle" x="1430.5" y="-425.5" font-family="Helvetica,sans-Serif" font-size="10.00">Client::checkCgiTimeout</text>
</a>
</g>
</g>
<!-- Node2&#45;&gt;Node3 -->
<g id="edge2" class="edge">
<title>Node2&#45;&gt;Node3</title>
<path fill="none" stroke="midnightblue" d="M1575,-238.58C1566.42,-275.8 1542.84,-357.2 1493,-404 1486.32,-410.28 1477.8,-414.97 1469.26,-418.47"/>
<polygon fill="midnightblue" stroke="midnightblue" points="1578.48,-239.05 1577.19,-228.53 1571.64,-237.56 1578.48,-239.05"/>
</g>
<!-- Node4 -->
<g id="node4" class="node">
<title>Node4</title>
<g id="a_node4"><a xlink:href="classClient.html#ae523ed90bd32b88e539ebdf30746382b" target="_top" xlink:title=" ">
<polygon fill="white" stroke="black" points="1023.5,-274.5 1023.5,-293.5 1136.5,-293.5 1136.5,-274.5 1023.5,-274.5"/>
<text text-anchor="middle" x="1080" y="-281.5" font-family="Helvetica,sans-Serif" font-size="10.00">Client::dispatchAction</text>
</a>
</g>
</g>
<!-- Node2&#45;&gt;Node4 -->
<g id="edge3" class="edge">
<title>Node2&#45;&gt;Node4</title>
<path fill="none" stroke="midnightblue" d="M1571.16,-238.27C1559,-265.25 1532.77,-313.19 1493,-333 1356,-401.26 1162.56,-322.44 1100.78,-293.68"/>
<polygon fill="midnightblue" stroke="midnightblue" points="1574.52,-239.32 1575.26,-228.75 1568.09,-236.55 1574.52,-239.32"/>
</g>
<!-- Node11 -->
<g id="node11" class="node">
<title>Node11</title>
<g id="a_node11"><a xlink:href="classClient.html#a09d6029b60ae8c9773362968e72f2e54" target="_top" xlink:title=" ">
<polygon fill="white" stroke="black" points="317,-303.5 317,-322.5 455,-322.5 455,-303.5 317,-303.5"/>
<text text-anchor="middle" x="386" y="-310.5" font-family="Helvetica,sans-Serif" font-size="10.00">Client::finalizeCgiResponse</text>
</a>
</g>
</g>
<!-- Node2&#45;&gt;Node11 -->
<g id="edge12" class="edge">
<title>Node2&#45;&gt;Node11</title>
<path fill="none" stroke="midnightblue" d="M1573.27,-238.32C1562.88,-269.65 1537.76,-330.97 1493,-360 1405.22,-416.94 1364.13,-390 1259.5,-390 1259.5,-390 1259.5,-390 728.5,-390 607.25,-390 467.59,-343.24 411.84,-322.6"/>
<polygon fill="midnightblue" stroke="midnightblue" points="1576.67,-239.18 1576.34,-228.59 1570,-237.07 1576.67,-239.18"/>
</g>
<!-- Node12 -->
<g id="node12" class="node">
<title>Node12</title>
<g id="a_node12"><a xlink:href="classRequestProcessor.html#a79915b1a2fda205b7d5a6c92e5e3fce8" target="_top" xlink:title=" ">
<polygon fill="white" stroke="black" points="1185,-76.5 1185,-95.5 1332,-95.5 1332,-76.5 1185,-76.5"/>
<text text-anchor="middle" x="1258.5" y="-83.5" font-family="Helvetica,sans-Serif" font-size="10.00">RequestProcessor::handleCgi</text>
</a>
</g>
</g>
<!-- Node2&#45;&gt;Node12 -->
<g id="edge13" class="edge">
<title>Node2&#45;&gt;Node12</title>
<path fill="none" stroke="midnightblue" d="M1566.41,-201.22C1551.33,-181.32 1524.15,-149.69 1493,-133 1443.25,-106.34 1380.17,-94.74 1332.12,-89.73"/>
<polygon fill="midnightblue" stroke="midnightblue" points="1563.72,-203.46 1572.46,-209.44 1569.35,-199.31 1563.72,-203.46"/>
</g>
<!-- Node13 -->
<g id="node13" class="node">
<title>Node13</title>
<g id="a_node13"><a xlink:href="classRequestProcessor.html#a3fa9c97a7d142a7b607002138de87140" target="_top" xlink:title=" ">
<polygon fill="white" stroke="black" points="1011,-144.5 1011,-163.5 1149,-163.5 1149,-144.5 1011,-144.5"/>
<text text-anchor="middle" x="1080" y="-151.5" font-family="Helvetica,sans-Serif" font-size="10.00">RequestProcessor::process</text>
</a>
</g>
</g>
<!-- Node2&#45;&gt;Node13 -->
<g id="edge32" class="edge">
<title>Node2&#45;&gt;Node13</title>
<path fill="none" stroke="midnightblue" d="M1572.1,-199.72C1560.59,-170.65 1534.58,-116.2 1493,-90 1431.85,-51.46 1404.1,-72.12 1332,-67 1266.83,-62.37 1246.41,-44.7 1185,-67 1141.63,-82.75 1103.71,-125.38 1088.31,-144.5"/>
<polygon fill="midnightblue" stroke="midnightblue" points="1568.86,-201.07 1575.68,-209.18 1575.41,-198.59 1568.86,-201.07"/>
</g>
<!-- Node14 -->
<g id="node14" class="node">
<title>Node14</title>
<g id="a_node14"><a xlink:href="classClient.html#a4104efd3f5f7e1c0f3e3302b46861624" target="_top" xlink:title=" ">
<polygon fill="white" stroke="black" points="1375,-0.5 1375,-19.5 1486,-19.5 1486,-0.5 1375,-0.5"/>
<text text-anchor="middle" x="1430.5" y="-7.5" font-family="Helvetica,sans-Serif" font-size="10.00">Client::handleCgiPipe</text>
</a>
</g>
</g>
<!-- Node2&#45;&gt;Node14 -->
<g id="edge17" class="edge">
<title>Node2&#45;&gt;Node14</title>
<path fill="none" stroke="midnightblue" d="M1575,-199.42C1566.42,-162.2 1542.84,-80.8 1493,-34 1486.32,-27.72 1477.8,-23.03 1469.26,-19.53"/>
<polygon fill="midnightblue" stroke="midnightblue" points="1571.64,-200.44 1577.19,-209.47 1578.48,-198.95 1571.64,-200.44"/>
</g>
<!-- Node16 -->
<g id="node16" class="node">
<title>Node16</title>
<g id="a_node16"><a xlink:href="StaticPathHandler_8cpp.html#a28a771d93d3051098585ebc34ed29855" target="_top" xlink:title=" ">
<polygon fill="white" stroke="black" points="1388,-304.5 1388,-323.5 1473,-323.5 1473,-304.5 1388,-304.5"/>
<text text-anchor="middle" x="1430.5" y="-311.5" font-family="Helvetica,sans-Serif" font-size="10.00">handleDirectory</text>
</a>
</g>
</g>
<!-- Node2&#45;&gt;Node16 -->
<g id="edge20" class="edge">
<title>Node2&#45;&gt;Node16</title>
<path fill="none" stroke="midnightblue" d="M1562.21,-235.66C1545.71,-251.31 1519.25,-274.58 1493,-290 1483.22,-295.75 1471.8,-300.64 1461.48,-304.48"/>
<polygon fill="midnightblue" stroke="midnightblue" points="1564.7,-238.11 1569.46,-228.65 1559.84,-233.08 1564.7,-238.11"/>
</g>
<!-- Node17 -->
<g id="node17" class="node">
<title>Node17</title>
<g id="a_node17"><a xlink:href="StaticPathHandler_8cpp.html#a4e092999675b45373270f5408cbe64c7" target="_top" xlink:title=" ">
<polygon fill="white" stroke="black" points="1213,-228.5 1213,-247.5 1304,-247.5 1304,-228.5 1213,-228.5"/>
<text text-anchor="middle" x="1258.5" y="-235.5" font-family="Helvetica,sans-Serif" font-size="10.00">handleStaticPath</text>
</a>
</g>
</g>
<!-- Node2&#45;&gt;Node17 -->
<g id="edge29" class="edge">
<title>Node2&#45;&gt;Node17</title>
<path fill="none" stroke="midnightblue" d="M1553.82,-233.47C1537.16,-242.19 1514.49,-252.46 1493,-257 1424.75,-271.41 1343.15,-257.98 1296.72,-247.55"/>
<polygon fill="midnightblue" stroke="midnightblue" points="1555.75,-236.41 1562.88,-228.57 1552.42,-230.25 1555.75,-236.41"/>
</g>
<!-- Node18 -->
<g id="node18" class="node">
<title>Node18</title>
<g id="a_node18"><a xlink:href="classRequestProcessor.html#a606f9c02a3166ca58e6930f8d292d81c" target="_top" xlink:title=" ">
<polygon fill="white" stroke="black" points="1192.5,-164 1192.5,-194 1324.5,-194 1324.5,-164 1192.5,-164"/>
<text text-anchor="start" x="1200.5" y="-182" font-family="Helvetica,sans-Serif" font-size="10.00">RequestProcessor::handle</text>
<text text-anchor="middle" x="1258.5" y="-171" font-family="Helvetica,sans-Serif" font-size="10.00">LocationValidation</text>
</a>
</g>
</g>
<!-- Node2&#45;&gt;Node18 -->
<g id="edge23" class="edge">
<title>Node2&#45;&gt;Node18</title>
<path fill="none" stroke="midnightblue" d="M1553.81,-204.59C1537.14,-195.89 1514.48,-185.63 1493,-181 1437.12,-168.95 1371.96,-169.57 1324.7,-172.56"/>
<polygon fill="midnightblue" stroke="midnightblue" points="1552.41,-207.81 1562.87,-209.47 1555.73,-201.65 1552.41,-207.81"/>
</g>
<!-- Node19 -->
<g id="node19" class="node">
<title>Node19</title>
<g id="a_node19"><a xlink:href="classRequestProcessor.html#a10779d8453416feeda2174859c00d082" target="_top" xlink:title=" ">
<polygon fill="white" stroke="black" points="1192.5,-115 1192.5,-145 1324.5,-145 1324.5,-115 1192.5,-115"/>
<text text-anchor="start" x="1200.5" y="-133" font-family="Helvetica,sans-Serif" font-size="10.00">RequestProcessor::handle</text>
<text text-anchor="middle" x="1258.5" y="-122" font-family="Helvetica,sans-Serif" font-size="10.00">ParseOrMethodErrors</text>
</a>
</g>
</g>
<!-- Node2&#45;&gt;Node19 -->
<g id="edge25" class="edge">
<title>Node2&#45;&gt;Node19</title>
<path fill="none" stroke="midnightblue" d="M1558.6,-203.15C1541.9,-191.02 1517.16,-174.89 1493,-166 1438.34,-145.88 1372.48,-137.01 1324.65,-133.09"/>
<polygon fill="midnightblue" stroke="midnightblue" points="1556.89,-206.24 1567,-209.41 1561.07,-200.63 1556.89,-206.24"/>
</g>
<!-- Node20 -->
<g id="node20" class="node">
<title>Node20</title>
<g id="a_node20"><a xlink:href="StaticPathHandler_8cpp.html#a5af8659f0f83e8296b29264dd671af0d" target="_top" xlink:title=" ">
<polygon fill="white" stroke="black" points="1383,-228.5 1383,-247.5 1478,-247.5 1478,-228.5 1383,-228.5"/>
<text text-anchor="middle" x="1430.5" y="-235.5" font-family="Helvetica,sans-Serif" font-size="10.00">handleRegularFile</text>
</a>
</g>
</g>
<!-- Node2&#45;&gt;Node20 -->
<g id="edge27" class="edge">
<title>Node2&#45;&gt;Node20</title>
<path fill="none" stroke="midnightblue" d="M1518.5,-226.79C1505.04,-228.53 1490.96,-230.34 1478.15,-231.99"/>
<polygon fill="midnightblue" stroke="midnightblue" points="1519.18,-230.23 1528.65,-225.49 1518.29,-223.29 1519.18,-230.23"/>
</g>
<!-- Node21 -->
<g id="node21" class="node">
<title>Node21</title>
<g id="a_node21"><a xlink:href="StaticPathHandler_8cpp.html#a638cb25cad6c24877a0e75984110ea7a" target="_top" xlink:title=" ">
<polygon fill="white" stroke="black" points="1392.5,-190.5 1392.5,-209.5 1468.5,-209.5 1468.5,-190.5 1392.5,-190.5"/>
<text text-anchor="middle" x="1430.5" y="-197.5" font-family="Helvetica,sans-Serif" font-size="10.00">handleUpload</text>
</a>
</g>
</g>
<!-- Node2&#45;&gt;Node21 -->
<g id="edge30" class="edge">
<title>Node2&#45;&gt;Node21</title>
<path fill="none" stroke="midnightblue" d="M1518.31,-211.18C1501.45,-209.01 1483.65,-206.72 1468.59,-204.78"/>
<polygon fill="midnightblue" stroke="midnightblue" points="1518.29,-214.71 1528.65,-212.51 1519.18,-207.77 1518.29,-214.71"/>
</g>
<!-- Node5 -->
<g id="node5" class="node">
<title>Node5</title>
<g id="a_node5"><a xlink:href="classClient.html#a419f8f3253d3f71287044e3999a5d600" target="_top" xlink:title=" ">
<polygon fill="white" stroke="black" points="852.5,-182.5 852.5,-201.5 965.5,-201.5 965.5,-182.5 852.5,-182.5"/>
<text text-anchor="middle" x="909" y="-189.5" font-family="Helvetica,sans-Serif" font-size="10.00">Client::buildResponse</text>
</a>
</g>
</g>
<!-- Node4&#45;&gt;Node5 -->
<g id="edge4" class="edge">
<title>Node4&#45;&gt;Node5</title>
<path fill="none" stroke="midnightblue" d="M1052.09,-269.35C1017.14,-250.32 957.11,-217.65 927.53,-201.54"/>
<polygon fill="midnightblue" stroke="midnightblue" points="1050.78,-272.62 1061.23,-274.33 1054.12,-266.47 1050.78,-272.62"/>
</g>
<!-- Node6 -->
<g id="node6" class="node">
<title>Node6</title>
<g id="a_node6"><a xlink:href="classClient.html#abcf615f2514ae7e0266315693e73a31a" target="_top" xlink:title=" ">
<polygon fill="white" stroke="black" points="652,-163.5 652,-182.5 807,-182.5 807,-163.5 652,-163.5"/>
<text text-anchor="middle" x="729.5" y="-170.5" font-family="Helvetica,sans-Serif" font-size="10.00">Client::handleCompleteRequest</text>
</a>
</g>
</g>
<!-- Node5&#45;&gt;Node6 -->
<g id="edge5" class="edge">
<title>Node5&#45;&gt;Node6</title>
<path fill="none" stroke="midnightblue" d="M842.05,-184.94C830.67,-183.72 818.75,-182.45 807.12,-181.2"/>
<polygon fill="midnightblue" stroke="midnightblue" points="842.01,-188.46 852.32,-186.04 842.75,-181.5 842.01,-188.46"/>
</g>
<!-- Node7 -->
<g id="node7" class="node">
<title>Node7</title>
<g id="a_node7"><a xlink:href="classClient.html#ac95fe5b24fe5275bd2271bd1ac37596d" target="_top" xlink:title=" ">
<polygon fill="white" stroke="black" points="336,-154.5 336,-173.5 436,-173.5 436,-154.5 336,-154.5"/>
<text text-anchor="middle" x="386" y="-161.5" font-family="Helvetica,sans-Serif" font-size="10.00">Client::handleRead</text>
</a>
</g>
</g>
<!-- Node6&#45;&gt;Node7 -->
<g id="edge6" class="edge">
<title>Node6&#45;&gt;Node7</title>
<path fill="none" stroke="midnightblue" d="M641.61,-170.71C576.51,-168.99 489.78,-166.71 436.2,-165.3"/>
<polygon fill="midnightblue" stroke="midnightblue" points="641.77,-174.22 651.86,-170.98 641.96,-167.22 641.77,-174.22"/>
</g>
<!-- Node10 -->
<g id="node10" class="node">
<title>Node10</title>
<g id="a_node10"><a xlink:href="classClient.html#a950fd2ab8ac20c9be4c5e722344d6fe2" target="_top" xlink:title=" ">
<polygon fill="white" stroke="black" points="491,-192.5 491,-211.5 616,-211.5 616,-192.5 491,-192.5"/>
<text text-anchor="middle" x="553.5" y="-199.5" font-family="Helvetica,sans-Serif" font-size="10.00">Client::processRequests</text>
</a>
</g>
</g>
<!-- Node6&#45;&gt;Node10 -->
<g id="edge9" class="edge">
<title>Node6&#45;&gt;Node10</title>
<path fill="none" stroke="midnightblue" d="M661.02,-184.25C644.69,-186.97 627.4,-189.85 611.6,-192.48"/>
<polygon fill="midnightblue" stroke="midnightblue" points="661.76,-187.67 671.04,-182.58 660.6,-180.77 661.76,-187.67"/>
</g>
<!-- Node8 -->
<g id="node8" class="node">
<title>Node8</title>
<g id="a_node8"><a xlink:href="classServerManager.html#a9f3ca46da9df004286f90902b8daf29d" target="_top" xlink:title=" ">
<polygon fill="white" stroke="black" points="138,-144 138,-174 281,-174 281,-144 138,-144"/>
<text text-anchor="start" x="146" y="-162" font-family="Helvetica,sans-Serif" font-size="10.00">ServerManager::handleClient</text>
<text text-anchor="middle" x="209.5" y="-151" font-family="Helvetica,sans-Serif" font-size="10.00">Event</text>
</a>
</g>
</g>
<!-- Node7&#45;&gt;Node8 -->
<g id="edge7" class="edge">
<title>Node7&#45;&gt;Node8</title>
<path fill="none" stroke="midnightblue" d="M325.69,-162.3C311.33,-161.89 295.84,-161.45 281.02,-161.02"/>
<polygon fill="midnightblue" stroke="midnightblue" points="325.83,-165.81 335.93,-162.59 326.03,-158.81 325.83,-165.81"/>
</g>
<!-- Node9 -->
<g id="node9" class="node">
<title>Node9</title>
<g id="a_node9"><a xlink:href="classServerManager.html#aecc313c9b6afcab92c22269b3333c721" target="_top" xlink:title=" ">
<polygon fill="white" stroke="black" points="0,-108.5 0,-127.5 102,-127.5 102,-108.5 0,-108.5"/>
<text text-anchor="middle" x="51" y="-115.5" font-family="Helvetica,sans-Serif" font-size="10.00">ServerManager::run</text>
</a>
</g>
</g>
<!-- Node8&#45;&gt;Node9 -->
<g id="edge8" class="edge">
<title>Node8&#45;&gt;Node9</title>
<path fill="none" stroke="midnightblue" d="M141.42,-141.43C123.25,-136.67 104.25,-131.69 88.47,-127.55"/>
<polygon fill="midnightblue" stroke="midnightblue" points="140.55,-144.82 151.11,-143.97 142.33,-138.05 140.55,-144.82"/>
</g>
<!-- Node10&#45;&gt;Node7 -->
<g id="edge11" class="edge">
<title>Node10&#45;&gt;Node7</title>
<path fill="none" stroke="midnightblue" d="M500.69,-190.1C477.43,-184.76 450.35,-178.55 428.46,-173.52"/>
<polygon fill="midnightblue" stroke="midnightblue" points="500.21,-193.58 510.74,-192.41 501.77,-186.76 500.21,-193.58"/>
</g>
<!-- Node10&#45;&gt;Node11 -->
<g id="edge10" class="edge">
<title>Node10&#45;&gt;Node11</title>
<path fill="none" stroke="midnightblue" d="M529.59,-217.37C494.96,-240.59 430.28,-283.97 401.48,-303.29"/>
<polygon fill="midnightblue" stroke="midnightblue" points="531.75,-220.13 538.1,-211.66 527.85,-214.32 531.75,-220.13"/>
</g>
<!-- Node12&#45;&gt;Node13 -->
<g id="edge14" class="edge">
<title>Node12&#45;&gt;Node13</title>
<path fill="none" stroke="midnightblue" d="M1208.74,-98.27C1200.74,-100.62 1192.58,-103.22 1185,-106 1154.19,-117.28 1119.89,-133.96 1099.4,-144.39"/>
<polygon fill="midnightblue" stroke="midnightblue" points="1209.71,-101.63 1218.38,-95.54 1207.8,-94.9 1209.71,-101.63"/>
</g>
<!-- Node13&#45;&gt;Node5 -->
<g id="edge15" class="edge">
<title>Node13&#45;&gt;Node5</title>
<path fill="none" stroke="midnightblue" d="M1026.41,-165.82C1002.59,-171.18 974.79,-177.43 952.34,-182.48"/>
<polygon fill="midnightblue" stroke="midnightblue" points="1027.37,-169.2 1036.35,-163.59 1025.83,-162.37 1027.37,-169.2"/>
</g>
<!-- Node13&#45;&gt;Node6 -->
<g id="edge16" class="edge">
<title>Node13&#45;&gt;Node6</title>
<path fill="none" stroke="midnightblue" d="M1000.79,-158.26C942.96,-161.42 864.6,-165.69 807.14,-168.82"/>
<polygon fill="midnightblue" stroke="midnightblue" points="1001.18,-161.75 1010.98,-157.71 1000.8,-154.76 1001.18,-161.75"/>
</g>
<!-- Node15 -->
<g id="node15" class="node">
<title>Node15</title>
<g id="a_node15"><a xlink:href="classServerManager.html#a9c75ea0bd268425c187ef25770eccbe8" target="_top" xlink:title=" ">
<polygon fill="white" stroke="black" points="843,-43 843,-73 975,-73 975,-43 843,-43"/>
<text text-anchor="start" x="851" y="-61" font-family="Helvetica,sans-Serif" font-size="10.00">ServerManager::handleCgi</text>
<text text-anchor="middle" x="909" y="-50" font-family="Helvetica,sans-Serif" font-size="10.00">PipeEvent</text>
</a>
</g>
</g>
<!-- Node14&#45;&gt;Node15 -->
<g id="edge18" class="edge">
<title>Node14&#45;&gt;Node15</title>
<path fill="none" stroke="midnightblue" d="M1364.65,-15.99C1264.95,-25.2 1075.11,-42.74 975.2,-51.98"/>
<polygon fill="midnightblue" stroke="midnightblue" points="1365.25,-19.45 1374.89,-15.05 1364.61,-12.48 1365.25,-19.45"/>
</g>
<!-- Node15&#45;&gt;Node9 -->
<g id="edge19" class="edge">
<title>Node15&#45;&gt;Node9</title>
<path fill="none" stroke="midnightblue" d="M832.5,-70.85C761.1,-81.88 650.84,-96 554.5,-96 554.5,-96 554.5,-96 385,-96 284.48,-96 167.25,-106.11 102.14,-112.62"/>
<polygon fill="midnightblue" stroke="midnightblue" points="833.41,-74.25 842.75,-69.25 832.33,-67.33 833.41,-74.25"/>
</g>
<!-- Node16&#45;&gt;Node17 -->
<g id="edge21" class="edge">
<title>Node16&#45;&gt;Node17</title>
<path fill="none" stroke="midnightblue" d="M1394.4,-300.82C1385.72,-297.42 1376.48,-293.68 1368,-290 1336.19,-276.19 1300.01,-258.43 1278.51,-247.64"/>
<polygon fill="midnightblue" stroke="midnightblue" points="1393.3,-304.15 1403.89,-304.5 1395.83,-297.63 1393.3,-304.15"/>
</g>
<!-- Node17&#45;&gt;Node13 -->
<g id="edge22" class="edge">
<title>Node17&#45;&gt;Node13</title>
<path fill="none" stroke="midnightblue" d="M1227.79,-224.14C1214.66,-218 1199.05,-210.67 1185,-204 1155.68,-190.08 1121.82,-173.75 1100.91,-163.64"/>
<polygon fill="midnightblue" stroke="midnightblue" points="1226.31,-227.32 1236.85,-228.38 1229.27,-220.98 1226.31,-227.32"/>
</g>
<!-- Node18&#45;&gt;Node13 -->
<g id="edge24" class="edge">
<title>Node18&#45;&gt;Node13</title>
<path fill="none" stroke="midnightblue" d="M1182.08,-168.32C1170.86,-166.73 1159.35,-165.1 1148.32,-163.53"/>
<polygon fill="midnightblue" stroke="midnightblue" points="1181.89,-171.82 1192.28,-169.76 1182.87,-164.89 1181.89,-171.82"/>
</g>
<!-- Node19&#45;&gt;Node13 -->
<g id="edge26" class="edge">
<title>Node19&#45;&gt;Node13</title>
<path fill="none" stroke="midnightblue" d="M1182.29,-140.23C1171.3,-141.72 1160.04,-143.25 1149.2,-144.73"/>
<polygon fill="midnightblue" stroke="midnightblue" points="1182.84,-143.68 1192.28,-138.87 1181.9,-136.75 1182.84,-143.68"/>
</g>
<!-- Node20&#45;&gt;Node17 -->
<g id="edge28" class="edge">
<title>Node20&#45;&gt;Node17</title>
<path fill="none" stroke="midnightblue" d="M1372.59,-238C1350.31,-238 1325.14,-238 1304.2,-238"/>
<polygon fill="midnightblue" stroke="midnightblue" points="1372.6,-241.5 1382.6,-238 1372.6,-234.5 1372.6,-241.5"/>
</g>
<!-- Node21&#45;&gt;Node17 -->
<g id="edge31" class="edge">
<title>Node21&#45;&gt;Node17</title>
<path fill="none" stroke="midnightblue" d="M1382.16,-210.58C1357.06,-216.19 1326.46,-223.03 1302.11,-228.48"/>
<polygon fill="midnightblue" stroke="midnightblue" points="1383.2,-213.94 1392.19,-208.34 1381.67,-207.11 1383.2,-213.94"/>
</g>
</g>
</svg>
