<?xml version="1.0" encoding="UTF-8" standalone="no"?>
<!DOCTYPE svg PUBLIC "-//W3C//DTD SVG 1.1//EN"
 "http://www.w3.org/Graphics/SVG/1.1/DTD/svg11.dtd">
<!-- Generated by graphviz version 2.43.0 (0)
 -->
<!-- Title: src/client/ResponseUtils.cpp Pages: 1 -->
<svg width="288pt" height="252pt"
 viewBox="0.00 0.00 287.59 252.00" xmlns="http://www.w3.org/2000/svg" xmlns:xlink="http://www.w3.org/1999/xlink">
<g id="graph0" class="graph" transform="scale(1 1) rotate(0) translate(4 248)">
<title>src/client/ResponseUtils.cpp</title>
<polygon fill="white" stroke="transparent" points="-4,4 -4,-248 283.59,-248 283.59,4 -4,4"/>
<!-- Node1 -->
<g id="node1" class="node">
<title>Node1</title>
<g id="a_node1"><a xlink:title=" ">
<polygon fill="#bfbfbf" stroke="black" points="35.59,-224.5 35.59,-243.5 178.59,-243.5 178.59,-224.5 35.59,-224.5"/>
<text text-anchor="middle" x="107.09" y="-231.5" font-family="Helvetica,sans-Serif" font-size="10.00">src/client/ResponseUtils.cpp</text>
</a>
</g>
</g>
<!-- Node2 -->
<g id="node2" class="node">
<title>Node2</title>
<g id="a_node2"><a xlink:href="ResponseUtils_8hpp.html" target="_top" xlink:title=" ">
<polygon fill="white" stroke="black" points="0.09,-168.5 0.09,-187.5 100.09,-187.5 100.09,-168.5 0.09,-168.5"/>
<text text-anchor="middle" x="50.09" y="-175.5" font-family="Helvetica,sans-Serif" font-size="10.00">ResponseUtils.hpp</text>
</a>
</g>
</g>
<!-- Node1&#45;&gt;Node2 -->
<g id="edge1" class="edge">
<title>Node1&#45;&gt;Node2</title>
<path fill="none" stroke="midnightblue" d="M97.93,-224.32C89.59,-216.42 77.06,-204.55 66.91,-194.94"/>
<polygon fill="midnightblue" stroke="midnightblue" points="69.08,-192.17 59.41,-187.83 64.26,-197.25 69.08,-192.17"/>
</g>
<!-- Node9 -->
<g id="node9" class="node">
<title>Node9</title>
<g id="a_node9"><a xlink:href="SessionUtils_8hpp.html" target="_top" xlink:title=" ">
<polygon fill="white" stroke="black" points="118.59,-168.5 118.59,-187.5 209.59,-187.5 209.59,-168.5 118.59,-168.5"/>
<text text-anchor="middle" x="164.09" y="-175.5" font-family="Helvetica,sans-Serif" font-size="10.00">SessionUtils.hpp</text>
</a>
</g>
</g>
<!-- Node1&#45;&gt;Node9 -->
<g id="edge14" class="edge">
<title>Node1&#45;&gt;Node9</title>
<path fill="none" stroke="midnightblue" d="M116.25,-224.32C124.59,-216.42 137.12,-204.55 147.26,-194.94"/>
<polygon fill="midnightblue" stroke="midnightblue" points="149.91,-197.25 154.76,-187.83 145.1,-192.17 149.91,-197.25"/>
</g>
<!-- Node3 -->
<g id="node3" class="node">
<title>Node3</title>
<g id="a_node3"><a xlink:title=" ">
<polygon fill="white" stroke="#bfbfbf" points="89.59,-0.5 89.59,-19.5 130.59,-19.5 130.59,-0.5 89.59,-0.5"/>
<text text-anchor="middle" x="110.09" y="-7.5" font-family="Helvetica,sans-Serif" font-size="10.00">string</text>
</a>
</g>
</g>
<!-- Node2&#45;&gt;Node3 -->
<g id="edge2" class="edge">
<title>Node2&#45;&gt;Node3</title>
<path fill="none" stroke="midnightblue" d="M51.14,-168.42C52.83,-155.82 56.64,-131.69 63.09,-112 73.03,-81.64 89.71,-48.4 100.3,-28.64"/>
<polygon fill="midnightblue" stroke="midnightblue" points="103.5,-30.08 105.21,-19.63 97.35,-26.74 103.5,-30.08"/>
</g>
<!-- Node4 -->
<g id="node4" class="node">
<title>Node4</title>
<g id="a_node4"><a xlink:title=" ">
<polygon fill="white" stroke="#bfbfbf" points="27.09,-0.5 27.09,-19.5 71.09,-19.5 71.09,-0.5 27.09,-0.5"/>
<text text-anchor="middle" x="49.09" y="-7.5" font-family="Helvetica,sans-Serif" font-size="10.00">vector</text>
</a>
</g>
</g>
<!-- Node2&#45;&gt;Node4 -->
<g id="edge3" class="edge">
<title>Node2&#45;&gt;Node4</title>
<path fill="none" stroke="midnightblue" d="M38.55,-168.49C28.61,-160.38 14.97,-147.18 9.09,-132 -3.11,-100.5 -2.92,-87.57 9.09,-56 13.42,-44.6 22.12,-34.24 30.3,-26.34"/>
<polygon fill="midnightblue" stroke="midnightblue" points="32.73,-28.86 37.82,-19.57 28.05,-23.66 32.73,-28.86"/>
</g>
<!-- Node5 -->
<g id="node5" class="node">
<title>Node5</title>
<g id="a_node5"><a xlink:href="HttpRequest_8hpp.html" target="_top" xlink:title=" ">
<polygon fill="white" stroke="black" points="127.59,-56.5 127.59,-75.5 246.59,-75.5 246.59,-56.5 127.59,-56.5"/>
<text text-anchor="middle" x="187.09" y="-63.5" font-family="Helvetica,sans-Serif" font-size="10.00">../http/HttpRequest.hpp</text>
</a>
</g>
</g>
<!-- Node2&#45;&gt;Node5 -->
<g id="edge4" class="edge">
<title>Node2&#45;&gt;Node5</title>
<path fill="none" stroke="midnightblue" d="M51.97,-168.24C55.34,-154.52 63.64,-127.89 80.09,-112 96.46,-96.18 119.23,-85.55 139.56,-78.62"/>
<polygon fill="midnightblue" stroke="midnightblue" points="140.84,-81.89 149.3,-75.51 138.71,-75.22 140.84,-81.89"/>
</g>
<!-- Node8 -->
<g id="node8" class="node">
<title>Node8</title>
<g id="a_node8"><a xlink:href="HttpResponse_8hpp.html" target="_top" xlink:title=" ">
<polygon fill="white" stroke="black" points="89.59,-112.5 89.59,-131.5 216.59,-131.5 216.59,-112.5 89.59,-112.5"/>
<text text-anchor="middle" x="153.09" y="-119.5" font-family="Helvetica,sans-Serif" font-size="10.00">../http/HttpResponse.hpp</text>
</a>
</g>
</g>
<!-- Node2&#45;&gt;Node8 -->
<g id="edge9" class="edge">
<title>Node2&#45;&gt;Node8</title>
<path fill="none" stroke="midnightblue" d="M66.64,-168.32C83.08,-159.7 108.52,-146.36 127.56,-136.39"/>
<polygon fill="midnightblue" stroke="midnightblue" points="129.35,-139.4 136.58,-131.65 126.1,-133.2 129.35,-139.4"/>
</g>
<!-- Node5&#45;&gt;Node3 -->
<g id="edge7" class="edge">
<title>Node5&#45;&gt;Node3</title>
<path fill="none" stroke="midnightblue" d="M174.72,-56.32C162.93,-48.06 144.96,-35.45 130.95,-25.63"/>
<polygon fill="midnightblue" stroke="midnightblue" points="132.63,-22.53 122.43,-19.65 128.61,-28.26 132.63,-22.53"/>
</g>
<!-- Node5&#45;&gt;Node4 -->
<g id="edge8" class="edge">
<title>Node5&#45;&gt;Node4</title>
<path fill="none" stroke="midnightblue" d="M165.22,-56.44C142.31,-47.48 106.11,-33.31 80.22,-23.18"/>
<polygon fill="midnightblue" stroke="midnightblue" points="81.44,-19.9 70.85,-19.52 78.89,-26.42 81.44,-19.9"/>
</g>
<!-- Node6 -->
<g id="node6" class="node">
<title>Node6</title>
<g id="a_node6"><a xlink:title=" ">
<polygon fill="white" stroke="#bfbfbf" points="160.09,-0.5 160.09,-19.5 214.09,-19.5 214.09,-0.5 160.09,-0.5"/>
<text text-anchor="middle" x="187.09" y="-7.5" font-family="Helvetica,sans-Serif" font-size="10.00">iostream</text>
</a>
</g>
</g>
<!-- Node5&#45;&gt;Node6 -->
<g id="edge5" class="edge">
<title>Node5&#45;&gt;Node6</title>
<path fill="none" stroke="midnightblue" d="M187.09,-56.08C187.09,-49.01 187.09,-38.86 187.09,-29.99"/>
<polygon fill="midnightblue" stroke="midnightblue" points="190.59,-29.75 187.09,-19.75 183.59,-29.75 190.59,-29.75"/>
</g>
<!-- Node7 -->
<g id="node7" class="node">
<title>Node7</title>
<g id="a_node7"><a xlink:title=" ">
<polygon fill="white" stroke="#bfbfbf" points="244.59,-0.5 244.59,-19.5 279.59,-19.5 279.59,-0.5 244.59,-0.5"/>
<text text-anchor="middle" x="262.09" y="-7.5" font-family="Helvetica,sans-Serif" font-size="10.00">map</text>
</a>
</g>
</g>
<!-- Node5&#45;&gt;Node7 -->
<g id="edge6" class="edge">
<title>Node5&#45;&gt;Node7</title>
<path fill="none" stroke="midnightblue" d="M199.14,-56.32C210.55,-48.11 227.92,-35.6 241.52,-25.81"/>
<polygon fill="midnightblue" stroke="midnightblue" points="243.75,-28.52 249.82,-19.83 239.66,-22.84 243.75,-28.52"/>
</g>
<!-- Node8&#45;&gt;Node3 -->
<g id="edge11" class="edge">
<title>Node8&#45;&gt;Node3</title>
<path fill="none" stroke="midnightblue" d="M143.94,-112.3C135.69,-103.86 123.98,-90.27 118.09,-76 112.04,-61.37 110.21,-43.43 109.79,-30.1"/>
<polygon fill="midnightblue" stroke="midnightblue" points="113.29,-29.76 109.72,-19.78 106.29,-29.81 113.29,-29.76"/>
</g>
<!-- Node8&#45;&gt;Node4 -->
<g id="edge12" class="edge">
<title>Node8&#45;&gt;Node4</title>
<path fill="none" stroke="midnightblue" d="M144.58,-112.44C135.66,-103.44 121.28,-88.83 109.09,-76 93.5,-59.59 75.97,-40.53 63.9,-27.31"/>
<polygon fill="midnightblue" stroke="midnightblue" points="66.48,-24.94 57.16,-19.91 61.31,-29.66 66.48,-24.94"/>
</g>
<!-- Node8&#45;&gt;Node5 -->
<g id="edge13" class="edge">
<title>Node8&#45;&gt;Node5</title>
<path fill="none" stroke="midnightblue" d="M158.7,-112.08C163.46,-104.53 170.41,-93.49 176.24,-84.23"/>
<polygon fill="midnightblue" stroke="midnightblue" points="179.21,-86.08 181.58,-75.75 173.29,-82.35 179.21,-86.08"/>
</g>
<!-- Node8&#45;&gt;Node7 -->
<g id="edge10" class="edge">
<title>Node8&#45;&gt;Node7</title>
<path fill="none" stroke="midnightblue" d="M197.8,-112.47C218.89,-106.06 242.38,-94.98 256.09,-76 265.72,-62.66 266.36,-43.55 265.1,-29.5"/>
<polygon fill="midnightblue" stroke="midnightblue" points="268.57,-29 263.83,-19.52 261.62,-29.88 268.57,-29"/>
</g>
<!-- Node9&#45;&gt;Node5 -->
<g id="edge15" class="edge">
<title>Node9&#45;&gt;Node5</title>
<path fill="none" stroke="midnightblue" d="M184.31,-168.49C198.86,-161.17 217.39,-149.06 226.09,-132 234.98,-114.55 220.36,-95.43 206.56,-82.47"/>
<polygon fill="midnightblue" stroke="midnightblue" points="208.54,-79.56 198.71,-75.61 203.93,-84.83 208.54,-79.56"/>
</g>
<!-- Node9&#45;&gt;Node8 -->
<g id="edge16" class="edge">
<title>Node9&#45;&gt;Node8</title>
<path fill="none" stroke="midnightblue" d="M162.27,-168.08C160.81,-160.93 158.72,-150.64 156.9,-141.69"/>
<polygon fill="midnightblue" stroke="midnightblue" points="160.3,-140.85 154.87,-131.75 153.44,-142.25 160.3,-140.85"/>
</g>
</g>
</svg>
