<?xml version="1.0" encoding="UTF-8" standalone="no"?>
<!DOCTYPE svg PUBLIC "-//W3C//DTD SVG 1.1//EN"
 "http://www.w3.org/Graphics/SVG/1.1/DTD/svg11.dtd">
<!-- Generated by graphviz version 2.43.0 (0)
 -->
<!-- Title: src/config/ServerConfig.cpp Pages: 1 -->
<!--zoomable 196 -->
<svg id="main" version="1.1" xmlns="http://www.w3.org/2000/svg" xmlns:xlink="http://www.w3.org/1999/xlink" xml:space="preserve" onload="init(evt)">
<style type="text/css"><![CDATA[
.edge:hover path { stroke: red; }
.edge:hover polygon { stroke: red; fill: red; }
]]></style>
<script type="text/javascript"><![CDATA[
var edges = document.getElementsByTagName('g');
if (edges && edges.length) {
  for (var i=0;i<edges.length;i++) {
    if (edges[i].id.substr(0,4)=='edge') {
      edges[i].setAttribute('class','edge');
    }
  }
}
]]></script>
        <defs>
                <circle id="rim" cx="0" cy="0" r="7"/>
                <circle id="rim2" cx="0" cy="0" r="3.5"/>
                <g id="zoomPlus">
                        <use xlink:href="#rim" fill="#404040">
                                <set attributeName="fill" to="#808080" begin="zoomplus.mouseover" end="zoomplus.mouseout"/>
                        </use>
                        <path d="M-4,0h8M0,-4v8" fill="none" stroke="white" stroke-width="1.5" pointer-events="none"/>
                </g>
                <g id="zoomMin">
                        <use xlink:href="#rim" fill="#404040">
                                <set attributeName="fill" to="#808080" begin="zoomminus.mouseover" end="zoomminus.mouseout"/>
                        </use>
                        <path d="M-4,0h8" fill="none" stroke="white" stroke-width="1.5" pointer-events="none"/>
                </g>
                <g id="dirArrow">
                        <path fill="none" stroke="white" stroke-width="1.5" d="M0,-3.0v7 M-2.5,-0.5L0,-3.0L2.5,-0.5"/>
                </g>
               <g id="resetDef">
                       <use xlink:href="#rim2" fill="#404040">
                               <set attributeName="fill" to="#808080" begin="reset.mouseover" end="reset.mouseout"/>
                       </use>
               </g>
        </defs>

<script type="text/javascript">
var viewWidth = 623;
var viewHeight = 196;
var sectionId = 'dynsection-0';
</script>
<script xlink:href="svgpan.js"/>
<svg id="graph" class="graph">
<g id="viewport">
<title>src/config/ServerConfig.cpp</title>
<polygon fill="white" stroke="transparent" points="-4,4 -4,-192 618.54,-192 618.54,4 -4,4"/>
<!-- Node1 -->
<g id="node1" class="node">
<title>Node1</title>
<g id="a_node1"><a xlink:title=" ">
<polygon fill="#bfbfbf" stroke="black" points="315.54,-168.5 315.54,-187.5 453.54,-187.5 453.54,-168.5 315.54,-168.5"/>
<text text-anchor="middle" x="384.54" y="-175.5" font-family="Helvetica,sans-Serif" font-size="10.00">src/config/ServerConfig.cpp</text>
</a>
</g>
</g>
<!-- Node2 -->
<g id="node2" class="node">
<title>Node2</title>
<g id="a_node2"><a xlink:href="ServerConfig_8hpp.html" target="_top" xlink:title=" ">
<polygon fill="white" stroke="black" points="136.54,-112.5 136.54,-131.5 228.54,-131.5 228.54,-112.5 136.54,-112.5"/>
<text text-anchor="middle" x="182.54" y="-119.5" font-family="Helvetica,sans-Serif" font-size="10.00">ServerConfig.hpp</text>
</a>
</g>
</g>
<!-- Node1&#45;&gt;Node2 -->
<g id="edge1" class="edge">
<title>Node1&#45;&gt;Node2</title>
<path fill="none" stroke="midnightblue" d="M352.53,-168.44C317.81,-159.16 262.25,-144.31 224.16,-134.13"/>
<polygon fill="midnightblue" stroke="midnightblue" points="224.96,-130.72 214.4,-131.52 223.15,-137.48 224.96,-130.72"/>
</g>
<!-- Node5 -->
<g id="node5" class="node">
<title>Node5</title>
<g id="a_node5"><a xlink:title=" ">
<polygon fill="white" stroke="#bfbfbf" points="294.04,-0.5 294.04,-19.5 335.04,-19.5 335.04,-0.5 294.04,-0.5"/>
<text text-anchor="middle" x="314.54" y="-7.5" font-family="Helvetica,sans-Serif" font-size="10.00">string</text>
</a>
</g>
</g>
<!-- Node1&#45;&gt;Node5 -->
<g id="edge14" class="edge">
<title>Node1&#45;&gt;Node5</title>
<path fill="none" stroke="midnightblue" d="M387.8,-168.36C395.1,-147.46 410.57,-93.14 389.54,-56 380,-39.15 361.35,-27.92 345.04,-20.89"/>
<polygon fill="midnightblue" stroke="midnightblue" points="345.87,-17.46 335.28,-17.05 343.3,-23.97 345.87,-17.46"/>
</g>
<!-- Node7 -->
<g id="node7" class="node">
<title>Node7</title>
<g id="a_node7"><a xlink:href="LocationConfig_8hpp.html" target="_top" xlink:title=" ">
<polygon fill="white" stroke="black" points="15.04,-56.5 15.04,-75.5 116.04,-75.5 116.04,-56.5 15.04,-56.5"/>
<text text-anchor="middle" x="65.54" y="-63.5" font-family="Helvetica,sans-Serif" font-size="10.00">LocationConfig.hpp</text>
</a>
</g>
</g>
<!-- Node1&#45;&gt;Node7 -->
<g id="edge19" class="edge">
<title>Node1&#45;&gt;Node7</title>
<path fill="none" stroke="midnightblue" d="M315.27,-176.49C261.24,-173.44 185.85,-163.19 127.54,-132 106.36,-120.67 88.22,-99.44 77.13,-84.33"/>
<polygon fill="midnightblue" stroke="midnightblue" points="79.79,-82.02 71.17,-75.85 74.06,-86.05 79.79,-82.02"/>
</g>
<!-- Node8 -->
<g id="node8" class="node">
<title>Node8</title>
<g id="a_node8"><a xlink:href="namespaces_8hpp.html" target="_top" xlink:title=" ">
<polygon fill="white" stroke="black" points="249.04,-56.5 249.04,-75.5 380.04,-75.5 380.04,-56.5 249.04,-56.5"/>
<text text-anchor="middle" x="314.54" y="-63.5" font-family="Helvetica,sans-Serif" font-size="10.00">common/namespaces.hpp</text>
</a>
</g>
</g>
<!-- Node1&#45;&gt;Node8 -->
<g id="edge15" class="edge">
<title>Node1&#45;&gt;Node8</title>
<path fill="none" stroke="midnightblue" d="M379.05,-168.37C367.55,-150.3 340.74,-108.18 325.55,-84.31"/>
<polygon fill="midnightblue" stroke="midnightblue" points="328.33,-82.15 320.01,-75.59 322.42,-85.91 328.33,-82.15"/>
</g>
<!-- Node9 -->
<g id="node9" class="node">
<title>Node9</title>
<g id="a_node9"><a xlink:title=" ">
<polygon fill="white" stroke="#bfbfbf" points="562.54,-112.5 562.54,-131.5 614.54,-131.5 614.54,-112.5 562.54,-112.5"/>
<text text-anchor="middle" x="588.54" y="-119.5" font-family="Helvetica,sans-Serif" font-size="10.00">sstream</text>
</a>
</g>
</g>
<!-- Node1&#45;&gt;Node9 -->
<g id="edge13" class="edge">
<title>Node1&#45;&gt;Node9</title>
<path fill="none" stroke="midnightblue" d="M416.86,-168.44C453.89,-158.64 514.37,-142.63 552.78,-132.47"/>
<polygon fill="midnightblue" stroke="midnightblue" points="553.74,-135.83 562.52,-129.89 551.95,-129.06 553.74,-135.83"/>
</g>
<!-- Node10 -->
<g id="node10" class="node">
<title>Node10</title>
<g id="a_node10"><a xlink:href="ConfigException_8hpp.html" target="_top" xlink:title=" ">
<polygon fill="white" stroke="black" points="437.04,-112.5 437.04,-131.5 544.04,-131.5 544.04,-112.5 437.04,-112.5"/>
<text text-anchor="middle" x="490.54" y="-119.5" font-family="Helvetica,sans-Serif" font-size="10.00">ConfigException.hpp</text>
</a>
</g>
</g>
<!-- Node1&#45;&gt;Node10 -->
<g id="edge16" class="edge">
<title>Node1&#45;&gt;Node10</title>
<path fill="none" stroke="midnightblue" d="M401.57,-168.32C418.57,-159.66 444.92,-146.24 464.53,-136.25"/>
<polygon fill="midnightblue" stroke="midnightblue" points="466.23,-139.31 473.55,-131.65 463.05,-133.08 466.23,-139.31"/>
</g>
<!-- Node3 -->
<g id="node3" class="node">
<title>Node3</title>
<g id="a_node3"><a xlink:title=" ">
<polygon fill="white" stroke="#bfbfbf" points="143.54,-0.5 143.54,-19.5 197.54,-19.5 197.54,-0.5 143.54,-0.5"/>
<text text-anchor="middle" x="170.54" y="-7.5" font-family="Helvetica,sans-Serif" font-size="10.00">iostream</text>
</a>
</g>
</g>
<!-- Node2&#45;&gt;Node3 -->
<g id="edge2" class="edge">
<title>Node2&#45;&gt;Node3</title>
<path fill="none" stroke="midnightblue" d="M181.6,-112.37C179.66,-94.62 175.19,-53.67 172.57,-29.6"/>
<polygon fill="midnightblue" stroke="midnightblue" points="176.04,-29.15 171.48,-19.59 169.08,-29.91 176.04,-29.15"/>
</g>
<!-- Node4 -->
<g id="node4" class="node">
<title>Node4</title>
<g id="a_node4"><a xlink:title=" ">
<polygon fill="white" stroke="#bfbfbf" points="5.04,-0.5 5.04,-19.5 40.04,-19.5 40.04,-0.5 5.04,-0.5"/>
<text text-anchor="middle" x="22.54" y="-7.5" font-family="Helvetica,sans-Serif" font-size="10.00">map</text>
</a>
</g>
</g>
<!-- Node2&#45;&gt;Node4 -->
<g id="edge3" class="edge">
<title>Node2&#45;&gt;Node4</title>
<path fill="none" stroke="midnightblue" d="M136.14,-115.63C89.24,-109.14 21.45,-96.46 5.54,-76 -5.16,-62.23 2.43,-42.38 10.6,-28.24"/>
<polygon fill="midnightblue" stroke="midnightblue" points="13.74,-29.83 16.14,-19.51 7.83,-26.08 13.74,-29.83"/>
</g>
<!-- Node2&#45;&gt;Node5 -->
<g id="edge4" class="edge">
<title>Node2&#45;&gt;Node5</title>
<path fill="none" stroke="midnightblue" d="M188.97,-112.26C198.99,-99.04 219.39,-73.61 240.54,-56 255.23,-43.77 273.58,-32.58 288.34,-24.43"/>
<polygon fill="midnightblue" stroke="midnightblue" points="290.29,-27.35 297.44,-19.52 286.97,-21.19 290.29,-27.35"/>
</g>
<!-- Node6 -->
<g id="node6" class="node">
<title>Node6</title>
<g id="a_node6"><a xlink:title=" ">
<polygon fill="white" stroke="#bfbfbf" points="68.54,-0.5 68.54,-19.5 112.54,-19.5 112.54,-0.5 68.54,-0.5"/>
<text text-anchor="middle" x="90.54" y="-7.5" font-family="Helvetica,sans-Serif" font-size="10.00">vector</text>
</a>
</g>
</g>
<!-- Node2&#45;&gt;Node6 -->
<g id="edge5" class="edge">
<title>Node2&#45;&gt;Node6</title>
<path fill="none" stroke="midnightblue" d="M175.32,-112.37C160,-94.05 124.03,-51.05 104.22,-27.36"/>
<polygon fill="midnightblue" stroke="midnightblue" points="106.83,-25.02 97.72,-19.59 101.46,-29.51 106.83,-25.02"/>
</g>
<!-- Node2&#45;&gt;Node7 -->
<g id="edge6" class="edge">
<title>Node2&#45;&gt;Node7</title>
<path fill="none" stroke="midnightblue" d="M164,-112.44C144.92,-103.64 114.96,-89.81 93.1,-79.72"/>
<polygon fill="midnightblue" stroke="midnightblue" points="94.54,-76.53 83.99,-75.52 91.6,-82.88 94.54,-76.53"/>
</g>
<!-- Node2&#45;&gt;Node8 -->
<g id="edge11" class="edge">
<title>Node2&#45;&gt;Node8</title>
<path fill="none" stroke="midnightblue" d="M203.46,-112.44C225.28,-103.52 259.69,-89.44 284.43,-79.32"/>
<polygon fill="midnightblue" stroke="midnightblue" points="285.79,-82.54 293.72,-75.52 283.14,-76.06 285.79,-82.54"/>
</g>
<!-- Node7&#45;&gt;Node3 -->
<g id="edge7" class="edge">
<title>Node7&#45;&gt;Node3</title>
<path fill="none" stroke="midnightblue" d="M82.41,-56.32C99.25,-47.66 125.35,-34.24 144.78,-24.25"/>
<polygon fill="midnightblue" stroke="midnightblue" points="146.42,-27.34 153.71,-19.65 143.22,-21.12 146.42,-27.34"/>
</g>
<!-- Node7&#45;&gt;Node4 -->
<g id="edge8" class="edge">
<title>Node7&#45;&gt;Node4</title>
<path fill="none" stroke="midnightblue" d="M58.44,-56.08C52.3,-48.38 43.27,-37.03 35.8,-27.65"/>
<polygon fill="midnightblue" stroke="midnightblue" points="38.48,-25.39 29.51,-19.75 33,-29.75 38.48,-25.39"/>
</g>
<!-- Node7&#45;&gt;Node5 -->
<g id="edge9" class="edge">
<title>Node7&#45;&gt;Node5</title>
<path fill="none" stroke="midnightblue" d="M104.99,-56.44C154.63,-45.68 238.82,-27.42 283.9,-17.65"/>
<polygon fill="midnightblue" stroke="midnightblue" points="284.91,-21.01 293.95,-15.47 283.43,-14.17 284.91,-21.01"/>
</g>
<!-- Node7&#45;&gt;Node6 -->
<g id="edge10" class="edge">
<title>Node7&#45;&gt;Node6</title>
<path fill="none" stroke="midnightblue" d="M69.67,-56.08C73.05,-48.77 77.96,-38.18 82.16,-29.1"/>
<polygon fill="midnightblue" stroke="midnightblue" points="85.46,-30.3 86.49,-19.75 79.11,-27.36 85.46,-30.3"/>
</g>
<!-- Node8&#45;&gt;Node5 -->
<g id="edge12" class="edge">
<title>Node8&#45;&gt;Node5</title>
<path fill="none" stroke="midnightblue" d="M314.54,-56.08C314.54,-49.01 314.54,-38.86 314.54,-29.99"/>
<polygon fill="midnightblue" stroke="midnightblue" points="318.04,-29.75 314.54,-19.75 311.04,-29.75 318.04,-29.75"/>
</g>
<!-- Node10&#45;&gt;Node5 -->
<g id="edge18" class="edge">
<title>Node10&#45;&gt;Node5</title>
<path fill="none" stroke="midnightblue" d="M483.4,-112.37C471.82,-98.83 447.69,-72.44 422.54,-56 398.21,-40.1 367.34,-27.92 344.84,-20.26"/>
<polygon fill="midnightblue" stroke="midnightblue" points="345.74,-16.87 335.14,-17.07 343.54,-23.52 345.74,-16.87"/>
</g>
<!-- Node11 -->
<g id="node11" class="node">
<title>Node11</title>
<g id="a_node11"><a xlink:title=" ">
<polygon fill="white" stroke="#bfbfbf" points="475.04,-56.5 475.04,-75.5 534.04,-75.5 534.04,-56.5 475.04,-56.5"/>
<text text-anchor="middle" x="504.54" y="-63.5" font-family="Helvetica,sans-Serif" font-size="10.00">exception</text>
</a>
</g>
</g>
<!-- Node10&#45;&gt;Node11 -->
<g id="edge17" class="edge">
<title>Node10&#45;&gt;Node11</title>
<path fill="none" stroke="midnightblue" d="M492.85,-112.08C494.71,-104.93 497.37,-94.64 499.69,-85.69"/>
<polygon fill="midnightblue" stroke="midnightblue" points="503.15,-86.31 502.27,-75.75 496.37,-84.55 503.15,-86.31"/>
</g>
</g>
</svg>
        <g id="navigator" transform="translate(0 0)" fill="#404254">
                <rect fill="#f2f5e9" fill-opacity="0.5" stroke="#606060" stroke-width=".5" x="0" y="0" width="60" height="60"/>
                <use id="zoomplus" xlink:href="#zoomPlus" x="17" y="9" onmousedown="handleZoom(evt,'in')"/>
                <use id="zoomminus" xlink:href="#zoomMin" x="42" y="9" onmousedown="handleZoom(evt,'out')"/>
                <use id="reset" xlink:href="#resetDef" x="30" y="36" onmousedown="handleReset()"/>
                <g id="arrowUp" xlink:href="#dirArrow" transform="translate(30 24)" onmousedown="handlePan(0,-1)">
                  <use xlink:href="#rim" fill="#404040">
                        <set attributeName="fill" to="#808080" begin="arrowUp.mouseover" end="arrowUp.mouseout"/>
                  </use>
                  <path fill="none" stroke="white" stroke-width="1.5" d="M0,-3.0v7 M-2.5,-0.5L0,-3.0L2.5,-0.5"/>
                </g>
                <g id="arrowRight" xlink:href="#dirArrow" transform="rotate(90) translate(36 -43)" onmousedown="handlePan(1,0)">
                  <use xlink:href="#rim" fill="#404040">
                        <set attributeName="fill" to="#808080" begin="arrowRight.mouseover" end="arrowRight.mouseout"/>
                  </use>
                  <path fill="none" stroke="white" stroke-width="1.5" d="M0,-3.0v7 M-2.5,-0.5L0,-3.0L2.5,-0.5"/>
                </g>
                <g id="arrowDown" xlink:href="#dirArrow" transform="rotate(180) translate(-30 -48)" onmousedown="handlePan(0,1)">
                  <use xlink:href="#rim" fill="#404040">
                        <set attributeName="fill" to="#808080" begin="arrowDown.mouseover" end="arrowDown.mouseout"/>
                  </use>
                  <path fill="none" stroke="white" stroke-width="1.5" d="M0,-3.0v7 M-2.5,-0.5L0,-3.0L2.5,-0.5"/>
                </g>
                <g id="arrowLeft" xlink:href="#dirArrow" transform="rotate(270) translate(-36 17)" onmousedown="handlePan(-1,0)">
                  <use xlink:href="#rim" fill="#404040">
                        <set attributeName="fill" to="#808080" begin="arrowLeft.mouseover" end="arrowLeft.mouseout"/>
                  </use>
                  <path fill="none" stroke="white" stroke-width="1.5" d="M0,-3.0v7 M-2.5,-0.5L0,-3.0L2.5,-0.5"/>
                </g>
        </g>
        <svg viewBox="0 0 15 15" width="100%" height="30px" preserveAspectRatio="xMaxYMin meet">
         <g id="arrow_out" transform="scale(0.3 0.3)">
          <a xlink:href="ServerConfig_8cpp__incl_org.svg" target="_base">
           <rect id="button" ry="5" rx="5" y="6" x="6" height="38" width="38"
                fill="#f2f5e9" fill-opacity="0.5" stroke="#606060" stroke-width="1.0"/>
           <path id="arrow"
             d="M 11.500037,31.436501 C 11.940474,20.09759 22.043105,11.32322 32.158766,21.979434 L 37.068811,17.246167 C 37.068811,17.246167 37.088388,32 37.088388,32 L 22.160133,31.978069 C 22.160133,31.978069 26.997745,27.140456 26.997745,27.140456 C 18.528582,18.264221 13.291696,25.230495 11.500037,31.436501 z"
             style="fill:#404040;"/>
          </a>
         </g>
        </svg>
</svg>
