<?xml version="1.0" encoding="UTF-8" standalone="no"?>
<!DOCTYPE svg PUBLIC "-//W3C//DTD SVG 1.1//EN"
 "http://www.w3.org/Graphics/SVG/1.1/DTD/svg11.dtd">
<!-- Generated by graphviz version 2.43.0 (0)
 -->
<!-- Title: src/network/ServerManager.hpp Pages: 1 -->
<svg width="1168pt" height="308pt"
 viewBox="0.00 0.00 1167.50 308.00" xmlns="http://www.w3.org/2000/svg" xmlns:xlink="http://www.w3.org/1999/xlink">
<g id="graph0" class="graph" transform="scale(1 1) rotate(0) translate(4 304)">
<title>src/network/ServerManager.hpp</title>
<polygon fill="white" stroke="transparent" points="-4,4 -4,-304 1163.5,-304 1163.5,4 -4,4"/>
<!-- Node1 -->
<g id="node1" class="node">
<title>Node1</title>
<g id="a_node1"><a xlink:title=" ">
<polygon fill="#bfbfbf" stroke="black" points="541.5,-280.5 541.5,-299.5 696.5,-299.5 696.5,-280.5 541.5,-280.5"/>
<text text-anchor="middle" x="619" y="-287.5" font-family="Helvetica,sans-Serif" font-size="10.00">src/network/ServerManager.hpp</text>
</a>
</g>
</g>
<!-- Node2 -->
<g id="node2" class="node">
<title>Node2</title>
<g id="a_node2"><a xlink:title=" ">
<polygon fill="white" stroke="#bfbfbf" points="293.5,-0.5 293.5,-19.5 328.5,-19.5 328.5,-0.5 293.5,-0.5"/>
<text text-anchor="middle" x="311" y="-7.5" font-family="Helvetica,sans-Serif" font-size="10.00">map</text>
</a>
</g>
</g>
<!-- Node1&#45;&gt;Node2 -->
<g id="edge1" class="edge">
<title>Node1&#45;&gt;Node2</title>
<path fill="none" stroke="midnightblue" d="M541.48,-288C399.91,-284.07 114,-265.42 114,-179 114,-179 114,-179 114,-121 114,-44.43 228.85,-20.66 283.17,-13.7"/>
<polygon fill="midnightblue" stroke="midnightblue" points="283.65,-17.17 293.17,-12.52 282.83,-10.21 283.65,-17.17"/>
</g>
<!-- Node3 -->
<g id="node3" class="node">
<title>Node3</title>
<g id="a_node3"><a xlink:title=" ">
<polygon fill="white" stroke="#bfbfbf" points="130,-0.5 130,-19.5 174,-19.5 174,-0.5 130,-0.5"/>
<text text-anchor="middle" x="152" y="-7.5" font-family="Helvetica,sans-Serif" font-size="10.00">vector</text>
</a>
</g>
</g>
<!-- Node1&#45;&gt;Node3 -->
<g id="edge2" class="edge">
<title>Node1&#45;&gt;Node3</title>
<path fill="none" stroke="midnightblue" d="M541.3,-289.33C446.28,-287.98 281.27,-279.96 145,-244 76.71,-225.98 0,-249.62 0,-179 0,-179 0,-179 0,-121 0,-62.22 75.52,-31.65 120.09,-18.73"/>
<polygon fill="midnightblue" stroke="midnightblue" points="121.19,-22.06 129.9,-16.03 119.33,-15.31 121.19,-22.06"/>
</g>
<!-- Node4 -->
<g id="node4" class="node">
<title>Node4</title>
<g id="a_node4"><a xlink:href="EpollWrapper_8hpp.html" target="_top" xlink:title=" ">
<polygon fill="white" stroke="black" points="1012,-224.5 1012,-243.5 1104,-243.5 1104,-224.5 1012,-224.5"/>
<text text-anchor="middle" x="1058" y="-231.5" font-family="Helvetica,sans-Serif" font-size="10.00">EpollWrapper.hpp</text>
</a>
</g>
</g>
<!-- Node1&#45;&gt;Node4 -->
<g id="edge3" class="edge">
<title>Node1&#45;&gt;Node4</title>
<path fill="none" stroke="midnightblue" d="M688.56,-280.44C775.21,-269.78 921.58,-251.78 1001.6,-241.94"/>
<polygon fill="midnightblue" stroke="midnightblue" points="1002.47,-245.36 1011.97,-240.66 1001.62,-238.41 1002.47,-245.36"/>
</g>
<!-- Node7 -->
<g id="node7" class="node">
<title>Node7</title>
<g id="a_node7"><a xlink:href="TcpListener_8hpp.html" target="_top" xlink:title=" ">
<polygon fill="white" stroke="black" points="811,-224.5 811,-243.5 895,-243.5 895,-224.5 811,-224.5"/>
<text text-anchor="middle" x="853" y="-231.5" font-family="Helvetica,sans-Serif" font-size="10.00">TcpListener.hpp</text>
</a>
</g>
</g>
<!-- Node1&#45;&gt;Node7 -->
<g id="edge6" class="edge">
<title>Node1&#45;&gt;Node7</title>
<path fill="none" stroke="midnightblue" d="M656.08,-280.44C696.73,-271.06 762.03,-255.99 806.18,-245.8"/>
<polygon fill="midnightblue" stroke="midnightblue" points="807.14,-249.18 816.1,-243.52 805.56,-242.35 807.14,-249.18"/>
</g>
<!-- Node9 -->
<g id="node9" class="node">
<title>Node9</title>
<g id="a_node9"><a xlink:href="Client_8hpp.html" target="_top" xlink:title=" ">
<polygon fill="white" stroke="black" points="482.5,-224.5 482.5,-243.5 569.5,-243.5 569.5,-224.5 482.5,-224.5"/>
<text text-anchor="middle" x="526" y="-231.5" font-family="Helvetica,sans-Serif" font-size="10.00">client/Client.hpp</text>
</a>
</g>
</g>
<!-- Node1&#45;&gt;Node9 -->
<g id="edge8" class="edge">
<title>Node1&#45;&gt;Node9</title>
<path fill="none" stroke="midnightblue" d="M604.06,-280.32C589.41,-271.82 566.87,-258.73 549.76,-248.8"/>
<polygon fill="midnightblue" stroke="midnightblue" points="551.31,-245.65 540.9,-243.65 547.8,-251.7 551.31,-245.65"/>
</g>
<!-- Node13 -->
<g id="node13" class="node">
<title>Node13</title>
<g id="a_node13"><a xlink:href="ServerConfig_8hpp.html" target="_top" xlink:title=" ">
<polygon fill="white" stroke="black" points="491,-112.5 491,-131.5 613,-131.5 613,-112.5 491,-112.5"/>
<text text-anchor="middle" x="552" y="-119.5" font-family="Helvetica,sans-Serif" font-size="10.00">config/ServerConfig.hpp</text>
</a>
</g>
</g>
<!-- Node1&#45;&gt;Node13 -->
<g id="edge45" class="edge">
<title>Node1&#45;&gt;Node13</title>
<path fill="none" stroke="midnightblue" d="M619.72,-280.48C621.06,-259.83 622.22,-206.02 602,-168 595.57,-155.92 584.55,-145.47 574.49,-137.69"/>
<polygon fill="midnightblue" stroke="midnightblue" points="576.54,-134.84 566.39,-131.8 572.42,-140.51 576.54,-134.84"/>
</g>
<!-- Node5 -->
<g id="node5" class="node">
<title>Node5</title>
<g id="a_node5"><a xlink:title=" ">
<polygon fill="white" stroke="#bfbfbf" points="1026,-168.5 1026,-187.5 1090,-187.5 1090,-168.5 1026,-168.5"/>
<text text-anchor="middle" x="1058" y="-175.5" font-family="Helvetica,sans-Serif" font-size="10.00">sys/epoll.h</text>
</a>
</g>
</g>
<!-- Node4&#45;&gt;Node5 -->
<g id="edge4" class="edge">
<title>Node4&#45;&gt;Node5</title>
<path fill="none" stroke="midnightblue" d="M1058,-224.08C1058,-217.01 1058,-206.86 1058,-197.99"/>
<polygon fill="midnightblue" stroke="midnightblue" points="1061.5,-197.75 1058,-187.75 1054.5,-197.75 1061.5,-197.75"/>
</g>
<!-- Node6 -->
<g id="node6" class="node">
<title>Node6</title>
<g id="a_node6"><a xlink:title=" ">
<polygon fill="white" stroke="#bfbfbf" points="1108.5,-168.5 1108.5,-187.5 1159.5,-187.5 1159.5,-168.5 1108.5,-168.5"/>
<text text-anchor="middle" x="1134" y="-175.5" font-family="Helvetica,sans-Serif" font-size="10.00">unistd.h</text>
</a>
</g>
</g>
<!-- Node4&#45;&gt;Node6 -->
<g id="edge5" class="edge">
<title>Node4&#45;&gt;Node6</title>
<path fill="none" stroke="midnightblue" d="M1070.21,-224.32C1081.78,-216.11 1099.38,-203.6 1113.16,-193.81"/>
<polygon fill="midnightblue" stroke="midnightblue" points="1115.44,-196.48 1121.57,-187.83 1111.39,-190.77 1115.44,-196.48"/>
</g>
<!-- Node8 -->
<g id="node8" class="node">
<title>Node8</title>
<g id="a_node8"><a xlink:title=" ">
<polygon fill="white" stroke="#bfbfbf" points="701.5,-0.5 701.5,-19.5 742.5,-19.5 742.5,-0.5 701.5,-0.5"/>
<text text-anchor="middle" x="722" y="-7.5" font-family="Helvetica,sans-Serif" font-size="10.00">string</text>
</a>
</g>
</g>
<!-- Node7&#45;&gt;Node8 -->
<g id="edge7" class="edge">
<title>Node7&#45;&gt;Node8</title>
<path fill="none" stroke="midnightblue" d="M895.17,-229.32C922.57,-224.49 956.35,-213.4 974,-188 1007.48,-139.83 1011.66,-100.98 974,-56 946.08,-22.65 813.52,-13.99 752.67,-11.76"/>
<polygon fill="midnightblue" stroke="midnightblue" points="752.63,-8.26 742.52,-11.43 752.4,-15.26 752.63,-8.26"/>
</g>
<!-- Node9&#45;&gt;Node3 -->
<g id="edge12" class="edge">
<title>Node9&#45;&gt;Node3</title>
<path fill="none" stroke="midnightblue" d="M482.42,-228.33C390.73,-217.48 182.98,-187.21 143,-132 120.95,-101.54 134.02,-54.73 143.96,-29.18"/>
<polygon fill="midnightblue" stroke="midnightblue" points="147.32,-30.22 147.92,-19.64 140.85,-27.54 147.32,-30.22"/>
</g>
<!-- Node9&#45;&gt;Node8 -->
<g id="edge11" class="edge">
<title>Node9&#45;&gt;Node8</title>
<path fill="none" stroke="midnightblue" d="M569.51,-229.07C666.29,-219.32 894.42,-190.51 940,-132 956.03,-111.42 935.82,-70.7 919,-56 894.45,-34.54 801.71,-20.52 752.73,-14.45"/>
<polygon fill="midnightblue" stroke="midnightblue" points="753.05,-10.96 742.7,-13.24 752.21,-17.91 753.05,-10.96"/>
</g>
<!-- Node10 -->
<g id="node10" class="node">
<title>Node10</title>
<g id="a_node10"><a xlink:title=" ">
<polygon fill="white" stroke="#bfbfbf" points="475.5,-168.5 475.5,-187.5 516.5,-187.5 516.5,-168.5 475.5,-168.5"/>
<text text-anchor="middle" x="496" y="-175.5" font-family="Helvetica,sans-Serif" font-size="10.00">ctime</text>
</a>
</g>
</g>
<!-- Node9&#45;&gt;Node10 -->
<g id="edge9" class="edge">
<title>Node9&#45;&gt;Node10</title>
<path fill="none" stroke="midnightblue" d="M521.05,-224.08C516.9,-216.61 510.85,-205.72 505.73,-196.52"/>
<polygon fill="midnightblue" stroke="midnightblue" points="508.78,-194.79 500.86,-187.75 502.66,-198.19 508.78,-194.79"/>
</g>
<!-- Node11 -->
<g id="node11" class="node">
<title>Node11</title>
<g id="a_node11"><a xlink:title=" ">
<polygon fill="white" stroke="#bfbfbf" points="534.5,-168.5 534.5,-187.5 577.5,-187.5 577.5,-168.5 534.5,-168.5"/>
<text text-anchor="middle" x="556" y="-175.5" font-family="Helvetica,sans-Serif" font-size="10.00">queue</text>
</a>
</g>
</g>
<!-- Node9&#45;&gt;Node11 -->
<g id="edge10" class="edge">
<title>Node9&#45;&gt;Node11</title>
<path fill="none" stroke="midnightblue" d="M530.95,-224.08C535.1,-216.61 541.15,-205.72 546.27,-196.52"/>
<polygon fill="midnightblue" stroke="midnightblue" points="549.34,-198.19 551.14,-187.75 543.22,-194.79 549.34,-198.19"/>
</g>
<!-- Node12 -->
<g id="node12" class="node">
<title>Node12</title>
<g id="a_node12"><a xlink:href="RequestProcessor_8hpp.html" target="_top" xlink:title=" ">
<polygon fill="white" stroke="black" points="341,-168.5 341,-187.5 457,-187.5 457,-168.5 341,-168.5"/>
<text text-anchor="middle" x="399" y="-175.5" font-family="Helvetica,sans-Serif" font-size="10.00">RequestProcessor.hpp</text>
</a>
</g>
</g>
<!-- Node9&#45;&gt;Node12 -->
<g id="edge13" class="edge">
<title>Node9&#45;&gt;Node12</title>
<path fill="none" stroke="midnightblue" d="M505.88,-224.44C484.98,-215.56 452.07,-201.56 428.28,-191.45"/>
<polygon fill="midnightblue" stroke="midnightblue" points="429.6,-188.21 419.03,-187.52 426.86,-194.65 429.6,-188.21"/>
</g>
<!-- Node9&#45;&gt;Node13 -->
<g id="edge38" class="edge">
<title>Node9&#45;&gt;Node13</title>
<path fill="none" stroke="midnightblue" d="M545.3,-224.48C559.43,-217.08 577.56,-204.89 586,-188 594.4,-171.21 581.85,-152.2 569.7,-139.1"/>
<polygon fill="midnightblue" stroke="midnightblue" points="571.92,-136.37 562.37,-131.78 566.97,-141.32 571.92,-136.37"/>
</g>
<!-- Node17 -->
<g id="node17" class="node">
<title>Node17</title>
<g id="a_node17"><a xlink:href="HttpRequest_8hpp.html" target="_top" xlink:title=" ">
<polygon fill="white" stroke="black" points="256,-56.5 256,-75.5 366,-75.5 366,-56.5 256,-56.5"/>
<text text-anchor="middle" x="311" y="-63.5" font-family="Helvetica,sans-Serif" font-size="10.00">http/HttpRequest.hpp</text>
</a>
</g>
</g>
<!-- Node9&#45;&gt;Node17 -->
<g id="edge43" class="edge">
<title>Node9&#45;&gt;Node17</title>
<path fill="none" stroke="midnightblue" d="M482.31,-228.46C431.58,-222.27 352.25,-209.42 332,-188 305.84,-160.33 305.96,-112.39 308.42,-85.92"/>
<polygon fill="midnightblue" stroke="midnightblue" points="311.93,-86.05 309.59,-75.71 304.98,-85.25 311.93,-86.05"/>
</g>
<!-- Node18 -->
<g id="node18" class="node">
<title>Node18</title>
<g id="a_node18"><a xlink:href="HttpResponse_8hpp.html" target="_top" xlink:title=" ">
<polygon fill="white" stroke="black" points="167,-112.5 167,-131.5 285,-131.5 285,-112.5 167,-112.5"/>
<text text-anchor="middle" x="226" y="-119.5" font-family="Helvetica,sans-Serif" font-size="10.00">http/HttpResponse.hpp</text>
</a>
</g>
</g>
<!-- Node9&#45;&gt;Node18 -->
<g id="edge44" class="edge">
<title>Node9&#45;&gt;Node18</title>
<path fill="none" stroke="midnightblue" d="M482.41,-231.14C435.03,-227.62 358.17,-217.44 299,-188 275.16,-176.14 253.11,-154.39 239.62,-139.34"/>
<polygon fill="midnightblue" stroke="midnightblue" points="242.25,-137.03 233.05,-131.77 236.96,-141.61 242.25,-137.03"/>
</g>
<!-- Node19 -->
<g id="node19" class="node">
<title>Node19</title>
<g id="a_node19"><a xlink:href="HttpParser_8hpp.html" target="_top" xlink:title=" ">
<polygon fill="white" stroke="black" points="830.5,-112.5 830.5,-131.5 931.5,-131.5 931.5,-112.5 830.5,-112.5"/>
<text text-anchor="middle" x="881" y="-119.5" font-family="Helvetica,sans-Serif" font-size="10.00">http/HttpParser.hpp</text>
</a>
</g>
</g>
<!-- Node9&#45;&gt;Node19 -->
<g id="edge39" class="edge">
<title>Node9&#45;&gt;Node19</title>
<path fill="none" stroke="midnightblue" d="M553.56,-224.46C616.6,-204.93 771.39,-156.96 843.24,-134.7"/>
<polygon fill="midnightblue" stroke="midnightblue" points="844.7,-137.91 853.21,-131.61 842.62,-131.23 844.7,-137.91"/>
</g>
<!-- Node12&#45;&gt;Node3 -->
<g id="edge15" class="edge">
<title>Node12&#45;&gt;Node3</title>
<path fill="none" stroke="midnightblue" d="M340.91,-174.21C277.39,-169.83 181.45,-158.85 158,-132 133.18,-103.58 140.2,-55.58 146.62,-29.39"/>
<polygon fill="midnightblue" stroke="midnightblue" points="150.03,-30.19 149.24,-19.63 143.27,-28.38 150.03,-30.19"/>
</g>
<!-- Node12&#45;&gt;Node8 -->
<g id="edge14" class="edge">
<title>Node12&#45;&gt;Node8</title>
<path fill="none" stroke="midnightblue" d="M446.18,-168.46C546.83,-149.76 775.16,-104.6 796,-76 812.05,-53.97 779.42,-34.17 752.5,-22.37"/>
<polygon fill="midnightblue" stroke="midnightblue" points="753.53,-19 742.95,-18.39 750.84,-25.46 753.53,-19"/>
</g>
<!-- Node12&#45;&gt;Node13 -->
<g id="edge16" class="edge">
<title>Node12&#45;&gt;Node13</title>
<path fill="none" stroke="midnightblue" d="M423.24,-168.44C448.87,-159.4 489.49,-145.06 518.24,-134.92"/>
<polygon fill="midnightblue" stroke="midnightblue" points="519.61,-138.15 527.87,-131.52 517.28,-131.54 519.61,-138.15"/>
</g>
<!-- Node12&#45;&gt;Node17 -->
<g id="edge28" class="edge">
<title>Node12&#45;&gt;Node17</title>
<path fill="none" stroke="midnightblue" d="M392.09,-168.37C377.51,-150.14 343.34,-107.43 324.34,-83.68"/>
<polygon fill="midnightblue" stroke="midnightblue" points="326.85,-81.21 317.87,-75.59 321.39,-85.59 326.85,-81.21"/>
</g>
<!-- Node12&#45;&gt;Node18 -->
<g id="edge33" class="edge">
<title>Node12&#45;&gt;Node18</title>
<path fill="none" stroke="midnightblue" d="M371.59,-168.44C342.23,-159.28 295.48,-144.69 262.9,-134.52"/>
<polygon fill="midnightblue" stroke="midnightblue" points="263.87,-131.16 253.28,-131.52 261.79,-137.84 263.87,-131.16"/>
</g>
<!-- Node13&#45;&gt;Node2 -->
<g id="edge18" class="edge">
<title>Node13&#45;&gt;Node2</title>
<path fill="none" stroke="midnightblue" d="M517.37,-112.43C488.67,-104.71 447.19,-92.11 413,-76 382.69,-61.72 350.54,-39.99 330.61,-25.64"/>
<polygon fill="midnightblue" stroke="midnightblue" points="332.51,-22.7 322.37,-19.63 328.38,-28.35 332.51,-22.7"/>
</g>
<!-- Node13&#45;&gt;Node3 -->
<g id="edge20" class="edge">
<title>Node13&#45;&gt;Node3</title>
<path fill="none" stroke="midnightblue" d="M490.91,-120.02C427.81,-117.18 327.49,-107.52 247,-76 217.1,-64.29 187.3,-41.67 169.26,-26.45"/>
<polygon fill="midnightblue" stroke="midnightblue" points="171.25,-23.54 161.4,-19.65 166.68,-28.84 171.25,-23.54"/>
</g>
<!-- Node13&#45;&gt;Node8 -->
<g id="edge19" class="edge">
<title>Node13&#45;&gt;Node8</title>
<path fill="none" stroke="midnightblue" d="M564.14,-112.35C582.05,-99.66 616.72,-75.42 647,-56 663.88,-45.17 683.31,-33.54 698.16,-24.82"/>
<polygon fill="midnightblue" stroke="midnightblue" points="700.32,-27.61 707.18,-19.54 696.78,-21.56 700.32,-27.61"/>
</g>
<!-- Node14 -->
<g id="node14" class="node">
<title>Node14</title>
<g id="a_node14"><a xlink:title=" ">
<polygon fill="white" stroke="#bfbfbf" points="446,-0.5 446,-19.5 500,-19.5 500,-0.5 446,-0.5"/>
<text text-anchor="middle" x="473" y="-7.5" font-family="Helvetica,sans-Serif" font-size="10.00">iostream</text>
</a>
</g>
</g>
<!-- Node13&#45;&gt;Node14 -->
<g id="edge17" class="edge">
<title>Node13&#45;&gt;Node14</title>
<path fill="none" stroke="midnightblue" d="M551.03,-112.26C549.21,-99.04 544.29,-73.63 532,-56 523.19,-43.37 509.75,-32.72 497.92,-24.96"/>
<polygon fill="midnightblue" stroke="midnightblue" points="499.63,-21.9 489.29,-19.6 495.94,-27.85 499.63,-21.9"/>
</g>
<!-- Node15 -->
<g id="node15" class="node">
<title>Node15</title>
<g id="a_node15"><a xlink:href="LocationConfig_8hpp.html" target="_top" xlink:title=" ">
<polygon fill="white" stroke="black" points="422.5,-56.5 422.5,-75.5 523.5,-75.5 523.5,-56.5 422.5,-56.5"/>
<text text-anchor="middle" x="473" y="-63.5" font-family="Helvetica,sans-Serif" font-size="10.00">LocationConfig.hpp</text>
</a>
</g>
</g>
<!-- Node13&#45;&gt;Node15 -->
<g id="edge21" class="edge">
<title>Node13&#45;&gt;Node15</title>
<path fill="none" stroke="midnightblue" d="M539.31,-112.32C527.1,-103.98 508.42,-91.21 494,-81.35"/>
<polygon fill="midnightblue" stroke="midnightblue" points="495.89,-78.41 485.66,-75.65 491.94,-84.19 495.89,-78.41"/>
</g>
<!-- Node16 -->
<g id="node16" class="node">
<title>Node16</title>
<g id="a_node16"><a xlink:href="namespaces_8hpp.html" target="_top" xlink:title=" ">
<polygon fill="white" stroke="black" points="656.5,-56.5 656.5,-75.5 787.5,-75.5 787.5,-56.5 656.5,-56.5"/>
<text text-anchor="middle" x="722" y="-63.5" font-family="Helvetica,sans-Serif" font-size="10.00">common/namespaces.hpp</text>
</a>
</g>
</g>
<!-- Node13&#45;&gt;Node16 -->
<g id="edge26" class="edge">
<title>Node13&#45;&gt;Node16</title>
<path fill="none" stroke="midnightblue" d="M578.94,-112.44C607.66,-103.32 653.33,-88.81 685.32,-78.65"/>
<polygon fill="midnightblue" stroke="midnightblue" points="686.72,-81.88 695.19,-75.52 684.6,-75.21 686.72,-81.88"/>
</g>
<!-- Node15&#45;&gt;Node2 -->
<g id="edge23" class="edge">
<title>Node15&#45;&gt;Node2</title>
<path fill="none" stroke="midnightblue" d="M447.33,-56.44C417.51,-46.5 368.53,-30.18 338.11,-20.04"/>
<polygon fill="midnightblue" stroke="midnightblue" points="339.15,-16.7 328.56,-16.85 336.94,-23.34 339.15,-16.7"/>
</g>
<!-- Node15&#45;&gt;Node3 -->
<g id="edge25" class="edge">
<title>Node15&#45;&gt;Node3</title>
<path fill="none" stroke="midnightblue" d="M422.49,-56.5C355.81,-45.29 240.33,-25.86 184.32,-16.44"/>
<polygon fill="midnightblue" stroke="midnightblue" points="184.7,-12.95 174.26,-14.75 183.54,-19.86 184.7,-12.95"/>
</g>
<!-- Node15&#45;&gt;Node8 -->
<g id="edge24" class="edge">
<title>Node15&#45;&gt;Node8</title>
<path fill="none" stroke="midnightblue" d="M512.45,-56.44C562.09,-45.68 646.28,-27.42 691.36,-17.65"/>
<polygon fill="midnightblue" stroke="midnightblue" points="692.37,-21.01 701.41,-15.47 690.89,-14.17 692.37,-21.01"/>
</g>
<!-- Node15&#45;&gt;Node14 -->
<g id="edge22" class="edge">
<title>Node15&#45;&gt;Node14</title>
<path fill="none" stroke="midnightblue" d="M473,-56.08C473,-49.01 473,-38.86 473,-29.99"/>
<polygon fill="midnightblue" stroke="midnightblue" points="476.5,-29.75 473,-19.75 469.5,-29.75 476.5,-29.75"/>
</g>
<!-- Node16&#45;&gt;Node8 -->
<g id="edge27" class="edge">
<title>Node16&#45;&gt;Node8</title>
<path fill="none" stroke="midnightblue" d="M722,-56.08C722,-49.01 722,-38.86 722,-29.99"/>
<polygon fill="midnightblue" stroke="midnightblue" points="725.5,-29.75 722,-19.75 718.5,-29.75 725.5,-29.75"/>
</g>
<!-- Node17&#45;&gt;Node2 -->
<g id="edge30" class="edge">
<title>Node17&#45;&gt;Node2</title>
<path fill="none" stroke="midnightblue" d="M311,-56.08C311,-49.01 311,-38.86 311,-29.99"/>
<polygon fill="midnightblue" stroke="midnightblue" points="314.5,-29.75 311,-19.75 307.5,-29.75 314.5,-29.75"/>
</g>
<!-- Node17&#45;&gt;Node3 -->
<g id="edge32" class="edge">
<title>Node17&#45;&gt;Node3</title>
<path fill="none" stroke="midnightblue" d="M285.81,-56.44C258.11,-47.04 213.58,-31.91 183.58,-21.72"/>
<polygon fill="midnightblue" stroke="midnightblue" points="184.6,-18.37 174,-18.47 182.35,-25 184.6,-18.37"/>
</g>
<!-- Node17&#45;&gt;Node8 -->
<g id="edge31" class="edge">
<title>Node17&#45;&gt;Node8</title>
<path fill="none" stroke="midnightblue" d="M366,-57.77C453.62,-46.26 622.04,-24.13 691.2,-15.05"/>
<polygon fill="midnightblue" stroke="midnightblue" points="691.97,-18.48 701.42,-13.7 691.05,-11.54 691.97,-18.48"/>
</g>
<!-- Node17&#45;&gt;Node14 -->
<g id="edge29" class="edge">
<title>Node17&#45;&gt;Node14</title>
<path fill="none" stroke="midnightblue" d="M336.67,-56.44C363.92,-47.36 407.18,-32.94 437.65,-22.78"/>
<polygon fill="midnightblue" stroke="midnightblue" points="439.07,-26 447.45,-19.52 436.86,-19.36 439.07,-26"/>
</g>
<!-- Node18&#45;&gt;Node2 -->
<g id="edge34" class="edge">
<title>Node18&#45;&gt;Node2</title>
<path fill="none" stroke="midnightblue" d="M227.04,-112.2C228.98,-98.9 234.19,-73.37 247,-56 256.73,-42.8 271.51,-32.05 284.42,-24.36"/>
<polygon fill="midnightblue" stroke="midnightblue" points="286.39,-27.27 293.39,-19.32 282.95,-21.17 286.39,-27.27"/>
</g>
<!-- Node18&#45;&gt;Node3 -->
<g id="edge36" class="edge">
<title>Node18&#45;&gt;Node3</title>
<path fill="none" stroke="midnightblue" d="M213.32,-112.35C202.14,-104.15 186.09,-90.89 176,-76 166.3,-61.7 159.93,-42.99 156.21,-29.32"/>
<polygon fill="midnightblue" stroke="midnightblue" points="159.6,-28.46 153.78,-19.61 152.81,-30.16 159.6,-28.46"/>
</g>
<!-- Node18&#45;&gt;Node8 -->
<g id="edge35" class="edge">
<title>Node18&#45;&gt;Node8</title>
<path fill="none" stroke="midnightblue" d="M285.28,-115.54C347.38,-109.07 447.46,-96.49 532,-76 589.6,-62.04 654.5,-37.95 691.59,-23.35"/>
<polygon fill="midnightblue" stroke="midnightblue" points="693.29,-26.44 701.29,-19.5 690.7,-19.93 693.29,-26.44"/>
</g>
<!-- Node18&#45;&gt;Node17 -->
<g id="edge37" class="edge">
<title>Node18&#45;&gt;Node17</title>
<path fill="none" stroke="midnightblue" d="M239.66,-112.32C252.92,-103.9 273.27,-90.97 288.85,-81.07"/>
<polygon fill="midnightblue" stroke="midnightblue" points="290.81,-83.97 297.38,-75.65 287.06,-78.06 290.81,-83.97"/>
</g>
<!-- Node19&#45;&gt;Node8 -->
<g id="edge41" class="edge">
<title>Node19&#45;&gt;Node8</title>
<path fill="none" stroke="midnightblue" d="M888.58,-112.11C899.07,-98.69 915.28,-73.01 902,-56 883.79,-32.68 799.04,-19.66 752.61,-14.16"/>
<polygon fill="midnightblue" stroke="midnightblue" points="752.84,-10.66 742.51,-13.01 752.05,-17.62 752.84,-10.66"/>
</g>
<!-- Node19&#45;&gt;Node17 -->
<g id="edge42" class="edge">
<title>Node19&#45;&gt;Node17</title>
<path fill="none" stroke="midnightblue" d="M830.42,-116.21C726.87,-106.4 490.88,-84.04 376.1,-73.17"/>
<polygon fill="midnightblue" stroke="midnightblue" points="376.33,-69.67 366.04,-72.21 375.67,-76.64 376.33,-69.67"/>
</g>
<!-- Node20 -->
<g id="node20" class="node">
<title>Node20</title>
<g id="a_node20"><a xlink:title=" ">
<polygon fill="white" stroke="#bfbfbf" points="844.5,-56.5 844.5,-75.5 893.5,-75.5 893.5,-56.5 844.5,-56.5"/>
<text text-anchor="middle" x="869" y="-63.5" font-family="Helvetica,sans-Serif" font-size="10.00">cstddef</text>
</a>
</g>
</g>
<!-- Node19&#45;&gt;Node20 -->
<g id="edge40" class="edge">
<title>Node19&#45;&gt;Node20</title>
<path fill="none" stroke="midnightblue" d="M879.02,-112.08C877.43,-104.93 875.14,-94.64 873.15,-85.69"/>
<polygon fill="midnightblue" stroke="midnightblue" points="876.53,-84.75 870.94,-75.75 869.7,-86.27 876.53,-84.75"/>
</g>
</g>
</svg>
