<?xml version="1.0" encoding="UTF-8" standalone="no"?>
<!DOCTYPE svg PUBLIC "-//W3C//DTD SVG 1.1//EN"
 "http://www.w3.org/Graphics/SVG/1.1/DTD/svg11.dtd">
<!-- Generated by graphviz version 2.43.0 (0)
 -->
<!-- Title: src/config/ServerConfig.hpp Pages: 1 -->
<svg width="1291pt" height="274pt"
 viewBox="0.00 0.00 1290.50 274.00" xmlns="http://www.w3.org/2000/svg" xmlns:xlink="http://www.w3.org/1999/xlink">
<g id="graph0" class="graph" transform="scale(1 1) rotate(0) translate(4 270)">
<title>src/config/ServerConfig.hpp</title>
<polygon fill="white" stroke="transparent" points="-4,4 -4,-270 1286.5,-270 1286.5,4 -4,4"/>
<!-- Node1 -->
<g id="node1" class="node">
<title>Node1</title>
<g id="a_node1"><a xlink:title=" ">
<polygon fill="#bfbfbf" stroke="black" points="382.5,-246.5 382.5,-265.5 520.5,-265.5 520.5,-246.5 382.5,-246.5"/>
<text text-anchor="middle" x="451.5" y="-253.5" font-family="Helvetica,sans-Serif" font-size="10.00">src/config/ServerConfig.hpp</text>
</a>
</g>
</g>
<!-- Node2 -->
<g id="node2" class="node">
<title>Node2</title>
<g id="a_node2"><a xlink:href="CgiExecutor_8hpp.html" target="_top" xlink:title=" ">
<polygon fill="white" stroke="black" points="0,-185 0,-204 121,-204 121,-185 0,-185"/>
<text text-anchor="middle" x="60.5" y="-192" font-family="Helvetica,sans-Serif" font-size="10.00">src/cgi/CgiExecutor.hpp</text>
</a>
</g>
</g>
<!-- Node1&#45;&gt;Node2 -->
<g id="edge1" class="edge">
<title>Node1&#45;&gt;Node2</title>
<path fill="none" stroke="midnightblue" d="M374.75,-245.15C310.65,-236.67 216.94,-223.66 135.5,-210 124.91,-208.22 113.51,-206.12 102.87,-204.07"/>
<polygon fill="midnightblue" stroke="midnightblue" points="374.4,-248.64 384.77,-246.47 375.32,-241.7 374.4,-248.64"/>
</g>
<!-- Node5 -->
<g id="node5" class="node">
<title>Node5</title>
<g id="a_node5"><a xlink:href="Client_8hpp.html" target="_top" xlink:title=" ">
<polygon fill="white" stroke="black" points="91.5,-118 91.5,-137 195.5,-137 195.5,-118 91.5,-118"/>
<text text-anchor="middle" x="143.5" y="-125" font-family="Helvetica,sans-Serif" font-size="10.00">src/client/Client.hpp</text>
</a>
</g>
</g>
<!-- Node1&#45;&gt;Node5 -->
<g id="edge4" class="edge">
<title>Node1&#45;&gt;Node5</title>
<path fill="none" stroke="midnightblue" d="M372.3,-251.63C299.4,-246.92 198.22,-235.83 168.5,-210 146.83,-191.17 143.65,-154.07 143.38,-137.21"/>
<polygon fill="midnightblue" stroke="midnightblue" points="372.19,-255.13 382.39,-252.25 372.62,-248.14 372.19,-255.13"/>
</g>
<!-- Node8 -->
<g id="node8" class="node">
<title>Node8</title>
<g id="a_node8"><a xlink:href="ServerManager_8hpp.html" target="_top" xlink:title=" ">
<polygon fill="white" stroke="black" points="216,-56.5 216,-75.5 371,-75.5 371,-56.5 216,-56.5"/>
<text text-anchor="middle" x="293.5" y="-63.5" font-family="Helvetica,sans-Serif" font-size="10.00">src/network/ServerManager.hpp</text>
</a>
</g>
</g>
<!-- Node1&#45;&gt;Node8 -->
<g id="edge36" class="edge">
<title>Node1&#45;&gt;Node8</title>
<path fill="none" stroke="midnightblue" d="M423.06,-241.69C409.28,-234.04 393.39,-223.31 382.5,-210 352.81,-173.72 370.29,-150.47 343.5,-112 333.22,-97.24 317.22,-83.96 306.09,-75.71"/>
<polygon fill="midnightblue" stroke="midnightblue" points="421.7,-244.92 432.18,-246.48 424.95,-238.73 421.7,-244.92"/>
</g>
<!-- Node10 -->
<g id="node10" class="node">
<title>Node10</title>
<g id="a_node10"><a xlink:href="ErrorUtils_8hpp.html" target="_top" xlink:title=" ">
<polygon fill="white" stroke="black" points="392,-185 392,-204 511,-204 511,-185 392,-185"/>
<text text-anchor="middle" x="451.5" y="-192" font-family="Helvetica,sans-Serif" font-size="10.00">src/client/ErrorUtils.hpp</text>
</a>
</g>
</g>
<!-- Node1&#45;&gt;Node10 -->
<g id="edge13" class="edge">
<title>Node1&#45;&gt;Node10</title>
<path fill="none" stroke="midnightblue" d="M451.5,-236.32C451.5,-225.5 451.5,-212.4 451.5,-204.01"/>
<polygon fill="midnightblue" stroke="midnightblue" points="448,-236.48 451.5,-246.48 455,-236.48 448,-236.48"/>
</g>
<!-- Node14 -->
<g id="node14" class="node">
<title>Node14</title>
<g id="a_node14"><a xlink:href="RequestProcessor_8hpp.html" target="_top" xlink:title=" ">
<polygon fill="white" stroke="black" points="177.5,-185 177.5,-204 335.5,-204 335.5,-185 177.5,-185"/>
<text text-anchor="middle" x="256.5" y="-192" font-family="Helvetica,sans-Serif" font-size="10.00">src/client/RequestProcessor.hpp</text>
</a>
</g>
</g>
<!-- Node1&#45;&gt;Node14 -->
<g id="edge19" class="edge">
<title>Node1&#45;&gt;Node14</title>
<path fill="none" stroke="midnightblue" d="M413.9,-243.53C376.01,-231.96 318.39,-214.38 284.39,-204.01"/>
<polygon fill="midnightblue" stroke="midnightblue" points="412.98,-246.9 423.56,-246.48 415.02,-240.21 412.98,-246.9"/>
</g>
<!-- Node15 -->
<g id="node15" class="node">
<title>Node15</title>
<g id="a_node15"><a xlink:href="RequestProcessorUtils_8hpp.html" target="_top" xlink:title=" ">
<polygon fill="white" stroke="black" points="704.5,-179.5 704.5,-209.5 844.5,-209.5 844.5,-179.5 704.5,-179.5"/>
<text text-anchor="start" x="712.5" y="-197.5" font-family="Helvetica,sans-Serif" font-size="10.00">src/client/RequestProcessor</text>
<text text-anchor="middle" x="774.5" y="-186.5" font-family="Helvetica,sans-Serif" font-size="10.00">Utils.hpp</text>
</a>
</g>
</g>
<!-- Node1&#45;&gt;Node15 -->
<g id="edge22" class="edge">
<title>Node1&#45;&gt;Node15</title>
<path fill="none" stroke="midnightblue" d="M507.62,-244.66C562.2,-234.61 645.27,-219.31 704.22,-208.45"/>
<polygon fill="midnightblue" stroke="midnightblue" points="506.98,-241.22 497.78,-246.48 508.25,-248.11 506.98,-241.22"/>
</g>
<!-- Node17 -->
<g id="node17" class="node">
<title>Node17</title>
<g id="a_node17"><a xlink:href="StaticPathHandler_8hpp.html" target="_top" xlink:title=" ">
<polygon fill="white" stroke="black" points="529,-185 529,-204 686,-204 686,-185 529,-185"/>
<text text-anchor="middle" x="607.5" y="-192" font-family="Helvetica,sans-Serif" font-size="10.00">src/client/StaticPathHandler.hpp</text>
</a>
</g>
</g>
<!-- Node1&#45;&gt;Node17 -->
<g id="edge29" class="edge">
<title>Node1&#45;&gt;Node17</title>
<path fill="none" stroke="midnightblue" d="M483.53,-242.78C513.85,-231.22 558.57,-214.16 585.19,-204.01"/>
<polygon fill="midnightblue" stroke="midnightblue" points="481.95,-239.64 473.85,-246.48 484.44,-246.18 481.95,-239.64"/>
</g>
<!-- Node18 -->
<g id="node18" class="node">
<title>Node18</title>
<g id="a_node18"><a xlink:href="ConfigParser_8hpp.html" target="_top" xlink:title=" ">
<polygon fill="white" stroke="black" points="989,-185 989,-204 1126,-204 1126,-185 989,-185"/>
<text text-anchor="middle" x="1057.5" y="-192" font-family="Helvetica,sans-Serif" font-size="10.00">src/config/ConfigParser.hpp</text>
</a>
</g>
</g>
<!-- Node1&#45;&gt;Node18 -->
<g id="edge32" class="edge">
<title>Node1&#45;&gt;Node18</title>
<path fill="none" stroke="midnightblue" d="M530.92,-247.2C650.69,-235.44 875.54,-213.37 988.72,-202.25"/>
<polygon fill="midnightblue" stroke="midnightblue" points="530.33,-243.74 520.72,-248.2 531.01,-250.71 530.33,-243.74"/>
</g>
<!-- Node20 -->
<g id="node20" class="node">
<title>Node20</title>
<g id="a_node20"><a xlink:href="ServerConfig_8cpp.html" target="_top" xlink:title=" ">
<polygon fill="white" stroke="black" points="1144.5,-185 1144.5,-204 1282.5,-204 1282.5,-185 1144.5,-185"/>
<text text-anchor="middle" x="1213.5" y="-192" font-family="Helvetica,sans-Serif" font-size="10.00">src/config/ServerConfig.cpp</text>
</a>
</g>
</g>
<!-- Node1&#45;&gt;Node20 -->
<g id="edge35" class="edge">
<title>Node1&#45;&gt;Node20</title>
<path fill="none" stroke="midnightblue" d="M530.77,-252.82C658.52,-248.63 917.63,-237.32 1135.5,-210 1147.66,-208.47 1160.8,-206.26 1172.76,-204.01"/>
<polygon fill="midnightblue" stroke="midnightblue" points="530.57,-249.33 520.69,-253.15 530.8,-256.32 530.57,-249.33"/>
</g>
<!-- Node3 -->
<g id="node3" class="node">
<title>Node3</title>
<g id="a_node3"><a xlink:href="CgiExecutor_8cpp.html" target="_top" xlink:title=" ">
<polygon fill="white" stroke="black" points="214,-118 214,-137 335,-137 335,-118 214,-118"/>
<text text-anchor="middle" x="274.5" y="-125" font-family="Helvetica,sans-Serif" font-size="10.00">src/cgi/CgiExecutor.cpp</text>
</a>
</g>
</g>
<!-- Node2&#45;&gt;Node3 -->
<g id="edge2" class="edge">
<title>Node2&#45;&gt;Node3</title>
<path fill="none" stroke="midnightblue" d="M98.6,-181.93C140.97,-169.06 208.42,-148.57 246.31,-137.06"/>
<polygon fill="midnightblue" stroke="midnightblue" points="97.47,-178.61 88.92,-184.87 99.5,-185.31 97.47,-178.61"/>
</g>
<!-- Node4 -->
<g id="node4" class="node">
<title>Node4</title>
<g id="a_node4"><a xlink:href="ClientCgi_8cpp.html" target="_top" xlink:title=" ">
<polygon fill="white" stroke="black" points="21,-0.5 21,-19.5 140,-19.5 140,-0.5 21,-0.5"/>
<text text-anchor="middle" x="80.5" y="-7.5" font-family="Helvetica,sans-Serif" font-size="10.00">src/client/ClientCgi.cpp</text>
</a>
</g>
</g>
<!-- Node2&#45;&gt;Node4 -->
<g id="edge3" class="edge">
<title>Node2&#45;&gt;Node4</title>
<path fill="none" stroke="midnightblue" d="M54.7,-174.94C47.26,-148.06 36.74,-97.02 49.5,-56 53.9,-41.87 64.45,-28.25 72.02,-19.77"/>
<polygon fill="midnightblue" stroke="midnightblue" points="51.45,-176.28 57.63,-184.88 58.16,-174.3 51.45,-176.28"/>
</g>
<!-- Node5&#45;&gt;Node4 -->
<g id="edge6" class="edge">
<title>Node5&#45;&gt;Node4</title>
<path fill="none" stroke="midnightblue" d="M133.96,-109.01C120.29,-83.96 95.65,-38.77 85.29,-19.78"/>
<polygon fill="midnightblue" stroke="midnightblue" points="130.9,-110.72 138.76,-117.82 137.05,-107.36 130.9,-110.72"/>
</g>
<!-- Node6 -->
<g id="node6" class="node">
<title>Node6</title>
<g id="a_node6"><a xlink:href="Client_8cpp.html" target="_top" xlink:title=" ">
<polygon fill="white" stroke="black" points="344.5,-0.5 344.5,-19.5 448.5,-19.5 448.5,-0.5 344.5,-0.5"/>
<text text-anchor="middle" x="396.5" y="-7.5" font-family="Helvetica,sans-Serif" font-size="10.00">src/client/Client.cpp</text>
</a>
</g>
</g>
<!-- Node5&#45;&gt;Node6 -->
<g id="edge5" class="edge">
<title>Node5&#45;&gt;Node6</title>
<path fill="none" stroke="midnightblue" d="M154.51,-108.99C165.64,-92.76 184.33,-69.2 206.5,-56 229.66,-42.21 297.34,-28.19 345.31,-19.55"/>
<polygon fill="midnightblue" stroke="midnightblue" points="151.44,-107.29 148.86,-117.56 157.29,-111.14 151.44,-107.29"/>
</g>
<!-- Node7 -->
<g id="node7" class="node">
<title>Node7</title>
<g id="a_node7"><a xlink:href="ServerManager_8cpp.html" target="_top" xlink:title=" ">
<polygon fill="white" stroke="black" points="167,-0.5 167,-19.5 322,-19.5 322,-0.5 167,-0.5"/>
<text text-anchor="middle" x="244.5" y="-7.5" font-family="Helvetica,sans-Serif" font-size="10.00">src/network/ServerManager.cpp</text>
</a>
</g>
</g>
<!-- Node5&#45;&gt;Node7 -->
<g id="edge7" class="edge">
<title>Node5&#45;&gt;Node7</title>
<path fill="none" stroke="midnightblue" d="M146.78,-107.9C150.27,-92.59 157.04,-71.04 169.5,-56 183.45,-39.16 205.44,-27.03 222,-19.63"/>
<polygon fill="midnightblue" stroke="midnightblue" points="143.34,-107.27 144.8,-117.76 150.2,-108.65 143.34,-107.27"/>
</g>
<!-- Node5&#45;&gt;Node8 -->
<g id="edge8" class="edge">
<title>Node5&#45;&gt;Node8</title>
<path fill="none" stroke="midnightblue" d="M174.3,-114.28C203.45,-102.72 246.45,-85.66 272.05,-75.51"/>
<polygon fill="midnightblue" stroke="midnightblue" points="173,-111.03 164.99,-117.98 175.58,-117.54 173,-111.03"/>
</g>
<!-- Node8&#45;&gt;Node4 -->
<g id="edge10" class="edge">
<title>Node8&#45;&gt;Node4</title>
<path fill="none" stroke="midnightblue" d="M249.95,-53.96C209.72,-43.76 150.8,-28.82 114.09,-19.52"/>
<polygon fill="midnightblue" stroke="midnightblue" points="249.2,-57.38 259.75,-56.44 250.92,-50.59 249.2,-57.38"/>
</g>
<!-- Node8&#45;&gt;Node6 -->
<g id="edge9" class="edge">
<title>Node8&#45;&gt;Node6</title>
<path fill="none" stroke="midnightblue" d="M319.08,-51.59C338.12,-41.61 363.56,-28.27 379.99,-19.65"/>
<polygon fill="midnightblue" stroke="midnightblue" points="317.28,-48.58 310.05,-56.32 320.53,-54.78 317.28,-48.58"/>
</g>
<!-- Node8&#45;&gt;Node7 -->
<g id="edge12" class="edge">
<title>Node8&#45;&gt;Node7</title>
<path fill="none" stroke="midnightblue" d="M278.47,-48.43C269.88,-38.97 259.46,-27.48 252.44,-19.75"/>
<polygon fill="midnightblue" stroke="midnightblue" points="276.1,-51.03 285.41,-56.08 281.28,-46.33 276.1,-51.03"/>
</g>
<!-- Node9 -->
<g id="node9" class="node">
<title>Node9</title>
<g id="a_node9"><a xlink:href="main_8cpp.html" target="_top" xlink:title=" ">
<polygon fill="white" stroke="black" points="855,-0.5 855,-19.5 928,-19.5 928,-0.5 855,-0.5"/>
<text text-anchor="middle" x="891.5" y="-7.5" font-family="Helvetica,sans-Serif" font-size="10.00">src/main.cpp</text>
</a>
</g>
</g>
<!-- Node8&#45;&gt;Node9 -->
<g id="edge11" class="edge">
<title>Node8&#45;&gt;Node9</title>
<path fill="none" stroke="midnightblue" d="M381.24,-57.08C514.43,-45.05 761.97,-22.7 854.94,-14.3"/>
<polygon fill="midnightblue" stroke="midnightblue" points="380.71,-53.61 371.06,-58 381.34,-60.58 380.71,-53.61"/>
</g>
<!-- Node10&#45;&gt;Node4 -->
<g id="edge15" class="edge">
<title>Node10&#45;&gt;Node4</title>
<path fill="none" stroke="midnightblue" d="M381.8,-184.03C274.94,-169.51 82.81,-143.35 82.5,-143 51.04,-107.49 69.15,-43.1 77.23,-19.75"/>
<polygon fill="midnightblue" stroke="midnightblue" points="381.49,-187.52 391.87,-185.4 382.43,-180.59 381.49,-187.52"/>
</g>
<!-- Node10&#45;&gt;Node6 -->
<g id="edge14" class="edge">
<title>Node10&#45;&gt;Node6</title>
<path fill="none" stroke="midnightblue" d="M438.75,-176.34C432.35,-166.94 425.02,-154.82 420.5,-143 403.53,-98.62 398.37,-41.15 396.97,-19.63"/>
<polygon fill="midnightblue" stroke="midnightblue" points="436.06,-178.6 444.7,-184.73 441.77,-174.55 436.06,-178.6"/>
</g>
<!-- Node11 -->
<g id="node11" class="node">
<title>Node11</title>
<g id="a_node11"><a xlink:href="ErrorUtils_8cpp.html" target="_top" xlink:title=" ">
<polygon fill="white" stroke="black" points="606,-118 606,-137 725,-137 725,-118 606,-118"/>
<text text-anchor="middle" x="665.5" y="-125" font-family="Helvetica,sans-Serif" font-size="10.00">src/client/ErrorUtils.cpp</text>
</a>
</g>
</g>
<!-- Node10&#45;&gt;Node11 -->
<g id="edge16" class="edge">
<title>Node10&#45;&gt;Node11</title>
<path fill="none" stroke="midnightblue" d="M489.6,-181.93C531.97,-169.06 599.42,-148.57 637.31,-137.06"/>
<polygon fill="midnightblue" stroke="midnightblue" points="488.47,-178.61 479.92,-184.87 490.5,-185.31 488.47,-178.61"/>
</g>
<!-- Node12 -->
<g id="node12" class="node">
<title>Node12</title>
<g id="a_node12"><a xlink:href="RequestProcessor_8cpp.html" target="_top" xlink:title=" ">
<polygon fill="white" stroke="black" points="429.5,-118 429.5,-137 587.5,-137 587.5,-118 429.5,-118"/>
<text text-anchor="middle" x="508.5" y="-125" font-family="Helvetica,sans-Serif" font-size="10.00">src/client/RequestProcessor.cpp</text>
</a>
</g>
</g>
<!-- Node10&#45;&gt;Node12 -->
<g id="edge17" class="edge">
<title>Node10&#45;&gt;Node12</title>
<path fill="none" stroke="midnightblue" d="M465.85,-177.13C477,-164.42 492.02,-147.3 500.93,-137.13"/>
<polygon fill="midnightblue" stroke="midnightblue" points="463.15,-174.91 459.19,-184.73 468.41,-179.52 463.15,-174.91"/>
</g>
<!-- Node13 -->
<g id="node13" class="node">
<title>Node13</title>
<g id="a_node13"><a xlink:href="StaticPathHandler_8cpp.html" target="_top" xlink:title=" ">
<polygon fill="white" stroke="black" points="743,-118 743,-137 900,-137 900,-118 743,-118"/>
<text text-anchor="middle" x="821.5" y="-125" font-family="Helvetica,sans-Serif" font-size="10.00">src/client/StaticPathHandler.cpp</text>
</a>
</g>
</g>
<!-- Node10&#45;&gt;Node13 -->
<g id="edge18" class="edge">
<title>Node10&#45;&gt;Node13</title>
<path fill="none" stroke="midnightblue" d="M500.05,-182.87C506.58,-181.52 513.2,-180.2 519.5,-179 525.64,-177.83 685.63,-151.15 770.19,-137.05"/>
<polygon fill="midnightblue" stroke="midnightblue" points="498.99,-179.52 489.92,-185 500.42,-186.37 498.99,-179.52"/>
</g>
<!-- Node14&#45;&gt;Node5 -->
<g id="edge20" class="edge">
<title>Node14&#45;&gt;Node5</title>
<path fill="none" stroke="midnightblue" d="M232.36,-179.62C209.97,-166.74 177.36,-147.98 158.5,-137.13"/>
<polygon fill="midnightblue" stroke="midnightblue" points="230.85,-182.78 241.26,-184.73 234.34,-176.71 230.85,-182.78"/>
</g>
<!-- Node14&#45;&gt;Node12 -->
<g id="edge21" class="edge">
<title>Node14&#45;&gt;Node12</title>
<path fill="none" stroke="midnightblue" d="M299.52,-182.4C349.25,-169.58 430.05,-148.74 475.22,-137.08"/>
<polygon fill="midnightblue" stroke="midnightblue" points="298.51,-179.05 289.7,-184.94 300.26,-185.83 298.51,-179.05"/>
</g>
<!-- Node15&#45;&gt;Node3 -->
<g id="edge23" class="edge">
<title>Node15&#45;&gt;Node3</title>
<path fill="none" stroke="midnightblue" d="M694.3,-178.87C560.46,-158.83 415.31,-142.88 335.31,-134.6"/>
<polygon fill="midnightblue" stroke="midnightblue" points="693.92,-182.36 704.33,-180.39 694.96,-175.43 693.92,-182.36"/>
</g>
<!-- Node15&#45;&gt;Node6 -->
<g id="edge24" class="edge">
<title>Node15&#45;&gt;Node6</title>
<path fill="none" stroke="midnightblue" d="M848.04,-176.54C891.52,-163.03 933.75,-141.49 909.5,-112 851.49,-41.45 567.65,-19.4 448.9,-13.2"/>
<polygon fill="midnightblue" stroke="midnightblue" points="846.78,-173.27 838.18,-179.47 848.77,-179.98 846.78,-173.27"/>
</g>
<!-- Node15&#45;&gt;Node11 -->
<g id="edge25" class="edge">
<title>Node15&#45;&gt;Node11</title>
<path fill="none" stroke="midnightblue" d="M742.04,-174.14C721.32,-161.79 695.5,-146.39 679.77,-137.01"/>
<polygon fill="midnightblue" stroke="midnightblue" points="740.47,-177.28 750.85,-179.4 744.05,-171.27 740.47,-177.28"/>
</g>
<!-- Node15&#45;&gt;Node12 -->
<g id="edge26" class="edge">
<title>Node15&#45;&gt;Node12</title>
<path fill="none" stroke="midnightblue" d="M707.26,-177.07C655.1,-164.32 584.9,-147.17 543.4,-137.03"/>
<polygon fill="midnightblue" stroke="midnightblue" points="706.56,-180.5 717.11,-179.48 708.23,-173.7 706.56,-180.5"/>
</g>
<!-- Node15&#45;&gt;Node13 -->
<g id="edge28" class="edge">
<title>Node15&#45;&gt;Node13</title>
<path fill="none" stroke="midnightblue" d="M790.79,-170.97C799.21,-159.33 808.99,-145.8 815.21,-137.19"/>
<polygon fill="midnightblue" stroke="midnightblue" points="787.72,-169.24 784.7,-179.4 793.39,-173.34 787.72,-169.24"/>
</g>
<!-- Node16 -->
<g id="node16" class="node">
<title>Node16</title>
<g id="a_node16"><a xlink:href="RequestProcessorUtils_8cpp.html" target="_top" xlink:title=" ">
<polygon fill="white" stroke="black" points="956.5,-112.5 956.5,-142.5 1096.5,-142.5 1096.5,-112.5 956.5,-112.5"/>
<text text-anchor="start" x="964.5" y="-130.5" font-family="Helvetica,sans-Serif" font-size="10.00">src/client/RequestProcessor</text>
<text text-anchor="middle" x="1026.5" y="-119.5" font-family="Helvetica,sans-Serif" font-size="10.00">Utils.cpp</text>
</a>
</g>
</g>
<!-- Node15&#45;&gt;Node16 -->
<g id="edge27" class="edge">
<title>Node15&#45;&gt;Node16</title>
<path fill="none" stroke="midnightblue" d="M838.79,-176.92C879.91,-166.31 932.68,-152.7 971.79,-142.61"/>
<polygon fill="midnightblue" stroke="midnightblue" points="837.68,-173.59 828.87,-179.48 839.43,-180.37 837.68,-173.59"/>
</g>
<!-- Node17&#45;&gt;Node12 -->
<g id="edge30" class="edge">
<title>Node17&#45;&gt;Node12</title>
<path fill="none" stroke="midnightblue" d="M585.56,-179.09C565.97,-166.24 537.94,-147.83 521.64,-137.13"/>
<polygon fill="midnightblue" stroke="midnightblue" points="583.87,-182.17 594.15,-184.73 587.71,-176.32 583.87,-182.17"/>
</g>
<!-- Node17&#45;&gt;Node13 -->
<g id="edge31" class="edge">
<title>Node17&#45;&gt;Node13</title>
<path fill="none" stroke="midnightblue" d="M645.6,-181.93C687.97,-169.06 755.42,-148.57 793.31,-137.06"/>
<polygon fill="midnightblue" stroke="midnightblue" points="644.47,-178.61 635.92,-184.87 646.5,-185.31 644.47,-178.61"/>
</g>
<!-- Node18&#45;&gt;Node9 -->
<g id="edge34" class="edge">
<title>Node18&#45;&gt;Node9</title>
<path fill="none" stroke="midnightblue" d="M1114.87,-183.02C1171.94,-172.02 1252.33,-154.72 1261.5,-143 1269.99,-132.15 1269.86,-122.95 1261.5,-112 1220.63,-58.48 1013.4,-26.49 928.18,-15.41"/>
<polygon fill="midnightblue" stroke="midnightblue" points="1114.03,-179.62 1104.86,-184.94 1115.34,-186.5 1114.03,-179.62"/>
</g>
<!-- Node19 -->
<g id="node19" class="node">
<title>Node19</title>
<g id="a_node19"><a xlink:href="ConfigParser_8cpp.html" target="_top" xlink:title=" ">
<polygon fill="white" stroke="black" points="1115,-118 1115,-137 1252,-137 1252,-118 1115,-118"/>
<text text-anchor="middle" x="1183.5" y="-125" font-family="Helvetica,sans-Serif" font-size="10.00">src/config/ConfigParser.cpp</text>
</a>
</g>
</g>
<!-- Node18&#45;&gt;Node19 -->
<g id="edge33" class="edge">
<title>Node18&#45;&gt;Node19</title>
<path fill="none" stroke="midnightblue" d="M1083.14,-180.27C1108.09,-167.4 1145.3,-148.21 1166.7,-137.17"/>
<polygon fill="midnightblue" stroke="midnightblue" points="1081.51,-177.17 1074.23,-184.87 1084.72,-183.39 1081.51,-177.17"/>
</g>
</g>
</svg>
