<?xml version="1.0" encoding="UTF-8" standalone="no"?>
<!DOCTYPE svg PUBLIC "-//W3C//DTD SVG 1.1//EN"
 "http://www.w3.org/Graphics/SVG/1.1/DTD/svg11.dtd">
<!-- Generated by graphviz version 2.43.0 (0)
 -->
<!-- Title: src/config/ServerConfig.hpp Pages: 1 -->
<svg width="391pt" height="140pt"
 viewBox="0.00 0.00 390.64 140.00" xmlns="http://www.w3.org/2000/svg" xmlns:xlink="http://www.w3.org/1999/xlink">
<g id="graph0" class="graph" transform="scale(1 1) rotate(0) translate(4 136)">
<title>src/config/ServerConfig.hpp</title>
<polygon fill="white" stroke="transparent" points="-4,4 -4,-136 386.64,-136 386.64,4 -4,4"/>
<!-- Node1 -->
<g id="node1" class="node">
<title>Node1</title>
<g id="a_node1"><a xlink:title=" ">
<polygon fill="#bfbfbf" stroke="black" points="100,-112.5 100,-131.5 238,-131.5 238,-112.5 100,-112.5"/>
<text text-anchor="middle" x="169" y="-119.5" font-family="Helvetica,sans-Serif" font-size="10.00">src/config/ServerConfig.hpp</text>
</a>
</g>
</g>
<!-- Node2 -->
<g id="node2" class="node">
<title>Node2</title>
<g id="a_node2"><a xlink:title=" ">
<polygon fill="white" stroke="#bfbfbf" points="0,-0.5 0,-19.5 54,-19.5 54,-0.5 0,-0.5"/>
<text text-anchor="middle" x="27" y="-7.5" font-family="Helvetica,sans-Serif" font-size="10.00">iostream</text>
</a>
</g>
</g>
<!-- Node1&#45;&gt;Node2 -->
<g id="edge1" class="edge">
<title>Node1&#45;&gt;Node2</title>
<path fill="none" stroke="midnightblue" d="M133.78,-112.45C111.43,-105.59 83.05,-94.06 63,-76 48.95,-63.34 39.18,-43.86 33.4,-29.52"/>
<polygon fill="midnightblue" stroke="midnightblue" points="36.53,-27.91 29.76,-19.76 29.98,-30.36 36.53,-27.91"/>
</g>
<!-- Node3 -->
<g id="node3" class="node">
<title>Node3</title>
<g id="a_node3"><a xlink:title=" ">
<polygon fill="white" stroke="#bfbfbf" points="85.5,-0.5 85.5,-19.5 120.5,-19.5 120.5,-0.5 85.5,-0.5"/>
<text text-anchor="middle" x="103" y="-7.5" font-family="Helvetica,sans-Serif" font-size="10.00">map</text>
</a>
</g>
</g>
<!-- Node1&#45;&gt;Node3 -->
<g id="edge2" class="edge">
<title>Node1&#45;&gt;Node3</title>
<path fill="none" stroke="midnightblue" d="M124.99,-112.44C104.6,-106.03 82.21,-94.97 70,-76 59.69,-59.99 72.9,-40.34 85.54,-26.87"/>
<polygon fill="midnightblue" stroke="midnightblue" points="88.11,-29.25 92.74,-19.72 83.18,-24.28 88.11,-29.25"/>
</g>
<!-- Node4 -->
<g id="node4" class="node">
<title>Node4</title>
<g id="a_node4"><a xlink:title=" ">
<polygon fill="white" stroke="#bfbfbf" points="188.5,-0.5 188.5,-19.5 229.5,-19.5 229.5,-0.5 188.5,-0.5"/>
<text text-anchor="middle" x="209" y="-7.5" font-family="Helvetica,sans-Serif" font-size="10.00">string</text>
</a>
</g>
</g>
<!-- Node1&#45;&gt;Node4 -->
<g id="edge3" class="edge">
<title>Node1&#45;&gt;Node4</title>
<path fill="none" stroke="midnightblue" d="M173.3,-112.17C177.59,-103.19 184.2,-88.81 189,-76 194.82,-60.45 200.28,-42.37 204.02,-29.23"/>
<polygon fill="midnightblue" stroke="midnightblue" points="207.42,-30.1 206.73,-19.52 200.67,-28.22 207.42,-30.1"/>
</g>
<!-- Node5 -->
<g id="node5" class="node">
<title>Node5</title>
<g id="a_node5"><a xlink:title=" ">
<polygon fill="white" stroke="#bfbfbf" points="311,-0.5 311,-19.5 355,-19.5 355,-0.5 311,-0.5"/>
<text text-anchor="middle" x="333" y="-7.5" font-family="Helvetica,sans-Serif" font-size="10.00">vector</text>
</a>
</g>
</g>
<!-- Node1&#45;&gt;Node5 -->
<g id="edge4" class="edge">
<title>Node1&#45;&gt;Node5</title>
<path fill="none" stroke="midnightblue" d="M238.1,-115.35C291.99,-109.34 360.54,-97.62 378,-76 391.34,-59.48 372.13,-39.19 354.83,-25.72"/>
<polygon fill="midnightblue" stroke="midnightblue" points="356.78,-22.81 346.65,-19.7 352.63,-28.45 356.78,-22.81"/>
</g>
<!-- Node6 -->
<g id="node6" class="node">
<title>Node6</title>
<g id="a_node6"><a xlink:href="LocationConfig_8hpp.html" target="_top" xlink:title=" ">
<polygon fill="white" stroke="black" points="79.5,-56.5 79.5,-75.5 180.5,-75.5 180.5,-56.5 79.5,-56.5"/>
<text text-anchor="middle" x="130" y="-63.5" font-family="Helvetica,sans-Serif" font-size="10.00">LocationConfig.hpp</text>
</a>
</g>
</g>
<!-- Node1&#45;&gt;Node6 -->
<g id="edge5" class="edge">
<title>Node1&#45;&gt;Node6</title>
<path fill="none" stroke="midnightblue" d="M162.56,-112.08C157.05,-104.46 148.97,-93.26 142.24,-83.94"/>
<polygon fill="midnightblue" stroke="midnightblue" points="145.01,-81.81 136.32,-75.75 139.34,-85.91 145.01,-81.81"/>
</g>
<!-- Node7 -->
<g id="node7" class="node">
<title>Node7</title>
<g id="a_node7"><a xlink:href="namespaces_8hpp.html" target="_top" xlink:title=" ">
<polygon fill="white" stroke="black" points="237.5,-56.5 237.5,-75.5 368.5,-75.5 368.5,-56.5 237.5,-56.5"/>
<text text-anchor="middle" x="303" y="-63.5" font-family="Helvetica,sans-Serif" font-size="10.00">common/namespaces.hpp</text>
</a>
</g>
</g>
<!-- Node1&#45;&gt;Node7 -->
<g id="edge10" class="edge">
<title>Node1&#45;&gt;Node7</title>
<path fill="none" stroke="midnightblue" d="M190.23,-112.44C212.38,-103.52 247.32,-89.44 272.44,-79.32"/>
<polygon fill="midnightblue" stroke="midnightblue" points="273.9,-82.5 281.87,-75.52 271.28,-76.01 273.9,-82.5"/>
</g>
<!-- Node6&#45;&gt;Node2 -->
<g id="edge6" class="edge">
<title>Node6&#45;&gt;Node2</title>
<path fill="none" stroke="midnightblue" d="M113.45,-56.32C97.01,-47.7 71.57,-34.36 52.53,-24.39"/>
<polygon fill="midnightblue" stroke="midnightblue" points="53.99,-21.2 43.51,-19.65 50.74,-27.4 53.99,-21.2"/>
</g>
<!-- Node6&#45;&gt;Node3 -->
<g id="edge7" class="edge">
<title>Node6&#45;&gt;Node3</title>
<path fill="none" stroke="midnightblue" d="M125.54,-56.08C121.85,-48.69 116.48,-37.95 111.91,-28.81"/>
<polygon fill="midnightblue" stroke="midnightblue" points="114.98,-27.13 107.38,-19.75 108.72,-30.26 114.98,-27.13"/>
</g>
<!-- Node6&#45;&gt;Node4 -->
<g id="edge8" class="edge">
<title>Node6&#45;&gt;Node4</title>
<path fill="none" stroke="midnightblue" d="M142.69,-56.32C154.9,-47.98 173.58,-35.21 188,-25.35"/>
<polygon fill="midnightblue" stroke="midnightblue" points="190.06,-28.19 196.34,-19.65 186.11,-22.41 190.06,-28.19"/>
</g>
<!-- Node6&#45;&gt;Node5 -->
<g id="edge9" class="edge">
<title>Node6&#45;&gt;Node5</title>
<path fill="none" stroke="midnightblue" d="M162.17,-56.44C200.18,-46.33 263.05,-29.61 300.99,-19.51"/>
<polygon fill="midnightblue" stroke="midnightblue" points="302.23,-22.81 310.99,-16.85 300.43,-16.04 302.23,-22.81"/>
</g>
<!-- Node7&#45;&gt;Node4 -->
<g id="edge11" class="edge">
<title>Node7&#45;&gt;Node4</title>
<path fill="none" stroke="midnightblue" d="M287.9,-56.32C273.1,-47.82 250.31,-34.73 233.02,-24.8"/>
<polygon fill="midnightblue" stroke="midnightblue" points="234.48,-21.6 224.07,-19.65 230.99,-27.67 234.48,-21.6"/>
</g>
</g>
</svg>
