<?xml version="1.0" encoding="UTF-8" standalone="no"?>
<!DOCTYPE svg PUBLIC "-//W3C//DTD SVG 1.1//EN"
 "http://www.w3.org/Graphics/SVG/1.1/DTD/svg11.dtd">
<!-- Generated by graphviz version 2.43.0 (0)
 -->
<!-- Title: src/network/ServerManager.cpp Pages: 1 -->
<!--zoomable 364 -->
<svg id="main" version="1.1" xmlns="http://www.w3.org/2000/svg" xmlns:xlink="http://www.w3.org/1999/xlink" xml:space="preserve" onload="init(evt)">
<style type="text/css"><![CDATA[
.edge:hover path { stroke: red; }
.edge:hover polygon { stroke: red; fill: red; }
]]></style>
<script type="text/javascript"><![CDATA[
var edges = document.getElementsByTagName('g');
if (edges && edges.length) {
  for (var i=0;i<edges.length;i++) {
    if (edges[i].id.substr(0,4)=='edge') {
      edges[i].setAttribute('class','edge');
    }
  }
}
]]></script>
        <defs>
                <circle id="rim" cx="0" cy="0" r="7"/>
                <circle id="rim2" cx="0" cy="0" r="3.5"/>
                <g id="zoomPlus">
                        <use xlink:href="#rim" fill="#404040">
                                <set attributeName="fill" to="#808080" begin="zoomplus.mouseover" end="zoomplus.mouseout"/>
                        </use>
                        <path d="M-4,0h8M0,-4v8" fill="none" stroke="white" stroke-width="1.5" pointer-events="none"/>
                </g>
                <g id="zoomMin">
                        <use xlink:href="#rim" fill="#404040">
                                <set attributeName="fill" to="#808080" begin="zoomminus.mouseover" end="zoomminus.mouseout"/>
                        </use>
                        <path d="M-4,0h8" fill="none" stroke="white" stroke-width="1.5" pointer-events="none"/>
                </g>
                <g id="dirArrow">
                        <path fill="none" stroke="white" stroke-width="1.5" d="M0,-3.0v7 M-2.5,-0.5L0,-3.0L2.5,-0.5"/>
                </g>
               <g id="resetDef">
                       <use xlink:href="#rim2" fill="#404040">
                               <set attributeName="fill" to="#808080" begin="reset.mouseover" end="reset.mouseout"/>
                       </use>
               </g>
        </defs>

<script type="text/javascript">
var viewWidth = 1043;
var viewHeight = 364;
var sectionId = 'dynsection-0';
</script>
<script xlink:href="svgpan.js"/>
<svg id="graph" class="graph">
<g id="viewport">
<title>src/network/ServerManager.cpp</title>
<polygon fill="white" stroke="transparent" points="-4,4 -4,-360 1039,-360 1039,4 -4,4"/>
<!-- Node1 -->
<g id="node1" class="node">
<title>Node1</title>
<g id="a_node1"><a xlink:title=" ">
<polygon fill="#bfbfbf" stroke="black" points="351.5,-336.5 351.5,-355.5 506.5,-355.5 506.5,-336.5 351.5,-336.5"/>
<text text-anchor="middle" x="429" y="-343.5" font-family="Helvetica,sans-Serif" font-size="10.00">src/network/ServerManager.cpp</text>
</a>
</g>
</g>
<!-- Node2 -->
<g id="node2" class="node">
<title>Node2</title>
<g id="a_node2"><a xlink:href="ServerManager_8hpp.html" target="_top" xlink:title=" ">
<polygon fill="white" stroke="black" points="240.5,-280.5 240.5,-299.5 341.5,-299.5 341.5,-280.5 240.5,-280.5"/>
<text text-anchor="middle" x="291" y="-287.5" font-family="Helvetica,sans-Serif" font-size="10.00">ServerManager.hpp</text>
</a>
</g>
</g>
<!-- Node1&#45;&gt;Node2 -->
<g id="edge1" class="edge">
<title>Node1&#45;&gt;Node2</title>
<path fill="none" stroke="midnightblue" d="M407.13,-336.44C384.22,-327.48 348.02,-313.31 322.13,-303.18"/>
<polygon fill="midnightblue" stroke="midnightblue" points="323.35,-299.9 312.76,-299.52 320.8,-306.42 323.35,-299.9"/>
</g>
<!-- Node6 -->
<g id="node6" class="node">
<title>Node6</title>
<g id="a_node6"><a xlink:title=" ">
<polygon fill="white" stroke="#bfbfbf" points="47,-168.5 47,-187.5 111,-187.5 111,-168.5 47,-168.5"/>
<text text-anchor="middle" x="79" y="-175.5" font-family="Helvetica,sans-Serif" font-size="10.00">sys/epoll.h</text>
</a>
</g>
</g>
<!-- Node1&#45;&gt;Node6 -->
<g id="edge47" class="edge">
<title>Node1&#45;&gt;Node6</title>
<path fill="none" stroke="midnightblue" d="M351.3,-343.79C298.33,-340.07 228.08,-329.29 173,-300 129.89,-277.07 100.28,-224.82 86.97,-197.08"/>
<polygon fill="midnightblue" stroke="midnightblue" points="90.04,-195.38 82.67,-187.76 83.68,-198.31 90.04,-195.38"/>
</g>
<!-- Node7 -->
<g id="node7" class="node">
<title>Node7</title>
<g id="a_node7"><a xlink:title=" ">
<polygon fill="white" stroke="#bfbfbf" points="138.5,-168.5 138.5,-187.5 189.5,-187.5 189.5,-168.5 138.5,-168.5"/>
<text text-anchor="middle" x="164" y="-175.5" font-family="Helvetica,sans-Serif" font-size="10.00">unistd.h</text>
</a>
</g>
</g>
<!-- Node1&#45;&gt;Node7 -->
<g id="edge49" class="edge">
<title>Node1&#45;&gt;Node7</title>
<path fill="none" stroke="midnightblue" d="M380.17,-336.48C301.68,-321.61 153.52,-288.21 127,-244 117.06,-227.43 131.17,-208.16 144.74,-194.93"/>
<polygon fill="midnightblue" stroke="midnightblue" points="147.43,-197.22 152.48,-187.91 142.72,-192.04 147.43,-197.22"/>
</g>
<!-- Node10 -->
<g id="node10" class="node">
<title>Node10</title>
<g id="a_node10"><a xlink:href="Client_8hpp.html" target="_top" xlink:title=" ">
<polygon fill="white" stroke="black" points="670.5,-224.5 670.5,-243.5 757.5,-243.5 757.5,-224.5 670.5,-224.5"/>
<text text-anchor="middle" x="714" y="-231.5" font-family="Helvetica,sans-Serif" font-size="10.00">client/Client.hpp</text>
</a>
</g>
</g>
<!-- Node1&#45;&gt;Node10 -->
<g id="edge56" class="edge">
<title>Node1&#45;&gt;Node10</title>
<path fill="none" stroke="midnightblue" d="M416.93,-336.4C400.06,-323.37 373.16,-298.18 389,-280 423.52,-240.37 577.18,-234.49 660.25,-234.3"/>
<polygon fill="midnightblue" stroke="midnightblue" points="660.26,-237.8 670.27,-234.3 660.27,-230.8 660.26,-237.8"/>
</g>
<!-- Node15 -->
<g id="node15" class="node">
<title>Node15</title>
<g id="a_node15"><a xlink:title=" ">
<polygon fill="white" stroke="#bfbfbf" points="57,-0.5 57,-19.5 111,-19.5 111,-0.5 57,-0.5"/>
<text text-anchor="middle" x="84" y="-7.5" font-family="Helvetica,sans-Serif" font-size="10.00">iostream</text>
</a>
</g>
</g>
<!-- Node1&#45;&gt;Node15 -->
<g id="edge53" class="edge">
<title>Node1&#45;&gt;Node15</title>
<path fill="none" stroke="midnightblue" d="M351.31,-340.93C227.69,-332.31 0,-306.7 0,-235 0,-235 0,-235 0,-121 0,-79.73 37.81,-44.32 62.69,-25.49"/>
<polygon fill="midnightblue" stroke="midnightblue" points="64.85,-28.25 70.88,-19.54 60.73,-22.59 64.85,-28.25"/>
</g>
<!-- Node22 -->
<g id="node22" class="node">
<title>Node22</title>
<g id="a_node22"><a xlink:title=" ">
<polygon fill="white" stroke="#bfbfbf" points="398,-280.5 398,-299.5 460,-299.5 460,-280.5 398,-280.5"/>
<text text-anchor="middle" x="429" y="-287.5" font-family="Helvetica,sans-Serif" font-size="10.00">sys/wait.h</text>
</a>
</g>
</g>
<!-- Node1&#45;&gt;Node22 -->
<g id="edge48" class="edge">
<title>Node1&#45;&gt;Node22</title>
<path fill="none" stroke="midnightblue" d="M429,-336.08C429,-329.01 429,-318.86 429,-309.99"/>
<polygon fill="midnightblue" stroke="midnightblue" points="432.5,-309.75 429,-299.75 425.5,-309.75 432.5,-309.75"/>
</g>
<!-- Node23 -->
<g id="node23" class="node">
<title>Node23</title>
<g id="a_node23"><a xlink:title=" ">
<polygon fill="white" stroke="#bfbfbf" points="478,-280.5 478,-299.5 522,-299.5 522,-280.5 478,-280.5"/>
<text text-anchor="middle" x="500" y="-287.5" font-family="Helvetica,sans-Serif" font-size="10.00">cerrno</text>
</a>
</g>
</g>
<!-- Node1&#45;&gt;Node23 -->
<g id="edge50" class="edge">
<title>Node1&#45;&gt;Node23</title>
<path fill="none" stroke="midnightblue" d="M440.41,-336.32C451.11,-328.18 467.34,-315.84 480.16,-306.09"/>
<polygon fill="midnightblue" stroke="midnightblue" points="482.54,-308.67 488.39,-299.83 478.31,-303.1 482.54,-308.67"/>
</g>
<!-- Node24 -->
<g id="node24" class="node">
<title>Node24</title>
<g id="a_node24"><a xlink:title=" ">
<polygon fill="white" stroke="#bfbfbf" points="540.5,-280.5 540.5,-299.5 583.5,-299.5 583.5,-280.5 540.5,-280.5"/>
<text text-anchor="middle" x="562" y="-287.5" font-family="Helvetica,sans-Serif" font-size="10.00">cstdio</text>
</a>
</g>
</g>
<!-- Node1&#45;&gt;Node24 -->
<g id="edge51" class="edge">
<title>Node1&#45;&gt;Node24</title>
<path fill="none" stroke="midnightblue" d="M450.07,-336.44C472.06,-327.52 506.73,-313.44 531.66,-303.32"/>
<polygon fill="midnightblue" stroke="midnightblue" points="533.08,-306.52 541.02,-299.52 530.44,-300.04 533.08,-306.52"/>
</g>
<!-- Node25 -->
<g id="node25" class="node">
<title>Node25</title>
<g id="a_node25"><a xlink:title=" ">
<polygon fill="white" stroke="#bfbfbf" points="602,-280.5 602,-299.5 648,-299.5 648,-280.5 602,-280.5"/>
<text text-anchor="middle" x="625" y="-287.5" font-family="Helvetica,sans-Serif" font-size="10.00">cstring</text>
</a>
</g>
</g>
<!-- Node1&#45;&gt;Node25 -->
<g id="edge52" class="edge">
<title>Node1&#45;&gt;Node25</title>
<path fill="none" stroke="midnightblue" d="M460.46,-336.43C491.55,-327.95 540.72,-314.5 592.28,-300.19"/>
<polygon fill="midnightblue" stroke="midnightblue" points="593.23,-303.56 601.93,-297.51 591.36,-296.81 593.23,-303.56"/>
</g>
<!-- Node26 -->
<g id="node26" class="node">
<title>Node26</title>
<g id="a_node26"><a xlink:title=" ">
<polygon fill="white" stroke="#bfbfbf" points="666,-280.5 666,-299.5 696,-299.5 696,-280.5 666,-280.5"/>
<text text-anchor="middle" x="681" y="-287.5" font-family="Helvetica,sans-Serif" font-size="10.00">set</text>
</a>
</g>
</g>
<!-- Node1&#45;&gt;Node26 -->
<g id="edge54" class="edge">
<title>Node1&#45;&gt;Node26</title>
<path fill="none" stroke="midnightblue" d="M485.83,-336.44C530.06,-329.18 593.04,-317.53 656.17,-299.86"/>
<polygon fill="midnightblue" stroke="midnightblue" points="657.23,-303.2 665.89,-297.09 655.31,-296.47 657.23,-303.2"/>
</g>
<!-- Node27 -->
<g id="node27" class="node">
<title>Node27</title>
<g id="a_node27"><a xlink:title=" ">
<polygon fill="white" stroke="#bfbfbf" points="714.5,-280.5 714.5,-299.5 773.5,-299.5 773.5,-280.5 714.5,-280.5"/>
<text text-anchor="middle" x="744" y="-287.5" font-family="Helvetica,sans-Serif" font-size="10.00">stdexcept</text>
</a>
</g>
</g>
<!-- Node1&#45;&gt;Node27 -->
<g id="edge55" class="edge">
<title>Node1&#45;&gt;Node27</title>
<path fill="none" stroke="midnightblue" d="M488.15,-336.5C541.99,-328.5 623.86,-315.69 704.42,-300.01"/>
<polygon fill="midnightblue" stroke="midnightblue" points="705.09,-303.44 714.23,-298.08 703.75,-296.57 705.09,-303.44"/>
</g>
<!-- Node3 -->
<g id="node3" class="node">
<title>Node3</title>
<g id="a_node3"><a xlink:title=" ">
<polygon fill="white" stroke="#bfbfbf" points="175.5,-0.5 175.5,-19.5 210.5,-19.5 210.5,-0.5 175.5,-0.5"/>
<text text-anchor="middle" x="193" y="-7.5" font-family="Helvetica,sans-Serif" font-size="10.00">map</text>
</a>
</g>
</g>
<!-- Node2&#45;&gt;Node3 -->
<g id="edge2" class="edge">
<title>Node2&#45;&gt;Node3</title>
<path fill="none" stroke="midnightblue" d="M284.61,-280.43C269.76,-260.55 231.68,-209.78 199,-168 166.67,-126.67 142.43,-125.49 125,-76 122.05,-67.62 120.79,-63.83 125,-56 133.69,-39.84 151.01,-28.51 165.99,-21.26"/>
<polygon fill="midnightblue" stroke="midnightblue" points="167.68,-24.34 175.39,-17.07 164.83,-17.94 167.68,-24.34"/>
</g>
<!-- Node4 -->
<g id="node4" class="node">
<title>Node4</title>
<g id="a_node4"><a xlink:title=" ">
<polygon fill="white" stroke="#bfbfbf" points="755,-0.5 755,-19.5 799,-19.5 799,-0.5 755,-0.5"/>
<text text-anchor="middle" x="777" y="-7.5" font-family="Helvetica,sans-Serif" font-size="10.00">vector</text>
</a>
</g>
</g>
<!-- Node2&#45;&gt;Node4 -->
<g id="edge3" class="edge">
<title>Node2&#45;&gt;Node4</title>
<path fill="none" stroke="midnightblue" d="M341.53,-284.32C461.94,-273.14 756.58,-245.72 767,-244 887.92,-223.98 1035,-301.56 1035,-179 1035,-179 1035,-179 1035,-121 1035,-24.17 879.32,-11.4 809.82,-10.52"/>
<polygon fill="midnightblue" stroke="midnightblue" points="809.46,-7.02 799.44,-10.47 809.43,-14.02 809.46,-7.02"/>
</g>
<!-- Node5 -->
<g id="node5" class="node">
<title>Node5</title>
<g id="a_node5"><a xlink:href="EpollWrapper_8hpp.html" target="_top" xlink:title=" ">
<polygon fill="white" stroke="black" points="136,-224.5 136,-243.5 228,-243.5 228,-224.5 136,-224.5"/>
<text text-anchor="middle" x="182" y="-231.5" font-family="Helvetica,sans-Serif" font-size="10.00">EpollWrapper.hpp</text>
</a>
</g>
</g>
<!-- Node2&#45;&gt;Node5 -->
<g id="edge4" class="edge">
<title>Node2&#45;&gt;Node5</title>
<path fill="none" stroke="midnightblue" d="M273.49,-280.32C255.93,-271.62 228.67,-258.12 208.47,-248.11"/>
<polygon fill="midnightblue" stroke="midnightblue" points="209.98,-244.96 199.47,-243.65 206.88,-251.23 209.98,-244.96"/>
</g>
<!-- Node8 -->
<g id="node8" class="node">
<title>Node8</title>
<g id="a_node8"><a xlink:href="TcpListener_8hpp.html" target="_top" xlink:title=" ">
<polygon fill="white" stroke="black" points="383,-224.5 383,-243.5 467,-243.5 467,-224.5 383,-224.5"/>
<text text-anchor="middle" x="425" y="-231.5" font-family="Helvetica,sans-Serif" font-size="10.00">TcpListener.hpp</text>
</a>
</g>
</g>
<!-- Node2&#45;&gt;Node8 -->
<g id="edge7" class="edge">
<title>Node2&#45;&gt;Node8</title>
<path fill="none" stroke="midnightblue" d="M312.23,-280.44C334.38,-271.52 369.32,-257.44 394.44,-247.32"/>
<polygon fill="midnightblue" stroke="midnightblue" points="395.9,-250.5 403.87,-243.52 393.28,-244.01 395.9,-250.5"/>
</g>
<!-- Node2&#45;&gt;Node10 -->
<g id="edge9" class="edge">
<title>Node2&#45;&gt;Node10</title>
<path fill="none" stroke="midnightblue" d="M341.73,-281.91C346.55,-281.26 351.37,-280.61 356,-280 463.8,-265.76 590.01,-250.14 660.1,-241.56"/>
<polygon fill="midnightblue" stroke="midnightblue" points="660.94,-244.98 670.44,-240.3 660.09,-238.04 660.94,-244.98"/>
</g>
<!-- Node14 -->
<g id="node14" class="node">
<title>Node14</title>
<g id="a_node14"><a xlink:href="ServerConfig_8hpp.html" target="_top" xlink:title=" ">
<polygon fill="white" stroke="black" points="266,-112.5 266,-131.5 388,-131.5 388,-112.5 266,-112.5"/>
<text text-anchor="middle" x="327" y="-119.5" font-family="Helvetica,sans-Serif" font-size="10.00">config/ServerConfig.hpp</text>
</a>
</g>
</g>
<!-- Node2&#45;&gt;Node14 -->
<g id="edge46" class="edge">
<title>Node2&#45;&gt;Node14</title>
<path fill="none" stroke="midnightblue" d="M292.94,-280.08C298.6,-253.95 315.24,-177.21 322.97,-141.58"/>
<polygon fill="midnightblue" stroke="midnightblue" points="326.44,-142.08 325.14,-131.57 319.6,-140.6 326.44,-142.08"/>
</g>
<!-- Node5&#45;&gt;Node6 -->
<g id="edge5" class="edge">
<title>Node5&#45;&gt;Node6</title>
<path fill="none" stroke="midnightblue" d="M165.45,-224.32C149.01,-215.7 123.57,-202.36 104.53,-192.39"/>
<polygon fill="midnightblue" stroke="midnightblue" points="105.99,-189.2 95.51,-187.65 102.74,-195.4 105.99,-189.2"/>
</g>
<!-- Node5&#45;&gt;Node7 -->
<g id="edge6" class="edge">
<title>Node5&#45;&gt;Node7</title>
<path fill="none" stroke="midnightblue" d="M179.03,-224.08C176.62,-216.85 173.14,-206.41 170.13,-197.4"/>
<polygon fill="midnightblue" stroke="midnightblue" points="173.4,-196.13 166.92,-187.75 166.76,-198.34 173.4,-196.13"/>
</g>
<!-- Node9 -->
<g id="node9" class="node">
<title>Node9</title>
<g id="a_node9"><a xlink:title=" ">
<polygon fill="white" stroke="#bfbfbf" points="597.5,-0.5 597.5,-19.5 638.5,-19.5 638.5,-0.5 597.5,-0.5"/>
<text text-anchor="middle" x="618" y="-7.5" font-family="Helvetica,sans-Serif" font-size="10.00">string</text>
</a>
</g>
</g>
<!-- Node8&#45;&gt;Node9 -->
<g id="edge8" class="edge">
<title>Node8&#45;&gt;Node9</title>
<path fill="none" stroke="midnightblue" d="M430.03,-224.12C445.77,-196.81 496.52,-112.52 554,-56 566.08,-44.12 581.58,-33.14 594.3,-24.99"/>
<polygon fill="midnightblue" stroke="midnightblue" points="596.34,-27.85 602.99,-19.59 592.65,-21.9 596.34,-27.85"/>
</g>
<!-- Node10&#45;&gt;Node4 -->
<g id="edge13" class="edge">
<title>Node10&#45;&gt;Node4</title>
<path fill="none" stroke="midnightblue" d="M757.53,-232.11C825.08,-229.71 950.3,-220.82 978,-188 1012.69,-146.9 1052.6,-168.27 917,-56 885.95,-30.29 839.95,-19.18 809.25,-14.44"/>
<polygon fill="midnightblue" stroke="midnightblue" points="809.47,-10.93 799.08,-13.01 808.49,-17.86 809.47,-10.93"/>
</g>
<!-- Node10&#45;&gt;Node9 -->
<g id="edge12" class="edge">
<title>Node10&#45;&gt;Node9</title>
<path fill="none" stroke="midnightblue" d="M736.84,-224.5C799.04,-200.13 962.85,-127.25 902,-56 885.66,-36.86 718.85,-19.95 648.76,-13.64"/>
<polygon fill="midnightblue" stroke="midnightblue" points="649.03,-10.15 638.76,-12.75 648.41,-17.12 649.03,-10.15"/>
</g>
<!-- Node11 -->
<g id="node11" class="node">
<title>Node11</title>
<g id="a_node11"><a xlink:title=" ">
<polygon fill="white" stroke="#bfbfbf" points="866.5,-168.5 866.5,-187.5 907.5,-187.5 907.5,-168.5 866.5,-168.5"/>
<text text-anchor="middle" x="887" y="-175.5" font-family="Helvetica,sans-Serif" font-size="10.00">ctime</text>
</a>
</g>
</g>
<!-- Node10&#45;&gt;Node11 -->
<g id="edge10" class="edge">
<title>Node10&#45;&gt;Node11</title>
<path fill="none" stroke="midnightblue" d="M741.41,-224.44C772.79,-214.65 824.04,-198.65 856.62,-188.48"/>
<polygon fill="midnightblue" stroke="midnightblue" points="857.99,-191.72 866.49,-185.4 855.9,-185.04 857.99,-191.72"/>
</g>
<!-- Node12 -->
<g id="node12" class="node">
<title>Node12</title>
<g id="a_node12"><a xlink:title=" ">
<polygon fill="white" stroke="#bfbfbf" points="925.5,-168.5 925.5,-187.5 968.5,-187.5 968.5,-168.5 925.5,-168.5"/>
<text text-anchor="middle" x="947" y="-175.5" font-family="Helvetica,sans-Serif" font-size="10.00">queue</text>
</a>
</g>
</g>
<!-- Node10&#45;&gt;Node12 -->
<g id="edge11" class="edge">
<title>Node10&#45;&gt;Node12</title>
<path fill="none" stroke="midnightblue" d="M756.99,-224.42C796.05,-216.42 855.48,-203.71 915.41,-188.28"/>
<polygon fill="midnightblue" stroke="midnightblue" points="916.63,-191.58 925.42,-185.68 914.86,-184.81 916.63,-191.58"/>
</g>
<!-- Node13 -->
<g id="node13" class="node">
<title>Node13</title>
<g id="a_node13"><a xlink:href="RequestProcessor_8hpp.html" target="_top" xlink:title=" ">
<polygon fill="white" stroke="black" points="656,-168.5 656,-187.5 772,-187.5 772,-168.5 656,-168.5"/>
<text text-anchor="middle" x="714" y="-175.5" font-family="Helvetica,sans-Serif" font-size="10.00">RequestProcessor.hpp</text>
</a>
</g>
</g>
<!-- Node10&#45;&gt;Node13 -->
<g id="edge14" class="edge">
<title>Node10&#45;&gt;Node13</title>
<path fill="none" stroke="midnightblue" d="M714,-224.08C714,-217.01 714,-206.86 714,-197.99"/>
<polygon fill="midnightblue" stroke="midnightblue" points="717.5,-197.75 714,-187.75 710.5,-197.75 717.5,-197.75"/>
</g>
<!-- Node10&#45;&gt;Node14 -->
<g id="edge39" class="edge">
<title>Node10&#45;&gt;Node14</title>
<path fill="none" stroke="midnightblue" d="M670.4,-224.5C630.05,-216.3 568.55,-202.96 516,-188 460.18,-172.11 396.61,-149.23 359.26,-135.28"/>
<polygon fill="midnightblue" stroke="midnightblue" points="360.03,-131.84 349.44,-131.6 357.57,-138.39 360.03,-131.84"/>
</g>
<!-- Node18 -->
<g id="node18" class="node">
<title>Node18</title>
<g id="a_node18"><a xlink:href="HttpRequest_8hpp.html" target="_top" xlink:title=" ">
<polygon fill="white" stroke="black" points="563,-56.5 563,-75.5 673,-75.5 673,-56.5 563,-56.5"/>
<text text-anchor="middle" x="618" y="-63.5" font-family="Helvetica,sans-Serif" font-size="10.00">http/HttpRequest.hpp</text>
</a>
</g>
</g>
<!-- Node10&#45;&gt;Node18 -->
<g id="edge44" class="edge">
<title>Node10&#45;&gt;Node18</title>
<path fill="none" stroke="midnightblue" d="M690.6,-224.46C657.44,-210.85 598.4,-180.69 577,-132 569.06,-113.93 583.99,-95.03 598.01,-82.3"/>
<polygon fill="midnightblue" stroke="midnightblue" points="600.6,-84.7 605.98,-75.57 596.08,-79.35 600.6,-84.7"/>
</g>
<!-- Node19 -->
<g id="node19" class="node">
<title>Node19</title>
<g id="a_node19"><a xlink:href="HttpResponse_8hpp.html" target="_top" xlink:title=" ">
<polygon fill="white" stroke="black" points="595,-112.5 595,-131.5 713,-131.5 713,-112.5 595,-112.5"/>
<text text-anchor="middle" x="654" y="-119.5" font-family="Helvetica,sans-Serif" font-size="10.00">http/HttpResponse.hpp</text>
</a>
</g>
</g>
<!-- Node10&#45;&gt;Node19 -->
<g id="edge45" class="edge">
<title>Node10&#45;&gt;Node19</title>
<path fill="none" stroke="midnightblue" d="M691.21,-224.47C675.67,-217.32 656.29,-205.44 647,-188 639.33,-173.62 642.47,-154.91 646.7,-141.27"/>
<polygon fill="midnightblue" stroke="midnightblue" points="650.09,-142.18 650.15,-131.58 643.5,-139.83 650.09,-142.18"/>
</g>
<!-- Node20 -->
<g id="node20" class="node">
<title>Node20</title>
<g id="a_node20"><a xlink:href="HttpParser_8hpp.html" target="_top" xlink:title=" ">
<polygon fill="white" stroke="black" points="769.5,-112.5 769.5,-131.5 870.5,-131.5 870.5,-112.5 769.5,-112.5"/>
<text text-anchor="middle" x="820" y="-119.5" font-family="Helvetica,sans-Serif" font-size="10.00">http/HttpParser.hpp</text>
</a>
</g>
</g>
<!-- Node10&#45;&gt;Node20 -->
<g id="edge40" class="edge">
<title>Node10&#45;&gt;Node20</title>
<path fill="none" stroke="midnightblue" d="M730.92,-224.4C745.46,-216.41 766.33,-203.44 781,-188 794.15,-174.16 804.92,-155.14 811.78,-141.25"/>
<polygon fill="midnightblue" stroke="midnightblue" points="815.14,-142.34 816.24,-131.8 808.81,-139.35 815.14,-142.34"/>
</g>
<!-- Node13&#45;&gt;Node4 -->
<g id="edge16" class="edge">
<title>Node13&#45;&gt;Node4</title>
<path fill="none" stroke="midnightblue" d="M772.05,-174.12C807.1,-169.53 850.53,-158.4 880,-132 899.92,-114.16 897.02,-102.27 902,-76 903.65,-67.27 907.11,-63.27 902,-56 881.21,-26.42 839.02,-16.19 809.42,-12.71"/>
<polygon fill="midnightblue" stroke="midnightblue" points="809.45,-9.19 799.15,-11.71 808.77,-16.16 809.45,-9.19"/>
</g>
<!-- Node13&#45;&gt;Node9 -->
<g id="edge15" class="edge">
<title>Node13&#45;&gt;Node9</title>
<path fill="none" stroke="midnightblue" d="M715.99,-168.43C717.97,-159.42 720.87,-144.8 722,-132 725.12,-96.58 720.88,-82.34 697,-56 683.66,-41.28 664.33,-30.16 648.14,-22.65"/>
<polygon fill="midnightblue" stroke="midnightblue" points="649.11,-19.25 638.54,-18.45 646.3,-25.66 649.11,-19.25"/>
</g>
<!-- Node13&#45;&gt;Node14 -->
<g id="edge17" class="edge">
<title>Node13&#45;&gt;Node14</title>
<path fill="none" stroke="midnightblue" d="M655.64,-168.86C586.77,-159.25 472.28,-143.27 398.24,-132.94"/>
<polygon fill="midnightblue" stroke="midnightblue" points="398.46,-129.44 388.07,-131.52 397.49,-136.37 398.46,-129.44"/>
</g>
<!-- Node13&#45;&gt;Node18 -->
<g id="edge29" class="edge">
<title>Node13&#45;&gt;Node18</title>
<path fill="none" stroke="midnightblue" d="M655.86,-171.5C630.04,-165.82 601.93,-154.49 586,-132 575.06,-116.56 588.03,-96.81 600.59,-83.16"/>
<polygon fill="midnightblue" stroke="midnightblue" points="603.22,-85.48 607.75,-75.9 598.24,-80.56 603.22,-85.48"/>
</g>
<!-- Node13&#45;&gt;Node19 -->
<g id="edge34" class="edge">
<title>Node13&#45;&gt;Node19</title>
<path fill="none" stroke="midnightblue" d="M704.36,-168.32C695.49,-160.34 682.13,-148.31 671.39,-138.65"/>
<polygon fill="midnightblue" stroke="midnightblue" points="673.59,-135.92 663.82,-131.83 668.91,-141.13 673.59,-135.92"/>
</g>
<!-- Node14&#45;&gt;Node3 -->
<g id="edge19" class="edge">
<title>Node14&#45;&gt;Node3</title>
<path fill="none" stroke="midnightblue" d="M265.87,-114.96C215.68,-108.58 150.31,-96.55 134,-76 119.18,-57.32 144.51,-37.2 166.45,-24.37"/>
<polygon fill="midnightblue" stroke="midnightblue" points="168.16,-27.42 175.21,-19.51 164.77,-21.3 168.16,-27.42"/>
</g>
<!-- Node14&#45;&gt;Node4 -->
<g id="edge21" class="edge">
<title>Node14&#45;&gt;Node4</title>
<path fill="none" stroke="midnightblue" d="M354.07,-112.49C396.43,-99.34 481.11,-73.76 554,-56 621.36,-39.59 701.18,-24.53 744.71,-16.68"/>
<polygon fill="midnightblue" stroke="midnightblue" points="745.49,-20.1 754.71,-14.89 744.25,-13.21 745.49,-20.1"/>
</g>
<!-- Node14&#45;&gt;Node9 -->
<g id="edge20" class="edge">
<title>Node14&#45;&gt;Node9</title>
<path fill="none" stroke="midnightblue" d="M339.92,-112.47C361.08,-98.82 404.8,-72.01 445,-56 493.08,-36.85 551.92,-23.56 587.11,-16.61"/>
<polygon fill="midnightblue" stroke="midnightblue" points="588.08,-19.99 597.23,-14.66 586.75,-13.12 588.08,-19.99"/>
</g>
<!-- Node14&#45;&gt;Node15 -->
<g id="edge18" class="edge">
<title>Node14&#45;&gt;Node15</title>
<path fill="none" stroke="midnightblue" d="M265.95,-119.54C223.09,-115.78 166.27,-105.07 125,-76 108.67,-64.5 97.42,-44.23 90.89,-29.37"/>
<polygon fill="midnightblue" stroke="midnightblue" points="93.98,-27.66 86.97,-19.72 87.49,-30.3 93.98,-27.66"/>
</g>
<!-- Node16 -->
<g id="node16" class="node">
<title>Node16</title>
<g id="a_node16"><a xlink:href="LocationConfig_8hpp.html" target="_top" xlink:title=" ">
<polygon fill="white" stroke="black" points="142.5,-56.5 142.5,-75.5 243.5,-75.5 243.5,-56.5 142.5,-56.5"/>
<text text-anchor="middle" x="193" y="-63.5" font-family="Helvetica,sans-Serif" font-size="10.00">LocationConfig.hpp</text>
</a>
</g>
</g>
<!-- Node14&#45;&gt;Node16 -->
<g id="edge22" class="edge">
<title>Node14&#45;&gt;Node16</title>
<path fill="none" stroke="midnightblue" d="M305.77,-112.44C283.62,-103.52 248.68,-89.44 223.56,-79.32"/>
<polygon fill="midnightblue" stroke="midnightblue" points="224.72,-76.01 214.13,-75.52 222.1,-82.5 224.72,-76.01"/>
</g>
<!-- Node17 -->
<g id="node17" class="node">
<title>Node17</title>
<g id="a_node17"><a xlink:href="namespaces_8hpp.html" target="_top" xlink:title=" ">
<polygon fill="white" stroke="black" points="261.5,-56.5 261.5,-75.5 392.5,-75.5 392.5,-56.5 261.5,-56.5"/>
<text text-anchor="middle" x="327" y="-63.5" font-family="Helvetica,sans-Serif" font-size="10.00">common/namespaces.hpp</text>
</a>
</g>
</g>
<!-- Node14&#45;&gt;Node17 -->
<g id="edge27" class="edge">
<title>Node14&#45;&gt;Node17</title>
<path fill="none" stroke="midnightblue" d="M327,-112.08C327,-105.01 327,-94.86 327,-85.99"/>
<polygon fill="midnightblue" stroke="midnightblue" points="330.5,-85.75 327,-75.75 323.5,-85.75 330.5,-85.75"/>
</g>
<!-- Node16&#45;&gt;Node3 -->
<g id="edge24" class="edge">
<title>Node16&#45;&gt;Node3</title>
<path fill="none" stroke="midnightblue" d="M193,-56.08C193,-49.01 193,-38.86 193,-29.99"/>
<polygon fill="midnightblue" stroke="midnightblue" points="196.5,-29.75 193,-19.75 189.5,-29.75 196.5,-29.75"/>
</g>
<!-- Node16&#45;&gt;Node4 -->
<g id="edge26" class="edge">
<title>Node16&#45;&gt;Node4</title>
<path fill="none" stroke="midnightblue" d="M243.71,-57.16C246.85,-56.75 249.97,-56.36 253,-56 349.24,-44.66 646.14,-21.19 744.77,-13.5"/>
<polygon fill="midnightblue" stroke="midnightblue" points="745.05,-16.99 754.75,-12.72 744.5,-10.01 745.05,-16.99"/>
</g>
<!-- Node16&#45;&gt;Node9 -->
<g id="edge25" class="edge">
<title>Node16&#45;&gt;Node9</title>
<path fill="none" stroke="midnightblue" d="M243.73,-57.3C246.86,-56.85 249.97,-56.41 253,-56 376.79,-39.09 524.59,-21.74 587.37,-14.5"/>
<polygon fill="midnightblue" stroke="midnightblue" points="587.86,-17.97 597.39,-13.35 587.06,-11.01 587.86,-17.97"/>
</g>
<!-- Node16&#45;&gt;Node15 -->
<g id="edge23" class="edge">
<title>Node16&#45;&gt;Node15</title>
<path fill="none" stroke="midnightblue" d="M175.49,-56.32C157.93,-47.62 130.67,-34.12 110.47,-24.11"/>
<polygon fill="midnightblue" stroke="midnightblue" points="111.98,-20.96 101.47,-19.65 108.88,-27.23 111.98,-20.96"/>
</g>
<!-- Node17&#45;&gt;Node9 -->
<g id="edge28" class="edge">
<title>Node17&#45;&gt;Node9</title>
<path fill="none" stroke="midnightblue" d="M373.11,-56.44C432.96,-45.34 535.78,-26.26 587.05,-16.74"/>
<polygon fill="midnightblue" stroke="midnightblue" points="587.98,-20.13 597.17,-14.86 586.7,-13.25 587.98,-20.13"/>
</g>
<!-- Node18&#45;&gt;Node3 -->
<g id="edge31" class="edge">
<title>Node18&#45;&gt;Node3</title>
<path fill="none" stroke="midnightblue" d="M562.87,-58C470.99,-46.32 289.79,-23.3 220.67,-14.52"/>
<polygon fill="midnightblue" stroke="midnightblue" points="220.94,-11.02 210.57,-13.23 220.05,-17.97 220.94,-11.02"/>
</g>
<!-- Node18&#45;&gt;Node4 -->
<g id="edge33" class="edge">
<title>Node18&#45;&gt;Node4</title>
<path fill="none" stroke="midnightblue" d="M643.19,-56.44C670.89,-47.04 715.42,-31.91 745.42,-21.72"/>
<polygon fill="midnightblue" stroke="midnightblue" points="746.65,-25 755,-18.47 744.4,-18.37 746.65,-25"/>
</g>
<!-- Node18&#45;&gt;Node9 -->
<g id="edge32" class="edge">
<title>Node18&#45;&gt;Node9</title>
<path fill="none" stroke="midnightblue" d="M618,-56.08C618,-49.01 618,-38.86 618,-29.99"/>
<polygon fill="midnightblue" stroke="midnightblue" points="621.5,-29.75 618,-19.75 614.5,-29.75 621.5,-29.75"/>
</g>
<!-- Node18&#45;&gt;Node15 -->
<g id="edge30" class="edge">
<title>Node18&#45;&gt;Node15</title>
<path fill="none" stroke="midnightblue" d="M562.79,-59.64C477.76,-51.36 309.64,-34.85 167,-20 152.04,-18.44 135.56,-16.67 121.26,-15.11"/>
<polygon fill="midnightblue" stroke="midnightblue" points="121.6,-11.63 111.28,-14.02 120.84,-18.58 121.6,-11.63"/>
</g>
<!-- Node19&#45;&gt;Node3 -->
<g id="edge35" class="edge">
<title>Node19&#45;&gt;Node3</title>
<path fill="none" stroke="midnightblue" d="M622.67,-112.49C575.12,-99.66 481.8,-74.88 402,-56 337.18,-40.67 260.53,-24.72 220.49,-16.55"/>
<polygon fill="midnightblue" stroke="midnightblue" points="221.17,-13.12 210.67,-14.55 219.77,-19.98 221.17,-13.12"/>
</g>
<!-- Node19&#45;&gt;Node4 -->
<g id="edge37" class="edge">
<title>Node19&#45;&gt;Node4</title>
<path fill="none" stroke="midnightblue" d="M663.65,-112.37C684.4,-93.81 733.49,-49.91 759.74,-26.44"/>
<polygon fill="midnightblue" stroke="midnightblue" points="762.27,-28.87 767.39,-19.59 757.61,-23.65 762.27,-28.87"/>
</g>
<!-- Node19&#45;&gt;Node9 -->
<g id="edge36" class="edge">
<title>Node19&#45;&gt;Node9</title>
<path fill="none" stroke="midnightblue" d="M662.63,-112.4C674.21,-99.79 692.19,-75.63 682,-56 674.7,-41.94 660.75,-31.34 647.74,-23.98"/>
<polygon fill="midnightblue" stroke="midnightblue" points="649.03,-20.7 638.54,-19.19 645.79,-26.91 649.03,-20.7"/>
</g>
<!-- Node19&#45;&gt;Node18 -->
<g id="edge38" class="edge">
<title>Node19&#45;&gt;Node18</title>
<path fill="none" stroke="midnightblue" d="M648.06,-112.08C643.02,-104.53 635.66,-93.49 629.49,-84.23"/>
<polygon fill="midnightblue" stroke="midnightblue" points="632.29,-82.13 623.83,-75.75 626.47,-86.01 632.29,-82.13"/>
</g>
<!-- Node20&#45;&gt;Node9 -->
<g id="edge42" class="edge">
<title>Node20&#45;&gt;Node9</title>
<path fill="none" stroke="midnightblue" d="M813.13,-112.14C801.95,-98.29 778.48,-71.48 753,-56 720.09,-36.01 677.21,-23.68 648.7,-17.09"/>
<polygon fill="midnightblue" stroke="midnightblue" points="649.42,-13.66 638.9,-14.92 647.9,-20.5 649.42,-13.66"/>
</g>
<!-- Node20&#45;&gt;Node18 -->
<g id="edge43" class="edge">
<title>Node20&#45;&gt;Node18</title>
<path fill="none" stroke="midnightblue" d="M787.99,-112.44C753.27,-103.16 697.71,-88.31 659.62,-78.13"/>
<polygon fill="midnightblue" stroke="midnightblue" points="660.42,-74.72 649.86,-75.52 658.61,-81.48 660.42,-74.72"/>
</g>
<!-- Node21 -->
<g id="node21" class="node">
<title>Node21</title>
<g id="a_node21"><a xlink:title=" ">
<polygon fill="white" stroke="#bfbfbf" points="843.5,-56.5 843.5,-75.5 892.5,-75.5 892.5,-56.5 843.5,-56.5"/>
<text text-anchor="middle" x="868" y="-63.5" font-family="Helvetica,sans-Serif" font-size="10.00">cstddef</text>
</a>
</g>
</g>
<!-- Node20&#45;&gt;Node21 -->
<g id="edge41" class="edge">
<title>Node20&#45;&gt;Node21</title>
<path fill="none" stroke="midnightblue" d="M827.93,-112.08C834.85,-104.3 845.07,-92.8 853.45,-83.37"/>
<polygon fill="midnightblue" stroke="midnightblue" points="856.19,-85.55 860.22,-75.75 850.96,-80.9 856.19,-85.55"/>
</g>
</g>
</svg>
        <g id="navigator" transform="translate(0 0)" fill="#404254">
                <rect fill="#f2f5e9" fill-opacity="0.5" stroke="#606060" stroke-width=".5" x="0" y="0" width="60" height="60"/>
                <use id="zoomplus" xlink:href="#zoomPlus" x="17" y="9" onmousedown="handleZoom(evt,'in')"/>
                <use id="zoomminus" xlink:href="#zoomMin" x="42" y="9" onmousedown="handleZoom(evt,'out')"/>
                <use id="reset" xlink:href="#resetDef" x="30" y="36" onmousedown="handleReset()"/>
                <g id="arrowUp" xlink:href="#dirArrow" transform="translate(30 24)" onmousedown="handlePan(0,-1)">
                  <use xlink:href="#rim" fill="#404040">
                        <set attributeName="fill" to="#808080" begin="arrowUp.mouseover" end="arrowUp.mouseout"/>
                  </use>
                  <path fill="none" stroke="white" stroke-width="1.5" d="M0,-3.0v7 M-2.5,-0.5L0,-3.0L2.5,-0.5"/>
                </g>
                <g id="arrowRight" xlink:href="#dirArrow" transform="rotate(90) translate(36 -43)" onmousedown="handlePan(1,0)">
                  <use xlink:href="#rim" fill="#404040">
                        <set attributeName="fill" to="#808080" begin="arrowRight.mouseover" end="arrowRight.mouseout"/>
                  </use>
                  <path fill="none" stroke="white" stroke-width="1.5" d="M0,-3.0v7 M-2.5,-0.5L0,-3.0L2.5,-0.5"/>
                </g>
                <g id="arrowDown" xlink:href="#dirArrow" transform="rotate(180) translate(-30 -48)" onmousedown="handlePan(0,1)">
                  <use xlink:href="#rim" fill="#404040">
                        <set attributeName="fill" to="#808080" begin="arrowDown.mouseover" end="arrowDown.mouseout"/>
                  </use>
                  <path fill="none" stroke="white" stroke-width="1.5" d="M0,-3.0v7 M-2.5,-0.5L0,-3.0L2.5,-0.5"/>
                </g>
                <g id="arrowLeft" xlink:href="#dirArrow" transform="rotate(270) translate(-36 17)" onmousedown="handlePan(-1,0)">
                  <use xlink:href="#rim" fill="#404040">
                        <set attributeName="fill" to="#808080" begin="arrowLeft.mouseover" end="arrowLeft.mouseout"/>
                  </use>
                  <path fill="none" stroke="white" stroke-width="1.5" d="M0,-3.0v7 M-2.5,-0.5L0,-3.0L2.5,-0.5"/>
                </g>
        </g>
        <svg viewBox="0 0 15 15" width="100%" height="30px" preserveAspectRatio="xMaxYMin meet">
         <g id="arrow_out" transform="scale(0.3 0.3)">
          <a xlink:href="ServerManager_8cpp__incl_org.svg" target="_base">
           <rect id="button" ry="5" rx="5" y="6" x="6" height="38" width="38"
                fill="#f2f5e9" fill-opacity="0.5" stroke="#606060" stroke-width="1.0"/>
           <path id="arrow"
             d="M 11.500037,31.436501 C 11.940474,20.09759 22.043105,11.32322 32.158766,21.979434 L 37.068811,17.246167 C 37.068811,17.246167 37.088388,32 37.088388,32 L 22.160133,31.978069 C 22.160133,31.978069 26.997745,27.140456 26.997745,27.140456 C 18.528582,18.264221 13.291696,25.230495 11.500037,31.436501 z"
             style="fill:#404040;"/>
          </a>
         </g>
        </svg>
</svg>
