<?xml version="1.0" encoding="UTF-8" standalone="no"?>
<!DOCTYPE svg PUBLIC "-//W3C//DTD SVG 1.1//EN"
 "http://www.w3.org/Graphics/SVG/1.1/DTD/svg11.dtd">
<!-- Generated by graphviz version 2.43.0 (0)
 -->
<!-- Title: src/client/SessionManager.hpp Pages: 1 -->
<svg width="161pt" height="84pt"
 viewBox="0.00 0.00 161.00 84.00" xmlns="http://www.w3.org/2000/svg" xmlns:xlink="http://www.w3.org/1999/xlink">
<g id="graph0" class="graph" transform="scale(1 1) rotate(0) translate(4 80)">
<title>src/client/SessionManager.hpp</title>
<polygon fill="white" stroke="transparent" points="-4,4 -4,-80 157,-80 157,4 -4,4"/>
<!-- Node1 -->
<g id="node1" class="node">
<title>Node1</title>
<g id="a_node1"><a xlink:title=" ">
<polygon fill="#bfbfbf" stroke="black" points="1.5,-56.5 1.5,-75.5 151.5,-75.5 151.5,-56.5 1.5,-56.5"/>
<text text-anchor="middle" x="76.5" y="-63.5" font-family="Helvetica,sans-Serif" font-size="10.00">src/client/SessionManager.hpp</text>
</a>
</g>
</g>
<!-- Node2 -->
<g id="node2" class="node">
<title>Node2</title>
<g id="a_node2"><a xlink:title=" ">
<polygon fill="white" stroke="#bfbfbf" points="0,-0.5 0,-19.5 41,-19.5 41,-0.5 0,-0.5"/>
<text text-anchor="middle" x="20.5" y="-7.5" font-family="Helvetica,sans-Serif" font-size="10.00">ctime</text>
</a>
</g>
</g>
<!-- Node1&#45;&gt;Node2 -->
<g id="edge1" class="edge">
<title>Node1&#45;&gt;Node2</title>
<path fill="none" stroke="midnightblue" d="M67.5,-56.32C59.31,-48.42 46.99,-36.55 37.03,-26.94"/>
<polygon fill="midnightblue" stroke="midnightblue" points="39.29,-24.26 29.66,-19.83 34.43,-29.29 39.29,-24.26"/>
</g>
<!-- Node3 -->
<g id="node3" class="node">
<title>Node3</title>
<g id="a_node3"><a xlink:title=" ">
<polygon fill="white" stroke="#bfbfbf" points="59,-0.5 59,-19.5 94,-19.5 94,-0.5 59,-0.5"/>
<text text-anchor="middle" x="76.5" y="-7.5" font-family="Helvetica,sans-Serif" font-size="10.00">map</text>
</a>
</g>
</g>
<!-- Node1&#45;&gt;Node3 -->
<g id="edge2" class="edge">
<title>Node1&#45;&gt;Node3</title>
<path fill="none" stroke="midnightblue" d="M76.5,-56.08C76.5,-49.01 76.5,-38.86 76.5,-29.99"/>
<polygon fill="midnightblue" stroke="midnightblue" points="80,-29.75 76.5,-19.75 73,-29.75 80,-29.75"/>
</g>
<!-- Node4 -->
<g id="node4" class="node">
<title>Node4</title>
<g id="a_node4"><a xlink:title=" ">
<polygon fill="white" stroke="#bfbfbf" points="112,-0.5 112,-19.5 153,-19.5 153,-0.5 112,-0.5"/>
<text text-anchor="middle" x="132.5" y="-7.5" font-family="Helvetica,sans-Serif" font-size="10.00">string</text>
</a>
</g>
</g>
<!-- Node1&#45;&gt;Node4 -->
<g id="edge3" class="edge">
<title>Node1&#45;&gt;Node4</title>
<path fill="none" stroke="midnightblue" d="M85.5,-56.32C93.69,-48.42 106.01,-36.55 115.97,-26.94"/>
<polygon fill="midnightblue" stroke="midnightblue" points="118.57,-29.29 123.34,-19.83 113.71,-24.26 118.57,-29.29"/>
</g>
</g>
</svg>
