<?xml version="1.0" encoding="UTF-8" standalone="no"?>
<!DOCTYPE svg PUBLIC "-//W3C//DTD SVG 1.1//EN"
 "http://www.w3.org/Graphics/SVG/1.1/DTD/svg11.dtd">
<!-- Generated by graphviz version 2.43.0 (0)
 -->
<!-- Title: createSessionId Pages: 1 -->
<svg width="2072pt" height="483pt"
 viewBox="0.00 0.00 2072.00 482.79" xmlns="http://www.w3.org/2000/svg" xmlns:xlink="http://www.w3.org/1999/xlink">
<g id="graph0" class="graph" transform="scale(1 1) rotate(0) translate(4 478.79)">
<title>createSessionId</title>
<polygon fill="white" stroke="transparent" points="-4,4 -4,-478.79 2068,-478.79 2068,4 -4,4"/>
<!-- Node1 -->
<g id="node1" class="node">
<title>Node1</title>
<g id="a_node1"><a xlink:title=" ">
<polygon fill="#bfbfbf" stroke="black" points="1977,-164 1977,-183 2064,-183 2064,-164 1977,-164"/>
<text text-anchor="middle" x="2020.5" y="-171" font-family="Helvetica,sans-Serif" font-size="10.00">createSessionId</text>
</a>
</g>
</g>
<!-- Node2 -->
<g id="node2" class="node">
<title>Node2</title>
<g id="a_node2"><a xlink:href="SessionUtils_8cpp.html#aabfd66406b8a4aec4237b26ff8e76a65" target="_top" xlink:title=" ">
<polygon fill="white" stroke="black" points="1803,-164 1803,-183 1941,-183 1941,-164 1803,-164"/>
<text text-anchor="middle" x="1872" y="-171" font-family="Helvetica,sans-Serif" font-size="10.00">addSessionCookieIfNeeded</text>
</a>
</g>
</g>
<!-- Node1&#45;&gt;Node2 -->
<g id="edge1" class="edge">
<title>Node1&#45;&gt;Node2</title>
<path fill="none" stroke="midnightblue" d="M1966.54,-173.5C1958.3,-173.5 1949.69,-173.5 1941.18,-173.5"/>
<polygon fill="midnightblue" stroke="midnightblue" points="1966.73,-177 1976.73,-173.5 1966.73,-170 1966.73,-177"/>
</g>
<!-- Node3 -->
<g id="node3" class="node">
<title>Node3</title>
<g id="a_node3"><a xlink:href="ResponseUtils_8cpp.html#ab7c2cb6fbf297c09ec402182b04584c6" target="_top" xlink:title=" ">
<polygon fill="white" stroke="black" points="1674,-164 1674,-183 1767,-183 1767,-164 1674,-164"/>
<text text-anchor="middle" x="1720.5" y="-171" font-family="Helvetica,sans-Serif" font-size="10.00">fillBaseResponse</text>
</a>
</g>
</g>
<!-- Node2&#45;&gt;Node3 -->
<g id="edge2" class="edge">
<title>Node2&#45;&gt;Node3</title>
<path fill="none" stroke="midnightblue" d="M1792.65,-173.5C1783.99,-173.5 1775.4,-173.5 1767.34,-173.5"/>
<polygon fill="midnightblue" stroke="midnightblue" points="1792.81,-177 1802.81,-173.5 1792.81,-170 1792.81,-177"/>
</g>
<!-- Node4 -->
<g id="node4" class="node">
<title>Node4</title>
<g id="a_node4"><a xlink:href="ErrorUtils_8cpp.html#a470416220aa911b8f1274140a8322e7a" target="_top" xlink:title=" ">
<polygon fill="white" stroke="black" points="1536,-202 1536,-221 1638,-221 1638,-202 1536,-202"/>
<text text-anchor="middle" x="1587" y="-209" font-family="Helvetica,sans-Serif" font-size="10.00">buildErrorResponse</text>
</a>
</g>
</g>
<!-- Node3&#45;&gt;Node4 -->
<g id="edge3" class="edge">
<title>Node3&#45;&gt;Node4</title>
<path fill="none" stroke="midnightblue" d="M1676.62,-185.89C1658.61,-191.09 1637.99,-197.05 1621.17,-201.91"/>
<polygon fill="midnightblue" stroke="midnightblue" points="1677.68,-189.23 1686.32,-183.09 1675.74,-182.5 1677.68,-189.23"/>
</g>
<!-- Node15 -->
<g id="node15" class="node">
<title>Node15</title>
<g id="a_node15"><a xlink:href="classRequestProcessor.html#a3fa9c97a7d142a7b607002138de87140" target="_top" xlink:title=" ">
<polygon fill="white" stroke="black" points="1011,-274 1011,-293 1149,-293 1149,-274 1011,-274"/>
<text text-anchor="middle" x="1080" y="-281" font-family="Helvetica,sans-Serif" font-size="10.00">RequestProcessor::process</text>
</a>
</g>
</g>
<!-- Node3&#45;&gt;Node15 -->
<g id="edge37" class="edge">
<title>Node3&#45;&gt;Node15</title>
<path fill="none" stroke="midnightblue" d="M1712.03,-192.55C1689.67,-246.6 1617.42,-400.73 1500,-458.5 1447.36,-484.4 1424.48,-474.36 1368,-458.5 1364.15,-457.42 1155.91,-329.54 1096.6,-293.09"/>
<polygon fill="midnightblue" stroke="midnightblue" points="1715.34,-193.72 1715.84,-183.13 1708.85,-191.09 1715.34,-193.72"/>
</g>
<!-- Node18 -->
<g id="node18" class="node">
<title>Node18</title>
<g id="a_node18"><a xlink:href="StaticPathHandler_8cpp.html#a28a771d93d3051098585ebc34ed29855" target="_top" xlink:title=" ">
<polygon fill="white" stroke="black" points="1391.5,-50 1391.5,-69 1476.5,-69 1476.5,-50 1391.5,-50"/>
<text text-anchor="middle" x="1434" y="-57" font-family="Helvetica,sans-Serif" font-size="10.00">handleDirectory</text>
</a>
</g>
</g>
<!-- Node3&#45;&gt;Node18 -->
<g id="edge35" class="edge">
<title>Node3&#45;&gt;Node18</title>
<path fill="none" stroke="midnightblue" d="M1690.3,-159.48C1648.67,-139.81 1569.6,-103.63 1500,-78.5 1490.6,-75.11 1480.28,-71.87 1470.68,-69.07"/>
<polygon fill="midnightblue" stroke="midnightblue" points="1689.03,-162.75 1699.56,-163.87 1692.03,-156.42 1689.03,-162.75"/>
</g>
<!-- Node20 -->
<g id="node20" class="node">
<title>Node20</title>
<g id="a_node20"><a xlink:href="classRequestProcessor.html#a606f9c02a3166ca58e6930f8d292d81c" target="_top" xlink:title=" ">
<polygon fill="white" stroke="black" points="1368,-0.5 1368,-30.5 1500,-30.5 1500,-0.5 1368,-0.5"/>
<text text-anchor="start" x="1376" y="-18.5" font-family="Helvetica,sans-Serif" font-size="10.00">RequestProcessor::handle</text>
<text text-anchor="middle" x="1434" y="-7.5" font-family="Helvetica,sans-Serif" font-size="10.00">LocationValidation</text>
</a>
</g>
</g>
<!-- Node3&#45;&gt;Node20 -->
<g id="edge36" class="edge">
<title>Node3&#45;&gt;Node20</title>
<path fill="none" stroke="midnightblue" d="M1706.62,-155.84C1691.94,-136.83 1666.27,-106.86 1638,-88.5 1595.59,-60.97 1541.46,-42.17 1499.76,-30.56"/>
<polygon fill="midnightblue" stroke="midnightblue" points="1703.93,-158.08 1712.74,-163.96 1709.52,-153.86 1703.93,-158.08"/>
</g>
<!-- Node5 -->
<g id="node5" class="node">
<title>Node5</title>
<g id="a_node5"><a xlink:href="classClient.html#a3b000abab7a3fe339f0f39ad5daca68f" target="_top" xlink:title=" ">
<polygon fill="white" stroke="black" points="1371.5,-202 1371.5,-221 1496.5,-221 1496.5,-202 1371.5,-202"/>
<text text-anchor="middle" x="1434" y="-209" font-family="Helvetica,sans-Serif" font-size="10.00">Client::checkCgiTimeout</text>
</a>
</g>
</g>
<!-- Node4&#45;&gt;Node5 -->
<g id="edge4" class="edge">
<title>Node4&#45;&gt;Node5</title>
<path fill="none" stroke="midnightblue" d="M1525.55,-211.5C1516.02,-211.5 1506.17,-211.5 1496.62,-211.5"/>
<polygon fill="midnightblue" stroke="midnightblue" points="1525.72,-215 1535.72,-211.5 1525.72,-208 1525.72,-215"/>
</g>
<!-- Node6 -->
<g id="node6" class="node">
<title>Node6</title>
<g id="a_node6"><a xlink:href="classClient.html#ae523ed90bd32b88e539ebdf30746382b" target="_top" xlink:title=" ">
<polygon fill="white" stroke="black" points="1023.5,-335 1023.5,-354 1136.5,-354 1136.5,-335 1023.5,-335"/>
<text text-anchor="middle" x="1080" y="-342" font-family="Helvetica,sans-Serif" font-size="10.00">Client::dispatchAction</text>
</a>
</g>
</g>
<!-- Node4&#45;&gt;Node6 -->
<g id="edge5" class="edge">
<title>Node4&#45;&gt;Node6</title>
<path fill="none" stroke="midnightblue" d="M1575.73,-229.78C1561.83,-252.59 1534.71,-290.73 1500,-308.5 1382.04,-368.89 1220.73,-361.74 1136.83,-352.47"/>
<polygon fill="midnightblue" stroke="midnightblue" points="1578.81,-231.45 1580.87,-221.05 1572.78,-227.9 1578.81,-231.45"/>
</g>
<!-- Node13 -->
<g id="node13" class="node">
<title>Node13</title>
<g id="a_node13"><a xlink:href="classClient.html#a09d6029b60ae8c9773362968e72f2e54" target="_top" xlink:title=" ">
<polygon fill="white" stroke="black" points="317,-392 317,-411 455,-411 455,-392 317,-392"/>
<text text-anchor="middle" x="386" y="-399" font-family="Helvetica,sans-Serif" font-size="10.00">Client::finalizeCgiResponse</text>
</a>
</g>
</g>
<!-- Node4&#45;&gt;Node13 -->
<g id="edge14" class="edge">
<title>Node4&#45;&gt;Node13</title>
<path fill="none" stroke="midnightblue" d="M1578.85,-230.57C1567.01,-259.42 1540.56,-313.83 1500,-342.5 1410.12,-406.02 1369.56,-401.5 1259.5,-401.5 1259.5,-401.5 1259.5,-401.5 728.5,-401.5 633.64,-401.5 523.96,-401.5 455.03,-401.5"/>
<polygon fill="midnightblue" stroke="midnightblue" points="1582.13,-231.78 1582.54,-221.19 1575.62,-229.21 1582.13,-231.78"/>
</g>
<!-- Node14 -->
<g id="node14" class="node">
<title>Node14</title>
<g id="a_node14"><a xlink:href="classRequestProcessor.html#a79915b1a2fda205b7d5a6c92e5e3fce8" target="_top" xlink:title=" ">
<polygon fill="white" stroke="black" points="1185,-228 1185,-247 1332,-247 1332,-228 1185,-228"/>
<text text-anchor="middle" x="1258.5" y="-235" font-family="Helvetica,sans-Serif" font-size="10.00">RequestProcessor::handleCgi</text>
</a>
</g>
</g>
<!-- Node4&#45;&gt;Node14 -->
<g id="edge15" class="edge">
<title>Node4&#45;&gt;Node14</title>
<path fill="none" stroke="midnightblue" d="M1539.86,-223.37C1527.04,-226.21 1513.05,-228.88 1500,-230.5 1443.93,-237.45 1379.98,-239.01 1332.12,-238.93"/>
<polygon fill="midnightblue" stroke="midnightblue" points="1540.89,-226.72 1549.86,-221.07 1539.33,-219.9 1540.89,-226.72"/>
</g>
<!-- Node4&#45;&gt;Node15 -->
<g id="edge34" class="edge">
<title>Node4&#45;&gt;Node15</title>
<path fill="none" stroke="midnightblue" d="M1568.41,-228.08C1551.99,-242.61 1526.16,-263.12 1500,-274.5 1370.96,-330.62 1324.89,-321.78 1185,-306.5 1161.47,-303.93 1135.47,-298.18 1115.35,-293.07"/>
<polygon fill="midnightblue" stroke="midnightblue" points="1571.04,-230.43 1576.09,-221.11 1566.33,-225.24 1571.04,-230.43"/>
</g>
<!-- Node16 -->
<g id="node16" class="node">
<title>Node16</title>
<g id="a_node16"><a xlink:href="classClient.html#a4104efd3f5f7e1c0f3e3302b46861624" target="_top" xlink:title=" ">
<polygon fill="white" stroke="black" points="1378.5,-430 1378.5,-449 1489.5,-449 1489.5,-430 1378.5,-430"/>
<text text-anchor="middle" x="1434" y="-437" font-family="Helvetica,sans-Serif" font-size="10.00">Client::handleCgiPipe</text>
</a>
</g>
</g>
<!-- Node4&#45;&gt;Node16 -->
<g id="edge19" class="edge">
<title>Node4&#45;&gt;Node16</title>
<path fill="none" stroke="midnightblue" d="M1583.03,-231.22C1575.96,-271.42 1554.49,-363.42 1500,-415.5 1493.39,-421.82 1484.98,-426.5 1476.41,-429.96"/>
<polygon fill="midnightblue" stroke="midnightblue" points="1586.52,-231.56 1584.69,-221.13 1579.61,-230.43 1586.52,-231.56"/>
</g>
<!-- Node4&#45;&gt;Node18 -->
<g id="edge22" class="edge">
<title>Node4&#45;&gt;Node18</title>
<path fill="none" stroke="midnightblue" d="M1578.77,-192.36C1566.83,-163.36 1540.25,-108.51 1500,-78.5 1493.12,-73.37 1484.88,-69.62 1476.61,-66.88"/>
<polygon fill="midnightblue" stroke="midnightblue" points="1575.56,-193.77 1582.5,-201.78 1582.07,-191.19 1575.56,-193.77"/>
</g>
<!-- Node19 -->
<g id="node19" class="node">
<title>Node19</title>
<g id="a_node19"><a xlink:href="StaticPathHandler_8cpp.html#a4e092999675b45373270f5408cbe64c7" target="_top" xlink:title=" ">
<polygon fill="white" stroke="black" points="1213,-126 1213,-145 1304,-145 1304,-126 1213,-126"/>
<text text-anchor="middle" x="1258.5" y="-133" font-family="Helvetica,sans-Serif" font-size="10.00">handleStaticPath</text>
</a>
</g>
</g>
<!-- Node4&#45;&gt;Node19 -->
<g id="edge31" class="edge">
<title>Node4&#45;&gt;Node19</title>
<path fill="none" stroke="midnightblue" d="M1534.99,-199.63C1470.25,-184.56 1359.84,-158.86 1300.35,-145.01"/>
<polygon fill="midnightblue" stroke="midnightblue" points="1534.45,-203.09 1544.98,-201.95 1536.03,-196.28 1534.45,-203.09"/>
</g>
<!-- Node4&#45;&gt;Node20 -->
<g id="edge25" class="edge">
<title>Node4&#45;&gt;Node20</title>
<path fill="none" stroke="midnightblue" d="M1581.19,-191.93C1571.6,-156.86 1546.89,-82.97 1500,-40.5 1495.79,-36.69 1490.93,-33.43 1485.81,-30.65"/>
<polygon fill="midnightblue" stroke="midnightblue" points="1577.87,-193.08 1583.78,-201.87 1584.64,-191.31 1577.87,-193.08"/>
</g>
<!-- Node21 -->
<g id="node21" class="node">
<title>Node21</title>
<g id="a_node21"><a xlink:href="classRequestProcessor.html#a10779d8453416feeda2174859c00d082" target="_top" xlink:title=" ">
<polygon fill="white" stroke="black" points="1192.5,-266.5 1192.5,-296.5 1324.5,-296.5 1324.5,-266.5 1192.5,-266.5"/>
<text text-anchor="start" x="1200.5" y="-284.5" font-family="Helvetica,sans-Serif" font-size="10.00">RequestProcessor::handle</text>
<text text-anchor="middle" x="1258.5" y="-273.5" font-family="Helvetica,sans-Serif" font-size="10.00">ParseOrMethodErrors</text>
</a>
</g>
</g>
<!-- Node4&#45;&gt;Node21 -->
<g id="edge27" class="edge">
<title>Node4&#45;&gt;Node21</title>
<path fill="none" stroke="midnightblue" d="M1558.64,-225.53C1542.07,-233.45 1520.29,-242.86 1500,-248.5 1441.84,-264.68 1373.46,-273.09 1324.51,-277.35"/>
<polygon fill="midnightblue" stroke="midnightblue" points="1560.29,-228.62 1567.74,-221.08 1557.22,-222.33 1560.29,-228.62"/>
</g>
<!-- Node22 -->
<g id="node22" class="node">
<title>Node22</title>
<g id="a_node22"><a xlink:href="StaticPathHandler_8cpp.html#a5af8659f0f83e8296b29264dd671af0d" target="_top" xlink:title=" ">
<polygon fill="white" stroke="black" points="1386.5,-126 1386.5,-145 1481.5,-145 1481.5,-126 1386.5,-126"/>
<text text-anchor="middle" x="1434" y="-133" font-family="Helvetica,sans-Serif" font-size="10.00">handleRegularFile</text>
</a>
</g>
</g>
<!-- Node4&#45;&gt;Node22 -->
<g id="edge29" class="edge">
<title>Node4&#45;&gt;Node22</title>
<path fill="none" stroke="midnightblue" d="M1563.52,-196.28C1546.54,-185.2 1522.42,-170.29 1500,-159.5 1488.73,-154.07 1475.89,-149.09 1464.61,-145.09"/>
<polygon fill="midnightblue" stroke="midnightblue" points="1561.89,-199.4 1572.16,-202 1565.75,-193.56 1561.89,-199.4"/>
</g>
<!-- Node23 -->
<g id="node23" class="node">
<title>Node23</title>
<g id="a_node23"><a xlink:href="StaticPathHandler_8cpp.html#a638cb25cad6c24877a0e75984110ea7a" target="_top" xlink:title=" ">
<polygon fill="white" stroke="black" points="1396,-88 1396,-107 1472,-107 1472,-88 1396,-88"/>
<text text-anchor="middle" x="1434" y="-95" font-family="Helvetica,sans-Serif" font-size="10.00">handleUpload</text>
</a>
</g>
</g>
<!-- Node4&#45;&gt;Node23 -->
<g id="edge32" class="edge">
<title>Node4&#45;&gt;Node23</title>
<path fill="none" stroke="midnightblue" d="M1574.22,-193.29C1559.41,-171.83 1532.02,-136.56 1500,-116.5 1491.63,-111.26 1481.76,-107.41 1472.26,-104.6"/>
<polygon fill="midnightblue" stroke="midnightblue" points="1571.46,-195.46 1579.94,-201.81 1577.27,-191.56 1571.46,-195.46"/>
</g>
<!-- Node7 -->
<g id="node7" class="node">
<title>Node7</title>
<g id="a_node7"><a xlink:href="classClient.html#a419f8f3253d3f71287044e3999a5d600" target="_top" xlink:title=" ">
<polygon fill="white" stroke="black" points="852.5,-316 852.5,-335 965.5,-335 965.5,-316 852.5,-316"/>
<text text-anchor="middle" x="909" y="-323" font-family="Helvetica,sans-Serif" font-size="10.00">Client::buildResponse</text>
</a>
</g>
</g>
<!-- Node6&#45;&gt;Node7 -->
<g id="edge6" class="edge">
<title>Node6&#45;&gt;Node7</title>
<path fill="none" stroke="midnightblue" d="M1013.07,-337.09C997.42,-335.33 980.89,-333.47 965.75,-331.77"/>
<polygon fill="midnightblue" stroke="midnightblue" points="1012.87,-340.59 1023.19,-338.23 1013.65,-333.63 1012.87,-340.59"/>
</g>
<!-- Node8 -->
<g id="node8" class="node">
<title>Node8</title>
<g id="a_node8"><a xlink:href="classClient.html#abcf615f2514ae7e0266315693e73a31a" target="_top" xlink:title=" ">
<polygon fill="white" stroke="black" points="652,-316 652,-335 807,-335 807,-316 652,-316"/>
<text text-anchor="middle" x="729.5" y="-323" font-family="Helvetica,sans-Serif" font-size="10.00">Client::handleCompleteRequest</text>
</a>
</g>
</g>
<!-- Node7&#45;&gt;Node8 -->
<g id="edge7" class="edge">
<title>Node7&#45;&gt;Node8</title>
<path fill="none" stroke="midnightblue" d="M842.05,-325.5C830.67,-325.5 818.75,-325.5 807.12,-325.5"/>
<polygon fill="midnightblue" stroke="midnightblue" points="842.32,-329 852.32,-325.5 842.32,-322 842.32,-329"/>
</g>
<!-- Node9 -->
<g id="node9" class="node">
<title>Node9</title>
<g id="a_node9"><a xlink:href="classClient.html#ac95fe5b24fe5275bd2271bd1ac37596d" target="_top" xlink:title=" ">
<polygon fill="white" stroke="black" points="336,-354 336,-373 436,-373 436,-354 336,-354"/>
<text text-anchor="middle" x="386" y="-361" font-family="Helvetica,sans-Serif" font-size="10.00">Client::handleRead</text>
</a>
</g>
</g>
<!-- Node8&#45;&gt;Node9 -->
<g id="edge8" class="edge">
<title>Node8&#45;&gt;Node9</title>
<path fill="none" stroke="midnightblue" d="M641.78,-330.33C596.7,-333.37 540.76,-337.98 491,-344.5 472.07,-346.98 451.36,-350.58 433.44,-353.98"/>
<polygon fill="midnightblue" stroke="midnightblue" points="642.07,-333.82 651.82,-329.67 641.61,-326.83 642.07,-333.82"/>
</g>
<!-- Node12 -->
<g id="node12" class="node">
<title>Node12</title>
<g id="a_node12"><a xlink:href="classClient.html#a950fd2ab8ac20c9be4c5e722344d6fe2" target="_top" xlink:title=" ">
<polygon fill="white" stroke="black" points="491,-354 491,-373 616,-373 616,-354 491,-354"/>
<text text-anchor="middle" x="553.5" y="-361" font-family="Helvetica,sans-Serif" font-size="10.00">Client::processRequests</text>
</a>
</g>
</g>
<!-- Node8&#45;&gt;Node12 -->
<g id="edge11" class="edge">
<title>Node8&#45;&gt;Node12</title>
<path fill="none" stroke="midnightblue" d="M674.69,-337.25C650.08,-342.63 621.31,-348.91 598.09,-353.98"/>
<polygon fill="midnightblue" stroke="midnightblue" points="675.57,-340.64 684.59,-335.09 674.08,-333.8 675.57,-340.64"/>
</g>
<!-- Node10 -->
<g id="node10" class="node">
<title>Node10</title>
<g id="a_node10"><a xlink:href="classServerManager.html#a9f3ca46da9df004286f90902b8daf29d" target="_top" xlink:title=" ">
<polygon fill="white" stroke="black" points="138,-367.5 138,-397.5 281,-397.5 281,-367.5 138,-367.5"/>
<text text-anchor="start" x="146" y="-385.5" font-family="Helvetica,sans-Serif" font-size="10.00">ServerManager::handleClient</text>
<text text-anchor="middle" x="209.5" y="-374.5" font-family="Helvetica,sans-Serif" font-size="10.00">Event</text>
</a>
</g>
</g>
<!-- Node9&#45;&gt;Node10 -->
<g id="edge9" class="edge">
<title>Node9&#45;&gt;Node10</title>
<path fill="none" stroke="midnightblue" d="M325.69,-369.96C311.33,-371.52 295.84,-373.21 281.02,-374.82"/>
<polygon fill="midnightblue" stroke="midnightblue" points="326.37,-373.41 335.93,-368.84 325.61,-366.45 326.37,-373.41"/>
</g>
<!-- Node11 -->
<g id="node11" class="node">
<title>Node11</title>
<g id="a_node11"><a xlink:href="classServerManager.html#aecc313c9b6afcab92c22269b3333c721" target="_top" xlink:title=" ">
<polygon fill="white" stroke="black" points="0,-395 0,-414 102,-414 102,-395 0,-395"/>
<text text-anchor="middle" x="51" y="-402" font-family="Helvetica,sans-Serif" font-size="10.00">ServerManager::run</text>
</a>
</g>
</g>
<!-- Node10&#45;&gt;Node11 -->
<g id="edge10" class="edge">
<title>Node10&#45;&gt;Node11</title>
<path fill="none" stroke="midnightblue" d="M127.45,-393.89C118.82,-395.11 110.23,-396.31 102.11,-397.46"/>
<polygon fill="midnightblue" stroke="midnightblue" points="128.16,-397.33 137.58,-392.47 127.19,-390.4 128.16,-397.33"/>
</g>
<!-- Node12&#45;&gt;Node9 -->
<g id="edge13" class="edge">
<title>Node12&#45;&gt;Node9</title>
<path fill="none" stroke="midnightblue" d="M480.56,-363.5C465.52,-363.5 449.99,-363.5 436.02,-363.5"/>
<polygon fill="midnightblue" stroke="midnightblue" points="480.87,-367 490.87,-363.5 480.87,-360 480.87,-367"/>
</g>
<!-- Node12&#45;&gt;Node13 -->
<g id="edge12" class="edge">
<title>Node12&#45;&gt;Node13</title>
<path fill="none" stroke="midnightblue" d="M500.69,-375.4C477.43,-380.74 450.35,-386.95 428.46,-391.98"/>
<polygon fill="midnightblue" stroke="midnightblue" points="501.77,-378.74 510.74,-373.09 500.21,-371.92 501.77,-378.74"/>
</g>
<!-- Node14&#45;&gt;Node15 -->
<g id="edge16" class="edge">
<title>Node14&#45;&gt;Node15</title>
<path fill="none" stroke="midnightblue" d="M1210.96,-249.63C1181.74,-257.24 1144.61,-266.92 1117.52,-273.98"/>
<polygon fill="midnightblue" stroke="midnightblue" points="1212.14,-252.94 1220.93,-247.03 1210.37,-246.17 1212.14,-252.94"/>
</g>
<!-- Node15&#45;&gt;Node7 -->
<g id="edge17" class="edge">
<title>Node15&#45;&gt;Node7</title>
<path fill="none" stroke="midnightblue" d="M1030.6,-295.53C1004.55,-302 972.85,-309.88 948.49,-315.93"/>
<polygon fill="midnightblue" stroke="midnightblue" points="1031.79,-298.84 1040.65,-293.03 1030.1,-292.05 1031.79,-298.84"/>
</g>
<!-- Node15&#45;&gt;Node8 -->
<g id="edge18" class="edge">
<title>Node15&#45;&gt;Node8</title>
<path fill="none" stroke="midnightblue" d="M1000.74,-289.74C954.72,-293.76 895.45,-299.52 843,-306.5 823.07,-309.15 801.26,-312.69 782.19,-315.99"/>
<polygon fill="midnightblue" stroke="midnightblue" points="1001.29,-293.21 1010.95,-288.86 1000.69,-286.23 1001.29,-293.21"/>
</g>
<!-- Node17 -->
<g id="node17" class="node">
<title>Node17</title>
<g id="a_node17"><a xlink:href="classServerManager.html#a9c75ea0bd268425c187ef25770eccbe8" target="_top" xlink:title=" ">
<polygon fill="white" stroke="black" points="843,-430.5 843,-460.5 975,-460.5 975,-430.5 843,-430.5"/>
<text text-anchor="start" x="851" y="-448.5" font-family="Helvetica,sans-Serif" font-size="10.00">ServerManager::handleCgi</text>
<text text-anchor="middle" x="909" y="-437.5" font-family="Helvetica,sans-Serif" font-size="10.00">PipeEvent</text>
</a>
</g>
</g>
<!-- Node16&#45;&gt;Node17 -->
<g id="edge20" class="edge">
<title>Node16&#45;&gt;Node17</title>
<path fill="none" stroke="midnightblue" d="M1368,-440.25C1267.57,-441.4 1075.78,-443.6 975.22,-444.75"/>
<polygon fill="midnightblue" stroke="midnightblue" points="1368.06,-443.75 1378.02,-440.13 1367.98,-436.75 1368.06,-443.75"/>
</g>
<!-- Node17&#45;&gt;Node11 -->
<g id="edge21" class="edge">
<title>Node17&#45;&gt;Node11</title>
<path fill="none" stroke="midnightblue" d="M832.58,-444.49C761.01,-443.62 650.43,-442.5 554.5,-442.5 554.5,-442.5 554.5,-442.5 385,-442.5 284.04,-442.5 166.98,-425.05 102.01,-413.8"/>
<polygon fill="midnightblue" stroke="midnightblue" points="832.81,-447.99 842.85,-444.62 832.89,-440.99 832.81,-447.99"/>
</g>
<!-- Node18&#45;&gt;Node19 -->
<g id="edge23" class="edge">
<title>Node18&#45;&gt;Node19</title>
<path fill="none" stroke="midnightblue" d="M1385.49,-72.19C1379.54,-74.13 1373.59,-76.24 1368,-78.5 1333.67,-92.37 1295.89,-113.72 1275.2,-125.97"/>
<polygon fill="midnightblue" stroke="midnightblue" points="1386.93,-75.41 1395.44,-69.1 1384.85,-68.72 1386.93,-75.41"/>
</g>
<!-- Node19&#45;&gt;Node15 -->
<g id="edge24" class="edge">
<title>Node19&#45;&gt;Node15</title>
<path fill="none" stroke="midnightblue" d="M1237.88,-151.95C1200.88,-182.98 1121.86,-249.23 1092.39,-273.95"/>
<polygon fill="midnightblue" stroke="midnightblue" points="1240.51,-154.32 1245.92,-145.21 1236.01,-148.95 1240.51,-154.32"/>
</g>
<!-- Node20&#45;&gt;Node15 -->
<g id="edge26" class="edge">
<title>Node20&#45;&gt;Node15</title>
<path fill="none" stroke="midnightblue" d="M1358.05,-32.66C1305.11,-47.76 1234.97,-74.09 1185,-116.5 1130.31,-162.91 1095.36,-245.56 1084.57,-273.76"/>
<polygon fill="midnightblue" stroke="midnightblue" points="1359.03,-36.02 1367.73,-29.97 1357.16,-29.28 1359.03,-36.02"/>
</g>
<!-- Node21&#45;&gt;Node15 -->
<g id="edge28" class="edge">
<title>Node21&#45;&gt;Node15</title>
<path fill="none" stroke="midnightblue" d="M1181.95,-282.36C1171.07,-282.48 1159.93,-282.61 1149.2,-282.73"/>
<polygon fill="midnightblue" stroke="midnightblue" points="1182.32,-285.85 1192.28,-282.24 1182.24,-278.85 1182.32,-285.85"/>
</g>
<!-- Node22&#45;&gt;Node19 -->
<g id="edge30" class="edge">
<title>Node22&#45;&gt;Node19</title>
<path fill="none" stroke="midnightblue" d="M1375.92,-135.5C1352.58,-135.5 1325.98,-135.5 1304.1,-135.5"/>
<polygon fill="midnightblue" stroke="midnightblue" points="1376.05,-139 1386.05,-135.5 1376.05,-132 1376.05,-139"/>
</g>
<!-- Node23&#45;&gt;Node19 -->
<g id="edge33" class="edge">
<title>Node23&#45;&gt;Node19</title>
<path fill="none" stroke="midnightblue" d="M1385.85,-107.83C1360.05,-113.48 1328.31,-120.43 1303.09,-125.95"/>
<polygon fill="midnightblue" stroke="midnightblue" points="1386.76,-111.21 1395.78,-105.65 1385.26,-104.37 1386.76,-111.21"/>
</g>
</g>
</svg>
