<?xml version="1.0" encoding="UTF-8" standalone="no"?>
<!DOCTYPE svg PUBLIC "-//W3C//DTD SVG 1.1//EN"
 "http://www.w3.org/Graphics/SVG/1.1/DTD/svg11.dtd">
<!-- Generated by graphviz version 2.43.0 (0)
 -->
<!-- Title: addSessionCookieIfNeeded Pages: 1 -->
<svg width="446pt" height="148pt"
 viewBox="0.00 0.00 446.00 147.50" xmlns="http://www.w3.org/2000/svg" xmlns:xlink="http://www.w3.org/1999/xlink">
<g id="graph0" class="graph" transform="scale(1 1) rotate(0) translate(4 143.5)">
<title>addSessionCookieIfNeeded</title>
<polygon fill="white" stroke="transparent" points="-4,4 -4,-143.5 442,-143.5 442,4 -4,4"/>
<!-- Node1 -->
<g id="node1" class="node">
<title>Node1</title>
<g id="a_node1"><a xlink:title=" ">
<polygon fill="#bfbfbf" stroke="black" points="0,-63 0,-82 138,-82 138,-63 0,-63"/>
<text text-anchor="middle" x="69" y="-70" font-family="Helvetica,sans-Serif" font-size="10.00">addSessionCookieIfNeeded</text>
</a>
</g>
</g>
<!-- Node2 -->
<g id="node2" class="node">
<title>Node2</title>
<g id="a_node2"><a xlink:href="SessionUtils_8cpp.html#af915f0cd7984e5d06370014bb43c74b6" target="_top" xlink:title=" ">
<polygon fill="white" stroke="black" points="196,-120 196,-139 283,-139 283,-120 196,-120"/>
<text text-anchor="middle" x="239.5" y="-127" font-family="Helvetica,sans-Serif" font-size="10.00">createSessionId</text>
</a>
</g>
</g>
<!-- Node1&#45;&gt;Node2 -->
<g id="edge1" class="edge">
<title>Node1&#45;&gt;Node2</title>
<path fill="none" stroke="midnightblue" d="M94.64,-82.01C115.62,-89.98 146.61,-101.47 174,-110.5 180.63,-112.69 187.68,-114.89 194.6,-116.98"/>
<polygon fill="midnightblue" stroke="midnightblue" points="193.98,-120.45 204.56,-119.94 195.98,-113.74 193.98,-120.45"/>
</g>
<!-- Node3 -->
<g id="node3" class="node">
<title>Node3</title>
<g id="a_node3"><a xlink:href="SessionUtils_8cpp.html#a655520ad6c85707c8e1aae50c1eda6c8" target="_top" xlink:title=" ">
<polygon fill="white" stroke="black" points="185.5,-82 185.5,-101 293.5,-101 293.5,-82 185.5,-82"/>
<text text-anchor="middle" x="239.5" y="-89" font-family="Helvetica,sans-Serif" font-size="10.00">extractIdFromCookie</text>
</a>
</g>
</g>
<!-- Node1&#45;&gt;Node3 -->
<g id="edge2" class="edge">
<title>Node1&#45;&gt;Node3</title>
<path fill="none" stroke="midnightblue" d="M138.05,-80.17C150.39,-81.57 163.22,-83.01 175.42,-84.39"/>
<polygon fill="midnightblue" stroke="midnightblue" points="175.16,-87.88 185.49,-85.52 175.94,-80.92 175.16,-87.88"/>
</g>
<!-- Node4 -->
<g id="node4" class="node">
<title>Node4</title>
<g id="a_node4"><a xlink:href="classHttpRequest.html#ab537cb11b054734695ee4889d88aec6d" target="_top" xlink:title="Obtiene un header específico de la petición.">
<polygon fill="white" stroke="black" points="178,-44 178,-63 301,-63 301,-44 178,-44"/>
<text text-anchor="middle" x="239.5" y="-51" font-family="Helvetica,sans-Serif" font-size="10.00">HttpRequest::getHeader</text>
</a>
</g>
</g>
<!-- Node1&#45;&gt;Node4 -->
<g id="edge3" class="edge">
<title>Node1&#45;&gt;Node4</title>
<path fill="none" stroke="midnightblue" d="M138.05,-64.83C147.81,-63.73 157.87,-62.59 167.69,-61.48"/>
<polygon fill="midnightblue" stroke="midnightblue" points="168.26,-64.94 177.8,-60.34 167.47,-57.99 168.26,-64.94"/>
</g>
<!-- Node5 -->
<g id="node5" class="node">
<title>Node5</title>
<g id="a_node5"><a xlink:href="classHttpResponse.html#a7efa3ab17ead358609d80b55db164867" target="_top" xlink:title=" ">
<polygon fill="white" stroke="black" points="174,-6 174,-25 305,-25 305,-6 174,-6"/>
<text text-anchor="middle" x="239.5" y="-13" font-family="Helvetica,sans-Serif" font-size="10.00">HttpResponse::setHeader</text>
</a>
</g>
</g>
<!-- Node1&#45;&gt;Node5 -->
<g id="edge4" class="edge">
<title>Node1&#45;&gt;Node5</title>
<path fill="none" stroke="midnightblue" d="M94.64,-62.99C115.62,-55.02 146.61,-43.53 174,-34.5 180.63,-32.31 187.68,-30.11 194.6,-28.02"/>
<polygon fill="midnightblue" stroke="midnightblue" points="195.98,-31.26 204.56,-25.06 193.98,-24.55 195.98,-31.26"/>
</g>
<!-- Node6 -->
<g id="node6" class="node">
<title>Node6</title>
<g id="a_node6"><a xlink:href="namespacehttp__header__utils.html#aa9b0e84aeed4203326a12eecbcd3f9e5" target="_top" xlink:title=" ">
<polygon fill="white" stroke="black" points="341,-0.5 341,-30.5 438,-30.5 438,-0.5 341,-0.5"/>
<text text-anchor="start" x="349" y="-18.5" font-family="Helvetica,sans-Serif" font-size="10.00">http_header_utils::</text>
<text text-anchor="middle" x="389.5" y="-7.5" font-family="Helvetica,sans-Serif" font-size="10.00">toLowerCopy</text>
</a>
</g>
</g>
<!-- Node5&#45;&gt;Node6 -->
<g id="edge5" class="edge">
<title>Node5&#45;&gt;Node6</title>
<path fill="none" stroke="midnightblue" d="M305.41,-15.5C313.92,-15.5 322.58,-15.5 330.95,-15.5"/>
<polygon fill="midnightblue" stroke="midnightblue" points="330.99,-19 340.99,-15.5 330.99,-12 330.99,-19"/>
</g>
</g>
</svg>
