<?xml version="1.0" encoding="UTF-8" standalone="no"?>
<!DOCTYPE svg PUBLIC "-//W3C//DTD SVG 1.1//EN"
 "http://www.w3.org/Graphics/SVG/1.1/DTD/svg11.dtd">
<!-- Generated by graphviz version 2.43.0 (0)
 -->
<!-- Title: src/client/SessionUtils.hpp Pages: 1 -->
<svg width="253pt" height="196pt"
 viewBox="0.00 0.00 253.00 196.00" xmlns="http://www.w3.org/2000/svg" xmlns:xlink="http://www.w3.org/1999/xlink">
<g id="graph0" class="graph" transform="scale(1 1) rotate(0) translate(4 192)">
<title>src/client/SessionUtils.hpp</title>
<polygon fill="white" stroke="transparent" points="-4,4 -4,-192 249,-192 249,4 -4,4"/>
<!-- Node1 -->
<g id="node1" class="node">
<title>Node1</title>
<g id="a_node1"><a xlink:title=" ">
<polygon fill="#bfbfbf" stroke="black" points="68.5,-168.5 68.5,-187.5 202.5,-187.5 202.5,-168.5 68.5,-168.5"/>
<text text-anchor="middle" x="135.5" y="-175.5" font-family="Helvetica,sans-Serif" font-size="10.00">src/client/SessionUtils.hpp</text>
</a>
</g>
</g>
<!-- Node2 -->
<g id="node2" class="node">
<title>Node2</title>
<g id="a_node2"><a xlink:href="HttpRequest_8hpp.html" target="_top" xlink:title=" ">
<polygon fill="white" stroke="black" points="34,-56.5 34,-75.5 153,-75.5 153,-56.5 34,-56.5"/>
<text text-anchor="middle" x="93.5" y="-63.5" font-family="Helvetica,sans-Serif" font-size="10.00">../http/HttpRequest.hpp</text>
</a>
</g>
</g>
<!-- Node1&#45;&gt;Node2 -->
<g id="edge1" class="edge">
<title>Node1&#45;&gt;Node2</title>
<path fill="none" stroke="midnightblue" d="M129.26,-168.46C123.14,-159.72 113.96,-145.52 108.5,-132 102.47,-117.05 98.56,-99.14 96.25,-85.9"/>
<polygon fill="midnightblue" stroke="midnightblue" points="99.65,-85 94.62,-75.67 92.74,-86.1 99.65,-85"/>
</g>
<!-- Node7 -->
<g id="node7" class="node">
<title>Node7</title>
<g id="a_node7"><a xlink:href="HttpResponse_8hpp.html" target="_top" xlink:title=" ">
<polygon fill="white" stroke="black" points="118,-112.5 118,-131.5 245,-131.5 245,-112.5 118,-112.5"/>
<text text-anchor="middle" x="181.5" y="-119.5" font-family="Helvetica,sans-Serif" font-size="10.00">../http/HttpResponse.hpp</text>
</a>
</g>
</g>
<!-- Node1&#45;&gt;Node7 -->
<g id="edge6" class="edge">
<title>Node1&#45;&gt;Node7</title>
<path fill="none" stroke="midnightblue" d="M143.1,-168.08C149.73,-160.3 159.52,-148.8 167.56,-139.37"/>
<polygon fill="midnightblue" stroke="midnightblue" points="170.23,-141.63 174.05,-131.75 164.9,-137.09 170.23,-141.63"/>
</g>
<!-- Node3 -->
<g id="node3" class="node">
<title>Node3</title>
<g id="a_node3"><a xlink:title=" ">
<polygon fill="white" stroke="#bfbfbf" points="65.5,-0.5 65.5,-19.5 119.5,-19.5 119.5,-0.5 65.5,-0.5"/>
<text text-anchor="middle" x="92.5" y="-7.5" font-family="Helvetica,sans-Serif" font-size="10.00">iostream</text>
</a>
</g>
</g>
<!-- Node2&#45;&gt;Node3 -->
<g id="edge2" class="edge">
<title>Node2&#45;&gt;Node3</title>
<path fill="none" stroke="midnightblue" d="M93.33,-56.08C93.2,-49.01 93.02,-38.86 92.85,-29.99"/>
<polygon fill="midnightblue" stroke="midnightblue" points="96.35,-29.68 92.66,-19.75 89.35,-29.81 96.35,-29.68"/>
</g>
<!-- Node4 -->
<g id="node4" class="node">
<title>Node4</title>
<g id="a_node4"><a xlink:title=" ">
<polygon fill="white" stroke="#bfbfbf" points="0,-0.5 0,-19.5 35,-19.5 35,-0.5 0,-0.5"/>
<text text-anchor="middle" x="17.5" y="-7.5" font-family="Helvetica,sans-Serif" font-size="10.00">map</text>
</a>
</g>
</g>
<!-- Node2&#45;&gt;Node4 -->
<g id="edge3" class="edge">
<title>Node2&#45;&gt;Node4</title>
<path fill="none" stroke="midnightblue" d="M81.29,-56.32C69.72,-48.11 52.12,-35.6 38.34,-25.81"/>
<polygon fill="midnightblue" stroke="midnightblue" points="40.11,-22.77 29.93,-19.83 36.06,-28.48 40.11,-22.77"/>
</g>
<!-- Node5 -->
<g id="node5" class="node">
<title>Node5</title>
<g id="a_node5"><a xlink:title=" ">
<polygon fill="white" stroke="#bfbfbf" points="138,-0.5 138,-19.5 179,-19.5 179,-0.5 138,-0.5"/>
<text text-anchor="middle" x="158.5" y="-7.5" font-family="Helvetica,sans-Serif" font-size="10.00">string</text>
</a>
</g>
</g>
<!-- Node2&#45;&gt;Node5 -->
<g id="edge4" class="edge">
<title>Node2&#45;&gt;Node5</title>
<path fill="none" stroke="midnightblue" d="M103.94,-56.32C113.65,-48.26 128.32,-36.08 140,-26.37"/>
<polygon fill="midnightblue" stroke="midnightblue" points="142.41,-28.92 147.87,-19.83 137.94,-23.53 142.41,-28.92"/>
</g>
<!-- Node6 -->
<g id="node6" class="node">
<title>Node6</title>
<g id="a_node6"><a xlink:title=" ">
<polygon fill="white" stroke="#bfbfbf" points="197.5,-0.5 197.5,-19.5 241.5,-19.5 241.5,-0.5 197.5,-0.5"/>
<text text-anchor="middle" x="219.5" y="-7.5" font-family="Helvetica,sans-Serif" font-size="10.00">vector</text>
</a>
</g>
</g>
<!-- Node2&#45;&gt;Node6 -->
<g id="edge5" class="edge">
<title>Node2&#45;&gt;Node6</title>
<path fill="none" stroke="midnightblue" d="M113.47,-56.44C134.11,-47.6 166.56,-33.69 190.13,-23.59"/>
<polygon fill="midnightblue" stroke="midnightblue" points="191.82,-26.67 199.63,-19.52 189.06,-20.24 191.82,-26.67"/>
</g>
<!-- Node7&#45;&gt;Node2 -->
<g id="edge10" class="edge">
<title>Node7&#45;&gt;Node2</title>
<path fill="none" stroke="midnightblue" d="M167.36,-112.32C153.63,-103.9 132.56,-90.97 116.44,-81.07"/>
<polygon fill="midnightblue" stroke="midnightblue" points="117.96,-77.9 107.6,-75.65 114.3,-83.87 117.96,-77.9"/>
</g>
<!-- Node7&#45;&gt;Node4 -->
<g id="edge7" class="edge">
<title>Node7&#45;&gt;Node4</title>
<path fill="none" stroke="midnightblue" d="M117.77,-118.96C84.98,-114.39 47.23,-103.01 24.5,-76 13.89,-63.39 13.06,-44.18 14.34,-29.91"/>
<polygon fill="midnightblue" stroke="midnightblue" points="17.84,-30.11 15.66,-19.74 10.9,-29.21 17.84,-30.11"/>
</g>
<!-- Node7&#45;&gt;Node5 -->
<g id="edge8" class="edge">
<title>Node7&#45;&gt;Node5</title>
<path fill="none" stroke="midnightblue" d="M179.7,-112.37C175.98,-94.62 167.42,-53.67 162.39,-29.6"/>
<polygon fill="midnightblue" stroke="midnightblue" points="165.77,-28.66 160.3,-19.59 158.92,-30.1 165.77,-28.66"/>
</g>
<!-- Node7&#45;&gt;Node6 -->
<g id="edge9" class="edge">
<title>Node7&#45;&gt;Node6</title>
<path fill="none" stroke="midnightblue" d="M184.48,-112.37C190.64,-94.54 204.89,-53.3 213.19,-29.27"/>
<polygon fill="midnightblue" stroke="midnightblue" points="216.57,-30.19 216.53,-19.59 209.96,-27.9 216.57,-30.19"/>
</g>
</g>
</svg>
