<?xml version="1.0" encoding="UTF-8" standalone="no"?>
<!DOCTYPE svg PUBLIC "-//W3C//DTD SVG 1.1//EN"
 "http://www.w3.org/Graphics/SVG/1.1/DTD/svg11.dtd">
<!-- Generated by graphviz version 2.43.0 (0)
 -->
<!-- Title: src/client/StaticPathHandler.hpp Pages: 1 -->
<svg width="703pt" height="196pt"
 viewBox="0.00 0.00 702.97 196.00" xmlns="http://www.w3.org/2000/svg" xmlns:xlink="http://www.w3.org/1999/xlink">
<g id="graph0" class="graph" transform="scale(1 1) rotate(0) translate(4 192)">
<title>src/client/StaticPathHandler.hpp</title>
<polygon fill="white" stroke="transparent" points="-4,4 -4,-192 698.97,-192 698.97,4 -4,4"/>
<!-- Node1 -->
<g id="node1" class="node">
<title>Node1</title>
<g id="a_node1"><a xlink:title=" ">
<polygon fill="#bfbfbf" stroke="black" points="341.39,-168.5 341.39,-187.5 498.39,-187.5 498.39,-168.5 341.39,-168.5"/>
<text text-anchor="middle" x="419.89" y="-175.5" font-family="Helvetica,sans-Serif" font-size="10.00">src/client/StaticPathHandler.hpp</text>
</a>
</g>
</g>
<!-- Node2 -->
<g id="node2" class="node">
<title>Node2</title>
<g id="a_node2"><a xlink:title=" ">
<polygon fill="white" stroke="#bfbfbf" points="175.39,-0.5 175.39,-19.5 216.39,-19.5 216.39,-0.5 175.39,-0.5"/>
<text text-anchor="middle" x="195.89" y="-7.5" font-family="Helvetica,sans-Serif" font-size="10.00">string</text>
</a>
</g>
</g>
<!-- Node1&#45;&gt;Node2 -->
<g id="edge1" class="edge">
<title>Node1&#45;&gt;Node2</title>
<path fill="none" stroke="midnightblue" d="M341.38,-169.28C233.45,-156.84 48.01,-128.29 7.89,-76 -33.75,-21.74 101.55,-12.53 164.94,-11.14"/>
<polygon fill="midnightblue" stroke="midnightblue" points="165.23,-14.64 175.17,-10.97 165.12,-7.64 165.23,-14.64"/>
</g>
<!-- Node3 -->
<g id="node3" class="node">
<title>Node3</title>
<g id="a_node3"><a xlink:title=" ">
<polygon fill="white" stroke="#bfbfbf" points="639.89,-0.5 639.89,-19.5 683.89,-19.5 683.89,-0.5 639.89,-0.5"/>
<text text-anchor="middle" x="661.89" y="-7.5" font-family="Helvetica,sans-Serif" font-size="10.00">vector</text>
</a>
</g>
</g>
<!-- Node1&#45;&gt;Node3 -->
<g id="edge2" class="edge">
<title>Node1&#45;&gt;Node3</title>
<path fill="none" stroke="midnightblue" d="M479.55,-168.46C517.66,-161.64 567.5,-150.17 608.89,-132 649.63,-114.11 671,-115.29 691.89,-76 700.58,-59.64 688.98,-40.3 677.77,-26.99"/>
<polygon fill="midnightblue" stroke="midnightblue" points="680.34,-24.61 671.03,-19.56 675.16,-29.32 680.34,-24.61"/>
</g>
<!-- Node4 -->
<g id="node4" class="node">
<title>Node4</title>
<g id="a_node4"><a xlink:href="LocationConfig_8hpp.html" target="_top" xlink:title=" ">
<polygon fill="white" stroke="black" points="319.39,-56.5 319.39,-75.5 458.39,-75.5 458.39,-56.5 319.39,-56.5"/>
<text text-anchor="middle" x="388.89" y="-63.5" font-family="Helvetica,sans-Serif" font-size="10.00">../config/LocationConfig.hpp</text>
</a>
</g>
</g>
<!-- Node1&#45;&gt;Node4 -->
<g id="edge3" class="edge">
<title>Node1&#45;&gt;Node4</title>
<path fill="none" stroke="midnightblue" d="M417.45,-168.37C412.43,-150.54 400.81,-109.3 394.04,-85.27"/>
<polygon fill="midnightblue" stroke="midnightblue" points="397.39,-84.27 391.31,-75.59 390.65,-86.17 397.39,-84.27"/>
</g>
<!-- Node7 -->
<g id="node7" class="node">
<title>Node7</title>
<g id="a_node7"><a xlink:href="ServerConfig_8hpp.html" target="_top" xlink:title=" ">
<polygon fill="white" stroke="black" points="225.39,-112.5 225.39,-131.5 356.39,-131.5 356.39,-112.5 225.39,-112.5"/>
<text text-anchor="middle" x="290.89" y="-119.5" font-family="Helvetica,sans-Serif" font-size="10.00">../config/ServerConfig.hpp</text>
</a>
</g>
</g>
<!-- Node1&#45;&gt;Node7 -->
<g id="edge8" class="edge">
<title>Node1&#45;&gt;Node7</title>
<path fill="none" stroke="midnightblue" d="M399.45,-168.44C378.22,-159.56 344.79,-145.56 320.63,-135.45"/>
<polygon fill="midnightblue" stroke="midnightblue" points="321.81,-132.15 311.23,-131.52 319.1,-138.61 321.81,-132.15"/>
</g>
<!-- Node9 -->
<g id="node9" class="node">
<title>Node9</title>
<g id="a_node9"><a xlink:href="HttpRequest_8hpp.html" target="_top" xlink:title=" ">
<polygon fill="white" stroke="black" points="476.39,-56.5 476.39,-75.5 595.39,-75.5 595.39,-56.5 476.39,-56.5"/>
<text text-anchor="middle" x="535.89" y="-63.5" font-family="Helvetica,sans-Serif" font-size="10.00">../http/HttpRequest.hpp</text>
</a>
</g>
</g>
<!-- Node1&#45;&gt;Node9 -->
<g id="edge16" class="edge">
<title>Node1&#45;&gt;Node9</title>
<path fill="none" stroke="midnightblue" d="M424.31,-168.16C431.33,-154.81 446.03,-129.21 463.89,-112 477.12,-99.24 494.54,-88.24 508.93,-80.3"/>
<polygon fill="midnightblue" stroke="midnightblue" points="510.69,-83.33 517.88,-75.55 507.41,-77.15 510.69,-83.33"/>
</g>
<!-- Node10 -->
<g id="node10" class="node">
<title>Node10</title>
<g id="a_node10"><a xlink:href="HttpResponse_8hpp.html" target="_top" xlink:title=" ">
<polygon fill="white" stroke="black" points="472.39,-112.5 472.39,-131.5 599.39,-131.5 599.39,-112.5 472.39,-112.5"/>
<text text-anchor="middle" x="535.89" y="-119.5" font-family="Helvetica,sans-Serif" font-size="10.00">../http/HttpResponse.hpp</text>
</a>
</g>
</g>
<!-- Node1&#45;&gt;Node10 -->
<g id="edge21" class="edge">
<title>Node1&#45;&gt;Node10</title>
<path fill="none" stroke="midnightblue" d="M438.27,-168.44C457.1,-159.68 486.62,-145.94 508.27,-135.86"/>
<polygon fill="midnightblue" stroke="midnightblue" points="510,-138.91 517.59,-131.52 507.05,-132.56 510,-138.91"/>
</g>
<!-- Node4&#45;&gt;Node2 -->
<g id="edge6" class="edge">
<title>Node4&#45;&gt;Node2</title>
<path fill="none" stroke="midnightblue" d="M358.3,-56.44C322.22,-46.35 262.58,-29.66 226.49,-19.56"/>
<polygon fill="midnightblue" stroke="midnightblue" points="227.11,-16.1 216.53,-16.78 225.22,-22.84 227.11,-16.1"/>
</g>
<!-- Node4&#45;&gt;Node3 -->
<g id="edge7" class="edge">
<title>Node4&#45;&gt;Node3</title>
<path fill="none" stroke="midnightblue" d="M432.14,-56.44C487.05,-45.58 580.52,-27.09 629.6,-17.39"/>
<polygon fill="midnightblue" stroke="midnightblue" points="630.52,-20.77 639.65,-15.4 629.17,-13.9 630.52,-20.77"/>
</g>
<!-- Node5 -->
<g id="node5" class="node">
<title>Node5</title>
<g id="a_node5"><a xlink:title=" ">
<polygon fill="white" stroke="#bfbfbf" points="361.89,-0.5 361.89,-19.5 415.89,-19.5 415.89,-0.5 361.89,-0.5"/>
<text text-anchor="middle" x="388.89" y="-7.5" font-family="Helvetica,sans-Serif" font-size="10.00">iostream</text>
</a>
</g>
</g>
<!-- Node4&#45;&gt;Node5 -->
<g id="edge4" class="edge">
<title>Node4&#45;&gt;Node5</title>
<path fill="none" stroke="midnightblue" d="M388.89,-56.08C388.89,-49.01 388.89,-38.86 388.89,-29.99"/>
<polygon fill="midnightblue" stroke="midnightblue" points="392.39,-29.75 388.89,-19.75 385.39,-29.75 392.39,-29.75"/>
</g>
<!-- Node6 -->
<g id="node6" class="node">
<title>Node6</title>
<g id="a_node6"><a xlink:title=" ">
<polygon fill="white" stroke="#bfbfbf" points="476.39,-0.5 476.39,-19.5 511.39,-19.5 511.39,-0.5 476.39,-0.5"/>
<text text-anchor="middle" x="493.89" y="-7.5" font-family="Helvetica,sans-Serif" font-size="10.00">map</text>
</a>
</g>
</g>
<!-- Node4&#45;&gt;Node6 -->
<g id="edge5" class="edge">
<title>Node4&#45;&gt;Node6</title>
<path fill="none" stroke="midnightblue" d="M405.76,-56.32C422.6,-47.66 448.69,-34.24 468.12,-24.25"/>
<polygon fill="midnightblue" stroke="midnightblue" points="469.77,-27.34 477.06,-19.65 466.56,-21.12 469.77,-27.34"/>
</g>
<!-- Node7&#45;&gt;Node2 -->
<g id="edge11" class="edge">
<title>Node7&#45;&gt;Node2</title>
<path fill="none" stroke="midnightblue" d="M255.24,-112.42C235.86,-105.81 213.36,-94.56 200.89,-76 191.82,-62.51 191.35,-43.7 192.69,-29.79"/>
<polygon fill="midnightblue" stroke="midnightblue" points="196.16,-30.25 194.02,-19.87 189.22,-29.31 196.16,-30.25"/>
</g>
<!-- Node7&#45;&gt;Node3 -->
<g id="edge12" class="edge">
<title>Node7&#45;&gt;Node3</title>
<path fill="none" stroke="midnightblue" d="M356.67,-116.93C435.82,-111.12 563.25,-98.57 604.89,-76 625.21,-64.99 641.71,-43.69 651.64,-28.48"/>
<polygon fill="midnightblue" stroke="midnightblue" points="654.64,-30.28 656.94,-19.94 648.69,-26.59 654.64,-30.28"/>
</g>
<!-- Node7&#45;&gt;Node4 -->
<g id="edge13" class="edge">
<title>Node7&#45;&gt;Node4</title>
<path fill="none" stroke="midnightblue" d="M306.63,-112.32C322.21,-103.74 346.26,-90.49 364.35,-80.52"/>
<polygon fill="midnightblue" stroke="midnightblue" points="366.11,-83.55 373.18,-75.65 362.73,-77.42 366.11,-83.55"/>
</g>
<!-- Node7&#45;&gt;Node5 -->
<g id="edge9" class="edge">
<title>Node7&#45;&gt;Node5</title>
<path fill="none" stroke="midnightblue" d="M285.1,-112.21C277.16,-98.92 265.12,-73.41 276.89,-56 293.49,-31.43 325.96,-20.28 351.68,-15.21"/>
<polygon fill="midnightblue" stroke="midnightblue" points="352.61,-18.6 361.87,-13.44 351.42,-11.7 352.61,-18.6"/>
</g>
<!-- Node7&#45;&gt;Node6 -->
<g id="edge10" class="edge">
<title>Node7&#45;&gt;Node6</title>
<path fill="none" stroke="midnightblue" d="M290.97,-112.46C291.6,-98.56 294.92,-71.08 310.89,-56 333.13,-35 420.53,-20.67 466.02,-14.47"/>
<polygon fill="midnightblue" stroke="midnightblue" points="466.65,-17.92 476.1,-13.13 465.73,-10.98 466.65,-17.92"/>
</g>
<!-- Node8 -->
<g id="node8" class="node">
<title>Node8</title>
<g id="a_node8"><a xlink:href="namespaces_8hpp.html" target="_top" xlink:title=" ">
<polygon fill="white" stroke="black" points="17.39,-56.5 17.39,-75.5 148.39,-75.5 148.39,-56.5 17.39,-56.5"/>
<text text-anchor="middle" x="82.89" y="-63.5" font-family="Helvetica,sans-Serif" font-size="10.00">common/namespaces.hpp</text>
</a>
</g>
</g>
<!-- Node7&#45;&gt;Node8 -->
<g id="edge14" class="edge">
<title>Node7&#45;&gt;Node8</title>
<path fill="none" stroke="midnightblue" d="M257.93,-112.44C222.1,-103.14 164.72,-88.25 125.5,-78.06"/>
<polygon fill="midnightblue" stroke="midnightblue" points="126.25,-74.64 115.69,-75.52 124.49,-81.42 126.25,-74.64"/>
</g>
<!-- Node8&#45;&gt;Node2 -->
<g id="edge15" class="edge">
<title>Node8&#45;&gt;Node2</title>
<path fill="none" stroke="midnightblue" d="M100.79,-56.44C119.14,-47.68 147.89,-33.94 168.98,-23.86"/>
<polygon fill="midnightblue" stroke="midnightblue" points="170.55,-26.99 178.06,-19.52 167.53,-20.67 170.55,-26.99"/>
</g>
<!-- Node9&#45;&gt;Node2 -->
<g id="edge19" class="edge">
<title>Node9&#45;&gt;Node2</title>
<path fill="none" stroke="midnightblue" d="M482.01,-56.44C409.92,-44.99 284.44,-25.06 226.64,-15.89"/>
<polygon fill="midnightblue" stroke="midnightblue" points="227.09,-12.41 216.67,-14.3 226,-19.33 227.09,-12.41"/>
</g>
<!-- Node9&#45;&gt;Node3 -->
<g id="edge20" class="edge">
<title>Node9&#45;&gt;Node3</title>
<path fill="none" stroke="midnightblue" d="M555.85,-56.44C576.5,-47.6 608.95,-33.69 632.52,-23.59"/>
<polygon fill="midnightblue" stroke="midnightblue" points="634.2,-26.67 642.01,-19.52 631.44,-20.24 634.2,-26.67"/>
</g>
<!-- Node9&#45;&gt;Node5 -->
<g id="edge17" class="edge">
<title>Node9&#45;&gt;Node5</title>
<path fill="none" stroke="midnightblue" d="M512.59,-56.44C488.08,-47.44 449.29,-33.19 421.69,-23.05"/>
<polygon fill="midnightblue" stroke="midnightblue" points="422.66,-19.68 412.07,-19.52 420.25,-26.25 422.66,-19.68"/>
</g>
<!-- Node9&#45;&gt;Node6 -->
<g id="edge18" class="edge">
<title>Node9&#45;&gt;Node6</title>
<path fill="none" stroke="midnightblue" d="M528.95,-56.08C522.96,-48.38 514.13,-37.03 506.84,-27.65"/>
<polygon fill="midnightblue" stroke="midnightblue" points="509.59,-25.5 500.69,-19.75 504.07,-29.79 509.59,-25.5"/>
</g>
<!-- Node10&#45;&gt;Node2 -->
<g id="edge23" class="edge">
<title>Node10&#45;&gt;Node2</title>
<path fill="none" stroke="midnightblue" d="M472.34,-113.76C426.44,-107.24 363.53,-95.57 310.89,-76 275.74,-62.94 238.59,-40.05 216.32,-25.21"/>
<polygon fill="midnightblue" stroke="midnightblue" points="218.25,-22.3 208.01,-19.59 214.33,-28.09 218.25,-22.3"/>
</g>
<!-- Node10&#45;&gt;Node3 -->
<g id="edge24" class="edge">
<title>Node10&#45;&gt;Node3</title>
<path fill="none" stroke="midnightblue" d="M599.69,-116.89C627.8,-111.51 658.37,-100.03 675.89,-76 685.84,-62.34 679.83,-43.04 672.85,-29.02"/>
<polygon fill="midnightblue" stroke="midnightblue" points="675.72,-26.96 667.82,-19.9 669.59,-30.34 675.72,-26.96"/>
</g>
<!-- Node10&#45;&gt;Node6 -->
<g id="edge22" class="edge">
<title>Node10&#45;&gt;Node6</title>
<path fill="none" stroke="midnightblue" d="M557.96,-112.38C583.69,-101 620.79,-79.61 604.89,-56 586.4,-28.56 548.03,-17.85 521.62,-13.67"/>
<polygon fill="midnightblue" stroke="midnightblue" points="521.85,-10.17 511.47,-12.29 520.91,-17.1 521.85,-10.17"/>
</g>
<!-- Node10&#45;&gt;Node9 -->
<g id="edge25" class="edge">
<title>Node10&#45;&gt;Node9</title>
<path fill="none" stroke="midnightblue" d="M535.89,-112.08C535.89,-105.01 535.89,-94.86 535.89,-85.99"/>
<polygon fill="midnightblue" stroke="midnightblue" points="539.39,-85.75 535.89,-75.75 532.39,-85.75 539.39,-85.75"/>
</g>
</g>
</svg>
