<?xml version="1.0" encoding="UTF-8" standalone="no"?>
<!DOCTYPE svg PUBLIC "-//W3C//DTD SVG 1.1//EN"
 "http://www.w3.org/Graphics/SVG/1.1/DTD/svg11.dtd">
<!-- Generated by graphviz version 2.43.0 (0)
 -->
<!-- Title: generateAutoIndexBody Pages: 1 -->
<svg width="378pt" height="79pt"
 viewBox="0.00 0.00 378.00 79.37" xmlns="http://www.w3.org/2000/svg" xmlns:xlink="http://www.w3.org/1999/xlink">
<g id="graph0" class="graph" transform="scale(1 1) rotate(0) translate(4 75.37)">
<title>generateAutoIndexBody</title>
<polygon fill="white" stroke="transparent" points="-4,4 -4,-75.37 374,-75.37 374,4 -4,4"/>
<!-- Node1 -->
<g id="node1" class="node">
<title>Node1</title>
<g id="a_node1"><a xlink:title=" ">
<polygon fill="#bfbfbf" stroke="black" points="0,-38.5 0,-57.5 121,-57.5 121,-38.5 0,-38.5"/>
<text text-anchor="middle" x="60.5" y="-45.5" font-family="Helvetica,sans-Serif" font-size="10.00">generateAutoIndexBody</text>
</a>
</g>
</g>
<!-- Node2 -->
<g id="node2" class="node">
<title>Node2</title>
<g id="a_node2"><a xlink:href="AutoindexRenderer_8cpp.html#aa6603dacef27e71df8be0deb73b1d4be" target="_top" xlink:title=" ">
<polygon fill="white" stroke="black" points="301,-38.5 301,-57.5 370,-57.5 370,-38.5 301,-38.5"/>
<text text-anchor="middle" x="335.5" y="-45.5" font-family="Helvetica,sans-Serif" font-size="10.00">escapeHtml</text>
</a>
</g>
</g>
<!-- Node1&#45;&gt;Node2 -->
<g id="edge1" class="edge">
<title>Node1&#45;&gt;Node2</title>
<path fill="none" stroke="midnightblue" d="M100.27,-57.51C117.52,-61.28 138.16,-65.14 157,-67 204.77,-71.71 217.43,-73.39 265,-67 275.41,-65.6 286.48,-63.08 296.64,-60.31"/>
<polygon fill="midnightblue" stroke="midnightblue" points="297.8,-63.62 306.45,-57.5 295.87,-56.89 297.8,-63.62"/>
</g>
<!-- Node3 -->
<g id="node3" class="node">
<title>Node3</title>
<g id="a_node3"><a xlink:href="StaticPathHandler_8cpp.html#a1d8627a665c990aee828a589a96e15ae" target="_top" xlink:title=" ">
<polygon fill="white" stroke="black" points="163.5,-38.5 163.5,-57.5 258.5,-57.5 258.5,-38.5 163.5,-38.5"/>
<text text-anchor="middle" x="211" y="-45.5" font-family="Helvetica,sans-Serif" font-size="10.00">isImageExtension</text>
</a>
</g>
</g>
<!-- Node1&#45;&gt;Node3 -->
<g id="edge2" class="edge">
<title>Node1&#45;&gt;Node3</title>
<path fill="none" stroke="midnightblue" d="M121.04,-48C131.58,-48 142.52,-48 152.98,-48"/>
<polygon fill="midnightblue" stroke="midnightblue" points="153.24,-51.5 163.24,-48 153.24,-44.5 153.24,-51.5"/>
</g>
<!-- Node4 -->
<g id="node4" class="node">
<title>Node4</title>
<g id="a_node4"><a xlink:href="AutoindexRenderer_8cpp.html#a4cca9fd6a02bdef382cf07d24173b148" target="_top" xlink:title=" ">
<polygon fill="white" stroke="black" points="157,-0.5 157,-19.5 265,-19.5 265,-0.5 157,-0.5"/>
<text text-anchor="middle" x="211" y="-7.5" font-family="Helvetica,sans-Serif" font-size="10.00">renderAutoindexHtml</text>
</a>
</g>
</g>
<!-- Node1&#45;&gt;Node4 -->
<g id="edge3" class="edge">
<title>Node1&#45;&gt;Node4</title>
<path fill="none" stroke="midnightblue" d="M98.97,-38.41C118.39,-33.44 142.3,-27.32 162.95,-22.04"/>
<polygon fill="midnightblue" stroke="midnightblue" points="163.98,-25.39 172.8,-19.52 162.24,-18.61 163.98,-25.39"/>
</g>
<!-- Node4&#45;&gt;Node2 -->
<g id="edge4" class="edge">
<title>Node4&#45;&gt;Node2</title>
<path fill="none" stroke="midnightblue" d="M242.91,-19.59C258.29,-24.36 277.08,-30.19 293.63,-35.32"/>
<polygon fill="midnightblue" stroke="midnightblue" points="293.01,-38.79 303.6,-38.41 295.08,-32.11 293.01,-38.79"/>
</g>
</g>
</svg>
