<?xml version="1.0" encoding="UTF-8" standalone="no"?>
<!DOCTYPE svg PUBLIC "-//W3C//DTD SVG 1.1//EN"
 "http://www.w3.org/Graphics/SVG/1.1/DTD/svg11.dtd">
<!-- Generated by graphviz version 2.43.0 (0)
 -->
<!-- Title: handleRegularFile Pages: 1 -->
<!--zoomable 497 -->
<svg id="main" version="1.1" xmlns="http://www.w3.org/2000/svg" xmlns:xlink="http://www.w3.org/1999/xlink" xml:space="preserve" onload="init(evt)">
<style type="text/css"><![CDATA[
.edge:hover path { stroke: red; }
.edge:hover polygon { stroke: red; fill: red; }
]]></style>
<script type="text/javascript"><![CDATA[
var edges = document.getElementsByTagName('g');
if (edges && edges.length) {
  for (var i=0;i<edges.length;i++) {
    if (edges[i].id.substr(0,4)=='edge') {
      edges[i].setAttribute('class','edge');
    }
  }
}
]]></script>
        <defs>
                <circle id="rim" cx="0" cy="0" r="7"/>
                <circle id="rim2" cx="0" cy="0" r="3.5"/>
                <g id="zoomPlus">
                        <use xlink:href="#rim" fill="#404040">
                                <set attributeName="fill" to="#808080" begin="zoomplus.mouseover" end="zoomplus.mouseout"/>
                        </use>
                        <path d="M-4,0h8M0,-4v8" fill="none" stroke="white" stroke-width="1.5" pointer-events="none"/>
                </g>
                <g id="zoomMin">
                        <use xlink:href="#rim" fill="#404040">
                                <set attributeName="fill" to="#808080" begin="zoomminus.mouseover" end="zoomminus.mouseout"/>
                        </use>
                        <path d="M-4,0h8" fill="none" stroke="white" stroke-width="1.5" pointer-events="none"/>
                </g>
                <g id="dirArrow">
                        <path fill="none" stroke="white" stroke-width="1.5" d="M0,-3.0v7 M-2.5,-0.5L0,-3.0L2.5,-0.5"/>
                </g>
               <g id="resetDef">
                       <use xlink:href="#rim2" fill="#404040">
                               <set attributeName="fill" to="#808080" begin="reset.mouseover" end="reset.mouseout"/>
                       </use>
               </g>
        </defs>

<script type="text/javascript">
var viewWidth = 863;
var viewHeight = 497;
var sectionId = 'dynsection-6';
</script>
<script xlink:href="svgpan.js"/>
<svg id="graph" class="graph">
<g id="viewport">
<title>handleRegularFile</title>
<polygon fill="white" stroke="transparent" points="-4,4 -4,-493.39 859,-493.39 859,4 -4,4"/>
<!-- Node1 -->
<g id="node1" class="node">
<title>Node1</title>
<g id="a_node1"><a xlink:title=" ">
<polygon fill="#bfbfbf" stroke="black" points="0,-152.5 0,-171.5 95,-171.5 95,-152.5 0,-152.5"/>
<text text-anchor="middle" x="47.5" y="-159.5" font-family="Helvetica,sans-Serif" font-size="10.00">handleRegularFile</text>
</a>
</g>
</g>
<!-- Node2 -->
<g id="node2" class="node">
<title>Node2</title>
<g id="a_node2"><a xlink:href="ErrorUtils_8cpp.html#a470416220aa911b8f1274140a8322e7a" target="_top" xlink:title=" ">
<polygon fill="white" stroke="black" points="131,-209.5 131,-228.5 233,-228.5 233,-209.5 131,-209.5"/>
<text text-anchor="middle" x="182" y="-216.5" font-family="Helvetica,sans-Serif" font-size="10.00">buildErrorResponse</text>
</a>
</g>
</g>
<!-- Node1&#45;&gt;Node2 -->
<g id="edge1" class="edge">
<title>Node1&#45;&gt;Node2</title>
<path fill="none" stroke="midnightblue" d="M70.68,-171.54C92.17,-180.79 125,-194.91 149.26,-205.35"/>
<polygon fill="midnightblue" stroke="midnightblue" points="148.18,-208.69 158.75,-209.43 150.95,-202.26 148.18,-208.69"/>
</g>
<!-- Node10 -->
<g id="node10" class="node">
<title>Node10</title>
<g id="a_node10"><a xlink:href="classHttpRequest.html#adf523a5345b525702a858f8792bab8ea" target="_top" xlink:title=" ">
<polygon fill="white" stroke="black" points="413.5,-0.5 413.5,-19.5 537.5,-19.5 537.5,-0.5 413.5,-0.5"/>
<text text-anchor="middle" x="475.5" y="-7.5" font-family="Helvetica,sans-Serif" font-size="10.00">HttpRequest::getMethod</text>
</a>
</g>
</g>
<!-- Node1&#45;&gt;Node10 -->
<g id="edge29" class="edge">
<title>Node1&#45;&gt;Node10</title>
<path fill="none" stroke="midnightblue" d="M70.66,-152.5C125.44,-129.24 271.92,-68.49 398,-29 405.8,-26.56 414.12,-24.22 422.3,-22.07"/>
<polygon fill="midnightblue" stroke="midnightblue" points="423.34,-25.42 432.16,-19.55 421.6,-18.64 423.34,-25.42"/>
</g>
<!-- Node15 -->
<g id="node15" class="node">
<title>Node15</title>
<g id="a_node15"><a xlink:href="classHttpResponse.html#a11a67ba43096f5eb1870e65f1814d364" target="_top" xlink:title=" ">
<polygon fill="white" stroke="black" points="398,-456.5 398,-475.5 553,-475.5 553,-456.5 398,-456.5"/>
<text text-anchor="middle" x="475.5" y="-463.5" font-family="Helvetica,sans-Serif" font-size="10.00">HttpResponse::setContentType</text>
</a>
</g>
</g>
<!-- Node1&#45;&gt;Node15 -->
<g id="edge31" class="edge">
<title>Node1&#45;&gt;Node15</title>
<path fill="none" stroke="midnightblue" d="M51.61,-171.54C66.68,-216.03 136.94,-403.87 269,-472 321.12,-498.89 391,-488.79 434.37,-478.1"/>
<polygon fill="midnightblue" stroke="midnightblue" points="435.46,-481.43 444.26,-475.54 433.71,-474.66 435.46,-481.43"/>
</g>
<!-- Node24 -->
<g id="node24" class="node">
<title>Node24</title>
<g id="a_node24"><a xlink:href="StaticPathHandler_8cpp.html#aa759f2b84e51d20fdf7801c0514c3635" target="_top" xlink:title=" ">
<polygon fill="white" stroke="black" points="140,-57.5 140,-76.5 224,-76.5 224,-57.5 140,-57.5"/>
<text text-anchor="middle" x="182" y="-64.5" font-family="Helvetica,sans-Serif" font-size="10.00">readFileToBody</text>
</a>
</g>
</g>
<!-- Node1&#45;&gt;Node24 -->
<g id="edge30" class="edge">
<title>Node1&#45;&gt;Node24</title>
<path fill="none" stroke="midnightblue" d="M57.98,-152.35C72.66,-137.77 102.21,-109.82 131,-91 136.5,-87.4 142.62,-84.02 148.64,-80.99"/>
<polygon fill="midnightblue" stroke="midnightblue" points="150.41,-84.02 157.92,-76.54 147.39,-77.71 150.41,-84.02"/>
</g>
<!-- Node3 -->
<g id="node3" class="node">
<title>Node3</title>
<g id="a_node3"><a xlink:href="ResponseUtils_8cpp.html#ab7c2cb6fbf297c09ec402182b04584c6" target="_top" xlink:title=" ">
<polygon fill="white" stroke="black" points="269,-247.5 269,-266.5 362,-266.5 362,-247.5 269,-247.5"/>
<text text-anchor="middle" x="315.5" y="-254.5" font-family="Helvetica,sans-Serif" font-size="10.00">fillBaseResponse</text>
</a>
</g>
</g>
<!-- Node2&#45;&gt;Node3 -->
<g id="edge2" class="edge">
<title>Node2&#45;&gt;Node3</title>
<path fill="none" stroke="midnightblue" d="M216.18,-228.59C233,-233.45 253.63,-239.41 271.63,-244.61"/>
<polygon fill="midnightblue" stroke="midnightblue" points="270.75,-248 281.33,-247.41 272.69,-241.28 270.75,-248"/>
</g>
<!-- Node8 -->
<g id="node8" class="node">
<title>Node8</title>
<g id="a_node8"><a xlink:href="classHttpResponse.html#a7efa3ab17ead358609d80b55db164867" target="_top" xlink:title=" ">
<polygon fill="white" stroke="black" points="590,-408.5 590,-427.5 721,-427.5 721,-408.5 590,-408.5"/>
<text text-anchor="middle" x="655.5" y="-415.5" font-family="Helvetica,sans-Serif" font-size="10.00">HttpResponse::setHeader</text>
</a>
</g>
</g>
<!-- Node2&#45;&gt;Node8 -->
<g id="edge27" class="edge">
<title>Node2&#45;&gt;Node8</title>
<path fill="none" stroke="midnightblue" d="M190.24,-228.61C214.97,-260.57 300.03,-363.51 398,-403 455.79,-426.29 526.89,-428.63 579.56,-425.95"/>
<polygon fill="midnightblue" stroke="midnightblue" points="580.06,-429.43 589.84,-425.35 579.65,-422.44 580.06,-429.43"/>
</g>
<!-- Node2&#45;&gt;Node15 -->
<g id="edge26" class="edge">
<title>Node2&#45;&gt;Node15</title>
<path fill="none" stroke="midnightblue" d="M183.4,-228.62C185.41,-263.84 197.51,-386.58 269,-442 302.03,-467.61 347.5,-474.9 387.27,-475.23"/>
<polygon fill="midnightblue" stroke="midnightblue" points="387.53,-478.73 397.51,-475.16 387.49,-471.73 387.53,-478.73"/>
</g>
<!-- Node21 -->
<g id="node21" class="node">
<title>Node21</title>
<g id="a_node21"><a xlink:href="ErrorUtils_8cpp.html#aa759f2b84e51d20fdf7801c0514c3635" target="_top" xlink:title=" ">
<polygon fill="white" stroke="black" points="273.5,-171.5 273.5,-190.5 357.5,-190.5 357.5,-171.5 273.5,-171.5"/>
<text text-anchor="middle" x="315.5" y="-178.5" font-family="Helvetica,sans-Serif" font-size="10.00">readFileToBody</text>
</a>
</g>
</g>
<!-- Node2&#45;&gt;Node21 -->
<g id="edge24" class="edge">
<title>Node2&#45;&gt;Node21</title>
<path fill="none" stroke="midnightblue" d="M216.18,-209.41C233,-204.55 253.63,-198.59 271.63,-193.39"/>
<polygon fill="midnightblue" stroke="midnightblue" points="272.69,-196.72 281.33,-190.59 270.75,-190 272.69,-196.72"/>
</g>
<!-- Node22 -->
<g id="node22" class="node">
<title>Node22</title>
<g id="a_node22"><a xlink:href="RequestProcessorUtils_8cpp.html#aa9c12d87cb0781b781a580ff9bfd0c06" target="_top" xlink:title=" ">
<polygon fill="white" stroke="black" points="281.5,-133.5 281.5,-152.5 349.5,-152.5 349.5,-133.5 281.5,-133.5"/>
<text text-anchor="middle" x="315.5" y="-140.5" font-family="Helvetica,sans-Serif" font-size="10.00">resolvePath</text>
</a>
</g>
</g>
<!-- Node2&#45;&gt;Node22 -->
<g id="edge25" class="edge">
<title>Node2&#45;&gt;Node22</title>
<path fill="none" stroke="midnightblue" d="M195.92,-209.3C212.34,-197.25 241.82,-176.51 269,-162 272.47,-160.15 276.16,-158.35 279.88,-156.64"/>
<polygon fill="midnightblue" stroke="midnightblue" points="281.31,-159.83 289.07,-152.62 278.51,-153.42 281.31,-159.83"/>
</g>
<!-- Node23 -->
<g id="node23" class="node">
<title>Node23</title>
<g id="a_node23"><a xlink:href="ResponseUtils_8cpp.html#a1c98cd4773c38cae6781a257fa318ca7" target="_top" xlink:title=" ">
<polygon fill="white" stroke="black" points="292,-209.5 292,-228.5 339,-228.5 339,-209.5 292,-209.5"/>
<text text-anchor="middle" x="315.5" y="-216.5" font-family="Helvetica,sans-Serif" font-size="10.00">toBody</text>
</a>
</g>
</g>
<!-- Node2&#45;&gt;Node23 -->
<g id="edge28" class="edge">
<title>Node2&#45;&gt;Node23</title>
<path fill="none" stroke="midnightblue" d="M233.09,-219C249.33,-219 266.92,-219 281.58,-219"/>
<polygon fill="midnightblue" stroke="midnightblue" points="281.67,-222.5 291.67,-219 281.67,-215.5 281.67,-222.5"/>
</g>
<!-- Node4 -->
<g id="node4" class="node">
<title>Node4</title>
<g id="a_node4"><a xlink:href="SessionUtils_8cpp.html#aabfd66406b8a4aec4237b26ff8e76a65" target="_top" xlink:title=" ">
<polygon fill="white" stroke="black" points="406.5,-228.5 406.5,-247.5 544.5,-247.5 544.5,-228.5 406.5,-228.5"/>
<text text-anchor="middle" x="475.5" y="-235.5" font-family="Helvetica,sans-Serif" font-size="10.00">addSessionCookieIfNeeded</text>
</a>
</g>
</g>
<!-- Node3&#45;&gt;Node4 -->
<g id="edge3" class="edge">
<title>Node3&#45;&gt;Node4</title>
<path fill="none" stroke="midnightblue" d="M362.2,-251.5C372.84,-250.22 384.48,-248.83 396.09,-247.43"/>
<polygon fill="midnightblue" stroke="midnightblue" points="396.76,-250.87 406.27,-246.21 395.92,-243.92 396.76,-250.87"/>
</g>
<!-- Node3&#45;&gt;Node8 -->
<g id="edge18" class="edge">
<title>Node3&#45;&gt;Node8</title>
<path fill="none" stroke="midnightblue" d="M320.79,-266.64C330.89,-288.09 358.3,-339.88 398,-365 452.51,-399.49 525.37,-412.03 579.51,-416.35"/>
<polygon fill="midnightblue" stroke="midnightblue" points="579.5,-419.86 589.73,-417.09 580.01,-412.88 579.5,-419.86"/>
</g>
<!-- Node3&#45;&gt;Node10 -->
<g id="edge9" class="edge">
<title>Node3&#45;&gt;Node10</title>
<path fill="none" stroke="midnightblue" d="M350.5,-247.45C354.88,-244.98 358.91,-241.88 362,-238 420.75,-164.29 333.82,-98.03 398,-29 399.88,-26.98 401.93,-25.17 404.12,-23.53"/>
<polygon fill="midnightblue" stroke="midnightblue" points="406.42,-26.23 413.17,-18.07 402.8,-20.24 406.42,-26.23"/>
</g>
<!-- Node11 -->
<g id="node11" class="node">
<title>Node11</title>
<g id="a_node11"><a xlink:href="classHttpRequest.html#acde519e492e10352bc39d6a3bcd857b2" target="_top" xlink:title=" ">
<polygon fill="white" stroke="black" points="419.5,-304.5 419.5,-323.5 531.5,-323.5 531.5,-304.5 419.5,-304.5"/>
<text text-anchor="middle" x="475.5" y="-311.5" font-family="Helvetica,sans-Serif" font-size="10.00">HttpRequest::getPath</text>
</a>
</g>
</g>
<!-- Node3&#45;&gt;Node11 -->
<g id="edge10" class="edge">
<title>Node3&#45;&gt;Node11</title>
<path fill="none" stroke="midnightblue" d="M334.53,-266.64C350.77,-275.02 375.48,-287.04 398,-295 405.09,-297.51 412.65,-299.81 420.17,-301.89"/>
<polygon fill="midnightblue" stroke="midnightblue" points="419.41,-305.31 429.98,-304.48 421.2,-298.54 419.41,-305.31"/>
</g>
<!-- Node12 -->
<g id="node12" class="node">
<title>Node12</title>
<g id="a_node12"><a xlink:href="classHttpRequest.html#ac2a5d18d42289a03b57215c98d8df41e" target="_top" xlink:title=" ">
<polygon fill="white" stroke="black" points="413,-266.5 413,-285.5 538,-285.5 538,-266.5 413,-266.5"/>
<text text-anchor="middle" x="475.5" y="-273.5" font-family="Helvetica,sans-Serif" font-size="10.00">HttpRequest::getVersion</text>
</a>
</g>
</g>
<!-- Node3&#45;&gt;Node12 -->
<g id="edge11" class="edge">
<title>Node3&#45;&gt;Node12</title>
<path fill="none" stroke="midnightblue" d="M362.2,-262.5C374.89,-264.02 388.98,-265.72 402.77,-267.37"/>
<polygon fill="midnightblue" stroke="midnightblue" points="402.39,-270.85 412.74,-268.57 403.23,-263.9 402.39,-270.85"/>
</g>
<!-- Node13 -->
<g id="node13" class="node">
<title>Node13</title>
<g id="a_node13"><a xlink:href="classHttpResponse.html#acba4d7264c5b05e63a199c87f8526473" target="_top" xlink:title=" ">
<polygon fill="white" stroke="black" points="589,-361.5 589,-380.5 722,-380.5 722,-361.5 589,-361.5"/>
<text text-anchor="middle" x="655.5" y="-368.5" font-family="Helvetica,sans-Serif" font-size="10.00">HttpResponse::hasHeader</text>
</a>
</g>
</g>
<!-- Node3&#45;&gt;Node13 -->
<g id="edge12" class="edge">
<title>Node3&#45;&gt;Node13</title>
<path fill="none" stroke="midnightblue" d="M323.56,-266.63C336.33,-283.27 365.06,-317.14 398,-333 454.68,-360.29 525.91,-369.11 578.92,-371.49"/>
<polygon fill="midnightblue" stroke="midnightblue" points="578.8,-374.99 588.93,-371.88 579.07,-368 578.8,-374.99"/>
</g>
<!-- Node14 -->
<g id="node14" class="node">
<title>Node14</title>
<g id="a_node14"><a xlink:href="classHttpResponse.html#a884d07c418ba6145385d63e43bb1b29a" target="_top" xlink:title=" ">
<polygon fill="white" stroke="black" points="414.5,-190.5 414.5,-209.5 536.5,-209.5 536.5,-190.5 414.5,-190.5"/>
<text text-anchor="middle" x="475.5" y="-197.5" font-family="Helvetica,sans-Serif" font-size="10.00">HttpResponse::setBody</text>
</a>
</g>
</g>
<!-- Node3&#45;&gt;Node14 -->
<g id="edge14" class="edge">
<title>Node3&#45;&gt;Node14</title>
<path fill="none" stroke="midnightblue" d="M340.76,-247.34C347.68,-244.46 355.19,-241.21 362,-238 378.36,-230.28 381.1,-225.45 398,-219 404.44,-216.54 411.31,-214.31 418.19,-212.32"/>
<polygon fill="midnightblue" stroke="midnightblue" points="419.51,-215.59 428.23,-209.58 417.66,-208.84 419.51,-215.59"/>
</g>
<!-- Node3&#45;&gt;Node15 -->
<g id="edge15" class="edge">
<title>Node3&#45;&gt;Node15</title>
<path fill="none" stroke="midnightblue" d="M320.34,-266.72C330.42,-291.48 359.56,-358.17 398,-404 413.39,-422.34 434.84,-439.18 451.11,-450.66"/>
<polygon fill="midnightblue" stroke="midnightblue" points="449.32,-453.68 459.55,-456.46 453.29,-447.91 449.32,-453.68"/>
</g>
<!-- Node16 -->
<g id="node16" class="node">
<title>Node16</title>
<g id="a_node16"><a xlink:href="classHttpResponse.html#ac982631ddcf451521e207ac0c2bd0108" target="_top" xlink:title=" ">
<polygon fill="white" stroke="black" points="404,-152.5 404,-171.5 547,-171.5 547,-152.5 404,-152.5"/>
<text text-anchor="middle" x="475.5" y="-159.5" font-family="Helvetica,sans-Serif" font-size="10.00">HttpResponse::setHeadOnly</text>
</a>
</g>
</g>
<!-- Node3&#45;&gt;Node16 -->
<g id="edge19" class="edge">
<title>Node3&#45;&gt;Node16</title>
<path fill="none" stroke="midnightblue" d="M346.88,-247.39C352.26,-244.86 357.55,-241.76 362,-238 384.89,-218.66 373.71,-198.54 398,-181 400.66,-179.08 403.5,-177.35 406.45,-175.79"/>
<polygon fill="midnightblue" stroke="midnightblue" points="407.95,-178.96 415.61,-171.63 405.05,-172.58 407.95,-178.96"/>
</g>
<!-- Node17 -->
<g id="node17" class="node">
<title>Node17</title>
<g id="a_node17"><a xlink:href="classHttpResponse.html#a610f8f887ca042f2b18ec395aaccc255" target="_top" xlink:title=" ">
<polygon fill="white" stroke="black" points="400,-114.5 400,-133.5 551,-133.5 551,-114.5 400,-114.5"/>
<text text-anchor="middle" x="475.5" y="-121.5" font-family="Helvetica,sans-Serif" font-size="10.00">HttpResponse::setStatusCode</text>
</a>
</g>
</g>
<!-- Node3&#45;&gt;Node17 -->
<g id="edge20" class="edge">
<title>Node3&#45;&gt;Node17</title>
<path fill="none" stroke="midnightblue" d="M348.93,-247.38C353.74,-244.9 358.31,-241.81 362,-238 393.39,-205.54 364.23,-172.98 398,-143 399.75,-141.45 401.6,-140.02 403.54,-138.71"/>
<polygon fill="midnightblue" stroke="midnightblue" points="405.53,-141.6 412.51,-133.63 402.08,-135.51 405.53,-141.6"/>
</g>
<!-- Node19 -->
<g id="node19" class="node">
<title>Node19</title>
<g id="a_node19"><a xlink:href="classHttpResponse.html#a407dc1ea3f01365d8105fadc0418bc79" target="_top" xlink:title=" ">
<polygon fill="white" stroke="black" points="409.5,-76.5 409.5,-95.5 541.5,-95.5 541.5,-76.5 409.5,-76.5"/>
<text text-anchor="middle" x="475.5" y="-83.5" font-family="Helvetica,sans-Serif" font-size="10.00">HttpResponse::setVersion</text>
</a>
</g>
</g>
<!-- Node3&#45;&gt;Node19 -->
<g id="edge22" class="edge">
<title>Node3&#45;&gt;Node19</title>
<path fill="none" stroke="midnightblue" d="M349.72,-247.43C354.32,-244.96 358.61,-241.86 362,-238 402.37,-191.95 354.25,-147.85 398,-105 399.47,-103.56 401.02,-102.23 402.66,-100.99"/>
<polygon fill="midnightblue" stroke="midnightblue" points="404.73,-103.83 411.37,-95.57 401.03,-97.88 404.73,-103.83"/>
</g>
<!-- Node20 -->
<g id="node20" class="node">
<title>Node20</title>
<g id="a_node20"><a xlink:href="ResponseUtils_8cpp.html#af8cce302648449aa6215ac211230ef75" target="_top" xlink:title=" ">
<polygon fill="white" stroke="black" points="433.5,-38.5 433.5,-57.5 517.5,-57.5 517.5,-38.5 433.5,-38.5"/>
<text text-anchor="middle" x="475.5" y="-45.5" font-family="Helvetica,sans-Serif" font-size="10.00">versionToString</text>
</a>
</g>
</g>
<!-- Node3&#45;&gt;Node20 -->
<g id="edge23" class="edge">
<title>Node3&#45;&gt;Node20</title>
<path fill="none" stroke="midnightblue" d="M350.37,-247.35C354.77,-244.89 358.83,-241.82 362,-238 411.52,-178.17 344.08,-122.9 398,-67 404.84,-59.91 413.88,-55.3 423.35,-52.35"/>
<polygon fill="midnightblue" stroke="midnightblue" points="424.46,-55.68 433.29,-49.83 422.74,-48.89 424.46,-55.68"/>
</g>
<!-- Node5 -->
<g id="node5" class="node">
<title>Node5</title>
<g id="a_node5"><a xlink:href="SessionUtils_8cpp.html#af915f0cd7984e5d06370014bb43c74b6" target="_top" xlink:title=" ">
<polygon fill="white" stroke="black" points="612,-266.5 612,-285.5 699,-285.5 699,-266.5 612,-266.5"/>
<text text-anchor="middle" x="655.5" y="-273.5" font-family="Helvetica,sans-Serif" font-size="10.00">createSessionId</text>
</a>
</g>
</g>
<!-- Node4&#45;&gt;Node5 -->
<g id="edge4" class="edge">
<title>Node4&#45;&gt;Node5</title>
<path fill="none" stroke="midnightblue" d="M521.42,-247.59C545.87,-252.81 576.27,-259.3 601.84,-264.76"/>
<polygon fill="midnightblue" stroke="midnightblue" points="601.23,-268.21 611.74,-266.87 602.7,-261.36 601.23,-268.21"/>
</g>
<!-- Node6 -->
<g id="node6" class="node">
<title>Node6</title>
<g id="a_node6"><a xlink:href="SessionUtils_8cpp.html#a655520ad6c85707c8e1aae50c1eda6c8" target="_top" xlink:title=" ">
<polygon fill="white" stroke="black" points="601.5,-228.5 601.5,-247.5 709.5,-247.5 709.5,-228.5 601.5,-228.5"/>
<text text-anchor="middle" x="655.5" y="-235.5" font-family="Helvetica,sans-Serif" font-size="10.00">extractIdFromCookie</text>
</a>
</g>
</g>
<!-- Node4&#45;&gt;Node6 -->
<g id="edge5" class="edge">
<title>Node4&#45;&gt;Node6</title>
<path fill="none" stroke="midnightblue" d="M544.56,-238C559.87,-238 576.05,-238 591.16,-238"/>
<polygon fill="midnightblue" stroke="midnightblue" points="591.43,-241.5 601.43,-238 591.43,-234.5 591.43,-241.5"/>
</g>
<!-- Node7 -->
<g id="node7" class="node">
<title>Node7</title>
<g id="a_node7"><a xlink:href="classHttpRequest.html#ab537cb11b054734695ee4889d88aec6d" target="_top" xlink:title="Obtiene un header específico de la petición.">
<polygon fill="white" stroke="black" points="594,-190.5 594,-209.5 717,-209.5 717,-190.5 594,-190.5"/>
<text text-anchor="middle" x="655.5" y="-197.5" font-family="Helvetica,sans-Serif" font-size="10.00">HttpRequest::getHeader</text>
</a>
</g>
</g>
<!-- Node4&#45;&gt;Node7 -->
<g id="edge6" class="edge">
<title>Node4&#45;&gt;Node7</title>
<path fill="none" stroke="midnightblue" d="M521.42,-228.41C545.33,-223.31 574.92,-216.99 600.12,-211.61"/>
<polygon fill="midnightblue" stroke="midnightblue" points="600.86,-215.03 609.91,-209.52 599.4,-208.19 600.86,-215.03"/>
</g>
<!-- Node4&#45;&gt;Node8 -->
<g id="edge7" class="edge">
<title>Node4&#45;&gt;Node8</title>
<path fill="none" stroke="midnightblue" d="M539.63,-247.57C544.53,-250.07 549.09,-253.17 553,-257 596.75,-299.85 548.82,-343.78 589,-390 593.96,-395.71 600.3,-400.29 607.06,-403.96"/>
<polygon fill="midnightblue" stroke="midnightblue" points="605.93,-407.29 616.46,-408.4 608.92,-400.96 605.93,-407.29"/>
</g>
<!-- Node9 -->
<g id="node9" class="node">
<title>Node9</title>
<g id="a_node9"><a xlink:href="namespacehttp__header__utils.html#aa9b0e84aeed4203326a12eecbcd3f9e5" target="_top" xlink:title=" ">
<polygon fill="white" stroke="black" points="758,-403 758,-433 855,-433 855,-403 758,-403"/>
<text text-anchor="start" x="766" y="-421" font-family="Helvetica,sans-Serif" font-size="10.00">http_header_utils::</text>
<text text-anchor="middle" x="806.5" y="-410" font-family="Helvetica,sans-Serif" font-size="10.00">toLowerCopy</text>
</a>
</g>
</g>
<!-- Node8&#45;&gt;Node9 -->
<g id="edge8" class="edge">
<title>Node8&#45;&gt;Node9</title>
<path fill="none" stroke="midnightblue" d="M721.42,-418C730.12,-418 738.99,-418 747.56,-418"/>
<polygon fill="midnightblue" stroke="midnightblue" points="747.82,-421.5 757.82,-418 747.82,-414.5 747.82,-421.5"/>
</g>
<!-- Node13&#45;&gt;Node9 -->
<g id="edge13" class="edge">
<title>Node13&#45;&gt;Node9</title>
<path fill="none" stroke="midnightblue" d="M686.65,-380.51C704.27,-386.07 727.09,-393.27 748.02,-399.87"/>
<polygon fill="midnightblue" stroke="midnightblue" points="747.2,-403.28 757.79,-402.95 749.31,-396.6 747.2,-403.28"/>
</g>
<!-- Node15&#45;&gt;Node8 -->
<g id="edge16" class="edge">
<title>Node15&#45;&gt;Node8</title>
<path fill="none" stroke="midnightblue" d="M512.09,-456.4C539.99,-448.88 578.98,-438.36 609.12,-430.24"/>
<polygon fill="midnightblue" stroke="midnightblue" points="610.22,-433.56 618.97,-427.58 608.4,-426.81 610.22,-433.56"/>
</g>
<!-- Node15&#45;&gt;Node9 -->
<g id="edge17" class="edge">
<title>Node15&#45;&gt;Node9</title>
<path fill="none" stroke="midnightblue" d="M553.1,-459.06C601.68,-454.14 665.75,-446.69 722,-437 730.42,-435.55 739.28,-433.79 747.94,-431.94"/>
<polygon fill="midnightblue" stroke="midnightblue" points="748.97,-435.29 757.99,-429.73 747.47,-428.46 748.97,-435.29"/>
</g>
<!-- Node18 -->
<g id="node18" class="node">
<title>Node18</title>
<g id="a_node18"><a xlink:href="HttpResponse_8cpp.html#aadc8fd8bbc80a1b3551ea1357e04f07b" target="_top" xlink:title=" ">
<polygon fill="white" stroke="black" points="596,-114.5 596,-133.5 715,-133.5 715,-114.5 596,-114.5"/>
<text text-anchor="middle" x="655.5" y="-121.5" font-family="Helvetica,sans-Serif" font-size="10.00">reasonPhraseForStatus</text>
</a>
</g>
</g>
<!-- Node17&#45;&gt;Node18 -->
<g id="edge21" class="edge">
<title>Node17&#45;&gt;Node18</title>
<path fill="none" stroke="midnightblue" d="M551.21,-124C562.65,-124 574.41,-124 585.71,-124"/>
<polygon fill="midnightblue" stroke="midnightblue" points="585.94,-127.5 595.94,-124 585.94,-120.5 585.94,-127.5"/>
</g>
</g>
</svg>
        <g id="navigator" transform="translate(0 0)" fill="#404254">
                <rect fill="#f2f5e9" fill-opacity="0.5" stroke="#606060" stroke-width=".5" x="0" y="0" width="60" height="60"/>
                <use id="zoomplus" xlink:href="#zoomPlus" x="17" y="9" onmousedown="handleZoom(evt,'in')"/>
                <use id="zoomminus" xlink:href="#zoomMin" x="42" y="9" onmousedown="handleZoom(evt,'out')"/>
                <use id="reset" xlink:href="#resetDef" x="30" y="36" onmousedown="handleReset()"/>
                <g id="arrowUp" xlink:href="#dirArrow" transform="translate(30 24)" onmousedown="handlePan(0,-1)">
                  <use xlink:href="#rim" fill="#404040">
                        <set attributeName="fill" to="#808080" begin="arrowUp.mouseover" end="arrowUp.mouseout"/>
                  </use>
                  <path fill="none" stroke="white" stroke-width="1.5" d="M0,-3.0v7 M-2.5,-0.5L0,-3.0L2.5,-0.5"/>
                </g>
                <g id="arrowRight" xlink:href="#dirArrow" transform="rotate(90) translate(36 -43)" onmousedown="handlePan(1,0)">
                  <use xlink:href="#rim" fill="#404040">
                        <set attributeName="fill" to="#808080" begin="arrowRight.mouseover" end="arrowRight.mouseout"/>
                  </use>
                  <path fill="none" stroke="white" stroke-width="1.5" d="M0,-3.0v7 M-2.5,-0.5L0,-3.0L2.5,-0.5"/>
                </g>
                <g id="arrowDown" xlink:href="#dirArrow" transform="rotate(180) translate(-30 -48)" onmousedown="handlePan(0,1)">
                  <use xlink:href="#rim" fill="#404040">
                        <set attributeName="fill" to="#808080" begin="arrowDown.mouseover" end="arrowDown.mouseout"/>
                  </use>
                  <path fill="none" stroke="white" stroke-width="1.5" d="M0,-3.0v7 M-2.5,-0.5L0,-3.0L2.5,-0.5"/>
                </g>
                <g id="arrowLeft" xlink:href="#dirArrow" transform="rotate(270) translate(-36 17)" onmousedown="handlePan(-1,0)">
                  <use xlink:href="#rim" fill="#404040">
                        <set attributeName="fill" to="#808080" begin="arrowLeft.mouseover" end="arrowLeft.mouseout"/>
                  </use>
                  <path fill="none" stroke="white" stroke-width="1.5" d="M0,-3.0v7 M-2.5,-0.5L0,-3.0L2.5,-0.5"/>
                </g>
        </g>
        <svg viewBox="0 0 15 15" width="100%" height="30px" preserveAspectRatio="xMaxYMin meet">
         <g id="arrow_out" transform="scale(0.3 0.3)">
          <a xlink:href="StaticPathHandler_8cpp_a5af8659f0f83e8296b29264dd671af0d_cgraph_org.svg" target="_base">
           <rect id="button" ry="5" rx="5" y="6" x="6" height="38" width="38"
                fill="#f2f5e9" fill-opacity="0.5" stroke="#606060" stroke-width="1.0"/>
           <path id="arrow"
             d="M 11.500037,31.436501 C 11.940474,20.09759 22.043105,11.32322 32.158766,21.979434 L 37.068811,17.246167 C 37.068811,17.246167 37.088388,32 37.088388,32 L 22.160133,31.978069 C 22.160133,31.978069 26.997745,27.140456 26.997745,27.140456 C 18.528582,18.264221 13.291696,25.230495 11.500037,31.436501 z"
             style="fill:#404040;"/>
          </a>
         </g>
        </svg>
</svg>
