<?xml version="1.0" encoding="UTF-8" standalone="no"?>
<!DOCTYPE svg PUBLIC "-//W3C//DTD SVG 1.1//EN"
 "http://www.w3.org/Graphics/SVG/1.1/DTD/svg11.dtd">
<!-- Generated by graphviz version 2.43.0 (0)
 -->
<!-- Title: handleStaticPath Pages: 1 -->
<!--zoomable 690 -->
<svg id="main" version="1.1" xmlns="http://www.w3.org/2000/svg" xmlns:xlink="http://www.w3.org/1999/xlink" xml:space="preserve" onload="init(evt)">
<style type="text/css"><![CDATA[
.edge:hover path { stroke: red; }
.edge:hover polygon { stroke: red; fill: red; }
]]></style>
<script type="text/javascript"><![CDATA[
var edges = document.getElementsByTagName('g');
if (edges && edges.length) {
  for (var i=0;i<edges.length;i++) {
    if (edges[i].id.substr(0,4)=='edge') {
      edges[i].setAttribute('class','edge');
    }
  }
}
]]></script>
        <defs>
                <circle id="rim" cx="0" cy="0" r="7"/>
                <circle id="rim2" cx="0" cy="0" r="3.5"/>
                <g id="zoomPlus">
                        <use xlink:href="#rim" fill="#404040">
                                <set attributeName="fill" to="#808080" begin="zoomplus.mouseover" end="zoomplus.mouseout"/>
                        </use>
                        <path d="M-4,0h8M0,-4v8" fill="none" stroke="white" stroke-width="1.5" pointer-events="none"/>
                </g>
                <g id="zoomMin">
                        <use xlink:href="#rim" fill="#404040">
                                <set attributeName="fill" to="#808080" begin="zoomminus.mouseover" end="zoomminus.mouseout"/>
                        </use>
                        <path d="M-4,0h8" fill="none" stroke="white" stroke-width="1.5" pointer-events="none"/>
                </g>
                <g id="dirArrow">
                        <path fill="none" stroke="white" stroke-width="1.5" d="M0,-3.0v7 M-2.5,-0.5L0,-3.0L2.5,-0.5"/>
                </g>
               <g id="resetDef">
                       <use xlink:href="#rim2" fill="#404040">
                               <set attributeName="fill" to="#808080" begin="reset.mouseover" end="reset.mouseout"/>
                       </use>
               </g>
        </defs>

<script type="text/javascript">
var viewWidth = 1035;
var viewHeight = 690;
var sectionId = 'dynsection-2';
</script>
<script xlink:href="svgpan.js"/>
<svg id="graph" class="graph">
<g id="viewport">
<title>handleStaticPath</title>
<polygon fill="white" stroke="transparent" points="-4,4 -4,-685.53 1031,-685.53 1031,4 -4,4"/>
<!-- Node1 -->
<g id="node1" class="node">
<title>Node1</title>
<g id="a_node1"><a xlink:title=" ">
<polygon fill="#bfbfbf" stroke="black" points="0,-253.03 0,-272.03 91,-272.03 91,-253.03 0,-253.03"/>
<text text-anchor="middle" x="45.5" y="-260.03" font-family="Helvetica,sans-Serif" font-size="10.00">handleStaticPath</text>
</a>
</g>
</g>
<!-- Node2 -->
<g id="node2" class="node">
<title>Node2</title>
<g id="a_node2"><a xlink:href="ErrorUtils_8cpp.html#a470416220aa911b8f1274140a8322e7a" target="_top" xlink:title=" ">
<polygon fill="white" stroke="black" points="273,-206.03 273,-225.03 375,-225.03 375,-206.03 273,-206.03"/>
<text text-anchor="middle" x="324" y="-213.03" font-family="Helvetica,sans-Serif" font-size="10.00">buildErrorResponse</text>
</a>
</g>
</g>
<!-- Node1&#45;&gt;Node2 -->
<g id="edge1" class="edge">
<title>Node1&#45;&gt;Node2</title>
<path fill="none" stroke="midnightblue" d="M91.23,-254.93C137.8,-247.01 211.02,-234.57 262.68,-225.79"/>
<polygon fill="midnightblue" stroke="midnightblue" points="263.44,-229.21 272.71,-224.08 262.27,-222.31 263.44,-229.21"/>
</g>
<!-- Node10 -->
<g id="node10" class="node">
<title>Node10</title>
<g id="a_node10"><a xlink:href="classHttpRequest.html#adf523a5345b525702a858f8792bab8ea" target="_top" xlink:title=" ">
<polygon fill="white" stroke="black" points="585.5,-187.03 585.5,-206.03 709.5,-206.03 709.5,-187.03 585.5,-187.03"/>
<text text-anchor="middle" x="647.5" y="-194.03" font-family="Helvetica,sans-Serif" font-size="10.00">HttpRequest::getMethod</text>
</a>
</g>
</g>
<!-- Node1&#45;&gt;Node10 -->
<g id="edge29" class="edge">
<title>Node1&#45;&gt;Node10</title>
<path fill="none" stroke="midnightblue" d="M59.01,-253.01C104.81,-218.82 268.89,-102.23 426,-63.53 472.61,-52.06 490.46,-43.33 534,-63.53 585.02,-87.2 621.28,-146.67 637.31,-177.44"/>
<polygon fill="midnightblue" stroke="midnightblue" points="634.33,-179.32 641.95,-186.68 640.59,-176.17 634.33,-179.32"/>
</g>
<!-- Node24 -->
<g id="node24" class="node">
<title>Node24</title>
<g id="a_node24"><a xlink:href="StaticPathHandler_8cpp.html#af1a594e40c7c8ca6395d038d2d9d954d" target="_top" xlink:title=" ">
<polygon fill="white" stroke="black" points="290.5,-655.03 290.5,-674.03 357.5,-674.03 357.5,-655.03 290.5,-655.03"/>
<text text-anchor="middle" x="324" y="-662.03" font-family="Helvetica,sans-Serif" font-size="10.00">getPathInfo</text>
</a>
</g>
</g>
<!-- Node1&#45;&gt;Node24 -->
<g id="edge30" class="edge">
<title>Node1&#45;&gt;Node24</title>
<path fill="none" stroke="midnightblue" d="M48.85,-272.19C56.78,-303.72 84.45,-406.01 127,-481.53 172.8,-562.81 180.51,-593.59 258,-645.53 264.73,-650.05 272.54,-653.5 280.37,-656.15"/>
<polygon fill="midnightblue" stroke="midnightblue" points="279.64,-659.58 290.22,-659.09 281.64,-652.88 279.64,-659.58"/>
</g>
<!-- Node25 -->
<g id="node25" class="node">
<title>Node25</title>
<g id="a_node25"><a xlink:href="StaticPathHandler_8cpp.html#a28a771d93d3051098585ebc34ed29855" target="_top" xlink:title=" ">
<polygon fill="white" stroke="black" points="132,-453.03 132,-472.03 217,-472.03 217,-453.03 132,-453.03"/>
<text text-anchor="middle" x="174.5" y="-460.03" font-family="Helvetica,sans-Serif" font-size="10.00">handleDirectory</text>
</a>
</g>
</g>
<!-- Node1&#45;&gt;Node25 -->
<g id="edge31" class="edge">
<title>Node1&#45;&gt;Node25</title>
<path fill="none" stroke="midnightblue" d="M52.63,-272.18C72.58,-303.6 135.9,-403.32 162.04,-444.49"/>
<polygon fill="midnightblue" stroke="midnightblue" points="159.12,-446.42 167.44,-452.98 165.03,-442.67 159.12,-446.42"/>
</g>
<!-- Node34 -->
<g id="node34" class="node">
<title>Node34</title>
<g id="a_node34"><a xlink:href="StaticPathHandler_8cpp.html#a5af8659f0f83e8296b29264dd671af0d" target="_top" xlink:title=" ">
<polygon fill="white" stroke="black" points="127,-263.03 127,-282.03 222,-282.03 222,-263.03 127,-263.03"/>
<text text-anchor="middle" x="174.5" y="-270.03" font-family="Helvetica,sans-Serif" font-size="10.00">handleRegularFile</text>
</a>
</g>
</g>
<!-- Node1&#45;&gt;Node34 -->
<g id="edge48" class="edge">
<title>Node1&#45;&gt;Node34</title>
<path fill="none" stroke="midnightblue" d="M91.28,-266.06C99.59,-266.71 108.38,-267.41 116.99,-268.08"/>
<polygon fill="midnightblue" stroke="midnightblue" points="116.74,-271.58 126.98,-268.87 117.29,-264.6 116.74,-271.58"/>
</g>
<!-- Node35 -->
<g id="node35" class="node">
<title>Node35</title>
<g id="a_node35"><a xlink:href="StaticPathHandler_8cpp.html#a638cb25cad6c24877a0e75984110ea7a" target="_top" xlink:title=" ">
<polygon fill="white" stroke="black" points="136.5,-16.03 136.5,-35.03 212.5,-35.03 212.5,-16.03 136.5,-16.03"/>
<text text-anchor="middle" x="174.5" y="-23.03" font-family="Helvetica,sans-Serif" font-size="10.00">handleUpload</text>
</a>
</g>
</g>
<!-- Node1&#45;&gt;Node35 -->
<g id="edge53" class="edge">
<title>Node1&#45;&gt;Node35</title>
<path fill="none" stroke="midnightblue" d="M47.68,-252.78C52.11,-220.1 70.46,-112.99 127,-49.53 130.07,-46.08 133.76,-43.06 137.7,-40.42"/>
<polygon fill="midnightblue" stroke="midnightblue" points="139.69,-43.31 146.58,-35.26 136.17,-37.26 139.69,-43.31"/>
</g>
<!-- Node3 -->
<g id="node3" class="node">
<title>Node3</title>
<g id="a_node3"><a xlink:href="ResponseUtils_8cpp.html#ab7c2cb6fbf297c09ec402182b04584c6" target="_top" xlink:title=" ">
<polygon fill="white" stroke="black" points="433.5,-415.03 433.5,-434.03 526.5,-434.03 526.5,-415.03 433.5,-415.03"/>
<text text-anchor="middle" x="480" y="-422.03" font-family="Helvetica,sans-Serif" font-size="10.00">fillBaseResponse</text>
</a>
</g>
</g>
<!-- Node2&#45;&gt;Node3 -->
<g id="edge2" class="edge">
<title>Node2&#45;&gt;Node3</title>
<path fill="none" stroke="midnightblue" d="M332.02,-225.06C355.92,-257.49 434.41,-364.02 465.83,-406.65"/>
<polygon fill="midnightblue" stroke="midnightblue" points="463.19,-408.98 471.94,-414.95 468.83,-404.83 463.19,-408.98"/>
</g>
<!-- Node8 -->
<g id="node8" class="node">
<title>Node8</title>
<g id="a_node8"><a xlink:href="classHttpResponse.html#a7efa3ab17ead358609d80b55db164867" target="_top" xlink:title=" ">
<polygon fill="white" stroke="black" points="762,-263.03 762,-282.03 893,-282.03 893,-263.03 762,-263.03"/>
<text text-anchor="middle" x="827.5" y="-270.03" font-family="Helvetica,sans-Serif" font-size="10.00">HttpResponse::setHeader</text>
</a>
</g>
</g>
<!-- Node2&#45;&gt;Node8 -->
<g id="edge27" class="edge">
<title>Node2&#45;&gt;Node8</title>
<path fill="none" stroke="midnightblue" d="M370.84,-205.97C461.75,-187.86 661.58,-152.48 725,-177.53 764.24,-193.03 797.21,-231.66 814.19,-254.6"/>
<polygon fill="midnightblue" stroke="midnightblue" points="811.4,-256.73 820.08,-262.82 817.09,-252.65 811.4,-256.73"/>
</g>
<!-- Node15 -->
<g id="node15" class="node">
<title>Node15</title>
<g id="a_node15"><a xlink:href="classHttpResponse.html#a11a67ba43096f5eb1870e65f1814d364" target="_top" xlink:title=" ">
<polygon fill="white" stroke="black" points="570,-225.03 570,-244.03 725,-244.03 725,-225.03 570,-225.03"/>
<text text-anchor="middle" x="647.5" y="-232.03" font-family="Helvetica,sans-Serif" font-size="10.00">HttpResponse::setContentType</text>
</a>
</g>
</g>
<!-- Node2&#45;&gt;Node15 -->
<g id="edge26" class="edge">
<title>Node2&#45;&gt;Node15</title>
<path fill="none" stroke="midnightblue" d="M375.23,-218.5C424.48,-221.41 500.56,-225.91 559.62,-229.4"/>
<polygon fill="midnightblue" stroke="midnightblue" points="559.51,-232.9 569.7,-230 559.92,-225.91 559.51,-232.9"/>
</g>
<!-- Node21 -->
<g id="node21" class="node">
<title>Node21</title>
<g id="a_node21"><a xlink:href="ErrorUtils_8cpp.html#aa759f2b84e51d20fdf7801c0514c3635" target="_top" xlink:title=" ">
<polygon fill="white" stroke="black" points="438,-149.03 438,-168.03 522,-168.03 522,-149.03 438,-149.03"/>
<text text-anchor="middle" x="480" y="-156.03" font-family="Helvetica,sans-Serif" font-size="10.00">readFileToBody</text>
</a>
</g>
</g>
<!-- Node2&#45;&gt;Node21 -->
<g id="edge24" class="edge">
<title>Node2&#45;&gt;Node21</title>
<path fill="none" stroke="midnightblue" d="M350.78,-205.99C376.21,-196.58 415.28,-182.12 443.61,-171.63"/>
<polygon fill="midnightblue" stroke="midnightblue" points="444.98,-174.86 453.14,-168.11 442.55,-168.29 444.98,-174.86"/>
</g>
<!-- Node22 -->
<g id="node22" class="node">
<title>Node22</title>
<g id="a_node22"><a xlink:href="RequestProcessorUtils_8cpp.html#aa9c12d87cb0781b781a580ff9bfd0c06" target="_top" xlink:title=" ">
<polygon fill="white" stroke="black" points="446,-111.03 446,-130.03 514,-130.03 514,-111.03 446,-111.03"/>
<text text-anchor="middle" x="480" y="-118.03" font-family="Helvetica,sans-Serif" font-size="10.00">resolvePath</text>
</a>
</g>
</g>
<!-- Node2&#45;&gt;Node22 -->
<g id="edge25" class="edge">
<title>Node2&#45;&gt;Node22</title>
<path fill="none" stroke="midnightblue" d="M335.47,-205.94C353.04,-190.25 390.08,-158.91 426,-139.53 429.77,-137.5 433.81,-135.6 437.91,-133.86"/>
<polygon fill="midnightblue" stroke="midnightblue" points="439.48,-137 447.5,-130.07 436.91,-130.49 439.48,-137"/>
</g>
<!-- Node23 -->
<g id="node23" class="node">
<title>Node23</title>
<g id="a_node23"><a xlink:href="ResponseUtils_8cpp.html#a1c98cd4773c38cae6781a257fa318ca7" target="_top" xlink:title=" ">
<polygon fill="white" stroke="black" points="456.5,-73.03 456.5,-92.03 503.5,-92.03 503.5,-73.03 456.5,-73.03"/>
<text text-anchor="middle" x="480" y="-80.03" font-family="Helvetica,sans-Serif" font-size="10.00">toBody</text>
</a>
</g>
</g>
<!-- Node2&#45;&gt;Node23 -->
<g id="edge28" class="edge">
<title>Node2&#45;&gt;Node23</title>
<path fill="none" stroke="midnightblue" d="M331.1,-205.81C345.19,-184.08 382.2,-131.18 426,-101.53 432.29,-97.28 439.64,-93.85 446.83,-91.15"/>
<polygon fill="midnightblue" stroke="midnightblue" points="448.08,-94.43 456.43,-87.9 445.83,-87.8 448.08,-94.43"/>
</g>
<!-- Node4 -->
<g id="node4" class="node">
<title>Node4</title>
<g id="a_node4"><a xlink:href="SessionUtils_8cpp.html#aabfd66406b8a4aec4237b26ff8e76a65" target="_top" xlink:title=" ">
<polygon fill="white" stroke="black" points="578.5,-567.03 578.5,-586.03 716.5,-586.03 716.5,-567.03 578.5,-567.03"/>
<text text-anchor="middle" x="647.5" y="-574.03" font-family="Helvetica,sans-Serif" font-size="10.00">addSessionCookieIfNeeded</text>
</a>
</g>
</g>
<!-- Node3&#45;&gt;Node4 -->
<g id="edge3" class="edge">
<title>Node3&#45;&gt;Node4</title>
<path fill="none" stroke="midnightblue" d="M489.99,-434.23C511.74,-457.65 565.7,-515.69 570,-519.53 587.04,-534.75 607.92,-550.12 623.56,-561.06"/>
<polygon fill="midnightblue" stroke="midnightblue" points="621.88,-564.15 632.1,-566.95 625.86,-558.39 621.88,-564.15"/>
</g>
<!-- Node3&#45;&gt;Node8 -->
<g id="edge18" class="edge">
<title>Node3&#45;&gt;Node8</title>
<path fill="none" stroke="midnightblue" d="M513.22,-415.01C520.85,-411.48 528.39,-406.77 534,-400.53 568.11,-362.59 529.79,-322.93 570,-291.53 628.65,-245.75 719.62,-251.51 775.99,-261.12"/>
<polygon fill="midnightblue" stroke="midnightblue" points="775.63,-264.62 786.09,-262.95 776.88,-257.73 775.63,-264.62"/>
</g>
<!-- Node3&#45;&gt;Node10 -->
<g id="edge9" class="edge">
<title>Node3&#45;&gt;Node10</title>
<path fill="none" stroke="midnightblue" d="M484.51,-414.94C498.89,-375.82 553.38,-229.7 570,-215.53 572,-213.83 574.14,-212.27 576.38,-210.84"/>
<polygon fill="midnightblue" stroke="midnightblue" points="578.26,-213.81 585.43,-206.01 574.96,-207.63 578.26,-213.81"/>
</g>
<!-- Node11 -->
<g id="node11" class="node">
<title>Node11</title>
<g id="a_node11"><a xlink:href="classHttpRequest.html#acde519e492e10352bc39d6a3bcd857b2" target="_top" xlink:title=" ">
<polygon fill="white" stroke="black" points="591.5,-605.03 591.5,-624.03 703.5,-624.03 703.5,-605.03 591.5,-605.03"/>
<text text-anchor="middle" x="647.5" y="-612.03" font-family="Helvetica,sans-Serif" font-size="10.00">HttpRequest::getPath</text>
</a>
</g>
</g>
<!-- Node3&#45;&gt;Node11 -->
<g id="edge10" class="edge">
<title>Node3&#45;&gt;Node11</title>
<path fill="none" stroke="midnightblue" d="M492.73,-434.29C504.68,-444.82 522.98,-462.62 534,-481.53 560.74,-527.45 531.27,-559.15 570,-595.53 573.55,-598.87 577.6,-601.65 581.93,-603.96"/>
<polygon fill="midnightblue" stroke="midnightblue" points="580.6,-607.2 591.16,-608.06 583.45,-600.8 580.6,-607.2"/>
</g>
<!-- Node12 -->
<g id="node12" class="node">
<title>Node12</title>
<g id="a_node12"><a xlink:href="classHttpRequest.html#ac2a5d18d42289a03b57215c98d8df41e" target="_top" xlink:title=" ">
<polygon fill="white" stroke="black" points="585,-453.03 585,-472.03 710,-472.03 710,-453.03 585,-453.03"/>
<text text-anchor="middle" x="647.5" y="-460.03" font-family="Helvetica,sans-Serif" font-size="10.00">HttpRequest::getVersion</text>
</a>
</g>
</g>
<!-- Node3&#45;&gt;Node12 -->
<g id="edge11" class="edge">
<title>Node3&#45;&gt;Node12</title>
<path fill="none" stroke="midnightblue" d="M522.76,-434.12C544.7,-439.16 571.78,-445.38 595.01,-450.71"/>
<polygon fill="midnightblue" stroke="midnightblue" points="594.51,-454.19 605.04,-453.01 596.07,-447.36 594.51,-454.19"/>
</g>
<!-- Node13 -->
<g id="node13" class="node">
<title>Node13</title>
<g id="a_node13"><a xlink:href="classHttpResponse.html#acba4d7264c5b05e63a199c87f8526473" target="_top" xlink:title=" ">
<polygon fill="white" stroke="black" points="761,-301.03 761,-320.03 894,-320.03 894,-301.03 761,-301.03"/>
<text text-anchor="middle" x="827.5" y="-308.03" font-family="Helvetica,sans-Serif" font-size="10.00">HttpResponse::hasHeader</text>
</a>
</g>
</g>
<!-- Node3&#45;&gt;Node13 -->
<g id="edge12" class="edge">
<title>Node3&#45;&gt;Node13</title>
<path fill="none" stroke="midnightblue" d="M511.22,-415.03C519.31,-411.44 527.58,-406.68 534,-400.53 559.56,-376.07 540.56,-349.15 570,-329.53 628.77,-290.38 712.82,-292.35 768.49,-299.58"/>
<polygon fill="midnightblue" stroke="midnightblue" points="768.15,-303.07 778.54,-300.98 769.12,-296.13 768.15,-303.07"/>
</g>
<!-- Node14 -->
<g id="node14" class="node">
<title>Node14</title>
<g id="a_node14"><a xlink:href="classHttpResponse.html#a884d07c418ba6145385d63e43bb1b29a" target="_top" xlink:title=" ">
<polygon fill="white" stroke="black" points="586.5,-415.03 586.5,-434.03 708.5,-434.03 708.5,-415.03 586.5,-415.03"/>
<text text-anchor="middle" x="647.5" y="-422.03" font-family="Helvetica,sans-Serif" font-size="10.00">HttpResponse::setBody</text>
</a>
</g>
</g>
<!-- Node3&#45;&gt;Node14 -->
<g id="edge14" class="edge">
<title>Node3&#45;&gt;Node14</title>
<path fill="none" stroke="midnightblue" d="M526.66,-424.53C541.95,-424.53 559.38,-424.53 576.11,-424.53"/>
<polygon fill="midnightblue" stroke="midnightblue" points="576.41,-428.03 586.41,-424.53 576.41,-421.03 576.41,-428.03"/>
</g>
<!-- Node3&#45;&gt;Node15 -->
<g id="edge15" class="edge">
<title>Node3&#45;&gt;Node15</title>
<path fill="none" stroke="midnightblue" d="M514.08,-415.02C521.51,-411.51 528.75,-406.81 534,-400.53 575.79,-350.61 525.26,-305.84 570,-258.53 573.61,-254.71 577.83,-251.5 582.38,-248.79"/>
<polygon fill="midnightblue" stroke="midnightblue" points="584.15,-251.82 591.5,-244.19 581,-245.57 584.15,-251.82"/>
</g>
<!-- Node16 -->
<g id="node16" class="node">
<title>Node16</title>
<g id="a_node16"><a xlink:href="classHttpResponse.html#ac982631ddcf451521e207ac0c2bd0108" target="_top" xlink:title=" ">
<polygon fill="white" stroke="black" points="576,-377.03 576,-396.03 719,-396.03 719,-377.03 576,-377.03"/>
<text text-anchor="middle" x="647.5" y="-384.03" font-family="Helvetica,sans-Serif" font-size="10.00">HttpResponse::setHeadOnly</text>
</a>
</g>
</g>
<!-- Node3&#45;&gt;Node16 -->
<g id="edge19" class="edge">
<title>Node3&#45;&gt;Node16</title>
<path fill="none" stroke="midnightblue" d="M522.76,-414.94C544.7,-409.91 571.78,-403.69 595.01,-398.36"/>
<polygon fill="midnightblue" stroke="midnightblue" points="596.07,-401.7 605.04,-396.05 594.51,-394.88 596.07,-401.7"/>
</g>
<!-- Node17 -->
<g id="node17" class="node">
<title>Node17</title>
<g id="a_node17"><a xlink:href="classHttpResponse.html#a610f8f887ca042f2b18ec395aaccc255" target="_top" xlink:title=" ">
<polygon fill="white" stroke="black" points="572,-54.03 572,-73.03 723,-73.03 723,-54.03 572,-54.03"/>
<text text-anchor="middle" x="647.5" y="-61.03" font-family="Helvetica,sans-Serif" font-size="10.00">HttpResponse::setStatusCode</text>
</a>
</g>
</g>
<!-- Node3&#45;&gt;Node17 -->
<g id="edge20" class="edge">
<title>Node3&#45;&gt;Node17</title>
<path fill="none" stroke="midnightblue" d="M483.58,-414.76C492.75,-380.83 525.55,-265.38 570,-177.53 588.35,-141.27 616.19,-102.74 632.74,-81.05"/>
<polygon fill="midnightblue" stroke="midnightblue" points="635.54,-83.15 638.89,-73.09 630,-78.87 635.54,-83.15"/>
</g>
<!-- Node19 -->
<g id="node19" class="node">
<title>Node19</title>
<g id="a_node19"><a xlink:href="classHttpResponse.html#a407dc1ea3f01365d8105fadc0418bc79" target="_top" xlink:title=" ">
<polygon fill="white" stroke="black" points="581.5,-339.03 581.5,-358.03 713.5,-358.03 713.5,-339.03 581.5,-339.03"/>
<text text-anchor="middle" x="647.5" y="-346.03" font-family="Helvetica,sans-Serif" font-size="10.00">HttpResponse::setVersion</text>
</a>
</g>
</g>
<!-- Node3&#45;&gt;Node19 -->
<g id="edge22" class="edge">
<title>Node3&#45;&gt;Node19</title>
<path fill="none" stroke="midnightblue" d="M506.4,-414.98C515.44,-411.08 525.49,-406.16 534,-400.53 552.11,-388.57 550.88,-377.8 570,-367.53 574.3,-365.23 578.88,-363.2 583.58,-361.41"/>
<polygon fill="midnightblue" stroke="midnightblue" points="585.03,-364.61 593.36,-358.06 582.76,-357.99 585.03,-364.61"/>
</g>
<!-- Node20 -->
<g id="node20" class="node">
<title>Node20</title>
<g id="a_node20"><a xlink:href="ResponseUtils_8cpp.html#af8cce302648449aa6215ac211230ef75" target="_top" xlink:title=" ">
<polygon fill="white" stroke="black" points="605.5,-491.03 605.5,-510.03 689.5,-510.03 689.5,-491.03 605.5,-491.03"/>
<text text-anchor="middle" x="647.5" y="-498.03" font-family="Helvetica,sans-Serif" font-size="10.00">versionToString</text>
</a>
</g>
</g>
<!-- Node3&#45;&gt;Node20 -->
<g id="edge23" class="edge">
<title>Node3&#45;&gt;Node20</title>
<path fill="none" stroke="midnightblue" d="M506.4,-434.09C515.44,-437.99 525.49,-442.91 534,-448.53 552.11,-460.49 550.88,-471.27 570,-481.53 577.88,-485.77 586.73,-489.08 595.54,-491.66"/>
<polygon fill="midnightblue" stroke="midnightblue" points="594.84,-495.1 605.41,-494.28 596.64,-488.33 594.84,-495.1"/>
</g>
<!-- Node5 -->
<g id="node5" class="node">
<title>Node5</title>
<g id="a_node5"><a xlink:href="SessionUtils_8cpp.html#af915f0cd7984e5d06370014bb43c74b6" target="_top" xlink:title=" ">
<polygon fill="white" stroke="black" points="784,-586.03 784,-605.03 871,-605.03 871,-586.03 784,-586.03"/>
<text text-anchor="middle" x="827.5" y="-593.03" font-family="Helvetica,sans-Serif" font-size="10.00">createSessionId</text>
</a>
</g>
</g>
<!-- Node4&#45;&gt;Node5 -->
<g id="edge4" class="edge">
<title>Node4&#45;&gt;Node5</title>
<path fill="none" stroke="midnightblue" d="M716.56,-583.8C735.6,-585.83 755.99,-588.01 773.98,-589.93"/>
<polygon fill="midnightblue" stroke="midnightblue" points="773.67,-593.41 783.99,-591 774.42,-586.45 773.67,-593.41"/>
</g>
<!-- Node6 -->
<g id="node6" class="node">
<title>Node6</title>
<g id="a_node6"><a xlink:href="SessionUtils_8cpp.html#a655520ad6c85707c8e1aae50c1eda6c8" target="_top" xlink:title=" ">
<polygon fill="white" stroke="black" points="773.5,-548.03 773.5,-567.03 881.5,-567.03 881.5,-548.03 773.5,-548.03"/>
<text text-anchor="middle" x="827.5" y="-555.03" font-family="Helvetica,sans-Serif" font-size="10.00">extractIdFromCookie</text>
</a>
</g>
</g>
<!-- Node4&#45;&gt;Node6 -->
<g id="edge5" class="edge">
<title>Node4&#45;&gt;Node6</title>
<path fill="none" stroke="midnightblue" d="M716.56,-569.27C731.87,-567.64 748.05,-565.91 763.16,-564.29"/>
<polygon fill="midnightblue" stroke="midnightblue" points="763.85,-567.74 773.43,-563.2 763.11,-560.78 763.85,-567.74"/>
</g>
<!-- Node7 -->
<g id="node7" class="node">
<title>Node7</title>
<g id="a_node7"><a xlink:href="classHttpRequest.html#ab537cb11b054734695ee4889d88aec6d" target="_top" xlink:title="Obtiene un header específico de la petición.">
<polygon fill="white" stroke="black" points="766,-662.03 766,-681.03 889,-681.03 889,-662.03 766,-662.03"/>
<text text-anchor="middle" x="827.5" y="-669.03" font-family="Helvetica,sans-Serif" font-size="10.00">HttpRequest::getHeader</text>
</a>
</g>
</g>
<!-- Node4&#45;&gt;Node7 -->
<g id="edge6" class="edge">
<title>Node4&#45;&gt;Node7</title>
<path fill="none" stroke="midnightblue" d="M699.29,-586.11C708.08,-588.62 716.96,-591.72 725,-595.53 757.54,-610.98 789.95,-637.73 809.1,-655.02"/>
<polygon fill="midnightblue" stroke="midnightblue" points="806.73,-657.6 816.46,-661.79 811.47,-652.45 806.73,-657.6"/>
</g>
<!-- Node4&#45;&gt;Node8 -->
<g id="edge7" class="edge">
<title>Node4&#45;&gt;Node8</title>
<path fill="none" stroke="midnightblue" d="M705.26,-566.91C712.78,-563.46 719.7,-558.8 725,-552.53 800.61,-463.12 684.43,-380.13 761,-291.53 762.04,-290.33 763.15,-289.2 764.32,-288.14"/>
<polygon fill="midnightblue" stroke="midnightblue" points="766.7,-290.74 772.84,-282.11 762.66,-285.03 766.7,-290.74"/>
</g>
<!-- Node9 -->
<g id="node9" class="node">
<title>Node9</title>
<g id="a_node9"><a xlink:href="namespacehttp__header__utils.html#aa9b0e84aeed4203326a12eecbcd3f9e5" target="_top" xlink:title=" ">
<polygon fill="white" stroke="black" points="930,-257.53 930,-287.53 1027,-287.53 1027,-257.53 930,-257.53"/>
<text text-anchor="start" x="938" y="-275.53" font-family="Helvetica,sans-Serif" font-size="10.00">http_header_utils::</text>
<text text-anchor="middle" x="978.5" y="-264.53" font-family="Helvetica,sans-Serif" font-size="10.00">toLowerCopy</text>
</a>
</g>
</g>
<!-- Node8&#45;&gt;Node9 -->
<g id="edge8" class="edge">
<title>Node8&#45;&gt;Node9</title>
<path fill="none" stroke="midnightblue" d="M893.42,-272.53C902.12,-272.53 910.99,-272.53 919.56,-272.53"/>
<polygon fill="midnightblue" stroke="midnightblue" points="919.82,-276.03 929.82,-272.53 919.82,-269.03 919.82,-276.03"/>
</g>
<!-- Node13&#45;&gt;Node9 -->
<g id="edge13" class="edge">
<title>Node13&#45;&gt;Node9</title>
<path fill="none" stroke="midnightblue" d="M866.1,-300.94C882.39,-296.79 901.84,-291.83 919.89,-287.23"/>
<polygon fill="midnightblue" stroke="midnightblue" points="920.92,-290.58 929.74,-284.71 919.19,-283.79 920.92,-290.58"/>
</g>
<!-- Node15&#45;&gt;Node8 -->
<g id="edge16" class="edge">
<title>Node15&#45;&gt;Node8</title>
<path fill="none" stroke="midnightblue" d="M693.42,-244.12C717.33,-249.23 746.92,-255.55 772.12,-260.93"/>
<polygon fill="midnightblue" stroke="midnightblue" points="771.4,-264.35 781.91,-263.01 772.86,-257.5 771.4,-264.35"/>
</g>
<!-- Node15&#45;&gt;Node9 -->
<g id="edge17" class="edge">
<title>Node15&#45;&gt;Node9</title>
<path fill="none" stroke="midnightblue" d="M725.13,-237.57C773.72,-240.21 837.79,-245.01 894,-253.53 902.35,-254.8 911.1,-256.44 919.66,-258.22"/>
<polygon fill="midnightblue" stroke="midnightblue" points="919.09,-261.68 929.6,-260.37 920.57,-254.84 919.09,-261.68"/>
</g>
<!-- Node18 -->
<g id="node18" class="node">
<title>Node18</title>
<g id="a_node18"><a xlink:href="HttpResponse_8cpp.html#aadc8fd8bbc80a1b3551ea1357e04f07b" target="_top" xlink:title=" ">
<polygon fill="white" stroke="black" points="768,-54.03 768,-73.03 887,-73.03 887,-54.03 768,-54.03"/>
<text text-anchor="middle" x="827.5" y="-61.03" font-family="Helvetica,sans-Serif" font-size="10.00">reasonPhraseForStatus</text>
</a>
</g>
</g>
<!-- Node17&#45;&gt;Node18 -->
<g id="edge21" class="edge">
<title>Node17&#45;&gt;Node18</title>
<path fill="none" stroke="midnightblue" d="M723.21,-63.53C734.65,-63.53 746.41,-63.53 757.71,-63.53"/>
<polygon fill="midnightblue" stroke="midnightblue" points="757.94,-67.03 767.94,-63.53 757.94,-60.03 757.94,-67.03"/>
</g>
<!-- Node25&#45;&gt;Node2 -->
<g id="edge32" class="edge">
<title>Node25&#45;&gt;Node2</title>
<path fill="none" stroke="midnightblue" d="M181.28,-452.85C203.4,-415.81 282.88,-282.71 312.11,-233.76"/>
<polygon fill="midnightblue" stroke="midnightblue" points="315.14,-235.53 317.26,-225.15 309.13,-231.94 315.14,-235.53"/>
</g>
<!-- Node25&#45;&gt;Node3 -->
<g id="edge33" class="edge">
<title>Node25&#45;&gt;Node3</title>
<path fill="none" stroke="midnightblue" d="M217.39,-454.92C230.38,-452.7 244.76,-450.37 258,-448.53 314.03,-440.74 378.35,-434.01 423.1,-429.67"/>
<polygon fill="midnightblue" stroke="midnightblue" points="423.57,-433.14 433.19,-428.7 422.9,-426.17 423.57,-433.14"/>
</g>
<!-- Node25&#45;&gt;Node8 -->
<g id="edge45" class="edge">
<title>Node25&#45;&gt;Node8</title>
<path fill="none" stroke="midnightblue" d="M217.15,-460.93C299.24,-458.37 478.76,-456.02 534,-481.53 555.12,-491.29 548.63,-510.34 570,-519.53 633.28,-546.75 672.63,-564.29 725,-519.53 802.99,-452.89 693.16,-368.49 761,-291.53 762.05,-290.34 763.17,-289.22 764.36,-288.17"/>
<polygon fill="midnightblue" stroke="midnightblue" points="766.73,-290.78 772.92,-282.17 762.72,-285.04 766.73,-290.78"/>
</g>
<!-- Node25&#45;&gt;Node11 -->
<g id="edge39" class="edge">
<title>Node25&#45;&gt;Node11</title>
<path fill="none" stroke="midnightblue" d="M211.96,-472.1C215.48,-473.67 218.89,-475.47 222,-477.53 242.47,-491.15 236.42,-507.76 258,-519.53 366.7,-578.84 423.86,-500.95 534,-557.53 554.69,-568.17 549.9,-583.81 570,-595.53 573.72,-597.71 577.69,-599.63 581.78,-601.34"/>
<polygon fill="midnightblue" stroke="midnightblue" points="580.91,-604.75 591.5,-604.93 583.34,-598.18 580.91,-604.75"/>
</g>
<!-- Node25&#45;&gt;Node15 -->
<g id="edge44" class="edge">
<title>Node25&#45;&gt;Node15</title>
<path fill="none" stroke="midnightblue" d="M198.5,-453.03C277.12,-420.5 530.57,-315.54 534,-312.53 557.94,-291.51 544.17,-269.19 570,-250.53 570.64,-250.07 571.29,-249.62 571.95,-249.19"/>
<polygon fill="midnightblue" stroke="midnightblue" points="573.94,-252.08 581,-244.18 570.55,-245.96 573.94,-252.08"/>
</g>
<!-- Node25&#45;&gt;Node24 -->
<g id="edge40" class="edge">
<title>Node25&#45;&gt;Node24</title>
<path fill="none" stroke="midnightblue" d="M179.72,-472.19C196.05,-509.5 254.38,-642.39 258,-645.53 264.37,-651.07 272.28,-655 280.37,-657.78"/>
<polygon fill="midnightblue" stroke="midnightblue" points="279.64,-661.22 290.22,-660.64 281.59,-654.5 279.64,-661.22"/>
</g>
<!-- Node26 -->
<g id="node26" class="node">
<title>Node26</title>
<g id="a_node26"><a xlink:href="StaticPathHandler_8cpp.html#a589342f2be05d4e167d20adbe97a854a" target="_top" xlink:title=" ">
<polygon fill="white" stroke="black" points="263.5,-567.03 263.5,-586.03 384.5,-586.03 384.5,-567.03 263.5,-567.03"/>
<text text-anchor="middle" x="324" y="-574.03" font-family="Helvetica,sans-Serif" font-size="10.00">generateAutoIndexBody</text>
</a>
</g>
</g>
<!-- Node25&#45;&gt;Node26 -->
<g id="edge34" class="edge">
<title>Node25&#45;&gt;Node26</title>
<path fill="none" stroke="midnightblue" d="M181.86,-472.06C194.39,-490.16 224.04,-529.73 258,-552.53 264.18,-556.68 271.17,-560.23 278.22,-563.22"/>
<polygon fill="midnightblue" stroke="midnightblue" points="277.2,-566.58 287.79,-566.96 279.75,-560.06 277.2,-566.58"/>
</g>
<!-- Node30 -->
<g id="node30" class="node">
<title>Node30</title>
<g id="a_node30"><a xlink:href="RequestProcessorUtils_8cpp.html#abbce21d5a1ae8f1312eb20150f77e88d" target="_top" xlink:title=" ">
<polygon fill="white" stroke="black" points="266,-491.03 266,-510.03 382,-510.03 382,-491.03 266,-491.03"/>
<text text-anchor="middle" x="324" y="-498.03" font-family="Helvetica,sans-Serif" font-size="10.00">isCgiRequestByConfig</text>
</a>
</g>
</g>
<!-- Node25&#45;&gt;Node30 -->
<g id="edge41" class="edge">
<title>Node25&#45;&gt;Node30</title>
<path fill="none" stroke="midnightblue" d="M212.72,-472.12C232.01,-477.09 255.76,-483.21 276.27,-488.5"/>
<polygon fill="midnightblue" stroke="midnightblue" points="275.49,-491.91 286.05,-491.01 277.24,-485.13 275.49,-491.91"/>
</g>
<!-- Node32 -->
<g id="node32" class="node">
<title>Node32</title>
<g id="a_node32"><a xlink:href="StaticPathHandler_8cpp.html#aa759f2b84e51d20fdf7801c0514c3635" target="_top" xlink:title=" ">
<polygon fill="white" stroke="black" points="282,-339.03 282,-358.03 366,-358.03 366,-339.03 282,-339.03"/>
<text text-anchor="middle" x="324" y="-346.03" font-family="Helvetica,sans-Serif" font-size="10.00">readFileToBody</text>
</a>
</g>
</g>
<!-- Node25&#45;&gt;Node32 -->
<g id="edge43" class="edge">
<title>Node25&#45;&gt;Node32</title>
<path fill="none" stroke="midnightblue" d="M181.86,-453.01C194.39,-434.91 224.04,-395.34 258,-372.53 264.18,-368.38 271.17,-364.84 278.22,-361.85"/>
<polygon fill="midnightblue" stroke="midnightblue" points="279.75,-365.01 287.79,-358.11 277.2,-358.49 279.75,-365.01"/>
</g>
<!-- Node33 -->
<g id="node33" class="node">
<title>Node33</title>
<g id="a_node33"><a xlink:href="classHttpRequest.html#ab5fb89c5ad17f9433e6798477fd4d8e8" target="_top" xlink:title="Verifica si se debe cerrar la conexión con el cliente después de enviar la respuesta.">
<polygon fill="white" stroke="black" points="258,-605.53 258,-635.53 390,-635.53 390,-605.53 258,-605.53"/>
<text text-anchor="start" x="266" y="-623.53" font-family="Helvetica,sans-Serif" font-size="10.00">HttpRequest::shouldClose</text>
<text text-anchor="middle" x="324" y="-612.53" font-family="Helvetica,sans-Serif" font-size="10.00">Connection</text>
</a>
</g>
</g>
<!-- Node25&#45;&gt;Node33 -->
<g id="edge46" class="edge">
<title>Node25&#45;&gt;Node33</title>
<path fill="none" stroke="midnightblue" d="M178.91,-472.04C188,-496.1 215.09,-560.02 258,-595.53 260.04,-597.22 262.2,-598.8 264.46,-600.28"/>
<polygon fill="midnightblue" stroke="midnightblue" points="263.11,-603.54 273.52,-605.51 266.6,-597.48 263.11,-603.54"/>
</g>
<!-- Node27 -->
<g id="node27" class="node">
<title>Node27</title>
<g id="a_node27"><a xlink:href="AutoindexRenderer_8cpp.html#aa6603dacef27e71df8be0deb73b1d4be" target="_top" xlink:title=" ">
<polygon fill="white" stroke="black" points="613,-643.03 613,-662.03 682,-662.03 682,-643.03 613,-643.03"/>
<text text-anchor="middle" x="647.5" y="-650.03" font-family="Helvetica,sans-Serif" font-size="10.00">escapeHtml</text>
</a>
</g>
</g>
<!-- Node26&#45;&gt;Node27 -->
<g id="edge35" class="edge">
<title>Node26&#45;&gt;Node27</title>
<path fill="none" stroke="midnightblue" d="M366.91,-586.04C374.89,-588.77 382.95,-592.22 390,-596.53 409.57,-608.5 405.27,-623.71 426,-633.53 482.65,-660.38 556.66,-660.72 602.89,-657.44"/>
<polygon fill="midnightblue" stroke="midnightblue" points="603.19,-660.93 612.88,-656.65 602.63,-653.95 603.19,-660.93"/>
</g>
<!-- Node28 -->
<g id="node28" class="node">
<title>Node28</title>
<g id="a_node28"><a xlink:href="StaticPathHandler_8cpp.html#a1d8627a665c990aee828a589a96e15ae" target="_top" xlink:title=" ">
<polygon fill="white" stroke="black" points="432.5,-567.03 432.5,-586.03 527.5,-586.03 527.5,-567.03 432.5,-567.03"/>
<text text-anchor="middle" x="480" y="-574.03" font-family="Helvetica,sans-Serif" font-size="10.00">isImageExtension</text>
</a>
</g>
</g>
<!-- Node26&#45;&gt;Node28 -->
<g id="edge36" class="edge">
<title>Node26&#45;&gt;Node28</title>
<path fill="none" stroke="midnightblue" d="M384.54,-576.53C396.84,-576.53 409.77,-576.53 421.97,-576.53"/>
<polygon fill="midnightblue" stroke="midnightblue" points="422.03,-580.03 432.03,-576.53 422.03,-573.03 422.03,-580.03"/>
</g>
<!-- Node29 -->
<g id="node29" class="node">
<title>Node29</title>
<g id="a_node29"><a xlink:href="AutoindexRenderer_8cpp.html#a4cca9fd6a02bdef382cf07d24173b148" target="_top" xlink:title=" ">
<polygon fill="white" stroke="black" points="426,-605.03 426,-624.03 534,-624.03 534,-605.03 426,-605.03"/>
<text text-anchor="middle" x="480" y="-612.03" font-family="Helvetica,sans-Serif" font-size="10.00">renderAutoindexHtml</text>
</a>
</g>
</g>
<!-- Node26&#45;&gt;Node29 -->
<g id="edge37" class="edge">
<title>Node26&#45;&gt;Node29</title>
<path fill="none" stroke="midnightblue" d="M363.86,-586.12C384.09,-591.11 409.02,-597.27 430.5,-602.57"/>
<polygon fill="midnightblue" stroke="midnightblue" points="429.87,-606.02 440.42,-605.01 431.55,-599.22 429.87,-606.02"/>
</g>
<!-- Node29&#45;&gt;Node27 -->
<g id="edge38" class="edge">
<title>Node29&#45;&gt;Node27</title>
<path fill="none" stroke="midnightblue" d="M522.76,-624.12C547.25,-629.75 578.15,-636.84 602.95,-642.53"/>
<polygon fill="midnightblue" stroke="midnightblue" points="602.29,-645.97 612.82,-644.8 603.85,-639.15 602.29,-645.97"/>
</g>
<!-- Node31 -->
<g id="node31" class="node">
<title>Node31</title>
<g id="a_node31"><a xlink:href="RequestProcessorUtils_8cpp.html#a8f33134a30552f25490513db7c499318" target="_top" xlink:title=" ">
<polygon fill="white" stroke="black" points="435.5,-491.03 435.5,-510.03 524.5,-510.03 524.5,-491.03 435.5,-491.03"/>
<text text-anchor="middle" x="480" y="-498.03" font-family="Helvetica,sans-Serif" font-size="10.00">getFileExtension</text>
</a>
</g>
</g>
<!-- Node30&#45;&gt;Node31 -->
<g id="edge42" class="edge">
<title>Node30&#45;&gt;Node31</title>
<path fill="none" stroke="midnightblue" d="M382.34,-500.53C396.25,-500.53 411.06,-500.53 424.81,-500.53"/>
<polygon fill="midnightblue" stroke="midnightblue" points="425.09,-504.03 435.09,-500.53 425.09,-497.03 425.09,-504.03"/>
</g>
<!-- Node33&#45;&gt;Node7 -->
<g id="edge47" class="edge">
<title>Node33&#45;&gt;Node7</title>
<path fill="none" stroke="midnightblue" d="M364.19,-635.58C372.7,-638.86 381.66,-642.31 390,-645.53 406.01,-651.73 409.27,-655.67 426,-659.53 539.1,-685.66 674.91,-682.83 755.78,-677.68"/>
<polygon fill="midnightblue" stroke="midnightblue" points="756.1,-681.17 765.85,-677.01 755.64,-674.19 756.1,-681.17"/>
</g>
<!-- Node34&#45;&gt;Node2 -->
<g id="edge49" class="edge">
<title>Node34&#45;&gt;Node2</title>
<path fill="none" stroke="midnightblue" d="M200.19,-262.99C224.44,-253.62 261.64,-239.25 288.74,-228.77"/>
<polygon fill="midnightblue" stroke="midnightblue" points="290.17,-231.97 298.23,-225.11 287.64,-225.45 290.17,-231.97"/>
</g>
<!-- Node34&#45;&gt;Node10 -->
<g id="edge50" class="edge">
<title>Node34&#45;&gt;Node10</title>
<path fill="none" stroke="midnightblue" d="M222.38,-264.97C305.76,-251.52 480.16,-223.37 577.34,-207.69"/>
<polygon fill="midnightblue" stroke="midnightblue" points="578.05,-211.12 587.36,-206.08 576.93,-204.21 578.05,-211.12"/>
</g>
<!-- Node34&#45;&gt;Node15 -->
<g id="edge52" class="edge">
<title>Node34&#45;&gt;Node15</title>
<path fill="none" stroke="midnightblue" d="M206.27,-282.04C270.22,-300.06 420.92,-333.37 534,-286.53 554.91,-277.87 550.1,-261.3 570,-250.53 571.75,-249.59 573.54,-248.7 575.38,-247.87"/>
<polygon fill="midnightblue" stroke="midnightblue" points="576.82,-251.06 584.82,-244.11 574.23,-244.55 576.82,-251.06"/>
</g>
<!-- Node34&#45;&gt;Node32 -->
<g id="edge51" class="edge">
<title>Node34&#45;&gt;Node32</title>
<path fill="none" stroke="midnightblue" d="M188.72,-282.09C204.6,-293.27 232.34,-311.88 258,-324.53 266.07,-328.51 274.98,-332.22 283.55,-335.47"/>
<polygon fill="midnightblue" stroke="midnightblue" points="282.41,-338.78 293.01,-338.93 284.82,-332.21 282.41,-338.78"/>
</g>
<!-- Node35&#45;&gt;Node2 -->
<g id="edge54" class="edge">
<title>Node35&#45;&gt;Node2</title>
<path fill="none" stroke="midnightblue" d="M183.02,-35.22C206.49,-65.45 278.64,-158.4 309.15,-197.7"/>
<polygon fill="midnightblue" stroke="midnightblue" points="306.42,-199.89 315.32,-205.64 311.95,-195.6 306.42,-199.89"/>
</g>
<!-- Node35&#45;&gt;Node17 -->
<g id="edge56" class="edge">
<title>Node35&#45;&gt;Node17</title>
<path fill="none" stroke="midnightblue" d="M208.92,-16.03C223.81,-12.26 241.64,-8.39 258,-6.53 380.34,7.37 413.98,-3.03 534,-30.53 558.83,-36.22 586.28,-44.24 607.85,-50.95"/>
<polygon fill="midnightblue" stroke="midnightblue" points="607.03,-54.36 617.62,-54.02 609.13,-47.68 607.03,-54.36"/>
</g>
<!-- Node36 -->
<g id="node36" class="node">
<title>Node36</title>
<g id="a_node36"><a xlink:href="classHttpRequest.html#aa727937b993d7df56a9d99b37d6be672" target="_top" xlink:title=" ">
<polygon fill="white" stroke="black" points="267,-16.03 267,-35.03 381,-35.03 381,-16.03 267,-16.03"/>
<text text-anchor="middle" x="324" y="-23.03" font-family="Helvetica,sans-Serif" font-size="10.00">HttpRequest::getBody</text>
</a>
</g>
</g>
<!-- Node35&#45;&gt;Node36 -->
<g id="edge55" class="edge">
<title>Node35&#45;&gt;Node36</title>
<path fill="none" stroke="midnightblue" d="M212.72,-25.53C226.03,-25.53 241.47,-25.53 256.5,-25.53"/>
<polygon fill="midnightblue" stroke="midnightblue" points="256.82,-29.03 266.82,-25.53 256.82,-22.03 256.82,-29.03"/>
</g>
</g>
</svg>
        <g id="navigator" transform="translate(0 0)" fill="#404254">
                <rect fill="#f2f5e9" fill-opacity="0.5" stroke="#606060" stroke-width=".5" x="0" y="0" width="60" height="60"/>
                <use id="zoomplus" xlink:href="#zoomPlus" x="17" y="9" onmousedown="handleZoom(evt,'in')"/>
                <use id="zoomminus" xlink:href="#zoomMin" x="42" y="9" onmousedown="handleZoom(evt,'out')"/>
                <use id="reset" xlink:href="#resetDef" x="30" y="36" onmousedown="handleReset()"/>
                <g id="arrowUp" xlink:href="#dirArrow" transform="translate(30 24)" onmousedown="handlePan(0,-1)">
                  <use xlink:href="#rim" fill="#404040">
                        <set attributeName="fill" to="#808080" begin="arrowUp.mouseover" end="arrowUp.mouseout"/>
                  </use>
                  <path fill="none" stroke="white" stroke-width="1.5" d="M0,-3.0v7 M-2.5,-0.5L0,-3.0L2.5,-0.5"/>
                </g>
                <g id="arrowRight" xlink:href="#dirArrow" transform="rotate(90) translate(36 -43)" onmousedown="handlePan(1,0)">
                  <use xlink:href="#rim" fill="#404040">
                        <set attributeName="fill" to="#808080" begin="arrowRight.mouseover" end="arrowRight.mouseout"/>
                  </use>
                  <path fill="none" stroke="white" stroke-width="1.5" d="M0,-3.0v7 M-2.5,-0.5L0,-3.0L2.5,-0.5"/>
                </g>
                <g id="arrowDown" xlink:href="#dirArrow" transform="rotate(180) translate(-30 -48)" onmousedown="handlePan(0,1)">
                  <use xlink:href="#rim" fill="#404040">
                        <set attributeName="fill" to="#808080" begin="arrowDown.mouseover" end="arrowDown.mouseout"/>
                  </use>
                  <path fill="none" stroke="white" stroke-width="1.5" d="M0,-3.0v7 M-2.5,-0.5L0,-3.0L2.5,-0.5"/>
                </g>
                <g id="arrowLeft" xlink:href="#dirArrow" transform="rotate(270) translate(-36 17)" onmousedown="handlePan(-1,0)">
                  <use xlink:href="#rim" fill="#404040">
                        <set attributeName="fill" to="#808080" begin="arrowLeft.mouseover" end="arrowLeft.mouseout"/>
                  </use>
                  <path fill="none" stroke="white" stroke-width="1.5" d="M0,-3.0v7 M-2.5,-0.5L0,-3.0L2.5,-0.5"/>
                </g>
        </g>
        <svg viewBox="0 0 15 15" width="100%" height="30px" preserveAspectRatio="xMaxYMin meet">
         <g id="arrow_out" transform="scale(0.3 0.3)">
          <a xlink:href="StaticPathHandler_8hpp_a4e092999675b45373270f5408cbe64c7_cgraph_org.svg" target="_base">
           <rect id="button" ry="5" rx="5" y="6" x="6" height="38" width="38"
                fill="#f2f5e9" fill-opacity="0.5" stroke="#606060" stroke-width="1.0"/>
           <path id="arrow"
             d="M 11.500037,31.436501 C 11.940474,20.09759 22.043105,11.32322 32.158766,21.979434 L 37.068811,17.246167 C 37.068811,17.246167 37.088388,32 37.088388,32 L 22.160133,31.978069 C 22.160133,31.978069 26.997745,27.140456 26.997745,27.140456 C 18.528582,18.264221 13.291696,25.230495 11.500037,31.436501 z"
             style="fill:#404040;"/>
          </a>
         </g>
        </svg>
</svg>
