<?xml version="1.0" encoding="UTF-8" standalone="no"?>
<!DOCTYPE svg PUBLIC "-//W3C//DTD SVG 1.1//EN"
 "http://www.w3.org/Graphics/SVG/1.1/DTD/svg11.dtd">
<!-- Generated by graphviz version 2.43.0 (0)
 -->
<!-- Title: handleDirectory Pages: 1 -->
<!--zoomable 814 -->
<svg id="main" version="1.1" xmlns="http://www.w3.org/2000/svg" xmlns:xlink="http://www.w3.org/1999/xlink" xml:space="preserve" onload="init(evt)">
<style type="text/css"><![CDATA[
.edge:hover path { stroke: red; }
.edge:hover polygon { stroke: red; fill: red; }
]]></style>
<script type="text/javascript"><![CDATA[
var edges = document.getElementsByTagName('g');
if (edges && edges.length) {
  for (var i=0;i<edges.length;i++) {
    if (edges[i].id.substr(0,4)=='edge') {
      edges[i].setAttribute('class','edge');
    }
  }
}
]]></script>
        <defs>
                <circle id="rim" cx="0" cy="0" r="7"/>
                <circle id="rim2" cx="0" cy="0" r="3.5"/>
                <g id="zoomPlus">
                        <use xlink:href="#rim" fill="#404040">
                                <set attributeName="fill" to="#808080" begin="zoomplus.mouseover" end="zoomplus.mouseout"/>
                        </use>
                        <path d="M-4,0h8M0,-4v8" fill="none" stroke="white" stroke-width="1.5" pointer-events="none"/>
                </g>
                <g id="zoomMin">
                        <use xlink:href="#rim" fill="#404040">
                                <set attributeName="fill" to="#808080" begin="zoomminus.mouseover" end="zoomminus.mouseout"/>
                        </use>
                        <path d="M-4,0h8" fill="none" stroke="white" stroke-width="1.5" pointer-events="none"/>
                </g>
                <g id="dirArrow">
                        <path fill="none" stroke="white" stroke-width="1.5" d="M0,-3.0v7 M-2.5,-0.5L0,-3.0L2.5,-0.5"/>
                </g>
               <g id="resetDef">
                       <use xlink:href="#rim2" fill="#404040">
                               <set attributeName="fill" to="#808080" begin="reset.mouseover" end="reset.mouseout"/>
                       </use>
               </g>
        </defs>

<script type="text/javascript">
var viewWidth = 898;
var viewHeight = 814;
var sectionId = 'dynsection-4';
</script>
<script xlink:href="svgpan.js"/>
<svg id="graph" class="graph">
<g id="viewport">
<title>handleDirectory</title>
<polygon fill="white" stroke="transparent" points="-4,4 -4,-810.24 894,-810.24 894,4 -4,4"/>
<!-- Node1 -->
<g id="node1" class="node">
<title>Node1</title>
<g id="a_node1"><a xlink:title=" ">
<polygon fill="#bfbfbf" stroke="black" points="0,-193.5 0,-212.5 85,-212.5 85,-193.5 0,-193.5"/>
<text text-anchor="middle" x="42.5" y="-200.5" font-family="Helvetica,sans-Serif" font-size="10.00">handleDirectory</text>
</a>
</g>
</g>
<!-- Node2 -->
<g id="node2" class="node">
<title>Node2</title>
<g id="a_node2"><a xlink:href="ErrorUtils_8cpp.html#a470416220aa911b8f1274140a8322e7a" target="_top" xlink:title=" ">
<polygon fill="white" stroke="black" points="136,-646.5 136,-665.5 238,-665.5 238,-646.5 136,-646.5"/>
<text text-anchor="middle" x="187" y="-653.5" font-family="Helvetica,sans-Serif" font-size="10.00">buildErrorResponse</text>
</a>
</g>
</g>
<!-- Node1&#45;&gt;Node2 -->
<g id="edge1" class="edge">
<title>Node1&#45;&gt;Node2</title>
<path fill="none" stroke="midnightblue" d="M46.61,-212.88C64.57,-269.98 155.12,-557.84 179.79,-636.25"/>
<polygon fill="midnightblue" stroke="midnightblue" points="176.59,-637.76 182.93,-646.25 183.27,-635.66 176.59,-637.76"/>
</g>
<!-- Node3 -->
<g id="node3" class="node">
<title>Node3</title>
<g id="a_node3"><a xlink:href="ResponseUtils_8cpp.html#ab7c2cb6fbf297c09ec402182b04584c6" target="_top" xlink:title=" ">
<polygon fill="white" stroke="black" points="296.5,-437.5 296.5,-456.5 389.5,-456.5 389.5,-437.5 296.5,-437.5"/>
<text text-anchor="middle" x="343" y="-444.5" font-family="Helvetica,sans-Serif" font-size="10.00">fillBaseResponse</text>
</a>
</g>
</g>
<!-- Node1&#45;&gt;Node3 -->
<g id="edge29" class="edge">
<title>Node1&#45;&gt;Node3</title>
<path fill="none" stroke="midnightblue" d="M50.79,-212.52C63.85,-229.23 92.52,-264.49 121,-290 186.84,-348.97 275.01,-405.91 317.32,-432.06"/>
<polygon fill="midnightblue" stroke="midnightblue" points="315.75,-435.21 326.1,-437.46 319.41,-429.24 315.75,-435.21"/>
</g>
<!-- Node8 -->
<g id="node8" class="node">
<title>Node8</title>
<g id="a_node8"><a xlink:href="classHttpResponse.html#a7efa3ab17ead358609d80b55db164867" target="_top" xlink:title=" ">
<polygon fill="white" stroke="black" points="625,-494.5 625,-513.5 756,-513.5 756,-494.5 625,-494.5"/>
<text text-anchor="middle" x="690.5" y="-501.5" font-family="Helvetica,sans-Serif" font-size="10.00">HttpResponse::setHeader</text>
</a>
</g>
</g>
<!-- Node1&#45;&gt;Node8 -->
<g id="edge41" class="edge">
<title>Node1&#45;&gt;Node8</title>
<path fill="none" stroke="midnightblue" d="M84.84,-212.52C96.5,-215.09 109.23,-217.77 121,-220 172.63,-229.8 545.81,-263.66 588,-295 621.04,-319.55 665.92,-437.8 682.75,-484.74"/>
<polygon fill="midnightblue" stroke="midnightblue" points="679.51,-486.08 686.16,-494.33 686.11,-483.74 679.51,-486.08"/>
</g>
<!-- Node11 -->
<g id="node11" class="node">
<title>Node11</title>
<g id="a_node11"><a xlink:href="classHttpRequest.html#acde519e492e10352bc39d6a3bcd857b2" target="_top" xlink:title=" ">
<polygon fill="white" stroke="black" points="454.5,-190.5 454.5,-209.5 566.5,-209.5 566.5,-190.5 454.5,-190.5"/>
<text text-anchor="middle" x="510.5" y="-197.5" font-family="Helvetica,sans-Serif" font-size="10.00">HttpRequest::getPath</text>
</a>
</g>
</g>
<!-- Node1&#45;&gt;Node11 -->
<g id="edge35" class="edge">
<title>Node1&#45;&gt;Node11</title>
<path fill="none" stroke="midnightblue" d="M85.32,-204.92C96.88,-205.36 109.42,-205.78 121,-206 234.76,-208.2 367.27,-204.9 444.44,-202.39"/>
<polygon fill="midnightblue" stroke="midnightblue" points="444.61,-205.88 454.49,-202.05 444.38,-198.89 444.61,-205.88"/>
</g>
<!-- Node15 -->
<g id="node15" class="node">
<title>Node15</title>
<g id="a_node15"><a xlink:href="classHttpResponse.html#a11a67ba43096f5eb1870e65f1814d364" target="_top" xlink:title=" ">
<polygon fill="white" stroke="black" points="433,-684.5 433,-703.5 588,-703.5 588,-684.5 433,-684.5"/>
<text text-anchor="middle" x="510.5" y="-691.5" font-family="Helvetica,sans-Serif" font-size="10.00">HttpResponse::setContentType</text>
</a>
</g>
</g>
<!-- Node1&#45;&gt;Node15 -->
<g id="edge40" class="edge">
<title>Node1&#45;&gt;Node15</title>
<path fill="none" stroke="midnightblue" d="M44.05,-212.53C47.62,-272.13 69.13,-593.83 121,-675 192.47,-786.83 272.36,-834.59 397,-789 439.15,-773.58 476.4,-734.63 495.65,-711.67"/>
<polygon fill="midnightblue" stroke="midnightblue" points="498.51,-713.7 502.11,-703.74 493.08,-709.28 498.51,-713.7"/>
</g>
<!-- Node24 -->
<g id="node24" class="node">
<title>Node24</title>
<g id="a_node24"><a xlink:href="StaticPathHandler_8cpp.html#a589342f2be05d4e167d20adbe97a854a" target="_top" xlink:title=" ">
<polygon fill="white" stroke="black" points="126.5,-89.5 126.5,-108.5 247.5,-108.5 247.5,-89.5 126.5,-89.5"/>
<text text-anchor="middle" x="187" y="-96.5" font-family="Helvetica,sans-Serif" font-size="10.00">generateAutoIndexBody</text>
</a>
</g>
</g>
<!-- Node1&#45;&gt;Node24 -->
<g id="edge30" class="edge">
<title>Node1&#45;&gt;Node24</title>
<path fill="none" stroke="midnightblue" d="M49.69,-193.25C61.43,-175.57 88.64,-138.19 121,-118 124.38,-115.89 128.01,-114 131.75,-112.32"/>
<polygon fill="midnightblue" stroke="midnightblue" points="133.25,-115.5 141.24,-108.55 130.66,-108.99 133.25,-115.5"/>
</g>
<!-- Node28 -->
<g id="node28" class="node">
<title>Node28</title>
<g id="a_node28"><a xlink:href="StaticPathHandler_8cpp.html#af1a594e40c7c8ca6395d038d2d9d954d" target="_top" xlink:title=" ">
<polygon fill="white" stroke="black" points="153.5,-127.5 153.5,-146.5 220.5,-146.5 220.5,-127.5 153.5,-127.5"/>
<text text-anchor="middle" x="187" y="-134.5" font-family="Helvetica,sans-Serif" font-size="10.00">getPathInfo</text>
</a>
</g>
</g>
<!-- Node1&#45;&gt;Node28 -->
<g id="edge36" class="edge">
<title>Node1&#45;&gt;Node28</title>
<path fill="none" stroke="midnightblue" d="M57.24,-193.47C72.33,-183.35 97.54,-167.39 121,-157 128.21,-153.81 136.08,-150.92 143.78,-148.39"/>
<polygon fill="midnightblue" stroke="midnightblue" points="144.88,-151.71 153.38,-145.39 142.79,-145.03 144.88,-151.71"/>
</g>
<!-- Node29 -->
<g id="node29" class="node">
<title>Node29</title>
<g id="a_node29"><a xlink:href="RequestProcessorUtils_8cpp.html#abbce21d5a1ae8f1312eb20150f77e88d" target="_top" xlink:title=" ">
<polygon fill="white" stroke="black" points="129,-13.5 129,-32.5 245,-32.5 245,-13.5 129,-13.5"/>
<text text-anchor="middle" x="187" y="-20.5" font-family="Helvetica,sans-Serif" font-size="10.00">isCgiRequestByConfig</text>
</a>
</g>
</g>
<!-- Node1&#45;&gt;Node29 -->
<g id="edge37" class="edge">
<title>Node1&#45;&gt;Node29</title>
<path fill="none" stroke="midnightblue" d="M45.29,-193.35C50.99,-165.48 71.31,-84.13 121,-42 123,-40.3 125.15,-38.76 127.4,-37.35"/>
<polygon fill="midnightblue" stroke="midnightblue" points="129.27,-40.32 136.51,-32.58 126.03,-34.12 129.27,-40.32"/>
</g>
<!-- Node31 -->
<g id="node31" class="node">
<title>Node31</title>
<g id="a_node31"><a xlink:href="StaticPathHandler_8cpp.html#aa759f2b84e51d20fdf7801c0514c3635" target="_top" xlink:title=" ">
<polygon fill="white" stroke="black" points="145,-51.5 145,-70.5 229,-70.5 229,-51.5 145,-51.5"/>
<text text-anchor="middle" x="187" y="-58.5" font-family="Helvetica,sans-Serif" font-size="10.00">readFileToBody</text>
</a>
</g>
</g>
<!-- Node1&#45;&gt;Node31 -->
<g id="edge39" class="edge">
<title>Node1&#45;&gt;Node31</title>
<path fill="none" stroke="midnightblue" d="M46.83,-193.34C55.33,-170.12 80.1,-110.86 121,-80 125.23,-76.81 129.99,-74.15 134.96,-71.94"/>
<polygon fill="midnightblue" stroke="midnightblue" points="136.6,-75.06 144.68,-68.21 134.09,-68.52 136.6,-75.06"/>
</g>
<!-- Node32 -->
<g id="node32" class="node">
<title>Node32</title>
<g id="a_node32"><a xlink:href="classHttpRequest.html#ab5fb89c5ad17f9433e6798477fd4d8e8" target="_top" xlink:title="Verifica si se debe cerrar la conexión con el cliente después de enviar la respuesta.">
<polygon fill="white" stroke="black" points="121,-166 121,-196 253,-196 253,-166 121,-166"/>
<text text-anchor="start" x="129" y="-184" font-family="Helvetica,sans-Serif" font-size="10.00">HttpRequest::shouldClose</text>
<text text-anchor="middle" x="187" y="-173" font-family="Helvetica,sans-Serif" font-size="10.00">Connection</text>
</a>
</g>
</g>
<!-- Node1&#45;&gt;Node32 -->
<g id="edge42" class="edge">
<title>Node1&#45;&gt;Node32</title>
<path fill="none" stroke="midnightblue" d="M85.1,-196.58C93.22,-195.32 101.96,-193.97 110.78,-192.61"/>
<polygon fill="midnightblue" stroke="midnightblue" points="111.4,-196.06 120.75,-191.07 110.33,-189.14 111.4,-196.06"/>
</g>
<!-- Node2&#45;&gt;Node3 -->
<g id="edge2" class="edge">
<title>Node2&#45;&gt;Node3</title>
<path fill="none" stroke="midnightblue" d="M195.02,-646.48C218.92,-614.04 297.41,-507.52 328.83,-464.88"/>
<polygon fill="midnightblue" stroke="midnightblue" points="331.83,-466.71 334.94,-456.58 326.19,-462.55 331.83,-466.71"/>
</g>
<!-- Node2&#45;&gt;Node8 -->
<g id="edge27" class="edge">
<title>Node2&#45;&gt;Node8</title>
<path fill="none" stroke="midnightblue" d="M238.2,-659.01C317.2,-661.6 473.34,-657.87 588,-599 624.99,-580.01 658.16,-543.56 675.9,-521.75"/>
<polygon fill="midnightblue" stroke="midnightblue" points="678.85,-523.66 682.32,-513.65 673.37,-519.31 678.85,-523.66"/>
</g>
<!-- Node2&#45;&gt;Node15 -->
<g id="edge26" class="edge">
<title>Node2&#45;&gt;Node15</title>
<path fill="none" stroke="midnightblue" d="M238.05,-663.23C254.29,-665.5 272.4,-667.95 289,-670 333.04,-675.45 382.11,-680.85 422.76,-685.15"/>
<polygon fill="midnightblue" stroke="midnightblue" points="422.59,-688.65 432.9,-686.22 423.32,-681.69 422.59,-688.65"/>
</g>
<!-- Node21 -->
<g id="node21" class="node">
<title>Node21</title>
<g id="a_node21"><a xlink:href="ErrorUtils_8cpp.html#aa759f2b84e51d20fdf7801c0514c3635" target="_top" xlink:title=" ">
<polygon fill="white" stroke="black" points="301,-608.5 301,-627.5 385,-627.5 385,-608.5 301,-608.5"/>
<text text-anchor="middle" x="343" y="-615.5" font-family="Helvetica,sans-Serif" font-size="10.00">readFileToBody</text>
</a>
</g>
</g>
<!-- Node2&#45;&gt;Node21 -->
<g id="edge24" class="edge">
<title>Node2&#45;&gt;Node21</title>
<path fill="none" stroke="midnightblue" d="M226.86,-646.41C247.09,-641.42 272.02,-635.27 293.5,-629.97"/>
<polygon fill="midnightblue" stroke="midnightblue" points="294.55,-633.31 303.42,-627.52 292.87,-626.52 294.55,-633.31"/>
</g>
<!-- Node22 -->
<g id="node22" class="node">
<title>Node22</title>
<g id="a_node22"><a xlink:href="RequestProcessorUtils_8cpp.html#aa9c12d87cb0781b781a580ff9bfd0c06" target="_top" xlink:title=" ">
<polygon fill="white" stroke="black" points="309,-760.5 309,-779.5 377,-779.5 377,-760.5 309,-760.5"/>
<text text-anchor="middle" x="343" y="-767.5" font-family="Helvetica,sans-Serif" font-size="10.00">resolvePath</text>
</a>
</g>
</g>
<!-- Node2&#45;&gt;Node22 -->
<g id="edge25" class="edge">
<title>Node2&#45;&gt;Node22</title>
<path fill="none" stroke="midnightblue" d="M195.9,-665.73C211.71,-684.63 249.17,-726.61 289,-751 292.33,-753.04 295.91,-754.9 299.58,-756.6"/>
<polygon fill="midnightblue" stroke="midnightblue" points="298.22,-759.83 308.8,-760.47 300.93,-753.37 298.22,-759.83"/>
</g>
<!-- Node23 -->
<g id="node23" class="node">
<title>Node23</title>
<g id="a_node23"><a xlink:href="ResponseUtils_8cpp.html#a1c98cd4773c38cae6781a257fa318ca7" target="_top" xlink:title=" ">
<polygon fill="white" stroke="black" points="319.5,-722.5 319.5,-741.5 366.5,-741.5 366.5,-722.5 319.5,-722.5"/>
<text text-anchor="middle" x="343" y="-729.5" font-family="Helvetica,sans-Serif" font-size="10.00">toBody</text>
</a>
</g>
</g>
<!-- Node2&#45;&gt;Node23 -->
<g id="edge28" class="edge">
<title>Node2&#45;&gt;Node23</title>
<path fill="none" stroke="midnightblue" d="M206.11,-665.67C226.21,-676.33 259.7,-693.84 289,-708 296,-711.39 303.59,-714.91 310.77,-718.17"/>
<polygon fill="midnightblue" stroke="midnightblue" points="309.67,-721.52 320.22,-722.44 312.55,-715.13 309.67,-721.52"/>
</g>
<!-- Node4 -->
<g id="node4" class="node">
<title>Node4</title>
<g id="a_node4"><a xlink:href="SessionUtils_8cpp.html#aabfd66406b8a4aec4237b26ff8e76a65" target="_top" xlink:title=" ">
<polygon fill="white" stroke="black" points="441.5,-228.5 441.5,-247.5 579.5,-247.5 579.5,-228.5 441.5,-228.5"/>
<text text-anchor="middle" x="510.5" y="-235.5" font-family="Helvetica,sans-Serif" font-size="10.00">addSessionCookieIfNeeded</text>
</a>
</g>
</g>
<!-- Node3&#45;&gt;Node4 -->
<g id="edge3" class="edge">
<title>Node3&#45;&gt;Node4</title>
<path fill="none" stroke="midnightblue" d="M348.05,-437.24C358.96,-411.76 390.99,-341.94 433,-295 447.87,-278.39 468.25,-263.49 484.23,-253.09"/>
<polygon fill="midnightblue" stroke="midnightblue" points="486.48,-255.81 493.06,-247.51 482.74,-249.9 486.48,-255.81"/>
</g>
<!-- Node3&#45;&gt;Node8 -->
<g id="edge18" class="edge">
<title>Node3&#45;&gt;Node8</title>
<path fill="none" stroke="midnightblue" d="M389.85,-440.19C439.55,-434.36 520.79,-429.42 588,-447 618.52,-454.98 649.56,-474.42 669.13,-488.38"/>
<polygon fill="midnightblue" stroke="midnightblue" points="667.14,-491.26 677.28,-494.35 671.28,-485.61 667.14,-491.26"/>
</g>
<!-- Node10 -->
<g id="node10" class="node">
<title>Node10</title>
<g id="a_node10"><a xlink:href="classHttpRequest.html#adf523a5345b525702a858f8792bab8ea" target="_top" xlink:title=" ">
<polygon fill="white" stroke="black" points="448.5,-342.5 448.5,-361.5 572.5,-361.5 572.5,-342.5 448.5,-342.5"/>
<text text-anchor="middle" x="510.5" y="-349.5" font-family="Helvetica,sans-Serif" font-size="10.00">HttpRequest::getMethod</text>
</a>
</g>
</g>
<!-- Node3&#45;&gt;Node10 -->
<g id="edge9" class="edge">
<title>Node3&#45;&gt;Node10</title>
<path fill="none" stroke="midnightblue" d="M352.31,-437.46C366.96,-421.27 399.03,-388.47 433,-371 437.6,-368.63 442.5,-366.55 447.53,-364.73"/>
<polygon fill="midnightblue" stroke="midnightblue" points="448.88,-367.96 457.29,-361.51 446.69,-361.32 448.88,-367.96"/>
</g>
<!-- Node3&#45;&gt;Node11 -->
<g id="edge10" class="edge">
<title>Node3&#45;&gt;Node11</title>
<path fill="none" stroke="midnightblue" d="M344.7,-437.46C347.8,-402.49 363.42,-280.15 433,-219 436.66,-215.78 440.79,-213.09 445.17,-210.84"/>
<polygon fill="midnightblue" stroke="midnightblue" points="446.69,-214 454.48,-206.83 443.91,-207.57 446.69,-214"/>
</g>
<!-- Node12 -->
<g id="node12" class="node">
<title>Node12</title>
<g id="a_node12"><a xlink:href="classHttpRequest.html#ac2a5d18d42289a03b57215c98d8df41e" target="_top" xlink:title=" ">
<polygon fill="white" stroke="black" points="448,-570.5 448,-589.5 573,-589.5 573,-570.5 448,-570.5"/>
<text text-anchor="middle" x="510.5" y="-577.5" font-family="Helvetica,sans-Serif" font-size="10.00">HttpRequest::getVersion</text>
</a>
</g>
</g>
<!-- Node3&#45;&gt;Node12 -->
<g id="edge11" class="edge">
<title>Node3&#45;&gt;Node12</title>
<path fill="none" stroke="midnightblue" d="M348.7,-456.72C359.94,-478.92 390.67,-533.52 433,-561 436.17,-563.06 439.55,-564.89 443.05,-566.53"/>
<polygon fill="midnightblue" stroke="midnightblue" points="441.98,-569.87 452.56,-570.41 444.62,-563.39 441.98,-569.87"/>
</g>
<!-- Node13 -->
<g id="node13" class="node">
<title>Node13</title>
<g id="a_node13"><a xlink:href="classHttpResponse.html#acba4d7264c5b05e63a199c87f8526473" target="_top" xlink:title=" ">
<polygon fill="white" stroke="black" points="624,-608.5 624,-627.5 757,-627.5 757,-608.5 624,-608.5"/>
<text text-anchor="middle" x="690.5" y="-615.5" font-family="Helvetica,sans-Serif" font-size="10.00">HttpResponse::hasHeader</text>
</a>
</g>
</g>
<!-- Node3&#45;&gt;Node13 -->
<g id="edge12" class="edge">
<title>Node3&#45;&gt;Node13</title>
<path fill="none" stroke="midnightblue" d="M346.31,-456.67C353.53,-484.51 378.51,-565.02 433,-599 491.23,-635.31 571.99,-634.87 627.24,-628.72"/>
<polygon fill="midnightblue" stroke="midnightblue" points="627.74,-632.19 637.25,-627.51 626.9,-625.24 627.74,-632.19"/>
</g>
<!-- Node14 -->
<g id="node14" class="node">
<title>Node14</title>
<g id="a_node14"><a xlink:href="classHttpResponse.html#a884d07c418ba6145385d63e43bb1b29a" target="_top" xlink:title=" ">
<polygon fill="white" stroke="black" points="449.5,-532.5 449.5,-551.5 571.5,-551.5 571.5,-532.5 449.5,-532.5"/>
<text text-anchor="middle" x="510.5" y="-539.5" font-family="Helvetica,sans-Serif" font-size="10.00">HttpResponse::setBody</text>
</a>
</g>
</g>
<!-- Node3&#45;&gt;Node14 -->
<g id="edge14" class="edge">
<title>Node3&#45;&gt;Node14</title>
<path fill="none" stroke="midnightblue" d="M352.31,-456.54C366.96,-472.73 399.03,-505.53 433,-523 437.6,-525.37 442.5,-527.45 447.53,-529.27"/>
<polygon fill="midnightblue" stroke="midnightblue" points="446.69,-532.68 457.29,-532.49 448.88,-526.04 446.69,-532.68"/>
</g>
<!-- Node3&#45;&gt;Node15 -->
<g id="edge15" class="edge">
<title>Node3&#45;&gt;Node15</title>
<path fill="none" stroke="midnightblue" d="M346.96,-456.67C356.14,-485.58 386.36,-573.01 433,-632 447.76,-650.67 469.09,-667.37 485.48,-678.72"/>
<polygon fill="midnightblue" stroke="midnightblue" points="483.75,-681.78 494.01,-684.45 487.66,-675.97 483.75,-681.78"/>
</g>
<!-- Node16 -->
<g id="node16" class="node">
<title>Node16</title>
<g id="a_node16"><a xlink:href="classHttpResponse.html#ac982631ddcf451521e207ac0c2bd0108" target="_top" xlink:title=" ">
<polygon fill="white" stroke="black" points="439,-494.5 439,-513.5 582,-513.5 582,-494.5 439,-494.5"/>
<text text-anchor="middle" x="510.5" y="-501.5" font-family="Helvetica,sans-Serif" font-size="10.00">HttpResponse::setHeadOnly</text>
</a>
</g>
</g>
<!-- Node3&#45;&gt;Node16 -->
<g id="edge19" class="edge">
<title>Node3&#45;&gt;Node16</title>
<path fill="none" stroke="midnightblue" d="M363.79,-456.54C381.6,-464.85 408.63,-476.83 433,-485 440.39,-487.48 448.28,-489.79 456.08,-491.9"/>
<polygon fill="midnightblue" stroke="midnightblue" points="455.3,-495.31 465.86,-494.44 457.07,-488.54 455.3,-495.31"/>
</g>
<!-- Node17 -->
<g id="node17" class="node">
<title>Node17</title>
<g id="a_node17"><a xlink:href="classHttpResponse.html#a610f8f887ca042f2b18ec395aaccc255" target="_top" xlink:title=" ">
<polygon fill="white" stroke="black" points="435,-304.5 435,-323.5 586,-323.5 586,-304.5 435,-304.5"/>
<text text-anchor="middle" x="510.5" y="-311.5" font-family="Helvetica,sans-Serif" font-size="10.00">HttpResponse::setStatusCode</text>
</a>
</g>
</g>
<!-- Node3&#45;&gt;Node17 -->
<g id="edge20" class="edge">
<title>Node3&#45;&gt;Node17</title>
<path fill="none" stroke="midnightblue" d="M348.7,-437.28C359.94,-415.08 390.67,-360.48 433,-333 436.17,-330.94 439.55,-329.11 443.05,-327.47"/>
<polygon fill="midnightblue" stroke="midnightblue" points="444.62,-330.61 452.56,-323.59 441.98,-324.13 444.62,-330.61"/>
</g>
<!-- Node19 -->
<g id="node19" class="node">
<title>Node19</title>
<g id="a_node19"><a xlink:href="classHttpResponse.html#a407dc1ea3f01365d8105fadc0418bc79" target="_top" xlink:title=" ">
<polygon fill="white" stroke="black" points="444.5,-456.5 444.5,-475.5 576.5,-475.5 576.5,-456.5 444.5,-456.5"/>
<text text-anchor="middle" x="510.5" y="-463.5" font-family="Helvetica,sans-Serif" font-size="10.00">HttpResponse::setVersion</text>
</a>
</g>
</g>
<!-- Node3&#45;&gt;Node19 -->
<g id="edge22" class="edge">
<title>Node3&#45;&gt;Node19</title>
<path fill="none" stroke="midnightblue" d="M389.66,-452.24C403.55,-453.84 419.2,-455.63 434.5,-457.39"/>
<polygon fill="midnightblue" stroke="midnightblue" points="434.14,-460.87 444.48,-458.53 434.94,-453.92 434.14,-460.87"/>
</g>
<!-- Node20 -->
<g id="node20" class="node">
<title>Node20</title>
<g id="a_node20"><a xlink:href="ResponseUtils_8cpp.html#af8cce302648449aa6215ac211230ef75" target="_top" xlink:title=" ">
<polygon fill="white" stroke="black" points="468.5,-380.5 468.5,-399.5 552.5,-399.5 552.5,-380.5 468.5,-380.5"/>
<text text-anchor="middle" x="510.5" y="-387.5" font-family="Helvetica,sans-Serif" font-size="10.00">versionToString</text>
</a>
</g>
</g>
<!-- Node3&#45;&gt;Node20 -->
<g id="edge23" class="edge">
<title>Node3&#45;&gt;Node20</title>
<path fill="none" stroke="midnightblue" d="M368.81,-437.41C386.6,-430.64 411.17,-421.47 433,-414 444.31,-410.13 456.63,-406.16 468.02,-402.59"/>
<polygon fill="midnightblue" stroke="midnightblue" points="469.24,-405.88 477.74,-399.56 467.16,-399.19 469.24,-405.88"/>
</g>
<!-- Node5 -->
<g id="node5" class="node">
<title>Node5</title>
<g id="a_node5"><a xlink:href="SessionUtils_8cpp.html#af915f0cd7984e5d06370014bb43c74b6" target="_top" xlink:title=" ">
<polygon fill="white" stroke="black" points="647,-209.5 647,-228.5 734,-228.5 734,-209.5 647,-209.5"/>
<text text-anchor="middle" x="690.5" y="-216.5" font-family="Helvetica,sans-Serif" font-size="10.00">createSessionId</text>
</a>
</g>
</g>
<!-- Node4&#45;&gt;Node5 -->
<g id="edge4" class="edge">
<title>Node4&#45;&gt;Node5</title>
<path fill="none" stroke="midnightblue" d="M579.56,-230.74C598.6,-228.7 618.99,-226.53 636.98,-224.61"/>
<polygon fill="midnightblue" stroke="midnightblue" points="637.42,-228.08 646.99,-223.54 636.67,-221.12 637.42,-228.08"/>
</g>
<!-- Node6 -->
<g id="node6" class="node">
<title>Node6</title>
<g id="a_node6"><a xlink:href="SessionUtils_8cpp.html#a655520ad6c85707c8e1aae50c1eda6c8" target="_top" xlink:title=" ">
<polygon fill="white" stroke="black" points="636.5,-247.5 636.5,-266.5 744.5,-266.5 744.5,-247.5 636.5,-247.5"/>
<text text-anchor="middle" x="690.5" y="-254.5" font-family="Helvetica,sans-Serif" font-size="10.00">extractIdFromCookie</text>
</a>
</g>
</g>
<!-- Node4&#45;&gt;Node6 -->
<g id="edge5" class="edge">
<title>Node4&#45;&gt;Node6</title>
<path fill="none" stroke="midnightblue" d="M579.56,-245.26C594.87,-246.9 611.05,-248.63 626.16,-250.24"/>
<polygon fill="midnightblue" stroke="midnightblue" points="626.11,-253.75 636.43,-251.33 626.85,-246.79 626.11,-253.75"/>
</g>
<!-- Node7 -->
<g id="node7" class="node">
<title>Node7</title>
<g id="a_node7"><a xlink:href="classHttpRequest.html#ab537cb11b054734695ee4889d88aec6d" target="_top" xlink:title="Obtiene un header específico de la petición.">
<polygon fill="white" stroke="black" points="629,-171.5 629,-190.5 752,-190.5 752,-171.5 629,-171.5"/>
<text text-anchor="middle" x="690.5" y="-178.5" font-family="Helvetica,sans-Serif" font-size="10.00">HttpRequest::getHeader</text>
</a>
</g>
</g>
<!-- Node4&#45;&gt;Node7 -->
<g id="edge6" class="edge">
<title>Node4&#45;&gt;Node7</title>
<path fill="none" stroke="midnightblue" d="M557.77,-228.42C567.87,-225.8 578.41,-222.66 588,-219 604.9,-212.55 607.23,-206.78 624,-200 629.76,-197.67 635.92,-195.5 642.06,-193.52"/>
<polygon fill="midnightblue" stroke="midnightblue" points="643.12,-196.85 651.64,-190.56 641.06,-190.16 643.12,-196.85"/>
</g>
<!-- Node4&#45;&gt;Node8 -->
<g id="edge7" class="edge">
<title>Node4&#45;&gt;Node8</title>
<path fill="none" stroke="midnightblue" d="M563.35,-247.51C572.33,-250.94 581,-255.63 588,-262 605.68,-278.11 662.66,-430.63 682.56,-484.93"/>
<polygon fill="midnightblue" stroke="midnightblue" points="679.3,-486.22 686.02,-494.41 685.88,-483.81 679.3,-486.22"/>
</g>
<!-- Node9 -->
<g id="node9" class="node">
<title>Node9</title>
<g id="a_node9"><a xlink:href="namespacehttp__header__utils.html#aa9b0e84aeed4203326a12eecbcd3f9e5" target="_top" xlink:title=" ">
<polygon fill="white" stroke="black" points="793,-603 793,-633 890,-633 890,-603 793,-603"/>
<text text-anchor="start" x="801" y="-621" font-family="Helvetica,sans-Serif" font-size="10.00">http_header_utils::</text>
<text text-anchor="middle" x="841.5" y="-610" font-family="Helvetica,sans-Serif" font-size="10.00">toLowerCopy</text>
</a>
</g>
</g>
<!-- Node8&#45;&gt;Node9 -->
<g id="edge8" class="edge">
<title>Node8&#45;&gt;Node9</title>
<path fill="none" stroke="midnightblue" d="M703.95,-513.52C727.7,-531.7 780.03,-571.74 812.57,-596.63"/>
<polygon fill="midnightblue" stroke="midnightblue" points="810.72,-599.62 820.79,-602.92 814.97,-594.06 810.72,-599.62"/>
</g>
<!-- Node13&#45;&gt;Node9 -->
<g id="edge13" class="edge">
<title>Node13&#45;&gt;Node9</title>
<path fill="none" stroke="midnightblue" d="M757.29,-618C765.82,-618 774.51,-618 782.9,-618"/>
<polygon fill="midnightblue" stroke="midnightblue" points="782.95,-621.5 792.95,-618 782.95,-614.5 782.95,-621.5"/>
</g>
<!-- Node15&#45;&gt;Node8 -->
<g id="edge16" class="edge">
<title>Node15&#45;&gt;Node8</title>
<path fill="none" stroke="midnightblue" d="M562.19,-684.38C571.48,-680.95 580.57,-676.3 588,-670 615,-647.13 605.92,-629.41 624,-599 640.54,-571.18 662.29,-540.64 676.09,-521.89"/>
<polygon fill="midnightblue" stroke="midnightblue" points="679.02,-523.81 682.17,-513.7 673.4,-519.64 679.02,-523.81"/>
</g>
<!-- Node15&#45;&gt;Node9 -->
<g id="edge17" class="edge">
<title>Node15&#45;&gt;Node9</title>
<path fill="none" stroke="midnightblue" d="M552.83,-684.45C611.03,-671.01 717.34,-646.45 783.15,-631.25"/>
<polygon fill="midnightblue" stroke="midnightblue" points="784,-634.64 792.95,-628.98 782.42,-627.82 784,-634.64"/>
</g>
<!-- Node18 -->
<g id="node18" class="node">
<title>Node18</title>
<g id="a_node18"><a xlink:href="HttpResponse_8cpp.html#aadc8fd8bbc80a1b3551ea1357e04f07b" target="_top" xlink:title=" ">
<polygon fill="white" stroke="black" points="631,-304.5 631,-323.5 750,-323.5 750,-304.5 631,-304.5"/>
<text text-anchor="middle" x="690.5" y="-311.5" font-family="Helvetica,sans-Serif" font-size="10.00">reasonPhraseForStatus</text>
</a>
</g>
</g>
<!-- Node17&#45;&gt;Node18 -->
<g id="edge21" class="edge">
<title>Node17&#45;&gt;Node18</title>
<path fill="none" stroke="midnightblue" d="M586.21,-314C597.65,-314 609.41,-314 620.71,-314"/>
<polygon fill="midnightblue" stroke="midnightblue" points="620.94,-317.5 630.94,-314 620.94,-310.5 620.94,-317.5"/>
</g>
<!-- Node25 -->
<g id="node25" class="node">
<title>Node25</title>
<g id="a_node25"><a xlink:href="AutoindexRenderer_8cpp.html#aa6603dacef27e71df8be0deb73b1d4be" target="_top" xlink:title=" ">
<polygon fill="white" stroke="black" points="476,-76.5 476,-95.5 545,-95.5 545,-76.5 476,-76.5"/>
<text text-anchor="middle" x="510.5" y="-83.5" font-family="Helvetica,sans-Serif" font-size="10.00">escapeHtml</text>
</a>
</g>
</g>
<!-- Node24&#45;&gt;Node25 -->
<g id="edge31" class="edge">
<title>Node24&#45;&gt;Node25</title>
<path fill="none" stroke="midnightblue" d="M222.19,-89.44C232.17,-86.53 243.05,-83.25 253,-80 269.17,-74.72 272.24,-69.93 289,-67 349.74,-56.37 420.99,-66.54 465.7,-75.6"/>
<polygon fill="midnightblue" stroke="midnightblue" points="465.14,-79.06 475.64,-77.69 466.58,-72.21 465.14,-79.06"/>
</g>
<!-- Node26 -->
<g id="node26" class="node">
<title>Node26</title>
<g id="a_node26"><a xlink:href="StaticPathHandler_8cpp.html#a1d8627a665c990aee828a589a96e15ae" target="_top" xlink:title=" ">
<polygon fill="white" stroke="black" points="295.5,-76.5 295.5,-95.5 390.5,-95.5 390.5,-76.5 295.5,-76.5"/>
<text text-anchor="middle" x="343" y="-83.5" font-family="Helvetica,sans-Serif" font-size="10.00">isImageExtension</text>
</a>
</g>
</g>
<!-- Node24&#45;&gt;Node26 -->
<g id="edge32" class="edge">
<title>Node24&#45;&gt;Node26</title>
<path fill="none" stroke="midnightblue" d="M247.54,-93.97C259.84,-92.94 272.77,-91.84 284.97,-90.81"/>
<polygon fill="midnightblue" stroke="midnightblue" points="285.36,-94.29 295.03,-89.97 284.77,-87.32 285.36,-94.29"/>
</g>
<!-- Node27 -->
<g id="node27" class="node">
<title>Node27</title>
<g id="a_node27"><a xlink:href="AutoindexRenderer_8cpp.html#a4cca9fd6a02bdef382cf07d24173b148" target="_top" xlink:title=" ">
<polygon fill="white" stroke="black" points="289,-114.5 289,-133.5 397,-133.5 397,-114.5 289,-114.5"/>
<text text-anchor="middle" x="343" y="-121.5" font-family="Helvetica,sans-Serif" font-size="10.00">renderAutoindexHtml</text>
</a>
</g>
</g>
<!-- Node24&#45;&gt;Node27 -->
<g id="edge33" class="edge">
<title>Node24&#45;&gt;Node27</title>
<path fill="none" stroke="midnightblue" d="M246.66,-108.52C257.16,-110.23 268.14,-112.01 278.76,-113.73"/>
<polygon fill="midnightblue" stroke="midnightblue" points="278.38,-117.22 288.81,-115.37 279.5,-110.31 278.38,-117.22"/>
</g>
<!-- Node27&#45;&gt;Node25 -->
<g id="edge34" class="edge">
<title>Node27&#45;&gt;Node25</title>
<path fill="none" stroke="midnightblue" d="M385.76,-114.41C410.25,-108.79 441.15,-101.69 465.95,-96"/>
<polygon fill="midnightblue" stroke="midnightblue" points="466.85,-99.38 475.82,-93.73 465.29,-92.56 466.85,-99.38"/>
</g>
<!-- Node30 -->
<g id="node30" class="node">
<title>Node30</title>
<g id="a_node30"><a xlink:href="RequestProcessorUtils_8cpp.html#a8f33134a30552f25490513db7c499318" target="_top" xlink:title=" ">
<polygon fill="white" stroke="black" points="298.5,-0.5 298.5,-19.5 387.5,-19.5 387.5,-0.5 298.5,-0.5"/>
<text text-anchor="middle" x="343" y="-7.5" font-family="Helvetica,sans-Serif" font-size="10.00">getFileExtension</text>
</a>
</g>
</g>
<!-- Node29&#45;&gt;Node30 -->
<g id="edge38" class="edge">
<title>Node29&#45;&gt;Node30</title>
<path fill="none" stroke="midnightblue" d="M245.34,-18.16C259.25,-16.99 274.06,-15.73 287.81,-14.57"/>
<polygon fill="midnightblue" stroke="midnightblue" points="288.42,-18.04 298.09,-13.71 287.83,-11.06 288.42,-18.04"/>
</g>
<!-- Node32&#45;&gt;Node7 -->
<g id="edge43" class="edge">
<title>Node32&#45;&gt;Node7</title>
<path fill="none" stroke="midnightblue" d="M253.05,-181C347.37,-181 521.46,-181 618.84,-181"/>
<polygon fill="midnightblue" stroke="midnightblue" points="618.88,-184.5 628.88,-181 618.88,-177.5 618.88,-184.5"/>
</g>
</g>
</svg>
        <g id="navigator" transform="translate(0 0)" fill="#404254">
                <rect fill="#f2f5e9" fill-opacity="0.5" stroke="#606060" stroke-width=".5" x="0" y="0" width="60" height="60"/>
                <use id="zoomplus" xlink:href="#zoomPlus" x="17" y="9" onmousedown="handleZoom(evt,'in')"/>
                <use id="zoomminus" xlink:href="#zoomMin" x="42" y="9" onmousedown="handleZoom(evt,'out')"/>
                <use id="reset" xlink:href="#resetDef" x="30" y="36" onmousedown="handleReset()"/>
                <g id="arrowUp" xlink:href="#dirArrow" transform="translate(30 24)" onmousedown="handlePan(0,-1)">
                  <use xlink:href="#rim" fill="#404040">
                        <set attributeName="fill" to="#808080" begin="arrowUp.mouseover" end="arrowUp.mouseout"/>
                  </use>
                  <path fill="none" stroke="white" stroke-width="1.5" d="M0,-3.0v7 M-2.5,-0.5L0,-3.0L2.5,-0.5"/>
                </g>
                <g id="arrowRight" xlink:href="#dirArrow" transform="rotate(90) translate(36 -43)" onmousedown="handlePan(1,0)">
                  <use xlink:href="#rim" fill="#404040">
                        <set attributeName="fill" to="#808080" begin="arrowRight.mouseover" end="arrowRight.mouseout"/>
                  </use>
                  <path fill="none" stroke="white" stroke-width="1.5" d="M0,-3.0v7 M-2.5,-0.5L0,-3.0L2.5,-0.5"/>
                </g>
                <g id="arrowDown" xlink:href="#dirArrow" transform="rotate(180) translate(-30 -48)" onmousedown="handlePan(0,1)">
                  <use xlink:href="#rim" fill="#404040">
                        <set attributeName="fill" to="#808080" begin="arrowDown.mouseover" end="arrowDown.mouseout"/>
                  </use>
                  <path fill="none" stroke="white" stroke-width="1.5" d="M0,-3.0v7 M-2.5,-0.5L0,-3.0L2.5,-0.5"/>
                </g>
                <g id="arrowLeft" xlink:href="#dirArrow" transform="rotate(270) translate(-36 17)" onmousedown="handlePan(-1,0)">
                  <use xlink:href="#rim" fill="#404040">
                        <set attributeName="fill" to="#808080" begin="arrowLeft.mouseover" end="arrowLeft.mouseout"/>
                  </use>
                  <path fill="none" stroke="white" stroke-width="1.5" d="M0,-3.0v7 M-2.5,-0.5L0,-3.0L2.5,-0.5"/>
                </g>
        </g>
        <svg viewBox="0 0 15 15" width="100%" height="30px" preserveAspectRatio="xMaxYMin meet">
         <g id="arrow_out" transform="scale(0.3 0.3)">
          <a xlink:href="StaticPathHandler_8cpp_a28a771d93d3051098585ebc34ed29855_cgraph_org.svg" target="_base">
           <rect id="button" ry="5" rx="5" y="6" x="6" height="38" width="38"
                fill="#f2f5e9" fill-opacity="0.5" stroke="#606060" stroke-width="1.0"/>
           <path id="arrow"
             d="M 11.500037,31.436501 C 11.940474,20.09759 22.043105,11.32322 32.158766,21.979434 L 37.068811,17.246167 C 37.068811,17.246167 37.088388,32 37.088388,32 L 22.160133,31.978069 C 22.160133,31.978069 26.997745,27.140456 26.997745,27.140456 C 18.528582,18.264221 13.291696,25.230495 11.500037,31.436501 z"
             style="fill:#404040;"/>
          </a>
         </g>
        </svg>
</svg>
