<?xml version="1.0" encoding="UTF-8" standalone="no"?>
<!DOCTYPE svg PUBLIC "-//W3C//DTD SVG 1.1//EN"
 "http://www.w3.org/Graphics/SVG/1.1/DTD/svg11.dtd">
<!-- Generated by graphviz version 2.43.0 (0)
 -->
<!-- Title: handleUpload Pages: 1 -->
<!--zoomable 522 -->
<svg id="main" version="1.1" xmlns="http://www.w3.org/2000/svg" xmlns:xlink="http://www.w3.org/1999/xlink" xml:space="preserve" onload="init(evt)">
<style type="text/css"><![CDATA[
.edge:hover path { stroke: red; }
.edge:hover polygon { stroke: red; fill: red; }
]]></style>
<script type="text/javascript"><![CDATA[
var edges = document.getElementsByTagName('g');
if (edges && edges.length) {
  for (var i=0;i<edges.length;i++) {
    if (edges[i].id.substr(0,4)=='edge') {
      edges[i].setAttribute('class','edge');
    }
  }
}
]]></script>
        <defs>
                <circle id="rim" cx="0" cy="0" r="7"/>
                <circle id="rim2" cx="0" cy="0" r="3.5"/>
                <g id="zoomPlus">
                        <use xlink:href="#rim" fill="#404040">
                                <set attributeName="fill" to="#808080" begin="zoomplus.mouseover" end="zoomplus.mouseout"/>
                        </use>
                        <path d="M-4,0h8M0,-4v8" fill="none" stroke="white" stroke-width="1.5" pointer-events="none"/>
                </g>
                <g id="zoomMin">
                        <use xlink:href="#rim" fill="#404040">
                                <set attributeName="fill" to="#808080" begin="zoomminus.mouseover" end="zoomminus.mouseout"/>
                        </use>
                        <path d="M-4,0h8" fill="none" stroke="white" stroke-width="1.5" pointer-events="none"/>
                </g>
                <g id="dirArrow">
                        <path fill="none" stroke="white" stroke-width="1.5" d="M0,-3.0v7 M-2.5,-0.5L0,-3.0L2.5,-0.5"/>
                </g>
               <g id="resetDef">
                       <use xlink:href="#rim2" fill="#404040">
                               <set attributeName="fill" to="#808080" begin="reset.mouseover" end="reset.mouseout"/>
                       </use>
               </g>
        </defs>

<script type="text/javascript">
var viewWidth = 856;
var viewHeight = 522;
var sectionId = 'dynsection-10';
</script>
<script xlink:href="svgpan.js"/>
<svg id="graph" class="graph">
<g id="viewport">
<title>handleUpload</title>
<polygon fill="white" stroke="transparent" points="-4,4 -4,-518 852,-518 852,4 -4,4"/>
<!-- Node1 -->
<g id="node1" class="node">
<title>Node1</title>
<g id="a_node1"><a xlink:title=" ">
<polygon fill="#bfbfbf" stroke="black" points="0,-38.5 0,-57.5 76,-57.5 76,-38.5 0,-38.5"/>
<text text-anchor="middle" x="38" y="-45.5" font-family="Helvetica,sans-Serif" font-size="10.00">handleUpload</text>
</a>
</g>
</g>
<!-- Node2 -->
<g id="node2" class="node">
<title>Node2</title>
<g id="a_node2"><a xlink:href="ErrorUtils_8cpp.html#a470416220aa911b8f1274140a8322e7a" target="_top" xlink:title=" ">
<polygon fill="white" stroke="black" points="118,-247.5 118,-266.5 220,-266.5 220,-247.5 118,-247.5"/>
<text text-anchor="middle" x="169" y="-254.5" font-family="Helvetica,sans-Serif" font-size="10.00">buildErrorResponse</text>
</a>
</g>
</g>
<!-- Node1&#45;&gt;Node2 -->
<g id="edge1" class="edge">
<title>Node1&#45;&gt;Node2</title>
<path fill="none" stroke="midnightblue" d="M44.88,-57.52C64.86,-89.89 130.37,-196.03 156.8,-238.85"/>
<polygon fill="midnightblue" stroke="midnightblue" points="153.86,-240.75 162.09,-247.42 159.81,-237.07 153.86,-240.75"/>
</g>
<!-- Node17 -->
<g id="node17" class="node">
<title>Node17</title>
<g id="a_node17"><a xlink:href="classHttpResponse.html#a610f8f887ca042f2b18ec395aaccc255" target="_top" xlink:title=" ">
<polygon fill="white" stroke="black" points="393,-38.5 393,-57.5 544,-57.5 544,-38.5 393,-38.5"/>
<text text-anchor="middle" x="468.5" y="-45.5" font-family="Helvetica,sans-Serif" font-size="10.00">HttpResponse::setStatusCode</text>
</a>
</g>
</g>
<!-- Node1&#45;&gt;Node17 -->
<g id="edge30" class="edge">
<title>Node1&#45;&gt;Node17</title>
<path fill="none" stroke="midnightblue" d="M76.28,-48C144.08,-48 289.19,-48 382.36,-48"/>
<polygon fill="midnightblue" stroke="midnightblue" points="382.61,-51.5 392.61,-48 382.61,-44.5 382.61,-51.5"/>
</g>
<!-- Node24 -->
<g id="node24" class="node">
<title>Node24</title>
<g id="a_node24"><a xlink:href="classHttpRequest.html#aa727937b993d7df56a9d99b37d6be672" target="_top" xlink:title=" ">
<polygon fill="white" stroke="black" points="112,-0.5 112,-19.5 226,-19.5 226,-0.5 112,-0.5"/>
<text text-anchor="middle" x="169" y="-7.5" font-family="Helvetica,sans-Serif" font-size="10.00">HttpRequest::getBody</text>
</a>
</g>
</g>
<!-- Node1&#45;&gt;Node24 -->
<g id="edge29" class="edge">
<title>Node1&#45;&gt;Node24</title>
<path fill="none" stroke="midnightblue" d="M71.55,-38.41C87.9,-33.6 107.91,-27.7 125.46,-22.53"/>
<polygon fill="midnightblue" stroke="midnightblue" points="126.85,-25.77 135.46,-19.59 124.88,-19.05 126.85,-25.77"/>
</g>
<!-- Node3 -->
<g id="node3" class="node">
<title>Node3</title>
<g id="a_node3"><a xlink:href="ResponseUtils_8cpp.html#ab7c2cb6fbf297c09ec402182b04584c6" target="_top" xlink:title=" ">
<polygon fill="white" stroke="black" points="262,-247.5 262,-266.5 355,-266.5 355,-247.5 262,-247.5"/>
<text text-anchor="middle" x="308.5" y="-254.5" font-family="Helvetica,sans-Serif" font-size="10.00">fillBaseResponse</text>
</a>
</g>
</g>
<!-- Node2&#45;&gt;Node3 -->
<g id="edge2" class="edge">
<title>Node2&#45;&gt;Node3</title>
<path fill="none" stroke="midnightblue" d="M220.03,-257C230.28,-257 241.13,-257 251.58,-257"/>
<polygon fill="midnightblue" stroke="midnightblue" points="251.84,-260.5 261.84,-257 251.84,-253.5 251.84,-260.5"/>
</g>
<!-- Node8 -->
<g id="node8" class="node">
<title>Node8</title>
<g id="a_node8"><a xlink:href="classHttpResponse.html#a7efa3ab17ead358609d80b55db164867" target="_top" xlink:title=" ">
<polygon fill="white" stroke="black" points="583,-304.5 583,-323.5 714,-323.5 714,-304.5 583,-304.5"/>
<text text-anchor="middle" x="648.5" y="-311.5" font-family="Helvetica,sans-Serif" font-size="10.00">HttpResponse::setHeader</text>
</a>
</g>
</g>
<!-- Node2&#45;&gt;Node8 -->
<g id="edge27" class="edge">
<title>Node2&#45;&gt;Node8</title>
<path fill="none" stroke="midnightblue" d="M181.49,-247.27C229.13,-208.2 414.7,-68.25 546,-143 604.16,-176.11 632.44,-257.14 642.74,-294.52"/>
<polygon fill="midnightblue" stroke="midnightblue" points="639.37,-295.44 645.28,-304.23 646.14,-293.67 639.37,-295.44"/>
</g>
<!-- Node15 -->
<g id="node15" class="node">
<title>Node15</title>
<g id="a_node15"><a xlink:href="classHttpResponse.html#a11a67ba43096f5eb1870e65f1814d364" target="_top" xlink:title=" ">
<polygon fill="white" stroke="black" points="391,-494.5 391,-513.5 546,-513.5 546,-494.5 391,-494.5"/>
<text text-anchor="middle" x="468.5" y="-501.5" font-family="Helvetica,sans-Serif" font-size="10.00">HttpResponse::setContentType</text>
</a>
</g>
</g>
<!-- Node2&#45;&gt;Node15 -->
<g id="edge26" class="edge">
<title>Node2&#45;&gt;Node15</title>
<path fill="none" stroke="midnightblue" d="M219.92,-266.53C268.17,-276.74 336.6,-294.17 355,-314 403.99,-366.8 344.64,-416.88 391,-472 397.6,-479.85 406.46,-485.81 415.8,-490.32"/>
<polygon fill="midnightblue" stroke="midnightblue" points="414.66,-493.64 425.23,-494.37 417.42,-487.21 414.66,-493.64"/>
</g>
<!-- Node21 -->
<g id="node21" class="node">
<title>Node21</title>
<g id="a_node21"><a xlink:href="ErrorUtils_8cpp.html#aa759f2b84e51d20fdf7801c0514c3635" target="_top" xlink:title=" ">
<polygon fill="white" stroke="black" points="266.5,-76.5 266.5,-95.5 350.5,-95.5 350.5,-76.5 266.5,-76.5"/>
<text text-anchor="middle" x="308.5" y="-83.5" font-family="Helvetica,sans-Serif" font-size="10.00">readFileToBody</text>
</a>
</g>
</g>
<!-- Node2&#45;&gt;Node21 -->
<g id="edge24" class="edge">
<title>Node2&#45;&gt;Node21</title>
<path fill="none" stroke="midnightblue" d="M173.96,-247.2C184.68,-221.67 216.56,-152.21 262,-110 265.83,-106.44 270.28,-103.26 274.88,-100.46"/>
<polygon fill="midnightblue" stroke="midnightblue" points="276.69,-103.46 283.76,-95.57 273.31,-97.33 276.69,-103.46"/>
</g>
<!-- Node22 -->
<g id="node22" class="node">
<title>Node22</title>
<g id="a_node22"><a xlink:href="RequestProcessorUtils_8cpp.html#aa9c12d87cb0781b781a580ff9bfd0c06" target="_top" xlink:title=" ">
<polygon fill="white" stroke="black" points="274.5,-361.5 274.5,-380.5 342.5,-380.5 342.5,-361.5 274.5,-361.5"/>
<text text-anchor="middle" x="308.5" y="-368.5" font-family="Helvetica,sans-Serif" font-size="10.00">resolvePath</text>
</a>
</g>
</g>
<!-- Node2&#45;&gt;Node22 -->
<g id="edge25" class="edge">
<title>Node2&#45;&gt;Node22</title>
<path fill="none" stroke="midnightblue" d="M177.1,-266.6C191.34,-285.29 225.2,-326.91 262,-352 264.69,-353.83 267.58,-355.54 270.56,-357.12"/>
<polygon fill="midnightblue" stroke="midnightblue" points="269.09,-360.3 279.62,-361.47 272.12,-353.99 269.09,-360.3"/>
</g>
<!-- Node23 -->
<g id="node23" class="node">
<title>Node23</title>
<g id="a_node23"><a xlink:href="ResponseUtils_8cpp.html#a1c98cd4773c38cae6781a257fa318ca7" target="_top" xlink:title=" ">
<polygon fill="white" stroke="black" points="285,-323.5 285,-342.5 332,-342.5 332,-323.5 285,-323.5"/>
<text text-anchor="middle" x="308.5" y="-330.5" font-family="Helvetica,sans-Serif" font-size="10.00">toBody</text>
</a>
</g>
</g>
<!-- Node2&#45;&gt;Node23 -->
<g id="edge28" class="edge">
<title>Node2&#45;&gt;Node23</title>
<path fill="none" stroke="midnightblue" d="M186.54,-266.54C204.89,-277.08 235.43,-294.49 262,-309 267.76,-312.15 273.96,-315.46 279.88,-318.6"/>
<polygon fill="midnightblue" stroke="midnightblue" points="278.36,-321.75 288.84,-323.31 281.62,-315.56 278.36,-321.75"/>
</g>
<!-- Node4 -->
<g id="node4" class="node">
<title>Node4</title>
<g id="a_node4"><a xlink:href="SessionUtils_8cpp.html#aabfd66406b8a4aec4237b26ff8e76a65" target="_top" xlink:title=" ">
<polygon fill="white" stroke="black" points="399.5,-76.5 399.5,-95.5 537.5,-95.5 537.5,-76.5 399.5,-76.5"/>
<text text-anchor="middle" x="468.5" y="-83.5" font-family="Helvetica,sans-Serif" font-size="10.00">addSessionCookieIfNeeded</text>
</a>
</g>
</g>
<!-- Node3&#45;&gt;Node4 -->
<g id="edge3" class="edge">
<title>Node3&#45;&gt;Node4</title>
<path fill="none" stroke="midnightblue" d="M314.96,-247.39C326.96,-226.78 357.27,-177.4 391,-143 406.7,-126.98 427.2,-111.96 443.02,-101.37"/>
<polygon fill="midnightblue" stroke="midnightblue" points="445.28,-104.07 451.73,-95.66 441.45,-98.21 445.28,-104.07"/>
</g>
<!-- Node3&#45;&gt;Node8 -->
<g id="edge18" class="edge">
<title>Node3&#45;&gt;Node8</title>
<path fill="none" stroke="midnightblue" d="M327.99,-266.58C347.92,-276.72 378.46,-291.73 391,-295 450.85,-310.61 521.03,-314.89 572.83,-315.53"/>
<polygon fill="midnightblue" stroke="midnightblue" points="572.91,-319.03 582.94,-315.61 572.97,-312.03 572.91,-319.03"/>
</g>
<!-- Node10 -->
<g id="node10" class="node">
<title>Node10</title>
<g id="a_node10"><a xlink:href="classHttpRequest.html#adf523a5345b525702a858f8792bab8ea" target="_top" xlink:title=" ">
<polygon fill="white" stroke="black" points="406.5,-152.5 406.5,-171.5 530.5,-171.5 530.5,-152.5 406.5,-152.5"/>
<text text-anchor="middle" x="468.5" y="-159.5" font-family="Helvetica,sans-Serif" font-size="10.00">HttpRequest::getMethod</text>
</a>
</g>
</g>
<!-- Node3&#45;&gt;Node10 -->
<g id="edge9" class="edge">
<title>Node3&#45;&gt;Node10</title>
<path fill="none" stroke="midnightblue" d="M316.93,-247.43C330.06,-231.2 359.03,-198.34 391,-181 395.21,-178.71 399.71,-176.7 404.32,-174.92"/>
<polygon fill="midnightblue" stroke="midnightblue" points="405.62,-178.18 413.93,-171.6 403.33,-171.56 405.62,-178.18"/>
</g>
<!-- Node11 -->
<g id="node11" class="node">
<title>Node11</title>
<g id="a_node11"><a xlink:href="classHttpRequest.html#acde519e492e10352bc39d6a3bcd857b2" target="_top" xlink:title=" ">
<polygon fill="white" stroke="black" points="412.5,-418.5 412.5,-437.5 524.5,-437.5 524.5,-418.5 412.5,-418.5"/>
<text text-anchor="middle" x="468.5" y="-425.5" font-family="Helvetica,sans-Serif" font-size="10.00">HttpRequest::getPath</text>
</a>
</g>
</g>
<!-- Node3&#45;&gt;Node11 -->
<g id="edge10" class="edge">
<title>Node3&#45;&gt;Node11</title>
<path fill="none" stroke="midnightblue" d="M336.18,-266.55C343.14,-270.14 350.06,-274.89 355,-281 392.15,-326.96 348.58,-367.86 391,-409 394.56,-412.45 398.64,-415.3 403.03,-417.66"/>
<polygon fill="midnightblue" stroke="midnightblue" points="401.83,-420.96 412.39,-421.84 404.68,-414.57 401.83,-420.96"/>
</g>
<!-- Node12 -->
<g id="node12" class="node">
<title>Node12</title>
<g id="a_node12"><a xlink:href="classHttpRequest.html#ac2a5d18d42289a03b57215c98d8df41e" target="_top" xlink:title=" ">
<polygon fill="white" stroke="black" points="406,-380.5 406,-399.5 531,-399.5 531,-380.5 406,-380.5"/>
<text text-anchor="middle" x="468.5" y="-387.5" font-family="Helvetica,sans-Serif" font-size="10.00">HttpRequest::getVersion</text>
</a>
</g>
</g>
<!-- Node3&#45;&gt;Node12 -->
<g id="edge11" class="edge">
<title>Node3&#45;&gt;Node12</title>
<path fill="none" stroke="midnightblue" d="M335.3,-266.65C342.4,-270.29 349.62,-275.03 355,-281 383.82,-313.02 358.52,-342.69 391,-371 392.94,-372.69 395.01,-374.24 397.18,-375.65"/>
<polygon fill="midnightblue" stroke="midnightblue" points="395.51,-378.73 405.96,-380.46 398.87,-372.59 395.51,-378.73"/>
</g>
<!-- Node13 -->
<g id="node13" class="node">
<title>Node13</title>
<g id="a_node13"><a xlink:href="classHttpResponse.html#acba4d7264c5b05e63a199c87f8526473" target="_top" xlink:title=" ">
<polygon fill="white" stroke="black" points="582,-456.5 582,-475.5 715,-475.5 715,-456.5 582,-456.5"/>
<text text-anchor="middle" x="648.5" y="-463.5" font-family="Helvetica,sans-Serif" font-size="10.00">HttpResponse::hasHeader</text>
</a>
</g>
</g>
<!-- Node3&#45;&gt;Node13 -->
<g id="edge12" class="edge">
<title>Node3&#45;&gt;Node13</title>
<path fill="none" stroke="midnightblue" d="M336.9,-266.6C343.7,-270.17 350.35,-274.88 355,-281 400.66,-341.12 334.02,-397.47 391,-447 417.11,-469.7 505.59,-471.88 571.37,-470.06"/>
<polygon fill="midnightblue" stroke="midnightblue" points="571.84,-473.55 581.72,-469.74 571.62,-466.56 571.84,-473.55"/>
</g>
<!-- Node14 -->
<g id="node14" class="node">
<title>Node14</title>
<g id="a_node14"><a xlink:href="classHttpResponse.html#a884d07c418ba6145385d63e43bb1b29a" target="_top" xlink:title=" ">
<polygon fill="white" stroke="black" points="407.5,-342.5 407.5,-361.5 529.5,-361.5 529.5,-342.5 407.5,-342.5"/>
<text text-anchor="middle" x="468.5" y="-349.5" font-family="Helvetica,sans-Serif" font-size="10.00">HttpResponse::setBody</text>
</a>
</g>
</g>
<!-- Node3&#45;&gt;Node14 -->
<g id="edge14" class="edge">
<title>Node3&#45;&gt;Node14</title>
<path fill="none" stroke="midnightblue" d="M332.46,-266.69C340.08,-270.51 348.31,-275.35 355,-281 375.1,-297.98 369.44,-312.91 391,-328 397.19,-332.33 404.2,-335.91 411.4,-338.85"/>
<polygon fill="midnightblue" stroke="midnightblue" points="410.69,-342.32 421.28,-342.49 413.1,-335.75 410.69,-342.32"/>
</g>
<!-- Node3&#45;&gt;Node15 -->
<g id="edge15" class="edge">
<title>Node3&#45;&gt;Node15</title>
<path fill="none" stroke="midnightblue" d="M337.52,-266.75C344.14,-270.28 350.57,-274.95 355,-281 408.11,-353.51 331.54,-412.6 391,-480 394.28,-483.72 398.13,-486.87 402.33,-489.53"/>
<polygon fill="midnightblue" stroke="midnightblue" points="400.88,-492.73 411.35,-494.35 404.18,-486.55 400.88,-492.73"/>
</g>
<!-- Node16 -->
<g id="node16" class="node">
<title>Node16</title>
<g id="a_node16"><a xlink:href="classHttpResponse.html#ac982631ddcf451521e207ac0c2bd0108" target="_top" xlink:title=" ">
<polygon fill="white" stroke="black" points="397,-266.5 397,-285.5 540,-285.5 540,-266.5 397,-266.5"/>
<text text-anchor="middle" x="468.5" y="-273.5" font-family="Helvetica,sans-Serif" font-size="10.00">HttpResponse::setHeadOnly</text>
</a>
</g>
</g>
<!-- Node3&#45;&gt;Node16 -->
<g id="edge19" class="edge">
<title>Node3&#45;&gt;Node16</title>
<path fill="none" stroke="midnightblue" d="M355.2,-262.5C365.18,-263.7 376.02,-265 386.91,-266.31"/>
<polygon fill="midnightblue" stroke="midnightblue" points="386.55,-269.79 396.9,-267.51 387.39,-262.84 386.55,-269.79"/>
</g>
<!-- Node3&#45;&gt;Node17 -->
<g id="edge20" class="edge">
<title>Node3&#45;&gt;Node17</title>
<path fill="none" stroke="midnightblue" d="M310.64,-247.35C314.85,-216.09 332.48,-116.75 391,-67 392.96,-65.33 395.05,-63.81 397.23,-62.41"/>
<polygon fill="midnightblue" stroke="midnightblue" points="398.92,-65.48 406.06,-57.66 395.6,-59.32 398.92,-65.48"/>
</g>
<!-- Node19 -->
<g id="node19" class="node">
<title>Node19</title>
<g id="a_node19"><a xlink:href="classHttpResponse.html#a407dc1ea3f01365d8105fadc0418bc79" target="_top" xlink:title=" ">
<polygon fill="white" stroke="black" points="402.5,-228.5 402.5,-247.5 534.5,-247.5 534.5,-228.5 402.5,-228.5"/>
<text text-anchor="middle" x="468.5" y="-235.5" font-family="Helvetica,sans-Serif" font-size="10.00">HttpResponse::setVersion</text>
</a>
</g>
</g>
<!-- Node3&#45;&gt;Node19 -->
<g id="edge22" class="edge">
<title>Node3&#45;&gt;Node19</title>
<path fill="none" stroke="midnightblue" d="M355.2,-251.5C366.78,-250.11 379.52,-248.58 392.15,-247.06"/>
<polygon fill="midnightblue" stroke="midnightblue" points="392.71,-250.52 402.22,-245.85 391.87,-243.57 392.71,-250.52"/>
</g>
<!-- Node20 -->
<g id="node20" class="node">
<title>Node20</title>
<g id="a_node20"><a xlink:href="ResponseUtils_8cpp.html#af8cce302648449aa6215ac211230ef75" target="_top" xlink:title=" ">
<polygon fill="white" stroke="black" points="426.5,-190.5 426.5,-209.5 510.5,-209.5 510.5,-190.5 426.5,-190.5"/>
<text text-anchor="middle" x="468.5" y="-197.5" font-family="Helvetica,sans-Serif" font-size="10.00">versionToString</text>
</a>
</g>
</g>
<!-- Node3&#45;&gt;Node20 -->
<g id="edge23" class="edge">
<title>Node3&#45;&gt;Node20</title>
<path fill="none" stroke="midnightblue" d="M327.53,-247.36C343.77,-238.98 368.48,-226.96 391,-219 399.07,-216.15 407.76,-213.55 416.29,-211.27"/>
<polygon fill="midnightblue" stroke="midnightblue" points="417.36,-214.6 426.18,-208.72 415.62,-207.82 417.36,-214.6"/>
</g>
<!-- Node5 -->
<g id="node5" class="node">
<title>Node5</title>
<g id="a_node5"><a xlink:href="SessionUtils_8cpp.html#af915f0cd7984e5d06370014bb43c74b6" target="_top" xlink:title=" ">
<polygon fill="white" stroke="black" points="605,-133.5 605,-152.5 692,-152.5 692,-133.5 605,-133.5"/>
<text text-anchor="middle" x="648.5" y="-140.5" font-family="Helvetica,sans-Serif" font-size="10.00">createSessionId</text>
</a>
</g>
</g>
<!-- Node4&#45;&gt;Node5 -->
<g id="edge4" class="edge">
<title>Node4&#45;&gt;Node5</title>
<path fill="none" stroke="midnightblue" d="M501.67,-95.57C515.4,-99.79 531.55,-104.93 546,-110 562.2,-115.68 565.74,-118.49 582,-124 588.56,-126.22 595.53,-128.42 602.4,-130.49"/>
<polygon fill="midnightblue" stroke="midnightblue" points="601.73,-133.94 612.31,-133.41 603.71,-127.22 601.73,-133.94"/>
</g>
<!-- Node6 -->
<g id="node6" class="node">
<title>Node6</title>
<g id="a_node6"><a xlink:href="SessionUtils_8cpp.html#a655520ad6c85707c8e1aae50c1eda6c8" target="_top" xlink:title=" ">
<polygon fill="white" stroke="black" points="594.5,-95.5 594.5,-114.5 702.5,-114.5 702.5,-95.5 594.5,-95.5"/>
<text text-anchor="middle" x="648.5" y="-102.5" font-family="Helvetica,sans-Serif" font-size="10.00">extractIdFromCookie</text>
</a>
</g>
</g>
<!-- Node4&#45;&gt;Node6 -->
<g id="edge5" class="edge">
<title>Node4&#45;&gt;Node6</title>
<path fill="none" stroke="midnightblue" d="M537.56,-93.26C552.87,-94.9 569.05,-96.63 584.16,-98.24"/>
<polygon fill="midnightblue" stroke="midnightblue" points="584.11,-101.75 594.43,-99.33 584.85,-94.79 584.11,-101.75"/>
</g>
<!-- Node7 -->
<g id="node7" class="node">
<title>Node7</title>
<g id="a_node7"><a xlink:href="classHttpRequest.html#ab537cb11b054734695ee4889d88aec6d" target="_top" xlink:title="Obtiene un header específico de la petición.">
<polygon fill="white" stroke="black" points="587,-57.5 587,-76.5 710,-76.5 710,-57.5 587,-57.5"/>
<text text-anchor="middle" x="648.5" y="-64.5" font-family="Helvetica,sans-Serif" font-size="10.00">HttpRequest::getHeader</text>
</a>
</g>
</g>
<!-- Node4&#45;&gt;Node7 -->
<g id="edge6" class="edge">
<title>Node4&#45;&gt;Node7</title>
<path fill="none" stroke="midnightblue" d="M537.56,-78.74C550.33,-77.37 563.72,-75.94 576.59,-74.57"/>
<polygon fill="midnightblue" stroke="midnightblue" points="577.19,-78.02 586.77,-73.48 576.45,-71.06 577.19,-78.02"/>
</g>
<!-- Node4&#45;&gt;Node8 -->
<g id="edge7" class="edge">
<title>Node4&#45;&gt;Node8</title>
<path fill="none" stroke="midnightblue" d="M520.23,-95.58C529.51,-99.01 538.59,-103.67 546,-110 576.57,-136.09 622.56,-249.3 640.23,-294.88"/>
<polygon fill="midnightblue" stroke="midnightblue" points="637.06,-296.38 643.91,-304.46 643.59,-293.87 637.06,-296.38"/>
</g>
<!-- Node9 -->
<g id="node9" class="node">
<title>Node9</title>
<g id="a_node9"><a xlink:href="namespacehttp__header__utils.html#aa9b0e84aeed4203326a12eecbcd3f9e5" target="_top" xlink:title=" ">
<polygon fill="white" stroke="black" points="751,-451 751,-481 848,-481 848,-451 751,-451"/>
<text text-anchor="start" x="759" y="-469" font-family="Helvetica,sans-Serif" font-size="10.00">http_header_utils::</text>
<text text-anchor="middle" x="799.5" y="-458" font-family="Helvetica,sans-Serif" font-size="10.00">toLowerCopy</text>
</a>
</g>
</g>
<!-- Node8&#45;&gt;Node9 -->
<g id="edge8" class="edge">
<title>Node8&#45;&gt;Node9</title>
<path fill="none" stroke="midnightblue" d="M658.82,-323.51C682.06,-347.22 743.08,-409.46 776.25,-443.31"/>
<polygon fill="midnightblue" stroke="midnightblue" points="774.16,-446.17 783.66,-450.86 779.16,-441.27 774.16,-446.17"/>
</g>
<!-- Node13&#45;&gt;Node9 -->
<g id="edge13" class="edge">
<title>Node13&#45;&gt;Node9</title>
<path fill="none" stroke="midnightblue" d="M715.29,-466C723.82,-466 732.51,-466 740.9,-466"/>
<polygon fill="midnightblue" stroke="midnightblue" points="740.95,-469.5 750.95,-466 740.95,-462.5 740.95,-469.5"/>
</g>
<!-- Node15&#45;&gt;Node8 -->
<g id="edge16" class="edge">
<title>Node15&#45;&gt;Node8</title>
<path fill="none" stroke="midnightblue" d="M484.85,-494.41C501.04,-483.9 526.8,-465.98 546,-447 583.33,-410.1 618.53,-359.03 636.01,-332.18"/>
<polygon fill="midnightblue" stroke="midnightblue" points="638.96,-334.05 641.43,-323.75 633.07,-330.27 638.96,-334.05"/>
</g>
<!-- Node15&#45;&gt;Node9 -->
<g id="edge17" class="edge">
<title>Node15&#45;&gt;Node9</title>
<path fill="none" stroke="midnightblue" d="M546.13,-500.96C594.72,-498.32 658.79,-493.52 715,-485 723.35,-483.73 732.1,-482.1 740.66,-480.31"/>
<polygon fill="midnightblue" stroke="midnightblue" points="741.57,-483.7 750.6,-478.16 740.09,-476.86 741.57,-483.7"/>
</g>
<!-- Node18 -->
<g id="node18" class="node">
<title>Node18</title>
<g id="a_node18"><a xlink:href="HttpResponse_8cpp.html#aadc8fd8bbc80a1b3551ea1357e04f07b" target="_top" xlink:title=" ">
<polygon fill="white" stroke="black" points="589,-19.5 589,-38.5 708,-38.5 708,-19.5 589,-19.5"/>
<text text-anchor="middle" x="648.5" y="-26.5" font-family="Helvetica,sans-Serif" font-size="10.00">reasonPhraseForStatus</text>
</a>
</g>
</g>
<!-- Node17&#45;&gt;Node18 -->
<g id="edge21" class="edge">
<title>Node17&#45;&gt;Node18</title>
<path fill="none" stroke="midnightblue" d="M544.21,-40.02C555.65,-38.8 567.41,-37.55 578.71,-36.34"/>
<polygon fill="midnightblue" stroke="midnightblue" points="579.36,-39.79 588.94,-35.25 578.62,-32.83 579.36,-39.79"/>
</g>
</g>
</svg>
        <g id="navigator" transform="translate(0 0)" fill="#404254">
                <rect fill="#f2f5e9" fill-opacity="0.5" stroke="#606060" stroke-width=".5" x="0" y="0" width="60" height="60"/>
                <use id="zoomplus" xlink:href="#zoomPlus" x="17" y="9" onmousedown="handleZoom(evt,'in')"/>
                <use id="zoomminus" xlink:href="#zoomMin" x="42" y="9" onmousedown="handleZoom(evt,'out')"/>
                <use id="reset" xlink:href="#resetDef" x="30" y="36" onmousedown="handleReset()"/>
                <g id="arrowUp" xlink:href="#dirArrow" transform="translate(30 24)" onmousedown="handlePan(0,-1)">
                  <use xlink:href="#rim" fill="#404040">
                        <set attributeName="fill" to="#808080" begin="arrowUp.mouseover" end="arrowUp.mouseout"/>
                  </use>
                  <path fill="none" stroke="white" stroke-width="1.5" d="M0,-3.0v7 M-2.5,-0.5L0,-3.0L2.5,-0.5"/>
                </g>
                <g id="arrowRight" xlink:href="#dirArrow" transform="rotate(90) translate(36 -43)" onmousedown="handlePan(1,0)">
                  <use xlink:href="#rim" fill="#404040">
                        <set attributeName="fill" to="#808080" begin="arrowRight.mouseover" end="arrowRight.mouseout"/>
                  </use>
                  <path fill="none" stroke="white" stroke-width="1.5" d="M0,-3.0v7 M-2.5,-0.5L0,-3.0L2.5,-0.5"/>
                </g>
                <g id="arrowDown" xlink:href="#dirArrow" transform="rotate(180) translate(-30 -48)" onmousedown="handlePan(0,1)">
                  <use xlink:href="#rim" fill="#404040">
                        <set attributeName="fill" to="#808080" begin="arrowDown.mouseover" end="arrowDown.mouseout"/>
                  </use>
                  <path fill="none" stroke="white" stroke-width="1.5" d="M0,-3.0v7 M-2.5,-0.5L0,-3.0L2.5,-0.5"/>
                </g>
                <g id="arrowLeft" xlink:href="#dirArrow" transform="rotate(270) translate(-36 17)" onmousedown="handlePan(-1,0)">
                  <use xlink:href="#rim" fill="#404040">
                        <set attributeName="fill" to="#808080" begin="arrowLeft.mouseover" end="arrowLeft.mouseout"/>
                  </use>
                  <path fill="none" stroke="white" stroke-width="1.5" d="M0,-3.0v7 M-2.5,-0.5L0,-3.0L2.5,-0.5"/>
                </g>
        </g>
        <svg viewBox="0 0 15 15" width="100%" height="30px" preserveAspectRatio="xMaxYMin meet">
         <g id="arrow_out" transform="scale(0.3 0.3)">
          <a xlink:href="StaticPathHandler_8cpp_a638cb25cad6c24877a0e75984110ea7a_cgraph_org.svg" target="_base">
           <rect id="button" ry="5" rx="5" y="6" x="6" height="38" width="38"
                fill="#f2f5e9" fill-opacity="0.5" stroke="#606060" stroke-width="1.0"/>
           <path id="arrow"
             d="M 11.500037,31.436501 C 11.940474,20.09759 22.043105,11.32322 32.158766,21.979434 L 37.068811,17.246167 C 37.068811,17.246167 37.088388,32 37.088388,32 L 22.160133,31.978069 C 22.160133,31.978069 26.997745,27.140456 26.997745,27.140456 C 18.528582,18.264221 13.291696,25.230495 11.500037,31.436501 z"
             style="fill:#404040;"/>
          </a>
         </g>
        </svg>
</svg>
