<?xml version="1.0" encoding="UTF-8" standalone="no"?>
<!DOCTYPE svg PUBLIC "-//W3C//DTD SVG 1.1//EN"
 "http://www.w3.org/Graphics/SVG/1.1/DTD/svg11.dtd">
<!-- Generated by graphviz version 2.43.0 (0)
 -->
<!-- Title: src/client/StaticPathHandler.cpp Pages: 1 -->
<svg width="1233pt" height="252pt"
 viewBox="0.00 0.00 1233.29 252.00" xmlns="http://www.w3.org/2000/svg" xmlns:xlink="http://www.w3.org/1999/xlink">
<g id="graph0" class="graph" transform="scale(1 1) rotate(0) translate(4 248)">
<title>src/client/StaticPathHandler.cpp</title>
<polygon fill="white" stroke="transparent" points="-4,4 -4,-248 1229.29,-248 1229.29,4 -4,4"/>
<!-- Node1 -->
<g id="node1" class="node">
<title>Node1</title>
<g id="a_node1"><a xlink:title=" ">
<polygon fill="#bfbfbf" stroke="black" points="494.29,-224.5 494.29,-243.5 651.29,-243.5 651.29,-224.5 494.29,-224.5"/>
<text text-anchor="middle" x="572.79" y="-231.5" font-family="Helvetica,sans-Serif" font-size="10.00">src/client/StaticPathHandler.cpp</text>
</a>
</g>
</g>
<!-- Node2 -->
<g id="node2" class="node">
<title>Node2</title>
<g id="a_node2"><a xlink:href="StaticPathHandler_8hpp.html" target="_top" xlink:title=" ">
<polygon fill="white" stroke="black" points="743.79,-168.5 743.79,-187.5 857.79,-187.5 857.79,-168.5 743.79,-168.5"/>
<text text-anchor="middle" x="800.79" y="-175.5" font-family="Helvetica,sans-Serif" font-size="10.00">StaticPathHandler.hpp</text>
</a>
</g>
</g>
<!-- Node1&#45;&gt;Node2 -->
<g id="edge1" class="edge">
<title>Node1&#45;&gt;Node2</title>
<path fill="none" stroke="midnightblue" d="M608.92,-224.44C648.44,-215.08 711.89,-200.06 754.9,-189.87"/>
<polygon fill="midnightblue" stroke="midnightblue" points="755.91,-193.23 764.83,-187.52 754.29,-186.42 755.91,-193.23"/>
</g>
<!-- Node6 -->
<g id="node6" class="node">
<title>Node6</title>
<g id="a_node6"><a xlink:title=" ">
<polygon fill="white" stroke="#bfbfbf" points="129.79,-0.5 129.79,-19.5 183.79,-19.5 183.79,-0.5 129.79,-0.5"/>
<text text-anchor="middle" x="156.79" y="-7.5" font-family="Helvetica,sans-Serif" font-size="10.00">iostream</text>
</a>
</g>
</g>
<!-- Node1&#45;&gt;Node6 -->
<g id="edge34" class="edge">
<title>Node1&#45;&gt;Node6</title>
<path fill="none" stroke="midnightblue" d="M494.25,-232.45C347.97,-230.59 45.69,-222.57 13.79,-188 -39.66,-130.07 77.07,-54.92 131.17,-24.59"/>
<polygon fill="midnightblue" stroke="midnightblue" points="133.12,-27.51 140.19,-19.62 129.74,-21.38 133.12,-27.51"/>
</g>
<!-- Node11 -->
<g id="node11" class="node">
<title>Node11</title>
<g id="a_node11"><a xlink:href="HttpResponse_8hpp.html" target="_top" xlink:title=" ">
<polygon fill="white" stroke="black" points="750.29,-112.5 750.29,-131.5 877.29,-131.5 877.29,-112.5 750.29,-112.5"/>
<text text-anchor="middle" x="813.79" y="-119.5" font-family="Helvetica,sans-Serif" font-size="10.00">../http/HttpResponse.hpp</text>
</a>
</g>
</g>
<!-- Node1&#45;&gt;Node11 -->
<g id="edge56" class="edge">
<title>Node1&#45;&gt;Node11</title>
<path fill="none" stroke="midnightblue" d="M651.58,-232.09C729.05,-229.32 839.54,-219.73 866.79,-188 881.66,-170.68 858.43,-150.19 838.2,-136.91"/>
<polygon fill="midnightblue" stroke="midnightblue" points="839.88,-133.84 829.54,-131.53 836.18,-139.78 839.88,-133.84"/>
</g>
<!-- Node12 -->
<g id="node12" class="node">
<title>Node12</title>
<g id="a_node12"><a xlink:title=" ">
<polygon fill="white" stroke="#bfbfbf" points="273.29,-168.5 273.29,-187.5 322.29,-187.5 322.29,-168.5 273.29,-168.5"/>
<text text-anchor="middle" x="297.79" y="-175.5" font-family="Helvetica,sans-Serif" font-size="10.00">dirent.h</text>
</a>
</g>
</g>
<!-- Node1&#45;&gt;Node12 -->
<g id="edge27" class="edge">
<title>Node1&#45;&gt;Node12</title>
<path fill="none" stroke="midnightblue" d="M520.85,-224.45C474.09,-216.49 403.28,-203.8 332.59,-188.04"/>
<polygon fill="midnightblue" stroke="midnightblue" points="333.14,-184.58 322.62,-185.8 331.61,-191.41 333.14,-184.58"/>
</g>
<!-- Node13 -->
<g id="node13" class="node">
<title>Node13</title>
<g id="a_node13"><a xlink:title=" ">
<polygon fill="white" stroke="#bfbfbf" points="340.79,-168.5 340.79,-187.5 400.79,-187.5 400.79,-168.5 340.79,-168.5"/>
<text text-anchor="middle" x="370.79" y="-175.5" font-family="Helvetica,sans-Serif" font-size="10.00">sys/stat.h</text>
</a>
</g>
</g>
<!-- Node1&#45;&gt;Node13 -->
<g id="edge28" class="edge">
<title>Node1&#45;&gt;Node13</title>
<path fill="none" stroke="midnightblue" d="M540.78,-224.44C505.55,-215.03 448.86,-199.87 410.74,-189.68"/>
<polygon fill="midnightblue" stroke="midnightblue" points="411.56,-186.28 401,-187.08 409.75,-193.04 411.56,-186.28"/>
</g>
<!-- Node14 -->
<g id="node14" class="node">
<title>Node14</title>
<g id="a_node14"><a xlink:title=" ">
<polygon fill="white" stroke="#bfbfbf" points="419.29,-168.5 419.29,-187.5 470.29,-187.5 470.29,-168.5 419.29,-168.5"/>
<text text-anchor="middle" x="444.79" y="-175.5" font-family="Helvetica,sans-Serif" font-size="10.00">unistd.h</text>
</a>
</g>
</g>
<!-- Node1&#45;&gt;Node14 -->
<g id="edge29" class="edge">
<title>Node1&#45;&gt;Node14</title>
<path fill="none" stroke="midnightblue" d="M552.51,-224.44C531.44,-215.56 498.27,-201.56 474.3,-191.45"/>
<polygon fill="midnightblue" stroke="midnightblue" points="475.55,-188.18 464.98,-187.52 472.83,-194.63 475.55,-188.18"/>
</g>
<!-- Node15 -->
<g id="node15" class="node">
<title>Node15</title>
<g id="a_node15"><a xlink:title=" ">
<polygon fill="white" stroke="#bfbfbf" points="488.29,-168.5 488.29,-187.5 529.29,-187.5 529.29,-168.5 488.29,-168.5"/>
<text text-anchor="middle" x="508.79" y="-175.5" font-family="Helvetica,sans-Serif" font-size="10.00">ctime</text>
</a>
</g>
</g>
<!-- Node1&#45;&gt;Node15 -->
<g id="edge30" class="edge">
<title>Node1&#45;&gt;Node15</title>
<path fill="none" stroke="midnightblue" d="M562.51,-224.32C552.95,-216.26 538.51,-204.08 527,-194.37"/>
<polygon fill="midnightblue" stroke="midnightblue" points="529.16,-191.61 519.26,-187.83 524.64,-196.96 529.16,-191.61"/>
</g>
<!-- Node16 -->
<g id="node16" class="node">
<title>Node16</title>
<g id="a_node16"><a xlink:title=" ">
<polygon fill="white" stroke="#bfbfbf" points="547.79,-168.5 547.79,-187.5 597.79,-187.5 597.79,-168.5 547.79,-168.5"/>
<text text-anchor="middle" x="572.79" y="-175.5" font-family="Helvetica,sans-Serif" font-size="10.00">fstream</text>
</a>
</g>
</g>
<!-- Node1&#45;&gt;Node16 -->
<g id="edge31" class="edge">
<title>Node1&#45;&gt;Node16</title>
<path fill="none" stroke="midnightblue" d="M572.79,-224.08C572.79,-217.01 572.79,-206.86 572.79,-197.99"/>
<polygon fill="midnightblue" stroke="midnightblue" points="576.29,-197.75 572.79,-187.75 569.29,-197.75 576.29,-197.75"/>
</g>
<!-- Node17 -->
<g id="node17" class="node">
<title>Node17</title>
<g id="a_node17"><a xlink:title=" ">
<polygon fill="white" stroke="#bfbfbf" points="615.79,-168.5 615.79,-187.5 667.79,-187.5 667.79,-168.5 615.79,-168.5"/>
<text text-anchor="middle" x="641.79" y="-175.5" font-family="Helvetica,sans-Serif" font-size="10.00">sstream</text>
</a>
</g>
</g>
<!-- Node1&#45;&gt;Node17 -->
<g id="edge32" class="edge">
<title>Node1&#45;&gt;Node17</title>
<path fill="none" stroke="midnightblue" d="M583.87,-224.32C594.27,-216.18 610.05,-203.84 622.51,-194.09"/>
<polygon fill="midnightblue" stroke="midnightblue" points="624.78,-196.75 630.5,-187.83 620.47,-191.24 624.78,-196.75"/>
</g>
<!-- Node18 -->
<g id="node18" class="node">
<title>Node18</title>
<g id="a_node18"><a xlink:title=" ">
<polygon fill="white" stroke="#bfbfbf" points="685.79,-168.5 685.79,-187.5 725.79,-187.5 725.79,-168.5 685.79,-168.5"/>
<text text-anchor="middle" x="705.79" y="-175.5" font-family="Helvetica,sans-Serif" font-size="10.00">utility</text>
</a>
</g>
</g>
<!-- Node1&#45;&gt;Node18 -->
<g id="edge33" class="edge">
<title>Node1&#45;&gt;Node18</title>
<path fill="none" stroke="midnightblue" d="M593.86,-224.44C616.11,-215.41 651.34,-201.11 676.33,-190.96"/>
<polygon fill="midnightblue" stroke="midnightblue" points="677.73,-194.17 685.68,-187.16 675.1,-187.68 677.73,-194.17"/>
</g>
<!-- Node19 -->
<g id="node19" class="node">
<title>Node19</title>
<g id="a_node19"><a xlink:href="AutoindexRenderer_8hpp.html" target="_top" xlink:title=" ">
<polygon fill="white" stroke="black" points="933.79,-56.5 933.79,-75.5 1051.79,-75.5 1051.79,-56.5 933.79,-56.5"/>
<text text-anchor="middle" x="992.79" y="-63.5" font-family="Helvetica,sans-Serif" font-size="10.00">AutoindexRenderer.hpp</text>
</a>
</g>
</g>
<!-- Node1&#45;&gt;Node19 -->
<g id="edge35" class="edge">
<title>Node1&#45;&gt;Node19</title>
<path fill="none" stroke="midnightblue" d="M651.31,-230.77C773.66,-226.47 998.39,-214.96 1022.79,-188 1049.3,-158.7 1022.74,-109.65 1005.32,-83.92"/>
<polygon fill="midnightblue" stroke="midnightblue" points="1008.06,-81.73 999.43,-75.58 1002.34,-85.76 1008.06,-81.73"/>
</g>
<!-- Node20 -->
<g id="node20" class="node">
<title>Node20</title>
<g id="a_node20"><a xlink:href="ErrorUtils_8hpp.html" target="_top" xlink:title=" ">
<polygon fill="white" stroke="black" points="178.29,-168.5 178.29,-187.5 255.29,-187.5 255.29,-168.5 178.29,-168.5"/>
<text text-anchor="middle" x="216.79" y="-175.5" font-family="Helvetica,sans-Serif" font-size="10.00">ErrorUtils.hpp</text>
</a>
</g>
</g>
<!-- Node1&#45;&gt;Node20 -->
<g id="edge38" class="edge">
<title>Node1&#45;&gt;Node20</title>
<path fill="none" stroke="midnightblue" d="M508.45,-224.48C448.11,-216.3 355.14,-203.2 265.55,-188.24"/>
<polygon fill="midnightblue" stroke="midnightblue" points="265.93,-184.76 255.49,-186.55 264.77,-191.66 265.93,-184.76"/>
</g>
<!-- Node21 -->
<g id="node21" class="node">
<title>Node21</title>
<g id="a_node21"><a xlink:href="RequestProcessorUtils_8hpp.html" target="_top" xlink:title=" ">
<polygon fill="white" stroke="black" points="23.29,-168.5 23.29,-187.5 160.29,-187.5 160.29,-168.5 23.29,-168.5"/>
<text text-anchor="middle" x="91.79" y="-175.5" font-family="Helvetica,sans-Serif" font-size="10.00">RequestProcessorUtils.hpp</text>
</a>
</g>
</g>
<!-- Node1&#45;&gt;Node21 -->
<g id="edge42" class="edge">
<title>Node1&#45;&gt;Node21</title>
<path fill="none" stroke="midnightblue" d="M495.33,-224.5C416.21,-215.79 289.54,-201.76 170.64,-188.21"/>
<polygon fill="midnightblue" stroke="midnightblue" points="170.97,-184.72 160.63,-187.07 170.17,-191.68 170.97,-184.72"/>
</g>
<!-- Node22 -->
<g id="node22" class="node">
<title>Node22</title>
<g id="a_node22"><a xlink:href="ResponseUtils_8hpp.html" target="_top" xlink:title=" ">
<polygon fill="white" stroke="black" points="913.79,-168.5 913.79,-187.5 1013.79,-187.5 1013.79,-168.5 913.79,-168.5"/>
<text text-anchor="middle" x="963.79" y="-175.5" font-family="Helvetica,sans-Serif" font-size="10.00">ResponseUtils.hpp</text>
</a>
</g>
</g>
<!-- Node1&#45;&gt;Node22 -->
<g id="edge48" class="edge">
<title>Node1&#45;&gt;Node22</title>
<path fill="none" stroke="midnightblue" d="M635.18,-224.47C700.99,-215.46 807.7,-200.81 899.79,-188 901.04,-187.83 902.3,-187.65 903.58,-187.47"/>
<polygon fill="midnightblue" stroke="midnightblue" points="904.06,-190.94 913.48,-186.09 903.09,-184.01 904.06,-190.94"/>
</g>
<!-- Node23 -->
<g id="node23" class="node">
<title>Node23</title>
<g id="a_node23"><a xlink:href="common_2StringUtils_8hpp.html" target="_top" xlink:title=" ">
<polygon fill="white" stroke="black" points="1069.79,-168.5 1069.79,-187.5 1191.79,-187.5 1191.79,-168.5 1069.79,-168.5"/>
<text text-anchor="middle" x="1130.79" y="-175.5" font-family="Helvetica,sans-Serif" font-size="10.00">common/StringUtils.hpp</text>
</a>
</g>
</g>
<!-- Node1&#45;&gt;Node23 -->
<g id="edge53" class="edge">
<title>Node1&#45;&gt;Node23</title>
<path fill="none" stroke="midnightblue" d="M651.49,-226.31C747.15,-218.04 913.43,-203.17 1055.79,-188 1056.9,-187.88 1058.01,-187.76 1059.14,-187.64"/>
<polygon fill="midnightblue" stroke="midnightblue" points="1059.86,-191.08 1069.41,-186.5 1059.08,-184.12 1059.86,-191.08"/>
</g>
<!-- Node3 -->
<g id="node3" class="node">
<title>Node3</title>
<g id="a_node3"><a xlink:title=" ">
<polygon fill="white" stroke="#bfbfbf" points="801.29,-0.5 801.29,-19.5 842.29,-19.5 842.29,-0.5 801.29,-0.5"/>
<text text-anchor="middle" x="821.79" y="-7.5" font-family="Helvetica,sans-Serif" font-size="10.00">string</text>
</a>
</g>
</g>
<!-- Node2&#45;&gt;Node3 -->
<g id="edge2" class="edge">
<title>Node2&#45;&gt;Node3</title>
<path fill="none" stroke="midnightblue" d="M834.59,-168.39C853.18,-161.74 874.68,-150.45 885.79,-132 908.02,-95.07 866.63,-49.74 840.6,-26.44"/>
<polygon fill="midnightblue" stroke="midnightblue" points="842.65,-23.58 832.79,-19.69 838.07,-28.88 842.65,-23.58"/>
</g>
<!-- Node4 -->
<g id="node4" class="node">
<title>Node4</title>
<g id="a_node4"><a xlink:title=" ">
<polygon fill="white" stroke="#bfbfbf" points="649.79,-0.5 649.79,-19.5 693.79,-19.5 693.79,-0.5 649.79,-0.5"/>
<text text-anchor="middle" x="671.79" y="-7.5" font-family="Helvetica,sans-Serif" font-size="10.00">vector</text>
</a>
</g>
</g>
<!-- Node2&#45;&gt;Node4 -->
<g id="edge3" class="edge">
<title>Node2&#45;&gt;Node4</title>
<path fill="none" stroke="midnightblue" d="M786.12,-168.42C773.07,-160.27 754.05,-147.04 740.79,-132 733.14,-123.33 698.39,-60.05 681.32,-28.62"/>
<polygon fill="midnightblue" stroke="midnightblue" points="684.29,-26.77 676.45,-19.64 678.14,-30.1 684.29,-26.77"/>
</g>
<!-- Node5 -->
<g id="node5" class="node">
<title>Node5</title>
<g id="a_node5"><a xlink:href="LocationConfig_8hpp.html" target="_top" xlink:title=" ">
<polygon fill="white" stroke="black" points="146.29,-56.5 146.29,-75.5 285.29,-75.5 285.29,-56.5 146.29,-56.5"/>
<text text-anchor="middle" x="215.79" y="-63.5" font-family="Helvetica,sans-Serif" font-size="10.00">../config/LocationConfig.hpp</text>
</a>
</g>
</g>
<!-- Node2&#45;&gt;Node5 -->
<g id="edge4" class="edge">
<title>Node2&#45;&gt;Node5</title>
<path fill="none" stroke="midnightblue" d="M755.37,-168.46C649.44,-148.54 386.3,-99.06 271.19,-77.42"/>
<polygon fill="midnightblue" stroke="midnightblue" points="271.65,-73.94 261.18,-75.53 270.36,-80.82 271.65,-73.94"/>
</g>
<!-- Node8 -->
<g id="node8" class="node">
<title>Node8</title>
<g id="a_node8"><a xlink:href="ServerConfig_8hpp.html" target="_top" xlink:title=" ">
<polygon fill="white" stroke="black" points="151.29,-112.5 151.29,-131.5 282.29,-131.5 282.29,-112.5 151.29,-112.5"/>
<text text-anchor="middle" x="216.79" y="-119.5" font-family="Helvetica,sans-Serif" font-size="10.00">../config/ServerConfig.hpp</text>
</a>
</g>
</g>
<!-- Node2&#45;&gt;Node8 -->
<g id="edge9" class="edge">
<title>Node2&#45;&gt;Node8</title>
<path fill="none" stroke="midnightblue" d="M743.57,-169.02C740.6,-168.66 737.66,-168.32 734.79,-168 577.8,-150.49 393.4,-135.89 292.41,-128.41"/>
<polygon fill="midnightblue" stroke="midnightblue" points="292.54,-124.91 282.31,-127.66 292.02,-131.89 292.54,-124.91"/>
</g>
<!-- Node10 -->
<g id="node10" class="node">
<title>Node10</title>
<g id="a_node10"><a xlink:href="HttpRequest_8hpp.html" target="_top" xlink:title=" ">
<polygon fill="white" stroke="black" points="568.29,-56.5 568.29,-75.5 687.29,-75.5 687.29,-56.5 568.29,-56.5"/>
<text text-anchor="middle" x="627.79" y="-63.5" font-family="Helvetica,sans-Serif" font-size="10.00">../http/HttpRequest.hpp</text>
</a>
</g>
</g>
<!-- Node2&#45;&gt;Node10 -->
<g id="edge17" class="edge">
<title>Node2&#45;&gt;Node10</title>
<path fill="none" stroke="midnightblue" d="M752.53,-168.5C726.01,-161.95 693.75,-150.75 669.79,-132 654.12,-119.74 642.53,-99.92 635.54,-85.38"/>
<polygon fill="midnightblue" stroke="midnightblue" points="638.57,-83.59 631.27,-75.92 632.19,-86.47 638.57,-83.59"/>
</g>
<!-- Node2&#45;&gt;Node11 -->
<g id="edge22" class="edge">
<title>Node2&#45;&gt;Node11</title>
<path fill="none" stroke="midnightblue" d="M802.94,-168.08C804.66,-160.93 807.14,-150.64 809.29,-141.69"/>
<polygon fill="midnightblue" stroke="midnightblue" points="812.74,-142.29 811.68,-131.75 805.94,-140.65 812.74,-142.29"/>
</g>
<!-- Node5&#45;&gt;Node3 -->
<g id="edge7" class="edge">
<title>Node5&#45;&gt;Node3</title>
<path fill="none" stroke="midnightblue" d="M285.3,-58.81C416.89,-47.08 697.53,-22.07 790.87,-13.75"/>
<polygon fill="midnightblue" stroke="midnightblue" points="791.41,-17.22 801.06,-12.85 790.79,-10.25 791.41,-17.22"/>
</g>
<!-- Node5&#45;&gt;Node4 -->
<g id="edge8" class="edge">
<title>Node5&#45;&gt;Node4</title>
<path fill="none" stroke="midnightblue" d="M285.54,-56.74C385.65,-44.88 566.09,-23.52 639.45,-14.83"/>
<polygon fill="midnightblue" stroke="midnightblue" points="639.96,-18.29 649.48,-13.64 639.13,-11.34 639.96,-18.29"/>
</g>
<!-- Node5&#45;&gt;Node6 -->
<g id="edge5" class="edge">
<title>Node5&#45;&gt;Node6</title>
<path fill="none" stroke="midnightblue" d="M206.31,-56.32C197.59,-48.34 184.45,-36.31 173.89,-26.65"/>
<polygon fill="midnightblue" stroke="midnightblue" points="176.18,-24 166.44,-19.83 171.45,-29.17 176.18,-24"/>
</g>
<!-- Node7 -->
<g id="node7" class="node">
<title>Node7</title>
<g id="a_node7"><a xlink:title=" ">
<polygon fill="white" stroke="#bfbfbf" points="257.29,-0.5 257.29,-19.5 292.29,-19.5 292.29,-0.5 257.29,-0.5"/>
<text text-anchor="middle" x="274.79" y="-7.5" font-family="Helvetica,sans-Serif" font-size="10.00">map</text>
</a>
</g>
</g>
<!-- Node5&#45;&gt;Node7 -->
<g id="edge6" class="edge">
<title>Node5&#45;&gt;Node7</title>
<path fill="none" stroke="midnightblue" d="M225.27,-56.32C233.99,-48.34 247.13,-36.31 257.69,-26.65"/>
<polygon fill="midnightblue" stroke="midnightblue" points="260.12,-29.17 265.14,-19.83 255.4,-24 260.12,-29.17"/>
</g>
<!-- Node8&#45;&gt;Node3 -->
<g id="edge12" class="edge">
<title>Node8&#45;&gt;Node3</title>
<path fill="none" stroke="midnightblue" d="M240.18,-112.45C263.4,-103.81 299.89,-89.79 330.79,-76 348.94,-67.9 351.7,-61.52 370.79,-56 411,-44.37 695.99,-20.98 791.03,-13.42"/>
<polygon fill="midnightblue" stroke="midnightblue" points="791.45,-16.9 801.15,-12.62 790.9,-9.92 791.45,-16.9"/>
</g>
<!-- Node8&#45;&gt;Node4 -->
<g id="edge13" class="edge">
<title>Node8&#45;&gt;Node4</title>
<path fill="none" stroke="midnightblue" d="M231.19,-112.42C258.24,-96.44 315.9,-63.1 337.79,-56 444.64,-21.37 579.06,-13.37 639.61,-11.54"/>
<polygon fill="midnightblue" stroke="midnightblue" points="639.8,-15.03 649.7,-11.27 639.61,-8.04 639.8,-15.03"/>
</g>
<!-- Node8&#45;&gt;Node5 -->
<g id="edge14" class="edge">
<title>Node8&#45;&gt;Node5</title>
<path fill="none" stroke="midnightblue" d="M216.62,-112.08C216.49,-105.01 216.3,-94.86 216.14,-85.99"/>
<polygon fill="midnightblue" stroke="midnightblue" points="219.64,-85.68 215.95,-75.75 212.64,-85.81 219.64,-85.68"/>
</g>
<!-- Node8&#45;&gt;Node6 -->
<g id="edge10" class="edge">
<title>Node8&#45;&gt;Node6</title>
<path fill="none" stroke="midnightblue" d="M180.94,-112.4C161.91,-105.81 140.16,-94.59 128.79,-76 119.23,-60.38 130.3,-40.91 141.21,-27.37"/>
<polygon fill="midnightblue" stroke="midnightblue" points="143.88,-29.64 147.8,-19.8 138.6,-25.04 143.88,-29.64"/>
</g>
<!-- Node8&#45;&gt;Node7 -->
<g id="edge11" class="edge">
<title>Node8&#45;&gt;Node7</title>
<path fill="none" stroke="midnightblue" d="M190.24,-112.45C160.55,-101.45 118.81,-80.77 136.79,-56 161.92,-21.37 214.43,-12.88 246.94,-11.09"/>
<polygon fill="midnightblue" stroke="midnightblue" points="247.26,-14.58 257.13,-10.71 247,-7.59 247.26,-14.58"/>
</g>
<!-- Node9 -->
<g id="node9" class="node">
<title>Node9</title>
<g id="a_node9"><a xlink:href="namespaces_8hpp.html" target="_top" xlink:title=" ">
<polygon fill="white" stroke="black" points="380.29,-56.5 380.29,-75.5 511.29,-75.5 511.29,-56.5 380.29,-56.5"/>
<text text-anchor="middle" x="445.79" y="-63.5" font-family="Helvetica,sans-Serif" font-size="10.00">common/namespaces.hpp</text>
</a>
</g>
</g>
<!-- Node8&#45;&gt;Node9 -->
<g id="edge15" class="edge">
<title>Node8&#45;&gt;Node9</title>
<path fill="none" stroke="midnightblue" d="M253.07,-112.44C292.77,-103.08 356.5,-88.06 399.7,-77.87"/>
<polygon fill="midnightblue" stroke="midnightblue" points="400.74,-81.22 409.67,-75.52 399.14,-74.41 400.74,-81.22"/>
</g>
<!-- Node9&#45;&gt;Node3 -->
<g id="edge16" class="edge">
<title>Node9&#45;&gt;Node3</title>
<path fill="none" stroke="midnightblue" d="M505.37,-56.44C586.6,-44.78 729.12,-24.31 791.31,-15.38"/>
<polygon fill="midnightblue" stroke="midnightblue" points="791.87,-18.83 801.27,-13.95 790.88,-11.9 791.87,-18.83"/>
</g>
<!-- Node10&#45;&gt;Node3 -->
<g id="edge20" class="edge">
<title>Node10&#45;&gt;Node3</title>
<path fill="none" stroke="midnightblue" d="M658.53,-56.44C694.8,-46.35 754.75,-29.66 791.03,-19.56"/>
<polygon fill="midnightblue" stroke="midnightblue" points="792.34,-22.83 801.04,-16.78 790.46,-16.09 792.34,-22.83"/>
</g>
<!-- Node10&#45;&gt;Node4 -->
<g id="edge21" class="edge">
<title>Node10&#45;&gt;Node4</title>
<path fill="none" stroke="midnightblue" d="M635.05,-56.08C641.33,-48.38 650.58,-37.03 658.22,-27.65"/>
<polygon fill="midnightblue" stroke="midnightblue" points="661.05,-29.71 664.66,-19.75 655.63,-25.29 661.05,-29.71"/>
</g>
<!-- Node10&#45;&gt;Node6 -->
<g id="edge18" class="edge">
<title>Node10&#45;&gt;Node6</title>
<path fill="none" stroke="midnightblue" d="M568.14,-58.16C469.59,-46.86 275.58,-24.62 194.16,-15.28"/>
<polygon fill="midnightblue" stroke="midnightblue" points="194.22,-11.77 183.89,-14.11 193.43,-18.72 194.22,-11.77"/>
</g>
<!-- Node10&#45;&gt;Node7 -->
<g id="edge19" class="edge">
<title>Node10&#45;&gt;Node7</title>
<path fill="none" stroke="midnightblue" d="M571.85,-56.44C495.33,-44.74 360.88,-24.17 302.81,-15.29"/>
<polygon fill="midnightblue" stroke="midnightblue" points="302.98,-11.77 292.57,-13.72 301.92,-18.69 302.98,-11.77"/>
</g>
<!-- Node11&#45;&gt;Node3 -->
<g id="edge24" class="edge">
<title>Node11&#45;&gt;Node3</title>
<path fill="none" stroke="midnightblue" d="M814.42,-112.37C815.71,-94.62 818.69,-53.67 820.44,-29.6"/>
<polygon fill="midnightblue" stroke="midnightblue" points="823.93,-29.82 821.16,-19.59 816.95,-29.31 823.93,-29.82"/>
</g>
<!-- Node11&#45;&gt;Node4 -->
<g id="edge25" class="edge">
<title>Node11&#45;&gt;Node4</title>
<path fill="none" stroke="midnightblue" d="M809.55,-112.34C802.53,-98.76 787.3,-72.32 767.79,-56 748.83,-40.14 723.34,-28.53 703.39,-21.08"/>
<polygon fill="midnightblue" stroke="midnightblue" points="704.41,-17.73 693.81,-17.67 702.05,-24.32 704.41,-17.73"/>
</g>
<!-- Node11&#45;&gt;Node7 -->
<g id="edge23" class="edge">
<title>Node11&#45;&gt;Node7</title>
<path fill="none" stroke="midnightblue" d="M802.11,-112.47C781.71,-98.07 737.73,-69.2 695.79,-56 553.32,-11.15 371.79,-9.15 302.96,-10.23"/>
<polygon fill="midnightblue" stroke="midnightblue" points="302.47,-6.74 292.54,-10.43 302.6,-13.74 302.47,-6.74"/>
</g>
<!-- Node11&#45;&gt;Node10 -->
<g id="edge26" class="edge">
<title>Node11&#45;&gt;Node10</title>
<path fill="none" stroke="midnightblue" d="M784.32,-112.44C752.62,-103.24 702.06,-88.56 667.01,-78.39"/>
<polygon fill="midnightblue" stroke="midnightblue" points="667.7,-74.94 657.12,-75.52 665.75,-81.67 667.7,-74.94"/>
</g>
<!-- Node19&#45;&gt;Node3 -->
<g id="edge36" class="edge">
<title>Node19&#45;&gt;Node3</title>
<path fill="none" stroke="midnightblue" d="M965.69,-56.44C934.76,-46.68 884.29,-30.74 852.09,-20.57"/>
<polygon fill="midnightblue" stroke="midnightblue" points="852.91,-17.16 842.32,-17.48 850.8,-23.83 852.91,-17.16"/>
</g>
<!-- Node19&#45;&gt;Node4 -->
<g id="edge37" class="edge">
<title>Node19&#45;&gt;Node4</title>
<path fill="none" stroke="midnightblue" d="M941.93,-56.44C875.16,-45.21 759.91,-25.82 704.03,-16.42"/>
<polygon fill="midnightblue" stroke="midnightblue" points="704.44,-12.94 694,-14.74 703.28,-19.85 704.44,-12.94"/>
</g>
<!-- Node20&#45;&gt;Node8 -->
<g id="edge39" class="edge">
<title>Node20&#45;&gt;Node8</title>
<path fill="none" stroke="midnightblue" d="M216.79,-168.08C216.79,-161.01 216.79,-150.86 216.79,-141.99"/>
<polygon fill="midnightblue" stroke="midnightblue" points="220.29,-141.75 216.79,-131.75 213.29,-141.75 220.29,-141.75"/>
</g>
<!-- Node20&#45;&gt;Node10 -->
<g id="edge40" class="edge">
<title>Node20&#45;&gt;Node10</title>
<path fill="none" stroke="midnightblue" d="M255.48,-169.35C258.29,-168.87 261.08,-168.41 263.79,-168 334.54,-157.26 522.55,-169.03 583.79,-132 601.6,-121.23 613.82,-100.17 620.78,-84.93"/>
<polygon fill="midnightblue" stroke="midnightblue" points="624.09,-86.09 624.76,-75.52 617.65,-83.36 624.09,-86.09"/>
</g>
<!-- Node20&#45;&gt;Node11 -->
<g id="edge41" class="edge">
<title>Node20&#45;&gt;Node11</title>
<path fill="none" stroke="midnightblue" d="M255.46,-169.25C258.28,-168.79 261.07,-168.37 263.79,-168 433.29,-144.91 633.9,-132.14 739.77,-126.52"/>
<polygon fill="midnightblue" stroke="midnightblue" points="740.23,-130 750.03,-125.99 739.86,-123.01 740.23,-130"/>
</g>
<!-- Node21&#45;&gt;Node3 -->
<g id="edge43" class="edge">
<title>Node21&#45;&gt;Node3</title>
<path fill="none" stroke="midnightblue" d="M130.36,-168.49C170.48,-159.58 235.1,-145.1 290.79,-132 392.78,-108 421.61,-112.6 519.79,-76 538.04,-69.2 540.31,-62.16 558.79,-56 640.06,-28.92 741.16,-17.48 791.03,-13.22"/>
<polygon fill="midnightblue" stroke="midnightblue" points="791.47,-16.69 801.15,-12.39 790.9,-9.72 791.47,-16.69"/>
</g>
<!-- Node21&#45;&gt;Node4 -->
<g id="edge44" class="edge">
<title>Node21&#45;&gt;Node4</title>
<path fill="none" stroke="midnightblue" d="M92.04,-168.48C93.22,-145.85 99.84,-84.05 136.79,-56 176.84,-25.59 529.58,-14.47 639.34,-11.73"/>
<polygon fill="midnightblue" stroke="midnightblue" points="639.56,-15.23 649.47,-11.48 639.39,-8.23 639.56,-15.23"/>
</g>
<!-- Node21&#45;&gt;Node5 -->
<g id="edge45" class="edge">
<title>Node21&#45;&gt;Node5</title>
<path fill="none" stroke="midnightblue" d="M97.07,-168.18C105.36,-154.85 122.49,-129.29 141.79,-112 155.84,-99.4 173.9,-88.34 188.66,-80.34"/>
<polygon fill="midnightblue" stroke="midnightblue" points="190.58,-83.28 197.81,-75.54 187.33,-77.09 190.58,-83.28"/>
</g>
<!-- Node21&#45;&gt;Node8 -->
<g id="edge46" class="edge">
<title>Node21&#45;&gt;Node8</title>
<path fill="none" stroke="midnightblue" d="M111.6,-168.44C132.08,-159.6 164.27,-145.69 187.65,-135.59"/>
<polygon fill="midnightblue" stroke="midnightblue" points="189.28,-138.7 197.07,-131.52 186.51,-132.27 189.28,-138.7"/>
</g>
<!-- Node21&#45;&gt;Node10 -->
<g id="edge47" class="edge">
<title>Node21&#45;&gt;Node10</title>
<path fill="none" stroke="midnightblue" d="M160.63,-168.92C163.39,-168.61 166.11,-168.3 168.79,-168 319.37,-151.2 363.09,-176.94 507.79,-132 545.18,-120.39 584.29,-96.69 607.33,-81.34"/>
<polygon fill="midnightblue" stroke="midnightblue" points="609.59,-84.04 615.89,-75.53 605.65,-78.25 609.59,-84.04"/>
</g>
<!-- Node22&#45;&gt;Node3 -->
<g id="edge49" class="edge">
<title>Node22&#45;&gt;Node3</title>
<path fill="none" stroke="midnightblue" d="M980.08,-168.41C1015.83,-148.49 1095.33,-97.66 1060.79,-56 1034.65,-24.49 910.96,-14.89 852.52,-12.1"/>
<polygon fill="midnightblue" stroke="midnightblue" points="852.55,-8.59 842.4,-11.65 852.24,-15.59 852.55,-8.59"/>
</g>
<!-- Node22&#45;&gt;Node4 -->
<g id="edge50" class="edge">
<title>Node22&#45;&gt;Node4</title>
<path fill="none" stroke="midnightblue" d="M954.58,-168.48C940.38,-155.53 912.02,-130.48 885.79,-112 845.72,-83.77 834.98,-77.19 790.79,-56 762.21,-42.3 728.28,-29.82 703.98,-21.49"/>
<polygon fill="midnightblue" stroke="midnightblue" points="704.79,-18.07 694.19,-18.19 702.55,-24.71 704.79,-18.07"/>
</g>
<!-- Node22&#45;&gt;Node10 -->
<g id="edge51" class="edge">
<title>Node22&#45;&gt;Node10</title>
<path fill="none" stroke="midnightblue" d="M913.35,-171.54C867.29,-165.46 797.89,-153.53 740.79,-132 706.32,-119.01 670.01,-96.26 648.13,-81.42"/>
<polygon fill="midnightblue" stroke="midnightblue" points="649.9,-78.39 639.68,-75.59 645.92,-84.15 649.9,-78.39"/>
</g>
<!-- Node22&#45;&gt;Node11 -->
<g id="edge52" class="edge">
<title>Node22&#45;&gt;Node11</title>
<path fill="none" stroke="midnightblue" d="M940.02,-168.44C914.9,-159.4 875.08,-145.06 846.89,-134.92"/>
<polygon fill="midnightblue" stroke="midnightblue" points="848.04,-131.61 837.45,-131.52 845.67,-138.2 848.04,-131.61"/>
</g>
<!-- Node23&#45;&gt;Node3 -->
<g id="edge54" class="edge">
<title>Node23&#45;&gt;Node3</title>
<path fill="none" stroke="midnightblue" d="M1129.84,-168.3C1126.89,-145.76 1115.73,-85.22 1078.79,-56 1044.1,-28.57 912.79,-16.8 852.45,-12.76"/>
<polygon fill="midnightblue" stroke="midnightblue" points="852.59,-9.27 842.39,-12.12 852.14,-16.25 852.59,-9.27"/>
</g>
<!-- Node24 -->
<g id="node24" class="node">
<title>Node24</title>
<g id="a_node24"><a xlink:title=" ">
<polygon fill="white" stroke="#bfbfbf" points="1146.29,-112.5 1146.29,-131.5 1225.29,-131.5 1225.29,-112.5 1146.29,-112.5"/>
<text text-anchor="middle" x="1185.79" y="-119.5" font-family="Helvetica,sans-Serif" font-size="10.00">StringUtils.tpp</text>
</a>
</g>
</g>
<!-- Node23&#45;&gt;Node24 -->
<g id="edge55" class="edge">
<title>Node23&#45;&gt;Node24</title>
<path fill="none" stroke="midnightblue" d="M1139.87,-168.08C1147.96,-160.14 1159.98,-148.34 1169.7,-138.8"/>
<polygon fill="midnightblue" stroke="midnightblue" points="1172.19,-141.25 1176.88,-131.75 1167.29,-136.26 1172.19,-141.25"/>
</g>
</g>
</svg>
