<?xml version="1.0" encoding="UTF-8" standalone="no"?>
<!DOCTYPE svg PUBLIC "-//W3C//DTD SVG 1.1//EN"
 "http://www.w3.org/Graphics/SVG/1.1/DTD/svg11.dtd">
<!-- Generated by graphviz version 2.43.0 (0)
 -->
<!-- Title: RequestProcessor::ProcessingResult Pages: 1 -->
<!--zoomable 397 -->
<svg id="main" version="1.1" xmlns="http://www.w3.org/2000/svg" xmlns:xlink="http://www.w3.org/1999/xlink" xml:space="preserve" onload="init(evt)">
<style type="text/css"><![CDATA[
.edge:hover path { stroke: red; }
.edge:hover polygon { stroke: red; fill: red; }
]]></style>
<script type="text/javascript"><![CDATA[
var edges = document.getElementsByTagName('g');
if (edges && edges.length) {
  for (var i=0;i<edges.length;i++) {
    if (edges[i].id.substr(0,4)=='edge') {
      edges[i].setAttribute('class','edge');
    }
  }
}
]]></script>
        <defs>
                <circle id="rim" cx="0" cy="0" r="7"/>
                <circle id="rim2" cx="0" cy="0" r="3.5"/>
                <g id="zoomPlus">
                        <use xlink:href="#rim" fill="#404040">
                                <set attributeName="fill" to="#808080" begin="zoomplus.mouseover" end="zoomplus.mouseout"/>
                        </use>
                        <path d="M-4,0h8M0,-4v8" fill="none" stroke="white" stroke-width="1.5" pointer-events="none"/>
                </g>
                <g id="zoomMin">
                        <use xlink:href="#rim" fill="#404040">
                                <set attributeName="fill" to="#808080" begin="zoomminus.mouseover" end="zoomminus.mouseout"/>
                        </use>
                        <path d="M-4,0h8" fill="none" stroke="white" stroke-width="1.5" pointer-events="none"/>
                </g>
                <g id="dirArrow">
                        <path fill="none" stroke="white" stroke-width="1.5" d="M0,-3.0v7 M-2.5,-0.5L0,-3.0L2.5,-0.5"/>
                </g>
               <g id="resetDef">
                       <use xlink:href="#rim2" fill="#404040">
                               <set attributeName="fill" to="#808080" begin="reset.mouseover" end="reset.mouseout"/>
                       </use>
               </g>
        </defs>

<script type="text/javascript">
var viewWidth = 1446;
var viewHeight = 397;
var sectionId = 'dynsection-0';
</script>
<script xlink:href="svgpan.js"/>
<svg id="graph" class="graph">
<g id="viewport">
<title>RequestProcessor::ProcessingResult</title>
<polygon fill="white" stroke="transparent" points="-4,4 -4,-393 1442,-393 1442,4 -4,4"/>
<!-- Node1 -->
<g id="node1" class="node">
<title>Node1</title>
<g id="a_node1"><a xlink:title=" ">
<polygon fill="#bfbfbf" stroke="black" points="1286,-57 1286,-87 1438,-87 1438,-57 1286,-57"/>
<text text-anchor="start" x="1294" y="-75" font-family="Helvetica,sans-Serif" font-size="10.00">RequestProcessor::Processing</text>
<text text-anchor="middle" x="1362" y="-64" font-family="Helvetica,sans-Serif" font-size="10.00">Result</text>
</a>
</g>
</g>
<!-- Node2 -->
<g id="node2" class="node">
<title>Node2</title>
<g id="a_node2"><a xlink:href="structRequestProcessor_1_1CgiInfo.html" target="_top" xlink:title=" ">
<polygon fill="white" stroke="black" points="1082,-85.5 1082,-104.5 1217,-104.5 1217,-85.5 1082,-85.5"/>
<text text-anchor="middle" x="1149.5" y="-92.5" font-family="Helvetica,sans-Serif" font-size="10.00">RequestProcessor::CgiInfo</text>
</a>
</g>
</g>
<!-- Node2&#45;&gt;Node1 -->
<g id="edge1" class="edge">
<title>Node2&#45;&gt;Node1</title>
<path fill="none" stroke="#9a32cd" stroke-dasharray="5,2" d="M1227.23,-86.62C1246.28,-84.53 1266.69,-82.3 1285.67,-80.23"/>
<polygon fill="#9a32cd" stroke="#9a32cd" points="1226.66,-83.16 1217.1,-87.72 1227.42,-90.12 1226.66,-83.16"/>
<text text-anchor="middle" x="1251.5" y="-88" font-family="Helvetica,sans-Serif" font-size="10.00"> cgiInfo</text>
</g>
<!-- Node3 -->
<g id="node3" class="node">
<title>Node3</title>
<g id="a_node3"><a xlink:href="classServerConfig.html" target="_top" xlink:title="Configuration of one server { } block Represents a virtual server (nginx&#45;like style).">
<polygon fill="white" stroke="black" points="941,-219.5 941,-238.5 1015,-238.5 1015,-219.5 941,-219.5"/>
<text text-anchor="middle" x="978" y="-226.5" font-family="Helvetica,sans-Serif" font-size="10.00">ServerConfig</text>
</a>
</g>
</g>
<!-- Node3&#45;&gt;Node2 -->
<g id="edge2" class="edge">
<title>Node3&#45;&gt;Node2</title>
<path fill="none" stroke="#9a32cd" stroke-dasharray="5,2" d="M999.41,-212.86C1035.09,-184.66 1107.7,-127.25 1136.42,-104.55"/>
<polygon fill="#9a32cd" stroke="#9a32cd" points="996.86,-210.42 991.19,-219.36 1001.21,-215.91 996.86,-210.42"/>
<text text-anchor="middle" x="1048.5" y="-188" font-family="Helvetica,sans-Serif" font-size="10.00"> server</text>
</g>
<!-- Node4 -->
<g id="node4" class="node">
<title>Node4</title>
<g id="a_node4"><a xlink:title=" ">
<polygon fill="white" stroke="#bfbfbf" points="711,-181.5 711,-200.5 857,-200.5 857,-181.5 711,-181.5"/>
<text text-anchor="middle" x="784" y="-188.5" font-family="Helvetica,sans-Serif" font-size="10.00">std::vector&lt; LocationConfig &gt;</text>
</a>
</g>
</g>
<!-- Node4&#45;&gt;Node3 -->
<g id="edge3" class="edge">
<title>Node4&#45;&gt;Node3</title>
<path fill="none" stroke="#9a32cd" stroke-dasharray="5,2" d="M867.28,-194.14C885.83,-196.12 905.26,-199.21 923,-204 935.97,-207.5 949.69,-213.89 960.06,-219.34"/>
<polygon fill="#9a32cd" stroke="#9a32cd" points="867.38,-190.64 857.09,-193.16 866.71,-197.6 867.38,-190.64"/>
<text text-anchor="middle" x="899" y="-207" font-family="Helvetica,sans-Serif" font-size="10.00"> locations_</text>
</g>
<!-- Node5 -->
<g id="node5" class="node">
<title>Node5</title>
<g id="a_node5"><a xlink:href="classLocationConfig.html" target="_top" xlink:title="Represents the configuration for a specific location within a server block.">
<polygon fill="white" stroke="black" points="526,-181.5 526,-200.5 608,-200.5 608,-181.5 526,-181.5"/>
<text text-anchor="middle" x="567" y="-188.5" font-family="Helvetica,sans-Serif" font-size="10.00">LocationConfig</text>
</a>
</g>
</g>
<!-- Node5&#45;&gt;Node4 -->
<g id="edge4" class="edge">
<title>Node5&#45;&gt;Node4</title>
<path fill="none" stroke="#9a32cd" stroke-dasharray="5,2" d="M618.37,-191C645.89,-191 680.46,-191 710.81,-191"/>
<polygon fill="#9a32cd" stroke="#9a32cd" points="618.19,-187.5 608.19,-191 618.19,-194.5 618.19,-187.5"/>
<text text-anchor="middle" x="659.5" y="-194" font-family="Helvetica,sans-Serif" font-size="10.00"> elements</text>
</g>
<!-- Node6 -->
<g id="node6" class="node">
<title>Node6</title>
<g id="a_node6"><a xlink:title=" ">
<polygon fill="white" stroke="#bfbfbf" points="278.5,-124 278.5,-154 388.5,-154 388.5,-124 278.5,-124"/>
<text text-anchor="start" x="286.5" y="-142" font-family="Helvetica,sans-Serif" font-size="10.00">std::map&lt; std::string,</text>
<text text-anchor="middle" x="333.5" y="-131" font-family="Helvetica,sans-Serif" font-size="10.00"> std::string &gt;</text>
</a>
</g>
</g>
<!-- Node6&#45;&gt;Node5 -->
<g id="edge5" class="edge">
<title>Node6&#45;&gt;Node5</title>
<path fill="none" stroke="#9a32cd" stroke-dasharray="5,2" d="M398.8,-145.08C431.87,-149.19 472.56,-155.78 508,-166 521.49,-169.89 535.99,-176.14 547.11,-181.42"/>
<polygon fill="#9a32cd" stroke="#9a32cd" points="399.15,-141.6 388.8,-143.89 398.31,-148.55 399.15,-141.6"/>
<text text-anchor="middle" x="461" y="-169" font-family="Helvetica,sans-Serif" font-size="10.00"> cgi_handlers_</text>
</g>
<!-- Node11 -->
<g id="node11" class="node">
<title>Node11</title>
<g id="a_node11"><a xlink:href="classHttpResponse.html" target="_top" xlink:title=" ">
<polygon fill="white" stroke="black" points="527,-46.5 527,-65.5 607,-65.5 607,-46.5 527,-46.5"/>
<text text-anchor="middle" x="567" y="-53.5" font-family="Helvetica,sans-Serif" font-size="10.00">HttpResponse</text>
</a>
</g>
</g>
<!-- Node6&#45;&gt;Node11 -->
<g id="edge19" class="edge">
<title>Node6&#45;&gt;Node11</title>
<path fill="none" stroke="#9a32cd" stroke-dasharray="5,2" d="M385.9,-120.57C433.31,-103.57 501.82,-79.01 539.2,-65.61"/>
<polygon fill="#9a32cd" stroke="#9a32cd" points="384.65,-117.3 376.42,-123.97 387.02,-123.89 384.65,-117.3"/>
<text text-anchor="middle" x="461" y="-112" font-family="Helvetica,sans-Serif" font-size="10.00"> _headers</text>
</g>
<!-- Node7 -->
<g id="node7" class="node">
<title>Node7</title>
<g id="a_node7"><a xlink:title=" ">
<polygon fill="white" stroke="#bfbfbf" points="132,-181.5 132,-200.5 192,-200.5 192,-181.5 132,-181.5"/>
<text text-anchor="middle" x="162" y="-188.5" font-family="Helvetica,sans-Serif" font-size="10.00">std::string</text>
</a>
</g>
</g>
<!-- Node7&#45;&gt;Node2 -->
<g id="edge15" class="edge">
<title>Node7&#45;&gt;Node2</title>
<path fill="none" stroke="#9a32cd" stroke-dasharray="5,2" d="M175.69,-173.18C184.32,-162.12 196.58,-148.29 210,-139 257.57,-106.08 274.65,-95 332.5,-95 332.5,-95 332.5,-95 979,-95 1012.84,-95 1050.48,-95 1081.68,-95"/>
<polygon fill="#9a32cd" stroke="#9a32cd" points="172.78,-171.22 169.59,-181.32 178.39,-175.42 172.78,-171.22"/>
<text text-anchor="middle" x="659.5" y="-109" font-family="Helvetica,sans-Serif" font-size="10.00"> interpreterPath</text>
<text text-anchor="middle" x="659.5" y="-98" font-family="Helvetica,sans-Serif" font-size="10.00">scriptPath</text>
</g>
<!-- Node7&#45;&gt;Node3 -->
<g id="edge11" class="edge">
<title>Node7&#45;&gt;Node3</title>
<path fill="none" stroke="#9a32cd" stroke-dasharray="5,2" d="M165.36,-210.57C169.59,-236.95 180.91,-283.63 210,-310 251.95,-348.03 275.88,-345 332.5,-345 332.5,-345 332.5,-345 785,-345 866.78,-345 943.59,-266.94 968.55,-238.89"/>
<polygon fill="#9a32cd" stroke="#9a32cd" points="168.82,-210.04 163.95,-200.63 161.89,-211.02 168.82,-210.04"/>
<text text-anchor="middle" x="567" y="-381" font-family="Helvetica,sans-Serif" font-size="10.00"> host_address_</text>
<text text-anchor="middle" x="567" y="-370" font-family="Helvetica,sans-Serif" font-size="10.00">redirect_url_</text>
<text text-anchor="middle" x="567" y="-359" font-family="Helvetica,sans-Serif" font-size="10.00">root_</text>
<text text-anchor="middle" x="567" y="-348" font-family="Helvetica,sans-Serif" font-size="10.00">server_name_</text>
</g>
<!-- Node7&#45;&gt;Node5 -->
<g id="edge8" class="edge">
<title>Node7&#45;&gt;Node5</title>
<path fill="none" stroke="#9a32cd" stroke-dasharray="5,2" d="M202.52,-191C279.4,-191 448.28,-191 525.74,-191"/>
<polygon fill="#9a32cd" stroke="#9a32cd" points="202.31,-187.5 192.31,-191 202.31,-194.5 202.31,-187.5"/>
<text text-anchor="middle" x="333.5" y="-227" font-family="Helvetica,sans-Serif" font-size="10.00"> path_</text>
<text text-anchor="middle" x="333.5" y="-216" font-family="Helvetica,sans-Serif" font-size="10.00">redirect_url_</text>
<text text-anchor="middle" x="333.5" y="-205" font-family="Helvetica,sans-Serif" font-size="10.00">root_</text>
<text text-anchor="middle" x="333.5" y="-194" font-family="Helvetica,sans-Serif" font-size="10.00">upload_store_</text>
</g>
<!-- Node7&#45;&gt;Node6 -->
<g id="edge6" class="edge">
<title>Node7&#45;&gt;Node6</title>
<path fill="none" stroke="#9a32cd" stroke-dasharray="5,2" d="M180.02,-174.47C188.39,-167.3 199.03,-159.53 210,-155 231.41,-146.16 256.56,-141.93 278.48,-139.99"/>
<polygon fill="#9a32cd" stroke="#9a32cd" points="177.54,-171.99 172.47,-181.29 182.24,-177.18 177.54,-171.99"/>
<text text-anchor="middle" x="231.5" y="-169" font-family="Helvetica,sans-Serif" font-size="10.00"> elements</text>
<text text-anchor="middle" x="231.5" y="-158" font-family="Helvetica,sans-Serif" font-size="10.00">keys</text>
</g>
<!-- Node9 -->
<g id="node9" class="node">
<title>Node9</title>
<g id="a_node9"><a xlink:title=" ">
<polygon fill="white" stroke="#bfbfbf" points="271,-291.5 271,-310.5 396,-310.5 396,-291.5 271,-291.5"/>
<text text-anchor="middle" x="333.5" y="-298.5" font-family="Helvetica,sans-Serif" font-size="10.00">std::vector&lt; std::string &gt;</text>
</a>
</g>
</g>
<!-- Node7&#45;&gt;Node9 -->
<g id="edge10" class="edge">
<title>Node7&#45;&gt;Node9</title>
<path fill="none" stroke="#9a32cd" stroke-dasharray="5,2" d="M168.26,-210.37C174.71,-230.29 187.65,-260.63 210,-277 227.49,-289.8 250,-296.27 270.95,-299.39"/>
<polygon fill="#9a32cd" stroke="#9a32cd" points="171.54,-209.12 165.32,-200.54 164.83,-211.12 171.54,-209.12"/>
<text text-anchor="middle" x="231.5" y="-298" font-family="Helvetica,sans-Serif" font-size="10.00"> elements</text>
</g>
<!-- Node10 -->
<g id="node10" class="node">
<title>Node10</title>
<g id="a_node10"><a xlink:title=" ">
<polygon fill="white" stroke="#bfbfbf" points="414,-208 414,-238 508,-238 508,-208 414,-208"/>
<text text-anchor="start" x="422" y="-226" font-family="Helvetica,sans-Serif" font-size="10.00">std::map&lt; int, std</text>
<text text-anchor="middle" x="461" y="-215" font-family="Helvetica,sans-Serif" font-size="10.00">::string &gt;</text>
</a>
</g>
</g>
<!-- Node7&#45;&gt;Node10 -->
<g id="edge13" class="edge">
<title>Node7&#45;&gt;Node10</title>
<path fill="none" stroke="#9a32cd" stroke-dasharray="5,2" d="M187.72,-205.58C208.98,-217.22 240.89,-232.61 271,-239 325.35,-250.53 340.86,-245.79 396,-239 401.8,-238.29 407.82,-237.22 413.76,-235.98"/>
<polygon fill="#9a32cd" stroke="#9a32cd" points="189.18,-202.39 178.75,-200.54 185.75,-208.49 189.18,-202.39"/>
<text text-anchor="middle" x="231.5" y="-236" font-family="Helvetica,sans-Serif" font-size="10.00"> elements</text>
</g>
<!-- Node7&#45;&gt;Node11 -->
<g id="edge18" class="edge">
<title>Node7&#45;&gt;Node11</title>
<path fill="none" stroke="#9a32cd" stroke-dasharray="5,2" d="M165.72,-171.06C170.26,-145.97 181.83,-103.44 210,-81 257.97,-42.78 444.7,-48.73 526.85,-53.38"/>
<polygon fill="#9a32cd" stroke="#9a32cd" points="162.22,-170.8 164.1,-181.23 169.13,-171.9 162.22,-170.8"/>
<text text-anchor="middle" x="333.5" y="-61" font-family="Helvetica,sans-Serif" font-size="10.00"> _reasonPhrase</text>
</g>
<!-- Node8 -->
<g id="node8" class="node">
<title>Node8</title>
<g id="a_node8"><a xlink:title=" ">
<polygon fill="white" stroke="#bfbfbf" points="0,-176 0,-206 95,-206 95,-176 0,-176"/>
<text text-anchor="start" x="8" y="-194" font-family="Helvetica,sans-Serif" font-size="10.00">std::basic_string&lt;</text>
<text text-anchor="middle" x="47.5" y="-183" font-family="Helvetica,sans-Serif" font-size="10.00"> Char &gt;</text>
</a>
</g>
</g>
<!-- Node8&#45;&gt;Node7 -->
<g id="edge7" class="edge">
<title>Node8&#45;&gt;Node7</title>
<path fill="none" stroke="midnightblue" d="M105.53,-191C114.68,-191 123.8,-191 131.93,-191"/>
<polygon fill="midnightblue" stroke="midnightblue" points="105.23,-187.5 95.23,-191 105.23,-194.5 105.23,-187.5"/>
</g>
<!-- Node9&#45;&gt;Node3 -->
<g id="edge14" class="edge">
<title>Node9&#45;&gt;Node3</title>
<path fill="none" stroke="#9a32cd" stroke-dasharray="5,2" d="M406.68,-294.53C437.85,-291.68 474.73,-288.26 508,-285 692.55,-266.93 740.23,-273.33 923,-242 928.8,-241.01 934.9,-239.75 940.83,-238.41"/>
<polygon fill="#9a32cd" stroke="#9a32cd" points="405.99,-291.08 396.35,-295.47 406.62,-298.05 405.99,-291.08"/>
<text text-anchor="middle" x="659.5" y="-277" font-family="Helvetica,sans-Serif" font-size="10.00"> indexes_</text>
</g>
<!-- Node9&#45;&gt;Node5 -->
<g id="edge9" class="edge">
<title>Node9&#45;&gt;Node5</title>
<path fill="none" stroke="#9a32cd" stroke-dasharray="5,2" d="M373.57,-287.72C381.2,-284.58 388.99,-280.98 396,-277 404.81,-271.99 404.88,-267.41 414,-263 452.72,-244.27 469.67,-259.51 508,-240 527.74,-229.96 546.55,-211.99 557.15,-200.83"/>
<polygon fill="#9a32cd" stroke="#9a32cd" points="372.12,-284.53 364.08,-291.43 374.66,-291.05 372.12,-284.53"/>
<text text-anchor="middle" x="461" y="-277" font-family="Helvetica,sans-Serif" font-size="10.00"> allowed_methods_</text>
<text text-anchor="middle" x="461" y="-266" font-family="Helvetica,sans-Serif" font-size="10.00">indexes_</text>
</g>
<!-- Node10&#45;&gt;Node3 -->
<g id="edge12" class="edge">
<title>Node10&#45;&gt;Node3</title>
<path fill="none" stroke="#9a32cd" stroke-dasharray="5,2" d="M518.38,-223.66C624.83,-224.9 852.66,-227.55 940.98,-228.58"/>
<polygon fill="#9a32cd" stroke="#9a32cd" points="518.2,-220.15 508.16,-223.54 518.11,-227.15 518.2,-220.15"/>
<text text-anchor="middle" x="659.5" y="-228" font-family="Helvetica,sans-Serif" font-size="10.00"> error_pages_</text>
</g>
<!-- Node11&#45;&gt;Node1 -->
<g id="edge16" class="edge">
<title>Node11&#45;&gt;Node1</title>
<path fill="none" stroke="#9a32cd" stroke-dasharray="5,2" d="M617.28,-56C660.86,-56 726.16,-56 783,-56 783,-56 783,-56 1150.5,-56 1195.4,-56 1245.53,-59.66 1285.6,-63.48"/>
<polygon fill="#9a32cd" stroke="#9a32cd" points="617.23,-52.5 607.23,-56 617.23,-59.5 617.23,-52.5"/>
<text text-anchor="middle" x="978" y="-59" font-family="Helvetica,sans-Serif" font-size="10.00"> response</text>
</g>
<!-- Node12 -->
<g id="node12" class="node">
<title>Node12</title>
<g id="a_node12"><a xlink:title=" ">
<polygon fill="white" stroke="#bfbfbf" points="283.5,-0.5 283.5,-19.5 383.5,-19.5 383.5,-0.5 283.5,-0.5"/>
<text text-anchor="middle" x="333.5" y="-7.5" font-family="Helvetica,sans-Serif" font-size="10.00">std::vector&lt; char &gt;</text>
</a>
</g>
</g>
<!-- Node12&#45;&gt;Node11 -->
<g id="edge17" class="edge">
<title>Node12&#45;&gt;Node11</title>
<path fill="none" stroke="#9a32cd" stroke-dasharray="5,2" d="M394.03,-12.98C427.89,-15.72 470.84,-20.97 508,-31 521.76,-34.72 536.5,-41.1 547.68,-46.49"/>
<polygon fill="#9a32cd" stroke="#9a32cd" points="394.06,-9.47 383.83,-12.21 393.53,-16.45 394.06,-9.47"/>
<text text-anchor="middle" x="461" y="-34" font-family="Helvetica,sans-Serif" font-size="10.00"> _body</text>
</g>
</g>
</svg>
        <g id="navigator" transform="translate(0 0)" fill="#404254">
                <rect fill="#f2f5e9" fill-opacity="0.5" stroke="#606060" stroke-width=".5" x="0" y="0" width="60" height="60"/>
                <use id="zoomplus" xlink:href="#zoomPlus" x="17" y="9" onmousedown="handleZoom(evt,'in')"/>
                <use id="zoomminus" xlink:href="#zoomMin" x="42" y="9" onmousedown="handleZoom(evt,'out')"/>
                <use id="reset" xlink:href="#resetDef" x="30" y="36" onmousedown="handleReset()"/>
                <g id="arrowUp" xlink:href="#dirArrow" transform="translate(30 24)" onmousedown="handlePan(0,-1)">
                  <use xlink:href="#rim" fill="#404040">
                        <set attributeName="fill" to="#808080" begin="arrowUp.mouseover" end="arrowUp.mouseout"/>
                  </use>
                  <path fill="none" stroke="white" stroke-width="1.5" d="M0,-3.0v7 M-2.5,-0.5L0,-3.0L2.5,-0.5"/>
                </g>
                <g id="arrowRight" xlink:href="#dirArrow" transform="rotate(90) translate(36 -43)" onmousedown="handlePan(1,0)">
                  <use xlink:href="#rim" fill="#404040">
                        <set attributeName="fill" to="#808080" begin="arrowRight.mouseover" end="arrowRight.mouseout"/>
                  </use>
                  <path fill="none" stroke="white" stroke-width="1.5" d="M0,-3.0v7 M-2.5,-0.5L0,-3.0L2.5,-0.5"/>
                </g>
                <g id="arrowDown" xlink:href="#dirArrow" transform="rotate(180) translate(-30 -48)" onmousedown="handlePan(0,1)">
                  <use xlink:href="#rim" fill="#404040">
                        <set attributeName="fill" to="#808080" begin="arrowDown.mouseover" end="arrowDown.mouseout"/>
                  </use>
                  <path fill="none" stroke="white" stroke-width="1.5" d="M0,-3.0v7 M-2.5,-0.5L0,-3.0L2.5,-0.5"/>
                </g>
                <g id="arrowLeft" xlink:href="#dirArrow" transform="rotate(270) translate(-36 17)" onmousedown="handlePan(-1,0)">
                  <use xlink:href="#rim" fill="#404040">
                        <set attributeName="fill" to="#808080" begin="arrowLeft.mouseover" end="arrowLeft.mouseout"/>
                  </use>
                  <path fill="none" stroke="white" stroke-width="1.5" d="M0,-3.0v7 M-2.5,-0.5L0,-3.0L2.5,-0.5"/>
                </g>
        </g>
        <svg viewBox="0 0 15 15" width="100%" height="30px" preserveAspectRatio="xMaxYMin meet">
         <g id="arrow_out" transform="scale(0.3 0.3)">
          <a xlink:href="structRequestProcessor_1_1ProcessingResult__coll__graph_org.svg" target="_base">
           <rect id="button" ry="5" rx="5" y="6" x="6" height="38" width="38"
                fill="#f2f5e9" fill-opacity="0.5" stroke="#606060" stroke-width="1.0"/>
           <path id="arrow"
             d="M 11.500037,31.436501 C 11.940474,20.09759 22.043105,11.32322 32.158766,21.979434 L 37.068811,17.246167 C 37.068811,17.246167 37.088388,32 37.088388,32 L 22.160133,31.978069 C 22.160133,31.978069 26.997745,27.140456 26.997745,27.140456 C 18.528582,18.264221 13.291696,25.230495 11.500037,31.436501 z"
             style="fill:#404040;"/>
          </a>
         </g>
        </svg>
</svg>
