<?xml version="1.0" encoding="UTF-8" standalone="no"?>
<!DOCTYPE svg PUBLIC "-//W3C//DTD SVG 1.1//EN"
 "http://www.w3.org/Graphics/SVG/1.1/DTD/svg11.dtd">
<!-- Generated by graphviz version 2.43.0 (0)
 -->
<!-- Title: RequestProcessor::CgiInfo Pages: 1 -->
<!--zoomable 346 -->
<svg id="main" version="1.1" xmlns="http://www.w3.org/2000/svg" xmlns:xlink="http://www.w3.org/1999/xlink" xml:space="preserve" onload="init(evt)">
<style type="text/css"><![CDATA[
.edge:hover path { stroke: red; }
.edge:hover polygon { stroke: red; fill: red; }
]]></style>
<script type="text/javascript"><![CDATA[
var edges = document.getElementsByTagName('g');
if (edges && edges.length) {
  for (var i=0;i<edges.length;i++) {
    if (edges[i].id.substr(0,4)=='edge') {
      edges[i].setAttribute('class','edge');
    }
  }
}
]]></script>
        <defs>
                <circle id="rim" cx="0" cy="0" r="7"/>
                <circle id="rim2" cx="0" cy="0" r="3.5"/>
                <g id="zoomPlus">
                        <use xlink:href="#rim" fill="#404040">
                                <set attributeName="fill" to="#808080" begin="zoomplus.mouseover" end="zoomplus.mouseout"/>
                        </use>
                        <path d="M-4,0h8M0,-4v8" fill="none" stroke="white" stroke-width="1.5" pointer-events="none"/>
                </g>
                <g id="zoomMin">
                        <use xlink:href="#rim" fill="#404040">
                                <set attributeName="fill" to="#808080" begin="zoomminus.mouseover" end="zoomminus.mouseout"/>
                        </use>
                        <path d="M-4,0h8" fill="none" stroke="white" stroke-width="1.5" pointer-events="none"/>
                </g>
                <g id="dirArrow">
                        <path fill="none" stroke="white" stroke-width="1.5" d="M0,-3.0v7 M-2.5,-0.5L0,-3.0L2.5,-0.5"/>
                </g>
               <g id="resetDef">
                       <use xlink:href="#rim2" fill="#404040">
                               <set attributeName="fill" to="#808080" begin="reset.mouseover" end="reset.mouseout"/>
                       </use>
               </g>
        </defs>

<script type="text/javascript">
var viewWidth = 1225;
var viewHeight = 346;
var sectionId = 'dynsection-0';
</script>
<script xlink:href="svgpan.js"/>
<svg id="graph" class="graph">
<g id="viewport">
<title>RequestProcessor::CgiInfo</title>
<polygon fill="white" stroke="transparent" points="-4,4 -4,-342.5 1221,-342.5 1221,4 -4,4"/>
<!-- Node1 -->
<g id="node1" class="node">
<title>Node1</title>
<g id="a_node1"><a xlink:title=" ">
<polygon fill="#bfbfbf" stroke="black" points="1082,-222 1082,-241 1217,-241 1217,-222 1082,-222"/>
<text text-anchor="middle" x="1149.5" y="-229" font-family="Helvetica,sans-Serif" font-size="10.00">RequestProcessor::CgiInfo</text>
</a>
</g>
</g>
<!-- Node2 -->
<g id="node2" class="node">
<title>Node2</title>
<g id="a_node2"><a xlink:href="classServerConfig.html" target="_top" xlink:title="Configuration of one server { } block Represents a virtual server (nginx&#45;like style).">
<polygon fill="white" stroke="black" points="941,-137 941,-156 1015,-156 1015,-137 941,-137"/>
<text text-anchor="middle" x="978" y="-144" font-family="Helvetica,sans-Serif" font-size="10.00">ServerConfig</text>
</a>
</g>
</g>
<!-- Node2&#45;&gt;Node1 -->
<g id="edge1" class="edge">
<title>Node2&#45;&gt;Node1</title>
<path fill="none" stroke="#9a32cd" stroke-dasharray="5,2" d="M1007.23,-160.66C1041.87,-178.03 1099.66,-207.01 1129.46,-221.95"/>
<polygon fill="#9a32cd" stroke="#9a32cd" points="1008.62,-157.44 998.11,-156.08 1005.48,-163.7 1008.62,-157.44"/>
<text text-anchor="middle" x="1048.5" y="-192.5" font-family="Helvetica,sans-Serif" font-size="10.00"> server</text>
</g>
<!-- Node3 -->
<g id="node3" class="node">
<title>Node3</title>
<g id="a_node3"><a xlink:title=" ">
<polygon fill="white" stroke="#bfbfbf" points="711,-137 711,-156 857,-156 857,-137 711,-137"/>
<text text-anchor="middle" x="784" y="-144" font-family="Helvetica,sans-Serif" font-size="10.00">std::vector&lt; LocationConfig &gt;</text>
</a>
</g>
</g>
<!-- Node3&#45;&gt;Node2 -->
<g id="edge2" class="edge">
<title>Node3&#45;&gt;Node2</title>
<path fill="none" stroke="#9a32cd" stroke-dasharray="5,2" d="M867.21,-146.5C892.97,-146.5 920.09,-146.5 940.93,-146.5"/>
<polygon fill="#9a32cd" stroke="#9a32cd" points="867.04,-143 857.04,-146.5 867.04,-150 867.04,-143"/>
<text text-anchor="middle" x="899" y="-149.5" font-family="Helvetica,sans-Serif" font-size="10.00"> locations_</text>
</g>
<!-- Node4 -->
<g id="node4" class="node">
<title>Node4</title>
<g id="a_node4"><a xlink:href="classLocationConfig.html" target="_top" xlink:title="Represents the configuration for a specific location within a server block.">
<polygon fill="white" stroke="black" points="526,-137 526,-156 608,-156 608,-137 526,-137"/>
<text text-anchor="middle" x="567" y="-144" font-family="Helvetica,sans-Serif" font-size="10.00">LocationConfig</text>
</a>
</g>
</g>
<!-- Node4&#45;&gt;Node3 -->
<g id="edge3" class="edge">
<title>Node4&#45;&gt;Node3</title>
<path fill="none" stroke="#9a32cd" stroke-dasharray="5,2" d="M618.37,-146.5C645.89,-146.5 680.46,-146.5 710.81,-146.5"/>
<polygon fill="#9a32cd" stroke="#9a32cd" points="618.19,-143 608.19,-146.5 618.19,-150 618.19,-143"/>
<text text-anchor="middle" x="659.5" y="-149.5" font-family="Helvetica,sans-Serif" font-size="10.00"> elements</text>
</g>
<!-- Node5 -->
<g id="node5" class="node">
<title>Node5</title>
<g id="a_node5"><a xlink:title=" ">
<polygon fill="white" stroke="#bfbfbf" points="278.5,-105.5 278.5,-135.5 388.5,-135.5 388.5,-105.5 278.5,-105.5"/>
<text text-anchor="start" x="286.5" y="-123.5" font-family="Helvetica,sans-Serif" font-size="10.00">std::map&lt; std::string,</text>
<text text-anchor="middle" x="333.5" y="-112.5" font-family="Helvetica,sans-Serif" font-size="10.00"> std::string &gt;</text>
</a>
</g>
</g>
<!-- Node5&#45;&gt;Node4 -->
<g id="edge4" class="edge">
<title>Node5&#45;&gt;Node4</title>
<path fill="none" stroke="#9a32cd" stroke-dasharray="5,2" d="M398.87,-127.73C439.55,-132.3 490.85,-138.06 525.81,-141.99"/>
<polygon fill="#9a32cd" stroke="#9a32cd" points="399.1,-124.23 388.78,-126.6 398.32,-131.19 399.1,-124.23"/>
<text text-anchor="middle" x="461" y="-143.5" font-family="Helvetica,sans-Serif" font-size="10.00"> cgi_handlers_</text>
</g>
<!-- Node6 -->
<g id="node6" class="node">
<title>Node6</title>
<g id="a_node6"><a xlink:title=" ">
<polygon fill="white" stroke="#bfbfbf" points="132,-144 132,-163 192,-163 192,-144 132,-144"/>
<text text-anchor="middle" x="162" y="-151" font-family="Helvetica,sans-Serif" font-size="10.00">std::string</text>
</a>
</g>
</g>
<!-- Node6&#45;&gt;Node1 -->
<g id="edge14" class="edge">
<title>Node6&#45;&gt;Node1</title>
<path fill="none" stroke="#9a32cd" stroke-dasharray="5,2" d="M171.49,-172.31C192.28,-215.19 250.1,-316.5 332.5,-316.5 332.5,-316.5 332.5,-316.5 979,-316.5 1045.5,-316.5 1112.59,-263.58 1137.93,-241.25"/>
<polygon fill="#9a32cd" stroke="#9a32cd" points="174.63,-170.77 167.21,-163.21 168.3,-173.75 174.63,-170.77"/>
<text text-anchor="middle" x="659.5" y="-330.5" font-family="Helvetica,sans-Serif" font-size="10.00"> interpreterPath</text>
<text text-anchor="middle" x="659.5" y="-319.5" font-family="Helvetica,sans-Serif" font-size="10.00">scriptPath</text>
</g>
<!-- Node6&#45;&gt;Node2 -->
<g id="edge10" class="edge">
<title>Node6&#45;&gt;Node2</title>
<path fill="none" stroke="#9a32cd" stroke-dasharray="5,2" d="M180.31,-170.33C209.26,-196.63 270.49,-244.5 332.5,-244.5 332.5,-244.5 332.5,-244.5 785,-244.5 862.09,-244.5 939.44,-181.04 966.71,-156.25"/>
<polygon fill="#9a32cd" stroke="#9a32cd" points="182.41,-167.5 172.71,-163.24 177.63,-172.62 182.41,-167.5"/>
<text text-anchor="middle" x="567" y="-280.5" font-family="Helvetica,sans-Serif" font-size="10.00"> host_address_</text>
<text text-anchor="middle" x="567" y="-269.5" font-family="Helvetica,sans-Serif" font-size="10.00">redirect_url_</text>
<text text-anchor="middle" x="567" y="-258.5" font-family="Helvetica,sans-Serif" font-size="10.00">root_</text>
<text text-anchor="middle" x="567" y="-247.5" font-family="Helvetica,sans-Serif" font-size="10.00">server_name_</text>
</g>
<!-- Node6&#45;&gt;Node4 -->
<g id="edge7" class="edge">
<title>Node6&#45;&gt;Node4</title>
<path fill="none" stroke="#9a32cd" stroke-dasharray="5,2" d="M202.2,-157.98C204.84,-158.19 207.45,-158.36 210,-158.5 229.08,-159.51 233.89,-158.61 253,-158.5 366.34,-157.83 395.05,-164.88 508,-155.5 513.79,-155.02 519.87,-154.31 525.84,-153.49"/>
<polygon fill="#9a32cd" stroke="#9a32cd" points="202.32,-154.48 192.04,-157.08 201.69,-161.45 202.32,-154.48"/>
<text text-anchor="middle" x="333.5" y="-196.5" font-family="Helvetica,sans-Serif" font-size="10.00"> path_</text>
<text text-anchor="middle" x="333.5" y="-185.5" font-family="Helvetica,sans-Serif" font-size="10.00">redirect_url_</text>
<text text-anchor="middle" x="333.5" y="-174.5" font-family="Helvetica,sans-Serif" font-size="10.00">root_</text>
<text text-anchor="middle" x="333.5" y="-163.5" font-family="Helvetica,sans-Serif" font-size="10.00">upload_store_</text>
</g>
<!-- Node6&#45;&gt;Node5 -->
<g id="edge5" class="edge">
<title>Node6&#45;&gt;Node5</title>
<path fill="none" stroke="#9a32cd" stroke-dasharray="5,2" d="M196.31,-140.45C200.87,-138.96 205.52,-137.59 210,-136.5 232.09,-131.13 256.89,-127.46 278.37,-125.01"/>
<polygon fill="#9a32cd" stroke="#9a32cd" points="194.9,-137.24 186.6,-143.83 197.2,-143.85 194.9,-137.24"/>
<text text-anchor="middle" x="231.5" y="-150.5" font-family="Helvetica,sans-Serif" font-size="10.00"> elements</text>
<text text-anchor="middle" x="231.5" y="-139.5" font-family="Helvetica,sans-Serif" font-size="10.00">keys</text>
</g>
<!-- Node8 -->
<g id="node8" class="node">
<title>Node8</title>
<g id="a_node8"><a xlink:title=" ">
<polygon fill="white" stroke="#bfbfbf" points="271,-67 271,-86 396,-86 396,-67 271,-67"/>
<text text-anchor="middle" x="333.5" y="-74" font-family="Helvetica,sans-Serif" font-size="10.00">std::vector&lt; std::string &gt;</text>
</a>
</g>
</g>
<!-- Node6&#45;&gt;Node8 -->
<g id="edge9" class="edge">
<title>Node6&#45;&gt;Node8</title>
<path fill="none" stroke="#9a32cd" stroke-dasharray="5,2" d="M179.61,-136.96C188.12,-129.25 198.98,-120.48 210,-114.5 234.07,-101.43 263.29,-92.15 287.15,-86.03"/>
<polygon fill="#9a32cd" stroke="#9a32cd" points="177.13,-134.5 172.26,-143.91 181.93,-139.59 177.13,-134.5"/>
<text text-anchor="middle" x="231.5" y="-117.5" font-family="Helvetica,sans-Serif" font-size="10.00"> elements</text>
</g>
<!-- Node9 -->
<g id="node9" class="node">
<title>Node9</title>
<g id="a_node9"><a xlink:title=" ">
<polygon fill="white" stroke="#bfbfbf" points="414,-19.5 414,-49.5 508,-49.5 508,-19.5 414,-19.5"/>
<text text-anchor="start" x="422" y="-37.5" font-family="Helvetica,sans-Serif" font-size="10.00">std::map&lt; int, std</text>
<text text-anchor="middle" x="461" y="-26.5" font-family="Helvetica,sans-Serif" font-size="10.00">::string &gt;</text>
</a>
</g>
</g>
<!-- Node6&#45;&gt;Node9 -->
<g id="edge12" class="edge">
<title>Node6&#45;&gt;Node9</title>
<path fill="none" stroke="#9a32cd" stroke-dasharray="5,2" d="M171.54,-134.59C179.51,-118.8 192.76,-96.66 210,-82.5 268.06,-34.82 359.26,-29.3 413.97,-30.97"/>
<polygon fill="#9a32cd" stroke="#9a32cd" points="168.24,-133.38 167.07,-143.91 174.55,-136.4 168.24,-133.38"/>
<text text-anchor="middle" x="231.5" y="-85.5" font-family="Helvetica,sans-Serif" font-size="10.00"> elements</text>
</g>
<!-- Node7 -->
<g id="node7" class="node">
<title>Node7</title>
<g id="a_node7"><a xlink:title=" ">
<polygon fill="white" stroke="#bfbfbf" points="0,-138.5 0,-168.5 95,-168.5 95,-138.5 0,-138.5"/>
<text text-anchor="start" x="8" y="-156.5" font-family="Helvetica,sans-Serif" font-size="10.00">std::basic_string&lt;</text>
<text text-anchor="middle" x="47.5" y="-145.5" font-family="Helvetica,sans-Serif" font-size="10.00"> Char &gt;</text>
</a>
</g>
</g>
<!-- Node7&#45;&gt;Node6 -->
<g id="edge6" class="edge">
<title>Node7&#45;&gt;Node6</title>
<path fill="none" stroke="midnightblue" d="M105.53,-153.5C114.68,-153.5 123.8,-153.5 131.93,-153.5"/>
<polygon fill="midnightblue" stroke="midnightblue" points="105.23,-150 95.23,-153.5 105.23,-157 105.23,-150"/>
</g>
<!-- Node8&#45;&gt;Node2 -->
<g id="edge13" class="edge">
<title>Node8&#45;&gt;Node2</title>
<path fill="none" stroke="#9a32cd" stroke-dasharray="5,2" d="M406.37,-77.48C437.64,-78.29 474.67,-79.78 508,-82.5 663.88,-95.22 702.19,-105.27 857,-127.5 885.19,-131.55 917.02,-136.61 940.81,-140.49"/>
<polygon fill="#9a32cd" stroke="#9a32cd" points="406.09,-73.97 396.01,-77.23 405.92,-80.97 406.09,-73.97"/>
<text text-anchor="middle" x="659.5" y="-106.5" font-family="Helvetica,sans-Serif" font-size="10.00"> indexes_</text>
</g>
<!-- Node8&#45;&gt;Node4 -->
<g id="edge8" class="edge">
<title>Node8&#45;&gt;Node4</title>
<path fill="none" stroke="#9a32cd" stroke-dasharray="5,2" d="M406.41,-80.55C438.46,-84.25 476.09,-91.26 508,-104.5 526.6,-112.22 544.89,-126.99 555.81,-136.79"/>
<polygon fill="#9a32cd" stroke="#9a32cd" points="406.53,-77.05 396.22,-79.47 405.79,-84.01 406.53,-77.05"/>
<text text-anchor="middle" x="461" y="-118.5" font-family="Helvetica,sans-Serif" font-size="10.00"> allowed_methods_</text>
<text text-anchor="middle" x="461" y="-107.5" font-family="Helvetica,sans-Serif" font-size="10.00">indexes_</text>
</g>
<!-- Node9&#45;&gt;Node2 -->
<g id="edge11" class="edge">
<title>Node9&#45;&gt;Node2</title>
<path fill="none" stroke="#9a32cd" stroke-dasharray="5,2" d="M518.22,-20.39C610.6,-0.58 796.83,24.82 923,-54.5 953.73,-73.82 969.06,-117.48 974.56,-136.89"/>
<polygon fill="#9a32cd" stroke="#9a32cd" points="517.25,-17.02 508.23,-22.59 518.75,-23.85 517.25,-17.02"/>
<text text-anchor="middle" x="659.5" y="-7.5" font-family="Helvetica,sans-Serif" font-size="10.00"> error_pages_</text>
</g>
</g>
</svg>
        <g id="navigator" transform="translate(0 0)" fill="#404254">
                <rect fill="#f2f5e9" fill-opacity="0.5" stroke="#606060" stroke-width=".5" x="0" y="0" width="60" height="60"/>
                <use id="zoomplus" xlink:href="#zoomPlus" x="17" y="9" onmousedown="handleZoom(evt,'in')"/>
                <use id="zoomminus" xlink:href="#zoomMin" x="42" y="9" onmousedown="handleZoom(evt,'out')"/>
                <use id="reset" xlink:href="#resetDef" x="30" y="36" onmousedown="handleReset()"/>
                <g id="arrowUp" xlink:href="#dirArrow" transform="translate(30 24)" onmousedown="handlePan(0,-1)">
                  <use xlink:href="#rim" fill="#404040">
                        <set attributeName="fill" to="#808080" begin="arrowUp.mouseover" end="arrowUp.mouseout"/>
                  </use>
                  <path fill="none" stroke="white" stroke-width="1.5" d="M0,-3.0v7 M-2.5,-0.5L0,-3.0L2.5,-0.5"/>
                </g>
                <g id="arrowRight" xlink:href="#dirArrow" transform="rotate(90) translate(36 -43)" onmousedown="handlePan(1,0)">
                  <use xlink:href="#rim" fill="#404040">
                        <set attributeName="fill" to="#808080" begin="arrowRight.mouseover" end="arrowRight.mouseout"/>
                  </use>
                  <path fill="none" stroke="white" stroke-width="1.5" d="M0,-3.0v7 M-2.5,-0.5L0,-3.0L2.5,-0.5"/>
                </g>
                <g id="arrowDown" xlink:href="#dirArrow" transform="rotate(180) translate(-30 -48)" onmousedown="handlePan(0,1)">
                  <use xlink:href="#rim" fill="#404040">
                        <set attributeName="fill" to="#808080" begin="arrowDown.mouseover" end="arrowDown.mouseout"/>
                  </use>
                  <path fill="none" stroke="white" stroke-width="1.5" d="M0,-3.0v7 M-2.5,-0.5L0,-3.0L2.5,-0.5"/>
                </g>
                <g id="arrowLeft" xlink:href="#dirArrow" transform="rotate(270) translate(-36 17)" onmousedown="handlePan(-1,0)">
                  <use xlink:href="#rim" fill="#404040">
                        <set attributeName="fill" to="#808080" begin="arrowLeft.mouseover" end="arrowLeft.mouseout"/>
                  </use>
                  <path fill="none" stroke="white" stroke-width="1.5" d="M0,-3.0v7 M-2.5,-0.5L0,-3.0L2.5,-0.5"/>
                </g>
        </g>
        <svg viewBox="0 0 15 15" width="100%" height="30px" preserveAspectRatio="xMaxYMin meet">
         <g id="arrow_out" transform="scale(0.3 0.3)">
          <a xlink:href="structRequestProcessor_1_1CgiInfo__coll__graph_org.svg" target="_base">
           <rect id="button" ry="5" rx="5" y="6" x="6" height="38" width="38"
                fill="#f2f5e9" fill-opacity="0.5" stroke="#606060" stroke-width="1.0"/>
           <path id="arrow"
             d="M 11.500037,31.436501 C 11.940474,20.09759 22.043105,11.32322 32.158766,21.979434 L 37.068811,17.246167 C 37.068811,17.246167 37.088388,32 37.088388,32 L 22.160133,31.978069 C 22.160133,31.978069 26.997745,27.140456 26.997745,27.140456 C 18.528582,18.264221 13.291696,25.230495 11.500037,31.436501 z"
             style="fill:#404040;"/>
          </a>
         </g>
        </svg>
</svg>
