<?xml version="1.0" encoding="UTF-8" standalone="no"?>
<!DOCTYPE svg PUBLIC "-//W3C//DTD SVG 1.1//EN"
 "http://www.w3.org/Graphics/SVG/1.1/DTD/svg11.dtd">
<!-- Generated by graphviz version 2.43.0 (0)
 -->
<!-- Title: src/network/TcpListener.cpp Pages: 1 -->
<svg width="1233pt" height="140pt"
 viewBox="0.00 0.00 1233.00 140.00" xmlns="http://www.w3.org/2000/svg" xmlns:xlink="http://www.w3.org/1999/xlink">
<g id="graph0" class="graph" transform="scale(1 1) rotate(0) translate(4 136)">
<title>src/network/TcpListener.cpp</title>
<polygon fill="white" stroke="transparent" points="-4,4 -4,-136 1229,-136 1229,4 -4,4"/>
<!-- Node1 -->
<g id="node1" class="node">
<title>Node1</title>
<g id="a_node1"><a xlink:title=" ">
<polygon fill="#bfbfbf" stroke="black" points="548,-112.5 548,-131.5 686,-131.5 686,-112.5 548,-112.5"/>
<text text-anchor="middle" x="617" y="-119.5" font-family="Helvetica,sans-Serif" font-size="10.00">src/network/TcpListener.cpp</text>
</a>
</g>
</g>
<!-- Node2 -->
<g id="node2" class="node">
<title>Node2</title>
<g id="a_node2"><a xlink:href="TcpListener_8hpp.html" target="_top" xlink:title=" ">
<polygon fill="white" stroke="black" points="0,-56.5 0,-75.5 84,-75.5 84,-56.5 0,-56.5"/>
<text text-anchor="middle" x="42" y="-63.5" font-family="Helvetica,sans-Serif" font-size="10.00">TcpListener.hpp</text>
</a>
</g>
</g>
<!-- Node1&#45;&gt;Node2 -->
<g id="edge1" class="edge">
<title>Node1&#45;&gt;Node2</title>
<path fill="none" stroke="midnightblue" d="M547.7,-117.02C449.17,-110.92 262.75,-97.77 94.3,-76.06"/>
<polygon fill="midnightblue" stroke="midnightblue" points="94.62,-72.58 84.26,-74.76 93.72,-79.52 94.62,-72.58"/>
</g>
<!-- Node4 -->
<g id="node4" class="node">
<title>Node4</title>
<g id="a_node4"><a xlink:title=" ">
<polygon fill="white" stroke="#bfbfbf" points="102,-56.5 102,-75.5 164,-75.5 164,-56.5 102,-56.5"/>
<text text-anchor="middle" x="133" y="-63.5" font-family="Helvetica,sans-Serif" font-size="10.00">arpa/inet.h</text>
</a>
</g>
</g>
<!-- Node1&#45;&gt;Node4 -->
<g id="edge3" class="edge">
<title>Node1&#45;&gt;Node4</title>
<path fill="none" stroke="midnightblue" d="M547.83,-116.58C462.25,-110.53 311.98,-98.02 174.27,-76.03"/>
<polygon fill="midnightblue" stroke="midnightblue" points="174.8,-72.57 164.37,-74.43 173.69,-79.49 174.8,-72.57"/>
</g>
<!-- Node5 -->
<g id="node5" class="node">
<title>Node5</title>
<g id="a_node5"><a xlink:title=" ">
<polygon fill="white" stroke="#bfbfbf" points="182,-56.5 182,-75.5 226,-75.5 226,-56.5 182,-56.5"/>
<text text-anchor="middle" x="204" y="-63.5" font-family="Helvetica,sans-Serif" font-size="10.00">fcntl.h</text>
</a>
</g>
</g>
<!-- Node1&#45;&gt;Node5 -->
<g id="edge4" class="edge">
<title>Node1&#45;&gt;Node5</title>
<path fill="none" stroke="midnightblue" d="M547.8,-116.31C473.03,-110.46 350.35,-98.61 236.2,-75.94"/>
<polygon fill="midnightblue" stroke="midnightblue" points="236.74,-72.48 226.24,-73.93 235.35,-79.34 236.74,-72.48"/>
</g>
<!-- Node6 -->
<g id="node6" class="node">
<title>Node6</title>
<g id="a_node6"><a xlink:title=" ">
<polygon fill="white" stroke="#bfbfbf" points="244.5,-56.5 244.5,-75.5 293.5,-75.5 293.5,-56.5 244.5,-56.5"/>
<text text-anchor="middle" x="269" y="-63.5" font-family="Helvetica,sans-Serif" font-size="10.00">netdb.h</text>
</a>
</g>
</g>
<!-- Node1&#45;&gt;Node6 -->
<g id="edge5" class="edge">
<title>Node1&#45;&gt;Node6</title>
<path fill="none" stroke="midnightblue" d="M547.75,-113.62C485.96,-106.46 392.87,-94.27 303.79,-76.18"/>
<polygon fill="midnightblue" stroke="midnightblue" points="304.29,-72.71 293.79,-74.12 302.87,-79.56 304.29,-72.71"/>
</g>
<!-- Node7 -->
<g id="node7" class="node">
<title>Node7</title>
<g id="a_node7"><a xlink:title=" ">
<polygon fill="white" stroke="#bfbfbf" points="311.5,-56.5 311.5,-75.5 376.5,-75.5 376.5,-56.5 311.5,-56.5"/>
<text text-anchor="middle" x="344" y="-63.5" font-family="Helvetica,sans-Serif" font-size="10.00">netinet/in.h</text>
</a>
</g>
</g>
<!-- Node1&#45;&gt;Node7 -->
<g id="edge6" class="edge">
<title>Node1&#45;&gt;Node7</title>
<path fill="none" stroke="midnightblue" d="M571.8,-112.45C527.29,-103.98 457.11,-90.46 386.51,-76.07"/>
<polygon fill="midnightblue" stroke="midnightblue" points="387.05,-72.61 376.55,-74.04 385.64,-79.47 387.05,-72.61"/>
</g>
<!-- Node8 -->
<g id="node8" class="node">
<title>Node8</title>
<g id="a_node8"><a xlink:title=" ">
<polygon fill="white" stroke="#bfbfbf" points="395,-56.5 395,-75.5 449,-75.5 449,-56.5 395,-56.5"/>
<text text-anchor="middle" x="422" y="-63.5" font-family="Helvetica,sans-Serif" font-size="10.00">strings.h</text>
</a>
</g>
</g>
<!-- Node1&#45;&gt;Node8 -->
<g id="edge7" class="edge">
<title>Node1&#45;&gt;Node8</title>
<path fill="none" stroke="midnightblue" d="M586.1,-112.44C551.65,-102.9 495.94,-87.47 459.14,-77.28"/>
<polygon fill="midnightblue" stroke="midnightblue" points="459.86,-73.85 449.29,-74.56 458,-80.6 459.86,-73.85"/>
</g>
<!-- Node9 -->
<g id="node9" class="node">
<title>Node9</title>
<g id="a_node9"><a xlink:title=" ">
<polygon fill="white" stroke="#bfbfbf" points="467.5,-56.5 467.5,-75.5 540.5,-75.5 540.5,-56.5 467.5,-56.5"/>
<text text-anchor="middle" x="504" y="-63.5" font-family="Helvetica,sans-Serif" font-size="10.00">sys/socket.h</text>
</a>
</g>
</g>
<!-- Node1&#45;&gt;Node9 -->
<g id="edge8" class="edge">
<title>Node1&#45;&gt;Node9</title>
<path fill="none" stroke="midnightblue" d="M599.09,-112.44C580.75,-103.68 551.99,-89.94 530.91,-79.86"/>
<polygon fill="midnightblue" stroke="midnightblue" points="532.35,-76.67 521.82,-75.52 529.33,-82.99 532.35,-76.67"/>
</g>
<!-- Node10 -->
<g id="node10" class="node">
<title>Node10</title>
<g id="a_node10"><a xlink:title=" ">
<polygon fill="white" stroke="#bfbfbf" points="558.5,-56.5 558.5,-75.5 609.5,-75.5 609.5,-56.5 558.5,-56.5"/>
<text text-anchor="middle" x="584" y="-63.5" font-family="Helvetica,sans-Serif" font-size="10.00">unistd.h</text>
</a>
</g>
</g>
<!-- Node1&#45;&gt;Node10 -->
<g id="edge9" class="edge">
<title>Node1&#45;&gt;Node10</title>
<path fill="none" stroke="midnightblue" d="M611.55,-112.08C606.99,-104.61 600.33,-93.72 594.71,-84.52"/>
<polygon fill="midnightblue" stroke="midnightblue" points="597.55,-82.46 589.35,-75.75 591.58,-86.11 597.55,-82.46"/>
</g>
<!-- Node11 -->
<g id="node11" class="node">
<title>Node11</title>
<g id="a_node11"><a xlink:title=" ">
<polygon fill="white" stroke="#bfbfbf" points="628,-56.5 628,-75.5 672,-75.5 672,-56.5 628,-56.5"/>
<text text-anchor="middle" x="650" y="-63.5" font-family="Helvetica,sans-Serif" font-size="10.00">cerrno</text>
</a>
</g>
</g>
<!-- Node1&#45;&gt;Node11 -->
<g id="edge10" class="edge">
<title>Node1&#45;&gt;Node11</title>
<path fill="none" stroke="midnightblue" d="M622.45,-112.08C627.01,-104.61 633.67,-93.72 639.29,-84.52"/>
<polygon fill="midnightblue" stroke="midnightblue" points="642.42,-86.11 644.65,-75.75 636.45,-82.46 642.42,-86.11"/>
</g>
<!-- Node12 -->
<g id="node12" class="node">
<title>Node12</title>
<g id="a_node12"><a xlink:title=" ">
<polygon fill="white" stroke="#bfbfbf" points="690.5,-56.5 690.5,-75.5 739.5,-75.5 739.5,-56.5 690.5,-56.5"/>
<text text-anchor="middle" x="715" y="-63.5" font-family="Helvetica,sans-Serif" font-size="10.00">cstddef</text>
</a>
</g>
</g>
<!-- Node1&#45;&gt;Node12 -->
<g id="edge11" class="edge">
<title>Node1&#45;&gt;Node12</title>
<path fill="none" stroke="midnightblue" d="M632.75,-112.32C648.32,-103.74 672.38,-90.49 690.46,-80.52"/>
<polygon fill="midnightblue" stroke="midnightblue" points="692.22,-83.55 699.29,-75.65 688.85,-77.42 692.22,-83.55"/>
</g>
<!-- Node13 -->
<g id="node13" class="node">
<title>Node13</title>
<g id="a_node13"><a xlink:title=" ">
<polygon fill="white" stroke="#bfbfbf" points="757.5,-56.5 757.5,-75.5 800.5,-75.5 800.5,-56.5 757.5,-56.5"/>
<text text-anchor="middle" x="779" y="-63.5" font-family="Helvetica,sans-Serif" font-size="10.00">cstdio</text>
</a>
</g>
</g>
<!-- Node1&#45;&gt;Node13 -->
<g id="edge12" class="edge">
<title>Node1&#45;&gt;Node13</title>
<path fill="none" stroke="midnightblue" d="M642.67,-112.44C671.13,-102.96 717.03,-87.66 747.61,-77.46"/>
<polygon fill="midnightblue" stroke="midnightblue" points="748.96,-80.7 757.34,-74.22 746.75,-74.06 748.96,-80.7"/>
</g>
<!-- Node14 -->
<g id="node14" class="node">
<title>Node14</title>
<g id="a_node14"><a xlink:title=" ">
<polygon fill="white" stroke="#bfbfbf" points="819,-56.5 819,-75.5 865,-75.5 865,-56.5 819,-56.5"/>
<text text-anchor="middle" x="842" y="-63.5" font-family="Helvetica,sans-Serif" font-size="10.00">cstring</text>
</a>
</g>
</g>
<!-- Node1&#45;&gt;Node14 -->
<g id="edge13" class="edge">
<title>Node1&#45;&gt;Node14</title>
<path fill="none" stroke="midnightblue" d="M655.35,-112.44C694.18,-103.67 755.9,-89.46 809,-76 809.1,-75.97 809.2,-75.95 809.3,-75.92"/>
<polygon fill="midnightblue" stroke="midnightblue" points="810.16,-79.32 818.95,-73.4 808.39,-72.54 810.16,-79.32"/>
</g>
<!-- Node15 -->
<g id="node15" class="node">
<title>Node15</title>
<g id="a_node15"><a xlink:title=" ">
<polygon fill="white" stroke="#bfbfbf" points="883,-56.5 883,-75.5 937,-75.5 937,-56.5 883,-56.5"/>
<text text-anchor="middle" x="910" y="-63.5" font-family="Helvetica,sans-Serif" font-size="10.00">iostream</text>
</a>
</g>
</g>
<!-- Node1&#45;&gt;Node15 -->
<g id="edge14" class="edge">
<title>Node1&#45;&gt;Node15</title>
<path fill="none" stroke="midnightblue" d="M672.37,-112.48C722.32,-104.53 798.03,-91.82 872.85,-76.12"/>
<polygon fill="midnightblue" stroke="midnightblue" points="873.86,-79.49 882.92,-73.99 872.41,-72.64 873.86,-79.49"/>
</g>
<!-- Node16 -->
<g id="node16" class="node">
<title>Node16</title>
<g id="a_node16"><a xlink:title=" ">
<polygon fill="white" stroke="#bfbfbf" points="955,-56.5 955,-75.5 1007,-75.5 1007,-56.5 955,-56.5"/>
<text text-anchor="middle" x="981" y="-63.5" font-family="Helvetica,sans-Serif" font-size="10.00">sstream</text>
</a>
</g>
</g>
<!-- Node1&#45;&gt;Node16 -->
<g id="edge15" class="edge">
<title>Node1&#45;&gt;Node16</title>
<path fill="none" stroke="midnightblue" d="M686.07,-113.91C750.62,-106.74 849.84,-94.37 944.65,-76.08"/>
<polygon fill="midnightblue" stroke="midnightblue" points="945.56,-79.46 954.7,-74.11 944.22,-72.59 945.56,-79.46"/>
</g>
<!-- Node17 -->
<g id="node17" class="node">
<title>Node17</title>
<g id="a_node17"><a xlink:title=" ">
<polygon fill="white" stroke="#bfbfbf" points="1025.5,-56.5 1025.5,-75.5 1084.5,-75.5 1084.5,-56.5 1025.5,-56.5"/>
<text text-anchor="middle" x="1055" y="-63.5" font-family="Helvetica,sans-Serif" font-size="10.00">stdexcept</text>
</a>
</g>
</g>
<!-- Node1&#45;&gt;Node17 -->
<g id="edge16" class="edge">
<title>Node1&#45;&gt;Node17</title>
<path fill="none" stroke="midnightblue" d="M686.18,-115.62C763.83,-109.03 893.74,-96.39 1015.05,-75.97"/>
<polygon fill="midnightblue" stroke="midnightblue" points="1015.99,-79.36 1025.26,-74.23 1014.81,-72.46 1015.99,-79.36"/>
</g>
<!-- Node18 -->
<g id="node18" class="node">
<title>Node18</title>
<g id="a_node18"><a xlink:href="common_2StringUtils_8hpp.html" target="_top" xlink:title=" ">
<polygon fill="white" stroke="black" points="1103,-56.5 1103,-75.5 1225,-75.5 1225,-56.5 1103,-56.5"/>
<text text-anchor="middle" x="1164" y="-63.5" font-family="Helvetica,sans-Serif" font-size="10.00">common/StringUtils.hpp</text>
</a>
</g>
</g>
<!-- Node1&#45;&gt;Node18 -->
<g id="edge17" class="edge">
<title>Node1&#45;&gt;Node18</title>
<path fill="none" stroke="midnightblue" d="M686.19,-115.21C776.98,-107.45 941.52,-92.82 1092.54,-76.13"/>
<polygon fill="midnightblue" stroke="midnightblue" points="1093.38,-79.56 1102.93,-74.98 1092.61,-72.6 1093.38,-79.56"/>
</g>
<!-- Node3 -->
<g id="node3" class="node">
<title>Node3</title>
<g id="a_node3"><a xlink:title=" ">
<polygon fill="white" stroke="#bfbfbf" points="543.5,-0.5 543.5,-19.5 584.5,-19.5 584.5,-0.5 543.5,-0.5"/>
<text text-anchor="middle" x="564" y="-7.5" font-family="Helvetica,sans-Serif" font-size="10.00">string</text>
</a>
</g>
</g>
<!-- Node2&#45;&gt;Node3 -->
<g id="edge2" class="edge">
<title>Node2&#45;&gt;Node3</title>
<path fill="none" stroke="midnightblue" d="M84.26,-57.28C87.21,-56.82 90.15,-56.39 93,-56 258.25,-33.56 457.61,-18.41 533.06,-13.1"/>
<polygon fill="midnightblue" stroke="midnightblue" points="533.54,-16.58 543.27,-12.39 533.05,-9.59 533.54,-16.58"/>
</g>
<!-- Node18&#45;&gt;Node3 -->
<g id="edge18" class="edge">
<title>Node18&#45;&gt;Node3</title>
<path fill="none" stroke="midnightblue" d="M1102.93,-56.99C1099.92,-56.64 1096.92,-56.31 1094,-56 904.62,-35.8 676.39,-18.94 594.82,-13.15"/>
<polygon fill="midnightblue" stroke="midnightblue" points="594.96,-9.65 584.74,-12.44 594.47,-16.63 594.96,-9.65"/>
</g>
<!-- Node19 -->
<g id="node19" class="node">
<title>Node19</title>
<g id="a_node19"><a xlink:title=" ">
<polygon fill="white" stroke="#bfbfbf" points="1124.5,-0.5 1124.5,-19.5 1203.5,-19.5 1203.5,-0.5 1124.5,-0.5"/>
<text text-anchor="middle" x="1164" y="-7.5" font-family="Helvetica,sans-Serif" font-size="10.00">StringUtils.tpp</text>
</a>
</g>
</g>
<!-- Node18&#45;&gt;Node19 -->
<g id="edge19" class="edge">
<title>Node18&#45;&gt;Node19</title>
<path fill="none" stroke="midnightblue" d="M1164,-56.08C1164,-49.01 1164,-38.86 1164,-29.99"/>
<polygon fill="midnightblue" stroke="midnightblue" points="1167.5,-29.75 1164,-19.75 1160.5,-29.75 1167.5,-29.75"/>
</g>
</g>
</svg>
